g sprout_beet
v 0.4808438 0.9501619 0.1968833
v 1.296972 1.592371 0.4867637
v 0.6599857 0.9658018 0.5592889
v 0.9056582 1.322715 -0.2862682
v 1.924453 2.027126 -0.684771
v 0.5351748 1.592371 -1.094202
v 0.2001859 0.9404257 -0.4001991
v -0.006271677 -0.03061705 -0.001591511
v 0.02777254 0.9317521 -0.8039123
v -0.4767221 0.8650361 0.162316
v -1.011485 1.575465 0.7727007
v -0.7682968 0.8647847 0.01384741
v -0.3671542 1.098544 0.8914785
v -0.3038925 1.058821 2.164587
v 0.3524991 1.020059 1.183997
v 0.03375765 0.7501103 0.3844998
v -0.006271677 -0.03061705 -0.001591511
v 0.3765774 0.6601271 0.5594476
vt 0.1899006 0.1280928
vt 0.2616831 0.3021732
vt 0.2420871 0.1185549
vt 0.1490805 0.2638951
vt 0.1492372 0.5142561
vt 0.03663456 0.303239
vt 0.108417 0.1271964
vt 0.1491842 0.02192193
vt 0.05623031 0.1167809
vt 0.5662429 0.1280927
vt 0.6380256 0.3021732
vt 0.6184294 0.1185549
vt 0.5254228 0.2638951
vt 0.5255796 0.5142561
vt 0.4129771 0.3032391
vt 0.4847594 0.1271964
vt 0.5255266 0.0219219
vt 0.4325728 0.1167809
vn -0.6903849 0.6892529 0.2197707
vn -0.6044142 0.7942508 0.0620413
vn -0.6415826 0.7555233 0.1325005
vn -0.5402762 0.802074 0.2545168
vn -0.4905276 0.8402134 0.2311368
vn -0.4808176 0.7657055 0.4272112
vn -0.6418536 0.6607051 0.3892208
vn -0.852147 0.3433045 0.3949528
vn -0.5609249 0.7211073 0.4066542
vn 0.4818505 0.7247599 -0.4924866
vn 0.5595061 0.7930118 -0.2410083
vn 0.5042158 0.7489408 -0.4299467
vn 0.4343418 0.8756757 -0.211043
vn 0.3429344 0.9392793 0.01226652
vn 0.207868 0.9601553 -0.1867958
vn 0.3716282 0.7604582 -0.5325372
vn 0.4397399 0.3799089 -0.813817
vn 0.3176231 0.8527874 -0.4145711
g sprout_beet_0
f 3/3/3 2/2/2 1/1/1
f 2/2/2 4/4/4 1/1/1
f 2/2/2 5/5/5 4/4/4
f 5/5/5 6/6/6 4/4/4
f 4/4/4 7/7/7 1/1/1
f 7/7/7 4/4/4 6/6/6
f 7/7/7 8/8/8 1/1/1
f 9/9/9 7/7/7 6/6/6
f 12/12/12 11/11/11 10/10/10
f 11/11/11 13/13/13 10/10/10
f 11/11/11 14/14/14 13/13/13
f 14/14/14 15/15/15 13/13/13
f 13/13/13 16/16/16 10/10/10
f 16/16/16 13/13/13 15/15/15
f 16/16/16 17/17/17 10/10/10
f 18/18/18 16/16/16 15/15/15
