g fabricator_glass
v 2.20784 3.684619 1.453152
v -1.116404 3.688444 -1.613379
v 2.20784 3.684 -1.603892
v -1.116404 3.689142 1.452031
v 2.20784 3.67334 1.566537
v -1.116404 3.677986 1.566295
v 2.20784 3.637063 1.660244
v -1.116404 3.641627 1.661191
v 2.20784 3.577767 1.741369
v -1.116404 3.58193 1.743452
v 2.20784 3.499493 1.804384
v -1.116404 3.502964 1.807469
v 2.20784 3.407577 1.844997
v -1.116404 3.410109 1.84888
v 2.20784 3.281435 1.859828
v -1.116404 3.283144 1.864169
v 2.20784 1.318149 1.860305
v -1.116404 1.318149 1.863555
vt 0.9906065 0.458887
vt 0.008121938 0.9948003
vt 0.9906065 0.9931254
vt 0.008121938 0.4589755
vt 0.9906065 0.439644
vt 0.008121938 0.43964
vt 0.9906065 0.4207178
vt 0.008121938 0.4204987
vt 0.9906065 0.4026194
vt 0.008121908 0.4021458
vt 0.9906065 0.3885535
vt 0.008121938 0.3878713
vt 0.9906601 0.3697791
vt 0.008176059 0.3689772
vt 0.9907335 0.3481982
vt 0.008250058 0.3473878
vt 0.9918783 0.006357133
vt 0.00939548 0.00519976
vn 0.001349409 0.9999936 0.003327359
vn 0.001349067 0.999999 -0.0002152679
vn 0.001349067 0.999999 -0.0002152679
vn 0.001349408 0.9999936 0.003323854
vn 0.001354362 0.9748858 0.2227007
vn 0.001354367 0.9749008 0.2226354
vn 0.001341524 0.8782626 0.4781768
vn 0.001341524 0.8782948 0.4781176
vn 0.001339239 0.7245578 0.6892127
vn 0.00133924 0.7246048 0.6891633
vn 0.001336616 0.5215088 0.8532448
vn 0.001336616 0.5215665 0.8532096
vn 0.001327338 0.2480627 0.9687431
vn 0.001327345 0.2481398 0.9687233
vn 0.001152001 0.007166624 0.9999737
vn 0.001152012 0.007174122 0.9999737
vn 0.001141679 -3.507561E-05 0.9999994
vn 0.001141679 -3.507561E-05 0.9999994
g fabricator_glass_0
f 3/3/3 2/2/2 1/1/1
f 2/2/2 4/4/4 1/1/1
f 5/5/5 1/1/1 4/4/4
f 6/6/6 5/5/5 4/4/4
f 7/7/7 5/5/5 6/6/6
f 8/8/8 7/7/7 6/6/6
f 9/9/9 7/7/7 8/8/8
f 10/10/10 9/9/9 8/8/8
f 11/11/11 9/9/9 10/10/10
f 12/12/12 11/11/11 10/10/10
f 13/13/13 11/11/11 12/12/12
f 14/14/14 13/13/13 12/12/12
f 15/15/15 13/13/13 14/14/14
f 16/16/16 15/15/15 14/14/14
f 17/17/17 15/15/15 16/16/16
f 18/18/18 17/17/17 16/16/16
