g fabricator_beam
v 0.5209308 2.255117 1.411949
v 1.993872 2.19925 1.466878
v 0.5209308 2.19925 1.466878
v 1.993872 2.255118 1.411949
v 0.5209308 2.255117 -0.9681626
v 1.993872 2.255118 -0.9681627
v 0.5209308 2.19925 -1.023092
v 1.993872 2.19925 -1.023092
v 0.5209308 2.19925 1.466878
v 1.993872 2.19925 1.466878
v 1.993872 2.151456 1.411949
v 0.5209308 2.151456 1.411949
v 1.993872 2.151456 -0.9681627
v 0.5209308 2.151456 -0.9681626
v 1.993872 2.19925 -1.023092
v 0.5209308 2.19925 -1.023092
v -0.9053787 2.19925 -1.023092
v 0.5209308 2.151456 -0.9681626
v 0.5209308 2.19925 -1.023092
v -0.9053787 2.151456 -0.9681627
v 0.5209308 2.151456 1.411949
v -0.9053787 2.151456 1.411949
v 0.5209308 2.19925 1.466878
v -0.9053787 2.19925 1.466878
v -0.9053787 2.255118 -0.9681627
v -0.9053787 2.19925 -1.023092
v 0.5209308 2.19925 -1.023092
v 0.5209308 2.255117 -0.9681626
v -0.9053787 2.255118 1.411949
v 0.5209308 2.255117 1.411949
v -0.9053787 2.19925 1.466878
v 0.5209308 2.19925 1.466878
vt 0.4919578 0.9526497
vt 0.001038313 0.9983844
vt 0.4919578 0.9983842
vt 0.001038313 0.9526498
vt 0.491958 0.04735044
vt 0.001038313 0.04735044
vt 0.491958 0.001615554
vt 0.001038313 0.001615673
vt 0.4919578 0.9983842
vt 0.001038313 0.9983844
vt 0.001038313 0.9526496
vt 0.4919578 0.9526495
vt 0.001038313 0.04735014
vt 0.491958 0.04735014
vt 0.001038313 0.001615673
vt 0.491958 0.001615554
vt 5.960464E-08 0.001615554
vt 0.491958 0.04735014
vt 0.491958 0.001615554
vt 5.960464E-08 0.04735005
vt 0.4919578 0.9526495
vt -2.980232E-08 0.9526495
vt 0.4919578 0.9983842
vt -2.980232E-08 0.9983844
vt 5.960464E-08 0.04735029
vt 5.960464E-08 0.001615554
vt 0.491958 0.001615554
vt 0.491958 0.04735044
vt -2.980232E-08 0.9526497
vt 0.4919578 0.9526497
vt -2.980232E-08 0.9983844
vt 0.4919578 0.9983842
vn 0 0.9997368 0.02293691
vn -1.079814E-07 0 1
vn 0 0 1
vn -1.041249E-07 0.9997368 0.02293693
vn 0 0.9997368 -0.0229369
vn -1.029318E-07 0.9997368 -0.02293693
vn 0 0 -1
vn 0 1.017931E-07 -1
vn 0 0 1
vn -1.079814E-07 0 1
vn 0 -0.9998074 0.0196239
vn 0 -0.9998074 0.0196239
vn 0 -0.9998074 -0.01962391
vn 0 -0.9998074 -0.0196239
vn 0 1.017931E-07 -1
vn 0 0 -1
vn 0 0 -1
vn 0 -0.9998074 -0.0196239
vn 0 0 -1
vn 0 -0.9998074 -0.01962391
vn 0 -0.9998074 0.0196239
vn 0 -0.9998074 0.0196239
vn 0 0 1
vn 1.23843E-07 0 1
vn 1.06297E-07 0.9997368 -0.02293689
vn 0 0 -1
vn 0 0 -1
vn 0 0.9997368 -0.0229369
vn 1.080539E-07 0.9997368 0.02293689
vn 0 0.9997368 0.02293691
vn 1.23843E-07 0 1
vn 0 0 1
g fabricator_beam_0
f 3/3/3 2/2/2 1/1/1
f 2/2/2 4/4/4 1/1/1
f 1/1/1 4/4/4 5/5/5
f 4/4/4 6/6/6 5/5/5
f 5/5/5 6/6/6 7/7/7
f 6/6/6 8/8/8 7/7/7
f 11/11/11 10/10/10 9/9/9
f 12/12/12 11/11/11 9/9/9
f 13/13/13 11/11/11 12/12/12
f 14/14/14 13/13/13 12/12/12
f 15/15/15 13/13/13 14/14/14
f 16/16/16 15/15/15 14/14/14
f 19/19/19 18/18/18 17/17/17
f 18/18/18 20/20/20 17/17/17
f 18/18/18 21/21/21 20/20/20
f 21/21/21 22/22/22 20/20/20
f 21/21/21 23/23/23 22/22/22
f 23/23/23 24/24/24 22/22/22
f 27/27/27 26/26/26 25/25/25
f 28/28/28 27/27/27 25/25/25
f 28/28/28 25/25/25 29/29/29
f 30/30/30 28/28/28 29/29/29
f 30/30/30 29/29/29 31/31/31
f 32/32/32 30/30/30 31/31/31
