g anten_LOD1
v -0.1766199 0.7168411 0.2656918
v -0.1249193 0.7401679 0.2604888
v -0.1354103 0.7397203 0.1893767
v -0.1766199 0.7168411 0.2656918
v -0.1907742 0.8770636 0.2407394
v -0.1772511 0.8801686 0.2415985
v -0.2319192 0.9714995 0.3262163
v -0.08982968 0.7694431 0.2320189
v -0.1354103 0.7397203 0.1893767
v -0.2185447 0.9757217 0.3265181
v -0.2621478 0.9620866 0.4770135
v -0.1684653 0.887453 0.2339727
v -0.2281687 0.9756335 0.4857776
v -0.2736309 0.9992083 0.5408431
v -0.2112526 0.9873064 0.3216693
v -0.0885473 0.7944434 0.1903729
v -0.1354103 0.7397203 0.1893767
v -0.1691964 0.895317 0.2228972
v -0.2133202 1.012291 0.4929465
v -0.2736309 0.9992083 0.5408431
v -0.2263004 1.050586 0.4943216
v -0.2142468 0.9992675 0.314445
v -0.1197896 0.8047988 0.1563904
v -0.1354103 0.7397203 0.1893767
v -0.1786518 0.8996823 0.2153294
v -0.2257402 1.004518 0.309212
v -0.2595058 1.068086 0.489097
v -0.2736309 0.9992083 0.5408431
v -0.2021907 0.7401679 0.2194286
v -0.1766199 0.7168411 0.2656918
v -0.1354103 0.7397203 0.1893767
v -0.1992365 0.7694431 0.1741935
v -0.1354103 0.7397203 0.1893767
v -0.2020909 0.8877497 0.2207263
v -0.2010721 0.8801132 0.2319453
v -0.1766199 0.7168411 0.2656918
v -0.1907742 0.8770636 0.2407394
v -0.2435909 0.9771788 0.3209095
v -0.2319192 0.9714995 0.3262163
v -0.2466637 0.9892868 0.3137026
v -0.2953533 0.9795867 0.4717895
v -0.2621478 0.9620866 0.4770135
v -0.2736309 0.9992083 0.5408431
v -0.3083335 1.017882 0.4731645
v -0.2736309 0.9992083 0.5408431
v -0.293485 1.054539 0.4803336
v -0.2392951 1.000702 0.3087888
v -0.1929263 0.8957382 0.213791
v -0.2595058 1.068086 0.489097
v -0.2736309 0.9992083 0.5408431
v -0.2257402 1.004518 0.309212
v -0.1786518 0.8996823 0.2153294
v -0.1659416 0.7944434 0.1495448
v -0.1354103 0.7397203 0.1893767
v -0.1197896 0.8047988 0.1563904
v -0.1354103 0.7397203 0.1893767
v 0.1249193 0.7401679 0.2604888
v 0.1742993 0.8059251 0.2456129
v 0.1766199 0.7168411 0.2656918
v 0.1543555 0.8104272 0.2477147
v 0.214043 0.9750656 0.2716528
v 0.2014805 0.9778526 0.2708946
v 0.2458106 1.076348 0.3743726
v 0.2283679 1.082973 0.3745137
v 0.2621478 1.075758 0.449689
v 0.2281687 1.091278 0.4551108
v 0.2736309 1.129183 0.503107
v 0.08982968 0.7694431 0.2320189
v 0.1354103 0.7397203 0.1893767
v 0.1766199 0.7168411 0.2656918
v 0.1406746 0.8213043 0.2361429
v 0.1936931 0.98458 0.2627898
v 0.2195848 1.099055 0.3676091
v 0.0885473 0.7944434 0.1903729
v 0.1354103 0.7397203 0.1893767
v 0.1411186 0.8321813 0.2178658
v 0.1197896 0.8047988 0.1563904
v 0.1354103 0.7397203 0.1893767
v 0.15499 0.8366871 0.2038382
v 0.1949318 0.9913079 0.252141
v 0.2046116 0.9940948 0.2450603
v 0.2245859 1.11512 0.3576705
v 0.2404538 1.12175 0.3505204
v 0.2133202 1.128744 0.4537566
v 0.2736309 1.129183 0.503107
v 0.2263004 1.16621 0.44642
v 0.2595058 1.181729 0.4373987
v 0.2736309 1.129183 0.503107
v 0.3083335 1.128744 0.4333317
v 0.293485 1.16621 0.4319775
v 0.2667282 1.099055 0.3573381
v 0.2458106 1.076348 0.3743726
v 0.2621478 1.075758 0.449689
v 0.2736309 1.129183 0.503107
v 0.214043 0.9750656 0.2716528
v 0.2255051 0.98458 0.2537655
v 0.1742993 0.8059251 0.2456129
v 0.2579163 1.11512 0.3503853
v 0.1892818 0.8213043 0.2129688
v 0.1766199 0.7168411 0.2656918
v 0.1992365 0.7694431 0.1741935
v 0.2595058 1.181729 0.4373987
v 0.2736309 1.129183 0.503107
v 0.2404538 1.12175 0.3505204
v 0.2174768 0.9913079 0.24565
v 0.2046116 0.9940948 0.2450603
v 0.1755149 0.8321813 0.2015425
v 0.15499 0.8366871 0.2038382
v 0.1659416 0.7944434 0.1495448
v 0.1197896 0.8047988 0.1563904
v 0.1354103 0.7397203 0.1893767
v 0.1354103 0.7397203 0.1893767
v 0.1354103 0.7397203 0.1893767
v -0.3216356 0.7738901 -0.1854711
v -0.2830499 0.7045349 -0.1770329
v -0.2989863 0.6939185 -0.1707892
v -0.29447 0.5924786 -0.3039588
v -0.2755229 0.6055564 -0.3114524
v -0.3630901 0.612439 -0.4683559
v -0.3360395 0.6350625 -0.4796606
v -0.4721798 0.6540784 -0.6412414
v -0.4363995 0.690545 -0.6571607
v -0.5575022 0.7206166 -0.6932592
v -0.5157926 0.7631261 -0.7118166
v -0.6050458 0.7984505 -0.6583096
v -0.5615848 0.842745 -0.6776463
v -0.6828247 1.005983 -0.4343494
v -0.6411152 1.048493 -0.4529067
v -0.6190914 0.9886045 -0.3377299
v -0.5833111 1.025071 -0.3536493
v -0.4588872 0.8856297 -0.2457924
v -0.4314382 0.9085171 -0.257253
v 0.29447 0.5924786 -0.3039588
v 0.2989863 0.6939185 -0.1707892
v 0.4588872 0.8856297 -0.2457924
v 0.3630901 0.612439 -0.4683559
v 0.6190914 0.9886045 -0.3377299
v 0.4721798 0.6540784 -0.6412414
v 0.6828247 1.005983 -0.4343494
v 0.6050458 0.7984505 -0.6583096
v 0.5575022 0.7206166 -0.6932592
v -0.29447 0.5924786 -0.3039588
v -0.4588872 0.8856297 -0.2457924
v -0.2989863 0.6939185 -0.1707892
v -0.4120515 0.7471932 -0.3564816
v -0.3630901 0.612439 -0.4683559
v -0.6190914 0.9886045 -0.3377299
v -0.5397029 0.8164325 -0.4846074
v -0.4721798 0.6540784 -0.6412414
v -0.6828247 1.005983 -0.4343494
v -0.5575022 0.7206166 -0.6932592
v -0.6050458 0.7984505 -0.6583096
v -0.4314382 0.9085171 -0.257253
v -0.3216356 0.7738901 -0.1854711
v -0.2830499 0.7045349 -0.1770329
v -0.3756123 0.7783066 -0.3718061
v -0.2755229 0.6055564 -0.3114524
v -0.5833111 1.025071 -0.3536493
v -0.3360395 0.6350625 -0.4796606
v -0.4882249 0.8688978 -0.5075108
v -0.6411152 1.048493 -0.4529067
v -0.4363995 0.690545 -0.6571607
v -0.5615848 0.842745 -0.6776463
v -0.5157926 0.7631261 -0.7118166
v 0.2830499 0.7045349 -0.1770329
v 0.3756123 0.7783066 -0.3718061
v 0.4314382 0.9085171 -0.257253
v 0.2755229 0.6055564 -0.3114524
v 0.5833111 1.025071 -0.3536493
v 0.3360395 0.6350625 -0.4796606
v 0.4882249 0.8688978 -0.5075108
v 0.6411152 1.048493 -0.4529067
v 0.4363995 0.690545 -0.6571607
v 0.5615848 0.842745 -0.6776463
v 0.5157926 0.7631261 -0.7118166
v 0.4588872 0.8856297 -0.2457924
v 0.2989863 0.6939185 -0.1707892
v 0.2830499 0.7045349 -0.1770329
v 0.4314382 0.9085171 -0.257253
v 0.2755229 0.6055564 -0.3114524
v 0.6190914 0.9886045 -0.3377299
v 0.29447 0.5924786 -0.3039588
v 0.5833111 1.025071 -0.3536493
v 0.3360395 0.6350625 -0.4796606
v 0.6828247 1.005983 -0.4343494
v 0.3630901 0.612439 -0.4683559
v 0.6411152 1.048493 -0.4529067
v 0.4363995 0.690545 -0.6571607
v 0.6050458 0.7984505 -0.6583096
v 0.4721798 0.6540784 -0.6412414
v 0.5615848 0.842745 -0.6776463
v 0.5157926 0.7631261 -0.7118166
v 0.5575022 0.7206166 -0.6932592
vt 0.697084 0.0587194
vt 0.7662439 0.06655255
vt 0.8622971 0.01327133
vt 0.697084 0.0587194
vt 0.8318249 0.302021
vt 0.8420451 0.3023367
vt 0.8437687 0.5783069
vt 0.8618168 0.07159427
vt 0.8622971 0.01327133
vt 0.8538047 0.5787748
vt 0.7786397 0.8714666
vt 0.8667219 0.3031031
vt 0.8067955 0.8708282
vt 0.8717151 0.9791483
vt 0.8780851 0.5799352
vt 0.946725 0.07410413
vt 0.8622971 0.01327133
vt 0.8913992 0.3038692
vt 0.8747677 0.8692846
vt 0.8717151 0.9791483
vt 0.9427404 0.867741
vt 0.9023749 0.5810735
vt 0.9818954 0.07514361
vt 0.8622971 0.01327133
vt 0.9016207 0.3041872
vt 0.9124305 0.5815291
vt 0.9708953 0.8671013
vt 0.8717151 0.9791483
vt 0.7662439 0.06655255
vt 0.697084 0.0587194
vt 0.8622971 0.01327133
vt 0.8618168 0.07159427
vt 0.8622971 0.01327133
vt 0.8667219 0.3031031
vt 0.8420451 0.3023367
vt 0.697084 0.0587194
vt 0.8318249 0.302021
vt 0.8538047 0.5787748
vt 0.8437687 0.5783069
vt 0.8780851 0.5799352
vt 0.8067955 0.8708279
vt 0.7786397 0.8714666
vt 0.8717151 0.9791483
vt 0.8747677 0.8692846
vt 0.8717151 0.9791483
vt 0.9427404 0.867741
vt 0.9023749 0.5810735
vt 0.8913992 0.3038692
vt 0.9708953 0.8671013
vt 0.8717151 0.9791483
vt 0.9124305 0.5815291
vt 0.9016207 0.3041872
vt 0.946725 0.07410413
vt 0.8622971 0.01327133
vt 0.9818954 0.07514361
vt 0.8622971 0.01327133
vt 0.7662439 0.06655255
vt 0.8089734 0.1716906
vt 0.697084 0.0587194
vt 0.824272 0.1721382
vt 0.8405201 0.4540937
vt 0.849918 0.4544102
vt 0.8342876 0.705404
vt 0.8480506 0.705601
vt 0.7786397 0.8714666
vt 0.8067955 0.8708282
vt 0.8717151 0.9791483
vt 0.8618168 0.07159427
vt 0.8622971 0.01327133
vt 0.697084 0.0587194
vt 0.8612145 0.1732298
vt 0.8726052 0.4551735
vt 0.8814312 0.7061218
vt 0.946725 0.07410413
vt 0.8622971 0.01327133
vt 0.8981574 0.1743206
vt 0.9818954 0.07514361
vt 0.8622971 0.01327133
vt 0.9134597 0.1747737
vt 0.8952931 0.4559374
vt 0.9046906 0.4562541
vt 0.9148176 0.7065796
vt 0.9286205 0.7067322
vt 0.8747677 0.8692846
vt 0.8717151 0.9791483
vt 0.9427404 0.867741
vt 0.9708953 0.8671013
vt 0.8717151 0.9791483
vt 0.8747677 0.8692846
vt 0.9427404 0.867741
vt 0.8814312 0.7061218
vt 0.8342876 0.705404
vt 0.7786397 0.8714666
vt 0.8717151 0.9791483
vt 0.8405201 0.4540937
vt 0.8726052 0.4551735
vt 0.8089734 0.1716906
vt 0.9148176 0.7065796
vt 0.8612145 0.1732298
vt 0.697084 0.0587194
vt 0.8618168 0.07159427
vt 0.9708953 0.8671013
vt 0.8717151 0.9791483
vt 0.9286205 0.7067322
vt 0.8952931 0.4559374
vt 0.9046906 0.4562541
vt 0.8981574 0.1743206
vt 0.9134597 0.1747737
vt 0.946725 0.07410413
vt 0.9818954 0.07514361
vt 0.8622971 0.01327133
vt 0.8622971 0.01327133
vt 0.8622971 0.01327133
vt 0.2404756 0.1557924
vt 0.3180103 0.0724169
vt 0.3180103 0.0724169
vt 0.5507712 0.1557924
vt 0.5507712 0.1557924
vt 0.6601306 0.4080063
vt 0.6601306 0.4080063
vt 0.7417812 0.7182146
vt 0.7417812 0.7182146
vt 0.6909127 0.8918174
vt 0.6909127 0.8918174
vt 0.5588948 0.9431005
vt 0.5588948 0.9431005
vt 0.1003342 0.8918174
vt 0.1003342 0.8918174
vt 0.04946566 0.7182146
vt 0.04946566 0.7182146
vt 0.131116 0.4080063
vt 0.131116 0.4080063
vt 0.5507712 0.1557924
vt 0.3180103 0.0724169
vt 0.131116 0.4080063
vt 0.6601306 0.4080063
vt 0.04946566 0.7182146
vt 0.7417812 0.7182146
vt 0.1003342 0.8918174
vt 0.5588948 0.9431005
vt 0.6909127 0.8918174
vt 0.5507712 0.1557924
vt 0.131116 0.4080063
vt 0.3180103 0.0724169
vt 0.3956234 0.4078379
vt 0.6601306 0.4080063
vt 0.04946566 0.7182146
vt 0.3956234 0.7068601
vt 0.7417812 0.7182146
vt 0.1003342 0.8918174
vt 0.6909127 0.8918174
vt 0.5588948 0.9431005
vt 0.131116 0.4080063
vt 0.2404756 0.1557924
vt 0.3180103 0.0724169
vt 0.3956234 0.4078379
vt 0.5507712 0.1557924
vt 0.04946566 0.7182146
vt 0.6601306 0.4080063
vt 0.3956234 0.7068601
vt 0.1003342 0.8918174
vt 0.7417812 0.7182146
vt 0.5588948 0.9431005
vt 0.6909127 0.8918174
vt 0.3180103 0.0724169
vt 0.3956234 0.4078379
vt 0.131116 0.4080063
vt 0.5507712 0.1557924
vt 0.04946566 0.7182146
vt 0.6601306 0.4080063
vt 0.3956234 0.7068601
vt 0.1003342 0.8918174
vt 0.7417812 0.7182146
vt 0.5588948 0.9431005
vt 0.6909127 0.8918174
vt 0.131116 0.4080063
vt 0.3180103 0.0724169
vt 0.3180103 0.0724169
vt 0.131116 0.4080063
vt 0.5507712 0.1557924
vt 0.04946566 0.7182146
vt 0.5507712 0.1557924
vt 0.04946566 0.7182146
vt 0.6601306 0.4080063
vt 0.1003342 0.8918174
vt 0.6601306 0.4080063
vt 0.1003342 0.8918174
vt 0.7417812 0.7182146
vt 0.5588948 0.9431005
vt 0.7417812 0.7182146
vt 0.5588948 0.9431005
vt 0.6909127 0.8918174
vt 0.6909127 0.8918174
vn -0.3732544 -0.2854536 0.8827215
vn 0.358448 -0.1018002 0.9279827
vn 0.2675766 -0.8252246 -0.4974003
vn -0.3732544 -0.2854536 0.8827215
vn -0.4491982 -0.1354261 0.8831086
vn 0.3190857 0.0674238 0.9453245
vn -0.1283299 -0.9780176 0.1643558
vn 0.7993011 0.1378009 0.5849175
vn 0.2675766 -0.8252246 -0.4974003
vn 0.7006429 -0.6573123 0.2775607
vn -0.06814998 -0.9959914 0.0579377
vn 0.7580465 0.3442738 0.5539323
vn 0.686213 -0.7022246 0.1897169
vn -0.2092848 -0.1519157 0.9659821
vn 0.9928921 0.04124735 0.1116417
vn 0.9228101 0.3644069 -0.1250163
vn 0.2675766 -0.8252246 -0.4974003
vn 0.7816854 0.6084444 -0.136979
vn 0.9792289 -0.009337826 0.2025431
vn -0.2092848 -0.1519157 0.9659821
vn 0.7318044 0.6744572 0.09782544
vn 0.7502795 0.6383305 -0.1720897
vn 0.4501918 0.3915625 -0.8024998
vn 0.2675766 -0.8252246 -0.4974003
vn 0.2655933 0.6560155 -0.7064728
vn 0.1367616 0.8919155 -0.4310255
vn 0.07249448 0.9952213 -0.06541391
vn -0.2092848 -0.1519157 0.9659821
vn -0.9281068 -0.3287167 0.1748227
vn -0.3732544 -0.2854536 0.8827215
vn 0.2675766 -0.8252246 -0.4974003
vn -0.8665472 -0.1408813 -0.4787991
vn 0.2675766 -0.8252246 -0.4974003
vn -0.8969831 0.1017106 -0.4302051
vn -0.9637161 -0.1519483 0.2194605
vn -0.3732544 -0.2854536 0.8827215
vn -0.4491982 -0.1354261 0.8831086
vn -0.8048625 -0.575573 -0.1446101
vn -0.1283299 -0.9780176 0.1643558
vn -0.9096047 0.1023235 -0.4026776
vn -0.7754923 -0.622704 -0.1041707
vn -0.06814998 -0.9959914 0.0579377
vn -0.2092848 -0.1519157 0.9659821
vn -0.9758022 0.09774527 -0.1955909
vn -0.2092848 -0.1519157 0.9659821
vn -0.6298143 0.7546148 -0.1840936
vn -0.523461 0.6784436 -0.5154638
vn -0.3898624 0.4491815 -0.8038925
vn 0.07249448 0.9952213 -0.06541391
vn -0.2092848 -0.1519157 0.9659821
vn 0.1367616 0.8919155 -0.4310255
vn 0.2655933 0.6560155 -0.7064728
vn -0.2984982 0.1778336 -0.9376961
vn 0.2675766 -0.8252246 -0.4974003
vn 0.4501918 0.3915625 -0.8024998
vn 0.2675766 -0.8252246 -0.4974003
vn -0.4289106 -0.271141 0.8616949
vn 0.7203853 -0.03825466 0.6925183
vn 0.6595047 -0.4666953 0.5892784
vn -0.2456685 0.1367913 0.9596537
vn 0.6648217 -0.46131 0.5875415
vn -0.4795804 -0.237413 0.8447708
vn 0.5191638 -0.8295931 0.2055338
vn -0.7061375 -0.6039441 0.3696234
vn 0.4329494 -0.8889386 0.1494756
vn -0.685365 -0.6393492 0.3485794
vn 0.3837205 -0.08508711 0.9195209
vn -0.8679729 0.04445306 0.4946181
vn -0.1521803 -0.8572801 -0.4918455
vn 0.6595047 -0.4666953 0.5892784
vn -0.7021567 0.3586309 0.6151096
vn -0.9330671 0.1263296 0.3367889
vn -0.9983101 0.009687571 0.05729816
vn -0.9161661 0.3603939 -0.1753737
vn -0.1521803 -0.8572801 -0.4918455
vn -0.8003838 0.5966115 -0.05865664
vn -0.4330215 0.452931 -0.7793241
vn -0.1521803 -0.8572801 -0.4918455
vn -0.3119436 0.6291291 -0.7119606
vn -0.8330973 0.4254985 -0.353412
vn -0.247278 0.4994364 -0.8303112
vn -0.7651399 0.5441948 -0.344112
vn -0.1384097 0.7572676 -0.63827
vn -0.9689544 0.03718453 0.2444276
vn 0.3837205 -0.08508711 0.9195209
vn -0.7236809 0.6897028 0.02441586
vn -0.04253827 0.9789346 -0.1996937
vn 0.3837205 -0.08508711 0.9195209
vn 0.9602436 -0.2548201 -0.1140128
vn 0.6687366 0.6894539 -0.2782891
vn 0.9216759 -0.2882406 -0.2596748
vn 0.5191638 -0.8295931 0.2055338
vn 0.4329494 -0.8889386 0.1494756
vn 0.3837205 -0.08508711 0.9195209
vn 0.6648217 -0.46131 0.5875415
vn 0.9679481 -0.2154109 -0.12913
vn 0.7203853 -0.03825466 0.6925183
vn 0.5290295 0.5254614 -0.6663467
vn 0.998373 -0.008806123 0.05633591
vn 0.6595047 -0.4666953 0.5892784
vn 0.9542643 -0.2137202 -0.2090535
vn -0.04253827 0.9789346 -0.1996937
vn 0.3837205 -0.08508711 0.9195209
vn -0.1384097 0.7572676 -0.63827
vn 0.435586 0.3116114 -0.8444899
vn -0.247278 0.4994364 -0.8303112
vn 0.4414994 0.4037623 -0.8012829
vn -0.3119436 0.6291291 -0.7119606
vn 0.306617 0.245956 -0.9195062
vn -0.4330215 0.452931 -0.7793241
vn -0.1521803 -0.8572801 -0.4918455
vn -0.1521803 -0.8572801 -0.4918455
vn -0.1521803 -0.8572801 -0.4918455
vn 0.7840183 0.6146092 0.08701116
vn 0.9053712 0.390985 -0.1656308
vn -0.7246171 -0.5376832 0.4310762
vn -0.6672005 -0.6726424 0.3199935
vn 0.9380256 0.2532503 -0.236585
vn -0.60213 -0.7675774 0.2196914
vn 0.8831213 0.2940584 -0.3655497
vn -0.5759311 -0.810001 0.1104615
vn 0.8213402 0.2591578 -0.5081708
vn -0.6905681 -0.6715251 -0.2686443
vn 0.4690545 0.31027 -0.8268738
vn -0.9448586 -0.1628959 -0.2840905
vn -0.04240222 0.6592901 -0.7506921
vn -0.996525 0.01574061 -0.08179326
vn -0.08944247 0.8641256 -0.4952646
vn -0.7249816 -0.3594365 0.5875433
vn 0.573707 0.8190392 -0.005930468
vn -0.6990204 -0.4398533 0.5638258
vn 0.7095296 0.7036785 -0.03747345
vn 0.7367963 -0.5988611 0.3138416
vn 0.7426075 -0.492148 0.4542296
vn 0.7182484 -0.5095699 0.4737697
vn 0.6757039 -0.6672098 0.3134573
vn 0.7296467 -0.4879161 0.4791173
vn 0.6370256 -0.728917 0.2507557
vn 0.9841754 -0.1726204 0.04001195
vn 0.9405707 -0.3174975 -0.1205083
vn 0.5041562 -0.5430219 -0.6715308
vn -0.6672005 -0.6726424 0.3199935
vn -0.6990204 -0.4398533 0.5638258
vn -0.7246171 -0.5376832 0.4310762
vn -0.7419334 -0.5678097 0.3565486
vn -0.60213 -0.7675774 0.2196914
vn -0.7249816 -0.3594365 0.5875433
vn -0.7023844 -0.6104194 0.3661209
vn -0.5759311 -0.810001 0.1104615
vn -0.996525 0.01574061 -0.08179326
vn -0.6905681 -0.6715251 -0.2686443
vn -0.9448586 -0.1628959 -0.2840905
vn 0.7095296 0.7036785 -0.03747345
vn 0.7840183 0.6146092 0.08701116
vn 0.9053712 0.390985 -0.1656308
vn 0.8096646 0.51814 -0.275634
vn 0.9380256 0.2532503 -0.236585
vn 0.573707 0.8190392 -0.005930468
vn 0.8831213 0.2940584 -0.3655497
vn 0.7439758 0.588946 -0.3156621
vn -0.08944247 0.8641256 -0.4952646
vn 0.8213402 0.2591578 -0.5081708
vn -0.04240222 0.6592901 -0.7506921
vn 0.4690545 0.31027 -0.8268738
vn -0.8905686 0.4525748 0.04542695
vn -0.8096258 0.5200903 -0.2720519
vn -0.7088402 0.7047547 -0.02943424
vn -0.9380256 0.2532502 -0.236585
vn -0.5737069 0.8190392 -0.005930277
vn -0.8831213 0.2940584 -0.3655497
vn -0.7439757 0.5889461 -0.3156621
vn 0.08944266 0.8641258 -0.4952642
vn -0.8213401 0.259158 -0.5081709
vn 0.04240252 0.6592902 -0.750692
vn -0.4690541 0.3102704 -0.826874
vn 0.7182484 -0.5095699 0.4737697
vn 0.7426075 -0.492148 0.4542296
vn -0.8905686 0.4525748 0.04542695
vn -0.7088402 0.7047547 -0.02943424
vn -0.9380256 0.2532502 -0.236585
vn 0.7296467 -0.4879161 0.4791173
vn 0.7367963 -0.5988611 0.3138416
vn -0.5737069 0.8190392 -0.005930277
vn -0.8831213 0.2940584 -0.3655497
vn 0.9841754 -0.1726204 0.04001195
vn 0.6757039 -0.6672098 0.3134573
vn 0.08944266 0.8641258 -0.4952642
vn -0.8213401 0.259158 -0.5081709
vn 0.9405707 -0.3174975 -0.1205083
vn 0.6370256 -0.728917 0.2507557
vn 0.04240252 0.6592902 -0.750692
vn -0.4690541 0.3102704 -0.826874
vn 0.5041562 -0.5430219 -0.6715308
g anten_LOD1_0
f 3/3/3 2/2/2 1/1/1
f 5/5/5 4/4/4 2/2/2
f 6/6/6 5/5/5 2/2/2
f 7/7/7 5/5/5 6/6/6
f 6/6/6 2/2/2 8/8/8
f 9/9/9 8/8/8 2/2/2
f 10/10/10 7/7/7 6/6/6
f 11/11/11 7/7/7 10/10/10
f 12/12/12 6/6/6 8/8/8
f 10/10/10 6/6/6 12/12/12
f 13/13/13 11/11/11 10/10/10
f 14/14/14 11/11/11 13/13/13
f 13/13/13 10/10/10 15/15/15
f 15/15/15 10/10/10 12/12/12
f 12/12/12 8/8/8 16/16/16
f 17/17/17 16/16/16 8/8/8
f 18/18/18 12/12/12 16/16/16
f 15/15/15 12/12/12 18/18/18
f 19/19/19 13/13/13 15/15/15
f 20/20/20 13/13/13 19/19/19
f 20/20/20 19/19/19 21/21/21
f 19/19/19 15/15/15 22/22/22
f 22/22/22 15/15/15 18/18/18
f 21/21/21 19/19/19 22/22/22
f 18/18/18 16/16/16 23/23/23
f 24/24/24 23/23/23 16/16/16
f 25/25/25 18/18/18 23/23/23
f 22/22/22 18/18/18 25/25/25
f 26/26/26 22/22/22 25/25/25
f 21/21/21 22/22/22 26/26/26
f 27/27/27 21/21/21 26/26/26
f 28/28/28 21/21/21 27/27/27
f 31/31/31 30/30/30 29/29/29
f 33/33/33 29/29/29 32/32/32
f 34/34/34 32/32/32 29/29/29
f 35/35/35 34/34/34 29/29/29
f 35/35/35 29/29/29 36/36/36
f 37/37/37 35/35/35 36/36/36
f 38/38/38 35/35/35 37/37/37
f 39/39/39 38/38/38 37/37/37
f 40/40/40 34/34/34 35/35/35
f 38/38/38 40/40/40 35/35/35
f 41/41/41 38/38/38 39/39/39
f 42/42/42 41/41/41 39/39/39
f 43/43/43 41/41/41 42/42/42
f 41/41/41 44/44/44 38/38/38
f 44/44/44 40/40/40 38/38/38
f 45/45/45 44/44/44 41/41/41
f 45/45/45 46/46/46 44/44/44
f 44/44/44 46/46/46 40/40/40
f 40/40/40 47/47/47 34/34/34
f 46/46/46 47/47/47 40/40/40
f 34/34/34 48/48/48 32/32/32
f 47/47/47 48/48/48 34/34/34
f 46/46/46 49/49/49 47/47/47
f 50/50/50 49/49/49 46/46/46
f 49/49/49 51/51/51 47/47/47
f 47/47/47 51/51/51 48/48/48
f 51/51/51 52/52/52 48/48/48
f 48/48/48 53/53/53 32/32/32
f 48/48/48 52/52/52 53/53/53
f 54/54/54 32/32/32 53/53/53
f 52/52/52 55/55/55 53/53/53
f 56/56/56 53/53/53 55/55/55
f 59/59/59 58/58/58 57/57/57
f 58/58/58 60/60/60 57/57/57
f 58/58/58 61/61/61 60/60/60
f 61/61/61 62/62/62 60/60/60
f 61/61/61 63/63/63 62/62/62
f 63/63/63 64/64/64 62/62/62
f 63/63/63 65/65/65 64/64/64
f 65/65/65 66/66/66 64/64/64
f 65/65/65 67/67/67 66/66/66
f 57/57/57 60/60/60 68/68/68
f 68/68/68 69/69/69 57/57/57
f 57/57/57 69/69/69 70/70/70
f 60/60/60 62/62/62 71/71/71
f 60/60/60 71/71/71 68/68/68
f 62/62/62 64/64/64 72/72/72
f 62/62/62 72/72/72 71/71/71
f 64/64/64 66/66/66 73/73/73
f 64/64/64 73/73/73 72/72/72
f 68/68/68 71/71/71 74/74/74
f 74/74/74 75/75/75 68/68/68
f 71/71/71 72/72/72 76/76/76
f 71/71/71 76/76/76 74/74/74
f 74/74/74 76/76/76 77/77/77
f 77/77/77 78/78/78 74/74/74
f 76/76/76 79/79/79 77/77/77
f 72/72/72 80/80/80 76/76/76
f 76/76/76 80/80/80 79/79/79
f 72/72/72 73/73/73 80/80/80
f 80/80/80 81/81/81 79/79/79
f 80/80/80 82/82/82 81/81/81
f 73/73/73 82/82/82 80/80/80
f 82/82/82 83/83/83 81/81/81
f 66/66/66 84/84/84 73/73/73
f 73/73/73 84/84/84 82/82/82
f 66/66/66 85/85/85 84/84/84
f 82/82/82 86/86/86 83/83/83
f 84/84/84 86/86/86 82/82/82
f 84/84/84 85/85/85 86/86/86
f 86/86/86 87/87/87 83/83/83
f 86/86/86 88/88/88 87/87/87
f 90/90/90 85/85/85 89/89/89
f 90/90/90 89/89/89 91/91/91
f 91/91/91 89/89/89 92/92/92
f 89/89/89 93/93/93 92/92/92
f 89/89/89 94/94/94 93/93/93
f 91/91/91 92/92/92 95/95/95
f 96/96/96 91/91/91 95/95/95
f 96/96/96 95/95/95 97/97/97
f 98/98/98 90/90/90 91/91/91
f 98/98/98 91/91/91 96/96/96
f 99/99/99 96/96/96 97/97/97
f 99/99/99 97/97/97 100/100/100
f 101/101/101 99/99/99 100/100/100
f 102/102/102 90/90/90 98/98/98
f 102/102/102 103/103/103 90/90/90
f 104/104/104 102/102/102 98/98/98
f 105/105/105 98/98/98 96/96/96
f 104/104/104 98/98/98 105/105/105
f 105/105/105 96/96/96 99/99/99
f 106/106/106 104/104/104 105/105/105
f 107/107/107 105/105/105 99/99/99
f 106/106/106 105/105/105 107/107/107
f 107/107/107 99/99/99 101/101/101
f 108/108/108 106/106/106 107/107/107
f 108/108/108 107/107/107 109/109/109
f 109/109/109 107/107/107 101/101/101
f 110/110/110 108/108/108 109/109/109
f 109/109/109 111/111/111 110/110/110
f 101/101/101 112/112/112 109/109/109
f 70/70/70 113/113/113 101/101/101
f 116/116/116 115/115/115 114/114/114
f 116/116/116 117/117/117 115/115/115
f 117/117/117 118/118/118 115/115/115
f 117/117/117 119/119/119 118/118/118
f 119/119/119 120/120/120 118/118/118
f 119/119/119 121/121/121 120/120/120
f 121/121/121 122/122/122 120/120/120
f 121/121/121 123/123/123 122/122/122
f 123/123/123 124/124/124 122/122/122
f 123/123/123 125/125/125 124/124/124
f 125/125/125 126/126/126 124/124/124
f 125/125/125 127/127/127 126/126/126
f 127/127/127 128/128/128 126/126/126
f 127/127/127 129/129/129 128/128/128
f 129/129/129 130/130/130 128/128/128
f 129/129/129 131/131/131 130/130/130
f 131/131/131 132/132/132 130/130/130
f 131/131/131 116/116/116 132/132/132
f 135/135/135 134/134/134 133/133/133
f 136/136/136 135/135/135 133/133/133
f 137/137/137 135/135/135 136/136/136
f 138/138/138 137/137/137 136/136/136
f 139/139/139 137/137/137 138/138/138
f 140/140/140 139/139/139 138/138/138
f 140/140/140 138/138/138 141/141/141
f 144/144/144 143/143/143 142/142/142
f 143/143/143 145/145/145 142/142/142
f 145/145/145 146/146/146 142/142/142
f 143/143/143 147/147/147 145/145/145
f 145/145/145 148/148/148 146/146/146
f 147/147/147 148/148/148 145/145/145
f 148/148/148 149/149/149 146/146/146
f 147/147/147 150/150/150 148/148/148
f 148/148/148 151/151/151 149/149/149
f 150/150/150 152/152/152 148/148/148
f 148/148/148 152/152/152 151/151/151
f 144/144/144 154/154/154 153/153/153
f 153/153/153 154/154/154 155/155/155
f 156/156/156 153/153/153 155/155/155
f 156/156/156 155/155/155 157/157/157
f 158/158/158 153/153/153 156/156/156
f 159/159/159 156/156/156 157/157/157
f 160/160/160 158/158/158 156/156/156
f 160/160/160 156/156/156 159/159/159
f 161/161/161 158/158/158 160/160/160
f 162/162/162 160/160/160 159/159/159
f 163/163/163 161/161/161 160/160/160
f 164/164/164 160/160/160 162/162/162
f 163/163/163 160/160/160 164/164/164
f 167/167/167 166/166/166 165/165/165
f 165/165/165 166/166/166 168/168/168
f 167/167/167 169/169/169 166/166/166
f 166/166/166 170/170/170 168/168/168
f 169/169/169 171/171/171 166/166/166
f 166/166/166 171/171/171 170/170/170
f 169/169/169 172/172/172 171/171/171
f 171/171/171 173/173/173 170/170/170
f 172/172/172 174/174/174 171/171/171
f 171/171/171 175/175/175 173/173/173
f 171/171/171 174/174/174 175/175/175
f 178/178/178 177/177/177 176/176/176
f 179/179/179 178/178/178 176/176/176
f 178/178/178 180/180/180 177/177/177
f 179/179/179 176/176/176 181/181/181
f 180/180/180 182/182/182 177/177/177
f 183/183/183 179/179/179 181/181/181
f 180/180/180 184/184/184 182/182/182
f 183/183/183 181/181/181 185/185/185
f 184/184/184 186/186/186 182/182/182
f 187/187/187 183/183/183 185/185/185
f 184/184/184 188/188/188 186/186/186
f 187/187/187 185/185/185 189/189/189
f 188/188/188 190/190/190 186/186/186
f 191/191/191 187/187/187 189/189/189
f 188/188/188 192/192/192 190/190/190
f 191/191/191 189/189/189 193/193/193
f 192/192/192 193/193/193 190/190/190
f 192/192/192 191/191/191 193/193/193
