g aquarium
v 16.29307 12.6 8.182676
v 16.29307 14 8.182676
v 17.93111 14 8.191755
v 17.93111 12.6 8.191755
v 18.70353 14 8.515469
v 18.70353 12.6 8.515469
v 19.02295 14 9.289665
v 19.02295 12.6 9.289664
v 19.02295 14 16.6917
v 19.02295 12.6 16.6917
v 19.02295 14 23.80014
v 19.02295 12.6 23.80014
v 18.70149 14 24.57622
v 18.70149 12.6 24.57622
v 17.92541 14 24.89768
v 17.92541 12.6 24.89768
v 9.511477 12.6 24.89768
v 9.511477 14 24.89768
v -3.049087E-15 14 24.89768
v -3.049087E-15 12.6 24.89768
v -9.511477 14 24.89768
v -9.511477 12.6 24.89768
v -17.92541 14 24.89768
v -17.92541 12.6 24.89768
v -18.70149 14 24.57622
v -18.70149 12.6 24.57622
v -19.02295 14 23.80014
v -19.02295 12.6 23.80014
v -19.02295 14 16.6917
v -19.02295 12.6 16.6917
v -19.02295 14 9.289665
v -19.02295 12.6 9.289665
v -18.70353 14 8.515469
v -18.70353 12.6 8.515469
v -17.93111 14 8.191755
v -17.93111 12.6 8.191755
v -16.29308 14 8.182676
v -16.29308 12.6 8.182676
v 14.93394 -1.490116E-07 10.85014
v 16.29307 -1.490116E-07 8.182676
v 17.93111 -1.490116E-07 8.191755
v 18.70353 -1.490116E-07 8.515469
v 19.02295 -1.490116E-07 9.289665
v 19.02295 -1.490116E-07 16.6917
v 19.02295 -1.490116E-07 23.80014
v 11.40024 -1.490116E-07 14.38383
v 18.70149 -1.490116E-07 24.57622
v 10.81088 -1.490116E-07 14.88607
v 17.92541 -1.490116E-07 24.89768
v 10.14396 -1.490116E-07 15.29376
v 5.704256 -1.490116E-07 17.55589
v 9.511477 -1.490116E-07 24.89768
v -3.049087E-15 -1.490116E-07 24.89768
v -2.26062E-15 -1.490116E-07 18.45936
v -9.511477 -1.490116E-07 24.89768
v -5.704256 -1.490116E-07 17.5559
v -17.92541 -1.490116E-07 24.89768
v -10.14396 -1.490116E-07 15.29376
v -18.70149 -1.490116E-07 24.57622
v -10.81088 -1.490116E-07 14.88607
v -19.02295 -1.490116E-07 23.80014
v -11.40024 -1.490116E-07 14.38384
v -14.93394 -1.490116E-07 10.85014
v -19.02295 -1.490116E-07 16.6917
v -19.02295 -1.490116E-07 9.289665
v -18.70353 -1.490116E-07 8.515469
v -17.93111 -1.490116E-07 8.191755
v -16.29308 -1.490116E-07 8.182676
v 17.93111 14 8.191755
v 16.29307 14 8.182676
v 14.93394 14 10.85014
v 18.70353 14 8.515469
v 19.02295 14 9.289665
v 19.02295 14 16.6917
v 11.40024 14 14.38383
v 19.02295 14 23.80014
v 10.81088 14 14.88607
v 18.70149 14 24.57622
v 10.14396 14 15.29376
v 17.92541 14 24.89768
v 5.704256 14 17.55589
v 9.511477 14 24.89768
v -2.26062E-15 14 18.45936
v -3.049087E-15 14 24.89768
v -5.704256 14 17.5559
v -9.511477 14 24.89768
v -10.14396 14 15.29376
v -17.92541 14 24.89768
v -10.81088 14 14.88607
v -18.70149 14 24.57622
v -11.40024 14 14.38384
v -19.02295 14 23.80014
v -14.93394 14 10.85014
v -19.02295 14 16.6917
v -19.02295 14 9.289665
v -18.70353 14 8.515469
v -17.93111 14 8.191755
v -16.29308 14 8.182676
v 16.29307 1.2 8.182676
v 16.29307 4.6 8.182676
v 17.93111 4.6 8.191755
v 17.93111 1.2 8.191755
v 18.70353 4.6 8.515469
v 18.70353 1.2 8.515469
v 19.02295 4.6 9.289665
v 19.02295 1.2 9.289665
v 19.02295 4.6 16.6917
v 19.02295 1.2 16.6917
v 19.02295 4.6 23.80014
v 19.02295 1.2 23.80014
v 18.70149 4.6 24.57622
v 18.70149 1.2 24.57622
v 17.92541 4.6 24.89768
v 17.92541 1.2 24.89768
v 9.511477 4.6 24.89768
v 9.511477 1.2 24.89768
v -3.049087E-15 4.6 24.89768
v -3.049087E-15 1.2 24.89768
v -9.511477 4.6 24.89768
v -9.511477 1.2 24.89768
v -17.92541 4.6 24.89768
v -17.92541 1.2 24.89768
v -18.70149 4.6 24.57622
v -18.70149 1.2 24.57622
v -19.02295 4.6 23.80014
v -19.02295 1.2 23.80014
v -19.02295 4.6 16.6917
v -19.02295 1.2 16.6917
v -19.02295 4.6 9.289665
v -19.02295 1.2 9.289665
v -18.70353 4.6 8.515469
v -18.70353 1.2 8.515469
v -17.93111 4.6 8.191755
v -17.93111 1.2 8.191755
v -16.29308 4.6 8.182676
v -16.29308 1.2 8.182676
v 17.93111 -1.490116E-07 8.191755
v 16.29307 -1.490116E-07 8.182676
v 16.29307 1.2 8.182676
v 17.93111 1.2 8.191755
v 18.70353 1.2 8.515469
v 18.70353 -1.490116E-07 8.515469
v 19.02295 1.2 9.289665
v 19.02295 -1.490116E-07 9.289665
v 19.02295 1.2 16.6917
v 19.02295 -1.490116E-07 16.6917
v 19.02295 -1.490116E-07 23.80014
v 19.02295 1.2 23.80014
v 18.70149 1.2 24.57622
v 18.70149 -1.490116E-07 24.57622
v 17.92541 1.2 24.89768
v 17.92541 -1.490116E-07 24.89768
v 9.511477 1.2 24.89768
v 9.511477 -1.490116E-07 24.89768
v -3.049087E-15 1.2 24.89768
v -3.049087E-15 -1.490116E-07 24.89768
v -9.511477 1.2 24.89768
v -9.511477 -1.490116E-07 24.89768
v -17.92541 1.2 24.89768
v -17.92541 -1.490116E-07 24.89768
v -18.70149 1.2 24.57622
v -18.70149 -1.490116E-07 24.57622
v -19.02295 1.2 23.80014
v -19.02295 -1.490116E-07 23.80014
v -19.02295 1.2 16.6917
v -19.02295 -1.490116E-07 16.6917
v -19.02295 -1.490116E-07 9.289665
v -19.02295 1.2 9.289665
v -18.70353 1.2 8.515469
v -18.70353 -1.490116E-07 8.515469
v -17.93111 1.2 8.191755
v -17.93111 -1.490116E-07 8.191755
v -16.29308 -1.490116E-07 8.182676
v -16.29308 1.2 8.182676
v -17.93111 4.6 8.191755
v -16.29308 12.6 8.182676
v -16.29308 4.6 8.182676
v -17.93111 12.6 8.191755
v -18.70353 4.6 8.515469
v -18.70353 12.6 8.515469
v -19.02295 4.6 9.289665
v -19.02295 12.6 9.289665
v -19.02295 4.6 16.6917
v -19.02295 12.6 16.6917
v -19.02295 4.6 23.80014
v -19.02295 12.6 23.80014
v -18.70149 4.6 24.57622
v -18.70149 12.6 24.57622
v -17.92541 4.6 24.89768
v -17.92541 12.6 24.89768
v -9.511477 4.6 24.89768
v -9.511477 12.6 24.89768
v -3.049087E-15 4.6 24.89768
v -3.049087E-15 12.6 24.89768
v 9.511477 4.6 24.89768
v 9.511477 12.6 24.89768
v 17.92541 4.6 24.89768
v 17.92541 12.6 24.89768
v 18.70149 4.6 24.57622
v 18.70149 12.6 24.57622
v 19.02295 4.6 23.80014
v 19.02295 12.6 23.80014
v 19.02295 4.6 16.6917
v 19.02295 12.6 16.6917
v 19.02295 4.6 9.289665
v 19.02295 12.6 9.289664
v 18.70353 4.6 8.515469
v 18.70353 12.6 8.515469
v 17.93111 4.6 8.191755
v 17.93111 12.6 8.191755
v 16.29307 4.6 8.182676
v 16.29307 12.6 8.182676
vt -0.9791799 -0.7561095
vt -0.979372 -0.6141728
vt -0.9213192 -0.6141728
vt -0.9211271 -0.7561095
vt -0.8916383 -0.6141728
vt -0.8914459 -0.7561095
vt -0.8619572 -0.6141728
vt -0.8617648 -0.7561095
vt -0.59963 -0.6141728
vt -0.5994377 -0.7561095
vt -0.3477079 -0.6141728
vt -0.3475157 -0.7561095
vt -0.3179375 -0.6141728
vt -0.3177453 -0.7561095
vt -0.2881672 -0.6141728
vt -0.287975 -0.7561095
vt 0.01021361 -0.7561095
vt 0.01002169 -0.6141728
vt 0.3471071 -0.6141728
vt 0.3472991 -0.7561095
vt 0.6841925 -0.6141728
vt 0.6843846 -0.7561095
vt 0.9823812 -0.6141728
vt 0.9825735 -0.7561095
vt 1.012151 -0.6141728
vt 1.012344 -0.7561095
vt 1.041922 -0.6141728
vt 1.042114 -0.7561095
vt 1.293844 -0.6141728
vt 1.294036 -0.7561095
vt 1.556171 -0.6141728
vt 1.556364 -0.7561095
vt 1.585852 -0.6141728
vt 1.586044 -0.7561095
vt 1.615533 -0.6141728
vt 1.615725 -0.7561095
vt 1.673586 -0.6141728
vt 1.673778 -0.7561095
vt 0.9427296 0.4335144
vt 0.9462269 0.4403186
vt 0.9504127 0.4402806
vt 0.9523836 0.4394463
vt 0.9531929 0.4374651
vt 0.9531261 0.4185497
vt 0.9530618 0.4003845
vt 0.9336675 0.4245161
vt 0.9522334 0.3984042
vt 0.932157 0.423238
vt 0.9502472 0.3975897
vt 0.930449 0.4222022
vt 0.9190832 0.4164616
vt 0.928746 0.3976657
vt 0.9044401 0.3977516
vt 0.9044982 0.4142044
vt 0.8801342 0.3978376
vt 0.8899295 0.4165646
vt 0.8586329 0.3979136
vt 0.8786047 0.4223854
vt 0.8566526 0.3987421
vt 0.8769041 0.4234333
vt 0.8558382 0.4007282
vt 0.8754025 0.424722
vt 0.8664043 0.433784
vt 0.8559024 0.4188932
vt 0.8559692 0.4378087
vt 0.8567925 0.4397842
vt 0.8587692 0.4406044
vt 0.8629552 0.4406129
vt 0.7481101 0.4373654
vt 0.7521302 0.4373894
vt 0.7554686 0.4308445
vt 0.7462148 0.4365702
vt 0.7454318 0.4346698
vt 0.7454398 0.416504
vt 0.7641448 0.4221761
vt 0.7454475 0.3990587
vt 0.7655917 0.4209442
vt 0.7462372 0.3971544
vt 0.7672288 0.4199444
vt 0.7481424 0.3963664
vt 0.778127 0.4143976
vt 0.7687914 0.3963755
vt 0.7921272 0.4121865
vt 0.7921341 0.3963858
vt 0.8061253 0.41441
vt 0.8154769 0.3963961
vt 0.8170186 0.4199664
vt 0.836126 0.3964053
vt 0.8186548 0.4209677
vt 0.8380304 0.397195
vt 0.8201007 0.4222009
vt 0.8388184 0.3990999
vt 0.8287692 0.4308769
vt 0.8388109 0.4165453
vt 0.8388026 0.4347111
vt 0.8380179 0.4366107
vt 0.8361219 0.4374043
vt 0.8321019 0.4374248
vt -0.8612456 -0.8779955
vt -0.8612337 -0.7786463
vt -0.8016579 -0.7786466
vt -0.8016701 -0.8779955
vt -0.7711986 -0.7786466
vt -0.7712104 -0.8779955
vt -0.7407391 -0.7786467
vt -0.740751 -0.8779955
vt -0.471531 -0.7786473
vt -0.471543 -0.8779955
vt -0.2130014 -0.7786478
vt -0.2130133 -0.8779955
vt -0.1824503 -0.778648
vt -0.1824622 -0.8779955
vt -0.1518991 -0.778648
vt -0.151911 -0.8779955
vt 0.1541108 -0.7786487
vt 0.1540989 -0.8779955
vt 0.5000377 -0.7786494
vt 0.5000259 -0.8779955
vt 0.8459647 -0.7786502
vt 0.8459527 -0.8779955
vt 1.151975 -0.7786509
vt 1.151963 -0.8779955
vt 1.182526 -0.7786509
vt 1.182514 -0.8779955
vt 1.213077 -0.778651
vt 1.213065 -0.8779955
vt 1.471607 -0.7786516
vt 1.471595 -0.8779955
vt 1.740815 -0.7786521
vt 1.740803 -0.8779955
vt 1.771274 -0.7786523
vt 1.771262 -0.8779955
vt 1.801734 -0.7786523
vt 1.801722 -0.8779955
vt 1.861309 -0.7786523
vt 1.861297 -0.8779955
vt 1.615657 -0.6141729
vt 1.673711 -0.6141728
vt 1.673674 -0.7561095
vt 1.615621 -0.7561096
vt 1.585939 -0.7561096
vt 1.585977 -0.6141728
vt 1.556258 -0.7561097
vt 1.556295 -0.6141729
vt 1.293929 -0.7561096
vt 1.293966 -0.6141729
vt 1.042042 -0.6141729
vt 1.042005 -0.7561096
vt 1.012234 -0.7561096
vt 1.012272 -0.6141728
vt 0.9824637 -0.7561096
vt 0.9825008 -0.6141729
vt 0.6842726 -0.7561095
vt 0.68431 -0.6141728
vt 0.3471845 -0.7561096
vt 0.3472219 -0.6141729
vt 0.01009637 -0.7561097
vt 0.01013386 -0.6141729
vt -0.2880944 -0.7561097
vt -0.2880573 -0.6141728
vt -0.3178651 -0.7561098
vt -0.3178279 -0.6141728
vt -0.3476354 -0.7561096
vt -0.3475983 -0.6141728
vt -0.5995593 -0.7561097
vt -0.5995221 -0.6141728
vt -0.8618517 -0.6141729
vt -0.8618886 -0.7561096
vt -0.8915701 -0.7561096
vt -0.8915329 -0.6141729
vt -0.9212511 -0.7561098
vt -0.921214 -0.6141729
vt -0.979267 -0.6141728
vt -0.9793043 -0.7561096
vt 0.3731967 0.5360903
vt 0.3707811 0.5661031
vt 0.3707811 0.5360903
vt 0.3731967 0.5661031
vt 0.3751211 0.5360903
vt 0.3751211 0.5661031
vt 0.377722 0.5360903
vt 0.377722 0.5661031
vt 0.4012437 0.5360903
vt 0.4012437 0.5661031
vt 0.4237857 0.5360903
vt 0.4237857 0.5661031
vt 0.426394 0.5360903
vt 0.426394 0.5661031
vt 0.4283175 0.5360903
vt 0.4283175 0.5661031
vt 0.4463095 0.5360903
vt 0.4463095 0.5661031
vt 0.5000318 0.5360903
vt 0.5000318 0.5661031
vt 0.5537542 0.5360903
vt 0.5537542 0.5661031
vt 0.5717461 0.5360903
vt 0.5717461 0.5661031
vt 0.5736696 0.5360903
vt 0.5736696 0.5661031
vt 0.5762779 0.5360903
vt 0.5762779 0.5661031
vt 0.59882 0.5360903
vt 0.59882 0.5661031
vt 0.6223416 0.5360903
vt 0.6223416 0.5661031
vt 0.6249425 0.5360903
vt 0.6249425 0.5661031
vt 0.6268669 0.5360903
vt 0.6268669 0.5661031
vt 0.6292825 0.5360903
vt 0.6292825 0.5661031
vn -0.005542494 0 0.9999846
vn -0.005542495 0 0.9999846
vn -0.1367647 0 0.9906035
vn -0.1367647 0 0.9906035
vn -0.7090642 0 0.7051439
vn -0.7090642 0 0.705144
vn -0.9992378 0 0.03903785
vn -0.9992378 0 0.03903792
vn -1 0 0
vn -1 0 0
vn -0.9991699 0 -0.04073749
vn -0.9991699 0 -0.04073741
vn -0.7071074 0 -0.7071061
vn -0.7071077 0 -0.7071059
vn -0.0349581 0 -0.9993888
vn -0.03495816 0 -0.9993888
vn 0 0 -1
vn 0 0 -1
vn 0 0 -1
vn 0 0 -1
vn 0 0 -1
vn 0 0 -1
vn 0.03495809 0 -0.9993888
vn 0.03495816 0 -0.9993888
vn 0.7071074 0 -0.7071061
vn 0.7071077 0 -0.7071059
vn 0.9991699 0 -0.04073749
vn 0.9991699 0 -0.04073741
vn 1 0 0
vn 1 0 0
vn 0.9992378 0 0.03903787
vn 0.9992378 0 0.03903791
vn 0.7090642 0 0.7051439
vn 0.7090642 0 0.705144
vn 0.1367651 0 0.9906035
vn 0.1367651 0 0.9906035
vn 0.005542524 0 0.9999846
vn 0.005542519 0 0.9999846
vn 0 1 0
vn 0 1 0
vn 0 1 0
vn 0 1 0
vn 0 1 0
vn 0 1 0
vn 0 1 0
vn 0 1 0
vn 0 1 0
vn 0 1 0
vn 0 1 0
vn 0 1 0
vn 0 1 0
vn 0 1 0
vn 0 1 0
vn 0 1 0
vn 0 1 0
vn 0 1 0
vn 0 1 0
vn 0 1 0
vn 0 1 0
vn 0 1 0
vn 0 1 0
vn 0 1 0
vn 0 1 0
vn 0 1 0
vn 0 1 0
vn 0 1 0
vn 0 1 0
vn 0 1 0
vn 0 -1 0
vn 0 -1 0
vn 0 -1 0
vn 0 -1 0
vn 0 -1 0
vn 0 -1 0
vn 0 -1 0
vn 0 -1 0
vn 0 -1 0
vn 0 -1 0
vn 0 -1 0
vn 0 -1 0
vn 0 -1 0
vn 0 -1 0
vn 0 -1 0
vn 0 -1 0
vn 0 -1 0
vn 0 -1 0
vn 0 -1 0
vn 0 -1 0
vn 0 -1 0
vn 0 -1 0
vn 0 -1 0
vn 0 -1 0
vn 0 -1 0
vn 0 -1 0
vn 0 -1 0
vn 0 -1 0
vn 0 -1 0
vn 0 -1 0
vn -0.005542494 0 0.9999846
vn -0.005542494 0 0.9999846
vn -0.1367647 0 0.9906035
vn -0.1367646 0 0.9906035
vn -0.7090641 0 0.7051441
vn -0.7090639 0 0.7051442
vn -0.9992378 0 0.03903793
vn -0.9992378 0 0.03903802
vn -1 0 0
vn -1 0 0
vn -0.9991699 0 -0.04073744
vn -0.9991699 0 -0.04073756
vn -0.7071075 0 -0.7071061
vn -0.7071068 0 -0.7071067
vn -0.03495816 0 -0.9993888
vn -0.03495816 0 -0.9993888
vn 0 0 -1
vn 0 0 -1
vn 0 0 -1
vn 0 0 -1
vn 0 0 -1
vn 0 0 -1
vn 0.03495824 0 -0.9993888
vn 0.03495838 0 -0.9993888
vn 0.7071077 0 -0.7071058
vn 0.7071075 0 -0.7071059
vn 0.9991699 0 -0.04073744
vn 0.9991699 0 -0.04073754
vn 1 0 0
vn 1 0 0
vn 0.9992378 0 0.03903794
vn 0.9992378 0 0.03903801
vn 0.7090641 0 0.7051441
vn 0.7090639 0 0.7051443
vn 0.1367651 0 0.9906035
vn 0.136765 0 0.9906035
vn 0.005542519 0 0.9999846
vn 0.00554252 0 0.9999846
vn -0.1367648 0 0.9906035
vn -0.005542493 0 0.9999846
vn -0.005542494 0 0.9999846
vn -0.1367646 0 0.9906035
vn -0.7090639 0 0.7051442
vn -0.7090639 0 0.7051442
vn -0.9992378 0 0.03903802
vn -0.9992378 0 0.03903802
vn -1 0 0
vn -1 0 0
vn -0.9991699 0 -0.04073757
vn -0.9991699 0 -0.04073756
vn -0.7071068 0 -0.7071067
vn -0.7071065 0 -0.7071071
vn -0.03495816 0 -0.9993888
vn -0.0349582 0 -0.9993888
vn 0 0 -1
vn 0 0 -1
vn 0 0 -1
vn 0 0 -1
vn 0 0 -1
vn 0 0 -1
vn 0.03495838 0 -0.9993888
vn 0.03495836 0 -0.9993888
vn 0.7071075 0 -0.7071059
vn 0.7071074 0 -0.7071061
vn 0.9991699 0 -0.04073754
vn 0.9991699 0 -0.04073754
vn 1 0 0
vn 1 0 0
vn 0.9992378 0 0.03903802
vn 0.9992378 0 0.03903801
vn 0.7090639 0 0.7051443
vn 0.709064 0 0.7051442
vn 0.136765 0 0.9906035
vn 0.1367652 0 0.9906035
vn 0.005542519 0 0.9999846
vn 0.00554252 0 0.9999846
vn 0.1367651 0 0.9906035
vn 0.005542519 0 0.9999846
vn 0.005542519 0 0.9999846
vn 0.1367651 0 0.9906035
vn 0.7090641 0 0.7051441
vn 0.7090642 0 0.705144
vn 0.9992378 0 0.03903794
vn 0.9992378 0 0.03903791
vn 1 0 0
vn 1 0 0
vn 0.9991699 0 -0.04073744
vn 0.9991699 0 -0.04073741
vn 0.7071077 0 -0.7071058
vn 0.7071077 0 -0.7071059
vn 0.03495824 0 -0.9993888
vn 0.03495816 0 -0.9993888
vn 0 0 -1
vn 0 0 -1
vn 0 0 -1
vn 0 0 -1
vn 0 0 -1
vn 0 0 -1
vn -0.03495816 0 -0.9993888
vn -0.03495816 0 -0.9993888
vn -0.7071075 0 -0.7071061
vn -0.7071077 0 -0.7071059
vn -0.9991699 0 -0.04073744
vn -0.9991699 0 -0.04073741
vn -1 0 0
vn -1 0 0
vn -0.9992378 0 0.03903793
vn -0.9992378 0 0.03903792
vn -0.7090641 0 0.7051441
vn -0.7090642 0 0.705144
vn -0.1367647 0 0.9906035
vn -0.1367647 0 0.9906035
vn -0.005542494 0 0.9999846
vn -0.005542494 0 0.9999846
g aquarium_0
f 3/3/3 2/2/2 1/1/1
f 4/4/4 3/3/3 1/1/1
f 5/5/5 3/3/3 4/4/4
f 6/6/6 5/5/5 4/4/4
f 7/7/7 5/5/5 6/6/6
f 8/8/8 7/7/7 6/6/6
f 7/7/7 8/8/8 9/9/9
f 8/8/8 10/10/10 9/9/9
f 11/11/11 9/9/9 10/10/10
f 12/12/12 11/11/11 10/10/10
f 13/13/13 11/11/11 12/12/12
f 14/14/14 13/13/13 12/12/12
f 15/15/15 13/13/13 14/14/14
f 16/16/16 15/15/15 14/14/14
f 16/16/16 17/17/17 15/15/15
f 17/17/17 18/18/18 15/15/15
f 19/19/19 18/18/18 17/17/17
f 20/20/20 19/19/19 17/17/17
f 21/21/21 19/19/19 20/20/20
f 22/22/22 21/21/21 20/20/20
f 23/23/23 21/21/21 22/22/22
f 24/24/24 23/23/23 22/22/22
f 25/25/25 23/23/23 24/24/24
f 26/26/26 25/25/25 24/24/24
f 27/27/27 25/25/25 26/26/26
f 28/28/28 27/27/27 26/26/26
f 27/27/27 28/28/28 29/29/29
f 28/28/28 30/30/30 29/29/29
f 31/31/31 29/29/29 30/30/30
f 32/32/32 31/31/31 30/30/30
f 33/33/33 31/31/31 32/32/32
f 34/34/34 33/33/33 32/32/32
f 35/35/35 33/33/33 34/34/34
f 36/36/36 35/35/35 34/34/34
f 37/37/37 35/35/35 36/36/36
f 38/38/38 37/37/37 36/36/36
f 41/41/41 40/40/40 39/39/39
f 39/39/39 42/42/42 41/41/41
f 39/39/39 43/43/43 42/42/42
f 39/39/39 44/44/44 43/43/43
f 44/44/44 39/39/39 45/45/45
f 39/39/39 46/46/46 45/45/45
f 45/45/45 46/46/46 47/47/47
f 46/46/46 48/48/48 47/47/47
f 47/47/47 48/48/48 49/49/49
f 48/48/48 50/50/50 49/49/49
f 50/50/50 51/51/51 49/49/49
f 51/51/51 52/52/52 49/49/49
f 53/53/53 52/52/52 51/51/51
f 54/54/54 53/53/53 51/51/51
f 55/55/55 53/53/53 54/54/54
f 56/56/56 55/55/55 54/54/54
f 57/57/57 55/55/55 56/56/56
f 58/58/58 57/57/57 56/56/56
f 57/57/57 58/58/58 59/59/59
f 58/58/58 60/60/60 59/59/59
f 59/59/59 60/60/60 61/61/61
f 60/60/60 62/62/62 61/61/61
f 62/62/62 63/63/63 61/61/61
f 63/63/63 64/64/64 61/61/61
f 65/65/65 64/64/64 63/63/63
f 66/66/66 65/65/65 63/63/63
f 67/67/67 66/66/66 63/63/63
f 63/63/63 68/68/68 67/67/67
f 71/71/71 70/70/70 69/69/69
f 69/69/69 72/72/72 71/71/71
f 72/72/72 73/73/73 71/71/71
f 73/73/73 74/74/74 71/71/71
f 75/75/75 71/71/71 74/74/74
f 76/76/76 75/75/75 74/74/74
f 77/77/77 75/75/75 76/76/76
f 78/78/78 77/77/77 76/76/76
f 79/79/79 77/77/77 78/78/78
f 80/80/80 79/79/79 78/78/78
f 81/81/81 79/79/79 80/80/80
f 82/82/82 81/81/81 80/80/80
f 83/83/83 81/81/81 82/82/82
f 84/84/84 83/83/83 82/82/82
f 85/85/85 83/83/83 84/84/84
f 86/86/86 85/85/85 84/84/84
f 87/87/87 85/85/85 86/86/86
f 88/88/88 87/87/87 86/86/86
f 89/89/89 87/87/87 88/88/88
f 90/90/90 89/89/89 88/88/88
f 91/91/91 89/89/89 90/90/90
f 92/92/92 91/91/91 90/90/90
f 93/93/93 91/91/91 92/92/92
f 94/94/94 93/93/93 92/92/92
f 93/93/93 94/94/94 95/95/95
f 93/93/93 95/95/95 96/96/96
f 93/93/93 96/96/96 97/97/97
f 97/97/97 98/98/98 93/93/93
f 101/101/101 100/100/100 99/99/99
f 102/102/102 101/101/101 99/99/99
f 103/103/103 101/101/101 102/102/102
f 104/104/104 103/103/103 102/102/102
f 105/105/105 103/103/103 104/104/104
f 106/106/106 105/105/105 104/104/104
f 105/105/105 106/106/106 107/107/107
f 106/106/106 108/108/108 107/107/107
f 109/109/109 107/107/107 108/108/108
f 110/110/110 109/109/109 108/108/108
f 111/111/111 109/109/109 110/110/110
f 112/112/112 111/111/111 110/110/110
f 113/113/113 111/111/111 112/112/112
f 114/114/114 113/113/113 112/112/112
f 113/113/113 114/114/114 115/115/115
f 114/114/114 116/116/116 115/115/115
f 117/117/117 115/115/115 116/116/116
f 118/118/118 117/117/117 116/116/116
f 119/119/119 117/117/117 118/118/118
f 120/120/120 119/119/119 118/118/118
f 121/121/121 119/119/119 120/120/120
f 122/122/122 121/121/121 120/120/120
f 123/123/123 121/121/121 122/122/122
f 124/124/124 123/123/123 122/122/122
f 125/125/125 123/123/123 124/124/124
f 126/126/126 125/125/125 124/124/124
f 125/125/125 126/126/126 127/127/127
f 126/126/126 128/128/128 127/127/127
f 129/129/129 127/127/127 128/128/128
f 130/130/130 129/129/129 128/128/128
f 131/131/131 129/129/129 130/130/130
f 132/132/132 131/131/131 130/130/130
f 133/133/133 131/131/131 132/132/132
f 134/134/134 133/133/133 132/132/132
f 135/135/135 133/133/133 134/134/134
f 136/136/136 135/135/135 134/134/134
f 139/139/139 138/138/138 137/137/137
f 140/140/140 139/139/139 137/137/137
f 141/141/141 140/140/140 137/137/137
f 142/142/142 141/141/141 137/137/137
f 143/143/143 141/141/141 142/142/142
f 144/144/144 143/143/143 142/142/142
f 143/143/143 144/144/144 145/145/145
f 144/144/144 146/146/146 145/145/145
f 145/145/145 146/146/146 147/147/147
f 148/148/148 145/145/145 147/147/147
f 149/149/149 148/148/148 147/147/147
f 150/150/150 149/149/149 147/147/147
f 151/151/151 149/149/149 150/150/150
f 152/152/152 151/151/151 150/150/150
f 151/151/151 152/152/152 153/153/153
f 152/152/152 154/154/154 153/153/153
f 155/155/155 153/153/153 154/154/154
f 156/156/156 155/155/155 154/154/154
f 157/157/157 155/155/155 156/156/156
f 158/158/158 157/157/157 156/156/156
f 159/159/159 157/157/157 158/158/158
f 160/160/160 159/159/159 158/158/158
f 161/161/161 159/159/159 160/160/160
f 162/162/162 161/161/161 160/160/160
f 163/163/163 161/161/161 162/162/162
f 164/164/164 163/163/163 162/162/162
f 163/163/163 164/164/164 165/165/165
f 164/164/164 166/166/166 165/165/165
f 165/165/165 166/166/166 167/167/167
f 168/168/168 165/165/165 167/167/167
f 169/169/169 168/168/168 167/167/167
f 170/170/170 169/169/169 167/167/167
f 171/171/171 169/169/169 170/170/170
f 172/172/172 171/171/171 170/170/170
f 171/171/171 172/172/172 173/173/173
f 174/174/174 171/171/171 173/173/173
f 177/177/177 176/176/176 175/175/175
f 176/176/176 178/178/178 175/175/175
f 175/175/175 178/178/178 179/179/179
f 178/178/178 180/180/180 179/179/179
f 179/179/179 180/180/180 181/181/181
f 180/180/180 182/182/182 181/181/181
f 181/181/181 182/182/182 183/183/183
f 182/182/182 184/184/184 183/183/183
f 185/185/185 183/183/183 184/184/184
f 186/186/186 185/185/185 184/184/184
f 185/185/185 186/186/186 187/187/187
f 186/186/186 188/188/188 187/187/187
f 187/187/187 188/188/188 189/189/189
f 188/188/188 190/190/190 189/189/189
f 189/189/189 190/190/190 191/191/191
f 190/190/190 192/192/192 191/191/191
f 191/191/191 192/192/192 193/193/193
f 192/192/192 194/194/194 193/193/193
f 193/193/193 194/194/194 195/195/195
f 194/194/194 196/196/196 195/195/195
f 197/197/197 195/195/195 196/196/196
f 198/198/198 197/197/197 196/196/196
f 197/197/197 198/198/198 199/199/199
f 198/198/198 200/200/200 199/199/199
f 199/199/199 200/200/200 201/201/201
f 200/200/200 202/202/202 201/201/201
f 201/201/201 202/202/202 203/203/203
f 202/202/202 204/204/204 203/203/203
f 205/205/205 203/203/203 204/204/204
f 206/206/206 205/205/205 204/204/204
f 205/205/205 206/206/206 207/207/207
f 206/206/206 208/208/208 207/207/207
f 207/207/207 208/208/208 209/209/209
f 208/208/208 210/210/210 209/209/209
f 209/209/209 210/210/210 211/211/211
f 210/210/210 212/212/212 211/211/211
