g aquarium_water
v 16.29307 14 8.182674
v 14.93394 0 10.85014
v 16.29307 0 8.182674
v 14.93394 14 10.85014
v 10.78502 0 14.85456
v 10.78502 14 14.85456
v 5.704256 0 17.5559
v 5.704256 14 17.5559
v -2.26062E-15 0 18.45936
v -2.26062E-15 14 18.45936
v -5.704256 0 17.5559
v -5.704256 14 17.5559
v -10.78503 0 14.85456
v -10.78503 14 14.85456
v -14.93394 0 10.85014
v -14.93394 14 10.85014
v -16.29308 0 8.182674
v -16.29308 14 8.182674
vt 1.097275 1
vt 1.052225 0
vt 1.097275 0
vt 1.052225 1
vt 0.9550723 0
vt 0.9550723 1
vt 0.7967517 0
vt 0.7967517 1
vt 0.5000321 0
vt 0.5000321 1
vt 0.2033122 0
vt 0.2033122 1
vt 0.0449914 0
vt 0.0449914 1
vt -0.05216098 0
vt -0.05216098 1
vt -0.09721094 0
vt -0.09721094 1
vn -0.8910072 0 -0.453989
vn -0.7711608 0 -0.6366404
vn -0.8910072 0 -0.453989
vn -0.7711608 0 -0.6366404
vn -0.5877854 0 -0.8090169
vn -0.5877854 0 -0.8090169
vn -0.3170028 0 -0.9484246
vn -0.3170028 0 -0.9484246
vn 0 0 -1
vn 0 0 -1
vn 0.3170027 0 -0.9484246
vn 0.3170027 0 -0.9484246
vn 0.5877854 0 -0.809017
vn 0.5877854 0 -0.809017
vn 0.7711605 0 -0.6366408
vn 0.7711605 0 -0.6366408
vn 0.8910068 0 -0.4539901
vn 0.8910068 0 -0.4539901
g aquarium_water_0
f 3/3/3 2/2/2 1/1/1
f 2/2/2 4/4/4 1/1/1
f 2/2/2 5/5/5 4/4/4
f 5/5/5 6/6/6 4/4/4
f 5/5/5 7/7/7 6/6/6
f 7/7/7 8/8/8 6/6/6
f 7/7/7 9/9/9 8/8/8
f 9/9/9 10/10/10 8/8/8
f 9/9/9 11/11/11 10/10/10
f 11/11/11 12/12/12 10/10/10
f 11/11/11 13/13/13 12/12/12
f 13/13/13 14/14/14 12/12/12
f 13/13/13 15/15/15 14/14/14
f 15/15/15 16/16/16 14/14/14
f 15/15/15 17/17/17 16/16/16
f 17/17/17 18/18/18 16/16/16
