g blockSmooth
v -0.8981079 0.9804622 1.016035
v -1.036663 0.1092928 0.8907031
v -1.02407 0.9804622 0.8900684
v -0.8985412 0.1092928 1.026475
v -1.0209 -0.9015787 0.8901172
v -0.8985412 -0.9015787 1.026475
v -0.04307861 0.980998 0.967334
v 0.02563721 -0.9018567 1.187471
v 0.01796143 0.1092925 1.108945
v 0.9090051 0.9804618 1.015645
v 0.911051 0.1092923 1.038672
v 0.9160791 -0.9015791 1.057656
v 1.022758 0.9804615 0.890664
v 0.911051 0.1092923 1.038672
v 0.9090051 0.9804618 1.015645
v 1.060343 0.1092923 0.8926513
v 0.9160791 -0.9015791 1.057656
v 1.066511 -0.9015791 0.894082
v 1.062375 0.9808317 -0.03970703
v 1.063874 -0.9038752 -0.03767578
v 1.087812 0.1092923 -0.02273926
v 1.053104 0.9804615 -0.9150928
v 1.047987 0.1092923 -0.9144531
v 1.047987 -0.9015791 -0.9144531
v -1.02407 0.9804622 -0.9137793
v -0.8983569 0.1092928 -1.03188
v -0.8981079 0.9804622 -1.039741
v -1.052339 0.1092928 -0.9169922
v -0.8985925 -0.9015787 -1.050727
v -1.036663 -0.9015787 -0.9144092
v -1.141328 0.9826147 -0.04546387
v -1.006186 -0.9016809 -0.005332031
v -1.141165 0.1092928 -0.02273926
v -1.02407 0.9804622 0.8900684
v -1.0209 -0.9015787 0.8901172
v -1.036663 0.1092928 0.8907031
v 0.9104639 0.9804618 -1.058887
v 1.047987 0.1092923 -0.9144531
v 1.053104 0.9804615 -0.9150928
v 0.9094824 0.1092923 -1.050727
v 1.047987 -0.9015791 -0.9144531
v 0.9094824 -0.9015791 -1.050727
v 0.02058105 0.9810157 -1.129727
v 0.01796143 0.1092925 -1.007949
v -0.01242187 -0.9026951 -1.002251
v -0.8983569 0.1092928 -1.03188
v -0.8981079 0.9804622 -1.039741
v -0.8985925 -0.9015787 -1.050727
v 0.02563721 -0.9018567 1.187471
v 0.9160791 -0.9015791 1.057656
v 0.9298596 -1.027541 0.919375
v 1.066511 -0.9015791 0.894082
v -0.001789551 -1.053584 1.105273
v -0.8985412 -0.9015787 1.026475
v 0.9997717 -1.064122 -0.07180176
v 1.063874 -0.9038752 -0.03767578
v -0.8951586 -1.027541 0.9003613
v -1.0209 -0.9015787 0.8901172
v -1.006186 -0.9016809 -0.005332031
v 0.01883667 -1.100466 -0.02384766
v 0.9204248 -1.027541 -0.9233252
v 1.047987 -0.9015791 -0.9144531
v 0.9094824 -0.9015791 -1.050727
v -0.8854211 -1.022061 -0.03061523
v -1.036663 -0.9015787 -0.9144092
v 0.08643433 -1.025977 -0.8972119
v -0.01242187 -0.9026951 -1.002251
v -0.9091687 -1.027541 -0.9233544
v -0.8985925 -0.9015787 -1.050727
v 0.02058105 0.9810157 -1.129727
v 0.9104639 0.9804618 -1.058887
v 0.9237304 1.064875 -0.9294043
v 1.053104 0.9804615 -0.9150928
v 0.02757446 1.064875 -0.992124
v -0.8981079 0.9804622 -1.039741
v 0.9104626 1.064874 -0.03785156
v 1.062375 0.9808317 -0.03970703
v -0.8981079 1.064875 -0.9137793
v -1.02407 0.9804622 -0.9137793
v -1.141328 0.9826147 -0.04546387
v 0.01796143 1.064875 -0.02273926
v 0.8961035 1.064875 0.8896435
v 1.022758 0.9804615 0.890664
v 0.9090051 0.9804618 1.015645
v -0.993811 1.064875 -0.02273926
v -1.02407 0.9804622 0.8900684
v 0.017771 1.064875 0.8353125
v -0.04307861 0.980998 0.967334
v -0.8981079 1.064875 0.8900684
v -0.8981079 0.9804622 1.016035
vt 0.8559634 0.9316011
vt 0.4289047 0.998008
vt 0.8559634 0.9919723
vt 0.4289047 0.9318087
vt 0.001845949 0.990452
vt 0.001845949 0.9318087
vt 0.8562205 0.5337977
vt 0.001712663 0.500864
vt 0.4289044 0.5045425
vt 0.8559634 0.07748293
vt 0.4289044 0.07650053
vt 0.001845645 0.07409135
vt 0.9127838 0.9127527
vt 0.4578895 0.9883153
vt 0.9127838 0.9765624
vt 0.4578895 0.9137697
vt 0.002995221 0.998008
vt 0.002995221 0.9145004
vt 0.9129729 0.448894
vt 0.001822544 0.4499305
vt 0.4578895 0.4575563
vt 0.9127838 0.00199203
vt 0.4578895 0.002317875
vt 0.002995221 0.002317875
vt 0.9265404 0.9269531
vt 0.464224 0.9882308
vt 0.9265404 0.9923087
vt 0.464224 0.9286194
vt 0.001907653 0.998008
vt 0.001907653 0.9272801
vt 0.9276578 0.4764267
vt 0.001854156 0.4556073
vt 0.464224 0.4646367
vt 0.9265404 0.002319708
vt 0.001907653 0.002299039
vt 0.464224 0.00199204
vt 0.002130759 0.07573117
vt 0.4627672 0.004637365
vt 0.002131063 0.001992001
vt 0.4627672 0.07623878
vt 0.9234039 0.004637365
vt 0.9234039 0.07623878
vt 0.001844429 0.5357687
vt 0.4627672 0.5371235
vt 0.9239808 0.5528294
vt 0.4627672 0.9978867
vt 0.002130455 0.9977599
vt 0.9234036 0.998008
vt 0.4857532 0.9611007
vt 0.8789405 0.9078395
vt 0.8850259 0.8511032
vt 0.9453657 0.8407282
vt 0.4736432 0.9273729
vt 0.08872253 0.8950446
vt 0.915895 0.4533719
vt 0.9442004 0.4673734
vt 0.09021801 0.843302
vt 0.03469414 0.8390973
vt 0.04119128 0.4806418
vt 0.4827514 0.4730465
vt 0.8808578 0.1040063
vt 0.9371853 0.1076461
vt 0.8760273 0.05173582
vt 0.09451735 0.47027
vt 0.02773261 0.1076641
vt 0.5125998 0.1147189
vt 0.4689491 0.07162297
vt 0.08403009 0.1039937
vt 0.08870155 0.05173582
vt 0.9558187 0.4887621
vt 0.9240858 0.09015452
vt 0.8660866 0.0842115
vt 0.8596773 0.02626214
vt 0.8941829 0.4856295
vt 0.9155123 0.8890622
vt 0.4667319 0.09015574
vt 0.4675629 0.02210822
vt 0.8590894 0.8890622
vt 0.8590894 0.9454851
vt 0.4701417 0.9980081
vt 0.4599633 0.489936
vt 0.06102498 0.09658875
vt 0.06057147 0.03985523
vt 0.004585084 0.09080925
vt 0.4599633 0.9319315
vt 0.06083652 0.9454851
vt 0.08536427 0.4900211
vt 0.02622825 0.5172778
vt 0.06083652 0.8890622
vt 0.004414259 0.8890622
vn -0.129739 0.1844593 0.9742395
vn -0.9808106 -0.03000831 0.1926399
vn -0.9661466 0.1407641 0.2162084
vn -0.1953812 0.05175661 0.9793608
vn -0.9759485 -0.1577757 0.1504375
vn -0.2378293 -0.05578827 0.9697035
vn -0.002320808 0.2151116 0.9765866
vn -0.009019721 -0.05166773 0.9986236
vn -0.007966603 0.06519744 0.9978405
vn 0.1254973 0.1911238 0.9735102
vn 0.1911997 0.063137 0.9795185
vn 0.2339195 -0.0585304 0.9704926
vn 0.9753683 0.1650639 0.1463233
vn 0.1911997 0.063137 0.9795185
vn 0.1254973 0.1911238 0.9735102
vn 0.9885318 0.01362843 0.1503968
vn 0.2339195 -0.0585304 0.9704926
vn 0.985908 -0.09188687 0.1397934
vn 0.9863454 0.1645986 0.005493579
vn 0.9954702 -0.09476992 -0.007597356
vn 0.9999812 0.00580643 -0.001987868
vn 0.9783722 0.1451541 -0.147371
vn 0.9870889 -0.001364186 -0.1601678
vn 0.9844339 -0.08464617 -0.1540282
vn -0.9624083 0.1483329 -0.2275247
vn -0.1128598 -0.02626944 -0.9932636
vn -0.1411732 0.07330136 -0.9872674
vn -0.979764 -0.02833544 -0.1981402
vn -0.07561822 -0.09117962 -0.9929593
vn -0.9758074 -0.157752 -0.1513746
vn -0.9897226 0.142994 0.001317427
vn -0.9846139 -0.1745278 0.008694942
vn -0.9993821 -0.03437639 0.007320045
vn -0.9661466 0.1407641 0.2162084
vn -0.9759485 -0.1577757 0.1504375
vn -0.9808106 -0.03000831 0.1926399
vn 0.1436638 0.07582904 -0.9867171
vn 0.9870889 -0.001364186 -0.1601678
vn 0.9783722 0.1451541 -0.147371
vn 0.1148009 -0.03089388 -0.992908
vn 0.9844339 -0.08464617 -0.1540282
vn 0.07799093 -0.09517326 -0.9924008
vn -0.01050819 0.06576858 -0.9977795
vn -0.00815116 -0.03339457 -0.999409
vn -0.00225492 -0.1033701 -0.9946404
vn -0.1128598 -0.02626944 -0.9932636
vn -0.1411732 0.07330136 -0.9872674
vn -0.07561822 -0.09117962 -0.9929593
vn -0.009019721 -0.05166773 0.9986236
vn 0.2339195 -0.0585304 0.9704926
vn 0.1416369 -0.9820831 0.1243054
vn 0.985908 -0.09188687 0.1397934
vn -0.01288689 -0.9860803 0.1657696
vn -0.2378293 -0.05578827 0.9697035
vn 0.1616854 -0.9868117 -0.0077767
vn 0.9954702 -0.09476992 -0.007597356
vn -0.1587717 -0.981177 0.1099245
vn -0.9759485 -0.1577757 0.1504375
vn -0.9846139 -0.1745278 0.008694942
vn -0.01087843 -0.9999241 -0.005788547
vn 0.1296654 -0.9768875 -0.1699346
vn 0.9844339 -0.08464617 -0.1540282
vn 0.07799093 -0.09517326 -0.9924008
vn -0.1535027 -0.9881237 -0.006968641
vn -0.9758074 -0.157752 -0.1513746
vn -0.0115264 -0.9864617 -0.1635859
vn -0.00225492 -0.1033701 -0.9946404
vn -0.1353351 -0.9805678 -0.1420256
vn -0.07561822 -0.09117962 -0.9929593
vn -0.01050819 0.06576858 -0.9977795
vn 0.1436638 0.07582904 -0.9867171
vn 0.07386179 0.9950244 -0.06686433
vn 0.9783722 0.1451541 -0.147371
vn -0.0006419813 0.9964992 -0.08360042
vn -0.1411732 0.07330136 -0.9872674
vn 0.08109174 0.9967058 0.001313761
vn 0.9863454 0.1645986 0.005493579
vn -0.06408066 0.9955272 -0.06942079
vn -0.9624083 0.1483329 -0.2275247
vn -0.9897226 0.142994 0.001317427
vn 0 1 0
vn 0.07436514 0.993494 0.08625273
vn 0.9753683 0.1650639 0.1463233
vn 0.1254973 0.1911238 0.9735102
vn -0.08376439 0.9964852 0.0007990459
vn -0.9661466 0.1407641 0.2162084
vn -0.001026841 0.9971195 0.07583895
vn -0.002320808 0.2151116 0.9765866
vn -0.06446382 0.9947395 0.07961023
vn -0.129739 0.1844593 0.9742395
g blockSmooth_0
f 3/3/3 2/2/2 1/1/1
f 2/2/2 4/4/4 1/1/1
f 4/4/4 2/2/2 5/5/5
f 6/6/6 4/4/4 5/5/5
f 1/1/1 4/4/4 7/7/7
f 6/6/6 8/8/8 4/4/4
f 4/4/4 9/9/9 7/7/7
f 8/8/8 9/9/9 4/4/4
f 7/7/7 9/9/9 10/10/10
f 9/9/9 11/11/11 10/10/10
f 11/11/11 9/9/9 8/8/8
f 12/12/12 11/11/11 8/8/8
f 15/15/15 14/14/14 13/13/13
f 14/14/14 16/16/16 13/13/13
f 16/16/16 14/14/14 17/17/17
f 18/18/18 16/16/16 17/17/17
f 19/19/19 13/13/13 16/16/16
f 18/18/18 20/20/20 16/16/16
f 21/21/21 19/19/19 16/16/16
f 20/20/20 21/21/21 16/16/16
f 22/22/22 19/19/19 21/21/21
f 23/23/23 22/22/22 21/21/21
f 23/23/23 21/21/21 20/20/20
f 24/24/24 23/23/23 20/20/20
f 27/27/27 26/26/26 25/25/25
f 26/26/26 28/28/28 25/25/25
f 28/28/28 26/26/26 29/29/29
f 30/30/30 28/28/28 29/29/29
f 25/25/25 28/28/28 31/31/31
f 30/30/30 32/32/32 28/28/28
f 28/28/28 33/33/33 31/31/31
f 32/32/32 33/33/33 28/28/28
f 31/31/31 33/33/33 34/34/34
f 32/32/32 35/35/35 33/33/33
f 33/33/33 36/36/36 34/34/34
f 35/35/35 36/36/36 33/33/33
f 39/39/39 38/38/38 37/37/37
f 38/38/38 40/40/40 37/37/37
f 40/40/40 38/38/38 41/41/41
f 42/42/42 40/40/40 41/41/41
f 37/37/37 40/40/40 43/43/43
f 44/44/44 40/40/40 42/42/42
f 40/40/40 44/44/44 43/43/43
f 45/45/45 44/44/44 42/42/42
f 43/43/43 44/44/44 46/46/46
f 46/46/46 44/44/44 45/45/45
f 47/47/47 43/43/43 46/46/46
f 48/48/48 46/46/46 45/45/45
f 51/51/51 50/50/50 49/49/49
f 52/52/52 50/50/50 51/51/51
f 53/53/53 51/51/51 49/49/49
f 53/53/53 49/49/49 54/54/54
f 51/51/51 55/55/55 52/52/52
f 55/55/55 56/56/56 52/52/52
f 57/57/57 53/53/53 54/54/54
f 57/57/57 54/54/54 58/58/58
f 58/58/58 59/59/59 57/57/57
f 51/51/51 53/53/53 60/60/60
f 55/55/55 51/51/51 60/60/60
f 53/53/53 57/57/57 60/60/60
f 56/56/56 55/55/55 61/61/61
f 61/61/61 55/55/55 60/60/60
f 62/62/62 56/56/56 61/61/61
f 61/61/61 63/63/63 62/62/62
f 59/59/59 64/64/64 57/57/57
f 57/57/57 64/64/64 60/60/60
f 64/64/64 59/59/59 65/65/65
f 63/63/63 61/61/61 66/66/66
f 66/66/66 61/61/61 60/60/60
f 66/66/66 60/60/60 64/64/64
f 67/67/67 63/63/63 66/66/66
f 68/68/68 64/64/64 65/65/65
f 68/68/68 66/66/66 64/64/64
f 67/67/67 66/66/66 68/68/68
f 65/65/65 69/69/69 68/68/68
f 69/69/69 67/67/67 68/68/68
f 72/72/72 71/71/71 70/70/70
f 71/71/71 72/72/72 73/73/73
f 74/74/74 72/72/72 70/70/70
f 74/74/74 70/70/70 75/75/75
f 72/72/72 76/76/76 73/73/73
f 76/76/76 77/77/77 73/73/73
f 78/78/78 74/74/74 75/75/75
f 79/79/79 78/78/78 75/75/75
f 79/79/79 80/80/80 78/78/78
f 72/72/72 74/74/74 81/81/81
f 76/76/76 72/72/72 81/81/81
f 74/74/74 78/78/78 81/81/81
f 77/77/77 76/76/76 82/82/82
f 82/82/82 76/76/76 81/81/81
f 83/83/83 77/77/77 82/82/82
f 82/82/82 84/84/84 83/83/83
f 80/80/80 85/85/85 78/78/78
f 78/78/78 85/85/85 81/81/81
f 85/85/85 80/80/80 86/86/86
f 84/84/84 82/82/82 87/87/87
f 87/87/87 82/82/82 81/81/81
f 87/87/87 81/81/81 85/85/85
f 88/88/88 84/84/84 87/87/87
f 89/89/89 85/85/85 86/86/86
f 89/89/89 87/87/87 85/85/85
f 88/88/88 87/87/87 89/89/89
f 86/86/86 90/90/90 89/89/89
f 90/90/90 88/88/88 89/89/89
