g bombBall_ld
v 0.3327343 1.922492 0.1921043
v 0.3842087 1.922492 0
v 0.679101 1.683668 -0.001275063
v 0.6278067 1.724395 0.3650427
v 0.8694007 1.364449 -0.001233101
v 0.3402672 1.684229 0.5893612
v 0.1921043 1.922492 0.3327341
v 0 1.922492 0.3842087
v 0.7595615 1.366665 0.4385328
v 0.9286745 1.001364 -0.0009660721
v 0.4354389 1.366996 0.7587204
v 0.00223279 1.726218 0.7243948
v -0.000369072 1.366841 0.8755531
v -0.3414049 1.685323 0.5915337
v -0.1921043 1.922492 0.3327341
v -0.3327343 1.922492 0.1921043
v 0.8172078 0.9986576 0.4708395
v 0.4681218 0.9982926 0.8159666
v 0.7542517 0.6361257 0.4339409
v 0.8369074 0.5779423 -0.07047939
v 0.01098347 1.000089 0.944664
v 0.4350302 0.6329882 0.7590055
v 0.5884533 0.3173625 0.3381224
v 0.6541677 0.3124988 -0.138813
v 0.4115481 0.1265683 -0.06960869
v 0.3401172 0.3162006 0.5890999
v 0.3230977 0.09826641 0.1870317
v 0.0004603863 0.007245845 -0.000790596
v 0.1877589 0.09338993 0.3252077
v -0.0004160404 0.6331038 0.8751383
v 0 0.3162009 0.6802349
v 0 0.09338985 0.3755169
v -0.1877587 0.09338986 0.3252077
v -0.3401172 0.3162006 0.5890999
v -0.3249002 0.09257214 0.1881456
v -0.3755929 0.09073228 0.0008506775
v -0.4350684 0.6330025 0.7591028
v -0.5904312 0.3140402 0.3414927
v -0.469337 0.998489 0.81707
v -0.6667514 0.3213806 0.01728916
v -0.7597575 0.6328534 0.4394836
v -0.8826699 0.6337227 0.001292229
v -0.9465704 0.9980427 -0.002443314
v -0.5894067 0.3148848 -0.3415031
v -0.4473529 1.382669 0.7569723
v -0.820714 0.9990224 0.4747066
v -0.7499101 1.386045 0.444643
v -0.6179538 1.737544 0.3511734
v -0.8827045 1.369269 -0.0001039505
v -0.6840768 1.686504 0.001515388
v -0.3842142 1.922496 4.005432E-05
v -0.3328228 1.922495 -0.1919518
v -0.6236339 1.729888 -0.360055
v -0.7711108 1.366928 -0.4460859
v -0.3442307 1.690477 -0.5950232
v -0.1919513 1.922494 -0.3328218
v 4.267693E-05 1.922496 -0.3842144
v -0.4291892 1.402493 -0.7252274
v -0.827358 1.002471 -0.4785652
v -0.7608554 0.6329427 -0.436491
v -0.4705479 0.9130439 -0.7984438
v -0.4378033 0.6327335 -0.7552681
v 0 1.727191 -0.7234077
v 0.08902025 1.371895 -0.8770218
v 0.345561 1.688679 -0.5961065
v 0.1921043 1.922492 -0.3327341
v 0.3327343 1.922492 -0.1921043
v 0.001799583 1.004925 -0.9592314
v 0.002154112 0.6338058 -0.8756685
v -0.340117 0.3162005 -0.5890999
v -0.3246238 0.09255961 -0.1880541
v 0.0004603863 0.007245845 -0.000790596
v -0.1877587 0.09338985 -0.3252077
v 0.0009584427 0.3187097 -0.6775589
v 0.0006816387 0.09389748 -0.3750992
v 0.1897724 0.09082919 -0.3255997
v 0.3805501 0.3142422 -0.564991
v 0.3252192 0.09080034 -0.1889639
v 0.4115481 0.1265683 -0.06960869
v 0.5791168 0.3252788 -0.3628197
v 0.6541677 0.3124988 -0.138813
v 0.8369074 0.5779423 -0.07047939
v 0.760596 0.630329 -0.4410095
v 0.9286745 1.001364 -0.0009660721
v 0.4468713 0.6280379 -0.7645159
v 0.7593563 1.065288 -0.5344725
v 0.8694007 1.364449 -0.001233101
v 0.4762764 1.001576 -0.8277397
v 0.4513247 1.364051 -0.760273
v 0.7107627 1.369083 -0.5013847
v 0.6300395 1.724395 -0.3611755
v 0.679101 1.683668 -0.001275063
v 0.3842087 1.922492 0
v -0.08298445 2.205707 0.143733
v -0.1437333 2.205707 0.08298397
v 0 2.101526 0
v -0.1716814 2.190319 0.2975178
v -0.01155138 2.179721 0.3379087
v 0 2.205707 0.1659689
v 0 2.101526 0
v 0.08298421 2.205707 0.143733
v 0.1737726 2.188398 0.2832365
v 0.1437333 2.205707 0.08298492
v 0 2.101526 0
v -0.1921043 1.922492 0.3327341
v 0 1.922492 0.3842087
v 0.1921043 1.922492 0.3327341
v -0.298099 2.190521 0.1721783
v -0.3327343 1.922492 0.1921043
v -0.3842142 1.922496 4.005432E-05
v 0.2970786 2.190148 0.1716204
v 0.3327343 1.922492 0.1921043
v 0.3842087 1.922492 0
v -0.3387418 2.182556 0.003129005
v 0.1659684 2.205707 0
v 0 2.101526 0
v 0.3444309 2.190516 0
v -0.1659689 2.205707 0
v 0 2.101526 0
v -0.2926252 2.18053 -0.1701365
v -0.3328228 1.922495 -0.1919518
v 0.298286 2.190516 -0.1722155
v 0.3327343 1.922492 -0.1921043
v 0.1921043 1.922492 -0.3327341
v 0.143733 2.205707 -0.08298397
v 0 2.101526 0
v 0.08298445 2.205707 -0.143733
v 0 2.205707 -0.1659689
v 0.1722155 2.190516 -0.2982855
v 4.267693E-05 1.922496 -0.3842144
v 0 2.190516 -0.3444309
v -0.1721523 2.190563 -0.298275
v -0.1919513 1.922494 -0.3328218
v -0.08298421 2.205707 -0.143733
v 0 2.101526 0
v -0.1437333 2.205707 -0.08298492
v 0.1013472 2.159975 0.1030588
v 0.1500354 2.296265 0.007920265
v 0.1393933 2.157176 0.001833916
v 0.09909439 2.316102 0.09503937
v 0.2021399 2.423871 0.01906776
v -0.0008659363 2.167597 0.1341553
v 0.1537809 2.436757 0.1451969
v 0.2631307 2.531047 0.0191946
v 0.1978528 2.556316 0.1454725
v 0.0359838 2.475405 0.1667099
v 0.08927298 2.609622 0.1936455
v -0.03316903 2.505618 0.09502602
v -0.009596586 2.630187 0.1129198
v -0.005889654 2.315525 0.1446676
v -0.09522939 2.167965 0.0947752
v -0.1088989 2.336329 0.1053734
v -0.1344109 2.167951 0
v -0.1425087 2.343478 -0.009447098
v -0.08296633 2.342281 -0.1020918
v -0.09441161 2.159801 -0.09642029
v -0.07678795 2.50072 -0.02425003
v -0.0226686 2.620432 -0.0102396
v 0.1239309 2.614108 0.001337051
v 0.08927298 2.609622 0.1936455
v 0.1978528 2.556316 0.1454725
v 0.2631307 2.531047 0.0191946
v 0.2531979 2.550577 -0.1179914
v 0.1451511 2.587329 -0.1798687
v 0.05156326 2.630021 -0.1290245
v 0.02154922 2.311644 -0.1443434
v -0.002680063 2.163424 -0.1347389
v 0.09434462 2.167128 -0.09498024
v -0.03200626 2.502099 -0.1298704
v 0.07522082 2.473081 -0.17342
v 0.1451511 2.587329 -0.1798687
v 0.122683 2.297961 -0.1041594
v 0.1665158 2.451467 -0.1081781
v 0.2531979 2.550577 -0.1179914
v 0.2631307 2.531047 0.0191946
v 0.2021399 2.423871 0.01906776
v 0.1500354 2.296265 0.007920265
v 0.1393933 2.157176 0.001833916
vt 0.9755706 0.06336731
vt 0.9755705 0.02784779
vt 0.9420827 0.02785158
vt 0.9450344 0.0641149
vt 0.9111672 0.02785408
vt 0.9421234 0.09425965
vt 0.9755705 0.09360966
vt 0.9755705 0.1242497
vt 0.9113279 0.06404814
vt 0.8848497 0.02785498
vt 0.9113518 0.09459746
vt 0.9451668 0.1247172
vt 0.9113405 0.1250483
vt 0.9422024 0.1556453
vt 0.9755705 0.1552683
vt 0.9755705 0.1865342
vt 0.8846535 0.06403366
vt 0.8846272 0.09465256
vt 0.8583763 0.0639559
vt 0.8541589 0.02774271
vt 0.8847573 0.1243869
vt 0.8581489 0.09463048
vt 0.8352714 0.06377238
vt 0.8349188 0.02757376
vt 0.8214421 0.02762618
vt 0.8351873 0.09425926
vt 0.8193907 0.06339771
vt 0.7851393 0.1241883
vt 0.8190373 0.09357518
vt 0.8581572 0.1250511
vt 0.8351873 0.1248506
vt 0.8190373 0.1242175
vt 0.8190373 0.1552477
vt 0.8351873 0.155652
vt 0.8189779 0.1864533
vt 0.8188446 0.2177158
vt 0.8581498 0.1555753
vt 0.8350306 0.1865432
vt 0.8846413 0.1556593
vt 0.8355626 0.2160201
vt 0.858139 0.1865556
vt 0.858202 0.2173726
vt 0.884609 0.2175912
vt 0.8350919 0.2484868
vt 0.9124879 0.1563611
vt 0.88468 0.1865616
vt 0.9127326 0.1859198
vt 0.9459877 0.186995
vt 0.9115166 0.2174657
vt 0.9422881 0.2174114
vt 0.9755707 0.2178293
vt 0.9755706 0.2489211
vt 0.9454328 0.2483581
vt 0.9113469 0.2482803
vt 0.9425761 0.2789976
vt 0.9755706 0.2797381
vt 0.9755709 0.3100767
vt 0.9139248 0.2782658
vt 0.88493 0.2482404
vt 0.8581454 0.2480767
vt 0.8784481 0.2783106
vt 0.8581303 0.278769
vt 0.9452373 0.3094448
vt 0.911707 0.3151808
vt 0.9424458 0.339817
vt 0.9755706 0.340081
vt 0.9755705 0.3679505
vt 0.8851079 0.3093782
vt 0.8582081 0.3094635
vt 0.8351873 0.2790574
vt 0.8189769 0.2490654
vt 0.7878477 0.3102789
vt 0.8190373 0.2797461
vt 0.8353691 0.3095749
vt 0.819074 0.3102073
vt 0.8188515 0.3403311
vt 0.8350452 0.3437028
vt 0.8188496 0.3679113
vt 0.8214421 0.3935272
vt 0.8358451 0.3674116
vt 0.8349189 0.3932895
vt 0.8541589 0.3940552
vt 0.8579561 0.3679068
vt 0.8848497 0.3945634
vt 0.8577901 0.3399219
vt 0.8894832 0.3666204
vt 0.9111672 0.3945592
vt 0.884865 0.3395013
vt 0.9111384 0.3403134
vt 0.911503 0.3666067
vt 0.9450346 0.3679815
vt 0.9420827 0.3945482
vt 0.9755705 0.3945311
vt 0.8637629 0.4568586
vt 0.855045 0.4565422
vt 0.8597089 0.4722058
vt 0.8673463 0.4419466
vt 0.8821094 0.4475286
vt 0.8712914 0.460642
vt 0.8597095 0.4722064
vt 0.875084 0.468113
vt 0.8902822 0.4647129
vt 0.8752117 0.4766275
vt 0.8597124 0.472207
vt 0.8724381 0.4159319
vt 0.8978021 0.4314887
vt 0.913505 0.45582
vt 0.8509364 0.4403792
vt 0.8426138 0.417482
vt 0.8178868 0.4336499
vt 0.8907666 0.480877
vt 0.9148281 0.4846901
vt 0.9017435 0.5109261
vt 0.8362933 0.4489299
vt 0.8709838 0.4840465
vt 0.8597116 0.4722074
vt 0.8826756 0.4960014
vt 0.8476257 0.4605638
vt 0.8597085 0.4722076
vt 0.8268613 0.4640352
vt 0.8047808 0.4598581
vt 0.8678137 0.5040287
vt 0.8765914 0.5270464
vt 0.8469474 0.5282662
vt 0.8635284 0.4879798
vt 0.8597099 0.4722084
vt 0.8551329 0.4878058
vt 0.8480688 0.4834043
vt 0.8508669 0.5040066
vt 0.8205224 0.5145679
vt 0.8362957 0.4954938
vt 0.8290883 0.4806989
vt 0.8041708 0.4896227
vt 0.8439511 0.4759285
vt 0.8597084 0.4722072
vt 0.843755 0.4677529
vt 0.9771563 0.6704438
vt 0.9554781 0.6884344
vt 0.9782644 0.6879151
vt 0.9509656 0.6720104
vt 0.9337371 0.6947158
vt 0.9759219 0.6533418
vt 0.9275433 0.6741886
vt 0.9147286 0.701775
vt 0.907632 0.6792841
vt 0.9240878 0.6544426
vt 0.9003606 0.6591632
vt 0.9219316 0.6375
vt 0.9005304 0.6377819
vt 0.9517031 0.6529363
vt 0.977374 0.6361378
vt 0.9511267 0.6356832
vt 0.9783693 0.6180156
vt 0.9507136 0.6177012
vt 0.9486369 0.600996
vt 0.9777942 0.5999137
vt 0.9248892 0.6167965
vt 0.9048026 0.6182759
vt 0.8820289 0.6151584
vt 0.88162 0.6472026
vt 0.863337 0.635791
vt 0.8558145 0.6131731
vt 0.8631045 0.5914553
vt 0.8834482 0.5849319
vt 0.8983085 0.5961287
vt 0.9495373 0.5823874
vt 0.9741908 0.5834308
vt 0.971181 0.5662144
vt 0.9223348 0.5988364
vt 0.9212443 0.5802166
vt 0.9001482 0.5765602
vt 0.9489832 0.5646971
vt 0.9220618 0.5617539
vt 0.9010068 0.555681
vt 0.9097018 0.5351855
vt 0.9287614 0.5406034
vt 0.9507964 0.5461178
vt 0.9735638 0.5489703
vn 0.4751353 0.8369024 0.2717365
vn 0.5854611 0.8106994 0.001340135
vn 0.8157415 0.5781701 -0.01688666
vn 0.6835171 0.6159158 0.3917294
vn 0.9575159 0.2866589 -0.03146694
vn 0.4017301 0.5942081 0.6967995
vn 0.2920623 0.8124192 0.504653
vn 0.00127025 0.8383581 0.5451183
vn 0.8278926 0.3042611 0.4711888
vn 0.9996026 -0.01547483 -0.0235614
vn 0.4776968 0.3015812 0.825139
vn 0.006942994 0.620285 0.7843458
vn -0.0008983086 0.3065852 0.9518428
vn -0.3945021 0.6058 0.6909229
vn -0.2882472 0.8146254 0.5032883
vn -0.4662879 0.8412797 0.27354
vn 0.8786243 -0.02353539 0.4769335
vn 0.5039931 -0.002834065 0.8637031
vn 0.8345165 -0.3485208 0.4267499
vn 0.9426265 -0.3328306 -0.02605807
vn 0.004437753 0.0004507707 0.9999901
vn 0.4750171 -0.3373452 0.8127466
vn 0.6888882 -0.6416043 0.3373085
vn 0.7618324 -0.6471052 -0.02943155
vn 0.5497841 -0.8353062 0.0009858547
vn 0.3916969 -0.6347927 0.6660418
vn 0.4716337 -0.8568287 0.2083417
vn 0.02118298 -0.9997755 0.0004636108
vn 0.2649474 -0.855709 0.4444827
vn -0.002499993 -0.3356846 0.9419711
vn 0.0001257465 -0.6356779 0.7719544
vn -1.159816E-05 -0.8544025 0.5196118
vn -0.2568291 -0.8546435 0.4512463
vn -0.3842963 -0.6348912 0.670246
vn -0.4512787 -0.854345 0.2577639
vn -0.5326391 -0.8463336 -0.003869829
vn -0.4665055 -0.3344516 0.8188496
vn -0.6661691 -0.6390586 0.3844775
vn -0.4938219 -0.002198714 0.8695603
vn -0.7671221 -0.641485 0.004540006
vn -0.812349 -0.33913 0.4744259
vn -0.9380346 -0.3465415 6.635727E-05
vn -0.999959 -0.001464897 0.008938329
vn -0.6698599 -0.6405914 -0.3754069
vn -0.4771686 0.3043687 0.8244209
vn -0.8649031 0.001226939 0.5019374
vn -0.8200533 0.3146566 0.4780206
vn -0.673211 0.6348708 0.3791122
vn -0.9515917 0.3070639 0.01360408
vn -0.7994036 0.6007788 0.004350214
vn -0.5764369 0.817135 -0.003298183
vn -0.4702771 0.8417856 -0.2650218
vn -0.6762089 0.6274078 -0.386136
vn -0.810318 0.2991221 -0.5038955
vn -0.3899503 0.5794638 -0.7156538
vn -0.2845017 0.8214564 -0.4942349
vn 0.001262827 0.8425185 -0.538666
vn -0.4563987 0.2892726 -0.8414403
vn -0.8524597 0.01228559 -0.5226486
vn -0.8158121 -0.3562689 -0.455547
vn -0.4890307 0.004963376 -0.8722525
vn -0.4641594 -0.3553703 -0.8113371
vn -0.02710052 0.6112733 -0.7909555
vn 0.004135002 0.3083458 -0.9512653
vn 0.3973604 0.6197883 -0.6767327
vn 0.2871871 0.8204203 -0.4944028
vn 0.4749457 0.8391958 -0.2649093
vn -0.05785134 0.03108642 -0.9978411
vn 0.006333995 -0.3588013 -0.9333925
vn -0.3819579 -0.6346423 -0.6718163
vn -0.4593032 -0.8515714 -0.2527185
vn 0.02118298 -0.9997755 0.0004636108
vn -0.2549428 -0.8537915 -0.4539209
vn 0.006951694 -0.6396204 -0.7686594
vn 0.006862502 -0.8483928 -0.5293227
vn 0.2480043 -0.8526546 -0.4598629
vn 0.3862559 -0.645928 -0.6584706
vn 0.4262452 -0.8666818 -0.2591864
vn 0.5497841 -0.8353062 0.0009858547
vn 0.6489034 -0.6317701 -0.4240178
vn 0.7618324 -0.6471052 -0.02943155
vn 0.9426265 -0.3328306 -0.02605807
vn 0.8465509 -0.2700859 -0.4586995
vn 0.9996026 -0.01547483 -0.0235614
vn 0.4652887 -0.3420579 -0.8163962
vn 0.8688229 0.01875582 -0.4947675
vn 0.9575159 0.2866589 -0.03146694
vn 0.4969299 -0.02810378 -0.8673355
vn 0.4734952 0.3201354 -0.8205582
vn 0.8239766 0.3089185 -0.4750073
vn 0.7051404 0.6075877 -0.3655328
vn 0.8157415 0.5781701 -0.01688666
vn 0.5854611 0.8106994 0.001340135
vn 0.03669082 0.9990415 -0.02386937
vn 0.02744308 0.9990913 -0.03261147
vn 0 1 0
vn -0.441226 0.4617591 0.7694792
vn 0.01226519 0.4546096 0.8906063
vn 0.006853456 0.9999317 -0.009469443
vn 0 1 0
vn -0.03255176 0.999364 -0.01456653
vn 0.429855 0.4748024 0.7679762
vn -0.04178951 0.9989536 -0.01858194
vn 0 1 0
vn -0.4949468 0.1535088 0.855256
vn 0.0261563 0.1775241 0.9837688
vn 0.4751136 0.1813456 0.8610348
vn -0.7716321 0.4597982 0.4395106
vn -0.8572096 0.1539005 0.4914329
vn -0.985979 0.1666343 -0.008858128
vn 0.766771 0.454971 0.4528395
vn 0.8507894 0.159016 0.5008706
vn 0.9889625 0.1481573 0.001618785
vn -0.8870662 0.4615679 -0.008282144
vn -0.04463787 0.9990029 0.0008270683
vn 0 1 0
vn 0.8902465 0.4554763 0.001648995
vn 0.01324074 0.9997264 -0.01928429
vn 0 1 0
vn -0.7743689 0.4589375 -0.4355791
vn -0.8582807 0.1672911 -0.4851474
vn 0.7709719 0.4554887 -0.4451208
vn 0.8566425 0.1468033 -0.494583
vn 0.4946152 0.1468186 -0.8566214
vn -0.03874683 0.9989986 0.02237153
vn 0 1 0
vn -0.0223701 0.9989986 0.03874733
vn 8.341019E-05 0.9989964 0.0447909
vn 0.4451434 0.4555128 -0.7709446
vn 0.0001258752 0.1468752 -0.989155
vn 8.146122E-05 0.4555329 -0.8902189
vn -0.4511616 0.4611241 -0.7640797
vn -0.4990678 0.1537153 -0.8528205
vn 0.002905517 0.999086 0.04264532
vn 0 1 0
vn -0.0007794482 0.9998404 0.01785108
vn 0.672655 -0.0113574 0.7398691
vn 0.9663757 -0.2501197 0.05964994
vn 0.9946781 -0.08718581 0.05490033
vn 0.6029106 -0.2394758 0.7610191
vn 0.8876619 -0.4516138 0.09000815
vn 0.009679394 -0.04263942 0.9990436
vn 0.5391943 -0.3534164 0.7644386
vn 0.9921091 -0.04619176 0.1165582
vn 0.6998951 0.1267107 0.7029163
vn -0.2049983 -0.07597941 0.9758089
vn -0.0214655 0.4077253 0.9128523
vn -0.8000441 0.24637 0.5470204
vn -0.6543353 0.6006225 0.4594539
vn -0.1123958 -0.0578126 0.9919803
vn -0.7413957 -0.07864002 0.6664444
vn -0.781996 0.1358463 0.6082994
vn -0.9964758 -0.03946899 -0.07401484
vn -0.9838116 0.1711922 -0.05299155
vn -0.6901982 0.06541821 -0.7206572
vn -0.6898615 -0.007300572 -0.7239046
vn -0.921544 0.3753619 -0.09929896
vn -0.7428076 0.6621678 -0.09884593
vn 0.3210526 0.9465764 0.03030539
vn -0.0214655 0.4077253 0.9128523
vn 0.6998951 0.1267107 0.7029163
vn 0.9921091 -0.04619176 0.1165582
vn 0.8614493 0.01091617 -0.5077263
vn 0.2244881 0.3044211 -0.9257066
vn -0.3940982 0.6790901 -0.6192924
vn -0.03565475 -0.1009935 -0.9942479
vn -0.08619371 -0.05782466 -0.9945989
vn 0.6982051 -0.1474641 -0.7005454
vn -0.648335 0.2337708 -0.7245778
vn -0.009255772 -0.09379948 -0.995548
vn 0.2244881 0.3044211 -0.9257066
vn 0.7176602 -0.2262053 -0.6586311
vn 0.6825959 -0.4002327 -0.6114546
vn 0.8614493 0.01091617 -0.5077263
vn 0.9921091 -0.04619176 0.1165582
vn 0.8876619 -0.4516138 0.09000815
vn 0.9663757 -0.2501197 0.05964994
vn 0.9946781 -0.08718581 0.05490033
g bombBall_ld_0
f 3/3/3 2/2/2 1/1/1
f 1/1/1 4/4/4 3/3/3
f 5/5/5 3/3/3 4/4/4
f 6/6/6 4/4/4 1/1/1
f 1/1/1 7/7/7 6/6/6
f 6/6/6 7/7/7 8/8/8
f 4/4/4 9/9/9 5/5/5
f 10/10/10 5/5/5 9/9/9
f 11/11/11 4/4/4 6/6/6
f 9/9/9 4/4/4 11/11/11
f 8/8/8 12/12/12 6/6/6
f 12/12/12 13/13/13 6/6/6
f 11/11/11 6/6/6 13/13/13
f 8/8/8 14/14/14 12/12/12
f 13/13/13 12/12/12 14/14/14
f 8/8/8 15/15/15 14/14/14
f 14/14/14 15/15/15 16/16/16
f 9/9/9 17/17/17 10/10/10
f 11/11/11 18/18/18 9/9/9
f 17/17/17 9/9/9 18/18/18
f 19/19/19 10/10/10 17/17/17
f 20/20/20 10/10/10 19/19/19
f 21/21/21 18/18/18 11/11/11
f 11/11/11 13/13/13 21/21/21
f 22/22/22 17/17/17 18/18/18
f 19/19/19 17/17/17 22/22/22
f 22/22/22 18/18/18 21/21/21
f 20/20/20 19/19/19 23/23/23
f 23/23/23 24/24/24 20/20/20
f 25/25/25 24/24/24 23/23/23
f 26/26/26 19/19/19 22/22/22
f 19/19/19 26/26/26 23/23/23
f 23/23/23 27/27/27 25/25/25
f 27/27/27 28/28/28 25/25/25
f 29/29/29 27/27/27 23/23/23
f 23/23/23 26/26/26 29/29/29
f 29/29/29 28/28/28 27/27/27
f 26/26/26 22/22/22 30/30/30
f 21/21/21 30/30/30 22/22/22
f 29/29/29 26/26/26 31/31/31
f 30/30/30 31/31/31 26/26/26
f 32/32/32 28/28/28 29/29/29
f 31/31/31 32/32/32 29/29/29
f 33/33/33 28/28/28 32/32/32
f 33/33/33 32/32/32 31/31/31
f 34/34/34 31/31/31 30/30/30
f 34/34/34 33/33/33 31/31/31
f 35/35/35 28/28/28 33/33/33
f 33/33/33 34/34/34 35/35/35
f 36/36/36 28/28/28 35/35/35
f 37/37/37 30/30/30 21/21/21
f 37/37/37 34/34/34 30/30/30
f 34/34/34 38/38/38 35/35/35
f 34/34/34 37/37/37 38/38/38
f 39/39/39 37/37/37 21/21/21
f 39/39/39 21/21/21 13/13/13
f 40/40/40 36/36/36 35/35/35
f 35/35/35 38/38/38 40/40/40
f 38/38/38 37/37/37 41/41/41
f 41/41/41 37/37/37 39/39/39
f 42/42/42 40/40/40 38/38/38
f 38/38/38 41/41/41 42/42/42
f 43/43/43 42/42/42 41/41/41
f 44/44/44 36/36/36 40/40/40
f 44/44/44 40/40/40 42/42/42
f 45/45/45 39/39/39 13/13/13
f 14/14/14 45/45/45 13/13/13
f 46/46/46 41/41/41 39/39/39
f 41/41/41 46/46/46 43/43/43
f 46/46/46 39/39/39 47/47/47
f 47/47/47 39/39/39 45/45/45
f 43/43/43 46/46/46 47/47/47
f 14/14/14 48/48/48 45/45/45
f 47/47/47 45/45/45 48/48/48
f 16/16/16 48/48/48 14/14/14
f 49/49/49 47/47/47 48/48/48
f 47/47/47 49/49/49 43/43/43
f 50/50/50 48/48/48 16/16/16
f 48/48/48 50/50/50 49/49/49
f 16/16/16 51/51/51 50/50/50
f 50/50/50 51/51/51 52/52/52
f 49/49/49 50/50/50 53/53/53
f 52/52/52 53/53/53 50/50/50
f 43/43/43 49/49/49 54/54/54
f 53/53/53 54/54/54 49/49/49
f 53/53/53 52/52/52 55/55/55
f 52/52/52 56/56/56 55/55/55
f 55/55/55 56/56/56 57/57/57
f 53/53/53 58/58/58 54/54/54
f 53/53/53 55/55/55 58/58/58
f 54/54/54 59/59/59 43/43/43
f 43/43/43 59/59/59 60/60/60
f 60/60/60 42/42/42 43/43/43
f 42/42/42 60/60/60 44/44/44
f 61/61/61 59/59/59 54/54/54
f 60/60/60 59/59/59 61/61/61
f 54/54/54 58/58/58 61/61/61
f 44/44/44 60/60/60 62/62/62
f 61/61/61 62/62/62 60/60/60
f 57/57/57 63/63/63 55/55/55
f 64/64/64 58/58/58 55/55/55
f 55/55/55 63/63/63 64/64/64
f 65/65/65 63/63/63 57/57/57
f 64/64/64 63/63/63 65/65/65
f 57/57/57 66/66/66 65/65/65
f 65/65/65 66/66/66 67/67/67
f 68/68/68 61/61/61 58/58/58
f 58/58/58 64/64/64 68/68/68
f 69/69/69 62/62/62 61/61/61
f 61/61/61 68/68/68 69/69/69
f 62/62/62 70/70/70 44/44/44
f 70/70/70 62/62/62 69/69/69
f 71/71/71 44/44/44 70/70/70
f 44/44/44 71/71/71 36/36/36
f 71/71/71 72/72/72 36/36/36
f 70/70/70 73/73/73 71/71/71
f 73/73/73 72/72/72 71/71/71
f 73/73/73 70/70/70 74/74/74
f 69/69/69 74/74/74 70/70/70
f 75/75/75 72/72/72 73/73/73
f 74/74/74 75/75/75 73/73/73
f 76/76/76 72/72/72 75/75/75
f 76/76/76 75/75/75 74/74/74
f 69/69/69 77/77/77 74/74/74
f 74/74/74 77/77/77 76/76/76
f 78/78/78 72/72/72 76/76/76
f 78/78/78 76/76/76 77/77/77
f 79/79/79 72/72/72 78/78/78
f 79/79/79 78/78/78 80/80/80
f 78/78/78 77/77/77 80/80/80
f 80/80/80 81/81/81 79/79/79
f 82/82/82 81/81/81 80/80/80
f 80/80/80 83/83/83 82/82/82
f 83/83/83 80/80/80 77/77/77
f 84/84/84 82/82/82 83/83/83
f 69/69/69 85/85/85 77/77/77
f 77/77/77 85/85/85 83/83/83
f 68/68/68 85/85/85 69/69/69
f 83/83/83 86/86/86 84/84/84
f 86/86/86 83/83/83 85/85/85
f 87/87/87 84/84/84 86/86/86
f 68/68/68 88/88/88 85/85/85
f 85/85/85 88/88/88 86/86/86
f 68/68/68 64/64/64 88/88/88
f 64/64/64 89/89/89 88/88/88
f 86/86/86 88/88/88 89/89/89
f 65/65/65 89/89/89 64/64/64
f 86/86/86 90/90/90 87/87/87
f 89/89/89 90/90/90 86/86/86
f 89/89/89 65/65/65 91/91/91
f 91/91/91 90/90/90 89/89/89
f 90/90/90 91/91/91 87/87/87
f 67/67/67 91/91/91 65/65/65
f 87/87/87 91/91/91 92/92/92
f 67/67/67 92/92/92 91/91/91
f 67/67/67 93/93/93 92/92/92
f 96/96/96 95/95/95 94/94/94
f 97/97/97 94/94/94 95/95/95
f 94/94/94 97/97/97 98/98/98
f 98/98/98 99/99/99 94/94/94
f 100/100/100 94/94/94 99/99/99
f 101/101/101 100/100/100 99/99/99
f 102/102/102 101/101/101 99/99/99
f 99/99/99 98/98/98 102/102/102
f 103/103/103 101/101/101 102/102/102
f 101/101/101 103/103/103 104/104/104
f 97/97/97 105/105/105 98/98/98
f 105/105/105 106/106/106 98/98/98
f 102/102/102 98/98/98 106/106/106
f 106/106/106 107/107/107 102/102/102
f 105/105/105 97/97/97 108/108/108
f 95/95/95 108/108/108 97/97/97
f 108/108/108 109/109/109 105/105/105
f 110/110/110 109/109/109 108/108/108
f 107/107/107 111/111/111 102/102/102
f 102/102/102 111/111/111 103/103/103
f 112/112/112 111/111/111 107/107/107
f 111/111/111 112/112/112 113/113/113
f 114/114/114 108/108/108 95/95/95
f 108/108/108 114/114/114 110/110/110
f 111/111/111 115/115/115 103/103/103
f 116/116/116 103/103/103 115/115/115
f 113/113/113 117/117/117 111/111/111
f 117/117/117 115/115/115 111/111/111
f 95/95/95 118/118/118 114/114/114
f 118/118/118 95/95/95 119/119/119
f 110/110/110 114/114/114 120/120/120
f 120/120/120 114/114/114 118/118/118
f 120/120/120 121/121/121 110/110/110
f 113/113/113 122/122/122 117/117/117
f 123/123/123 122/122/122 113/113/113
f 122/122/122 123/123/123 124/124/124
f 125/125/125 115/115/115 117/117/117
f 125/125/125 117/117/117 122/122/122
f 126/126/126 115/115/115 125/125/125
f 127/127/127 126/126/126 125/125/125
f 127/127/127 125/125/125 122/122/122
f 127/127/127 128/128/128 119/119/119
f 124/124/124 129/129/129 122/122/122
f 122/122/122 129/129/129 127/127/127
f 128/128/128 127/127/127 129/129/129
f 129/129/129 124/124/124 130/130/130
f 130/130/130 131/131/131 129/129/129
f 129/129/129 131/131/131 128/128/128
f 132/132/132 131/131/131 130/130/130
f 128/128/128 131/131/131 132/132/132
f 132/132/132 130/130/130 133/133/133
f 132/132/132 133/133/133 121/121/121
f 120/120/120 132/132/132 121/121/121
f 132/132/132 134/134/134 128/128/128
f 132/132/132 120/120/120 134/134/134
f 135/135/135 128/128/128 134/134/134
f 136/136/136 134/134/134 120/120/120
f 135/135/135 134/134/134 136/136/136
f 118/118/118 136/136/136 120/120/120
f 118/118/118 135/135/135 136/136/136
f 139/139/139 138/138/138 137/137/137
f 137/137/137 138/138/138 140/140/140
f 138/138/138 141/141/141 140/140/140
f 142/142/142 137/137/137 140/140/140
f 140/140/140 141/141/141 143/143/143
f 141/141/141 144/144/144 143/143/143
f 143/143/143 144/144/144 145/145/145
f 146/146/146 143/143/143 145/145/145
f 140/140/140 143/143/143 146/146/146
f 145/145/145 147/147/147 146/146/146
f 148/148/148 146/146/146 147/147/147
f 147/147/147 149/149/149 148/148/148
f 150/150/150 142/142/142 140/140/140
f 146/146/146 150/150/150 140/140/140
f 150/150/150 146/146/146 148/148/148
f 151/151/151 142/142/142 150/150/150
f 152/152/152 151/151/151 150/150/150
f 148/148/148 152/152/152 150/150/150
f 153/153/153 151/151/151 152/152/152
f 152/152/152 154/154/154 153/153/153
f 154/154/154 152/152/152 148/148/148
f 153/153/153 154/154/154 155/155/155
f 155/155/155 156/156/156 153/153/153
f 148/148/148 157/157/157 154/154/154
f 155/155/155 154/154/154 157/157/157
f 148/148/148 149/149/149 158/158/158
f 158/158/158 157/157/157 148/148/148
f 149/149/149 159/159/159 158/158/158
f 160/160/160 159/159/159 149/149/149
f 161/161/161 159/159/159 160/160/160
f 162/162/162 159/159/159 161/161/161
f 163/163/163 159/159/159 162/162/162
f 164/164/164 159/159/159 163/163/163
f 165/165/165 159/159/159 164/164/164
f 158/158/158 159/159/159 165/165/165
f 157/157/157 158/158/158 165/165/165
f 156/156/156 155/155/155 166/166/166
f 166/166/166 167/167/167 156/156/156
f 166/166/166 168/168/168 167/167/167
f 157/157/157 169/169/169 155/155/155
f 165/165/165 169/169/169 157/157/157
f 166/166/166 155/155/155 169/169/169
f 170/170/170 169/169/169 165/165/165
f 169/169/169 170/170/170 166/166/166
f 165/165/165 171/171/171 170/170/170
f 166/166/166 172/172/172 168/168/168
f 172/172/172 166/166/166 170/170/170
f 173/173/173 170/170/170 171/171/171
f 170/170/170 173/173/173 172/172/172
f 171/171/171 174/174/174 173/173/173
f 173/173/173 174/174/174 175/175/175
f 175/175/175 176/176/176 173/173/173
f 172/172/172 173/173/173 176/176/176
f 176/176/176 177/177/177 172/172/172
f 168/168/168 172/172/172 177/177/177
f 177/177/177 178/178/178 168/168/168
