g COL_treeRoots
v -3.392649 3.788074 -5.396478
v -6.146124 3.250991 -4.754891
v -5.364337 0.3645081 -4.49886
v -3.392649 3.788074 -5.396478
v -4.581469 8.754023 -3.36915
v -2.212231 12.78479 -4.660619
v -0.4527747 5.119198 -6.606387
v -2.468255 2.376208 -6.046065
v -0.25297 2.510052 -7.463418
v 1.527239 3.506757 -5.507244
v -0.1444968 13.38757 -5.007419
v -4.081953 13.31021 -3.150575
v 2.471792 12.45667 -4.370992
v -5.021669 12.80323 -1.426616
v 4.558048 3.440442 -3.648175
v 5.471467 9.206148 -1.563024
v 4.282784 13.44322 -1.263169
v 7.560397 3.045295 -2.132516
v -5.988593 3.719825 -1.469161
v -6.146124 3.250991 -4.754891
v -5.364337 0.3645081 -4.49886
v -4.014945 14.83858 1.089078
v -7.848568 3.09719 2.068717
v -2.595026 11.51088 3.90186
v -4.494436 3.788074 4.446281
v -0.4378841 12.59509 4.497873
v -1.51122 3.788074 7.829192
v 1.361827 11.53228 4.433632
v 2.016341 4.080015 5.638376
v 3.34644 13.26496 3.21737
v 5.533365 3.355372 4.536602
v 4.266863 12.43287 1.719821
v 6.207381 3.788074 1.64928
v 4.282784 13.44322 -1.263169
v 5.471467 9.206148 -1.563024
v 7.560397 3.045295 -2.132516
v -7.458112 -1.585927 1.808115
v -6.508543 -4.377366 1.819396
v -6.75619 -1.350955 0.4237346
v -6.192322 -1.325201 2.738462
v -6.508543 -4.377366 1.819396
v -7.458112 -1.585927 1.808115
v -5.277314 -2.53468 1.581099
v -6.508543 -4.377366 1.819396
v -6.75619 -1.350955 0.4237346
v 0.1291945 -0.6976812 6.835927
v -1.249035 -4.814801 6.777468
v -1.469856 0.005874023 7.928279
v -1.249035 -4.814801 6.777468
v -2.550396 -0.0932991 6.774676
v 0.1291945 -0.6976812 6.835927
v -0.9468426 0.2677861 4.498013
v -2.550396 -0.0932991 6.774676
v 0.6935264 -0.4091058 -7.72681
v 0.7406273 -4.466686 -7.003345
v 1.689987 -0.252449 -6.507944
v -4.038576 -1.226114 -4.516391
v -4.099269 -4.320204 -4.74528
v -3.433524 -1.656121 -5.874198
v -2.376225 -2.176007 -4.163444
v -4.099269 -4.320204 -4.74528
v -2.509065 -2.035958 -5.955961
v -4.099269 -4.320204 -4.74528
v -3.433524 -1.656121 -5.874198
v -4.099269 -4.320204 -4.74528
v -2.509065 -2.035958 -5.955961
v -3.392649 3.788074 -5.396478
v -2.561006 1.642211 -3.666656
v -4.038576 -1.226114 -4.516391
v -3.392649 3.788074 -5.396478
v -3.354026 1.821435 -2.070563
v -4.038576 -1.226114 -4.516391
v -3.433524 -1.656121 -5.874198
v -2.468255 2.376208 -6.046065
v -5.988593 3.719825 -1.469161
v -3.523444 2.55162 0.9332557
v -3.354026 1.821435 -2.070563
v 0.874361 -1.099069 -5.676983
v 1.689987 -0.252449 -6.507944
v 0.7406273 -4.466686 -7.003345
v -0.02847193 -1.038054 -6.696248
v 0.7406273 -4.466686 -7.003345
v 0.6935264 -0.4091058 -7.72681
v -0.02847193 -1.038054 -6.696248
v -1.073999 1.396662 -6.191832
v -0.25297 2.510052 -7.463418
v -2.468255 2.376208 -6.046065
v -1.343615 1.046491 -4.400657
v 0.06567975 1.732442 -4.4548
v -1.073999 1.396662 -6.191832
v 6.044714 -0.1385754 3.61406
v 5.677094 -3.929306 3.597632
v 5.990856 -0.2762677 4.810594
v 5.990856 -0.2762677 4.810594
v 4.789499 -0.04567978 5.124181
v 5.677094 -3.929306 3.597632
v 4.408405 -0.0940863 3.318547
v 6.044714 -0.1385754 3.61406
v 4.558048 3.440442 -3.648175
v 6.520314 -5.581916 -1.408958
v 7.560397 3.045295 -2.132516
v 7.560397 3.045295 -2.132516
v 6.520314 -5.581916 -1.408958
v 6.207381 3.788074 1.64928
v 6.520314 -5.581916 -1.408958
v 4.558048 3.440442 -3.648175
v 2.482714 3.614636 -0.49984
v 6.520314 -5.581916 -1.408958
v 6.207381 3.788074 1.64928
v -0.9468426 0.2677861 4.498013
v 0.1291945 -0.6976812 6.835927
v 0.57571 2.163996 5.999822
v -2.550396 -0.0932991 6.774676
v -2.955899 2.356456 5.773767
v 2.0118 3.928218 1.806862
v -0.8653095 3.425822 2.322323
v 2.016341 4.080015 5.638376
v 5.533365 3.355372 4.536602
v 4.789499 -0.04567978 5.124181
v 5.990856 -0.2762677 4.810594
v 4.789499 -0.04567978 5.124181
v 2.0118 3.928218 1.806862
v 4.408405 -0.0940863 3.318547
v 6.207381 3.788074 1.64928
v 6.044714 -0.1385754 3.61406
v -0.8653095 3.425822 2.322323
v -3.523444 2.55162 0.9332557
v -4.494436 3.788074 4.446281
v -1.51122 3.788074 7.829192
v -2.955899 2.356456 5.773767
v -2.550396 -0.0932991 6.774676
v -1.469856 0.005874023 7.928279
v 6.207381 3.788074 1.64928
v 2.482714 3.614636 -0.49984
v 2.0118 3.928218 1.806862
v 6.044714 -0.1385754 3.61406
v 5.990856 -0.2762677 4.810594
v 5.533365 3.355372 4.536602
v 4.558048 3.440442 -3.648175
v 1.527239 3.506757 -5.507244
v 0.06567975 1.732442 -4.4548
v 4.558048 3.440442 -3.648175
v 0.06567975 1.732442 -4.4548
v 2.482714 3.614636 -0.49984
v -7.848568 3.09719 2.068717
v -7.458112 -1.585927 1.808115
v -6.75619 -1.350955 0.4237346
v -5.988593 3.719825 -1.469161
v -4.494436 3.788074 4.446281
v -6.192322 -1.325201 2.738462
v -7.458112 -1.585927 1.808115
v -7.848568 3.09719 2.068717
v -5.277314 -2.53468 1.581099
v -6.192322 -1.325201 2.738462
v -3.523444 2.55162 0.9332557
v -6.75619 -1.350955 0.4237346
v -5.988593 3.719825 -1.469161
v -5.364337 0.3645081 -4.49886
v -3.354026 1.821435 -2.070563
v -3.392649 3.788074 -5.396478
v -5.988593 3.719825 -1.469161
v 2.016341 4.080015 5.638376
v 0.57571 2.163996 5.999822
v -1.51122 3.788074 7.829192
v -1.469856 0.005874023 7.928279
v 0.1291945 -0.6976812 6.835927
v -0.25297 2.510052 -7.463418
v 0.6935264 -0.4091058 -7.72681
v 1.689987 -0.252449 -6.507944
v 1.527239 3.506757 -5.507244
v -2.468255 2.376208 -6.046065
v -3.433524 -1.656121 -5.874198
v -2.509065 -2.035958 -5.955961
v -1.073999 1.396662 -6.191832
v -2.561006 1.642211 -3.666656
v -2.376225 -2.176007 -4.163444
v -4.038576 -1.226114 -4.516391
v -1.343615 1.046491 -4.400657
v -2.509065 -2.035958 -5.955961
v -1.073999 1.396662 -6.191832
v -1.073999 1.396662 -6.191832
v 0.874361 -1.099069 -5.676983
v -0.02847193 -1.038054 -6.696248
v 0.06567975 1.732442 -4.4548
v 1.689987 -0.252449 -6.507944
v 1.527239 3.506757 -5.507244
v -0.9468426 0.2677861 4.498013
v 0.57571 2.163996 5.999822
v 2.016341 4.080015 5.638376
v -0.8653095 3.425822 2.322323
v -2.955899 2.356456 5.773767
v -4.494436 3.788074 4.446281
v -0.8653095 3.425822 2.322323
v 2.0118 3.928218 1.806862
v 2.482714 3.614636 -0.49984
v -3.523444 2.55162 0.9332557
v 0.06567975 1.732442 -4.4548
v -3.354026 1.821435 -2.070563
v -3.523444 2.55162 0.9332557
v 2.482714 3.614636 -0.49984
v -3.354026 1.821435 -2.070563
v 0.06567975 1.732442 -4.4548
v -1.343615 1.046491 -4.400657
v -2.561006 1.642211 -3.666656
v 4.282784 13.44322 -1.263169
v -0.1444965 11.17846 0
v 2.471792 12.45667 -4.370992
v 4.266863 12.43287 1.719821
v -0.1444968 13.38757 -5.007419
v 3.34644 13.26496 3.21737
v -2.212231 12.78479 -4.660619
v 1.361827 11.53228 4.433632
v -4.081953 13.31021 -3.150575
v -0.4378841 12.59509 4.497873
v -5.021669 12.80323 -1.426616
v -2.595026 11.51088 3.90186
v -2.742143 12.39709 0.5486083
v -4.014945 14.83858 1.089078
vt 0.4375 0.3125
vt 0.4583334 0.3313694
vt 0.4583334 0.3125
vt 0.4375 0.3125
vt 0.4583334 0.5085586
vt 0.4375 0.6884398
vt 0.4166667 0.3867402
vt 0.4246095 0.3125
vt 0.4166667 0.3125
vt 0.4041642 0.3125
vt 0.4166667 0.6884398
vt 0.4583334 0.6884398
vt 0.3958333 0.6884398
vt 0.4791667 0.6884398
vt 0.3958333 0.3125
vt 0.375 0.5109372
vt 0.375 0.6884398
vt 0.375 0.3125
vt 0.4791667 0.3125
vt 0.4583334 0.3313694
vt 0.4583334 0.3125
vt 0.5000001 0.6884398
vt 0.5000001 0.3125
vt 0.5208334 0.6884398
vt 0.5208334 0.3125
vt 0.5416667 0.6884398
vt 0.5416667 0.3125
vt 0.5625 0.6884398
vt 0.5625 0.3125
vt 0.5833333 0.6884398
vt 0.5833333 0.3125
vt 0.6041666 0.6884398
vt 0.6041666 0.3125
vt 0.6249999 0.6884398
vt 0.6249999 0.5109372
vt 0.6249999 0.3125
vt 0 0
vt 0 1
vt 1 0
vt 0 0
vt 1 1
vt 1 0
vt 0.04267284 0.2077155
vt 1 0
vt 0.08534567 0.415431
vt 0 0
vt 0 1
vt 1 0
vt 0 0
vt 0.964307 0.1864269
vt 0.8236641 0.3017308
vt 0.9130753 0.1487382
vt 1 0
vt 0 0
vt 0.5 1
vt 1 0
vt 0 0
vt 0.5 1
vt 1 0
vt 0.1402536 0.2022594
vt 1 1.631304E-16
vt 0.2695587 0.3887301
vt 1 1.631304E-16
vt 0.1935079 0
vt 0 0.3028474
vt 1 0
vt 0 0
vt 0.7170883 0.1685646
vt 1 0
vt 0 0
vt 0.4244193 0.3429428
vt 0 1
vt 1 1
vt 1 0
vt 0 0
vt 0.6463081 0.6829816
vt 1 1.025241E-16
vt 0.07950603 0.1329543
vt 0 0.2659087
vt 0.9999999 1.840851E-16
vt 0.1590121 0
vt 1 1.449302E-16
vt 0.4142501 0
vt 0.5517308 0.1181366
vt 0.2690063 0.1926457
vt 0 0.09530005
vt 0.02542125 0.25684
vt 0 0
vt 0.3259815 0.9065086
vt 1 9.106698E-16
vt 0 0
vt 0.5 1
vt 1 0
vt 0 0
vt 1 0
vt 0 0
vt 0.9510396 0.1402583
vt 0.9060416 0.2691653
vt 0 0
vt 1 1
vt 1 0
vt 0 0
vt 0 1
vt 1 0
vt 0 5.296643E-17
vt 0.9059575 0.3267953
vt 0.9530811 0.1630421
vt 0 5.296643E-17
vt 1 0
vt 0.5258874 0.2685995
vt 0 0.4583677
vt 0.8751417 0.6181378
vt 0.2260995 3.09229E-16
vt 1 0
vt 0 0
vt 0.1809318 0.7494881
vt 1 0
vt 0 0
vt 1 1
vt 0 1
vt 0.08461148 1.041763E-16
vt 0.8593408 0.3334835
vt 0.04052162 0.1139899
vt 0.7294808 0.6413639
vt 0 0.2187546
vt 0 0
vt 0.4216522 0.8448159
vt 1 0
vt 0 0
vt 1 0.565552
vt 1 1
vt 0 1
vt 0 0
vt 0.8603789 0.5570949
vt 0.9999999 6.717144E-16
vt 0 1
vt 1 1
vt 1 0
vt 0 0.3571997
vt 0.03292769 0
vt 0.4125482 0.7259339
vt 0 0.3571997
vt 0.4125482 0.7259339
vt 1 0.3571997
vt 0 0
vt 0 1
vt 1 1
vt 1 0
vt 0 0
vt 0 1
vt 1 1
vt 1 0
vt 0.9700483 0.1190955
vt 0.9400967 0
vt 0.07726143 0.3048692
vt 1 0.2381909
vt 0.1545229 0.6097385
vt 0 0
vt 0.8814802 0.3559921
vt 1 0
vt 0.7629605 0.7119843
vt 0 0
vt 0 0.519788
vt 1 0
vt 1 1
vt 0 1
vt 0 0
vt 0 1
vt 1 1
vt 1 0
vt 0 1
vt 0.8485566 0.612414
vt 0.4589155 0
vt 0.3023644 1
vt 0.09522412 0
vt 0.9153587 0.1777759
vt 0.8235507 2.223288E-16
vt 0.04449804 0.2662994
vt 1 0.3416743
vt 0 0.4999032
vt 0.4044668 0
vt 0.9375958 0.1366647
vt 1 0
vt 0.2022334 0.2342694
vt 0.8751916 0.2733295
vt 0 0.4685388
vt 0.1763802 0.250935
vt 0 0.4983586
vt 0.3461789 1
vt 0.6393101 0.47854
vt 0.3552637 3.011017E-16
vt 0.9083144 0
vt 0.3018315 0
vt 0 0.4369104
vt 0.168478 0.7780292
vt 1 1.16944E-16
vt 0 3.691774E-17
vt 0.04987244 0.705097
vt 0.5167626 1
vt 0.9606 0
vt 0 0
vt 1 0.5072252
vt 0.8720148 0.01980445
vt 0.4983514 0
vt 0.6353165 0.921875
vt 0.5 0.8375
vt 0.578125 0.9790665
vt 0.65625 0.84375
vt 0.5 1
vt 0.6353165 0.765625
vt 0.421875 0.9790665
vt 0.578125 0.7084335
vt 0.3646835 0.921875
vt 0.5 0.6875
vt 0.34375 0.84375
vt 0.421875 0.7084335
vt 0.416236 0.7930077
vt 0.3646835 0.765625
vn -0.3909869 0.1035519 -0.9145525
vn -0.8357651 0.1075943 -0.5384423
vn -0.1131333 -0.963733 -0.2417017
vn -0.3909869 0.1035519 -0.9145525
vn -0.7933112 0.1555873 -0.5885999
vn -0.3828961 0.4273523 -0.8189998
vn 0.04269065 0.155287 -0.9869465
vn -0.5739791 0.04989803 -0.8173482
vn 0.1840604 0.1788855 -0.9664997
vn 0.6520575 -0.215224 -0.7269797
vn 0.04870133 0.4307354 -0.9011633
vn -0.3179425 0.903199 -0.2883472
vn 0.5604699 0.3600347 -0.7458206
vn -0.9199995 0.3256177 -0.2181148
vn 0.2650964 -0.2744399 -0.9243412
vn 0.9298828 0.2255978 -0.2905577
vn 0.7993513 0.5422941 -0.2587561
vn 0.9545721 0.03001803 -0.2964641
vn -0.9492694 0.02906978 -0.3131176
vn -0.8357651 0.1075943 -0.5384423
vn -0.1131333 -0.963733 -0.2417017
vn -0.8779451 0.3636967 0.3113472
vn -0.9356367 0.156524 0.316361
vn -0.6206863 0.3336367 0.7095315
vn -0.6198804 0.08881404 0.779654
vn -0.1354474 0.5123575 0.8480234
vn -0.1679377 0.2501691 0.9535263
vn 0.3473684 0.3218662 0.8807596
vn 0.3364768 -0.0117949 0.9416178
vn 0.590277 0.4573524 0.6651329
vn 0.6924089 0.1921196 0.6954567
vn 0.8911004 0.3975462 0.2188541
vn 0.907813 -0.05381602 0.4159079
vn 0.7993513 0.5422941 -0.2587561
vn 0.9298828 0.2255978 -0.2905577
vn 0.9545721 0.03001803 -0.2964641
vn -0.9676698 -0.1233484 0.2200006
vn -0.1242186 -0.991286 -0.04383852
vn -0.2138058 -0.2959563 -0.9309656
vn 0.1749396 -0.2998225 0.9378181
vn -0.1242186 -0.991286 -0.04383852
vn -0.9676698 -0.1233484 0.2200006
vn 0.8660269 -0.4525446 -0.2126046
vn -0.1242186 -0.991286 -0.04383852
vn -0.2138058 -0.2959563 -0.9309656
vn 0.9211907 -0.1678192 0.3510618
vn -0.1306408 -0.8806781 -0.455345
vn 0.009335149 -0.009521254 0.9999111
vn -0.1306408 -0.8806781 -0.455345
vn -0.980481 -0.1636838 0.1089245
vn 0.9211907 -0.1678192 0.3510618
vn 0.06031987 -0.6251287 -0.7781874
vn -0.980481 -0.1636838 0.1089245
vn 0.2153539 0.02908834 -0.9761027
vn 0.3655447 -0.8598036 -0.3565316
vn 0.9965329 0.0300789 -0.07757127
vn -0.9389363 0.00372026 0.3440709
vn -0.2731696 -0.8491052 0.4521047
vn -0.5342319 -0.007612485 -0.8453037
vn 0.6638482 -0.3939968 0.6356666
vn -0.2731696 -0.8491052 0.4521047
vn 0.666523 -0.3831441 -0.6394902
vn -0.2731696 -0.8491052 0.4521047
vn -0.5342319 -0.007612485 -0.8453037
vn -0.2731696 -0.8491052 0.4521047
vn 0.666523 -0.3831441 -0.6394902
vn -0.3909869 0.1035519 -0.9145525
vn -0.465392 -0.4053869 0.7868111
vn -0.9389363 0.00372026 0.3440709
vn -0.3909869 0.1035519 -0.9145525
vn 0.1278519 -0.9525254 0.2763138
vn -0.9389363 0.00372026 0.3440709
vn -0.5342319 -0.007612485 -0.8453037
vn -0.5739791 0.04989803 -0.8173482
vn -0.9492694 0.02906978 -0.3131176
vn 0.5395555 -0.8400236 0.05692141
vn 0.1278519 -0.9525254 0.2763138
vn 0.1269805 -0.388567 0.9126289
vn 0.9965329 0.0300789 -0.07757127
vn 0.3655447 -0.8598036 -0.3565316
vn -0.938695 -0.3447403 -0.00244206
vn 0.3655447 -0.8598036 -0.3565316
vn 0.2153539 0.02908834 -0.9761027
vn -0.938695 -0.3447403 -0.00244206
vn -0.361658 -0.6141871 -0.7014112
vn 0.1840604 0.1788855 -0.9664997
vn -0.5739791 0.04989803 -0.8173482
vn 0.6364586 -0.564813 0.5252683
vn 0.3053251 -0.8827995 0.3569899
vn -0.361658 -0.6141871 -0.7014112
vn 0.7139851 -0.2247315 -0.6631145
vn -0.4765313 -0.8267387 -0.2990336
vn 0.7242016 0.01771509 0.6893607
vn 0.7242016 0.01771509 0.6893607
vn -0.4981509 -0.3661498 0.7859899
vn -0.4765313 -0.8267387 -0.2990336
vn -0.5886065 -0.583479 -0.5595484
vn 0.7139851 -0.2247315 -0.6631145
vn 0.2650964 -0.2744399 -0.9243412
vn -0.06064472 -0.9502651 0.3054806
vn 0.9545721 0.03001803 -0.2964641
vn 0.9545721 0.03001803 -0.2964641
vn -0.06064472 -0.9502651 0.3054806
vn 0.907813 -0.05381602 0.4159079
vn -0.06064472 -0.9502651 0.3054806
vn 0.2650964 -0.2744399 -0.9243412
vn -0.2544814 -0.9238877 0.2857808
vn -0.06064472 -0.9502651 0.3054806
vn 0.907813 -0.05381602 0.4159079
vn 0.06031987 -0.6251287 -0.7781874
vn 0.9211907 -0.1678192 0.3510618
vn 0.9342552 -0.3426563 0.09876212
vn -0.980481 -0.1636838 0.1089245
vn -0.885155 -0.4569997 -0.08747483
vn -0.2024807 -0.9709348 -0.1276208
vn 0.1726307 -0.9763212 -0.1303671
vn 0.3364768 -0.0117949 0.9416178
vn 0.6924089 0.1921196 0.6954567
vn -0.4981509 -0.3661498 0.7859899
vn 0.7242016 0.01771509 0.6893607
vn -0.4981509 -0.3661498 0.7859899
vn -0.2024807 -0.9709348 -0.1276208
vn -0.5886065 -0.583479 -0.5595484
vn 0.907813 -0.05381602 0.4159079
vn 0.7139851 -0.2247315 -0.6631145
vn 0.1726307 -0.9763212 -0.1303671
vn 0.5395555 -0.8400236 0.05692141
vn -0.6198804 0.08881404 0.779654
vn -0.1679377 0.2501691 0.9535263
vn -0.885155 -0.4569997 -0.08747483
vn -0.980481 -0.1636838 0.1089245
vn 0.009335149 -0.009521254 0.9999111
vn 0.907813 -0.05381602 0.4159079
vn -0.2544814 -0.9238877 0.2857808
vn -0.2024807 -0.9709348 -0.1276208
vn 0.7139851 -0.2247315 -0.6631145
vn 0.7242016 0.01771509 0.6893607
vn 0.6924089 0.1921196 0.6954567
vn 0.2650964 -0.2744399 -0.9243412
vn 0.6520575 -0.215224 -0.7269797
vn 0.3053251 -0.8827995 0.3569899
vn 0.2650964 -0.2744399 -0.9243412
vn 0.3053251 -0.8827995 0.3569899
vn -0.2544814 -0.9238877 0.2857808
vn -0.9356367 0.156524 0.316361
vn -0.9676698 -0.1233484 0.2200006
vn -0.2138058 -0.2959563 -0.9309656
vn -0.9492694 0.02906978 -0.3131176
vn -0.6198804 0.08881404 0.779654
vn 0.1749396 -0.2998225 0.9378181
vn -0.9676698 -0.1233484 0.2200006
vn -0.9356367 0.156524 0.316361
vn 0.8660269 -0.4525446 -0.2126046
vn 0.1749396 -0.2998225 0.9378181
vn 0.5395555 -0.8400236 0.05692141
vn -0.2138058 -0.2959563 -0.9309656
vn -0.9492694 0.02906978 -0.3131176
vn -0.1131333 -0.963733 -0.2417017
vn 0.1278519 -0.9525254 0.2763138
vn -0.3909869 0.1035519 -0.9145525
vn -0.9492694 0.02906978 -0.3131176
vn 0.3364768 -0.0117949 0.9416178
vn 0.9342552 -0.3426563 0.09876212
vn -0.1679377 0.2501691 0.9535263
vn 0.009335149 -0.009521254 0.9999111
vn 0.9211907 -0.1678192 0.3510618
vn 0.1840604 0.1788855 -0.9664997
vn 0.2153539 0.02908834 -0.9761027
vn 0.9965329 0.0300789 -0.07757127
vn 0.6520575 -0.215224 -0.7269797
vn -0.5739791 0.04989803 -0.8173482
vn -0.5342319 -0.007612485 -0.8453037
vn 0.666523 -0.3831441 -0.6394902
vn -0.361658 -0.6141871 -0.7014112
vn -0.465392 -0.4053869 0.7868111
vn 0.6638482 -0.3939968 0.6356666
vn -0.9389363 0.00372026 0.3440709
vn 0.6364586 -0.564813 0.5252683
vn 0.666523 -0.3831441 -0.6394902
vn -0.361658 -0.6141871 -0.7014112
vn -0.361658 -0.6141871 -0.7014112
vn 0.1269805 -0.388567 0.9126289
vn -0.938695 -0.3447403 -0.00244206
vn 0.3053251 -0.8827995 0.3569899
vn 0.9965329 0.0300789 -0.07757127
vn 0.6520575 -0.215224 -0.7269797
vn 0.06031987 -0.6251287 -0.7781874
vn 0.9342552 -0.3426563 0.09876212
vn 0.3364768 -0.0117949 0.9416178
vn 0.1726307 -0.9763212 -0.1303671
vn -0.885155 -0.4569997 -0.08747483
vn -0.6198804 0.08881404 0.779654
vn 0.1726307 -0.9763212 -0.1303671
vn -0.2024807 -0.9709348 -0.1276208
vn -0.2544814 -0.9238877 0.2857808
vn 0.5395555 -0.8400236 0.05692141
vn 0.3053251 -0.8827995 0.3569899
vn 0.1278519 -0.9525254 0.2763138
vn 0.5395555 -0.8400236 0.05692141
vn -0.2544814 -0.9238877 0.2857808
vn 0.1278519 -0.9525254 0.2763138
vn 0.3053251 -0.8827995 0.3569899
vn 0.6364586 -0.564813 0.5252683
vn -0.465392 -0.4053869 0.7868111
vn 0.7993513 0.5422941 -0.2587561
vn -0.08023035 0.9911389 0.1058626
vn 0.5604699 0.3600347 -0.7458206
vn 0.8911004 0.3975462 0.2188541
vn 0.04870133 0.4307354 -0.9011633
vn 0.590277 0.4573524 0.6651329
vn -0.3828961 0.4273523 -0.8189998
vn 0.3473684 0.3218662 0.8807596
vn -0.3179425 0.903199 -0.2883472
vn -0.1354474 0.5123575 0.8480234
vn -0.9199995 0.3256177 -0.2181148
vn -0.6206863 0.3336367 0.7095315
vn 0.6389421 0.7623785 -0.1026264
vn -0.8779451 0.3636967 0.3113472
g COL_treeRoots_0
f 3/3/3 2/2/2 1/1/1
f 2/2/2 5/5/5 4/4/4
f 5/5/5 6/6/6 4/4/4
f 4/4/4 6/6/6 7/7/7
f 8/8/8 4/4/4 7/7/7
f 8/8/8 7/7/7 9/9/9
f 10/10/10 9/9/9 7/7/7
f 6/6/6 11/11/11 7/7/7
f 5/5/5 12/12/12 6/6/6
f 7/7/7 11/11/11 13/13/13
f 10/10/10 7/7/7 13/13/13
f 14/14/14 12/12/12 5/5/5
f 10/10/10 13/13/13 15/15/15
f 15/15/15 13/13/13 16/16/16
f 13/13/13 17/17/17 16/16/16
f 15/15/15 16/16/16 18/18/18
f 19/19/19 14/14/14 5/5/5
f 19/19/19 5/5/5 20/20/20
f 19/19/19 20/20/20 21/21/21
f 22/22/22 14/14/14 19/19/19
f 23/23/23 22/22/22 19/19/19
f 24/24/24 22/22/22 23/23/23
f 25/25/25 24/24/24 23/23/23
f 26/26/26 24/24/24 25/25/25
f 27/27/27 26/26/26 25/25/25
f 28/28/28 26/26/26 27/27/27
f 29/29/29 28/28/28 27/27/27
f 30/30/30 28/28/28 29/29/29
f 31/31/31 30/30/30 29/29/29
f 32/32/32 30/30/30 31/31/31
f 33/33/33 32/32/32 31/31/31
f 34/34/34 32/32/32 33/33/33
f 35/35/35 34/34/34 33/33/33
f 36/36/36 35/35/35 33/33/33
f 39/39/39 38/38/38 37/37/37
f 42/42/42 41/41/41 40/40/40
f 44/44/44 43/43/43 40/40/40
f 44/44/44 45/45/45 43/43/43
f 48/48/48 47/47/47 46/46/46
f 48/48/48 50/50/50 49/49/49
f 52/52/52 51/51/51 49/49/49
f 53/53/53 52/52/52 49/49/49
f 56/56/56 55/55/55 54/54/54
f 59/59/59 58/58/58 57/57/57
f 61/61/61 60/60/60 57/57/57
f 63/63/63 62/62/62 60/60/60
f 66/66/66 65/65/65 64/64/64
f 69/69/69 68/68/68 67/67/67
f 68/68/68 71/71/71 70/70/70
f 73/73/73 72/72/72 70/70/70
f 74/74/74 73/73/73 70/70/70
f 77/77/77 76/76/76 75/75/75
f 80/80/80 79/79/79 78/78/78
f 82/82/82 78/78/78 81/81/81
f 82/82/82 84/84/84 83/83/83
f 84/84/84 85/85/85 83/83/83
f 85/85/85 86/86/86 83/83/83
f 85/85/85 87/87/87 86/86/86
f 90/90/90 89/89/89 88/88/88
f 93/93/93 92/92/92 91/91/91
f 95/95/95 92/92/92 94/94/94
f 95/95/95 97/97/97 96/96/96
f 97/97/97 98/98/98 96/96/96
f 101/101/101 100/100/100 99/99/99
f 104/104/104 103/103/103 102/102/102
f 107/107/107 106/106/106 105/105/105
f 109/109/109 107/107/107 108/108/108
f 112/112/112 111/111/111 110/110/110
f 114/114/114 110/110/110 113/113/113
f 117/117/117 116/116/116 115/115/115
f 117/117/117 119/119/119 118/118/118
f 119/119/119 120/120/120 118/118/118
f 117/117/117 122/122/122 121/121/121
f 122/122/122 123/123/123 121/121/121
f 122/122/122 124/124/124 123/123/123
f 124/124/124 125/125/125 123/123/123
f 128/128/128 127/127/127 126/126/126
f 128/128/128 130/130/130 129/129/129
f 130/130/130 131/131/131 129/129/129
f 131/131/131 132/132/132 129/129/129
f 135/135/135 134/134/134 133/133/133
f 137/137/137 136/136/136 133/133/133
f 138/138/138 137/137/137 133/133/133
f 141/141/141 140/140/140 139/139/139
f 144/144/144 143/143/143 142/142/142
f 147/147/147 146/146/146 145/145/145
f 148/148/148 147/147/147 145/145/145
f 151/151/151 150/150/150 149/149/149
f 152/152/152 151/151/151 149/149/149
f 154/154/154 153/153/153 149/149/149
f 153/153/153 155/155/155 149/149/149
f 153/153/153 156/156/156 155/155/155
f 156/156/156 157/157/157 155/155/155
f 160/160/160 159/159/159 158/158/158
f 159/159/159 161/161/161 158/158/158
f 164/164/164 163/163/163 162/162/162
f 164/164/164 165/165/165 163/163/163
f 165/165/165 166/166/166 163/163/163
f 169/169/169 168/168/168 167/167/167
f 170/170/170 169/169/169 167/167/167
f 173/173/173 172/172/172 171/171/171
f 174/174/174 173/173/173 171/171/171
f 177/177/177 176/176/176 175/175/175
f 176/176/176 178/178/178 175/175/175
f 176/176/176 179/179/179 178/178/178
f 179/179/179 180/180/180 178/178/178
f 183/183/183 182/182/182 181/181/181
f 182/182/182 184/184/184 181/181/181
f 182/182/182 185/185/185 184/184/184
f 185/185/185 186/186/186 184/184/184
f 189/189/189 188/188/188 187/187/187
f 190/190/190 189/189/189 187/187/187
f 190/190/190 187/187/187 191/191/191
f 192/192/192 190/190/190 191/191/191
f 195/195/195 194/194/194 193/193/193
f 196/196/196 195/195/195 193/193/193
f 199/199/199 198/198/198 197/197/197
f 200/200/200 199/199/199 197/197/197
f 203/203/203 202/202/202 201/201/201
f 204/204/204 203/203/203 201/201/201
f 207/207/207 206/206/206 205/205/205
f 205/205/205 206/206/206 208/208/208
f 209/209/209 206/206/206 207/207/207
f 208/208/208 206/206/206 210/210/210
f 211/211/211 206/206/206 209/209/209
f 210/210/210 206/206/206 212/212/212
f 213/213/213 206/206/206 211/211/211
f 212/212/212 206/206/206 214/214/214
f 215/215/215 206/206/206 213/213/213
f 214/214/214 206/206/206 216/216/216
f 217/217/217 206/206/206 215/215/215
f 216/216/216 206/206/206 217/217/217
f 218/218/218 217/217/217 215/215/215
f 216/216/216 217/217/217 218/218/218
