g cratepart2
v 0.02694988 0.2966461 -0.09883308
v 0.02249813 0.3465023 -0.09883308
v -0.06719303 0.2931461 -0.09994316
v -0.07459354 0.2931461 0.01047325
v -0.07459354 0.3482533 0.008069992
v -0.06719303 0.2931461 -0.09994316
v -0.07353687 -0.3287868 0.01278877
v -0.07353687 -0.2736797 0.01038551
v -0.07015705 -0.2784119 -0.09063911
v -0.07015705 -0.2784119 -0.09063911
v 0.01727962 -0.2754326 -0.09182167
v 0.02173519 -0.3252888 -0.09182167
v -0.02671528 -0.4519367 -0.04237175
v -0.07514668 -0.4519367 -0.04237175
v -0.02671146 -0.4541302 0.1149387
v -0.07514668 -0.4541302 0.1149387
v -0.07436466 0.4431057 0.003675461
v -0.0748148 0.4530582 0.1029797
v -0.06881809 -0.002955079 0.1005459
v -0.06881809 -0.004813552 -0.03986549
v -0.0748148 0.4509754 -0.05436897
v -0.07514668 -0.4519367 -0.04237175
v -0.07514668 -0.4541302 0.1149387
v -0.0748148 0.4509754 -0.05436897
v -0.02704716 0.4509754 -0.05436897
v -0.07436466 0.4431057 0.003675461
v -0.0274744 0.4445667 -0.001226425
v -0.02704334 0.4530582 0.1029797
v -0.0748148 0.4530582 0.1029797
v -0.0748148 0.4530582 0.1029797
v -0.02704334 0.4530582 0.1029797
v -0.06881809 -0.002955079 0.1005459
v -0.03304386 -0.002955079 0.1005459
v -0.07514668 -0.4541302 0.1149387
v -0.02671146 -0.4541302 0.1149387
v -0.06881809 -0.004813552 -0.03986549
v -0.02704716 0.4509754 -0.05436897
v -0.0748148 0.4509754 -0.05436897
v -0.03304386 -0.004813552 -0.03986549
v -0.02671528 -0.4519367 -0.04237175
v -0.07514668 -0.4519367 -0.04237175
v -0.06719303 0.343523 -0.09994316
v 0.02204418 0.3465023 -0.1142139
v 0.02249813 0.3465023 -0.09883308
v -0.0835886 0.343523 -0.1149387
v -0.07459354 0.3482533 0.008069992
v -0.09039783 0.3482533 0.008588791
v -0.07459354 0.2931461 0.01047325
v -0.06719303 0.2931461 -0.09994316
v -0.09039783 0.2931461 0.01099205
v -0.0835886 0.2931461 -0.1149387
v 0.02649593 0.2966461 -0.1142139
v 0.02694988 0.2966461 -0.09883308
v 0.02204418 0.3465023 -0.1142139
v 0.02649593 0.2966461 -0.1142139
v 0.02249813 0.3465023 -0.09883308
v 0.02694988 0.2966461 -0.09883308
v -0.07459354 0.3482533 0.008069992
v -0.07459354 0.2931461 0.01047325
v -0.09039783 0.3482533 0.008588791
v -0.09039783 0.2931461 0.01099205
v -0.09039783 0.3482533 0.008588791
v -0.09039783 0.2931461 0.01099205
v -0.0835886 0.343523 -0.1149387
v -0.0835886 0.2931461 -0.1149387
v -0.0835886 0.343523 -0.1149387
v -0.0835886 0.2931461 -0.1149387
v 0.02204418 0.3465023 -0.1142139
v 0.02649593 0.2966461 -0.1142139
v 0.09039783 -0.4499645 -0.09276772
v -0.05849552 0.006128997 -0.08576775
v -0.06696796 -0.4449368 -0.09276772
v 0.0819273 0.006128997 -0.08576775
v -0.06691837 0.4484959 -0.1037884
v 0.09034824 0.4541302 -0.1037884
v -0.06691837 0.4484959 -0.1037884
v 0.09034824 0.4541302 -0.1037884
v -0.06691837 0.4484959 -0.05535698
v 0.09034824 0.4541302 -0.05535698
v 0.09039783 -0.4499645 -0.04499626
v 0.09039783 -0.4499645 -0.09276772
v -0.06696796 -0.4449368 -0.04499626
v -0.06696796 -0.4449368 -0.09276772
v -0.06696796 -0.4449368 -0.04499626
v -0.06696796 -0.4449368 -0.09276772
v -0.05849552 0.006128997 -0.04999352
v -0.05849552 0.006128997 -0.08576775
v -0.06691837 0.4484959 -0.05535698
v -0.06691837 0.4484959 -0.1037884
v 0.09039783 -0.4499645 -0.04499626
v 0.0819273 0.006128997 -0.08576775
v 0.09039783 -0.4499645 -0.09276772
v 0.0819273 0.006128997 -0.04999352
v 0.09034824 0.4541302 -0.05535698
v 0.09034824 0.4541302 -0.1037884
v -0.07015705 -0.2784119 -0.09063911
v 0.01682568 -0.2754326 -0.1072025
v 0.01727962 -0.2754326 -0.09182167
v -0.08655262 -0.2784119 -0.1056347
v -0.07353687 -0.2736797 0.01038551
v -0.08934116 -0.2736797 0.01090431
v -0.07353687 -0.3287868 0.01278877
v -0.07015705 -0.3287868 -0.09063911
v -0.08934116 -0.3287868 0.01330757
v -0.08655262 -0.3287868 -0.1056347
v 0.02128124 -0.3252888 -0.1072025
v 0.02173519 -0.3252888 -0.09182167
v 0.01682568 -0.2754326 -0.1072025
v 0.02128124 -0.3252888 -0.1072025
v 0.01727962 -0.2754326 -0.09182167
v 0.02173519 -0.3252888 -0.09182167
v -0.07353687 -0.2736797 0.01038551
v -0.07353687 -0.3287868 0.01278877
v -0.08934116 -0.2736797 0.01090431
v -0.08934116 -0.3287868 0.01330757
v -0.08934116 -0.2736797 0.01090431
v -0.08934116 -0.3287868 0.01330757
v -0.08655262 -0.2784119 -0.1056347
v -0.08655262 -0.3287868 -0.1056347
v -0.08655262 -0.2784119 -0.1056347
v -0.08655262 -0.3287868 -0.1056347
v 0.01682568 -0.2754326 -0.1072025
v 0.02128124 -0.3252888 -0.1072025
v -0.02671528 -0.4519367 -0.04237175
v -0.02671146 -0.4541302 0.1149387
v -0.03304386 -0.002955079 0.1005459
v -0.03304386 -0.004813552 -0.03986549
v -0.02704716 0.4509754 -0.05436897
v -0.0274744 0.4445667 -0.001226425
v -0.02704334 0.4530582 0.1029797
v -0.06691837 0.4484959 -0.05535698
v 0.09034824 0.4541302 -0.05535698
v 0.0819273 0.006128997 -0.04999352
v -0.05849552 0.006128997 -0.04999352
v -0.06696796 -0.4449368 -0.04499626
v 0.09039783 -0.4499645 -0.04499626
vt 0.7090666 0.4973039
vt 0.7470151 0.4870317
vt 0.7044378 0.4343863
vt 0.6992641 0.3833976
vt 0.7387699 0.3729715
vt 0.7044378 0.4343863
vt 0.6992641 0.3833976
vt 0.7387699 0.3729715
vt 0.7432244 0.4343589
vt 0.7432244 0.4343589
vt 0.7470151 0.4870317
vt 0.7090666 0.4973039
vt 0.1871044 0.9818144
vt 0.1871044 0.9960919
vt 0.2348709 0.9818144
vt 0.2348709 0.9960918
vt 0.1579029 0.5411276
vt 0.127244 0.5395833
vt 0.127244 0.7606988
vt 0.1748898 0.7606988
vt 0.1748898 0.5395833
vt 0.1748898 0.9818144
vt 0.127244 0.9818144
vt 0.1871044 0.5253059
vt 0.1871044 0.5395833
vt 0.2071321 0.5253059
vt 0.2035441 0.5484415
vt 0.2348709 0.5395833
vt 0.2348709 0.5253059
vt 0.2469711 0.5395833
vt 0.2348709 0.5395833
vt 0.2469711 0.7606988
vt 0.2348709 0.7606988
vt 0.2469711 0.9818144
vt 0.2348709 0.9818144
vt 0.1748898 0.7606988
vt 0.1871044 0.5395833
vt 0.1748898 0.5395833
vt 0.1871044 0.7606988
vt 0.1871044 0.9818144
vt 0.1748898 0.9818144
vt 0.7432244 0.4343589
vt 0.7377748 0.4883479
vt 0.7470151 0.4870317
vt 0.7348498 0.4342745
vt 0.7480851 0.383368
vt 0.7388487 0.3814442
vt 0.6992641 0.3833976
vt 0.7044378 0.4343863
vt 0.7082779 0.3814622
vt 0.7126257 0.4342911
vt 0.7090922 0.4883659
vt 0.7003074 0.4870622
vt 0.7377748 0.4883479
vt 0.7090922 0.4883659
vt 0.737798 0.4972863
vt 0.7090666 0.4973039
vt 0.7387699 0.3729715
vt 0.7083513 0.372989
vt 0.7388487 0.3814442
vt 0.7082779 0.3814622
vt 0.7388487 0.3814442
vt 0.7082779 0.3814622
vt 0.7348498 0.4342745
vt 0.7126257 0.4342911
vt 0.7348498 0.4342745
vt 0.7126257 0.4342911
vt 0.7377748 0.4883479
vt 0.7090922 0.4883659
vt 0.4343016 0.5395833
vt 0.4820678 0.7606988
vt 0.4820678 0.5395833
vt 0.4343016 0.7606988
vt 0.4820678 0.9818144
vt 0.4343016 0.9818144
vt 0.4820678 0.9818144
vt 0.4343016 0.9818144
vt 0.4820678 0.9960918
vt 0.4343016 0.9960919
vt 0.4343016 0.5253059
vt 0.4343016 0.5395833
vt 0.4820678 0.5253059
vt 0.4820678 0.5395833
vt 0.494168 0.5395833
vt 0.4820678 0.5395833
vt 0.494168 0.7606988
vt 0.4820678 0.7606988
vt 0.494168 0.9818144
vt 0.4820678 0.9818144
vt 0.4220869 0.5395833
vt 0.4343016 0.7606988
vt 0.4343016 0.5395833
vt 0.4220869 0.7606988
vt 0.4220869 0.9818144
vt 0.4343016 0.9818144
vt 0.7432244 0.4343589
vt 0.7377748 0.4883479
vt 0.7470151 0.4870317
vt 0.7348498 0.4342745
vt 0.7480851 0.383368
vt 0.7388487 0.3814442
vt 0.6992641 0.3833976
vt 0.7044378 0.4343863
vt 0.7082779 0.3814622
vt 0.7126257 0.4342911
vt 0.7090922 0.4883659
vt 0.7003074 0.4870622
vt 0.7377748 0.4883479
vt 0.7090922 0.4883659
vt 0.737798 0.4972863
vt 0.7090666 0.4973039
vt 0.7387699 0.3729715
vt 0.7083513 0.372989
vt 0.7388487 0.3814442
vt 0.7082779 0.3814622
vt 0.7388487 0.3814442
vt 0.7082779 0.3814622
vt 0.7348498 0.4342745
vt 0.7126257 0.4342911
vt 0.7348498 0.4342745
vt 0.7126257 0.4342911
vt 0.7377748 0.4883479
vt 0.7090922 0.4883659
vt 0.1871044 0.9818144
vt 0.2348709 0.9818144
vt 0.2348709 0.7606988
vt 0.1871044 0.7606988
vt 0.1871044 0.5395833
vt 0.2035441 0.5484415
vt 0.2348709 0.5395833
vt 0.494168 0.9818144
vt 0.4343016 0.9960919
vt 0.4220869 0.7606988
vt 0.494168 0.7606988
vt 0.4820678 0.5253059
vt 0.4220869 0.5395833
vn 0.7519165 0.0008460421 0.6592578
vn 0.7519165 0.0008460421 0.6592578
vn 0.7519165 0.0008460421 0.6592578
vn 0.7519165 0.0008460422 0.6592578
vn 0.7519165 0.0008460421 0.6592578
vn 0.7519165 0.0008460421 0.6592578
vn 0.7589453 0.000932256 0.6511536
vn 0.7589453 0.0009322559 0.6511536
vn 0.7589453 0.000932256 0.6511537
vn 0.7589453 0.000932256 0.6511537
vn 0.7589453 0.000932256 0.6511537
vn 0.7589453 0.000932256 0.6511537
vn 0 -0.9999028 -0.01394189
vn 0 -0.9999028 -0.01394206
vn 0 -0.9999028 -0.0139426
vn 0 -0.9999028 -0.01394276
vn -0.9999158 -0.0129663 0.000356083
vn -0.9999086 -0.01313426 -0.003230067
vn -0.9999992 0.001267477 -0.0001401533
vn -0.9999993 0.00118683 8.610427E-05
vn -0.9998978 -0.01296676 0.006024249
vn -0.9999013 0.01405446 0.0001316806
vn -0.9999015 0.01403314 0.0001985892
vn 0 0.9909351 0.1343405
vn -0.007446614 0.9916978 0.1283743
vn -0.02291782 0.9995874 -0.01731786
vn -0.03191819 0.9994658 -0.007035183
vn -0.01131177 0.9954725 -0.09437388
vn 0 0.9950157 -0.09971818
vn 0 -0.005338944 0.9999858
vn 0 -0.005338944 0.9999858
vn 0 0.01298168 0.9999157
vn 0 0.01340509 0.9999101
vn 0 0.03188409 0.9994916
vn 0 0.03188409 0.9994916
vn 0 -0.01326401 -0.999912
vn 0 -0.03180367 -0.9994942
vn 0 -0.03180367 -0.9994942
vn 0 -0.01328229 -0.9999118
vn 0 0.005600008 -0.9999844
vn 0 0.005600008 -0.9999844
vn 0.006428078 0.9999471 -0.008041715
vn -0.03265166 0.9994568 0.004462996
vn -0.03320811 0.999448 0.0009820515
vn 0.007310183 0.9999075 -0.0114682
vn 0.001933061 0.9992536 -0.03857969
vn -0.001257106 0.9992637 -0.03834681
vn 0 -1 0
vn 0.0145263 -0.9997848 -0.01481352
vn 0 -1 0
vn 0.01235921 -0.9998323 -0.01351244
vn 0.03659317 -0.9993186 -0.00481561
vn 0.03715908 -0.9993088 -0.001097899
vn 0.9956044 0.08892939 -0.0293844
vn 0.9956044 0.08893026 -0.0293843
vn 0.9956044 0.08892959 -0.02938438
vn 0.9956043 0.08893046 -0.02938428
vn 0.03272904 0.04353538 0.9985157
vn 0.03273197 0.04353471 0.9985155
vn 0.03272968 0.04353525 0.9985157
vn 0.0327326 0.04353458 0.9985155
vn -0.9984849 -0.002398146 -0.05497458
vn -0.9984984 -0.001833237 -0.05474939
vn -0.9985256 -0.0006572693 -0.05428058
vn -0.9985399 0 -0.05401851
vn 0.006858598 0 -0.9999765
vn 0.006772804 0.0001693301 -0.9999771
vn 0.006640608 0.0004314081 -0.9999779
vn 0.006562907 0.0005854515 -0.9999783
vn 0.0004066155 0.01547307 -0.9998802
vn 5.799819E-05 -0.01193476 -0.9999288
vn 0.0004956183 0.01550211 -0.9998797
vn 0.0001712133 -0.01261113 -0.9999205
vn 0.001190338 -0.04030506 -0.9991867
vn 0.001440402 -0.04022106 -0.9991898
vn -0.03579592 0.9993591 0
vn -0.03579589 0.9993591 0
vn -0.03579591 0.9993591 0
vn -0.0357959 0.9993592 0
vn -0.03192884 -0.9994901 0
vn -0.03192886 -0.9994901 0
vn -0.03192889 -0.9994901 0
vn -0.03192889 -0.9994901 0
vn -0.9998239 0.01877289 0
vn -0.9998239 0.01877291 0
vn -1 0.0004035487 0
vn -1 -0.0003184298 0
vn -0.9998189 -0.01903192 0
vn -0.9998189 -0.01903192 0
vn 0.9998276 0.01856621 0
vn 1 -0.0001061942 0
vn 0.9998276 0.01856621 0
vn 1 0.0001902776 0
vn 0.9998234 -0.01879271 0
vn 0.9998234 -0.01879271 0
vn 0.00720189 0.9999337 -0.008991078
vn -0.03331742 0.9994335 0.004764239
vn -0.03403303 0.9994202 0.001004251
vn 0.006333046 0.999921 -0.01085803
vn 0.002215209 0.9991566 -0.04100158
vn -0.001332293 0.9991744 -0.0406043
vn 0 -1 0
vn 0.01499088 -0.9997713 -0.01525192
vn 0 -1 0
vn 0.0134832 -0.9998005 -0.01474049
vn 0.03731286 -0.9992905 -0.005127943
vn 0.03803822 -0.9992756 -0.001121067
vn 0.9956039 0.08893403 -0.02938663
vn 0.9956043 0.08893085 -0.02938463
vn 0.995604 0.08893329 -0.02938616
vn 0.9956044 0.08893012 -0.02938417
vn 0.0327293 0.04353507 0.9985157
vn 0.03273507 0.04353527 0.9985154
vn 0.03273055 0.04353511 0.9985155
vn 0.03273632 0.04353531 0.9985154
vn -0.9997138 -0.001042677 -0.02389642
vn -0.9997167 -0.0007833411 -0.02378673
vn -0.9997218 -0.0003004083 -0.02358247
vn -0.9997248 0 -0.02345541
vn -0.01518938 0 -0.9998846
vn -0.01499159 -0.0003841388 -0.9998876
vn -0.01469957 -0.0009501845 -0.9998915
vn -0.01452063 -0.001297018 -0.9998938
vn 0.9999999 0.0006183603 7.990769E-05
vn 0.9999999 0.0006183602 7.990769E-05
vn 0.9999999 0.0006183603 7.99077E-05
vn 0.9999999 0.0006183602 7.990769E-05
vn 0.9999999 0.0006183603 7.99077E-05
vn 0.9999999 0.0006183602 7.99077E-05
vn 0.9999999 0.0006183603 7.99077E-05
vn -1.893164E-05 0.01152689 0.9999336
vn -1.893164E-05 0.01152689 0.9999336
vn -1.893164E-05 0.01152689 0.9999336
vn -1.893164E-05 0.01152689 0.9999336
vn -1.893164E-05 0.01152689 0.9999336
vn -1.893164E-05 0.01152689 0.9999336
g cratepart2_0
f 3/3/3 2/2/2 1/1/1
f 6/6/6 5/5/5 4/4/4
f 9/9/9 8/8/8 7/7/7
f 12/12/12 11/11/11 10/10/10
f 15/15/15 14/14/14 13/13/13
f 16/16/16 14/14/14 15/15/15
f 19/19/19 18/18/18 17/17/17
f 20/20/20 19/19/19 17/17/17
f 17/17/17 21/21/21 20/20/20
f 22/22/22 19/19/19 20/20/20
f 23/23/23 19/19/19 22/22/22
f 26/26/26 25/25/25 24/24/24
f 27/27/27 25/25/25 26/26/26
f 27/27/27 26/26/26 28/28/28
f 28/28/28 26/26/26 29/29/29
f 32/32/32 31/31/31 30/30/30
f 33/33/33 31/31/31 32/32/32
f 32/32/32 34/34/34 33/33/33
f 33/33/33 34/34/34 35/35/35
f 38/38/38 37/37/37 36/36/36
f 36/36/36 37/37/37 39/39/39
f 39/39/39 40/40/40 36/36/36
f 36/36/36 40/40/40 41/41/41
f 44/44/44 43/43/43 42/42/42
f 42/42/42 43/43/43 45/45/45
f 42/42/42 45/45/45 46/46/46
f 46/46/46 45/45/45 47/47/47
f 50/50/50 49/49/49 48/48/48
f 51/51/51 49/49/49 50/50/50
f 51/51/51 52/52/52 49/49/49
f 49/49/49 52/52/52 53/53/53
f 56/56/56 55/55/55 54/54/54
f 57/57/57 55/55/55 56/56/56
f 60/60/60 59/59/59 58/58/58
f 61/61/61 59/59/59 60/60/60
f 64/64/64 63/63/63 62/62/62
f 65/65/65 63/63/63 64/64/64
f 68/68/68 67/67/67 66/66/66
f 69/69/69 67/67/67 68/68/68
f 72/72/72 71/71/71 70/70/70
f 70/70/70 71/71/71 73/73/73
f 71/71/71 74/74/74 73/73/73
f 73/73/73 74/74/74 75/75/75
f 78/78/78 77/77/77 76/76/76
f 79/79/79 77/77/77 78/78/78
f 82/82/82 81/81/81 80/80/80
f 83/83/83 81/81/81 82/82/82
f 86/86/86 85/85/85 84/84/84
f 87/87/87 85/85/85 86/86/86
f 88/88/88 87/87/87 86/86/86
f 89/89/89 87/87/87 88/88/88
f 92/92/92 91/91/91 90/90/90
f 90/90/90 91/91/91 93/93/93
f 91/91/91 94/94/94 93/93/93
f 95/95/95 94/94/94 91/91/91
f 98/98/98 97/97/97 96/96/96
f 96/96/96 97/97/97 99/99/99
f 96/96/96 99/99/99 100/100/100
f 100/100/100 99/99/99 101/101/101
f 104/104/104 103/103/103 102/102/102
f 105/105/105 103/103/103 104/104/104
f 105/105/105 106/106/106 103/103/103
f 103/103/103 106/106/106 107/107/107
f 110/110/110 109/109/109 108/108/108
f 111/111/111 109/109/109 110/110/110
f 114/114/114 113/113/113 112/112/112
f 115/115/115 113/113/113 114/114/114
f 118/118/118 117/117/117 116/116/116
f 119/119/119 117/117/117 118/118/118
f 122/122/122 121/121/121 120/120/120
f 123/123/123 121/121/121 122/122/122
f 126/126/126 125/125/125 124/124/124
f 124/124/124 127/127/127 126/126/126
f 127/127/127 128/128/128 126/126/126
f 128/128/128 129/129/129 126/126/126
f 126/126/126 129/129/129 130/130/130
f 133/133/133 132/132/132 131/131/131
f 131/131/131 134/134/134 133/133/133
f 133/133/133 134/134/134 135/135/135
f 135/135/135 136/136/136 133/133/133
