g cratepart0
v -0.02912235 0.2945747 -0.3951893
v -0.07722187 0.2808189 0.1815224
v -0.02879047 0.4380836 0.1830044
v -0.02879047 0.4380836 0.1830044
v -0.02912235 0.4381332 -0.3961067
v -0.02912235 0.2945747 -0.3951893
v -0.06390095 0.3757019 0.3811111
v 0.01766491 0.3722038 0.3802757
v 0.01321316 0.3223495 0.3802757
v -0.06390095 0.3757019 0.3811111
v -0.07745075 0.3757019 0.2666206
v -0.07745075 0.3205967 0.2690239
v 0.01375103 -0.3830338 0.3736801
v 0.01820278 -0.3331795 0.3736801
v -0.06842136 -0.3296814 0.3723297
v -0.06842136 -0.3296814 0.3723297
v -0.07691288 -0.3296814 0.2661209
v -0.07691288 -0.3847847 0.2685242
v -0.07688999 0.2945747 -0.3951893
v -0.07722187 0.2808189 0.1815224
v -0.02912235 0.2945747 -0.3951893
v -0.02879047 0.2808189 0.1815224
v -0.07688999 0.4381332 -0.3961067
v -0.02912235 0.4381332 -0.3961067
v -0.07722187 0.4380836 0.1830044
v -0.02879047 0.4380836 0.1830044
v -0.07688999 0.4381332 -0.3961067
v -0.07722187 0.4380836 0.1830044
v -0.07688999 0.2945747 -0.3951893
v -0.07722187 0.2808189 0.1815224
v -0.0778017 -0.4420433 0.1678009
v -0.07180119 0.002541736 0.324337
v -0.0778017 -0.4439011 0.3251381
v -0.07180119 0.005705178 0.1839485
v -0.07746601 0.4045715 0.281498
v -0.07813358 0.4538345 0.1832104
v -0.07813358 0.4489479 0.2521133
v -0.07813358 0.4446602 0.3403397
v -0.07813358 0.4414139 0.2850685
v -0.07813358 0.4446602 0.3403397
v -0.07813358 0.4414139 0.2850685
v -0.02969837 0.4446602 0.3403397
v -0.02969837 0.4414444 0.2837982
v -0.03003025 -0.4420433 0.1678009
v -0.0778017 -0.4420433 0.1678009
v -0.03003025 -0.4439011 0.3251381
v -0.0778017 -0.4439011 0.3251381
v -0.03003025 -0.4439011 0.3251381
v -0.0778017 -0.4439011 0.3251381
v -0.03602695 0.002541736 0.324337
v -0.07180119 0.002541736 0.324337
v -0.02969837 0.4446602 0.3403397
v -0.07813358 0.4446602 0.3403397
v -0.03003025 -0.4420433 0.1678009
v -0.07180119 0.005705178 0.1839485
v -0.0778017 -0.4420433 0.1678009
v -0.03602695 0.005705178 0.1839485
v -0.02969837 0.4538345 0.1832104
v -0.07813358 0.4538345 0.1832104
v -0.07813358 0.4414139 0.2850685
v -0.07746601 0.4045715 0.281498
v -0.02969837 0.4414444 0.2837982
v -0.03036594 0.4043388 0.2808266
v -0.07746601 0.4045715 0.281498
v -0.07813358 0.4489479 0.2521133
v -0.03036594 0.4043388 0.2808266
v -0.02969837 0.4488983 0.2543983
v -0.07813358 0.4489479 0.2521133
v -0.07813358 0.4538345 0.1832104
v -0.02969837 0.4488983 0.2543983
v -0.02969837 0.4538345 0.1832104
v -0.06390095 0.3253288 0.3811111
v 0.01275921 0.3223495 0.3956566
v 0.01321316 0.3223495 0.3802757
v -0.08029652 0.3253288 0.3961067
v -0.07745075 0.3205967 0.2690239
v -0.09325504 0.3205967 0.2685051
v -0.07745075 0.3757019 0.2666206
v -0.06390095 0.3757019 0.3811111
v -0.09325504 0.3757019 0.2661018
v -0.08029652 0.3757019 0.3961067
v 0.01721096 0.3722038 0.3956566
v 0.01766491 0.3722038 0.3802757
v 0.01275921 0.3223495 0.3956566
v 0.01721096 0.3722038 0.3956566
v 0.01321316 0.3223495 0.3802757
v 0.01766491 0.3722038 0.3802757
v -0.07745075 0.3205967 0.2690239
v -0.07745075 0.3757019 0.2666206
v -0.09325504 0.3205967 0.2685051
v -0.09325504 0.3757019 0.2661018
v -0.09325504 0.3205967 0.2685051
v -0.09325504 0.3757019 0.2661018
v -0.08029652 0.3253288 0.3961067
v -0.08029652 0.3757019 0.3961067
v -0.08029652 0.3253288 0.3961067
v -0.08029652 0.3757019 0.3961067
v 0.01275921 0.3223495 0.3956566
v 0.01721096 0.3722038 0.3956566
v -0.06406116 -0.4538345 0.3285637
v -0.06406116 -0.4538345 0.3769951
v 0.09320545 -0.4510078 0.3285637
v 0.09320545 -0.4510078 0.3769951
v -0.006173134 0.4334526 0.3813744
v 0.09325504 0.4453545 0.3818283
v 0.08478451 -0.005835474 0.368927
v -0.05563831 -0.005835474 0.368927
v -0.06411076 0.4453545 0.3818283
v -0.06406116 -0.4538345 0.3769951
v 0.09320545 -0.4510078 0.3769951
v -0.06411076 0.4453545 0.3818283
v -0.06411076 0.4453545 0.3340569
v -0.006173134 0.4334526 0.3813744
v -0.01105595 0.4349785 0.3344879
v 0.09325504 0.4453545 0.3340569
v 0.09325504 0.4453545 0.3818283
v 0.09325504 0.4453545 0.3818283
v 0.09325504 0.4453545 0.3340569
v 0.08478451 -0.005835474 0.368927
v 0.08478451 -0.005835474 0.333149
v 0.09320545 -0.4510078 0.3769951
v 0.09320545 -0.4510078 0.3285637
v -0.05563831 -0.005835474 0.368927
v -0.06411076 0.4453545 0.3340569
v -0.06411076 0.4453545 0.3818283
v -0.05563831 -0.005835474 0.333149
v -0.06406116 -0.4538345 0.3285637
v -0.06406116 -0.4538345 0.3769951
v -0.06842136 -0.3800545 0.3723297
v 0.01329708 -0.3830338 0.389061
v 0.01375103 -0.3830338 0.3736801
v -0.08481693 -0.3800545 0.3873253
v -0.07691288 -0.3847847 0.2685242
v -0.09271717 -0.3847847 0.2680054
v -0.07691288 -0.3296814 0.2661209
v -0.06842136 -0.3296814 0.3723297
v -0.09271717 -0.3296814 0.2656021
v -0.08481693 -0.3296814 0.3873253
v 0.01774883 -0.3331795 0.389061
v 0.01820278 -0.3331795 0.3736801
v 0.01329708 -0.3830338 0.389061
v 0.01774883 -0.3331795 0.389061
v 0.01375103 -0.3830338 0.3736801
v 0.01820278 -0.3331795 0.3736801
v -0.07691288 -0.3847847 0.2685242
v -0.07691288 -0.3296814 0.2661209
v -0.09271717 -0.3847847 0.2680054
v -0.09271717 -0.3296814 0.2656021
v -0.09271717 -0.3847847 0.2680054
v -0.09271717 -0.3296814 0.2656021
v -0.08481693 -0.3800545 0.3873253
v -0.08481693 -0.3296814 0.3873253
v -0.08481693 -0.3800545 0.3873253
v -0.08481693 -0.3296814 0.3873253
v 0.01329708 -0.3830338 0.389061
v 0.01774883 -0.3331795 0.389061
v -0.07688999 0.4381332 -0.3961067
v -0.07688999 0.2945747 -0.3951893
v -0.02912235 0.2945747 -0.3951893
v -0.02912235 0.4381332 -0.3961067
v -0.03036594 0.4043388 0.2808266
v -0.02969837 0.4488983 0.2543983
v -0.02969837 0.4538345 0.1832104
v -0.03602695 0.005705178 0.1839485
v -0.02969837 0.4446602 0.3403397
v -0.02969837 0.4414444 0.2837982
v -0.03602695 0.002541736 0.324337
v -0.03003025 -0.4420433 0.1678009
v -0.03003025 -0.4439011 0.3251381
v -0.01105595 0.4349785 0.3344879
v 0.08478451 -0.005835474 0.333149
v 0.09325504 0.4453545 0.3340569
v -0.06406116 -0.4538345 0.3285637
v 0.09320545 -0.4510078 0.3285637
v -0.05563831 -0.005835474 0.333149
v -0.06411076 0.4453545 0.3340569
vt 0.3327331 0.9999999
vt 0.3586518 0.9818144
vt 0.2986707 0.9818144
vt 0.2986707 0.9818144
vt 0.2986707 0.5395833
vt 0.3327331 0.9999999
vt 0.7044378 0.4343863
vt 0.7090666 0.4973039
vt 0.7470151 0.4870317
vt 0.7044378 0.4343863
vt 0.6992641 0.3833976
vt 0.7387699 0.3729715
vt 0.7470151 0.4870317
vt 0.7090666 0.4973039
vt 0.7044378 0.4343863
vt 0.7044378 0.4343863
vt 0.6992641 0.3833976
vt 0.7387699 0.3729715
vt 0.3586518 0.5395833
vt 0.3586518 0.9818144
vt 0.3707521 0.5395833
vt 0.3707521 0.9818144
vt 0.3108854 0.5395833
vt 0.2986707 0.5395833
vt 0.3108854 0.9818144
vt 0.2986707 0.9818144
vt 0.3108854 0.5395833
vt 0.3108854 0.9818144
vt 0.3586518 0.5395833
vt 0.3586518 0.9818144
vt 0.4343016 0.5395833
vt 0.4820678 0.7606988
vt 0.4820678 0.5395833
vt 0.4343016 0.7606988
vt 0.4637084 0.9651699
vt 0.4343016 0.9818144
vt 0.4513962 0.9820132
vt 0.4820678 0.9818144
vt 0.4699616 0.9812717
vt 0.4820678 0.9818144
vt 0.4699616 0.9812717
vt 0.4820678 0.9960918
vt 0.4649138 0.9960919
vt 0.4343016 0.5253059
vt 0.4343016 0.5395833
vt 0.4820678 0.5253059
vt 0.4820678 0.5395833
vt 0.494168 0.5395833
vt 0.4820678 0.5395833
vt 0.494168 0.7606988
vt 0.4820678 0.7606988
vt 0.494168 0.9818144
vt 0.4820678 0.9818144
vt 0.4220869 0.5395833
vt 0.4343016 0.7606988
vt 0.4343016 0.5395833
vt 0.4220869 0.7606988
vt 0.4220869 0.9818144
vt 0.4343016 0.9818144
vt 0.4699616 0.9812717
vt 0.4637084 0.9651699
vt 0.4649138 0.9960919
vt 0.4604299 0.9960919
vt 0.4637084 0.9651699
vt 0.4513962 0.9820132
vt 0.4604299 0.9960919
vt 0.4559459 0.9960919
vt 0.4513962 0.9820132
vt 0.4343016 0.9818144
vt 0.4559459 0.9960919
vt 0.4343016 0.9960919
vt 0.7432244 0.4343589
vt 0.7377748 0.4883479
vt 0.7470151 0.4870317
vt 0.7348498 0.4342745
vt 0.7480851 0.383368
vt 0.7388487 0.3814442
vt 0.6992641 0.3833976
vt 0.7044378 0.4343863
vt 0.7082779 0.3814622
vt 0.7126257 0.4342911
vt 0.7090922 0.4883659
vt 0.7003074 0.4870622
vt 0.7377748 0.4883479
vt 0.7090922 0.4883659
vt 0.737798 0.4972863
vt 0.7090666 0.4973039
vt 0.7387699 0.3729715
vt 0.7083513 0.372989
vt 0.7388487 0.3814442
vt 0.7082779 0.3814622
vt 0.7388487 0.3814442
vt 0.7082779 0.3814622
vt 0.7348498 0.4342745
vt 0.7126257 0.4342911
vt 0.7348498 0.4342745
vt 0.7126257 0.4342911
vt 0.7377748 0.4883479
vt 0.7090922 0.4883659
vt 0.1871044 0.9818144
vt 0.1871044 0.9960919
vt 0.2348709 0.9818144
vt 0.2348709 0.9960918
vt 0.1579029 0.5556495
vt 0.127244 0.5395833
vt 0.127244 0.7606988
vt 0.1748898 0.7606988
vt 0.1748898 0.5395833
vt 0.1748898 0.9818144
vt 0.127244 0.9818144
vt 0.1871044 0.5253059
vt 0.1871044 0.5395833
vt 0.2071321 0.5253059
vt 0.2035441 0.5523375
vt 0.2348709 0.5395833
vt 0.2348709 0.5253059
vt 0.2469711 0.5395833
vt 0.2348709 0.5395833
vt 0.2469711 0.7606988
vt 0.2348709 0.7606988
vt 0.2469711 0.9818144
vt 0.2348709 0.9818144
vt 0.1748898 0.7606988
vt 0.1871044 0.5395833
vt 0.1748898 0.5395833
vt 0.1871044 0.7606988
vt 0.1871044 0.9818144
vt 0.1748898 0.9818144
vt 0.7432244 0.4343589
vt 0.7377748 0.4883479
vt 0.7470151 0.4870317
vt 0.7348498 0.4342745
vt 0.7480851 0.383368
vt 0.7388487 0.3814442
vt 0.6992641 0.3833976
vt 0.7044378 0.4343863
vt 0.7082779 0.3814622
vt 0.7126257 0.4342911
vt 0.7090922 0.4883659
vt 0.7003074 0.4870622
vt 0.7377748 0.4883479
vt 0.7090922 0.4883659
vt 0.737798 0.4972863
vt 0.7090666 0.4973039
vt 0.7387699 0.3729715
vt 0.7083513 0.372989
vt 0.7388487 0.3814442
vt 0.7082779 0.3814622
vt 0.7388487 0.3814442
vt 0.7082779 0.3814622
vt 0.7348498 0.4342745
vt 0.7126257 0.4342911
vt 0.7348498 0.4342745
vt 0.7126257 0.4342911
vt 0.7377748 0.4883479
vt 0.7090922 0.4883659
vt 0 0
vt 0 0.9999999
vt 0.3327331 0.9999999
vt 0.3327331 0
vt 0.4604299 0.9960919
vt 0.4559459 0.9960919
vt 0.4343016 0.9960919
vt 0.4220869 0.7606988
vt 0.494168 0.9818144
vt 0.4649138 0.9960919
vt 0.494168 0.7606988
vt 0.4220869 0.5395833
vt 0.4820678 0.5253059
vt 0.2035441 0.5523375
vt 0.2348709 0.7606988
vt 0.2348709 0.5395833
vt 0.1871044 0.9818144
vt 0.2348709 0.9818144
vt 0.1871044 0.7606988
vt 0.1871044 0.5395833
vn 0.9962325 -0.0008214636 0.0867183
vn 0.9962325 -0.0008214635 0.08671831
vn 0.9962325 -0.0008214636 0.08671831
vn 0.9962325 -0.0008214636 0.08671831
vn 0.9962325 -0.0008214636 0.08671831
vn 0.9962325 -0.0008214636 0.0867183
vn 0.7841276 -0.00190541 -0.6205967
vn 0.7841277 -0.00190541 -0.6205966
vn 0.7841277 -0.00190541 -0.6205967
vn 0.7841276 -0.00190541 -0.6205967
vn 0.7841277 -0.00190541 -0.6205967
vn 0.7841276 -0.00190541 -0.6205967
vn 0.7674876 -0.001807703 -0.6410611
vn 0.7674878 -0.001807703 -0.6410611
vn 0.7674876 -0.001807703 -0.6410611
vn 0.7674876 -0.001807703 -0.6410611
vn 0.7674876 -0.001807703 -0.6410612
vn 0.7674876 -0.001807703 -0.6410611
vn 0 -0.9997156 -0.02384389
vn 0 -0.9997156 -0.02384402
vn 0 -0.9997156 -0.02384389
vn 0 -0.9997156 -0.02384403
vn 0 1 8.372825E-05
vn 0 1 8.373679E-05
vn 0 1 8.387885E-05
vn 0 1 8.388707E-05
vn -0.9999999 0 -0.0005728867
vn -0.9999999 0 -0.0005748129
vn -0.9999999 0 -0.0005732906
vn -0.9999999 0 -0.000575139
vn -0.9999099 0.01342388 0.0001841405
vn -0.9999995 0.0009552722 -2.110693E-05
vn -0.9999098 0.01343287 0.0001585731
vn -0.9999999 0.0005761434 1.309392E-05
vn -0.9998984 -0.0142309 -0.0007384745
vn -0.9998997 -0.01416026 -0.000334684
vn -0.9998759 -0.0157128 -0.001114427
vn -0.9998949 -0.0144282 -0.001466222
vn -0.9998349 -0.0181378 0.00106255
vn 0 0.9982798 -0.05862883
vn -0.00115889 0.9983381 -0.05761708
vn -0.000966184 0.9983285 -0.05778533
vn -0.002086098 0.998383 -0.05680751
vn 0 -0.9999304 -0.01180403
vn 0 -0.9999304 -0.01180403
vn 0 -0.9999304 -0.01180402
vn 0 -0.9999304 -0.01180402
vn 0 0.00178702 0.9999985
vn 0 0.001787021 0.9999985
vn 0 -0.0169021 0.9998572
vn 0 -0.01734263 0.9998496
vn 0 -0.0361709 0.9993456
vn 0 -0.03617091 0.9993456
vn 0 0.03604049 -0.9993504
vn 0 0.01717925 -0.9998524
vn 0 0.03604049 -0.9993504
vn 0 0.01719362 -0.9998522
vn 0 -0.001646822 -0.9999987
vn 0 -0.001646822 -0.9999987
vn -0.0261267 0.09592071 -0.995046
vn -0.02109625 0.08944593 -0.9957682
vn -0.01914824 0.0869375 -0.9960297
vn -0.01388395 0.08015552 -0.9966857
vn 0.01466754 0.552206 0.8335788
vn -0.01432024 0.5302646 0.8477113
vn -0.01105645 0.5327762 0.846184
vn -0.03997812 0.5101562 0.8591522
vn -0.002273934 0.9974927 0.0707345
vn -0.0008459201 0.997563 0.06976757
vn -0.001366337 0.9975376 0.07011995
vn 0 0.9976032 0.06919468
vn 0.006113969 -0.9999499 0.007923945
vn -0.03772036 -0.9992715 -0.00581288
vn -0.03860666 -0.9992538 -0.001136805
vn 0.008268152 -0.99989 0.01231482
vn 0.001798436 -0.9993044 0.03724872
vn -0.001218909 -0.9993079 0.03718127
vn 0 1 0
vn 0.01490135 0.9997761 0.01502753
vn 0 1 0
vn 0.01195785 0.999843 0.01307199
vn 0.04198972 0.9990989 0.006192355
vn 0.04287228 0.9990798 0.001265886
vn 0.9956039 -0.08893345 0.02938721
vn 0.9956039 -0.08893433 0.0293874
vn 0.9956039 -0.08893366 0.02938726
vn 0.9956039 -0.08893454 0.02938745
vn 0.03273286 -0.04353558 -0.9985155
vn 0.03273285 -0.04353521 -0.9985155
vn 0.03273285 -0.04353549 -0.9985155
vn 0.03273285 -0.04353513 -0.9985155
vn -0.9948881 0.004398454 0.1008879
vn -0.9949308 0.003396288 0.1005038
vn -0.9950218 0.001169255 0.09964988
vn -0.9950674 0 0.09920131
vn 0.004851449 0 0.9999883
vn 0.004774987 -0.0001335041 0.9999887
vn 0.004684551 -0.0002914102 0.999989
vn 0.00461575 -0.000411538 0.9999893
vn 0.01798117 -0.9998384 0
vn 0.01798117 -0.9998384 0
vn 0.01798118 -0.9998384 0
vn 0.01798118 -0.9998384 0
vn 6.707586E-05 -0.02851956 0.9995932
vn -0.001123033 -0.02855972 0.9995915
vn -9.633926E-05 -0.004202033 0.9999912
vn 3.396335E-05 -0.004374582 0.9999905
vn 0.001926829 -0.02854432 0.9995907
vn -0.0002668084 0.01809829 0.9998362
vn -0.0003255403 0.01811777 0.9998358
vn 0.2012581 0.9795383 0
vn 0.1974935 0.9802925 0.004799441
vn -0.006660041 0.9997008 0.0235375
vn 0.00901795 0.9994592 0.0316231
vn -0.1131578 0.9935026 0.01216843
vn -0.1188778 0.9929088 0
vn 0.9998239 -0.01876717 0
vn 0.9998239 -0.01876717 0
vn 1 -0.0003227619 0
vn 1 0.0002450554 0
vn 0.9998212 0.01891104 0
vn 0.9998212 0.01891104 0
vn -1 -9.948655E-05 0
vn -0.9998239 -0.01876933 0
vn -0.9998239 -0.01876932 0
vn -1 1.876207E-05 0
vn -0.9998234 0.01879427 0
vn -0.9998234 0.01879428 0
vn 0.006768503 -0.9999403 0.008587195
vn -0.03533877 -0.9993612 -0.005323924
vn -0.03620907 -0.9993437 -0.001070869
vn 0.007180913 -0.9999077 0.01153485
vn 0.002126871 -0.9991997 0.03994243
vn -0.00130189 -0.9992102 0.03971475
vn 0 1 0
vn 0.01501096 0.9997718 0.01520529
vn 0 1 0
vn 0.01292043 0.9998167 0.01412675
vn 0.03947049 0.9992046 0.005695617
vn 0.04034481 0.9991851 0.001188466
vn 0.9956043 -0.08893109 0.02938441
vn 0.9956043 -0.08893082 0.02938412
vn 0.9956043 -0.08893102 0.02938434
vn 0.9956043 -0.08893075 0.02938404
vn 0.03273276 -0.04353655 -0.9985154
vn 0.03273281 -0.04353572 -0.9985155
vn 0.03273277 -0.04353637 -0.9985154
vn 0.03273283 -0.04353554 -0.9985155
vn -0.997817 0.002877455 0.06597625
vn -0.9978378 0.002178221 0.06568833
vn -0.9978768 0.0008115877 0.06512551
vn -0.9978988 0 0.0647912
vn -0.01770701 0 0.9998432
vn -0.01745291 0.0004672167 0.9998475
vn -0.01711592 0.001086829 0.9998529
vn -0.01688664 0.001508384 0.9998562
vn 0 -0.006390536 -0.9999796
vn 0 -0.006390536 -0.9999796
vn 0 -0.006390536 -0.9999796
vn 0 -0.006390536 -0.9999796
vn 1 -0.0002950544 -0.0001629026
vn 1 -0.0002950544 -0.0001629026
vn 1 -0.0002950543 -0.0001629025
vn 1 -0.0002950543 -0.0001629026
vn 1 -0.0002950544 -0.0001629025
vn 1 -0.0002950544 -0.0001629026
vn 1 -0.0002950544 -0.0001629025
vn 1 -0.0002950544 -0.0001629025
vn 1 -0.0002950544 -0.0001629026
vn -4.890854E-05 0.006410752 -0.9999795
vn -4.890854E-05 0.006410752 -0.9999795
vn -4.890854E-05 0.006410752 -0.9999795
vn -4.890854E-05 0.006410751 -0.9999795
vn -4.890854E-05 0.006410752 -0.9999795
vn -4.890854E-05 0.006410752 -0.9999795
vn -4.890854E-05 0.006410752 -0.9999795
g cratepart0_0
f 3/3/3 2/2/2 1/1/1
f 6/6/6 5/5/5 4/4/4
f 9/9/9 8/8/8 7/7/7
f 12/12/12 11/11/11 10/10/10
f 15/15/15 14/14/14 13/13/13
f 18/18/18 17/17/17 16/16/16
f 21/21/21 20/20/20 19/19/19
f 22/22/22 20/20/20 21/21/21
f 25/25/25 24/24/24 23/23/23
f 26/26/26 24/24/24 25/25/25
f 29/29/29 28/28/28 27/27/27
f 30/30/30 28/28/28 29/29/29
f 33/33/33 32/32/32 31/31/31
f 31/31/31 32/32/32 34/34/34
f 34/34/34 32/32/32 35/35/35
f 36/36/36 34/34/34 35/35/35
f 37/37/37 36/36/36 35/35/35
f 38/38/38 35/35/35 32/32/32
f 39/39/39 35/35/35 38/38/38
f 42/42/42 41/41/41 40/40/40
f 43/43/43 41/41/41 42/42/42
f 46/46/46 45/45/45 44/44/44
f 47/47/47 45/45/45 46/46/46
f 50/50/50 49/49/49 48/48/48
f 51/51/51 49/49/49 50/50/50
f 52/52/52 51/51/51 50/50/50
f 53/53/53 51/51/51 52/52/52
f 56/56/56 55/55/55 54/54/54
f 54/54/54 55/55/55 57/57/57
f 55/55/55 58/58/58 57/57/57
f 59/59/59 58/58/58 55/55/55
f 62/62/62 61/61/61 60/60/60
f 63/63/63 61/61/61 62/62/62
f 66/66/66 65/65/65 64/64/64
f 67/67/67 65/65/65 66/66/66
f 70/70/70 69/69/69 68/68/68
f 71/71/71 69/69/69 70/70/70
f 74/74/74 73/73/73 72/72/72
f 72/72/72 73/73/73 75/75/75
f 72/72/72 75/75/75 76/76/76
f 76/76/76 75/75/75 77/77/77
f 80/80/80 79/79/79 78/78/78
f 81/81/81 79/79/79 80/80/80
f 81/81/81 82/82/82 79/79/79
f 79/79/79 82/82/82 83/83/83
f 86/86/86 85/85/85 84/84/84
f 87/87/87 85/85/85 86/86/86
f 90/90/90 89/89/89 88/88/88
f 91/91/91 89/89/89 90/90/90
f 94/94/94 93/93/93 92/92/92
f 95/95/95 93/93/93 94/94/94
f 98/98/98 97/97/97 96/96/96
f 99/99/99 97/97/97 98/98/98
f 102/102/102 101/101/101 100/100/100
f 103/103/103 101/101/101 102/102/102
f 106/106/106 105/105/105 104/104/104
f 107/107/107 106/106/106 104/104/104
f 104/104/104 108/108/108 107/107/107
f 109/109/109 106/106/106 107/107/107
f 110/110/110 106/106/106 109/109/109
f 113/113/113 112/112/112 111/111/111
f 114/114/114 112/112/112 113/113/113
f 114/114/114 113/113/113 115/115/115
f 115/115/115 113/113/113 116/116/116
f 119/119/119 118/118/118 117/117/117
f 120/120/120 118/118/118 119/119/119
f 119/119/119 121/121/121 120/120/120
f 120/120/120 121/121/121 122/122/122
f 125/125/125 124/124/124 123/123/123
f 123/123/123 124/124/124 126/126/126
f 126/126/126 127/127/127 123/123/123
f 123/123/123 127/127/127 128/128/128
f 131/131/131 130/130/130 129/129/129
f 129/129/129 130/130/130 132/132/132
f 129/129/129 132/132/132 133/133/133
f 133/133/133 132/132/132 134/134/134
f 137/137/137 136/136/136 135/135/135
f 138/138/138 136/136/136 137/137/137
f 138/138/138 139/139/139 136/136/136
f 136/136/136 139/139/139 140/140/140
f 143/143/143 142/142/142 141/141/141
f 144/144/144 142/142/142 143/143/143
f 147/147/147 146/146/146 145/145/145
f 148/148/148 146/146/146 147/147/147
f 151/151/151 150/150/150 149/149/149
f 152/152/152 150/150/150 151/151/151
f 155/155/155 154/154/154 153/153/153
f 156/156/156 154/154/154 155/155/155
f 159/159/159 158/158/158 157/157/157
f 160/160/160 159/159/159 157/157/157
f 163/163/163 162/162/162 161/161/161
f 161/161/161 164/164/164 163/163/163
f 164/164/164 161/161/161 165/165/165
f 161/161/161 166/166/166 165/165/165
f 164/164/164 165/165/165 167/167/167
f 168/168/168 164/164/164 167/167/167
f 167/167/167 169/169/169 168/168/168
f 172/172/172 171/171/171 170/170/170
f 173/173/173 170/170/170 171/171/171
f 171/171/171 174/174/174 173/173/173
f 173/173/173 175/175/175 170/170/170
f 170/170/170 175/175/175 176/176/176
