g cratepart3
v 0.02681351 0.1915322 0.1740873
v 0.01573181 0.1830617 -0.1149011
v 0.01573181 0.3404256 -0.1183839
v 0.06350327 0.1830617 -0.1149011
v 0.01573181 0.1830617 -0.1149011
v 0.06259155 0.1915322 0.1740873
v 0.02681351 0.1915322 0.1740873
v 0.06892014 0.1831113 0.4510626
v 0.02048492 0.1831113 0.4510626
v 0.06259155 0.3319569 0.1740873
v 0.01573181 0.3404256 -0.1183839
v 0.06350327 0.3404256 -0.1183839
v 0.02681351 0.3319569 0.1740873
v 0.02048492 0.340376 0.4502901
v 0.06892014 0.340376 0.4502901
v 0.06892014 0.340376 0.4502901
v 0.06259155 0.1915322 0.1740873
v 0.06892014 0.1831113 0.4510626
v 0.06259155 0.3319569 0.1740873
v 0.06350327 0.3404256 -0.1183839
v 0.06350327 0.1830617 -0.1149011
v 0.06823349 -0.5580005 -0.0949903
v 0.06223679 -0.1034179 -0.2542959
v 0.06823349 -0.5565662 -0.2524267
v 0.06223679 -0.1002143 -0.1139074
v 0.06856537 0.335413 -0.2175107
v 0.06856537 0.3478604 -0.1157098
v 0.06856537 0.3386403 -0.2728048
v 0.06856537 0.3386403 -0.2728048
v 0.06856537 0.335413 -0.2175107
v 0.02013016 0.3386403 -0.2728048
v 0.02013016 0.3354436 -0.2162405
v 0.06856537 0.3478604 -0.1157098
v 0.02013016 0.3478604 -0.1157098
v 0.02046204 -0.5580005 -0.0949903
v 0.06823349 -0.5580005 -0.0949903
v 0.02046204 -0.5565662 -0.2524267
v 0.06823349 -0.5565662 -0.2524267
v 0.02046204 -0.5565662 -0.2524267
v 0.06823349 -0.5565662 -0.2524267
v 0.02645874 -0.1034179 -0.2542959
v 0.06223679 -0.1034179 -0.2542959
v 0.02013016 0.3386403 -0.2728048
v 0.06856537 0.3386403 -0.2728048
v 0.02046204 -0.5580005 -0.0949903
v 0.06223679 -0.1002143 -0.1139074
v 0.06823349 -0.5580005 -0.0949903
v 0.02645874 -0.1002143 -0.1139074
v 0.02013016 0.3478604 -0.1157098
v 0.06856537 0.3478604 -0.1157098
v 0.05925369 -0.2739734 -0.3019453
v 0.08004379 -0.2709941 -0.2248502
v 0.06466293 -0.2709941 -0.2243963
v 0.07424927 -0.2739734 -0.3183408
v -0.04851532 -0.2692413 -0.302918
v -0.04903412 -0.2692413 -0.3187223
v -0.05091858 -0.3243484 -0.302918
v 0.05925369 -0.3243484 -0.3019453
v -0.05143738 -0.3243484 -0.3187223
v 0.07424927 -0.3243484 -0.3183408
v 0.08004379 -0.3208484 -0.2203985
v 0.06466293 -0.3208484 -0.2199445
v 0.08004379 -0.2709941 -0.2248502
v 0.08004379 -0.3208484 -0.2203985
v 0.06466293 -0.2709941 -0.2243963
v 0.06466293 -0.3208484 -0.2199445
v -0.04851532 -0.2692413 -0.302918
v -0.05091858 -0.3243484 -0.302918
v -0.04903412 -0.2692413 -0.3187223
v -0.05143738 -0.3243484 -0.3187223
v -0.04903412 -0.2692413 -0.3187223
v -0.05143738 -0.3243484 -0.3187223
v 0.07424927 -0.2739734 -0.3183408
v 0.07424927 -0.3243484 -0.3183408
v 0.07424927 -0.2739734 -0.3183408
v 0.07424927 -0.3243484 -0.3183408
v 0.08004379 -0.2709941 -0.2248502
v 0.08004379 -0.3208484 -0.2203985
v 0.06453323 -0.5597171 -0.2573972
v 0.06453323 -0.5597171 -0.3058286
v -0.04753113 -0.5512218 -0.2580343
v -0.04111862 -0.5498027 -0.3051725
v -0.09273148 -0.5546321 -0.3058286
v -0.09273148 -0.5546321 -0.2573972
v -0.02151489 0.3352299 -0.3160482
v -0.09278107 0.3434697 -0.3160482
v 0.006645203 0.3097287 -0.3155981
v -0.08431053 -0.111718 -0.3015562
v 0.0561142 -0.111718 -0.3015562
v 0.06458282 0.3434697 -0.3160482
v 0.009941101 0.3395405 -0.3160482
v -0.04111862 -0.5498027 -0.3051725
v 0.06453323 -0.5597171 -0.3058286
v -0.09273148 -0.5546321 -0.3058286
v 0.009941101 0.3395405 -0.3160482
v 0.06458282 0.3434697 -0.3160482
v 0.01486969 0.3395405 -0.2682768
v 0.06458282 0.3434697 -0.2682768
v -0.09278107 0.3434697 -0.3160482
v -0.09278107 0.3434697 -0.2682768
v -0.08431053 -0.111718 -0.3015562
v -0.08431053 -0.111718 -0.2657781
v -0.09273148 -0.5546321 -0.3058286
v -0.09273148 -0.5546321 -0.2573972
v 0.0561142 -0.111718 -0.3015562
v 0.06458282 0.3434697 -0.2682768
v 0.06458282 0.3434697 -0.3160482
v 0.0561142 -0.111718 -0.2657781
v 0.06453323 -0.5597171 -0.2573972
v 0.06453323 -0.5597171 -0.3058286
v -0.09278107 0.3434697 -0.3160482
v -0.02151489 0.3352299 -0.3160482
v -0.09278107 0.3434697 -0.2682768
v -0.01981735 0.3352299 -0.2682768
v -0.02151489 0.3352299 -0.3160482
v 0.006645203 0.3097287 -0.3155981
v -0.01981735 0.3352299 -0.2682768
v 0.01152802 0.3112584 -0.2687078
v 0.006645203 0.3097287 -0.3155981
v 0.009941101 0.3395405 -0.3160482
v 0.01152802 0.3112584 -0.2687078
v 0.01486969 0.3395405 -0.2682768
v 0.06338882 0.2356892 -0.3140875
v 0.08317566 0.2386685 -0.2248502
v 0.0677948 0.2386685 -0.2243963
v 0.0783844 0.2356892 -0.3304792
v -0.04039764 0.2404195 -0.3150602
v -0.04091263 0.2404195 -0.3308645
v -0.04279709 0.1853123 -0.3150602
v 0.06338882 0.1853123 -0.3140875
v -0.04331589 0.1853123 -0.3308645
v 0.0783844 0.1853123 -0.3304792
v 0.08317566 0.1888123 -0.2203985
v 0.0677948 0.1888123 -0.2199445
v 0.08317566 0.2386685 -0.2248502
v 0.08317566 0.1888123 -0.2203985
v 0.0677948 0.2386685 -0.2243963
v 0.0677948 0.1888123 -0.2199445
v -0.04039764 0.2404195 -0.3150602
v -0.04279709 0.1853123 -0.3150602
v -0.04091263 0.2404195 -0.3308645
v -0.04331589 0.1853123 -0.3308645
v -0.04091263 0.2404195 -0.3308645
v -0.04331589 0.1853123 -0.3308645
v 0.0783844 0.2356892 -0.3304792
v 0.0783844 0.1853123 -0.3304792
v 0.0783844 0.2356892 -0.3304792
v 0.0783844 0.1853123 -0.3304792
v 0.08317566 0.2386685 -0.2248502
v 0.08317566 0.1888123 -0.2203985
v 0.06892014 0.340376 0.4502901
v 0.06892014 0.1831113 0.4510626
v 0.02048492 0.1831113 0.4510626
v 0.02048492 0.340376 0.4502901
v 0.06350327 0.1830617 -0.1149011
v 0.06350327 0.3404256 -0.1183839
v 0.01573181 0.3404256 -0.1183839
v 0.01573181 0.1830617 -0.1149011
v 0.02013016 0.3478604 -0.1157098
v 0.02645874 -0.1002143 -0.1139074
v 0.02013016 0.3354436 -0.2162405
v 0.02013016 0.3386403 -0.2728048
v 0.02645874 -0.1034179 -0.2542959
v 0.02046204 -0.5565662 -0.2524267
v 0.02046204 -0.5580005 -0.0949903
v 0.01486969 0.3395405 -0.2682768
v 0.06458282 0.3434697 -0.2682768
v 0.0561142 -0.111718 -0.2657781
v -0.04753113 -0.5512218 -0.2580343
v 0.06453323 -0.5597171 -0.2573972
v 0.01152802 0.3112584 -0.2687078
v -0.01981735 0.3352299 -0.2682768
v -0.09278107 0.3434697 -0.2682768
v -0.08431053 -0.111718 -0.2657781
v -0.09273148 -0.5546321 -0.2573972
v 0.02048492 0.340376 0.4502901
v 0.02048492 0.1831113 0.4510626
v 0.02681351 0.1915322 0.1740873
v 0.02681351 0.3319569 0.1740873
v 0.01573181 0.3404256 -0.1183839
vt 0.1112192 0.7606988
vt 0.1112192 0.5395833
vt 0.3034988 0
vt 0.1233194 0.5395833
vt 0.1112192 0.5395833
vt 0.1233194 0.7606988
vt 0.1112192 0.7606988
vt 0.1233194 0.9818144
vt 0.1112192 0.9818144
vt 0.05123828 0.7606988
vt 0.06345294 0.5395833
vt 0.05123828 0.5395833
vt 0.06345294 0.7606988
vt 0.06345294 0.9818144
vt 0.05123828 0.9818144
vt 0.05123828 0.9818144
vt 0.003592507 0.7606988
vt 0.003592507 0.9818144
vt 0.05123828 0.7606988
vt 0.05123828 0.5395833
vt 0.003592507 0.5395833
vt 0.4343016 0.5395833
vt 0.4820678 0.7606988
vt 0.4820678 0.5395833
vt 0.4343016 0.7606988
vt 0.466835 0.9732208
vt 0.4343016 0.9818144
vt 0.4820678 0.9818144
vt 0.4820678 0.9818144
vt 0.466835 0.9732208
vt 0.4820678 0.9960918
vt 0.4626717 0.9960919
vt 0.4343016 0.9818144
vt 0.4343016 0.9960919
vt 0.4343016 0.5253059
vt 0.4343016 0.5395833
vt 0.4820678 0.5253059
vt 0.4820678 0.5395833
vt 0.494168 0.5395833
vt 0.4820678 0.5395833
vt 0.494168 0.7606988
vt 0.4820678 0.7606988
vt 0.494168 0.9818144
vt 0.4820678 0.9818144
vt 0.4220869 0.5395833
vt 0.4343016 0.7606988
vt 0.4343016 0.5395833
vt 0.4220869 0.7606988
vt 0.4220869 0.9818144
vt 0.4343016 0.9818144
vt 0.7432244 0.4343589
vt 0.7377748 0.4883479
vt 0.7470151 0.4870317
vt 0.7348498 0.4342745
vt 0.7480851 0.383368
vt 0.7388487 0.3814442
vt 0.6992641 0.3833976
vt 0.7044378 0.4343863
vt 0.7082779 0.3814622
vt 0.7126257 0.4342911
vt 0.7090922 0.4883659
vt 0.7003074 0.4870622
vt 0.7377748 0.4883479
vt 0.7090922 0.4883659
vt 0.737798 0.4972863
vt 0.7090666 0.4973039
vt 0.7387699 0.3729715
vt 0.7083513 0.372989
vt 0.7388487 0.3814442
vt 0.7082779 0.3814622
vt 0.7388487 0.3814442
vt 0.7082779 0.3814622
vt 0.7348498 0.4342745
vt 0.7126257 0.4342911
vt 0.7348498 0.4342745
vt 0.7126257 0.4342911
vt 0.7377748 0.4883479
vt 0.7090922 0.4883659
vt 0.1871044 0.9818144
vt 0.1871044 0.9960919
vt 0.2203135 0.9651228
vt 0.2149284 0.9960919
vt 0.2348709 0.9960918
vt 0.2348709 0.9818144
vt 0.1514798 0.5395833
vt 0.127244 0.5395833
vt 0.1579029 0.5556495
vt 0.127244 0.7606988
vt 0.1748898 0.7606988
vt 0.1748898 0.5395833
vt 0.1583459 0.5395833
vt 0.142876 0.9611582
vt 0.1748898 0.9818144
vt 0.127244 0.9818144
vt 0.2036903 0.5253059
vt 0.1871044 0.5253059
vt 0.1983819 0.540378
vt 0.1871044 0.5395833
vt 0.2469711 0.5395833
vt 0.2348709 0.5395833
vt 0.2469711 0.7606988
vt 0.2348709 0.7606988
vt 0.2469711 0.9818144
vt 0.2348709 0.9818144
vt 0.1748898 0.7606988
vt 0.1871044 0.5395833
vt 0.1748898 0.5395833
vt 0.1871044 0.7606988
vt 0.1871044 0.9818144
vt 0.1748898 0.9818144
vt 0.2348709 0.5253059
vt 0.2105737 0.5253059
vt 0.2348709 0.5395833
vt 0.2141087 0.5421032
vt 0.2105737 0.5253059
vt 0.2071321 0.5253059
vt 0.2141087 0.5421032
vt 0.2035441 0.5523375
vt 0.2071321 0.5253059
vt 0.2036903 0.5253059
vt 0.2035441 0.5523375
vt 0.1983819 0.540378
vt 0.7432244 0.4343589
vt 0.7377748 0.4883479
vt 0.7470151 0.4870317
vt 0.7348498 0.4342745
vt 0.7480851 0.383368
vt 0.7388487 0.3814442
vt 0.6992641 0.3833976
vt 0.7044378 0.4343863
vt 0.7082779 0.3814622
vt 0.7126257 0.4342911
vt 0.7090922 0.4883659
vt 0.7003074 0.4870622
vt 0.7377748 0.4883479
vt 0.7090922 0.4883659
vt 0.737798 0.4972863
vt 0.7090666 0.4973039
vt 0.7387699 0.3729715
vt 0.7083513 0.372989
vt 0.7388487 0.3814442
vt 0.7082779 0.3814622
vt 0.7388487 0.3814442
vt 0.7082779 0.3814622
vt 0.7348498 0.4342745
vt 0.7126257 0.4342911
vt 0.7348498 0.4342745
vt 0.7126257 0.4342911
vt 0.7377748 0.4883479
vt 0.7090922 0.4883659
vt 0 1
vt 0 0
vt 0.3079816 0
vt 0.3079816 1
vt 0 1
vt 0 0
vt 0.3034988 0
vt 0.3034988 1
vt 0.4343016 0.9960919
vt 0.4220869 0.7606988
vt 0.4626717 0.9960919
vt 0.494168 0.9818144
vt 0.494168 0.7606988
vt 0.4820678 0.5253059
vt 0.4220869 0.5395833
vt 0.1983819 0.540378
vt 0.1871044 0.5395833
vt 0.1871044 0.7606988
vt 0.2203135 0.9651228
vt 0.1871044 0.9818144
vt 0.2035441 0.5523375
vt 0.2141087 0.5421032
vt 0.2348709 0.5395833
vt 0.2348709 0.7606988
vt 0.2348709 0.9818144
vt 0.06345294 0.9818144
vt 0.3079816 0
vt 0.1112192 0.7606988
vt 0.06345294 0.7606988
vt 0.3034988 0
vn -0.9999648 0.0001994392 0.008382984
vn -0.9999648 0.0001994392 0.008382985
vn -0.9999648 0.0001994392 0.008382985
vn 0 -0.9995708 0.029295
vn 0 -0.9995708 0.02929501
vn 0 -1 0.0004121475
vn 0 -1 -0.0003344381
vn 0 -0.9995382 -0.03038946
vn 0 -0.9995382 -0.03038947
vn 0 1 -0.000158976
vn 0 0.9995809 0.02894639
vn 0 0.9995809 0.02894639
vn 0 1 0.000224905
vn 0 0.9995356 -0.03047269
vn 0 0.9995356 -0.0304727
vn 0.9997385 -8.070812E-05 -0.02286492
vn 0.9999543 0 -0.009554214
vn 0.9997389 -0.0001115239 -0.02284836
vn 0.9999546 0 -0.009531515
vn 0.9999951 4.973134E-05 0.003143436
vn 0.9999951 6.813597E-05 0.003152832
vn 0.9999127 0.01320781 4.569343E-05
vn 1 0.0001377047 2.96106E-05
vn 0.9999124 0.01323411 0.0001206762
vn 1 -9.328961E-05 7.699789E-05
vn 0.9998983 -0.0142409 0.0007254461
vn 0.9998989 -0.01411729 0.001725931
vn 0.9998966 -0.0143515 -0.0008374273
vn 0 0.9982991 0.05830104
vn -0.001239335 0.99837 -0.05705933
vn 0.0009618435 0.9983473 0.05746144
vn -0.000493772 0.9982144 -0.05973164
vn -0.0007406487 0.9924983 -0.1222556
vn 0 0.9924552 -0.1226069
vn 0 -0.9999584 -0.009118226
vn 0 -0.9999584 -0.009118223
vn 0 -0.9999584 -0.009118214
vn 0 -0.9999584 -0.009118211
vn 0 -0.004124885 -0.9999915
vn 0 -0.004124884 -0.9999915
vn 0 -0.02255825 -0.9997455
vn 0 -0.02299282 -0.9997357
vn 0 -0.04183676 -0.9991245
vn 0 -0.04183676 -0.9991245
vn 0 0.04129017 0.9991472
vn 0 0.02284309 0.999739
vn 0 0.04129017 0.9991472
vn 0 0.02286178 0.9997386
vn 0 0.00402239 0.9999919
vn 0 0.004022391 0.9999919
vn 0.009820309 0.9999211 0.007836924
vn -0.0061265 0.999298 -0.03695921
vn -0.00113064 0.9992655 -0.03830527
vn 0.009266121 0.999944 0.005127615
vn 0.03875404 0.9992471 0.001883359
vn 0.03836004 0.9992632 -0.001258264
vn 0 -1 0
vn 0.01488332 -0.9997801 0.01477017
vn 0 -1 0
vn 0.01544473 -0.999781 0.01412643
vn 0.006514974 -0.9991291 0.04121305
vn 0.001255865 -0.9990934 0.04255221
vn 0.02938172 0.08892974 0.9956045
vn 0.02938494 0.08893016 0.9956044
vn 0.02938247 0.08892982 0.9956044
vn 0.02938569 0.08893027 0.9956043
vn -0.9985155 0.04353524 0.03273309
vn -0.9985154 0.04353524 0.03273517
vn -0.9985155 0.04353524 0.03273354
vn -0.9985154 0.04353524 0.0327356
vn 0.00311852 -0.0001359749 -0.9999951
vn 0.003105658 -0.0001038401 -0.9999952
vn 0.003079057 -3.737625E-05 -0.9999952
vn 0.003064098 0 -0.9999954
vn 0.9980851 0 -0.06185438
vn 0.9981431 -0.001695943 -0.06089009
vn 0.9982074 -0.00373101 -0.05973267
vn 0.9982521 -0.005257814 -0.05886409
vn -0.07559998 -0.9971383 0
vn -0.07989326 -0.9967519 -0.01013521
vn -0.02744319 -0.9993638 -0.02277766
vn -0.03900333 -0.998614 -0.03534132
vn 0.08500417 -0.9963371 -0.009313803
vn 0.07521804 -0.9971671 0
vn -0.002343462 -0.02029166 -0.9997913
vn -0.006275242 -0.03187148 -0.9994723
vn 0.000563018 -0.03193049 -0.9994899
vn -0.0001830418 -0.012157 -0.9999261
vn -0.0001172684 -0.01188987 -0.9999293
vn 0.01059789 -0.03157698 -0.9994451
vn 0.001097077 -0.01526996 -0.9998828
vn 0.0004777668 0.009249866 -0.9999571
vn -0.00534897 0.009441529 -0.9999411
vn 0.01187853 0.009425045 -0.9998851
vn -0.07172722 0.9973968 0.007408381
vn -0.07519811 0.9971615 0.003777087
vn -0.07479566 0.9971901 0.004198233
vn -0.07880623 0.99689 0
vn -0.999827 -0.01860301 0
vn -0.999827 -0.01860301 0
vn -1 -0.0003891891 0
vn -1 0.0003167462 0
vn -0.9998193 0.0190082 0
vn -0.9998193 0.0190082 0
vn 1 -0.0001646686 0
vn 0.999827 -0.01860327 0
vn 0.999827 -0.01860328 0
vn 1 8.952069E-05 0
vn 0.9998234 0.01879284 0
vn 0.9998234 0.01879283 0
vn 0.1148803 0.9933794 0
vn 0.1131904 0.9935701 -0.00255314
vn 0.1138779 0.9934936 -0.001514659
vn 0.1122379 0.9936734 -0.00399167
vn 0.6712255 0.7408686 -0.02387784
vn 0.6424456 0.7645159 -0.05271671
vn 0.6336608 0.7711845 -0.06122338
vn 0.6043158 0.7917878 -0.08873781
vn -0.9888536 0.1108659 0.0993847
vn -0.9886023 0.1123218 0.1002467
vn -0.9883761 0.1136175 0.1010136
vn -0.9881027 0.1151662 0.1019303
vn 0.009185492 0.9999301 0.007435787
vn -0.004690824 0.9994664 -0.0323255
vn -0.0009782028 0.9994499 -0.03314823
vn 0.009386191 0.9999425 0.005190022
vn 0.04007627 0.9991946 0.002055664
vn 0.03964125 0.9992131 -0.001300217
vn 0 -1 0
vn 0.01467671 -0.9997885 0.01440819
vn 0 -1 0
vn 0.01488614 -0.9997965 0.01361615
vn 0.005056767 -0.9993297 0.03625891
vn 0.001094872 -0.9993111 0.03709498
vn 0.02938146 0.08892993 0.9956045
vn 0.02938464 0.08892985 0.9956044
vn 0.0293822 0.08892991 0.9956044
vn 0.02938539 0.08892985 0.9956044
vn -0.9985154 0.04353477 0.03273732
vn -0.9985154 0.04353541 0.03273422
vn -0.9985154 0.04353492 0.03273665
vn -0.9985154 0.04353555 0.03273354
vn 0.003225284 -0.0001503058 -0.9999949
vn 0.003210102 -0.000113885 -0.9999949
vn 0.003180563 -4.301907E-05 -0.999995
vn 0.003162947 0 -0.999995
vn 0.998973 0 -0.04531001
vn 0.9989979 -0.001121873 -0.04474409
vn 0.9990332 -0.002855286 -0.04387024
vn 0.9990521 -0.003872273 -0.04335748
vn 0 0.004911888 0.999988
vn 0 0.004911888 0.999988
vn 0 0.004911888 0.999988
vn 0 0.004911888 0.999988
vn 0 -0.02212686 -0.9997552
vn 0 -0.02212686 -0.9997552
vn 0 -0.02212686 -0.9997552
vn 0 -0.02212686 -0.9997552
vn -0.9999999 -0.0003618341 0.0002545736
vn -0.9999999 -0.000361834 0.0002545736
vn -0.9999999 -0.0003618341 0.0002545736
vn -0.9999999 -0.0003618341 0.0002545736
vn -0.9999999 -0.0003618341 0.0002545736
vn -0.9999999 -0.000361834 0.0002545736
vn -0.9999999 -0.0003618341 0.0002545736
vn 0.0001412251 0.01189079 0.9999293
vn 0.0001412251 0.01189079 0.9999293
vn 0.0001412251 0.01189079 0.9999293
vn 0.0001412251 0.01189079 0.9999293
vn 0.0001412251 0.01189079 0.9999293
vn 0.0001412251 0.01189079 0.9999293
vn 0.0001412251 0.01189079 0.9999293
vn 0.0001412251 0.01189079 0.9999293
vn 0.0001412251 0.01189079 0.9999293
vn 0.0001412251 0.01189079 0.9999293
vn -0.9999648 0.0001994392 0.008382984
vn -0.9999648 0.0001994392 0.008382986
vn -0.9999648 0.0001994392 0.008382984
vn -0.9999648 0.0001994392 0.008382985
vn -0.9999648 0.0001994392 0.008382985
g cratepart3_0
f 3/3/3 2/2/2 1/1/1
f 6/6/6 5/5/5 4/4/4
f 7/7/7 5/5/5 6/6/6
f 6/6/6 8/8/8 7/7/7
f 7/7/7 8/8/8 9/9/9
f 12/12/12 11/11/11 10/10/10
f 10/10/10 11/11/11 13/13/13
f 13/13/13 14/14/14 10/10/10
f 10/10/10 14/14/14 15/15/15
f 18/18/18 17/17/17 16/16/16
f 16/16/16 17/17/17 19/19/19
f 19/19/19 17/17/17 20/20/20
f 20/20/20 17/17/17 21/21/21
f 24/24/24 23/23/23 22/22/22
f 22/22/22 23/23/23 25/25/25
f 25/25/25 23/23/23 26/26/26
f 25/25/25 26/26/26 27/27/27
f 28/28/28 26/26/26 23/23/23
f 31/31/31 30/30/30 29/29/29
f 32/32/32 30/30/30 31/31/31
f 32/32/32 33/33/33 30/30/30
f 34/34/34 33/33/33 32/32/32
f 37/37/37 36/36/36 35/35/35
f 38/38/38 36/36/36 37/37/37
f 41/41/41 40/40/40 39/39/39
f 42/42/42 40/40/40 41/41/41
f 43/43/43 42/42/42 41/41/41
f 44/44/44 42/42/42 43/43/43
f 47/47/47 46/46/46 45/45/45
f 45/45/45 46/46/46 48/48/48
f 46/46/46 49/49/49 48/48/48
f 50/50/50 49/49/49 46/46/46
f 53/53/53 52/52/52 51/51/51
f 51/51/51 52/52/52 54/54/54
f 51/51/51 54/54/54 55/55/55
f 55/55/55 54/54/54 56/56/56
f 59/59/59 58/58/58 57/57/57
f 60/60/60 58/58/58 59/59/59
f 60/60/60 61/61/61 58/58/58
f 58/58/58 61/61/61 62/62/62
f 65/65/65 64/64/64 63/63/63
f 66/66/66 64/64/64 65/65/65
f 69/69/69 68/68/68 67/67/67
f 70/70/70 68/68/68 69/69/69
f 73/73/73 72/72/72 71/71/71
f 74/74/74 72/72/72 73/73/73
f 77/77/77 76/76/76 75/75/75
f 78/78/78 76/76/76 77/77/77
f 81/81/81 80/80/80 79/79/79
f 82/82/82 80/80/80 81/81/81
f 81/81/81 83/83/83 82/82/82
f 84/84/84 83/83/83 81/81/81
f 87/87/87 86/86/86 85/85/85
f 88/88/88 86/86/86 87/87/87
f 89/89/89 88/88/88 87/87/87
f 90/90/90 89/89/89 87/87/87
f 91/91/91 90/90/90 87/87/87
f 92/92/92 88/88/88 89/89/89
f 89/89/89 93/93/93 92/92/92
f 92/92/92 94/94/94 88/88/88
f 97/97/97 96/96/96 95/95/95
f 98/98/98 96/96/96 97/97/97
f 101/101/101 100/100/100 99/99/99
f 102/102/102 100/100/100 101/101/101
f 101/101/101 103/103/103 102/102/102
f 102/102/102 103/103/103 104/104/104
f 107/107/107 106/106/106 105/105/105
f 105/105/105 106/106/106 108/108/108
f 108/108/108 109/109/109 105/105/105
f 105/105/105 109/109/109 110/110/110
f 113/113/113 112/112/112 111/111/111
f 114/114/114 112/112/112 113/113/113
f 117/117/117 116/116/116 115/115/115
f 118/118/118 116/116/116 117/117/117
f 121/121/121 120/120/120 119/119/119
f 122/122/122 120/120/120 121/121/121
f 125/125/125 124/124/124 123/123/123
f 123/123/123 124/124/124 126/126/126
f 123/123/123 126/126/126 127/127/127
f 127/127/127 126/126/126 128/128/128
f 131/131/131 130/130/130 129/129/129
f 132/132/132 130/130/130 131/131/131
f 132/132/132 133/133/133 130/130/130
f 130/130/130 133/133/133 134/134/134
f 137/137/137 136/136/136 135/135/135
f 138/138/138 136/136/136 137/137/137
f 141/141/141 140/140/140 139/139/139
f 142/142/142 140/140/140 141/141/141
f 145/145/145 144/144/144 143/143/143
f 146/146/146 144/144/144 145/145/145
f 149/149/149 148/148/148 147/147/147
f 150/150/150 148/148/148 149/149/149
f 153/153/153 152/152/152 151/151/151
f 154/154/154 153/153/153 151/151/151
f 157/157/157 156/156/156 155/155/155
f 158/158/158 157/157/157 155/155/155
f 161/161/161 160/160/160 159/159/159
f 160/160/160 161/161/161 162/162/162
f 160/160/160 162/162/162 163/163/163
f 160/160/160 163/163/163 164/164/164
f 164/164/164 165/165/165 160/160/160
f 168/168/168 167/167/167 166/166/166
f 168/168/168 166/166/166 169/169/169
f 169/169/169 170/170/170 168/168/168
f 166/166/166 171/171/171 169/169/169
f 171/171/171 172/172/172 169/169/169
f 172/172/172 173/173/173 169/169/169
f 173/173/173 174/174/174 169/169/169
f 169/169/169 174/174/174 175/175/175
f 178/178/178 177/177/177 176/176/176
f 176/176/176 179/179/179 178/178/178
f 178/178/178 179/179/179 180/180/180
