g crystalShard_05
v -0.05624047 0 -0.09741138
v 0.008129219 -0.1081084 5.374274E-05
v 0.05624051 0 -0.09741137
v -0.112481 0 -1.676097E-08
v 0.112481 0 0
v -0.0562405 0 0.09741137
v 0.05624048 0 0.09741138
v -0.05624047 0 -0.09741138
v 0.05624051 0 -0.09741137
v 0.001071983 0.2394537 0.001675098
v -0.112481 0 -1.676097E-08
v 0.112481 0 0
v -0.0562405 0 0.09741137
v 0.05624048 0 0.09741138
vt 0.7676584 0.369957
vt 0.8166054 0.4123597
vt 0.8235959 0.3361645
vt 0.7501647 0.4112812
vt 0.9095149 0.4046153
vt 0.7823068 0.4814124
vt 0.8512684 0.4837512
vt 0.373025 0.7347049
vt 0.4354755 0.7639049
vt 0.4334505 0.6868544
vt 0.371 0.6576543
vt 0.4959008 0.7160544
vt 0.4314252 0.609804
vt 0.4938757 0.6390041
vn -0.5046736 0.03390508 -0.8626441
vn 0.01891205 -0.9998211 0.000125093
vn 0.4927652 0.04910773 -0.8687755
vn -0.9997342 0.02298824 -0.001752634
vn 0.998572 0.05339497 -0.001743449
vn -0.5062874 0.02653192 0.8619565
vn 0.4944588 0.04171068 0.8681997
vn -0.5046736 0.03390508 -0.8626441
vn 0.4927652 0.04910773 -0.8687755
vn 0.001862381 0.999994 0.00291005
vn -0.9997342 0.02298824 -0.001752634
vn 0.998572 0.05339497 -0.001743449
vn -0.5062874 0.02653192 0.8619565
vn 0.4944588 0.04171068 0.8681997
g crystalShard_05_0
f 3/3/3 2/2/2 1/1/1
f 1/1/1 2/2/2 4/4/4
f 5/5/5 2/2/2 3/3/3
f 4/4/4 2/2/2 6/6/6
f 7/7/7 2/2/2 5/5/5
f 6/6/6 2/2/2 7/7/7
f 10/10/10 9/9/9 8/8/8
f 10/10/10 8/8/8 11/11/11
f 10/10/10 12/12/12 9/9/9
f 10/10/10 11/11/11 13/13/13
f 10/10/10 14/14/14 12/12/12
f 10/10/10 13/13/13 14/14/14
