g crystalShard_04
v 0.07394683 0 0.1280797
v 0.1126117 0.05465518 0.002202473
v 0.1478937 0 0
v 0.06032336 0.05465518 0.09276848
v -0.07394685 0 0.1280797
v 0.008035056 0.1469755 0.002202473
v -0.04425326 0.05465518 0.09276848
v -0.1478937 0 -2.203787E-08
v -0.09654156 0.05465518 0.002202458
v -0.07394681 0 -0.1280797
v -0.04425323 0.05465518 -0.08836354
v 0.07394687 0 -0.1280797
v 0.06032339 0.05465518 -0.08836353
v 0.1126117 0.05465518 0.002202473
v 0.1478937 0 0
v 0.04586416 -0.04787486 -0.0782399
v 0.07394687 0 -0.1280797
v -0.07394681 0 -0.1280797
v -0.04482566 -0.04787486 -0.07883947
v -0.1478937 0 -2.203787E-08
v 0.0906898 -0.04787486 0.0005995589
v 0.1478937 0 0
v -0.09068981 -0.04787486 -0.0005995723
v -0.07394685 0 0.1280797
v 0.01068856 -0.1081084 7.066271E-05
v 0.04482567 -0.04787486 0.07883946
v 0.07394683 0 0.1280797
v -0.04586415 -0.04787486 0.07823989
vt 0.4938757 0.6390041
vt 0.4703405 0.7041032
vt 0.4959008 0.7160544
vt 0.4691442 0.6585888
vt 0.4314252 0.609804
vt 0.4334505 0.6868544
vt 0.4322541 0.6413399
vt 0.371 0.6576543
vt 0.3965603 0.6696056
vt 0.373025 0.7347049
vt 0.3977565 0.7151202
vt 0.4354755 0.7639049
vt 0.4346467 0.732369
vt 0.4703405 0.7041032
vt 0.4959008 0.7160544
vt 0.8119714 0.370305
vt 0.8235959 0.3361645
vt 0.7676584 0.369957
vt 0.7829542 0.3846161
vt 0.7501647 0.4112812
vt 0.8620077 0.4026699
vt 0.9095149 0.4046153
vt 0.7703631 0.4119663
vt 0.7823068 0.4814124
vt 0.8166054 0.4123597
vt 0.8389132 0.4632103
vt 0.8512684 0.4837512
vt 0.7981325 0.4619766
vn 0.4790516 -0.1231686 0.8691024
vn 0.7822102 0.6229934 0.005139564
vn 0.9897618 -0.1424954 -0.00816489
vn 0.3978754 0.6344497 0.6626981
vn -0.5218378 -0.05399203 0.8513343
vn 0 1 0
vn -0.3540313 0.6768858 0.6453582
vn -0.9999511 -0.007369442 -0.006589732
vn -0.7079321 0.7062692 0.004021299
vn -0.5167692 -0.02355704 -0.8558006
vn -0.3494085 0.6960272 -0.6272638
vn 0.4737142 -0.08945414 -0.8761237
vn 0.3926137 0.6548927 -0.6457322
vn 0.7822102 0.6229934 0.005139564
vn 0.9897618 -0.1424954 -0.00816489
vn 0.3115306 -0.7795891 -0.5433135
vn 0.4737142 -0.08945414 -0.8761237
vn -0.5167692 -0.02355704 -0.8558006
vn -0.3086973 -0.7886093 -0.5317906
vn -0.9999511 -0.007369442 -0.006589732
vn 0.6326138 -0.7744573 0.003942795
vn 0.9897618 -0.1424954 -0.00816489
vn -0.609723 -0.7926055 -0.00379868
vn -0.5218378 -0.05399203 0.8513343
vn 0.02898649 -0.9995798 0.0001916403
vn 0.3047338 -0.7795912 0.5471516
vn 0.4790516 -0.1231686 0.8691024
vn -0.3152986 -0.7886114 0.5279006
g crystalShard_04_0
f 3/3/3 2/2/2 1/1/1
f 2/2/2 4/4/4 1/1/1
f 1/1/1 4/4/4 5/5/5
f 2/2/2 6/6/6 4/4/4
f 4/4/4 7/7/7 5/5/5
f 4/4/4 6/6/6 7/7/7
f 5/5/5 7/7/7 8/8/8
f 7/7/7 9/9/9 8/8/8
f 7/7/7 6/6/6 9/9/9
f 8/8/8 9/9/9 10/10/10
f 9/9/9 11/11/11 10/10/10
f 9/9/9 6/6/6 11/11/11
f 10/10/10 11/11/11 12/12/12
f 11/11/11 6/6/6 13/13/13
f 11/11/11 13/13/13 12/12/12
f 13/13/13 6/6/6 14/14/14
f 12/12/12 13/13/13 15/15/15
f 13/13/13 14/14/14 15/15/15
f 18/18/18 17/17/17 16/16/16
f 19/19/19 18/18/18 16/16/16
f 20/20/20 18/18/18 19/19/19
f 16/16/16 17/17/17 21/21/21
f 17/17/17 22/22/22 21/21/21
f 23/23/23 20/20/20 19/19/19
f 24/24/24 20/20/20 23/23/23
f 16/16/16 25/25/25 19/19/19
f 21/21/21 25/25/25 16/16/16
f 19/19/19 25/25/25 23/23/23
f 21/21/21 22/22/22 26/26/26
f 26/26/26 25/25/25 21/21/21
f 22/22/22 27/27/27 26/26/26
f 28/28/28 24/24/24 23/23/23
f 23/23/23 25/25/25 28/28/28
f 28/28/28 25/25/25 26/26/26
f 27/27/27 24/24/24 28/28/28
f 26/26/26 27/27/27 28/28/28
