g crystalShard_02
v -0.1127551 0.03157103 -0.1033054
v 0.06598175 0.01938581 -0.1250654
v -0.00240767 0.08568996 -0.147968
v -0.03412175 -0.140902 0.04731233
v -0.1732115 0.04126996 0.008407936
v -0.1448048 0.02327371 0.1190784
v -0.0293225 -0.003836274 0.1837151
v 0.09401059 0.02443242 0.1360654
v 0.1463228 0.009268761 0.01653011
v 0.1142304 0.05473506 -0.07820534
v -0.00240767 0.08568996 -0.147968
v 0.06598175 0.01938581 -0.1250654
v 0.1142304 0.05473506 -0.07820534
v 0.08522379 0.1308002 -0.08402063
v 0.1463228 0.009268761 0.01653011
v 0.1297008 0.1189421 0.01097112
v 0.09401059 0.02443242 0.1360654
v -0.01382518 0.1381474 -0.1222201
v -0.1088107 0.1316574 -0.07415571
v -0.1127551 0.03157103 -0.1033054
v -0.1537071 0.1240736 0.02755141
v -0.1732115 0.04126996 0.008407936
v -0.08370221 0.3183186 0.01220679
v -0.02284372 0.3491615 -0.0617496
v -0.1081625 0.1156048 0.13362
v -0.1448048 0.02327371 0.1190784
v 0.03279507 0.3664773 -0.05915311
v -0.04125965 0.3111739 0.1012449
v -0.03225791 0.1243879 0.1769226
v -0.0293225 -0.003836274 0.1837151
v 0.009745955 0.590069 -0.02019352
v 0.07266033 0.3257509 0.004399814
v 0.08372033 0.1255531 0.1306766
v 0.04715466 0.315039 0.08071005
vt 0.5564489 0.7471333
vt 0.5507298 0.6569239
vt 0.5306004 0.7100591
vt 0.6433153 0.7100591
vt 0.6056324 0.7801637
vt 0.6795228 0.7598518
vt 0.7019364 0.7067027
vt 0.6835101 0.6441055
vt 0.6135495 0.6223055
vt 0.5435264 0.6088277
vt 0.5221117 0.1042963
vt 0.5280228 0.07568134
vt 0.5217195 0.05735914
vt 0.5114474 0.06445862
vt 0.477401 0.01227088
vt 0.4787918 0.02298061
vt 0.4144814 0.01396153
vt 0.5059263 0.1173321
vt 0.4624152 0.1492056
vt 0.4784037 0.1629372
vt 0.4064451 0.146014
vt 0.4062051 0.1565351
vt 0.4294591 0.1115583
vt 0.4768905 0.1005923
vt 0.3692421 0.1012722
vt 0.3697203 0.1301664
vt 0.4886513 0.07480659
vt 0.399257 0.07222807
vt 0.3674904 0.05681164
vt 0.3566867 0.05526074
vt 0.4660346 0.07222807
vt 0.4687647 0.04340044
vt 0.4147563 0.01555761
vt 0.4286935 0.03744578
vn -0.3737305 -0.6857932 -0.6245104
vn 0.2041757 -0.7436222 -0.6366619
vn -0.1380757 -0.4475984 -0.8835104
vn -0.03074826 -0.9958216 -0.08598761
vn -0.768643 -0.6202646 -0.1563963
vn -0.6974375 -0.6241415 0.3521768
vn -0.02247801 -0.7048166 0.7090333
vn 0.5470544 -0.6834375 0.4833681
vn 0.6386877 -0.7645444 -0.08688985
vn 0.7710053 -0.4315594 -0.4683026
vn -0.02262818 0.3190387 -0.9474716
vn 0.5420226 0.2064856 -0.8146012
vn 0.8063129 0.2187555 -0.5495502
vn 0.698404 0.2464807 -0.6719219
vn 0.9741201 0.1693437 0.1497087
vn 0.9721825 0.2318245 0.03344546
vn 0.6829574 0.1110618 0.7219657
vn -0.261279 0.3003294 -0.9173525
vn -0.7239988 0.2815776 -0.6297141
vn -0.7181291 0.2617032 -0.6448272
vn -0.9449982 0.3104997 0.1028029
vn -0.9645179 0.2455878 -0.09691202
vn -0.923579 0.3695478 -0.1021576
vn -0.3574665 0.2670886 -0.8949198
vn -0.7429167 0.2423654 0.6239663
vn -0.7533711 0.1471356 0.6409237
vn 0.5903181 0.2285521 -0.7741372
vn -0.3811021 0.4252999 0.8209026
vn 0.02478975 0.2146219 0.9763826
vn -0.02137424 0.06437457 0.9976968
vn -0.2361959 0.9277545 0.2889344
vn 0.9649173 0.2593063 -0.04116843
vn 0.6643302 0.2386944 0.708301
vn 0.6312023 0.3363632 0.6988873
g crystalShard_02_0
f 3/3/3 2/2/2 1/1/1
f 2/2/2 4/4/4 1/1/1
f 4/4/4 5/5/5 1/1/1
f 4/4/4 6/6/6 5/5/5
f 4/4/4 7/7/7 6/6/6
f 4/4/4 8/8/8 7/7/7
f 4/4/4 9/9/9 8/8/8
f 2/2/2 9/9/9 4/4/4
f 2/2/2 10/10/10 9/9/9
f 13/13/13 12/12/12 11/11/11
f 14/14/14 13/13/13 11/11/11
f 15/15/15 13/13/13 14/14/14
f 16/16/16 15/15/15 14/14/14
f 17/17/17 15/15/15 16/16/16
f 18/18/18 14/14/14 11/11/11
f 19/19/19 18/18/18 11/11/11
f 20/20/20 19/19/19 11/11/11
f 19/19/19 20/20/20 21/21/21
f 20/20/20 22/22/22 21/21/21
f 19/19/19 23/23/23 18/18/18
f 21/21/21 23/23/23 19/19/19
f 18/18/18 24/24/24 14/14/14
f 23/23/23 24/24/24 18/18/18
f 25/25/25 21/21/21 22/22/22
f 26/26/26 25/25/25 22/22/22
f 24/24/24 27/27/27 14/14/14
f 14/14/14 27/27/27 16/16/16
f 28/28/28 23/23/23 21/21/21
f 25/25/25 28/28/28 21/21/21
f 29/29/29 25/25/25 26/26/26
f 29/29/29 28/28/28 25/25/25
f 30/30/30 29/29/29 26/26/26
f 30/30/30 17/17/17 29/29/29
f 23/23/23 31/31/31 24/24/24
f 24/24/24 31/31/31 27/27/27
f 28/28/28 31/31/31 23/23/23
f 27/27/27 32/32/32 16/16/16
f 27/27/27 31/31/31 32/32/32
f 33/33/33 17/17/17 16/16/16
f 17/17/17 33/33/33 29/29/29
f 16/16/16 32/32/32 33/33/33
f 34/34/34 28/28/28 29/29/29
f 34/34/34 31/31/31 28/28/28
f 33/33/33 34/34/34 29/29/29
f 32/32/32 34/34/34 33/33/33
f 32/32/32 31/31/31 34/34/34
