g decalMound01
v 1.451623 0.03500004 0
v 1.05213 0.2320224 -0.5960576
v 1.257143 0.03500004 -0.7225158
v 1.214615 0.2320224 0
v 1.257143 0.03500004 0.7225158
v 0.7267686 0.390941 -0.406331
v 1.05213 0.2320224 0.5960576
v 0.7286884 0.03500004 1.177623
v 0.8390086 0.390941 0
v 0.3446668 0.4908414 -0.1932584
v 0.61062 0.2320224 0.9658517
v 0 0.03500004 1.278712
v 0.7267686 0.390941 0.406331
v 0.3979869 0.4908414 0
v 0 0.5249156 0
v 0 0.2320224 1.070309
v -0.7286884 0.03500004 1.177623
v 0.4204106 0.390941 0.6689773
v 0.3446668 0.4908414 0.1932584
v 0 0.5249156 0
v -0.61062 0.2320224 0.9658517
v -1.257143 0.03500004 0.7225158
v 0 0.390941 0.7521866
v 0.1989935 0.4908414 0.3282869
v 0 0.5249156 0
v -1.05213 0.2320224 0.5960576
v -1.451623 0.03500004 0
v -0.4204106 0.390941 0.6689773
v 0 0.4908414 0.3758178
v 0 0.5249156 0
v -1.214615 0.2320224 0
v -1.257143 0.03500004 -0.7225158
v -0.7267686 0.390941 0.406331
v -0.1989935 0.4908414 0.3282869
v 0 0.5249156 0
v -1.05213 0.2320224 -0.5960576
v -0.7286884 0.03500004 -1.177623
v -0.8390086 0.390941 0
v -0.3446668 0.4908414 0.1932584
v 0 0.5249156 0
v -0.61062 0.2320224 -0.9658517
v 0 0.03500004 -1.278712
v -0.7267686 0.390941 -0.406331
v -0.3979869 0.4908414 0
v 0 0.5249156 0
v 0 0.2320224 -1.070309
v 0.7286884 0.03500004 -1.177623
v -0.4204106 0.390941 -0.6689773
v -0.3446668 0.4908414 -0.1932584
v 0 0.5249156 0
v 0.61062 0.2320224 -0.9658517
v 1.257143 0.03500004 -0.7225158
v 1.05213 0.2320224 -0.5960576
v 0 0.390941 -0.7521866
v -0.1989935 0.4908414 -0.3282869
v 0 0.5249156 0
v 0.4204106 0.390941 -0.6689773
v 0.7267686 0.390941 -0.406331
v 0 0.4908414 -0.3758178
v 0 0.5249156 0
v 0.1989935 0.4908414 -0.3282869
v 0 0.5249156 0
v 0.3446668 0.4908414 -0.1932584
v 0 0.5249156 0
v 0.7286884 0.03500004 -1.177623
v 0.9158246 0.03500004 -1.480051
v 1.58601 0.03500004 -0.9115254
v 1.257143 0.03500004 -0.7225158
v 0 0.03500004 -1.278712
v 0 0.03500004 -1.599898
v 0.9158246 0.03500004 -1.480051
v 0.7286884 0.03500004 -1.177623
v -0.7286884 0.03500004 -1.177623
v -0.9158246 0.03500004 -1.480051
v 0 0.03500004 -1.599898
v 0 0.03500004 -1.278712
v -1.257143 0.03500004 -0.7225158
v -1.58601 0.03500004 -0.9115254
v -0.9158246 0.03500004 -1.480051
v -0.7286884 0.03500004 -1.177623
v -1.451623 0.03500004 0
v -1.831367 0.03500004 0
v -1.58601 0.03500004 -0.9115254
v -1.257143 0.03500004 -0.7225158
v -1.257143 0.03500004 0.7225158
v -1.58601 0.03500004 0.9115254
v -1.831367 0.03500004 0
v -1.451623 0.03500004 0
v -0.7286884 0.03500004 1.177623
v -0.9158246 0.03500004 1.480051
v -1.58601 0.03500004 0.9115254
v -1.257143 0.03500004 0.7225158
v 0 0.03500004 1.278712
v 0 0.03500004 1.599898
v -0.9158246 0.03500004 1.480051
v -0.7286884 0.03500004 1.177623
v 0.7286884 0.03500004 1.177623
v 0.9158246 0.03500004 1.480051
v 0 0.03500004 1.599898
v 0 0.03500004 1.278712
v 1.257143 0.03500004 0.7225158
v 1.58601 0.03500004 0.9115254
v 0.9158246 0.03500004 1.480051
v 0.7286884 0.03500004 1.177623
v 1.451623 0.03500004 0
v 1.831367 0.03500004 0
v 1.58601 0.03500004 0.9115254
v 1.257143 0.03500004 0.7225158
v 1.257143 0.03500004 -0.7225158
v 1.58601 0.03500004 -0.9115254
v 1.831367 0.03500004 0
v 1.451623 0.03500004 0
vt 0.9166666 0.6666666
vt 0.9999999 0.7499999
vt 0.9999999 0.6666666
vt 0.9166666 0.7499999
vt 0.8333333 0.6666666
vt 0.9999999 0.8333333
vt 0.8333333 0.7499999
vt 0.7499999 0.6666666
vt 0.9166666 0.8333333
vt 0.9999999 0.9166666
vt 0.7499999 0.7499999
vt 0.6666666 0.6666666
vt 0.8333333 0.8333333
vt 0.9166666 0.9166666
vt 0.9583334 1
vt 0.6666666 0.7499999
vt 0.5833333 0.6666666
vt 0.7499999 0.8333333
vt 0.8333333 0.9166666
vt 0.875 1
vt 0.5833333 0.7499999
vt 0.5 0.6666666
vt 0.6666666 0.8333333
vt 0.7499999 0.9166666
vt 0.7916667 1
vt 0.5 0.7499999
vt 0.4166667 0.6666666
vt 0.5833333 0.8333333
vt 0.6666666 0.9166666
vt 0.7083334 1
vt 0.4166667 0.7499999
vt 0.3333333 0.6666666
vt 0.5 0.8333333
vt 0.5833333 0.9166666
vt 0.625 1
vt 0.3333333 0.7499999
vt 0.25 0.6666666
vt 0.4166667 0.8333333
vt 0.5 0.9166666
vt 0.5416667 1
vt 0.25 0.7499999
vt 0.1666667 0.6666666
vt 0.3333333 0.8333333
vt 0.4166667 0.9166666
vt 0.4583333 1
vt 0.1666667 0.7499999
vt 0.08333334 0.6666666
vt 0.25 0.8333333
vt 0.3333333 0.9166666
vt 0.375 1
vt 0.08333334 0.7499999
vt 0 0.6666666
vt 0 0.7499999
vt 0.1666667 0.8333333
vt 0.25 0.9166666
vt 0.2916667 1
vt 0.08333334 0.8333333
vt 0 0.8333333
vt 0.1666667 0.9166666
vt 0.2083333 1
vt 0.08333334 0.9166666
vt 0.125 1
vt 0 0.9166666
vt 0.04166667 1
vt 0 0
vt 0 1
vt 1 1
vt 1 0
vt 0 0
vt 0 1
vt 1 1
vt 1 0
vt 0 0
vt 0 1
vt 1 1
vt 1 0
vt 0 0
vt 0 1
vt 1 1
vt 1 0
vt 0 0
vt 0 1
vt 1 1
vt 1 0
vt 0 0
vt 0 1
vt 1 1
vt 1 0
vt 0 0
vt 0 1
vt 1 1
vt 1 0
vt 0 0
vt 0 1
vt 1 1
vt 1 0
vt 0 0
vt 0 1
vt 1 1
vt 1 0
vt 0 0
vt 0 1
vt 1 1
vt 1 0
vt 0 0
vt 0 1
vt 1 1
vt 1 0
vt 0 0
vt 0 1
vt 1 1
vt 1 0
vn 0.2213004 0.9752057 0
vn 0.4554008 0.844438 -0.2820186
vn 0.1832607 0.976541 -0.1130627
vn 0.536422 0.8439498 0
vn 0.1832607 0.976541 0.1130627
vn 0.2871137 0.9408387 -0.1799676
vn 0.4554008 0.844438 0.2820186
vn 0.09715346 0.9728487 0.210063
vn 0.3358647 0.9419102 0
vn 0.1704045 0.9795986 -0.1065306
vn 0.2282318 0.8330412 0.5039372
vn 0 0.9606991 0.2775919
vn 0.2871137 0.9408387 0.1799675
vn 0.1983801 0.9801252 0
vn 0 1 0
vn 0 0.8197173 0.5727683
vn -0.09715346 0.9728487 0.210063
vn 0.1504722 0.9327765 0.3275458
vn 0.1704045 0.9795986 0.1065306
vn 0 1 0
vn -0.2282318 0.8330412 0.5039372
vn -0.1832607 0.976541 0.1130627
vn 0 0.9260292 0.3774519
vn 0.09308515 0.9768425 0.1926496
vn 0 1 0
vn -0.4554009 0.844438 0.2820186
vn -0.2213004 0.9752057 0
vn -0.1504722 0.9327765 0.3275458
vn 0 0.9747594 0.2232579
vn 0 1 0
vn -0.536422 0.8439498 0
vn -0.1832607 0.976541 -0.1130627
vn -0.2871137 0.9408387 0.1799676
vn -0.09308517 0.9768425 0.1926496
vn 0 1 0
vn -0.4554008 0.844438 -0.2820186
vn -0.09715346 0.9728487 -0.210063
vn -0.3358647 0.9419102 0
vn -0.1704045 0.9795986 0.1065306
vn 0 1 0
vn -0.2282318 0.8330412 -0.5039372
vn 0 0.9606991 -0.2775919
vn -0.2871137 0.9408387 -0.1799675
vn -0.1983801 0.9801252 0
vn 0 1 0
vn 0 0.8197173 -0.5727683
vn 0.09715346 0.9728487 -0.210063
vn -0.1504722 0.9327765 -0.3275458
vn -0.1704045 0.9795986 -0.1065306
vn 0 1 0
vn 0.2282318 0.8330412 -0.5039372
vn 0.1832607 0.976541 -0.1130627
vn 0.4554008 0.844438 -0.2820186
vn 0 0.9260292 -0.3774519
vn -0.09308515 0.9768425 -0.1926496
vn 0 1 0
vn 0.1504722 0.9327765 -0.3275458
vn 0.2871137 0.9408387 -0.1799676
vn 0 0.9747594 -0.2232579
vn 0 1 0
vn 0.09308517 0.9768425 -0.1926496
vn 0 1 0
vn 0.1704045 0.9795986 -0.1065306
vn 0 1 0
vn 0.09715346 0.9728487 -0.210063
vn 0 1 0
vn 0 1 0
vn 0.1832607 0.976541 -0.1130627
vn 0 0.9606991 -0.2775919
vn 0 1 0
vn 0 1 0
vn 0.09715346 0.9728487 -0.210063
vn -0.09715346 0.9728487 -0.210063
vn 0 1 0
vn 0 1 0
vn 0 0.9606991 -0.2775919
vn -0.1832607 0.976541 -0.1130627
vn 0 1 0
vn 0 1 0
vn -0.09715346 0.9728487 -0.210063
vn -0.2213004 0.9752057 0
vn 0 1 0
vn 0 1 0
vn -0.1832607 0.976541 -0.1130627
vn -0.1832607 0.976541 0.1130627
vn 0 1 0
vn 0 1 0
vn -0.2213004 0.9752057 0
vn -0.09715346 0.9728487 0.210063
vn 0 1 0
vn 0 1 0
vn -0.1832607 0.976541 0.1130627
vn 0 0.9606991 0.2775919
vn 0 1 0
vn 0 1 0
vn -0.09715346 0.9728487 0.210063
vn 0.09715346 0.9728487 0.210063
vn 0 1 0
vn 0 1 0
vn 0 0.9606991 0.2775919
vn 0.1832607 0.976541 0.1130627
vn 0 1 0
vn 0 1 0
vn 0.09715346 0.9728487 0.210063
vn 0.2213004 0.9752057 0
vn 0 1 0
vn 0 1 0
vn 0.1832607 0.976541 0.1130627
vn 0.1832607 0.976541 -0.1130627
vn 0 1 0
vn 0 1 0
vn 0.2213004 0.9752057 0
g decalMound01_0
f 3/3/3 2/2/2 1/1/1
f 2/2/2 4/4/4 1/1/1
f 1/1/1 4/4/4 5/5/5
f 2/2/2 6/6/6 4/4/4
f 4/4/4 7/7/7 5/5/5
f 5/5/5 7/7/7 8/8/8
f 6/6/6 9/9/9 4/4/4
f 4/4/4 9/9/9 7/7/7
f 6/6/6 10/10/10 9/9/9
f 7/7/7 11/11/11 8/8/8
f 8/8/8 11/11/11 12/12/12
f 9/9/9 13/13/13 7/7/7
f 7/7/7 13/13/13 11/11/11
f 10/10/10 14/14/14 9/9/9
f 9/9/9 14/14/14 13/13/13
f 10/10/10 15/15/15 14/14/14
f 11/11/11 16/16/16 12/12/12
f 12/12/12 16/16/16 17/17/17
f 13/13/13 18/18/18 11/11/11
f 11/11/11 18/18/18 16/16/16
f 14/14/14 19/19/19 13/13/13
f 13/13/13 19/19/19 18/18/18
f 14/14/14 20/20/20 19/19/19
f 16/16/16 21/21/21 17/17/17
f 17/17/17 21/21/21 22/22/22
f 18/18/18 23/23/23 16/16/16
f 16/16/16 23/23/23 21/21/21
f 19/19/19 24/24/24 18/18/18
f 18/18/18 24/24/24 23/23/23
f 19/19/19 25/25/25 24/24/24
f 21/21/21 26/26/26 22/22/22
f 22/22/22 26/26/26 27/27/27
f 23/23/23 28/28/28 21/21/21
f 21/21/21 28/28/28 26/26/26
f 24/24/24 29/29/29 23/23/23
f 23/23/23 29/29/29 28/28/28
f 24/24/24 30/30/30 29/29/29
f 26/26/26 31/31/31 27/27/27
f 27/27/27 31/31/31 32/32/32
f 28/28/28 33/33/33 26/26/26
f 26/26/26 33/33/33 31/31/31
f 29/29/29 34/34/34 28/28/28
f 28/28/28 34/34/34 33/33/33
f 29/29/29 35/35/35 34/34/34
f 31/31/31 36/36/36 32/32/32
f 32/32/32 36/36/36 37/37/37
f 33/33/33 38/38/38 31/31/31
f 31/31/31 38/38/38 36/36/36
f 34/34/34 39/39/39 33/33/33
f 33/33/33 39/39/39 38/38/38
f 34/34/34 40/40/40 39/39/39
f 36/36/36 41/41/41 37/37/37
f 37/37/37 41/41/41 42/42/42
f 38/38/38 43/43/43 36/36/36
f 36/36/36 43/43/43 41/41/41
f 39/39/39 44/44/44 38/38/38
f 38/38/38 44/44/44 43/43/43
f 39/39/39 45/45/45 44/44/44
f 41/41/41 46/46/46 42/42/42
f 42/42/42 46/46/46 47/47/47
f 43/43/43 48/48/48 41/41/41
f 41/41/41 48/48/48 46/46/46
f 44/44/44 49/49/49 43/43/43
f 43/43/43 49/49/49 48/48/48
f 44/44/44 50/50/50 49/49/49
f 46/46/46 51/51/51 47/47/47
f 47/47/47 51/51/51 52/52/52
f 51/51/51 53/53/53 52/52/52
f 48/48/48 54/54/54 46/46/46
f 46/46/46 54/54/54 51/51/51
f 49/49/49 55/55/55 48/48/48
f 48/48/48 55/55/55 54/54/54
f 49/49/49 56/56/56 55/55/55
f 51/51/51 57/57/57 53/53/53
f 54/54/54 57/57/57 51/51/51
f 57/57/57 58/58/58 53/53/53
f 55/55/55 59/59/59 54/54/54
f 54/54/54 59/59/59 57/57/57
f 55/55/55 60/60/60 59/59/59
f 57/57/57 61/61/61 58/58/58
f 59/59/59 61/61/61 57/57/57
f 59/59/59 62/62/62 61/61/61
f 61/61/61 63/63/63 58/58/58
f 61/61/61 64/64/64 63/63/63
f 67/67/67 66/66/66 65/65/65
f 68/68/68 67/67/67 65/65/65
f 71/71/71 70/70/70 69/69/69
f 72/72/72 71/71/71 69/69/69
f 75/75/75 74/74/74 73/73/73
f 76/76/76 75/75/75 73/73/73
f 79/79/79 78/78/78 77/77/77
f 80/80/80 79/79/79 77/77/77
f 83/83/83 82/82/82 81/81/81
f 84/84/84 83/83/83 81/81/81
f 87/87/87 86/86/86 85/85/85
f 88/88/88 87/87/87 85/85/85
f 91/91/91 90/90/90 89/89/89
f 92/92/92 91/91/91 89/89/89
f 95/95/95 94/94/94 93/93/93
f 96/96/96 95/95/95 93/93/93
f 99/99/99 98/98/98 97/97/97
f 100/100/100 99/99/99 97/97/97
f 103/103/103 102/102/102 101/101/101
f 104/104/104 103/103/103 101/101/101
f 107/107/107 106/106/106 105/105/105
f 108/108/108 107/107/107 105/105/105
f 111/111/111 110/110/110 109/109/109
f 112/112/112 111/111/111 109/109/109
