g decoRockCave02
v -0.6964261 0.0008209564 -0.6408101
v -0.497175 0.001028647 -0.6831112
v -0.6763327 0.1004102 -0.6529073
v -0.4262576 0.0008258068 -0.6187594
v -0.4404501 0.09898905 -0.5874386
v -0.4183804 0.0008389625 -0.5032821
v -0.4676047 0.0009706111 -0.436827
v -0.5687472 0.1547518 -0.6436458
v -0.6763327 0.1004102 -0.6529073
v -0.5060281 0.1471542 -0.4796102
v -0.643364 0.1530727 -0.5116854
v -0.7112662 0.08476315 -0.5547189
v -0.5791525 0.1327405 -0.4364449
v -0.588522 0.0008484115 -0.407474
v -0.6777548 0.06000892 -0.4444466
v -0.6777548 0.06000892 -0.4444466
v -0.6575369 0.0008252054 -0.4541207
v -0.6964261 0.0008209564 -0.6408101
v -0.6763327 0.1004102 -0.6529073
v -0.6575369 0.0008252054 -0.4541207
v -0.6777548 0.06000892 -0.4444466
v 0.461727 0.002546699 0.06626504
v 0.5855454 0.1265277 -0.06255942
v 0.5628018 0.0002588762 -0.09288168
v 0.02257295 -0.002742507 0.5567887
v 0.1751608 -0.002725876 0.3441007
v 0.128284 0.1595627 0.3452103
v 0.1267069 0.1457601 0.537609
v 0.3818655 0.1957263 0.4429862
v 0.128284 0.1595627 0.3452103
v 0.08901582 0.0005452872 0.6368717
v 0.3092166 0.1168854 0.3163603
v 0.3448196 0.1523448 0.6867899
v 0.2896689 -0.002402389 0.7300565
v 0.4535525 0.002498871 0.6865848
v 0.4940127 0.1019611 0.5273136
v 0.4922751 -0.002789932 0.6163627
v 0.4552243 0.002854782 0.4090495
v 0.3472513 -0.002789926 0.3599308
v 0.1751608 -0.002725876 0.3441007
v 0.128284 0.1595627 0.3452103
v -0.3676431 0.1507748 0.02072427
v -0.2563406 0.01756975 -0.1053756
v -0.369686 0.002430294 0.06455362
v -0.3300211 0.1833975 -0.1671395
v -0.2675571 0.0025054 -0.2248446
v -0.3860452 0.1469983 -0.3195614
v -0.4546274 0.001513189 -0.3654171
v -0.5976474 0.09626403 -0.3465621
v -0.6401321 0.001429403 -0.2643477
v -0.6501046 0.1568718 -0.2817293
v -0.6501046 0.1568718 -0.2817293
v -0.6501046 0.1568718 -0.2817293
v -0.5260861 0.1781349 -0.08343832
v -0.4769199 0.1076449 0.03729166
v -0.369686 0.002430294 0.06455362
v -0.6543784 0.002870441 -0.04785483
v -0.6753799 0.07279348 -0.1291744
v -0.6401321 0.001429403 -0.2643477
v -0.6543784 0.002870441 -0.04785483
v -0.1573105 -7.033378E-05 -0.6543795
v 0.064133 -0.000153274 -0.6550533
v -0.03811675 0.07203211 -0.6656588
v 0.1512351 0.05782603 -0.6145895
v -0.02052825 0.1263916 -0.6076461
v -0.1573105 -7.033378E-05 -0.6543795
v -0.186589 0.06922878 -0.6079611
v 0.1860849 0.06225133 -0.3184737
v 0.2279214 0.004707467 -0.3889913
v 0.1771554 -0.0003460764 -0.5556173
v 0.1512351 0.05782603 -0.6145895
v 0.152562 -0.0004728177 -0.2286971
v 0.103837 0.04886074 -0.1895785
v -0.02512847 0.004957399 -0.1561348
v -0.03004302 0.146876 -0.2490999
v -0.1122037 -0.0004583638 -0.2080306
v -0.1352249 0.125629 -0.2805575
v -0.2654251 0.001060307 -0.4099251
v -0.2471292 0.09820393 -0.4348568
v -0.2654251 0.001060307 -0.4099251
v -0.1573105 -7.033378E-05 -0.6543795
v 0.3334469 0.1582403 -0.10639
v 0.3032016 0.0001205083 -0.1410799
v 0.4097739 0.1495228 -0.2045431
v 0.445325 0.0003489247 -0.2293123
v 0.5260062 0.1132918 -0.1815145
v 0.5259091 6.71867E-05 -0.1832796
v 0.5855454 0.1265277 -0.06255942
v 0.5628018 0.0002588762 -0.09288168
v 0.4093234 0.2096735 -0.0965035
v 0.3334469 0.1582403 -0.10639
v 0.5282138 0.1767836 -0.05946494
v 0.5855454 0.1265277 -0.06255942
v 0.461727 0.002546699 0.06626504
v 0.4272079 0.119229 0.0298295
v 0.3335275 0.08453599 0.01547525
v 0.461727 0.002546699 0.06626504
v 0.3622458 6.406617E-05 0.021215
v 0.3032016 0.0001205083 -0.1410799
v 0.3334469 0.1582403 -0.10639
vt 0.5931455 0.8272063
vt 0.6100413 0.8626598
vt 0.6095194 0.8191556
vt 0.6282777 0.8714898
vt 0.6332877 0.8569298
vt 0.6532834 0.8667325
vt 0.665369 0.8543275
vt 0.6202397 0.8365427
vt 0.6095194 0.8191556
vt 0.6455249 0.8419049
vt 0.6367254 0.8224902
vt 0.6285798 0.8103195
vt 0.6508794 0.8293898
vt 0.6688438 0.8272482
vt 0.6526183 0.8094514
vt 0.6526183 0.8094514
vt 0.6496465 0.798663
vt 0.612509 0.7992052
vt 0.6095194 0.8191556
vt 0.6639798 0.8121818
vt 0.6526183 0.8094514
vt 0.6092649 0.8758523
vt 0.6446171 0.9152457
vt 0.6505911 0.8865326
vt 0.7030349 0.9169018
vt 0.6669061 0.9203818
vt 0.6692113 0.9421583
vt 0.6952067 0.9374974
vt 0.6895894 0.9680384
vt 0.6692113 0.9421583
vt 0.7152749 0.9251119
vt 0.6723534 0.9676326
vt 0.7154649 0.9613869
vt 0.7326282 0.9550009
vt 0.7254654 0.9813714
vt 0.7009599 0.9829226
vt 0.7167689 0.9889338
vt 0.6829839 0.9937458
vt 0.6687475 0.9838398
vt 0.6536624 0.9620153
vt 0.6692113 0.9421583
vt 0.5090491 0.9665562
vt 0.506251 0.9357009
vt 0.491275 0.9579062
vt 0.5236683 0.9483994
vt 0.5191578 0.9244441
vt 0.5399585 0.93932
vt 0.5545325 0.9260912
vt 0.5632922 0.9479415
vt 0.5783205 0.9441777
vt 0.5646672 0.9616435
vt 0.5646672 0.9616435
vt 0.5646672 0.9616435
vt 0.5348867 0.9690493
vt 0.5197412 0.9780675
vt 0.5037082 0.9872215
vt 0.5453463 0.9942239
vt 0.5528336 0.9817573
vt 0.5721909 0.9814402
vt 0.5453463 0.9942239
vt 0.441237 0.9144321
vt 0.4121763 0.9311869
vt 0.4289747 0.9287271
vt 0.4131308 0.9457377
vt 0.4326782 0.9378776
vt 0.441237 0.9144321
vt 0.4481924 0.9245402
vt 0.424831 0.9801348
vt 0.4122109 0.9768285
vt 0.4062883 0.9533605
vt 0.4131308 0.9457377
vt 0.4319315 0.9941209
vt 0.4409342 0.9888958
vt 0.4602701 0.9921039
vt 0.4527442 0.9727864
vt 0.47157 0.9825926
vt 0.4635631 0.9649103
vt 0.4817438 0.9458064
vt 0.4693256 0.9393963
vt 0.4765523 0.928058
vt 0.441237 0.9144321
vt 0.588308 0.933566
vt 0.5912434 0.9805381
vt 0.6085088 0.9490415
vt 0.6301866 0.9731371
vt 0.6335796 0.9434596
vt 0.6482548 0.9599316
vt 0.6446171 0.9152457
vt 0.6598113 0.9413038
vt 0.6057168 0.9289866
vt 0.588308 0.933566
vt 0.629411 0.9184503
vt 0.6446171 0.9152457
vt 0.6092649 0.8758523
vt 0.6065917 0.9010026
vt 0.5877396 0.9019784
vt 0.6092649 0.8758523
vt 0.5834941 0.8850461
vt 0.5549007 0.9178758
vt 0.588308 0.933566
vn -0.7112793 -0.1449068 -0.6878108
vn 0.2711011 0.285697 -0.9191743
vn -0.4571752 0.4017815 -0.7934497
vn 0.8615237 0.2631066 -0.4342256
vn 0.7952665 0.5952541 -0.1149943
vn 0.8500303 0.388655 0.3555221
vn 0.6836615 0.3853576 0.6197631
vn 0.1004484 0.7835473 -0.6131588
vn -0.4571752 0.4017815 -0.7934497
vn 0.5529538 0.7462533 0.3706051
vn -0.3757767 0.9148788 0.1476101
vn -0.9804921 0.1755791 0.08835911
vn 0.0009165005 0.5587688 0.8293229
vn 0.02032827 0.174126 0.9845135
vn -0.6929306 0.2134159 0.688695
vn -0.6929306 0.2134159 0.688695
vn -0.8383605 -0.3594174 0.4098424
vn -0.7112793 -0.1449068 -0.6878108
vn -0.4571752 0.4017815 -0.7934497
vn -0.8383605 -0.3594174 0.4098424
vn -0.6929306 0.2134159 0.688695
vn 0.4275351 0.1058657 0.8977785
vn 0.9089958 0.210057 0.3600038
vn 0.9570379 -0.2182292 0.1909302
vn -0.9400063 0.338645 -0.04132508
vn -0.5280919 -0.2057218 -0.8238917
vn -0.5803099 0.6317621 -0.5139234
vn -0.4584765 0.8415332 0.2856944
vn 0.2788798 0.9483057 -0.1514675
vn -0.5803099 0.6317621 -0.5139234
vn -0.5069792 0.5272961 0.6818583
vn 0.2588206 0.3819209 -0.8872138
vn 0.0485296 0.8017566 0.5956772
vn -0.1933612 0.327494 0.9248562
vn 0.5934894 0.4079162 0.6938118
vn 0.858085 0.5133507 0.01269988
vn 0.9825334 0.1107976 0.1495053
vn 0.7831403 0.2056671 -0.5868495
vn 0.2585865 -0.2568452 -0.9312161
vn -0.5280919 -0.2057218 -0.8238917
vn -0.5803099 0.6317621 -0.5139234
vn 0.4841984 0.6855735 0.5436368
vn 0.9065611 0.3663392 0.2096249
vn 0.3613112 0.10227 0.9268199
vn 0.4680812 0.8806667 -0.07298053
vn 0.8400676 0.2659683 -0.4728079
vn 0.3718165 0.6647106 -0.6480063
vn 0.2135917 0.03074339 -0.9764392
vn -0.3341547 0.1652416 -0.9279202
vn -0.8413474 -0.2752419 -0.4651627
vn -0.5182092 0.8222192 -0.2354038
vn -0.5182092 0.8222192 -0.2354038
vn -0.5182092 0.8222192 -0.2354038
vn -0.2756741 0.9329461 0.2315499
vn -0.3893915 0.3139179 0.8659272
vn 0.3613112 0.10227 0.9268199
vn -0.7043225 0.2798362 0.6523968
vn -0.8981943 0.3579915 0.2551255
vn -0.8413474 -0.2752419 -0.4651627
vn -0.7043225 0.2798362 0.6523968
vn -0.5133321 0.212176 -0.8315477
vn 0.264775 0.05788184 -0.9625716
vn -0.05436626 0.3605739 -0.9311449
vn 0.5216435 0.8053619 -0.2815679
vn 0.1332056 0.9703232 -0.2018146
vn -0.5133321 0.212176 -0.8315477
vn -0.6150028 0.5979791 -0.5139968
vn 0.5077258 0.8592535 0.06243239
vn 0.8062387 0.5901287 -0.04156227
vn 0.9124258 -0.008234772 -0.4091594
vn 0.5216435 0.8053619 -0.2815679
vn 0.7562368 0.147746 0.6373988
vn 0.406064 0.5611691 0.7212498
vn -0.1702842 0.4859373 0.8572446
vn 0.1344585 0.9721029 0.1921892
vn -0.6279297 0.3317182 0.7040364
vn -0.4558991 0.8398841 0.2945346
vn -0.9499548 0.1888496 0.2488406
vn -0.5474622 0.836256 -0.03100055
vn -0.9499548 0.1888496 0.2488406
vn -0.5133321 0.212176 -0.8315477
vn -0.8524729 0.514702 -0.09149732
vn -0.8982736 0.09694517 -0.4286095
vn -0.2474464 0.4684463 -0.8481323
vn -0.1753093 0.07491915 -0.9816586
vn 0.5974124 0.412294 -0.6878314
vn 0.7642151 -0.01148905 -0.6448591
vn 0.9089958 0.210057 0.3600038
vn 0.9570379 -0.2182292 0.1909302
vn -0.09229264 0.9936143 0.06490611
vn -0.8524729 0.514702 -0.09149732
vn 0.439604 0.8429292 0.3101914
vn 0.9089958 0.210057 0.3600038
vn 0.4275351 0.1058657 0.8977785
vn 0.03420883 0.5809702 0.8132057
vn -0.7969831 0.2696913 0.5404484
vn 0.4275351 0.1058657 0.8977785
vn -0.7389082 -0.2076534 0.6410107
vn -0.8982736 0.09694517 -0.4286095
vn -0.8524729 0.514702 -0.09149732
g decoRockCave02_0
f 3/3/3 2/2/2 1/1/1
f 5/5/5 4/4/4 2/2/2
f 5/5/5 6/6/6 4/4/4
f 7/7/7 6/6/6 5/5/5
f 2/2/2 8/8/8 5/5/5
f 8/8/8 2/2/2 9/9/9
f 10/10/10 7/7/7 5/5/5
f 5/5/5 8/8/8 10/10/10
f 11/11/11 8/8/8 9/9/9
f 10/10/10 8/8/8 11/11/11
f 11/11/11 9/9/9 12/12/12
f 13/13/13 7/7/7 10/10/10
f 13/13/13 10/10/10 11/11/11
f 13/13/13 14/14/14 7/7/7
f 13/13/13 11/11/11 15/15/15
f 14/14/14 13/13/13 15/15/15
f 12/12/12 16/16/16 11/11/11
f 12/12/12 17/17/17 16/16/16
f 12/12/12 18/18/18 17/17/17
f 19/19/19 18/18/18 12/12/12
f 21/21/21 20/20/20 14/14/14
f 24/24/24 23/23/23 22/22/22
f 27/27/27 26/26/26 25/25/25
f 29/29/29 27/27/27 28/28/28
f 30/30/30 25/25/25 28/28/28
f 28/28/28 25/25/25 31/31/31
f 30/30/30 29/29/29 32/32/32
f 31/31/31 33/33/33 28/28/28
f 33/33/33 29/29/29 28/28/28
f 31/31/31 34/34/34 33/33/33
f 34/34/34 35/35/35 33/33/33
f 33/33/33 35/35/35 36/36/36
f 36/36/36 29/29/29 33/33/33
f 36/36/36 35/35/35 37/37/37
f 37/37/37 38/38/38 36/36/36
f 29/29/29 36/36/36 38/38/38
f 38/38/38 32/32/32 29/29/29
f 39/39/39 32/32/32 38/38/38
f 39/39/39 40/40/40 32/32/32
f 32/32/32 40/40/40 41/41/41
f 44/44/44 43/43/43 42/42/42
f 45/45/45 42/42/42 43/43/43
f 45/45/45 43/43/43 46/46/46
f 46/46/46 47/47/47 45/45/45
f 47/47/47 46/46/46 48/48/48
f 47/47/47 48/48/48 49/49/49
f 48/48/48 50/50/50 49/49/49
f 50/50/50 51/51/51 49/49/49
f 49/49/49 52/52/52 47/47/47
f 47/47/47 53/53/53 45/45/45
f 54/54/54 42/42/42 45/45/45
f 53/53/53 54/54/54 45/45/45
f 42/42/42 54/54/54 55/55/55
f 42/42/42 55/55/55 56/56/56
f 57/57/57 56/56/56 55/55/55
f 54/54/54 57/57/57 55/55/55
f 58/58/58 54/54/54 53/53/53
f 53/53/53 59/59/59 58/58/58
f 60/60/60 54/54/54 58/58/58
f 59/59/59 60/60/60 58/58/58
f 63/63/63 62/62/62 61/61/61
f 64/64/64 62/62/62 63/63/63
f 63/63/63 65/65/65 64/64/64
f 65/65/65 63/63/63 66/66/66
f 67/67/67 65/65/65 66/66/66
f 65/65/65 68/68/68 64/64/64
f 64/64/64 68/68/68 69/69/69
f 64/64/64 69/69/69 70/70/70
f 62/62/62 71/71/71 70/70/70
f 72/72/72 69/69/69 68/68/68
f 73/73/73 72/72/72 68/68/68
f 73/73/73 74/74/74 72/72/72
f 68/68/68 75/75/75 73/73/73
f 73/73/73 75/75/75 74/74/74
f 75/75/75 68/68/68 65/65/65
f 76/76/76 74/74/74 75/75/75
f 77/77/77 76/76/76 75/75/75
f 65/65/65 77/77/77 75/75/75
f 78/78/78 76/76/76 77/77/77
f 79/79/79 78/78/78 77/77/77
f 79/79/79 77/77/77 65/65/65
f 79/79/79 65/65/65 67/67/67
f 67/67/67 80/80/80 79/79/79
f 67/67/67 81/81/81 80/80/80
f 84/84/84 83/83/83 82/82/82
f 85/85/85 83/83/83 84/84/84
f 85/85/85 84/84/84 86/86/86
f 87/87/87 85/85/85 86/86/86
f 88/88/88 87/87/87 86/86/86
f 89/89/89 87/87/87 88/88/88
f 84/84/84 90/90/90 86/86/86
f 91/91/91 90/90/90 84/84/84
f 90/90/90 92/92/92 86/86/86
f 92/92/92 93/93/93 86/86/86
f 92/92/92 94/94/94 93/93/93
f 95/95/95 90/90/90 91/91/91
f 90/90/90 95/95/95 92/92/92
f 92/92/92 95/95/95 94/94/94
f 91/91/91 96/96/96 95/95/95
f 95/95/95 96/96/96 94/94/94
f 96/96/96 98/98/98 97/97/97
f 99/99/99 98/98/98 96/96/96
f 99/99/99 96/96/96 100/100/100
