g decorPlat_COL
v 6.283964 0 -3.628048
v 5.828531 0.3644367 -3.365103
v 3.365103 0.3644367 -5.828531
v 3.628048 0 -6.283964
v 0 0.3644367 -6.730207
v 0 0 -7.256096
v -3.365103 0.3644367 -5.828531
v -3.628048 0 -6.283964
v -5.828531 0.3644367 -3.365103
v -6.283964 0 -3.628048
v -6.730207 0.3644367 0
v -7.256096 0 0
v -5.828531 0.3644367 3.365103
v -6.283964 0 3.628048
v -3.365103 0.3644367 5.828531
v -3.628048 0 6.283964
v 0 0.3644367 6.730207
v 0 0 7.256096
v 3.365103 0.3644367 5.828531
v 3.628048 0 6.283964
v 5.828531 0.3644367 3.365103
v 6.283964 0 3.628048
v 6.730207 0.3644367 0
v 7.256096 0 0
v 5.828531 0.3644367 -3.365103
v 6.283964 0 -3.628048
v 5.828531 0.3644367 -3.365103
v 0 0.5012435 0
v 3.365103 0.3644367 -5.828531
v 6.730207 0.3644367 0
v 0 0.3644367 -6.730207
v 5.828531 0.3644367 3.365103
v -3.365103 0.3644367 -5.828531
v 3.365103 0.3644367 5.828531
v -5.828531 0.3644367 -3.365103
v 0 0.3644367 6.730207
v -6.730207 0.3644367 0
v -3.365103 0.3644367 5.828531
v -5.828531 0.3644367 3.365103
vt 0.375 0.3125
vt 0.375 0.6884398
vt 0.3958333 0.6884398
vt 0.3958333 0.3125
vt 0.4166667 0.6884398
vt 0.4166667 0.3125
vt 0.4375 0.6884398
vt 0.4375 0.3125
vt 0.4583334 0.6884398
vt 0.4583334 0.3125
vt 0.4791667 0.6884398
vt 0.4791667 0.3125
vt 0.5000001 0.6884398
vt 0.5000001 0.3125
vt 0.5208334 0.6884398
vt 0.5208334 0.3125
vt 0.5416667 0.6884398
vt 0.5416667 0.3125
vt 0.5625 0.6884398
vt 0.5625 0.3125
vt 0.5833333 0.6884398
vt 0.5833333 0.3125
vt 0.6041666 0.6884398
vt 0.6041666 0.3125
vt 0.6249999 0.6884398
vt 0.6249999 0.3125
vt 0.6353165 0.921875
vt 0.5 0.8375
vt 0.578125 0.9790665
vt 0.65625 0.84375
vt 0.5 1
vt 0.6353165 0.765625
vt 0.421875 0.9790665
vt 0.578125 0.7084335
vt 0.3646835 0.921875
vt 0.5 0.6875
vt 0.34375 0.84375
vt 0.421875 0.7084335
vt 0.3646835 0.765625
vn 0.4932795 0.8219289 -0.284795
vn 0.1219885 0.9900295 -0.07043006
vn 0.07043006 0.9900295 -0.1219884
vn 0.2847949 0.821929 -0.4932792
vn 0 0.9900295 -0.1408601
vn 0 0.8219292 -0.5695898
vn -0.07043006 0.9900295 -0.1219884
vn -0.2847949 0.821929 -0.4932792
vn -0.1219885 0.9900295 -0.07043006
vn -0.4932794 0.821929 -0.284795
vn -0.1408601 0.9900295 0
vn -0.56959 0.8219289 0
vn -0.1219885 0.9900295 0.07043006
vn -0.4932795 0.8219289 0.284795
vn -0.07043006 0.9900295 0.1219884
vn -0.2847949 0.821929 0.4932792
vn 0 0.9900295 0.1408601
vn 0 0.8219292 0.5695898
vn 0.07043006 0.9900295 0.1219884
vn 0.2847949 0.821929 0.4932792
vn 0.1219885 0.9900295 0.07043006
vn 0.4932794 0.821929 0.284795
vn 0.1408601 0.9900295 0
vn 0.56959 0.8219289 0
vn 0.1219885 0.9900295 -0.07043006
vn 0.4932795 0.8219289 -0.284795
vn 0.1219885 0.9900295 -0.07043006
vn 0 1 0
vn 0.07043006 0.9900295 -0.1219884
vn 0.1408601 0.9900295 0
vn 0 0.9900295 -0.1408601
vn 0.1219885 0.9900295 0.07043006
vn -0.07043006 0.9900295 -0.1219884
vn 0.07043006 0.9900295 0.1219884
vn -0.1219885 0.9900295 -0.07043006
vn 0 0.9900295 0.1408601
vn -0.1408601 0.9900295 0
vn -0.07043006 0.9900295 0.1219884
vn -0.1219885 0.9900295 0.07043006
g decorPlat_COL_0
f 3/3/3 2/2/2 1/1/1
f 4/4/4 3/3/3 1/1/1
f 5/5/5 3/3/3 4/4/4
f 6/6/6 5/5/5 4/4/4
f 7/7/7 5/5/5 6/6/6
f 8/8/8 7/7/7 6/6/6
f 9/9/9 7/7/7 8/8/8
f 10/10/10 9/9/9 8/8/8
f 11/11/11 9/9/9 10/10/10
f 12/12/12 11/11/11 10/10/10
f 13/13/13 11/11/11 12/12/12
f 14/14/14 13/13/13 12/12/12
f 15/15/15 13/13/13 14/14/14
f 16/16/16 15/15/15 14/14/14
f 17/17/17 15/15/15 16/16/16
f 18/18/18 17/17/17 16/16/16
f 19/19/19 17/17/17 18/18/18
f 20/20/20 19/19/19 18/18/18
f 21/21/21 19/19/19 20/20/20
f 22/22/22 21/21/21 20/20/20
f 23/23/23 21/21/21 22/22/22
f 24/24/24 23/23/23 22/22/22
f 25/25/25 23/23/23 24/24/24
f 26/26/26 25/25/25 24/24/24
f 29/29/29 28/28/28 27/27/27
f 27/27/27 28/28/28 30/30/30
f 31/31/31 28/28/28 29/29/29
f 30/30/30 28/28/28 32/32/32
f 33/33/33 28/28/28 31/31/31
f 32/32/32 28/28/28 34/34/34
f 35/35/35 28/28/28 33/33/33
f 34/34/34 28/28/28 36/36/36
f 37/37/37 28/28/28 35/35/35
f 36/36/36 28/28/28 38/38/38
f 39/39/39 28/28/28 37/37/37
f 38/38/38 28/28/28 39/39/39
