g deluxCoop_pivot
v -0.08905283 -0.3979554 -0.03231141
v -0.09325612 -0.4375803 0.01389333
v -4.540198E-09 -0.4410363 0.00350597
v -4.249159E-09 -0.4012567 -0.04271293
v -0.0782995 -0.3803626 -0.02648736
v -3.831396E-09 -0.3802079 -0.03468764
v 0.08905192 -0.3979574 -0.0323107
v 0.09325521 -0.4375824 0.01389405
v 0.1377858 -0.3856863 0.02489814
v 0.0782995 -0.3803626 -0.02648736
v 0.1341392 -0.3506005 -0.01687909
v 0.1104227 -0.3435301 -0.01892773
v -0.1104246 -0.3435199 -0.01890582
v -0.0782995 -0.3803626 -0.02648736
v -0.134142 -0.3505883 -0.0168579
v -0.09325612 -0.4375803 0.01389333
v -0.1104427 0.1055207 -0.0186981
v -0.1377867 -0.3856843 0.02489742
v -0.1340975 0.1150453 -0.01256735
v -0.07751912 0.1381001 -0.0212417
v -0.1377241 0.1230719 0.02898028
v -0.08759183 0.1612358 -0.01685909
v -0.09113765 0.1700562 0.02395734
v 3.640016E-07 0.1650709 -0.0260709
v 3.635942E-07 0.1741426 0.01575308
v -0.08759183 0.1612358 -0.01685909
v -3.729772E-09 0.1378489 -0.03029273
v -0.07751912 0.1381001 -0.0212417
v 0.07849899 0.1378725 -0.02217374
v 0.08871731 0.1608658 -0.01776076
v 0.1105251 0.1047561 -0.01775429
v 0.09128325 0.1699139 0.0239877
v 0.1343252 0.1141385 -0.0115926
v 0.1378694 0.1229297 0.02901121
v 0.1377858 -0.3856863 0.02489814
v 0.1343252 0.1141385 -0.0115926
v 0.1341392 -0.3506005 -0.01687909
v 0.1104227 -0.3435301 -0.01892773
v 0.1105251 0.1047561 -0.01775429
v -0.07292473 -0.329694 -0.08556951
v -0.0782995 -0.3803626 -0.02648736
v -3.831396E-09 -0.3802079 -0.03468764
v -3.44606E-09 -0.3293414 -0.09378795
v 0.0782995 -0.3803626 -0.02648736
v -3.317837E-09 -0.286557 -0.1134541
v -0.07221482 -0.2859868 -0.105531
v -0.07291518 0.0893848 -0.1054541
v 0.07292473 -0.329694 -0.08556951
v 0.1104227 -0.3435301 -0.01892773
v 0.1057597 -0.2986658 -0.07234842
v 0.07221482 -0.2859868 -0.105531
v 0.1057597 -0.2986658 -0.07234842
v 0.07316598 0.08963705 -0.1054266
v 0.1059931 0.09351493 -0.06967447
v -3.317837E-09 0.08961261 -0.1134541
v -3.21449E-09 0.1262486 -0.08377317
v -0.07298508 0.1268215 -0.07343385
v 0.0752179 0.1263027 -0.07555769
v -3.729772E-09 0.1378489 -0.03029273
v -0.07751912 0.1381001 -0.0212417
v 0.07849899 0.1378725 -0.02217374
v 0.1105251 0.1047561 -0.01775429
v 0.1105251 0.1047561 -0.01775429
v 0.1057597 -0.2986658 -0.07234842
v 0.1104227 -0.3435301 -0.01892773
v -0.07298508 0.1268215 -0.07343385
v -0.07751912 0.1381001 -0.0212417
v -0.1104427 0.1055207 -0.0186981
v -0.1058054 0.09525705 -0.07182515
v -0.07291518 0.0893848 -0.1054541
v -0.07221482 -0.2859868 -0.105531
v -0.105764 -0.2986428 -0.07229847
v -0.1104246 -0.3435199 -0.01890582
v -0.07292473 -0.329694 -0.08556951
v -0.0782995 -0.3803626 -0.02648736
v 0.08241337 -0.3786159 0.01970854
v 0.08250279 -0.4199876 0.01971739
v -4.132744E-09 -0.4199876 0.01153126
v 0.1140693 -0.3786159 0.02284949
v -4.132744E-09 -0.3847301 0.01153126
v -0.08250279 -0.4199876 0.01971739
v -0.08241337 -0.3786159 0.01970851
v -0.1140693 -0.3786159 0.02284949
v 0.081158 0.1135473 0.01958396
v -4.132744E-09 0.1135473 0.01153123
v 0.1140693 0.1135473 0.02284949
v -0.081158 0.1135473 0.01958396
v 0.1377858 -0.3856863 0.02489814
v 0.09325521 -0.4375824 0.01389405
v 0.08250279 -0.4199876 0.01971739
v -4.540198E-09 -0.4410363 0.00350597
v -4.132744E-09 -0.4199876 0.01153126
v -0.09325612 -0.4375803 0.01389333
v -0.08250279 -0.4199876 0.01971739
v -0.1377867 -0.3856843 0.02489742
v 0.1378694 0.1229297 0.02901121
v -0.1377241 0.1230719 0.02898028
v 0.08106493 0.1469206 0.01957473
v 0.09128325 0.1699139 0.0239877
v -0.1140693 0.1135473 0.02284949
v -0.09113765 0.1700562 0.02395734
v -4.132744E-09 0.1469206 0.01153126
v 3.635942E-07 0.1741426 0.01575308
v -0.08106493 0.1469206 0.01957473
vt 0.25 0.7
vt 0.25 0.7
vt 0.25 0.7
vt 0.25 0.7
vt 0.25 0.7
vt 0.25 0.7
vt 0.25 0.7
vt 0.25 0.7
vt 0.25 0.7
vt 0.25 0.7
vt 0.25 0.7
vt 0.25 0.7
vt 0.25 0.7
vt 0.25 0.7
vt 0.25 0.7
vt 0.25 0.7
vt 0.25 0.7
vt 0.25 0.7
vt 0.25 0.7
vt 0.25 0.7
vt 0.25 0.7
vt 0.25 0.7
vt 0.25 0.7
vt 0.25 0.7
vt 0.25 0.7
vt 0.25 0.7
vt 0.25 0.7
vt 0.25 0.7
vt 0.25 0.7
vt 0.25 0.7
vt 0.25 0.7
vt 0.25 0.7
vt 0.25 0.7
vt 0.25 0.7
vt 0.25 0.7
vt 0.25 0.7
vt 0.25 0.7
vt 0.25 0.7
vt 0.25 0.7
vt 0.25 0.7
vt 0.25 0.7
vt 0.25 0.7
vt 0.25 0.7
vt 0.25 0.7
vt 0.25 0.7
vt 0.25 0.7
vt 0.25 0.7
vt 0.25 0.7
vt 0.25 0.7
vt 0.25 0.7
vt 0.25 0.7
vt 0.25 0.7
vt 0.25 0.7
vt 0.25 0.7
vt 0.25 0.7
vt 0.25 0.7
vt 0.25 0.7
vt 0.25 0.7
vt 0.25 0.7
vt 0.25 0.7
vt 0.25 0.7
vt 0.25 0.7
vt 0.25 0.7
vt 0.25 0.7
vt 0.25 0.7
vt 0.25 0.7
vt 0.25 0.7
vt 0.25 0.7
vt 0.25 0.7
vt 0.25 0.7
vt 0.25 0.7
vt 0.25 0.7
vt 0.25 0.7
vt 0.25 0.7
vt 0.25 0.7
vt 0.25 0.7
vt 0.25 0.7
vt 0.25 0.7
vt 0.25 0.7
vt 0.25 0.7
vt 0.25 0.7
vt 0.25 0.7
vt 0.25 0.7
vt 0.25 0.7
vt 0.25 0.7
vt 0.25 0.7
vt 0.25 0.7
vt 0.25 0.7
vt 0.25 0.7
vt 0.25 0.7
vt 0.25 0.7
vt 0.25 0.7
vt 0.25 0.7
vt 0.25 0.7
vt 0.25 0.7
vt 0.25 0.7
vt 0.25 0.7
vt 0.25 0.7
vt 0.25 0.7
vt 0.25 0.7
vt 0.25 0.7
vt 0.25 0.7
vt 0.25 0.7
vt 0.25 0.7
vn -0.3543155 -0.5571287 -0.7510448
vn -0.3441184 -0.699267 -0.6265845
vn 0 -0.756196 -0.6543452
vn 0 -0.5627255 -0.8266438
vn -0.07861214 0.3053872 -0.9489778
vn 0 0.3611538 -0.9325063
vn 0.3542929 -0.557202 -0.7510011
vn 0.3440953 -0.6993085 -0.6265509
vn 0.9645314 -0.1532261 -0.2149438
vn 0.07856333 0.3052638 -0.9490215
vn 0.9207228 -0.03842486 -0.3883207
vn 0.1575108 0.0299519 -0.987063
vn -0.1574766 0.02816222 -0.987121
vn -0.07861214 0.3053872 -0.9489778
vn -0.9221507 -0.03829901 -0.3849304
vn -0.3441184 -0.699267 -0.6265845
vn -0.1727898 0.01678003 -0.9848158
vn -0.9650132 -0.1517069 -0.2138566
vn -0.9115078 0.07093273 -0.4051197
vn -0.1435889 0.1330361 -0.9806548
vn -0.9897602 0.09602679 -0.1056105
vn -0.3297518 0.795812 -0.5078849
vn -0.3746357 0.9002154 -0.2219464
vn -0.001238619 0.8034549 -0.5953644
vn 0.00125929 0.9768291 -0.2140169
vn -0.3297518 0.795812 -0.5078849
vn -0.005098666 0.1480059 -0.9889733
vn -0.1435889 0.1330361 -0.9806548
vn 0.1460069 0.1252086 -0.9813281
vn 0.3345395 0.7925006 -0.5099275
vn 0.1756233 0.01564973 -0.9843332
vn 0.3712102 0.9017934 -0.2212957
vn 0.9115161 0.06982747 -0.4052932
vn 0.9895269 0.09799346 -0.1059896
vn 0.9645314 -0.1532261 -0.2149438
vn 0.9115161 0.06982747 -0.4052932
vn 0.9207228 -0.03842486 -0.3883207
vn 0.1575108 0.0299519 -0.987063
vn 0.1756233 0.01564973 -0.9843332
vn -0.2880035 -0.6314577 -0.7199411
vn -0.2977549 -0.7127658 -0.6350644
vn 0 -0.756968 -0.653452
vn 0 -0.6374581 -0.770485
vn 0.2975041 -0.7128682 -0.6350672
vn 0.0001013054 -0.04627276 -0.9989288
vn -0.3769326 -0.03408679 -0.9256133
vn -0.3680456 0.05604959 -0.9281169
vn 0.2878122 -0.631543 -0.7199428
vn 0.9702121 -0.1359679 -0.2005024
vn 0.9461774 -0.03710498 -0.3215147
vn 0.3844514 -0.0332762 -0.9225454
vn 0.9461774 -0.03710498 -0.3215147
vn 0.3712314 0.05626679 -0.926834
vn 0.9341571 0.04656164 -0.3538112
vn -0.0004007622 0.0711285 -0.9974672
vn -0.002818051 0.8557687 -0.5173509
vn -0.2502961 0.8633903 -0.4380744
vn 0.2595196 0.8572966 -0.4446258
vn 0.0003250985 0.9771556 -0.2125249
vn -0.3146175 0.9226704 -0.2229242
vn 0.3230161 0.919814 -0.2227166
vn 0.9917497 0.0773624 -0.1022134
vn 0.9917497 0.0773624 -0.1022134
vn 0.9461774 -0.03710498 -0.3215147
vn 0.9702121 -0.1359679 -0.2005024
vn -0.2502961 0.8633903 -0.4380744
vn -0.3146175 0.9226704 -0.2229242
vn -0.9914232 0.08046618 -0.1029816
vn -0.9333612 0.04905144 -0.3555712
vn -0.3680456 0.05604959 -0.9281169
vn -0.3769326 -0.03408679 -0.9256133
vn -0.9462184 -0.0374774 -0.3213506
vn -0.9705446 -0.1348645 -0.1996364
vn -0.2880035 -0.6314577 -0.7199411
vn -0.2977549 -0.7127658 -0.6350644
vn -0.09873757 0 0.9951136
vn -0.09873732 0 0.9951136
vn 0 0 1
vn -0.1256558 -0.009210519 0.9920311
vn 0 0 1
vn 0.09873752 0 0.9951136
vn 0.09873757 0 0.9951136
vn 0.1255301 -0.009216537 0.9920471
vn -0.09873755 0 0.9951136
vn 0 0 1
vn -0.1367407 -0.007204002 0.9905807
vn 0.09873755 0 0.9951136
vn -0.1555481 -0.01678828 0.9876857
vn -0.05155072 -0.2696784 0.9615696
vn -0.05500769 -0.277482 0.9591548
vn 0 -0.3598469 0.9330115
vn 0 -0.3598469 0.9330114
vn 0.05152582 -0.2697028 0.9615642
vn 0.0549881 -0.2775161 0.9591461
vn 0.1553713 -0.01682076 0.987713
vn -0.173587 -0.0137088 0.9847231
vn 0.1734589 -0.01378838 0.9847446
vn -0.1220665 -0.07936259 0.9893439
vn -0.1388618 -0.1315398 0.9815369
vn 0.136649 -0.007159377 0.9905937
vn 0.1382233 -0.1311105 0.9816845
vn -1.396274E-05 -0.0670616 0.9977488
vn 1.22453E-05 -0.1499128 0.9886993
vn 0.1219761 -0.07897656 0.989386
g deluxCoop_pivot_0
f 3/3/3 2/2/2 1/1/1
f 4/4/4 3/3/3 1/1/1
f 4/4/4 1/1/1 5/5/5
f 6/6/6 4/4/4 5/5/5
f 4/4/4 7/7/7 3/3/3
f 7/7/7 4/4/4 6/6/6
f 7/7/7 8/8/8 3/3/3
f 9/9/9 8/8/8 7/7/7
f 10/10/10 7/7/7 6/6/6
f 11/11/11 9/9/9 7/7/7
f 11/11/11 7/7/7 10/10/10
f 12/12/12 11/11/11 10/10/10
f 14/14/14 1/1/1 13/13/13
f 1/1/1 15/15/15 13/13/13
f 1/1/1 16/16/16 15/15/15
f 13/13/13 15/15/15 17/17/17
f 16/16/16 18/18/18 15/15/15
f 15/15/15 19/19/19 17/17/17
f 15/15/15 18/18/18 19/19/19
f 17/17/17 19/19/19 20/20/20
f 18/18/18 21/21/21 19/19/19
f 19/19/19 22/22/22 20/20/20
f 19/19/19 21/21/21 22/22/22
f 21/21/21 23/23/23 22/22/22
f 23/23/23 25/25/25 24/24/24
f 26/26/26 23/23/23 24/24/24
f 26/26/26 24/24/24 27/27/27
f 28/28/28 26/26/26 27/27/27
f 27/27/27 24/24/24 29/29/29
f 24/24/24 25/25/25 30/30/30
f 24/24/24 30/30/30 29/29/29
f 29/29/29 30/30/30 31/31/31
f 25/25/25 32/32/32 30/30/30
f 30/30/30 33/33/33 31/31/31
f 33/33/33 30/30/30 32/32/32
f 34/34/34 33/33/33 32/32/32
f 36/36/36 34/34/34 35/35/35
f 37/37/37 36/36/36 35/35/35
f 36/36/36 37/37/37 38/38/38
f 39/39/39 36/36/36 38/38/38
f 42/42/42 41/41/41 40/40/40
f 43/43/43 42/42/42 40/40/40
f 42/42/42 43/43/43 44/44/44
f 45/45/45 43/43/43 40/40/40
f 46/46/46 45/45/45 40/40/40
f 45/45/45 46/46/46 47/47/47
f 43/43/43 48/48/48 44/44/44
f 49/49/49 44/44/44 48/48/48
f 50/50/50 49/49/49 48/48/48
f 51/51/51 48/48/48 43/43/43
f 45/45/45 51/51/51 43/43/43
f 52/52/52 48/48/48 51/51/51
f 52/52/52 51/51/51 53/53/53
f 53/53/53 51/51/51 45/45/45
f 54/54/54 52/52/52 53/53/53
f 55/55/55 45/45/45 47/47/47
f 55/55/55 53/53/53 45/45/45
f 56/56/56 55/55/55 47/47/47
f 57/57/57 56/56/56 47/47/47
f 58/58/58 53/53/53 55/55/55
f 54/54/54 53/53/53 58/58/58
f 56/56/56 58/58/58 55/55/55
f 59/59/59 56/56/56 57/57/57
f 60/60/60 59/59/59 57/57/57
f 59/59/59 61/61/61 56/56/56
f 61/61/61 58/58/58 56/56/56
f 54/54/54 58/58/58 61/61/61
f 62/62/62 54/54/54 61/61/61
f 64/64/64 54/54/54 63/63/63
f 65/65/65 64/64/64 63/63/63
f 68/68/68 67/67/67 66/66/66
f 69/69/69 68/68/68 66/66/66
f 66/66/66 70/70/70 69/69/69
f 70/70/70 71/71/71 69/69/69
f 68/68/68 69/69/69 72/72/72
f 71/71/71 72/72/72 69/69/69
f 73/73/73 68/68/68 72/72/72
f 71/71/71 74/74/74 72/72/72
f 75/75/75 73/73/73 72/72/72
f 74/74/74 75/75/75 72/72/72
f 78/78/78 77/77/77 76/76/76
f 76/76/76 77/77/77 79/79/79
f 80/80/80 78/78/78 76/76/76
f 81/81/81 78/78/78 80/80/80
f 82/82/82 81/81/81 80/80/80
f 81/81/81 82/82/82 83/83/83
f 80/80/80 76/76/76 84/84/84
f 82/82/82 80/80/80 85/85/85
f 85/85/85 80/80/80 84/84/84
f 76/76/76 79/79/79 86/86/86
f 84/84/84 76/76/76 86/86/86
f 82/82/82 87/87/87 83/83/83
f 87/87/87 82/82/82 85/85/85
f 79/79/79 88/88/88 86/86/86
f 89/89/89 88/88/88 79/79/79
f 90/90/90 89/89/89 79/79/79
f 91/91/91 89/89/89 90/90/90
f 92/92/92 91/91/91 90/90/90
f 93/93/93 91/91/91 92/92/92
f 94/94/94 93/93/93 92/92/92
f 95/95/95 93/93/93 94/94/94
f 83/83/83 95/95/95 94/94/94
f 88/88/88 96/96/96 86/86/86
f 97/97/97 95/95/95 83/83/83
f 86/86/86 96/96/96 98/98/98
f 84/84/84 86/86/86 98/98/98
f 96/96/96 99/99/99 98/98/98
f 100/100/100 97/97/97 83/83/83
f 87/87/87 100/100/100 83/83/83
f 101/101/101 97/97/97 100/100/100
f 84/84/84 98/98/98 102/102/102
f 98/98/98 99/99/99 102/102/102
f 85/85/85 84/84/84 102/102/102
f 99/99/99 103/103/103 102/102/102
f 87/87/87 85/85/85 104/104/104
f 87/87/87 104/104/104 100/100/100
f 104/104/104 101/101/101 100/100/100
f 85/85/85 102/102/102 104/104/104
f 103/103/103 101/101/101 104/104/104
f 102/102/102 103/103/103 104/104/104
