g dervishRing_EX_LOD2
v -0.2969038 1.750777E-11 -0.2965053
v 0.1083294 1.884359E-11 -0.4053791
v 0.02153277 -0.1275083 -0.5037538
v -0.3040817 -0.1521811 -0.4110369
v -0.6430816 -4.485301E-13 -0.5151681
v -0.0401448 1.480771E-11 -0.7201937
v -0.6437783 1.617195E-11 -0.32533
v -0.4254972 -0.1275081 -0.2705246
v -0.7676884 8.970602E-13 0.2993413
v -0.4052328 1.818989E-11 0.1088737
v -0.508009 -0.1521811 0.05782424
v -0.6036332 1.617195E-11 0.3948634
v -0.4470295 -0.1275081 0.2332291
v -0.1246073 1.346478E-12 0.8145086
v -0.108329 1.884359E-11 0.4053788
v -0.2039273 -0.1521812 0.4688608
v 0.04014504 1.617195E-11 0.7201933
v -0.02153242 -0.1275081 0.5037537
v 0.6430818 4.485301E-13 0.5151676
v 0.296904 1.952571E-11 0.2965052
v 0.3040819 -0.1521812 0.4110367
v 0.6437784 1.617195E-11 0.32533
v 0.4254973 -0.1275083 0.2705245
v 0.4052331 1.884359E-11 -0.1088737
v 0.7676884 0 -0.2993413
v 0.5080091 -0.1521811 -0.05782419
v 0.4470301 -0.1275081 -0.2332292
v 0.6036336 1.480771E-11 -0.3948635
v 0.1083294 1.884359E-11 -0.4053791
v 0.1246081 -4.485301E-13 -0.8145092
v 0.2039278 -0.1521812 -0.468861
v 0.02153277 -0.1275083 -0.5037538
v -0.0401448 1.480771E-11 -0.7201937
v -0.2969038 1.750777E-11 -0.2965053
v 0.02153277 0.1275011 -0.5037538
v 0.1083294 1.884359E-11 -0.4053791
v -0.3040817 0.1521726 -0.4110369
v -0.6430816 -4.485301E-13 -0.5151681
v -0.0401448 1.480771E-11 -0.7201937
v -0.6437783 1.617195E-11 -0.32533
v -0.4254972 0.127501 -0.2705246
v -0.7676884 8.970602E-13 0.2993413
v -0.4052328 1.818989E-11 0.1088737
v -0.508009 0.1521726 0.05782424
v -0.6036332 1.617195E-11 0.3948634
v -0.4470295 0.127501 0.2332291
v -0.1246073 1.346478E-12 0.8145086
v -0.108329 1.884359E-11 0.4053788
v -0.2039273 0.1521727 0.4688608
v 0.04014504 1.617195E-11 0.7201933
v -0.02153242 0.127501 0.5037537
v 0.6430818 4.485301E-13 0.5151676
v 0.296904 1.952571E-11 0.2965052
v 0.3040819 0.1521727 0.4110367
v 0.6437784 1.617195E-11 0.32533
v 0.4254973 0.1275011 0.2705245
v 0.4052331 1.884359E-11 -0.1088737
v 0.7676884 0 -0.2993413
v 0.5080091 0.1521726 -0.05782419
v 0.4470301 0.127501 -0.2332292
v 0.6036336 1.480771E-11 -0.3948635
v 0.1083294 1.884359E-11 -0.4053791
v 0.1246081 -4.485301E-13 -0.8145092
v 0.2039278 0.1521727 -0.468861
v 0.02153277 0.1275011 -0.5037538
v -0.0401448 1.480771E-11 -0.7201937
vt -0.3419475 0.9903533
vt -0.5 0.9903536
vt -0.5 0.6294827
vt -0.3419474 0.6294827
vt -0.3419474 0.009646118
vt -0.5 0.009646118
vt -0.2583874 0.009646118
vt -0.2473305 0.6294827
vt 0.007538795 0.009646118
vt 0.01733284 0.9903535
vt -0.03081527 0.6294827
vt 0.0752148 0.009646118
vt 0.08627182 0.6294827
vt 0.3411408 0.009646118
vt 0.3509349 0.9903533
vt 0.3027869 0.6294827
vt 0.4088168 0.009646118
vt 0.4198739 0.6294827
vt 0.6747432 0.009646118
vt 0.6845372 0.9903535
vt 0.6363891 0.6294827
vt 0.7424191 0.009646118
vt 0.7534761 0.6294827
vt 1.018139 0.9903536
vt 1.008345 0.009646118
vt 0.9699912 0.6294827
vt 1.087078 0.6294827
vt 1.076021 0.009646118
vt 1.5 0.9903536
vt 1.341947 0.009646118
vt 1.336116 0.6294827
vt 1.5 0.6294827
vt 1.5 0.009646118
vt -0.3419475 0.9903533
vt -0.5 0.6294827
vt -0.5 0.9903536
vt -0.3419474 0.6294827
vt -0.3419474 0.009646118
vt -0.5 0.009646118
vt -0.2583874 0.009646118
vt -0.2473305 0.6294827
vt 0.007538795 0.009646118
vt 0.01733284 0.9903535
vt -0.03081527 0.6294827
vt 0.0752148 0.009646118
vt 0.08627182 0.6294827
vt 0.3411408 0.009646118
vt 0.3509349 0.9903533
vt 0.3027869 0.6294827
vt 0.4088168 0.009646118
vt 0.4198739 0.6294827
vt 0.6747432 0.009646118
vt 0.6845372 0.9903535
vt 0.6363891 0.6294827
vt 0.7424191 0.009646118
vt 0.7534761 0.6294827
vt 1.018139 0.9903536
vt 1.008345 0.009646118
vt 0.9699912 0.6294827
vt 1.087078 0.6294827
vt 1.076021 0.009646118
vt 1.5 0.9903536
vt 1.341947 0.009646118
vt 1.336116 0.6294827
vt 1.5 0.6294827
vt 1.5 0.009646118
vn 0.5172724 -0.6747245 0.526475
vn -0.1973044 -0.6747245 0.7112086
vn -0.05360438 -0.9912125 -0.1209309
vn -0.09590845 -0.9770226 -0.1903374
vn -0.2828329 -0.8928463 -0.3504727
vn -0.1451635 -0.8562815 -0.4956909
vn -0.5018628 -0.8562815 -0.1221297
vn -0.1315314 -0.9912125 -0.01404241
vn -0.4449352 -0.892846 0.06970426
vn 0.714577 -0.6747246 -0.1847337
vn -0.2127915 -0.9770225 -0.0121096
vn -0.3566991 -0.8562815 0.3735608
vn -0.07792683 -0.9912125 0.106888
vn -0.1621021 -0.8928461 0.420177
vn 0.1973044 -0.6747245 -0.7112087
vn -0.1168831 -0.9770226 0.1782279
vn 0.1451636 -0.8562814 0.4956911
vn 0.05360443 -0.9912125 0.1209309
vn 0.282833 -0.8928461 0.3504731
vn -0.5172727 -0.6747243 -0.5264751
vn 0.09590835 -0.9770225 0.1903378
vn 0.5018632 -0.8562813 0.1221297
vn 0.1315316 -0.9912125 0.01404219
vn -0.7145773 -0.6747244 0.1847335
vn 0.4449356 -0.8928458 -0.069704
vn 0.2127916 -0.9770225 0.01210959
vn 0.07792708 -0.9912125 -0.1068877
vn 0.3566996 -0.8562815 -0.3735604
vn -0.1973044 -0.6747245 0.7112086
vn 0.1621021 -0.8928462 -0.4201768
vn 0.1168829 -0.9770226 -0.1782276
vn -0.05360438 -0.9912125 -0.1209309
vn -0.1451635 -0.8562815 -0.4956909
vn 0.5172589 0.6747445 0.5264626
vn -0.05360085 0.9912136 -0.1209239
vn -0.1973002 0.6747445 0.7111908
vn -0.09590343 0.977025 -0.1903278
vn -0.282821 0.8928567 -0.3504558
vn -0.1451575 0.8562945 -0.4956705
vn -0.5018422 0.8562943 -0.1221246
vn -0.1315238 0.9912136 -0.01404199
vn -0.4449145 0.8928565 0.06970253
vn 0.7145594 0.6747445 -0.1847283
vn -0.2127808 0.9770249 -0.01210908
vn -0.3566844 0.8562943 0.3735454
vn -0.0779226 0.9912136 0.1068815
vn -0.1620933 0.8928566 0.4201583
vn 0.1973003 0.6747444 -0.7111909
vn -0.1168772 0.9770249 0.1782189
vn 0.1451577 0.8562943 0.4956707
vn 0.05360098 0.9912136 0.1209241
vn 0.2828212 0.8928565 0.3504561
vn -0.5172593 0.6747444 -0.5264627
vn 0.09590347 0.9770249 0.1903282
vn 0.5018425 0.8562942 0.1221247
vn 0.1315238 0.9912136 0.0140418
vn -0.7145597 0.6747444 0.184728
vn 0.444915 0.8928562 -0.06970228
vn 0.2127808 0.9770249 0.01210909
vn 0.0779229 0.9912136 -0.1068813
vn 0.356685 0.8562943 -0.373545
vn -0.1973002 0.6747445 0.7111908
vn 0.1620932 0.8928567 -0.4201581
vn 0.1168771 0.977025 -0.1782186
vn -0.05360085 0.9912136 -0.1209239
vn -0.1451575 0.8562945 -0.4956705
g dervishRing_EX_LOD2_0
f 3/3/3 2/2/2 1/1/1
f 4/4/4 3/3/3 1/1/1
f 4/4/4 5/5/5 3/3/3
f 5/5/5 6/6/6 3/3/3
f 7/7/7 5/5/5 4/4/4
f 8/8/8 4/4/4 1/1/1
f 8/8/8 7/7/7 4/4/4
f 9/9/9 7/7/7 8/8/8
f 8/8/8 1/1/1 10/10/10
f 11/11/11 9/9/9 8/8/8
f 11/11/11 8/8/8 10/10/10
f 12/12/12 9/9/9 11/11/11
f 13/13/13 11/11/11 10/10/10
f 13/13/13 12/12/12 11/11/11
f 14/14/14 12/12/12 13/13/13
f 13/13/13 10/10/10 15/15/15
f 16/16/16 14/14/14 13/13/13
f 16/16/16 13/13/13 15/15/15
f 17/17/17 14/14/14 16/16/16
f 18/18/18 16/16/16 15/15/15
f 18/18/18 17/17/17 16/16/16
f 19/19/19 17/17/17 18/18/18
f 18/18/18 15/15/15 20/20/20
f 21/21/21 19/19/19 18/18/18
f 21/21/21 18/18/18 20/20/20
f 22/22/22 19/19/19 21/21/21
f 23/23/23 21/21/21 20/20/20
f 23/23/23 22/22/22 21/21/21
f 23/23/23 20/20/20 24/24/24
f 25/25/25 22/22/22 23/23/23
f 26/26/26 23/23/23 24/24/24
f 26/26/26 25/25/25 23/23/23
f 24/24/24 27/27/27 26/26/26
f 26/26/26 27/27/27 25/25/25
f 27/27/27 28/28/28 25/25/25
f 27/27/27 24/24/24 29/29/29
f 30/30/30 28/28/28 27/27/27
f 31/31/31 27/27/27 29/29/29
f 31/31/31 30/30/30 27/27/27
f 32/32/32 31/31/31 29/29/29
f 33/33/33 30/30/30 31/31/31
f 32/32/32 33/33/33 31/31/31
f 36/36/36 35/35/35 34/34/34
f 35/35/35 37/37/37 34/34/34
f 38/38/38 37/37/37 35/35/35
f 39/39/39 38/38/38 35/35/35
f 38/38/38 40/40/40 37/37/37
f 37/37/37 41/41/41 34/34/34
f 40/40/40 41/41/41 37/37/37
f 40/40/40 42/42/42 41/41/41
f 34/34/34 41/41/41 43/43/43
f 42/42/42 44/44/44 41/41/41
f 41/41/41 44/44/44 43/43/43
f 42/42/42 45/45/45 44/44/44
f 44/44/44 46/46/46 43/43/43
f 45/45/45 46/46/46 44/44/44
f 45/45/45 47/47/47 46/46/46
f 43/43/43 46/46/46 48/48/48
f 47/47/47 49/49/49 46/46/46
f 46/46/46 49/49/49 48/48/48
f 47/47/47 50/50/50 49/49/49
f 49/49/49 51/51/51 48/48/48
f 50/50/50 51/51/51 49/49/49
f 50/50/50 52/52/52 51/51/51
f 48/48/48 51/51/51 53/53/53
f 52/52/52 54/54/54 51/51/51
f 51/51/51 54/54/54 53/53/53
f 52/52/52 55/55/55 54/54/54
f 54/54/54 56/56/56 53/53/53
f 55/55/55 56/56/56 54/54/54
f 53/53/53 56/56/56 57/57/57
f 55/55/55 58/58/58 56/56/56
f 56/56/56 59/59/59 57/57/57
f 58/58/58 59/59/59 56/56/56
f 60/60/60 57/57/57 59/59/59
f 60/60/60 59/59/59 58/58/58
f 61/61/61 60/60/60 58/58/58
f 57/57/57 60/60/60 62/62/62
f 61/61/61 63/63/63 60/60/60
f 60/60/60 64/64/64 62/62/62
f 63/63/63 64/64/64 60/60/60
f 64/64/64 65/65/65 62/62/62
f 63/63/63 66/66/66 64/64/64
f 66/66/66 65/65/65 64/64/64
