g dervishRing_LOD1
v 0.452426 -0.08292383 -0.187401
v 0.4897024 -0.008663595 9.061315E-17
v 0.4897024 -0.0994789 -9.061315E-17
v 0.452426 0.007949471 -0.187401
v 0.3462719 -0.04623544 -0.3462719
v 0.3462719 0.0447036 -0.3462719
v 0.187401 -0.009569436 -0.452426
v 0.187401 0.08135456 -0.452426
v -4.864756E-08 0.006966531 -0.4897024
v -4.864756E-08 0.09781694 -0.4897024
v -0.1874011 -0.009569436 -0.452426
v -0.1874011 0.08135456 -0.452426
v -0.346272 -0.04623544 -0.3462719
v -0.346272 0.0447036 -0.3462719
v -0.4524261 -0.08292383 -0.1874009
v -0.4524261 0.007949471 -0.1874009
v -0.4897024 -0.0994789 9.729513E-08
v -0.4897024 -0.008663595 9.729513E-08
v -0.452426 -0.08292383 0.1874011
v -0.452426 0.007949471 0.1874011
v -0.3462718 -0.04623544 0.346272
v -0.3462718 0.0447036 0.346272
v -0.1874008 -0.009569436 0.452426
v -0.1874008 0.08135456 0.452426
v 1.581046E-07 0.006966531 0.4897024
v 1.581046E-07 0.09781694 0.4897024
v 0.1874011 -0.009569436 0.452426
v 0.1874011 0.08135456 0.452426
v 0.346272 -0.04623544 0.3462718
v 0.346272 0.0447036 0.3462718
v 0.4524261 -0.08292383 0.1874008
v 0.4524261 0.007949471 0.1874008
v 0.4897024 -0.0994789 -9.061315E-17
v 0.4897024 -0.008663595 9.061315E-17
v 0.3123354 0.0194214 0.7540432
v 0.1874011 -0.009569436 0.452426
v 0.5771201 -0.03323242 0.5771195
v 0.346272 -0.04623544 0.3462718
v 0.7540436 -0.08628303 0.3123346
v 0.4524261 -0.08292383 0.1874008
v 0.8161707 -0.1042392 -9.061315E-17
v 0.4897024 -0.0994789 -9.061315E-17
v 4.135043E-07 0.03687155 0.8161706
v -0.1874008 -0.009569436 0.452426
v -0.3123346 0.0194214 0.7540435
v -0.3462718 -0.04623544 0.346272
v -0.5771196 -0.03323242 0.5771201
v -0.452426 -0.08292383 0.1874011
v -0.7540433 -0.08628303 0.3123353
v -0.4897024 -0.0994789 9.729513E-08
v -0.8161707 -0.1042392 2.918854E-07
v -0.4524261 -0.08292383 -0.1874009
v -0.7540435 -0.08628303 -0.3123347
v -0.346272 -0.04623544 -0.3462719
v -0.5771199 -0.03323242 -0.5771196
v -0.1874011 -0.009569436 -0.452426
v -0.3123351 0.0194214 -0.7540433
v -4.864756E-08 0.006966531 -0.4897024
v -1.216189E-07 0.03687155 -0.8161707
v 0.187401 -0.009569436 -0.452426
v 0.3123349 0.0194214 -0.7540434
v 0.3462719 -0.04623544 -0.3462719
v 0.5771198 -0.03323242 -0.5771199
v 0.452426 -0.08292383 -0.187401
v 0.7540434 -0.08628303 -0.312335
v 0.4897024 -0.0994789 -9.061315E-17
v 0.8161707 -0.1042392 -9.061315E-17
v 0.452426 0.007949471 -0.187401
v 0.8161707 -0.0390844 9.061315E-17
v 0.4897024 -0.008663595 9.061315E-17
v 0.7540434 -0.02112827 -0.312335
v 0.3462719 0.0447036 -0.3462719
v 0.5771198 0.03192234 -0.5771199
v 0.187401 0.08135456 -0.452426
v 0.3123349 0.08457619 -0.7540434
v -4.864756E-08 0.09781694 -0.4897024
v -1.216189E-07 0.1020263 -0.8161707
v -0.1874011 0.08135456 -0.452426
v -0.3123351 0.08457619 -0.7540433
v -0.346272 0.0447036 -0.3462719
v -0.5771199 0.03192234 -0.5771196
v -0.4524261 0.007949471 -0.1874009
v -0.7540435 -0.02112827 -0.3123347
v -0.4897024 -0.008663595 9.729513E-08
v -0.8161707 -0.0390844 2.918854E-07
v -0.452426 0.007949471 0.1874011
v -0.7540433 -0.02112827 0.3123353
v -0.3462718 0.0447036 0.346272
v -0.5771196 0.03192234 0.5771201
v -0.1874008 0.08135456 0.452426
v -0.3123346 0.08457619 0.7540435
v 4.135043E-07 0.1020263 0.8161706
v 0.1874011 0.08135456 0.452426
v 0.3123354 0.08457619 0.7540432
v 0.346272 0.0447036 0.3462718
v 0.5771201 0.03192234 0.5771195
v 0.4524261 0.007949471 0.1874008
v 0.7540436 -0.02112827 0.3123346
v 0.4897024 -0.008663595 9.061315E-17
v 0.8161707 -0.0390844 9.061315E-17
v -0.3123346 0.0194214 0.7540435
v -0.3123346 0.08457619 0.7540435
v 0.3123354 0.08457619 0.7540432
v -0.5771196 -0.03323242 0.5771201
v 0.3123354 0.0194214 0.7540432
v -0.5771196 0.03192234 0.5771201
v 0.5771201 0.03192234 0.5771195
v -0.7540433 -0.08628303 0.3123353
v 0.5771201 -0.03323242 0.5771195
v -0.7540433 -0.02112827 0.3123353
v 0.7540436 -0.02112827 0.3123346
v -0.8161707 -0.1042392 2.918854E-07
v 0.7540436 -0.08628303 0.3123346
v 0.8161707 -0.0390844 9.061315E-17
v 0.8161707 -0.1042392 -9.061315E-17
v -0.8161707 -0.0390844 2.918854E-07
v -0.7540435 -0.08628303 -0.3123347
v -0.7540435 -0.02112827 -0.3123347
v -0.5771199 -0.03323242 -0.5771196
v -0.5771199 0.03192234 -0.5771196
v -0.3123351 0.0194214 -0.7540433
v -0.3123351 0.08457619 -0.7540433
v -1.216189E-07 0.03687155 -0.8161707
v -1.216189E-07 0.1020263 -0.8161707
v 0.3123349 0.0194214 -0.7540434
v 0.3123349 0.08457619 -0.7540434
v 0.5771198 -0.03323242 -0.5771199
v 0.5771198 0.03192234 -0.5771199
v 0.7540434 -0.08628303 -0.312335
v 0.7540434 -0.02112827 -0.312335
v 0.8161707 -0.1042392 -9.061315E-17
v 0.8161707 -0.0390844 9.061315E-17
vt 1.370463 -3.804914E-08
vt 1.5 -4.371139E-08
vt 1.5 -4.371139E-08
vt 1.370463 -3.804914E-08
vt 1.246111 -3.261355E-08
vt 1.246111 -3.261355E-08
vt 1.121759 -2.717796E-08
vt 1.121759 -2.717796E-08
vt 0.9974074 -2.174237E-08
vt 0.9974074 -2.174237E-08
vt 0.8730556 -1.630678E-08
vt 0.8730556 -1.630678E-08
vt 0.7487037 -1.087118E-08
vt 0.7487037 -1.087118E-08
vt 0.6243519 -5.435592E-09
vt 0.6243519 -5.435592E-09
vt 0.4999999 1.302701E-15
vt 0.4999999 1.302701E-15
vt 0.3756481 5.435594E-09
vt 0.3756481 5.435594E-09
vt 0.2512962 1.087119E-08
vt 0.2512962 1.087119E-08
vt 0.1269444 1.630678E-08
vt 0.1269444 1.630678E-08
vt 0.002592504 2.174237E-08
vt 0.002592504 2.174237E-08
vt -0.1217592 2.717796E-08
vt -0.1217592 2.717796E-08
vt -0.2461112 3.261355E-08
vt -0.2461112 3.261355E-08
vt -0.3704629 3.804914E-08
vt -0.3704629 3.804914E-08
vt -0.5 4.371139E-08
vt -0.5 4.371139E-08
vt -0.1217592 1
vt -0.1217592 2.717796E-08
vt -0.2461112 1
vt -0.2461112 3.261355E-08
vt -0.3704629 1
vt -0.3704629 3.804914E-08
vt -0.5 1
vt -0.5 4.371139E-08
vt 0.002592623 1
vt 0.1269444 1.630678E-08
vt 0.1269445 1
vt 0.2512962 1.087119E-08
vt 0.2512963 1
vt 0.3756481 5.435594E-09
vt 0.3756482 1
vt 0.4999999 1.302701E-15
vt 0.5 1
vt 0.6243519 -5.435592E-09
vt 0.6243519 1
vt 0.7487037 -1.087118E-08
vt 0.7487037 1
vt 0.8730556 -1.630678E-08
vt 0.8730556 1
vt 0.9974074 -2.174237E-08
vt 0.9974074 1
vt 1.121759 -2.717796E-08
vt 1.121759 1
vt 1.246111 -3.261355E-08
vt 1.246111 0.9999999
vt 1.370463 -3.804914E-08
vt 1.370463 0.9999999
vt 1.5 -4.371139E-08
vt 1.5 0.9999999
vt 1.370463 -3.804914E-08
vt 1.5 0.9999999
vt 1.5 -4.371139E-08
vt 1.370463 0.9999999
vt 1.246111 -3.261355E-08
vt 1.246111 0.9999999
vt 1.121759 -2.717796E-08
vt 1.121759 1
vt 0.9974074 -2.174237E-08
vt 0.9974074 1
vt 0.8730556 -1.630678E-08
vt 0.8730556 1
vt 0.7487037 -1.087118E-08
vt 0.7487037 1
vt 0.6243519 -5.435592E-09
vt 0.6243519 1
vt 0.4999999 1.302701E-15
vt 0.5 1
vt 0.3756481 5.435594E-09
vt 0.3756482 1
vt 0.2512962 1.087119E-08
vt 0.2512963 1
vt 0.1269444 1.630678E-08
vt 0.1269445 1
vt 0.002592623 1
vt -0.1217592 2.717796E-08
vt -0.1217592 1
vt -0.2461112 3.261355E-08
vt -0.2461112 1
vt -0.3704629 3.804914E-08
vt -0.3704629 1
vt -0.5 4.371139E-08
vt -0.5 1
vt 0.1269445 1
vt 0.1269445 1
vt -0.1217592 1
vt 0.2512963 1
vt -0.1217592 1
vt 0.2512963 1
vt -0.2461112 1
vt 0.3756482 1
vt -0.2461112 1
vt 0.3756482 1
vt -0.3704629 1
vt 0.5 1
vt -0.3704629 1
vt -0.5 1
vt -0.5 1
vt 0.5 1
vt 0.6243519 1
vt 0.6243519 1
vt 0.7487037 1
vt 0.7487037 1
vt 0.8730556 1
vt 0.8730556 1
vt 0.9974074 1
vt 0.9974074 1
vt 1.121759 1
vt 1.121759 1
vt 1.246111 0.9999999
vt 1.246111 0.9999999
vt 1.370463 0.9999999
vt 1.370463 0.9999999
vt 1.5 0.9999999
vt 1.5 0.9999999
vn -0.217164 -0.9752074 -0.04254781
vn -0.09029288 0.9959152 0
vn -0.1969644 -0.9804106 0
vn -0.04659337 0.9870047 0.1537887
vn -0.2259225 -0.9738419 -0.02430889
vn 0.02412663 0.9737908 0.2261623
vn -0.1529057 -0.9871032 0.04740315
vn 0.04169117 0.9754032 0.2164495
vn 0 -0.9958065 0.09148447
vn 0 0.980624 0.1958993
vn 0.1529056 -0.9871032 0.04740315
vn -0.04169112 0.9754033 0.2164493
vn 0.2259224 -0.9738419 -0.0243089
vn -0.02412647 0.9737908 0.2261622
vn 0.2171639 -0.9752074 -0.04254797
vn 0.04659346 0.9870046 0.1537887
vn 0.1969644 -0.9804106 0
vn 0.09029284 0.9959152 0
vn 0.217164 -0.9752074 0.04254776
vn 0.04659329 0.9870047 -0.1537888
vn 0.2259225 -0.9738419 0.02430875
vn -0.02412674 0.9737908 -0.2261622
vn 0.1529057 -0.9871032 -0.04740323
vn -0.04169128 0.9754033 -0.2164494
vn 0 -0.9958065 -0.09148454
vn 0 0.980624 -0.1958991
vn -0.1529057 -0.9871032 -0.04740303
vn 0.04169107 0.9754033 -0.2164494
vn -0.2259225 -0.9738419 0.0243089
vn 0.02412644 0.9737908 -0.2261623
vn -0.2171639 -0.9752074 0.04254797
vn -0.04659344 0.9870046 -0.1537888
vn -0.1969644 -0.9804106 0
vn -0.09029288 0.9959152 0
vn 0.03579126 -0.9282092 0.3703332
vn -0.1529057 -0.9871032 -0.04740303
vn 0.1014664 -0.9388608 0.3290059
vn -0.2259225 -0.9738419 0.0243089
vn 0.1921888 -0.9602256 0.2025588
vn -0.2171639 -0.9752074 0.04254797
vn 0.2419274 -0.9702944 0
vn -0.1969644 -0.9804106 0
vn 0 -0.9287614 0.3706781
vn 0.1529057 -0.9871032 -0.04740323
vn -0.03579084 -0.9282092 0.3703333
vn 0.2259225 -0.9738419 0.02430875
vn -0.1014659 -0.938861 0.329006
vn 0.217164 -0.9752074 0.04254776
vn -0.1921887 -0.9602258 0.2025589
vn 0.1969644 -0.9804106 0
vn -0.2419275 -0.9702944 0
vn 0.2171639 -0.9752074 -0.04254797
vn -0.1921889 -0.9602256 -0.2025588
vn 0.2259224 -0.9738419 -0.0243089
vn -0.1014663 -0.9388608 -0.3290059
vn 0.1529056 -0.9871032 0.04740315
vn -0.03579119 -0.9282092 -0.3703332
vn 0 -0.9958065 0.09148447
vn 0 -0.9287614 -0.3706782
vn -0.1529057 -0.9871032 0.04740315
vn 0.03579099 -0.9282092 -0.3703333
vn -0.2259225 -0.9738419 -0.02430889
vn 0.1014661 -0.9388608 -0.329006
vn -0.217164 -0.9752074 -0.04254781
vn 0.1921888 -0.9602258 -0.2025588
vn -0.1969644 -0.9804106 0
vn 0.2419274 -0.9702944 0
vn -0.04659337 0.9870047 0.1537887
vn 0.3718596 0.928289 0
vn -0.09029288 0.9959152 0
vn 0.3708985 0.9280152 -0.03495801
vn 0.02412663 0.9737908 0.2261623
vn 0.3287076 0.9390078 -0.1010724
vn 0.04169117 0.9754032 0.2164495
vn 0.201769 0.9602423 -0.1929351
vn 0 0.980624 0.1958993
vn 0 0.9699399 -0.2433446
vn -0.04169112 0.9754033 0.2164493
vn -0.201769 0.9602423 -0.1929352
vn -0.02412647 0.9737908 0.2261622
vn -0.3287077 0.9390079 -0.1010723
vn 0.04659346 0.9870046 0.1537887
vn -0.3708984 0.9280154 -0.0349579
vn 0.09029284 0.9959152 0
vn -0.3718595 0.928289 0
vn 0.04659329 0.9870047 -0.1537888
vn -0.3708984 0.9280154 0.03495807
vn -0.02412674 0.9737908 -0.2261622
vn -0.3287076 0.9390079 0.1010724
vn -0.04169128 0.9754033 -0.2164494
vn -0.2017689 0.9602423 0.1929352
vn 0 0.9699399 0.2433446
vn 0.04169107 0.9754033 -0.2164494
vn 0.2017691 0.9602423 0.192935
vn 0.02412644 0.9737908 -0.2261623
vn 0.3287077 0.9390079 0.1010722
vn -0.04659344 0.9870046 -0.1537888
vn 0.3708984 0.9280154 0.03495781
vn -0.09029288 0.9959152 0
vn 0.3718596 0.928289 0
vn -0.03579084 -0.9282092 0.3703333
vn -0.2017689 0.9602423 0.1929352
vn 0.2017691 0.9602423 0.192935
vn -0.1014659 -0.938861 0.329006
vn 0.03579126 -0.9282092 0.3703332
vn -0.3287076 0.9390079 0.1010724
vn 0.3287077 0.9390079 0.1010722
vn -0.1921887 -0.9602258 0.2025589
vn 0.1014664 -0.9388608 0.3290059
vn -0.3708984 0.9280154 0.03495807
vn 0.3708984 0.9280154 0.03495781
vn -0.2419275 -0.9702944 0
vn 0.1921888 -0.9602256 0.2025588
vn 0.3718596 0.928289 0
vn 0.2419274 -0.9702944 0
vn -0.3718595 0.928289 0
vn -0.1921889 -0.9602256 -0.2025588
vn -0.3708984 0.9280154 -0.0349579
vn -0.1014663 -0.9388608 -0.3290059
vn -0.3287077 0.9390079 -0.1010723
vn -0.03579119 -0.9282092 -0.3703332
vn -0.201769 0.9602423 -0.1929352
vn 0 -0.9287614 -0.3706782
vn 0 0.9699399 -0.2433446
vn 0.03579099 -0.9282092 -0.3703333
vn 0.201769 0.9602423 -0.1929351
vn 0.1014661 -0.9388608 -0.329006
vn 0.3287076 0.9390078 -0.1010724
vn 0.1921888 -0.9602258 -0.2025588
vn 0.3708985 0.9280152 -0.03495801
vn 0.2419274 -0.9702944 0
vn 0.3718596 0.928289 0
g dervishRing_LOD1_0
f 3/3/3 2/2/2 1/1/1
f 2/2/2 4/4/4 1/1/1
f 1/1/1 4/4/4 5/5/5
f 4/4/4 6/6/6 5/5/5
f 5/5/5 6/6/6 7/7/7
f 6/6/6 8/8/8 7/7/7
f 7/7/7 8/8/8 9/9/9
f 8/8/8 10/10/10 9/9/9
f 9/9/9 10/10/10 11/11/11
f 10/10/10 12/12/12 11/11/11
f 11/11/11 12/12/12 13/13/13
f 12/12/12 14/14/14 13/13/13
f 13/13/13 14/14/14 15/15/15
f 14/14/14 16/16/16 15/15/15
f 15/15/15 16/16/16 17/17/17
f 16/16/16 18/18/18 17/17/17
f 17/17/17 18/18/18 19/19/19
f 18/18/18 20/20/20 19/19/19
f 19/19/19 20/20/20 21/21/21
f 20/20/20 22/22/22 21/21/21
f 21/21/21 22/22/22 23/23/23
f 22/22/22 24/24/24 23/23/23
f 23/23/23 24/24/24 25/25/25
f 24/24/24 26/26/26 25/25/25
f 25/25/25 26/26/26 27/27/27
f 26/26/26 28/28/28 27/27/27
f 27/27/27 28/28/28 29/29/29
f 28/28/28 30/30/30 29/29/29
f 29/29/29 30/30/30 31/31/31
f 30/30/30 32/32/32 31/31/31
f 31/31/31 32/32/32 33/33/33
f 32/32/32 34/34/34 33/33/33
f 25/25/25 36/36/36 35/35/35
f 35/35/35 36/36/36 37/37/37
f 36/36/36 38/38/38 37/37/37
f 37/37/37 38/38/38 39/39/39
f 38/38/38 40/40/40 39/39/39
f 39/39/39 40/40/40 41/41/41
f 40/40/40 42/42/42 41/41/41
f 43/43/43 25/25/25 35/35/35
f 44/44/44 25/25/25 43/43/43
f 45/45/45 44/44/44 43/43/43
f 46/46/46 44/44/44 45/45/45
f 47/47/47 46/46/46 45/45/45
f 48/48/48 46/46/46 47/47/47
f 49/49/49 48/48/48 47/47/47
f 50/50/50 48/48/48 49/49/49
f 51/51/51 50/50/50 49/49/49
f 52/52/52 50/50/50 51/51/51
f 53/53/53 52/52/52 51/51/51
f 54/54/54 52/52/52 53/53/53
f 55/55/55 54/54/54 53/53/53
f 56/56/56 54/54/54 55/55/55
f 57/57/57 56/56/56 55/55/55
f 58/58/58 56/56/56 57/57/57
f 59/59/59 58/58/58 57/57/57
f 60/60/60 58/58/58 59/59/59
f 61/61/61 60/60/60 59/59/59
f 62/62/62 60/60/60 61/61/61
f 63/63/63 62/62/62 61/61/61
f 64/64/64 62/62/62 63/63/63
f 65/65/65 64/64/64 63/63/63
f 66/66/66 64/64/64 65/65/65
f 67/67/67 66/66/66 65/65/65
f 70/70/70 69/69/69 68/68/68
f 69/69/69 71/71/71 68/68/68
f 68/68/68 71/71/71 72/72/72
f 71/71/71 73/73/73 72/72/72
f 72/72/72 73/73/73 74/74/74
f 73/73/73 75/75/75 74/74/74
f 74/74/74 75/75/75 76/76/76
f 75/75/75 77/77/77 76/76/76
f 76/76/76 77/77/77 78/78/78
f 77/77/77 79/79/79 78/78/78
f 78/78/78 79/79/79 80/80/80
f 79/79/79 81/81/81 80/80/80
f 80/80/80 81/81/81 82/82/82
f 81/81/81 83/83/83 82/82/82
f 82/82/82 83/83/83 84/84/84
f 83/83/83 85/85/85 84/84/84
f 84/84/84 85/85/85 86/86/86
f 85/85/85 87/87/87 86/86/86
f 86/86/86 87/87/87 88/88/88
f 87/87/87 89/89/89 88/88/88
f 88/88/88 89/89/89 90/90/90
f 89/89/89 91/91/91 90/90/90
f 90/90/90 91/91/91 26/26/26
f 91/91/91 92/92/92 26/26/26
f 26/26/26 92/92/92 93/93/93
f 92/92/92 94/94/94 93/93/93
f 93/93/93 94/94/94 95/95/95
f 94/94/94 96/96/96 95/95/95
f 95/95/95 96/96/96 97/97/97
f 96/96/96 98/98/98 97/97/97
f 97/97/97 98/98/98 99/99/99
f 98/98/98 100/100/100 99/99/99
f 101/101/101 43/43/43 92/92/92
f 102/102/102 101/101/101 92/92/92
f 92/92/92 43/43/43 103/103/103
f 104/104/104 101/101/101 102/102/102
f 43/43/43 105/105/105 103/103/103
f 106/106/106 104/104/104 102/102/102
f 103/103/103 105/105/105 107/107/107
f 108/108/108 104/104/104 106/106/106
f 105/105/105 109/109/109 107/107/107
f 110/110/110 108/108/108 106/106/106
f 107/107/107 109/109/109 111/111/111
f 112/112/112 108/108/108 110/110/110
f 109/109/109 113/113/113 111/111/111
f 111/111/111 113/113/113 114/114/114
f 113/113/113 115/115/115 114/114/114
f 116/116/116 112/112/112 110/110/110
f 117/117/117 112/112/112 116/116/116
f 118/118/118 117/117/117 116/116/116
f 119/119/119 117/117/117 118/118/118
f 120/120/120 119/119/119 118/118/118
f 121/121/121 119/119/119 120/120/120
f 122/122/122 121/121/121 120/120/120
f 123/123/123 121/121/121 122/122/122
f 124/124/124 123/123/123 122/122/122
f 125/125/125 123/123/123 124/124/124
f 126/126/126 125/125/125 124/124/124
f 127/127/127 125/125/125 126/126/126
f 128/128/128 127/127/127 126/126/126
f 129/129/129 127/127/127 128/128/128
f 130/130/130 129/129/129 128/128/128
f 131/131/131 129/129/129 130/130/130
f 132/132/132 131/131/131 130/130/130
