g desert_tree_trunk02_COL
v -1.911405 10.61473 1.692846
v -2.164479 9.588867 1.599921
v -1.676105 9.279488 0.987503
v -1.533893 7.097005 1.103683
v -1.301548 7.290728 0.8534513
v 0.4860772 4.269941 -0.5797484
v 0.2650008 4.092954 -0.2922412
v 0.2747043 0.8151692 -0.9227247
v -1.219223 7.060943 1.33033
v -1.711597 9.823404 2.135573
v -1.911405 10.61473 1.692846
v -0.3260158 1.036152 -0.2000745
v 0.5189224 4.246831 -0.03945941
v -0.9652663 7.165338 1.035531
v -1.133997 9.759872 1.595003
v -1.911405 10.61473 1.692846
v 0.8819788 4.588404 -0.3267068
v 0.1049762 0.9553656 0.5389345
v 1.081705 1.112685 -0.2019944
v 0.612376 -0.3881597 0.05897053
v 0.03025216 -0.3158223 0.6512947
v -0.5080736 -0.2738148 0.07546791
v 0.03033933 -0.3970313 -0.5228536
v -1.911405 10.61473 1.692846
v -1.676105 9.279488 0.987503
v -1.133997 9.759872 1.595003
v -0.9652663 7.165338 1.035531
v -1.301548 7.290728 0.8534513
v 0.4860772 4.269941 -0.5797484
v 0.8819788 4.588404 -0.3267068
v 0.2747043 0.8151692 -0.9227247
v 1.081705 1.112685 -0.2019944
v 0.612376 -0.3881597 0.05897053
v 0.03033933 -0.3970313 -0.5228536
v 0.03033933 -0.3970313 -0.5228536
v -0.5080736 -0.2738148 0.07546791
v 0.02239933 -0.5967524 0.1122487
v 0.612376 -0.3881597 0.05897053
v 0.03025216 -0.3158223 0.6512947
vt 0.4503795 0.9172976
vt 0.46875 0.6525367
vt 0.40625 0.6525367
vt 0.46875 0.5539935
vt 0.40625 0.5539935
vt 0.40625 0.4848653
vt 0.46875 0.4848653
vt 0.40625 0.389027
vt 0.53125 0.5539935
vt 0.53125 0.6525367
vt 0.4243379 0.7920149
vt 0.46875 0.389027
vt 0.53125 0.4848653
vt 0.59375 0.5539935
vt 0.59375 0.6525367
vt 0.5496205 0.7659732
vt 0.59375 0.4848653
vt 0.53125 0.389027
vt 0.59375 0.389027
vt 0.59375 0.3125
vt 0.53125 0.3125
vt 0.46875 0.3125
vt 0.40625 0.3125
vt 0.5504414 0.8737714
vt 0.40625 0.6525367
vt 0.59375 0.6525367
vt 0.59375 0.5539935
vt 0.40625 0.5539935
vt 0.40625 0.4848653
vt 0.59375 0.4848653
vt 0.40625 0.389027
vt 0.59375 0.389027
vt 0.59375 0.3125
vt 0.40625 0.3125
vt 0.5 1.490116E-08
vt 0.34375 0.15625
vt 0.5 0.1513021
vt 0.65625 0.15625
vt 0.5 0.3125
vn -0.08793754 0.9534839 -0.2883323
vn -0.9433221 -0.199518 0.265209
vn -0.07141187 0.1376184 -0.9879076
vn -0.9149786 -0.3916736 0.0969848
vn -0.2069674 0.1503719 -0.9667226
vn 0.1025228 0.1463204 -0.9839102
vn -0.9918916 -0.005885147 -0.1269498
vn 0.02749742 -0.06943651 -0.9972073
vn 0.08632787 -0.3292018 0.9403052
vn 0.06785758 -0.1190294 0.9905692
vn -0.08793754 0.9534839 -0.2883323
vn -0.9833084 0.1466016 -0.107762
vn 0.2512006 -0.04185561 0.9670296
vn 0.9391842 0.3373903 0.06403588
vn 0.9724846 0.1588718 0.1703918
vn -0.08793754 0.9534839 -0.2883323
vn 0.9425342 0.329053 -0.0579083
vn 0.00771705 0.1323941 0.9911671
vn 0.999498 -0.02340755 0.021349
vn 0.9380496 -0.3206852 0.1312407
vn 0.05316809 -0.01861862 0.998412
vn -0.9997285 -0.01934351 -0.01299283
vn -0.02646744 -0.3692135 -0.9289677
vn -0.08793754 0.9534839 -0.2883323
vn -0.07141187 0.1376184 -0.9879076
vn 0.9724846 0.1588718 0.1703918
vn 0.9391842 0.3373903 0.06403588
vn -0.2069674 0.1503719 -0.9667226
vn 0.1025228 0.1463204 -0.9839102
vn 0.9425342 0.329053 -0.0579083
vn 0.02749742 -0.06943651 -0.9972073
vn 0.999498 -0.02340755 0.021349
vn 0.9380496 -0.3206852 0.1312407
vn -0.02646744 -0.3692135 -0.9289677
vn -0.02646744 -0.3692135 -0.9289677
vn -0.9997285 -0.01934351 -0.01299283
vn -0.09189569 -0.9926842 0.07831548
vn 0.9380496 -0.3206852 0.1312407
vn 0.05316809 -0.01861862 0.998412
g desert_tree_trunk02_COL_0
f 3/3/3 2/2/2 1/1/1
f 4/4/4 2/2/2 3/3/3
f 5/5/5 4/4/4 3/3/3
f 5/5/5 6/6/6 4/4/4
f 6/6/6 7/7/7 4/4/4
f 6/6/6 8/8/8 7/7/7
f 4/4/4 9/9/9 2/2/2
f 4/4/4 7/7/7 9/9/9
f 9/9/9 10/10/10 2/2/2
f 2/2/2 10/10/10 11/11/11
f 8/8/8 12/12/12 7/7/7
f 7/7/7 13/13/13 9/9/9
f 7/7/7 12/12/12 13/13/13
f 9/9/9 14/14/14 10/10/10
f 9/9/9 13/13/13 14/14/14
f 14/14/14 15/15/15 10/10/10
f 10/10/10 15/15/15 16/16/16
f 13/13/13 17/17/17 14/14/14
f 13/13/13 18/18/18 17/17/17
f 12/12/12 18/18/18 13/13/13
f 18/18/18 19/19/19 17/17/17
f 20/20/20 19/19/19 18/18/18
f 21/21/21 20/20/20 18/18/18
f 21/21/21 18/18/18 12/12/12
f 22/22/22 21/21/21 12/12/12
f 22/22/22 12/12/12 8/8/8
f 23/23/23 22/22/22 8/8/8
f 26/26/26 25/25/25 24/24/24
f 26/26/26 27/27/27 25/25/25
f 27/27/27 28/28/28 25/25/25
f 29/29/29 28/28/28 27/27/27
f 30/30/30 29/29/29 27/27/27
f 31/31/31 29/29/29 30/30/30
f 32/32/32 31/31/31 30/30/30
f 32/32/32 33/33/33 31/31/31
f 33/33/33 34/34/34 31/31/31
f 37/37/37 36/36/36 35/35/35
f 38/38/38 37/37/37 35/35/35
f 37/37/37 39/39/39 36/36/36
f 37/37/37 38/38/38 39/39/39
