g desert_tree_base_COL
v 0.6372562 0.2500278 -0.9963933
v 0.5116531 2.092885 -0.5403053
v -0.05589969 1.95994 -0.741435
v -0.3274523 0.3431448 -1.466673
v -0.2357016 -0.124213 0.002248779
v -1.39792 0.2712479 -0.959731
v -0.5946772 1.919356 -0.553958
v -0.05589969 1.95994 -0.741435
v -1.839738 0.2316593 -0.609839
v -0.7908919 1.833805 -0.009343955
v -1.781597 0.2585132 -0.09845085
v -1.200979 0.2884131 0.9800602
v -0.2005875 0.2737892 1.276026
v -0.5856467 1.938357 0.5597442
v -0.7908919 1.833805 -0.009343955
v -0.02161288 1.966812 0.7685457
v -0.2005875 0.2737892 1.276026
v -0.2005875 0.2737892 1.276026
v -0.02161288 1.966812 0.7685457
v 0.5590311 2.060089 0.5706012
v 0.815181 0.2571413 1.036361
v 0.7343319 2.036457 0.01458159
v 1.206676 0.1924811 -0.04320074
v -0.2357016 -0.124213 0.002248779
v -0.2005875 0.2737892 1.276026
v 0.6372562 0.2500278 -0.9963933
v 0.5116531 2.092885 -0.5403053
v 0.7343319 2.036457 0.01458159
v 0.5116531 2.092885 -0.5403053
v 0.0271558 2.576941 0.007614858
v -0.05589969 1.95994 -0.741435
v 0.7343319 2.036457 0.01458159
v -0.05589969 1.95994 -0.741435
v 0.0271558 2.576941 0.007614858
v -0.5946772 1.919356 -0.553958
v -0.7908919 1.833805 -0.009343955
v -0.02161288 1.966812 0.7685457
v 0.5590311 2.060089 0.5706012
v 0.7343319 2.036457 0.01458159
v -0.7908919 1.833805 -0.009343955
v 0.0271558 2.576941 0.007614858
v -0.5856467 1.938357 0.5597442
v -0.02161288 1.966812 0.7685457
vt 0.375 0.3598844
vt 0.375 0.6884398
vt 0.3984375 0.6884398
vt 0.40625 0.3598844
vt 0.5 0.1513021
vt 0.4375 0.3598844
vt 0.4375 0.6884398
vt 0.421875 0.6884398
vt 0.453125 0.3598844
vt 0.4609375 0.6884398
vt 0.46875 0.3598844
vt 0.5 0.3598844
vt 0.5234375 0.3598844
vt 0.5 0.6884398
vt 0.484375 0.6884398
vt 0.5234375 0.6884398
vt 0.5234375 0.3598844
vt 0.546875 0.3598844
vt 0.546875 0.6884398
vt 0.5625 0.6884398
vt 0.5625 0.3598844
vt 0.5859375 0.6884398
vt 0.59375 0.3598844
vt 0.5 0.1513021
vt 0.546875 0.3598844
vt 0.625 0.3598844
vt 0.625 0.6884398
vt 0.609375 0.6884398
vt 0.6104854 0.9542354
vt 0.5 0.838802
vt 0.5276214 0.9885589
vt 0.6333677 0.8989927
vt 0.4447573 0.9771177
vt 0.5 0.838802
vt 0.3895146 0.9542354
vt 0.3551911 0.8713714
vt 0.5552427 0.7103823
vt 0.6104854 0.7332646
vt 0.6448089 0.8161286
vt 0.3666323 0.7885073
vt 0.5 0.838802
vt 0.3895146 0.7332646
vt 0.4723786 0.6989411
vn 0.6599207 -0.1403655 -0.7381072
vn 0.6730325 0.3340478 -0.6598783
vn 0.03243846 0.4228849 -0.9056026
vn -0.05213226 -0.02221424 -0.998393
vn -0.01199456 -0.99992 -0.00401437
vn -0.4885023 -0.3514819 -0.7986401
vn -0.5032105 0.5264676 -0.6852816
vn 0.03243846 0.4228849 -0.9056026
vn -0.7123578 -0.6321259 -0.3048986
vn -0.8206449 0.5360159 0.1980625
vn -0.922599 -0.289762 0.2546548
vn -0.7030804 0.003724088 0.7111006
vn -0.04081983 -0.08836034 0.9952518
vn -0.5915161 0.469039 0.6558287
vn -0.8206449 0.5360159 0.1980625
vn -0.005572586 0.3683493 0.9296708
vn -0.04081983 -0.08836034 0.9952518
vn -0.04081983 -0.08836034 0.9952518
vn -0.005572586 0.3683493 0.9296708
vn 0.6768416 0.3477721 0.6487988
vn 0.68089 -0.1051555 0.7247972
vn 0.9529665 0.2958862 -0.06562242
vn 0.9842914 -0.1617656 -0.07072709
vn -0.01199456 -0.99992 -0.00401437
vn -0.04081983 -0.08836034 0.9952518
vn 0.6599207 -0.1403655 -0.7381072
vn 0.6730325 0.3340478 -0.6598783
vn 0.9529665 0.2958862 -0.06562242
vn 0.6730325 0.3340478 -0.6598783
vn -0.08697695 0.9961766 0.008198375
vn 0.03243846 0.4228849 -0.9056026
vn 0.9529665 0.2958862 -0.06562242
vn 0.03243846 0.4228849 -0.9056026
vn -0.08697695 0.9961766 0.008198375
vn -0.5032105 0.5264676 -0.6852816
vn -0.8206449 0.5360159 0.1980625
vn -0.005572586 0.3683493 0.9296708
vn 0.6768416 0.3477721 0.6487988
vn 0.9529665 0.2958862 -0.06562242
vn -0.8206449 0.5360159 0.1980625
vn -0.08697695 0.9961766 0.008198375
vn -0.5915161 0.469039 0.6558287
vn -0.005572586 0.3683493 0.9296708
g desert_tree_base_COL_0
f 3/3/3 2/2/2 1/1/1
f 4/4/4 3/3/3 1/1/1
f 4/4/4 1/1/1 5/5/5
f 6/6/6 4/4/4 5/5/5
f 6/6/6 7/7/7 4/4/4
f 7/7/7 8/8/8 4/4/4
f 9/9/9 7/7/7 6/6/6
f 9/9/9 6/6/6 5/5/5
f 9/9/9 10/10/10 7/7/7
f 11/11/11 10/10/10 9/9/9
f 11/11/11 9/9/9 5/5/5
f 12/12/12 11/11/11 5/5/5
f 13/13/13 12/12/12 5/5/5
f 12/12/12 14/14/14 11/11/11
f 14/14/14 15/15/15 11/11/11
f 16/16/16 14/14/14 12/12/12
f 17/17/17 16/16/16 12/12/12
f 20/20/20 19/19/19 18/18/18
f 21/21/21 20/20/20 18/18/18
f 22/22/22 20/20/20 21/21/21
f 23/23/23 22/22/22 21/21/21
f 23/23/23 21/21/21 24/24/24
f 21/21/21 25/25/25 24/24/24
f 26/26/26 23/23/23 24/24/24
f 26/26/26 27/27/27 23/23/23
f 27/27/27 28/28/28 23/23/23
f 31/31/31 30/30/30 29/29/29
f 29/29/29 30/30/30 32/32/32
f 35/35/35 34/34/34 33/33/33
f 36/36/36 34/34/34 35/35/35
f 38/38/38 34/34/34 37/37/37
f 39/39/39 34/34/34 38/38/38
f 42/42/42 41/41/41 40/40/40
f 43/43/43 41/41/41 42/42/42
