g desert_graasMound02
v 3.607264 0.03810205 -1.512657
v 3.704381 -5.820766E-07 -2.007344
v 4.336643 -6.053597E-07 -1.604852
v 4.115454 0.03810205 -1.203524
v 4.869471 -6.146729E-07 -0.9397846
v 2.907575 0.03810205 -1.57132
v 2.794946 -5.867332E-07 -2.064944
v 1.903845 0.04433383 -1.250378
v 1.963853 -5.378388E-07 -2.10209
v 4.570726 0.03810205 -0.6402218
v 5.223014 -5.890615E-07 0.01586258
v 0.9624201 0.066032 -2.00859
v 1.285644 -5.261973E-07 -2.468178
v 4.853933 0.03810205 0.1240113
v 5.075606 -5.355105E-07 0.9461141
v 0.4281318 0.0765254 -2.247328
v 0.5684614 -5.01168E-07 -2.793688
v 4.71966 0.03810205 0.8435336
v 4.557433 -5.308539E-07 1.63974
v -0.184052 0.08147806 -2.297976
v -0.2280629 -6.00121E-07 -2.861035
v 4.309608 0.03810205 1.352109
v 3.851175 -5.820766E-07 2.08518
v -0.7809317 0.07677769 -2.152822
v -1.004935 -5.337643E-07 -2.671382
v 3.788298 0.03810205 1.66445
v 3.067448 -6.216578E-07 2.189003
v -1.282042 0.07511198 -1.879551
v -1.716805 -5.884795E-07 -2.3181
v -1.855486 0.1282634 -1.266483
v -2.296851 -3.213063E-07 -2.098813
v 3.216189 0.03810205 1.736189
v 2.29242 -6.472692E-07 1.914547
v -2.888939 0.1463605 -1.489522
v -2.907517 -4.575122E-07 -2.031814
v 2.634593 0.03810205 1.535004
v 1.598462 -6.30971E-07 1.35875
v -3.413221 0.14254 -1.311512
v -3.619268 -4.097819E-07 -1.800514
v 2.102574 0.03810205 1.098526
v 0.8936024 -5.250331E-07 0.8068669
v 1.20968 0.06023092 0.2119181
v 0.08152962 -5.139736E-07 0.8770835
v -3.878563 0.14254 -0.889976
v -4.18267 -3.981404E-07 -1.253132
v 0.05007565 0.08434834 0.236564
v -0.6601214 -3.748573E-07 1.113373
v -1.062772 0.1537322 0.5119932
v -1.309428 -4.668254E-07 1.612789
v -4.273918 0.14254 -0.2152628
v -4.631461 -4.167669E-07 -0.4460573
v -1.687272 0.1463605 1.23845
v -1.990436 -4.598405E-07 1.981896
v -4.575935 0.14254 0.4592842
v -5.036733 -4.598405E-07 0.3958684
v -2.213108 0.14254 1.557934
v -2.868708 -4.365575E-07 2.159758
v -4.595931 0.14254 1.003793
v -5.086494 -5.098991E-07 1.168837
v -2.968183 0.14254 1.706044
v -3.860425 -4.365575E-07 2.140091
v -4.29782 0.14254 1.443847
v -4.662546 -4.167669E-07 1.80007
v -3.731738 0.14254 1.704271
v -3.925466 0.2856939 0.4106283
v -3.919709 0.2856939 0.7433957
v -3.752624 0.2856939 0.9876725
v -3.43634 0.2856939 1.125181
v -2.857184 0.2544797 0.1707208
v -3.773405 0.2856939 -0.02060175
v -2.986587 0.2856939 1.129403
v -3.513546 0.2856939 -0.4348832
v -2.506392 0.2856939 1.038675
v -3.18791 0.2856939 -0.7178456
v -2.118007 0.2856939 0.8508998
v -2.847647 0.2856939 -0.8336061
v -1.866879 0.299624 0.3933653
v -2.349522 0.299624 -0.6475115
v -1.9399 0.3085596 -0.1615244
v -1.306892 0.2448939 -0.346542
v -0.7512516 0.2469884 -0.6039965
v -0.4780084 0.2209303 -0.294472
v -0.8813936 0.2215121 -1.071357
v -0.03530383 0.1967406 -0.2114969
v -0.05916119 0.2563362 -0.9726489
v -0.7519877 0.1932887 -1.475512
v 0.4942268 0.1839939 -0.4124665
v -0.4841661 0.1906407 -1.667358
v -0.1415455 0.1902404 -1.754155
v 0.2117854 0.1871537 -1.724923
v 0.5201596 0.180168 -1.587132
v 0.8139563 0.1734956 -0.7711262
v 0.7959419 0.1721587 -1.208236
v 1.573948 0.08205952 -0.510121
v 2.31415 0.08389182 0.3087687
v 2.327497 0.08389182 -0.2155608
v 2.603211 0.08389182 0.8299372
v 2.660501 0.08389182 -0.664829
v 3.315077 0.09928137 0.1896346
v 2.938104 0.08389182 1.084752
v 3.148007 0.08389182 -0.9239572
v 3.315684 0.08389182 1.202301
v 3.515003 0.08389182 -0.8619761
v 3.687462 0.08389182 1.161423
v 3.8824 0.08389182 -0.6518257
v 4.018003 0.08389182 0.9650007
v 4.201887 0.08389182 -0.2899325
v 4.280658 0.08389182 0.6272078
v 4.365152 0.08389182 0.1712364
vt 0.8445928 0.3854302
vt 0.8540492 0.3372625
vt 0.9156125 0.3764532
vt 0.8940753 0.4155304
vt 0.9674939 0.4412108
vt 0.7764641 0.3797182
vt 0.7654974 0.331654
vt 0.6787308 0.4109683
vt 0.6845739 0.3280371
vt 0.9384052 0.4703792
vt 1.001919 0.5342622
vt 0.5870644 0.3371412
vt 0.6185366 0.2923911
vt 0.965981 0.5447927
vt 0.9875654 0.6248408
vt 0.5350406 0.3138953
vt 0.5487045 0.2606962
vt 0.952907 0.6148525
vt 0.9371108 0.6923791
vt 0.4754323 0.3089637
vt 0.4711469 0.2541386
vt 0.9129801 0.6643726
vt 0.8683425 0.7357517
vt 0.4173141 0.3230973
vt 0.3955029 0.272605
vt 0.8622202 0.6947852
vt 0.7920309 0.7458609
vt 0.3685209 0.3497057
vt 0.3261881 0.3070042
vt 0.3126847 0.4094001
vt 0.269709 0.3283561
vt 0.8065139 0.7017704
vt 0.7165664 0.7191371
vt 0.2120574 0.3876829
vt 0.2102484 0.3348799
vt 0.7498838 0.682181
vt 0.6489958 0.6650192
vt 0.1610081 0.4050157
vt 0.1409452 0.3574015
vt 0.6980811 0.6396812
vt 0.5803635 0.6112823
vt 0.61114 0.5533521
vt 0.501292 0.6181192
vt 0.1156977 0.4460607
vt 0.08608684 0.4107002
vt 0.4982293 0.5557519
vt 0.4290774 0.6411268
vt 0.3898713 0.5825704
vt 0.3658544 0.689755
vt 0.07720193 0.5117575
vt 0.04238796 0.489285
vt 0.3290638 0.6533056
vt 0.2995446 0.725695
vt 0.04779455 0.5774382
vt 0.002926677 0.5712633
vt 0.2778631 0.6844137
vt 0.2140273 0.7430133
vt 0.04584756 0.630457
vt -0.001918703 0.6465274
vt 0.2043414 0.6988352
vt 0.1174638 0.7410984
vt 0.07487467 0.6733051
vt 0.03936127 0.7079905
vt 0.1299941 0.6986625
vt 0.1111308 0.5727006
vt 0.1116913 0.6051021
vt 0.1279604 0.6288873
vt 0.1587569 0.6422766
vt 0.2151494 0.5493407
vt 0.1259369 0.5307117
vt 0.2025494 0.6426877
vt 0.1512395 0.490373
vt 0.249306 0.6338534
vt 0.1829466 0.462821
vt 0.2871231 0.6155698
vt 0.216078 0.4515494
vt 0.3115754 0.5710196
vt 0.2645805 0.4696695
vt 0.3044653 0.5169899
vt 0.3661013 0.4989748
vt 0.4202041 0.4739065
vt 0.4468098 0.504045
vt 0.4075321 0.4283996
vt 0.4899159 0.5121241
vt 0.4875929 0.4380108
vt 0.4201324 0.389047
vt 0.5414762 0.4925558
vt 0.4462102 0.370367
vt 0.4795712 0.3619155
vt 0.513975 0.3647619
vt 0.5440015 0.3781786
vt 0.5726084 0.4576331
vt 0.5708543 0.4150717
vt 0.6466087 0.4830471
vt 0.7186823 0.5627825
vt 0.7199819 0.5117285
vt 0.7468282 0.6135287
vt 0.7524065 0.4679832
vt 0.8161427 0.5511823
vt 0.7794367 0.6383399
vt 0.7998749 0.4427519
vt 0.8162016 0.6497858
vt 0.8356093 0.448787
vt 0.8524016 0.6458055
vt 0.8713828 0.4692494
vt 0.8845865 0.6266798
vt 0.9024913 0.5044869
vt 0.9101613 0.5937889
vt 0.9183884 0.5493909
vn 0.02227958 0.9971872 -0.07156355
vn 0.02048824 0.9970493 -0.07397904
vn 0.05494206 0.996455 -0.06370931
vn 0.0549438 0.9965718 -0.06185415
vn 0.07948024 0.9957217 -0.04712828
vn -0.005034435 0.9979228 -0.06422403
vn -0.002451183 0.9978243 -0.06588347
vn 0.0377422 0.9979928 -0.05085198
vn 0.03085974 0.9974682 -0.06406959
vn 0.08065718 0.9957349 -0.04479275
vn 0.09734307 0.9951531 -0.01395455
vn 0.08401779 0.991412 -0.1002151
vn 0.05944738 0.9948697 -0.08185529
vn 0.09650125 0.9952998 -0.008111804
vn 0.09563109 0.994687 0.03811295
vn 0.04629875 0.9881828 -0.14612
vn 0.03681844 0.9912492 -0.1267648
vn 0.09042899 0.9950784 0.04051378
vn 0.06736474 0.9949226 0.07477297
vn -0.01187629 0.9872777 -0.1585614
vn -0.01067733 0.9904026 -0.1377992
vn 0.06522894 0.9952044 0.07289259
vn 0.02819103 0.9958554 0.08647112
vn -0.05944277 0.9876646 -0.1448626
vn -0.04919399 0.9909074 -0.1252298
vn 0.03092745 0.9958521 0.08556868
vn -0.01196188 0.9966913 0.08039402
vn -0.06723697 0.9890736 -0.1311972
vn -0.0506013 0.9910753 -0.1233264
vn 0.00497393 0.9880719 -0.153913
vn -0.002031057 0.9850133 -0.1724663
vn -0.008093306 0.9965169 0.08299624
vn -0.03890913 0.9971737 0.06427131
vn -0.004202828 0.9756129 -0.2194576
vn -0.008646285 0.975185 -0.2212226
vn -0.03821019 0.9968556 0.06941689
vn -0.04754542 0.9967141 0.06557721
vn -0.1313805 0.9681765 -0.2130103
vn -0.1346932 0.9636022 -0.2309299
vn -0.04453553 0.9973354 0.05778103
vn -0.0125032 0.9952544 0.0965011
vn 0.009345205 0.9969987 0.07685288
vn 0.05315017 0.9883409 0.1426793
vn -0.2160194 0.9618273 -0.1679995
vn -0.228304 0.9563093 -0.1826194
vn 0.05494682 0.9859354 0.1578359
vn 0.1154847 0.9794554 0.1653196
vn 0.115206 0.9846622 0.131027
vn 0.1521003 0.968864 0.1953662
vn -0.2534618 0.9587306 -0.1288126
vn -0.2767132 0.9500991 -0.1440197
vn 0.1496651 0.9709771 0.1865577
vn 0.0985463 0.9587938 0.2664638
vn -0.2587803 0.9637216 -0.06537066
vn -0.2864447 0.955261 -0.07366073
vn 0.08751716 0.9638239 0.2517624
vn 0.02924526 0.9545218 0.2967032
vn -0.2319216 0.9705759 0.06476685
vn -0.2569773 0.9635413 0.07450412
vn 0.02339224 0.9618807 0.2724669
vn -0.06060592 0.9556225 0.2882925
vn -0.1541043 0.9692626 0.1917864
vn -0.1758089 0.9618238 0.2097289
vn -0.05352471 0.9639441 0.260666
vn -0.1427129 0.9890155 -0.03848659
vn -0.1271504 0.9912707 0.03486103
vn -0.08172861 0.9907597 0.1082381
vn -0.02296652 0.9890229 0.1459669
vn -0.01342393 0.9998899 0.006326996
vn -0.1371598 0.9880433 -0.07041074
vn 0.01466192 0.9890783 0.1466592
vn -0.1216368 0.9880788 -0.09436509
vn 0.0448059 0.9891204 0.1401187
vn -0.07861724 0.989428 -0.1218673
vn 0.09589612 0.9881005 0.1202551
vn 0.007378531 0.9879033 -0.1548955
vn 0.1044291 0.9920773 0.06983548
vn 0.0472896 0.9902245 -0.1312214
vn 0.0749082 0.9960608 -0.04745258
vn 0.04685478 0.9985932 -0.02482612
vn -0.02004477 0.9997764 0.006737821
vn 0.04927982 0.99129 0.1221293
vn -0.06580978 0.9935842 -0.0919755
vn 0.06001941 0.9859137 0.156115
vn 0.03229061 0.9994647 -0.005253756
vn -0.07801663 0.9881867 -0.1319108
vn 0.07048253 0.9905627 0.1175491
vn -0.06187644 0.9866305 -0.1507699
vn -0.01067116 0.9865202 -0.1632916
vn 0.05100156 0.986881 -0.1531823
vn 0.104582 0.988381 -0.1102978
vn 0.1056528 0.9938726 0.03247364
vn 0.1150016 0.9918092 -0.05557976
vn 0.04578057 0.9988986 0.01028238
vn -0.02581162 0.9993227 0.02622745
vn -0.0121562 0.9998835 -0.00922718
vn -0.03470778 0.9985213 0.04184159
vn -0.01173501 0.9992471 -0.03698182
vn -0.0009521107 0.9999995 -0.0002818486
vn -0.02838234 0.9981887 0.05304554
vn -0.005890251 0.9987693 -0.04924376
vn -0.00573928 0.9982039 0.05963387
vn 0.01775663 0.9986004 -0.04981792
vn 0.02089838 0.9981058 0.05786402
vn 0.03859054 0.9983613 -0.04225433
vn 0.04184404 0.9980497 0.04632354
vn 0.05517135 0.9980286 -0.02991586
vn 0.0579878 0.9979979 0.02524592
vn 0.06415407 0.9979231 -0.005811976
g desert_graasMound02_0
f 3/3/3 2/2/2 1/1/1
f 4/4/4 3/3/3 1/1/1
f 5/5/5 3/3/3 4/4/4
f 1/1/1 2/2/2 6/6/6
f 2/2/2 7/7/7 6/6/6
f 6/6/6 7/7/7 8/8/8
f 7/7/7 9/9/9 8/8/8
f 10/10/10 5/5/5 4/4/4
f 11/11/11 5/5/5 10/10/10
f 8/8/8 9/9/9 12/12/12
f 9/9/9 13/13/13 12/12/12
f 14/14/14 11/11/11 10/10/10
f 15/15/15 11/11/11 14/14/14
f 12/12/12 13/13/13 16/16/16
f 13/13/13 17/17/17 16/16/16
f 18/18/18 15/15/15 14/14/14
f 19/19/19 15/15/15 18/18/18
f 16/16/16 17/17/17 20/20/20
f 17/17/17 21/21/21 20/20/20
f 22/22/22 19/19/19 18/18/18
f 23/23/23 19/19/19 22/22/22
f 20/20/20 21/21/21 24/24/24
f 21/21/21 25/25/25 24/24/24
f 26/26/26 23/23/23 22/22/22
f 27/27/27 23/23/23 26/26/26
f 24/24/24 25/25/25 28/28/28
f 25/25/25 29/29/29 28/28/28
f 28/28/28 29/29/29 30/30/30
f 29/29/29 31/31/31 30/30/30
f 32/32/32 27/27/27 26/26/26
f 33/33/33 27/27/27 32/32/32
f 30/30/30 31/31/31 34/34/34
f 31/31/31 35/35/35 34/34/34
f 36/36/36 33/33/33 32/32/32
f 37/37/37 33/33/33 36/36/36
f 34/34/34 35/35/35 38/38/38
f 35/35/35 39/39/39 38/38/38
f 40/40/40 37/37/37 36/36/36
f 41/41/41 37/37/37 40/40/40
f 42/42/42 41/41/41 40/40/40
f 43/43/43 41/41/41 42/42/42
f 38/38/38 39/39/39 44/44/44
f 39/39/39 45/45/45 44/44/44
f 46/46/46 43/43/43 42/42/42
f 47/47/47 43/43/43 46/46/46
f 48/48/48 47/47/47 46/46/46
f 49/49/49 47/47/47 48/48/48
f 44/44/44 45/45/45 50/50/50
f 45/45/45 51/51/51 50/50/50
f 52/52/52 49/49/49 48/48/48
f 53/53/53 49/49/49 52/52/52
f 50/50/50 51/51/51 54/54/54
f 51/51/51 55/55/55 54/54/54
f 56/56/56 53/53/53 52/52/52
f 57/57/57 53/53/53 56/56/56
f 54/54/54 55/55/55 58/58/58
f 55/55/55 59/59/59 58/58/58
f 60/60/60 57/57/57 56/56/56
f 61/61/61 57/57/57 60/60/60
f 58/58/58 59/59/59 62/62/62
f 59/59/59 63/63/63 62/62/62
f 63/63/63 61/61/61 64/64/64
f 64/64/64 61/61/61 60/60/60
f 62/62/62 63/63/63 64/64/64
f 54/54/54 65/65/65 50/50/50
f 58/58/58 66/66/66 54/54/54
f 66/66/66 65/65/65 54/54/54
f 62/62/62 67/67/67 58/58/58
f 67/67/67 66/66/66 58/58/58
f 64/64/64 68/68/68 62/62/62
f 68/68/68 67/67/67 62/62/62
f 67/67/67 69/69/69 66/66/66
f 66/66/66 69/69/69 65/65/65
f 68/68/68 69/69/69 67/67/67
f 65/65/65 70/70/70 50/50/50
f 65/65/65 69/69/69 70/70/70
f 50/50/50 70/70/70 44/44/44
f 71/71/71 68/68/68 64/64/64
f 71/71/71 69/69/69 68/68/68
f 60/60/60 71/71/71 64/64/64
f 70/70/70 69/69/69 72/72/72
f 70/70/70 72/72/72 44/44/44
f 73/73/73 69/69/69 71/71/71
f 73/73/73 71/71/71 60/60/60
f 44/44/44 72/72/72 38/38/38
f 56/56/56 73/73/73 60/60/60
f 72/72/72 74/74/74 38/38/38
f 72/72/72 69/69/69 74/74/74
f 38/38/38 74/74/74 34/34/34
f 75/75/75 73/73/73 56/56/56
f 75/75/75 69/69/69 73/73/73
f 52/52/52 75/75/75 56/56/56
f 74/74/74 76/76/76 34/34/34
f 74/74/74 69/69/69 76/76/76
f 34/34/34 76/76/76 30/30/30
f 77/77/77 75/75/75 52/52/52
f 77/77/77 69/69/69 75/75/75
f 48/48/48 77/77/77 52/52/52
f 76/76/76 69/69/69 78/78/78
f 76/76/76 78/78/78 30/30/30
f 79/79/79 69/69/69 77/77/77
f 78/78/78 69/69/69 79/79/79
f 79/79/79 77/77/77 48/48/48
f 78/78/78 79/79/79 80/80/80
f 30/30/30 78/78/78 80/80/80
f 80/80/80 79/79/79 48/48/48
f 80/80/80 81/81/81 30/30/30
f 48/48/48 82/82/82 80/80/80
f 82/82/82 81/81/81 80/80/80
f 81/81/81 83/83/83 30/30/30
f 30/30/30 83/83/83 28/28/28
f 84/84/84 82/82/82 48/48/48
f 46/46/46 84/84/84 48/48/48
f 82/82/82 85/85/85 81/81/81
f 81/81/81 85/85/85 83/83/83
f 84/84/84 85/85/85 82/82/82
f 83/83/83 85/85/85 86/86/86
f 83/83/83 86/86/86 28/28/28
f 87/87/87 85/85/85 84/84/84
f 87/87/87 84/84/84 46/46/46
f 28/28/28 86/86/86 24/24/24
f 42/42/42 87/87/87 46/46/46
f 86/86/86 88/88/88 24/24/24
f 86/86/86 85/85/85 88/88/88
f 24/24/24 88/88/88 20/20/20
f 88/88/88 89/89/89 20/20/20
f 88/88/88 85/85/85 89/89/89
f 20/20/20 89/89/89 16/16/16
f 89/89/89 90/90/90 16/16/16
f 89/89/89 85/85/85 90/90/90
f 16/16/16 90/90/90 12/12/12
f 90/90/90 91/91/91 12/12/12
f 90/90/90 85/85/85 91/91/91
f 12/12/12 91/91/91 8/8/8
f 92/92/92 85/85/85 87/87/87
f 92/92/92 87/87/87 42/42/42
f 91/91/91 85/85/85 93/93/93
f 93/93/93 85/85/85 92/92/92
f 91/91/91 93/93/93 8/8/8
f 93/93/93 92/92/92 94/94/94
f 94/94/94 92/92/92 42/42/42
f 8/8/8 93/93/93 94/94/94
f 42/42/42 95/95/95 94/94/94
f 94/94/94 96/96/96 8/8/8
f 95/95/95 96/96/96 94/94/94
f 97/97/97 95/95/95 42/42/42
f 40/40/40 97/97/97 42/42/42
f 96/96/96 98/98/98 8/8/8
f 8/8/8 98/98/98 6/6/6
f 95/95/95 99/99/99 96/96/96
f 97/97/97 99/99/99 95/95/95
f 96/96/96 99/99/99 98/98/98
f 100/100/100 97/97/97 40/40/40
f 100/100/100 99/99/99 97/97/97
f 36/36/36 100/100/100 40/40/40
f 98/98/98 101/101/101 6/6/6
f 98/98/98 99/99/99 101/101/101
f 102/102/102 99/99/99 100/100/100
f 102/102/102 100/100/100 36/36/36
f 101/101/101 99/99/99 103/103/103
f 6/6/6 101/101/101 1/1/1
f 101/101/101 103/103/103 1/1/1
f 32/32/32 102/102/102 36/36/36
f 1/1/1 103/103/103 4/4/4
f 104/104/104 102/102/102 32/32/32
f 104/104/104 99/99/99 102/102/102
f 26/26/26 104/104/104 32/32/32
f 103/103/103 105/105/105 4/4/4
f 103/103/103 99/99/99 105/105/105
f 4/4/4 105/105/105 10/10/10
f 106/106/106 104/104/104 26/26/26
f 106/106/106 99/99/99 104/104/104
f 22/22/22 106/106/106 26/26/26
f 105/105/105 107/107/107 10/10/10
f 105/105/105 99/99/99 107/107/107
f 10/10/10 107/107/107 14/14/14
f 108/108/108 106/106/106 22/22/22
f 108/108/108 99/99/99 106/106/106
f 18/18/18 108/108/108 22/22/22
f 14/14/14 109/109/109 18/18/18
f 107/107/107 109/109/109 14/14/14
f 107/107/107 99/99/99 109/109/109
f 109/109/109 108/108/108 18/18/18
f 109/109/109 99/99/99 108/108/108
