g desert_tree_top_COL
v -9.854052E-18 1.733283 -4.040161E-16
v 3.527189 0.1996598 -2.036424
v 2.036424 0.1996598 -3.527189
v 2.446387 0.8903337 -4.237267
v 4.237267 0.8903337 -2.446387
v 2.118634 2.281295 -3.669581
v 3.669581 2.281295 -2.118634
v 1.223194 3.299549 -2.118633
v 2.118633 3.299549 -1.223194
v 0 3.672256 -4.163336E-16
v 0 3.299549 -2.446387
v 0 3.672256 -4.163336E-16
v 0 2.281295 -4.237267
v 0 0.8903337 -4.892775
v -1.223194 3.299549 -2.118633
v 0 3.672256 -4.163336E-16
v -2.118634 2.281295 -3.669581
v 0 0.1996598 -4.072848
v -9.854052E-18 1.733283 -4.040161E-16
v -2.446387 0.8903337 -4.237267
v -2.118633 3.299549 -1.223194
v 0 3.672256 -4.163336E-16
v -3.669581 2.281295 -2.118634
v -2.036424 0.1996598 -3.527189
v -9.854052E-18 1.733283 -4.040161E-16
v -4.237267 0.8903337 -2.446387
v -2.446387 3.299549 -4.163336E-16
v 0 3.672256 -4.163336E-16
v -4.237267 2.281295 -4.163336E-16
v -3.527189 0.1996598 -2.036424
v -9.854052E-18 1.733283 -4.040161E-16
v -4.892775 0.8903337 -4.163336E-16
v -2.118633 3.299549 1.223194
v 0 3.672256 -4.163336E-16
v -3.669581 2.281295 2.118634
v -4.072848 0.1996598 -4.163336E-16
v -9.854052E-18 1.733283 -4.040161E-16
v -4.237267 0.8903337 2.446387
v -1.223194 3.299549 2.118633
v 0 3.672256 -4.163336E-16
v -2.118634 2.281295 3.669581
v -3.527189 0.1996598 2.036424
v -9.854052E-18 1.733283 -4.040161E-16
v -2.446387 0.8903337 4.237267
v 0 3.299549 2.446387
v 0 3.672256 -4.163336E-16
v 0 2.281295 4.237267
v -2.036424 0.1996598 3.527189
v -9.854052E-18 1.733283 -4.040161E-16
v 0 0.8903337 4.892775
v 1.223194 3.299549 2.118633
v 0 3.672256 -4.163336E-16
v 2.118634 2.281295 3.669581
v 0 0.1996598 4.072848
v -9.854052E-18 1.733283 -4.040161E-16
v 2.446387 0.8903337 4.237267
v 2.118633 3.299549 1.223194
v 0 3.672256 -4.163336E-16
v 3.669581 2.281295 2.118634
v 2.036424 0.1996598 3.527189
v -9.854052E-18 1.733283 -4.040161E-16
v 4.237267 0.8903337 2.446387
v 2.446387 3.299549 -4.163336E-16
v 0 3.672256 -4.163336E-16
v 4.237267 2.281295 -4.163336E-16
v 3.527189 0.1996598 2.036424
v -9.854052E-18 1.733283 -4.040161E-16
v 2.118633 3.299549 -1.223194
v 0 3.672256 -4.163336E-16
v 3.669581 2.281295 -2.118634
v 4.892775 0.8903337 -4.163336E-16
v 4.237267 0.8903337 -2.446387
v 4.072848 0.1996598 -4.163336E-16
v -9.854052E-18 1.733283 -4.040161E-16
v 3.527189 0.1996598 -2.036424
v -9.854052E-18 1.733283 -4.040161E-16
vt 0.5 0.08666666
vt 0 0.3333333
vt 0.08333334 0.3333333
vt 0.08333334 0.5
vt 0 0.5
vt 0.08333334 0.6666667
vt 0 0.6666667
vt 0.08333334 0.8333334
vt 0 0.8333334
vt 0.04166667 1
vt 0.1666667 0.8333334
vt 0.125 1
vt 0.1666667 0.6666667
vt 0.1666667 0.5
vt 0.25 0.8333334
vt 0.2083333 1
vt 0.25 0.6666667
vt 0.1666667 0.3333333
vt 0.5 0.08666666
vt 0.25 0.5
vt 0.3333333 0.8333334
vt 0.2916667 1
vt 0.3333333 0.6666667
vt 0.25 0.3333333
vt 0.5 0.08666666
vt 0.3333333 0.5
vt 0.4166667 0.8333334
vt 0.375 1
vt 0.4166667 0.6666667
vt 0.3333333 0.3333333
vt 0.5 0.08666666
vt 0.4166667 0.5
vt 0.5 0.8333334
vt 0.4583333 1
vt 0.5 0.6666667
vt 0.4166667 0.3333333
vt 0.5 0.08666666
vt 0.5 0.5
vt 0.5833333 0.8333334
vt 0.5416667 1
vt 0.5833333 0.6666667
vt 0.5 0.3333333
vt 0.5 0.08666666
vt 0.5833333 0.5
vt 0.6666666 0.8333334
vt 0.625 1
vt 0.6666666 0.6666667
vt 0.5833333 0.3333333
vt 0.5 0.08666666
vt 0.6666666 0.5
vt 0.7499999 0.8333334
vt 0.7083334 1
vt 0.7499999 0.6666667
vt 0.6666666 0.3333333
vt 0.5 0.08666666
vt 0.7499999 0.5
vt 0.8333333 0.8333334
vt 0.7916667 1
vt 0.8333333 0.6666667
vt 0.7499999 0.3333333
vt 0.5 0.08666666
vt 0.8333333 0.5
vt 0.9166666 0.8333334
vt 0.875 1
vt 0.9166666 0.6666667
vt 0.8333333 0.3333333
vt 0.5 0.08666666
vt 0.9999999 0.8333334
vt 0.9583334 1
vt 0.9999999 0.6666667
vt 0.9166666 0.5
vt 0.9999999 0.5
vt 0.9166666 0.3333333
vt 0.5 0.08666666
vt 0.9999999 0.3333333
vt 0.5 0.08666666
vn 0 -1 0
vn 0.06603598 -0.9970886 -0.03812591
vn 0.03812588 -0.9970886 -0.06603596
vn 0.4993842 -0.0496144 -0.8649589
vn 0.8649588 -0.04961436 -0.4993843
vn 0.379587 0.6508875 -0.657464
vn 0.657464 0.6508876 -0.379587
vn 0.2079378 0.9094216 -0.3601588
vn 0.3601588 0.9094216 -0.2079379
vn 0 1 0
vn 0 0.9094216 -0.4158756
vn 0 1 0
vn 0 0.6508875 -0.7591742
vn 0 -0.04961441 -0.9987684
vn -0.2079378 0.9094216 -0.3601588
vn 0 1 0
vn -0.379587 0.6508875 -0.657464
vn 0 -0.9970886 -0.0762518
vn 0 -1 0
vn -0.4993842 -0.04961439 -0.8649589
vn -0.3601588 0.9094216 -0.2079378
vn 0 1 0
vn -0.6574641 0.6508876 -0.379587
vn -0.03812587 -0.9970886 -0.06603588
vn 0 -1 0
vn -0.8649589 -0.04961438 -0.4993842
vn -0.4158756 0.9094216 0
vn 0 1 0
vn -0.759174 0.6508877 0
vn -0.06603594 -0.9970886 -0.03812587
vn 0 -1 0
vn -0.9987684 -0.04961433 0
vn -0.3601588 0.9094216 0.2079379
vn 0 1 0
vn -0.657464 0.6508875 0.379587
vn -0.0762518 -0.9970886 0
vn 0 -1 0
vn -0.8649589 -0.04961437 0.4993842
vn -0.2079378 0.9094216 0.3601588
vn 0 1 0
vn -0.379587 0.6508875 0.657464
vn -0.06603598 -0.9970886 0.03812591
vn 0 -1 0
vn -0.4993842 -0.0496144 0.8649589
vn 0 0.9094216 0.4158756
vn 0 1 0
vn 0 0.6508875 0.7591742
vn -0.03812588 -0.9970886 0.06603596
vn 0 -1 0
vn 0 -0.04961441 0.9987684
vn 0.2079378 0.9094216 0.3601588
vn 0 1 0
vn 0.379587 0.6508875 0.657464
vn 0 -0.9970886 0.0762518
vn 0 -1 0
vn 0.4993842 -0.04961439 0.8649589
vn 0.3601588 0.9094216 0.2079378
vn 0 1 0
vn 0.6574641 0.6508876 0.379587
vn 0.03812587 -0.9970886 0.06603588
vn 0 -1 0
vn 0.8649589 -0.04961438 0.4993842
vn 0.4158756 0.9094216 0
vn 0 1 0
vn 0.759174 0.6508877 0
vn 0.06603594 -0.9970886 0.03812587
vn 0 -1 0
vn 0.3601588 0.9094216 -0.2079379
vn 0 1 0
vn 0.657464 0.6508876 -0.379587
vn 0.9987684 -0.04961433 0
vn 0.8649588 -0.04961436 -0.4993843
vn 0.0762518 -0.9970886 0
vn 0 -1 0
vn 0.06603598 -0.9970886 -0.03812591
vn 0 -1 0
g desert_tree_top_COL_0
f 3/3/3 2/2/2 1/1/1
f 3/3/3 4/4/4 2/2/2
f 4/4/4 5/5/5 2/2/2
f 4/4/4 6/6/6 5/5/5
f 6/6/6 7/7/7 5/5/5
f 6/6/6 8/8/8 7/7/7
f 8/8/8 9/9/9 7/7/7
f 8/8/8 10/10/10 9/9/9
f 11/11/11 8/8/8 6/6/6
f 11/11/11 12/12/12 8/8/8
f 13/13/13 6/6/6 4/4/4
f 13/13/13 11/11/11 6/6/6
f 14/14/14 4/4/4 3/3/3
f 14/14/14 13/13/13 4/4/4
f 15/15/15 11/11/11 13/13/13
f 15/15/15 16/16/16 11/11/11
f 17/17/17 15/15/15 13/13/13
f 17/17/17 13/13/13 14/14/14
f 18/18/18 14/14/14 3/3/3
f 18/18/18 3/3/3 19/19/19
f 20/20/20 14/14/14 18/18/18
f 20/20/20 17/17/17 14/14/14
f 21/21/21 15/15/15 17/17/17
f 21/21/21 22/22/22 15/15/15
f 23/23/23 21/21/21 17/17/17
f 23/23/23 17/17/17 20/20/20
f 24/24/24 20/20/20 18/18/18
f 24/24/24 18/18/18 25/25/25
f 26/26/26 20/20/20 24/24/24
f 26/26/26 23/23/23 20/20/20
f 27/27/27 21/21/21 23/23/23
f 27/27/27 28/28/28 21/21/21
f 29/29/29 27/27/27 23/23/23
f 29/29/29 23/23/23 26/26/26
f 30/30/30 26/26/26 24/24/24
f 30/30/30 24/24/24 31/31/31
f 32/32/32 26/26/26 30/30/30
f 32/32/32 29/29/29 26/26/26
f 33/33/33 27/27/27 29/29/29
f 33/33/33 34/34/34 27/27/27
f 35/35/35 33/33/33 29/29/29
f 35/35/35 29/29/29 32/32/32
f 36/36/36 32/32/32 30/30/30
f 36/36/36 30/30/30 37/37/37
f 38/38/38 32/32/32 36/36/36
f 38/38/38 35/35/35 32/32/32
f 39/39/39 33/33/33 35/35/35
f 39/39/39 40/40/40 33/33/33
f 41/41/41 39/39/39 35/35/35
f 41/41/41 35/35/35 38/38/38
f 42/42/42 38/38/38 36/36/36
f 42/42/42 36/36/36 43/43/43
f 44/44/44 38/38/38 42/42/42
f 44/44/44 41/41/41 38/38/38
f 45/45/45 39/39/39 41/41/41
f 45/45/45 46/46/46 39/39/39
f 47/47/47 45/45/45 41/41/41
f 47/47/47 41/41/41 44/44/44
f 48/48/48 44/44/44 42/42/42
f 48/48/48 42/42/42 49/49/49
f 50/50/50 44/44/44 48/48/48
f 50/50/50 47/47/47 44/44/44
f 51/51/51 45/45/45 47/47/47
f 51/51/51 52/52/52 45/45/45
f 53/53/53 51/51/51 47/47/47
f 53/53/53 47/47/47 50/50/50
f 54/54/54 50/50/50 48/48/48
f 54/54/54 48/48/48 55/55/55
f 56/56/56 50/50/50 54/54/54
f 56/56/56 53/53/53 50/50/50
f 57/57/57 51/51/51 53/53/53
f 57/57/57 58/58/58 51/51/51
f 59/59/59 57/57/57 53/53/53
f 59/59/59 53/53/53 56/56/56
f 60/60/60 56/56/56 54/54/54
f 60/60/60 54/54/54 61/61/61
f 62/62/62 56/56/56 60/60/60
f 62/62/62 59/59/59 56/56/56
f 63/63/63 57/57/57 59/59/59
f 63/63/63 64/64/64 57/57/57
f 65/65/65 63/63/63 59/59/59
f 65/65/65 59/59/59 62/62/62
f 66/66/66 62/62/62 60/60/60
f 66/66/66 60/60/60 67/67/67
f 68/68/68 63/63/63 65/65/65
f 68/68/68 69/69/69 63/63/63
f 70/70/70 68/68/68 65/65/65
f 71/71/71 65/65/65 62/62/62
f 70/70/70 65/65/65 71/71/71
f 71/71/71 62/62/62 66/66/66
f 72/72/72 70/70/70 71/71/71
f 73/73/73 71/71/71 66/66/66
f 72/72/72 71/71/71 73/73/73
f 73/73/73 66/66/66 74/74/74
f 75/75/75 72/72/72 73/73/73
f 75/75/75 73/73/73 76/76/76
