g desert_tree_trunk01_COL
v 1.26247 12.14549 -0.8883721
v 0.9787548 11.96899 -0.8732464
v 1.297514 11.88594 -1.311722
v 1.26247 12.14549 -0.8883721
v 1.297831 12.04855 -0.4605782
v 0.9787548 11.96899 -0.8732464
v 1.26247 12.14549 -0.8883721
v 1.637329 11.96891 -0.8768482
v 1.297831 12.04855 -0.4605782
v 1.26247 12.14549 -0.8883721
v 1.297514 11.88594 -1.311722
v 1.637329 11.96891 -0.8768482
v 1.297831 12.04855 -0.4605782
v 1.637329 11.96891 -0.8768482
v 2.264273 11.16016 -0.9864258
v 1.446069 11.35864 -0.03996085
v 0.9787548 11.96899 -0.8732464
v 1.894618 9.670566 -0.8881605
v 0.776902 11.05707 -0.9690279
v 1.297514 11.88594 -1.311722
v 1.429558 10.52754 -2.00584
v 1.393776 9.745867 -0.2371131
v 1.434611 7.06712 -0.8110094
v 0.9060836 9.639042 -0.8806279
v 1.407146 9.942337 -1.657418
v 1.083684 7.143116 -0.4337316
v 0.7242537 7.122063 -0.8327224
v 1.083557 7.190417 -1.236514
v 0.4453727 3.392285 -0.8402783
v 0.427405 3.479609 -0.2265176
v 0.8800154 3.288614 -0.534573
v 0.7024796 1.194868 -0.1314122
v 0.1184675 3.44267 -0.5207765
v 0.1376996 1.121782 0.5632364
v 0.6123758 -0.2650332 -6.942544E-05
v 0.03025216 -0.2019056 0.5787228
v -0.4394564 1.162204 -0.1224599
v 0.1418968 0.9878084 -0.7490203
v -0.5080737 -0.1607287 0.001675272
v 0.03033933 -0.2772933 -0.586872
v 1.297514 11.88594 -1.311722
v 2.264273 11.16016 -0.9864258
v 1.637329 11.96891 -0.8768482
v 1.429558 10.52754 -2.00584
v 1.894618 9.670566 -0.8881605
v 1.407146 9.942337 -1.657418
v 1.434611 7.06712 -0.8110094
v 1.083557 7.190417 -1.236514
v 0.4453727 3.392285 -0.8402783
v 0.8800154 3.288614 -0.534573
v 0.7024796 1.194868 -0.1314122
v 0.1418968 0.9878084 -0.7490203
v 0.6123758 -0.2650332 -6.942544E-05
v 0.03033933 -0.2772933 -0.586872
v 0.02239932 -0.4959604 0.02039278
v 0.03033933 -0.2772933 -0.586872
v -0.5080737 -0.1607287 0.001675272
v 0.03025216 -0.2019056 0.5787228
v 0.6123758 -0.2650332 -6.942544E-05
vt 0.4503795 0.9172976
vt 0.34375 0.84375
vt 0.5 1
vt 0.4243379 0.7920149
vt 0.5 0.6875
vt 0.34375 0.84375
vt 0.5496205 0.7659732
vt 0.65625 0.84375
vt 0.5 0.6875
vt 0.5504414 0.8737714
vt 0.5 1
vt 0.65625 0.84375
vt 0.53125 0.6884398
vt 0.59375 0.6884398
vt 0.59375 0.6525367
vt 0.53125 0.6525367
vt 0.46875 0.6884398
vt 0.59375 0.604046
vt 0.46875 0.6525367
vt 0.40625 0.6884398
vt 0.40625 0.6525367
vt 0.53125 0.604046
vt 0.59375 0.5539935
vt 0.46875 0.604046
vt 0.40625 0.604046
vt 0.53125 0.5539935
vt 0.46875 0.5539935
vt 0.40625 0.5539935
vt 0.40625 0.4943873
vt 0.53125 0.4943873
vt 0.59375 0.4943873
vt 0.59375 0.389027
vt 0.46875 0.4943873
vt 0.53125 0.389027
vt 0.59375 0.3125
vt 0.53125 0.3125
vt 0.46875 0.389027
vt 0.40625 0.389027
vt 0.46875 0.3125
vt 0.40625 0.3125
vt 0.40625 0.6884398
vt 0.59375 0.6525367
vt 0.59375 0.6884398
vt 0.40625 0.6525367
vt 0.59375 0.604046
vt 0.40625 0.604046
vt 0.59375 0.5539935
vt 0.40625 0.5539935
vt 0.40625 0.4943873
vt 0.59375 0.4943873
vt 0.59375 0.389027
vt 0.40625 0.389027
vt 0.59375 0.3125
vt 0.40625 0.3125
vt 0.5 0.1513021
vt 0.5 1.490116E-08
vt 0.34375 0.15625
vt 0.5 0.3125
vt 0.65625 0.15625
vn -0.01919489 0.9841368 -0.1763696
vn -0.9609424 0.2736303 -0.04142653
vn -0.07181786 0.4917676 -0.8677596
vn -0.01919489 0.9841368 -0.1763696
vn -0.1103482 0.5306399 0.8403836
vn -0.9609424 0.2736303 -0.04142653
vn -0.01919489 0.9841368 -0.1763696
vn 0.7785198 0.6010018 -0.1808417
vn -0.1103482 0.5306399 0.8403836
vn -0.01919489 0.9841368 -0.1763696
vn -0.07181786 0.4917676 -0.8677596
vn 0.7785198 0.6010018 -0.1808417
vn -0.1103482 0.5306399 0.8403836
vn 0.7785198 0.6010018 -0.1808417
vn 0.9929209 0.1187225 0.003619385
vn 0.0798158 0.08193305 0.9934366
vn -0.9609424 0.2736303 -0.04142653
vn 0.977019 -0.2054833 0.05666169
vn -0.9983424 0.04269322 0.03859747
vn -0.07181786 0.4917676 -0.8677596
vn 0.06334642 -0.06020251 -0.9961742
vn 0.03765409 -0.1017664 0.9940954
vn 0.9828643 -0.1828343 -0.02344164
vn -0.998871 -0.006367761 0.0470754
vn 0.05329283 -0.2661103 -0.9624683
vn 0.01803516 0.007553141 0.9998088
vn -0.9940642 0.1038139 -0.03254602
vn 0.01828286 -0.1094861 -0.9938203
vn -0.02481555 -0.07591815 -0.9968052
vn -0.00830199 0.1662444 0.9860497
vn 0.9950322 -0.09904341 -0.01006897
vn 0.9980429 -0.04487609 0.04354831
vn -0.9793788 0.1960098 -0.04896327
vn 0.001101995 0.1812419 0.983438
vn 0.9689726 -0.2405623 0.05676267
vn 0.01967313 -0.1359871 0.9905154
vn -0.9863132 0.1648824 2.615481E-05
vn -0.02959878 -0.08135377 -0.9962457
vn -0.9927952 -0.1100798 0.04733119
vn 0.009192546 -0.220714 -0.9752952
vn -0.07181786 0.4917676 -0.8677596
vn 0.9929209 0.1187225 0.003619385
vn 0.7785198 0.6010018 -0.1808417
vn 0.06334642 -0.06020251 -0.9961742
vn 0.977019 -0.2054833 0.05666169
vn 0.05329283 -0.2661103 -0.9624683
vn 0.9828643 -0.1828343 -0.02344164
vn 0.01828286 -0.1094861 -0.9938203
vn -0.02481555 -0.07591815 -0.9968052
vn 0.9950322 -0.09904341 -0.01006897
vn 0.9980429 -0.04487609 0.04354831
vn -0.02959878 -0.08135377 -0.9962457
vn 0.9689726 -0.2405623 0.05676267
vn 0.009192546 -0.220714 -0.9752952
vn -0.08878725 -0.9825578 0.1633921
vn 0.009192546 -0.220714 -0.9752952
vn -0.9927952 -0.1100798 0.04733119
vn 0.01967313 -0.1359871 0.9905154
vn 0.9689726 -0.2405623 0.05676267
g desert_tree_trunk01_COL_0
f 3/3/3 2/2/2 1/1/1
f 6/6/6 5/5/5 4/4/4
f 9/9/9 8/8/8 7/7/7
f 12/12/12 11/11/11 10/10/10
f 15/15/15 14/14/14 13/13/13
f 16/16/16 15/15/15 13/13/13
f 16/16/16 13/13/13 17/17/17
f 18/18/18 15/15/15 16/16/16
f 19/19/19 16/16/16 17/17/17
f 19/19/19 17/17/17 20/20/20
f 21/21/21 19/19/19 20/20/20
f 22/22/22 18/18/18 16/16/16
f 22/22/22 16/16/16 19/19/19
f 23/23/23 18/18/18 22/22/22
f 24/24/24 19/19/19 21/21/21
f 24/24/24 22/22/22 19/19/19
f 25/25/25 24/24/24 21/21/21
f 26/26/26 23/23/23 22/22/22
f 26/26/26 22/22/22 24/24/24
f 27/27/27 24/24/24 25/25/25
f 27/27/27 26/26/26 24/24/24
f 28/28/28 27/27/27 25/25/25
f 28/28/28 29/29/29 27/27/27
f 26/26/26 30/30/30 23/23/23
f 30/30/30 31/31/31 23/23/23
f 32/32/32 31/31/31 30/30/30
f 27/27/27 33/33/33 26/26/26
f 29/29/29 33/33/33 27/27/27
f 33/33/33 30/30/30 26/26/26
f 34/34/34 32/32/32 30/30/30
f 34/34/34 30/30/30 33/33/33
f 35/35/35 32/32/32 34/34/34
f 36/36/36 35/35/35 34/34/34
f 37/37/37 33/33/33 29/29/29
f 37/37/37 34/34/34 33/33/33
f 36/36/36 34/34/34 37/37/37
f 38/38/38 37/37/37 29/29/29
f 39/39/39 36/36/36 37/37/37
f 39/39/39 37/37/37 38/38/38
f 40/40/40 39/39/39 38/38/38
f 43/43/43 42/42/42 41/41/41
f 42/42/42 44/44/44 41/41/41
f 42/42/42 45/45/45 44/44/44
f 45/45/45 46/46/46 44/44/44
f 45/45/45 47/47/47 46/46/46
f 47/47/47 48/48/48 46/46/46
f 49/49/49 48/48/48 47/47/47
f 50/50/50 49/49/49 47/47/47
f 50/50/50 51/51/51 49/49/49
f 51/51/51 52/52/52 49/49/49
f 51/51/51 53/53/53 52/52/52
f 53/53/53 54/54/54 52/52/52
f 57/57/57 56/56/56 55/55/55
f 58/58/58 57/57/57 55/55/55
f 56/56/56 59/59/59 55/55/55
f 59/59/59 58/58/58 55/55/55
