g desert_tree_trunk03_COL
v 0.8841792 10.99613 -0.1198148
v 0.6830091 10.82813 -0.1050837
v 0.9101916 10.77353 -0.3457537
v 0.8841792 10.99613 -0.1198148
v 0.9101916 10.88058 0.1261466
v 0.6830091 10.82813 -0.1050837
v 0.8841792 10.99613 -0.1198148
v 1.151983 10.82808 -0.1053169
v 0.9101916 10.88058 0.1261466
v 0.8841792 10.99613 -0.1198148
v 0.9101916 10.77353 -0.3457537
v 1.151983 10.82808 -0.1053169
v 0.9101916 10.88058 0.1261466
v 1.151983 10.82808 -0.1053169
v 1.591621 10.07972 -0.1864385
v 1.016932 10.2043 0.346559
v 0.6830091 10.82813 -0.1050837
v 1.370774 8.967682 -0.2809906
v 0.5507743 9.991423 -0.1867439
v 0.9101916 10.77353 -0.3457537
v 1.016932 9.623677 -0.7939785
v 1.017584 8.986854 0.06229192
v 1.106709 6.010206 -0.3025981
v 0.6823135 8.952853 -0.2810577
v 1.017616 9.19437 -0.6657536
v 0.8443221 6.253607 -0.02040483
v 0.5495814 6.259742 -0.3026677
v 0.8378769 6.21694 -0.5848608
v 0.6640912 4.539732 -0.574851
v 0.6319853 4.572888 0.07559012
v 1.124452 4.400709 -0.2558657
v 0.7408035 1.291358 -0.1080992
v 0.3121265 4.567104 -0.2433175
v 0.1404243 1.128643 0.5648937
v 0.6123759 -0.2650332 -6.943359E-05
v 0.03025215 -0.2019056 0.5787229
v -0.4380223 1.165815 -0.1215875
v 0.14632 0.9989452 -0.7463295
v -0.5080737 -0.1607287 0.001675281
v 0.03033932 -0.2772933 -0.586872
v 0.9101916 10.77353 -0.3457537
v 1.591621 10.07972 -0.1864385
v 1.151983 10.82808 -0.1053169
v 1.016932 9.623677 -0.7939785
v 1.370774 8.967682 -0.2809906
v 1.017616 9.19437 -0.6657536
v 1.106709 6.010206 -0.3025981
v 0.8378769 6.21694 -0.5848608
v 0.6640912 4.539732 -0.574851
v 1.124452 4.400709 -0.2558657
v 0.7408035 1.291358 -0.1080992
v 0.14632 0.9989452 -0.7463295
v 0.6123759 -0.2650332 -6.943359E-05
v 0.03033932 -0.2772933 -0.586872
v 0.03033932 -0.2772933 -0.586872
v -0.5080737 -0.1607287 0.001675281
v 0.02239933 -0.4959604 0.02039278
v 0.6123759 -0.2650332 -6.943359E-05
v 0.03025215 -0.2019056 0.5787229
vt 0.4503795 0.9172976
vt 0.34375 0.84375
vt 0.5 1
vt 0.4243379 0.7920149
vt 0.5 0.6875
vt 0.34375 0.84375
vt 0.5496205 0.7659732
vt 0.65625 0.84375
vt 0.5 0.6875
vt 0.5504414 0.8737714
vt 0.5 1
vt 0.65625 0.84375
vt 0.53125 0.6884398
vt 0.59375 0.6884398
vt 0.59375 0.6525367
vt 0.53125 0.6525367
vt 0.46875 0.6884398
vt 0.59375 0.604046
vt 0.46875 0.6525367
vt 0.40625 0.6884398
vt 0.40625 0.6525367
vt 0.53125 0.604046
vt 0.59375 0.5258036
vt 0.46875 0.604046
vt 0.40625 0.604046
vt 0.53125 0.5258036
vt 0.46875 0.5258036
vt 0.40625 0.5258036
vt 0.40625 0.4943873
vt 0.53125 0.4943873
vt 0.59375 0.4943873
vt 0.59375 0.389027
vt 0.46875 0.4943873
vt 0.53125 0.389027
vt 0.59375 0.3125
vt 0.53125 0.3125
vt 0.46875 0.389027
vt 0.40625 0.389027
vt 0.46875 0.3125
vt 0.40625 0.3125
vt 0.40625 0.6884398
vt 0.59375 0.6525367
vt 0.59375 0.6884398
vt 0.40625 0.6525367
vt 0.59375 0.604046
vt 0.40625 0.604046
vt 0.59375 0.5258036
vt 0.40625 0.5258036
vt 0.40625 0.4943873
vt 0.59375 0.4943873
vt 0.59375 0.389027
vt 0.40625 0.389027
vt 0.59375 0.3125
vt 0.40625 0.3125
vt 0.5 1.490116E-08
vt 0.34375 0.15625
vt 0.5 0.1513021
vt 0.65625 0.15625
vt 0.5 0.3125
vn -0.02491136 0.979879 -0.198032
vn -0.9776947 0.2094197 -0.01601455
vn -0.06022164 0.3816948 -0.9223244
vn -0.02491136 0.979879 -0.198032
vn -0.0952279 0.3287522 0.9396029
vn -0.9776947 0.2094197 -0.01601455
vn -0.02491136 0.979879 -0.198032
vn 0.8461083 0.5087972 -0.1588276
vn -0.0952279 0.3287522 0.9396029
vn -0.02491136 0.979879 -0.198032
vn -0.06022164 0.3816948 -0.9223244
vn 0.8461083 0.5087972 -0.1588276
vn -0.0952279 0.3287522 0.9396029
vn 0.8461083 0.5087972 -0.1588276
vn 0.9924413 0.1189612 0.03014006
vn 0.04816359 -0.0140251 0.998741
vn -0.9776947 0.2094197 -0.01601455
vn 0.9916224 -0.1288994 -0.008368211
vn -0.9974808 -0.002744401 0.07088397
vn -0.06022164 0.3816948 -0.9223244
vn 0.040202 0.04954056 -0.9979627
vn 0.04186339 -0.1156215 0.9924108
vn 0.9978939 -0.06242869 -0.0176254
vn -0.999879 -0.01548405 -0.00145827
vn 0.05300612 -0.07933632 -0.9954377
vn 0.0623662 0.002013344 0.9980513
vn -0.996539 0.07751638 -0.03002269
vn 0.06072639 -0.01222089 -0.9980797
vn -0.02955965 0.02886374 -0.9991462
vn -0.02316471 0.109936 0.9936687
vn 0.9973006 -0.07077594 0.01955278
vn 0.9961893 -0.08663498 0.01006679
vn -0.978349 0.2038803 -0.03558125
vn -0.04295156 0.0975237 0.9943059
vn 0.9795888 -0.1994409 0.02508212
vn 0.03206898 -0.06986689 0.9970407
vn -0.9852691 0.1650137 -0.04489062
vn -0.03846907 -0.01437738 -0.9991564
vn -0.9983332 -0.05483695 0.01799566
vn 0.03705622 -0.2174567 -0.9753662
vn -0.06022164 0.3816948 -0.9223244
vn 0.9924413 0.1189612 0.03014006
vn 0.8461083 0.5087972 -0.1588276
vn 0.040202 0.04954056 -0.9979627
vn 0.9916224 -0.1288994 -0.008368211
vn 0.05300612 -0.07933632 -0.9954377
vn 0.9978939 -0.06242869 -0.0176254
vn 0.06072639 -0.01222089 -0.9980797
vn -0.02955965 0.02886374 -0.9991462
vn 0.9973006 -0.07077594 0.01955278
vn 0.9961893 -0.08663498 0.01006679
vn -0.03846907 -0.01437738 -0.9991564
vn 0.9795888 -0.1994409 0.02508212
vn 0.03705622 -0.2174567 -0.9753662
vn 0.03705622 -0.2174567 -0.9753662
vn -0.9983332 -0.05483695 0.01799566
vn -0.0838706 -0.9943996 0.06430455
vn 0.9795888 -0.1994409 0.02508212
vn 0.03206898 -0.06986689 0.9970407
g desert_tree_trunk03_COL_0
f 3/3/3 2/2/2 1/1/1
f 6/6/6 5/5/5 4/4/4
f 9/9/9 8/8/8 7/7/7
f 12/12/12 11/11/11 10/10/10
f 15/15/15 14/14/14 13/13/13
f 16/16/16 15/15/15 13/13/13
f 16/16/16 13/13/13 17/17/17
f 18/18/18 15/15/15 16/16/16
f 19/19/19 16/16/16 17/17/17
f 19/19/19 17/17/17 20/20/20
f 21/21/21 19/19/19 20/20/20
f 22/22/22 18/18/18 16/16/16
f 22/22/22 16/16/16 19/19/19
f 23/23/23 18/18/18 22/22/22
f 24/24/24 19/19/19 21/21/21
f 24/24/24 22/22/22 19/19/19
f 25/25/25 24/24/24 21/21/21
f 26/26/26 23/23/23 22/22/22
f 26/26/26 22/22/22 24/24/24
f 27/27/27 24/24/24 25/25/25
f 27/27/27 26/26/26 24/24/24
f 28/28/28 27/27/27 25/25/25
f 28/28/28 29/29/29 27/27/27
f 26/26/26 30/30/30 23/23/23
f 30/30/30 31/31/31 23/23/23
f 32/32/32 31/31/31 30/30/30
f 27/27/27 33/33/33 26/26/26
f 29/29/29 33/33/33 27/27/27
f 33/33/33 30/30/30 26/26/26
f 34/34/34 32/32/32 30/30/30
f 34/34/34 30/30/30 33/33/33
f 35/35/35 32/32/32 34/34/34
f 36/36/36 35/35/35 34/34/34
f 37/37/37 33/33/33 29/29/29
f 37/37/37 34/34/34 33/33/33
f 36/36/36 34/34/34 37/37/37
f 38/38/38 37/37/37 29/29/29
f 39/39/39 36/36/36 37/37/37
f 39/39/39 37/37/37 38/38/38
f 40/40/40 39/39/39 38/38/38
f 43/43/43 42/42/42 41/41/41
f 42/42/42 44/44/44 41/41/41
f 42/42/42 45/45/45 44/44/44
f 45/45/45 46/46/46 44/44/44
f 45/45/45 47/47/47 46/46/46
f 47/47/47 48/48/48 46/46/46
f 49/49/49 48/48/48 47/47/47
f 50/50/50 49/49/49 47/47/47
f 50/50/50 51/51/51 49/49/49
f 51/51/51 52/52/52 49/49/49
f 51/51/51 53/53/53 52/52/52
f 53/53/53 54/54/54 52/52/52
f 57/57/57 56/56/56 55/55/55
f 58/58/58 57/57/57 55/55/55
f 57/57/57 59/59/59 56/56/56
f 57/57/57 58/58/58 59/59/59
