g desert_sprout_trunk03_flowers
v -0.3344107 3.428137 1.162224
v -0.5802059 3.258905 1.283951
v -0.5050755 3.507073 0.9040356
v -0.7135582 3.246224 0.9641838
v -0.9793472 3.125868 1.118727
v -0.8085537 3.046899 1.376915
v -0.9041023 3.374019 0.738802
v -0.6583023 3.54327 0.6171989
v -1.132669 3.162019 0.8317852
v -0.7301807 3.496189 0.6818962
v -0.7032394 3.554749 0.5115128
v -0.5605364 3.549685 0.7216358
v -0.5077219 3.548884 0.5333757
v -0.4945135 3.639028 0.3726006
v -0.6642056 3.585584 0.3327727
v -0.351851 3.633997 0.5827808
v -0.378809 3.575444 0.7530975
v -0.3128171 3.664881 0.40411
v -1.277313 3.34384 -0.03745556
v -1.00646 3.542376 -0.04867315
v -1.275234 3.338397 0.2806425
v -0.9676361 3.424811 0.2782249
v -0.7160473 3.683143 0.2624083
v -0.7183456 3.688595 -0.05578041
v -0.9850216 3.479161 0.5917263
v -1.256046 3.280606 0.6028557
v -0.6968689 3.625355 0.5846119
v 0.9485722 3.250484 0.6297588
v 0.7050228 3.478572 0.6396294
v 1.012306 3.3359 0.3717279
v 0.7770157 3.354659 0.3226042
v 0.5288696 3.694503 0.3639841
v 0.4651356 3.609006 0.6219673
v 0.8363342 3.551803 0.09612799
v 1.080055 3.323674 0.08617878
v 0.5963993 3.682241 0.07847548
v 0.5818748 3.052317 1.316833
v 0.2777672 3.17632 1.318016
v 0.6336164 3.26581 1.063976
v 0.3189778 3.282089 1.018133
v 0.02046943 3.463614 1.04475
v -0.03122807 3.250091 1.297398
v 0.3762722 3.553066 0.7907104
v 0.6804657 3.429022 0.7893658
v 0.06726742 3.626797 0.7700729
v 0.275445 3.493662 1.113071
v -0.02096348 3.603406 0.9262466
v 0.4661369 3.533151 0.8148575
v 0.1639628 3.507802 0.6235313
v -0.1293981 3.689671 0.4391432
v -0.3200698 3.650126 0.7372379
v 0.3577375 3.619447 0.3276944
v 0.6540871 3.509626 0.5145025
v 0.05860984 3.666108 0.1387799
v -1.010628 3.543353 -0.3324795
v -0.7867241 3.618369 -0.4765463
v -0.9010792 3.675423 -0.1018286
v -0.6037235 3.538361 -0.216856
v -0.4394484 3.779092 -0.3848934
v -0.5490589 3.64702 -0.6155491
v -0.5516148 3.838367 -0.01023769
v -0.7783794 3.762405 0.1338446
v -0.3108644 3.867431 -0.1492929
v -0.1648378 3.832343 0.604825
v -0.5134201 3.825698 0.3826571
v 0.05069256 3.909819 0.2593613
v -0.2641869 3.628793 0.0307864
v -0.6375504 3.823416 -0.1866448
v -0.853157 3.74593 0.1588178
v -0.07350922 3.907499 -0.3099656
v 0.2751327 3.914185 -0.08782506
v -0.413065 3.827708 -0.5338335
v -0.1122296 3.622794 -0.3693438
v -0.2801657 3.558154 -0.5642319
v 0.08915097 3.569894 -0.5309439
v -0.08109331 3.407815 -0.7052803
v -0.2477264 3.395064 -0.9110737
v -0.4491043 3.448031 -0.7495928
v 0.1215279 3.40678 -0.8777905
v 0.2894449 3.471484 -0.6830215
v -0.04747868 3.296682 -1.063156
v 0.4512501 3.516669 0.1119328
v 0.3358841 3.578931 0.1674318
v 0.413332 3.550096 -0.02442122
v 0.2748775 3.569536 0.04342794
v 0.1719666 3.654605 0.092237
v 0.2098989 3.621212 0.2286339
v 0.2493095 3.62576 -0.0996542
v 0.3646755 3.563523 -0.1550835
v 0.1231861 3.667979 -0.03839493
v 0.6674385 3.681345 -0.2064133
v 0.3184986 3.819537 -0.1327837
v 0.5779505 3.702064 -0.574193
v 0.1989555 3.473327 -0.4341316
v -0.1339591 3.807209 -0.395925
v -0.04449159 3.78653 -0.02810001
v 0.1254952 3.689713 -0.8373451
v 0.4744411 3.551528 -0.9109402
v -0.2374887 3.656681 -0.7326221
v -0.403347 3.493426 0.8484793
v -0.299139 3.519986 0.7820606
v -0.3336048 3.476775 0.9525681
v -0.2267265 3.457165 0.8736086
v -0.1239586 3.508284 0.8139229
v -0.1936913 3.524988 0.7099056
v -0.1584244 3.465099 0.9843183
v -0.2626419 3.43858 1.050665
v -0.05296707 3.470082 0.9120607
v -0.845089 3.444014 -0.5040264
v -0.8146477 3.327668 -0.7452011
v -0.6020927 3.56297 -0.5213451
v -0.5450249 3.357819 -0.7250977
v -0.5289459 3.288784 -0.9859657
v -0.7721329 3.169826 -0.9687614
v -0.3161907 3.524101 -0.7624435
v -0.3464413 3.640443 -0.5213165
v -0.2736568 3.366256 -0.9858322
v 1.003017 3.30754 0.1007032
v 0.7833099 3.421674 -0.08295059
v 1.146927 3.170884 -0.1364422
v 0.886879 3.179592 -0.3038216
v 0.6885719 3.349924 -0.4962444
v 0.5448818 3.486638 -0.2590942
v 1.051865 3.099127 -0.549736
v 1.271896 2.984986 -0.366087
v 0.8135414 3.164066 -0.7256603
v -1.401329 2.943968 -0.442791
v -1.254539 3.019248 -0.6231356
v -1.283836 3.142445 -0.3013802
v -1.105175 3.136891 -0.4652405
v -0.9757614 3.255227 -0.6544113
v -1.093063 3.056753 -0.7958221
v -1.004887 3.378463 -0.3326488
v -1.151638 3.303176 -0.1522791
v -0.8433914 3.415956 -0.5053282
v -1.249161 2.967912 0.7801437
v -1.29631 3.070695 0.597477
v -1.098309 3.127738 0.8032036
v -1.108875 3.167086 0.5989456
v -1.175499 3.303739 0.4278183
v -1.326122 3.143876 0.4047871
v -0.9776878 3.360782 0.6335831
v -0.9305763 3.258005 0.8161926
v -1.007729 3.433969 0.4408455
v -0.05782664 3.34326 -0.8896828
v 0.1120162 3.109247 -1.133537
v 0.2812386 3.446603 -0.7207108
v 0.4077768 3.096499 -0.9101868
v 0.6007242 2.924356 -1.183281
v 0.2616262 2.821021 -1.352272
v 0.7699442 3.261714 -0.7704544
v 0.6001496 3.495724 -0.5262089
v 0.9195518 2.973523 -0.9887886
v 0.5375671 3.339027 0.9706402
v 0.6773376 3.424858 0.753746
v 0.7175732 3.121753 1.030178
v 0.8150959 3.126764 0.7792282
v 0.9770966 3.255732 0.5803108
v 0.7973194 3.473003 0.5210114
v 1.017361 2.952636 0.856514
v 0.8780289 2.866804 1.073608
v 1.137543 3.000782 0.6237602
vt 0 0.5
vt 0 0.75
vt 0.25 0.5
vt 0.25 0.75
vt 0.25 1
vt 0 1
vt 0.5 0.75
vt 0.5 0.5
vt 0.5 1
vt 0.5 0.5
vt 0.5 0.75
vt 0.75 0.5
vt 0.75 0.75
vt 0.75 1
vt 0.5 1
vt 1 0.75
vt 1 0.5
vt 1 1
vt 0.5 0.5
vt 0.5 0.75
vt 0.75 0.5
vt 0.75 0.75
vt 0.75 1
vt 0.5 1
vt 1 0.75
vt 1 0.5
vt 1 1
vt 0 0.5
vt 0 0.75
vt 0.25 0.5
vt 0.25 0.75
vt 0.25 1
vt 0 1
vt 0.5 0.75
vt 0.5 0.5
vt 0.5 1
vt 0.5 0.5
vt 0.5 0.75
vt 0.75 0.5
vt 0.75 0.75
vt 0.75 1
vt 0.5 1
vt 1 0.75
vt 1 0.5
vt 1 1
vt 0 0.5
vt 0 0.75
vt 0.25 0.5
vt 0.25 0.75
vt 0.25 1
vt 0 1
vt 0.5 0.75
vt 0.5 0.5
vt 0.5 1
vt 0.5 0.5
vt 0.5 0.75
vt 0.75 0.5
vt 0.75 0.75
vt 0.75 1
vt 0.5 1
vt 1 0.75
vt 1 0.5
vt 1 1
vt 0 0.5
vt 0 0.75
vt 0.25 0.5
vt 0.25 0.75
vt 0.25 1
vt 0 1
vt 0.5 0.75
vt 0.5 0.5
vt 0.5 1
vt 0 0.5
vt 0 0.75
vt 0.25 0.5
vt 0.25 0.75
vt 0.25 1
vt 0 1
vt 0.5 0.75
vt 0.5 0.5
vt 0.5 1
vt 0.5 0.5
vt 0.5 0.75
vt 0.75 0.5
vt 0.75 0.75
vt 0.75 1
vt 0.5 1
vt 1 0.75
vt 1 0.5
vt 1 1
vt 0 0.5
vt 0 0.75
vt 0.25 0.5
vt 0.25 0.75
vt 0.25 1
vt 0 1
vt 0.5 0.75
vt 0.5 0.5
vt 0.5 1
vt 0.5 0.5
vt 0.5 0.75
vt 0.75 0.5
vt 0.75 0.75
vt 0.75 1
vt 0.5 1
vt 1 0.75
vt 1 0.5
vt 1 1
vt 0 0.5
vt 0 0.75
vt 0.25 0.5
vt 0.25 0.75
vt 0.25 1
vt 0 1
vt 0.5 0.75
vt 0.5 0.5
vt 0.5 1
vt 0 0.5
vt 0 0.75
vt 0.25 0.5
vt 0.25 0.75
vt 0.25 1
vt 0 1
vt 0.5 0.75
vt 0.5 0.5
vt 0.5 1
vt 0.5 0.5
vt 0.5 0.75
vt 0.75 0.5
vt 0.75 0.75
vt 0.75 1
vt 0.5 1
vt 1 0.75
vt 1 0.5
vt 1 1
vt 0.5 0.5
vt 0.5 0.75
vt 0.75 0.5
vt 0.75 0.75
vt 0.75 1
vt 0.5 1
vt 1 0.75
vt 1 0.5
vt 1 1
vt 0.5 0.5
vt 0.5 0.75
vt 0.75 0.5
vt 0.75 0.75
vt 0.75 1
vt 0.5 1
vt 1 0.75
vt 1 0.5
vt 1 1
vt 0 0.5
vt 0 0.75
vt 0.25 0.5
vt 0.25 0.75
vt 0.25 1
vt 0 1
vt 0.5 0.75
vt 0.5 0.5
vt 0.5 1
vn 0.002994007 0.9948749 -0.1010691
vn -0.08173504 0.9835933 -0.1608214
vn -0.1008181 0.9906393 -0.09202918
vn -0.05683385 0.991467 -0.1173164
vn -0.01270329 0.9897419 -0.1423015
vn -0.0732329 0.9956514 -0.05757925
vn -0.0317864 0.9967879 -0.07350931
vn -0.04021586 0.9834606 -0.1766012
vn -0.1164427 0.984237 -0.1331114
vn 0.09477072 0.9948133 -0.03694711
vn 0.1973763 0.9791919 -0.04717804
vn 0.1659597 0.9797897 -0.1116668
vn 0.1500679 0.9866045 -0.06396198
vn 0.1337896 0.9908791 -0.01609253
vn 0.1226004 0.98522 -0.1196273
vn 0.102373 0.9914768 -0.08058127
vn 0.1769567 0.9841856 -0.008050379
vn 0.2047865 0.9745925 -0.09073026
vn -0.1763056 0.9795965 0.09647279
vn -0.1275346 0.9737623 0.1884727
vn -0.0802343 0.9874139 0.1362951
vn -0.1306095 0.9817188 0.1384528
vn -0.1806485 0.9734962 0.1402541
vn -0.08943898 0.9916363 0.09304801
vn -0.1333481 0.9871477 0.08807654
vn -0.1712765 0.9680169 0.1833239
vn -0.08440983 0.9800568 0.1798992
vn 0.2041735 0.9788997 -0.0082857
vn 0.1585858 0.9820591 -0.1020321
vn 0.1098112 0.9926683 -0.05050884
vn 0.1600724 0.9857636 -0.05144745
vn 0.2099214 0.9763209 -0.05225353
vn 0.1175697 0.9930415 -0.006776011
vn 0.1611468 0.9869303 -0.0007302966
vn 0.201958 0.9746857 -0.09592027
vn 0.1153542 0.9888276 -0.09441088
vn 0.07024961 0.9741136 0.2148664
vn 0.07401005 0.990947 0.1120117
vn 0.005898895 0.9908921 0.1345291
vn 0.05112867 0.9862648 0.1570591
vn 0.09622676 0.9790982 0.1791846
vn -0.007892062 0.9843164 0.1762358
vn 0.02811557 0.9790432 0.201702
vn 0.109952 0.9844114 0.137277
vn 0.0318107 0.9946139 0.0986459
vn 0.09900443 0.9868846 0.1275023
vn 0.1127422 0.9933265 0.02432092
vn 0.04297712 0.9982639 0.04027801
vn 0.08573497 0.9940442 0.06727246
vn 0.1282721 0.9872652 0.09409378
vn 0.02521695 0.9963993 0.08094712
vn 0.05850702 0.9922025 0.1100509
vn 0.1459225 0.9878571 0.05333855
vn 0.07213498 0.9973718 0.00678351
vn -0.08664753 0.9901357 -0.1101064
vn -0.0015816 0.9987286 -0.05038577
vn 0.01720074 0.9927024 -0.1193574
vn -0.02682876 0.9951863 -0.09425805
vn -0.0707892 0.9951078 -0.06891597
vn -0.01052886 0.9880549 -0.1537425
vn -0.05200692 0.9890815 -0.1378876
vn -0.04302533 0.9984812 -0.0344102
vn 0.03309339 0.9964004 -0.07804616
vn 0.01498811 0.9980725 0.06022132
vn 0.02614379 0.9987127 -0.04346929
vn -0.04346936 0.9987127 -0.02614376
vn 0 1 0
vn 0.04346936 0.9987127 0.02614381
vn -0.06022135 0.9980725 0.01498807
vn -0.0261438 0.9987127 0.04346938
vn 0.06022138 0.9980725 -0.01498801
vn -0.01498811 0.9980725 -0.06022136
vn -0.03848415 0.9966 -0.07285241
vn -0.02017675 0.9843978 -0.1747966
vn -0.09074289 0.9826073 -0.1620146
vn -0.04931705 0.9898061 -0.13361
vn -0.007764282 0.9944565 -0.1048614
vn -0.1102678 0.9863493 -0.122295
vn -0.07833044 0.9926659 -0.09207945
vn 0.01182364 0.9894472 -0.1444101
vn -0.05995994 0.9791966 -0.1938523
vn -0.1725975 0.9667038 0.1889282
vn -0.2002034 0.9757253 0.08876272
vn -0.25715 0.9577859 0.12853
vn -0.2084533 0.9682101 0.1382623
vn -0.1592199 0.9761413 0.1476385
vn -0.2573151 0.9508249 0.1723979
vn -0.2161666 0.958202 0.1874058
vn -0.158788 0.9818628 0.1035937
vn -0.2435056 0.965984 0.08706326
vn 0.05790616 0.9980725 0.02231891
vn -0.02056858 0.9987127 -0.04636828
vn -0.04636826 0.9987127 0.02056852
vn 0 1 0
vn 0.04636826 0.9987127 -0.02056855
vn -0.02231896 0.9980725 0.05790611
vn 0.02056858 0.9987127 0.04636826
vn 0.02231896 0.9980725 -0.05790626
vn -0.05790615 0.9980725 -0.02231891
vn 0.0007851385 0.998742 -0.05013778
vn 0.08542349 0.9962867 0.01074694
vn 0.104587 0.9928058 -0.05829519
vn 0.06058671 0.9976012 -0.03348145
vn 0.01643043 0.9998282 -0.008581504
vn 0.07704795 0.992667 -0.09314424
vn 0.03559397 0.9963471 -0.07762361
vn 0.04389189 0.9986898 0.02631054
vn 0.1201548 0.9926147 -0.01669616
vn -0.07636319 0.996087 -0.04448979
vn 0.02099784 0.9964218 -0.08187074
vn -0.02606746 0.9904104 -0.1356749
vn -0.02962161 0.99591 -0.08535723
vn -0.03309945 0.9988453 -0.03481982
vn -0.07027984 0.9887902 -0.1317377
vn -0.08016472 0.9928341 -0.08862399
vn 0.01115106 0.9991906 -0.03864761
vn 0.01723424 0.9918937 -0.1258957
vn 0.1129867 0.9930806 -0.0320165
vn 0.1158398 0.9839317 -0.1358662
vn 0.04813773 0.9923494 -0.1136907
vn 0.09348484 0.9914588 -0.09094009
vn 0.1385914 0.9880155 -0.06795545
vn 0.03473673 0.9968297 -0.07158121
vn 0.07088929 0.996433 -0.04577998
vn 0.1518727 0.9822657 -0.1099485
vn 0.07362273 0.986015 -0.1495134
vn -0.2554254 0.9566513 -0.1399153
vn -0.1647411 0.9817569 -0.09494151
vn -0.1558299 0.9737909 -0.1656754
vn -0.1954305 0.9715156 -0.1340312
vn -0.234528 0.9667389 -0.102042
vn -0.187345 0.9627517 -0.1949639
vn -0.2256169 0.9587729 -0.1727759
vn -0.2027627 0.9765342 -0.0725821
vn -0.1346824 0.9826348 -0.1276305
vn -0.1894479 0.9740791 0.12361
vn -0.09055405 0.9913179 0.09533522
vn -0.1329566 0.990413 0.03747876
vn -0.1404261 0.9862178 0.08749215
vn -0.147534 0.9794835 0.1372804
vn -0.1768366 0.9835343 0.03727269
vn -0.1899365 0.9785785 0.07942399
vn -0.1034741 0.9850996 0.1373746
vn -0.09086291 0.9945548 0.05103736
vn -0.06716445 0.9714469 -0.2275517
vn 0.01876765 0.9852498 -0.17009
vn 0.03659755 0.9705734 -0.2380081
vn -0.007068277 0.9770306 -0.2129816
vn -0.05071602 0.9809723 -0.1874069
vn 0.008369964 0.962451 -0.2713262
vn -0.03288609 0.9662959 -0.2553249
vn -0.02247925 0.9878438 -0.1538163
vn 0.05305485 0.9788479 -0.1975908
vn 0.1350539 0.9757465 0.172276
vn 0.2371452 0.9581686 0.1602343
vn 0.2071137 0.9735044 0.09691696
vn 0.1905257 0.9709439 0.1448025
vn 0.1734469 0.9658836 0.1923152
vn 0.1641783 0.9823394 0.08974835
vn 0.1434154 0.9812195 0.1289979
vn 0.2161379 0.9558057 0.1992984
vn 0.245263 0.9623984 0.1167708
g desert_sprout_trunk03_flowers_0
f 3/3/3 2/2/2 1/1/1
f 3/3/3 4/4/4 2/2/2
f 4/4/4 5/5/5 2/2/2
f 5/5/5 6/6/6 2/2/2
f 7/7/7 4/4/4 3/3/3
f 7/7/7 5/5/5 4/4/4
f 8/8/8 7/7/7 3/3/3
f 7/7/7 9/9/9 5/5/5
f 12/12/12 11/11/11 10/10/10
f 12/12/12 13/13/13 11/11/11
f 13/13/13 14/14/14 11/11/11
f 14/14/14 15/15/15 11/11/11
f 16/16/16 13/13/13 12/12/12
f 16/16/16 14/14/14 13/13/13
f 17/17/17 16/16/16 12/12/12
f 16/16/16 18/18/18 14/14/14
f 21/21/21 20/20/20 19/19/19
f 21/21/21 22/22/22 20/20/20
f 22/22/22 23/23/23 20/20/20
f 23/23/23 24/24/24 20/20/20
f 25/25/25 22/22/22 21/21/21
f 25/25/25 23/23/23 22/22/22
f 26/26/26 25/25/25 21/21/21
f 25/25/25 27/27/27 23/23/23
f 30/30/30 29/29/29 28/28/28
f 30/30/30 31/31/31 29/29/29
f 31/31/31 32/32/32 29/29/29
f 32/32/32 33/33/33 29/29/29
f 34/34/34 31/31/31 30/30/30
f 34/34/34 32/32/32 31/31/31
f 35/35/35 34/34/34 30/30/30
f 34/34/34 36/36/36 32/32/32
f 39/39/39 38/38/38 37/37/37
f 39/39/39 40/40/40 38/38/38
f 40/40/40 41/41/41 38/38/38
f 41/41/41 42/42/42 38/38/38
f 43/43/43 40/40/40 39/39/39
f 43/43/43 41/41/41 40/40/40
f 44/44/44 43/43/43 39/39/39
f 43/43/43 45/45/45 41/41/41
f 48/48/48 47/47/47 46/46/46
f 48/48/48 49/49/49 47/47/47
f 49/49/49 50/50/50 47/47/47
f 50/50/50 51/51/51 47/47/47
f 52/52/52 49/49/49 48/48/48
f 52/52/52 50/50/50 49/49/49
f 53/53/53 52/52/52 48/48/48
f 52/52/52 54/54/54 50/50/50
f 57/57/57 56/56/56 55/55/55
f 57/57/57 58/58/58 56/56/56
f 58/58/58 59/59/59 56/56/56
f 59/59/59 60/60/60 56/56/56
f 61/61/61 58/58/58 57/57/57
f 61/61/61 59/59/59 58/58/58
f 62/62/62 61/61/61 57/57/57
f 61/61/61 63/63/63 59/59/59
f 66/66/66 65/65/65 64/64/64
f 66/66/66 67/67/67 65/65/65
f 67/67/67 68/68/68 65/65/65
f 68/68/68 69/69/69 65/65/65
f 70/70/70 67/67/67 66/66/66
f 70/70/70 68/68/68 67/67/67
f 71/71/71 70/70/70 66/66/66
f 70/70/70 72/72/72 68/68/68
f 75/75/75 74/74/74 73/73/73
f 75/75/75 76/76/76 74/74/74
f 76/76/76 77/77/77 74/74/74
f 77/77/77 78/78/78 74/74/74
f 79/79/79 76/76/76 75/75/75
f 79/79/79 77/77/77 76/76/76
f 80/80/80 79/79/79 75/75/75
f 79/79/79 81/81/81 77/77/77
f 84/84/84 83/83/83 82/82/82
f 84/84/84 85/85/85 83/83/83
f 85/85/85 86/86/86 83/83/83
f 86/86/86 87/87/87 83/83/83
f 88/88/88 85/85/85 84/84/84
f 88/88/88 86/86/86 85/85/85
f 89/89/89 88/88/88 84/84/84
f 88/88/88 90/90/90 86/86/86
f 93/93/93 92/92/92 91/91/91
f 93/93/93 94/94/94 92/92/92
f 94/94/94 95/95/95 92/92/92
f 95/95/95 96/96/96 92/92/92
f 97/97/97 94/94/94 93/93/93
f 97/97/97 95/95/95 94/94/94
f 98/98/98 97/97/97 93/93/93
f 97/97/97 99/99/99 95/95/95
f 102/102/102 101/101/101 100/100/100
f 102/102/102 103/103/103 101/101/101
f 103/103/103 104/104/104 101/101/101
f 104/104/104 105/105/105 101/101/101
f 106/106/106 103/103/103 102/102/102
f 106/106/106 104/104/104 103/103/103
f 107/107/107 106/106/106 102/102/102
f 106/106/106 108/108/108 104/104/104
f 111/111/111 110/110/110 109/109/109
f 111/111/111 112/112/112 110/110/110
f 112/112/112 113/113/113 110/110/110
f 113/113/113 114/114/114 110/110/110
f 115/115/115 112/112/112 111/111/111
f 115/115/115 113/113/113 112/112/112
f 116/116/116 115/115/115 111/111/111
f 115/115/115 117/117/117 113/113/113
f 120/120/120 119/119/119 118/118/118
f 120/120/120 121/121/121 119/119/119
f 121/121/121 122/122/122 119/119/119
f 122/122/122 123/123/123 119/119/119
f 124/124/124 121/121/121 120/120/120
f 124/124/124 122/122/122 121/121/121
f 125/125/125 124/124/124 120/120/120
f 124/124/124 126/126/126 122/122/122
f 129/129/129 128/128/128 127/127/127
f 129/129/129 130/130/130 128/128/128
f 130/130/130 131/131/131 128/128/128
f 131/131/131 132/132/132 128/128/128
f 133/133/133 130/130/130 129/129/129
f 133/133/133 131/131/131 130/130/130
f 134/134/134 133/133/133 129/129/129
f 133/133/133 135/135/135 131/131/131
f 138/138/138 137/137/137 136/136/136
f 138/138/138 139/139/139 137/137/137
f 139/139/139 140/140/140 137/137/137
f 140/140/140 141/141/141 137/137/137
f 142/142/142 139/139/139 138/138/138
f 142/142/142 140/140/140 139/139/139
f 143/143/143 142/142/142 138/138/138
f 142/142/142 144/144/144 140/140/140
f 147/147/147 146/146/146 145/145/145
f 147/147/147 148/148/148 146/146/146
f 148/148/148 149/149/149 146/146/146
f 149/149/149 150/150/150 146/146/146
f 151/151/151 148/148/148 147/147/147
f 151/151/151 149/149/149 148/148/148
f 152/152/152 151/151/151 147/147/147
f 151/151/151 153/153/153 149/149/149
f 156/156/156 155/155/155 154/154/154
f 156/156/156 157/157/157 155/155/155
f 157/157/157 158/158/158 155/155/155
f 158/158/158 159/159/159 155/155/155
f 160/160/160 157/157/157 156/156/156
f 160/160/160 158/158/158 157/157/157
f 161/161/161 160/160/160 156/156/156
f 160/160/160 162/162/162 158/158/158
