g desert_sprout_trunk03_COL
v -0.01836019 -0.1724872 0.02427667
v 0.5161104 0.06301495 -0.8166534
v -0.2328221 0.03059505 -0.9542687
v 0.4758133 0.8367444 -0.7884244
v -0.2498894 0.816573 -0.9006814
v -0.2328221 0.03059505 -0.9542687
v -0.2328221 0.03059505 -0.9542687
v -0.8395712 0.8258674 -0.4753298
v -0.8319622 0.02365176 -0.4896299
v -0.01836019 -0.1724872 0.02427667
v -0.8319622 0.02365176 -0.4896299
v -0.9620721 0.8266959 0.2337993
v -0.9851373 0.02892666 0.2444721
v -0.01836019 -0.1724872 0.02427667
v -0.9851373 0.02892666 0.2444721
v -0.5557001 0.8184806 0.8233542
v -0.5578412 0.02169323 0.8590406
v -0.01836019 -0.1724872 0.02427667
v -0.5578412 0.02169323 0.8590406
v 0.1516931 0.8170874 0.9595482
v 0.171936 0.00868151 0.961638
v -0.01836019 -0.1724872 0.02427667
v 0.171936 0.00868151 0.961638
v 0.7660916 0.8424565 0.5608976
v 0.8008316 0.05908312 0.556837
v -0.01836019 -0.1724872 0.02427667
v 0.8008316 0.05908312 0.556837
v 0.8997935 0.8507252 -0.1456463
v 0.9229959 0.03107942 -0.1705845
v -0.01836019 -0.1724872 0.02427667
v 0.9229959 0.03107942 -0.1705845
v 0.4758133 0.8367444 -0.7884244
v 0.5161104 0.06301495 -0.8166534
v -0.01836019 -0.1724872 0.02427667
v 0.7282332 1.908453 -1.165514
v 0.4758133 0.8367444 -0.7884244
v 0.8997935 0.8507252 -0.1456463
v 1.36327 1.932188 -0.2035901
v 0.577547 2.9995 -0.897585
v 1.070848 3.018131 -0.1518317
v -0.0732632 3.57594 0.09243488
v 1.36327 1.932188 -0.2035901
v 0.7660916 0.8424565 0.5608976
v 1.148768 1.937274 0.9095514
v 1.070848 3.018131 -0.1518317
v 0.9164103 3.031018 0.7372748
v -0.0732632 3.57594 0.09243488
v 1.148768 1.937274 0.9095514
v 0.1516931 0.8170874 0.9595482
v 0.194725 1.953145 1.557507
v 0.9164103 3.031018 0.7372748
v 0.1644631 3.060088 1.266531
v -0.0732632 3.57594 0.09243488
v 0.194725 1.953145 1.557507
v -0.5557001 0.8184806 0.8233542
v -0.9418864 1.96514 1.334829
v 0.1644631 3.060088 1.266531
v -0.7471836 3.083682 1.100626
v -0.0732632 3.57594 0.09243488
v -0.9418864 1.96514 1.334829
v -0.9620721 0.8266959 0.2337993
v -1.585574 1.969383 0.371864
v -0.7471836 3.083682 1.100626
v -1.267608 3.08723 0.3341586
v -0.0732632 3.57594 0.09243488
v -1.585574 1.969383 0.371864
v -0.8395712 0.8258674 -0.4753298
v -1.358267 1.960733 -0.7610691
v -1.267608 3.08723 0.3341586
v -0.2498894 0.816573 -0.9006814
v -1.089965 3.067715 -0.5686528
v -0.0732632 3.57594 0.09243488
v -0.4010126 1.940448 -1.397617
v -1.089965 3.067715 -0.5686528
v -0.3307714 3.031502 -1.077798
v -0.0732632 3.57594 0.09243488
v -0.4010126 1.940448 -1.397617
v 0.4758133 0.8367444 -0.7884244
v 0.7282332 1.908453 -1.165514
v -0.3307714 3.031502 -1.077798
v 0.577547 2.9995 -0.897585
v -0.0732632 3.57594 0.09243488
vt 0.05989583 0.1226425
vt 0.03125 0.2285258
vt 0.15625 0.2285259
vt 0.03125 0.3677714
vt 0.15625 0.3685117
vt 0.15625 0.2285259
vt 0.15625 0.2285259
vt 0.28125 0.3685117
vt 0.28125 0.2285259
vt 0.196875 0.110151
vt 0.28125 0.2285259
vt 0.40625 0.3685117
vt 0.40625 0.2285259
vt 0.321875 0.110151
vt 0.40625 0.2285259
vt 0.53125 0.3685117
vt 0.53125 0.2285259
vt 0.446875 0.110151
vt 0.53125 0.2285259
vt 0.65625 0.3685117
vt 0.65625 0.2285259
vt 0.571875 0.110151
vt 0.65625 0.2285259
vt 0.78125 0.3685117
vt 0.78125 0.2285259
vt 0.6835938 0.09141383
vt 0.78125 0.2285259
vt 0.90625 0.3685117
vt 0.90625 0.2285259
vt 0.8098958 0.1226425
vt 0.90625 0.2285259
vt 1 0.367031
vt 1 0.2285258
vt 0.946875 0.110151
vt 1 0.5
vt 1 0.367031
vt 0.90625 0.3685117
vt 0.90625 0.5141941
vt 1 0.6666667
vt 0.90625 0.6666667
vt 0.9125 0.8487779
vt 0.90625 0.5141941
vt 0.78125 0.3685117
vt 0.78125 0.5141941
vt 0.90625 0.6666667
vt 0.78125 0.6666667
vt 0.9125 0.8487779
vt 0.78125 0.5141941
vt 0.65625 0.3685117
vt 0.65625 0.5141941
vt 0.78125 0.6666667
vt 0.65625 0.6666667
vt 0.75 0.8624074
vt 0.65625 0.5141941
vt 0.53125 0.3685117
vt 0.53125 0.5141941
vt 0.65625 0.6666667
vt 0.53125 0.6666667
vt 0.625 0.8624074
vt 0.53125 0.5141941
vt 0.40625 0.3685117
vt 0.40625 0.5141941
vt 0.53125 0.6666667
vt 0.40625 0.6666667
vt 0.5 0.8624074
vt 0.40625 0.5141941
vt 0.28125 0.3685117
vt 0.28125 0.5141941
vt 0.40625 0.6666667
vt 0.15625 0.3685117
vt 0.28125 0.6666667
vt 0.375 0.8624074
vt 0.15625 0.5141941
vt 0.28125 0.6666667
vt 0.15625 0.6666667
vt 0.25 0.8624074
vt 0.15625 0.5141941
vt 0.03125 0.3677714
vt 0.03125 0.5070971
vt 0.15625 0.6666667
vt 0.03125 0.6666667
vt 0.09375 0.8551389
vn 0.01308426 -0.9998623 -0.01020382
vn 0.5284477 -0.3424213 -0.7768467
vn -0.2062626 -0.3751243 -0.9037353
vn 0.534279 -0.2522596 -0.8067905
vn -0.2152535 -0.2764567 -0.9366097
vn -0.2062626 -0.3751243 -0.9037353
vn -0.2062626 -0.3751243 -0.9037353
vn -0.7971483 -0.3212353 -0.5112363
vn -0.7774947 -0.392059 -0.4917232
vn 0.01308426 -0.9998623 -0.01020382
vn -0.7774947 -0.392059 -0.4917232
vn -0.9192781 -0.3442782 0.1907885
vn -0.9048373 -0.3802703 0.1914783
vn 0.01308426 -0.9998623 -0.01020382
vn -0.9048373 -0.3802703 0.1914783
vn -0.5123251 -0.3421282 0.7877
vn -0.4941991 -0.3759014 0.7838784
vn 0.01308426 -0.9998623 -0.01020382
vn -0.4941991 -0.3759014 0.7838784
vn 0.1913707 -0.3197556 0.9279729
vn 0.1988614 -0.3943197 0.897199
vn 0.01308426 -0.9998623 -0.01020382
vn 0.1988614 -0.3943197 0.897199
vn 0.7975336 -0.2887589 0.5296777
vn 0.7833105 -0.3516028 0.5126404
vn 0.01308426 -0.9998623 -0.01020382
vn 0.7833105 -0.3516028 0.5126404
vn 0.9467333 -0.2555658 -0.1959141
vn 0.9070244 -0.3725548 -0.1962388
vn 0.01308426 -0.9998623 -0.01020382
vn 0.9070244 -0.3725548 -0.1962388
vn 0.534279 -0.2522596 -0.8067905
vn 0.5284477 -0.3424213 -0.7768467
vn 0.01308426 -0.9998623 -0.01020382
vn 0.5523342 -0.05738739 -0.8316451
vn 0.534279 -0.2522596 -0.8067905
vn 0.9467333 -0.2555658 -0.1959141
vn 0.978793 -0.05767073 -0.1965664
vn 0.4946311 0.4699881 -0.7310618
vn 0.8641056 0.4686057 -0.1836579
vn 0.02731444 0.9994841 -0.01689942
vn 0.978793 -0.05767073 -0.1965664
vn 0.7975336 -0.2887589 0.5296777
vn 0.8256453 -0.07991725 0.5585006
vn 0.8641056 0.4686057 -0.1836579
vn 0.7457532 0.4650236 0.47708
vn 0.02731444 0.9994841 -0.01689942
vn 0.8256453 -0.07991725 0.5585006
vn 0.1913707 -0.3197556 0.9279729
vn 0.1887873 -0.1023702 0.9766676
vn 0.7457532 0.4650236 0.47708
vn 0.1919015 0.4699232 0.8615949
vn 0.02731444 0.9994841 -0.01689942
vn 0.1887873 -0.1023702 0.9766676
vn -0.5123251 -0.3421282 0.7877
vn -0.5544459 -0.1114756 0.82472
vn 0.1919015 0.4699232 0.8615949
vn -0.475775 0.4794673 0.7373936
vn 0.02731444 0.9994841 -0.01689942
vn -0.5544459 -0.1114756 0.82472
vn -0.9192781 -0.3442782 0.1907885
vn -0.9748641 -0.1037733 0.1971577
vn -0.475775 0.4794673 0.7373936
vn -0.8544269 0.48902 0.1755394
vn 0.02731444 0.9994841 -0.01689942
vn -0.9748641 -0.1037733 0.1971577
vn -0.7971483 -0.3212353 -0.5112363
vn -0.8343126 -0.08438885 -0.5447944
vn -0.8544269 0.48902 0.1755394
vn -0.2152535 -0.2764567 -0.9366097
vn -0.721451 0.4936437 -0.4856176
vn 0.02731444 0.9994841 -0.01689942
vn -0.2057886 -0.05971774 -0.9767727
vn -0.721451 0.4936437 -0.4856176
vn -0.1579225 0.488136 -0.8583611
vn 0.02731444 0.9994841 -0.01689942
vn -0.2057886 -0.05971774 -0.9767727
vn 0.534279 -0.2522596 -0.8067905
vn 0.5523342 -0.05738739 -0.8316451
vn -0.1579225 0.488136 -0.8583611
vn 0.4946311 0.4699881 -0.7310618
vn 0.02731444 0.9994841 -0.01689942
g desert_sprout_trunk03_COL_0
f 3/3/3 2/2/2 1/1/1
f 5/5/5 4/4/4 2/2/2
f 6/6/6 5/5/5 2/2/2
f 8/8/8 5/5/5 7/7/7
f 9/9/9 8/8/8 7/7/7
f 9/9/9 7/7/7 10/10/10
f 12/12/12 8/8/8 11/11/11
f 13/13/13 12/12/12 11/11/11
f 13/13/13 11/11/11 14/14/14
f 16/16/16 12/12/12 15/15/15
f 17/17/17 16/16/16 15/15/15
f 17/17/17 15/15/15 18/18/18
f 20/20/20 16/16/16 19/19/19
f 21/21/21 20/20/20 19/19/19
f 21/21/21 19/19/19 22/22/22
f 24/24/24 20/20/20 23/23/23
f 25/25/25 24/24/24 23/23/23
f 26/26/26 25/25/25 23/23/23
f 28/28/28 24/24/24 27/27/27
f 29/29/29 28/28/28 27/27/27
f 29/29/29 27/27/27 30/30/30
f 32/32/32 28/28/28 31/31/31
f 33/33/33 32/32/32 31/31/31
f 33/33/33 31/31/31 34/34/34
f 37/37/37 36/36/36 35/35/35
f 38/38/38 37/37/37 35/35/35
f 35/35/35 39/39/39 38/38/38
f 39/39/39 40/40/40 38/38/38
f 39/39/39 41/41/41 40/40/40
f 43/43/43 37/37/37 42/42/42
f 44/44/44 43/43/43 42/42/42
f 42/42/42 45/45/45 44/44/44
f 45/45/45 46/46/46 44/44/44
f 45/45/45 47/47/47 46/46/46
f 49/49/49 43/43/43 48/48/48
f 50/50/50 49/49/49 48/48/48
f 48/48/48 51/51/51 50/50/50
f 51/51/51 52/52/52 50/50/50
f 51/51/51 53/53/53 52/52/52
f 55/55/55 49/49/49 54/54/54
f 56/56/56 55/55/55 54/54/54
f 54/54/54 57/57/57 56/56/56
f 57/57/57 58/58/58 56/56/56
f 57/57/57 59/59/59 58/58/58
f 61/61/61 55/55/55 60/60/60
f 62/62/62 61/61/61 60/60/60
f 60/60/60 63/63/63 62/62/62
f 63/63/63 64/64/64 62/62/62
f 63/63/63 65/65/65 64/64/64
f 67/67/67 61/61/61 66/66/66
f 68/68/68 67/67/67 66/66/66
f 66/66/66 69/69/69 68/68/68
f 70/70/70 67/67/67 68/68/68
f 69/69/69 71/71/71 68/68/68
f 69/69/69 72/72/72 71/71/71
f 73/73/73 70/70/70 68/68/68
f 68/68/68 74/74/74 73/73/73
f 74/74/74 75/75/75 73/73/73
f 74/74/74 76/76/76 75/75/75
f 78/78/78 70/70/70 77/77/77
f 79/79/79 78/78/78 77/77/77
f 77/77/77 80/80/80 79/79/79
f 80/80/80 81/81/81 79/79/79
f 80/80/80 82/82/82 81/81/81
