g dirt_mid
v -1.251231 -0.4131534 0.7344881
v -0.7156052 -0.4131533 0.6444153
v -0.992838 -0.4131538 0.3670317
v -0.9465799 -0.1076265 0.8013165
v -0.4972616 -0.4131537 0.8477288
v -0.4133702 0.1522912 0.6217813
v -0.4308121 -0.33412 1.093127
v -1.039994 0.2475614 0.3440302
v -0.1961618 -0.4131537 1.064985
v 0.06536698 -0.4131538 0.9921939
v -1.674856 -0.3110735 1.074963
v -1.598422 -0.4131536 0.8472714
v -1.978424 -0.4131531 0.6984278
v 0.1194104 -0.2283112 1.064903
v 0.3603247 -0.4131534 0.9433466
v 0.7634035 -0.3392483 0.8604208
v 0.4387013 -0.4131538 0.6928102
v 0.8372531 -0.4131538 0.6511658
v 0.9986486 -0.4131535 0.8449488
v 1.243288 -0.4131533 1.003101
v 1.241505 -0.2059759 1.041625
v 1.470714 -0.4131534 0.9039981
v 1.724698 -0.4131535 0.8606292
v 0.4975151 0.2435204 0.5742333
v 1.824056 -0.2291837 0.9090913
v 1.936827 0.07780271 0.6150501
v 1.930045 -0.4131539 0.4364889
v 2.0574 -0.4131536 0.5943614
v 2.282941 -0.4131532 0.5639567
v 1.446103 0.2674016 0.3468413
v 0.2812825 0.280906 0.3463379
v 1.142186 0.2790183 -0.2825385
v 2.083707 -0.07149625 0.7006583
v 2.31479 -0.1106031 0.8207641
v 2.412552 -0.2315703 0.6523997
v 2.547299 -0.4131535 0.4574328
v 2.796143 -0.4131537 0.567377
v 3.033068 -0.4131531 0.6747458
v 2.490682 -0.008218765 0.6073274
v 3.060179 -0.1655509 0.7732093
v 2.334312 0.2135083 0.4395838
v 2.711986 0.05972623 0.6268318
v 3.477678 -0.3065516 0.3963023
v 3.168265 -0.4131536 0.3931317
v 3.55315 -0.4131533 0.1030699
v 2.638433 0.502635 0.1142519
v 3.167878 0.147764 -0.0648891
v 3.423607 -0.2504494 -0.4543783
v 3.331319 -0.4131531 -0.4611439
v 2.964359 -0.1596079 -0.8458691
v 1.921221 0.4624693 -0.02588656
v 2.943687 0.2182681 -0.1311885
v 2.155544 0.3952156 -0.452717
v 2.466939 -0.3185806 -0.7521181
v 2.682925 -0.4131538 -0.5316477
v 2.282278 -0.4131538 -0.7368817
v 2.286997 0.5428715 -0.08551656
v 2.240003 -0.04537477 -0.8861511
v 1.957018 -0.4131533 -0.8441106
v 1.395482 0.3165144 -0.3078507
v 1.859122 0.5281755 -0.4603638
v 1.935865 0.2657406 -0.7735893
v 1.650024 -0.1849326 -0.9327223
v 1.680079 -0.4131535 -0.8936173
v 1.443963 -0.4131538 -1.011701
v 1.295485 -0.4131531 -1.055902
v 1.299311 0.06128803 -0.6748406
v 0.8533664 -0.09001124 -0.8751988
v 1.065304 -0.4131537 -0.874328
v 0.6860246 -0.0386432 -1.060729
v 0.5077425 0.2437065 -0.8159724
v 0.2343074 0.4388548 -0.2407345
v -0.3542546 0.4343717 -0.02149104
v -0.3198821 0.2830243 -0.5549217
v -0.9115931 0.2440897 -0.2722719
v -1.189628 0.2995463 -0.1991093
v -1.400971 -0.3186131 -0.8841123
v -0.7231616 -0.1344064 -0.9480295
v -0.2342604 -0.1606589 -1.144299
v 0.2186446 -0.1368534 -1.15319
v -1.6457 0.2334278 0.4044573
v -0.3649802 -0.4131533 -1.146906
v -0.02322113 -0.4131534 -1.072776
v 0.2728517 -0.4131534 -1.013775
v 0.5735673 -0.4131538 -0.8075102
v 0.9476507 -0.4131539 -0.748
v -0.681336 -0.4131533 -0.8654488
v -1.165369 -0.3038326 -0.8198201
v -0.8744794 -0.4131534 -0.7117507
v -1.13999 -0.4131535 -0.6297395
v -1.676693 -0.4131536 -0.6060526
v -1.653389 -0.2692944 -0.7116346
v -1.836549 -0.4131535 -0.6938652
v -1.677336 0.09137256 -0.4481791
v -1.964538 -0.186656 -0.9085737
v -2.301164 -0.4131536 -0.6973118
v -1.778682 0.3704035 0.05814506
v -2.064627 0.3316292 -0.3723293
v -2.564916 0.2214616 -0.4003092
v -2.348321 -0.1067428 -0.8147748
v -2.149826 0.2338988 0.2269384
v -3.030065 -0.2149209 -0.6038887
v -2.925145 -0.4131537 -0.4056043
v -3.061675 -0.4131531 0.07935814
v -1.870438 -0.08662759 0.9426737
v -2.560433 -0.3055068 0.4968465
v -2.498541 0.02946983 0.5601913
v -2.681646 -0.3366263 0.4042631
v -2.83571 0.1374159 0.04586761
v -3.016575 -0.2697475 0.4484182
v -3.008356 -0.4131533 0.2750719
v -3.143134 -0.1631685 0.1464099
v -2.879282 0.06478107 -0.3579977
v -2.573795 0.01472349 -0.8029045
vt 0 0
vt 0 0
vt 0 0
vt 0 0
vt 0 0
vt 0 0
vt 0 0
vt 0 0
vt 0 0
vt 0 0
vt 0 0
vt 0 0
vt 0 0
vt 0 0
vt 0 0
vt 0 0
vt 0 0
vt 0 0
vt 0 0
vt 0 0
vt 0 0
vt 0 0
vt 0 0
vt 0 0
vt 0 0
vt 0 0
vt 0 0
vt 0 0
vt 0 0
vt 0 0
vt 0 0
vt 0 0
vt 0 0
vt 0 0
vt 0 0
vt 0 0
vt 0 0
vt 0 0
vt 0 0
vt 0 0
vt 0 0
vt 0 0
vt 0 0
vt 0 0
vt 0 0
vt 0 0
vt 0 0
vt 0 0
vt 0 0
vt 0 0
vt 0 0
vt 0 0
vt 0 0
vt 0 0
vt 0 0
vt 0 0
vt 0 0
vt 0 0
vt 0 0
vt 0 0
vt 0 0
vt 0 0
vt 0 0
vt 0 0
vt 0 0
vt 0 0
vt 0 0
vt 0 0
vt 0 0
vt 0 0
vt 0 0
vt 0 0
vt 0 0
vt 0 0
vt 0 0
vt 0 0
vt 0 0
vt 0 0
vt 0 0
vt 0 0
vt 0 0
vt 0 0
vt 0 0
vt 0 0
vt 0 0
vt 0 0
vt 0 0
vt 0 0
vt 0 0
vt 0 0
vt 0 0
vt 0 0
vt 0 0
vt 0 0
vt 0 0
vt 0 0
vt 0 0
vt 0 0
vt 0 0
vt 0 0
vt 0 0
vt 0 0
vt 0 0
vt 0 0
vt 0 0
vt 0 0
vt 0 0
vt 0 0
vt 0 0
vt 0 0
vt 0 0
vt 0 0
vt 0 0
vt 0 0
vn 0.3076862 -0.6820375 0.6634411
vn -0.1795717 -0.7954677 0.578779
vn 2.7876E-07 -1 1.125429E-06
vn 0.03498193 0.5107974 0.8589891
vn -0.5190374 0.1211955 0.8461157
vn -0.09890187 0.8116552 0.5757033
vn -0.4079185 0.4693271 0.7831568
vn 0.02126841 0.9303055 0.3661687
vn 0.02913761 -0.2574115 0.9658625
vn 0.1338638 -0.3852843 0.9130369
vn 0.02934332 0.3944755 0.9184378
vn 0.000603853 -0.9124165 0.4092625
vn -0.4130437 -0.5004058 0.7609133
vn 0.0751412 0.5809083 0.8104932
vn 0.2518356 -0.565175 0.7855928
vn -0.08155794 0.1635016 0.9831661
vn 0.1500819 -0.9786027 0.1407558
vn -0.07719164 -0.9483474 0.307699
vn -0.2610088 -0.9025177 0.3425436
vn -0.07384181 -0.2316515 0.9699922
vn 0.00385431 0.6474586 0.7620908
vn 0.2022887 -0.3767062 0.9039755
vn 0.4783406 -0.4627754 0.7463439
vn 0.04810828 0.8141066 0.5787192
vn 0.3719436 0.2398521 0.8967323
vn 0.004947453 0.8092665 0.5874208
vn 0.05567174 -0.9261558 0.3730095
vn -0.1255982 -0.8942445 0.4295949
vn 0.2489943 -0.4891407 0.8359087
vn 0.008346842 0.9293862 0.3690144
vn 0.04085242 0.9736713 0.2242658
vn 0.0656959 0.9921503 -0.1064048
vn 0.2057289 0.0755881 0.9756855
vn 0.03343763 0.2714235 0.961879
vn 0.1199891 -0.3290583 0.9366554
vn -0.09739051 -0.7609763 0.6414284
vn -0.2510474 -0.7913446 0.5574486
vn 0.1916829 -0.4978582 0.8458102
vn 0.01604624 0.4450958 0.8953391
vn 0.4425831 0.5404478 0.7155672
vn 0.02830257 0.7365516 0.6757889
vn 0.3124595 0.7524894 0.5797661
vn 0.8087044 0.4754007 0.3463978
vn 0.3153763 -0.9220542 0.2243965
vn 0.943354 0.3282963 0.04800933
vn 0.2912514 0.8941652 0.3400607
vn 0.6559962 0.7529197 0.05273413
vn 0.7844443 0.5005777 -0.3661545
vn 0.5163372 -0.587216 -0.6233565
vn 0.2993414 0.3521822 -0.8867707
vn -0.160384 0.9316662 0.3259985
vn 0.3689031 0.8212335 -0.4352998
vn 0.3026778 0.806502 -0.5078785
vn 0.01687735 -0.04143353 -0.9989987
vn 0.06689917 -0.8915401 -0.4479741
vn 0.2477961 -0.4000096 -0.8823771
vn 0.151267 0.9558005 -0.2521183
vn 0.4981433 0.3382284 -0.7984076
vn 0.1797847 -0.2383955 -0.9543821
vn -0.3131929 0.9326026 -0.1793395
vn -0.1933735 0.9398841 -0.2814685
vn -0.03853802 0.6364234 -0.7703766
vn -0.08440963 0.3611356 -0.9286851
vn 0.2928909 -0.1238809 -0.9480867
vn 0.3465238 0.0117186 -0.937968
vn -0.05398548 0.5234368 -0.8503525
vn -0.1468756 0.7423588 -0.6537055
vn 0.4103661 0.569345 -0.7123523
vn -0.1208825 -0.4663744 -0.8762888
vn 0.3115666 0.2736492 -0.9099684
vn 0.1018062 0.8666826 -0.4883612
vn 0.07788233 0.9960703 -0.0421709
vn -0.192506 0.9696656 0.1506321
vn -0.1811405 0.8625454 -0.4724443
vn -0.1630603 0.9354659 -0.3135518
vn 0.0390378 0.9499438 -0.3099723
vn -0.2085078 0.5258396 -0.8246316
vn -0.3076305 0.6629695 -0.682521
vn -0.1696519 0.6342737 -0.7542646
vn 0.06758387 0.3261594 -0.9428958
vn 0.007329817 0.8800464 0.4748312
vn -0.2986751 -0.01926848 -0.9541604
vn 0.1880682 -0.4226541 -0.8865629
vn 0.189229 -0.4378178 -0.8789244
vn 0 -1 -1.617157E-06
vn 0 -1 -1.799823E-06
vn -0.4124351 -0.3979624 -0.8194652
vn 0.05098601 -0.8009593 -0.5965439
vn -0.2172533 -0.9147699 -0.3405832
vn -0.03292971 -0.9103016 -0.4126338
vn -0.04661273 -0.8348345 -0.548524
vn 0.06202588 0.3072159 -0.9496164
vn 0.1642445 -0.6349608 -0.7548832
vn 0.1444266 0.7762482 -0.6136609
vn 0.1323699 0.345495 -0.929038
vn -0.20857 -0.4945099 -0.8437764
vn 0.005023609 0.9996318 0.02666752
vn 0.02953782 0.8922065 -0.4506606
vn -0.2266988 0.9365647 -0.267309
vn -0.11667 0.1999606 -0.9728329
vn -0.1901098 0.9330674 0.3053581
vn -0.7756828 0.004959632 -0.6311034
vn -0.5223284 -0.7251966 -0.4486234
vn -0.9402598 -0.3371453 -0.04737807
vn -0.1694505 0.5600122 0.8109703
vn -0.5115283 -0.1661998 0.84304
vn -0.3565959 0.6755097 0.6453882
vn -0.04844062 -0.4364174 0.8984395
vn -0.4165827 0.8846604 0.2093677
vn -0.5741876 0.3305557 0.7490271
vn -0.5217332 -0.6693143 0.5289735
vn -0.9329656 0.3348711 0.1320478
vn -0.6453142 0.7258701 -0.2380805
vn -0.2077176 0.5272917 -0.8239034
g dirt_mid_0
f 3/3/3 2/2/2 1/1/1
f 4/4/4 1/1/1 2/2/2
f 2/2/2 5/5/5 4/4/4
f 6/6/6 4/4/4 5/5/5
f 5/5/5 7/7/7 6/6/6
f 4/4/4 6/6/6 8/8/8
f 7/7/7 5/5/5 9/9/9
f 9/9/9 10/10/10 7/7/7
f 11/11/11 1/1/1 4/4/4
f 8/8/8 11/11/11 4/4/4
f 11/11/11 12/12/12 1/1/1
f 13/13/13 12/12/12 11/11/11
f 7/7/7 10/10/10 14/14/14
f 6/6/6 7/7/7 14/14/14
f 14/14/14 10/10/10 15/15/15
f 15/15/15 16/16/16 14/14/14
f 15/15/15 17/17/17 16/16/16
f 17/17/17 18/18/18 16/16/16
f 18/18/18 19/19/19 16/16/16
f 19/19/19 20/20/20 16/16/16
f 16/16/16 20/20/20 21/21/21
f 22/22/22 21/21/21 20/20/20
f 22/22/22 23/23/23 21/21/21
f 24/24/24 14/14/14 16/16/16
f 6/6/6 14/14/14 24/24/24
f 21/21/21 24/24/24 16/16/16
f 21/21/21 23/23/23 25/25/25
f 25/25/25 26/26/26 21/21/21
f 23/23/23 27/27/27 25/25/25
f 25/25/25 27/27/27 28/28/28
f 29/29/29 25/25/25 28/28/28
f 30/30/30 24/24/24 21/21/21
f 26/26/26 30/30/30 21/21/21
f 6/6/6 24/24/24 31/31/31
f 31/31/31 24/24/24 30/30/30
f 30/30/30 32/32/32 31/31/31
f 29/29/29 33/33/33 25/25/25
f 33/33/33 26/26/26 25/25/25
f 29/29/29 34/34/34 33/33/33
f 34/34/34 26/26/26 33/33/33
f 29/29/29 35/35/35 34/34/34
f 29/29/29 36/36/36 35/35/35
f 35/35/35 36/36/36 37/37/37
f 35/35/35 37/37/37 38/38/38
f 39/39/39 34/34/34 35/35/35
f 40/40/40 35/35/35 38/38/38
f 35/35/35 40/40/40 39/39/39
f 34/34/34 39/39/39 41/41/41
f 34/34/34 41/41/41 26/26/26
f 39/39/39 42/42/42 41/41/41
f 40/40/40 42/42/42 39/39/39
f 43/43/43 40/40/40 38/38/38
f 43/43/43 38/38/38 44/44/44
f 43/43/43 44/44/44 45/45/45
f 26/26/26 41/41/41 46/46/46
f 42/42/42 46/46/46 41/41/41
f 42/42/42 40/40/40 47/47/47
f 40/40/40 43/43/43 47/47/47
f 47/47/47 46/46/46 42/42/42
f 43/43/43 45/45/45 48/48/48
f 47/47/47 43/43/43 48/48/48
f 45/45/45 49/49/49 48/48/48
f 48/48/48 50/50/50 47/47/47
f 50/50/50 48/48/48 49/49/49
f 26/26/26 46/46/46 51/51/51
f 51/51/51 30/30/30 26/26/26
f 47/47/47 52/52/52 46/46/46
f 47/47/47 50/50/50 52/52/52
f 52/52/52 50/50/50 53/53/53
f 50/50/50 49/49/49 54/54/54
f 50/50/50 54/54/54 53/53/53
f 49/49/49 55/55/55 54/54/54
f 56/56/56 54/54/54 55/55/55
f 46/46/46 52/52/52 57/57/57
f 57/57/57 51/51/51 46/46/46
f 57/57/57 52/52/52 53/53/53
f 53/53/53 51/51/51 57/57/57
f 58/58/58 54/54/54 56/56/56
f 54/54/54 58/58/58 53/53/53
f 58/58/58 56/56/56 59/59/59
f 51/51/51 60/60/60 30/30/30
f 30/30/30 60/60/60 32/32/32
f 53/53/53 61/61/61 51/51/51
f 60/60/60 51/51/51 61/61/61
f 61/61/61 53/53/53 62/62/62
f 58/58/58 62/62/62 53/53/53
f 60/60/60 61/61/61 62/62/62
f 58/58/58 59/59/59 63/63/63
f 63/63/63 62/62/62 58/58/58
f 63/63/63 59/59/59 64/64/64
f 65/65/65 63/63/63 64/64/64
f 65/65/65 66/66/66 63/63/63
f 60/60/60 62/62/62 67/67/67
f 67/67/67 62/62/62 63/63/63
f 67/67/67 63/63/63 66/66/66
f 67/67/67 32/32/32 60/60/60
f 68/68/68 67/67/67 66/66/66
f 32/32/32 67/67/67 68/68/68
f 69/69/69 68/68/68 66/66/66
f 70/70/70 32/32/32 68/68/68
f 68/68/68 69/69/69 70/70/70
f 32/32/32 70/70/70 71/71/71
f 71/71/71 72/72/72 32/32/32
f 72/72/72 31/31/31 32/32/32
f 72/72/72 73/73/73 31/31/31
f 31/31/31 73/73/73 6/6/6
f 73/73/73 72/72/72 74/74/74
f 72/72/72 71/71/71 74/74/74
f 73/73/73 75/75/75 6/6/6
f 74/74/74 75/75/75 73/73/73
f 75/75/75 76/76/76 6/6/6
f 76/76/76 75/75/75 77/77/77
f 76/76/76 8/8/8 6/6/6
f 78/78/78 75/75/75 74/74/74
f 78/78/78 77/77/77 75/75/75
f 71/71/71 79/79/79 74/74/74
f 74/74/74 79/79/79 78/78/78
f 70/70/70 80/80/80 71/71/71
f 71/71/71 80/80/80 79/79/79
f 8/8/8 76/76/76 81/81/81
f 11/11/11 8/8/8 81/81/81
f 82/82/82 78/78/78 79/79/79
f 79/79/79 80/80/80 82/82/82
f 82/82/82 80/80/80 83/83/83
f 84/84/84 83/83/83 80/80/80
f 80/80/80 70/70/70 84/84/84
f 70/70/70 69/69/69 84/84/84
f 84/84/84 69/69/69 85/85/85
f 69/69/69 86/86/86 85/85/85
f 82/82/82 87/87/87 78/78/78
f 87/87/87 88/88/88 78/78/78
f 87/87/87 89/89/89 88/88/88
f 88/88/88 89/89/89 90/90/90
f 88/88/88 77/77/77 78/78/78
f 88/88/88 90/90/90 77/77/77
f 77/77/77 90/90/90 91/91/91
f 91/91/91 92/92/92 77/77/77
f 91/91/91 93/93/93 92/92/92
f 94/94/94 77/77/77 92/92/92
f 94/94/94 76/76/76 77/77/77
f 93/93/93 95/95/95 92/92/92
f 92/92/92 95/95/95 94/94/94
f 96/96/96 95/95/95 93/93/93
f 94/94/94 97/97/97 76/76/76
f 81/81/81 76/76/76 97/97/97
f 98/98/98 94/94/94 95/95/95
f 98/98/98 97/97/97 94/94/94
f 95/95/95 99/99/99 98/98/98
f 98/98/98 99/99/99 97/97/97
f 96/96/96 100/100/100 95/95/95
f 99/99/99 95/95/95 100/100/100
f 81/81/81 97/97/97 101/101/101
f 97/97/97 99/99/99 101/101/101
f 100/100/100 96/96/96 102/102/102
f 102/102/102 96/96/96 103/103/103
f 102/102/102 103/103/103 104/104/104
f 101/101/101 105/105/105 81/81/81
f 105/105/105 11/11/11 81/81/81
f 11/11/11 105/105/105 13/13/13
f 106/106/106 13/13/13 105/105/105
f 107/107/107 106/106/106 105/105/105
f 105/105/105 101/101/101 107/107/107
f 106/106/106 107/107/107 108/108/108
f 101/101/101 109/109/109 107/107/107
f 99/99/99 109/109/109 101/101/101
f 107/107/107 110/110/110 108/108/108
f 109/109/109 110/110/110 107/107/107
f 111/111/111 108/108/108 110/110/110
f 104/104/104 111/111/111 110/110/110
f 110/110/110 112/112/112 104/104/104
f 110/110/110 109/109/109 112/112/112
f 104/104/104 112/112/112 102/102/102
f 109/109/109 113/113/113 112/112/112
f 109/109/109 99/99/99 113/113/113
f 113/113/113 102/102/102 112/112/112
f 99/99/99 114/114/114 113/113/113
f 113/113/113 114/114/114 102/102/102
f 114/114/114 99/99/99 100/100/100
f 114/114/114 100/100/100 102/102/102
