g echochamber_light
v 0.09593441 0.0446359 0.05538775
v 0.09551039 0.001142856 0.05514295
v 0.05514295 0.001142856 0.09551039
v 0.05538775 0.0446359 0.09593441
v 0.08280704 0.08759427 0.04780867
v 0 0.001142856 0.1102859
v 0.04780867 0.08759427 0.08280704
v 0 0.0446359 0.1107755
v -0.05514295 0.001142856 0.09551039
v 0 0.08759427 0.09561733
v -0.05538775 0.0446359 0.09593441
v -0.09551039 0.001142856 0.05514295
v -0.04780867 0.08759427 0.08280704
v -0.09593441 0.0446359 0.05538775
v -0.1102859 0.001142856 9.159007E-16
v -0.08280704 0.08759427 0.04780867
v -0.1107755 0.0446359 9.370323E-16
v -0.09551039 0.001142856 -0.05514295
v -0.09561733 0.08759427 8.255927E-16
v -0.09593441 0.0446359 -0.05538775
v -0.05514295 0.001142856 -0.09551039
v -0.08280704 0.08759427 -0.04780867
v -0.05538775 0.0446359 -0.09593441
v 0 0.001142856 -0.1102859
v -0.04780867 0.08759427 -0.08280704
v 0 0.0446359 -0.1107755
v 0.05514295 0.001142856 -0.09551039
v 0 0.08759427 -0.09561733
v 0.05538775 0.0446359 -0.09593441
v 0.09551039 0.001142856 -0.05514295
v 0.04780867 0.08759427 -0.08280704
v 0.09593441 0.0446359 -0.05538775
v 0.1102859 0.001142856 9.159007E-16
v 0.08280704 0.08759427 -0.04780867
v 0.1107755 0.0446359 9.370323E-16
v 0.09551039 0.001142856 0.05514295
v 0.09561733 0.08759427 8.255927E-16
v 0.09593441 0.0446359 0.05538775
v 0.08280704 0.08759427 0.04780867
v 0.1004005 0.1143548 0.05796624
v 0.09399988 0.08759427 0.05427085
v 0.05427085 0.08759427 0.09399988
v 0.05796624 0.1143548 0.1004005
v 0 0.08759427 0.1085417
v 0 0.1143548 0.1159325
v -0.05427085 0.08759427 0.09399988
v -0.05796624 0.1143548 0.1004005
v -0.09399988 0.08759427 0.05427085
v -0.1004005 0.1143548 0.05796624
v -0.1085417 0.08759427 9.085694E-16
v -0.1159325 0.1143548 9.698885E-16
v -0.09399988 0.08759427 -0.05427085
v -0.1004005 0.1143548 -0.05796624
v 0.1159325 0.1143548 9.698885E-16
v 0.09399988 0.08759427 0.05427085
v 0.1004005 0.1143548 0.05796624
v 0.1085417 0.08759427 9.085694E-16
v 0.1004005 0.1143548 -0.05796624
v 0.09399988 0.08759427 -0.05427085
v 0.05796624 0.1143548 -0.1004005
v 0.05427085 0.08759427 -0.09399988
v 0 0.1143548 -0.1159325
v 0 0.08759427 -0.1085417
v -0.05796624 0.1143548 -0.1004005
v -0.05427085 0.08759427 -0.09399988
v -0.1004005 0.1143548 -0.05796624
v -0.09399988 0.08759427 -0.05427085
v -0.05427085 0.08759427 0.09399988
v 0 0.08759427 0.1085417
v 0.05427085 0.08759427 0.09399988
v -0.09399988 0.08759427 0.05427085
v 0.09399988 0.08759427 0.05427085
v -0.1085417 0.08759427 9.085694E-16
v 0.1085417 0.08759427 9.085694E-16
v 0.09399988 0.08759427 -0.05427085
v -0.09399988 0.08759427 -0.05427085
v -0.05427085 0.08759427 -0.09399988
v 0.05427085 0.08759427 -0.09399988
v 0 0.08759427 -0.1085417
v 0.09103654 0.1510992 7.963833E-16
v 0.1159325 0.1143548 9.698885E-16
v 0.1004005 0.1143548 0.05796624
v 0.1004005 0.1143548 -0.05796624
v 0.06217912 0.1510992 0.06217912
v 0.05796624 0.1143548 0.1004005
v 0 0.1510992 0.09103654
v 0 0.1143548 0.1159325
v -0.05796624 0.1143548 0.1004005
v 0.06217912 0.1510992 -0.06217912
v 0.05796624 0.1143548 -0.1004005
v 0.0402454 0.1746986 0.0402454
v -0.06217912 0.1510992 0.06217912
v -0.1004005 0.1143548 0.05796624
v 0.0402454 0.1746986 -0.0402454
v 0 0.1510992 -0.09103654
v 0 0.1143548 -0.1159325
v -0.05796624 0.1143548 -0.1004005
v -0.0402454 0.1746986 0.0402454
v -0.09103654 0.1510992 7.963833E-16
v -0.1159325 0.1143548 9.698885E-16
v -0.1004005 0.1143548 -0.05796624
v -0.06217912 0.1510992 -0.06217912
v -0.0402454 0.1746986 -0.0402454
v 0 0.1848945 6.005173E-16
vt 0.1650417 0.6861562
vt 0.1650417 0.7626257
vt 0.181865 0.7626257
vt 0.181865 0.6861562
vt 0.1650417 0.6106266
vt 0.1986883 0.7626257
vt 0.181865 0.6106266
vt 0.1986883 0.6861562
vt 0.2155116 0.7626257
vt 0.1986883 0.6106266
vt 0.2155116 0.6861562
vt 0.2323348 0.7626257
vt 0.2155116 0.6106266
vt 0.2323348 0.6861562
vt 0.249158 0.7626257
vt 0.2323348 0.6106266
vt 0.249158 0.6861562
vt 0.2659813 0.7626257
vt 0.249158 0.6106266
vt 0.2659813 0.6861562
vt 0.2828045 0.7626257
vt 0.2659813 0.6106266
vt 0.2828045 0.6861562
vt 0.2996278 0.7626257
vt 0.2828045 0.6106266
vt 0.2996278 0.6861562
vt 0.316451 0.7626257
vt 0.2996278 0.6106266
vt 0.316451 0.6861562
vt 0.3332742 0.7626257
vt 0.316451 0.6106266
vt 0.3332742 0.6861562
vt 0.3500975 0.7626257
vt 0.3332742 0.6106266
vt 0.3500975 0.6861562
vt 0.3669207 0.7626257
vt 0.3500975 0.6106266
vt 0.3669207 0.6861562
vt 0.3669207 0.6106266
vt 0.5065495 0.5857029
vt 0.5065495 0.6130821
vt 0.5410675 0.6130821
vt 0.5410675 0.5857029
vt 0.5755856 0.6130821
vt 0.5755856 0.5857029
vt 0.6101035 0.6130821
vt 0.6101035 0.5857029
vt 0.6446215 0.6130821
vt 0.6446215 0.5857029
vt 0.6791396 0.6130821
vt 0.6791396 0.5857029
vt 0.7136577 0.6130821
vt 0.7136577 0.5857029
vt 0.6791396 0.5857029
vt 0.7136577 0.6130821
vt 0.7136577 0.5857029
vt 0.6791396 0.6130821
vt 0.6446215 0.5857029
vt 0.6446215 0.6130821
vt 0.6101035 0.5857029
vt 0.6101035 0.6130821
vt 0.5755856 0.5857029
vt 0.5755856 0.6130821
vt 0.5410675 0.5857029
vt 0.5410675 0.6130821
vt 0.5065495 0.5857029
vt 0.5065495 0.6130821
vt 0.08359407 0.8880959
vt 0.05898763 0.8815321
vt 0.03451565 0.8880959
vt 0.1016074 0.9061092
vt 0.01661847 0.9061092
vt 0.1082007 0.9307157
vt 0.01006759 0.9307157
vt 0.01661847 0.9553224
vt 0.1016074 0.9553224
vt 0.08359407 0.9733357
vt 0.03451565 0.9733357
vt 0.05898763 0.9793244
vt 0.7000307 0.4950619
vt 0.7150657 0.4950619
vt 0.705319 0.4649125
vt 0.7060523 0.5341133
vt 0.68221 0.4607687
vt 0.6794239 0.4398485
vt 0.6449295 0.4431548
vt 0.6449295 0.4309397
vt 0.6094105 0.4405731
vt 0.6829964 0.5349989
vt 0.6806939 0.5597079
vt 0.6696116 0.4720249
vt 0.6071079 0.4607687
vt 0.5840521 0.4661677
vt 0.6696116 0.5200703
vt 0.6449295 0.5518355
vt 0.6449295 0.5693414
vt 0.6106804 0.5604326
vt 0.6210018 0.4720249
vt 0.5900737 0.4950619
vt 0.5750386 0.4950619
vt 0.5847852 0.5353686
vt 0.6078944 0.5349989
vt 0.6210018 0.5200703
vt 0.6449295 0.4950619
vn 0.8553516 0.1565192 0.4938373
vn 0.8659704 -0.01125665 0.4999684
vn 0.4999681 -0.01125667 0.8659707
vn 0.4938373 0.1565193 0.8553516
vn 0.8166753 0.3327498 0.4715071
vn 1.512606E-07 -0.01125665 0.9999367
vn 0.4715075 0.33275 0.8166751
vn 1.467723E-07 0.1565192 0.987675
vn -0.4999676 -0.01125665 0.865971
vn 1.59155E-07 0.3327497 0.9430151
vn -0.4938372 0.1565193 0.8553517
vn -0.8659703 -0.01125665 0.4999689
vn -0.4715078 0.3327499 0.8166748
vn -0.8553516 0.1565194 0.4938375
vn -0.9999367 -0.01125664 0
vn -0.8166754 0.3327499 0.471507
vn -0.9876748 0.1565193 0
vn -0.8659704 -0.01125665 -0.4999684
vn -0.9430151 0.3327497 0
vn -0.8553516 0.1565192 -0.4938373
vn -0.4999681 -0.01125667 -0.8659707
vn -0.8166753 0.3327498 -0.4715071
vn -0.4938373 0.1565193 -0.8553516
vn -1.512606E-07 -0.01125665 -0.9999367
vn -0.4715075 0.33275 -0.8166751
vn -1.467723E-07 0.1565192 -0.987675
vn 0.4999676 -0.01125665 -0.865971
vn -1.59155E-07 0.3327497 -0.9430151
vn 0.4938372 0.1565193 -0.8553517
vn 0.8659703 -0.01125665 -0.4999689
vn 0.4715078 0.3327499 -0.8166748
vn 0.8553516 0.1565194 -0.4938375
vn 0.9999367 -0.01125664 0
vn 0.8166754 0.3327499 -0.471507
vn 0.9876748 0.1565193 0
vn 0.8659704 -0.01125665 0.4999684
vn 0.9430151 0.3327497 0
vn 0.8553516 0.1565192 0.4938373
vn 0.8166753 0.3327498 0.4715071
vn 0.8347741 -0.2662155 0.4819561
vn 0.8347741 -0.2662155 0.4819561
vn 0.4819579 -0.2662158 0.8347728
vn 0.4819579 -0.2662158 0.8347728
vn 1.21323E-07 -0.2662162 0.9639133
vn 1.222744E-07 -0.2662162 0.9639133
vn -0.4819575 -0.2662156 0.8347732
vn -0.4819576 -0.2662156 0.8347731
vn -0.8347739 -0.2662153 0.4819563
vn -0.8347739 -0.2662154 0.4819564
vn -0.9639136 -0.2662157 0
vn -0.9639136 -0.2662157 0
vn -0.8347741 -0.2662155 -0.4819561
vn -0.8347741 -0.2662155 -0.4819561
vn 0.9639136 -0.2662157 0
vn 0.8347741 -0.2662155 0.4819561
vn 0.8347741 -0.2662155 0.4819561
vn 0.9639136 -0.2662157 0
vn 0.8347739 -0.2662154 -0.4819564
vn 0.8347739 -0.2662153 -0.4819563
vn 0.4819576 -0.2662156 -0.8347731
vn 0.4819575 -0.2662156 -0.8347732
vn -1.222744E-07 -0.2662162 -0.9639133
vn -1.21323E-07 -0.2662162 -0.9639133
vn -0.4819579 -0.2662158 -0.8347728
vn -0.4819579 -0.2662158 -0.8347728
vn -0.8347741 -0.2662155 -0.4819561
vn -0.8347741 -0.2662155 -0.4819561
vn 0 -1 3.062814E-06
vn 0 -1 0
vn 0 -1 3.062814E-06
vn 0 -1 -7.740937E-07
vn 0 -1 -7.740937E-07
vn 0 -1 -8.328955E-07
vn 0 -1 -8.328955E-07
vn 0 -1 -5.805703E-07
vn 0 -1 -5.805703E-07
vn 0 -1 -3.062814E-06
vn 0 -1 -3.062814E-06
vn 0 -1 0
vn 0.6941096 0.7198694 0
vn 0.7665763 0.6421533 0
vn 0.7170748 0.6106028 0.3361072
vn 0.7170748 0.6106029 -0.3361069
vn 0.515891 0.6838957 0.5158907
vn 0.3361067 0.6106025 0.7170752
vn 0 0.7198685 0.6941105
vn 0 0.6421524 0.7665769
vn -0.3361067 0.6106024 0.7170752
vn 0.5158912 0.6838961 -0.51589
vn 0.3361069 0.6106026 -0.717075
vn 0.2668286 0.9260695 0.2668291
vn -0.5158912 0.6838959 0.5158901
vn -0.7170748 0.6106029 0.3361069
vn 0.2668287 0.9260696 -0.2668285
vn 0 0.7198687 -0.6941103
vn 0 0.6421527 -0.7665768
vn -0.3361067 0.6106025 -0.7170751
vn -0.2668287 0.9260696 0.2668285
vn -0.6941095 0.7198695 -1.553445E-07
vn -0.7665763 0.6421532 0
vn -0.7170748 0.6106028 -0.3361072
vn -0.515891 0.6838956 -0.5158907
vn -0.2668287 0.9260695 -0.2668291
vn 0 1 0
g echochamber_light_0
f 3/3/3 2/2/2 1/1/1
f 4/4/4 3/3/3 1/1/1
f 4/4/4 1/1/1 5/5/5
f 6/6/6 3/3/3 4/4/4
f 7/7/7 4/4/4 5/5/5
f 8/8/8 6/6/6 4/4/4
f 8/8/8 4/4/4 7/7/7
f 9/9/9 6/6/6 8/8/8
f 10/10/10 8/8/8 7/7/7
f 11/11/11 9/9/9 8/8/8
f 11/11/11 8/8/8 10/10/10
f 12/12/12 9/9/9 11/11/11
f 13/13/13 11/11/11 10/10/10
f 14/14/14 12/12/12 11/11/11
f 14/14/14 11/11/11 13/13/13
f 15/15/15 12/12/12 14/14/14
f 16/16/16 14/14/14 13/13/13
f 17/17/17 15/15/15 14/14/14
f 17/17/17 14/14/14 16/16/16
f 18/18/18 15/15/15 17/17/17
f 19/19/19 17/17/17 16/16/16
f 20/20/20 18/18/18 17/17/17
f 20/20/20 17/17/17 19/19/19
f 21/21/21 18/18/18 20/20/20
f 22/22/22 20/20/20 19/19/19
f 23/23/23 21/21/21 20/20/20
f 23/23/23 20/20/20 22/22/22
f 24/24/24 21/21/21 23/23/23
f 25/25/25 23/23/23 22/22/22
f 26/26/26 24/24/24 23/23/23
f 26/26/26 23/23/23 25/25/25
f 27/27/27 24/24/24 26/26/26
f 28/28/28 26/26/26 25/25/25
f 29/29/29 27/27/27 26/26/26
f 29/29/29 26/26/26 28/28/28
f 30/30/30 27/27/27 29/29/29
f 31/31/31 29/29/29 28/28/28
f 32/32/32 30/30/30 29/29/29
f 32/32/32 29/29/29 31/31/31
f 33/33/33 30/30/30 32/32/32
f 34/34/34 32/32/32 31/31/31
f 35/35/35 33/33/33 32/32/32
f 35/35/35 32/32/32 34/34/34
f 36/36/36 33/33/33 35/35/35
f 37/37/37 35/35/35 34/34/34
f 38/38/38 36/36/36 35/35/35
f 38/38/38 35/35/35 37/37/37
f 39/39/39 38/38/38 37/37/37
f 42/42/42 41/41/41 40/40/40
f 43/43/43 42/42/42 40/40/40
f 44/44/44 42/42/42 43/43/43
f 45/45/45 44/44/44 43/43/43
f 46/46/46 44/44/44 45/45/45
f 47/47/47 46/46/46 45/45/45
f 48/48/48 46/46/46 47/47/47
f 49/49/49 48/48/48 47/47/47
f 50/50/50 48/48/48 49/49/49
f 51/51/51 50/50/50 49/49/49
f 52/52/52 50/50/50 51/51/51
f 53/53/53 52/52/52 51/51/51
f 56/56/56 55/55/55 54/54/54
f 55/55/55 57/57/57 54/54/54
f 54/54/54 57/57/57 58/58/58
f 57/57/57 59/59/59 58/58/58
f 58/58/58 59/59/59 60/60/60
f 59/59/59 61/61/61 60/60/60
f 60/60/60 61/61/61 62/62/62
f 61/61/61 63/63/63 62/62/62
f 62/62/62 63/63/63 64/64/64
f 63/63/63 65/65/65 64/64/64
f 64/64/64 65/65/65 66/66/66
f 65/65/65 67/67/67 66/66/66
f 70/70/70 69/69/69 68/68/68
f 70/70/70 68/68/68 71/71/71
f 72/72/72 70/70/70 71/71/71
f 72/72/72 71/71/71 73/73/73
f 74/74/74 72/72/72 73/73/73
f 75/75/75 74/74/74 73/73/73
f 76/76/76 75/75/75 73/73/73
f 76/76/76 77/77/77 75/75/75
f 77/77/77 78/78/78 75/75/75
f 77/77/77 79/79/79 78/78/78
f 82/82/82 81/81/81 80/80/80
f 81/81/81 83/83/83 80/80/80
f 84/84/84 82/82/82 80/80/80
f 85/85/85 82/82/82 84/84/84
f 84/84/84 86/86/86 85/85/85
f 86/86/86 87/87/87 85/85/85
f 87/87/87 86/86/86 88/88/88
f 83/83/83 89/89/89 80/80/80
f 83/83/83 90/90/90 89/89/89
f 80/80/80 91/91/91 84/84/84
f 84/84/84 91/91/91 86/86/86
f 86/86/86 92/92/92 88/88/88
f 93/93/93 88/88/88 92/92/92
f 89/89/89 94/94/94 80/80/80
f 94/94/94 91/91/91 80/80/80
f 89/89/89 90/90/90 95/95/95
f 95/95/95 94/94/94 89/89/89
f 90/90/90 96/96/96 95/95/95
f 96/96/96 97/97/97 95/95/95
f 91/91/91 98/98/98 86/86/86
f 86/86/86 98/98/98 92/92/92
f 93/93/93 92/92/92 99/99/99
f 92/92/92 98/98/98 99/99/99
f 100/100/100 93/93/93 99/99/99
f 100/100/100 99/99/99 101/101/101
f 97/97/97 101/101/101 102/102/102
f 97/97/97 102/102/102 95/95/95
f 99/99/99 102/102/102 101/101/101
f 102/102/102 103/103/103 95/95/95
f 99/99/99 103/103/103 102/102/102
f 103/103/103 94/94/94 95/95/95
f 98/98/98 103/103/103 99/99/99
f 94/94/94 104/104/104 91/91/91
f 103/103/103 104/104/104 94/94/94
f 91/91/91 104/104/104 98/98/98
f 98/98/98 104/104/104 103/103/103
