g fashionPad_light
v -1.637055E-09 0.3035065 -0.6408325
v -1.637055E-09 0.8295446 -0.6408325
v -0.1980281 0.8295446 -0.6094679
v -0.1980281 0.3035065 -0.6094679
v -1.637055E-09 0.1969638 -0.6408325
v -0.3766719 0.8295446 -0.5184444
v -0.1980281 0.1969638 -0.6094679
v -0.3766719 0.3035065 -0.5184444
v -0.5184443 0.8295446 -0.3766719
v -0.3766719 0.1969638 -0.5184444
v -0.5184443 0.3035065 -0.3766718
v -0.6094679 0.8295446 -0.1980281
v -0.5184443 0.1969638 -0.3766719
v -0.6094679 0.3035065 -0.1980281
v -0.6408324 0.8295446 -2.455582E-09
v -0.6094679 0.1969638 -0.1980281
v -0.6408324 0.3035065 -2.455582E-09
v -0.6094679 0.8295446 0.1980281
v -0.6408324 0.1969638 -2.455582E-09
v -0.6094679 0.3035065 0.1980281
v -0.5184443 0.8295446 0.3766718
v -0.6094679 0.1969638 0.1980281
v -0.5184443 0.3035065 0.3766718
v -0.3766718 0.8295446 0.5184442
v -0.5184443 0.1969638 0.3766718
v -0.3766718 0.3035065 0.5184442
v -0.1980281 0.8295446 0.6094678
v -0.3766718 0.1969638 0.5184442
v -0.1980281 0.3035065 0.6094677
v -2.073534E-08 0.8295446 0.6408323
v -0.1980281 0.1969638 0.6094678
v -2.073534E-08 0.3035065 0.6408323
v 0.198028 0.8295446 0.6094677
v -2.073534E-08 0.1969638 0.6408323
v 0.198028 0.3035065 0.6094677
v 0.3766717 0.8295446 0.5184442
v 0.198028 0.1969638 0.6094677
v 0.3766717 0.3035065 0.5184442
v 0.5184442 0.8295446 0.3766718
v 0.3766717 0.1969638 0.5184442
v 0.5184442 0.3035065 0.3766718
v 0.6094677 0.8295446 0.1980281
v 0.5184442 0.1969638 0.3766718
v 0.6094677 0.3035065 0.1980281
v 0.6408323 0.8295446 -2.455582E-09
v 0.6094677 0.1969638 0.1980281
v 0.6408323 0.3035065 -2.455582E-09
v 0.609468 0.8295446 -0.1980282
v 0.6408323 0.1969638 -2.455582E-09
v 0.609468 0.3035065 -0.1980281
v 0.5184445 0.8295446 -0.3766719
v 0.609468 0.1969638 -0.1980282
v 0.5184445 0.3035065 -0.3766719
v 0.3766719 0.8295446 -0.5184445
v 0.5184445 0.1969638 -0.3766719
v 0.3766719 0.3035065 -0.5184444
v 0.1980281 0.8295446 -0.609468
v 0.3766719 0.1969638 -0.5184445
v 0.1980281 0.3035065 -0.609468
v -1.637055E-09 0.8295446 -0.6408325
v 0.1980281 0.1969638 -0.609468
v -1.637055E-09 0.3035065 -0.6408325
v -1.637055E-09 0.1969638 -0.6408325
vt 1.588464E-05 0.1684254
vt 1.588464E-05 1
vt 0.0500159 1
vt 0.0500159 0.1684254
vt 1.588464E-05 -5.960464E-08
vt 0.1000159 1
vt 0.0500159 -5.960464E-08
vt 0.1000159 0.1684254
vt 0.1500159 1
vt 0.1000159 -5.960464E-08
vt 0.150016 0.1684254
vt 0.2000159 1
vt 0.1500159 -5.960464E-08
vt 0.2000159 0.1684254
vt 0.2500159 1
vt 0.2000159 -5.960464E-08
vt 0.2500159 0.1684254
vt 0.3000159 1
vt 0.2500159 -5.960464E-08
vt 0.3000159 0.1684254
vt 0.3500159 1
vt 0.3000159 -5.960464E-08
vt 0.3500159 0.1684254
vt 0.400016 1
vt 0.3500159 -5.960464E-08
vt 0.400016 0.1684254
vt 0.4500159 1
vt 0.400016 -5.960464E-08
vt 0.4500159 0.1684254
vt 0.5000159 1
vt 0.4500159 -5.960464E-08
vt 0.5000159 0.1684254
vt 0.5500159 1
vt 0.5000159 -5.960464E-08
vt 0.5500159 0.1684254
vt 0.6000159 1
vt 0.5500159 -5.960464E-08
vt 0.6000159 0.1684254
vt 0.6500159 1
vt 0.6000159 -5.960464E-08
vt 0.6500159 0.1684254
vt 0.7000159 1
vt 0.6500159 -5.960464E-08
vt 0.7000159 0.1684254
vt 0.7500159 1
vt 0.7000159 -5.960464E-08
vt 0.7500159 0.1684254
vt 0.8000159 1
vt 0.7500159 -5.960464E-08
vt 0.8000159 0.1684254
vt 0.8500159 1
vt 0.8000159 -5.960464E-08
vt 0.8500159 0.1684254
vt 0.9000159 1
vt 0.8500159 -5.960464E-08
vt 0.9000159 0.1684254
vt 0.9500159 1
vt 0.9000159 -5.960464E-08
vt 0.9500159 0.1684254
vt 1.000016 1
vt 0.9500159 -5.960464E-08
vt 1.000016 0.1684254
vt 1.000016 -5.960464E-08
vn -1.250423E-07 0 -1
vn -1.21227E-07 0 -1
vn -0.3090171 0 -0.9510565
vn -0.3090171 0 -0.9510565
vn -1.438797E-07 0 -1
vn -0.5877855 0 -0.8090168
vn -0.3090171 0 -0.9510565
vn -0.5877855 0 -0.8090168
vn -0.8090171 0 -0.5877852
vn -0.5877855 2.169655E-07 -0.8090168
vn -0.8090171 0 -0.5877851
vn -0.9510565 -1.101443E-07 -0.3090169
vn -0.8090171 3.991763E-07 -0.5877851
vn -0.9510565 0 -0.3090169
vn -1 -1.171834E-07 0
vn -0.9510565 5.4382E-07 -0.3090168
vn -1 0 0
vn -0.9510565 0 0.3090169
vn -1 5.785745E-07 0
vn -0.9510565 0 0.3090169
vn -0.8090169 0 0.5877854
vn -0.9510565 2.892874E-07 0.3090169
vn -0.8090169 0 0.5877854
vn -0.5877852 0 0.8090171
vn -0.8090169 0 0.5877854
vn -0.5877851 0 0.8090171
vn -0.3090168 0 0.9510565
vn -0.5877852 1.446437E-07 0.8090171
vn -0.3090168 0 0.9510565
vn 0 0 1
vn -0.3090168 2.332633E-07 0.9510565
vn 0 0 1
vn 0.3090169 0 0.9510565
vn 0 0 1
vn 0.3090169 0 0.9510565
vn 0.5877854 0 0.8090169
vn 0.3090169 0 0.9510565
vn 0.5877854 0 0.8090169
vn 0.809017 0 0.5877853
vn 0.5877853 0 0.8090169
vn 0.809017 0 0.5877854
vn 0.9510565 0 0.3090171
vn 0.809017 0 0.5877852
vn 0.9510565 0 0.3090171
vn 1 0 8.672396E-07
vn 0.9510565 0 0.309017
vn 1 0 8.665725E-07
vn 0.9510568 0 -0.3090161
vn 1 0 8.632783E-07
vn 0.9510568 0 -0.309016
vn 0.809017 0 -0.5877853
vn 0.9510568 0 -0.309016
vn 0.809017 0 -0.5877852
vn 0.5877852 0 -0.8090171
vn 0.809017 1.308428E-07 -0.5877852
vn 0.5877851 0 -0.8090171
vn 0.3090167 0 -0.9510565
vn 0.587785 3.706635E-07 -0.8090172
vn 0.3090167 0 -0.9510565
vn -1.21227E-07 0 -1
vn 0.3090166 2.2602E-07 -0.9510565
vn -1.250423E-07 0 -1
vn -1.438797E-07 0 -1
g fashionPad_light_0
f 3/3/3 2/2/2 1/1/1
f 4/4/4 3/3/3 1/1/1
f 4/4/4 1/1/1 5/5/5
f 6/6/6 3/3/3 4/4/4
f 7/7/7 4/4/4 5/5/5
f 8/8/8 6/6/6 4/4/4
f 8/8/8 4/4/4 7/7/7
f 9/9/9 6/6/6 8/8/8
f 10/10/10 8/8/8 7/7/7
f 11/11/11 9/9/9 8/8/8
f 11/11/11 8/8/8 10/10/10
f 12/12/12 9/9/9 11/11/11
f 13/13/13 11/11/11 10/10/10
f 14/14/14 12/12/12 11/11/11
f 14/14/14 11/11/11 13/13/13
f 15/15/15 12/12/12 14/14/14
f 16/16/16 14/14/14 13/13/13
f 17/17/17 15/15/15 14/14/14
f 17/17/17 14/14/14 16/16/16
f 18/18/18 15/15/15 17/17/17
f 19/19/19 17/17/17 16/16/16
f 20/20/20 18/18/18 17/17/17
f 20/20/20 17/17/17 19/19/19
f 21/21/21 18/18/18 20/20/20
f 22/22/22 20/20/20 19/19/19
f 23/23/23 21/21/21 20/20/20
f 23/23/23 20/20/20 22/22/22
f 24/24/24 21/21/21 23/23/23
f 25/25/25 23/23/23 22/22/22
f 26/26/26 24/24/24 23/23/23
f 26/26/26 23/23/23 25/25/25
f 27/27/27 24/24/24 26/26/26
f 28/28/28 26/26/26 25/25/25
f 29/29/29 27/27/27 26/26/26
f 29/29/29 26/26/26 28/28/28
f 30/30/30 27/27/27 29/29/29
f 31/31/31 29/29/29 28/28/28
f 32/32/32 30/30/30 29/29/29
f 32/32/32 29/29/29 31/31/31
f 33/33/33 30/30/30 32/32/32
f 34/34/34 32/32/32 31/31/31
f 35/35/35 33/33/33 32/32/32
f 35/35/35 32/32/32 34/34/34
f 36/36/36 33/33/33 35/35/35
f 37/37/37 35/35/35 34/34/34
f 38/38/38 36/36/36 35/35/35
f 38/38/38 35/35/35 37/37/37
f 39/39/39 36/36/36 38/38/38
f 40/40/40 38/38/38 37/37/37
f 41/41/41 39/39/39 38/38/38
f 41/41/41 38/38/38 40/40/40
f 42/42/42 39/39/39 41/41/41
f 43/43/43 41/41/41 40/40/40
f 44/44/44 42/42/42 41/41/41
f 44/44/44 41/41/41 43/43/43
f 45/45/45 42/42/42 44/44/44
f 46/46/46 44/44/44 43/43/43
f 47/47/47 45/45/45 44/44/44
f 47/47/47 44/44/44 46/46/46
f 48/48/48 45/45/45 47/47/47
f 49/49/49 47/47/47 46/46/46
f 50/50/50 48/48/48 47/47/47
f 50/50/50 47/47/47 49/49/49
f 51/51/51 48/48/48 50/50/50
f 52/52/52 50/50/50 49/49/49
f 53/53/53 51/51/51 50/50/50
f 53/53/53 50/50/50 52/52/52
f 54/54/54 51/51/51 53/53/53
f 55/55/55 53/53/53 52/52/52
f 56/56/56 54/54/54 53/53/53
f 56/56/56 53/53/53 55/55/55
f 57/57/57 54/54/54 56/56/56
f 58/58/58 56/56/56 55/55/55
f 59/59/59 57/57/57 56/56/56
f 59/59/59 56/56/56 58/58/58
f 60/60/60 57/57/57 59/59/59
f 61/61/61 59/59/59 58/58/58
f 62/62/62 60/60/60 59/59/59
f 62/62/62 59/59/59 61/61/61
f 63/63/63 62/62/62 61/61/61
