g fire_DLC_horns_LOD0
v -0.2168538 1.097003 0.1041755
v -0.2366185 1.101685 0.1113539
v -0.232671 1.095394 0.08942333
v -0.2242527 1.060901 0.1001988
v -0.2503262 1.086121 0.09905921
v -0.2366185 1.101685 0.1113539
v -0.1904628 1.074603 0.1207424
v -0.1489992 1.022325 0.13711
v -0.2189713 1.092284 0.130454
v -0.2366185 1.101685 0.1113539
v -0.2340737 1.080725 0.1511383
v -0.1973949 1.060214 0.1675406
v -0.2265784 1.043774 0.1986145
v -0.1471986 0.9918441 0.206562
v -0.2101316 0.9587338 0.2375122
v -0.1479054 0.9103506 0.2380276
v -0.1888454 0.8880075 0.2452763
v -0.1689339 0.8303972 0.237072
v -0.1191863 0.8480923 0.2260065
v -0.08291391 0.8760483 0.1955937
v -0.1134909 0.9278888 0.2085228
v -0.106035 0.9529538 0.1686532
v -0.07123221 0.896178 0.1463212
v -0.0846299 0.9149325 0.09698428
v -0.1152367 0.9629047 0.1233151
v -0.1500778 0.9693998 0.09118108
v -0.1220682 0.9144548 0.057569
v -0.1722843 0.9081789 0.03956637
v -0.2105924 1.015767 0.09451245
v -0.1909187 0.9568008 0.07232592
v -0.236264 0.9433201 0.08190177
v -0.2207888 0.88466 0.04804143
v -0.2581819 0.8625529 0.08023466
v -0.2629875 1.049012 0.1124631
v -0.2749645 0.9839728 0.1217116
v -0.266753 0.9170563 0.107002
v -0.2785103 0.9006574 0.1508294
v -0.2686784 0.8365951 0.1272986
v -0.2564747 0.8236803 0.1789014
v -0.2512513 1.081083 0.127236
v -0.2366185 1.101685 0.1113539
v -0.2654786 1.038256 0.1604706
v -0.2735353 0.9529772 0.193798
v -0.2651882 0.8817993 0.1935015
v -0.2341945 0.8841338 0.2294832
v -0.217912 0.8183042 0.2165115
v -0.1689339 0.8303972 0.237072
v -0.1888454 0.8880075 0.2452763
v -0.2101316 0.9587338 0.2375122
v -0.2265784 1.043774 0.1986145
v -0.2340737 1.080725 0.1511383
v -0.2366185 1.101685 0.1113539
v 0.2168538 1.097003 0.1041755
v 0.232671 1.095394 0.08942333
v 0.2366185 1.101685 0.1113539
v 0.2242527 1.060901 0.1001988
v 0.2503262 1.086121 0.09905921
v 0.2366185 1.101685 0.1113539
v 0.1904628 1.074603 0.1207424
v 0.1489992 1.022325 0.13711
v 0.2189713 1.092284 0.130454
v 0.2366185 1.101685 0.1113539
v 0.2340737 1.080725 0.1511383
v 0.1973949 1.060214 0.1675406
v 0.2265784 1.043774 0.1986145
v 0.1471986 0.9918441 0.206562
v 0.2101316 0.9587338 0.2375122
v 0.1479054 0.9103506 0.2380276
v 0.1888454 0.8880075 0.2452763
v 0.1689339 0.8303972 0.237072
v 0.1191863 0.8480923 0.2260065
v 0.08291391 0.8760483 0.1955937
v 0.1134909 0.9278888 0.2085228
v 0.106035 0.9529538 0.1686532
v 0.07123221 0.896178 0.1463212
v 0.0846299 0.9149325 0.09698428
v 0.1152367 0.9629047 0.1233151
v 0.1500778 0.9693998 0.09118108
v 0.1220682 0.9144548 0.057569
v 0.1722843 0.9081789 0.03956637
v 0.2105924 1.015767 0.09451245
v 0.1909187 0.9568008 0.07232592
v 0.236264 0.9433201 0.08190177
v 0.2207888 0.88466 0.04804143
v 0.2581819 0.8625529 0.08023466
v 0.2629875 1.049012 0.1124631
v 0.2749645 0.9839728 0.1217116
v 0.266753 0.9170563 0.107002
v 0.2785103 0.9006574 0.1508294
v 0.2686784 0.8365951 0.1272986
v 0.2564747 0.8236803 0.1789014
v 0.2512513 1.081083 0.127236
v 0.2366185 1.101685 0.1113539
v 0.2654786 1.038256 0.1604706
v 0.2735353 0.9529772 0.193798
v 0.2651882 0.8817993 0.1935015
v 0.2341945 0.8841338 0.2294832
v 0.217912 0.8183042 0.2165115
v 0.1689339 0.8303972 0.237072
v 0.1888454 0.8880075 0.2452763
v 0.2101316 0.9587338 0.2375122
v 0.2265784 1.043774 0.1986145
v 0.2340737 1.080725 0.1511383
v 0.2366185 1.101685 0.1113539
vt 0.8903202 0.6940436
vt 0.8751626 0.6503711
vt 0.8740687 0.6919534
vt 0.8724341 0.731214
vt 0.8572429 0.6940434
vt 0.8751626 0.6503711
vt 0.9019299 0.731214
vt 0.9083643 0.8175793
vt 0.9114083 0.6940436
vt 0.8751626 0.6503711
vt 0.9291149 0.6940436
vt 0.93354 0.731214
vt 0.9649879 0.731214
vt 0.944208 0.8175793
vt 0.9827363 0.8175793
vt 0.9601378 0.8573338
vt 0.9779472 0.8573338
vt 0.973824 0.8915609
vt 0.9572672 0.8915609
vt 0.9407104 0.8915609
vt 0.941898 0.8655451
vt 0.9247309 0.8573338
vt 0.9233919 0.8915609
vt 0.9060733 0.8915609
vt 0.9069472 0.8655451
vt 0.8897166 0.8573338
vt 0.8889388 0.8915609
vt 0.8718044 0.8915609
vt 0.8728756 0.8175793
vt 0.8722185 0.8655451
vt 0.8549398 0.8573337
vt 0.8548558 0.8915609
vt 0.8379073 0.8915609
vt 0.8429679 0.731214
vt 0.8371992 0.8175788
vt 0.837635 0.865545
vt 0.8200101 0.8573337
vt 0.8211911 0.8915609
vt 0.8044748 0.8915609
vt 0.8359099 0.6940436
vt 0.8751626 0.6503711
vt 0.8112704 0.731214
vt 0.8000774 0.8175793
vt 0.8026596 0.8655451
vt 0.7842222 0.8573338
vt 0.7869048 0.8915609
vt 0.7693348 0.8915609
vt 0.7660041 0.8573338
vt 0.7621356 0.8175793
vt 0.7822014 0.731214
vt 0.8208843 0.6940436
vt 0.8751626 0.6503711
vt 0.8903202 0.6940436
vt 0.8740687 0.6919534
vt 0.8751626 0.6503711
vt 0.8724341 0.731214
vt 0.8572429 0.6940434
vt 0.8751626 0.6503711
vt 0.9019299 0.731214
vt 0.9083643 0.8175793
vt 0.9114083 0.6940436
vt 0.8751626 0.6503711
vt 0.9291149 0.6940436
vt 0.93354 0.731214
vt 0.9649879 0.731214
vt 0.944208 0.8175793
vt 0.9827363 0.8175793
vt 0.9601378 0.8573338
vt 0.9779472 0.8573338
vt 0.973824 0.8915609
vt 0.9572672 0.8915609
vt 0.9407104 0.8915609
vt 0.941898 0.8655451
vt 0.9247309 0.8573338
vt 0.9233919 0.8915609
vt 0.9060733 0.8915609
vt 0.9069472 0.8655451
vt 0.8897166 0.8573338
vt 0.8889388 0.8915609
vt 0.8718044 0.8915609
vt 0.8728756 0.8175793
vt 0.8722185 0.8655451
vt 0.8549398 0.8573337
vt 0.8548558 0.8915609
vt 0.8379073 0.8915609
vt 0.8429679 0.731214
vt 0.8371992 0.8175788
vt 0.837635 0.865545
vt 0.8200101 0.8573337
vt 0.8211911 0.8915609
vt 0.8044748 0.8915609
vt 0.8359099 0.6940436
vt 0.8751626 0.6503711
vt 0.8112704 0.731214
vt 0.8000774 0.8175793
vt 0.8026596 0.8655451
vt 0.7842222 0.8573338
vt 0.7869048 0.8915609
vt 0.7693348 0.8915609
vt 0.7660041 0.8573338
vt 0.7621356 0.8175793
vt 0.7822014 0.731214
vt 0.8208843 0.6940436
vt 0.8751626 0.6503711
vn 0.728548 0.4661065 -0.5019587
vn -0.3329166 0.9321831 0.1421303
vn 0.1344562 -0.01342619 -0.9908285
vn 0.128066 0.02340724 -0.9914894
vn -0.7202494 0.04289399 -0.6923878
vn -0.3329166 0.9321831 0.1421303
vn 0.75649 0.5691946 -0.3220875
vn 0.7527958 0.6460675 -0.1260762
vn 0.4320101 0.8301349 0.3524816
vn -0.3329166 0.9321831 0.1421303
vn -0.3098392 0.7510411 0.5830411
vn 0.5750463 0.7053669 0.4144626
vn -0.3623107 0.4485982 0.817001
vn 0.5402848 0.5473112 0.6391736
vn -0.2805864 0.2968281 0.9127783
vn 0.3714528 0.1278214 0.919611
vn -0.06962268 -0.09901034 0.9926479
vn -0.04038069 -0.1659096 0.9853138
vn 0.4240467 0.03376658 0.9050106
vn 0.7446437 0.2686163 0.6110246
vn 0.7202218 0.2963257 0.6272731
vn 0.8473895 0.4948017 0.1926195
vn 0.8625912 0.4747635 0.1747459
vn 0.7367216 0.6106794 -0.2903653
vn 0.7539046 0.5870211 -0.2950155
vn 0.4187805 0.5901552 -0.6901736
vn 0.3991116 0.6278008 -0.6682634
vn -0.06993046 0.5257204 -0.8477781
vn 0.04779502 0.2413918 -0.96925
vn -0.0542169 0.4775146 -0.8769494
vn -0.5233583 0.289522 -0.8014194
vn -0.5339853 0.3243189 -0.7808182
vn -0.8743414 0.08438045 -0.4779196
vn -0.8375878 0.09950298 -0.5371647
vn -0.9291024 0.1363554 -0.3437674
vn -0.8739513 0.06136628 -0.4821236
vn -0.9960854 -0.0877284 -0.0108468
vn -0.9912985 -0.1280425 -0.03053403
vn -0.8605461 -0.2557782 0.4404972
vn -0.8677179 0.4666646 0.1711431
vn -0.3329166 0.9321831 0.1421303
vn -0.8659247 0.2764321 0.4168451
vn -0.8190542 0.177033 0.5457194
vn -0.8657596 -0.21154 0.453554
vn -0.5407088 -0.1617511 0.8255123
vn -0.5157369 -0.2748833 0.8114522
vn -0.04038069 -0.1659096 0.9853138
vn -0.06962268 -0.09901034 0.9926479
vn -0.2805864 0.2968281 0.9127783
vn -0.3623107 0.4485982 0.817001
vn -0.3098392 0.7510411 0.5830411
vn -0.3329166 0.9321831 0.1421303
vn -0.7285482 0.4661063 -0.5019585
vn -0.1344563 -0.01342602 -0.9908285
vn 0.3329169 0.932183 0.1421306
vn -0.1280659 0.02340715 -0.9914894
vn 0.7202494 0.04289395 -0.6923879
vn 0.3329169 0.932183 0.1421306
vn -0.75649 0.5691947 -0.3220875
vn -0.7527958 0.6460676 -0.1260762
vn -0.4320098 0.8301346 0.3524828
vn 0.3329169 0.932183 0.1421306
vn 0.3098391 0.7510405 0.583042
vn -0.5750462 0.7053668 0.414463
vn 0.3623105 0.448598 0.8170011
vn -0.5402848 0.5473112 0.6391735
vn 0.2805863 0.2968282 0.9127784
vn -0.3714528 0.1278214 0.9196111
vn 0.06962255 -0.09901019 0.9926479
vn 0.04038037 -0.1659093 0.9853139
vn -0.4240468 0.03376668 0.9050106
vn -0.7446439 0.2686165 0.6110243
vn -0.7202221 0.2963258 0.6272728
vn -0.8473896 0.4948017 0.1926194
vn -0.8625912 0.4747634 0.1747458
vn -0.7367216 0.6106795 -0.2903649
vn -0.7539046 0.5870212 -0.2950152
vn -0.4187806 0.5901555 -0.6901734
vn -0.3991118 0.6278012 -0.668263
vn 0.06993011 0.5257204 -0.8477783
vn -0.04779487 0.2413917 -0.96925
vn 0.05421657 0.4775147 -0.8769495
vn 0.5233582 0.2895218 -0.8014196
vn 0.533985 0.3243185 -0.7808184
vn 0.8743413 0.08438043 -0.4779196
vn 0.8375877 0.09950295 -0.5371648
vn 0.9291023 0.1363554 -0.3437674
vn 0.8739513 0.06136627 -0.4821236
vn 0.9960854 -0.08772839 -0.0108466
vn 0.9912985 -0.1280424 -0.03053378
vn 0.8605459 -0.2557782 0.4404976
vn 0.8677179 0.4666645 0.1711429
vn 0.3329169 0.932183 0.1421306
vn 0.8659247 0.276432 0.4168451
vn 0.819054 0.1770329 0.5457195
vn 0.8657594 -0.2115399 0.4535542
vn 0.5407085 -0.161751 0.8255125
vn 0.5157366 -0.2748831 0.8114524
vn 0.04038037 -0.1659093 0.9853139
vn 0.06962255 -0.09901019 0.9926479
vn 0.2805863 0.2968282 0.9127784
vn 0.3623105 0.448598 0.8170011
vn 0.3098391 0.7510405 0.583042
vn 0.3329169 0.932183 0.1421306
g fire_DLC_horns_LOD0_0
f 3/3/3 2/2/2 1/1/1
f 4/4/4 3/3/3 1/1/1
f 5/5/5 3/3/3 4/4/4
f 5/5/5 6/6/6 3/3/3
f 7/7/7 4/4/4 1/1/1
f 4/4/4 7/7/7 8/8/8
f 7/7/7 1/1/1 9/9/9
f 1/1/1 10/10/10 9/9/9
f 9/9/9 10/10/10 11/11/11
f 12/12/12 7/7/7 9/9/9
f 12/12/12 9/9/9 11/11/11
f 8/8/8 7/7/7 12/12/12
f 12/12/12 11/11/11 13/13/13
f 14/14/14 12/12/12 13/13/13
f 14/14/14 8/8/8 12/12/12
f 14/14/14 13/13/13 15/15/15
f 16/16/16 14/14/14 15/15/15
f 17/17/17 16/16/16 15/15/15
f 17/17/17 18/18/18 16/16/16
f 18/18/18 19/19/19 16/16/16
f 19/19/19 20/20/20 16/16/16
f 21/21/21 14/14/14 16/16/16
f 20/20/20 21/21/21 16/16/16
f 21/21/21 22/22/22 14/14/14
f 21/21/21 20/20/20 22/22/22
f 14/14/14 22/22/22 8/8/8
f 20/20/20 23/23/23 22/22/22
f 23/23/23 24/24/24 22/22/22
f 24/24/24 25/25/25 22/22/22
f 8/8/8 22/22/22 25/25/25
f 25/25/25 24/24/24 26/26/26
f 25/25/25 26/26/26 8/8/8
f 24/24/24 27/27/27 26/26/26
f 27/27/27 28/28/28 26/26/26
f 8/8/8 26/26/26 29/29/29
f 29/29/29 4/4/4 8/8/8
f 28/28/28 30/30/30 26/26/26
f 29/29/29 26/26/26 30/30/30
f 30/30/30 28/28/28 31/31/31
f 30/30/30 31/31/31 29/29/29
f 28/28/28 32/32/32 31/31/31
f 32/32/32 33/33/33 31/31/31
f 34/34/34 4/4/4 29/29/29
f 34/34/34 5/5/5 4/4/4
f 29/29/29 31/31/31 35/35/35
f 35/35/35 34/34/34 29/29/29
f 33/33/33 36/36/36 31/31/31
f 35/35/35 31/31/31 36/36/36
f 36/36/36 33/33/33 37/37/37
f 36/36/36 37/37/37 35/35/35
f 33/33/33 38/38/38 37/37/37
f 38/38/38 39/39/39 37/37/37
f 40/40/40 5/5/5 34/34/34
f 40/40/40 41/41/41 5/5/5
f 42/42/42 34/34/34 35/35/35
f 42/42/42 40/40/40 34/34/34
f 37/37/37 43/43/43 35/35/35
f 43/43/43 42/42/42 35/35/35
f 39/39/39 44/44/44 37/37/37
f 44/44/44 43/43/43 37/37/37
f 44/44/44 39/39/39 45/45/45
f 44/44/44 45/45/45 43/43/43
f 39/39/39 46/46/46 45/45/45
f 46/46/46 47/47/47 45/45/45
f 47/47/47 48/48/48 45/45/45
f 48/48/48 49/49/49 45/45/45
f 45/45/45 49/49/49 43/43/43
f 43/43/43 49/49/49 42/42/42
f 49/49/49 50/50/50 42/42/42
f 51/51/51 42/42/42 50/50/50
f 42/42/42 51/51/51 40/40/40
f 51/51/51 52/52/52 40/40/40
f 55/55/55 54/54/54 53/53/53
f 54/54/54 56/56/56 53/53/53
f 54/54/54 57/57/57 56/56/56
f 58/58/58 57/57/57 54/54/54
f 56/56/56 59/59/59 53/53/53
f 59/59/59 56/56/56 60/60/60
f 53/53/53 59/59/59 61/61/61
f 62/62/62 53/53/53 61/61/61
f 62/62/62 61/61/61 63/63/63
f 59/59/59 64/64/64 61/61/61
f 61/61/61 64/64/64 63/63/63
f 59/59/59 60/60/60 64/64/64
f 63/63/63 64/64/64 65/65/65
f 64/64/64 66/66/66 65/65/65
f 60/60/60 66/66/66 64/64/64
f 65/65/65 66/66/66 67/67/67
f 66/66/66 68/68/68 67/67/67
f 68/68/68 69/69/69 67/67/67
f 70/70/70 69/69/69 68/68/68
f 71/71/71 70/70/70 68/68/68
f 72/72/72 71/71/71 68/68/68
f 66/66/66 73/73/73 68/68/68
f 73/73/73 72/72/72 68/68/68
f 74/74/74 73/73/73 66/66/66
f 72/72/72 73/73/73 74/74/74
f 74/74/74 66/66/66 60/60/60
f 75/75/75 72/72/72 74/74/74
f 76/76/76 75/75/75 74/74/74
f 77/77/77 76/76/76 74/74/74
f 74/74/74 60/60/60 77/77/77
f 76/76/76 77/77/77 78/78/78
f 78/78/78 77/77/77 60/60/60
f 79/79/79 76/76/76 78/78/78
f 80/80/80 79/79/79 78/78/78
f 78/78/78 60/60/60 81/81/81
f 56/56/56 81/81/81 60/60/60
f 82/82/82 80/80/80 78/78/78
f 78/78/78 81/81/81 82/82/82
f 80/80/80 82/82/82 83/83/83
f 83/83/83 82/82/82 81/81/81
f 84/84/84 80/80/80 83/83/83
f 85/85/85 84/84/84 83/83/83
f 56/56/56 86/86/86 81/81/81
f 57/57/57 86/86/86 56/56/56
f 83/83/83 81/81/81 87/87/87
f 86/86/86 87/87/87 81/81/81
f 88/88/88 85/85/85 83/83/83
f 83/83/83 87/87/87 88/88/88
f 85/85/85 88/88/88 89/89/89
f 89/89/89 88/88/88 87/87/87
f 90/90/90 85/85/85 89/89/89
f 91/91/91 90/90/90 89/89/89
f 57/57/57 92/92/92 86/86/86
f 93/93/93 92/92/92 57/57/57
f 86/86/86 94/94/94 87/87/87
f 92/92/92 94/94/94 86/86/86
f 95/95/95 89/89/89 87/87/87
f 94/94/94 95/95/95 87/87/87
f 96/96/96 91/91/91 89/89/89
f 95/95/95 96/96/96 89/89/89
f 91/91/91 96/96/96 97/97/97
f 97/97/97 96/96/96 95/95/95
f 98/98/98 91/91/91 97/97/97
f 99/99/99 98/98/98 97/97/97
f 100/100/100 99/99/99 97/97/97
f 101/101/101 100/100/100 97/97/97
f 101/101/101 97/97/97 95/95/95
f 101/101/101 95/95/95 94/94/94
f 102/102/102 101/101/101 94/94/94
f 94/94/94 103/103/103 102/102/102
f 103/103/103 94/94/94 92/92/92
f 104/104/104 103/103/103 92/92/92
