g floor_round2
v -9.666301 9.536743E-07 -13.30453
v -8.889368 9.536743E-07 -8.889372
v -11.62858 9.536743E-07 -11.62859
v -7.389319 9.536743E-07 -10.17053
v -7.466005 9.536743E-07 -14.65287
v -6.176532 -9.536743E-07 -6.176535
v -5.707322 9.536743E-07 -11.20126
v -5.081872 9.536743E-07 -15.64041
v -5.134265 -9.536743E-07 -7.066708
v -4.847115 -9.536743E-07 -4.847117
v -4.029182 -9.536743E-07 -5.545689
v -3.965574 -9.536743E-07 -7.782882
v -3.112035 -9.536743E-07 -6.107717
v -3.884794 9.536743E-07 -11.95617
v -2.572606 9.536743E-07 -16.24283
v -2.699242 -9.536743E-07 -8.307416
v -2.118265 -9.536743E-07 -6.519352
v -1.966606 9.536743E-07 -12.41669
v 6.588954E-06 9.536743E-07 -16.4453
v 5.355952E-06 9.536743E-07 -12.57147
v -1.366441 -9.536743E-07 -8.627391
v -1.072332 -9.536743E-07 -6.770455
v 4.230407E-06 -9.536743E-07 -8.734936
v 3.681164E-06 -9.536743E-07 -6.854854
vt -3.240234 0.9960938
vt -3.740234 1.25
vt -3.240234 1.25
vt -3.740234 0.9960935
vt -3.240234 0.75
vt -4.240234 1.25
vt -3.740234 0.7499999
vt -3.240234 0.5
vt -4.240234 0.9960938
vt -4.490234 1.25
vt -4.490234 0.9960938
vt -4.240234 0.7499999
vt -4.490234 0.75
vt -3.740234 0.5
vt -3.240234 0.25
vt -4.240234 0.5000001
vt -4.490234 0.4999999
vt -3.740235 0.2499999
vt -3.240234 0
vt -3.740234 8.940697E-08
vt -4.240234 0.2499999
vt -4.490234 0.2500001
vt -4.240234 1.192093E-07
vt -4.490234 0
vn 0 1 0
vn 0 1 0
vn 0 1 0
vn 0 1 0
vn 0 1 0
vn 0 1 0
vn 0 1 0
vn 0 1 0
vn 0 1 0
vn 0 1 0
vn 0 1 0
vn 0 1 0
vn 0 1 0
vn 0 1 0
vn 0 1 0
vn 0 1 0
vn 0 1 0
vn 0 1 0
vn 0 1 0
vn 0 1 0
vn 0 1 0
vn 0 1 0
vn 0 1 0
vn 0 1 0
g floor_round2_0
f 3/3/3 2/2/2 1/1/1
f 2/2/2 4/4/4 1/1/1
f 1/1/1 4/4/4 5/5/5
f 2/2/2 6/6/6 4/4/4
f 4/4/4 7/7/7 5/5/5
f 5/5/5 7/7/7 8/8/8
f 6/6/6 9/9/9 4/4/4
f 4/4/4 9/9/9 7/7/7
f 6/6/6 10/10/10 9/9/9
f 10/10/10 11/11/11 9/9/9
f 9/9/9 11/11/11 12/12/12
f 9/9/9 12/12/12 7/7/7
f 11/11/11 13/13/13 12/12/12
f 7/7/7 14/14/14 8/8/8
f 7/7/7 12/12/12 14/14/14
f 8/8/8 14/14/14 15/15/15
f 12/12/12 13/13/13 16/16/16
f 12/12/12 16/16/16 14/14/14
f 13/13/13 17/17/17 16/16/16
f 14/14/14 18/18/18 15/15/15
f 14/14/14 16/16/16 18/18/18
f 15/15/15 18/18/18 19/19/19
f 18/18/18 20/20/20 19/19/19
f 16/16/16 17/17/17 21/21/21
f 16/16/16 21/21/21 18/18/18
f 18/18/18 21/21/21 20/20/20
f 17/17/17 22/22/22 21/21/21
f 21/21/21 23/23/23 20/20/20
f 21/21/21 22/22/22 23/23/23
f 22/22/22 24/24/24 23/23/23
