g floor_round_center
v 0.9132594 9.536743E-07 -5.766073
v 2.092041E-06 -9.536743E-07 -4.203526
v 2.584245E-06 9.536743E-07 -5.837941
v 0.6575773 -9.536743E-07 -4.151772
v 1.804028 9.536743E-07 -5.552218
v 1.298959 -9.536743E-07 -3.997772
v 2.650376 9.536743E-07 -5.201639
v 1.908358 -9.536743E-07 -3.745366
v 3.431463 9.536743E-07 -4.722991
v 2.470769 -9.536743E-07 -3.400711
v 4.128049 9.536743E-07 -4.128046
v 2.972338 -9.536743E-07 -2.972335
v 4.722995 9.536743E-07 -3.431457
v 3.400723 -9.536743E-07 -2.470765
v 5.201644 9.536743E-07 -2.650371
v 3.745369 -9.536743E-07 -1.908354
v 5.552224 9.536743E-07 -1.804023
v 3.997774 -9.536743E-07 -1.298959
v 5.766075 9.536743E-07 -0.913253
v 4.151773 -9.536743E-07 -0.6575745
v 5.83794 9.536743E-07 9.881236E-07
v 4.203526 -9.536743E-07 8.839913E-07
v 5.766072 9.536743E-07 0.9132562
v 4.151772 -9.536743E-07 0.6575755
v 5.552218 9.536743E-07 1.804025
v 3.997772 -9.536743E-07 1.298958
v 5.201638 9.536743E-07 2.650373
v 3.745367 -9.536743E-07 1.908356
v 4.722991 9.536743E-07 3.431458
v 3.400713 -9.536743E-07 2.470766
v 4.128047 9.536743E-07 4.128048
v 2.972337 -9.536743E-07 2.972337
v 3.431459 9.536743E-07 4.722992
v 2.470766 -9.536743E-07 3.400723
v 2.650373 9.536743E-07 5.20164
v 1.908356 -9.536743E-07 3.745367
v 1.804026 9.536743E-07 5.552219
v 1.298959 -9.536743E-07 3.997772
v 0.9132557 9.536743E-07 5.766073
v 0.6575755 -9.536743E-07 4.151773
v 6.704197E-07 9.536743E-07 5.837941
v 7.140259E-07 -9.536743E-07 4.203526
v -0.9132544 9.536743E-07 5.766073
v -0.6575739 -9.536743E-07 4.151773
v -1.804025 9.536743E-07 5.552219
v -1.298958 -9.536743E-07 3.997772
v -2.650373 9.536743E-07 5.20164
v -1.908355 -9.536743E-07 3.745367
v -3.431458 9.536743E-07 4.722991
v -2.470765 -9.536743E-07 3.400722
v -4.128047 9.536743E-07 4.128047
v -2.972335 -9.536743E-07 2.972337
v -4.72299 9.536743E-07 3.431458
v -3.400711 -9.536743E-07 2.470766
v -5.201638 9.536743E-07 2.650373
v -3.745366 -9.536743E-07 1.908356
v -5.552217 9.536743E-07 1.804025
v -3.997771 -9.536743E-07 1.298958
v -5.766071 9.536743E-07 0.9132552
v -4.151772 -9.536743E-07 0.657575
v -5.83794 9.536743E-07 3.120954E-08
v -4.203525 -9.536743E-07 1.949802E-07
v -5.766071 9.536743E-07 -0.9132549
v -4.151772 -9.536743E-07 -0.6575745
v -5.552217 9.536743E-07 -1.804025
v -3.997771 -9.536743E-07 -1.298959
v -5.201637 9.536743E-07 -2.650373
v -3.745365 -9.536743E-07 -1.908355
v -4.722989 9.536743E-07 -3.431459
v -3.40071 -9.536743E-07 -2.470766
v -4.128046 9.536743E-07 -4.128048
v -2.972335 -9.536743E-07 -2.972336
v -3.431456 9.536743E-07 -4.722991
v -2.470764 -9.536743E-07 -3.400723
v -2.650371 9.536743E-07 -5.201639
v -1.908353 -9.536743E-07 -3.745366
v -1.804023 9.536743E-07 -5.552218
v -1.298958 -9.536743E-07 -3.997772
v -0.9132526 9.536743E-07 -5.766073
v -0.6575739 -9.536743E-07 -4.151772
v 2.584245E-06 9.536743E-07 -5.837941
v 2.092041E-06 -9.536743E-07 -4.203526
v 4.203526 -9.536743E-07 8.839913E-07
v 1.389241E-06 -9.536743E-07 5.181955E-07
v 4.151773 -9.536743E-07 -0.6575745
v 4.151772 -9.536743E-07 0.6575755
v 3.997774 -9.536743E-07 -1.298959
v 3.997772 -9.536743E-07 1.298958
v 3.745369 -9.536743E-07 -1.908354
v 3.745367 -9.536743E-07 1.908356
v 3.400723 -9.536743E-07 -2.470765
v 3.400713 -9.536743E-07 2.470766
v 2.972338 -9.536743E-07 -2.972335
v 2.972337 -9.536743E-07 2.972337
v 2.470769 -9.536743E-07 -3.400711
v 2.470766 -9.536743E-07 3.400723
v 1.908358 -9.536743E-07 -3.745366
v 1.908356 -9.536743E-07 3.745367
v 1.298959 -9.536743E-07 -3.997772
v 1.298959 -9.536743E-07 3.997772
v 0.6575773 -9.536743E-07 -4.151772
v 0.6575755 -9.536743E-07 4.151773
v 2.092041E-06 -9.536743E-07 -4.203526
v 7.140259E-07 -9.536743E-07 4.203526
v -0.6575739 -9.536743E-07 -4.151772
v -0.6575739 -9.536743E-07 4.151773
v -1.298958 -9.536743E-07 -3.997772
v -1.298958 -9.536743E-07 3.997772
v -1.908353 -9.536743E-07 -3.745366
v -1.908355 -9.536743E-07 3.745367
v -2.470764 -9.536743E-07 -3.400723
v -2.470765 -9.536743E-07 3.400722
v -2.972335 -9.536743E-07 -2.972336
v -2.972335 -9.536743E-07 2.972337
v -3.40071 -9.536743E-07 -2.470766
v -3.400711 -9.536743E-07 2.470766
v -3.745365 -9.536743E-07 -1.908355
v -3.745366 -9.536743E-07 1.908356
v -3.997771 -9.536743E-07 -1.298959
v -3.997771 -9.536743E-07 1.298958
v -4.151772 -9.536743E-07 -0.6575745
v -4.151772 -9.536743E-07 0.657575
v -4.203525 -9.536743E-07 1.949802E-07
vt 2.870117 0.25
vt 2.995117 0.5
vt 2.995117 0.25
vt 2.870117 0.5
vt 2.745117 0.25
vt 2.745117 0.5
vt 2.620117 0.25
vt 2.620117 0.5
vt 2.49707 0.25
vt 2.49707 0.5
vt 2.370117 0.25
vt 2.370117 0.5
vt 2.24707 0.25
vt 2.24707 0.5
vt 2.12207 0.25
vt 2.12207 0.5
vt 1.99707 0.25
vt 1.99707 0.5
vt 1.87207 0.25
vt 1.87207 0.5
vt 1.749023 0.25
vt 1.749023 0.5
vt 1.62207 0.25
vt 1.62207 0.5
vt 1.499023 0.25
vt 1.499023 0.5
vt 1.37207 0.25
vt 1.37207 0.5
vt 1.249023 0.25
vt 1.249023 0.5
vt 1.124024 0.25
vt 1.124024 0.5
vt 0.9990234 0.25
vt 0.9990234 0.5
vt 0.8740234 0.25
vt 0.8740234 0.5
vt 0.7509766 0.25
vt 0.7509766 0.5
vt 0.6240234 0.25
vt 0.6240234 0.5
vt 0.5009766 0.25
vt 0.5009766 0.5
vt 0.3759766 0.25
vt 0.3759766 0.5
vt 0.2490234 0.25
vt 0.2490234 0.5
vt 0.1259766 0.25
vt 0.1259766 0.5
vt 0.0009765625 0.25
vt 0.0009765625 0.5
vt -0.1240234 0.25
vt -0.1240234 0.5
vt -0.2490234 0.25
vt -0.2490234 0.5
vt -0.3720703 0.25
vt -0.3720703 0.5
vt -0.4990234 0.25
vt -0.4990234 0.5
vt -0.6220703 0.25
vt -0.6220703 0.5
vt -0.7490234 0.25
vt -0.7490234 0.5
vt -0.8720703 0.25
vt -0.8720703 0.5
vt -0.9970703 0.25
vt -0.9970703 0.5
vt -1.12207 0.25
vt -1.12207 0.5
vt -1.24707 0.25
vt -1.24707 0.5
vt -1.370117 0.25
vt -1.370117 0.5
vt -1.49707 0.25
vt -1.49707 0.5
vt -1.620117 0.25
vt -1.620117 0.5
vt -1.745117 0.25
vt -1.745117 0.5
vt -1.870117 0.25
vt -1.870117 0.5
vt -1.995117 0.25
vt -1.995117 0.5
vt 0.5000003 1.25
vt 0.5000003 0.5000002
vt 0.3826745 1.240766
vt 0.6173258 1.240766
vt 0.2682378 1.213289
vt 0.7317624 1.213289
vt 0.1595085 1.168255
vt 0.8404922 1.168254
vt 0.05916208 1.106763
vt 0.9408383 1.106761
vt -0.03032887 1.030329
vt 1.030329 1.030329
vt -0.1067604 0.9408386
vt 1.106763 0.940838
vt -0.1682542 0.8404923
vt 1.168255 0.840492
vt -0.2132891 0.7317623
vt 1.213289 0.7317622
vt -0.240766 0.6173259
vt 1.240767 0.6173255
vt -0.2499999 0.5000002
vt 1.25 0.4999999
vt -0.240766 0.3826745
vt 1.240767 0.3826743
vt -0.2132891 0.2682377
vt 1.213289 0.2682375
vt -0.1682542 0.1595083
vt 1.168255 0.159508
vt -0.1067625 0.05916205
vt 1.106763 0.05916178
vt -0.03032917 -0.03032905
vt 1.030329 -0.03032911
vt 0.05916196 -0.1067606
vt 0.9408383 -0.1067607
vt 0.1595082 -0.1682543
vt 0.840492 -0.1682545
vt 0.2682378 -0.2132891
vt 0.7317624 -0.2132891
vt 0.3826745 -0.2407662
vt 0.6173258 -0.2407662
vt 0.5000001 -0.25
vn 0 1 0
vn 0 1 0
vn 0 1 0
vn 0 1 0
vn 0 1 0
vn 0 1 0
vn 0 1 0
vn 0 1 0
vn 0 1 0
vn 0 1 0
vn 0 1 0
vn 0 1 0
vn 0 1 0
vn 0 1 0
vn 0 1 0
vn 0 1 0
vn 0 1 0
vn 0 1 0
vn 0 1 0
vn 0 1 0
vn 0 1 0
vn 0 1 0
vn 0 1 0
vn 0 1 0
vn 0 1 0
vn 0 1 0
vn 0 1 0
vn 0 1 0
vn 0 1 0
vn 0 1 0
vn 0 1 0
vn 0 1 0
vn 0 1 0
vn 0 1 0
vn 0 1 0
vn 0 1 0
vn 0 1 0
vn 0 1 0
vn 0 1 0
vn 0 1 0
vn 0 1 0
vn 0 1 0
vn 0 1 0
vn 0 1 0
vn 0 1 0
vn 0 1 0
vn 0 1 0
vn 0 1 0
vn 0 1 0
vn 0 1 0
vn 0 1 0
vn 0 1 0
vn 0 1 0
vn 0 1 0
vn 0 1 0
vn 0 1 0
vn 0 1 0
vn 0 1 0
vn 0 1 0
vn 0 1 0
vn 0 1 0
vn 0 1 0
vn 0 1 0
vn 0 1 0
vn 0 1 0
vn 0 1 0
vn 0 1 0
vn 0 1 0
vn 0 1 0
vn 0 1 0
vn 0 1 0
vn 0 1 0
vn 0 1 0
vn 0 1 0
vn 0 1 0
vn 0 1 0
vn 0 1 0
vn 0 1 0
vn 0 1 0
vn 0 1 0
vn 0 1 0
vn 0 1 0
vn 0 1 0
vn 0 1 0
vn 0 1 0
vn 0 1 0
vn 0 1 0
vn 0 1 0
vn 0 1 0
vn 0 1 0
vn 0 1 0
vn 0 1 0
vn 0 1 0
vn 0 1 0
vn 0 1 0
vn 0 1 0
vn 0 1 0
vn 0 1 0
vn 0 1 0
vn 0 1 0
vn 0 1 0
vn 0 1 0
vn 0 1 0
vn 0 1 0
vn 0 1 0
vn 0 1 0
vn 0 1 0
vn 0 1 0
vn 0 1 0
vn 0 1 0
vn 0 1 0
vn 0 1 0
vn 0 1 0
vn 0 1 0
vn 0 1 0
vn 0 1 0
vn 0 1 0
vn 0 1 0
vn 0 1 0
vn 0 1 0
vn 0 1 0
vn 0 1 0
vn 0 1 0
g floor_round_center_0
f 3/3/3 2/2/2 1/1/1
f 2/2/2 4/4/4 1/1/1
f 1/1/1 4/4/4 5/5/5
f 4/4/4 6/6/6 5/5/5
f 5/5/5 6/6/6 7/7/7
f 6/6/6 8/8/8 7/7/7
f 7/7/7 8/8/8 9/9/9
f 8/8/8 10/10/10 9/9/9
f 9/9/9 10/10/10 11/11/11
f 10/10/10 12/12/12 11/11/11
f 11/11/11 12/12/12 13/13/13
f 12/12/12 14/14/14 13/13/13
f 13/13/13 14/14/14 15/15/15
f 14/14/14 16/16/16 15/15/15
f 15/15/15 16/16/16 17/17/17
f 16/16/16 18/18/18 17/17/17
f 17/17/17 18/18/18 19/19/19
f 18/18/18 20/20/20 19/19/19
f 19/19/19 20/20/20 21/21/21
f 20/20/20 22/22/22 21/21/21
f 21/21/21 22/22/22 23/23/23
f 22/22/22 24/24/24 23/23/23
f 23/23/23 24/24/24 25/25/25
f 24/24/24 26/26/26 25/25/25
f 25/25/25 26/26/26 27/27/27
f 26/26/26 28/28/28 27/27/27
f 27/27/27 28/28/28 29/29/29
f 28/28/28 30/30/30 29/29/29
f 29/29/29 30/30/30 31/31/31
f 30/30/30 32/32/32 31/31/31
f 31/31/31 32/32/32 33/33/33
f 32/32/32 34/34/34 33/33/33
f 33/33/33 34/34/34 35/35/35
f 34/34/34 36/36/36 35/35/35
f 35/35/35 36/36/36 37/37/37
f 36/36/36 38/38/38 37/37/37
f 37/37/37 38/38/38 39/39/39
f 38/38/38 40/40/40 39/39/39
f 39/39/39 40/40/40 41/41/41
f 40/40/40 42/42/42 41/41/41
f 41/41/41 42/42/42 43/43/43
f 42/42/42 44/44/44 43/43/43
f 43/43/43 44/44/44 45/45/45
f 44/44/44 46/46/46 45/45/45
f 45/45/45 46/46/46 47/47/47
f 46/46/46 48/48/48 47/47/47
f 47/47/47 48/48/48 49/49/49
f 48/48/48 50/50/50 49/49/49
f 49/49/49 50/50/50 51/51/51
f 50/50/50 52/52/52 51/51/51
f 51/51/51 52/52/52 53/53/53
f 52/52/52 54/54/54 53/53/53
f 53/53/53 54/54/54 55/55/55
f 54/54/54 56/56/56 55/55/55
f 55/55/55 56/56/56 57/57/57
f 56/56/56 58/58/58 57/57/57
f 57/57/57 58/58/58 59/59/59
f 58/58/58 60/60/60 59/59/59
f 59/59/59 60/60/60 61/61/61
f 60/60/60 62/62/62 61/61/61
f 61/61/61 62/62/62 63/63/63
f 62/62/62 64/64/64 63/63/63
f 63/63/63 64/64/64 65/65/65
f 64/64/64 66/66/66 65/65/65
f 65/65/65 66/66/66 67/67/67
f 66/66/66 68/68/68 67/67/67
f 67/67/67 68/68/68 69/69/69
f 68/68/68 70/70/70 69/69/69
f 69/69/69 70/70/70 71/71/71
f 70/70/70 72/72/72 71/71/71
f 71/71/71 72/72/72 73/73/73
f 72/72/72 74/74/74 73/73/73
f 73/73/73 74/74/74 75/75/75
f 74/74/74 76/76/76 75/75/75
f 75/75/75 76/76/76 77/77/77
f 76/76/76 78/78/78 77/77/77
f 77/77/77 78/78/78 79/79/79
f 78/78/78 80/80/80 79/79/79
f 79/79/79 80/80/80 81/81/81
f 80/80/80 82/82/82 81/81/81
f 85/85/85 84/84/84 83/83/83
f 83/83/83 84/84/84 86/86/86
f 87/87/87 84/84/84 85/85/85
f 86/86/86 84/84/84 88/88/88
f 89/89/89 84/84/84 87/87/87
f 88/88/88 84/84/84 90/90/90
f 91/91/91 84/84/84 89/89/89
f 90/90/90 84/84/84 92/92/92
f 93/93/93 84/84/84 91/91/91
f 92/92/92 84/84/84 94/94/94
f 95/95/95 84/84/84 93/93/93
f 94/94/94 84/84/84 96/96/96
f 97/97/97 84/84/84 95/95/95
f 96/96/96 84/84/84 98/98/98
f 99/99/99 84/84/84 97/97/97
f 98/98/98 84/84/84 100/100/100
f 101/101/101 84/84/84 99/99/99
f 100/100/100 84/84/84 102/102/102
f 103/103/103 84/84/84 101/101/101
f 102/102/102 84/84/84 104/104/104
f 105/105/105 84/84/84 103/103/103
f 104/104/104 84/84/84 106/106/106
f 107/107/107 84/84/84 105/105/105
f 106/106/106 84/84/84 108/108/108
f 109/109/109 84/84/84 107/107/107
f 108/108/108 84/84/84 110/110/110
f 111/111/111 84/84/84 109/109/109
f 110/110/110 84/84/84 112/112/112
f 113/113/113 84/84/84 111/111/111
f 112/112/112 84/84/84 114/114/114
f 115/115/115 84/84/84 113/113/113
f 114/114/114 84/84/84 116/116/116
f 117/117/117 84/84/84 115/115/115
f 116/116/116 84/84/84 118/118/118
f 119/119/119 84/84/84 117/117/117
f 118/118/118 84/84/84 120/120/120
f 121/121/121 84/84/84 119/119/119
f 120/120/120 84/84/84 122/122/122
f 123/123/123 84/84/84 121/121/121
f 122/122/122 84/84/84 123/123/123
