g floor_round1
v -16.24283 9.536743E-07 -2.572612
v -12.57147 9.536743E-07 4.787405E-07
v -16.4453 9.536743E-07 2.393717E-07
v -12.41669 9.536743E-07 -1.96661
v -15.64041 9.536743E-07 -5.081878
v -8.734935 -9.536743E-07 8.360514E-07
v -11.95617 9.536743E-07 -3.884797
v -14.65287 9.536743E-07 -7.466011
v -8.62739 -9.536743E-07 -1.366443
v -6.854854 -9.536743E-07 1.025387E-06
v -6.770455 -9.536743E-07 -1.072333
v -8.307415 -9.536743E-07 -2.699244
v -6.519352 -9.536743E-07 -2.118266
v -11.20125 9.536743E-07 -5.707326
v -13.30452 9.536743E-07 -9.666307
v -7.782881 -9.536743E-07 -3.965576
v -6.107716 -9.536743E-07 -3.112037
v -10.17052 9.536743E-07 -7.389324
v -11.62858 9.536743E-07 -11.62859
v -8.889368 9.536743E-07 -8.889372
v -7.066704 -9.536743E-07 -5.134268
v -5.545686 -9.536743E-07 -4.029184
v -6.176532 -9.536743E-07 -6.176535
v -4.847115 -9.536743E-07 -4.847117
vt -2.244141 0
vt -1.998047 0.5
vt -1.998047 0
vt -2.244141 0.5
vt -2.494141 0
vt -1.998047 1
vt -2.494141 0.5
vt -2.744141 0
vt -2.244141 1
vt -1.998047 1.25
vt -2.244141 1.25
vt -2.494141 1
vt -2.494141 1.25
vt -2.744141 0.5
vt -2.994141 0
vt -2.744141 1
vt -2.744141 1.25
vt -2.994141 0.5
vt -3.240234 0
vt -3.240234 0.5
vt -2.994141 1
vt -2.994141 1.25
vt -3.240234 1
vt -3.240234 1.25
vn 0 1 0
vn 0 1 0
vn 0 1 0
vn 0 1 0
vn 0 1 0
vn 0 1 0
vn 0 1 0
vn 0 1 0
vn 0 1 0
vn 0 1 0
vn 0 1 0
vn 0 1 0
vn 0 1 0
vn 0 1 0
vn 0 1 0
vn 0 1 0
vn 0 1 0
vn 0 1 0
vn 0 1 0
vn 0 1 0
vn 0 1 0
vn 0 1 0
vn 0 1 0
vn 0 1 0
g floor_round1_0
f 3/3/3 2/2/2 1/1/1
f 2/2/2 4/4/4 1/1/1
f 1/1/1 4/4/4 5/5/5
f 2/2/2 6/6/6 4/4/4
f 4/4/4 7/7/7 5/5/5
f 5/5/5 7/7/7 8/8/8
f 6/6/6 9/9/9 4/4/4
f 4/4/4 9/9/9 7/7/7
f 6/6/6 10/10/10 9/9/9
f 10/10/10 11/11/11 9/9/9
f 9/9/9 11/11/11 12/12/12
f 9/9/9 12/12/12 7/7/7
f 11/11/11 13/13/13 12/12/12
f 7/7/7 14/14/14 8/8/8
f 7/7/7 12/12/12 14/14/14
f 8/8/8 14/14/14 15/15/15
f 12/12/12 13/13/13 16/16/16
f 12/12/12 16/16/16 14/14/14
f 13/13/13 17/17/17 16/16/16
f 14/14/14 18/18/18 15/15/15
f 14/14/14 16/16/16 18/18/18
f 15/15/15 18/18/18 19/19/19
f 18/18/18 20/20/20 19/19/19
f 16/16/16 17/17/17 21/21/21
f 16/16/16 21/21/21 18/18/18
f 18/18/18 21/21/21 20/20/20
f 17/17/17 22/22/22 21/21/21
f 21/21/21 23/23/23 20/20/20
f 21/21/21 22/22/22 23/23/23
f 22/22/22 24/24/24 23/23/23
