g floor_4x4
v 0.04757752 0 -2.412119
v -0.01250732 0.06157928 -2.357171
v -0.0365564 0 -2.457357
v 0 1.110223E-16 -5
v -0.06552551 0.04480563 -3.75
v -0.1272137 0.04480563 -4.837447
v -0.2312884 0.04480563 -4.934474
v 0 1.110223E-16 -5
v -0.1272137 0.04480563 -4.837447
v -0.06552551 0.04480563 -0.1645404
v 0 -1.110223E-16 0
v -0.2187787 0.04480563 -0.06552543
v -0.1210406 0.0003960749 -4.088167
v -0.03714172 0.04361143 -4.087011
v -0.009040527 0 -4.005608
v -0.01141602 0 -4.194324
v -0.009040527 0 -4.005608
v -0.03714172 0.04361143 -4.087011
v 0.1005841 -0.0003960749 -4.111765
v -0.01141602 0 -4.194324
v -5.116386 0.0003960749 -2.152352
v -5.032489 0.04361143 -2.151197
v -5.004387 1.421085E-16 -2.069793
v -5.006763 1.421085E-16 -2.25851
v -5.004387 1.421085E-16 -2.069793
v -5.032489 0.04361143 -2.151197
v -4.894763 -0.0003960749 -2.175951
v -5.006763 1.421085E-16 -2.25851
v -5.079588 0.0003960749 -1.632935
v -5.021886 0.04361143 -1.62993
v -5.001539 0 -1.492259
v -5.005548 0 -1.810631
v -5.001539 0 -1.492259
v -5.021886 0.04361143 -1.62993
v -4.927499 -0.0003960749 -1.669955
v -5.005548 0 -1.810631
v 0.0546466 0 -2.248788
v -0.01250732 0.06157928 -2.357171
v 0.04757752 0 -2.412119
v -0.01128845 0 -2.20471
v -0.05449707 0 -2.236783
v -0.0365564 0 -2.457357
v -0.01250732 0.06157928 -2.357171
v -0.06014954 0 -2.400269
v -0.05449707 0 -2.236783
v 0 4.833527E-17 -3.75
v 0 1.110223E-16 -5
v -1.25 1.110223E-16 -5
v -1.25 4.833527E-17 -3.75
v -2.5 1.110223E-16 -5
v -1.25 -8.581359E-18 -2.5
v 0 -8.581359E-18 -2.5
v -2.5 4.833527E-17 -3.75
v -3.75 1.110223E-16 -5
v -1.25 -6.137584E-17 -1.25
v -2.5 -6.137584E-17 -1.25
v 0 -6.137584E-17 -1.25
v 0 -1.110223E-16 0
v -1.25 -1.110223E-16 0
v -2.5 -1.110223E-16 0
v -3.75 -1.110223E-16 0
v -3.75 4.833527E-17 -3.75
v -5 1.110223E-16 -5
v -5 4.833527E-17 -3.75
v -5 -8.581359E-18 -2.5
v -2.5 -8.581359E-18 -2.5
v -3.75 -8.581359E-18 -2.5
v -3.75 -6.137584E-17 -1.25
v -5 -1.110223E-16 0
v -5 -6.137584E-17 -1.25
v -5 1.110223E-16 -5
v -4.934475 0.04480563 -4.934474
v -4.934475 0.04480563 -3.75
v -5 4.833527E-17 -3.75
v -5 -8.581359E-18 -2.5
v -4.976316 0.01619513 -2.5
v -5 -6.137584E-17 -1.25
v -4.934475 0.04480563 -2.312951
v -4.934475 0.04480563 -1.371365
v -4.934475 0.04480563 -0.9933921
v -5 -1.110223E-16 0
v -4.934475 0.04480563 -0.06552543
v -0.06552551 0.04480563 -3.75
v 0 1.110223E-16 -5
v 0 4.833527E-17 -3.75
v 0 -8.581359E-18 -2.5
v -0.06552551 0.04480563 -2.5
v -0.06552551 0.04480563 -1.25
v 0 -6.137584E-17 -1.25
v 0 -1.110223E-16 0
v -0.06552551 0.04480563 -0.1645404
v 0 1.110223E-16 -5
v -0.2312884 0.04480563 -4.934474
v -1.13175 0.04480563 -4.934474
v -1.25 1.110223E-16 -5
v -1.378243 0.04480563 -4.934474
v -2.5 1.110223E-16 -5
v -2.5 0.04480563 -4.934474
v -3.75 0.04480563 -4.934474
v -3.75 1.110223E-16 -5
v -5 1.110223E-16 -5
v -4.934475 0.04480563 -4.934474
v -4.89359 0.04480563 -2.5
v -4.934475 0.04480563 -2.312951
v -4.976316 0.01619513 -2.5
v -4.934475 0.04480563 -3.75
v -1.25 0.04480563 -0.06552543
v -0.2187787 0.04480563 -0.06552543
v 0 -1.110223E-16 0
v -1.25 -1.110223E-16 0
v -2.5 -1.110223E-16 0
v -2.5 0.04480563 -0.06552543
v -3.75 0.04480563 -0.06552543
v -3.75 -1.110223E-16 0
v -5 -1.110223E-16 0
v -4.934475 0.04480563 -0.06552543
v -2.5 0.04480563 -4.934474
v -1.378243 0.04480563 -4.934474
v -1.25 0.04480563 -4.858994
v -1.25 0.04480563 -3.75
v -2.5 0.04480563 -3.75
v -3.75 0.04480563 -4.934474
v -0.1272137 0.04480563 -4.837447
v -1.13175 0.04480563 -4.934474
v -0.2312884 0.04480563 -4.934474
v -0.06552551 0.04480563 -3.75
v -1.25 0.04480563 -2.5
v -0.06552551 0.04480563 -2.5
v -2.5 0.04480563 -2.5
v -2.5 0.04480563 -1.25
v -1.25 0.04480563 -1.25
v -0.06552551 0.04480563 -1.25
v -3.75 0.04480563 -2.5
v -3.75 0.04480563 -3.75
v -4.934475 0.04480563 -3.75
v -4.934475 0.04480563 -4.934474
v -4.89359 0.04480563 -2.5
v -1.25 0.04480563 -0.06552543
v -0.2187787 0.04480563 -0.06552543
v -0.06552551 0.04480563 -0.1645404
v -2.5 0.04480563 -0.06552543
v -3.75 0.04480563 -0.06552543
v -3.75 0.04480563 -1.25
v -4.934475 0.04480563 -0.06552543
v -4.883127 0.04480563 -1.25
v -4.934475 0.04480563 -0.9933921
v -4.934475 0.04480563 -1.371365
v -4.934475 0.04480563 -2.312951
v -1.13175 0.04480563 -4.934474
v -1.25 0.04480563 -4.858994
v -1.25 1.110223E-16 -5
v -1.378243 0.04480563 -4.934474
v -4.934475 0.04480563 -1.371365
v -4.883127 0.04480563 -1.25
v -5 -6.137584E-17 -1.25
v -4.934475 0.04480563 -0.9933921
vt 0.5860454 0.584978
vt 0.5905856 0.580083
vt 0.5822896 0.5779934
vt 0.3711823 0.5810115
vt 0.4749497 0.5756475
vt 0.3846624 0.5705194
vt 0.3766066 0.5618792
vt 0.3711823 0.5810115
vt 0.3846624 0.5705194
vt 0.7726385 0.5756707
vt 0.7863159 0.581044
vt 0.7808594 0.5629493
vt 0.4468887 0.5709701
vt 0.4469691 0.5779997
vt 0.4537433 0.5802675
vt 0.4380749 0.5800692
vt 0.4537433 0.5802675
vt 0.4469691 0.5779997
vt 0.4449298 0.5893667
vt 0.4380749 0.5800692
vt 0.607613 0.1562994
vt 0.6076934 0.163329
vt 0.6144676 0.1655969
vt 0.5987992 0.1653985
vt 0.6144676 0.1655969
vt 0.6076934 0.163329
vt 0.6056541 0.174696
vt 0.5987992 0.1653985
vt 0.6507383 0.1593575
vt 0.6509722 0.1642127
vt 0.6624185 0.165837
vt 0.6359851 0.1655023
vt 0.6624185 0.165837
vt 0.6509722 0.1642127
vt 0.6476651 0.1719817
vt 0.6359851 0.1655023
vt 0.5996064 0.5855658
vt 0.5905856 0.580083
vt 0.5860454 0.584978
vt 0.6032661 0.5800927
vt 0.6006031 0.5765055
vt 0.5822896 0.5779934
vt 0.5905856 0.580083
vt 0.5870296 0.5760351
vt 0.6006031 0.5765055
vt 0.4749658 0.5810196
vt 0.3711823 0.5810115
vt 0.3711823 0.4772443
vt 0.4749658 0.4772523
vt 0.3711823 0.3734769
vt 0.5787491 0.4772605
vt 0.5787491 0.5810277
vt 0.4749658 0.3734849
vt 0.3711823 0.2697094
vt 0.6825325 0.4772685
vt 0.6825325 0.3735012
vt 0.6825325 0.5810359
vt 0.7863159 0.581044
vt 0.7863159 0.4772767
vt 0.7863159 0.3735093
vt 0.7863159 0.2697419
vt 0.4749658 0.2697175
vt 0.3711823 0.1659421
vt 0.4749658 0.1659501
vt 0.5787491 0.1659583
vt 0.5787491 0.3734931
vt 0.5787491 0.2697257
vt 0.6825325 0.2697337
vt 0.7863159 0.1659745
vt 0.6825325 0.1659664
vt 0.3711823 0.1659421
vt 0.3766066 0.1714493
vt 0.4749497 0.1714569
vt 0.4749658 0.1659501
vt 0.5787491 0.1659583
vt 0.5787434 0.1679487
vt 0.6825325 0.1659664
vt 0.5942628 0.1714663
vt 0.6724398 0.1714725
vt 0.7038217 0.1714749
vt 0.7863159 0.1659745
vt 0.7808594 0.171481
vt 0.4749497 0.5756475
vt 0.3711823 0.5810115
vt 0.4749658 0.5810196
vt 0.5787491 0.5810277
vt 0.578733 0.5756556
vt 0.6825163 0.5756637
vt 0.6825325 0.5810359
vt 0.7863159 0.581044
vt 0.7726385 0.5756707
vt 0.3711823 0.5810115
vt 0.3766066 0.5618792
vt 0.3766066 0.4871283
vt 0.3711823 0.4772443
vt 0.3766066 0.466666
vt 0.3711823 0.3734769
vt 0.3766066 0.3735445
vt 0.3766066 0.2697771
vt 0.3711823 0.2697094
vt 0.3711823 0.1659421
vt 0.3766066 0.1714493
vt 0.578733 0.1748591
vt 0.5942628 0.1714663
vt 0.5787434 0.1679487
vt 0.4749497 0.1714569
vt 0.7808594 0.4773436
vt 0.7808594 0.5629493
vt 0.7863159 0.581044
vt 0.7863159 0.4772767
vt 0.7863159 0.3735093
vt 0.7808594 0.3735762
vt 0.7808594 0.2698088
vt 0.7863159 0.2697419
vt 0.7863159 0.1659745
vt 0.7808594 0.171481
vt 0.3766066 0.3735445
vt 0.3766066 0.466666
vt 0.3828734 0.4773124
vt 0.4749497 0.4773196
vt 0.4749497 0.3735523
vt 0.3766066 0.2697771
vt 0.3846624 0.5705194
vt 0.3766066 0.4871283
vt 0.3766066 0.5618792
vt 0.4749497 0.5756475
vt 0.578733 0.4773278
vt 0.578733 0.5756556
vt 0.578733 0.3735604
vt 0.6825163 0.3735685
vt 0.6825163 0.4773359
vt 0.6825163 0.5756637
vt 0.578733 0.269793
vt 0.4749497 0.2697848
vt 0.4749497 0.1714569
vt 0.3766066 0.1714493
vt 0.578733 0.1748591
vt 0.7808594 0.4773436
vt 0.7808594 0.5629493
vt 0.7726385 0.5756707
vt 0.7808594 0.3735762
vt 0.7808594 0.2698088
vt 0.6825163 0.269801
vt 0.7808594 0.171481
vt 0.6825163 0.1757357
vt 0.7038217 0.1714749
vt 0.6724398 0.1714725
vt 0.5942628 0.1714663
vt 0.3766066 0.4871283
vt 0.3828734 0.4773124
vt 0.3711823 0.4772443
vt 0.3766066 0.466666
vt 0.6724398 0.1714725
vt 0.6825163 0.1757357
vt 0.6825325 0.1659664
vt 0.7038217 0.1714749
vn 0.2961335 0.7803767 -0.5507424
vn 0.2961335 0.7803767 -0.5507424
vn 0.2961335 0.7803767 -0.5507424
vn 0.3119598 0.9499305 -0.01769673
vn 0.3119597 0.9499305 -0.01769673
vn 0.3119598 0.9499305 -0.01769673
vn 0.1451684 0.9770774 -0.1557109
vn 0.1451684 0.9770774 -0.1557109
vn 0.1451684 0.9770774 -0.1557109
vn 0.1354991 0.9683266 0.2097225
vn 0.1354991 0.9683266 0.2097226
vn 0.1354991 0.9683266 0.2097226
vn -0.4572501 0.8886485 -0.03501569
vn -0.4580195 0.8888314 0.01402625
vn -0.3924146 0.7475151 0.5359404
vn -0.4096365 0.8066616 -0.4260222
vn 0.3415899 0.8724524 0.3494899
vn 0.3088405 0.9506965 0.02817591
vn 0.2958603 0.9539324 -0.04979634
vn 0.2366138 0.9185799 -0.3165831
vn -0.4572536 0.8886467 -0.03501649
vn -0.4580233 0.8888295 0.01402686
vn -0.39242 0.7475117 0.5359411
vn -0.4096376 0.8066606 -0.4260231
vn 0.3415889 0.8724539 0.349487
vn 0.3088394 0.9506968 0.02817583
vn 0.2958592 0.9539328 -0.04979627
vn 0.236613 0.9185807 -0.3165814
vn -0.5990109 0.8006517 -0.01195132
vn -0.5998977 0.7999263 0.01551086
vn -0.5780694 0.7494102 0.3228315
vn -0.5737467 0.7828319 -0.2408089
vn 0.482173 0.8531739 0.1990062
vn 0.4368879 0.8985184 0.04235296
vn 0.401802 0.9139299 -0.05733505
vn 0.3474594 0.9182045 -0.1901905
vn 0.421164 0.8755991 0.2365317
vn 0.5690235 0.8179387 0.08478612
vn 0.7017273 0.7117981 -0.03037142
vn 0.04838779 0.926272 0.3737363
vn -0.2691067 0.8922698 0.362541
vn -0.6592991 0.7007744 -0.2724698
vn -0.787304 0.6164753 -0.01051459
vn -0.7513492 0.6521037 -0.101169
vn -0.799895 0.5995024 0.0276561
vn 0 -1 0
vn 0 -1 0
vn 0 -1 0
vn 0 -1 0
vn 0 -1 0
vn 0 -1 0
vn 0 -1 0
vn 0 -1 0
vn 0 -1 0
vn 0 -1 0
vn 0 -1 0
vn 0 -1 0
vn 0 -1 0
vn 0 -1 0
vn 0 -1 0
vn 0 -1 0
vn 0 -1 0
vn 0 -1 0
vn 0 -1 0
vn 0 -1 0
vn 0 -1 0
vn 0 -1 0
vn 0 -1 0
vn 0 -1 0
vn 0 -1 0
vn -0.5644501 0.8254672 0
vn -0.5644501 0.8254672 0
vn -0.5644509 0.8254667 0
vn -0.5644509 0.8254667 0
vn -0.5644519 0.825466 0
vn -0.5644519 0.825466 0
vn -0.5644521 0.8254658 0
vn -0.5644505 0.8254669 0
vn -0.5644505 0.8254669 0
vn -0.5644521 0.8254658 0
vn -0.5644521 0.8254659 0
vn -0.5644521 0.8254658 0
vn 0.5644469 0.8254694 0
vn 0.5644469 0.8254694 0
vn 0.564447 0.8254694 0
vn 0.5644469 0.8254694 0
vn 0.5644469 0.8254694 0
vn 0.564447 0.8254694 0
vn 0.5644469 0.8254694 0
vn 0.5644469 0.8254694 0
vn 0.5644469 0.8254694 0
vn 0 0.8254694 -0.564447
vn 0 0.8254694 -0.564447
vn 0 0.8254694 -0.564447
vn 0 0.8254694 -0.5644469
vn 0 0.8254694 -0.5644469
vn 0 0.8254694 -0.5644469
vn 0 0.8254694 -0.5644469
vn 0 0.8254694 -0.564447
vn 0 0.8254694 -0.564447
vn 0 0.8254694 -0.564447
vn 0 0.8254694 -0.564447
vn -0.3268506 0.9450753 0.001055895
vn -0.3260228 0.9426722 -0.071262
vn -0.3268505 0.9450752 0.001335638
vn -0.3268318 0.9450221 0.01069001
vn 0 0.8254691 0.5644474
vn 0 0.8254691 0.5644474
vn 0 0.8254691 0.5644474
vn 0 0.8254691 0.5644474
vn 0 0.8254691 0.5644473
vn 0 0.8254691 0.5644473
vn 0 0.8254691 0.5644473
vn 0 0.8254691 0.5644473
vn 0 0.8254691 0.5644473
vn 0 0.8254691 0.5644473
vn 0 1 0
vn 0 1 0
vn 0 1 0
vn 0 1 0
vn 0 1 0
vn 0 1 0
vn 0 1 0
vn 0 1 0
vn 0 1 0
vn 0 1 0
vn 0 1 0
vn 0 1 0
vn 0 1 0
vn 0 1 0
vn 0 1 0
vn 0 1 0
vn 0 1 0
vn 0 1 0
vn 0 1 0
vn 0 1 0
vn 0 1 0
vn 0 1 0
vn 0 1 0
vn 0 1 0
vn 0 1 0
vn 0 1 0
vn 0 1 0
vn 0 1 0
vn 0 1 0
vn 0 1 0
vn 0 1 0
vn 0 1 0
vn -0.1897909 0.9357205 -0.2973324
vn 0.002990945 0.9530382 -0.3028353
vn 0.003143929 0.9530378 -0.3028352
vn 0.1754748 0.938255 -0.298138
vn -0.3539313 0.9232061 0.1497433
vn -0.3579588 0.9337119 -0.006898079
vn -0.3579456 0.9336776 -0.01100756
vn -0.3570524 0.9313478 -0.07144673
g floor_4x4_0
f 3/3/3 2/2/2 1/1/1
f 6/6/6 5/5/5 4/4/4
f 9/9/9 8/8/8 7/7/7
f 12/12/12 11/11/11 10/10/10
f 15/15/15 14/14/14 13/13/13
f 13/13/13 14/14/14 16/16/16
f 19/19/19 18/18/18 17/17/17
f 20/20/20 18/18/18 19/19/19
f 23/23/23 22/22/22 21/21/21
f 21/21/21 22/22/22 24/24/24
f 27/27/27 26/26/26 25/25/25
f 28/28/28 26/26/26 27/27/27
f 31/31/31 30/30/30 29/29/29
f 29/29/29 30/30/30 32/32/32
f 35/35/35 34/34/34 33/33/33
f 36/36/36 34/34/34 35/35/35
f 39/39/39 38/38/38 37/37/37
f 37/37/37 38/38/38 40/40/40
f 40/40/40 38/38/38 41/41/41
f 44/44/44 43/43/43 42/42/42
f 45/45/45 43/43/43 44/44/44
f 48/48/48 47/47/47 46/46/46
f 49/49/49 48/48/48 46/46/46
f 48/48/48 49/49/49 50/50/50
f 49/49/49 46/46/46 51/51/51
f 46/46/46 52/52/52 51/51/51
f 49/49/49 53/53/53 50/50/50
f 49/49/49 51/51/51 53/53/53
f 54/54/54 50/50/50 53/53/53
f 55/55/55 51/51/51 52/52/52
f 55/55/55 56/56/56 51/51/51
f 57/57/57 55/55/55 52/52/52
f 57/57/57 58/58/58 55/55/55
f 58/58/58 59/59/59 55/55/55
f 55/55/55 59/59/59 56/56/56
f 59/59/59 60/60/60 56/56/56
f 56/56/56 60/60/60 61/61/61
f 62/62/62 54/54/54 53/53/53
f 63/63/63 54/54/54 62/62/62
f 64/64/64 63/63/63 62/62/62
f 64/64/64 62/62/62 65/65/65
f 51/51/51 66/66/66 53/53/53
f 56/56/56 66/66/66 51/51/51
f 62/62/62 53/53/53 67/67/67
f 53/53/53 66/66/66 67/67/67
f 62/62/62 67/67/67 65/65/65
f 67/67/67 66/66/66 56/56/56
f 68/68/68 56/56/56 61/61/61
f 68/68/68 67/67/67 56/56/56
f 65/65/65 67/67/67 68/68/68
f 68/68/68 61/61/61 69/69/69
f 70/70/70 65/65/65 68/68/68
f 70/70/70 68/68/68 69/69/69
f 73/73/73 72/72/72 71/71/71
f 74/74/74 73/73/73 71/71/71
f 74/74/74 75/75/75 73/73/73
f 75/75/75 76/76/76 73/73/73
f 76/76/76 75/75/75 77/77/77
f 77/77/77 78/78/78 76/76/76
f 77/77/77 79/79/79 78/78/78
f 77/77/77 81/81/81 80/80/80
f 81/81/81 82/82/82 80/80/80
f 85/85/85 84/84/84 83/83/83
f 85/85/85 83/83/83 86/86/86
f 83/83/83 87/87/87 86/86/86
f 86/86/86 87/87/87 88/88/88
f 89/89/89 86/86/86 88/88/88
f 89/89/89 88/88/88 90/90/90
f 88/88/88 91/91/91 90/90/90
f 94/94/94 93/93/93 92/92/92
f 95/95/95 94/94/94 92/92/92
f 95/95/95 97/97/97 96/96/96
f 97/97/97 98/98/98 96/96/96
f 99/99/99 98/98/98 97/97/97
f 100/100/100 99/99/99 97/97/97
f 100/100/100 101/101/101 99/99/99
f 101/101/101 102/102/102 99/99/99
f 105/105/105 104/104/104 103/103/103
f 105/105/105 103/103/103 106/106/106
f 109/109/109 108/108/108 107/107/107
f 110/110/110 109/109/109 107/107/107
f 110/110/110 107/107/107 111/111/111
f 107/107/107 112/112/112 111/111/111
f 111/111/111 112/112/112 113/113/113
f 114/114/114 111/111/111 113/113/113
f 114/114/114 113/113/113 115/115/115
f 113/113/113 116/116/116 115/115/115
f 119/119/119 118/118/118 117/117/117
f 120/120/120 119/119/119 117/117/117
f 121/121/121 120/120/120 117/117/117
f 121/121/121 117/117/117 122/122/122
f 119/119/119 120/120/120 123/123/123
f 119/119/119 123/123/123 124/124/124
f 123/123/123 125/125/125 124/124/124
f 120/120/120 126/126/126 123/123/123
f 120/120/120 127/127/127 126/126/126
f 127/127/127 128/128/128 126/126/126
f 121/121/121 129/129/129 120/120/120
f 129/129/129 127/127/127 120/120/120
f 127/127/127 129/129/129 130/130/130
f 127/127/127 131/131/131 128/128/128
f 131/131/131 127/127/127 130/130/130
f 131/131/131 132/132/132 128/128/128
f 133/133/133 129/129/129 121/121/121
f 130/130/130 129/129/129 133/133/133
f 134/134/134 121/121/121 122/122/122
f 134/134/134 133/133/133 121/121/121
f 134/134/134 122/122/122 135/135/135
f 133/133/133 134/134/134 135/135/135
f 122/122/122 136/136/136 135/135/135
f 137/137/137 133/133/133 135/135/135
f 131/131/131 138/138/138 132/132/132
f 131/131/131 130/130/130 138/138/138
f 138/138/138 139/139/139 132/132/132
f 139/139/139 140/140/140 132/132/132
f 130/130/130 141/141/141 138/138/138
f 142/142/142 141/141/141 130/130/130
f 143/143/143 130/130/130 133/133/133
f 143/143/143 142/142/142 130/130/130
f 143/143/143 133/133/133 137/137/137
f 142/142/142 143/143/143 144/144/144
f 143/143/143 145/145/145 144/144/144
f 145/145/145 143/143/143 137/137/137
f 145/145/145 146/146/146 144/144/144
f 145/145/145 137/137/137 147/147/147
f 137/137/137 148/148/148 147/147/147
f 151/151/151 150/150/150 149/149/149
f 152/152/152 150/150/150 151/151/151
f 155/155/155 154/154/154 153/153/153
f 156/156/156 154/154/154 155/155/155
