g floor_ramp
v 5 0.25 -3.75
v 0 0.25 -5
v 5 0.25 -5
v 0 0.25 -3.75
v 0 0.01611864 -1.368522
v 4.599321 0.01611864 -1.368522
v -5 0.25 -3.75
v -5 0.25 -5
v -4.599321 0.01611864 -1.368522
v 4.599321 0.01611864 -1.368522
v 4.599321 0.01611866 -0.6314777
v 0 0.01611866 -0.6314777
v 0 0.01611864 -1.368522
v -4.599321 0.01611864 -1.368522
v -4.599321 0.01611866 -0.6314777
v 5 0.2500001 -0.6314777
v 4.943735 0.2500001 -0.6314777
v 4.943735 0.2500001 -1.368522
v 5 0.2500001 -1.368522
v 4.599321 0.01611866 -0.6314777
v 5 0.25 -3.75
v 4.599321 0.01611864 -1.368522
v -5 0.2500001 -0.6314777
v -5 0.2500001 -1.368522
v -4.943735 0.2500001 -1.368522
v -4.943735 0.2500001 -0.6314777
v -5 0.25 -3.75
v -4.599321 0.01611866 -0.6314777
v -4.599321 0.01611864 -1.368522
vt 0.1111541 0.9947776
vt 0.00737071 0.5796998
vt 0.00737071 0.9947693
vt 0.1111541 0.579708
vt 0.3089645 0.5793723
vt 0.3089645 0.9611798
vt 0.1111541 0.1646383
vt 0.00737071 0.1646301
vt 0.3089645 0.1975647
vt 0.3089645 0.9611798
vt 0.3701589 0.9611846
vt 0.3701589 0.5793771
vt 0.3089645 0.5793723
vt 0.3089645 0.1975647
vt 0.3701589 0.1975694
vt 0.3700748 0.9947977
vt 0.3700748 0.9901268
vt 0.3088804 0.9901221
vt 0.3088804 0.9947928
vt 0.3701589 0.9611846
vt 0.1111541 0.9947776
vt 0.3089645 0.9611798
vt 0.3700748 0.1646584
vt 0.3088804 0.1646537
vt 0.3088804 0.1693245
vt 0.3700748 0.1693293
vt 0.1111541 0.1646383
vt 0.3701589 0.1975694
vt 0.3089645 0.1975647
vn 0 0.9981478 0.06083456
vn 0 1 0
vn 0 1 0
vn 0 0.9979905 0.06336409
vn 0 0.9952122 0.0977383
vn 0 0.9952122 0.09773831
vn 0 0.9981478 0.06083455
vn 0 1 0
vn 0 0.9952122 0.09773829
vn 0 1 0
vn 0 1 0
vn 0 1 0
vn 0 1 0
vn 0 1 0
vn 0 1 0
vn 1.694981E-07 1 0
vn -0.5041154 0.8636363 0
vn -0.5049922 0.8630921 -0.007404205
vn 2.741934E-07 1 0
vn -0.5617837 0.8272842 0
vn -0.5532319 0.8329247 -0.01307065
vn -0.5617665 0.8272592 -0.007783654
vn -1.694981E-07 1 0
vn -2.741934E-07 1 0
vn 0.5049922 0.8630921 -0.007404207
vn 0.5041154 0.8636363 0
vn 0.5532319 0.8329247 -0.01307066
vn 0.5617837 0.8272842 0
vn 0.5617665 0.8272592 -0.007783656
g floor_ramp_0
f 3/3/3 2/2/2 1/1/1
f 2/2/2 4/4/4 1/1/1
f 4/4/4 5/5/5 1/1/1
f 5/5/5 6/6/6 1/1/1
f 4/4/4 2/2/2 7/7/7
f 5/5/5 4/4/4 7/7/7
f 2/2/2 8/8/8 7/7/7
f 9/9/9 5/5/5 7/7/7
f 12/12/12 11/11/11 10/10/10
f 13/13/13 12/12/12 10/10/10
f 12/12/12 13/13/13 14/14/14
f 15/15/15 12/12/12 14/14/14
f 18/18/18 17/17/17 16/16/16
f 19/19/19 18/18/18 16/16/16
f 20/20/20 17/17/17 18/18/18
f 21/21/21 18/18/18 19/19/19
f 22/22/22 20/20/20 18/18/18
f 22/22/22 18/18/18 21/21/21
f 25/25/25 24/24/24 23/23/23
f 26/26/26 25/25/25 23/23/23
f 25/25/25 27/27/27 24/24/24
f 26/26/26 28/28/28 25/25/25
f 25/25/25 29/29/29 27/27/27
f 28/28/28 29/29/29 25/25/25
