g floor_trim
v 0.4507481 0.0005198339 -0.001820068
v 0.4333555 0.07437341 -0.001820068
v 0.4333555 0.07437341 -4.999678
v 0.4507481 0.0005198339 -4.999678
v 0.2346946 0.1514409 -0.001820068
v 0.4333555 0.07437341 -4.999678
v 0.4333555 0.07437341 -0.001820068
v 0.2346946 0.1514409 -4.999678
v 0.1831382 0.1514361 -0.001820068
v 0.1831382 0.1514361 -4.999678
v 0.09999977 0.08117671 -0.001824951
v 0.09999977 0.08117671 -4.999758
v 0.1831382 0.1514361 -4.999678
v 0.1831382 0.1514361 -0.001820068
v -2.288818E-07 0.1011294 -0.001824341
v 0.09999977 0.08117671 -4.999758
v 0.09999977 0.08117671 -0.001824951
v -2.288818E-07 0.1011294 -4.999748
v -0.1000002 0.08117671 -0.001824951
v -0.1000002 0.08117671 -4.999758
v -0.1831387 0.1514361 -0.001820068
v -0.1831387 0.1514361 -4.999678
v -0.1000002 0.08117671 -4.999758
v -0.1000002 0.08117671 -0.001824951
v -0.234695 0.1514409 -0.001820068
v -0.1831387 0.1514361 -4.999678
v -0.1831387 0.1514361 -0.001820068
v -0.234695 0.1514409 -4.999678
v -0.4333559 0.07437341 -0.001820068
v -0.4333559 0.07437341 -4.999678
v -0.4507485 0.0005198339 -0.001820068
v -0.4507485 0.0005198339 -4.999678
v -0.4333559 0.07437341 -4.999678
v -0.4333559 0.07437341 -0.001820068
v 0.2942197 0.1292375 -4.169591
v 0.3394419 0.1112141 -4.189756
v 0.3488535 0.1348314 -4.15817
v 0.3243809 0.1445856 -4.147257
v 0.3521592 0.1431248 -4.120911
v 0.2754893 0.136703 -4.120911
v 0.3733286 0.1250772 -4.147257
v 0.3846616 0.09319065 -4.169591
v 0.3142442 0.148626 -4.120911
v 0.2942197 0.1292375 -4.072231
v 0.3834653 0.1210369 -4.120911
v 0.4033946 0.08572511 -4.120911
v 0.3243809 0.1445856 -4.094565
v 0.3394419 0.1112141 -4.052066
v 0.3733286 0.1250772 -4.094565
v 0.3846616 0.09319065 -4.072231
v 0.3488535 0.1348314 -4.083653
v 0.2942197 0.1292375 -2.54868
v 0.3394419 0.1112141 -2.568845
v 0.3488535 0.1348314 -2.537258
v 0.3243809 0.1445856 -2.526346
v 0.3521592 0.1431248 -2.5
v 0.2754893 0.136703 -2.5
v 0.3733286 0.1250772 -2.526346
v 0.3846616 0.09319065 -2.54868
v 0.3142442 0.148626 -2.5
v 0.2942197 0.1292375 -2.451319
v 0.3834653 0.1210369 -2.5
v 0.4033946 0.08572511 -2.5
v 0.3243809 0.1445856 -2.473654
v 0.3394419 0.1112141 -2.431155
v 0.3733286 0.1250772 -2.473654
v 0.3846616 0.09319065 -2.451319
v 0.3488535 0.1348314 -2.462742
v 0.2942197 0.1292375 -0.9200636
v 0.3394419 0.1112141 -0.9402277
v 0.3488535 0.1348314 -0.908642
v 0.3243809 0.1445856 -0.8977289
v 0.3521592 0.1431248 -0.8713831
v 0.2754893 0.136703 -0.8713831
v 0.3733286 0.1250772 -0.8977289
v 0.3846616 0.09319065 -0.9200636
v 0.3142442 0.148626 -0.8713831
v 0.2942197 0.1292375 -0.8227027
v 0.3834653 0.1210369 -0.8713831
v 0.4033946 0.08572511 -0.8713831
v 0.3243809 0.1445856 -0.8450373
v 0.3394419 0.1112141 -0.8025385
v 0.3733286 0.1250772 -0.8450373
v 0.3846616 0.09319065 -0.8227027
v 0.3488535 0.1348314 -0.8341242
v -0.2935671 0.1292375 -4.169591
v -0.3237283 0.1445856 -4.147257
v -0.3482009 0.1348314 -4.15817
v -0.3515066 0.1431248 -4.120911
v -0.3387893 0.1112141 -4.189756
v -0.2748367 0.136703 -4.120911
v -0.372676 0.1250772 -4.147257
v -0.384009 0.09319065 -4.169591
v -0.3135915 0.148626 -4.120911
v -0.2935671 0.1292375 -4.072231
v -0.3828127 0.1210369 -4.120911
v -0.4027419 0.08572511 -4.120911
v -0.3237283 0.1445856 -4.094565
v -0.3387893 0.1112141 -4.052066
v -0.372676 0.1250772 -4.094565
v -0.384009 0.09319065 -4.072231
v -0.3482009 0.1348314 -4.083653
v -0.2935671 0.1292375 -2.54868
v -0.3237283 0.1445856 -2.526346
v -0.3482009 0.1348314 -2.537258
v -0.3515066 0.1431248 -2.5
v -0.3387893 0.1112141 -2.568845
v -0.2748367 0.136703 -2.5
v -0.372676 0.1250772 -2.526346
v -0.384009 0.09319065 -2.54868
v -0.3135915 0.148626 -2.5
v -0.2935671 0.1292375 -2.451319
v -0.3828127 0.1210369 -2.5
v -0.4027419 0.08572511 -2.5
v -0.3237283 0.1445856 -2.473654
v -0.3387893 0.1112141 -2.431155
v -0.372676 0.1250772 -2.473654
v -0.384009 0.09319065 -2.451319
v -0.3482009 0.1348314 -2.462742
v -0.2935671 0.1292375 -0.9200636
v -0.3237283 0.1445856 -0.8977289
v -0.3482009 0.1348314 -0.908642
v -0.3515066 0.1431248 -0.8713831
v -0.3387893 0.1112141 -0.9402277
v -0.2748367 0.136703 -0.8713831
v -0.372676 0.1250772 -0.8977289
v -0.384009 0.09319065 -0.9200636
v -0.3135915 0.148626 -0.8713831
v -0.2935671 0.1292375 -0.8227027
v -0.3828127 0.1210369 -0.8713831
v -0.4027419 0.08572511 -0.8713831
v -0.3237283 0.1445856 -0.8450373
v -0.3387893 0.1112141 -0.8025385
v -0.372676 0.1250772 -0.8450373
v -0.384009 0.09319065 -0.8227027
v -0.3482009 0.1348314 -0.8341242
vt -0.01683435 0.4549634
vt -0.01683435 0.4713328
vt 0.1645896 0.4713328
vt 0.1645896 0.4549635
vt -0.01683435 0.4889263
vt 0.1645896 0.4713328
vt -0.01683435 0.4713328
vt 0.1645896 0.4889262
vt -0.01683435 0.490549
vt 0.1645896 0.490549
vt -0.01682837 0.4611102
vt 0.1646892 0.4611102
vt 0.1645896 0.4870238
vt -0.01683435 0.4870238
vt 0.9563808 0.4204853
vt 0.7032198 0.4141399
vt 0.9563519 0.4141399
vt 0.7037001 0.4204853
vt 0.9563519 0.4268308
vt 0.7032198 0.4268308
vt -0.01683435 0.4872303
vt 0.1645896 0.4872302
vt 0.1646892 0.4613166
vt -0.01682837 0.4613165
vt -0.01683435 0.4889132
vt 0.1645896 0.4905359
vt -0.01683435 0.4905359
vt 0.1645896 0.4889132
vt -0.01683435 0.4712389
vt 0.1645896 0.471239
vt -0.01683435 0.4548695
vt 0.1645896 0.4548695
vt 0.1645896 0.471239
vt -0.01683435 0.4712389
vt 0.265957 0.5828087
vt 0.2532114 0.5875436
vt 0.2505583 0.5801269
vt 0.2574563 0.5775644
vt 0.2496268 0.5713781
vt 0.2712364 0.5713781
vt 0.2436607 0.5775644
vt 0.240466 0.5828087
vt 0.2603135 0.5713781
vt 0.265957 0.5599475
vt 0.2408035 0.5713781
vt 0.2351865 0.5713781
vt 0.2574563 0.5651918
vt 0.2532114 0.5552127
vt 0.2436607 0.5651918
vt 0.240466 0.5599475
vt 0.2505583 0.5626295
vt 0.2981007 0.5868976
vt 0.294715 0.5881553
vt 0.2940103 0.5861852
vt 0.2958426 0.5855046
vt 0.2937629 0.5838612
vt 0.2995031 0.5838612
vt 0.2921781 0.5855046
vt 0.2913294 0.5868976
vt 0.2966016 0.5838612
vt 0.2981007 0.580825
vt 0.2914191 0.5838612
vt 0.289927 0.5838612
vt 0.2958426 0.582218
vt 0.294715 0.5795673
vt 0.2921781 0.582218
vt 0.2913294 0.580825
vt 0.2940103 0.5815374
vt 0.265957 0.5820495
vt 0.2532114 0.5867841
vt 0.2505583 0.5793675
vt 0.2574563 0.576805
vt 0.2496268 0.5706187
vt 0.2712364 0.5706187
vt 0.2436607 0.576805
vt 0.240466 0.5820495
vt 0.2603135 0.5706187
vt 0.265957 0.5591881
vt 0.2408035 0.5706187
vt 0.2351865 0.5706187
vt 0.2574563 0.5644326
vt 0.2532114 0.5544534
vt 0.2436607 0.5644326
vt 0.240466 0.5591881
vt 0.2505583 0.5618701
vt 0.265957 0.5828087
vt 0.2574563 0.5775644
vt 0.2505583 0.5801269
vt 0.2496268 0.5713781
vt 0.2532114 0.5875436
vt 0.2712364 0.5713781
vt 0.2436607 0.5775644
vt 0.240466 0.5828087
vt 0.2603135 0.5713781
vt 0.265957 0.5599475
vt 0.2408035 0.5713781
vt 0.2351865 0.5713781
vt 0.2574563 0.5651918
vt 0.2532114 0.5552127
vt 0.2436607 0.5651918
vt 0.240466 0.5599475
vt 0.2505583 0.5626295
vt 0.2981007 0.5868976
vt 0.2958426 0.5855046
vt 0.2940103 0.5861852
vt 0.2937629 0.5838612
vt 0.294715 0.5881553
vt 0.2995031 0.5838612
vt 0.2921781 0.5855046
vt 0.2913294 0.5868976
vt 0.2966016 0.5838612
vt 0.2981007 0.580825
vt 0.2914191 0.5838612
vt 0.289927 0.5838612
vt 0.2958426 0.582218
vt 0.294715 0.5795673
vt 0.2921781 0.582218
vt 0.2913294 0.580825
vt 0.2940103 0.5815374
vt 0.265957 0.5820495
vt 0.2574563 0.576805
vt 0.2505583 0.5793675
vt 0.2496268 0.5706187
vt 0.2532114 0.5867841
vt 0.2712364 0.5706187
vt 0.2436607 0.576805
vt 0.240466 0.5820495
vt 0.2603135 0.5706187
vt 0.265957 0.5591881
vt 0.2408035 0.5706187
vt 0.2351865 0.5706187
vt 0.2574563 0.5644326
vt 0.2532114 0.5544534
vt 0.2436607 0.5644326
vt 0.240466 0.5591881
vt 0.2505583 0.5618701
vn 0.9733723 0.2292298 0
vn 0.9733723 0.2292298 0
vn 0.9733723 0.2292298 0
vn 0.9733723 0.2292298 0
vn 0.2943397 0.9557009 0
vn 0.3616734 0.9323049 0
vn 0.3616734 0.9323049 0
vn 0.2943397 0.9557009 0
vn -0.462504 0.8866172 0
vn -0.4625731 0.8865812 0
vn -0.6454683 0.7637871 0
vn -0.6454683 0.7637871 0
vn -0.4625731 0.8865812 0
vn -0.462504 0.8866172 0
vn 0 1 0
vn 0.1956705 0.9806697 0
vn 0.1956705 0.9806698 0
vn 0 1 0
vn -0.1956705 0.9806698 0
vn -0.1956705 0.9806698 0
vn 0.4625041 0.8866171 0
vn 0.4625731 0.8865812 0
vn 0.6454683 0.763787 0
vn 0.6454684 0.763787 0
vn -0.2943398 0.9557009 0
vn 0.4625731 0.8865812 0
vn 0.4625041 0.8866171 0
vn -0.2943398 0.9557009 0
vn -0.3616735 0.9323049 0
vn -0.3616735 0.9323049 0
vn -0.9733722 0.2292303 0
vn -0.9733722 0.2292303 0
vn -0.9733722 0.2292303 0
vn -0.9733722 0.2292303 0
vn -0.1234554 0.887796 -0.44337
vn 0.2884177 0.7236359 -0.6270299
vn 0.3051274 0.7655885 -0.566367
vn -0.06688876 0.9138617 -0.400478
vn 0.3702354 0.928938 1.353526E-07
vn -0.2940482 0.9557906 1.359675E-07
vn 0.6771545 0.6173124 -0.4004837
vn 0.7002798 0.5594794 -0.4433859
vn -0.2209789 0.9752786 1.173907E-07
vn -0.1234504 0.8877969 0.4433697
vn 0.8312518 0.5558962 -3.924688E-07
vn 0.8708867 0.4914839 -4.697201E-07
vn -0.06688558 0.9138614 0.4004792
vn 0.2884185 0.7236377 0.6270273
vn 0.6771521 0.6173143 0.4004848
vn 0.7002771 0.5594828 0.4433859
vn 0.305128 0.7655898 0.5663649
vn -0.1234523 0.8877967 -0.4433696
vn 0.2884211 0.7236373 -0.6270266
vn 0.3051301 0.7655893 -0.5663643
vn -0.06688678 0.9138614 -0.4004792
vn 0.3702358 0.9289379 1.154483E-07
vn -0.2940501 0.9557899 0
vn 0.6771525 0.617314 -0.4004847
vn 0.700278 0.5594822 -0.4433852
vn -0.2209803 0.9752783 0
vn -0.1234504 0.8877969 0.4433697
vn 0.8312515 0.5558964 1.620688E-07
vn 0.8708864 0.4914843 1.730551E-07
vn -0.06688461 0.9138614 0.4004793
vn 0.2884193 0.7236376 0.6270271
vn 0.6771523 0.6173143 0.4004845
vn 0.7002772 0.5594828 0.4433856
vn 0.3051287 0.7655897 0.5663647
vn -0.1234545 0.8877962 -0.44337
vn 0.2884189 0.7236355 -0.6270296
vn 0.3051285 0.7655883 -0.5663666
vn -0.06688803 0.9138618 -0.400478
vn 0.3702361 0.9289377 0
vn -0.2940499 0.95579 0
vn 0.6771545 0.6173125 -0.4004835
vn 0.7002798 0.5594793 -0.443386
vn -0.2209802 0.9752783 0
vn -0.1234562 0.8877959 0.44337
vn 0.8312514 0.5558968 0
vn 0.8708863 0.4914846 0
vn -0.0668895 0.9138616 0.4004781
vn 0.2884193 0.7236354 0.6270295
vn 0.6771548 0.6173124 0.4004832
vn 0.70028 0.5594792 0.4433857
vn 0.3051288 0.7655882 0.5663666
vn 0.1234534 0.8877961 -0.4433703
vn 0.06688713 0.9138617 -0.4004782
vn -0.3051288 0.765588 -0.5663668
vn -0.3702355 0.9289379 0
vn -0.2884194 0.7236353 -0.6270297
vn 0.2940501 0.9557899 -1.606889E-07
vn -0.6771553 0.6173117 -0.4004834
vn -0.7002804 0.5594788 -0.4433857
vn 0.2209805 0.9752783 -1.436723E-07
vn 0.1234523 0.8877965 0.4433699
vn -0.831252 0.5558959 0
vn -0.8708869 0.4914835 0
vn 0.06688701 0.9138613 0.4004794
vn -0.2884232 0.7236366 0.6270264
vn -0.677155 0.6173123 0.400483
vn -0.7002804 0.5594804 0.4433837
vn -0.3051319 0.7655889 0.566364
vn 0.1234523 0.8877966 -0.4433697
vn 0.06688686 0.9138613 -0.4004793
vn -0.3051304 0.7655889 -0.5663648
vn -0.3702361 0.9289377 0
vn -0.2884214 0.7236368 -0.627027
vn 0.2940501 0.9557899 0
vn -0.6771531 0.6173131 -0.4004848
vn -0.7002787 0.5594811 -0.4433854
vn 0.2209805 0.9752783 0
vn 0.1234503 0.8877968 0.44337
vn -0.8312522 0.5558954 3.004844E-07
vn -0.8708869 0.4914834 3.461102E-07
vn 0.06688461 0.9138614 0.4004795
vn -0.28842 0.7236373 0.6270271
vn -0.6771532 0.6173134 0.4004843
vn -0.700278 0.5594822 0.4433853
vn -0.3051293 0.7655895 0.5663647
vn 0.1234552 0.887796 -0.4433702
vn 0.06688853 0.9138616 -0.4004782
vn -0.3051282 0.7655882 -0.5663668
vn -0.3702362 0.9289377 -1.642138E-07
vn -0.2884185 0.7236354 -0.62703
vn 0.2940498 0.95579 -1.236068E-07
vn -0.6771545 0.6173124 -0.4004838
vn -0.7002796 0.5594794 -0.4433862
vn 0.2209801 0.9752783 -1.068781E-07
vn 0.1234559 0.8877959 0.4433701
vn -0.8312515 0.5558965 0
vn -0.8708864 0.4914843 0
vn 0.06688928 0.9138616 0.4004782
vn -0.2884192 0.7236354 0.6270296
vn -0.6771551 0.617312 0.4004833
vn -0.7002802 0.5594789 0.4433856
vn -0.3051287 0.7655882 0.5663666
g floor_trim_0
f 3/3/3 2/2/2 1/1/1
f 4/4/4 3/3/3 1/1/1
f 7/7/7 6/6/6 5/5/5
f 6/6/6 8/8/8 5/5/5
f 5/5/5 8/8/8 9/9/9
f 8/8/8 10/10/10 9/9/9
f 13/13/13 12/12/12 11/11/11
f 14/14/14 13/13/13 11/11/11
f 17/17/17 16/16/16 15/15/15
f 16/16/16 18/18/18 15/15/15
f 15/15/15 18/18/18 19/19/19
f 18/18/18 20/20/20 19/19/19
f 23/23/23 22/22/22 21/21/21
f 24/24/24 23/23/23 21/21/21
f 27/27/27 26/26/26 25/25/25
f 26/26/26 28/28/28 25/25/25
f 25/25/25 28/28/28 29/29/29
f 28/28/28 30/30/30 29/29/29
f 33/33/33 32/32/32 31/31/31
f 34/34/34 33/33/33 31/31/31
f 37/37/37 36/36/36 35/35/35
f 38/38/38 37/37/37 35/35/35
f 39/39/39 37/37/37 38/38/38
f 38/38/38 35/35/35 40/40/40
f 37/37/37 41/41/41 36/36/36
f 39/39/39 41/41/41 37/37/37
f 41/41/41 42/42/42 36/36/36
f 43/43/43 38/38/38 40/40/40
f 39/39/39 38/38/38 43/43/43
f 43/43/43 40/40/40 44/44/44
f 41/41/41 45/45/45 42/42/42
f 39/39/39 45/45/45 41/41/41
f 45/45/45 46/46/46 42/42/42
f 47/47/47 43/43/43 44/44/44
f 39/39/39 43/43/43 47/47/47
f 47/47/47 44/44/44 48/48/48
f 45/45/45 49/49/49 46/46/46
f 39/39/39 49/49/49 45/45/45
f 49/49/49 50/50/50 46/46/46
f 51/51/51 48/48/48 50/50/50
f 51/51/51 47/47/47 48/48/48
f 39/39/39 47/47/47 51/51/51
f 49/49/49 51/51/51 50/50/50
f 39/39/39 51/51/51 49/49/49
f 54/54/54 53/53/53 52/52/52
f 55/55/55 54/54/54 52/52/52
f 56/56/56 54/54/54 55/55/55
f 55/55/55 52/52/52 57/57/57
f 54/54/54 58/58/58 53/53/53
f 56/56/56 58/58/58 54/54/54
f 58/58/58 59/59/59 53/53/53
f 60/60/60 55/55/55 57/57/57
f 56/56/56 55/55/55 60/60/60
f 60/60/60 57/57/57 61/61/61
f 58/58/58 62/62/62 59/59/59
f 56/56/56 62/62/62 58/58/58
f 62/62/62 63/63/63 59/59/59
f 64/64/64 60/60/60 61/61/61
f 56/56/56 60/60/60 64/64/64
f 64/64/64 61/61/61 65/65/65
f 62/62/62 66/66/66 63/63/63
f 56/56/56 66/66/66 62/62/62
f 66/66/66 67/67/67 63/63/63
f 68/68/68 65/65/65 67/67/67
f 68/68/68 64/64/64 65/65/65
f 56/56/56 64/64/64 68/68/68
f 66/66/66 68/68/68 67/67/67
f 56/56/56 68/68/68 66/66/66
f 71/71/71 70/70/70 69/69/69
f 72/72/72 71/71/71 69/69/69
f 73/73/73 71/71/71 72/72/72
f 72/72/72 69/69/69 74/74/74
f 71/71/71 75/75/75 70/70/70
f 73/73/73 75/75/75 71/71/71
f 75/75/75 76/76/76 70/70/70
f 77/77/77 72/72/72 74/74/74
f 73/73/73 72/72/72 77/77/77
f 77/77/77 74/74/74 78/78/78
f 75/75/75 79/79/79 76/76/76
f 73/73/73 79/79/79 75/75/75
f 79/79/79 80/80/80 76/76/76
f 81/81/81 77/77/77 78/78/78
f 73/73/73 77/77/77 81/81/81
f 81/81/81 78/78/78 82/82/82
f 79/79/79 83/83/83 80/80/80
f 73/73/73 83/83/83 79/79/79
f 83/83/83 84/84/84 80/80/80
f 85/85/85 82/82/82 84/84/84
f 85/85/85 81/81/81 82/82/82
f 73/73/73 81/81/81 85/85/85
f 83/83/83 85/85/85 84/84/84
f 73/73/73 85/85/85 83/83/83
f 88/88/88 87/87/87 86/86/86
f 88/88/88 89/89/89 87/87/87
f 90/90/90 88/88/88 86/86/86
f 86/86/86 87/87/87 91/91/91
f 92/92/92 88/88/88 90/90/90
f 92/92/92 89/89/89 88/88/88
f 93/93/93 92/92/92 90/90/90
f 87/87/87 94/94/94 91/91/91
f 87/87/87 89/89/89 94/94/94
f 91/91/91 94/94/94 95/95/95
f 96/96/96 92/92/92 93/93/93
f 96/96/96 89/89/89 92/92/92
f 97/97/97 96/96/96 93/93/93
f 94/94/94 98/98/98 95/95/95
f 94/94/94 89/89/89 98/98/98
f 95/95/95 98/98/98 99/99/99
f 100/100/100 96/96/96 97/97/97
f 100/100/100 89/89/89 96/96/96
f 101/101/101 100/100/100 97/97/97
f 99/99/99 102/102/102 101/101/101
f 98/98/98 102/102/102 99/99/99
f 98/98/98 89/89/89 102/102/102
f 102/102/102 100/100/100 101/101/101
f 102/102/102 89/89/89 100/100/100
f 105/105/105 104/104/104 103/103/103
f 105/105/105 106/106/106 104/104/104
f 107/107/107 105/105/105 103/103/103
f 103/103/103 104/104/104 108/108/108
f 109/109/109 105/105/105 107/107/107
f 109/109/109 106/106/106 105/105/105
f 110/110/110 109/109/109 107/107/107
f 104/104/104 111/111/111 108/108/108
f 104/104/104 106/106/106 111/111/111
f 108/108/108 111/111/111 112/112/112
f 113/113/113 109/109/109 110/110/110
f 113/113/113 106/106/106 109/109/109
f 114/114/114 113/113/113 110/110/110
f 111/111/111 115/115/115 112/112/112
f 111/111/111 106/106/106 115/115/115
f 112/112/112 115/115/115 116/116/116
f 117/117/117 113/113/113 114/114/114
f 117/117/117 106/106/106 113/113/113
f 118/118/118 117/117/117 114/114/114
f 116/116/116 119/119/119 118/118/118
f 115/115/115 119/119/119 116/116/116
f 115/115/115 106/106/106 119/119/119
f 119/119/119 117/117/117 118/118/118
f 119/119/119 106/106/106 117/117/117
f 122/122/122 121/121/121 120/120/120
f 122/122/122 123/123/123 121/121/121
f 124/124/124 122/122/122 120/120/120
f 120/120/120 121/121/121 125/125/125
f 126/126/126 122/122/122 124/124/124
f 126/126/126 123/123/123 122/122/122
f 127/127/127 126/126/126 124/124/124
f 121/121/121 128/128/128 125/125/125
f 121/121/121 123/123/123 128/128/128
f 125/125/125 128/128/128 129/129/129
f 130/130/130 126/126/126 127/127/127
f 130/130/130 123/123/123 126/126/126
f 131/131/131 130/130/130 127/127/127
f 128/128/128 132/132/132 129/129/129
f 128/128/128 123/123/123 132/132/132
f 129/129/129 132/132/132 133/133/133
f 134/134/134 130/130/130 131/131/131
f 134/134/134 123/123/123 130/130/130
f 135/135/135 134/134/134 131/131/131
f 133/133/133 136/136/136 135/135/135
f 132/132/132 136/136/136 133/133/133
f 132/132/132 123/123/123 136/136/136
f 136/136/136 134/134/134 135/135/135
f 136/136/136 123/123/123 134/134/134
