g floor_grate
v -1.119042 -0.01585767 -3.431142
v -1.075159 -0.03701875 -3.52397
v -0.6325125 -0.03701875 -3.52397
v -0.6325125 -0.01585767 -3.431142
v -1.075159 -0.03701875 -3.34779
v -0.6325125 -0.03701875 -3.34779
v -1.119042 -0.01585767 -3.80969
v -1.075159 -0.03701875 -3.902518
v -0.6325125 -0.03701875 -3.902518
v -0.6325125 -0.01585767 -3.80969
v -1.075159 -0.03701875 -3.726338
v -0.6325125 -0.03701875 -3.726338
v -1.119042 -0.01585767 -4.209783
v -1.075159 -0.03701875 -4.302611
v -0.6325123 -0.03701875 -4.302611
v -0.6325123 -0.01585767 -4.209783
v -1.075159 -0.03701875 -4.12643
v -0.6325123 -0.03701875 -4.12643
v -1.119042 -0.01585767 -4.588331
v -1.075159 -0.03701875 -4.681159
v -0.6325123 -0.03701875 -4.681159
v -0.6325123 -0.01585767 -4.588331
v -1.075159 -0.03701875 -4.504979
v -0.6325123 -0.03701875 -4.504979
v -1.119042 -0.01585767 -1.895094
v -1.075159 -0.03701875 -1.987922
v -0.6325126 -0.03701875 -1.987922
v -0.6325126 -0.01585767 -1.895094
v -1.075159 -0.03701875 -1.811743
v -0.6325126 -0.03701875 -1.811743
v -1.119042 -0.01585767 -2.273643
v -1.075159 -0.03701875 -2.36647
v -0.6325126 -0.03701875 -2.36647
v -0.6325125 -0.01585767 -2.273642
v -1.075159 -0.03701875 -2.190291
v -0.6325126 -0.03701875 -2.190291
v -1.119042 -0.01585767 -2.673735
v -1.075159 -0.03701875 -2.766562
v -0.6325125 -0.03701875 -2.766562
v -0.6325125 -0.01585767 -2.673735
v -1.075159 -0.03701875 -2.590384
v -0.6325125 -0.03701875 -2.590384
v -1.119042 -0.01585767 -3.052283
v -1.075159 -0.03701875 -3.145111
v -0.6325125 -0.03701875 -3.14511
v -0.6325125 -0.01585767 -3.052283
v -1.075159 -0.03701875 -2.968932
v -0.6325125 -0.03701875 -2.968932
v -1.119042 -0.01585767 -1.159589
v -1.075159 -0.03701875 -1.252417
v -0.6325126 -0.03701875 -1.252417
v -0.6325126 -0.01585767 -1.159589
v -1.075159 -0.03701875 -1.076238
v -0.6325126 -0.03701875 -1.076238
v -1.119042 -0.01585767 -1.538136
v -1.075159 -0.03701875 -1.630965
v -0.6325126 -0.03701875 -1.630965
v -0.6325126 -0.01585767 -1.538136
v -1.075159 -0.03701875 -1.454785
v -0.6325126 -0.03701875 -1.454785
v -1.119042 -0.01585767 -0.3809485
v -1.075159 -0.03701875 -0.4737759
v -0.6325126 -0.03701875 -0.4737759
v -0.6325127 -0.01585767 -0.3809485
v -1.075159 -0.03701875 -0.2975968
v -0.6325127 -0.03701875 -0.2975969
v -1.119042 -0.01585767 -0.7594956
v -1.075159 -0.03701875 -0.8523242
v -0.6325127 -0.03701875 -0.8523241
v -0.6325126 -0.01585767 -0.7594954
v -1.075159 -0.03701875 -0.6761439
v -0.6325126 -0.03701875 -0.6761438
v -1.057178 -0.03826659 -0.1661701
v -0.1874719 -0.03826659 -0.1661701
v -0.1280536 9.536743E-09 -0.1180183
v -1.116596 9.536743E-09 -0.1180183
v -0.1280536 9.536743E-09 -0.1180183
v -0.1874719 -0.03826659 -0.1661701
v -0.1874719 -0.03826659 -4.819517
v -0.1280536 9.536743E-09 -4.867669
v -1.057178 -0.03826659 -4.819517
v -1.116596 9.536743E-09 -4.867669
v -0.1280536 9.536743E-09 -4.867669
v -0.1874719 -0.03826659 -4.819517
v -1.116596 9.536743E-09 -4.867669
v -1.057178 -0.03826659 -4.819517
v -1.057178 -0.03826659 -0.1661701
v -1.116596 9.536743E-09 -0.1180183
v -0.7756552 -0.1998069 -0.1661701
v -0.4729663 -0.1998069 -0.1661701
v -0.1874719 -0.03826659 -0.1661701
v -1.057178 -0.03826659 -0.1661701
v -0.1874719 -0.03826659 -0.1661701
v -0.4729663 -0.1998069 -4.819517
v -0.1874719 -0.03826659 -4.819517
v -0.4729663 -0.1998069 -0.1661701
v -0.7756552 -0.1998069 -4.819517
v -0.7756552 -0.1998069 -0.1661701
v -1.057178 -0.03826659 -4.819517
v -1.057178 -0.03826659 -0.1661701
v -0.7756552 -0.1998069 -4.819517
v -1.057178 -0.03826659 -4.819517
v -0.1874719 -0.03826659 -4.819517
v -0.4729663 -0.1998069 -4.819517
v -0.6325125 -0.03701875 -3.52397
v -0.169491 -0.03701875 -3.52397
v -0.1256079 -0.01585767 -3.431142
v -0.6325125 -0.01585767 -3.431142
v -0.169491 -0.03701875 -3.34779
v -0.6325125 -0.03701875 -3.34779
v -0.6325125 -0.03701875 -3.902518
v -0.169491 -0.03701875 -3.902518
v -0.1256079 -0.01585767 -3.80969
v -0.6325125 -0.01585767 -3.80969
v -0.169491 -0.03701875 -3.726337
v -0.6325125 -0.03701875 -3.726338
v -0.6325123 -0.03701875 -4.302611
v -0.169491 -0.03701875 -4.302611
v -0.1256079 -0.01585767 -4.209783
v -0.6325123 -0.01585767 -4.209783
v -0.169491 -0.03701875 -4.12643
v -0.6325123 -0.03701875 -4.12643
v -0.6325123 -0.03701875 -4.681159
v -0.169491 -0.03701875 -4.681159
v -0.1256079 -0.01585767 -4.588331
v -0.6325123 -0.01585767 -4.588331
v -0.169491 -0.03701875 -4.504978
v -0.6325123 -0.03701875 -4.504979
v -0.6325126 -0.03701875 -1.987922
v -0.169491 -0.03701875 -1.987922
v -0.1256079 -0.01585767 -1.895094
v -0.6325126 -0.01585767 -1.895094
v -0.169491 -0.03701875 -1.811743
v -0.6325126 -0.03701875 -1.811743
v -0.6325126 -0.03701875 -2.36647
v -0.169491 -0.03701875 -2.36647
v -0.1256079 -0.01585767 -2.273642
v -0.6325125 -0.01585767 -2.273642
v -0.169491 -0.03701875 -2.19029
v -0.6325126 -0.03701875 -2.190291
v -0.6325125 -0.03701875 -2.766562
v -0.169491 -0.03701875 -2.766562
v -0.1256079 -0.01585767 -2.673735
v -0.6325125 -0.01585767 -2.673735
v -0.169491 -0.03701875 -2.590384
v -0.6325125 -0.03701875 -2.590384
v -0.6325125 -0.03701875 -3.14511
v -0.169491 -0.03701875 -3.14511
v -0.1256079 -0.01585767 -3.052283
v -0.6325125 -0.01585767 -3.052283
v -0.169491 -0.03701875 -2.968931
v -0.6325125 -0.03701875 -2.968932
v -0.6325126 -0.03701875 -1.252417
v -0.169491 -0.03701875 -1.252417
v -0.1256079 -0.01585767 -1.15959
v -0.6325126 -0.01585767 -1.159589
v -0.169491 -0.03701875 -1.076238
v -0.6325126 -0.03701875 -1.076238
v -0.6325126 -0.03701875 -1.630965
v -0.169491 -0.03701875 -1.630965
v -0.1256079 -0.01585767 -1.538136
v -0.6325126 -0.01585767 -1.538136
v -0.169491 -0.03701875 -1.454785
v -0.6325126 -0.03701875 -1.454785
v -0.6325126 -0.03701875 -0.4737759
v -0.169491 -0.03701875 -0.473776
v -0.1256079 -0.01585767 -0.3809486
v -0.6325127 -0.01585767 -0.3809485
v -0.169491 -0.03701875 -0.297597
v -0.6325127 -0.03701875 -0.2975969
v -0.6325127 -0.03701875 -0.8523241
v -0.169491 -0.03701875 -0.8523241
v -0.1256079 -0.01585767 -0.7594953
v -0.6325126 -0.01585767 -0.7594954
v -0.169491 -0.03701875 -0.6761437
v -0.6325126 -0.03701875 -0.6761438
v -1.116596 9.536743E-09 -0.1180183
v 0 -1.110223E-16 0
v -1.245008 -1.110223E-16 0
v -1.245008 1.110223E-16 -5
v -0.1280536 9.536743E-09 -0.1180183
v -1.116596 9.536743E-09 -4.867669
v -0.1280536 9.536743E-09 -4.867669
v 0 1.110223E-16 -5
vt 0.7809615 0.4063509
vt 0.7754389 0.4064022
vt 0.7754389 0.434124
vt 0.7809615 0.434124
vt 0.7859202 0.4064022
vt 0.7859202 0.434124
vt 0.7584407 0.4063509
vt 0.7529182 0.4064022
vt 0.7529182 0.434124
vt 0.7584407 0.434124
vt 0.7633996 0.4064022
vt 0.7633996 0.434124
vt 0.7346383 0.4063509
vt 0.7291158 0.4064022
vt 0.7291158 0.434124
vt 0.7346383 0.434124
vt 0.7395972 0.4064022
vt 0.7395972 0.434124
vt 0.7121177 0.4063509
vt 0.7065951 0.4064022
vt 0.7065951 0.434124
vt 0.7121177 0.434124
vt 0.7170765 0.4064022
vt 0.7170765 0.434124
vt 0.8723443 0.4063509
vt 0.8668218 0.4064022
vt 0.8668218 0.434124
vt 0.8723443 0.434124
vt 0.8773031 0.4064022
vt 0.8773031 0.434124
vt 0.8498237 0.4063509
vt 0.8443012 0.4064022
vt 0.8443012 0.434124
vt 0.8498237 0.434124
vt 0.8547824 0.4064022
vt 0.8547825 0.434124
vt 0.8260213 0.4063509
vt 0.8204988 0.4064022
vt 0.8204988 0.434124
vt 0.8260213 0.434124
vt 0.8309801 0.4064022
vt 0.8309801 0.434124
vt 0.8035006 0.4063509
vt 0.797978 0.4064022
vt 0.797978 0.434124
vt 0.8035006 0.434124
vt 0.8084593 0.4064022
vt 0.8084593 0.434124
vt 0.9161012 0.4063509
vt 0.9105787 0.4064022
vt 0.9105787 0.434124
vt 0.9161012 0.434124
vt 0.92106 0.4064022
vt 0.92106 0.434124
vt 0.8935806 0.4063509
vt 0.888058 0.4064022
vt 0.888058 0.434124
vt 0.8935806 0.434124
vt 0.8985394 0.4064022
vt 0.8985394 0.434124
vt 0.9624243 0.4063509
vt 0.9569018 0.4064022
vt 0.9569018 0.434124
vt 0.9624243 0.434124
vt 0.9673831 0.4064022
vt 0.9673831 0.434124
vt 0.9399037 0.4063509
vt 0.9343811 0.4064022
vt 0.9343811 0.434124
vt 0.9399037 0.434124
vt 0.9448624 0.4064022
vt 0.9448624 0.434124
vt 0.670889 0.4459369
vt 0.6708889 0.3941961
vt 0.6737536 0.3906611
vt 0.6737536 0.4494718
vt 0.6737536 0.3906611
vt 0.6708889 0.3941961
vt 0.3940509 0.3941961
vt 0.3911862 0.3906611
vt 0.3940509 0.4459367
vt 0.3911862 0.4494717
vt 0.3911862 0.3906611
vt 0.3940509 0.3941961
vt 0.3911862 0.4494717
vt 0.3940509 0.4459367
vt 0.670889 0.4459369
vt 0.6737536 0.4494718
vt 0.6708889 0.4291884
vt 0.6708889 0.4111808
vt 0.6708889 0.3941961
vt 0.670889 0.4459369
vt 0.6708889 0.3941961
vt 0.3940509 0.4111808
vt 0.3940509 0.3941961
vt 0.6708889 0.4111808
vt 0.3940509 0.4291884
vt 0.6708889 0.4291884
vt 0.3940509 0.4459367
vt 0.670889 0.4459369
vt 0.3940509 0.4291884
vt 0.3940509 0.4459367
vt 0.3940509 0.3941961
vt 0.3940509 0.4111808
vt 0.7754389 0.434124
vt 0.7754389 0.4064068
vt 0.7809615 0.4063555
vt 0.7809615 0.434124
vt 0.7859202 0.4064068
vt 0.7859202 0.434124
vt 0.7529182 0.434124
vt 0.7529182 0.4064068
vt 0.7584407 0.4063555
vt 0.7584407 0.434124
vt 0.7633996 0.4064068
vt 0.7633996 0.434124
vt 0.7291158 0.434124
vt 0.7291158 0.4064068
vt 0.7346383 0.4063555
vt 0.7346383 0.434124
vt 0.7395972 0.4064068
vt 0.7395972 0.434124
vt 0.7065951 0.434124
vt 0.7065951 0.4064068
vt 0.7121177 0.4063555
vt 0.7121177 0.434124
vt 0.7170765 0.4064068
vt 0.7170765 0.434124
vt 0.8668218 0.434124
vt 0.8668218 0.4064068
vt 0.8723443 0.4063555
vt 0.8723443 0.434124
vt 0.8773031 0.4064068
vt 0.8773031 0.434124
vt 0.8443012 0.434124
vt 0.8443012 0.4064068
vt 0.8498237 0.4063555
vt 0.8498237 0.434124
vt 0.8547825 0.4064068
vt 0.8547825 0.434124
vt 0.8204988 0.434124
vt 0.8204988 0.4064068
vt 0.8260213 0.4063555
vt 0.8260213 0.434124
vt 0.8309801 0.4064068
vt 0.8309801 0.434124
vt 0.797978 0.434124
vt 0.797978 0.4064068
vt 0.8035006 0.4063555
vt 0.8035006 0.434124
vt 0.8084593 0.4064068
vt 0.8084593 0.434124
vt 0.9105787 0.434124
vt 0.9105787 0.4064068
vt 0.9161012 0.4063555
vt 0.9161012 0.434124
vt 0.92106 0.4064068
vt 0.92106 0.434124
vt 0.888058 0.434124
vt 0.888058 0.4064068
vt 0.8935806 0.4063555
vt 0.8935806 0.434124
vt 0.8985394 0.4064068
vt 0.8985394 0.434124
vt 0.9569018 0.434124
vt 0.9569018 0.4064068
vt 0.9624243 0.4063555
vt 0.9624243 0.434124
vt 0.9673831 0.4064068
vt 0.9673831 0.434124
vt 0.9343811 0.434124
vt 0.9343811 0.4064068
vt 0.9399037 0.4063555
vt 0.9399037 0.434124
vt 0.9448625 0.4064068
vt 0.9448624 0.434124
vt 0.6737536 0.4494718
vt 0.6807748 0.3830429
vt 0.6807748 0.4571112
vt 0.3833135 0.4571112
vt 0.6737536 0.3906611
vt 0.3911862 0.4494717
vt 0.3911862 0.3906611
vt 0.3833135 0.3830429
vn 0 0.9999908 -0.004285526
vn 0 0.9749882 -0.2222567
vn 0 0.9749882 -0.2222568
vn 0 1 0
vn 0 0.9692517 0.2460715
vn 0 0.9692517 0.2460714
vn 0 0.9999908 -0.004285053
vn 0 0.9749879 -0.2222578
vn 1.350241E-07 0.9749879 -0.2222579
vn 0 1 0
vn 0 0.9692522 0.2460698
vn 0 0.9692522 0.2460697
vn 0 0.9999908 -0.004284783
vn 0 0.9749878 -0.2222581
vn 0 0.9749878 -0.2222581
vn 0 1 0
vn 0 0.9692524 0.2460689
vn 0 0.9692523 0.2460689
vn 0 0.9999908 -0.004284932
vn 0 0.9749879 -0.2222577
vn 0 0.9749879 -0.2222578
vn 0 1 0
vn 0 0.9692522 0.2460693
vn 0 0.9692522 0.2460693
vn 0 0.9999908 -0.004284971
vn 0 0.9749875 -0.2222595
vn 0 0.9749875 -0.2222595
vn 0 1 0
vn 0 0.9692518 0.246071
vn 0 0.9692518 0.246071
vn 0 0.9999908 -0.004285098
vn 1.379859E-07 0.9749875 -0.2222595
vn 1.012688E-07 0.9749875 -0.2222595
vn 0 1 0
vn -1.52769E-07 0.9692517 0.2460712
vn -1.494909E-07 0.9692517 0.2460712
vn 0 0.9999908 -0.004285026
vn 0 0.9749875 -0.2222595
vn 0 0.9749875 -0.2222595
vn 0 1 0
vn 0 0.9692517 0.2460714
vn 0 0.9692517 0.2460714
vn 0 0.9999908 -0.004285053
vn 0 0.9749875 -0.2222599
vn 0 0.9749875 -0.2222599
vn 0 1 0
vn 0 0.9692517 0.2460715
vn 0 0.9692517 0.2460714
vn 0 0.9999908 -0.004284905
vn 0 0.9749875 -0.2222594
vn 0 0.9749875 -0.2222595
vn 0 1 0
vn 0 0.9692518 0.246071
vn 0 0.9692518 0.246071
vn 0 0.9999908 -0.004285528
vn 0 0.9749882 -0.2222566
vn 0 0.9749882 -0.2222566
vn 0 1 0
vn 0 0.9692518 0.2460711
vn 0 0.9692518 0.246071
vn 0 0.9999908 -0.004284873
vn 0 0.9749875 -0.2222596
vn 0 0.9749875 -0.2222596
vn 0 1 0
vn 0 0.9692518 0.2460709
vn 0 0.9692518 0.2460709
vn 0 0.9999908 -0.004285396
vn 0 0.9749882 -0.2222567
vn 0 0.9749882 -0.2222567
vn 0 1 0
vn 0 0.9692518 0.2460708
vn 0 0.9692518 0.2460709
vn 0 0.7828862 -0.6221649
vn 0 0.7828862 -0.6221649
vn 0 0.7828861 -0.6221649
vn 0 0.7828861 -0.6221649
vn -0.5414493 0.8407335 0
vn -0.5414492 0.8407335 0
vn -0.5414492 0.8407335 0
vn -0.5414493 0.8407335 0
vn 0 0.7828862 0.6221649
vn 0 0.7828861 0.6221649
vn 0 0.7828861 0.6221649
vn 0 0.7828862 0.6221649
vn 0.541449 0.8407335 0
vn 0.541449 0.8407335 0
vn 0.541449 0.8407335 0
vn 0.541449 0.8407335 0
vn 0 0 -1
vn 0 0 -1
vn 0 0 -1
vn 0 0 -1
vn -0.4924591 0.8703356 0
vn -0.2648363 0.9642934 0
vn -0.4924591 0.8703356 0
vn -0.2648363 0.9642934 0
vn 0.2665094 0.9638324 0
vn 0.2665094 0.9638324 0
vn 0.4976951 0.8673521 0
vn 0.4976951 0.8673521 0
vn 0 0 1
vn 0 0 1
vn 0 0 1
vn 0 0 1
vn 0 0.9749882 -0.2222568
vn 0 0.9749882 -0.2222567
vn 0 0.9999908 -0.004285431
vn 0 1 0
vn 0 0.9692517 0.2460714
vn 0 0.9692517 0.2460714
vn 1.350241E-07 0.9749879 -0.2222579
vn 2.643756E-07 0.9749878 -0.2222581
vn 0 0.9999908 -0.004284753
vn 0 1 0
vn -1.463497E-07 0.9692522 0.2460697
vn 0 0.9692522 0.2460697
vn 0 0.9749878 -0.2222581
vn 0 0.9749878 -0.2222581
vn 0 0.9999908 -0.00428472
vn 0 1 0
vn 0 0.9692523 0.2460689
vn 0 0.9692523 0.2460689
vn 0 0.9749879 -0.2222578
vn 0 0.9749879 -0.2222578
vn 0 0.9999908 -0.004284697
vn 0 1 0
vn 0 0.9692522 0.2460693
vn 0 0.9692522 0.2460693
vn 0 0.9749875 -0.2222595
vn 0 0.9749875 -0.2222595
vn 0 0.9999908 -0.004284875
vn 0 1 0
vn 0 0.9692518 0.246071
vn 0 0.9692518 0.246071
vn 1.012688E-07 0.9749875 -0.2222595
vn 0 0.9749875 -0.2222595
vn 0 0.9999908 -0.004284804
vn 0 1 0
vn -1.463506E-07 0.9692518 0.2460712
vn -1.494909E-07 0.9692517 0.2460712
vn 0 0.9749875 -0.2222595
vn 0 0.9749875 -0.2222595
vn 0 0.9999908 -0.004284967
vn 0 1 0
vn 0 0.9692517 0.2460714
vn 0 0.9692517 0.2460714
vn 0 0.9749875 -0.2222599
vn 0 0.9749875 -0.2222599
vn 0 0.9999908 -0.004284828
vn 0 1 0
vn -1.463507E-07 0.9692517 0.2460714
vn 0 0.9692517 0.2460714
vn 0 0.9749875 -0.2222595
vn 0 0.9749875 -0.2222595
vn 0 0.9999908 -0.004284864
vn 0 1 0
vn 0 0.9692518 0.2460709
vn 0 0.9692518 0.246071
vn 0 0.9749882 -0.2222566
vn 0 0.9749882 -0.2222568
vn 0 0.9999908 -0.004285304
vn 0 1 0
vn -1.463504E-07 0.9692518 0.246071
vn 0 0.9692518 0.246071
vn 0 0.9749875 -0.2222596
vn 0 0.9749875 -0.2222596
vn 0 0.9999908 -0.004284873
vn 0 1 0
vn 0 0.9692518 0.2460709
vn 0 0.9692518 0.2460709
vn 0 0.9749882 -0.2222567
vn 0 0.9749882 -0.2222567
vn 0 0.9999908 -0.004285309
vn 0 1 0
vn 0 0.9692518 0.2460709
vn 0 0.9692518 0.2460709
vn 0 1 0
vn 0 1 0
vn 0 1 0
vn 0 1 0
vn 0 1 0
vn 0 1 0
vn 0 1 0
vn 0 1 0
g floor_grate_0
f 3/3/3 2/2/2 1/1/1
f 4/4/4 3/3/3 1/1/1
f 4/4/4 1/1/1 5/5/5
f 6/6/6 4/4/4 5/5/5
f 9/9/9 8/8/8 7/7/7
f 10/10/10 9/9/9 7/7/7
f 10/10/10 7/7/7 11/11/11
f 12/12/12 10/10/10 11/11/11
f 15/15/15 14/14/14 13/13/13
f 16/16/16 15/15/15 13/13/13
f 16/16/16 13/13/13 17/17/17
f 18/18/18 16/16/16 17/17/17
f 21/21/21 20/20/20 19/19/19
f 22/22/22 21/21/21 19/19/19
f 22/22/22 19/19/19 23/23/23
f 24/24/24 22/22/22 23/23/23
f 27/27/27 26/26/26 25/25/25
f 28/28/28 27/27/27 25/25/25
f 28/28/28 25/25/25 29/29/29
f 30/30/30 28/28/28 29/29/29
f 33/33/33 32/32/32 31/31/31
f 34/34/34 33/33/33 31/31/31
f 34/34/34 31/31/31 35/35/35
f 36/36/36 34/34/34 35/35/35
f 39/39/39 38/38/38 37/37/37
f 40/40/40 39/39/39 37/37/37
f 40/40/40 37/37/37 41/41/41
f 42/42/42 40/40/40 41/41/41
f 45/45/45 44/44/44 43/43/43
f 46/46/46 45/45/45 43/43/43
f 46/46/46 43/43/43 47/47/47
f 48/48/48 46/46/46 47/47/47
f 51/51/51 50/50/50 49/49/49
f 52/52/52 51/51/51 49/49/49
f 52/52/52 49/49/49 53/53/53
f 54/54/54 52/52/52 53/53/53
f 57/57/57 56/56/56 55/55/55
f 58/58/58 57/57/57 55/55/55
f 58/58/58 55/55/55 59/59/59
f 60/60/60 58/58/58 59/59/59
f 63/63/63 62/62/62 61/61/61
f 64/64/64 63/63/63 61/61/61
f 64/64/64 61/61/61 65/65/65
f 66/66/66 64/64/64 65/65/65
f 69/69/69 68/68/68 67/67/67
f 70/70/70 69/69/69 67/67/67
f 70/70/70 67/67/67 71/71/71
f 72/72/72 70/70/70 71/71/71
f 75/75/75 74/74/74 73/73/73
f 76/76/76 75/75/75 73/73/73
f 79/79/79 78/78/78 77/77/77
f 80/80/80 79/79/79 77/77/77
f 83/83/83 82/82/82 81/81/81
f 84/84/84 83/83/83 81/81/81
f 87/87/87 86/86/86 85/85/85
f 88/88/88 87/87/87 85/85/85
f 91/91/91 90/90/90 89/89/89
f 92/92/92 91/91/91 89/89/89
f 95/95/95 94/94/94 93/93/93
f 94/94/94 96/96/96 93/93/93
f 96/96/96 94/94/94 97/97/97
f 98/98/98 96/96/96 97/97/97
f 98/98/98 97/97/97 99/99/99
f 100/100/100 98/98/98 99/99/99
f 103/103/103 102/102/102 101/101/101
f 104/104/104 103/103/103 101/101/101
f 107/107/107 106/106/106 105/105/105
f 108/108/108 107/107/107 105/105/105
f 109/109/109 107/107/107 108/108/108
f 110/110/110 109/109/109 108/108/108
f 113/113/113 112/112/112 111/111/111
f 114/114/114 113/113/113 111/111/111
f 115/115/115 113/113/113 114/114/114
f 116/116/116 115/115/115 114/114/114
f 119/119/119 118/118/118 117/117/117
f 120/120/120 119/119/119 117/117/117
f 121/121/121 119/119/119 120/120/120
f 122/122/122 121/121/121 120/120/120
f 125/125/125 124/124/124 123/123/123
f 126/126/126 125/125/125 123/123/123
f 127/127/127 125/125/125 126/126/126
f 128/128/128 127/127/127 126/126/126
f 131/131/131 130/130/130 129/129/129
f 132/132/132 131/131/131 129/129/129
f 133/133/133 131/131/131 132/132/132
f 134/134/134 133/133/133 132/132/132
f 137/137/137 136/136/136 135/135/135
f 138/138/138 137/137/137 135/135/135
f 139/139/139 137/137/137 138/138/138
f 140/140/140 139/139/139 138/138/138
f 143/143/143 142/142/142 141/141/141
f 144/144/144 143/143/143 141/141/141
f 145/145/145 143/143/143 144/144/144
f 146/146/146 145/145/145 144/144/144
f 149/149/149 148/148/148 147/147/147
f 150/150/150 149/149/149 147/147/147
f 151/151/151 149/149/149 150/150/150
f 152/152/152 151/151/151 150/150/150
f 155/155/155 154/154/154 153/153/153
f 156/156/156 155/155/155 153/153/153
f 157/157/157 155/155/155 156/156/156
f 158/158/158 157/157/157 156/156/156
f 161/161/161 160/160/160 159/159/159
f 162/162/162 161/161/161 159/159/159
f 163/163/163 161/161/161 162/162/162
f 164/164/164 163/163/163 162/162/162
f 167/167/167 166/166/166 165/165/165
f 168/168/168 167/167/167 165/165/165
f 169/169/169 167/167/167 168/168/168
f 170/170/170 169/169/169 168/168/168
f 173/173/173 172/172/172 171/171/171
f 174/174/174 173/173/173 171/171/171
f 175/175/175 173/173/173 174/174/174
f 176/176/176 175/175/175 174/174/174
f 179/179/179 178/178/178 177/177/177
f 179/179/179 177/177/177 180/180/180
f 178/178/178 181/181/181 177/177/177
f 177/177/177 182/182/182 180/180/180
f 183/183/183 181/181/181 178/178/178
f 184/184/184 180/180/180 182/182/182
f 184/184/184 183/183/183 178/178/178
f 183/183/183 184/184/184 182/182/182
