g flowerBed
v 0.8425328 0.03078676 2.23707
v -0.7823836 0.1220378 1.08062
v 0.3772185 0.09640305 -0.5488955
v 2.002135 0.03056724 0.6075539
v -1.699053 0.06158283 -2.03084
v 0.23994 0.02095571 -1.604951
v -0.1864862 0.09282921 0.3489384
v -2.125479 0.06526458 -0.07695045
v -0.3789213 0.05516297 -0.5297471
v 0.7154347 0.0374807 -2.057263
v 2.232798 0.06694768 -0.9576231
v 1.138442 0.07443132 0.5698924
v 0.2396357 0.08233034 1.237233
v -1.489668 0.0439862 1.980355
v -2.232798 0.04284253 0.2510648
v -0.5034941 0.09758665 -0.4920577
v -1.434858 0.07402518 -0.03309036
v 0.0571348 0.0663782 -1.525083
v 1.549127 0.06532107 -0.03309036
v 0.05713477 0.09285853 1.458902
v -1.340133 0.1070981 1.547179
v -1.316398 0.1367908 -0.03807867
v 0.2686927 0.168686 -0.01244077
v 0.2449586 0.1389933 1.572817
v 0.6934879 0.1378543 -0.202073
v 1.82618 0.102676 0.7041771
v 0.9192712 0.1057329 1.838071
v -0.2134211 0.1409112 0.9318212
v 0.3452531 0.1458064 -0.7463881
v -0.4183373 0.1669488 0.5517648
v -1.715247 0.1102581 -0.2081482
v -0.9516568 0.08911578 -1.506301
v 1.852231 0.09104119 -0.8378823
v 1.224081 0.1541135 0.6774347
v -0.2925219 0.1847429 0.04468407
v 0.3356277 0.1216706 -1.470633
v -0.3291943 0.2591638 1.100431
v -0.5820062 0.2743835 1.242757
v -0.4728171 0.2340679 0.8491438
v -0.7225211 0.1950691 0.9978858
v -0.9769904 0.2392033 1.136791
v -0.8333676 0.2642992 1.388078
v -0.8678012 0.1988876 0.7431777
v -0.6149893 0.1836679 0.6008512
v -1.119163 0.1888033 0.8884983
v -0.7670729 0.2793095 0.7661213
v -0.6842607 0.2624426 0.5243891
v -0.525812 0.2594275 0.849636
v -0.4502333 0.1950041 0.6109868
v -0.3635635 0.2034987 0.3676104
v -0.6048245 0.2233807 0.2840958
v -0.2051147 0.2004837 0.6928573
v -0.2879269 0.2173507 0.9345895
v -0.1256785 0.1614219 0.4525639
v -1.526932 0.222172 0.2393376
v -1.241325 0.2745162 0.2297785
v -1.511967 0.1964051 0.5283263
v -1.219218 0.1950639 0.5111958
v -0.9374205 0.2760383 0.5056744
v -0.9523855 0.3018052 0.2166857
v -1.208062 0.1979272 0.8042222
v -1.493668 0.1455829 0.8137814
v -0.9191223 0.2252161 0.7911295
v 1.2733 0.1911802 0.785632
v 1.004791 0.2472191 0.7897255
v 1.268311 0.1898993 0.5113548
v 0.9915356 0.1950368 0.5181049
v 0.727434 0.2782211 0.5207816
v 0.7324235 0.279502 0.7950587
v 0.9909542 0.2209014 0.2424109
v 1.259464 0.1648625 0.2383174
v 0.718587 0.2531843 0.2477442
v 0.4370779 0.1560331 1.576865
v 0.1793124 0.2023597 1.451114
v 0.5690293 0.2026737 1.322275
v 0.3084677 0.1950663 1.187936
v 0.05219324 0.2701557 1.066766
v -0.07975811 0.223515 1.321356
v 0.4419101 0.2704697 0.9379269
v 0.6996757 0.2241431 1.063677
v 0.1828397 0.291625 0.8081684
v 0.2646596 0.1887315 1.024485
v -0.008712578 0.2384157 0.8521933
v 0.4404982 0.2066253 0.7494469
v 0.1618501 0.1951371 0.5730157
v -0.1087084 0.2774442 0.4029323
v -0.2845471 0.2595504 0.6779699
v 0.3405024 0.2456538 0.3001859
v 0.6138746 0.1959696 0.4724772
v 0.06466795 0.2667885 0.1259626
v -1.166432 0.202329 -0.4805088
v -0.9448469 0.2074571 -0.6087686
v -1.039575 0.2378501 -0.260913
v -0.8166965 0.1950081 -0.3846294
v -0.595801 0.2257185 -0.5153123
v -0.7226583 0.1901973 -0.7349081
v -0.6905288 0.2561115 -0.1674567
v -0.9121138 0.2509834 -0.03919682
v -0.4683401 0.2388517 -0.2935961
v -0.5102316 0.2242369 0.418864
v -0.7589536 0.2369979 0.269275
v -0.3606426 0.2369979 0.170142
v -0.6093646 0.1950737 0.02055301
v -0.8580866 0.2369979 -0.129036
v -1.007676 0.2242369 0.119686
v -0.4597756 0.2369979 -0.228169
v -0.2110536 0.2242369 -0.07858001
v -0.7084976 0.2242369 -0.377758
v -0.1293421 0.2746321 -0.3142244
v -0.3485961 0.2550405 -0.466411
v 0.02333113 0.2644779 -0.5337801
v -0.1934387 0.1950266 -0.6792364
v -0.4140176 0.2020249 -0.8350123
v -0.5666908 0.2121791 -0.6154565
v -0.04209035 0.2114622 -0.9023814
v 0.1771637 0.2310539 -0.7501948
v -0.260185 0.1686008 -1.051427
v 0.9848866 0.2231084 0.4443758
v 0.7253614 0.1862595 0.3958315
v 1.024352 0.2804475 0.1870386
v 0.7752869 0.1950141 0.1315563
v 0.5101834 0.184075 0.08671199
v 0.470718 0.126736 0.3440492
v 0.809174 0.278263 -0.1220809
v 1.068699 0.3151119 -0.07353653
v 0.5545306 0.2187395 -0.1738632
v 0.517764 0.2242369 -0.202436
v 0.2524551 0.2369979 -0.08474716
v 0.4000752 0.2369979 -0.4677449
v 0.1347663 0.1950737 -0.3500561
v -0.1305427 0.2369979 -0.2323673
v -0.01285384 0.2242369 0.03294167
v 0.01707744 0.2369979 -0.615365
v 0.2823864 0.2242369 -0.7330539
v -0.2482315 0.2242369 -0.4976762
v 0.5005215 0.2444289 -0.6164601
v 0.7535006 0.2370687 -0.7591127
v 0.6438514 0.2569865 -0.3640692
v 0.8935173 0.1950724 -0.5048908
v 1.148263 0.2168056 -0.6485198
v 1.004933 0.204248 -0.9009106
v 1.038614 0.2367233 -0.2534763
v 0.785635 0.2440834 -0.1108237
v 1.290047 0.2039025 -0.3952742
v -1.529663 0.1255492 -1.109376
v -1.513036 0.1159278 -1.353329
v -1.286204 0.1448994 -1.09402
v -1.268213 0.08940461 -1.334042
v -1.252314 0.1042472 -1.580092
v -1.495772 0.08489708 -1.595448
v -1.025482 0.1332188 -1.320782
v -1.042109 0.1428402 -1.076829
v -1.008219 0.1021881 -1.562901
v 1.66 0.1674245 -0.4794379
v 1.412652 0.1914797 -0.6061959
v 1.784633 0.1452298 -0.7280366
v 1.532376 0.1172216 -0.8500192
v 1.287646 0.1690419 -0.9793239
v 1.163013 0.1912366 -0.7307252
v 1.659627 0.122792 -1.101165
v 1.906976 0.09873684 -0.9744065
v 1.409988 0.1225489 -1.225694
v -1.87248 0.06200305 -0.4781992
v -1.703678 0.08669742 -0.6175141
v -1.742334 0.1212531 -0.3106767
v -1.56543 0.1056695 -0.4444347
v -1.400949 0.1518439 -0.586713
v -1.531096 0.09259384 -0.7542355
v -1.439605 0.1863995 -0.2798755
v -1.608407 0.1617052 -0.1405607
v -1.267022 0.192296 -0.416597
v -1.616432 0.07995251 1.560642
v -1.590405 0.1085495 1.375179
v -1.432192 0.1119259 1.591054
v -1.401157 0.1053539 1.402471
v -1.377801 0.1527063 1.218673
v -1.56204 0.1207329 1.188261
v -1.219588 0.1560827 1.434547
v -1.245615 0.1274857 1.62001
v -1.191224 0.1682661 1.247629
v 0.04642498 0.113751 -1.586819
v 0.273527 0.09803326 -1.720952
v 0.180742 0.1744068 -1.367517
v 0.4081955 0.1100965 -1.491056
v 0.6351101 0.120293 -1.630838
v 0.5007932 0.05963709 -1.85014
v 0.542325 0.1966666 -1.277403
v 0.315223 0.2123843 -1.14327
v 0.769591 0.1582704 -1.406591
v 0.9749395 0.1512585 1.225356
v 1.058116 0.1800594 0.9970265
v 1.202853 0.106148 1.302185
v 1.277254 0.09022551 1.067186
v 1.36511 0.1428772 0.8424128
v 1.137197 0.1879877 0.7655839
v 1.509848 0.06896579 1.147571
v 1.426671 0.04016486 1.375901
v 1.588928 0.07689407 0.9161288
vt 0.5 0
vt 0.5 0.5
vt 1 0.5
vt 1 0
vt 0.5 0
vt 0.5 0.5
vt 1 0.5
vt 1 0
vt 0.5 0
vt 0.5 0.5
vt 1 0.5
vt 1 0
vt 0.5 0
vt 0.5 0.5
vt 1 0.5
vt 1 0
vt 0.5 0
vt 0.5 0.5
vt 1 0.5
vt 1 0
vt 0 0
vt 0 0.5
vt 0.5 0.5
vt 0.5 0
vt 0.5 0
vt 0.5 0.5
vt 0 0.5
vt 0 0
vt 0.5 0
vt 0.5 0.5
vt 0 0.5
vt 0 0
vt 0 0
vt 0 0.5
vt 0.5 0.5
vt 0.5 0
vt 0 0.5
vt 0 0.75
vt 0.25 0.5
vt 0.25 0.75
vt 0.25 1
vt 0 1
vt 0.5 0.75
vt 0.5 0.5
vt 0.5 1
vt 0.5 0.5
vt 0.5 0.75
vt 0.75 0.5
vt 0.75 0.75
vt 0.75 1
vt 0.5 1
vt 1 0.75
vt 1 0.5
vt 1 1
vt 0.5 0.5
vt 0.5 0.75
vt 0.75 0.5
vt 0.75 0.75
vt 0.75 1
vt 0.5 1
vt 1 0.75
vt 1 0.5
vt 1 1
vt 0 0.5
vt 0 0.75
vt 0.25 0.5
vt 0.25 0.75
vt 0.25 1
vt 0 1
vt 0.5 0.75
vt 0.5 0.5
vt 0.5 1
vt 0.5 0.5
vt 0.5 0.75
vt 0.75 0.5
vt 0.75 0.75
vt 0.75 1
vt 0.5 1
vt 1 0.75
vt 1 0.5
vt 1 1
vt 0 0.5
vt 0 0.75
vt 0.25 0.5
vt 0.25 0.75
vt 0.25 1
vt 0 1
vt 0.5 0.75
vt 0.5 0.5
vt 0.5 1
vt 0.5 0.5
vt 0.5 0.75
vt 0.75 0.5
vt 0.75 0.75
vt 0.75 1
vt 0.5 1
vt 1 0.75
vt 1 0.5
vt 1 1
vt 0 0.5
vt 0 0.75
vt 0.25 0.5
vt 0.25 0.75
vt 0.25 1
vt 0 1
vt 0.5 0.75
vt 0.5 0.5
vt 0.5 1
vt 0 0.5
vt 0 0.75
vt 0.25 0.5
vt 0.25 0.75
vt 0.25 1
vt 0 1
vt 0.5 0.75
vt 0.5 0.5
vt 0.5 1
vt 0.5 0.5
vt 0.5 0.75
vt 0.75 0.5
vt 0.75 0.75
vt 0.75 1
vt 0.5 1
vt 1 0.75
vt 1 0.5
vt 1 1
vt 0 0.5
vt 0 0.75
vt 0.25 0.5
vt 0.25 0.75
vt 0.25 1
vt 0 1
vt 0.5 0.75
vt 0.5 0.5
vt 0.5 1
vt 0.5 0.5
vt 0.5 0.75
vt 0.75 0.5
vt 0.75 0.75
vt 0.75 1
vt 0.5 1
vt 1 0.75
vt 1 0.5
vt 1 1
vt 0 0.5
vt 0 0.75
vt 0.25 0.5
vt 0.25 0.75
vt 0.25 1
vt 0 1
vt 0.5 0.75
vt 0.5 0.5
vt 0.5 1
vt 0 0.5
vt 0 0.75
vt 0.25 0.5
vt 0.25 0.75
vt 0.25 1
vt 0 1
vt 0.5 0.75
vt 0.5 0.5
vt 0.5 1
vt 0.5 0.5
vt 0.5 0.75
vt 0.75 0.5
vt 0.75 0.75
vt 0.75 1
vt 0.5 1
vt 1 0.75
vt 1 0.5
vt 1 1
vt 0.5 0.5
vt 0.5 0.75
vt 0.75 0.5
vt 0.75 0.75
vt 0.75 1
vt 0.5 1
vt 1 0.75
vt 1 0.5
vt 1 1
vt 0.5 0.5
vt 0.5 0.75
vt 0.75 0.5
vt 0.75 0.75
vt 0.75 1
vt 0.5 1
vt 1 0.75
vt 1 0.5
vt 1 1
vt 0 0.5
vt 0 0.75
vt 0.25 0.5
vt 0.25 0.75
vt 0.25 1
vt 0 1
vt 0.5 0.75
vt 0.5 0.5
vt 0.5 1
vn 0 1 0
vn 0 1 0
vn 0 1 0
vn 0 1 0
vn 0 1 0
vn 0 1 0
vn 0 1 0
vn 0 1 0
vn 0 1 0
vn 0 1 0
vn 0 1 0
vn 0 1 0
vn 0 1 0
vn 0 1 0
vn 0 1 0
vn 0 1 0
vn 0 1 0
vn 0 1 0
vn 0 1 0
vn 0 1 0
vn -0.0204123 0.999622 0.01841787
vn -0.0204123 0.999622 0.01841787
vn -0.0204123 0.999622 0.01841787
vn -0.0204123 0.999622 0.01841788
vn 0.02024754 0.9997038 0.01349918
vn 0.02024755 0.9997038 0.01349918
vn 0.02024754 0.9997038 0.01349918
vn 0.02024754 0.9997038 0.01349918
vn -0.02539047 0.9991904 -0.03120832
vn -0.02539047 0.9991904 -0.03120831
vn -0.02539047 0.9991904 -0.03120831
vn -0.02539047 0.9991904 -0.03120832
vn 0.03199421 0.9990867 -0.02832251
vn 0.03199421 0.9990867 -0.0283225
vn 0.03199422 0.9990867 -0.0283225
vn 0.03199421 0.9990867 -0.0283225
vn 0.002994007 0.9948749 -0.1010691
vn -0.08173504 0.9835933 -0.1608214
vn -0.1008181 0.9906393 -0.09202918
vn -0.05683385 0.991467 -0.1173164
vn -0.01270329 0.9897419 -0.1423015
vn -0.07323288 0.9956514 -0.05757925
vn -0.0317864 0.9967879 -0.07350932
vn -0.04021586 0.9834606 -0.1766011
vn -0.1164427 0.984237 -0.1331114
vn 0.09477073 0.9948133 -0.03694711
vn 0.1973763 0.9791919 -0.04717804
vn 0.1659597 0.9797897 -0.1116668
vn 0.1500679 0.9866045 -0.06396198
vn 0.1337896 0.9908791 -0.01609253
vn 0.1226004 0.98522 -0.1196273
vn 0.102373 0.9914768 -0.08058128
vn 0.1769567 0.9841856 -0.008050379
vn 0.2047865 0.9745925 -0.09073026
vn -0.1763056 0.9795965 0.09647278
vn -0.1275346 0.9737623 0.1884727
vn -0.08023431 0.9874139 0.1362951
vn -0.1306095 0.9817188 0.1384528
vn -0.1806484 0.9734962 0.1402541
vn -0.08943898 0.9916363 0.09304802
vn -0.1333481 0.9871477 0.08807654
vn -0.1712766 0.9680169 0.1833239
vn -0.08440983 0.9800568 0.1798992
vn 0.2041735 0.9788997 -0.008285699
vn 0.1585858 0.9820591 -0.1020321
vn 0.1098112 0.9926683 -0.05050883
vn 0.1600724 0.9857636 -0.05144745
vn 0.2099214 0.9763209 -0.05225353
vn 0.1175697 0.9930415 -0.00677601
vn 0.1611468 0.9869303 -0.0007302967
vn 0.201958 0.9746857 -0.09592027
vn 0.1153541 0.9888276 -0.09441087
vn 0.07024961 0.9741136 0.2148664
vn 0.07401006 0.990947 0.1120117
vn 0.005898894 0.9908921 0.1345291
vn 0.05112867 0.9862648 0.1570591
vn 0.09622676 0.9790982 0.1791846
vn -0.007892063 0.9843164 0.1762358
vn 0.02811557 0.9790434 0.2017021
vn 0.109952 0.9844114 0.137277
vn 0.03181071 0.9946139 0.09864592
vn 0.09900442 0.9868846 0.1275023
vn 0.1127422 0.9933265 0.02432092
vn 0.04297711 0.9982639 0.04027801
vn 0.08573497 0.9940442 0.06727246
vn 0.1282721 0.9872652 0.09409378
vn 0.02521695 0.9963993 0.08094712
vn 0.05850702 0.9922025 0.1100509
vn 0.1459225 0.9878571 0.05333855
vn 0.07213498 0.9973718 0.006783509
vn -0.08664753 0.9901357 -0.1101064
vn -0.001581601 0.9987286 -0.05038577
vn 0.01720074 0.9927024 -0.1193574
vn -0.02682876 0.9951863 -0.09425805
vn -0.0707892 0.9951078 -0.06891596
vn -0.01052886 0.9880549 -0.1537425
vn -0.05200692 0.9890815 -0.1378876
vn -0.04302533 0.9984812 -0.0344102
vn 0.03309339 0.9964004 -0.07804616
vn 0.01498811 0.9980725 0.06022132
vn 0.02614379 0.9987127 -0.04346929
vn -0.04346936 0.9987127 -0.02614376
vn 0 1 0
vn 0.04346935 0.9987127 0.02614381
vn -0.06022135 0.9980725 0.01498807
vn -0.0261438 0.9987127 0.04346938
vn 0.06022139 0.9980725 -0.01498801
vn -0.01498811 0.9980725 -0.06022135
vn -0.03848414 0.9966 -0.07285241
vn -0.02017675 0.9843978 -0.1747966
vn -0.09074288 0.9826073 -0.1620146
vn -0.04931705 0.9898061 -0.13361
vn -0.007764283 0.9944565 -0.1048614
vn -0.1102678 0.9863493 -0.1222949
vn -0.07833044 0.9926659 -0.09207945
vn 0.01182363 0.9894472 -0.1444101
vn -0.05995994 0.9791966 -0.1938523
vn -0.1725974 0.9667038 0.1889282
vn -0.2002034 0.9757253 0.08876272
vn -0.25715 0.9577859 0.12853
vn -0.2084533 0.9682101 0.1382623
vn -0.1592199 0.9761413 0.1476385
vn -0.2573151 0.9508249 0.1723979
vn -0.2161665 0.958202 0.1874058
vn -0.158788 0.9818628 0.1035937
vn -0.2435056 0.965984 0.08706327
vn 0.05790616 0.9980725 0.02231891
vn -0.02056858 0.9987127 -0.04636828
vn -0.04636826 0.9987127 0.02056852
vn 0 1 0
vn 0.04636825 0.9987127 -0.02056855
vn -0.02231896 0.9980725 0.05790611
vn 0.02056857 0.9987127 0.04636825
vn 0.02231896 0.9980725 -0.05790626
vn -0.05790615 0.9980725 -0.02231891
vn 0.0007851384 0.998742 -0.05013778
vn 0.08542349 0.9962867 0.01074694
vn 0.104587 0.9928058 -0.05829519
vn 0.06058671 0.9976012 -0.03348145
vn 0.01643043 0.9998282 -0.008581506
vn 0.07704796 0.992667 -0.09314424
vn 0.03559397 0.9963471 -0.07762361
vn 0.04389189 0.9986898 0.02631054
vn 0.1201549 0.9926147 -0.01669615
vn -0.07636319 0.996087 -0.0444898
vn 0.02099785 0.9964218 -0.08187076
vn -0.02606746 0.9904104 -0.1356749
vn -0.02962161 0.99591 -0.08535723
vn -0.03309945 0.9988453 -0.03481982
vn -0.07027984 0.9887902 -0.1317377
vn -0.08016473 0.9928341 -0.088624
vn 0.01115106 0.9991906 -0.03864761
vn 0.01723424 0.9918937 -0.1258957
vn 0.1129867 0.9930806 -0.0320165
vn 0.1158398 0.9839317 -0.1358662
vn 0.04813773 0.9923494 -0.1136907
vn 0.09348484 0.9914588 -0.09094009
vn 0.1385914 0.9880155 -0.06795544
vn 0.03473673 0.9968297 -0.0715812
vn 0.07088928 0.996433 -0.04577997
vn 0.1518727 0.9822657 -0.1099485
vn 0.07362273 0.986015 -0.1495134
vn -0.2554254 0.9566513 -0.1399153
vn -0.1647411 0.9817569 -0.09494151
vn -0.15583 0.9737909 -0.1656754
vn -0.1954305 0.9715156 -0.1340313
vn -0.234528 0.9667389 -0.102042
vn -0.187345 0.9627517 -0.1949639
vn -0.2256169 0.9587729 -0.1727759
vn -0.2027627 0.9765342 -0.0725821
vn -0.1346824 0.9826348 -0.1276305
vn -0.1894479 0.9740791 0.12361
vn -0.09055404 0.9913179 0.09533522
vn -0.1329566 0.990413 0.03747876
vn -0.1404261 0.9862178 0.08749214
vn -0.147534 0.9794835 0.1372804
vn -0.1768367 0.9835343 0.03727269
vn -0.1899365 0.9785785 0.07942401
vn -0.1034741 0.9850996 0.1373746
vn -0.09086292 0.9945548 0.05103735
vn -0.06716444 0.9714469 -0.2275517
vn 0.01876765 0.9852498 -0.17009
vn 0.03659755 0.9705734 -0.2380081
vn -0.007068277 0.9770306 -0.2129816
vn -0.05071602 0.9809723 -0.1874069
vn 0.008369963 0.962451 -0.2713261
vn -0.03288608 0.9662959 -0.255325
vn -0.02247925 0.9878438 -0.1538163
vn 0.05305485 0.9788479 -0.1975907
vn 0.1350539 0.9757465 0.172276
vn 0.2371452 0.9581686 0.1602343
vn 0.2071137 0.9735044 0.09691696
vn 0.1905257 0.9709439 0.1448025
vn 0.1734469 0.9658836 0.1923152
vn 0.1641783 0.9823394 0.08974834
vn 0.1434154 0.9812195 0.1289979
vn 0.2161379 0.9558057 0.1992984
vn 0.245263 0.9623984 0.1167708
g flowerBed_0
f 3/3/3 2/2/2 1/1/1
f 4/4/4 3/3/3 1/1/1
f 7/7/7 6/6/6 5/5/5
f 8/8/8 7/7/7 5/5/5
f 11/11/11 10/10/10 9/9/9
f 12/12/12 11/11/11 9/9/9
f 15/15/15 14/14/14 13/13/13
f 16/16/16 15/15/15 13/13/13
f 19/19/19 18/18/18 17/17/17
f 20/20/20 19/19/19 17/17/17
f 23/23/23 22/22/22 21/21/21
f 24/24/24 23/23/23 21/21/21
f 27/27/27 26/26/26 25/25/25
f 28/28/28 27/27/27 25/25/25
f 31/31/31 30/30/30 29/29/29
f 32/32/32 31/31/31 29/29/29
f 35/35/35 34/34/34 33/33/33
f 36/36/36 35/35/35 33/33/33
f 39/39/39 38/38/38 37/37/37
f 39/39/39 40/40/40 38/38/38
f 40/40/40 41/41/41 38/38/38
f 41/41/41 42/42/42 38/38/38
f 43/43/43 40/40/40 39/39/39
f 43/43/43 41/41/41 40/40/40
f 44/44/44 43/43/43 39/39/39
f 43/43/43 45/45/45 41/41/41
f 48/48/48 47/47/47 46/46/46
f 48/48/48 49/49/49 47/47/47
f 49/49/49 50/50/50 47/47/47
f 50/50/50 51/51/51 47/47/47
f 52/52/52 49/49/49 48/48/48
f 52/52/52 50/50/50 49/49/49
f 53/53/53 52/52/52 48/48/48
f 52/52/52 54/54/54 50/50/50
f 57/57/57 56/56/56 55/55/55
f 57/57/57 58/58/58 56/56/56
f 58/58/58 59/59/59 56/56/56
f 59/59/59 60/60/60 56/56/56
f 61/61/61 58/58/58 57/57/57
f 61/61/61 59/59/59 58/58/58
f 62/62/62 61/61/61 57/57/57
f 61/61/61 63/63/63 59/59/59
f 66/66/66 65/65/65 64/64/64
f 66/66/66 67/67/67 65/65/65
f 67/67/67 68/68/68 65/65/65
f 68/68/68 69/69/69 65/65/65
f 70/70/70 67/67/67 66/66/66
f 70/70/70 68/68/68 67/67/67
f 71/71/71 70/70/70 66/66/66
f 70/70/70 72/72/72 68/68/68
f 75/75/75 74/74/74 73/73/73
f 75/75/75 76/76/76 74/74/74
f 76/76/76 77/77/77 74/74/74
f 77/77/77 78/78/78 74/74/74
f 79/79/79 76/76/76 75/75/75
f 79/79/79 77/77/77 76/76/76
f 80/80/80 79/79/79 75/75/75
f 79/79/79 81/81/81 77/77/77
f 84/84/84 83/83/83 82/82/82
f 84/84/84 85/85/85 83/83/83
f 85/85/85 86/86/86 83/83/83
f 86/86/86 87/87/87 83/83/83
f 88/88/88 85/85/85 84/84/84
f 88/88/88 86/86/86 85/85/85
f 89/89/89 88/88/88 84/84/84
f 88/88/88 90/90/90 86/86/86
f 93/93/93 92/92/92 91/91/91
f 93/93/93 94/94/94 92/92/92
f 94/94/94 95/95/95 92/92/92
f 95/95/95 96/96/96 92/92/92
f 97/97/97 94/94/94 93/93/93
f 97/97/97 95/95/95 94/94/94
f 98/98/98 97/97/97 93/93/93
f 97/97/97 99/99/99 95/95/95
f 102/102/102 101/101/101 100/100/100
f 102/102/102 103/103/103 101/101/101
f 103/103/103 104/104/104 101/101/101
f 104/104/104 105/105/105 101/101/101
f 106/106/106 103/103/103 102/102/102
f 106/106/106 104/104/104 103/103/103
f 107/107/107 106/106/106 102/102/102
f 106/106/106 108/108/108 104/104/104
f 111/111/111 110/110/110 109/109/109
f 111/111/111 112/112/112 110/110/110
f 112/112/112 113/113/113 110/110/110
f 113/113/113 114/114/114 110/110/110
f 115/115/115 112/112/112 111/111/111
f 115/115/115 113/113/113 112/112/112
f 116/116/116 115/115/115 111/111/111
f 115/115/115 117/117/117 113/113/113
f 120/120/120 119/119/119 118/118/118
f 120/120/120 121/121/121 119/119/119
f 121/121/121 122/122/122 119/119/119
f 122/122/122 123/123/123 119/119/119
f 124/124/124 121/121/121 120/120/120
f 124/124/124 122/122/122 121/121/121
f 125/125/125 124/124/124 120/120/120
f 124/124/124 126/126/126 122/122/122
f 129/129/129 128/128/128 127/127/127
f 129/129/129 130/130/130 128/128/128
f 130/130/130 131/131/131 128/128/128
f 131/131/131 132/132/132 128/128/128
f 133/133/133 130/130/130 129/129/129
f 133/133/133 131/131/131 130/130/130
f 134/134/134 133/133/133 129/129/129
f 133/133/133 135/135/135 131/131/131
f 138/138/138 137/137/137 136/136/136
f 138/138/138 139/139/139 137/137/137
f 139/139/139 140/140/140 137/137/137
f 140/140/140 141/141/141 137/137/137
f 142/142/142 139/139/139 138/138/138
f 142/142/142 140/140/140 139/139/139
f 143/143/143 142/142/142 138/138/138
f 142/142/142 144/144/144 140/140/140
f 147/147/147 146/146/146 145/145/145
f 147/147/147 148/148/148 146/146/146
f 148/148/148 149/149/149 146/146/146
f 149/149/149 150/150/150 146/146/146
f 151/151/151 148/148/148 147/147/147
f 151/151/151 149/149/149 148/148/148
f 152/152/152 151/151/151 147/147/147
f 151/151/151 153/153/153 149/149/149
f 156/156/156 155/155/155 154/154/154
f 156/156/156 157/157/157 155/155/155
f 157/157/157 158/158/158 155/155/155
f 158/158/158 159/159/159 155/155/155
f 160/160/160 157/157/157 156/156/156
f 160/160/160 158/158/158 157/157/157
f 161/161/161 160/160/160 156/156/156
f 160/160/160 162/162/162 158/158/158
f 165/165/165 164/164/164 163/163/163
f 165/165/165 166/166/166 164/164/164
f 166/166/166 167/167/167 164/164/164
f 167/167/167 168/168/168 164/164/164
f 169/169/169 166/166/166 165/165/165
f 169/169/169 167/167/167 166/166/166
f 170/170/170 169/169/169 165/165/165
f 169/169/169 171/171/171 167/167/167
f 174/174/174 173/173/173 172/172/172
f 174/174/174 175/175/175 173/173/173
f 175/175/175 176/176/176 173/173/173
f 176/176/176 177/177/177 173/173/173
f 178/178/178 175/175/175 174/174/174
f 178/178/178 176/176/176 175/175/175
f 179/179/179 178/178/178 174/174/174
f 178/178/178 180/180/180 176/176/176
f 183/183/183 182/182/182 181/181/181
f 183/183/183 184/184/184 182/182/182
f 184/184/184 185/185/185 182/182/182
f 185/185/185 186/186/186 182/182/182
f 187/187/187 184/184/184 183/183/183
f 187/187/187 185/185/185 184/184/184
f 188/188/188 187/187/187 183/183/183
f 187/187/187 189/189/189 185/185/185
f 192/192/192 191/191/191 190/190/190
f 192/192/192 193/193/193 191/191/191
f 193/193/193 194/194/194 191/191/191
f 194/194/194 195/195/195 191/191/191
f 196/196/196 193/193/193 192/192/192
f 196/196/196 194/194/194 193/193/193
f 197/197/197 196/196/196 192/192/192
f 196/196/196 198/198/198 194/194/194
