g fp_googly_ld
v 0.2586102 0.1864992 -0.1650212
v 0.1747394 0.08806604 -0.04293862
v 0.2474236 0.03778124 -0.06814292
v 0.3245464 0.02839416 -0.1172427
v 0.1259696 0.1657752 -0.0483827
v 0.3854429 0.06242037 -0.1770815
v 0.1141819 0.2500863 -0.08301684
v 0.4137961 0.1307424 -0.2316252
v 0.1425349 0.3184083 -0.1375607
v 0.4020084 0.2150534 -0.2662595
v 0.2034314 0.3524344 -0.1973995
v 0.3532385 0.2927626 -0.2717036
v 0.2805542 0.3430474 -0.2464992
v -0.2594256 0.186816 -0.1639845
v -0.2067774 0.3376616 -0.1913464
v -0.2770578 0.3307675 -0.2363859
v -0.3439685 0.2862956 -0.2600636
v -0.1519587 0.3051304 -0.1370134
v -0.3895811 0.2161623 -0.2560347
v -0.127291 0.2418913 -0.08794475
v -0.4016734 0.1391594 -0.225379
v -0.1393834 0.1648884 -0.05728909
v -0.3770055 0.07592016 -0.1763107
v -0.1849958 0.09475505 -0.05326036
v -0.322187 0.0433892 -0.1219773
v -0.2519068 0.05028319 -0.07693779
v 0.2474236 0.03778124 -0.06814292
v 0.1747394 0.08806604 -0.04293862
v 0.1919532 0.1018068 -0.02613828
v 0.2622835 0.05315048 -0.05052644
v 0.3245464 0.02839416 -0.1172427
v 0.144763 0.176999 -0.0314061
v 0.1259696 0.1657752 -0.0483827
v 0.3369083 0.04406738 -0.09803605
v 0.3854429 0.06242037 -0.1770815
v 0.133357 0.2585793 -0.06491855
v 0.1141819 0.2500863 -0.08301684
v 0.3958326 0.0769915 -0.1559366
v 0.4137961 0.1307424 -0.2316252
v 0.1607919 0.3246886 -0.1176959
v 0.1425349 0.3184083 -0.1375607
v 0.4232673 0.1431008 -0.208714
v 0.4020084 0.2150534 -0.2662595
v 0.219716 0.3576127 -0.1755965
v 0.2034314 0.3524344 -0.1973995
v 0.4118614 0.2246812 -0.2422265
v 0.3532385 0.2927626 -0.2717036
v 0.2943411 0.3485297 -0.223106
v 0.2805542 0.3430474 -0.2464992
v 0.3646711 0.2998735 -0.2474942
v 0.1765116 0.2549106 -0.06315935
v 0.1980478 0.3068206 -0.1045968
v 0.2443275 0.3326795 -0.1500725
v 0.3079104 0.3349116 -0.1831217
v 0.3672008 0.2951307 -0.2027777
v 0.3972578 0.2280692 -0.2058635
v 0.1854719 0.1908557 -0.03684959
v 0.4041416 0.1642599 -0.176074
v 0.2225281 0.1318194 -0.03271723
v 0.3826053 0.1123499 -0.1346365
v 0.2777319 0.09362793 -0.05186009
v 0.3363431 0.08649409 -0.08917454
v 0.3480925 0.2675828 -0.1424551
v 0.3689279 0.2324221 -0.1407781
v 0.3716498 0.1936694 -0.127941
v 0.3503837 0.1639552 -0.1136205
v 0.3113045 0.2238574 -0.08734649
v 0.3158083 0.2897493 -0.1314183
v 0.3252461 0.149896 -0.08891276
v 0.2933657 0.1537763 -0.0686163
v 0.2803225 0.2928824 -0.1112133
v 0.2633896 0.1745145 -0.05822158
v 0.2431077 0.2700844 -0.09419322
v 0.2432295 0.2066374 -0.06047204
v 0.2383724 0.2414477 -0.07477859
v -0.2770578 0.3307675 -0.2363859
v -0.2067774 0.3376616 -0.1913464
v -0.2217182 0.3424469 -0.1713031
v -0.2897081 0.3357775 -0.2148749
v -0.3439685 0.2862956 -0.2600636
v -0.1686861 0.310976 -0.1187406
v -0.1519587 0.3051304 -0.1370134
v -0.3544383 0.2927549 -0.2377808
v -0.3895811 0.2161623 -0.2560347
v -0.1448222 0.2497977 -0.07127127
v -0.127291 0.2418913 -0.08794475
v -0.3985643 0.2249072 -0.2338833
v -0.4016734 0.1391594 -0.225379
v -0.1565204 0.1753043 -0.04161465
v -0.1393834 0.1648884 -0.05728909
v -0.4102627 0.1504139 -0.2042266
v -0.3770055 0.07592016 -0.1763107
v -0.2006466 0.1074566 -0.03771707
v -0.1849958 0.09475505 -0.05326036
v -0.3863987 0.08923548 -0.1567573
v -0.322187 0.0433892 -0.1219773
v -0.2653768 0.06443411 -0.06062302
v -0.2519068 0.05028319 -0.07693779
v -0.3333668 0.05776465 -0.1041948
v -0.184392 0.247121 -0.0697712
v -0.1935717 0.1886659 -0.04649949
v -0.2281859 0.1354552 -0.04344806
v -0.2817038 0.1001914 -0.05324841
v -0.3386678 0.09468281 -0.08826804
v -0.373557 0.1211889 -0.1374818
v -0.2031156 0.2950997 -0.1070044
v -0.3925808 0.1691729 -0.17405
v -0.2446887 0.3197704 -0.1482096
v -0.3834102 0.2275701 -0.1972986
v -0.2980407 0.314537 -0.1824004
v -0.3487843 0.2808105 -0.200357
v -0.3300796 0.1565637 -0.08319864
v -0.3534828 0.1707161 -0.1082186
v -0.3619633 0.197585 -0.1329167
v -0.3490151 0.2252393 -0.1499221
v -0.3069155 0.2239173 -0.09538531
v -0.2990126 0.1595547 -0.06353253
v -0.3301821 0.2541968 -0.1515856
v -0.30259 0.2725233 -0.1418154
v -0.2680046 0.1785673 -0.05486846
v -0.273653 0.2753618 -0.123271
v -0.2438412 0.2079633 -0.06921861
v -0.2510189 0.2619301 -0.1008373
v -0.2408623 0.2358921 -0.080634
vt 0.3542523 0.4706267
vt 0.4282985 0.4114166
vt 0.3887735 0.3823262
vt 0.3399984 0.3768957
vt 0.4479832 0.4563723
vt 0.2950426 0.3965803
vt 0.4425527 0.5051475
vt 0.2659521 0.4361054
vt 0.4134624 0.5446728
vt 0.2605216 0.4848806
vt 0.3685065 0.5643574
vt 0.2802063 0.5298364
vt 0.3197314 0.5589269
vt 0.104431 0.4502224
vt 0.08957195 0.5355018
vt 0.1342026 0.5315065
vt 0.170856 0.5057304
vt 0.0489229 0.5166472
vt 0.1897109 0.4650812
vt 0.02314717 0.479994
vt 0.1857151 0.4204507
vt 0.01915139 0.4353632
vt 0.1599393 0.3837976
vt 0.03800625 0.3947142
vt 0.1192903 0.3649425
vt 0.07465953 0.3689383
vt 0.441894 0.1799018
vt 0.3932719 0.2153397
vt 0.4052466 0.2252014
vt 0.4473674 0.1944155
vt 0.5017458 0.1733676
vt 0.3840251 0.2728665
vt 0.3687307 0.270275
vt 0.49927 0.1886774
vt 0.5570191 0.1974808
vt 0.3893136 0.3248433
vt 0.3747638 0.3302119
vt 0.5472744 0.2095523
vt 0.5933459 0.2459517
vt 0.4198975 0.367392
vt 0.4099366 0.3792835
vt 0.5789005 0.2515575
vt 0.600495 0.3063969
vt 0.467737 0.3894866
vt 0.4650158 0.4047389
vt 0.5851842 0.3040096
vt 0.5763127 0.3628609
vt 0.5208642 0.3848284
vt 0.5261984 0.3993297
vt 0.5643411 0.3530788
vt 0.4118065 0.3161417
vt 0.4351528 0.3486583
vt 0.4714617 0.3658462
vt 0.5117636 0.3617768
vt 0.5450774 0.3377411
vt 0.5637147 0.3006197
vt 0.4079 0.2765831
vt 0.5564012 0.2605591
vt 0.4240943 0.2403128
vt 0.5322707 0.2284775
vt 0.4561585 0.2169132
vt 0.4956825 0.2125556
vt 0.5161321 0.3143477
vt 0.5253498 0.2943053
vt 0.5228384 0.272384
vt 0.509388 0.2557389
vt 0.4830109 0.2875422
vt 0.4984069 0.327357
vt 0.4900096 0.2474539
vt 0.4688449 0.2499446
vt 0.4764827 0.3298181
vt 0.4516415 0.2625614
vt 0.4526846 0.3209515
vt 0.4428507 0.2820389
vt 0.4448736 0.3032041
vt 0.2058229 0.3855118
vt 0.2603821 0.3903846
vt 0.2580726 0.3763472
vt 0.2108188 0.3721951
vt 0.1609389 0.3540579
vt 0.3011305 0.3564284
vt 0.310127 0.3674463
vt 0.1719025 0.3449955
vt 0.1375883 0.3044122
vt 0.3285646 0.3176594
vt 0.3418541 0.3227295
vt 0.1516064 0.3019894
vt 0.141882 0.2494958
vt 0.3330646 0.2702824
vt 0.3471175 0.2680739
vt 0.1552317 0.2543744
vt 0.1732345 0.203935
vt 0.3134939 0.2266445
vt 0.3245715 0.2177429
vt 0.1823374 0.2148473
vt 0.2235403 0.1799985
vt 0.2744272 0.1982245
vt 0.2794895 0.184983
vt 0.2258854 0.1939908
vt 0.3078442 0.3101103
vt 0.3113019 0.2739968
vt 0.2966959 0.2406653
vt 0.2669876 0.2192823
vt 0.2299163 0.2158411
vt 0.1961888 0.2316204
vt 0.2869337 0.3395276
vt 0.1761249 0.2617838
vt 0.2542165 0.3546069
vt 0.1733176 0.2980216
vt 0.2183027 0.3514336
vt 0.1887583 0.3307452
vt 0.2355054 0.2489954
vt 0.2174391 0.2574193
vt 0.2058095 0.2739336
vt 0.2052621 0.2929931
vt 0.2422229 0.2873026
vt 0.2554003 0.2507607
vt 0.2135139 0.3103021
vt 0.2294182 0.3211822
vt 0.2719904 0.26222
vt 0.2486567 0.3228865
vt 0.2801581 0.282723
vt 0.266262 0.3148383
vt 0.277528 0.2992651
vn -0.5285721 -0.3847426 -0.7566932
vn -0.6857414 -0.5835449 -0.4350103
vn -0.5216483 -0.6970695 -0.4919116
vn -0.3475356 -0.7182607 -0.6027607
vn -0.7958463 -0.4081065 -0.4473006
vn -0.210054 -0.641442 -0.7378547
vn -0.8224581 -0.2177638 -0.5254918
vn -0.1460434 -0.4871976 -0.8609935
vn -0.7584484 -0.06351857 -0.6486304
vn -0.1726564 -0.296856 -0.9391838
vn -0.6209667 0.01329952 -0.7837241
vn -0.282758 -0.1214174 -0.9514756
vn -0.4468513 -0.00789275 -0.8945735
vn 0.5244889 -0.3847423 -0.7595294
vn 0.6240135 0.01678573 -0.7812332
vn 0.4479918 -0.0004820349 -0.8940376
vn 0.2804085 -0.1118665 -0.9533399
vn 0.7613119 -0.06469341 -0.6451502
vn 0.1661661 -0.2875214 -0.9432499
vn 0.823096 -0.2230816 -0.5222522
vn 0.1358797 -0.4803814 -0.8664701
vn 0.7928094 -0.4159407 -0.4454734
vn 0.1976629 -0.6387707 -0.7435734
vn 0.6785684 -0.5915971 -0.4353823
vn 0.3349609 -0.7202473 -0.6074909
vn 0.5109838 -0.7029812 -0.4946847
vn -0.5216483 -0.6970695 -0.4919116
vn -0.6857414 -0.5835449 -0.4350103
vn -0.08608311 -0.2312723 0.9690731
vn 0.2418296 -0.4580907 0.8553779
vn -0.3475356 -0.7182607 -0.6027607
vn -0.3060356 0.1192615 0.9445205
vn -0.7958463 -0.4081065 -0.4473006
vn 0.5896788 -0.5003996 0.6339393
vn -0.210054 -0.641442 -0.7378547
vn -0.3592039 0.4995621 0.7882958
vn -0.8224581 -0.2177638 -0.5254918
vn 0.8643661 -0.3469457 0.3640053
vn -0.1460434 -0.4871976 -0.8609935
vn -0.2312785 0.8077434 0.5422738
vn -0.7584484 -0.06351857 -0.6486304
vn 0.9925518 -0.04403362 0.1135869
vn -0.1726564 -0.296856 -0.9391838
vn 0.01042887 0.9680179 0.2506644
vn -0.6209667 0.01329952 -0.7837241
vn 0.9433235 0.3199985 -0.08798718
vn -0.282758 -0.1214174 -0.9514756
vn 0.345713 0.9377561 -0.033105
vn -0.4468513 -0.00789275 -0.8945735
vn 0.7064126 0.6878583 -0.1668298
vn 0.1112902 0.4898133 0.864695
vn 0.1412722 0.6641397 0.7341393
vn 0.2288582 0.7911177 0.5672361
vn 0.4550162 0.8123032 0.3648613
vn 0.7413213 0.6161876 0.2659995
vn 0.8804366 0.3565461 0.3125799
vn 0.1446734 0.288179 0.9465846
vn 0.8696383 0.1515992 0.469837
vn 0.2622914 0.1007319 0.9597168
vn 0.7712607 0.005588599 0.6364949
vn 0.4376777 -0.02059468 0.8988961
vn 0.623728 -0.04320503 0.7804466
vn 0.695133 0.5106544 0.5059864
vn 0.8119727 0.3371473 0.4764788
vn 0.7892689 0.1571867 0.5935882
vn 0.6887237 0.07435975 0.7212005
vn 0.4611514 0.3020828 0.8343173
vn 0.4783651 0.6583987 0.5811008
vn 0.6053653 0.1014925 0.7894505
vn 0.4782835 0.1163531 0.8704636
vn 0.2681378 0.6508678 0.7102628
vn 0.3582824 0.199333 0.9120856
vn 0.2146599 0.5602837 0.800002
vn 0.2783238 0.3276648 0.9028685
vn 0.2556178 0.4578165 0.8515067
vn 0.4479918 -0.0004820349 -0.8940376
vn 0.6240135 0.01678573 -0.7812332
vn -0.02733986 0.9590887 0.2817823
vn -0.3756032 0.9249263 0.05859655
vn 0.2804085 -0.1118665 -0.9533399
vn 0.2444445 0.7978404 0.5510876
vn 0.7613119 -0.06469341 -0.6451502
vn -0.7072982 0.7044674 -0.05877982
vn 0.1661661 -0.2875214 -0.9432499
vn 0.3666068 0.4844007 0.794327
vn 0.823096 -0.2230816 -0.5222522
vn -0.9333228 0.356934 -0.03881578
vn 0.1358797 -0.4803814 -0.8664701
vn 0.3066827 0.1028083 0.9462431
vn 0.7928094 -0.4159407 -0.4454734
vn -0.9931004 -0.02436738 0.1147073
vn 0.1976629 -0.6387707 -0.7435734
vn 0.1106642 -0.2593538 0.9594212
vn 0.6785684 -0.5915971 -0.4353823
vn -0.875294 -0.3561035 0.3271858
vn 0.3349609 -0.7202473 -0.6074909
vn -0.2040493 -0.5296792 0.8232884
vn 0.5109838 -0.7029812 -0.4946847
vn -0.5872973 -0.5658106 0.5787401
vn -0.1079439 0.4846891 0.8680003
vn -0.105365 0.2872834 0.9520329
vn -0.1651573 0.07253804 0.9835961
vn -0.3642743 -0.1401953 0.9206789
vn -0.6588892 -0.16851 0.7331231
vn -0.833231 -0.02249604 0.5524672
vn -0.1749672 0.6517013 0.7380189
vn -0.8678606 0.2011417 0.4542686
vn -0.3204458 0.7380155 0.5938414
vn -0.8105978 0.4298651 0.3976771
vn -0.5070273 0.7197334 0.4742438
vn -0.6846443 0.6016473 0.4114397
vn -0.6458743 0.08071686 0.7591648
vn -0.7829941 0.1314888 0.6079728
vn -0.7953939 0.3164816 0.5169021
vn -0.7236189 0.4741643 0.5015416
vn -0.4829268 0.4927185 0.7238854
vn -0.4235854 0.1041271 0.8998516
vn -0.6438903 0.538591 0.5434381
vn -0.5246788 0.6183303 0.5851324
vn -0.2345044 0.2514431 0.9390336
vn -0.3992667 0.6306489 0.6654832
vn -0.2060764 0.3822364 0.9007929
vn -0.3019191 0.5722407 0.7624863
vn -0.2595192 0.4614719 0.8483474
g fp_googly_ld_0
f 3/3/3 2/2/2 1/1/1
f 4/4/4 3/3/3 1/1/1
f 2/2/2 5/5/5 1/1/1
f 6/6/6 4/4/4 1/1/1
f 5/5/5 7/7/7 1/1/1
f 8/8/8 6/6/6 1/1/1
f 7/7/7 9/9/9 1/1/1
f 10/10/10 8/8/8 1/1/1
f 9/9/9 11/11/11 1/1/1
f 12/12/12 10/10/10 1/1/1
f 11/11/11 13/13/13 1/1/1
f 13/13/13 12/12/12 1/1/1
f 16/16/16 15/15/15 14/14/14
f 17/17/17 16/16/16 14/14/14
f 15/15/15 18/18/18 14/14/14
f 19/19/19 17/17/17 14/14/14
f 18/18/18 20/20/20 14/14/14
f 21/21/21 19/19/19 14/14/14
f 20/20/20 22/22/22 14/14/14
f 23/23/23 21/21/21 14/14/14
f 22/22/22 24/24/24 14/14/14
f 25/25/25 23/23/23 14/14/14
f 24/24/24 26/26/26 14/14/14
f 26/26/26 25/25/25 14/14/14
f 29/29/29 28/28/28 27/27/27
f 30/30/30 29/29/29 27/27/27
f 30/30/30 27/27/27 31/31/31
f 29/29/29 32/32/32 28/28/28
f 32/32/32 33/33/33 28/28/28
f 34/34/34 30/30/30 31/31/31
f 34/34/34 31/31/31 35/35/35
f 32/32/32 36/36/36 33/33/33
f 36/36/36 37/37/37 33/33/33
f 38/38/38 34/34/34 35/35/35
f 38/38/38 35/35/35 39/39/39
f 36/36/36 40/40/40 37/37/37
f 40/40/40 41/41/41 37/37/37
f 42/42/42 38/38/38 39/39/39
f 42/42/42 39/39/39 43/43/43
f 40/40/40 44/44/44 41/41/41
f 44/44/44 45/45/45 41/41/41
f 46/46/46 42/42/42 43/43/43
f 46/46/46 43/43/43 47/47/47
f 44/44/44 48/48/48 45/45/45
f 48/48/48 49/49/49 45/45/45
f 50/50/50 47/47/47 49/49/49
f 50/50/50 46/46/46 47/47/47
f 48/48/48 50/50/50 49/49/49
f 36/36/36 51/51/51 40/40/40
f 40/40/40 52/52/52 44/44/44
f 51/51/51 52/52/52 40/40/40
f 44/44/44 53/53/53 48/48/48
f 52/52/52 53/53/53 44/44/44
f 48/48/48 54/54/54 50/50/50
f 53/53/53 54/54/54 48/48/48
f 50/50/50 55/55/55 46/46/46
f 54/54/54 55/55/55 50/50/50
f 46/46/46 56/56/56 42/42/42
f 55/55/55 56/56/56 46/46/46
f 57/57/57 51/51/51 36/36/36
f 32/32/32 57/57/57 36/36/36
f 56/56/56 58/58/58 42/42/42
f 42/42/42 58/58/58 38/38/38
f 59/59/59 57/57/57 32/32/32
f 29/29/29 59/59/59 32/32/32
f 58/58/58 60/60/60 38/38/38
f 38/38/38 60/60/60 34/34/34
f 61/61/61 59/59/59 29/29/29
f 30/30/30 61/61/61 29/29/29
f 34/34/34 62/62/62 30/30/30
f 60/60/60 62/62/62 34/34/34
f 62/62/62 61/61/61 30/30/30
f 55/55/55 63/63/63 56/56/56
f 56/56/56 64/64/64 58/58/58
f 63/63/63 64/64/64 56/56/56
f 58/58/58 65/65/65 60/60/60
f 64/64/64 65/65/65 58/58/58
f 60/60/60 66/66/66 62/62/62
f 65/65/65 66/66/66 60/60/60
f 64/64/64 67/67/67 65/65/65
f 63/63/63 67/67/67 64/64/64
f 65/65/65 67/67/67 66/66/66
f 68/68/68 67/67/67 63/63/63
f 68/68/68 63/63/63 55/55/55
f 66/66/66 67/67/67 69/69/69
f 66/66/66 69/69/69 62/62/62
f 62/62/62 69/69/69 61/61/61
f 54/54/54 68/68/68 55/55/55
f 69/69/69 70/70/70 61/61/61
f 69/69/69 67/67/67 70/70/70
f 61/61/61 70/70/70 59/59/59
f 71/71/71 68/68/68 54/54/54
f 71/71/71 67/67/67 68/68/68
f 53/53/53 71/71/71 54/54/54
f 70/70/70 72/72/72 59/59/59
f 70/70/70 67/67/67 72/72/72
f 59/59/59 72/72/72 57/57/57
f 73/73/73 71/71/71 53/53/53
f 73/73/73 67/67/67 71/71/71
f 52/52/52 73/73/73 53/53/53
f 72/72/72 74/74/74 57/57/57
f 72/72/72 67/67/67 74/74/74
f 57/57/57 74/74/74 51/51/51
f 75/75/75 73/73/73 52/52/52
f 75/75/75 67/67/67 73/73/73
f 51/51/51 75/75/75 52/52/52
f 74/74/74 75/75/75 51/51/51
f 74/74/74 67/67/67 75/75/75
f 78/78/78 77/77/77 76/76/76
f 79/79/79 78/78/78 76/76/76
f 79/79/79 76/76/76 80/80/80
f 78/78/78 81/81/81 77/77/77
f 81/81/81 82/82/82 77/77/77
f 83/83/83 79/79/79 80/80/80
f 83/83/83 80/80/80 84/84/84
f 81/81/81 85/85/85 82/82/82
f 85/85/85 86/86/86 82/82/82
f 87/87/87 83/83/83 84/84/84
f 87/87/87 84/84/84 88/88/88
f 85/85/85 89/89/89 86/86/86
f 89/89/89 90/90/90 86/86/86
f 91/91/91 87/87/87 88/88/88
f 91/91/91 88/88/88 92/92/92
f 89/89/89 93/93/93 90/90/90
f 93/93/93 94/94/94 90/90/90
f 95/95/95 91/91/91 92/92/92
f 95/95/95 92/92/92 96/96/96
f 93/93/93 97/97/97 94/94/94
f 97/97/97 98/98/98 94/94/94
f 99/99/99 96/96/96 98/98/98
f 99/99/99 95/95/95 96/96/96
f 97/97/97 99/99/99 98/98/98
f 85/85/85 100/100/100 89/89/89
f 89/89/89 101/101/101 93/93/93
f 100/100/100 101/101/101 89/89/89
f 93/93/93 102/102/102 97/97/97
f 101/101/101 102/102/102 93/93/93
f 97/97/97 103/103/103 99/99/99
f 102/102/102 103/103/103 97/97/97
f 99/99/99 104/104/104 95/95/95
f 103/103/103 104/104/104 99/99/99
f 95/95/95 105/105/105 91/91/91
f 104/104/104 105/105/105 95/95/95
f 106/106/106 100/100/100 85/85/85
f 81/81/81 106/106/106 85/85/85
f 105/105/105 107/107/107 91/91/91
f 91/91/91 107/107/107 87/87/87
f 108/108/108 106/106/106 81/81/81
f 78/78/78 108/108/108 81/81/81
f 107/107/107 109/109/109 87/87/87
f 87/87/87 109/109/109 83/83/83
f 110/110/110 108/108/108 78/78/78
f 79/79/79 110/110/110 78/78/78
f 83/83/83 111/111/111 79/79/79
f 109/109/109 111/111/111 83/83/83
f 111/111/111 110/110/110 79/79/79
f 104/104/104 112/112/112 105/105/105
f 105/105/105 113/113/113 107/107/107
f 112/112/112 113/113/113 105/105/105
f 107/107/107 114/114/114 109/109/109
f 113/113/113 114/114/114 107/107/107
f 109/109/109 115/115/115 111/111/111
f 114/114/114 115/115/115 109/109/109
f 113/113/113 116/116/116 114/114/114
f 112/112/112 116/116/116 113/113/113
f 114/114/114 116/116/116 115/115/115
f 117/117/117 116/116/116 112/112/112
f 117/117/117 112/112/112 104/104/104
f 115/115/115 116/116/116 118/118/118
f 115/115/115 118/118/118 111/111/111
f 111/111/111 118/118/118 110/110/110
f 103/103/103 117/117/117 104/104/104
f 118/118/118 119/119/119 110/110/110
f 118/118/118 116/116/116 119/119/119
f 110/110/110 119/119/119 108/108/108
f 120/120/120 117/117/117 103/103/103
f 120/120/120 116/116/116 117/117/117
f 102/102/102 120/120/120 103/103/103
f 119/119/119 121/121/121 108/108/108
f 119/119/119 116/116/116 121/121/121
f 108/108/108 121/121/121 106/106/106
f 122/122/122 120/120/120 102/102/102
f 122/122/122 116/116/116 120/120/120
f 101/101/101 122/122/122 102/102/102
f 121/121/121 123/123/123 106/106/106
f 121/121/121 116/116/116 123/123/123
f 106/106/106 123/123/123 100/100/100
f 124/124/124 122/122/122 101/101/101
f 124/124/124 116/116/116 122/122/122
f 100/100/100 124/124/124 101/101/101
f 123/123/123 124/124/124 100/100/100
f 123/123/123 116/116/116 124/124/124
