g fp_handlebar_ld
v 0.3277963 0.07245874 -0.08880949
v 0.328183 0.0693087 -0.1155338
v 0.33456 0.0942136 -0.1065986
v 0.3051055 0.06584418 -0.08937627
v 0.3533942 0.08484226 -0.1120628
v 0.2784145 0.03403807 -0.1143549
v 0.2747509 0.081972 -0.09352079
v 0.3383158 0.05468076 -0.1219225
v 0.360298 0.04962295 -0.1061875
v 0.2760799 -0.00899756 -0.09735519
v 0.3223585 -0.008617103 -0.07163069
v 0.2853448 -0.02095249 -0.0487439
v 0.2306252 0.05082518 -0.1124162
v 0.2446586 0.1386471 -0.07816428
v 0.1959688 -0.01114395 -0.08001077
v 0.2236668 -0.02363136 -0.01422325
v 0.21831 0.1299546 -0.09883282
v 0.2100541 0.1842237 -0.06433734
v 0.150831 0.2188913 -0.05953681
v 0.1512156 0.005924642 -0.0684709
v 0.1719874 -0.02276838 -0.01850122
v 0.1257522 0.1821412 -0.09215298
v 0.08377794 0.2330141 -0.04887137
v 0.008336755 0.212801 -0.03625095
v 0.1059554 0.03968239 -0.06688768
v 0.1074657 -0.009516597 0.007094085
v 0.007698126 0.1625729 -0.07890514
v 0.007919646 0.07346368 -0.0601261
v 0.0116009 0.03984457 -0.001640141
v -0.1074657 -0.009516597 0.007094085
v -0.1059554 0.03968239 -0.06688768
v -0.1719874 -0.02276838 -0.01850122
v -0.1257522 0.1821412 -0.09215301
v -0.08238469 0.235717 -0.04751107
v -0.150831 0.2188913 -0.05953687
v -0.1512156 0.005924582 -0.0684709
v -0.2236668 -0.02363136 -0.01422325
v -0.21831 0.1299546 -0.09883285
v -0.2100541 0.1842237 -0.06433737
v -0.2446585 0.1386471 -0.07816434
v -0.1959689 -0.01114404 -0.0800108
v -0.2853448 -0.02095249 -0.0487439
v -0.2306252 0.05082518 -0.1124162
v -0.2747509 0.081972 -0.09352073
v -0.2760799 -0.00899753 -0.09735519
v -0.3223586 -0.008617043 -0.07163066
v -0.3602981 0.04962295 -0.1061874
v -0.2784145 0.03403807 -0.1143548
v -0.3051056 0.06584424 -0.08937627
v -0.3383158 0.05468076 -0.1219225
v -0.3533942 0.08484226 -0.1120628
v -0.3281829 0.06930876 -0.1155338
v -0.3277963 0.0724588 -0.08880949
v -0.33456 0.09421355 -0.1065986
v 0.3670765 0.05501443 -0.07820562
v 0.360298 0.04962295 -0.1061875
v 0.3223585 -0.008617103 -0.07163069
v 0.3533942 0.08484226 -0.1120628
v 0.3484937 0.02082634 -0.05128244
v 0.2853448 -0.02095249 -0.0487439
v 0.3453715 0.0887059 -0.08966473
v 0.33456 0.0942136 -0.1065986
v 0.3277963 0.07245874 -0.08880949
v 0.3557264 0.06292641 -0.06836689
v 0.3449936 0.05170476 -0.0551714
v 0.3051055 0.06584418 -0.08937627
v 0.3095712 0.006623983 -0.02061659
v 0.2236668 -0.02363136 -0.01422325
v 0.3189962 0.03050274 -0.02743241
v 0.3222838 0.05481708 -0.04527116
v 0.2485008 0.003942847 0.01859605
v 0.1719874 -0.02276838 -0.01850122
v 0.2739494 0.03162831 0.004165232
v 0.2936409 0.06370139 -0.02639031
v 0.219016 0.06975579 0.02791834
v 0.2747509 0.081972 -0.09352079
v 0.2156282 0.009750068 0.03721601
v 0.2528218 0.1133658 -0.01526695
v 0.2446586 0.1386471 -0.07816428
v 0.1821094 0.01721442 0.05117065
v 0.1074657 -0.009516597 0.007094085
v 0.2172878 0.1683267 -0.002273351
v 0.2100541 0.1842237 -0.06433734
v 0.1318359 0.03189451 0.06527966
v 0.1480907 0.1940036 0.01799351
v 0.150831 0.2188913 -0.05953681
v 0.1455818 0.104485 0.06165057
v 0.08033496 0.05130142 0.07074416
v 0.0116009 0.03984457 -0.001640141
v 0.08158529 0.1188277 0.07595444
v 0.07457415 0.2124091 0.02920043
v 0.08377794 0.2330141 -0.04887137
v -0.006888052 0.1348972 0.05316687
v 0.00732954 0.1829728 0.02942526
v 0.008336755 0.212801 -0.03625095
v -0.08238469 0.235717 -0.04751107
v -0.072471 0.2034596 0.02741879
v -0.150831 0.2188913 -0.05953687
v 0.001873406 0.0877412 0.06008124
v -0.1478553 0.192754 0.01514047
v -0.2100541 0.1842237 -0.06433737
v -0.07677078 0.1129411 0.07762039
v -0.08033507 0.05130166 0.07074434
v -0.1074657 -0.009516597 0.007094085
v -0.2189361 0.1681665 0.0004140139
v -0.2446585 0.1386471 -0.07816434
v -0.131836 0.03189391 0.0652796
v -0.1461514 0.1029732 0.0545457
v -0.2203512 0.07130122 0.03015977
v -0.252234 0.116115 -0.01188806
v -0.2747509 0.081972 -0.09352073
v -0.1821093 0.0172143 0.05117059
v -0.1719874 -0.02276838 -0.01850122
v -0.2936409 0.06370139 -0.02639031
v -0.3051056 0.06584424 -0.08937627
v -0.2156282 0.009750009 0.03721601
v -0.2739494 0.03162825 0.004165232
v -0.2485007 0.003942847 0.01859599
v -0.2236668 -0.02363136 -0.01422325
v -0.3095712 0.006624043 -0.02061659
v -0.2853448 -0.02095249 -0.0487439
v -0.3222838 0.05481708 -0.04527113
v -0.3484937 0.02082634 -0.05128241
v -0.3223586 -0.008617043 -0.07163066
v -0.3189962 0.03050268 -0.02743241
v -0.3449936 0.05170476 -0.0551714
v -0.3277963 0.0724588 -0.08880949
v -0.3670765 0.05501443 -0.07820565
v -0.3602981 0.04962295 -0.1061874
v -0.3533942 0.08484226 -0.1120628
v -0.3557264 0.06292641 -0.06836691
v -0.3453718 0.08870602 -0.08966497
v -0.33456 0.09421355 -0.1065986
vt 0.5903854 0.6242555
vt 0.5845249 0.6107953
vt 0.5753068 0.6226076
vt 0.6016389 0.6189983
vt 0.5679992 0.6136847
vt 0.6148834 0.5959617
vt 0.6191937 0.6250088
vt 0.581166 0.6014509
vt 0.5689778 0.593344
vt 0.6186161 0.5714999
vt 0.5939677 0.5584223
vt 0.6164877 0.5442913
vt 0.6410055 0.6042613
vt 0.6391752 0.6551974
vt 0.661285 0.5685933
vt 0.6541293 0.5313868
vt 0.6546322 0.6448172
vt 0.6601512 0.6792355
vt 0.6940934 0.6944979
vt 0.6868407 0.5745372
vt 0.6821558 0.5411234
vt 0.7061236 0.6676545
vt 0.7306873 0.7002512
vt 0.7700312 0.6920533
vt 0.7136164 0.589848
vt 0.719757 0.5417004
vt 0.7702868 0.6551652
vt 0.7701277 0.6049595
vt 0.7685031 0.5685204
vt 0.829283 0.5415089
vt 0.8349485 0.5897735
vt 0.8667531 0.5411557
vt 0.8425936 0.6677847
vt 0.8171912 0.7021798
vt 0.8546664 0.6946315
vt 0.8618551 0.5745633
vt 0.8947865 0.5315044
vt 0.8939968 0.6448975
vt 0.8885421 0.6793204
vt 0.9094535 0.6552896
vt 0.8874714 0.5686898
vt 0.9323735 0.5445122
vt 0.9076715 0.6043843
vt 0.9294387 0.625177
vt 0.930157 0.5717016
vt 0.9548522 0.5587059
vt 0.9797375 0.5937027
vt 0.9338194 0.5961643
vt 0.9469951 0.6192368
vt 0.967522 0.601766
vt 0.9806451 0.6140498
vt 0.9641321 0.6110977
vt 0.9582219 0.624536
vt 0.9733038 0.6229451
vt 0.9815416 0.4214409
vt 0.9952989 0.4155495
vt 0.9656818 0.3843395
vt 0.9983687 0.4365818
vt 0.9639232 0.4075174
vt 0.9419832 0.3747967
vt 0.9857858 0.4400201
vt 0.9913479 0.4485514
vt 0.9735086 0.4450156
vt 0.9754212 0.4268355
vt 0.9655048 0.4233766
vt 0.9626142 0.4514779
vt 0.9410138 0.3993101
vt 0.9028229 0.3676692
vt 0.9458501 0.4125959
vt 0.9528335 0.4272971
vt 0.9050414 0.393792
vt 0.8750119 0.3550741
vt 0.9187425 0.4103996
vt 0.9340071 0.4316601
vt 0.8863704 0.4255698
vt 0.9519843 0.4663507
vt 0.8862721 0.3942254
vt 0.9082697 0.4551679
vt 0.9235626 0.488464
vt 0.8678038 0.3955098
vt 0.8340735 0.3607347
vt 0.8826661 0.4775266
vt 0.8942626 0.506884
vt 0.8408478 0.3993014
vt 0.845033 0.4854264
vt 0.8579396 0.5249235
vt 0.8432871 0.4356526
vt 0.8136616 0.4053686
vt 0.7739967 0.3746084
vt 0.8097818 0.4383377
vt 0.8071951 0.4898093
vt 0.8175585 0.530024
vt 0.765228 0.4475872
vt 0.7714595 0.4787077
vt 0.772333 0.5194908
vt 0.7201335 0.5287316
vt 0.7305951 0.4871989
vt 0.6791804 0.5235567
vt 0.7692544 0.4188992
vt 0.6913881 0.4857143
vt 0.6425321 0.5074563
vt 0.7289072 0.4356659
vt 0.7229495 0.4057727
vt 0.7029595 0.3608252
vt 0.6542192 0.475859
vt 0.613008 0.4889201
vt 0.6959437 0.3995186
vt 0.692139 0.4359223
vt 0.6506724 0.4257311
vt 0.6301312 0.4554136
vt 0.5845023 0.4664774
vt 0.6691643 0.395376
vt 0.6620086 0.3549525
vt 0.6027591 0.4316841
vt 0.5740119 0.4514474
vt 0.6506515 0.3939978
vt 0.6180726 0.4102919
vt 0.6318361 0.3936342
vt 0.6340886 0.3675059
vt 0.5958148 0.3992385
vt 0.594862 0.3747063
vt 0.5839256 0.4272602
vt 0.5728881 0.407435
vt 0.5711674 0.3842479
vt 0.5909551 0.4125498
vt 0.5712635 0.423297
vt 0.563157 0.4449194
vt 0.5552286 0.4213105
vt 0.5414884 0.4153776
vt 0.5383387 0.4363891
vt 0.5613291 0.4267249
vt 0.5509067 0.439873
vt 0.5453101 0.448383
vn -0.4414861 0.7688782 0.462511
vn -0.2695899 0.1492178 -0.951344
vn -0.5019321 0.8083749 -0.3075614
vn 0.189405 0.9327542 -0.3067499
vn 0.7166906 0.487225 -0.4989654
vn -0.07392316 -0.100298 -0.9922075
vn 0.6163848 0.5897323 -0.5218098
vn 0.2528452 -0.4651482 -0.8483552
vn 0.6292119 -0.5670744 -0.5315252
vn -0.005160803 -0.7487164 -0.6628705
vn 0.5356767 -0.8024984 -0.2627674
vn 0.1858732 -0.9770967 0.1036008
vn -0.2457253 -0.05129472 -0.9679814
vn 0.7776615 0.5620882 -0.2816016
vn -0.3183729 -0.6209562 -0.7162765
vn 0.04377247 -0.9846631 0.1688863
vn -0.03928779 0.06151183 -0.9973328
vn 0.5537521 0.7855163 -0.2762658
vn 0.3481866 0.9230629 -0.1634657
vn -0.3375365 -0.4242315 -0.8402955
vn -0.2170967 -0.9756699 0.03061459
vn -0.08242967 0.1047975 -0.9910715
vn -0.09085265 0.961482 -0.2594191
vn -0.01552431 0.9452192 -0.326067
vn -0.2260659 -0.3995685 -0.8883914
vn -0.3499488 -0.9345658 0.06420763
vn 0.001556142 0.06806843 -0.9976795
vn 0.003715273 -0.4293521 -0.9031296
vn -0.02676963 -0.9996227 -0.006142014
vn 0.3254541 -0.9439143 0.0557272
vn 0.2067187 -0.40922 -0.8887106
vn 0.2170963 -0.97567 0.03061325
vn 0.07725322 0.1036541 -0.9916087
vn 0.0831644 0.967544 -0.238626
vn -0.3369481 0.9316719 -0.1358438
vn 0.337537 -0.424232 -0.8402952
vn -0.04377316 -0.984663 0.1688869
vn 0.03928788 0.0615116 -0.9973328
vn -0.5464352 0.7906584 -0.2761666
vn -0.7777944 0.5595458 -0.2862595
vn 0.3183722 -0.6209568 -0.7162763
vn -0.1858734 -0.9770966 0.1036018
vn 0.2457245 -0.05129455 -0.9679816
vn -0.6238338 0.5874383 -0.515507
vn 0.00515977 -0.7487164 -0.6628703
vn -0.5356764 -0.8024985 -0.2627679
vn -0.6292117 -0.5670744 -0.5315256
vn 0.07392278 -0.1002975 -0.9922076
vn -0.1894031 0.9327548 -0.3067492
vn -0.2528449 -0.4651484 -0.8483551
vn -0.7166898 0.48722 -0.4989714
vn 0.269591 0.1492188 -0.9513435
vn 0.4414826 0.7688787 0.4625133
vn 0.5019376 0.8083723 -0.3075597
vn 0.9359052 -0.3514574 0.02364742
vn 0.6292119 -0.5670744 -0.5315252
vn 0.5356767 -0.8024984 -0.2627674
vn 0.7166906 0.487225 -0.4989654
vn 0.8063958 -0.5343938 0.2532765
vn 0.1858732 -0.9770967 0.1036008
vn 0.274548 0.8006836 0.5324744
vn -0.5019321 0.8083749 -0.3075614
vn -0.4414861 0.7688782 0.462511
vn 0.4805007 0.4934508 0.7250003
vn 0.5177509 0.481538 0.7071456
vn 0.189405 0.9327542 -0.3067499
vn 0.5019687 -0.6179139 0.6051527
vn 0.04377247 -0.9846631 0.1688863
vn 0.5782803 0.2182338 0.786108
vn 0.5074671 0.7306042 0.4568311
vn 0.3703658 -0.5257995 0.765744
vn -0.2170967 -0.9756699 0.03061459
vn 0.5526794 0.1926231 0.810828
vn 0.7001798 0.5477313 0.4579724
vn 0.4755519 0.2279792 0.8496328
vn 0.6163848 0.5897323 -0.5218098
vn 0.2720056 -0.4704953 0.8394325
vn 0.7961668 0.4815631 0.3663543
vn 0.7776615 0.5620882 -0.2816016
vn 0.2196288 -0.4584026 0.8611795
vn -0.3499488 -0.9345658 0.06420763
vn 0.6004767 0.5694587 0.5613775
vn 0.5537521 0.7855163 -0.2762658
vn 0.1488401 -0.3925253 0.907618
vn 0.3794139 0.6497206 0.6587172
vn 0.3481866 0.9230629 -0.1634657
vn 0.3421887 0.251055 0.9054713
vn -0.2497224 -0.4867207 0.8371032
vn -0.02676963 -0.9996227 -0.006142014
vn 0.04138979 0.2683895 0.9624209
vn 0.01492707 0.760388 0.6492976
vn -0.09085265 0.961482 -0.2594191
vn 0.008269637 0.3119641 0.9500579
vn -0.03889015 0.7052357 0.7079055
vn -0.01552431 0.9452192 -0.326067
vn 0.0831644 0.967544 -0.238626
vn -0.0419795 0.7351899 0.6765601
vn -0.3369481 0.9316719 -0.1358438
vn 0.01203865 -0.4822505 0.8759508
vn -0.3419221 0.6513914 0.677332
vn -0.5464352 0.7906584 -0.2761666
vn -0.0629212 0.2695993 0.9609147
vn 0.2101691 -0.4953624 0.842879
vn 0.3254541 -0.9439143 0.0557272
vn -0.5622405 0.5828801 0.5866313
vn -0.7777944 0.5595458 -0.2862595
vn -0.1496476 -0.3698655 0.9169542
vn -0.3115121 0.2718368 0.91053
vn -0.4386501 0.2291426 0.8689533
vn -0.8079807 0.4750341 0.3485826
vn -0.6238338 0.5874383 -0.515507
vn -0.1946541 -0.439912 0.876691
vn 0.2170963 -0.97567 0.03061325
vn -0.7200251 0.5355029 0.4413621
vn -0.1894031 0.9327548 -0.3067492
vn -0.2750389 -0.4813357 0.8322678
vn -0.5680868 0.1708248 0.8050443
vn -0.3730819 -0.5322047 0.7599791
vn -0.04377316 -0.984663 0.1688869
vn -0.5019679 -0.6179141 0.6051533
vn -0.1858734 -0.9770966 0.1036018
vn -0.5074661 0.7306042 0.4568322
vn -0.8063954 -0.5343938 0.2532778
vn -0.5356764 -0.8024985 -0.2627679
vn -0.5782794 0.2182343 0.7861086
vn -0.5177505 0.4815385 0.7071458
vn 0.4414826 0.7688787 0.4625133
vn -0.9359051 -0.3514577 0.02364763
vn -0.6292117 -0.5670744 -0.5315256
vn -0.7166898 0.48722 -0.4989714
vn -0.4805009 0.4934531 0.7249985
vn -0.2745519 0.8006855 0.5324696
vn 0.5019376 0.8083723 -0.3075597
g fp_handlebar_ld_0
f 3/3/3 2/2/2 1/1/1
f 4/4/4 1/1/1 2/2/2
f 3/3/3 5/5/5 2/2/2
f 6/6/6 4/4/4 2/2/2
f 7/7/7 4/4/4 6/6/6
f 8/8/8 2/2/2 5/5/5
f 6/6/6 2/2/2 8/8/8
f 9/9/9 8/8/8 5/5/5
f 10/10/10 8/8/8 9/9/9
f 10/10/10 6/6/6 8/8/8
f 11/11/11 10/10/10 9/9/9
f 12/12/12 10/10/10 11/11/11
f 13/13/13 7/7/7 6/6/6
f 13/13/13 6/6/6 10/10/10
f 14/14/14 7/7/7 13/13/13
f 15/15/15 10/10/10 12/12/12
f 15/15/15 13/13/13 10/10/10
f 16/16/16 15/15/15 12/12/12
f 17/17/17 14/14/14 13/13/13
f 17/17/17 13/13/13 15/15/15
f 18/18/18 14/14/14 17/17/17
f 19/19/19 18/18/18 17/17/17
f 20/20/20 15/15/15 16/16/16
f 20/20/20 17/17/17 15/15/15
f 21/21/21 20/20/20 16/16/16
f 22/22/22 19/19/19 17/17/17
f 22/22/22 17/17/17 20/20/20
f 23/23/23 19/19/19 22/22/22
f 24/24/24 23/23/23 22/22/22
f 25/25/25 20/20/20 21/21/21
f 25/25/25 22/22/22 20/20/20
f 26/26/26 25/25/25 21/21/21
f 27/27/27 24/24/24 22/22/22
f 27/27/27 22/22/22 25/25/25
f 28/28/28 25/25/25 26/26/26
f 28/28/28 27/27/27 25/25/25
f 29/29/29 28/28/28 26/26/26
f 28/28/28 29/29/29 30/30/30
f 31/31/31 28/28/28 30/30/30
f 27/27/27 28/28/28 31/31/31
f 31/31/31 30/30/30 32/32/32
f 24/24/24 27/27/27 33/33/33
f 33/33/33 27/27/27 31/31/31
f 34/34/34 24/24/24 33/33/33
f 35/35/35 34/34/34 33/33/33
f 36/36/36 31/31/31 32/32/32
f 33/33/33 31/31/31 36/36/36
f 36/36/36 32/32/32 37/37/37
f 35/35/35 33/33/33 38/38/38
f 38/38/38 33/33/33 36/36/36
f 39/39/39 35/35/35 38/38/38
f 40/40/40 39/39/39 38/38/38
f 41/41/41 36/36/36 37/37/37
f 38/38/38 36/36/36 41/41/41
f 41/41/41 37/37/37 42/42/42
f 40/40/40 38/38/38 43/43/43
f 43/43/43 38/38/38 41/41/41
f 44/44/44 40/40/40 43/43/43
f 45/45/45 41/41/41 42/42/42
f 43/43/43 41/41/41 45/45/45
f 45/45/45 42/42/42 46/46/46
f 45/45/45 46/46/46 47/47/47
f 44/44/44 43/43/43 48/48/48
f 48/48/48 43/43/43 45/45/45
f 49/49/49 44/44/44 48/48/48
f 50/50/50 45/45/45 47/47/47
f 48/48/48 45/45/45 50/50/50
f 50/50/50 47/47/47 51/51/51
f 49/49/49 48/48/48 52/52/52
f 52/52/52 48/48/48 50/50/50
f 52/52/52 50/50/50 51/51/51
f 53/53/53 49/49/49 52/52/52
f 51/51/51 54/54/54 52/52/52
f 52/52/52 54/54/54 53/53/53
f 57/57/57 56/56/56 55/55/55
f 56/56/56 58/58/58 55/55/55
f 59/59/59 57/57/57 55/55/55
f 60/60/60 57/57/57 59/59/59
f 55/55/55 58/58/58 61/61/61
f 62/62/62 61/61/61 58/58/58
f 62/62/62 63/63/63 61/61/61
f 64/64/64 55/55/55 61/61/61
f 64/64/64 61/61/61 63/63/63
f 59/59/59 55/55/55 64/64/64
f 65/65/65 64/64/64 63/63/63
f 65/65/65 59/59/59 64/64/64
f 66/66/66 65/65/65 63/63/63
f 67/67/67 60/60/60 59/59/59
f 68/68/68 60/60/60 67/67/67
f 69/69/69 59/59/59 65/65/65
f 59/59/59 69/69/69 67/67/67
f 70/70/70 65/65/65 66/66/66
f 70/70/70 69/69/69 65/65/65
f 71/71/71 68/68/68 67/67/67
f 72/72/72 68/68/68 71/71/71
f 67/67/67 69/69/69 73/73/73
f 73/73/73 69/69/69 70/70/70
f 71/71/71 67/67/67 73/73/73
f 74/74/74 70/70/70 66/66/66
f 74/74/74 73/73/73 70/70/70
f 75/75/75 73/73/73 74/74/74
f 76/76/76 74/74/74 66/66/66
f 71/71/71 73/73/73 77/77/77
f 77/77/77 72/72/72 71/71/71
f 73/73/73 75/75/75 77/77/77
f 78/78/78 74/74/74 76/76/76
f 78/78/78 75/75/75 74/74/74
f 79/79/79 78/78/78 76/76/76
f 80/80/80 72/72/72 77/77/77
f 80/80/80 77/77/77 75/75/75
f 81/81/81 72/72/72 80/80/80
f 82/82/82 78/78/78 79/79/79
f 82/82/82 75/75/75 78/78/78
f 83/83/83 82/82/82 79/79/79
f 84/84/84 81/81/81 80/80/80
f 80/80/80 75/75/75 84/84/84
f 85/85/85 82/82/82 83/83/83
f 86/86/86 85/85/85 83/83/83
f 87/87/87 75/75/75 82/82/82
f 75/75/75 87/87/87 84/84/84
f 85/85/85 87/87/87 82/82/82
f 88/88/88 81/81/81 84/84/84
f 89/89/89 81/81/81 88/88/88
f 84/84/84 87/87/87 90/90/90
f 90/90/90 87/87/87 85/85/85
f 88/88/88 84/84/84 90/90/90
f 91/91/91 85/85/85 86/86/86
f 91/91/91 90/90/90 85/85/85
f 92/92/92 91/91/91 86/86/86
f 88/88/88 90/90/90 93/93/93
f 93/93/93 90/90/90 91/91/91
f 94/94/94 91/91/91 92/92/92
f 94/94/94 93/93/93 91/91/91
f 95/95/95 94/94/94 92/92/92
f 94/94/94 95/95/95 96/96/96
f 97/97/97 94/94/94 96/96/96
f 93/93/93 94/94/94 97/97/97
f 97/97/97 96/96/96 98/98/98
f 99/99/99 89/89/89 88/88/88
f 99/99/99 88/88/88 93/93/93
f 100/100/100 97/97/97 98/98/98
f 100/100/100 98/98/98 101/101/101
f 102/102/102 93/93/93 97/97/97
f 93/93/93 102/102/102 99/99/99
f 102/102/102 97/97/97 100/100/100
f 89/89/89 99/99/99 103/103/103
f 102/102/102 103/103/103 99/99/99
f 104/104/104 89/89/89 103/103/103
f 105/105/105 100/100/100 101/101/101
f 105/105/105 101/101/101 106/106/106
f 107/107/107 103/103/103 102/102/102
f 104/104/104 103/103/103 107/107/107
f 108/108/108 102/102/102 100/100/100
f 108/108/108 100/100/100 105/105/105
f 108/108/108 107/107/107 102/102/102
f 109/109/109 108/108/108 105/105/105
f 108/108/108 109/109/109 107/107/107
f 110/110/110 105/105/105 106/106/106
f 109/109/109 105/105/105 110/110/110
f 110/110/110 106/106/106 111/111/111
f 104/104/104 107/107/107 112/112/112
f 109/109/109 112/112/112 107/107/107
f 113/113/113 104/104/104 112/112/112
f 114/114/114 110/110/110 111/111/111
f 109/109/109 110/110/110 114/114/114
f 114/114/114 111/111/111 115/115/115
f 113/113/113 112/112/112 116/116/116
f 116/116/116 112/112/112 109/109/109
f 117/117/117 109/109/109 114/114/114
f 109/109/109 117/117/117 116/116/116
f 113/113/113 116/116/116 118/118/118
f 117/117/117 118/118/118 116/116/116
f 119/119/119 113/113/113 118/118/118
f 119/119/119 118/118/118 120/120/120
f 120/120/120 118/118/118 117/117/117
f 121/121/121 119/119/119 120/120/120
f 122/122/122 114/114/114 115/115/115
f 117/117/117 114/114/114 122/122/122
f 121/121/121 120/120/120 123/123/123
f 124/124/124 121/121/121 123/123/123
f 125/125/125 120/120/120 117/117/117
f 125/125/125 117/117/117 122/122/122
f 125/125/125 123/123/123 120/120/120
f 126/126/126 122/122/122 115/115/115
f 125/125/125 122/122/122 126/126/126
f 123/123/123 125/125/125 126/126/126
f 126/126/126 115/115/115 127/127/127
f 124/124/124 123/123/123 128/128/128
f 129/129/129 124/124/124 128/128/128
f 130/130/130 129/129/129 128/128/128
f 123/123/123 126/126/126 131/131/131
f 131/131/131 126/126/126 127/127/127
f 128/128/128 123/123/123 131/131/131
f 130/130/130 128/128/128 132/132/132
f 128/128/128 131/131/131 132/132/132
f 132/132/132 131/131/131 127/127/127
f 132/132/132 133/133/133 130/130/130
f 127/127/127 133/133/133 132/132/132
