g fp_smarty_ld_lens2
v 0.7722356 0.6758109 -0.3225527
v 0.5230092 0.4312427 -0.1862338
v 0.8574256 0.5603185 -0.2958488
v 0.6486744 0.7529808 -0.3318473
v 0.8912745 0.4240856 -0.2558011
v 0.5055526 0.7800795 -0.3223173
v 0.8686299 0.2878528 -0.2085059
v 0.3646595 0.7529808 -0.2954139
v 0.7929382 0.1723605 -0.1611645
v 0.2474447 0.6758113 -0.2552327
v 0.6757236 0.09519076 -0.1209832
v 0.1717534 0.5603188 -0.2078912
v 0.5348306 0.06809247 -0.09407961
v 0.1491083 0.4240859 -0.1605962
v 0.3917088 0.09519088 -0.08454973
v 0.1829575 0.287853 -0.1205482
v 0.2681475 0.1723605 -0.09384429
v 0.7722356 0.6758109 -0.3225527
v 0.8574256 0.5603185 -0.2958488
v 0.8692737 0.5876424 -0.2139368
v 0.7837563 0.7035794 -0.2407436
v 0.5377603 0.4680165 -0.0725764
v 0.6486744 0.7529808 -0.3318473
v 0.9032531 0.4508858 -0.173735
v 0.8912745 0.4240856 -0.2558011
v 0.6597195 0.781046 -0.2500737
v 0.5055526 0.7800795 -0.3223173
v 0.8805211 0.3141291 -0.126258
v 0.8686299 0.2878528 -0.2085059
v 0.5160472 0.8082488 -0.2405075
v 0.3646595 0.7529808 -0.2954139
v 0.8045385 0.1981921 -0.07873422
v 0.7929382 0.1723605 -0.1611645
v 0.3746122 0.7810462 -0.2135001
v 0.6868728 0.1207259 -0.03839839
v 0.2569465 0.7035795 -0.1731645
v 0.2474447 0.6758113 -0.2552327
v 0.6757236 0.09519076 -0.1209832
v 0.1717534 0.5603188 -0.2078912
v 0.5454378 0.09352279 -0.01139146
v 0.5348306 0.06809247 -0.09407961
v 0.1809638 0.587643 -0.1256406
v 0.1491083 0.4240859 -0.1605962
v 0.4017655 0.1207259 -0.001824975
v 0.3917088 0.09519088 -0.08454973
v 0.1582317 0.4508859 -0.0781638
v 0.1829575 0.287853 -0.1205482
v 0.2777287 0.1981921 -0.01115531
v 0.2681475 0.1723605 -0.09384429
v 0.1922111 0.3141291 -0.0379619
vt 0.728613 0.2740579
vt 0.774094 0.2285769
vt 0.7146702 0.253191
vt 0.7494799 0.2880006
vt 0.7097743 0.2285768
vt 0.7740943 0.2928966
vt 0.7146704 0.2039627
vt 0.7987083 0.2880006
vt 0.7286131 0.183096
vt 0.8195751 0.2740579
vt 0.74948 0.1691532
vt 0.8335178 0.2531911
vt 0.7740943 0.1642571
vt 0.838414 0.2285769
vt 0.798708 0.1691533
vt 0.8335178 0.2039628
vt 0.819575 0.183096
vt 0.7196786 0.1426683
vt 0.7366981 0.117166
vt 0.7232218 0.1114333
vt 0.7094219 0.132215
vt 0.6641124 0.08709276
vt 0.6941953 0.1597162
vt 0.7280186 0.08695278
vt 0.7426629 0.08709192
vt 0.6887197 0.1461335
vt 0.6641278 0.1657143
vt 0.7230819 0.06249979
vt 0.7366647 0.05702424
vt 0.6642669 0.1510702
vt 0.6340539 0.1597497
vt 0.7091632 0.04179752
vt 0.7196167 0.03154075
vt 0.6397865 0.1462734
vt 0.6883816 0.02799749
vt 0.6190049 0.1324738
vt 0.6085516 0.1427304
vt 0.6941143 0.0145213
vt 0.5915036 0.1172473
vt 0.6639007 0.02320081
vt 0.6640399 0.008556604
vt 0.6050863 0.1117717
vt 0.5855051 0.08717996
vt 0.6394478 0.0281378
vt 0.6339722 0.01455516
vt 0.6001494 0.0873189
vt 0.5914695 0.05710578
vt 0.6187456 0.04205668
vt 0.608489 0.03160328
vt 0.6049458 0.06283832
vn 0.1759346 0.006698193 -0.9843791
vn -0.1210712 -0.307529 -0.9438049
vn 0.2724633 -0.1241647 -0.954121
vn 0.03592867 0.09413891 -0.9949105
vn 0.3108162 -0.2785296 -0.9087434
vn -0.1262411 0.1248443 -0.9841123
vn 0.2851603 -0.4328945 -0.8551525
vn -0.2858863 0.09413838 -0.9536284
vn 0.1993935 -0.5637576 -0.8015109
vn -0.4187014 0.00669967 -0.9080992
vn 0.06657793 -0.6511984 -0.7559816
vn -0.5044668 -0.1241644 -0.8544568
vn -0.09306725 -0.6819034 -0.7254972
vn -0.5301266 -0.2785293 -0.8008665
vn -0.2552372 -0.6511976 -0.7146997
vn -0.4917723 -0.4328946 -0.7554882
vn -0.3952432 -0.5637577 -0.7252309
vn 0.1759346 0.006698193 -0.9843791
vn 0.2724633 -0.1241647 -0.954121
vn 0.6087822 0.4594151 0.646778
vn 0.4801621 0.633623 0.6066022
vn 0.1211064 0.3074811 0.9438159
vn 0.03592867 0.09413891 -0.9949105
vn 0.659967 0.2538288 0.707117
vn 0.3108162 -0.2785296 -0.9087434
vn 0.2937297 0.7499576 0.5926944
vn -0.1262411 0.1248443 -0.9841123
vn 0.6258677 0.04817126 0.7784402
vn 0.2851603 -0.4328945 -0.8551525
vn 0.0778777 0.7907612 0.6071504
vn -0.2858863 0.09413838 -0.9536284
vn 0.5116463 -0.1262066 0.8498765
vn 0.1993935 -0.5637576 -0.8015109
vn -0.1345654 0.749863 0.6477636
vn 0.3346981 -0.242701 0.9105347
vn -0.3113116 0.6335013 0.708351
vn -0.4187014 0.00669967 -0.9080992
vn 0.06657793 -0.6511984 -0.7559816
vn -0.5044668 -0.1241644 -0.8544568
vn 0.1220064 -0.2835533 0.9511635
vn -0.09306725 -0.6819034 -0.7254972
vn -0.4254947 0.4593607 0.7797064
vn -0.5301266 -0.2785293 -0.8008665
vn -0.09399307 -0.2425486 0.9655752
vn -0.2552372 -0.6511976 -0.7146997
vn -0.4597415 0.2539021 0.8509826
vn -0.4917723 -0.4328946 -0.7554882
vn -0.2803863 -0.125979 0.9515843
vn -0.3952432 -0.5637577 -0.7252309
vn -0.4088043 0.04836193 0.9113398
g fp_smarty_ld_lens2_0
f 3/3/3 2/2/2 1/1/1
f 1/1/1 2/2/2 4/4/4
f 5/5/5 2/2/2 3/3/3
f 4/4/4 2/2/2 6/6/6
f 7/7/7 2/2/2 5/5/5
f 6/6/6 2/2/2 8/8/8
f 9/9/9 2/2/2 7/7/7
f 8/8/8 2/2/2 10/10/10
f 11/11/11 2/2/2 9/9/9
f 10/10/10 2/2/2 12/12/12
f 13/13/13 2/2/2 11/11/11
f 12/12/12 2/2/2 14/14/14
f 15/15/15 2/2/2 13/13/13
f 14/14/14 2/2/2 16/16/16
f 17/17/17 2/2/2 15/15/15
f 16/16/16 2/2/2 17/17/17
f 20/20/20 19/19/19 18/18/18
f 21/21/21 20/20/20 18/18/18
f 22/22/22 20/20/20 21/21/21
f 21/21/21 18/18/18 23/23/23
f 20/20/20 24/24/24 19/19/19
f 22/22/22 24/24/24 20/20/20
f 24/24/24 25/25/25 19/19/19
f 26/26/26 21/21/21 23/23/23
f 22/22/22 21/21/21 26/26/26
f 26/26/26 23/23/23 27/27/27
f 24/24/24 28/28/28 25/25/25
f 22/22/22 28/28/28 24/24/24
f 28/28/28 29/29/29 25/25/25
f 30/30/30 26/26/26 27/27/27
f 22/22/22 26/26/26 30/30/30
f 30/30/30 27/27/27 31/31/31
f 28/28/28 32/32/32 29/29/29
f 22/22/22 32/32/32 28/28/28
f 32/32/32 33/33/33 29/29/29
f 34/34/34 30/30/30 31/31/31
f 22/22/22 30/30/30 34/34/34
f 22/22/22 35/35/35 32/32/32
f 32/32/32 35/35/35 33/33/33
f 22/22/22 34/34/34 36/36/36
f 34/34/34 31/31/31 37/37/37
f 36/36/36 34/34/34 37/37/37
f 35/35/35 38/38/38 33/33/33
f 36/36/36 37/37/37 39/39/39
f 35/35/35 40/40/40 38/38/38
f 22/22/22 40/40/40 35/35/35
f 40/40/40 41/41/41 38/38/38
f 42/42/42 36/36/36 39/39/39
f 22/22/22 36/36/36 42/42/42
f 42/42/42 39/39/39 43/43/43
f 40/40/40 44/44/44 41/41/41
f 22/22/22 44/44/44 40/40/40
f 44/44/44 45/45/45 41/41/41
f 46/46/46 42/42/42 43/43/43
f 22/22/22 42/42/42 46/46/46
f 46/46/46 43/43/43 47/47/47
f 44/44/44 48/48/48 45/45/45
f 22/22/22 48/48/48 44/44/44
f 48/48/48 49/49/49 45/45/45
f 50/50/50 46/46/46 47/47/47
f 22/22/22 46/46/46 50/50/50
f 50/50/50 47/47/47 49/49/49
f 48/48/48 50/50/50 49/49/49
f 22/22/22 50/50/50 48/48/48
