g glassShard02_COL
v 0.2995424 0.6275346 0.6290676
v 0.366128 2.060147 0.2284734
v 0.4597569 1.15859 0.3695156
v 0.7239847 0.2414416 0.5431439
v 0.4916706 1.43302 0.07261725
v 0.3879166 3.115585 0.3770306
v 0.04432011 1.920984 0.3007681
v -0.1307058 2.373545 0.5046703
v 0.09879017 4.098645 0.3301355
v 0.2225199 0.1719937 0.6879837
v -0.1563482 1.141919 0.5654237
v -0.2999344 1.509518 -0.3031881
v -0.4575739 2.672145 0.4639193
v -0.2678423 3.389732 0.2338736
v -0.4065485 2.112352 -0.3332551
v -0.4513788 0.06876928 0.7316868
v 0.1705627 -0.398448 0.594557
v -0.4335499 0.9605278 0.4915668
v -1.056616 0.08843775 0.1337888
v -0.1417227 -0.4990227 0.5092751
v -0.7017946 1.037985 0.005863381
v -0.4419708 -0.02152917 -0.3196867
v 0.1549082 -0.9003371 0.1437847
v -0.1996984 -0.7940875 0.1789677
v -0.6887503 -0.3851734 -0.009145546
v -0.04570484 -0.6679487 -0.2151916
v 0.2554274 0.2330018 -0.5951107
v 0.5784912 -0.4871706 0.2442033
v 0.6387196 0.02546394 -0.5443104
v -0.2164373 1.860581 -0.5300649
v -0.1551456 3.440869 -0.3207472
v 0.7864389 -0.2052236 -0.216821
v 0.9491711 0.07180952 0.1882288
v 0.3411808 1.122962 -0.4089645
v 0.8473692 0.663536 -0.03939228
v 0.9777975 0.1438249 -0.1360763
v 0.3888721 2.782606 -0.3486784
v 0.3828135 2.194072 -0.3368986
v 0.320013 3.350973 0.10763
v 0.3765049 3.765604 0.292658
v 0.2074175 3.985293 -0.4127834
v 0.3993378 4.479905 0.05228538
v -0.3618393 4.305786 -0.1051743
v 0.08098984 4.540417 -0.303376
v 0.5655279 4.796792 0.3158829
v 0.6637697 5.153604 -0.3056367
v -0.4069147 3.193544 -0.03961306
v -0.6833897 2.874559 -0.07456569
v -0.2465324 4.594424 0.1905267
v -0.11059 5.784928 -0.470507
v -0.07097149 5.778253 0.3910066
v 0.1908627 5.386292 -0.5082915
v -0.3104219 5.452637 0.1588175
v -0.06015015 7.126239 0.5439131
v 0.3977098 6.15836 0.3433291
v 0.3535643 6.732482 -0.3765548
v 0.6932688 5.342822 -0.03326588
v 0.5343122 6.409961 -0.01072054
v 0.42346 7.424582 0.4141228
v -0.4675264 6.586619 -0.03634625
v 0.6260271 7.91116 0.03087444
v 0.1241093 7.949811 -0.5497196
v -0.3012896 6.995691 -0.4678605
v 0.6512613 8.008733 -0.342994
v 0.4716301 8.178375 -0.1118815
v 0.0008707047 8.260133 -0.2783077
v -0.1558981 7.426489 -0.4104736
v -0.6642971 7.391613 -0.2112802
v -0.5162477 7.403915 0.1684415
v -0.2991943 7.854317 0.4360444
v 0.002139091 8.159356 0.5717785
v 0.367691 8.701866 -0.03826933
v 0.1196499 8.943933 0.4522826
v -0.3135481 8.286092 0.370547
v -0.005632401 9.323936 0.4814717
v -0.04318428 8.651904 -0.1983526
v 0.4047308 9.114238 -0.0576375
v -0.5150251 8.818067 -0.001678753
v 0.3548985 9.742147 -0.001370239
v -0.01092243 9.477314 -0.4329131
v -0.4621544 9.291812 0.006263447
v 3.814697E-06 11.06818 5.912781E-06
v -0.2829504 9.991992 -0.002636719
vt 0 0
vt 0 0
vt 0 0
vt 0 0
vt 0 0
vt 0 0
vt 0 0
vt 0 0
vt 0 0
vt 0 0
vt 0 0
vt 0 0
vt 0 0
vt 0 0
vt 0 0
vt 0 0
vt 0 0
vt 0 0
vt 0 0
vt 0 0
vt 0 0
vt 0 0
vt 0 0
vt 0 0
vt 0 0
vt 0 0
vt 0 0
vt 0 0
vt 0 0
vt 0 0
vt 0 0
vt 0 0
vt 0 0
vt 0 0
vt 0 0
vt 0 0
vt 0 0
vt 0 0
vt 0 0
vt 0 0
vt 0 0
vt 0 0
vt 0 0
vt 0 0
vt 0 0
vt 0 0
vt 0 0
vt 0 0
vt 0 0
vt 0 0
vt 0 0
vt 0 0
vt 0 0
vt 0 0
vt 0 0
vt 0 0
vt 0 0
vt 0 0
vt 0 0
vt 0 0
vt 0 0
vt 0 0
vt 0 0
vt 0 0
vt 0 0
vt 0 0
vt 0 0
vt 0 0
vt 0 0
vt 0 0
vt 0 0
vt 0 0
vt 0 0
vt 0 0
vt 0 0
vt 0 0
vt 0 0
vt 0 0
vt 0 0
vt 0 0
vt 0 0
vt 0 0
vt 0 0
vn 0.266483 0.07917825 0.9605819
vn 0.6230265 0.1836511 0.7603356
vn 0.6230265 0.1836511 0.7603356
vn 0.266483 0.07917825 0.9605819
vn 0.9638184 0.1359628 0.2292777
vn 0.9999304 -0.01017454 0.005984562
vn 0.1015479 0.2635223 0.9592935
vn 0.1237785 0.08357231 0.9887844
vn 0.4428753 0.2732076 0.8539433
vn 0.266483 0.07917825 0.9605819
vn -0.574226 0.715579 0.3977575
vn -0.8089113 -0.171114 -0.5624789
vn -0.9174848 0.3188325 0.237839
vn -0.9404873 0.02881958 0.3386045
vn -0.6280161 0.1260729 -0.7679202
vn 0.04245565 0.1415566 0.9890193
vn 0.08952796 -0.1689136 0.9815564
vn -0.574226 0.715579 0.3977575
vn -0.6754676 -0.6368383 0.3717264
vn -0.5932997 -0.545794 0.5916963
vn -0.5400113 0.7322261 0.4150091
vn -0.6037935 -0.2395231 -0.7603039
vn 0.3711921 -0.6710185 -0.6418337
vn -0.6754676 -0.6368383 0.3717264
vn -0.6754676 -0.6368383 0.3717264
vn 0.3711921 -0.6710185 -0.6418337
vn 0.3966118 0.1511713 -0.9054537
vn 0.681703 -0.3900802 0.6189656
vn 0.3711921 -0.6710185 -0.6418337
vn -0.6280161 0.1260729 -0.7679202
vn -0.6280161 0.1260729 -0.7679202
vn 0.8345849 -0.5493921 0.04045329
vn 0.9668018 0.2177599 0.1336967
vn 0.2474616 0.02806889 -0.9684911
vn 0.9668018 0.2177599 0.1336967
vn 0.9668018 0.2177599 0.1336967
vn 0.2474616 0.02806889 -0.9684911
vn 0.9999304 -0.01017454 0.005984562
vn 0.9789189 0.1861264 -0.0841123
vn 0.4428753 0.2732076 0.8539433
vn 0.9562498 -0.120306 -0.2666697
vn 0.9104297 -0.4041686 -0.0881225
vn -0.9404873 0.02881958 0.3386045
vn 0.2696122 -0.2596617 -0.9272998
vn 0.9104297 -0.4041686 -0.0881225
vn 0.9104297 -0.4041686 -0.0881225
vn -0.740705 -0.009579055 -0.6717622
vn -0.6846048 0.5396841 0.4899566
vn -0.9404873 0.02881958 0.3386045
vn -0.8740348 -0.1366449 -0.4662523
vn 0.1901808 -0.1121607 0.9753211
vn 0.2696122 -0.2596617 -0.9272998
vn -0.8129107 -0.01241342 0.5822561
vn 0.1901808 -0.1121607 0.9753211
vn 0.1901808 -0.1121607 0.9753211
vn 0.9347239 0.1696204 -0.3122822
vn 0.8930366 0.1238833 0.4325952
vn 0.8930366 0.1238833 0.4325952
vn 0.9410512 -0.03793031 0.3361306
vn -0.8740348 -0.1366449 -0.4662523
vn 0.9147201 -0.06692573 0.3985074
vn -0.8428853 0.3400227 -0.4170482
vn -0.8740348 -0.1366449 -0.4662523
vn 0.9737999 -0.2273164 0.00640233
vn 0.3572046 0.1992407 -0.9125284
vn 0.3299968 0.2242473 -0.9169598
vn -0.8428853 0.3400227 -0.4170482
vn -0.75067 -0.3102487 -0.5833012
vn -0.9201072 -0.1459227 0.3634686
vn -0.6712813 -0.1118406 0.7327162
vn 0.2835913 -0.04293702 0.9579834
vn 0.3299968 0.2242473 -0.9169598
vn 0.4513713 0.0679094 0.8897485
vn -0.518453 0.06267091 0.8528065
vn -0.7184207 0.1872438 0.669934
vn 0.3299968 0.2242473 -0.9169598
vn 0.5175234 -0.2525544 -0.8175486
vn -0.33409 0.1522649 -0.9301609
vn 0.6904705 0.1855196 -0.6991659
vn 0.6904705 0.1855196 -0.6991659
vn -0.8224395 0.08235019 0.5628604
vn 0.6904705 0.1855196 -0.6991659
vn -0.7121237 0.1888936 -0.676165
g glassShard02_COL_0
f 3/3/3 2/2/2 1/1/1
f 3/3/3 1/1/1 4/4/4
f 2/2/2 3/3/3 5/5/5
f 3/3/3 4/4/4 5/5/5
f 5/5/5 6/6/6 2/2/2
f 1/1/1 2/2/2 7/7/7
f 6/6/6 8/8/8 2/2/2
f 7/7/7 2/2/2 8/8/8
f 9/9/9 8/8/8 6/6/6
f 4/4/4 1/1/1 10/10/10
f 7/7/7 11/11/11 1/1/1
f 1/1/1 11/11/11 10/10/10
f 12/12/12 11/11/11 7/7/7
f 7/7/7 8/8/8 13/13/13
f 8/8/8 9/9/9 14/14/14
f 13/13/13 8/8/8 14/14/14
f 12/12/12 7/7/7 15/15/15
f 13/13/13 15/15/15 7/7/7
f 11/11/11 16/16/16 10/10/10
f 10/10/10 17/17/17 4/4/4
f 17/17/17 10/10/10 16/16/16
f 11/11/11 12/12/12 18/18/18
f 16/16/16 11/11/11 18/18/18
f 16/16/16 18/18/18 19/19/19
f 16/16/16 20/20/20 17/17/17
f 16/16/16 19/19/19 20/20/20
f 12/12/12 21/21/21 18/18/18
f 18/18/18 21/21/21 19/19/19
f 22/22/22 21/21/21 12/12/12
f 19/19/19 21/21/21 22/22/22
f 23/23/23 17/17/17 20/20/20
f 24/24/24 20/20/20 19/19/19
f 20/20/20 24/24/24 23/23/23
f 19/19/19 25/25/25 24/24/24
f 19/19/19 22/22/22 25/25/25
f 24/24/24 25/25/25 26/26/26
f 22/22/22 26/26/26 25/25/25
f 23/23/23 24/24/24 26/26/26
f 12/12/12 27/27/27 22/22/22
f 27/27/27 26/26/26 22/22/22
f 28/28/28 4/4/4 17/17/17
f 23/23/23 28/28/28 17/17/17
f 26/26/26 29/29/29 23/23/23
f 26/26/26 27/27/27 29/29/29
f 27/27/27 12/12/12 30/30/30
f 15/15/15 30/30/30 12/12/12
f 31/31/31 30/30/30 15/15/15
f 23/23/23 32/32/32 28/28/28
f 23/23/23 29/29/29 32/32/32
f 28/28/28 33/33/33 4/4/4
f 33/33/33 28/28/28 32/32/32
f 34/34/34 27/27/27 30/30/30
f 29/29/29 27/27/27 34/34/34
f 33/33/33 35/35/35 4/4/4
f 34/34/34 35/35/35 29/29/29
f 4/4/4 35/35/35 5/5/5
f 35/35/35 34/34/34 5/5/5
f 36/36/36 32/32/32 29/29/29
f 36/36/36 33/33/33 32/32/32
f 33/33/33 36/36/36 35/35/35
f 36/36/36 29/29/29 35/35/35
f 34/34/34 30/30/30 37/37/37
f 30/30/30 31/31/31 37/37/37
f 5/5/5 34/34/34 38/38/38
f 38/38/38 34/34/34 37/37/37
f 5/5/5 38/38/38 6/6/6
f 38/38/38 37/37/37 6/6/6
f 39/39/39 6/6/6 37/37/37
f 31/31/31 39/39/39 37/37/37
f 40/40/40 6/6/6 39/39/39
f 40/40/40 9/9/9 6/6/6
f 40/40/40 39/39/39 41/41/41
f 41/41/41 39/39/39 31/31/31
f 42/42/42 9/9/9 40/40/40
f 41/41/41 42/42/42 40/40/40
f 41/41/41 31/31/31 43/43/43
f 42/42/42 41/41/41 44/44/44
f 43/43/43 44/44/44 41/41/41
f 42/42/42 45/45/45 9/9/9
f 42/42/42 44/44/44 46/46/46
f 46/46/46 45/45/45 42/42/42
f 43/43/43 31/31/31 47/47/47
f 47/47/47 31/31/31 48/48/48
f 31/31/31 15/15/15 48/48/48
f 48/48/48 15/15/15 13/13/13
f 13/13/13 47/47/47 48/48/48
f 13/13/13 14/14/14 47/47/47
f 43/43/43 47/47/47 14/14/14
f 49/49/49 43/43/43 14/14/14
f 14/14/14 9/9/9 49/49/49
f 49/49/49 44/44/44 43/43/43
f 49/49/49 50/50/50 44/44/44
f 49/49/49 9/9/9 51/51/51
f 9/9/9 45/45/45 51/51/51
f 46/46/46 44/44/44 52/52/52
f 44/44/44 50/50/50 52/52/52
f 49/49/49 53/53/53 50/50/50
f 53/53/53 49/49/49 51/51/51
f 53/53/53 51/51/51 54/54/54
f 55/55/55 51/51/51 45/45/45
f 54/54/54 51/51/51 55/55/55
f 56/56/56 46/46/46 52/52/52
f 56/56/56 52/52/52 50/50/50
f 46/46/46 57/57/57 45/45/45
f 57/57/57 55/55/55 45/45/45
f 46/46/46 58/58/58 57/57/57
f 57/57/57 58/58/58 55/55/55
f 58/58/58 46/46/46 56/56/56
f 58/58/58 59/59/59 55/55/55
f 54/54/54 55/55/55 59/59/59
f 54/54/54 60/60/60 53/53/53
f 50/50/50 53/53/53 60/60/60
f 58/58/58 56/56/56 61/61/61
f 61/61/61 59/59/59 58/58/58
f 62/62/62 56/56/56 50/50/50
f 50/50/50 60/60/60 63/63/63
f 62/62/62 50/50/50 63/63/63
f 61/61/61 56/56/56 64/64/64
f 64/64/64 56/56/56 62/62/62
f 61/61/61 64/64/64 65/65/65
f 65/65/65 64/64/64 62/62/62
f 65/65/65 62/62/62 66/66/66
f 63/63/63 67/67/67 62/62/62
f 62/62/62 67/67/67 66/66/66
f 60/60/60 68/68/68 63/63/63
f 63/63/63 68/68/68 67/67/67
f 68/68/68 60/60/60 69/69/69
f 68/68/68 69/69/69 67/67/67
f 54/54/54 69/69/69 60/60/60
f 69/69/69 70/70/70 67/67/67
f 69/69/69 54/54/54 70/70/70
f 66/66/66 67/67/67 70/70/70
f 59/59/59 71/71/71 54/54/54
f 71/71/71 70/70/70 54/54/54
f 65/65/65 72/72/72 61/61/61
f 66/66/66 72/72/72 65/65/65
f 73/73/73 59/59/59 61/61/61
f 59/59/59 73/73/73 71/71/71
f 73/73/73 61/61/61 72/72/72
f 71/71/71 74/74/74 70/70/70
f 74/74/74 66/66/66 70/70/70
f 75/75/75 71/71/71 73/73/73
f 75/75/75 74/74/74 71/71/71
f 66/66/66 76/76/76 72/72/72
f 73/73/73 72/72/72 77/77/77
f 77/77/77 72/72/72 76/76/76
f 74/74/74 78/78/78 66/66/66
f 66/66/66 78/78/78 76/76/76
f 77/77/77 79/79/79 73/73/73
f 79/79/79 75/75/75 73/73/73
f 80/80/80 77/77/77 76/76/76
f 80/80/80 76/76/76 78/78/78
f 80/80/80 79/79/79 77/77/77
f 74/74/74 81/81/81 78/78/78
f 75/75/75 81/81/81 74/74/74
f 81/81/81 80/80/80 78/78/78
f 80/80/80 82/82/82 79/79/79
f 79/79/79 82/82/82 75/75/75
f 83/83/83 80/80/80 81/81/81
f 81/81/81 75/75/75 83/83/83
f 83/83/83 82/82/82 80/80/80
f 83/83/83 75/75/75 82/82/82
