g glass_ld
v 0 0.6164564 0.1136096
v -0.2229557 0.6213055 0.05974802
v 0 0.6213942 0.06378621
v 0.2229557 0.6213055 0.05974802
v 0.2227893 0.6129924 0.1115905
v 0.4470211 0.6206843 0.04023891
v 0.4456897 0.6103421 0.1018359
v 0.6193366 0.6104938 0.02126401
v 0.6163393 0.6011252 0.08716138
v 0.7186296 0.5813424 0.007573466
v 0.713297 0.5741842 0.06475481
v 0.7624381 0.4914204 -0.0001359978
v 0.7550404 0.4875028 0.0456505
v 0.7683005 0.2989187 -0.001167647
v 0.7600467 0.2990644 0.04088278
v 0.7461752 0.1067691 0.002725958
v 0.698621 0.4753404 0.1066229
v 0.6888171 0.5562598 0.1130548
v 0.6094944 0.5562599 0.132732
v 0.4443583 0.5562599 0.1438003
v 0.6117197 0.4753406 0.1393751
v 0.7384003 0.1109009 0.04864017
v 0.7060214 0.01790386 0.009792256
v 0.7011575 0.2992102 0.1035505
v 0.2226229 0.5562598 0.1438003
v 0.6899635 0.03397807 0.09091429
v 0.6156245 -0.009548779 0.02171967
v 0.4443583 0.3872754 0.1518878
v 0.6116401 0.2992102 0.14067
v 0.6915416 0.1411871 0.1079197
v 0.6094505 0.1157032 0.1397908
v 0.6061667 0.01764742 0.1105157
v 0.4427705 -0.01746045 0.04019663
v 0.4443581 0.1150327 0.1507325
v 0.4439612 0.01172694 0.1228076
v 0.2643117 0.0186232 0.05668438
v 0.2274026 0.4059432 0.1518878
v 0.2718385 0.148175 0.1507325
v 0.2699568 0.04797894 0.1269295
v 0.1571008 0.1231565 0.06264412
v 0.161854 0.1309573 0.1278787
v 0.09272131 0.2265011 0.06326984
v 0.1338234 0.2973151 0.1507325
v 0.1035117 0.2468755 0.1285759
v 0 0.2585357 0.06382469
v -6.622739E-11 0.2799503 0.125193
v -0.09272131 0.2265011 0.06326984
v 0 0.354647 0.1472664
v 2.483527E-11 0.45272 0.1518878
v -6.622739E-11 0.5562597 0.1438003
v -0.2226229 0.5562598 0.1438003
v -0.2274026 0.4059432 0.1518878
v -0.1338234 0.2973151 0.1507325
v -0.1035117 0.2468755 0.1285759
v -0.161854 0.1309574 0.1278787
v -0.1571008 0.1231565 0.06264412
v -0.2643117 0.0186232 0.05668438
v -0.2718385 0.148175 0.1507325
v -0.2699568 0.04797894 0.1269295
v -0.4439612 0.01172694 0.1228076
v -0.4427705 -0.01746045 0.04019663
v -0.6156245 -0.009548779 0.02171967
v -0.4443582 0.1150327 0.1507325
v -0.6061667 0.01764742 0.1105157
v -0.4443583 0.3872754 0.1518878
v -0.6899635 0.03397807 0.09091429
v -0.7060214 0.01790386 0.009792256
v -0.7461752 0.1067691 0.002725958
v -0.6094506 0.1157032 0.1397908
v -0.7384003 0.1109009 0.04864017
v -0.6915416 0.1411871 0.1079197
v -0.7600466 0.2990644 0.04088278
v -0.7683005 0.2989187 -0.001167647
v -0.7624381 0.4914204 -0.0001359978
v -0.6116401 0.2992102 0.14067
v -0.7011575 0.2992102 0.1035505
v -0.6117197 0.4753406 0.1393751
v -0.698621 0.4753404 0.1066229
v -0.7550404 0.4875028 0.0456505
v -0.713297 0.5741842 0.06475481
v -0.7186296 0.5813424 0.007573466
v -0.6193366 0.6104938 0.02126401
v -0.6888171 0.5562598 0.1130548
v -0.4443583 0.5562599 0.1438003
v -0.6163393 0.6011252 0.08716138
v -0.6094944 0.5562599 0.132732
v -0.4456897 0.6103421 0.1018359
v -0.4470211 0.6206843 0.04023891
v -0.2227893 0.6129924 0.1115905
vt 0.5000543 0.6538754
vt 0.3863874 0.6848055
vt 0.5000642 0.68009
vt 0.6137444 0.6847196
vt 0.6141798 0.6570908
vt 0.733119 0.6986039
vt 0.7308999 0.6656695
vt 0.8332222 0.6972795
vt 0.8218412 0.6646918
vt 0.8952869 0.6714352
vt 0.8746126 0.6511449
vt 0.9288599 0.6180533
vt 0.9065121 0.6100102
vt 0.9442619 0.5096764
vt 0.9218111 0.5087194
vt 0.9357324 0.3997731
vt 0.8657445 0.5959248
vt 0.8528706 0.6337378
vt 0.8143742 0.632492
vt 0.7300644 0.6296214
vt 0.8176948 0.5913064
vt 0.9123029 0.4056114
vt 0.9085389 0.3446084
vt 0.8759976 0.5058118
vt 0.6150724 0.6227386
vt 0.8756641 0.3697166
vt 0.8558168 0.3146653
vt 0.7341241 0.5418814
vt 0.8250505 0.5025662
vt 0.8740265 0.4238622
vt 0.8294083 0.4094868
vt 0.8340892 0.3577418
vt 0.7548802 0.3012203
vt 0.7450545 0.4021252
vt 0.7508187 0.3468881
vt 0.6516206 0.3194144
vt 0.6198977 0.5435144
vt 0.6548852 0.4122654
vt 0.659134 0.3586518
vt 0.5798178 0.3684847
vt 0.5997871 0.396291
vt 0.5394053 0.4196548
vt 0.5736287 0.4826159
vt 0.5587316 0.4523277
vt 0.4999726 0.4372685
vt 0.4999845 0.4691322
vt 0.4605266 0.4196846
vt 0.5000004 0.5110326
vt 0.50002 0.5630166
vt 0.5000409 0.618352
vt 0.3850128 0.6228254
vt 0.3801277 0.5436049
vt 0.4263507 0.4826716
vt 0.4412249 0.452372
vt 0.400127 0.3963664
vt 0.4200753 0.3685451
vt 0.3482356 0.3195288
vt 0.3450412 0.4123824
vt 0.3407518 0.3587719
vt 0.2490582 0.3470775
vt 0.2449622 0.3014128
vt 0.1440358 0.314934
vt 0.2548641 0.4023103
vt 0.1657959 0.3579941
vt 0.2659001 0.5420582
vt 0.1242301 0.3700004
vt 0.09133625 0.3449169
vt 0.06418443 0.4001021
vt 0.170516 0.4097354
vt 0.08761847 0.4059227
vt 0.1259085 0.4241447
vt 0.078188 0.5090379
vt 0.05573809 0.5100119
vt 0.07122171 0.618377
vt 0.1749439 0.5028117
vt 0.1239994 0.5060956
vt 0.1823665 0.5915462
vt 0.1343205 0.5962009
vt 0.09356344 0.6103171
vt 0.1254941 0.6514277
vt 0.104835 0.6717337
vt 0.1669194 0.6975311
vt 0.1472229 0.6340042
vt 0.2700261 0.6297951
vt 0.1782757 0.6649348
vt 0.1857185 0.6327293
vt 0.2692177 0.6658438
vt 0.2670236 0.6987798
vt 0.3859313 0.657177
vn 0 0.7837028 0.621136
vn -0.01413872 0.9889736 0.147416
vn 0 0.9916108 0.1292594
vn 0.01413871 0.9889734 0.1474164
vn 0.01582995 0.8021923 0.5968558
vn 0.04433959 0.9863335 0.1586823
vn 0.04664928 0.8471747 0.5292626
vn 0.1636292 0.9746647 0.1524934
vn 0.1478075 0.8893896 0.4325958
vn 0.6394054 0.7510189 0.1647155
vn 0.6437056 0.6491423 0.4052868
vn 0.9695985 0.174407 0.1716412
vn 0.8742762 0.1028702 0.4744039
vn 0.982788 -0.04056229 0.1802287
vn 0.8641897 -0.02970357 0.5022888
vn 0.9501491 -0.2344766 0.2055175
vn 0.5613714 0.02263866 0.8272544
vn 0.4854148 0.3375619 0.8064889
vn 0.1262183 0.3014341 0.945096
vn 0.02999705 0.2338894 0.9718004
vn 0.1738562 0.02991993 0.9843164
vn 0.8837754 -0.166719 0.4372022
vn 0.6233924 -0.7312285 0.2769238
vn 0.5666849 -0.01219114 0.8238443
vn 0.007708892 0.2071297 0.978283
vn 0.5452439 -0.6546212 0.5236223
vn 0.1519326 -0.9413088 0.3014203
vn 0.02336355 0.01635924 0.9995932
vn 0.175549 -0.002750142 0.9844669
vn 0.5637425 -0.04169535 0.8248975
vn 0.1433571 -0.08244524 0.986231
vn 0.1354156 -0.701492 0.6996939
vn -0.04046685 -0.9404311 0.3375676
vn 0.02464486 -0.08428236 0.9961371
vn -0.01686099 -0.658322 0.7525475
vn -0.3398634 -0.880347 0.3308807
vn -0.0004268742 0.02302345 0.9997348
vn -0.03482755 -0.07060456 0.9968961
vn -0.2524381 -0.6377275 0.7277216
vn -0.7386769 -0.6322545 0.2336891
vn -0.5538695 -0.4608923 0.6934023
vn -0.6553788 -0.7043657 0.2726677
vn -0.06893966 -0.08172519 0.9942677
vn -0.3761377 -0.4237495 0.8239883
vn 0 -0.9413077 0.3375499
vn 0 -0.6078518 0.7940505
vn 0.6553788 -0.7043657 0.2726677
vn 0 -0.07643382 0.9970747
vn 0 0.03302247 0.9994546
vn 0 0.2065986 0.9784258
vn -0.007708882 0.2071297 0.978283
vn 0.0004268747 0.02302345 0.9997348
vn 0.06893972 -0.08172519 0.9942677
vn 0.3761378 -0.4237496 0.8239882
vn 0.5538698 -0.4608923 0.6934021
vn 0.7386769 -0.6322545 0.2336891
vn 0.3398633 -0.880347 0.3308808
vn 0.03482756 -0.07060456 0.9968961
vn 0.252438 -0.6377275 0.7277216
vn 0.01686101 -0.658322 0.7525475
vn 0.04046686 -0.940431 0.3375676
vn -0.1519326 -0.9413088 0.3014203
vn -0.02464488 -0.08428236 0.9961371
vn -0.1354156 -0.7014921 0.6996938
vn -0.02336356 0.01635924 0.9995932
vn -0.5452439 -0.6546212 0.5236222
vn -0.6233923 -0.7312286 0.2769238
vn -0.950149 -0.2344766 0.2055181
vn -0.1433572 -0.08244527 0.986231
vn -0.8837754 -0.166719 0.4372023
vn -0.5637426 -0.04169524 0.8248974
vn -0.8641897 -0.02970359 0.5022888
vn -0.9827878 -0.04056253 0.1802295
vn -0.9695985 0.1744066 0.1716415
vn -0.175549 -0.002750127 0.9844669
vn -0.5666851 -0.01219106 0.8238443
vn -0.1738563 0.02991992 0.9843164
vn -0.5613716 0.02263868 0.8272542
vn -0.8742762 0.1028701 0.4744037
vn -0.6437056 0.6491423 0.4052866
vn -0.6394057 0.7510189 0.1647152
vn -0.1636291 0.9746647 0.1524932
vn -0.4854149 0.3375617 0.8064889
vn -0.02999705 0.2338894 0.9718004
vn -0.1478075 0.8893896 0.4325956
vn -0.1262183 0.3014339 0.945096
vn -0.04664928 0.8471748 0.5292624
vn -0.04433959 0.9863337 0.1586817
vn -0.01582994 0.8021924 0.5968556
g glass_ld_0
f 3/3/3 2/2/2 1/1/1
f 4/4/4 3/3/3 1/1/1
f 5/5/5 4/4/4 1/1/1
f 6/6/6 4/4/4 5/5/5
f 7/7/7 6/6/6 5/5/5
f 8/8/8 6/6/6 7/7/7
f 9/9/9 8/8/8 7/7/7
f 10/10/10 8/8/8 9/9/9
f 11/11/11 10/10/10 9/9/9
f 12/12/12 10/10/10 11/11/11
f 13/13/13 12/12/12 11/11/11
f 14/14/14 12/12/12 13/13/13
f 15/15/15 14/14/14 13/13/13
f 16/16/16 14/14/14 15/15/15
f 13/13/13 11/11/11 17/17/17
f 15/15/15 13/13/13 17/17/17
f 11/11/11 9/9/9 18/18/18
f 11/11/11 18/18/18 17/17/17
f 9/9/9 7/7/7 19/19/19
f 9/9/9 19/19/19 18/18/18
f 7/7/7 5/5/5 20/20/20
f 7/7/7 20/20/20 19/19/19
f 18/18/18 19/19/19 21/21/21
f 17/17/17 18/18/18 21/21/21
f 21/21/21 19/19/19 20/20/20
f 22/22/22 16/16/16 15/15/15
f 23/23/23 16/16/16 22/22/22
f 24/24/24 15/15/15 17/17/17
f 24/24/24 17/17/17 21/21/21
f 22/22/22 15/15/15 24/24/24
f 5/5/5 25/25/25 20/20/20
f 5/5/5 1/1/1 25/25/25
f 26/26/26 23/23/23 22/22/22
f 27/27/27 23/23/23 26/26/26
f 28/28/28 21/21/21 20/20/20
f 28/28/28 20/20/20 25/25/25
f 29/29/29 24/24/24 21/21/21
f 29/29/29 21/21/21 28/28/28
f 30/30/30 22/22/22 24/24/24
f 30/30/30 24/24/24 29/29/29
f 26/26/26 22/22/22 30/30/30
f 31/31/31 30/30/30 29/29/29
f 26/26/26 30/30/30 31/31/31
f 31/31/31 29/29/29 28/28/28
f 32/32/32 27/27/27 26/26/26
f 32/32/32 26/26/26 31/31/31
f 33/33/33 27/27/27 32/32/32
f 34/34/34 31/31/31 28/28/28
f 32/32/32 31/31/31 34/34/34
f 35/35/35 33/33/33 32/32/32
f 35/35/35 32/32/32 34/34/34
f 36/36/36 33/33/33 35/35/35
f 34/34/34 28/28/28 37/37/37
f 37/37/37 28/28/28 25/25/25
f 35/35/35 34/34/34 38/38/38
f 38/38/38 34/34/34 37/37/37
f 39/39/39 36/36/36 35/35/35
f 39/39/39 35/35/35 38/38/38
f 40/40/40 36/36/36 39/39/39
f 41/41/41 40/40/40 39/39/39
f 41/41/41 39/39/39 38/38/38
f 42/42/42 40/40/40 41/41/41
f 38/38/38 43/43/43 41/41/41
f 43/43/43 38/38/38 37/37/37
f 44/44/44 42/42/42 41/41/41
f 43/43/43 44/44/44 41/41/41
f 45/45/45 42/42/42 44/44/44
f 46/46/46 45/45/45 44/44/44
f 44/44/44 43/43/43 46/46/46
f 47/47/47 45/45/45 46/46/46
f 43/43/43 37/37/37 48/48/48
f 43/43/43 48/48/48 46/46/46
f 37/37/37 49/49/49 48/48/48
f 37/37/37 25/25/25 49/49/49
f 25/25/25 50/50/50 49/49/49
f 1/1/1 50/50/50 25/25/25
f 50/50/50 51/51/51 49/49/49
f 50/50/50 1/1/1 51/51/51
f 49/49/49 52/52/52 48/48/48
f 51/51/51 52/52/52 49/49/49
f 46/46/46 48/48/48 53/53/53
f 52/52/52 53/53/53 48/48/48
f 54/54/54 47/47/47 46/46/46
f 54/54/54 46/46/46 53/53/53
f 47/47/47 54/54/54 55/55/55
f 54/54/54 53/53/53 55/55/55
f 56/56/56 47/47/47 55/55/55
f 57/57/57 56/56/56 55/55/55
f 53/53/53 58/58/58 55/55/55
f 58/58/58 53/53/53 52/52/52
f 59/59/59 57/57/57 55/55/55
f 58/58/58 59/59/59 55/55/55
f 57/57/57 59/59/59 60/60/60
f 60/60/60 59/59/59 58/58/58
f 61/61/61 57/57/57 60/60/60
f 62/62/62 61/61/61 60/60/60
f 63/63/63 58/58/58 52/52/52
f 63/63/63 60/60/60 58/58/58
f 64/64/64 62/62/62 60/60/60
f 64/64/64 60/60/60 63/63/63
f 65/65/65 63/63/63 52/52/52
f 65/65/65 52/52/52 51/51/51
f 62/62/62 64/64/64 66/66/66
f 67/67/67 62/62/62 66/66/66
f 68/68/68 67/67/67 66/66/66
f 69/69/69 64/64/64 63/63/63
f 69/69/69 63/63/63 65/65/65
f 66/66/66 64/64/64 69/69/69
f 70/70/70 68/68/68 66/66/66
f 71/71/71 66/66/66 69/69/69
f 70/70/70 66/66/66 71/71/71
f 68/68/68 70/70/70 72/72/72
f 73/73/73 68/68/68 72/72/72
f 74/74/74 73/73/73 72/72/72
f 71/71/71 69/69/69 75/75/75
f 75/75/75 69/69/69 65/65/65
f 70/70/70 71/71/71 76/76/76
f 76/76/76 71/71/71 75/75/75
f 72/72/72 70/70/70 76/76/76
f 77/77/77 75/75/75 65/65/65
f 76/76/76 75/75/75 77/77/77
f 72/72/72 76/76/76 78/78/78
f 78/78/78 76/76/76 77/77/77
f 79/79/79 74/74/74 72/72/72
f 79/79/79 72/72/72 78/78/78
f 74/74/74 79/79/79 80/80/80
f 80/80/80 79/79/79 78/78/78
f 81/81/81 74/74/74 80/80/80
f 82/82/82 81/81/81 80/80/80
f 83/83/83 80/80/80 78/78/78
f 83/83/83 78/78/78 77/77/77
f 77/77/77 65/65/65 84/84/84
f 84/84/84 65/65/65 51/51/51
f 85/85/85 82/82/82 80/80/80
f 85/85/85 80/80/80 83/83/83
f 86/86/86 83/83/83 77/77/77
f 86/86/86 85/85/85 83/83/83
f 86/86/86 77/77/77 84/84/84
f 82/82/82 85/85/85 87/87/87
f 87/87/87 85/85/85 86/86/86
f 84/84/84 87/87/87 86/86/86
f 88/88/88 82/82/82 87/87/87
f 2/2/2 88/88/88 87/87/87
f 51/51/51 89/89/89 84/84/84
f 89/89/89 87/87/87 84/84/84
f 89/89/89 2/2/2 87/87/87
f 1/1/1 89/89/89 51/51/51
f 2/2/2 89/89/89 1/1/1
