g grassThinSprig01_LOD3
v 0.4556724 2.042429 0.4380741
v 0.2922809 -0.1008404 0.4935821
v -0.01005456 -0.1002682 -0.3742804
v 0.04615882 1.398631 -0.3928757
v -0.601325 2.045433 -0.3306988
v -0.1347228 -0.0535305 -0.3271151
v -0.06992455 -0.03756099 0.5894758
v -0.3355114 1.438793 0.582529
v -0.2529494 2.045793 0.7158209
v -0.5055624 -0.09720187 0.1565305
v 0.4592786 -0.1625956 -0.02869289
v 0.7118918 1.9804 0.5305974
vt 0.4669831 0.9846545
vt 0.4669831 0.006968826
vt 0.01765159 0.006968826
vt 0.01765159 0.6872782
vt 0.4669831 0.9846545
vt 0.4669831 0.006968826
vt 0.01765159 0.006968826
vt 0.01765159 0.6872782
vt 0.4669831 0.9846545
vt 0.4669831 0.006968826
vt 0.9483959 0.006968826
vt 0.9483959 0.9846545
vn 0 1 0
vn 0 1 0
vn 0 1 0
vn 0 1 0
vn 0 1 0
vn 0 1 0
vn 0 1 0
vn 0 1 0
vn 0 1 0
vn 0 1 0
vn 0 1 0
vn 0 1 0
g grassThinSprig01_LOD3_0
f 3/3/3 2/2/2 1/1/1
f 4/4/4 3/3/3 1/1/1
f 7/7/7 6/6/6 5/5/5
f 8/8/8 7/7/7 5/5/5
f 11/11/11 10/10/10 9/9/9
f 12/12/12 11/11/11 9/9/9
