g grassThinSprig01
v 7.013927E-08 -0.09990339 -8.940697E-08
v 0.2968522 0.7984317 0.4925822
v 0.2922809 -0.1008404 0.4935821
v 0.004571298 0.7993683 -0.001000106
v -0.01005456 -0.1002682 -0.3742804
v -0.005483328 0.7990031 -0.3752803
v 0.04615882 1.398631 -0.3928757
v 0.0582743 1.411185 -0.01930537
v 0.3484943 1.398059 0.4749869
v 0.1698597 2.081617 -0.05773642
v 0.4556724 2.042429 0.4380741
v 0.03036445 -0.1470681 0.1989778
v 0.5379682 0.7559705 0.05690499
v 0.4592786 -0.1625956 -0.02869289
v 0.109054 0.771498 0.2845757
v -0.5055624 -0.09720187 0.1565305
v -0.4268728 0.8213639 0.2421284
v -0.3648525 1.335139 0.3838079
v 0.1685734 1.267212 0.4196044
v 0.5999888 1.269746 0.1985844
v 0.7118918 1.9804 0.5305974
v 0.2733909 1.926693 0.7327726
v -0.2529494 2.045793 0.7158209
v 0.01709937 -0.0275796 0.2254509
v -0.2635641 0.8364529 -0.3335128
v -0.1347228 -0.0535305 -0.3271151
v -0.1117419 0.8624042 0.2190531
v -0.06992455 -0.03756099 0.5894758
v -0.1987658 0.8524228 0.5830781
v -0.3355114 1.438793 0.582529
v -0.2523251 1.460547 0.2185703
v -0.4003097 1.422823 -0.3340618
v -0.4615468 2.108329 0.2220749
v -0.601325 2.045433 -0.3306988
v 7.013927E-08 -0.09990339 -8.940697E-08
v 0.2922809 -0.1008404 0.4935821
v 0.2968522 0.7984317 0.4925822
v 0.004571298 0.7993683 -0.001000106
v -0.01005456 -0.1002682 -0.3742804
v -0.005483328 0.7990031 -0.3752803
v 0.04615882 1.398631 -0.3928757
v 0.0582743 1.411185 -0.01930537
v 0.3484943 1.398059 0.4749869
v 0.1698597 2.081617 -0.05773642
v 0.4556724 2.042429 0.4380741
v 0.03036445 -0.1470681 0.1989778
v 0.4592786 -0.1625956 -0.02869289
v 0.5379682 0.7559705 0.05690499
v 0.109054 0.771498 0.2845757
v -0.5055624 -0.09720187 0.1565305
v -0.4268728 0.8213639 0.2421284
v -0.3648525 1.335139 0.3838079
v 0.1685734 1.267212 0.4196044
v 0.5999888 1.269746 0.1985844
v 0.7118918 1.9804 0.5305974
v 0.2733909 1.926693 0.7327726
v -0.2529494 2.045793 0.7158209
v 0.01709937 -0.0275796 0.2254509
v -0.1347228 -0.0535305 -0.3271151
v -0.2635641 0.8364529 -0.3335128
v -0.1117419 0.8624042 0.2190531
v -0.06992455 -0.03756099 0.5894758
v -0.1987658 0.8524228 0.5830781
v -0.3355114 1.438793 0.582529
v -0.2523251 1.460547 0.2185703
v -0.4003097 1.422823 -0.3340618
v -0.4615468 2.108329 0.2220749
v -0.601325 2.045433 -0.3306988
vt 0.192078 0.006968826
vt 0.4669832 0.4133975
vt 0.4669831 0.006968826
vt 0.192078 0.4133975
vt 0.01765159 0.006968826
vt 0.01765159 0.4133975
vt 0.01765159 0.6872782
vt 0.192078 0.6872782
vt 0.4669831 0.6872782
vt 0.192078 0.9846545
vt 0.4669831 0.9846545
vt 0.7214599 0.006968826
vt 0.9483959 0.4254242
vt 0.9483959 0.006968826
vt 0.7214599 0.4254242
vt 0.4669831 0.006968826
vt 0.4669828 0.4254242
vt 0.4669828 0.659851
vt 0.7214599 0.659851
vt 0.9483959 0.659851
vt 0.9483959 0.9846545
vt 0.7214599 0.9846545
vt 0.4669831 0.9846545
vt 0.192078 0.006968826
vt 0.4669832 0.4133975
vt 0.4669831 0.006968826
vt 0.192078 0.4133975
vt 0.01765159 0.006968826
vt 0.01765159 0.4133975
vt 0.01765159 0.6872782
vt 0.192078 0.6872782
vt 0.4669831 0.6872782
vt 0.192078 0.9846545
vt 0.4669831 0.9846545
vt 0.192078 0.006968826
vt 0.4669831 0.006968826
vt 0.4669832 0.4133975
vt 0.192078 0.4133975
vt 0.01765159 0.006968826
vt 0.01765159 0.4133975
vt 0.01765159 0.6872782
vt 0.192078 0.6872782
vt 0.4669831 0.6872782
vt 0.192078 0.9846545
vt 0.4669831 0.9846545
vt 0.7214599 0.006968826
vt 0.9483959 0.006968826
vt 0.9483959 0.4254242
vt 0.7214599 0.4254242
vt 0.4669831 0.006968826
vt 0.4669828 0.4254242
vt 0.4669828 0.659851
vt 0.7214599 0.659851
vt 0.9483959 0.659851
vt 0.9483959 0.9846545
vt 0.7214599 0.9846545
vt 0.4669831 0.9846545
vt 0.192078 0.006968826
vt 0.4669831 0.006968826
vt 0.4669832 0.4133975
vt 0.192078 0.4133975
vt 0.01765159 0.006968826
vt 0.01765159 0.4133975
vt 0.01765159 0.6872782
vt 0.192078 0.6872782
vt 0.4669831 0.6872782
vt 0.192078 0.9846545
vt 0.4669831 0.9846545
vn -0.9443241 0.005166037 0.328976
vn -0.8599418 0.03933535 0.5088739
vn -0.8604391 0.004940408 0.5095293
vn -0.9434874 0.03975125 0.3290157
vn -0.9996264 0.005111182 0.02684886
vn -0.9988781 0.03866323 0.02734425
vn -0.9936411 0.1091636 0.02758334
vn -0.924261 0.1298929 0.3589838
vn -0.8530924 0.1317723 0.5048457
vn -0.871077 0.1713166 0.4602994
vn -0.8478715 0.1698547 0.5022582
vn 0.1804852 -0.1065778 0.9777865
vn 0.4555317 -0.1804595 0.8717369
vn 0.4619463 -0.1214422 0.8785542
vn 0.1747328 -0.1709659 0.9696593
vn -0.08653495 -0.08508459 0.9926088
vn -0.09098399 -0.1448969 0.9852546
vn -0.1095406 -0.3438619 0.9326092
vn 0.1501456 -0.3773512 0.9138175
vn 0.4271292 -0.3770364 0.8218298
vn 0.4156055 -0.4404621 0.7957796
vn 0.1408968 -0.439924 0.8869131
vn -0.1170519 -0.4078768 0.9055028
vn 0.9871687 0.1423909 -0.07226855
vn 0.9482417 0.1701046 -0.2681458
vn 0.9536372 0.1361267 -0.2684132
vn 0.9816018 0.1765319 -0.07276198
vn 0.9620039 0.1409484 0.233842
vn 0.956782 0.1740914 0.2329387
vn 0.9420985 0.2432135 0.2308625
vn 0.9585097 0.2640879 -0.1073155
vn 0.9278843 0.2606094 -0.2666709
vn 0.9281101 0.3008977 -0.2192539
vn 0.9169638 0.2975444 -0.2657908
vn 0.9443241 -0.005166034 -0.328976
vn 0.8604391 -0.004940403 -0.5095293
vn 0.8599418 -0.03933534 -0.5088739
vn 0.9434874 -0.03975124 -0.3290157
vn 0.9996264 -0.005111182 -0.02684886
vn 0.9988781 -0.03866323 -0.02734425
vn 0.9936411 -0.1091636 -0.02758335
vn 0.924261 -0.1298929 -0.3589838
vn 0.8530924 -0.1317723 -0.5048457
vn 0.871077 -0.1713166 -0.4602994
vn 0.8478715 -0.1698547 -0.5022581
vn -0.1804852 0.1065778 -0.9777865
vn -0.4619463 0.1214422 -0.8785542
vn -0.4555317 0.1804596 -0.8717369
vn -0.1747329 0.1709659 -0.9696593
vn 0.08653498 0.08508459 -0.9926088
vn 0.09098402 0.1448969 -0.9852546
vn 0.1095406 0.3438619 -0.9326092
vn -0.1501456 0.3773512 -0.9138175
vn -0.4271293 0.3770364 -0.8218297
vn -0.4156055 0.4404621 -0.7957796
vn -0.1408969 0.439924 -0.8869131
vn 0.117052 0.4078767 -0.9055029
vn -0.9871687 -0.1423909 0.07226853
vn -0.9536372 -0.1361267 0.2684132
vn -0.9482416 -0.1701047 0.2681458
vn -0.9816018 -0.1765319 0.07276199
vn -0.9620039 -0.1409484 -0.233842
vn -0.956782 -0.1740914 -0.2329387
vn -0.9420985 -0.2432135 -0.2308626
vn -0.9585097 -0.2640879 0.1073156
vn -0.9278843 -0.2606094 0.266671
vn -0.9281101 -0.3008977 0.219254
vn -0.9169638 -0.2975444 0.2657909
g grassThinSprig01_0
f 3/3/3 2/2/2 1/1/1
f 2/2/2 4/4/4 1/1/1
f 1/1/1 4/4/4 5/5/5
f 4/4/4 6/6/6 5/5/5
f 6/6/6 4/4/4 7/7/7
f 4/4/4 2/2/2 8/8/8
f 4/4/4 8/8/8 7/7/7
f 2/2/2 9/9/9 8/8/8
f 8/8/8 10/10/10 7/7/7
f 9/9/9 11/11/11 8/8/8
f 11/11/11 10/10/10 8/8/8
f 14/14/14 13/13/13 12/12/12
f 13/13/13 15/15/15 12/12/12
f 12/12/12 15/15/15 16/16/16
f 15/15/15 17/17/17 16/16/16
f 17/17/17 15/15/15 18/18/18
f 15/15/15 13/13/13 19/19/19
f 15/15/15 19/19/19 18/18/18
f 13/13/13 20/20/20 19/19/19
f 20/20/20 21/21/21 19/19/19
f 21/21/21 22/22/22 19/19/19
f 19/19/19 22/22/22 18/18/18
f 22/22/22 23/23/23 18/18/18
f 26/26/26 25/25/25 24/24/24
f 25/25/25 27/27/27 24/24/24
f 24/24/24 27/27/27 28/28/28
f 27/27/27 29/29/29 28/28/28
f 29/29/29 27/27/27 30/30/30
f 27/27/27 25/25/25 31/31/31
f 27/27/27 31/31/31 30/30/30
f 25/25/25 32/32/32 31/31/31
f 31/31/31 33/33/33 30/30/30
f 32/32/32 34/34/34 31/31/31
f 34/34/34 33/33/33 31/31/31
f 37/37/37 36/36/36 35/35/35
f 38/38/38 37/37/37 35/35/35
f 38/38/38 35/35/35 39/39/39
f 40/40/40 38/38/38 39/39/39
f 38/38/38 40/40/40 41/41/41
f 37/37/37 38/38/38 42/42/42
f 42/42/42 38/38/38 41/41/41
f 43/43/43 37/37/37 42/42/42
f 44/44/44 42/42/42 41/41/41
f 45/45/45 43/43/43 42/42/42
f 44/44/44 45/45/45 42/42/42
f 48/48/48 47/47/47 46/46/46
f 49/49/49 48/48/48 46/46/46
f 49/49/49 46/46/46 50/50/50
f 51/51/51 49/49/49 50/50/50
f 49/49/49 51/51/51 52/52/52
f 48/48/48 49/49/49 53/53/53
f 53/53/53 49/49/49 52/52/52
f 54/54/54 48/48/48 53/53/53
f 55/55/55 54/54/54 53/53/53
f 56/56/56 55/55/55 53/53/53
f 56/56/56 53/53/53 52/52/52
f 57/57/57 56/56/56 52/52/52
f 60/60/60 59/59/59 58/58/58
f 61/61/61 60/60/60 58/58/58
f 61/61/61 58/58/58 62/62/62
f 63/63/63 61/61/61 62/62/62
f 61/61/61 63/63/63 64/64/64
f 60/60/60 61/61/61 65/65/65
f 65/65/65 61/61/61 64/64/64
f 66/66/66 60/60/60 65/65/65
f 67/67/67 65/65/65 64/64/64
f 68/68/68 66/66/66 65/65/65
f 67/67/67 68/68/68 65/65/65
