g grassThinSprig02
v -0.1237328 -0.1605343 -0.3365197
v 0.218717 0.7483346 0.1044443
v 0.1767236 -0.1487097 0.1519869
v -0.0817396 0.7365097 -0.3840622
v -0.1402466 -0.1795601 -0.7100866
v -0.09825325 0.7174843 -0.757629
v -0.02199984 1.312699 -0.8069668
v -0.002931654 1.343764 -0.43477
v 0.2949704 1.34355 0.05510639
v 0.1357931 2.006018 -0.5094767
v 0.4282333 1.980065 -0.01667091
v -0.0003983974 -0.1480795 -0.002275586
v 0.3738488 0.827309 0.04108965
v 0.4281385 -0.06109301 -0.2140113
v -0.05468792 0.7403224 0.2528253
v -0.5375859 -0.1662492 -0.05332106
v -0.5918753 0.7221528 0.2017799
v -0.6051733 1.204092 0.4372428
v -0.06782251 1.205586 0.478359
v 0.3605508 1.309248 0.2765525
v 0.3669097 1.954162 0.7368023
v -0.06100024 1.803252 0.9104743
v -0.5988146 1.849005 0.8974925
v 0 -0.1484915 8.940697E-08
v -0.3144951 0.4763251 -0.552404
v -0.1496202 -0.1856544 -0.5525262
v -0.1648747 0.5134881 0.0001223087
v -0.08482199 -0.1696846 0.3640645
v -0.2496969 0.4922949 0.3641869
v -0.4094828 0.9214895 0.3680051
v -0.3289464 0.9511537 0.004095912
v -0.4742811 0.90552 -0.5485858
v -0.5628361 1.4175 0.01250562
v -0.6990069 1.353755 -0.5405083
v 0 -0.1484919 2.235174E-08
v 0.380109 0.5065668 -0.3947277
v 0.01703238 -0.0883657 -0.4818061
v 0.3630767 0.4464406 0.08707843
v -0.2647723 -0.05438499 0.4610268
v 0.09830438 0.5405476 0.5481052
v 0.3820009 0.8294862 0.6224859
v 0.6353649 0.7260023 0.1583872
v 0.6638055 0.7955055 -0.320347
v 1.173137 1.131611 -0.180226
v 1.112372 1.03554 0.2898042
v 0.8913324 1.165592 0.7626069
v -0.1237328 -0.1605343 -0.3365197
v 0.1767236 -0.1487097 0.1519869
v 0.218717 0.7483346 0.1044443
v -0.0817396 0.7365097 -0.3840622
v -0.1402466 -0.1795601 -0.7100866
v -0.09825325 0.7174843 -0.757629
v -0.02199984 1.312699 -0.8069668
v -0.002931654 1.343764 -0.43477
v 0.2949704 1.34355 0.05510639
v 0.1357931 2.006018 -0.5094767
v 0.4282333 1.980065 -0.01667091
v -0.0003983974 -0.1480795 -0.002275586
v 0.4281385 -0.06109301 -0.2140113
v 0.3738488 0.827309 0.04108965
v -0.05468792 0.7403224 0.2528253
v -0.5375859 -0.1662492 -0.05332106
v -0.5918753 0.7221528 0.2017799
v -0.6051733 1.204092 0.4372428
v -0.06782251 1.205586 0.478359
v 0.3605508 1.309248 0.2765525
v 0.3669097 1.954162 0.7368023
v -0.06100024 1.803252 0.9104743
v -0.5988146 1.849005 0.8974925
v 0 -0.1484915 8.940697E-08
v -0.1496202 -0.1856544 -0.5525262
v -0.3144951 0.4763251 -0.552404
v -0.1648747 0.5134881 0.0001223087
v -0.08482199 -0.1696846 0.3640645
v -0.2496969 0.4922949 0.3641869
v -0.4094828 0.9214895 0.3680051
v -0.3289464 0.9511537 0.004095912
v -0.4742811 0.90552 -0.5485858
v -0.5628361 1.4175 0.01250562
v -0.6990069 1.353755 -0.5405083
v 0 -0.1484919 2.235174E-08
v 0.01703238 -0.0883657 -0.4818061
v 0.380109 0.5065668 -0.3947277
v 0.3630767 0.4464406 0.08707843
v -0.2647723 -0.05438499 0.4610268
v 0.09830438 0.5405476 0.5481052
v 0.3820009 0.8294862 0.6224859
v 0.6353649 0.7260023 0.1583872
v 0.6638055 0.7955055 -0.320347
v 1.173137 1.131611 -0.180226
v 1.112372 1.03554 0.2898042
v 0.8913324 1.165592 0.7626069
vt 0.192078 0.006968815
vt 0.4669832 0.4133975
vt 0.466983 0.006968815
vt 0.192078 0.4133975
vt 0.01765159 0.006968815
vt 0.01765159 0.4133975
vt 0.01765159 0.6872782
vt 0.192078 0.6872782
vt 0.466983 0.6872782
vt 0.192078 0.9846545
vt 0.466983 0.9846545
vt 0.7214599 0.006968815
vt 0.9483958 0.4254242
vt 0.9483958 0.006968815
vt 0.7214599 0.4254242
vt 0.466983 0.006968815
vt 0.4669828 0.4254242
vt 0.4669828 0.659851
vt 0.7214599 0.659851
vt 0.9483958 0.659851
vt 0.9483958 0.9846545
vt 0.7214599 0.9846545
vt 0.466983 0.9846545
vt 0.192078 0.006968815
vt 0.4669832 0.4133975
vt 0.466983 0.006968815
vt 0.192078 0.4133975
vt 0.01765159 0.006968815
vt 0.01765159 0.4133975
vt 0.01765159 0.6872782
vt 0.192078 0.6872782
vt 0.466983 0.6872782
vt 0.192078 0.9846545
vt 0.466983 0.9846545
vt 0.7214599 0.006968815
vt 0.9483958 0.4254242
vt 0.9483958 0.006968815
vt 0.7214599 0.4254242
vt 0.466983 0.006968815
vt 0.4669828 0.4254242
vt 0.4669828 0.659851
vt 0.7214599 0.659851
vt 0.9483958 0.659851
vt 0.9483958 0.9846545
vt 0.7214599 0.9846545
vt 0.466983 0.9846545
vt 0.192078 0.006968815
vt 0.466983 0.006968815
vt 0.4669832 0.4133975
vt 0.192078 0.4133975
vt 0.01765159 0.006968815
vt 0.01765159 0.4133975
vt 0.01765159 0.6872782
vt 0.192078 0.6872782
vt 0.466983 0.6872782
vt 0.192078 0.9846545
vt 0.466983 0.9846545
vt 0.7214599 0.006968815
vt 0.9483958 0.006968815
vt 0.9483958 0.4254242
vt 0.7214599 0.4254242
vt 0.466983 0.006968815
vt 0.4669828 0.4254242
vt 0.4669828 0.659851
vt 0.7214599 0.659851
vt 0.9483958 0.659851
vt 0.9483958 0.9846545
vt 0.7214599 0.9846545
vt 0.466983 0.9846545
vt 0.192078 0.006968815
vt 0.466983 0.006968815
vt 0.4669832 0.4133975
vt 0.192078 0.4133975
vt 0.01765159 0.006968815
vt 0.01765159 0.4133975
vt 0.01765159 0.6872782
vt 0.192078 0.6872782
vt 0.466983 0.6872782
vt 0.192078 0.9846545
vt 0.466983 0.9846545
vt 0.7214599 0.006968815
vt 0.9483958 0.006968815
vt 0.9483958 0.4254242
vt 0.7214599 0.4254242
vt 0.466983 0.006968815
vt 0.4669828 0.4254242
vt 0.4669828 0.659851
vt 0.7214599 0.659851
vt 0.9483958 0.659851
vt 0.9483958 0.9846545
vt 0.7214599 0.9846545
vt 0.466983 0.9846545
vn -0.9374766 0.0620369 0.3424748
vn -0.848655 0.1017221 0.5190734
vn -0.8505726 0.0674575 0.5215127
vn -0.9352 0.09651241 0.3407145
vn -0.9979349 0.04892226 0.0416227
vn -0.9957818 0.08239388 0.04037202
vn -0.9876105 0.1525287 0.03688819
vn -0.911723 0.1871672 0.3656906
vn -0.8380331 0.1934589 0.5101706
vn -0.855121 0.231408 0.4639163
vn -0.8312765 0.2311038 0.5055397
vn 0.1860142 -0.260658 0.9473416
vn 0.4696474 -0.27449 0.8390987
vn 0.4674937 -0.217467 0.8568302
vn 0.1896028 -0.3225684 0.9273621
vn -0.08144335 -0.2796708 0.9566354
vn -0.07722618 -0.3370935 0.9382985
vn -0.06668925 -0.5233831 0.8494838
vn 0.195259 -0.5163189 0.8338397
vn 0.4700763 -0.4603372 0.7530724
vn 0.4679593 -0.5187767 0.7154613
vn 0.1952785 -0.5734532 0.795624
vn -0.0647423 -0.5816406 0.8108653
vn 0.967791 0.2410546 -0.0726178
vn 0.9227993 0.2766858 -0.2681164
vn 0.9346434 0.232835 -0.2687555
vn 0.9557766 0.2849105 -0.07291702
vn 0.9435402 0.234958 0.2335095
vn 0.9320183 0.2777908 0.2327535
vn 0.9025809 0.3636706 0.2304155
vn 0.9124318 0.3953167 -0.1057958
vn 0.8814127 0.391348 -0.2644961
vn 0.8731458 0.4415688 -0.2064788
vn 0.860708 0.436329 -0.2622953
vn 0.806775 -0.5304532 0.2602564
vn 0.812317 -0.5816078 -0.04328218
vn 0.855318 -0.5169682 -0.03427772
vn 0.7592784 -0.6014963 0.248392
vn 0.7016463 -0.5021864 0.5054712
vn 0.6588594 -0.5676441 0.4936441
vn 0.4839467 -0.7582853 0.4368056
vn 0.5690948 -0.7979615 0.1984657
vn 0.6330439 -0.7702171 -0.07759567
vn 0.5627547 -0.8216572 -0.09047969
vn 0.5032774 -0.844961 0.1809774
vn 0.4165516 -0.8099777 0.4128206
vn 0.9374766 -0.0620369 -0.3424748
vn 0.8505726 -0.0674575 -0.5215127
vn 0.848655 -0.1017221 -0.5190734
vn 0.9352 -0.09651241 -0.3407145
vn 0.9979349 -0.04892225 -0.0416227
vn 0.9957818 -0.08239388 -0.04037203
vn 0.9876105 -0.1525287 -0.03688818
vn 0.911723 -0.1871672 -0.3656907
vn 0.8380331 -0.1934589 -0.5101706
vn 0.855121 -0.231408 -0.4639164
vn 0.8312764 -0.2311038 -0.5055399
vn -0.1860141 0.2606581 -0.9473416
vn -0.4674936 0.2174671 -0.8568302
vn -0.4696473 0.27449 -0.8390986
vn -0.1896027 0.3225684 -0.927362
vn 0.08144336 0.2796708 -0.9566354
vn 0.07722617 0.3370935 -0.9382985
vn 0.06668923 0.5233831 -0.8494838
vn -0.1952591 0.516319 -0.8338397
vn -0.4700763 0.4603372 -0.7530724
vn -0.4679593 0.5187766 -0.7154613
vn -0.1952785 0.5734532 -0.795624
vn 0.0647423 0.5816407 -0.8108653
vn -0.967791 -0.2410546 0.07261778
vn -0.9346434 -0.232835 0.2687555
vn -0.9227993 -0.2766858 0.2681163
vn -0.9557766 -0.2849105 0.07291701
vn -0.9435402 -0.234958 -0.2335095
vn -0.9320183 -0.2777908 -0.2327536
vn -0.9025809 -0.3636706 -0.2304155
vn -0.9124319 -0.3953167 0.1057958
vn -0.8814129 -0.391348 0.2644962
vn -0.8731458 -0.4415687 0.2064788
vn -0.860708 -0.436329 0.2622954
vn -0.8067751 0.5304532 -0.2602564
vn -0.855318 0.5169682 0.03427772
vn -0.812317 0.5816078 0.04328215
vn -0.7592784 0.6014963 -0.248392
vn -0.7016464 0.5021863 -0.5054713
vn -0.6588594 0.5676441 -0.4936441
vn -0.4839467 0.7582853 -0.4368056
vn -0.5690948 0.7979615 -0.1984658
vn -0.6330439 0.7702171 0.07759568
vn -0.5627548 0.8216572 0.09047972
vn -0.5032774 0.844961 -0.1809774
vn -0.4165517 0.8099777 -0.4128206
g grassThinSprig02_0
f 3/3/3 2/2/2 1/1/1
f 2/2/2 4/4/4 1/1/1
f 1/1/1 4/4/4 5/5/5
f 4/4/4 6/6/6 5/5/5
f 6/6/6 4/4/4 7/7/7
f 4/4/4 2/2/2 8/8/8
f 4/4/4 8/8/8 7/7/7
f 2/2/2 9/9/9 8/8/8
f 8/8/8 10/10/10 7/7/7
f 9/9/9 11/11/11 8/8/8
f 11/11/11 10/10/10 8/8/8
f 14/14/14 13/13/13 12/12/12
f 13/13/13 15/15/15 12/12/12
f 12/12/12 15/15/15 16/16/16
f 15/15/15 17/17/17 16/16/16
f 17/17/17 15/15/15 18/18/18
f 15/15/15 13/13/13 19/19/19
f 15/15/15 19/19/19 18/18/18
f 13/13/13 20/20/20 19/19/19
f 20/20/20 21/21/21 19/19/19
f 21/21/21 22/22/22 19/19/19
f 19/19/19 22/22/22 18/18/18
f 22/22/22 23/23/23 18/18/18
f 26/26/26 25/25/25 24/24/24
f 25/25/25 27/27/27 24/24/24
f 24/24/24 27/27/27 28/28/28
f 27/27/27 29/29/29 28/28/28
f 29/29/29 27/27/27 30/30/30
f 27/27/27 25/25/25 31/31/31
f 27/27/27 31/31/31 30/30/30
f 25/25/25 32/32/32 31/31/31
f 31/31/31 33/33/33 30/30/30
f 32/32/32 34/34/34 31/31/31
f 34/34/34 33/33/33 31/31/31
f 37/37/37 36/36/36 35/35/35
f 36/36/36 38/38/38 35/35/35
f 35/35/35 38/38/38 39/39/39
f 38/38/38 40/40/40 39/39/39
f 40/40/40 38/38/38 41/41/41
f 38/38/38 36/36/36 42/42/42
f 38/38/38 42/42/42 41/41/41
f 36/36/36 43/43/43 42/42/42
f 43/43/43 44/44/44 42/42/42
f 44/44/44 45/45/45 42/42/42
f 42/42/42 45/45/45 41/41/41
f 45/45/45 46/46/46 41/41/41
f 49/49/49 48/48/48 47/47/47
f 50/50/50 49/49/49 47/47/47
f 50/50/50 47/47/47 51/51/51
f 52/52/52 50/50/50 51/51/51
f 50/50/50 52/52/52 53/53/53
f 49/49/49 50/50/50 54/54/54
f 54/54/54 50/50/50 53/53/53
f 55/55/55 49/49/49 54/54/54
f 56/56/56 54/54/54 53/53/53
f 57/57/57 55/55/55 54/54/54
f 56/56/56 57/57/57 54/54/54
f 60/60/60 59/59/59 58/58/58
f 61/61/61 60/60/60 58/58/58
f 61/61/61 58/58/58 62/62/62
f 63/63/63 61/61/61 62/62/62
f 61/61/61 63/63/63 64/64/64
f 60/60/60 61/61/61 65/65/65
f 65/65/65 61/61/61 64/64/64
f 66/66/66 60/60/60 65/65/65
f 67/67/67 66/66/66 65/65/65
f 68/68/68 67/67/67 65/65/65
f 68/68/68 65/65/65 64/64/64
f 69/69/69 68/68/68 64/64/64
f 72/72/72 71/71/71 70/70/70
f 73/73/73 72/72/72 70/70/70
f 73/73/73 70/70/70 74/74/74
f 75/75/75 73/73/73 74/74/74
f 73/73/73 75/75/75 76/76/76
f 72/72/72 73/73/73 77/77/77
f 77/77/77 73/73/73 76/76/76
f 78/78/78 72/72/72 77/77/77
f 79/79/79 77/77/77 76/76/76
f 80/80/80 78/78/78 77/77/77
f 79/79/79 80/80/80 77/77/77
f 83/83/83 82/82/82 81/81/81
f 84/84/84 83/83/83 81/81/81
f 84/84/84 81/81/81 85/85/85
f 86/86/86 84/84/84 85/85/85
f 84/84/84 86/86/86 87/87/87
f 83/83/83 84/84/84 88/88/88
f 88/88/88 84/84/84 87/87/87
f 89/89/89 83/83/83 88/88/88
f 90/90/90 89/89/89 88/88/88
f 91/91/91 90/90/90 88/88/88
f 91/91/91 88/88/88 87/87/87
f 92/92/92 91/91/91 87/87/87
