g grassColony06
v 1.358618 -0.06503098 -0.7067413
v 1.177002 -0.06503098 0.02354797
v 0.9781445 0.5906997 -0.9022675
v 0.9781445 0.5906997 -0.9022675
v 1.177002 -0.06503098 0.02354797
v 0.7965283 0.6861798 -0.1719794
v 1.925625 -0.06503098 0.8355188
v 1.73967 -0.06503098 0.228938
v 2.278857 0.5566726 0.6524853
v 2.278857 0.5566726 0.6524853
v 1.73967 -0.06503098 0.228938
v 2.092903 0.4870626 0.04590332
v 1.396362 -0.06503098 -1.172787
v 1.716899 -0.06503098 -0.5357202
v 1.06626 0.6077386 -1.086987
v 1.06626 0.6077386 -1.086987
v 1.716899 -0.06503098 -0.5357202
v 1.386797 0.6772419 -0.4499194
v 1.882856 -0.06503098 0.3185205
v 1.423735 -0.06503098 0.7330981
v 1.672402 0.4732449 -0.01257324
v 1.672402 0.4732449 -0.01257324
v 1.423735 -0.06503098 0.7330981
v 1.213286 0.5376976 0.4020044
v 1.432244 -0.06503098 -0.6471948
v 1.902466 -0.06503098 -1.206444
v 1.762173 0.6842079 -0.4804053
v 1.762173 0.6842079 -0.4804053
v 1.902466 -0.06503098 -1.206444
v 2.232393 0.6015564 -1.039656
v 0.9855224 -0.06503098 -0.05149719
v 1.575518 -0.06503098 -0.5223187
v 1.264648 0.5881247 0.190108
v 1.264648 0.5881247 0.190108
v 1.575518 -0.06503098 -0.5223187
v 1.854643 0.5129538 -0.2807111
v -0.1044336 -0.06503098 -0.1337579
v 0.07366943 -0.06503098 -0.8338256
v 0.2785254 0.5904481 -0.03633057
v 0.4566284 0.590448 -0.7363977
v -1.272061 -0.06503098 0.3551947
v -0.6435791 -0.06503098 0.03651672
v -1.097734 0.6032104 0.6989941
v -0.4692529 0.6032104 0.3803162
v -1.88374 -0.06503098 -0.3732178
v -1.952893 -0.06503098 0.3397998
v -2.273782 0.6194493 -0.4110467
v -2.342937 0.6194491 0.3019708
v -2.147249 -0.06503098 0.2991333
v -1.7072 -0.06503098 -0.2661414
v -1.838025 0.6219665 0.5398529
v -1.397978 0.6219665 -0.02542175
v 1.185102 -0.06503098 1.578035
v 0.489331 -0.06503098 1.275834
v 1.350415 0.4984032 1.197429
v 0.654646 0.4984032 0.8952289
v -0.7138867 -0.06503098 0.2093976
v -1.257468 -0.06503098 -0.2101501
v -0.4843799 0.5827329 -0.08795776
v -1.027964 0.5827328 -0.5075055
v -0.655415 -0.06503098 0.8360071
v -0.1833618 -0.06503098 1.4298
v -0.9802368 0.6766488 1.094233
v -0.5081836 0.6766487 1.688027
v -0.9653271 -0.06503098 -0.232644
v -1.136025 -0.06503098 0.4510278
v -1.339316 0.6032104 -0.3260211
v -1.510015 0.6032104 0.3576501
v 0.2611548 -0.06503098 -0.7635339
v -0.2639917 -0.06503098 -0.2675128
v -0.01018555 0.5929863 -1.050805
v -0.535332 0.5929863 -0.5547839
v -0.3597217 -0.06503098 1.535666
v -0.3763379 -0.06503098 0.7772852
v 0.05513672 0.5483512 1.526578
v 0.03852051 0.5483512 0.768197
v 0.4259082 -0.06503098 1.553881
v 1.16273 -0.06503098 1.373559
v 0.5245508 0.6267008 1.956945
v 1.261372 0.6267006 1.776623
v -0.8503784 -0.06503098 -0.8049139
v -0.9239526 -0.06503098 -1.559901
v -0.4373779 0.4944073 -0.8451605
v -0.5109521 0.4944073 -1.600148
v -1.197827 -0.06503098 -1.480367
v -0.6824756 -0.06503098 -0.9237384
v -1.502319 0.6227049 -1.198455
v -0.9869677 0.6227049 -0.6418256
v 0.2365088 -0.06503098 0.6915283
v 0.958186 -0.06503098 0.5505292
v 0.3136401 0.6293842 1.086309
v 1.035317 0.6293842 0.9453101
v 0.8383862 -0.06503098 0.7040728
v 0.4121167 -0.06503098 0.1281177
v 1.15345 0.6080154 0.4708911
v 0.7271802 0.6080153 -0.1050641
v 0.711809 -0.06503098 0.1887097
v 0.3457983 -0.06503098 0.8264673
v 0.3629346 0.6293842 -0.01151001
v -0.003076172 0.6293842 0.6262475
v -1.135063 -0.06503098 1.152046
v -1.772578 -0.06503098 1.022252
v -1.064062 0.5406317 0.8033056
v -1.701577 0.5406317 0.6735144
v -1.715742 -0.06503098 1.02427
v -1.208652 -0.06503098 1.431859
v -1.938706 0.5406317 1.301664
v -1.431616 0.5406316 1.709253
v -1.341619 -0.06503098 1.508821
v -1.365627 -0.06503098 0.8586731
v -0.9859668 0.5406317 1.495686
v -1.009978 0.5406317 0.8455395
v 1.986836 -0.06503098 -1.055544
v 1.251958 -0.06503098 -1.043672
v 1.999768 0.5458774 -1.544384
v 1.26489 0.5685011 -1.532512
v 2.047312 0.1407136 0.4663818
v 1.568452 0.1512561 0.4401355
v 2.075703 0.6241809 0.1425806
v 1.596843 0.6347234 0.1163354
v 1.449341 -0.06503098 0.4710278
v 2.032353 -0.06503098 0.7303149
v 1.326992 0.5904389 0.7039722
v 1.910005 0.605698 0.9632593
v 0.8320898 -0.06503098 -1.412681
v 0.3255005 -0.06503098 -1.00774
v 0.6105737 0.6232005 -1.689802
v 0.1039819 0.6232005 -1.284861
v 0.9731591 -0.06503098 -1.026695
v 0.4602954 -0.06503098 -1.423659
v 1.19031 0.6232005 -1.307247
v 0.6774462 0.6232005 -1.704212
v 0.3633496 -0.06503098 -1.049943
v 0.9992065 -0.06503098 -1.177611
v 0.4331885 0.6232005 -0.70211
v 1.069045 0.6232005 -0.8297778
vt 1 0
vt 0.75 0
vt 1 1
vt 1 1
vt 0.75 0
vt 0.75 1
vt 0.25 0
vt 0 0
vt 0.25 1
vt 0.25 1
vt 0 0
vt 0 1
vt 1 0
vt 0.75 0
vt 1 1
vt 1 1
vt 0.75 0
vt 0.75 1
vt 1 0
vt 0.75 0
vt 1 1
vt 1 1
vt 0.75 0
vt 0.75 1
vt 0.75 0
vt 0.5 0
vt 0.75 1
vt 0.75 1
vt 0.5 0
vt 0.5 1
vt 0.25 0
vt 0 0
vt 0.25 1
vt 0.25 1
vt 0 0
vt 0 1
vt 0.75 0
vt 0.5 0
vt 0.75 1
vt 0.5 1
vt 0.25 0
vt 0 0
vt 0.25 1
vt 0 1
vt 0.75 0
vt 0.5 0
vt 0.75 1
vt 0.5 1
vt 0.5 0
vt 0.25 0
vt 0.5 1
vt 0.25 1
vt 0.25 0
vt 0 0
vt 0.25 1
vt 0 1
vt 1 0
vt 0.75 0
vt 1 1
vt 0.75 1
vt 1 0
vt 0.75 0
vt 1 1
vt 0.75 1
vt 0.75 0
vt 0.5 0
vt 0.75 1
vt 0.5 1
vt 0.5 0
vt 0.25 0
vt 0.5 1
vt 0.25 1
vt 0.25 0
vt 0 0
vt 0.25 1
vt 0 1
vt 1 0
vt 0.75 0
vt 1 1
vt 0.75 1
vt 0.25 0
vt 0 0
vt 0.25 1
vt 0 1
vt 1 0
vt 0.75 0
vt 1 1
vt 0.75 1
vt 0.25 0
vt 0 0
vt 0.25 1
vt 0 1
vt 1 0
vt 0.75 0
vt 1 1
vt 0.75 1
vt 0.75 0
vt 0.5 0
vt 0.75 1
vt 0.5 1
vt 0.5 0
vt 0.25 0
vt 0.5 1
vt 0.25 1
vt 0.75 0
vt 0.5 0
vt 0.75 1
vt 0.5 1
vt 0.25 0
vt 0 0
vt 0.25 1
vt 0 1
vt 0.25 0
vt 0 0
vt 0.25 1
vt 0 1
vt 0.5 0
vt 0.25 0
vt 0.5 1
vt 0.25 1
vt 0.75 0
vt 0.5 0
vt 0.75 1
vt 0.5 1
vt 0.5 0
vt 0.25 0
vt 0.5 1
vt 0.25 1
vt 0.25 0
vt 0 0
vt 0.25 1
vt 0 1
vt 0.75 0
vt 0.5 0
vt 0.75 1
vt 0.5 1
vn 0.8192151 0.5360788 0.2037311
vn 0.8192149 0.5360788 0.2037311
vn 0.8192151 0.5360788 0.2037311
vn 0.865062 0.4778747 0.1526552
vn 0.865062 0.4778747 0.1526552
vn 0.865062 0.4778747 0.1526552
vn -0.809113 0.5327387 0.2480436
vn -0.809113 0.5327387 0.2480435
vn -0.809113 0.5327387 0.2480435
vn -0.8004818 0.5717579 0.1797832
vn -0.8004817 0.5717579 0.1797832
vn -0.8004818 0.5717579 0.1797832
vn 0.8003863 0.444079 -0.4027106
vn 0.8003863 0.4440789 -0.4027106
vn 0.8003863 0.4440789 -0.4027106
vn 0.7976953 0.4062667 -0.445679
vn 0.7976953 0.4062667 -0.4456789
vn 0.7976953 0.4062667 -0.4456789
vn 0.5442529 0.5835286 0.6027297
vn 0.5442529 0.5835286 0.6027297
vn 0.5442529 0.5835287 0.6027297
vn 0.6063772 0.5349201 0.5883597
vn 0.6063772 0.5349201 0.5883598
vn 0.6063772 0.5349201 0.5883597
vn -0.6899412 0.432961 -0.5801087
vn -0.689941 0.432961 -0.5801087
vn -0.6899411 0.432961 -0.5801087
vn -0.6405619 0.4691585 -0.6079233
vn -0.6405619 0.4691585 -0.6079232
vn -0.6405619 0.4691586 -0.6079232
vn -0.5452195 0.4857354 -0.6832253
vn -0.5452195 0.4857355 -0.6832252
vn -0.5452195 0.4857354 -0.6832253
vn -0.4882202 0.5266697 -0.6958879
vn -0.4882203 0.5266697 -0.6958879
vn -0.4882203 0.5266697 -0.6958878
vn -0.829974 0.5162925 -0.2111523
vn -0.829974 0.5162923 -0.2111523
vn -0.829974 0.5162924 -0.2111523
vn -0.8299736 0.516293 -0.2111526
vn -0.3917405 0.4996721 -0.7725717
vn -0.3917405 0.4996721 -0.7725717
vn -0.3917405 0.4996721 -0.7725717
vn -0.3917399 0.4996703 -0.7725732
vn 0.8637839 0.4968492 0.08377498
vn 0.8637839 0.4968492 0.08377498
vn 0.8637838 0.4968492 0.08377499
vn 0.8637833 0.4968497 0.08377811
vn -0.6854221 0.4954708 -0.5335778
vn -0.6854221 0.4954708 -0.5335778
vn -0.6854221 0.4954707 -0.5335778
vn -0.6854209 0.4954729 -0.5335772
vn -0.3207774 0.5930083 0.7385411
vn -0.3207774 0.5930083 0.7385411
vn -0.3207774 0.5930083 0.7385411
vn -0.3207768 0.5930093 0.7385406
vn -0.5285603 0.5016402 0.6848219
vn -0.5285603 0.5016402 0.684822
vn -0.5285603 0.5016402 0.6848219
vn -0.5285608 0.5016377 0.6848235
vn 0.6831331 0.4882587 -0.5430771
vn 0.6831331 0.4882587 -0.5430772
vn 0.683133 0.4882588 -0.5430771
vn 0.6831329 0.4882602 -0.5430759
vn 0.840414 0.4996742 0.2098334
vn 0.840414 0.4996742 0.2098334
vn 0.840414 0.4996742 0.2098335
vn 0.8404159 0.4996705 0.2098343
vn 0.5886686 0.5148292 0.6232337
vn 0.5886686 0.5148292 0.6232337
vn 0.5886685 0.5148293 0.6232337
vn 0.5886676 0.5148296 0.6232342
vn -0.8280702 0.5603309 0.0181431
vn -0.8280702 0.5603309 0.0181431
vn -0.8280702 0.5603308 0.0181431
vn -0.8280702 0.5603309 0.01814312
vn -0.2038487 0.5144236 -0.832955
vn -0.2038487 0.5144236 -0.8329551
vn -0.2038487 0.5144236 -0.832955
vn -0.2038491 0.5144207 -0.8329566
vn -0.7993836 0.5957495 0.07790069
vn -0.7993836 0.5957496 0.07790069
vn -0.7993836 0.5957496 0.07790069
vn -0.7993894 0.5957415 0.07790121
vn 0.6282853 0.5166132 -0.5816944
vn 0.6282853 0.5166131 -0.5816943
vn 0.6282854 0.5166132 -0.5816943
vn 0.6282851 0.5166134 -0.5816947
vn -0.165924 0.5012381 -0.8492524
vn -0.165924 0.5012381 -0.8492524
vn -0.165924 0.5012381 -0.8492524
vn -0.1659239 0.501239 -0.8492518
vn -0.6945941 0.5032541 0.5140764
vn -0.6945941 0.5032539 0.5140763
vn -0.6945941 0.503254 0.5140763
vn -0.6945933 0.5032561 0.5140755
vn 0.7504974 0.501239 0.4307123
vn 0.7504975 0.5012389 0.4307123
vn 0.7504974 0.501239 0.4307123
vn 0.7504989 0.5012355 0.4307139
vn -0.1720044 0.50662 0.8448376
vn -0.1720044 0.5066201 0.8448376
vn -0.1720044 0.50662 0.8448377
vn -0.1719994 0.5066205 0.8448384
vn 0.5401425 0.506616 -0.6720018
vn 0.5401425 0.506616 -0.6720017
vn 0.5401425 0.506616 -0.6720017
vn 0.54014 0.5066203 -0.6720004
vn -0.8615829 0.5066187 0.03181669
vn -0.8615829 0.5066188 0.03181669
vn -0.8615829 0.5066187 0.03181668
vn -0.8615854 0.5066144 0.03182008
vn 0.01261564 0.6245669 0.7808694
vn 0.01261564 0.6245669 0.7808694
vn 0.01261564 0.6245669 0.7808694
vn 0.03157267 0.6101886 0.7916269
vn -0.0331909 0.5575122 0.829505
vn -0.03319091 0.5575123 0.8295049
vn -0.03319091 0.5575123 0.829505
vn -0.03318917 0.557512 0.8295051
vn 0.3772239 0.3718468 -0.8481935
vn 0.3772239 0.3718468 -0.8481934
vn 0.3772238 0.3718468 -0.8481935
vn 0.3704558 0.3643177 -0.854421
vn 0.5549854 0.4581932 0.6942984
vn 0.5549855 0.4581932 0.6942984
vn 0.5549854 0.4581932 0.6942984
vn 0.5549819 0.4581972 0.6942984
vn -0.5440547 0.4581882 0.7028998
vn -0.5440546 0.4581882 0.7028998
vn -0.5440546 0.4581882 0.7028998
vn -0.5440555 0.4581901 0.7028978
vn -0.1749741 0.4581891 -0.8714625
vn -0.1749741 0.4581891 -0.8714625
vn -0.1749741 0.4581891 -0.8714625
vn -0.1749718 0.4581966 -0.8714589
g grassColony06_0
f 3/3/3 2/2/2 1/1/1
f 6/6/6 5/5/5 4/4/4
f 9/9/9 8/8/8 7/7/7
f 12/12/12 11/11/11 10/10/10
f 15/15/15 14/14/14 13/13/13
f 18/18/18 17/17/17 16/16/16
f 21/21/21 20/20/20 19/19/19
f 24/24/24 23/23/23 22/22/22
f 27/27/27 26/26/26 25/25/25
f 30/30/30 29/29/29 28/28/28
f 33/33/33 32/32/32 31/31/31
f 36/36/36 35/35/35 34/34/34
f 39/39/39 38/38/38 37/37/37
f 40/40/40 38/38/38 39/39/39
f 43/43/43 42/42/42 41/41/41
f 44/44/44 42/42/42 43/43/43
f 47/47/47 46/46/46 45/45/45
f 48/48/48 46/46/46 47/47/47
f 51/51/51 50/50/50 49/49/49
f 52/52/52 50/50/50 51/51/51
f 55/55/55 54/54/54 53/53/53
f 56/56/56 54/54/54 55/55/55
f 59/59/59 58/58/58 57/57/57
f 60/60/60 58/58/58 59/59/59
f 63/63/63 62/62/62 61/61/61
f 64/64/64 62/62/62 63/63/63
f 67/67/67 66/66/66 65/65/65
f 68/68/68 66/66/66 67/67/67
f 71/71/71 70/70/70 69/69/69
f 72/72/72 70/70/70 71/71/71
f 75/75/75 74/74/74 73/73/73
f 76/76/76 74/74/74 75/75/75
f 79/79/79 78/78/78 77/77/77
f 80/80/80 78/78/78 79/79/79
f 83/83/83 82/82/82 81/81/81
f 84/84/84 82/82/82 83/83/83
f 87/87/87 86/86/86 85/85/85
f 88/88/88 86/86/86 87/87/87
f 91/91/91 90/90/90 89/89/89
f 92/92/92 90/90/90 91/91/91
f 95/95/95 94/94/94 93/93/93
f 96/96/96 94/94/94 95/95/95
f 99/99/99 98/98/98 97/97/97
f 100/100/100 98/98/98 99/99/99
f 103/103/103 102/102/102 101/101/101
f 104/104/104 102/102/102 103/103/103
f 107/107/107 106/106/106 105/105/105
f 108/108/108 106/106/106 107/107/107
f 111/111/111 110/110/110 109/109/109
f 112/112/112 110/110/110 111/111/111
f 115/115/115 114/114/114 113/113/113
f 116/116/116 114/114/114 115/115/115
f 119/119/119 118/118/118 117/117/117
f 120/120/120 118/118/118 119/119/119
f 123/123/123 122/122/122 121/121/121
f 124/124/124 122/122/122 123/123/123
f 127/127/127 126/126/126 125/125/125
f 128/128/128 126/126/126 127/127/127
f 131/131/131 130/130/130 129/129/129
f 132/132/132 130/130/130 131/131/131
f 135/135/135 134/134/134 133/133/133
f 136/136/136 134/134/134 135/135/135
