g growthStem01
v 0.5545862 0.02816398 0.06194672
v 0.05485272 0.6190395 -0.2875043
v 0.2160929 -0.06831224 -0.4623888
v 0.1334971 1.184592 -0.155939
v 0.05485272 0.6190395 -0.2875043
v -0.1744788 0.7532346 -0.1428809
v -0.2975334 0.1038303 -0.427249
v 0.05485272 0.6190395 -0.2875043
v 0.1334971 1.184592 -0.155939
v 0.2160929 -0.06831224 -0.4623888
v -0.4702244 0.1865821 -0.06236654
v -0.2615606 -0.09335239 -0.4654654
v -0.02149954 -0.3520935 -0.3071517
v -0.4583564 -0.1765082 0.1095521
v 0.3657882 -0.321677 0.01787307
v 0.5545862 0.02816398 0.06194672
v 0.009952307 -0.4624524 0.1702089
v 0.381458 0.03478305 0.4187306
v -0.02735361 0.02653732 0.5170534
v -0.3138992 0.2777477 0.3558845
v 0.2433898 0.6830235 0.2641705
v -0.205732 0.7831261 0.10677
v -0.1480987 0.7186462 0.265532
v 0.2667663 0.8720483 -0.04591753
v -0.07109868 1.33859 0.2715437
v 0.2306581 1.463 0.1156061
v -0.2128716 1.403637 -0.07933684
v -0.01539716 1.507842 -0.2273351
v -0.3736888 1.954517 0.0183774
v -0.1222866 1.927903 -0.3022991
v 0.1096604 2.053628 -0.2733098
v 0.3212073 2.095534 -0.02753376
v -0.1298119 2.262125 -0.09281148
v 0.119687 2.069226 0.4082037
v -0.1294246 1.872857 0.3627388
v -0.2437792 2.193747 0.2105393
v 0.05295753 2.322426 0.1444686
v 0.3083104 2.080168 0.2228769
vt 0 0
vt 0.6600161 0.9999999
vt 0.8911319 5.013228E-17
vt 0.9999999 0.4441895
vt 0.7433758 0
vt 0 0
vt 0 0
vt 0 0
vt 0 0
vt 0 0
vt 0 0
vt 0 0
vt 0 0
vt 0 0
vt 0 0
vt 0 0
vt 0 0
vt 0 0
vt 0 0
vt 0 0
vt 0 0
vt 0 0
vt 0 0
vt 0 0
vt 0 0
vt 0 0
vt 0 0
vt 0 0
vt 0 0
vt 0 0
vt 0 0
vt 0 0
vt 0 0
vt 0 0
vt 0 0
vt 0 0
vt 0 0
vt 0 0
vn 0.9773759 0.06596019 -0.2009615
vn 0.3917815 0.249908 -0.8854678
vn 0.5733215 0.01393635 -0.8192119
vn 0.5821779 0.009403309 -0.8130071
vn 0.3917815 0.249908 -0.8854678
vn -0.7230018 0.2908699 -0.6266283
vn -0.4211685 0.2770987 -0.8636165
vn 0.3917815 0.249908 -0.8854678
vn 0.5821779 0.009403309 -0.8130071
vn 0.5733215 0.01393635 -0.8192119
vn -0.9730588 0.1885437 -0.1326947
vn -0.5585316 -0.4512712 -0.6959862
vn -0.1200169 -0.8698449 -0.4785036
vn -0.8065133 -0.5332575 0.2552896
vn 0.681384 -0.7315418 -0.02371483
vn 0.9773759 0.06596019 -0.2009615
vn -0.1190236 -0.9110072 0.3948406
vn 0.5924935 -0.07658574 0.8019264
vn -0.1158803 -0.1821067 0.9764266
vn -0.7198642 0.1699202 0.6729953
vn 0.5875018 0.2835603 0.757915
vn -0.9656057 0.1731854 0.1939392
vn -0.2608357 0.2305902 0.9374396
vn 0.9817687 0.1900702 -0.001894679
vn -0.2632714 -0.05123764 0.9633602
vn 0.8900607 -0.1211096 0.4394592
vn -0.7773976 -0.1047917 -0.6202189
vn -0.142907 -0.1441937 -0.979176
vn -0.9995306 0.026765 -0.01490579
vn -0.4873058 0.05242163 -0.8716565
vn 0.5509353 0.2231344 -0.8041649
vn 0.8913845 0.2068409 -0.4032995
vn -0.3296068 0.7977769 -0.5048875
vn 0.3200578 0.1383633 0.9372399
vn -0.5525248 -0.0967743 0.8278594
vn -0.6775868 0.549216 0.4891195
vn 0.1758229 0.9720485 0.1555895
vn 0.8945264 0.1313233 0.42729
g growthStem01_0
f 3/3/3 2/2/2 1/1/1
f 5/5/5 4/4/4 1/1/1
f 8/8/8 7/7/7 6/6/6
f 6/6/6 9/9/9 8/8/8
f 8/8/8 10/10/10 7/7/7
f 7/7/7 11/11/11 6/6/6
f 12/12/12 7/7/7 10/10/10
f 12/12/12 11/11/11 7/7/7
f 10/10/10 13/13/13 12/12/12
f 11/11/11 12/12/12 14/14/14
f 14/14/14 12/12/12 13/13/13
f 13/13/13 10/10/10 15/15/15
f 15/15/15 10/10/10 16/16/16
f 15/15/15 17/17/17 13/13/13
f 17/17/17 14/14/14 13/13/13
f 17/17/17 15/15/15 18/18/18
f 15/15/15 16/16/16 18/18/18
f 19/19/19 14/14/14 17/17/17
f 17/17/17 18/18/18 19/19/19
f 14/14/14 20/20/20 11/11/11
f 20/20/20 14/14/14 19/19/19
f 16/16/16 21/21/21 18/18/18
f 18/18/18 21/21/21 19/19/19
f 11/11/11 20/20/20 22/22/22
f 11/11/11 22/22/22 6/6/6
f 20/20/20 19/19/19 23/23/23
f 19/19/19 21/21/21 23/23/23
f 23/23/23 22/22/22 20/20/20
f 24/24/24 21/21/21 16/16/16
f 24/24/24 16/16/16 9/9/9
f 25/25/25 23/23/23 21/21/21
f 25/25/25 22/22/22 23/23/23
f 26/26/26 21/21/21 24/24/24
f 9/9/9 26/26/26 24/24/24
f 26/26/26 25/25/25 21/21/21
f 6/6/6 22/22/22 27/27/27
f 28/28/28 9/9/9 6/6/6
f 27/27/27 28/28/28 6/6/6
f 22/22/22 29/29/29 27/27/27
f 25/25/25 29/29/29 22/22/22
f 28/28/28 27/27/27 30/30/30
f 27/27/27 29/29/29 30/30/30
f 28/28/28 31/31/31 9/9/9
f 30/30/30 31/31/31 28/28/28
f 9/9/9 31/31/31 32/32/32
f 26/26/26 9/9/9 32/32/32
f 31/31/31 30/30/30 33/33/33
f 29/29/29 33/33/33 30/30/30
f 33/33/33 32/32/32 31/31/31
f 34/34/34 25/25/25 26/26/26
f 35/35/35 29/29/29 25/25/25
f 34/34/34 35/35/35 25/25/25
f 29/29/29 35/35/35 36/36/36
f 29/29/29 36/36/36 33/33/33
f 36/36/36 35/35/35 34/34/34
f 33/33/33 36/36/36 37/37/37
f 32/32/32 33/33/33 37/37/37
f 37/37/37 36/36/36 34/34/34
f 32/32/32 38/38/38 26/26/26
f 34/34/34 26/26/26 38/38/38
f 32/32/32 37/37/37 38/38/38
f 34/34/34 38/38/38 37/37/37
