g Holder_box
v -0.1383842 -0.2610654 0.3692419
v -0.1383842 0.2486848 0.3692419
v -0.008970261 0.2486848 0.3692419
v -0.008970261 -0.2610654 0.3692419
v -0.1691281 0.2794281 -0.3404602
v -0.1691281 0.2794281 -0.445918
v 0.02177109 0.2794281 -0.445918
v 0.02177109 0.2794281 -0.3404602
v -0.1691281 -0.2918085 -0.445918
v -0.1691281 -0.2918085 -0.3404602
v 0.02177109 -0.2918085 -0.3404602
v 0.02177109 -0.2918085 -0.445918
v 0.02177109 0.2794281 -0.3404602
v 0.02177109 0.2794281 -0.445918
v 0.02177109 -0.2918085 -0.445918
v 0.02177109 -0.2918085 -0.3404602
v -0.1691281 -0.2918085 -0.445918
v -0.1691281 0.2794281 -0.445918
v -0.1691281 0.2794281 -0.3404602
v -0.1691281 -0.2918085 -0.3404602
v -0.1503838 0.2606851 0.445918
v -0.1503838 0.2606851 -0.3404602
v 0.003029404 0.2606851 -0.3404602
v 0.003029404 0.2606851 0.445918
v 0.003029404 -0.2730653 0.445918
v 0.003029404 0.2606851 0.445918
v 0.003029404 0.2606851 -0.3404602
v 0.003029404 -0.2730653 -0.3404602
v -0.1503838 -0.2730653 -0.3404602
v -0.1503838 -0.2730653 0.445918
v 0.003029404 -0.2730653 0.445918
v 0.003029404 -0.2730653 -0.3404602
v -0.1503838 0.2606851 -0.3404602
v -0.1503838 0.2606851 0.445918
v -0.1503838 -0.2730653 0.445918
v -0.1503838 -0.2730653 -0.3404602
v -0.1441378 0.2544376 -0.3427716
v -0.1441378 -0.2668176 -0.3427716
v -0.003219147 -0.2668176 -0.3427716
v -0.003219147 0.2544376 -0.3427716
v -0.1441378 0.2544376 -0.445918
v -0.1441378 0.2544376 -0.3427716
v -0.003219147 0.2544376 -0.3427716
v -0.003219147 0.2544376 -0.445918
v -0.003219147 0.2544376 -0.445918
v -0.003219147 0.2544376 -0.3427716
v -0.003219147 -0.2668176 -0.3427716
v -0.003219147 -0.2668176 -0.445918
v -0.003219147 -0.2668176 -0.445918
v -0.003219147 -0.2668176 -0.3427716
v -0.1441378 -0.2668176 -0.3427716
v -0.1441378 -0.2668176 -0.445918
v -0.1441378 -0.2668176 -0.445918
v -0.1441378 -0.2668176 -0.3427716
v -0.1441378 0.2544376 -0.3427716
v -0.1441378 0.2544376 -0.445918
v -0.1503838 -0.3741145 0.3572601
v -0.1503838 -0.2864417 0.3572601
v 0.003029404 -0.2864417 0.3572601
v 0.07328232 -0.3741145 0.3572601
v 0.003029404 0.2864413 0.3572601
v 0.07328232 0.3741145 0.3572601
v -0.1503838 0.2864413 0.3572601
v -0.1503838 0.3741145 0.3572601
v 0.1691281 0.278271 0.3572601
v 0.1691281 -0.2782707 0.3572601
v -0.1503838 -0.3741145 -0.1350134
v -0.1503838 -0.2864417 -0.1350134
v -0.1503838 -0.2864417 0.3572601
v -0.1503838 -0.3741145 0.3572601
v -0.1503838 -0.3741145 -0.1350134
v -0.1503838 -0.3741145 0.3572601
v 0.07328232 -0.3741145 0.3572601
v 0.07328232 -0.3741145 -0.1350134
v 0.1691281 -0.2782707 0.3572601
v 0.1691281 0.278271 0.3572601
v 0.1691281 0.278271 -0.1350134
v 0.1691281 -0.2782707 -0.1350134
v -0.1503838 0.3741145 0.3572601
v -0.1503838 0.3741145 -0.1350134
v 0.07328232 0.3741145 -0.1350134
v 0.07328232 0.3741145 0.3572601
v -0.1503838 0.2864413 0.3572601
v -0.1503838 0.2864413 -0.1350134
v -0.1503838 0.3741145 -0.1350134
v -0.1503838 0.3741145 0.3572601
v 0.07328232 0.3741145 -0.1350134
v 0.1691281 -0.2782707 -0.1350134
v 0.1691281 0.278271 -0.1350134
v 0.07328232 -0.3741145 -0.1350134
v 0.003029404 -0.2864417 -0.1350134
v -0.1503838 -0.2864417 -0.1350134
v -0.1503838 -0.3741145 -0.1350134
v 0.003029404 0.2864413 -0.1350134
v -0.1503838 0.3741145 -0.1350134
v -0.1503838 0.2864413 -0.1350134
v -0.1503838 0.2864413 0.3572601
v 0.003029404 0.2864413 0.3572601
v 0.003029404 0.2864413 -0.1350134
v -0.1503838 0.2864413 -0.1350134
v 0.003029404 -0.2864417 0.3572601
v 0.003029404 -0.2864417 -0.1350134
v 0.003029404 0.2864413 -0.1350134
v 0.003029404 0.2864413 0.3572601
v -0.1503838 -0.2864417 -0.1350134
v 0.003029404 -0.2864417 -0.1350134
v 0.003029404 -0.2864417 0.3572601
v -0.1503838 -0.2864417 0.3572601
v 0.1691281 -0.2782707 0.3572601
v 0.1691281 -0.2782707 -0.1350134
v 0.07328232 -0.3741145 -0.1350134
v 0.07328232 -0.3741145 0.3572601
v 0.07328232 0.3741145 0.3572601
v 0.07328232 0.3741145 -0.1350134
v 0.1691281 0.278271 -0.1350134
v 0.1691281 0.278271 0.3572601
v -0.1383842 -0.2610654 0.445918
v -0.1383842 0.2486848 0.445918
v -0.1383842 0.2486848 0.3692419
v -0.1383842 -0.2610654 0.3692419
v -0.1383842 0.2486848 0.445918
v -0.008970261 0.2486848 0.445918
v -0.008970261 0.2486848 0.3692419
v -0.1383842 0.2486848 0.3692419
v -0.008970261 0.2486848 0.445918
v -0.008970261 -0.2610654 0.445918
v -0.008970261 -0.2610654 0.3692419
v -0.008970261 0.2486848 0.3692419
v -0.008970261 -0.2610654 0.445918
v -0.1383842 -0.2610654 0.445918
v -0.1383842 -0.2610654 0.3692419
v -0.008970261 -0.2610654 0.3692419
v -0.1691281 0.2794281 -0.445918
v -0.1441378 0.2544376 -0.445918
v -0.003219147 0.2544376 -0.445918
v 0.02177109 0.2794281 -0.445918
v -0.1691281 -0.2918085 -0.445918
v -0.003219147 -0.2668176 -0.445918
v -0.1441378 -0.2668176 -0.445918
v 0.02177109 -0.2918085 -0.445918
v -0.1503838 -0.2730653 0.445918
v -0.1383842 0.2486848 0.445918
v -0.1383842 -0.2610654 0.445918
v -0.1503838 0.2606851 0.445918
v 0.003029404 -0.2730653 0.445918
v -0.008970261 0.2486848 0.445918
v -0.008970261 -0.2610654 0.445918
v 0.003029404 0.2606851 0.445918
v -0.1503838 0.2606851 -0.3404602
v -0.1691281 0.2794281 -0.3404602
v 0.02177109 0.2794281 -0.3404602
v 0.003029404 0.2606851 -0.3404602
v -0.1503838 -0.2730653 -0.3404602
v 0.02177109 -0.2918085 -0.3404602
v -0.1691281 -0.2918085 -0.3404602
v 0.003029404 -0.2730653 -0.3404602
vt 0.1479696 0.05312895
vt 0.1479696 0.1180259
vt 0.1314937 0.1180259
vt 0.1314934 0.05312901
vt 0.216738 0.2756648
vt 0.2301656 0.2756665
vt 0.2301643 0.2999701
vt 0.2167345 0.2999685
vt 0.3028902 0.2756667
vt 0.3163184 0.2756667
vt 0.3163181 0.2999704
vt 0.3028896 0.2999702
vt 0.2301643 0.3133987
vt 0.2301643 0.2999701
vt 0.3028896 0.2999702
vt 0.3028892 0.3133991
vt 0.3028902 0.2756667
vt 0.2301656 0.2756665
vt 0.2301656 0.2622377
vt 0.3028902 0.2622379
vt 0.02486762 0.3192348
vt 0.02486762 0.2190988
vt 0.04439866 0.2190988
vt 0.04439866 0.3192348
vt 0.1123511 0.3192348
vt 0.04439866 0.3192348
vt 0.04439866 0.2190988
vt 0.1123508 0.2190987
vt 0.1318825 0.2190987
vt 0.1318825 0.3192348
vt 0.1123511 0.3192348
vt 0.1123508 0.2190987
vt 0.199835 0.2190985
vt 0.199835 0.3192347
vt 0.1318825 0.3192348
vt 0.1318825 0.2190987
vt 0.08103944 0.1186224
vt 0.08103944 0.05226086
vt 0.09898003 0.05226086
vt 0.09898003 0.1186224
vt 0.2333457 0.2788482
vt 0.2464793 0.2788456
vt 0.2464828 0.296786
vt 0.2333473 0.2967886
vt 0.1121146 0.1186224
vt 0.09898003 0.1186224
vt 0.09898003 0.05226086
vt 0.1121146 0.05226086
vt 0.2997097 0.2967886
vt 0.2865771 0.2967934
vt 0.2865704 0.2788529
vt 0.2997065 0.2788482
vt 0.06790486 0.05226086
vt 0.08103944 0.05226086
vt 0.08103944 0.1186224
vt 0.06790519 0.1186224
vt 0.3178084 0.2360394
vt 0.3066465 0.2360399
vt 0.3066458 0.2165087
vt 0.3178071 0.2075643
vt 0.2337113 0.2165116
vt 0.2225495 0.207568
vt 0.2337123 0.2360428
vt 0.2225507 0.2360433
vt 0.2347506 0.1953657
vt 0.3056046 0.1953622
vt 0.3462792 0.1326747
vt 0.3574411 0.1326742
vt 0.3574436 0.1953593
vt 0.346282 0.1953598
vt 0.3462792 0.1326747
vt 0.346282 0.1953598
vt 0.3178071 0.1953612
vt 0.3178039 0.1326763
vt 0.3056046 0.1953622
vt 0.2347506 0.1953657
vt 0.2347484 0.1326817
vt 0.3056017 0.1326759
vt 0.1940719 0.195366
vt 0.1940719 0.132681
vt 0.2225472 0.132681
vt 0.2225472 0.1953661
vt 0.1829101 0.1953661
vt 0.1829101 0.132681
vt 0.1940719 0.132681
vt 0.1940719 0.195366
vt 0.222545 0.1204815
vt 0.3056017 0.1326759
vt 0.2347484 0.1326817
vt 0.3178029 0.1204719
vt 0.30664 0.111529
vt 0.3066381 0.09199756
vt 0.3177997 0.0919966
vt 0.2337056 0.1115364
vt 0.2225421 0.09200618
vt 0.2337037 0.09200511
vt 0.1829101 0.1953661
vt 0.1633794 0.1953661
vt 0.1633781 0.132681
vt 0.1829101 0.132681
vt 0.09044546 0.1953681
vt 0.09044352 0.1326829
vt 0.1633781 0.132681
vt 0.1633794 0.1953661
vt 0.07091218 0.1326836
vt 0.09044352 0.1326829
vt 0.09044546 0.1953681
vt 0.07091412 0.1953686
vt 0.3056046 0.1953622
vt 0.3056017 0.1326759
vt 0.3178039 0.1326763
vt 0.3178071 0.1953612
vt 0.2225472 0.1953661
vt 0.2225472 0.132681
vt 0.2347484 0.1326817
vt 0.2347506 0.1953657
vt 0.1577334 0.05312895
vt 0.1577334 0.1180259
vt 0.1479696 0.1180259
vt 0.1479696 0.05312895
vt 0.1983073 0.3207623
vt 0.1983067 0.3372382
vt 0.1885429 0.3372376
vt 0.1885435 0.3207619
vt 0.1217302 0.118026
vt 0.1217296 0.05312916
vt 0.1314934 0.05312901
vt 0.1314937 0.1180259
vt 0.1334105 0.3372383
vt 0.1334102 0.3207624
vt 0.1431739 0.3207622
vt 0.1431743 0.3372381
vt 0.2301656 0.2756665
vt 0.2333457 0.2788482
vt 0.2333473 0.2967886
vt 0.2301643 0.2999701
vt 0.3028902 0.2756667
vt 0.2997097 0.2967886
vt 0.2997065 0.2788482
vt 0.3028896 0.2999702
vt 0.1318825 0.3192348
vt 0.1983073 0.3207623
vt 0.1334102 0.3207624
vt 0.199835 0.3192347
vt 0.1318825 0.3387661
vt 0.1983067 0.3372382
vt 0.1334105 0.3372383
vt 0.199835 0.3387659
vt 0.2325505 0.335316
vt 0.2301643 0.3377024
vt 0.2301643 0.3133987
vt 0.2325505 0.3157849
vt 0.300503 0.3353164
vt 0.3028892 0.3133991
vt 0.3028892 0.3377028
vt 0.300503 0.3157851
vn 0 0 1
vn 0 0 1
vn 0 0 1
vn 0 0 1
vn 0 1 0
vn 0 1 0
vn 0 1 0
vn 0 1 0
vn 0 -1 0
vn 0 -1 0
vn 0 -1 0
vn 0 -1 0
vn 1 0 0
vn 1 0 0
vn 1 0 0
vn 1 0 0
vn -1 0 0
vn -1 0 0
vn -1 0 0
vn -1 0 0
vn 0 1 0
vn 0 1 0
vn 0 1 0
vn 0 1 0
vn 1 0 0
vn 1 0 0
vn 1 0 0
vn 1 0 0
vn 0 -1 0
vn 0 -1 0
vn 0 -1 0
vn 0 -1 0
vn -1 0 0
vn -1 0 0
vn -1 0 0
vn -1 0 0
vn 0 0 -1
vn 0 0 -1
vn 0 0 -1
vn 0 0 -1
vn 0 -1 0
vn 0 -1 0
vn 0 -1 0
vn 0 -1 0
vn -1 0 0
vn -1 0 0
vn -1 0 0
vn -1 0 0
vn 0 1 0
vn 0 1 0
vn 0 1 0
vn 0 1 0
vn 1 0 0
vn 1 0 0
vn 1 0 0
vn 1 0 0
vn 0 0 1
vn 0 0 1
vn 2.482597E-07 0 1
vn 1.082104E-07 0 1
vn 2.482595E-07 0 1
vn 1.0821E-07 0 1
vn 0 0 1
vn 0 0 1
vn 0 0 1
vn 0 0 1
vn -1 0 0
vn -1 0 0
vn -1 0 0
vn -1 0 0
vn 0 -1 0
vn 0 -1 0
vn 0 -1 0
vn 0 -1 0
vn 1 0 0
vn 1 0 0
vn 1 0 0
vn 1 0 0
vn 0 1 0
vn 0 1 0
vn 0 1 0
vn 0 1 0
vn -1 0 0
vn -1 0 0
vn -1 0 0
vn -1 0 0
vn 0 0 -1
vn 0 0 -1
vn 0 0 -1
vn 0 0 -1
vn 0 0 -1
vn 0 0 -1
vn 0 0 -1
vn 0 0 -1
vn 0 0 -1
vn 0 0 -1
vn 0 -1 0
vn 0 -1 0
vn 0 -1 0
vn 0 -1 0
vn -1 0 0
vn -1 0 0
vn -1 0 0
vn -1 0 0
vn 0 1 0
vn 0 1 0
vn 0 1 0
vn 0 1 0
vn 0.7070994 -0.707114 0
vn 0.7070994 -0.707114 0
vn 0.7070994 -0.707114 0
vn 0.7070994 -0.707114 0
vn 0.7070983 0.7071152 0
vn 0.7070983 0.7071152 0
vn 0.7070983 0.7071152 0
vn 0.7070983 0.7071152 0
vn 1 0 0
vn 1 0 0
vn 1 0 0
vn 1 0 0
vn 0 -1 0
vn 0 -1 0
vn 0 -1 0
vn 0 -1 0
vn -1 0 0
vn -1 0 0
vn -1 0 0
vn -1 0 0
vn 0 1 0
vn 0 1 0
vn 0 1 0
vn 0 1 0
vn 3.000819E-07 0 -1
vn 3.000829E-07 0 -1
vn 3.000838E-07 0 -1
vn 3.000823E-07 0 -1
vn 3.0008E-07 0 -1
vn 3.000834E-07 0 -1
vn 3.000826E-07 0 -1
vn 3.000805E-07 0 -1
vn -3.067935E-06 0 1
vn -3.067961E-06 0 1
vn -3.06797E-06 0 1
vn -3.067898E-06 0 1
vn 3.067925E-06 0 1
vn 3.067945E-06 0 1
vn 3.067954E-06 0 1
vn 3.067888E-06 0 1
vn -5.616889E-07 0 1
vn -5.617055E-07 0 1
vn 7.864392E-07 0 1
vn 7.86461E-07 0 1
vn -5.616884E-07 0 1
vn 7.864359E-07 0 1
vn -5.61703E-07 0 1
vn 7.864603E-07 0 1
g Holder_box_0
f 3/3/3 2/2/2 1/1/1
f 4/4/4 3/3/3 1/1/1
f 7/7/7 6/6/6 5/5/5
f 8/8/8 7/7/7 5/5/5
f 11/11/11 10/10/10 9/9/9
f 12/12/12 11/11/11 9/9/9
f 15/15/15 14/14/14 13/13/13
f 16/16/16 15/15/15 13/13/13
f 19/19/19 18/18/18 17/17/17
f 20/20/20 19/19/19 17/17/17
f 23/23/23 22/22/22 21/21/21
f 24/24/24 23/23/23 21/21/21
f 27/27/27 26/26/26 25/25/25
f 28/28/28 27/27/27 25/25/25
f 31/31/31 30/30/30 29/29/29
f 32/32/32 31/31/31 29/29/29
f 35/35/35 34/34/34 33/33/33
f 36/36/36 35/35/35 33/33/33
f 39/39/39 38/38/38 37/37/37
f 40/40/40 39/39/39 37/37/37
f 43/43/43 42/42/42 41/41/41
f 44/44/44 43/43/43 41/41/41
f 47/47/47 46/46/46 45/45/45
f 48/48/48 47/47/47 45/45/45
f 51/51/51 50/50/50 49/49/49
f 52/52/52 51/51/51 49/49/49
f 55/55/55 54/54/54 53/53/53
f 56/56/56 55/55/55 53/53/53
f 59/59/59 58/58/58 57/57/57
f 60/60/60 59/59/59 57/57/57
f 61/61/61 59/59/59 60/60/60
f 62/62/62 61/61/61 60/60/60
f 63/63/63 61/61/61 62/62/62
f 64/64/64 63/63/63 62/62/62
f 65/65/65 62/62/62 60/60/60
f 66/66/66 65/65/65 60/60/60
f 69/69/69 68/68/68 67/67/67
f 70/70/70 69/69/69 67/67/67
f 73/73/73 72/72/72 71/71/71
f 74/74/74 73/73/73 71/71/71
f 77/77/77 76/76/76 75/75/75
f 78/78/78 77/77/77 75/75/75
f 81/81/81 80/80/80 79/79/79
f 82/82/82 81/81/81 79/79/79
f 85/85/85 84/84/84 83/83/83
f 86/86/86 85/85/85 83/83/83
f 89/89/89 88/88/88 87/87/87
f 88/88/88 90/90/90 87/87/87
f 90/90/90 91/91/91 87/87/87
f 92/92/92 91/91/91 90/90/90
f 93/93/93 92/92/92 90/90/90
f 91/91/91 94/94/94 87/87/87
f 87/87/87 94/94/94 95/95/95
f 94/94/94 96/96/96 95/95/95
f 99/99/99 98/98/98 97/97/97
f 100/100/100 99/99/99 97/97/97
f 103/103/103 102/102/102 101/101/101
f 104/104/104 103/103/103 101/101/101
f 107/107/107 106/106/106 105/105/105
f 108/108/108 107/107/107 105/105/105
f 111/111/111 110/110/110 109/109/109
f 112/112/112 111/111/111 109/109/109
f 115/115/115 114/114/114 113/113/113
f 116/116/116 115/115/115 113/113/113
f 119/119/119 118/118/118 117/117/117
f 120/120/120 119/119/119 117/117/117
f 123/123/123 122/122/122 121/121/121
f 124/124/124 123/123/123 121/121/121
f 127/127/127 126/126/126 125/125/125
f 128/128/128 127/127/127 125/125/125
f 131/131/131 130/130/130 129/129/129
f 132/132/132 131/131/131 129/129/129
f 135/135/135 134/134/134 133/133/133
f 136/136/136 135/135/135 133/133/133
f 133/133/133 134/134/134 137/137/137
f 138/138/138 135/135/135 136/136/136
f 134/134/134 139/139/139 137/137/137
f 140/140/140 138/138/138 136/136/136
f 137/137/137 139/139/139 140/140/140
f 139/139/139 138/138/138 140/140/140
f 143/143/143 142/142/142 141/141/141
f 142/142/142 144/144/144 141/141/141
f 143/143/143 141/141/141 145/145/145
f 142/142/142 146/146/146 144/144/144
f 147/147/147 143/143/143 145/145/145
f 146/146/146 148/148/148 144/144/144
f 147/147/147 145/145/145 148/148/148
f 146/146/146 147/147/147 148/148/148
f 151/151/151 150/150/150 149/149/149
f 152/152/152 151/151/151 149/149/149
f 149/149/149 150/150/150 153/153/153
f 154/154/154 151/151/151 152/152/152
f 150/150/150 155/155/155 153/153/153
f 156/156/156 154/154/154 152/152/152
f 153/153/153 155/155/155 156/156/156
f 155/155/155 154/154/154 156/156/156
