g honneyplate_LOD0
v -0.1148023 0.8170187 0.3933346
v 0.000153847 0.8730163 0.3684478
v -0.1072751 0.8201059 0.4018285
v -5.595386E-06 0.8726177 0.3562458
v 0.1065051 0.8201872 0.4019031
v 0.000153847 0.8730163 0.3684478
v 0.1139011 0.8171138 0.3934196
v 0.1056896 0.7315419 0.4781274
v 0.1065051 0.8201872 0.4019031
v 0.1129528 0.722497 0.4749486
v 0.1087878 0.6767575 0.4259776
v 0.1097124 0.7675596 0.3482369
v 0.0001456141 0.6404755 0.471729
v 0.000151217 0.6845026 0.5227646
v -0.1083239 0.6768028 0.4260141
v 0.0001519322 0.6960338 0.5229341
v 0.1056896 0.7315419 0.4781274
v -0.113477 0.722437 0.474893
v -0.1096128 0.7675707 0.348245
v -0.1148023 0.8170187 0.3933346
v -0.1072751 0.8201059 0.4018285
v -0.1062663 0.7314765 0.4780669
v -0.1062663 0.7314765 0.4780669
v 0.0001519322 0.6960338 0.5229341
v -0.2276672 0.9221945 0.2292391
v -0.114036 0.9744323 0.1977245
v -0.2210624 0.9263607 0.2381488
v -0.1133863 0.9736774 0.1859503
v -0.1081986 0.9198993 0.1459874
v -0.2172904 0.869684 0.1883473
v 0 0.8960525 0.2080957
v 0 0.949169 0.2495182
v -0.008007169 0.9514974 0.257072
v -0.114036 0.9744323 0.1977245
v -0.008076921 0.8800285 0.3567401
v -0.008007169 0.9514974 0.257072
v -5.595386E-06 0.8726177 0.3562458
v -0.1156254 0.8290128 0.3927069
v -0.008076921 0.8800285 0.3567401
v -0.1148023 0.8170187 0.3933346
v -0.2229879 0.8558161 0.3380245
v -0.1156254 0.8290128 0.3927069
v -0.2298054 0.8467152 0.3361996
v -0.2194096 0.7961348 0.2929204
v -0.1096128 0.7675707 0.348245
v -0.2172904 0.869684 0.1883473
v -0.2276672 0.9221945 0.2292391
v -0.2210624 0.9263607 0.2381488
v -0.2229879 0.8558161 0.3380245
v 0 0.949169 0.2495182
v 0.1131609 0.974525 0.1978056
v 0.007939219 0.9515046 0.2570783
v 0.1126372 0.9737567 0.1860198
v 0.1084556 0.919872 0.1459636
v 0 0.8960525 0.2080957
v 0.2175985 0.8696513 0.1883188
v 0.2259629 0.922375 0.2293971
v 0.2193067 0.7961457 0.2929299
v 0.2191868 0.9265592 0.2383228
v 0.1131609 0.974525 0.1978056
v 0.2276863 0.8469394 0.3363961
v 0.1097124 0.7675596 0.3482369
v 0.1139011 0.8171138 0.3934196
v 0.2207388 0.8560542 0.3382331
v 0.2191868 0.9265592 0.2383228
v 0.1144421 0.829138 0.3928166
v 0.2207388 0.8560542 0.3382331
v 0.007995442 0.8800371 0.3567476
v 0.1144421 0.829138 0.3928166
v -5.595386E-06 0.8726177 0.3562458
v 0.007939219 0.9515046 0.2570783
v 0.007995442 0.8800371 0.3567476
v 0 0.949169 0.2495182
v -0.1083239 0.6768028 0.4260141
v 0.0001425147 0.6959979 0.358871
v -0.1096128 0.7675707 0.348245
v 0.0001456141 0.6404755 0.471729
v -5.342066E-06 0.8214305 0.3124349
v 0.1087878 0.6767575 0.4259776
v 0.1097124 0.7675596 0.3482369
v -0.2194096 0.7961348 0.2929204
v -0.1052178 0.8055001 0.2175089
v -0.2172904 0.869684 0.1883473
v -0.1096128 0.7675707 0.348245
v -0.1081986 0.9198993 0.1459874
v -5.342066E-06 0.8214305 0.3124349
v 0 0.8960525 0.2080957
v 0.2193067 0.7961457 0.2929299
v 0.1060529 0.8054117 0.2174314
v 0.1097124 0.7675596 0.3482369
v 0.2175985 0.8696513 0.1883188
v -5.342066E-06 0.8214305 0.3124349
v 0.1084556 0.919872 0.1459636
v 0 0.8960525 0.2080957
v -0.1072751 0.8201059 0.4018285
v 0.0001522005 0.7786536 0.4405008
v -0.1062663 0.7314765 0.4780669
v 0.000153847 0.8730163 0.3684478
v 0.0001519322 0.6960338 0.5229341
v 0.1065051 0.8201872 0.4019031
v 0.1056896 0.7315419 0.4781274
v -0.2210624 0.9263607 0.2381488
v -0.1141967 0.8950768 0.2906768
v -0.2229879 0.8558161 0.3380245
v -0.114036 0.9744323 0.1977245
v -0.1156254 0.8290128 0.3927069
v -0.008007169 0.9514974 0.257072
v -0.008076921 0.8800285 0.3567401
v 0.007939219 0.9515046 0.2570783
v 0.1132905 0.8951727 0.2907609
v 0.007995442 0.8800371 0.3567476
v 0.1131609 0.974525 0.1978056
v 0.1144421 0.829138 0.3928166
v 0.2191868 0.9265592 0.2383228
v 0.2207388 0.8560542 0.3382331
vt 0.625 0.6508496
vt 0.5847599 0.6884398
vt 0.6235734 0.6884398
vt 0.5833333 0.6508496
vt 0.5430933 0.6884398
vt 0.5819067 0.6884398
vt 0.5416666 0.6508496
vt 0.5014266 0.6884398
vt 0.54024 0.6884398
vt 0.5 0.6508496
vt 0.5 0.3125
vt 0.5416666 0.3125
vt 0.4583333 0.3125
vt 0.4583333 0.6508496
vt 0.4166667 0.3125
vt 0.4597599 0.6884398
vt 0.4985734 0.6884398
vt 0.4166666 0.6508496
vt 0.375 0.3125
vt 0.375 0.6508496
vt 0.3764266 0.6884398
vt 0.4152401 0.6884398
vt 0.4180933 0.6884398
vt 0.4569067 0.6884398
vt 0.625 0.6508496
vt 0.5847599 0.6884398
vt 0.6235734 0.6884398
vt 0.5833333 0.6508496
vt 0.5833333 0.3125
vt 0.625 0.3125
vt 0.5416666 0.3125
vt 0.5416666 0.6508496
vt 0.5430933 0.6884398
vt 0.5819067 0.6884398
vt 0.5014266 0.6884398
vt 0.54024 0.6884398
vt 0.5 0.6508496
vt 0.4597599 0.6884398
vt 0.4985734 0.6884398
vt 0.4583333 0.6508496
vt 0.4180933 0.6884398
vt 0.4569067 0.6884398
vt 0.4166666 0.6508496
vt 0.4166667 0.3125
vt 0.4583333 0.3125
vt 0.375 0.3125
vt 0.375 0.6508496
vt 0.3764266 0.6884398
vt 0.4152401 0.6884398
vt 0.625 0.6508496
vt 0.5847599 0.6884398
vt 0.6235734 0.6884398
vt 0.5833333 0.6508496
vt 0.5833333 0.3125
vt 0.625 0.3125
vt 0.5416666 0.3125
vt 0.5416666 0.6508496
vt 0.5 0.3125
vt 0.5430933 0.6884398
vt 0.5819067 0.6884398
vt 0.5 0.6508496
vt 0.4583333 0.3125
vt 0.4583333 0.6508496
vt 0.5014266 0.6884398
vt 0.54024 0.6884398
vt 0.4597599 0.6884398
vt 0.4985734 0.6884398
vt 0.4180933 0.6884398
vt 0.4569067 0.6884398
vt 0.4166666 0.6508496
vt 0.3764266 0.6884398
vt 0.4152401 0.6884398
vt 0.375 0.6508496
vt 0.421875 0.02093351
vt 0.5 0.15
vt 0.5781251 0.02093354
vt 0.34375 0.15625
vt 0.65625 0.15625
vt 0.421875 0.2915665
vt 0.578125 0.2915665
vt 0.421875 0.02093351
vt 0.5 0.15
vt 0.5781251 0.02093354
vt 0.34375 0.15625
vt 0.65625 0.15625
vt 0.421875 0.2915665
vt 0.578125 0.2915665
vt 0.421875 0.2915665
vt 0.5 0.15
vt 0.34375 0.15625
vt 0.578125 0.2915665
vt 0.421875 0.02093351
vt 0.65625 0.15625
vt 0.5781251 0.02093354
vt 0.5727752 0.9693725
vt 0.5 0.8375
vt 0.4272248 0.9693725
vt 0.6455505 0.843322
vt 0.3544495 0.843322
vt 0.5727752 0.7172716
vt 0.4272248 0.7172716
vt 0.5727752 0.9693725
vt 0.5 0.8375
vt 0.4272248 0.9693725
vt 0.6455505 0.843322
vt 0.3544495 0.843322
vt 0.5727752 0.7172716
vt 0.4272248 0.7172716
vt 0.5727752 0.9693725
vt 0.5 0.8375
vt 0.4272248 0.9693725
vt 0.6455505 0.843322
vt 0.3544495 0.843322
vt 0.5727752 0.7172716
vt 0.4272248 0.7172716
vn -0.9942601 0.1049366 0.02086104
vn 0.0003428365 0.7689957 0.6392539
vn -0.2136734 0.7051874 0.676058
vn -0.005330158 0.9999558 0.007748382
vn 0.2144143 0.7047793 0.6762489
vn 0.0003428365 0.7689957 0.6392539
vn 0.9931113 0.113953 0.02728868
vn 0.213864 0.5807294 0.7855034
vn 0.2144143 0.7047793 0.6762489
vn 0.8532282 -0.3574824 0.3797472
vn 0.7311221 -0.6803129 -0.05133053
vn 0.744621 -0.3422033 -0.5730937
vn 0.0001257375 -0.957634 0.287988
vn 0.0002286528 -0.6880949 0.7256207
vn -0.7267643 -0.6848294 -0.05312562
vn -0.0003570318 0.5522249 0.8336951
vn 0.213864 0.5807294 0.7855034
vn -0.852949 -0.364325 0.3738254
vn -0.7402335 -0.3478349 -0.5753827
vn -0.9942601 0.1049366 0.02086104
vn -0.2136734 0.7051874 0.676058
vn -0.2130012 0.580537 0.78588
vn -0.2130012 0.580537 0.78588
vn -0.0003570318 0.5522249 0.8336951
vn -0.8675275 0.2744644 -0.4148074
vn -0.1434307 0.8672631 0.4767412
vn -0.2405978 0.8251435 0.5111272
vn 0.0062314 0.6593804 -0.7517837
vn 0.05516422 0.1620212 -0.9852442
vn -0.6993895 -0.1724897 -0.693615
vn 0.5852883 -0.08093392 -0.8067759
vn 0.5277808 0.6507651 -0.5458499
vn -0.04634779 0.8438491 0.5345751
vn -0.1434307 0.8672631 0.4767412
vn -0.05188255 0.7554283 0.653174
vn -0.04634779 0.8438491 0.5345751
vn 0.4717059 0.4099064 0.7806859
vn -0.138062 0.6941954 0.7064217
vn -0.05188255 0.7554283 0.653174
vn -0.4296016 -0.5148101 0.7418981
vn -0.2316971 0.7371075 0.6348141
vn -0.138062 0.6941954 0.7064217
vn -0.8565005 -0.3607456 0.3691469
vn -0.7035849 -0.7105041 0.0123397
vn -0.1692465 -0.9718235 0.1640574
vn -0.6993895 -0.1724897 -0.693615
vn -0.8675275 0.2744644 -0.4148074
vn -0.2405978 0.8251435 0.5111272
vn -0.2316971 0.7371075 0.6348141
vn -0.5296288 0.6472836 -0.5481945
vn 0.1429625 0.8676637 0.4761527
vn 0.04575395 0.8436098 0.5350038
vn -0.009774957 0.6621977 -0.7492654
vn -0.05198542 0.1632114 -0.9852206
vn -0.584573 -0.08591273 -0.8067797
vn 0.7091439 -0.1643089 -0.6856512
vn 0.8680655 0.2924103 -0.4011961
vn 0.7130293 -0.7008678 0.01932956
vn 0.2412704 0.8247881 0.5113835
vn 0.1429625 0.8676637 0.4761527
vn 0.8568304 -0.344088 0.3839857
vn 0.1718821 -0.9705092 0.1690221
vn 0.4333565 -0.5057516 0.745934
vn 0.2316653 0.7372757 0.6346304
vn 0.2412704 0.8247881 0.5113835
vn 0.1369529 0.693616 0.7072064
vn 0.2316653 0.7372757 0.6346304
vn 0.05135676 0.75589 0.6526812
vn 0.1369529 0.693616 0.7072064
vn -0.4768339 0.4064289 0.7793876
vn 0.04575395 0.8436098 0.5350038
vn 0.05135676 0.75589 0.6526812
vn -0.5296288 0.6472836 -0.5481945
vn -0.7267643 -0.6848294 -0.05312562
vn -9.923891E-05 -0.6580281 -0.7529934
vn -0.7402335 -0.3478349 -0.5753827
vn 0.0001257375 -0.957634 0.287988
vn -0.0001695484 -0.3471805 -0.9377983
vn 0.7311221 -0.6803129 -0.05133053
vn 0.744621 -0.3422033 -0.5730937
vn -0.7035849 -0.7105041 0.0123397
vn 0.1418094 -0.7950078 -0.5897902
vn -0.6993895 -0.1724897 -0.693615
vn -0.1692465 -0.9718235 0.1640574
vn 0.05516422 0.1620212 -0.9852442
vn 0.4620238 -0.8025576 -0.3774061
vn 0.5852883 -0.08093392 -0.8067759
vn 0.7130293 -0.7008678 0.01932956
vn -0.1407503 -0.7950664 -0.589965
vn 0.1718821 -0.9705092 0.1690221
vn 0.7091439 -0.1643089 -0.6856512
vn -0.4607171 -0.8025546 -0.3790063
vn -0.05198542 0.1632114 -0.9852206
vn -0.584573 -0.08591273 -0.8067797
vn -0.2136734 0.7051874 0.676058
vn -0.0005114283 0.6552019 0.7554536
vn -0.2130012 0.580537 0.78588
vn 0.0003428365 0.7689957 0.6392539
vn -0.0003570318 0.5522249 0.8336951
vn 0.2144143 0.7047793 0.6762489
vn 0.213864 0.5807294 0.7855034
vn -0.2405978 0.8251435 0.5111272
vn -0.1433315 0.798174 0.5851278
vn -0.2316971 0.7371075 0.6348141
vn -0.1434307 0.8672631 0.4767412
vn -0.138062 0.6941954 0.7064217
vn -0.04634779 0.8438491 0.5345751
vn -0.05188255 0.7554283 0.653174
vn 0.04575395 0.8436098 0.5350038
vn 0.1433111 0.7982033 0.5850925
vn 0.05135676 0.75589 0.6526812
vn 0.1429625 0.8676637 0.4761527
vn 0.1369529 0.693616 0.7072064
vn 0.2412704 0.8247881 0.5113835
vn 0.2316653 0.7372757 0.6346304
g honneyplate_LOD0_0
f 3/3/3 2/2/2 1/1/1
f 2/2/2 4/4/4 1/1/1
f 4/4/4 6/6/6 5/5/5
f 7/7/7 4/4/4 5/5/5
f 7/7/7 9/9/9 8/8/8
f 10/10/10 7/7/7 8/8/8
f 7/7/7 10/10/10 11/11/11
f 12/12/12 7/7/7 11/11/11
f 11/11/11 10/10/10 13/13/13
f 10/10/10 14/14/14 13/13/13
f 13/13/13 14/14/14 15/15/15
f 14/14/14 10/10/10 16/16/16
f 10/10/10 17/17/17 16/16/16
f 14/14/14 18/18/18 15/15/15
f 15/15/15 18/18/18 19/19/19
f 18/18/18 20/20/20 19/19/19
f 20/20/20 18/18/18 21/21/21
f 18/18/18 22/22/22 21/21/21
f 18/18/18 14/14/14 23/23/23
f 14/14/14 24/24/24 23/23/23
f 27/27/27 26/26/26 25/25/25
f 26/26/26 28/28/28 25/25/25
f 25/25/25 28/28/28 29/29/29
f 30/30/30 25/25/25 29/29/29
f 29/29/29 28/28/28 31/31/31
f 28/28/28 32/32/32 31/31/31
f 32/32/32 28/28/28 33/33/33
f 28/28/28 34/34/34 33/33/33
f 32/32/32 36/36/36 35/35/35
f 37/37/37 32/32/32 35/35/35
f 37/37/37 39/39/39 38/38/38
f 40/40/40 37/37/37 38/38/38
f 40/40/40 42/42/42 41/41/41
f 43/43/43 40/40/40 41/41/41
f 40/40/40 43/43/43 44/44/44
f 45/45/45 40/40/40 44/44/44
f 44/44/44 43/43/43 46/46/46
f 43/43/43 47/47/47 46/46/46
f 47/47/47 43/43/43 48/48/48
f 43/43/43 49/49/49 48/48/48
f 52/52/52 51/51/51 50/50/50
f 51/51/51 53/53/53 50/50/50
f 50/50/50 53/53/53 54/54/54
f 55/55/55 50/50/50 54/54/54
f 54/54/54 53/53/53 56/56/56
f 53/53/53 57/57/57 56/56/56
f 56/56/56 57/57/57 58/58/58
f 57/57/57 53/53/53 59/59/59
f 53/53/53 60/60/60 59/59/59
f 57/57/57 61/61/61 58/58/58
f 58/58/58 61/61/61 62/62/62
f 61/61/61 63/63/63 62/62/62
f 61/61/61 57/57/57 64/64/64
f 57/57/57 65/65/65 64/64/64
f 63/63/63 61/61/61 66/66/66
f 61/61/61 67/67/67 66/66/66
f 63/63/63 69/69/69 68/68/68
f 70/70/70 63/63/63 68/68/68
f 70/70/70 72/72/72 71/71/71
f 73/73/73 70/70/70 71/71/71
f 76/76/76 75/75/75 74/74/74
f 74/74/74 75/75/75 77/77/77
f 78/78/78 75/75/75 76/76/76
f 77/77/77 75/75/75 79/79/79
f 80/80/80 75/75/75 78/78/78
f 79/79/79 75/75/75 80/80/80
f 83/83/83 82/82/82 81/81/81
f 81/81/81 82/82/82 84/84/84
f 85/85/85 82/82/82 83/83/83
f 84/84/84 82/82/82 86/86/86
f 87/87/87 82/82/82 85/85/85
f 86/86/86 82/82/82 87/87/87
f 90/90/90 89/89/89 88/88/88
f 88/88/88 89/89/89 91/91/91
f 92/92/92 89/89/89 90/90/90
f 91/91/91 89/89/89 93/93/93
f 94/94/94 89/89/89 92/92/92
f 93/93/93 89/89/89 94/94/94
f 97/97/97 96/96/96 95/95/95
f 95/95/95 96/96/96 98/98/98
f 99/99/99 96/96/96 97/97/97
f 98/98/98 96/96/96 100/100/100
f 101/101/101 96/96/96 99/99/99
f 100/100/100 96/96/96 101/101/101
f 104/104/104 103/103/103 102/102/102
f 102/102/102 103/103/103 105/105/105
f 106/106/106 103/103/103 104/104/104
f 105/105/105 103/103/103 107/107/107
f 108/108/108 103/103/103 106/106/106
f 107/107/107 103/103/103 108/108/108
f 111/111/111 110/110/110 109/109/109
f 109/109/109 110/110/110 112/112/112
f 113/113/113 110/110/110 111/111/111
f 112/112/112 110/110/110 114/114/114
f 115/115/115 110/110/110 113/113/113
f 114/114/114 110/110/110 115/115/115
