g honneyplate_LOD1
v -0.1148023 0.7724751 0.3169369
v 0.0001538452 0.8331911 0.2873876
v -0.1072751 0.7767693 0.3251382
v -5.597249E-06 0.8315707 0.2752634
v 0.1065051 0.7768681 0.3252056
v 0.0001538452 0.8331911 0.2873876
v 0.1139011 0.7725905 0.3170136
v 0.1056896 0.6842884 0.4086779
v 0.1065051 0.7768681 0.3252056
v 0.1129528 0.6737904 0.4062783
v 0.1087878 0.6175451 0.3613657
v 0.1097124 0.7124099 0.2761994
v 0.0001456141 0.5810497 0.4100312
v 0.000151217 0.6355634 0.4571462
v -0.1083239 0.6175998 0.3613983
v 0.0001519322 0.6485744 0.4563365
v 0.1056896 0.6842884 0.4086779
v -0.113477 0.6737175 0.4062279
v -0.1096128 0.7124232 0.2762065
v -0.1148023 0.7724751 0.3169369
v -0.1072751 0.7767693 0.3251382
v -0.1062663 0.6842088 0.4086233
v -0.1062663 0.6842088 0.4086233
v 0.0001519322 0.6485744 0.4563365
v -0.2276672 0.8752491 0.1445074
v -0.114036 0.931092 0.1086733
v -0.2210624 0.8807992 0.1530315
v -0.1133863 0.9291112 0.09700567
v -0.1081986 0.8646718 0.06175092
v -0.2172904 0.8121489 0.1082196
v 0 0.8437597 0.1256589
v 0 0.9075937 0.1624241
v -0.008007169 0.9109426 0.1697531
v -0.114036 0.931092 0.1086733
v -0.008076914 0.8399696 0.275127
v -0.008007169 0.9109426 0.1697531
v -5.597249E-06 0.8315707 0.2752634
v -0.1156254 0.7859311 0.3152936
v -0.008076914 0.8399696 0.275127
v -0.1148023 0.7724751 0.3169369
v -0.2229879 0.8108878 0.2585337
v -0.1156254 0.7859311 0.3152936
v -0.2298054 0.8004565 0.2574878
v -0.2194096 0.7393023 0.2186574
v -0.1096128 0.7124232 0.2762065
v -0.2172904 0.8121489 0.1082196
v -0.2276672 0.8752491 0.1445074
v -0.2210624 0.8807992 0.1530315
v -0.2229879 0.8108878 0.2585337
v 0 0.9075937 0.1624241
v 0.1131609 0.9312042 0.1087463
v 0.007939219 0.9109513 0.1697587
v 0.1126372 0.9292071 0.09706816
v 0.1084556 0.8646387 0.06172949
v 0 0.8437597 0.1256589
v 0.2175985 0.8121094 0.1081939
v 0.2259629 0.8754676 0.1446496
v 0.2193067 0.7393155 0.218666
v 0.2191868 0.8810397 0.1531879
v 0.1131609 0.9312042 0.1087463
v 0.2276863 0.8007281 0.2576646
v 0.1097124 0.7124099 0.2761994
v 0.1139011 0.7725905 0.3170136
v 0.2207388 0.8111761 0.2587214
v 0.2191868 0.8810397 0.1531879
v 0.1144421 0.7860829 0.3153923
v 0.2207388 0.8111761 0.2587214
v 0.00799544 0.83998 0.2751338
v 0.1144421 0.7860829 0.3153923
v -5.597249E-06 0.8315707 0.2752634
v 0.007939219 0.9109513 0.1697587
v 0.00799544 0.83998 0.2751338
v 0 0.9075937 0.1624241
v -0.1083239 0.6175998 0.3613983
v 0.0001425147 0.6327864 0.2928683
v -0.1096128 0.7124232 0.2762065
v 0.0001456141 0.5810497 0.4100312
v -5.343463E-06 0.7696817 0.2359546
v 0.1087878 0.6175451 0.3613657
v 0.1097124 0.7124099 0.2761994
v -0.2194096 0.7393023 0.2186574
v -0.1052178 0.742618 0.142723
v -0.2172904 0.8121489 0.1082196
v -0.1096128 0.7124232 0.2762065
v -0.1081986 0.8646718 0.06175092
v -5.343463E-06 0.7696817 0.2359546
v 0 0.8437597 0.1256589
v 0.2193067 0.7393155 0.218666
v 0.1060529 0.742511 0.1426534
v 0.1097124 0.7124099 0.2761994
v 0.2175985 0.8121094 0.1081939
v -5.343463E-06 0.7696817 0.2359546
v 0.1084556 0.8646387 0.06172949
v 0 0.8437597 0.1256589
v -0.1072751 0.7767693 0.3251382
v 0.0001522005 0.7337679 0.3671889
v -0.1062663 0.6842088 0.4086233
v 0.0001538452 0.8331911 0.2873876
v 0.0001519322 0.6485744 0.4563365
v 0.1065051 0.7768681 0.3252056
v 0.1056896 0.6842884 0.4086779
v -0.2210624 0.8807992 0.1530315
v -0.1141967 0.8505867 0.2080249
v -0.2229879 0.8108878 0.2585337
v -0.114036 0.931092 0.1086733
v -0.1156254 0.7859311 0.3152936
v -0.008007169 0.9109426 0.1697531
v -0.008076914 0.8399696 0.275127
v 0.007939219 0.9109513 0.1697587
v 0.1132905 0.8507029 0.2081005
v 0.00799544 0.83998 0.2751338
v 0.1131609 0.9312042 0.1087463
v 0.1144421 0.7860829 0.3153923
v 0.2191868 0.8810397 0.1531879
v 0.2207388 0.8111761 0.2587214
vt 0.625 0.6508496
vt 0.5847599 0.6884398
vt 0.6235734 0.6884398
vt 0.5833333 0.6508496
vt 0.5430933 0.6884398
vt 0.5819067 0.6884398
vt 0.5416666 0.6508496
vt 0.5014266 0.6884398
vt 0.54024 0.6884398
vt 0.5 0.6508496
vt 0.5 0.3125
vt 0.5416666 0.3125
vt 0.4583333 0.3125
vt 0.4583333 0.6508496
vt 0.4166667 0.3125
vt 0.4597599 0.6884398
vt 0.4985734 0.6884398
vt 0.4166666 0.6508496
vt 0.375 0.3125
vt 0.375 0.6508496
vt 0.3764266 0.6884398
vt 0.4152401 0.6884398
vt 0.4180933 0.6884398
vt 0.4569067 0.6884398
vt 0.625 0.6508496
vt 0.5847599 0.6884398
vt 0.6235734 0.6884398
vt 0.5833333 0.6508496
vt 0.5833333 0.3125
vt 0.625 0.3125
vt 0.5416666 0.3125
vt 0.5416666 0.6508496
vt 0.5430933 0.6884398
vt 0.5819067 0.6884398
vt 0.5014266 0.6884398
vt 0.54024 0.6884398
vt 0.5 0.6508496
vt 0.4597599 0.6884398
vt 0.4985734 0.6884398
vt 0.4583333 0.6508496
vt 0.4180933 0.6884398
vt 0.4569067 0.6884398
vt 0.4166666 0.6508496
vt 0.4166667 0.3125
vt 0.4583333 0.3125
vt 0.375 0.3125
vt 0.375 0.6508496
vt 0.3764266 0.6884398
vt 0.4152401 0.6884398
vt 0.625 0.6508496
vt 0.5847599 0.6884398
vt 0.6235734 0.6884398
vt 0.5833333 0.6508496
vt 0.5833333 0.3125
vt 0.625 0.3125
vt 0.5416666 0.3125
vt 0.5416666 0.6508496
vt 0.5 0.3125
vt 0.5430933 0.6884398
vt 0.5819067 0.6884398
vt 0.5 0.6508496
vt 0.4583333 0.3125
vt 0.4583333 0.6508496
vt 0.5014266 0.6884398
vt 0.54024 0.6884398
vt 0.4597599 0.6884398
vt 0.4985734 0.6884398
vt 0.4180933 0.6884398
vt 0.4569067 0.6884398
vt 0.4166666 0.6508496
vt 0.3764266 0.6884398
vt 0.4152401 0.6884398
vt 0.375 0.6508496
vt 0.421875 0.02093351
vt 0.5 0.15
vt 0.5781251 0.02093354
vt 0.34375 0.15625
vt 0.65625 0.15625
vt 0.421875 0.2915665
vt 0.578125 0.2915665
vt 0.421875 0.02093351
vt 0.5 0.15
vt 0.5781251 0.02093354
vt 0.34375 0.15625
vt 0.65625 0.15625
vt 0.421875 0.2915665
vt 0.578125 0.2915665
vt 0.421875 0.2915665
vt 0.5 0.15
vt 0.34375 0.15625
vt 0.578125 0.2915665
vt 0.421875 0.02093351
vt 0.65625 0.15625
vt 0.5781251 0.02093354
vt 0.5727752 0.9693725
vt 0.5 0.8375
vt 0.4272248 0.9693725
vt 0.6455505 0.843322
vt 0.3544495 0.843322
vt 0.5727752 0.7172716
vt 0.4272248 0.7172716
vt 0.5727752 0.9693725
vt 0.5 0.8375
vt 0.4272248 0.9693725
vt 0.6455505 0.843322
vt 0.3544495 0.843322
vt 0.5727752 0.7172716
vt 0.4272248 0.7172716
vt 0.5727752 0.9693725
vt 0.5 0.8375
vt 0.4272248 0.9693725
vt 0.6455505 0.843322
vt 0.3544495 0.843322
vt 0.5727752 0.7172716
vt 0.4272248 0.7172716
vn -0.9941129 0.1064311 0.02029643
vn 0.0003617217 0.7882582 0.6153446
vn -0.22309 0.7189895 0.6582438
vn -0.005773725 0.9961762 -0.08717466
vn 0.2238282 0.7185923 0.6584268
vn 0.0003617217 0.7882582 0.6153446
vn 0.993077 0.1146175 0.0257092
vn 0.2265581 0.6027732 0.7650725
vn 0.2238282 0.7185923 0.6584268
vn 0.8756357 -0.2778693 0.3950324
vn 0.754558 -0.6560592 0.01512011
vn 0.7663416 -0.3391359 -0.5456257
vn 0.0001544621 -0.9152927 0.4027895
vn 0.000295116 -0.5809441 0.8139434
vn -0.7507419 -0.660454 0.01368568
vn -0.0003679122 0.5698216 0.8217683
vn 0.2265581 0.6027732 0.7650725
vn -0.8757094 -0.2849692 0.3897763
vn -0.762145 -0.3447818 -0.5479603
vn -0.9941129 0.1064311 0.02029643
vn -0.22309 0.7189895 0.6582438
vn -0.2256632 0.6025864 0.765484
vn -0.2256632 0.6025864 0.765484
vn -0.0003679122 0.5698216 0.8217683
vn -0.8591659 0.2283652 -0.4579118
vn -0.1584131 0.8828394 0.4421538
vn -0.2582724 0.8375763 0.4814158
vn 0.01228939 0.5495285 -0.8353846
vn 0.05093011 0.08160294 -0.9953628
vn -0.711876 -0.215906 -0.6682943
vn 0.581752 -0.1379761 -0.801578
vn 0.5514717 0.5534819 -0.6241287
vn -0.05333593 0.8602957 0.5069976
vn -0.1584131 0.8828394 0.4421538
vn -0.05755234 0.776063 0.6280239
vn -0.05333593 0.8602957 0.5069976
vn 0.4691028 0.413852 0.7801725
vn -0.1454789 0.706104 0.693003
vn -0.05755234 0.776063 0.6280239
vn -0.4429296 -0.412033 0.7962676
vn -0.2507808 0.7525951 0.6088592
vn -0.1454789 0.706104 0.693003
vn -0.8778054 -0.2858163 0.3844043
vn -0.7315639 -0.6764039 0.08539262
vn -0.1855525 -0.9450271 0.2692469
vn -0.711876 -0.215906 -0.6682943
vn -0.8591659 0.2283652 -0.4579118
vn -0.2582724 0.8375763 0.4814158
vn -0.2507808 0.7525951 0.6088592
vn -0.5531165 0.5497977 -0.625927
vn 0.1579102 0.8832555 0.4415021
vn 0.05272247 0.8600593 0.5074628
vn -0.0157172 0.552441 -0.8334038
vn -0.0480536 0.08276263 -0.99541
vn -0.5811278 -0.1423099 -0.801273
vn 0.7215556 -0.2074733 -0.6605394
vn 0.8607593 0.2449211 -0.4462141
vn 0.739998 -0.6663073 0.09185683
vn 0.2590041 0.8371955 0.4816851
vn 0.1579102 0.8832555 0.4415021
vn 0.8773025 -0.2689549 0.3974967
vn 0.1882552 -0.9430333 0.274314
vn 0.446307 -0.403293 0.7988521
vn 0.2507493 0.7527564 0.6086729
vn 0.2590041 0.8371955 0.4816851
vn 0.1443933 0.7054957 0.6938489
vn 0.2507493 0.7527564 0.6086729
vn 0.05700106 0.776524 0.6275041
vn 0.1443933 0.7054957 0.6938489
vn -0.4742247 0.4104243 0.7788857
vn 0.05272247 0.8600593 0.5074628
vn 0.05700106 0.776524 0.6275041
vn -0.5531165 0.5497977 -0.625927
vn -0.7507419 -0.660454 0.01368568
vn -0.0001079076 -0.6809924 -0.7322906
vn -0.762145 -0.3447818 -0.5479603
vn 0.0001544621 -0.9152927 0.4027895
vn -0.0001621014 -0.383891 -0.9233783
vn 0.754558 -0.6560592 0.01512011
vn 0.7663416 -0.3391359 -0.5456257
vn -0.7315639 -0.6764039 0.08539262
vn 0.1525849 -0.8153391 -0.5585159
vn -0.711876 -0.215906 -0.6682943
vn -0.1855525 -0.9450271 0.2692469
vn 0.05093011 0.08160294 -0.9953628
vn 0.5035937 -0.7953157 -0.3374406
vn 0.581752 -0.1379761 -0.801578
vn 0.739998 -0.6663073 0.09185683
vn -0.151486 -0.8154263 -0.5586876
vn 0.1882552 -0.9430333 0.274314
vn 0.7215556 -0.2074733 -0.6605394
vn -0.5021529 -0.7954995 -0.3391504
vn -0.0480536 0.08276263 -0.99541
vn -0.5811278 -0.1423099 -0.801273
vn -0.22309 0.7189895 0.6582438
vn -0.0005445122 0.6725971 0.7400087
vn -0.2256632 0.6025864 0.765484
vn 0.0003617217 0.7882582 0.6153446
vn -0.0003679122 0.5698216 0.8217683
vn 0.2238282 0.7185923 0.6584268
vn 0.2265581 0.6027732 0.7650725
vn -0.2582724 0.8375763 0.4814158
vn -0.1560079 0.8134431 0.5603318
vn -0.2507808 0.7525951 0.6088592
vn -0.1584131 0.8828394 0.4421538
vn -0.1454789 0.706104 0.693003
vn -0.05333593 0.8602957 0.5069976
vn -0.05755234 0.776063 0.6280239
vn 0.05272247 0.8600593 0.5074628
vn 0.1559869 0.8134754 0.5602908
vn 0.05700106 0.776524 0.6275041
vn 0.1579102 0.8832555 0.4415021
vn 0.1443933 0.7054957 0.6938489
vn 0.2590041 0.8371955 0.4816851
vn 0.2507493 0.7527564 0.6086729
g honneyplate_LOD1_0
f 3/3/3 2/2/2 1/1/1
f 2/2/2 4/4/4 1/1/1
f 4/4/4 6/6/6 5/5/5
f 7/7/7 4/4/4 5/5/5
f 7/7/7 9/9/9 8/8/8
f 10/10/10 7/7/7 8/8/8
f 7/7/7 10/10/10 11/11/11
f 12/12/12 7/7/7 11/11/11
f 11/11/11 10/10/10 13/13/13
f 10/10/10 14/14/14 13/13/13
f 13/13/13 14/14/14 15/15/15
f 14/14/14 10/10/10 16/16/16
f 10/10/10 17/17/17 16/16/16
f 14/14/14 18/18/18 15/15/15
f 15/15/15 18/18/18 19/19/19
f 18/18/18 20/20/20 19/19/19
f 20/20/20 18/18/18 21/21/21
f 18/18/18 22/22/22 21/21/21
f 18/18/18 14/14/14 23/23/23
f 14/14/14 24/24/24 23/23/23
f 27/27/27 26/26/26 25/25/25
f 26/26/26 28/28/28 25/25/25
f 25/25/25 28/28/28 29/29/29
f 30/30/30 25/25/25 29/29/29
f 29/29/29 28/28/28 31/31/31
f 28/28/28 32/32/32 31/31/31
f 32/32/32 28/28/28 33/33/33
f 28/28/28 34/34/34 33/33/33
f 32/32/32 36/36/36 35/35/35
f 37/37/37 32/32/32 35/35/35
f 37/37/37 39/39/39 38/38/38
f 40/40/40 37/37/37 38/38/38
f 40/40/40 42/42/42 41/41/41
f 43/43/43 40/40/40 41/41/41
f 40/40/40 43/43/43 44/44/44
f 45/45/45 40/40/40 44/44/44
f 44/44/44 43/43/43 46/46/46
f 43/43/43 47/47/47 46/46/46
f 47/47/47 43/43/43 48/48/48
f 43/43/43 49/49/49 48/48/48
f 52/52/52 51/51/51 50/50/50
f 51/51/51 53/53/53 50/50/50
f 50/50/50 53/53/53 54/54/54
f 55/55/55 50/50/50 54/54/54
f 54/54/54 53/53/53 56/56/56
f 53/53/53 57/57/57 56/56/56
f 56/56/56 57/57/57 58/58/58
f 57/57/57 53/53/53 59/59/59
f 53/53/53 60/60/60 59/59/59
f 57/57/57 61/61/61 58/58/58
f 58/58/58 61/61/61 62/62/62
f 61/61/61 63/63/63 62/62/62
f 61/61/61 57/57/57 64/64/64
f 57/57/57 65/65/65 64/64/64
f 63/63/63 61/61/61 66/66/66
f 61/61/61 67/67/67 66/66/66
f 63/63/63 69/69/69 68/68/68
f 70/70/70 63/63/63 68/68/68
f 70/70/70 72/72/72 71/71/71
f 73/73/73 70/70/70 71/71/71
f 76/76/76 75/75/75 74/74/74
f 74/74/74 75/75/75 77/77/77
f 78/78/78 75/75/75 76/76/76
f 77/77/77 75/75/75 79/79/79
f 80/80/80 75/75/75 78/78/78
f 79/79/79 75/75/75 80/80/80
f 83/83/83 82/82/82 81/81/81
f 81/81/81 82/82/82 84/84/84
f 85/85/85 82/82/82 83/83/83
f 84/84/84 82/82/82 86/86/86
f 87/87/87 82/82/82 85/85/85
f 86/86/86 82/82/82 87/87/87
f 90/90/90 89/89/89 88/88/88
f 88/88/88 89/89/89 91/91/91
f 92/92/92 89/89/89 90/90/90
f 91/91/91 89/89/89 93/93/93
f 94/94/94 89/89/89 92/92/92
f 93/93/93 89/89/89 94/94/94
f 97/97/97 96/96/96 95/95/95
f 95/95/95 96/96/96 98/98/98
f 99/99/99 96/96/96 97/97/97
f 98/98/98 96/96/96 100/100/100
f 101/101/101 96/96/96 99/99/99
f 100/100/100 96/96/96 101/101/101
f 104/104/104 103/103/103 102/102/102
f 102/102/102 103/103/103 105/105/105
f 106/106/106 103/103/103 104/104/104
f 105/105/105 103/103/103 107/107/107
f 108/108/108 103/103/103 106/106/106
f 107/107/107 103/103/103 108/108/108
f 111/111/111 110/110/110 109/109/109
f 109/109/109 110/110/110 112/112/112
f 113/113/113 110/110/110 111/111/111
f 112/112/112 110/110/110 114/114/114
f 115/115/115 110/110/110 113/113/113
f 114/114/114 110/110/110 115/115/115
