g installingRing
v 2.347801 -0.3196304 -0.7628461
v 2.19956 0.3196304 -1.120731
v 2.347801 0.3196304 -0.7628461
v 2.19956 -0.3196304 -1.120731
v 1.997159 0.3196304 -1.45102
v 1.997159 -0.3196304 -1.45102
v 1.745581 0.3196304 -1.74558
v 1.745581 -0.3196304 -1.74558
v 1.451021 0.3196304 -1.997158
v 1.451021 -0.3196304 -1.997158
v 1.120732 0.3196304 -2.199559
v 1.120732 -0.3196304 -2.199559
v 0.7628472 0.3196304 -2.3478
v 0.7628472 -0.3196304 -2.3478
v 0.3861784 0.3196304 -2.438231
v 0.3861784 -0.3196304 -2.438231
v 5.5178E-07 0.3196304 -2.468624
v 5.5178E-07 -0.3196304 -2.468624
v 5.5178E-07 -0.3196304 -2.468624
v -0.3861772 0.3196304 -2.438231
v 5.5178E-07 0.3196304 -2.468624
v -0.3861772 -0.3196304 -2.438231
v -0.762846 0.3196304 -2.3478
v -0.762846 -0.3196304 -2.3478
v -1.120731 0.3196304 -2.19956
v -1.120731 -0.3196304 -2.19956
v -1.45102 0.3196304 -1.997159
v -1.45102 -0.3196304 -1.997159
v -1.74558 0.3196304 -1.745581
v -1.74558 -0.3196304 -1.745581
v -1.997158 0.3196304 -1.451021
v -1.997158 -0.3196304 -1.451021
v -2.199559 0.3196304 -1.120732
v -2.199559 -0.3196304 -1.120732
v -2.3478 0.3196304 -0.7628469
v -2.3478 -0.3196304 -0.7628469
v -2.3478 -0.3196304 0.762846
v -2.199559 0.3196304 1.120731
v -2.3478 0.3196304 0.762846
v -2.199559 -0.3196304 1.120731
v -1.997158 0.3196304 1.45102
v -1.997158 -0.3196304 1.45102
v -1.74558 0.3196304 1.745579
v -1.74558 -0.3196304 1.745579
v -1.45102 0.3196304 1.997157
v -1.45102 -0.3196304 1.997157
v -1.120732 0.3196304 2.199559
v -1.120732 -0.3196304 2.199559
v -0.7628467 0.3196304 2.3478
v -0.7628467 -0.3196304 2.3478
v -0.386178 0.3196304 2.43823
v -0.386178 -0.3196304 2.43823
v -2.574973E-07 0.3196304 2.468623
v -2.574973E-07 -0.3196304 2.468623
v -2.574973E-07 -0.3196304 2.468623
v 0.3861774 0.3196304 2.43823
v -2.574973E-07 0.3196304 2.468623
v 0.3861774 -0.3196304 2.43823
v 0.7628461 0.3196304 2.3478
v 0.7628461 -0.3196304 2.3478
v 1.120731 0.3196304 2.199559
v 1.120731 -0.3196304 2.199559
v 1.45102 0.3196304 1.997158
v 1.45102 -0.3196304 1.997158
v 1.745579 0.3196304 1.74558
v 1.745579 -0.3196304 1.74558
v 1.997157 0.3196304 1.45102
v 1.997157 -0.3196304 1.45102
v 2.199558 0.3196304 1.120731
v 2.199558 -0.3196304 1.120731
v 2.347799 0.3196304 0.7628462
v 2.347799 -0.3196304 0.7628462
v 2.377643 -0.3236932 -0.7725424
v 2.377643 0.3236932 -0.7725424
v 2.227518 0.3236932 -1.134976
v 2.227518 -0.3236932 -1.134976
v 2.022544 0.3236932 -1.469464
v 2.022544 -0.3236932 -1.469464
v 1.767769 0.3236932 -1.767768
v 1.767769 -0.3236932 -1.767768
v 1.469465 0.3236932 -2.022543
v 1.469465 -0.3236932 -2.022543
v 1.134978 0.3236932 -2.227517
v 1.134978 -0.3236932 -2.227517
v 0.7725435 0.3236932 -2.377643
v 0.7725435 -0.3236932 -2.377643
v 0.391087 0.3236932 -2.469222
v 0.391087 -0.3236932 -2.469222
v 5.587935E-07 0.3236932 -2.500001
v 5.587935E-07 -0.3236932 -2.500001
v 5.587935E-07 -0.3236932 -2.500001
v 5.587935E-07 0.3236932 -2.500001
v -0.3910858 0.3236932 -2.469222
v -0.3910858 -0.3236932 -2.469222
v -0.7725424 0.3236932 -2.377643
v -0.7725424 -0.3236932 -2.377643
v -1.134976 0.3236932 -2.227518
v -1.134976 -0.3236932 -2.227518
v -1.469463 0.3236932 -2.022544
v -1.469463 -0.3236932 -2.022544
v -1.767767 0.3236932 -1.767768
v -1.767767 -0.3236932 -1.767768
v -2.022543 0.3236932 -1.469464
v -2.022543 -0.3236932 -1.469464
v -2.227517 0.3236932 -1.134977
v -2.227517 -0.3236932 -1.134977
v -2.377642 0.3236932 -0.7725433
v -2.377642 -0.3236932 -0.7725433
v -2.377642 -0.3236932 0.7725424
v -2.377642 0.3236932 0.7725424
v -2.227517 0.3236932 1.134976
v -2.227517 -0.3236932 1.134976
v -2.022543 0.3236932 1.469463
v -2.022543 -0.3236932 1.469463
v -1.767768 0.3236932 1.767767
v -1.767768 -0.3236932 1.767767
v -1.469464 0.3236932 2.022543
v -1.469464 -0.3236932 2.022543
v -1.134977 0.3236932 2.227517
v -1.134977 -0.3236932 2.227517
v -0.772543 0.3236932 2.377642
v -0.772543 -0.3236932 2.377642
v -0.3910866 0.3236932 2.469222
v -0.3910866 -0.3236932 2.469222
v -2.607703E-07 0.3236932 2.5
v -2.607703E-07 -0.3236932 2.5
v -2.607703E-07 -0.3236932 2.5
v -2.607703E-07 0.3236932 2.5
v 0.391086 0.3236932 2.469222
v 0.391086 -0.3236932 2.469222
v 0.7725424 0.3236932 2.377642
v 0.7725424 -0.3236932 2.377642
v 1.134976 0.3236932 2.227517
v 1.134976 -0.3236932 2.227517
v 1.469463 0.3236932 2.022543
v 1.469463 -0.3236932 2.022543
v 1.767767 0.3236932 1.767767
v 1.767767 -0.3236932 1.767767
v 2.022543 0.3236932 1.469463
v 2.022543 -0.3236932 1.469463
v 2.227516 0.3236932 1.134976
v 2.227516 -0.3236932 1.134976
v 2.377641 0.3236932 0.7725426
v 2.377641 -0.3236932 0.7725426
vt 0.9938621 0
vt 0.8722889 0.5
vt 0.9938621 0.5
vt 0.8722889 0
vt 0.7481929 0.5
vt 0.7481929 0
vt 0.6240968 0.5
vt 0.6240968 0
vt 0.5000001 0.5
vt 0.5000001 0
vt 0.3759035 0.5
vt 0.3759035 0
vt 0.2518067 0.5
vt 0.2518067 0
vt 0.1277108 0.5
vt 0.1277108 0
vt 0.005047271 0.5
vt 0.005047271 0
vt 0.005047569 0
vt 0.127711 0.5
vt 0.005047569 0.5
vt 0.127711 0
vt 0.2518072 0.5
vt 0.2518072 0
vt 0.3759039 0.5
vt 0.3759039 0
vt 0.4999998 0.5
vt 0.4999998 0
vt 0.6240968 0.5
vt 0.6240968 0
vt 0.7481933 0.5
vt 0.7481933 0
vt 0.8722892 0.5
vt 0.8722892 0
vt 0.9938628 0.5
vt 0.9938628 0
vt 0.993865 0
vt 0.8722914 0.5
vt 0.993865 0.5
vt 0.8722914 0
vt 0.7481943 0.5
vt 0.7481943 0
vt 0.6240971 0.5
vt 0.6240971 0
vt 0.4999999 0.5
vt 0.4999999 0
vt 0.3759034 0.5
vt 0.3759034 0
vt 0.2518061 0.5
vt 0.2518061 0
vt 0.127709 0.5
vt 0.127709 0
vt 0.005044946 0.5
vt 0.005044946 0
vt 0.005045304 0
vt 0.1277084 0.5
vt 0.005045304 0.5
vt 0.1277084 0
vt 0.2518055 0.5
vt 0.2518055 0
vt 0.3759028 0.5
vt 0.3759028 0
vt 0.4999999 0.5
vt 0.4999999 0
vt 0.6240971 0.5
vt 0.6240971 0
vt 0.7481943 0.5
vt 0.7481943 0
vt 0.8722901 0.5
vt 0.8722901 0
vt 0.993865 0.5
vt 0.993865 0
vt 0.9938621 0.5
vt 0.9938621 1
vt 0.8722889 1
vt 0.8722889 0.5
vt 0.7481929 1
vt 0.7481929 0.5
vt 0.6240968 1
vt 0.6240968 0.5
vt 0.5000001 1
vt 0.5000001 0.5
vt 0.3759035 1
vt 0.3759035 0.5
vt 0.2518067 1
vt 0.2518067 0.5
vt 0.1277108 1
vt 0.1277108 0.5
vt 0.005047271 1
vt 0.005047271 0.5
vt 0.005047569 0.5
vt 0.005047569 1
vt 0.127711 1
vt 0.127711 0.5
vt 0.2518072 1
vt 0.2518072 0.5
vt 0.3759039 1
vt 0.3759039 0.5
vt 0.4999998 1
vt 0.4999998 0.5
vt 0.6240968 1
vt 0.6240968 0.5
vt 0.7481933 1
vt 0.7481933 0.5
vt 0.8722892 1
vt 0.8722892 0.5
vt 0.9938628 1
vt 0.9938628 0.5
vt 0.993865 0.5
vt 0.993865 1
vt 0.8722914 1
vt 0.8722914 0.5
vt 0.7481943 1
vt 0.7481943 0.5
vt 0.6240971 1
vt 0.6240971 0.5
vt 0.4999999 1
vt 0.4999999 0.5
vt 0.3759034 1
vt 0.3759034 0.5
vt 0.2518061 1
vt 0.2518061 0.5
vt 0.127709 1
vt 0.127709 0.5
vt 0.005044946 1
vt 0.005044946 0.5
vt 0.005045304 0.5
vt 0.005045304 1
vt 0.1277084 1
vt 0.1277084 0.5
vt 0.2518055 1
vt 0.2518055 0.5
vt 0.3759028 1
vt 0.3759028 0.5
vt 0.4999999 1
vt 0.4999999 0.5
vt 0.6240971 1
vt 0.6240971 0.5
vt 0.7481943 1
vt 0.7481943 0.5
vt 0.8722901 1
vt 0.8722901 0.5
vt 0.993865 1
vt 0.993865 0.5
vn -0.9238796 0 0.3826832
vn -0.8910067 0 0.4539902
vn -0.9238796 0 0.3826832
vn -0.8910067 0 0.4539902
vn -0.8090173 0 0.5877849
vn -0.8090173 0 0.5877849
vn -0.7071069 0 0.7071066
vn -0.7071069 0 0.7071066
vn -0.5877852 0 0.809017
vn -0.5877852 0 0.809017
vn -0.4539906 0 0.8910065
vn -0.4539906 0 0.8910065
vn -0.3090173 0 0.9510565
vn -0.3090173 0 0.9510565
vn -0.1564349 0 0.9876882
vn -0.1564349 0 0.9876882
vn 0 0 1
vn 0 0 1
vn 0 0 1
vn 0.1564347 0 0.9876884
vn 0 0 1
vn 0.1564347 0 0.9876884
vn 0.3090169 0 0.9510565
vn 0.3090169 0 0.9510565
vn 0.4539901 0 0.8910067
vn 0.4539901 0 0.8910067
vn 0.5877849 0 0.8090173
vn 0.5877849 0 0.8090173
vn 0.7071068 0 0.7071068
vn 0.7071068 0 0.7071068
vn 0.809017 0 0.5877852
vn 0.809017 0 0.5877852
vn 0.8910064 0 0.4539906
vn 0.8910064 0 0.4539906
vn 0.9238794 0 0.3826836
vn 0.9238794 0 0.3826836
vn 0.9238795 0 -0.3826834
vn 0.8910066 0 -0.4539903
vn 0.9238795 0 -0.3826834
vn 0.8910066 0 -0.4539903
vn 0.8090172 0 -0.587785
vn 0.8090172 0 -0.587785
vn 0.7071068 0 -0.7071068
vn 0.7071068 0 -0.7071068
vn 0.5877853 0 -0.809017
vn 0.5877853 0 -0.809017
vn 0.4539907 0 -0.8910064
vn 0.4539907 0 -0.8910064
vn 0.309017 0 -0.9510565
vn 0.309017 0 -0.9510565
vn 0.1564346 0 -0.9876884
vn 0.1564346 0 -0.9876884
vn 0 0 -1
vn 0 0 -1
vn 0 0 -1
vn -0.1564346 0 -0.9876884
vn 0 0 -1
vn -0.1564346 0 -0.9876884
vn -0.3090168 0 -0.9510565
vn -0.3090168 0 -0.9510565
vn -0.4539903 0 -0.8910066
vn -0.4539903 0 -0.8910066
vn -0.5877852 0 -0.809017
vn -0.5877852 0 -0.809017
vn -0.7071069 0 -0.7071066
vn -0.7071069 0 -0.7071066
vn -0.8090172 0 -0.5877849
vn -0.8090172 0 -0.5877849
vn -0.8910067 0 -0.4539903
vn -0.8910067 0 -0.4539903
vn -0.9238797 0 -0.3826831
vn -0.9238797 0 -0.3826831
vn 0.9238795 0 -0.3826833
vn 0.9238795 0 -0.3826833
vn 0.8910066 0 -0.4539903
vn 0.8910066 0 -0.4539903
vn 0.8090171 0 -0.5877851
vn 0.8090171 0 -0.5877851
vn 0.7071069 0 -0.7071066
vn 0.7071069 0 -0.7071066
vn 0.5877854 0 -0.8090169
vn 0.5877854 0 -0.8090169
vn 0.4539906 0 -0.8910064
vn 0.4539906 0 -0.8910064
vn 0.3090172 0 -0.9510565
vn 0.3090172 0 -0.9510565
vn 0.1564346 0 -0.9876884
vn 0.1564346 0 -0.9876884
vn 0 0 -1
vn 0 0 -1
vn 0 0 -1
vn 0 0 -1
vn -0.1564344 0 -0.9876884
vn -0.1564344 0 -0.9876884
vn -0.3090169 0 -0.9510565
vn -0.3090169 0 -0.9510565
vn -0.4539904 0 -0.8910066
vn -0.4539904 0 -0.8910066
vn -0.587785 0 -0.8090171
vn -0.587785 0 -0.8090171
vn -0.7071066 0 -0.7071069
vn -0.7071066 0 -0.7071069
vn -0.809017 0 -0.5877854
vn -0.809017 0 -0.5877854
vn -0.8910064 0 -0.4539906
vn -0.8910064 0 -0.4539906
vn -0.9238794 0 -0.3826837
vn -0.9238794 0 -0.3826837
vn -0.9238795 0 0.3826835
vn -0.9238795 0 0.3826835
vn -0.8910066 0 0.4539904
vn -0.8910066 0 0.4539904
vn -0.8090171 0 0.5877852
vn -0.8090171 0 0.5877852
vn -0.7071068 0 0.7071068
vn -0.7071068 0 0.7071068
vn -0.5877855 0 0.8090168
vn -0.5877855 0 0.8090168
vn -0.4539908 0 0.8910064
vn -0.4539908 0 0.8910064
vn -0.309017 0 0.9510565
vn -0.309017 0 0.9510565
vn -0.1564342 0 0.9876884
vn -0.1564342 0 0.9876884
vn 0 0 1
vn 0 0 1
vn 0 0 1
vn 0 0 1
vn 0.1564342 0 0.9876884
vn 0.1564342 0 0.9876884
vn 0.3090168 0 0.9510565
vn 0.3090168 0 0.9510565
vn 0.4539905 0 0.8910065
vn 0.4539905 0 0.8910065
vn 0.5877854 0 0.8090168
vn 0.5877854 0 0.8090168
vn 0.7071069 0 0.7071066
vn 0.7071069 0 0.7071066
vn 0.8090171 0 0.5877852
vn 0.8090171 0 0.5877852
vn 0.8910066 0 0.4539903
vn 0.8910066 0 0.4539903
vn 0.9238796 0 0.3826832
vn 0.9238796 0 0.3826832
g installingRing_0
f 3/3/3 2/2/2 1/1/1
f 2/2/2 4/4/4 1/1/1
f 2/2/2 5/5/5 4/4/4
f 5/5/5 6/6/6 4/4/4
f 5/5/5 7/7/7 6/6/6
f 7/7/7 8/8/8 6/6/6
f 7/7/7 9/9/9 8/8/8
f 9/9/9 10/10/10 8/8/8
f 9/9/9 11/11/11 10/10/10
f 11/11/11 12/12/12 10/10/10
f 11/11/11 13/13/13 12/12/12
f 13/13/13 14/14/14 12/12/12
f 13/13/13 15/15/15 14/14/14
f 15/15/15 16/16/16 14/14/14
f 15/15/15 17/17/17 16/16/16
f 17/17/17 18/18/18 16/16/16
f 21/21/21 20/20/20 19/19/19
f 20/20/20 22/22/22 19/19/19
f 20/20/20 23/23/23 22/22/22
f 23/23/23 24/24/24 22/22/22
f 23/23/23 25/25/25 24/24/24
f 25/25/25 26/26/26 24/24/24
f 25/25/25 27/27/27 26/26/26
f 27/27/27 28/28/28 26/26/26
f 27/27/27 29/29/29 28/28/28
f 29/29/29 30/30/30 28/28/28
f 29/29/29 31/31/31 30/30/30
f 31/31/31 32/32/32 30/30/30
f 31/31/31 33/33/33 32/32/32
f 33/33/33 34/34/34 32/32/32
f 33/33/33 35/35/35 34/34/34
f 35/35/35 36/36/36 34/34/34
f 39/39/39 38/38/38 37/37/37
f 38/38/38 40/40/40 37/37/37
f 38/38/38 41/41/41 40/40/40
f 41/41/41 42/42/42 40/40/40
f 41/41/41 43/43/43 42/42/42
f 43/43/43 44/44/44 42/42/42
f 43/43/43 45/45/45 44/44/44
f 45/45/45 46/46/46 44/44/44
f 45/45/45 47/47/47 46/46/46
f 47/47/47 48/48/48 46/46/46
f 47/47/47 49/49/49 48/48/48
f 49/49/49 50/50/50 48/48/48
f 49/49/49 51/51/51 50/50/50
f 51/51/51 52/52/52 50/50/50
f 51/51/51 53/53/53 52/52/52
f 53/53/53 54/54/54 52/52/52
f 57/57/57 56/56/56 55/55/55
f 56/56/56 58/58/58 55/55/55
f 56/56/56 59/59/59 58/58/58
f 59/59/59 60/60/60 58/58/58
f 59/59/59 61/61/61 60/60/60
f 61/61/61 62/62/62 60/60/60
f 61/61/61 63/63/63 62/62/62
f 63/63/63 64/64/64 62/62/62
f 63/63/63 65/65/65 64/64/64
f 65/65/65 66/66/66 64/64/64
f 65/65/65 67/67/67 66/66/66
f 67/67/67 68/68/68 66/66/66
f 67/67/67 69/69/69 68/68/68
f 69/69/69 70/70/70 68/68/68
f 69/69/69 71/71/71 70/70/70
f 71/71/71 72/72/72 70/70/70
f 75/75/75 74/74/74 73/73/73
f 76/76/76 75/75/75 73/73/73
f 77/77/77 75/75/75 76/76/76
f 78/78/78 77/77/77 76/76/76
f 79/79/79 77/77/77 78/78/78
f 80/80/80 79/79/79 78/78/78
f 81/81/81 79/79/79 80/80/80
f 82/82/82 81/81/81 80/80/80
f 83/83/83 81/81/81 82/82/82
f 84/84/84 83/83/83 82/82/82
f 85/85/85 83/83/83 84/84/84
f 86/86/86 85/85/85 84/84/84
f 87/87/87 85/85/85 86/86/86
f 88/88/88 87/87/87 86/86/86
f 89/89/89 87/87/87 88/88/88
f 90/90/90 89/89/89 88/88/88
f 93/93/93 92/92/92 91/91/91
f 94/94/94 93/93/93 91/91/91
f 95/95/95 93/93/93 94/94/94
f 96/96/96 95/95/95 94/94/94
f 97/97/97 95/95/95 96/96/96
f 98/98/98 97/97/97 96/96/96
f 99/99/99 97/97/97 98/98/98
f 100/100/100 99/99/99 98/98/98
f 101/101/101 99/99/99 100/100/100
f 102/102/102 101/101/101 100/100/100
f 103/103/103 101/101/101 102/102/102
f 104/104/104 103/103/103 102/102/102
f 105/105/105 103/103/103 104/104/104
f 106/106/106 105/105/105 104/104/104
f 107/107/107 105/105/105 106/106/106
f 108/108/108 107/107/107 106/106/106
f 111/111/111 110/110/110 109/109/109
f 112/112/112 111/111/111 109/109/109
f 113/113/113 111/111/111 112/112/112
f 114/114/114 113/113/113 112/112/112
f 115/115/115 113/113/113 114/114/114
f 116/116/116 115/115/115 114/114/114
f 117/117/117 115/115/115 116/116/116
f 118/118/118 117/117/117 116/116/116
f 119/119/119 117/117/117 118/118/118
f 120/120/120 119/119/119 118/118/118
f 121/121/121 119/119/119 120/120/120
f 122/122/122 121/121/121 120/120/120
f 123/123/123 121/121/121 122/122/122
f 124/124/124 123/123/123 122/122/122
f 125/125/125 123/123/123 124/124/124
f 126/126/126 125/125/125 124/124/124
f 129/129/129 128/128/128 127/127/127
f 130/130/130 129/129/129 127/127/127
f 131/131/131 129/129/129 130/130/130
f 132/132/132 131/131/131 130/130/130
f 133/133/133 131/131/131 132/132/132
f 134/134/134 133/133/133 132/132/132
f 135/135/135 133/133/133 134/134/134
f 136/136/136 135/135/135 134/134/134
f 137/137/137 135/135/135 136/136/136
f 138/138/138 137/137/137 136/136/136
f 139/139/139 137/137/137 138/138/138
f 140/140/140 139/139/139 138/138/138
f 141/141/141 139/139/139 140/140/140
f 142/142/142 141/141/141 140/140/140
f 143/143/143 141/141/141 142/142/142
f 144/144/144 143/143/143 142/142/142
