g interior_ceiling
v -11.35798 10.72991 0.1735089
v -11.35798 11.10583 0.04413635
v 0 11.10583 0.04413635
v 0 10.72991 0.1735089
v -11.35798 11.10583 -0.05950988
v -11.35798 10.72991 -0.1888824
v 0 10.72991 -0.1888824
v 0 11.10583 -0.05950988
v -11.35798 10.69325 -0.007686767
v -11.35798 10.72991 0.1735089
v 0 10.72991 0.1735089
v 0 10.69325 -0.007686767
v -11.35798 10.72991 -0.1888824
v -11.35798 10.69325 -0.007686767
v 0 10.69325 -0.007686767
v 0 10.72991 -0.1888824
v -11.35798 11.10583 4.992313
v -10.81997 10.86414 -0.007686767
v -11.35798 11.10583 -0.007686767
v -10.81997 10.86414 4.992313
v -10.70042 10.86414 4.992313
v -10.70042 10.86414 -0.007686767
v -10.22218 11.07898 -0.007686767
v -10.22218 11.07898 4.992313
v -10.10263 11.07898 4.992313
v -10.10263 11.07898 -0.007686767
v -9.624385 10.86414 -0.007686767
v -9.624385 10.86414 4.992313
v -9.504844 10.86414 4.992313
v -9.504844 10.86414 -0.007686767
v -9.026602 11.07898 -0.007686767
v -9.026602 11.07898 4.992313
v -8.907056 11.07898 4.992313
v -8.907056 11.07898 -0.007686767
v -8.428808 10.86414 -0.007686767
v -8.428808 10.86414 4.992313
v -8.309267 10.86414 4.992313
v -8.309267 10.86414 -0.007686767
v -7.83102 11.07898 -0.007686767
v -7.83102 11.07898 4.992313
v -7.711474 11.07898 4.992313
v -7.711474 11.07898 -0.007686767
v -7.233232 10.86414 -0.007686767
v -7.233232 10.86414 4.992313
v -7.113687 10.86414 4.992313
v -7.113687 10.86414 -0.007686767
v -6.635444 11.07898 -0.007686767
v -6.635444 11.07898 4.992313
v -6.515898 11.07898 4.992313
v -6.515898 11.07898 -0.007686767
v -6.037656 10.86414 -0.007686767
v -6.037656 10.86414 4.992313
v -5.91811 10.86414 4.992313
v -5.91811 10.86414 -0.007686767
v -5.439868 11.07898 -0.007686767
v -5.439868 11.07898 4.992313
v -5.320322 11.07898 4.992313
v -5.320322 11.07898 -0.007686767
v -4.84208 10.86414 -0.007686767
v -4.84208 10.86414 4.992313
v -4.722534 10.86414 4.992313
v -4.722534 10.86414 -0.007686767
v -4.244292 11.07898 -0.007686767
v -4.244292 11.07898 4.992313
v -4.124746 11.07898 4.992313
v -4.124746 11.07898 -0.007686767
v -3.646504 10.86414 -0.007686767
v -3.646504 10.86414 4.992313
v -3.526958 10.86414 4.992313
v -3.526958 10.86414 -0.007686767
v -3.048716 11.07898 -0.007686767
v -3.048716 11.07898 4.992313
v -2.92917 11.07898 4.992313
v -2.92917 11.07898 -0.007686767
v -2.450928 10.86414 -0.007686767
v -2.450928 10.86414 4.992313
v -2.331382 10.86414 4.992313
v -2.331382 10.86414 -0.007686767
v -1.853137 11.07898 -0.007686767
v -1.853137 11.07898 4.992313
v -1.733594 11.07898 4.992313
v -1.733594 11.07898 -0.007686767
v -1.255349 10.86414 -0.007686767
v -1.255349 10.86414 4.992313
v -1.135803 10.86414 4.992313
v -1.135803 10.86414 -0.007686767
v -0.657561 11.07898 -0.007686767
v -0.657561 11.07898 4.992313
v -0.5380151 11.07898 4.992313
v -0.5380151 11.07898 -0.007686767
v -0.05977295 10.86414 -0.007686767
v -0.05977295 10.86414 4.992313
v 0 10.86414 4.992313
v 0 10.86414 -0.007686767
v 11.35798 10.72991 0.1735089
v 0 10.72991 0.1735089
v 0 11.10583 0.04413635
v 11.35798 11.10583 0.04413635
v 11.35798 11.10583 -0.05950988
v 0 11.10583 -0.05950988
v 0 10.72991 -0.1888824
v 11.35798 10.72991 -0.1888824
v 11.35798 10.69325 -0.007686767
v 0 10.69325 -0.007686767
v 0 10.72991 0.1735089
v 11.35798 10.72991 0.1735089
v 11.35798 10.72991 -0.1888824
v 0 10.72991 -0.1888824
v 0 10.69325 -0.007686767
v 11.35798 10.69325 -0.007686767
v 11.35798 11.10583 4.992313
v 11.35798 11.10583 -0.007686767
v 10.81997 10.86414 -0.007686767
v 10.81997 10.86414 4.992313
v 10.70042 10.86414 4.992313
v 10.70042 10.86414 -0.007686767
v 10.22217 11.07898 -0.007686767
v 10.22217 11.07898 4.992313
v 10.10263 11.07898 4.992313
v 10.10263 11.07898 -0.007686767
v 9.624387 10.86414 -0.007686767
v 9.624387 10.86414 4.992313
v 9.504841 10.86414 4.992313
v 9.504841 10.86414 -0.007686767
v 9.026599 11.07898 -0.007686767
v 9.026599 11.07898 4.992313
v 8.907053 11.07898 4.992313
v 8.907053 11.07898 -0.007686767
v 8.428811 10.86414 -0.007686767
v 8.428811 10.86414 4.992313
v 8.309265 10.86414 4.992313
v 8.309265 10.86414 -0.007686767
v 7.831023 11.07898 -0.007686767
v 7.831023 11.07898 4.992313
v 7.711477 11.07898 4.992313
v 7.711477 11.07898 -0.007686767
v 7.233232 10.86414 -0.007686767
v 7.233232 10.86414 4.992313
v 7.113687 10.86414 4.992313
v 7.113687 10.86414 -0.007686767
v 6.635444 11.07898 -0.007686767
v 6.635444 11.07898 4.992313
v 6.515898 11.07898 4.992313
v 6.515898 11.07898 -0.007686767
v 6.037656 10.86414 -0.007686767
v 6.037656 10.86414 4.992313
v 5.91811 10.86414 4.992313
v 5.91811 10.86414 -0.007686767
v 5.439868 11.07898 -0.007686767
v 5.439868 11.07898 4.992313
v 5.320322 11.07898 4.992313
v 5.320322 11.07898 -0.007686767
v 4.84208 10.86414 -0.007686767
v 4.84208 10.86414 4.992313
v 4.722534 10.86414 4.992313
v 4.722534 10.86414 -0.007686767
v 4.244292 11.07898 -0.007686767
v 4.244292 11.07898 4.992313
v 4.124746 11.07898 4.992313
v 4.124746 11.07898 -0.007686767
v 3.646504 10.86414 -0.007686767
v 3.646504 10.86414 4.992313
v 3.526958 10.86414 4.992313
v 3.526958 10.86414 -0.007686767
v 3.048716 11.07898 -0.007686767
v 3.048716 11.07898 4.992313
v 2.92917 11.07898 4.992313
v 2.92917 11.07898 -0.007686767
v 2.450928 10.86414 -0.007686767
v 2.450928 10.86414 4.992313
v 2.331382 10.86414 4.992313
v 2.331382 10.86414 -0.007686767
v 1.853137 11.07898 -0.007686767
v 1.853137 11.07898 4.992313
v 1.733594 11.07898 4.992313
v 1.733594 11.07898 -0.007686767
v 1.255349 10.86414 -0.007686767
v 1.255349 10.86414 4.992313
v 1.135803 10.86414 4.992313
v 1.135803 10.86414 -0.007686767
v 0.657561 11.07898 -0.007686767
v 0.657561 11.07898 4.992313
v 0.5380151 11.07898 4.992313
v 0.5380151 11.07898 -0.007686767
v 0.05977295 10.86414 -0.007686767
v 0.05977295 10.86414 4.992313
v 0 10.86414 4.992313
v 0 10.86414 -0.007686767
vt 1.045771 0.3667558
vt 1.045772 0.3958651
vt 1.364206 0.3958651
vt 1.364206 0.3667558
vt 1.26094 0.396704
vt 1.26094 0.366606
vt 1.579375 0.366606
vt 1.579375 0.396704
vt 1.045771 0.35131
vt 1.045771 0.3667558
vt 1.364206 0.3667558
vt 1.364205 0.35131
vt 1.26094 0.366606
vt 1.26094 0.35131
vt 1.579375 0.35131
vt 1.579375 0.366606
vt 0.3116598 0.3791654
vt 0.3249669 0.4614004
vt 0.3116598 0.4614004
vt 0.3249669 0.3791654
vt 0.3279237 0.3791654
vt 0.3279237 0.4614004
vt 0.3397524 0.4614004
vt 0.3397524 0.3791654
vt 0.3427092 0.3791654
vt 0.3427092 0.4614004
vt 0.354538 0.4614004
vt 0.354538 0.3791654
vt 0.3574948 0.3791654
vt 0.3574948 0.4614004
vt 0.3693235 0.4614004
vt 0.3693235 0.3791654
vt 0.3722804 0.3791654
vt 0.3722804 0.4614004
vt 0.3841091 0.4614004
vt 0.3841091 0.3791654
vt 0.3870659 0.3791654
vt 0.3870659 0.4614004
vt 0.3988946 0.4614004
vt 0.3988946 0.3791654
vt 0.4018514 0.3791654
vt 0.4018514 0.4614004
vt 0.4136802 0.4614004
vt 0.4136802 0.3791654
vt 0.416637 0.3791654
vt 0.416637 0.4614004
vt 0.4284657 0.4614004
vt 0.4284657 0.3791654
vt 0.4314225 0.3791654
vt 0.4314225 0.4614004
vt 0.4432513 0.4614004
vt 0.4432513 0.3791654
vt 0.4462081 0.3791654
vt 0.4462081 0.4614004
vt 0.4580368 0.4614004
vt 0.4580368 0.3791654
vt 0.4609936 0.3791654
vt 0.4609936 0.4614004
vt 0.4728224 0.4614004
vt 0.4728224 0.3791654
vt 0.4757792 0.3791654
vt 0.4757792 0.4614004
vt 0.4876079 0.4614004
vt 0.4876079 0.3791654
vt 0.4905647 0.3791654
vt 0.4905647 0.4614004
vt 0.5023935 0.4614004
vt 0.5023935 0.3791654
vt 0.5053503 0.3791654
vt 0.5053503 0.4614004
vt 0.517179 0.4614004
vt 0.517179 0.3791654
vt 0.5201358 0.3791654
vt 0.5201358 0.4614004
vt 0.5319645 0.4614004
vt 0.5319645 0.3791654
vt 0.5349214 0.3791654
vt 0.5349214 0.4614004
vt 0.5467501 0.4614004
vt 0.5467501 0.3791654
vt 0.5497069 0.3791654
vt 0.5497069 0.4614004
vt 0.5615356 0.4614004
vt 0.5615356 0.3791654
vt 0.5644925 0.3791654
vt 0.5644925 0.4614004
vt 0.5763212 0.4614004
vt 0.5763212 0.3791654
vt 0.579278 0.3791654
vt 0.579278 0.4614004
vt 0.5911068 0.4614004
vt 0.5911068 0.3791654
vt 0.5933841 0.3791654
vt 0.5933841 0.4614004
vt 1.045771 0.3667558
vt 1.364206 0.3667558
vt 1.364206 0.3958651
vt 1.045772 0.3958651
vt 1.26094 0.396704
vt 1.579375 0.396704
vt 1.579375 0.366606
vt 1.26094 0.366606
vt 1.045771 0.35131
vt 1.364205 0.35131
vt 1.364206 0.3667558
vt 1.045771 0.3667558
vt 1.26094 0.366606
vt 1.579375 0.366606
vt 1.579375 0.35131
vt 1.26094 0.35131
vt 0.3116598 0.3791654
vt 0.3116598 0.4614004
vt 0.3249669 0.4614004
vt 0.3249669 0.3791654
vt 0.3279237 0.3791654
vt 0.3279237 0.4614004
vt 0.3397524 0.4614004
vt 0.3397524 0.3791654
vt 0.3427092 0.3791654
vt 0.3427092 0.4614004
vt 0.354538 0.4614004
vt 0.354538 0.3791654
vt 0.3574948 0.3791654
vt 0.3574948 0.4614004
vt 0.3693235 0.4614004
vt 0.3693235 0.3791654
vt 0.3722804 0.3791654
vt 0.3722804 0.4614004
vt 0.3841091 0.4614004
vt 0.3841091 0.3791654
vt 0.3870659 0.3791654
vt 0.3870659 0.4614004
vt 0.3988946 0.4614004
vt 0.3988946 0.3791654
vt 0.4018514 0.3791654
vt 0.4018514 0.4614004
vt 0.4136802 0.4614004
vt 0.4136802 0.3791654
vt 0.416637 0.3791654
vt 0.416637 0.4614004
vt 0.4284657 0.4614004
vt 0.4284657 0.3791654
vt 0.4314225 0.3791654
vt 0.4314225 0.4614004
vt 0.4432513 0.4614004
vt 0.4432513 0.3791654
vt 0.4462081 0.3791654
vt 0.4462081 0.4614004
vt 0.4580368 0.4614004
vt 0.4580368 0.3791654
vt 0.4609936 0.3791654
vt 0.4609936 0.4614004
vt 0.4728224 0.4614004
vt 0.4728224 0.3791654
vt 0.4757792 0.3791654
vt 0.4757792 0.4614004
vt 0.4876079 0.4614004
vt 0.4876079 0.3791654
vt 0.4905647 0.3791654
vt 0.4905647 0.4614004
vt 0.5023935 0.4614004
vt 0.5023935 0.3791654
vt 0.5053503 0.3791654
vt 0.5053503 0.4614004
vt 0.517179 0.4614004
vt 0.517179 0.3791654
vt 0.5201358 0.3791654
vt 0.5201358 0.4614004
vt 0.5319645 0.4614004
vt 0.5319645 0.3791654
vt 0.5349214 0.3791654
vt 0.5349214 0.4614004
vt 0.5467501 0.4614004
vt 0.5467501 0.3791654
vt 0.5497069 0.3791654
vt 0.5497069 0.4614004
vt 0.5615356 0.4614004
vt 0.5615356 0.3791654
vt 0.5644925 0.3791654
vt 0.5644925 0.4614004
vt 0.5763212 0.4614004
vt 0.5763212 0.3791654
vt 0.579278 0.3791654
vt 0.579278 0.4614004
vt 0.5911068 0.4614004
vt 0.5911068 0.3791654
vt 0.5933841 0.3791654
vt 0.5933841 0.4614004
vn 0 0.3254184 0.9455701
vn 0 0.3254184 0.9455701
vn 0 0.3254184 0.9455701
vn 0 0.3254184 0.9455701
vn 0 0.3254184 -0.9455701
vn 0 0.3254184 -0.9455701
vn 0 0.3254184 -0.9455701
vn 0 0.3254184 -0.9455701
vn 0 -1 0
vn 0 -0.9801378 0.1983179
vn 0 -0.9801378 0.1983179
vn 0 -1 0
vn 0 -0.9801378 -0.1983179
vn 0 -1 0
vn 0 -1 0
vn 0 -0.9801378 -0.1983179
vn -0.4097778 -0.9121854 0
vn -0.3449901 -0.9386063 0
vn -0.4097778 -0.9121854 0
vn -0.3449901 -0.9386063 0
vn 0.3382089 -0.9410711 0
vn 0.3382089 -0.9410711 0
vn 0.3382092 -0.941071 0
vn 0.3382092 -0.941071 0
vn -0.338207 -0.9410717 0
vn -0.338207 -0.9410717 0
vn -0.3382092 -0.941071 0
vn -0.3382092 -0.941071 0
vn 0.3382114 -0.9410701 0
vn 0.3382114 -0.9410701 0
vn 0.3382092 -0.941071 0
vn 0.3382092 -0.941071 0
vn -0.338207 -0.9410717 0
vn -0.338207 -0.9410717 0
vn -0.3382092 -0.941071 0
vn -0.3382092 -0.941071 0
vn 0.3382092 -0.941071 0
vn 0.3382092 -0.941071 0
vn 0.3382066 -0.9410718 0
vn 0.3382066 -0.9410718 0
vn -0.3382092 -0.941071 0
vn -0.3382092 -0.941071 0
vn -0.3382092 -0.941071 0
vn -0.3382092 -0.941071 0
vn 0.3382092 -0.941071 0
vn 0.3382092 -0.941071 0
vn 0.3382096 -0.9410709 0
vn 0.3382096 -0.9410709 0
vn -0.3382092 -0.941071 0
vn -0.3382092 -0.941071 0
vn -0.3382092 -0.941071 0
vn -0.3382092 -0.941071 0
vn 0.3382092 -0.941071 0
vn 0.3382092 -0.941071 0
vn 0.3382092 -0.941071 0
vn 0.3382092 -0.941071 0
vn -0.3382092 -0.941071 0
vn -0.3382092 -0.941071 0
vn -0.338209 -0.941071 0
vn -0.338209 -0.941071 0
vn 0.3382092 -0.941071 0
vn 0.3382092 -0.941071 0
vn 0.3382094 -0.9410709 0
vn 0.3382094 -0.9410709 0
vn -0.3382092 -0.941071 0
vn -0.3382092 -0.941071 0
vn -0.3382092 -0.941071 0
vn -0.3382092 -0.941071 0
vn 0.3382094 -0.9410709 0
vn 0.3382094 -0.9410709 0
vn 0.3382092 -0.941071 0
vn 0.3382092 -0.941071 0
vn -0.3382092 -0.941071 0
vn -0.3382092 -0.941071 0
vn -0.3382092 -0.941071 0
vn -0.3382092 -0.941071 0
vn 0.338208 -0.9410714 0
vn 0.338208 -0.9410714 0
vn 0.3382092 -0.941071 0
vn 0.3382092 -0.941071 0
vn -0.3382092 -0.941071 0
vn -0.3382092 -0.941071 0
vn -0.338208 -0.9410714 0
vn -0.338208 -0.9410714 0
vn 0.3382092 -0.941071 0
vn 0.3382092 -0.941071 0
vn 0.3382092 -0.941071 0
vn 0.3382092 -0.941071 0
vn -0.3382092 -0.941071 0
vn -0.3382092 -0.941071 0
vn -0.3708424 -0.9286958 0
vn -0.3708424 -0.9286958 0
vn 0 -1 0
vn 0 -1 0
vn 0 0.3254184 0.9455701
vn 0 0.3254184 0.9455701
vn 0 0.3254184 0.9455701
vn 0 0.3254184 0.9455701
vn 0 0.3254184 -0.9455701
vn 0 0.3254184 -0.9455701
vn 0 0.3254184 -0.9455701
vn 0 0.3254184 -0.9455701
vn 0 -1 0
vn 0 -1 0
vn 0 -0.9801378 0.1983179
vn 0 -0.9801378 0.1983179
vn 0 -0.9801378 -0.1983179
vn 0 -0.9801378 -0.1983179
vn 0 -1 0
vn 0 -1 0
vn 0.4097778 -0.9121854 0
vn 0.4097778 -0.9121854 0
vn 0.3449901 -0.9386063 0
vn 0.3449901 -0.9386063 0
vn -0.3382076 -0.9410715 0
vn -0.3382076 -0.9410715 0
vn -0.338208 -0.9410714 0
vn -0.338208 -0.9410714 0
vn 0.3382096 -0.9410709 0
vn 0.3382096 -0.9410709 0
vn 0.3382092 -0.941071 0
vn 0.3382092 -0.941071 0
vn -0.3382092 -0.941071 0
vn -0.3382092 -0.941071 0
vn -0.3382092 -0.941071 0
vn -0.3382092 -0.941071 0
vn 0.3382092 -0.941071 0
vn 0.3382092 -0.941071 0
vn 0.3382092 -0.941071 0
vn 0.3382092 -0.941071 0
vn -0.3382092 -0.941071 0
vn -0.3382092 -0.941071 0
vn -0.3382092 -0.941071 0
vn -0.3382092 -0.941071 0
vn 0.3382079 -0.9410714 0
vn 0.3382079 -0.9410714 0
vn 0.3382079 -0.9410714 0
vn 0.3382079 -0.9410714 0
vn -0.3382092 -0.941071 0
vn -0.3382092 -0.941071 0
vn -0.3382096 -0.9410709 0
vn -0.3382096 -0.9410709 0
vn 0.3382092 -0.941071 0
vn 0.3382092 -0.941071 0
vn 0.3382092 -0.941071 0
vn 0.3382092 -0.941071 0
vn -0.3382092 -0.941071 0
vn -0.3382092 -0.941071 0
vn -0.3382092 -0.941071 0
vn -0.3382092 -0.941071 0
vn 0.3382092 -0.941071 0
vn 0.3382092 -0.941071 0
vn 0.338209 -0.941071 0
vn 0.338209 -0.941071 0
vn -0.3382092 -0.941071 0
vn -0.3382092 -0.941071 0
vn -0.3382094 -0.9410709 0
vn -0.3382094 -0.9410709 0
vn 0.3382092 -0.941071 0
vn 0.3382092 -0.941071 0
vn 0.3382092 -0.941071 0
vn 0.3382092 -0.941071 0
vn -0.3382094 -0.9410709 0
vn -0.3382094 -0.9410709 0
vn -0.3382092 -0.941071 0
vn -0.3382092 -0.941071 0
vn 0.3382092 -0.941071 0
vn 0.3382092 -0.941071 0
vn 0.3382092 -0.941071 0
vn 0.3382092 -0.941071 0
vn -0.338208 -0.9410714 0
vn -0.338208 -0.9410714 0
vn -0.3382092 -0.941071 0
vn -0.3382092 -0.941071 0
vn 0.3382092 -0.941071 0
vn 0.3382092 -0.941071 0
vn 0.338208 -0.9410714 0
vn 0.338208 -0.9410714 0
vn -0.3382092 -0.941071 0
vn -0.3382092 -0.941071 0
vn -0.3382092 -0.941071 0
vn -0.3382092 -0.941071 0
vn 0.3382092 -0.941071 0
vn 0.3382092 -0.941071 0
vn 0.3708424 -0.9286958 0
vn 0.3708424 -0.9286958 0
vn 0 -1 0
vn 0 -1 0
g interior_ceiling_0
f 3/3/3 2/2/2 1/1/1
f 4/4/4 3/3/3 1/1/1
f 7/7/7 6/6/6 5/5/5
f 8/8/8 7/7/7 5/5/5
f 11/11/11 10/10/10 9/9/9
f 12/12/12 11/11/11 9/9/9
f 15/15/15 14/14/14 13/13/13
f 16/16/16 15/15/15 13/13/13
f 19/19/19 18/18/18 17/17/17
f 18/18/18 20/20/20 17/17/17
f 20/20/20 18/18/18 21/21/21
f 18/18/18 22/22/22 21/21/21
f 22/22/22 23/23/23 21/21/21
f 23/23/23 24/24/24 21/21/21
f 24/24/24 23/23/23 25/25/25
f 23/23/23 26/26/26 25/25/25
f 26/26/26 27/27/27 25/25/25
f 27/27/27 28/28/28 25/25/25
f 28/28/28 27/27/27 29/29/29
f 27/27/27 30/30/30 29/29/29
f 30/30/30 31/31/31 29/29/29
f 31/31/31 32/32/32 29/29/29
f 32/32/32 31/31/31 33/33/33
f 31/31/31 34/34/34 33/33/33
f 34/34/34 35/35/35 33/33/33
f 35/35/35 36/36/36 33/33/33
f 36/36/36 35/35/35 37/37/37
f 35/35/35 38/38/38 37/37/37
f 38/38/38 39/39/39 37/37/37
f 39/39/39 40/40/40 37/37/37
f 40/40/40 39/39/39 41/41/41
f 39/39/39 42/42/42 41/41/41
f 42/42/42 43/43/43 41/41/41
f 43/43/43 44/44/44 41/41/41
f 44/44/44 43/43/43 45/45/45
f 43/43/43 46/46/46 45/45/45
f 46/46/46 47/47/47 45/45/45
f 47/47/47 48/48/48 45/45/45
f 48/48/48 47/47/47 49/49/49
f 47/47/47 50/50/50 49/49/49
f 50/50/50 51/51/51 49/49/49
f 51/51/51 52/52/52 49/49/49
f 52/52/52 51/51/51 53/53/53
f 51/51/51 54/54/54 53/53/53
f 54/54/54 55/55/55 53/53/53
f 55/55/55 56/56/56 53/53/53
f 56/56/56 55/55/55 57/57/57
f 55/55/55 58/58/58 57/57/57
f 58/58/58 59/59/59 57/57/57
f 59/59/59 60/60/60 57/57/57
f 60/60/60 59/59/59 61/61/61
f 59/59/59 62/62/62 61/61/61
f 62/62/62 63/63/63 61/61/61
f 63/63/63 64/64/64 61/61/61
f 64/64/64 63/63/63 65/65/65
f 63/63/63 66/66/66 65/65/65
f 66/66/66 67/67/67 65/65/65
f 67/67/67 68/68/68 65/65/65
f 68/68/68 67/67/67 69/69/69
f 67/67/67 70/70/70 69/69/69
f 70/70/70 71/71/71 69/69/69
f 71/71/71 72/72/72 69/69/69
f 72/72/72 71/71/71 73/73/73
f 71/71/71 74/74/74 73/73/73
f 74/74/74 75/75/75 73/73/73
f 75/75/75 76/76/76 73/73/73
f 76/76/76 75/75/75 77/77/77
f 75/75/75 78/78/78 77/77/77
f 78/78/78 79/79/79 77/77/77
f 79/79/79 80/80/80 77/77/77
f 80/80/80 79/79/79 81/81/81
f 79/79/79 82/82/82 81/81/81
f 82/82/82 83/83/83 81/81/81
f 83/83/83 84/84/84 81/81/81
f 84/84/84 83/83/83 85/85/85
f 83/83/83 86/86/86 85/85/85
f 86/86/86 87/87/87 85/85/85
f 87/87/87 88/88/88 85/85/85
f 88/88/88 87/87/87 89/89/89
f 87/87/87 90/90/90 89/89/89
f 90/90/90 91/91/91 89/89/89
f 91/91/91 92/92/92 89/89/89
f 92/92/92 91/91/91 93/93/93
f 91/91/91 94/94/94 93/93/93
f 97/97/97 96/96/96 95/95/95
f 98/98/98 97/97/97 95/95/95
f 101/101/101 100/100/100 99/99/99
f 102/102/102 101/101/101 99/99/99
f 105/105/105 104/104/104 103/103/103
f 106/106/106 105/105/105 103/103/103
f 109/109/109 108/108/108 107/107/107
f 110/110/110 109/109/109 107/107/107
f 113/113/113 112/112/112 111/111/111
f 114/114/114 113/113/113 111/111/111
f 113/113/113 114/114/114 115/115/115
f 116/116/116 113/113/113 115/115/115
f 117/117/117 116/116/116 115/115/115
f 118/118/118 117/117/117 115/115/115
f 117/117/117 118/118/118 119/119/119
f 120/120/120 117/117/117 119/119/119
f 121/121/121 120/120/120 119/119/119
f 122/122/122 121/121/121 119/119/119
f 121/121/121 122/122/122 123/123/123
f 124/124/124 121/121/121 123/123/123
f 125/125/125 124/124/124 123/123/123
f 126/126/126 125/125/125 123/123/123
f 125/125/125 126/126/126 127/127/127
f 128/128/128 125/125/125 127/127/127
f 129/129/129 128/128/128 127/127/127
f 130/130/130 129/129/129 127/127/127
f 129/129/129 130/130/130 131/131/131
f 132/132/132 129/129/129 131/131/131
f 133/133/133 132/132/132 131/131/131
f 134/134/134 133/133/133 131/131/131
f 133/133/133 134/134/134 135/135/135
f 136/136/136 133/133/133 135/135/135
f 137/137/137 136/136/136 135/135/135
f 138/138/138 137/137/137 135/135/135
f 137/137/137 138/138/138 139/139/139
f 140/140/140 137/137/137 139/139/139
f 141/141/141 140/140/140 139/139/139
f 142/142/142 141/141/141 139/139/139
f 141/141/141 142/142/142 143/143/143
f 144/144/144 141/141/141 143/143/143
f 145/145/145 144/144/144 143/143/143
f 146/146/146 145/145/145 143/143/143
f 145/145/145 146/146/146 147/147/147
f 148/148/148 145/145/145 147/147/147
f 149/149/149 148/148/148 147/147/147
f 150/150/150 149/149/149 147/147/147
f 149/149/149 150/150/150 151/151/151
f 152/152/152 149/149/149 151/151/151
f 153/153/153 152/152/152 151/151/151
f 154/154/154 153/153/153 151/151/151
f 153/153/153 154/154/154 155/155/155
f 156/156/156 153/153/153 155/155/155
f 157/157/157 156/156/156 155/155/155
f 158/158/158 157/157/157 155/155/155
f 157/157/157 158/158/158 159/159/159
f 160/160/160 157/157/157 159/159/159
f 161/161/161 160/160/160 159/159/159
f 162/162/162 161/161/161 159/159/159
f 161/161/161 162/162/162 163/163/163
f 164/164/164 161/161/161 163/163/163
f 165/165/165 164/164/164 163/163/163
f 166/166/166 165/165/165 163/163/163
f 165/165/165 166/166/166 167/167/167
f 168/168/168 165/165/165 167/167/167
f 169/169/169 168/168/168 167/167/167
f 170/170/170 169/169/169 167/167/167
f 169/169/169 170/170/170 171/171/171
f 172/172/172 169/169/169 171/171/171
f 173/173/173 172/172/172 171/171/171
f 174/174/174 173/173/173 171/171/171
f 173/173/173 174/174/174 175/175/175
f 176/176/176 173/173/173 175/175/175
f 177/177/177 176/176/176 175/175/175
f 178/178/178 177/177/177 175/175/175
f 177/177/177 178/178/178 179/179/179
f 180/180/180 177/177/177 179/179/179
f 181/181/181 180/180/180 179/179/179
f 182/182/182 181/181/181 179/179/179
f 181/181/181 182/182/182 183/183/183
f 184/184/184 181/181/181 183/183/183
f 185/185/185 184/184/184 183/183/183
f 186/186/186 185/185/185 183/183/183
f 185/185/185 186/186/186 187/187/187
f 188/188/188 185/185/185 187/187/187
