g interior_wall_COL
v 3.888057 11.17106 5.000002
v 3.888057 11.17106 2.441406E-06
v 2.599712 8.89422 1.841033E-06
v 2.599712 8.89422 5.000001
v 0.7028393 4.151932 4.999999
v 0.7028393 4.151932 9.819295E-07
v 0.3577063 -1.110223E-16 4.999998
v 0.3577063 1.110223E-16 0
vt 0 0
vt 0 1
vt 0.245913 1
vt 0.245913 0
vt 0.5978017 0
vt 0.5978017 1
vt 1 0
vt 1 1
vn 0.8703279 -0.4924726 0
vn 0.870328 -0.4924725 0
vn 0.9106252 -0.4132333 0
vn 0.9106252 -0.4132333 0
vn 0.9696674 -0.2444284 0
vn 0.9696674 -0.2444283 0
vn 0.9965628 -0.08284019 0
vn 0.9965628 -0.08284018 0
g interior_wall_COL_0
f 3/3/3 2/2/2 1/1/1
f 4/4/4 3/3/3 1/1/1
f 4/4/4 5/5/5 3/3/3
f 5/5/5 6/6/6 3/3/3
f 5/5/5 7/7/7 6/6/6
f 7/7/7 8/8/8 6/6/6
