g interior_doorway_COL1
v -4.591511 11.17123 -0.7952595
v -11.81261 11.17037 -0.7952595
v -12.85907 8.57172 -0.6253796
v -4.591511 8.57172 -0.6253796
v -4.591511 4.105411 -0.6253796
v -14.77472 4.105411 -0.6253796
v -4.591511 -3.862381E-07 -0.6253796
v -14.77472 -3.862381E-07 -0.6253796
v -4.591511 8.57172 -0.6253796
v -4.591511 4.105411 -0.6253796
v -4.591511 4.105411 0
v -4.591511 8.57172 0
v -4.591511 4.105411 -0.6253796
v -4.591511 -3.862381E-07 -0.6253796
v -4.591511 -3.862381E-07 0
v -4.591511 4.105411 0
vt 0.004625723 0.3058231
vt 0.01217501 0.8049332
vt 0.1832995 0.8821361
vt 0.1803702 0.3071053
vt 0.4828466 0.3073556
vt 0.4993426 0.9989681
vt 0.7738008 0.3075963
vt 0.7832213 1
vt 0 0
vt 1 0
vt 1 1
vt 0 1
vt 0 0
vt 1 0
vt 1 1
vt 0 1
vn 3.672611E-06 -0.06521641 -0.9978712
vn 3.63161E-06 -0.06522316 -0.9978707
vn 8.265018E-07 -0.01484385 -0.9998899
vn 1.610034E-06 -0.02859023 -0.9995913
vn 0 0 -1
vn 0 0 -1
vn 0 0 -1
vn 0 0 -1
vn 1 0 0
vn 1 0 0
vn 1 0 0
vn 1 0 0
vn 1 0 0
vn 1 0 0
vn 1 0 0
vn 1 0 0
g interior_doorway_COL1_0
f 3/3/3 2/2/2 1/1/1
f 4/4/4 3/3/3 1/1/1
f 4/4/4 5/5/5 3/3/3
f 5/5/5 6/6/6 3/3/3
f 5/5/5 7/7/7 6/6/6
f 7/7/7 8/8/8 6/6/6
f 11/11/11 10/10/10 9/9/9
f 12/12/12 11/11/11 9/9/9
f 15/15/15 14/14/14 13/13/13
f 16/16/16 15/15/15 13/13/13
