g lucky_DLC_bib_LOD3
v -1.041365E-07 -0.00477827 -0.220385
v -9.268631E-08 0.03981512 0.4019798
v 0.3002751 0.07084387 0.3002754
v 0.3564188 0.2843415 0.3564191
v 0.3849912 0.04956634 -0.1413544
v -1.041365E-07 -0.00477827 -0.220385
v -1.057945E-07 0.2824913 0.5025886
v -0.3002752 0.07084387 0.3002752
v -1.041365E-07 -0.00477827 -0.220385
v 0.4849232 0.2828451 -0.1518865
v 0.3425124 0.3641033 0.3425128
v -8.944419E-08 0.349461 0.4895047
v 0.4720257 0.3526623 -0.1380534
v -0.3564187 0.2843415 0.3564188
v -0.3425124 0.3641035 0.3425125
v -0.4849232 0.2828451 -0.1518864
v -0.4720256 0.3526624 -0.1380533
v 0.3002753 0.07532842 -0.3002751
v -1.041365E-07 -0.00477827 -0.220385
v -8.330875E-08 0.04429965 -0.4019799
v 0.356419 0.2843415 -0.3564188
v 0.3425126 0.3641033 -0.3425124
v -8.689955E-08 0.2824913 -0.5025887
v -6.655817E-08 0.3494609 -0.4895049
v -0.3849913 0.04956647 -0.1413544
v -1.041365E-07 -0.00477827 -0.220385
v -0.3564191 0.2843415 -0.3564187
v -0.3425126 0.3641034 -0.3425123
v -8.689955E-08 0.2824913 -0.5025887
v -6.655817E-08 0.3494609 -0.4895049
v -0.3002754 0.07532842 -0.3002751
v -8.330875E-08 0.04429965 -0.4019799
v -1.041365E-07 -0.00477827 -0.220385
v -0.2932648 0.4216086 -0.2932648
v 6.112218E-08 0.3947858 -0.5127297
v 5.04353E-08 0.4216086 -0.414739
v -0.3625547 0.3947858 -0.3625547
v -0.4035968 0.4216086 -0.1073424
v 6.207586E-08 0.3270636 -0.495442
v -0.498955 0.3947858 -0.1327043
v -0.2932649 0.4216086 0.2932648
v -0.3503304 0.3270635 -0.3503305
v 5.903163E-08 0.2985763 -0.421043
v -0.2977223 0.2985763 -0.2977224
v -0.4821317 0.3270636 -0.1282299
v -0.4097314 0.2985763 -0.108974
v -0.3625548 0.3947858 0.3625547
v -1.136566E-08 0.4216086 0.4147391
v -0.3503305 0.3270635 0.3503305
v -0.2977224 0.2985763 0.2977224
v -1.528054E-08 0.3947858 0.5127299
v 0.2932649 0.4216086 0.2932649
v -1.175079E-08 0.3270636 0.4954422
v -3.708685E-09 0.2985763 0.4210431
v 0.3625548 0.3947858 0.3625548
v 0.4035968 0.4216086 -0.1073423
v 0.3503305 0.3270635 0.3503306
v 0.2977225 0.2985763 0.2977225
v 0.4989549 0.3947858 -0.1327042
v 0.2932648 0.4216086 -0.2932647
v 0.4821316 0.3270636 -0.1282298
v 0.4097314 0.2985763 -0.1089739
v 0.3625547 0.3947858 -0.3625546
v 5.04353E-08 0.4216086 -0.414739
v 6.112218E-08 0.3947858 -0.5127297
v 0.3503304 0.3270635 -0.3503303
v 0.2977224 0.2985763 -0.2977223
v 6.207586E-08 0.3270636 -0.495442
v 5.903163E-08 0.2985763 -0.421043
v 0 0.2742948 0.4429933
v 0 0.2061605 0.5399754
v 0.07153523 0.2836191 0.4963627
v 0 0.3712769 0.5111275
v 0 0.2061605 0.5399754
v 0.05926172 0.298918 0.5839289
v 0 0.3712769 0.5111275
v 0 0.2061605 0.5399754
v 0 0.3031427 0.6081096
v 0 0.3712769 0.5111275
v 0 0.2061605 0.5399754
v -0.05926172 0.298918 0.5839289
v 0 0.3712769 0.5111275
v 0 0.2061605 0.5399754
v -0.07153522 0.2836191 0.4963627
v 0 0.3712769 0.5111275
v 0 0.2061605 0.5399754
v 0 0.2742948 0.4429933
v 0 0.3712769 0.5111275
vt 0.9487028 0.1297043
vt 0.4996432 0.2246162
vt 0.6254019 0.2540642
vt 0.6255446 0.2834779
vt 0.7563444 0.2263519
vt 0.9487028 0.1297043
vt 0.4996431 0.271305
vt 0.3738935 0.2540124
vt 0.05129948 0.1296677
vt 0.7481701 0.2710476
vt 0.6256643 0.3346455
vt 0.4996431 0.3281368
vt 0.7450079 0.3269734
vt 0.3737499 0.2834265
vt 0.3736287 0.3346165
vt 0.2548658 0.2711381
vt 0.2580639 0.3270554
vt 0.8331821 0.2519366
vt 0.9487028 0.1297043
vt 0.9487045 0.2200494
vt 0.8333434 0.2815525
vt 0.8334783 0.3323871
vt 0.9487045 0.267498
vt 0.9487045 0.3243285
vt 0.2466004 0.2264096
vt 0.05129948 0.1296677
vt 0.1687466 0.281455
vt 0.1686098 0.3323266
vt 0.05129853 0.2676269
vt 0.05129799 0.3244696
vt 0.1689107 0.2518426
vt 0.05129856 0.2202933
vt 0.05129948 0.1296677
vt 0.1343935 0.6332473
vt 0.01200944 0.5668584
vt 0.01200944 0.6332473
vt 0.1343935 0.5668582
vt 0.2149306 0.6332473
vt 0.01200944 0.4974838
vt 0.2149306 0.5668582
vt 0.3791637 0.6332473
vt 0.1343935 0.4974838
vt 0.01200944 0.4224218
vt 0.1343935 0.4224218
vt 0.2149306 0.4974838
vt 0.2149307 0.4224218
vt 0.3791637 0.5668582
vt 0.5035334 0.6332473
vt 0.3791637 0.4974838
vt 0.3791637 0.4224218
vt 0.5035335 0.5668582
vt 0.6274712 0.6332474
vt 0.5035334 0.4974838
vt 0.5035335 0.4224218
vt 0.6274712 0.5668582
vt 0.7897958 0.6332473
vt 0.6274712 0.4974838
vt 0.6274713 0.4224218
vt 0.7897958 0.5668582
vt 0.8688275 0.6332473
vt 0.7897958 0.4974838
vt 0.7897957 0.4224218
vt 0.8688275 0.5668584
vt 0.9893913 0.6332473
vt 0.9893913 0.5668584
vt 0.8688276 0.4974838
vt 0.8688275 0.4224218
vt 0.9893913 0.4974838
vt 0.9893913 0.4224218
vt 0.5319583 0.8343263
vt 0.2785939 0.6475828
vt 0.441504 0.822465
vt 0.2657301 0.9847797
vt 0.2785939 0.6475828
vt 0.3373708 0.8188562
vt 0.2657301 0.9847797
vt 0.2785939 0.6475828
vt 0.2723184 0.8176624
vt 0.2657301 0.9847797
vt 0.2785939 0.6475828
vt 0.2072533 0.8165408
vt 0.2657301 0.9847797
vt 0.2785939 0.6475828
vt 0.1030505 0.8133476
vt 0.2657301 0.9847797
vt 0.2785939 0.6475828
vt 0.01245683 0.8021691
vt 0.2657301 0.9847797
vn 0 -0.9997614 -0.02184336
vn 0 -0.8965954 0.4428507
vn 0.4751817 -0.8133874 0.3355641
vn 0.7790537 -0.2364964 0.5806414
vn 0.5482497 -0.8361408 0.01705953
vn 0 -0.9997614 -0.02184336
vn 0 -0.2235043 0.9747029
vn -0.475182 -0.8133874 0.3355639
vn 0 -0.9997614 -0.02184336
vn 0.9742225 -0.2254969 -0.006454263
vn 0.7907588 0.2039583 0.5771495
vn 0 0.2178361 0.9759854
vn 0.9783863 0.2048404 0.0282958
vn -0.7790539 -0.2364959 0.5806415
vn -0.7907591 0.2039584 0.577149
vn -0.9742226 -0.2254964 -0.006454117
vn -0.9783862 0.2048407 0.02829606
vn 0.4456235 -0.6354713 -0.6305521
vn 0 -0.9997614 -0.02184336
vn 0 -0.6520771 -0.7581527
vn 0.5715295 -0.2155531 -0.7917644
vn 0.5749925 0.2277243 -0.7858278
vn 0 -0.2264464 -0.9740236
vn 0 0.2178364 -0.9759853
vn -0.5482498 -0.8361406 0.01705952
vn 0 -0.9997614 -0.02184336
vn -0.5715299 -0.2155529 -0.7917641
vn -0.5749927 0.2277248 -0.7858275
vn 0 -0.2264464 -0.9740236
vn 0 0.2178364 -0.9759853
vn -0.4456237 -0.6354713 -0.6305519
vn 0 -0.6520771 -0.7581527
vn 0 -0.9997614 -0.02184336
vn -0.1591036 0.9637917 -0.2139894
vn 0 0.5353258 -0.8446456
vn 0 0.9645184 -0.2640156
vn -0.5115716 0.5475557 -0.6621761
vn -0.2723006 0.9621922 0.006206809
vn 0 -0.6081039 -0.7938575
vn -0.8573664 0.514553 -0.01257873
vn -0.2131016 0.9638385 0.1600095
vn -0.4784136 -0.6153476 -0.6264725
vn 0 -0.9338818 -0.3575821
vn -0.2154434 -0.9325985 -0.2895587
vn -0.8073693 -0.5900422 -0.002241609
vn -0.3680077 -0.9297871 0.008141001
vn -0.6741171 0.5134673 0.530959
vn 0 0.9645184 0.2640156
vn -0.6364439 -0.5925097 0.4938333
vn -0.2883447 -0.9326827 0.216703
vn 0 0.535326 0.8446455
vn 0.2131016 0.9638386 0.1600093
vn 0 -0.6081039 0.7938574
vn 0 -0.9338819 0.3575818
vn 0.6741171 0.5134672 0.5309591
vn 0.2723006 0.9621922 0.006206774
vn 0.636444 -0.5925096 0.4938333
vn 0.2883448 -0.9326827 0.2167029
vn 0.8573664 0.5145528 -0.01257876
vn 0.1591037 0.9637917 -0.2139893
vn 0.8073694 -0.590042 -0.002241729
vn 0.3680082 -0.9297869 0.008140951
vn 0.5115719 0.5475556 -0.662176
vn 0 0.9645184 -0.2640156
vn 0 0.5353258 -0.8446456
vn 0.4784138 -0.6153475 -0.6264724
vn 0.2154437 -0.9325983 -0.2895588
vn 0 -0.6081039 -0.7938575
vn 0 -0.9338818 -0.3575821
vn 0 -0.1721056 -0.9850785
vn 0 -0.997236 0.07429953
vn 0.9238794 -0.06586203 -0.3769735
vn 0 0.9633522 -0.2682397
vn 0 -0.997236 0.07429953
vn 0.8246546 0.09734947 0.5571963
vn 0 0.9633522 -0.2682397
vn 0 -0.997236 0.07429953
vn 0 0.1721058 0.9850785
vn 0 0.9633522 -0.2682397
vn 0 -0.997236 0.07429953
vn -0.8246549 0.09734903 0.5571961
vn 0 0.9633522 -0.2682397
vn 0 -0.997236 0.07429953
vn -0.9238794 -0.06586214 -0.3769734
vn 0 0.9633522 -0.2682397
vn 0 -0.997236 0.07429953
vn 0 -0.1721056 -0.9850785
vn 0 0.9633522 -0.2682397
g lucky_DLC_bib_LOD3_0
f 3/3/3 2/2/2 1/1/1
f 3/3/3 4/4/4 2/2/2
f 4/4/4 3/3/3 5/5/5
f 5/5/5 3/3/3 6/6/6
f 4/4/4 7/7/7 2/2/2
f 2/2/2 7/7/7 8/8/8
f 9/9/9 2/2/2 8/8/8
f 10/10/10 4/4/4 5/5/5
f 4/4/4 11/11/11 7/7/7
f 11/11/11 4/4/4 10/10/10
f 11/11/11 12/12/12 7/7/7
f 13/13/13 11/11/11 10/10/10
f 7/7/7 12/12/12 14/14/14
f 7/7/7 14/14/14 8/8/8
f 12/12/12 15/15/15 14/14/14
f 16/16/16 14/14/14 15/15/15
f 8/8/8 14/14/14 16/16/16
f 17/17/17 16/16/16 15/15/15
f 10/10/10 5/5/5 18/18/18
f 5/5/5 19/19/19 18/18/18
f 19/19/19 20/20/20 18/18/18
f 13/13/13 10/10/10 21/21/21
f 21/21/21 10/10/10 18/18/18
f 18/18/18 20/20/20 21/21/21
f 22/22/22 13/13/13 21/21/21
f 20/20/20 23/23/23 21/21/21
f 22/22/22 21/21/21 24/24/24
f 21/21/21 23/23/23 24/24/24
f 25/25/25 8/8/8 16/16/16
f 25/25/25 26/26/26 8/8/8
f 27/27/27 16/16/16 17/17/17
f 25/25/25 16/16/16 27/27/27
f 28/28/28 27/27/27 17/17/17
f 29/29/29 27/27/27 28/28/28
f 30/30/30 29/29/29 28/28/28
f 31/31/31 27/27/27 29/29/29
f 31/31/31 25/25/25 27/27/27
f 32/32/32 31/31/31 29/29/29
f 25/25/25 31/31/31 32/32/32
f 33/33/33 25/25/25 32/32/32
f 36/36/36 35/35/35 34/34/34
f 35/35/35 37/37/37 34/34/34
f 34/34/34 37/37/37 38/38/38
f 35/35/35 39/39/39 37/37/37
f 37/37/37 40/40/40 38/38/38
f 38/38/38 40/40/40 41/41/41
f 39/39/39 42/42/42 37/37/37
f 37/37/37 42/42/42 40/40/40
f 39/39/39 43/43/43 42/42/42
f 43/43/43 44/44/44 42/42/42
f 42/42/42 44/44/44 45/45/45
f 42/42/42 45/45/45 40/40/40
f 44/44/44 46/46/46 45/45/45
f 40/40/40 47/47/47 41/41/41
f 40/40/40 45/45/45 47/47/47
f 41/41/41 47/47/47 48/48/48
f 45/45/45 46/46/46 49/49/49
f 45/45/45 49/49/49 47/47/47
f 46/46/46 50/50/50 49/49/49
f 47/47/47 51/51/51 48/48/48
f 47/47/47 49/49/49 51/51/51
f 48/48/48 51/51/51 52/52/52
f 49/49/49 50/50/50 53/53/53
f 49/49/49 53/53/53 51/51/51
f 50/50/50 54/54/54 53/53/53
f 51/51/51 55/55/55 52/52/52
f 51/51/51 53/53/53 55/55/55
f 52/52/52 55/55/55 56/56/56
f 53/53/53 54/54/54 57/57/57
f 53/53/53 57/57/57 55/55/55
f 54/54/54 58/58/58 57/57/57
f 55/55/55 59/59/59 56/56/56
f 55/55/55 57/57/57 59/59/59
f 56/56/56 59/59/59 60/60/60
f 57/57/57 58/58/58 61/61/61
f 57/57/57 61/61/61 59/59/59
f 58/58/58 62/62/62 61/61/61
f 59/59/59 63/63/63 60/60/60
f 59/59/59 61/61/61 63/63/63
f 60/60/60 63/63/63 64/64/64
f 63/63/63 65/65/65 64/64/64
f 61/61/61 62/62/62 66/66/66
f 61/61/61 66/66/66 63/63/63
f 63/63/63 66/66/66 65/65/65
f 62/62/62 67/67/67 66/66/66
f 66/66/66 68/68/68 65/65/65
f 66/66/66 67/67/67 68/68/68
f 67/67/67 69/69/69 68/68/68
f 72/72/72 71/71/71 70/70/70
f 70/70/70 73/73/73 72/72/72
f 75/75/75 74/74/74 72/72/72
f 72/72/72 76/76/76 75/75/75
f 78/78/78 77/77/77 75/75/75
f 75/75/75 79/79/79 78/78/78
f 81/81/81 80/80/80 78/78/78
f 78/78/78 82/82/82 81/81/81
f 84/84/84 83/83/83 81/81/81
f 81/81/81 85/85/85 84/84/84
f 87/87/87 86/86/86 84/84/84
f 84/84/84 88/88/88 87/87/87
