g luckycat_coin_LOD1
v 0.1405553 -0.02966259 -0.1021194
v 0.05368735 -0.02966259 -0.1652327
v 0 -0.03989683 0
v 0.1737358 -0.02966259 1.544233E-09
v -0.05368735 -0.02966259 -0.1652327
v 0.1405552 -0.02966259 0.1021194
v -0.1405553 -0.02966259 -0.1021194
v 0.05368732 -0.02966259 0.1652326
v -0.1737359 -0.02966259 1.544233E-09
v -0.05368733 -0.02966259 0.1652326
v -0.1405553 -0.02966259 0.1021194
v 0.1405552 0.02966259 0.1021194
v 0.1737358 0.02966259 1.544233E-09
v 0.1737358 -0.02966259 1.544233E-09
v 0.1405553 0.02966259 -0.1021194
v 0.1405552 -0.02966259 0.1021194
v 0.1405553 -0.02966259 -0.1021194
v 0.05368732 0.02966259 0.1652326
v 0.05368735 -0.02966259 -0.1652327
v 0.05368732 -0.02966259 0.1652326
v 0.05368735 0.02966259 -0.1652327
v -0.05368733 0.02966259 0.1652326
v -0.05368735 -0.02966259 -0.1652327
v -0.05368733 -0.02966259 0.1652326
v -0.05368735 0.02966259 -0.1652327
v -0.1405553 0.02966259 0.1021194
v -0.1405553 -0.02966259 -0.1021194
v -0.1405553 -0.02966259 0.1021194
v -0.1405553 0.02966259 -0.1021194
v -0.1737359 0.02966259 1.544233E-09
v -0.1737359 -0.02966259 1.544233E-09
v 3.516319E-18 0.0240061 2.894404E-19
v 0.05368735 0.02966259 -0.1652327
v 0.1405553 0.02966259 -0.1021194
v -0.05368735 0.02966259 -0.1652327
v 0.1737358 0.02966259 1.544233E-09
v -0.1405553 0.02966259 -0.1021194
v 0.1405552 0.02966259 0.1021194
v -0.1737359 0.02966259 1.544233E-09
v 0.05368732 0.02966259 0.1652326
v -0.1405553 0.02966259 0.1021194
v -0.05368733 0.02966259 0.1652326
vt 0.8964316 0.7887225
vt 0.6514235 0.9671628
vt 0.4999999 0.5
vt 0.9900162 0.5
vt 0.3485765 0.9671628
vt 0.8964314 0.2112776
vt 0.1035683 0.7887224
vt 0.6514233 0.03283739
vt 0.009983599 0.5
vt 0.3485765 0.03283727
vt 0.1035684 0.2112776
vt 0.8964314 0.2112776
vt 0.9900162 0.5
vt 0.9900162 0.5
vt 0.8964316 0.7887225
vt 0.8964314 0.2112776
vt 0.8964316 0.7887225
vt 0.6514233 0.03283739
vt 0.6514235 0.9671628
vt 0.6514233 0.03283739
vt 0.6514235 0.9671628
vt 0.3485765 0.03283727
vt 0.3485765 0.9671628
vt 0.3485765 0.03283727
vt 0.3485765 0.9671628
vt 0.1035684 0.2112776
vt 0.1035683 0.7887224
vt 0.1035684 0.2112776
vt 0.1035683 0.7887224
vt 0.009983599 0.5
vt 0.009983599 0.5
vt 0.4999999 0.5
vt 0.6514235 0.9671628
vt 0.8964316 0.7887225
vt 0.3485765 0.9671628
vt 0.9900162 0.5
vt 0.1035683 0.7887224
vt 0.8964314 0.2112776
vt 0.009983599 0.5
vt 0.6514233 0.03283739
vt 0.1035684 0.2112776
vt 0.3485765 0.03283727
vn 0.5452186 -0.7387978 -0.3961243
vn 0.2082549 -0.7387978 -0.6409428
vn 0 -1 0
vn 0.6739271 -0.7387978 0
vn -0.208255 -0.7387978 -0.6409428
vn 0.5452186 -0.7387977 0.3961245
vn -0.5452186 -0.7387977 -0.3961244
vn 0.208255 -0.7387977 0.6409429
vn -0.6739272 -0.7387977 0
vn -0.2082549 -0.7387977 0.6409429
vn -0.5452185 -0.7387977 0.3961245
vn 0.5133529 0.7728907 0.3729727
vn 0.634539 0.7728909 0
vn 0.6739271 -0.7387978 0
vn 0.5133531 0.7728908 -0.3729726
vn 0.5452186 -0.7387977 0.3961245
vn 0.5452186 -0.7387978 -0.3961243
vn 0.1960834 0.7728909 0.6034824
vn 0.2082549 -0.7387978 -0.6409428
vn 0.208255 -0.7387977 0.6409429
vn 0.1960833 0.7728909 -0.6034824
vn -0.1960833 0.7728908 0.6034825
vn -0.208255 -0.7387978 -0.6409428
vn -0.2082549 -0.7387977 0.6409429
vn -0.1960835 0.7728909 -0.6034824
vn -0.5133529 0.7728908 0.3729727
vn -0.5452186 -0.7387977 -0.3961244
vn -0.5452185 -0.7387977 0.3961245
vn -0.513353 0.7728909 -0.3729726
vn -0.6345391 0.7728908 0
vn -0.6739272 -0.7387977 0
vn 0 1 0
vn 0.1960833 0.7728909 -0.6034824
vn 0.5133531 0.7728908 -0.3729726
vn -0.1960835 0.7728909 -0.6034824
vn 0.634539 0.7728909 0
vn -0.513353 0.7728909 -0.3729726
vn 0.5133529 0.7728907 0.3729727
vn -0.6345391 0.7728908 0
vn 0.1960834 0.7728909 0.6034824
vn -0.5133529 0.7728908 0.3729727
vn -0.1960833 0.7728908 0.6034825
g luckycat_coin_LOD1_0
f 3/3/3 2/2/2 1/1/1
f 4/4/4 3/3/3 1/1/1
f 3/3/3 5/5/5 2/2/2
f 3/3/3 4/4/4 6/6/6
f 3/3/3 7/7/7 5/5/5
f 3/3/3 6/6/6 8/8/8
f 3/3/3 9/9/9 7/7/7
f 3/3/3 8/8/8 10/10/10
f 3/3/3 11/11/11 9/9/9
f 3/3/3 10/10/10 11/11/11
f 14/14/14 13/13/13 12/12/12
f 13/13/13 14/14/14 15/15/15
f 16/16/16 14/14/14 12/12/12
f 14/14/14 17/17/17 15/15/15
f 16/16/16 12/12/12 18/18/18
f 17/17/17 19/19/19 15/15/15
f 20/20/20 16/16/16 18/18/18
f 19/19/19 21/21/21 15/15/15
f 20/20/20 18/18/18 22/22/22
f 19/19/19 23/23/23 21/21/21
f 24/24/24 20/20/20 22/22/22
f 23/23/23 25/25/25 21/21/21
f 24/24/24 22/22/22 26/26/26
f 23/23/23 27/27/27 25/25/25
f 28/28/28 24/24/24 26/26/26
f 27/27/27 29/29/29 25/25/25
f 28/28/28 26/26/26 30/30/30
f 27/27/27 31/31/31 29/29/29
f 31/31/31 30/30/30 29/29/29
f 31/31/31 28/28/28 30/30/30
f 34/34/34 33/33/33 32/32/32
f 33/33/33 35/35/35 32/32/32
f 36/36/36 34/34/34 32/32/32
f 35/35/35 37/37/37 32/32/32
f 38/38/38 36/36/36 32/32/32
f 37/37/37 39/39/39 32/32/32
f 40/40/40 38/38/38 32/32/32
f 39/39/39 41/41/41 32/32/32
f 42/42/42 40/40/40 32/32/32
f 41/41/41 42/42/42 32/32/32
