g manifold_ld
v -0.649114 -5.303445 4.790771
v 5.270812 -1.501249 4.753512
v 5.238056 -5.30453 5.197661
v -0.7519922 -2.007417 4.380219
v -0.820722 -3.87112 3.852076
v -0.720409 -5.383917 3.812421
v 2.672939 3.220639 4.368328
v 5.138185 4.122136 4.408785
v 2.687644 4.174232 4.331707
v 2.399923 5.235491 4.818341
v -4.897609 -1.914531 4.120944
v -4.937129 -3.635319 4.166399
v -0.962694 -1.819026 4.843914
v -4.879837 -1.841379 4.839975
v -5.147048 1.348872 4.860722
v -5.607123 5.30355 4.941518
v -0.89002 1.727062 4.765976
v 2.484697 3.291139 4.830125
v -5.147048 1.348872 4.860722
v -5.548397 5.3735 4.073283
v -5.607123 5.30355 4.941518
v -5.128572 1.431853 4.020251
v -4.879837 -1.841379 4.839975
v -4.897609 -1.914531 4.120944
v -5.226815 3.523526 3.44636
v -4.9718 4.587888 3.495882
v -5.160079 0.534809 2.706797
v -5.454492 3.359213 -4.015899
v -5.456588 -2.254793 -4.080297
v -5.081487 4.471649 -3.832892
v -5.545825 5.246651 -4.155025
v -5.665897 5.190084 -5.180414
v -5.502384 3.258216 -5.117458
v -5.182708 -2.335015 -5.036737
v -5.124422 0.467903 1.554175
v -5.239867 -2.046251 2.813303
v -4.937129 -3.635319 4.166399
v -4.975196 -3.744827 2.762969
v -5.163129 -4.128654 2.74348
v -5.377865 -4.191391 -4.299427
v -5.099706 -3.935359 -5.159647
v -5.377865 -4.191391 -4.299427
v -4.244302 -3.986592 -5.140426
v -5.099706 -3.935359 -5.159647
v -4.351754 -4.512986 -4.537652
v -5.163129 -4.128654 2.74348
v -3.493825 -4.596069 -4.45885
v -2.869038 -3.998032 -5.003501
v -4.309523 -4.553222 2.767259
v -3.414958 -4.72855 2.342061
v -2.786476 -4.421729 -4.175219
v -2.71102 -5.262074 -4.723597
v 1.030948 -5.301097 -4.660745
v -2.67405 -5.193812 -5.678111
v 1.016783 -5.214022 -5.724916
v 4.976985 -5.147816 -4.872669
v 5.007492 -5.114862 -5.873078
v 4.677423 -4.310948 -4.238162
v 0.8878454 -4.500499 -4.19041
v 4.682446 -4.371389 -2.127298
v 2.390317 -4.304736 -2.076099
v 2.375662 -4.780736 1.218673
v 4.707399 -4.457128 0.97288
v 4.648747 -4.530137 3.596521
v -0.7165303 -4.744332 3.374461
v 5.065973 -5.388083 4.07185
v -4.252851 -4.479175 3.374755
v -0.720409 -5.383917 3.812421
v 5.238056 -5.30453 5.197661
v -0.649114 -5.303445 4.790771
v -0.781034 -4.051126 3.355437
v -0.820722 -3.87112 3.852076
v -4.32075 -3.850306 3.332352
v -4.937129 -3.635319 4.166399
v -4.408125 -3.863595 2.742475
v -4.975196 -3.744827 2.762969
v -5.545825 5.246651 -4.155025
v -5.665897 5.190084 -5.180414
v -2.738777 5.286935 -5.063433
v -2.738575 5.384462 -4.059907
v -5.081487 4.471649 -3.832892
v 0.276959 5.418809 -4.06201
v 0.3742624 5.256698 -4.972109
v 0.302315 4.665809 -3.936839
v -2.625345 4.54215 -3.941801
v -4.9718 4.587888 3.495882
v -1.119782 4.73594 -3.440449
v -2.737918 4.752095 -1.570724
v 2.489775 4.705566 0.0558911
v 0.0185012 4.837815 -3.512863
v 4.178732 3.947996 -3.821623
v -1.076127 4.702812 -2.634372
v -0.0395346 4.805626 -2.6125
v 2.462623 4.759874 -3.666657
v 2.341648 4.617628 3.39566
v -5.548397 5.3735 4.073283
v 4.29379 4.636714 -3.709651
v 5.097297 3.845703 -3.151788
v 5.326967 4.294567 -3.059335
v 5.370282 4.31302 0.00284455
v 2.422327 4.786072 -2.64553
v 4.242635 4.715965 -0.026595
v 5.38741 4.34335 3.640262
v 3.171747 4.802666 -2.551569
v 3.194014 4.819402 0.0347668
v 4.292814 4.565772 3.859962
v 5.138185 4.122136 4.408785
v 2.687644 4.174232 4.331707
v 3.258316 4.634359 3.756968
v 2.402486 5.294356 3.875238
v 2.399923 5.235491 4.818341
v -5.607123 5.30355 4.941518
v 0.302315 4.665809 -3.936839
v 0.276959 5.418809 -4.06201
v 0.3742624 5.256698 -4.972109
v 0.466366 2.123609 -4.709994
v -2.738777 5.286935 -5.063433
v -1.677893 1.718396 -4.698987
v -5.665897 5.190084 -5.180414
v -5.502384 3.258216 -5.117458
v -4.005187 -2.863814 -4.898035
v -5.182708 -2.335015 -5.036737
v -4.244302 -3.986592 -5.140426
v -5.099706 -3.935359 -5.159647
v -2.869038 -3.998032 -5.003501
v -2.885246 -2.850796 -4.922098
v -2.760771 -3.11678 -5.436869
v -2.71102 -5.262074 -4.723597
v -2.67405 -5.193812 -5.678111
v 1.016783 -5.214022 -5.724916
v 0.655258 -1.544414 -5.248368
v 5.007492 -5.114862 -5.873078
v 5.025991 -1.347057 -5.516832
v 0.587532 1.990149 -5.215526
v 4.068784 2.008549 -5.313256
v 4.164351 2.095922 -4.522686
v 5.035499 1.924482 -5.295322
v 5.040719 2.048197 -4.588764
v 5.077527 3.780842 -4.65521
v 0.440011 2.054872 -3.910474
v 4.088923 1.92995 -3.705245
v 4.178732 3.947996 -3.821623
v 4.230697 3.846932 -4.617648
v 5.097297 3.845703 -3.151788
v 5.040719 2.048197 -4.588764
v 5.035499 1.924482 -5.295322
v 5.025991 -1.347057 -5.516832
v 5.055166 -0.6341593 -4.632612
v 5.007492 -5.114862 -5.873078
v 5.100727 -3.330606 -4.607701
v 4.976985 -5.147816 -4.872669
v 4.677423 -4.310948 -4.238162
v 4.682446 -4.371389 -2.127298
v 5.373557 2.905973 -4.239982
v 5.077527 3.780842 -4.65521
v 5.361699 -0.481434 -4.157405
v 5.392686 3.000888 -3.073532
v 5.097297 3.845703 -3.151788
v 5.326967 4.294567 -3.059335
v 5.13029 -3.337548 -2.12917
v 4.707399 -4.457128 0.97288
v 5.363457 -0.487293 -2.009324
v 5.455768 1.14211 1.187617
v 5.370282 4.31302 0.00284455
v 5.38741 4.34335 3.640262
v 5.154522 -3.41453 0.976038
v 4.648747 -4.530137 3.596521
v 5.516814 1.230729 3.544365
v 5.138185 4.122136 4.408785
v 5.270812 -1.501249 4.753512
v 5.193621 -3.398349 3.404443
v 5.065973 -5.388083 4.07185
v 5.238056 -5.30453 5.197661
vt 0.7435417 0.5229166
vt 0.6316223 0.6751292
vt 0.7342491 0.6814364
vt 0.6505725 0.5059593
vt 0.7048404 0.4971265
vt 0.7469084 0.496504
vt 0.5031233 0.6049935
vt 0.4802961 0.6743383
vt 0.4747994 0.6088643
vt 0.4431837 0.5929769
vt 0.6554158 0.3869596
vt 0.7029605 0.3867799
vt 0.6391718 0.4952053
vt 0.6356173 0.3878382
vt 0.5478623 0.3847342
vt 0.4401011 0.3748967
vt 0.5418711 0.5038443
vt 0.4950819 0.5945103
vt 0.2605028 0.8267412
vt 0.2753453 0.7153624
vt 0.2515747 0.7185801
vt 0.2836469 0.8237585
vt 0.2605895 0.9136271
vt 0.2803656 0.9154493
vt 0.2971955 0.7654104
vt 0.2974962 0.7350152
vt 0.3197341 0.84812
vt 0.5049171 0.7687978
vt 0.5070939 0.9234527
vt 0.4985365 0.7365996
vt 0.5161551 0.7169808
vt 0.543622 0.7215067
vt 0.5353718 0.7728072
vt 0.5344973 0.9259341
vt 0.3513151 0.8494781
vt 0.3175254 0.919605
vt 0.2769156 0.9619693
vt 0.3146046 0.967122
vt 0.3205768 0.9771047
vt 0.5135741 0.9768322
vt 0.5384432 0.9699143
vt 0.5102458 0.04349339
vt 0.5390666 0.07168436
vt 0.5357158 0.047858
vt 0.5174552 0.07324934
vt 0.3155982 0.05022538
vt 0.5167695 0.09718609
vt 0.537375 0.1068196
vt 0.3151581 0.07689404
vt 0.326334 0.1026425
vt 0.5120693 0.118366
vt 0.5390184 0.1272366
vt 0.5339649 0.2283379
vt 0.5658281 0.1298665
vt 0.563488 0.2305551
vt 0.532383 0.3377137
vt 0.5598626 0.341202
vt 0.5039816 0.3280957
vt 0.5084062 0.2226408
vt 0.4485233 0.3252702
vt 0.4486222 0.2610731
vt 0.3561351 0.2611771
vt 0.3677957 0.3255049
vt 0.2996471 0.3304405
vt 0.2916462 0.1771916
vt 0.2736676 0.3442837
vt 0.301013 0.07908165
vt 0.2723453 0.1830707
vt 0.2429874 0.3525487
vt 0.2449644 0.1880163
vt 0.2768695 0.1663268
vt 0.2640803 0.1644677
vt 0.2862105 0.07066679
vt 0.2639463 0.05112469
vt 0.3014112 0.06402946
vt 0.3025534 0.0502578
vt 0.378027 0.4036533
vt 0.3826265 0.3754379
vt 0.301336 0.3746627
vt 0.3008619 0.4024716
vt 0.3655735 0.4272952
vt 0.2183084 0.4038142
vt 0.2152376 0.3783216
vt 0.2185751 0.4250546
vt 0.2982341 0.4258252
vt 0.3645331 0.6279833
vt 0.256979 0.4396478
vt 0.3010918 0.4912293
vt 0.1571438 0.5370142
vt 0.2260478 0.4378599
vt 0.1110015 0.4130954
vt 0.2559012 0.4619197
vt 0.2275071 0.4628636
vt 0.1598127 0.4331419
vt 0.1587341 0.6316941
vt 0.3815711 0.6544483
vt 0.1117395 0.4317283
vt 0.07972646 0.4289117
vt 0.08100343 0.4446121
vt 0.07557386 0.5294621
vt 0.1609288 0.4616373
vt 0.108583 0.5313531
vt 0.07024664 0.6283582
vt 0.140849 0.4640992
vt 0.1376404 0.535287
vt 0.1007902 0.6364495
vt 0.07420117 0.6512543
vt 0.1377157 0.6593532
vt 0.1300507 0.6374488
vt 0.1619384 0.6540264
vt 0.1622884 0.6799219
vt 0.3841509 0.6784145
vt 0.7959403 0.05656293
vt 0.7877909 0.03785831
vt 0.7667688 0.05016446
vt 0.792922 0.1388147
vt 0.6859227 0.06628323
vt 0.7334338 0.1619297
vt 0.607388 0.07931197
vt 0.6208626 0.13077
vt 0.6729262 0.2930378
vt 0.6391289 0.2806302
vt 0.6642575 0.3249652
vt 0.6412659 0.3234771
vt 0.6998234 0.3265131
vt 0.703676 0.2920102
vt 0.7132282 0.3049467
vt 0.6898661 0.3614658
vt 0.7166679 0.3617824
vt 0.817184 0.3571266
vt 0.8022115 0.2535715
vt 0.9272467 0.3533157
vt 0.92455 0.2491123
vt 0.7987681 0.1532896
vt 0.8987941 0.1577573
vt 0.9038343 0.1367249
vt 0.9256971 0.1604065
vt 0.9281631 0.1411621
vt 0.9409738 0.08959523
vt 0.8048445 0.121309
vt 0.8945403 0.1213629
vt 0.9060544 0.0706369
vt 0.919754 0.08803001
vt 0.9272946 0.04680195
vt 0.8994536 0.921037
vt 0.918875 0.9172481
vt 0.9229164 0.827302
vt 0.8990865 0.847367
vt 0.9330931 0.7240459
vt 0.8972721 0.7727941
vt 0.9061615 0.7223721
vt 0.8856404 0.7435602
vt 0.828294 0.7420133
vt 0.8864601 0.944734
vt 0.9004765 0.9687896
vt 0.8836486 0.8517944
vt 0.8541329 0.9485769
vt 0.8596885 0.9731646
vt 0.8520341 0.9846376
vt 0.8282726 0.7730103
vt 0.7432866 0.73943
vt 0.8246851 0.8517631
vt 0.7365828 0.8960574
vt 0.7684815 0.9835953
vt 0.6684053 0.9840975
vt 0.7423887 0.7704653
vt 0.6734016 0.7340804
vt 0.6719272 0.8983933
vt 0.6460419 0.9780814
vt 0.6383953 0.8231312
vt 0.6746118 0.7696712
vt 0.6509874 0.7158623
vt 0.6209006 0.720947
vn 0.01216067 -0.9879876 0.1540536
vn 0.9871999 0.03432291 0.1557508
vn 0.5270391 -0.7514031 0.3970177
vn 0.01080029 0.0275368 0.9995624
vn 0.01424762 -0.6936672 0.7201548
vn 0.008889119 -0.9949957 0.09952144
vn 0.002530999 0.01358439 0.9999045
vn 0.9885467 0.0854293 0.1244076
vn 0.03855843 0.1342848 0.9901923
vn -0.06347695 0.964416 0.2566563
vn -0.991776 0.04147948 0.1210773
vn -0.9898754 -0.06946217 0.1237807
vn 0.01219205 0.02517986 0.9996086
vn -0.7299289 0.0529316 0.6814706
vn -0.9170982 -0.03660418 0.3969773
vn -0.8890974 0.4405074 0.1243346
vn 0.01334812 -0.02406162 0.9996214
vn -0.01315774 0.01658269 0.9997759
vn -0.9170982 -0.03660418 0.3969773
vn -0.8594539 0.5019351 0.09695468
vn -0.8890974 0.4405074 0.1243346
vn -0.9944787 -0.02876979 0.1009174
vn -0.7299289 0.0529316 0.6814706
vn -0.991776 0.04147948 0.1210773
vn -0.9982388 0.04562043 0.03792137
vn -0.9309414 0.3651677 0.0007552191
vn -0.9999806 -0.005917315 -0.001995479
vn -0.9960324 0.02431121 -0.08560676
vn -0.9939048 0.04348251 -0.1013045
vn -0.9908403 0.1326113 -0.02549083
vn -0.9217447 0.374482 -0.1007465
vn -0.9595485 0.2469607 -0.1351929
vn -0.9652255 0.007110015 -0.2613218
vn -0.8514618 0.06026033 -0.520943
vn -0.9997377 -0.003546954 -0.02262403
vn -0.9995168 0.03108258 0.0001304789
vn -0.9898754 -0.06946217 0.1237807
vn -0.994942 -0.0920703 0.04016721
vn -0.992412 -0.1216175 -0.01809498
vn -0.9915911 -0.09252179 -0.09048084
vn -0.6653144 -0.06842133 -0.7434212
vn -0.9915911 -0.09252179 -0.09048084
vn -0.08951531 -0.08232013 -0.9925777
vn -0.6653144 -0.06842133 -0.7434212
vn -0.09831518 -0.986249 -0.1328416
vn -0.992412 -0.1216175 -0.01809498
vn -0.01780841 -0.9904254 -0.1368954
vn -0.01169597 -0.1085903 -0.9940177
vn -0.1401663 -0.9900535 -0.01214526
vn -0.04917376 -0.9975706 -0.0493445
vn 0.01425866 -0.9953535 -0.09522646
vn 0.03294426 -0.9887713 -0.1457603
vn -0.02942254 -0.9276576 -0.3722711
vn 0.06656364 -0.3321629 -0.9408703
vn -0.02881045 -0.2815455 -0.9591153
vn 0.4950531 -0.8572553 -0.1415472
vn 0.0988104 -0.1467892 -0.9842202
vn 0.9349615 -0.3520289 -0.0438483
vn -0.01655913 -0.9958919 -0.08902302
vn 0.8074347 -0.5860451 0.0678257
vn -0.03391858 -0.9987546 0.03659062
vn -0.03092456 -0.9993021 -0.0209489
vn 0.8122577 -0.5825562 -0.02941845
vn 0.5688782 -0.8223106 -0.01352404
vn 0.0168755 -0.9986506 0.04911492
vn 0.3741033 -0.9239455 0.07982155
vn -0.4442958 -0.8904827 0.09819314
vn 0.008889119 -0.9949957 0.09952144
vn 0.5270391 -0.7514031 0.3970177
vn 0.01216067 -0.9879876 0.1540536
vn 0.06376611 -0.9421152 0.32917
vn 0.01424762 -0.6936672 0.7201548
vn -0.4547097 -0.8877466 0.07172892
vn -0.9898754 -0.06946217 0.1237807
vn -0.9851071 -0.1659358 0.04504596
vn -0.994942 -0.0920703 0.04016721
vn -0.9217447 0.374482 -0.1007465
vn -0.9595485 0.2469607 -0.1351929
vn 0.03871166 0.8982434 -0.4377901
vn 0.02537437 0.9944036 -0.1025556
vn -0.9908403 0.1326113 -0.02549083
vn -0.0007033935 0.9913019 -0.1316052
vn -0.002976888 0.9380664 -0.3464428
vn -0.01945785 0.9924006 -0.1215
vn 0.02399033 0.998808 -0.04250762
vn -0.9309414 0.3651677 0.0007552191
vn 0.02008447 0.9979385 -0.06095461
vn 0.002536524 0.9996192 0.0274748
vn -0.01773887 0.9998419 -0.001151001
vn -0.0001963889 0.9973174 -0.07319824
vn 0.06460481 0.1286207 -0.9895872
vn 0.01911883 0.999767 0.01001918
vn 0.0008035867 0.9999779 0.006596596
vn -0.04327044 0.9952402 -0.08731873
vn -0.04085902 0.9986216 0.0329463
vn -0.8594539 0.5019351 0.09695468
vn 0.113416 0.9887291 -0.09773258
vn 0.9966329 0.0777084 -0.02615942
vn 0.9941143 0.1082845 0.003347836
vn 0.9930342 0.1178262 -8.1233E-05
vn -0.03725952 0.9991641 0.01681767
vn 0.1344549 0.9909196 0.0004173744
vn 0.9941202 0.1004782 0.04036382
vn 0.02573026 0.9991946 0.0307943
vn 0.04181702 0.9991251 -0.0007059412
vn 0.09979101 0.9920186 0.07707599
vn 0.9885467 0.0854293 0.1244076
vn 0.03855843 0.1342848 0.9901923
vn 0.01579584 0.9962684 0.08485045
vn -0.05293987 0.9949442 0.08534306
vn -0.06347695 0.964416 0.2566563
vn -0.8890974 0.4405074 0.1243346
vn -0.01945785 0.9924006 -0.1215
vn -0.0007033935 0.9913019 -0.1316052
vn -0.002976888 0.9380664 -0.3464428
vn -0.01109932 -0.01838958 -0.9997693
vn 0.03871166 0.8982434 -0.4377901
vn 0.02774151 -0.02695489 -0.9992517
vn -0.9595485 0.2469607 -0.1351929
vn -0.9652255 0.007110015 -0.2613218
vn -0.09085672 0.05368411 -0.994416
vn -0.8514618 0.06026033 -0.520943
vn -0.08951531 -0.08232013 -0.9925777
vn -0.6653144 -0.06842133 -0.7434212
vn -0.01169597 -0.1085903 -0.9940177
vn -0.007656374 0.04536948 -0.998941
vn 0.02121728 0.005514712 -0.9997597
vn 0.03294426 -0.9887713 -0.1457603
vn 0.06656364 -0.3321629 -0.9408703
vn -0.02881045 -0.2815455 -0.9591153
vn -0.009754817 0.02002591 -0.9997519
vn 0.0988104 -0.1467892 -0.9842202
vn 0.2109846 0.03308551 -0.9769294
vn -0.009453055 -0.02731273 -0.9995822
vn 0.1017234 -0.04290425 -0.9938871
vn 0.03663474 0.06858274 -0.9969726
vn 0.4168898 -0.04983243 -0.90759
vn 0.9745088 -0.05542873 -0.2173941
vn 0.9492889 0.06726509 -0.3071253
vn -0.0401072 0.06269678 -0.9972264
vn 0.9997711 -0.007261517 0.02012991
vn 0.06460481 0.1286207 -0.9895872
vn 0.03623227 0.1173944 -0.9924241
vn 0.9966329 0.0777084 -0.02615942
vn 0.9745088 -0.05542873 -0.2173941
vn 0.4168898 -0.04983243 -0.90759
vn 0.2109846 0.03308551 -0.9769294
vn 0.982196 0.01823379 -0.1869721
vn 0.0988104 -0.1467892 -0.9842202
vn 0.9912041 0.003084502 -0.1323064
vn 0.4950531 -0.8572553 -0.1415472
vn 0.9349615 -0.3520289 -0.0438483
vn 0.8074347 -0.5860451 0.0678257
vn 0.994278 -0.01280843 -0.1060529
vn 0.9492889 0.06726509 -0.3071253
vn 0.9936005 0.01162433 -0.1123523
vn 0.9999162 0.005034934 -0.01192592
vn 0.9966329 0.0777084 -0.02615942
vn 0.9941143 0.1082845 0.003347836
vn 0.9988099 -0.02589571 0.04132909
vn 0.8122577 -0.5825562 -0.02941845
vn 0.9995209 0.009230123 0.02954331
vn 0.9997421 -0.01444646 -0.01752245
vn 0.9930342 0.1178262 -8.1233E-05
vn 0.9941202 0.1004782 0.04036382
vn 0.9989905 -0.04158911 -0.01698319
vn 0.5688782 -0.8223106 -0.01352404
vn 0.9980133 -0.01931272 0.05997154
vn 0.9885467 0.0854293 0.1244076
vn 0.9871999 0.03432291 0.1557508
vn 0.9991156 -0.01983228 0.03707492
vn 0.3741033 -0.9239455 0.07982155
vn 0.5270391 -0.7514031 0.3970177
g manifold_ld_0
f 3/3/3 2/2/2 1/1/1
f 2/2/2 4/4/4 1/1/1
f 4/4/4 5/5/5 1/1/1
f 5/5/5 6/6/6 1/1/1
f 4/4/4 2/2/2 7/7/7
f 2/2/2 8/8/8 7/7/7
f 8/8/8 9/9/9 7/7/7
f 7/7/7 9/9/9 10/10/10
f 11/11/11 5/5/5 4/4/4
f 11/11/11 12/12/12 5/5/5
f 4/4/4 13/13/13 11/11/11
f 13/13/13 14/14/14 11/11/11
f 14/14/14 13/13/13 15/15/15
f 16/16/16 15/15/15 10/10/10
f 17/17/17 13/13/13 4/4/4
f 13/13/13 17/17/17 15/15/15
f 17/17/17 4/4/4 7/7/7
f 15/15/15 17/17/17 10/10/10
f 18/18/18 7/7/7 10/10/10
f 18/18/18 10/10/10 17/17/17
f 17/17/17 7/7/7 18/18/18
f 21/21/21 20/20/20 19/19/19
f 20/20/20 22/22/22 19/19/19
f 23/23/23 19/19/19 22/22/22
f 24/24/24 23/23/23 22/22/22
f 22/22/22 20/20/20 25/25/25
f 20/20/20 26/26/26 25/25/25
f 24/24/24 22/22/22 27/27/27
f 22/22/22 25/25/25 27/27/27
f 25/25/25 26/26/26 28/28/28
f 28/28/28 29/29/29 25/25/25
f 26/26/26 30/30/30 28/28/28
f 30/30/30 31/31/31 28/28/28
f 28/28/28 31/31/31 32/32/32
f 33/33/33 28/28/28 32/32/32
f 28/28/28 33/33/33 29/29/29
f 33/33/33 34/34/34 29/29/29
f 25/25/25 35/35/35 27/27/27
f 29/29/29 35/35/35 25/25/25
f 27/27/27 35/35/35 29/29/29
f 36/36/36 24/24/24 27/27/27
f 36/36/36 27/27/27 29/29/29
f 24/24/24 36/36/36 37/37/37
f 36/36/36 38/38/38 37/37/37
f 36/36/36 39/39/39 38/38/38
f 40/40/40 39/39/39 36/36/36
f 29/29/29 40/40/40 36/36/36
f 29/29/29 34/34/34 40/40/40
f 34/34/34 41/41/41 40/40/40
f 44/44/44 43/43/43 42/42/42
f 43/43/43 45/45/45 42/42/42
f 46/46/46 42/42/42 45/45/45
f 45/45/45 43/43/43 47/47/47
f 43/43/43 48/48/48 47/47/47
f 49/49/49 46/46/46 45/45/45
f 49/49/49 45/45/45 47/47/47
f 50/50/50 49/49/49 47/47/47
f 47/47/47 48/48/48 51/51/51
f 50/50/50 47/47/47 51/51/51
f 48/48/48 52/52/52 51/51/51
f 51/51/51 52/52/52 53/53/53
f 52/52/52 54/54/54 53/53/53
f 54/54/54 55/55/55 53/53/53
f 53/53/53 55/55/55 56/56/56
f 55/55/55 57/57/57 56/56/56
f 53/53/53 56/56/56 58/58/58
f 59/59/59 51/51/51 53/53/53
f 59/59/59 53/53/53 58/58/58
f 51/51/51 59/59/59 50/50/50
f 58/58/58 60/60/60 59/59/59
f 60/60/60 61/61/61 59/59/59
f 59/59/59 61/61/61 50/50/50
f 61/61/61 60/60/60 62/62/62
f 50/50/50 61/61/61 62/62/62
f 60/60/60 63/63/63 62/62/62
f 62/62/62 63/63/63 64/64/64
f 65/65/65 62/62/62 64/64/64
f 65/65/65 50/50/50 62/62/62
f 64/64/64 66/66/66 65/65/65
f 65/65/65 67/67/67 50/50/50
f 67/67/67 49/49/49 50/50/50
f 66/66/66 68/68/68 65/65/65
f 66/66/66 69/69/69 68/68/68
f 69/69/69 70/70/70 68/68/68
f 65/65/65 68/68/68 71/71/71
f 65/65/65 71/71/71 67/67/67
f 68/68/68 72/72/72 71/71/71
f 71/71/71 73/73/73 67/67/67
f 71/71/71 72/72/72 73/73/73
f 49/49/49 67/67/67 73/73/73
f 72/72/72 74/74/74 73/73/73
f 75/75/75 49/49/49 73/73/73
f 75/75/75 73/73/73 74/74/74
f 46/46/46 49/49/49 75/75/75
f 76/76/76 75/75/75 74/74/74
f 76/76/76 46/46/46 75/75/75
f 79/79/79 78/78/78 77/77/77
f 80/80/80 79/79/79 77/77/77
f 80/80/80 77/77/77 81/81/81
f 80/80/80 82/82/82 79/79/79
f 82/82/82 83/83/83 79/79/79
f 84/84/84 82/82/82 80/80/80
f 85/85/85 80/80/80 81/81/81
f 85/85/85 84/84/84 80/80/80
f 85/85/85 81/81/81 86/86/86
f 84/84/84 85/85/85 87/87/87
f 88/88/88 85/85/85 86/86/86
f 87/87/87 85/85/85 88/88/88
f 89/89/89 88/88/88 86/86/86
f 90/90/90 84/84/84 87/87/87
f 84/84/84 90/90/90 91/91/91
f 92/92/92 87/87/87 88/88/88
f 92/92/92 88/88/88 89/89/89
f 90/90/90 87/87/87 92/92/92
f 93/93/93 90/90/90 92/92/92
f 93/93/93 92/92/92 89/89/89
f 90/90/90 94/94/94 91/91/91
f 94/94/94 90/90/90 93/93/93
f 95/95/95 89/89/89 86/86/86
f 86/86/86 96/96/96 95/95/95
f 97/97/97 91/91/91 94/94/94
f 91/91/91 97/97/97 98/98/98
f 97/97/97 99/99/99 98/98/98
f 99/99/99 97/97/97 100/100/100
f 101/101/101 94/94/94 93/93/93
f 101/101/101 93/93/93 89/89/89
f 97/97/97 102/102/102 100/100/100
f 100/100/100 102/102/102 103/103/103
f 97/97/97 94/94/94 104/104/104
f 94/94/94 101/101/101 104/104/104
f 102/102/102 97/97/97 104/104/104
f 105/105/105 104/104/104 101/101/101
f 89/89/89 105/105/105 101/101/101
f 105/105/105 102/102/102 104/104/104
f 102/102/102 106/106/106 103/103/103
f 102/102/102 105/105/105 106/106/106
f 103/103/103 106/106/106 107/107/107
f 108/108/108 107/107/107 106/106/106
f 109/109/109 105/105/105 89/89/89
f 105/105/105 109/109/109 106/106/106
f 109/109/109 108/108/108 106/106/106
f 95/95/95 109/109/109 89/89/89
f 108/108/108 109/109/109 95/95/95
f 108/108/108 95/95/95 110/110/110
f 110/110/110 111/111/111 108/108/108
f 96/96/96 110/110/110 95/95/95
f 112/112/112 111/111/111 110/110/110
f 96/96/96 112/112/112 110/110/110
f 115/115/115 114/114/114 113/113/113
f 116/116/116 115/115/115 113/113/113
f 117/117/117 115/115/115 116/116/116
f 118/118/118 117/117/117 116/116/116
f 117/117/117 118/118/118 119/119/119
f 118/118/118 120/120/120 119/119/119
f 121/121/121 120/120/120 118/118/118
f 121/121/121 122/122/122 120/120/120
f 121/121/121 123/123/123 122/122/122
f 123/123/123 124/124/124 122/122/122
f 125/125/125 123/123/123 121/121/121
f 126/126/126 125/125/125 121/121/121
f 126/126/126 121/121/121 118/118/118
f 125/125/125 126/126/126 127/127/127
f 125/125/125 127/127/127 128/128/128
f 127/127/127 129/129/129 128/128/128
f 130/130/130 129/129/129 127/127/127
f 127/127/127 126/126/126 131/131/131
f 131/131/131 130/130/130 127/127/127
f 126/126/126 118/118/118 131/131/131
f 130/130/130 131/131/131 132/132/132
f 131/131/131 133/133/133 132/132/132
f 134/134/134 131/131/131 118/118/118
f 131/131/131 134/134/134 133/133/133
f 116/116/116 134/134/134 118/118/118
f 134/134/134 135/135/135 133/133/133
f 134/134/134 116/116/116 135/135/135
f 116/116/116 136/136/136 135/135/135
f 135/135/135 137/137/137 133/133/133
f 135/135/135 136/136/136 137/137/137
f 136/136/136 138/138/138 137/137/137
f 139/139/139 138/138/138 136/136/136
f 136/136/136 116/116/116 140/140/140
f 140/140/140 116/116/116 113/113/113
f 140/140/140 113/113/113 141/141/141
f 141/141/141 136/136/136 140/140/140
f 113/113/113 142/142/142 141/141/141
f 143/143/143 139/139/139 136/136/136
f 143/143/143 136/136/136 141/141/141
f 142/142/142 143/143/143 141/141/141
f 144/144/144 139/139/139 143/143/143
f 142/142/142 144/144/144 143/143/143
f 147/147/147 146/146/146 145/145/145
f 148/148/148 147/147/147 145/145/145
f 147/147/147 148/148/148 149/149/149
f 148/148/148 150/150/150 149/149/149
f 150/150/150 151/151/151 149/149/149
f 151/151/151 150/150/150 152/152/152
f 152/152/152 150/150/150 153/153/153
f 148/148/148 145/145/145 154/154/154
f 145/145/145 155/155/155 154/154/154
f 156/156/156 148/148/148 154/154/154
f 148/148/148 156/156/156 150/150/150
f 154/154/154 155/155/155 157/157/157
f 156/156/156 154/154/154 157/157/157
f 155/155/155 158/158/158 157/157/157
f 157/157/157 158/158/158 159/159/159
f 150/150/150 160/160/160 153/153/153
f 161/161/161 153/153/153 160/160/160
f 150/150/150 156/156/156 162/162/162
f 162/162/162 156/156/156 157/157/157
f 160/160/160 150/150/150 162/162/162
f 163/163/163 157/157/157 159/159/159
f 157/157/157 163/163/163 162/162/162
f 164/164/164 163/163/163 159/159/159
f 163/163/163 164/164/164 165/165/165
f 166/166/166 161/161/161 160/160/160
f 166/166/166 160/160/160 162/162/162
f 163/163/163 166/166/166 162/162/162
f 167/167/167 161/161/161 166/166/166
f 168/168/168 163/163/163 165/165/165
f 166/166/166 163/163/163 168/168/168
f 165/165/165 169/169/169 168/168/168
f 169/169/169 170/170/170 168/168/168
f 171/171/171 167/167/167 166/166/166
f 171/171/171 166/166/166 168/168/168
f 171/171/171 168/168/168 170/170/170
f 167/167/167 171/171/171 172/172/172
f 171/171/171 170/170/170 172/172/172
f 170/170/170 173/173/173 172/172/172
