g mesh_gen_lever_l
v -0.5068655 -0.1146567 -0.0001369491
v -1.119531 -0.1259553 0.08876334
v -1.120963 -0.1224117 -2.034009E-06
v -0.5064615 -0.1156564 -0.08625645
v -1.119531 -0.1259553 -0.08876334
v -0.5064615 -0.1156564 0.08625645
v -0.4137166 -0.09204346 -0.08625669
v -0.4139152 -0.09155184 -0.0001369417
v -1.119392 -0.1476432 -0.1102359
v -0.5032088 -0.1370769 -0.1078179
v -0.4013548 -0.3295171 -0.1078731
v -0.4042819 -0.1118904 -0.1078179
v -0.33685 -0.03502816 -0.08625669
v -0.4137166 -0.09204346 0.08625669
v -0.3374332 -0.03358489 -0.0001369417
v -0.5032088 -0.1370769 0.1078179
v -0.4042819 -0.1118904 0.1078179
v -0.33685 -0.03502816 0.08625669
v -0.2553256 0.05972642 -0.0001369417
v -0.3223161 -0.05109268 0.1078179
v -0.1672425 -0.2739022 0.1078179
v -0.2387536 0.04076391 0.1078179
v 0.07428826 -0.1793325 0.1078179
v -0.253888 0.05616838 0.08625669
v -0.170634 0.1005668 0.1078179
v -0.4013548 -0.3295171 0.1078731
v -1.119392 -0.1476432 0.1102359
v -0.2824297 -0.309946 0.1078317
v -0.1828766 0.1185101 0.08625669
v -0.1848125 0.1233017 -0.0001369417
v -0.07615816 0.1493947 0.1078179
v -0.3969464 -0.3508021 0.08628371
v -1.115616 -0.3573129 0.1080095
v -0.2778953 -0.3313226 0.08626339
v -0.08174705 0.1707768 0.08625669
v -0.08385205 0.1759867 -0.0001369417
v 0.08236397 0.1548362 0.1078179
v -1.377867 -0.2901893 0.1080657
v -1.117911 -0.378881 0.08635218
v -0.3928295 -0.3601861 -0.0001355361
v -1.142666 -0.121488 0.1104627
v -1.139217 -0.03389877 0.09117106
v -1.120963 -0.1224117 -2.034009E-06
v -1.14213 -0.02668852 0.000127539
v -1.34022 -0.08773512 0.1104167
v -1.158696 -0.04736096 0.1122424
v -1.21802 0.01673037 0.0912874
v -1.402735 -0.306078 0.08632192
v -1.222211 -0.006505072 0.1125934
v -1.222155 0.02696413 0.000133805
v -1.309545 -0.003183067 0.09134698
v -1.296318 -0.02263099 0.1125885
v -1.360694 -0.07938844 0.08885558
v -1.403193 -0.3049433 -0.000133425
v -1.313933 0.007676423 0.0001370087
v -1.139217 -0.03389877 -0.09117106
v -1.115587 -0.3846346 -0.0001318008
v -1.364259 -0.0705654 2.928078E-06
v -1.21802 0.01673037 -0.0912874
v -1.309545 -0.003183067 -0.09134698
v -1.360694 -0.07938844 -0.08885558
v -1.402735 -0.306078 -0.08632192
v -1.117911 -0.378881 -0.08635218
v -1.158696 -0.04736096 -0.1122424
v -1.222211 -0.006505072 -0.1125934
v -1.296318 -0.02263099 -0.1125885
v -1.34022 -0.08773512 -0.1104167
v -1.142666 -0.121488 -0.1104627
v -1.377867 -0.2901893 -0.1080657
v -1.115616 -0.3573129 -0.1080095
v -0.3969464 -0.3508021 -0.08628381
v -0.2735602 -0.3417944 -0.0001366358
v -0.2778953 -0.3313226 -0.08626351
v -0.1627746 -0.2953262 0.0862566
v -0.2824297 -0.3099461 -0.1078317
v -0.1583211 -0.3061344 -0.0001369903
v 0.08633233 -0.1977025 0.08625669
v -0.1627743 -0.2953261 -0.08625669
v 0.09069145 -0.2084917 -0.0001369417
v -0.1672425 -0.2739024 -0.1078179
v 0.07428826 -0.1793325 -0.1078179
v 0.1982796 -0.08857161 0.08625669
v -0.3223161 -0.05109268 -0.1078179
v 0.08633233 -0.1977025 -0.08625669
v -0.2387536 0.04076391 -0.1078179
v -0.253888 0.05616838 -0.08625669
v -0.1828766 0.1185101 -0.08625669
v -0.170634 0.1005668 -0.1078179
v -0.08174705 0.1707768 -0.08625669
v -0.07615816 0.1493947 -0.1078179
v 0.09109891 0.1767099 -0.08625669
v 0.08236397 0.1548362 -0.1078179
v 0.08994056 0.1795771 -0.0001369417
v 0.1767972 -0.07940263 -0.1078179
v 0.1996232 0.06626385 -0.08625669
v 0.09109891 0.1767099 0.08625669
v 0.1779854 0.05752164 -0.1078179
v 0.1982796 -0.08857161 -0.08625669
v 0.2007502 0.06347424 -0.0001369417
v 0.2016922 -0.09701818 -0.0001369417
v 0.1996232 0.06626385 0.08625669
v 0.1779854 0.05752164 0.1078179
v 0.1767972 -0.07940263 0.1078179
v -1.263829 -0.1617693 0.1723677
v -1.238429 -0.1095901 0.2280166
v -1.20594 -0.1576768 0.1723677
v -1.296317 -0.1136826 0.1723677
v -1.265509 -0.1652197 0.1052829
v -1.300146 -0.1139533 0.1052829
v -1.270917 -0.06150335 0.1723677
v -1.273066 -0.05832356 0.1052829
v -1.180541 -0.1054977 0.1723677
v -1.213029 -0.0574109 0.1723677
v -1.203792 -0.1608567 0.1052829
v -1.21135 -0.0539605 0.1052829
v -1.176713 -0.1052269 0.1052829
v -1.300146 -0.1139533 -0.1081371
v -1.273066 -0.05832356 -0.1081371
v -1.265509 -0.1652197 -0.1081371
v -1.21135 -0.0539605 -0.1081371
v -1.176713 -0.1052269 -0.1081371
v -1.203792 -0.1608567 -0.1081371
v -1.296317 -0.1136826 -0.1723677
v -1.270917 -0.06150335 -0.1723677
v -1.213029 -0.0574109 -0.1723677
v -1.180541 -0.1054977 -0.1723677
v -1.238429 -0.1095901 -0.2280166
v -1.263829 -0.1617693 -0.1723677
v -1.20594 -0.1576768 -0.1723677
v -0.04370963 -0.08979315 0.1723677
v 6.13286E-09 -5.961292E-08 0.2280166
v 0.05590869 -0.08275062 0.1723677
v -0.09961783 -0.007042587 0.1723677
v -0.0466001 -0.09573132 0.1052829
v -0.1062055 -0.007508457 0.1052829
v -0.05590796 0.08275062 0.1723677
v -0.05960523 0.0882228 0.1052829
v 0.09961785 0.007042587 0.1723677
v 0.04370964 0.08979303 0.1723677
v 0.05960573 -0.0882228 0.1052829
v 0.04660011 0.0957312 0.1052829
v 0.1062056 0.007508337 0.1052829
v -0.1062055 -0.007508457 -0.1081371
v -0.05960523 0.0882228 -0.1081371
v -0.0466001 -0.09573132 -0.1081371
v 0.04660011 0.0957312 -0.1081371
v 0.1062056 0.007508337 -0.1081371
v 0.05960573 -0.0882228 -0.1081371
v -0.09961783 -0.007042587 -0.1723677
v -0.05590796 0.08275062 -0.1723677
v 0.04370964 0.08979303 -0.1723677
v 0.09961785 0.007042587 -0.1723677
v 6.13286E-09 -5.961292E-08 -0.2280166
v -0.04370963 -0.08979315 -0.1723677
v 0.05590869 -0.08275062 -0.1723677
vt 0.25 0.35
vt 0.25 0.35
vt 0.25 0.35
vt 0.25 0.35
vt 0.25 0.35
vt 0.25 0.35
vt 0.25 0.35
vt 0.25 0.35
vt 0.25 0.35
vt 0.25 0.35
vt 0.25 0.35
vt 0.25 0.35
vt 0.25 0.35
vt 0.25 0.35
vt 0.25 0.35
vt 0.25 0.35
vt 0.25 0.35
vt 0.25 0.35
vt 0.25 0.35
vt 0.25 0.35
vt 0.25 0.35
vt 0.25 0.35
vt 0.25 0.35
vt 0.25 0.35
vt 0.25 0.35
vt 0.25 0.35
vt 0.25 0.35
vt 0.25 0.35
vt 0.25 0.35
vt 0.25 0.35
vt 0.25 0.35
vt 0.25 0.35
vt 0.25 0.35
vt 0.25 0.35
vt 0.25 0.35
vt 0.25 0.35
vt 0.25 0.35
vt 0.25 0.35
vt 0.25 0.35
vt 0.25 0.35
vt 0.25 0.35
vt 0.25 0.35
vt 0.25 0.35
vt 0.25 0.35
vt 0.25 0.35
vt 0.25 0.35
vt 0.25 0.35
vt 0.25 0.35
vt 0.25 0.35
vt 0.25 0.35
vt 0.25 0.35
vt 0.25 0.35
vt 0.25 0.35
vt 0.25 0.35
vt 0.25 0.35
vt 0.25 0.35
vt 0.25 0.35
vt 0.25 0.35
vt 0.25 0.35
vt 0.25 0.35
vt 0.25 0.35
vt 0.25 0.35
vt 0.25 0.35
vt 0.25 0.35
vt 0.25 0.35
vt 0.25 0.35
vt 0.25 0.35
vt 0.25 0.35
vt 0.25 0.35
vt 0.25 0.35
vt 0.25 0.35
vt 0.25 0.35
vt 0.25 0.35
vt 0.25 0.35
vt 0.25 0.35
vt 0.25 0.35
vt 0.25 0.35
vt 0.25 0.35
vt 0.25 0.35
vt 0.25 0.35
vt 0.25 0.35
vt 0.25 0.35
vt 0.25 0.35
vt 0.25 0.35
vt 0.25 0.35
vt 0.25 0.35
vt 0.25 0.35
vt 0.25 0.35
vt 0.25 0.35
vt 0.25 0.35
vt 0.25 0.35
vt 0.25 0.35
vt 0.25 0.35
vt 0.25 0.35
vt 0.25 0.35
vt 0.25 0.35
vt 0.25 0.35
vt 0.25 0.35
vt 0.25 0.35
vt 0.25 0.35
vt 0.25 0.35
vt 0.25 0.35
vt 0.25 0.35
vt 0.25 0.6
vt 0.25 0.6
vt 0.25 0.6
vt 0.25 0.6
vt 0.25 0.6
vt 0.25 0.6
vt 0.25 0.6
vt 0.25 0.6
vt 0.25 0.6
vt 0.25 0.6
vt 0.25 0.6
vt 0.25 0.6
vt 0.25 0.6
vt 0.25 0.6
vt 0.25 0.6
vt 0.25 0.6
vt 0.25 0.6
vt 0.25 0.6
vt 0.25 0.6
vt 0.25 0.6
vt 0.25 0.6
vt 0.25 0.6
vt 0.25 0.6
vt 0.25 0.6
vt 0.25 0.6
vt 0.25 0.6
vt 0.25 0.6
vt 0.25 0.6
vt 0.25 0.6
vt 0.25 0.6
vt 0.25 0.6
vt 0.25 0.6
vt 0.25 0.6
vt 0.25 0.6
vt 0.25 0.6
vt 0.25 0.6
vt 0.25 0.6
vt 0.25 0.6
vt 0.25 0.6
vt 0.25 0.6
vt 0.25 0.6
vt 0.25 0.6
vt 0.25 0.6
vt 0.25 0.6
vt 0.25 0.6
vt 0.25 0.6
vt 0.25 0.6
vt 0.25 0.6
vt 0.25 0.6
vt 0.25 0.6
vt 0.25 0.6
vt 0.25 0.6
vn -0.045256 0.9989754 0
vn 0.1252433 0.965933 0.2264678
vn -0.01465683 0.9998926 0
vn -0.04420497 0.9740074 -0.2221604
vn 0.1255464 0.9658351 -0.2267172
vn -0.04423679 0.9740748 0.2218586
vn -0.4190295 0.8793198 -0.2262986
vn -0.4305206 0.9025807 0
vn 0.0004152978 0.05100242 -0.9986985
vn -0.001430605 0.06463336 -0.9979081
vn 0.008716338 -0.1351081 -0.9907925
vn -0.02663136 0.0563452 -0.9980562
vn -0.6666058 0.7116958 -0.2216433
vn -0.4190836 0.8794307 0.2257668
vn -0.685414 0.7281536 0
vn -0.001430606 0.06463337 0.9979081
vn -0.0266314 0.0563452 0.9980562
vn -0.6666918 0.71178 0.221114
vn -0.7110416 0.70315 0
vn -0.03173284 0.03434463 0.9989061
vn 0.03046533 -0.08263063 0.9961145
vn -0.04131113 0.0413731 0.9982894
vn 0.05153494 -0.09067848 0.9945459
vn -0.6937102 0.6863313 0.2184389
vn -0.06686295 0.1002577 0.9927124
vn 0.008716382 -0.1351084 0.9907925
vn 0.000415295 0.05100243 0.9986985
vn 0.02248472 -0.09400529 0.9953178
vn -0.5432374 0.8082364 0.22726
vn -0.5568321 0.8306252 0
vn -0.02125886 0.0996079 0.9947996
vn 0.05222295 -0.9660872 0.2528799
vn -0.003980512 -0.1191288 0.9928709
vn 0.2178342 -0.9331203 0.2860676
vn -0.1991289 0.9550495 0.2196094
vn -0.2053832 0.9786816 0
vn 0.03090311 0.08426798 0.9959638
vn -0.1209443 -0.1073608 0.9868364
vn -0.04889306 -0.9702057 0.237298
vn 0.05437793 -0.9985204 0
vn 0.02156023 -0.00639287 0.9997471
vn 0.8196945 0.5437598 0.1800732
vn 0.9771144 0.2127145 0
vn 0.8123745 0.5831359 0
vn -0.09683281 0.01574356 0.9951762
vn 0.1236778 0.06458402 0.9902185
vn 0.1926792 0.9526178 0.2353595
vn -0.7647855 -0.6124591 0.1999926
vn 0.02449033 0.1298969 0.9912249
vn 0.1705275 0.9853529 0
vn -0.5466603 0.7972233 0.2561204
vn -0.08942914 0.1038437 0.9905649
vn -0.9391629 0.2735175 0.2077528
vn -0.7881954 -0.6154252 0
vn -0.5549797 0.8318639 4.489367E-05
vn 0.8195702 0.5440457 -0.1797751
vn -0.04687731 -0.9989007 0
vn -0.9557772 0.2940918 -1.802444E-05
vn 0.1926558 0.9527566 -0.2348164
vn -0.5464534 0.7975085 -0.2556731
vn -0.9390711 0.27374 -0.207875
vn -0.7650807 -0.611955 -0.2004056
vn -0.04888945 -0.970068 -0.2378607
vn 0.1236779 0.06458405 -0.9902185
vn 0.02449026 0.1298973 -0.9912249
vn -0.08942939 0.1038444 -0.9905649
vn -0.09683287 0.01574357 -0.9951762
vn 0.02156022 -0.006392865 -0.9997471
vn -0.1209443 -0.1073608 -0.9868364
vn -0.003980522 -0.1191286 -0.9928709
vn 0.05221428 -0.965933 -0.2534703
vn 0.2285289 -0.9735371 0
vn 0.2177869 -0.9329267 -0.2867345
vn 0.3290432 -0.899275 0.2881581
vn 0.02248465 -0.09400488 -0.9953178
vn 0.3441771 -0.9389048 0
vn 0.4813828 -0.831737 0.2765578
vn 0.328972 -0.8990836 -0.2888358
vn 0.4968668 -0.8678268 0
vn 0.03046522 -0.08263031 -0.9961145
vn 0.0515349 -0.09067836 -0.9945459
vn 0.9037918 -0.3631801 0.226408
vn -0.03173279 0.03434458 -0.9989061
vn 0.4812908 -0.8315699 -0.2772192
vn -0.04131111 0.04137305 -0.9982894
vn -0.693624 0.6862489 -0.2189706
vn -0.5431653 0.8081283 -0.2278157
vn -0.06686297 0.1002576 -0.9927124
vn -0.1991035 0.9549296 -0.2201524
vn -0.02125887 0.09960787 -0.9947996
vn 0.3540492 0.9151627 -0.1926823
vn 0.03090311 0.08426798 -0.9959638
vn 0.3519898 0.9360039 0
vn 0.07748122 -0.03356994 -0.9964284
vn 0.9093242 0.3747625 -0.1807835
vn 0.3540767 0.9152553 0.1921909
vn 0.07720236 0.03116003 -0.9965283
vn 0.9036823 -0.3631016 -0.2269704
vn 0.9302847 0.3668383 0
vn 0.9156663 -0.4019393 0
vn 0.9094101 0.3747782 0.1803177
vn 0.07720235 0.03116003 0.9965284
vn 0.07748119 -0.03356994 0.9964284
vn -0.4208538 -0.8645578 0.2746304
vn 0 0 1
vn 0.5383047 -0.7967472 0.2746306
vn -0.9591558 -0.06780823 0.2746308
vn -0.4376442 -0.8990518 0.01316797
vn -0.9974239 -0.07051393 0.01316817
vn -0.5383033 0.796748 0.2746309
vn -0.5597806 0.8285363 0.01316793
vn 0.9591559 0.06781142 0.2746296
vn 0.4208572 0.8645562 0.2746305
vn 0.5597807 -0.8285363 0.01316793
vn 0.4376462 0.8990508 0.01316777
vn 0.9974235 0.07051889 0.0131679
vn -0.9974223 -0.07051413 -0.01328991
vn -0.5597798 0.828535 -0.01328967
vn -0.4376436 -0.8990504 -0.01328971
vn 0.4376453 0.8990495 -0.01328938
vn 0.997422 0.07051864 -0.01328946
vn 0.5597796 -0.828535 -0.0132896
vn -0.9567164 -0.06763684 -0.2830529
vn -0.5369345 0.7947215 -0.2830533
vn 0.4197862 0.8623579 -0.2830519
vn 0.9567168 0.06763847 -0.2830512
vn 0 0 -1
vn -0.4197839 -0.8623587 -0.2830529
vn 0.5369353 -0.7947212 -0.2830524
vn -0.3966183 -0.8147707 0.4228979
vn 0 0 1
vn 0.5073047 -0.7508655 0.4228981
vn -0.9039215 -0.06390449 0.422897
vn -0.4375724 -0.8989035 0.02242484
vn -0.9972594 -0.07050467 0.02242471
vn -0.5073041 0.7508664 0.4228976
vn -0.559689 0.8283992 0.02242461
vn 0.9039211 0.06390783 0.4228978
vn 0.3966196 0.8147701 0.422898
vn 0.5596889 -0.8283994 0.02242469
vn 0.4375736 0.898903 0.02242483
vn 0.9972593 0.07050633 0.02242474
vn -0.997255 -0.07050432 -0.02261917
vn -0.5596867 0.8283956 -0.02261899
vn -0.4375705 -0.8988996 -0.0226193
vn 0.4375716 0.8988991 -0.02261921
vn 0.9972549 0.07050612 -0.02261912
vn 0.5596865 -0.8283958 -0.02261908
vn -0.8984458 -0.06351718 -0.4344661
vn -0.504231 0.7463176 -0.4344665
vn 0.3942168 0.8098344 -0.4344666
vn 0.8984453 0.0635209 -0.4344665
vn 0 0 -1
vn -0.3942157 -0.8098348 -0.4344669
vn 0.5042316 -0.7463169 -0.4344669
g mesh_gen_lever_l_0
f 3/3/3 2/2/2 1/1/1
f 3/3/3 1/1/1 4/4/4
f 5/5/5 3/3/3 4/4/4
f 2/2/2 6/6/6 1/1/1
f 4/4/4 1/1/1 7/7/7
f 1/1/1 6/6/6 8/8/8
f 1/1/1 8/8/8 7/7/7
f 5/5/5 4/4/4 9/9/9
f 4/4/4 7/7/7 10/10/10
f 4/4/4 10/10/10 9/9/9
f 9/9/9 10/10/10 11/11/11
f 7/7/7 12/12/12 10/10/10
f 10/10/10 12/12/12 11/11/11
f 7/7/7 8/8/8 13/13/13
f 12/12/12 7/7/7 13/13/13
f 6/6/6 14/14/14 8/8/8
f 8/8/8 15/15/15 13/13/13
f 8/8/8 14/14/14 15/15/15
f 16/16/16 6/6/6 2/2/2
f 17/17/17 14/14/14 6/6/6
f 16/16/16 17/17/17 6/6/6
f 14/14/14 18/18/18 15/15/15
f 15/15/15 19/19/19 13/13/13
f 15/15/15 18/18/18 19/19/19
f 14/14/14 17/17/17 20/20/20
f 18/18/18 14/14/14 20/20/20
f 20/20/20 17/17/17 21/21/21
f 18/18/18 20/20/20 22/22/22
f 22/22/22 20/20/20 21/21/21
f 23/23/23 22/22/22 21/21/21
f 24/24/24 18/18/18 22/22/22
f 18/18/18 24/24/24 19/19/19
f 25/25/25 22/22/22 23/23/23
f 22/22/22 25/25/25 24/24/24
f 16/16/16 26/26/26 17/17/17
f 27/27/27 16/16/16 2/2/2
f 16/16/16 27/27/27 26/26/26
f 17/17/17 28/28/28 21/21/21
f 26/26/26 28/28/28 17/17/17
f 25/25/25 29/29/29 24/24/24
f 19/19/19 24/24/24 30/30/30
f 24/24/24 29/29/29 30/30/30
f 31/31/31 25/25/25 23/23/23
f 29/29/29 25/25/25 31/31/31
f 28/28/28 26/26/26 32/32/32
f 27/27/27 33/33/33 26/26/26
f 32/32/32 26/26/26 33/33/33
f 21/21/21 28/28/28 34/34/34
f 34/34/34 28/28/28 32/32/32
f 35/35/35 29/29/29 31/31/31
f 30/30/30 29/29/29 36/36/36
f 29/29/29 35/35/35 36/36/36
f 37/37/37 31/31/31 23/23/23
f 31/31/31 37/37/37 35/35/35
f 38/38/38 33/33/33 27/27/27
f 39/39/39 32/32/32 33/33/33
f 39/39/39 33/33/33 38/38/38
f 32/32/32 40/40/40 34/34/34
f 40/40/40 32/32/32 39/39/39
f 27/27/27 41/41/41 38/38/38
f 27/27/27 2/2/2 41/41/41
f 2/2/2 42/42/42 41/41/41
f 2/2/2 43/43/43 42/42/42
f 43/43/43 44/44/44 42/42/42
f 43/43/43 5/5/5 44/44/44
f 41/41/41 45/45/45 38/38/38
f 42/42/42 46/46/46 41/41/41
f 45/45/45 41/41/41 46/46/46
f 42/42/42 47/47/47 46/46/46
f 42/42/42 44/44/44 47/47/47
f 48/48/48 39/39/39 38/38/38
f 38/38/38 45/45/45 48/48/48
f 47/47/47 49/49/49 46/46/46
f 46/46/46 49/49/49 45/45/45
f 44/44/44 50/50/50 47/47/47
f 47/47/47 51/51/51 49/49/49
f 47/47/47 50/50/50 51/51/51
f 49/49/49 52/52/52 45/45/45
f 51/51/51 52/52/52 49/49/49
f 45/45/45 52/52/52 53/53/53
f 45/45/45 53/53/53 48/48/48
f 52/52/52 51/51/51 53/53/53
f 39/39/39 48/48/48 54/54/54
f 54/54/54 48/48/48 53/53/53
f 51/51/51 55/55/55 53/53/53
f 50/50/50 55/55/55 51/51/51
f 44/44/44 56/56/56 50/50/50
f 5/5/5 56/56/56 44/44/44
f 57/57/57 39/39/39 54/54/54
f 57/57/57 40/40/40 39/39/39
f 58/58/58 54/54/54 53/53/53
f 55/55/55 58/58/58 53/53/53
f 50/50/50 59/59/59 55/55/55
f 56/56/56 59/59/59 50/50/50
f 55/55/55 60/60/60 58/58/58
f 59/59/59 60/60/60 55/55/55
f 58/58/58 61/61/61 54/54/54
f 60/60/60 61/61/61 58/58/58
f 57/57/57 54/54/54 62/62/62
f 61/61/61 62/62/62 54/54/54
f 57/57/57 63/63/63 40/40/40
f 63/63/63 57/57/57 62/62/62
f 64/64/64 56/56/56 5/5/5
f 59/59/59 56/56/56 65/65/65
f 56/56/56 64/64/64 65/65/65
f 66/66/66 60/60/60 59/59/59
f 65/65/65 66/66/66 59/59/59
f 60/60/60 66/66/66 67/67/67
f 67/67/67 66/66/66 65/65/65
f 61/61/61 60/60/60 67/67/67
f 67/67/67 65/65/65 64/64/64
f 68/68/68 64/64/64 5/5/5
f 64/64/64 68/68/68 67/67/67
f 9/9/9 68/68/68 5/5/5
f 61/61/61 67/67/67 69/69/69
f 69/69/69 67/67/67 68/68/68
f 62/62/62 61/61/61 69/69/69
f 69/69/69 68/68/68 9/9/9
f 69/69/69 70/70/70 62/62/62
f 9/9/9 70/70/70 69/69/69
f 70/70/70 63/63/63 62/62/62
f 70/70/70 9/9/9 11/11/11
f 70/70/70 11/11/11 63/63/63
f 11/11/11 71/71/71 63/63/63
f 63/63/63 71/71/71 40/40/40
f 72/72/72 40/40/40 71/71/71
f 40/40/40 72/72/72 34/34/34
f 71/71/71 11/11/11 73/73/73
f 73/73/73 72/72/72 71/71/71
f 34/34/34 72/72/72 74/74/74
f 74/74/74 21/21/21 34/34/34
f 11/11/11 75/75/75 73/73/73
f 12/12/12 75/75/75 11/11/11
f 76/76/76 72/72/72 73/73/73
f 72/72/72 76/76/76 74/74/74
f 21/21/21 74/74/74 77/77/77
f 23/23/23 21/21/21 77/77/77
f 73/73/73 75/75/75 78/78/78
f 78/78/78 76/76/76 73/73/73
f 76/76/76 79/79/79 74/74/74
f 79/79/79 77/77/77 74/74/74
f 76/76/76 78/78/78 79/79/79
f 75/75/75 12/12/12 80/80/80
f 75/75/75 80/80/80 78/78/78
f 78/78/78 80/80/80 81/81/81
f 77/77/77 82/82/82 23/23/23
f 82/82/82 77/77/77 79/79/79
f 12/12/12 83/83/83 80/80/80
f 83/83/83 12/12/12 13/13/13
f 78/78/78 84/84/84 79/79/79
f 84/84/84 78/78/78 81/81/81
f 83/83/83 85/85/85 80/80/80
f 85/85/85 81/81/81 80/80/80
f 83/83/83 13/13/13 86/86/86
f 85/85/85 83/83/83 86/86/86
f 19/19/19 86/86/86 13/13/13
f 86/86/86 19/19/19 87/87/87
f 86/86/86 87/87/87 85/85/85
f 19/19/19 30/30/30 87/87/87
f 87/87/87 88/88/88 85/85/85
f 85/85/85 88/88/88 81/81/81
f 87/87/87 30/30/30 89/89/89
f 87/87/87 89/89/89 88/88/88
f 30/30/30 36/36/36 89/89/89
f 89/89/89 90/90/90 88/88/88
f 88/88/88 90/90/90 81/81/81
f 89/89/89 36/36/36 91/91/91
f 89/89/89 91/91/91 90/90/90
f 81/81/81 90/90/90 92/92/92
f 91/91/91 92/92/92 90/90/90
f 36/36/36 93/93/93 91/91/91
f 36/36/36 35/35/35 93/93/93
f 94/94/94 81/81/81 92/92/92
f 81/81/81 94/94/94 84/84/84
f 92/92/92 91/91/91 95/95/95
f 91/91/91 93/93/93 95/95/95
f 35/35/35 96/96/96 93/93/93
f 37/37/37 96/96/96 35/35/35
f 92/92/92 97/97/97 94/94/94
f 97/97/97 92/92/92 95/95/95
f 94/94/94 97/97/97 98/98/98
f 94/94/94 98/98/98 84/84/84
f 97/97/97 95/95/95 98/98/98
f 93/93/93 99/99/99 95/95/95
f 95/95/95 99/99/99 98/98/98
f 93/93/93 96/96/96 99/99/99
f 98/98/98 100/100/100 84/84/84
f 99/99/99 100/100/100 98/98/98
f 100/100/100 79/79/79 84/84/84
f 100/100/100 82/82/82 79/79/79
f 99/99/99 101/101/101 100/100/100
f 96/96/96 101/101/101 99/99/99
f 101/101/101 82/82/82 100/100/100
f 96/96/96 37/37/37 102/102/102
f 101/101/101 96/96/96 102/102/102
f 82/82/82 101/101/101 103/103/103
f 101/101/101 102/102/102 103/103/103
f 103/103/103 102/102/102 37/37/37
f 82/82/82 103/103/103 23/23/23
f 37/37/37 23/23/23 103/103/103
f 106/106/106 105/105/105 104/104/104
f 104/104/104 105/105/105 107/107/107
f 104/104/104 108/108/108 106/106/106
f 107/107/107 109/109/109 104/104/104
f 109/109/109 108/108/108 104/104/104
f 107/107/107 105/105/105 110/110/110
f 111/111/111 109/109/109 107/107/107
f 110/110/110 111/111/111 107/107/107
f 112/112/112 105/105/105 106/106/106
f 110/110/110 105/105/105 113/113/113
f 113/113/113 105/105/105 112/112/112
f 106/106/106 114/114/114 112/112/112
f 108/108/108 114/114/114 106/106/106
f 113/113/113 115/115/115 110/110/110
f 115/115/115 111/111/111 110/110/110
f 112/112/112 116/116/116 113/113/113
f 114/114/114 116/116/116 112/112/112
f 116/116/116 115/115/115 113/113/113
f 109/109/109 117/117/117 108/108/108
f 111/111/111 118/118/118 109/109/109
f 118/118/118 117/117/117 109/109/109
f 108/108/108 119/119/119 114/114/114
f 117/117/117 119/119/119 108/108/108
f 115/115/115 120/120/120 111/111/111
f 120/120/120 118/118/118 111/111/111
f 116/116/116 121/121/121 115/115/115
f 121/121/121 120/120/120 115/115/115
f 114/114/114 122/122/122 116/116/116
f 119/119/119 122/122/122 114/114/114
f 122/122/122 121/121/121 116/116/116
f 117/117/117 123/123/123 119/119/119
f 118/118/118 124/124/124 117/117/117
f 124/124/124 123/123/123 117/117/117
f 120/120/120 125/125/125 118/118/118
f 125/125/125 124/124/124 118/118/118
f 121/121/121 126/126/126 120/120/120
f 126/126/126 125/125/125 120/120/120
f 125/125/125 127/127/127 124/124/124
f 124/124/124 127/127/127 123/123/123
f 126/126/126 127/127/127 125/125/125
f 123/123/123 128/128/128 119/119/119
f 119/119/119 128/128/128 122/122/122
f 123/123/123 127/127/127 128/128/128
f 129/129/129 126/126/126 121/121/121
f 122/122/122 129/129/129 121/121/121
f 128/128/128 129/129/129 122/122/122
f 128/128/128 127/127/127 129/129/129
f 129/129/129 127/127/127 126/126/126
f 132/132/132 131/131/131 130/130/130
f 130/130/130 131/131/131 133/133/133
f 130/130/130 134/134/134 132/132/132
f 133/133/133 135/135/135 130/130/130
f 135/135/135 134/134/134 130/130/130
f 133/133/133 131/131/131 136/136/136
f 137/137/137 135/135/135 133/133/133
f 136/136/136 137/137/137 133/133/133
f 138/138/138 131/131/131 132/132/132
f 136/136/136 131/131/131 139/139/139
f 139/139/139 131/131/131 138/138/138
f 132/132/132 140/140/140 138/138/138
f 134/134/134 140/140/140 132/132/132
f 139/139/139 141/141/141 136/136/136
f 141/141/141 137/137/137 136/136/136
f 138/138/138 142/142/142 139/139/139
f 140/140/140 142/142/142 138/138/138
f 142/142/142 141/141/141 139/139/139
f 135/135/135 143/143/143 134/134/134
f 137/137/137 144/144/144 135/135/135
f 144/144/144 143/143/143 135/135/135
f 134/134/134 145/145/145 140/140/140
f 143/143/143 145/145/145 134/134/134
f 141/141/141 146/146/146 137/137/137
f 146/146/146 144/144/144 137/137/137
f 142/142/142 147/147/147 141/141/141
f 147/147/147 146/146/146 141/141/141
f 140/140/140 148/148/148 142/142/142
f 145/145/145 148/148/148 140/140/140
f 148/148/148 147/147/147 142/142/142
f 143/143/143 149/149/149 145/145/145
f 144/144/144 150/150/150 143/143/143
f 150/150/150 149/149/149 143/143/143
f 146/146/146 151/151/151 144/144/144
f 151/151/151 150/150/150 144/144/144
f 147/147/147 152/152/152 146/146/146
f 152/152/152 151/151/151 146/146/146
f 151/151/151 153/153/153 150/150/150
f 150/150/150 153/153/153 149/149/149
f 152/152/152 153/153/153 151/151/151
f 149/149/149 154/154/154 145/145/145
f 145/145/145 154/154/154 148/148/148
f 149/149/149 153/153/153 154/154/154
f 155/155/155 152/152/152 147/147/147
f 148/148/148 155/155/155 147/147/147
f 154/154/154 155/155/155 148/148/148
f 154/154/154 153/153/153 155/155/155
f 155/155/155 153/153/153 152/152/152
