g mesh_sandpile02_COL
v 0.03076175 1.432692 -0.0560775
v -2.293594 0 -0.1385048
v -0.9618471 0 -2.923665
v 0.03076175 1.432692 -0.0560775
v -1.557028 0 2.05573
v -2.293594 0 -0.1385048
v 0.03076175 1.432692 -0.0560775
v 0.3402047 0 2.914575
v -1.557028 0 2.05573
v 2.093714 0 1.243583
v 0.3402047 0 2.914575
v 0.03076175 1.432692 -0.0560775
v 1.63486 0 -1.894615
v 2.093714 0 1.243583
v 0.03076175 1.432692 -0.0560775
v -0.9618471 0 -2.923665
v 1.63486 0 -1.894615
vt 0 9.398327E-09
vt 0.2579657 0.7569882
vt 1 0
vt 0 1.327442E-15
vt 0.6191342 0.9476206
vt 1 0
vt 0 1.414031E-16
vt 0.8886453 0.7495647
vt 1 0
vt 0.5043653 0.6419064
vt 1 1.783924E-17
vt 0 0
vt 0.2721025 0.9014245
vt 0.9999999 1.589267E-17
vt 0 0
vt 0.4289268 1
vt 0.8802417 1.299995E-16
vn 0.03212393 0.998349 -0.04761782
vn -0.522292 0.850735 -0.05883018
vn -0.160672 0.9040561 -0.3960646
vn 0.03212393 0.998349 -0.04761782
vn -0.3450711 0.8766459 0.3352877
vn -0.522292 0.850735 -0.05883018
vn 0.03212393 0.998349 -0.04761782
vn 0.07891579 0.9011022 0.426365
vn -0.3450711 0.8766459 0.3352877
vn 0.484483 0.8569793 0.1756782
vn 0.07891579 0.9011022 0.426365
vn 0.03212393 0.998349 -0.04761782
vn 0.3866115 0.8600644 -0.3328975
vn 0.484483 0.8569793 0.1756782
vn 0.03212393 0.998349 -0.04761782
vn -0.160672 0.9040561 -0.3960646
vn 0.3866115 0.8600644 -0.3328975
g mesh_sandpile02_COL_0
f 3/3/3 2/2/2 1/1/1
f 6/6/6 5/5/5 4/4/4
f 9/9/9 8/8/8 7/7/7
f 11/11/11 10/10/10 7/7/7
f 14/14/14 13/13/13 12/12/12
f 17/17/17 16/16/16 15/15/15
