g mesh_frame_COL
v 1.518461 4.630052 -0.5359143
v 1.518461 4.630052 0.5359149
v 2.630052 3.518461 0.5359149
v 0 5.036922 -0.5359143
v 0 5.036922 0.5359149
v -1.518461 4.630052 -0.5359143
v -1.518461 4.630052 0.5359149
v -2.630052 3.518461 -0.5359143
v -2.630052 3.518461 0.5359149
v -1.747327 5.02646 -0.9677038
v 0 5.494655 -0.9677038
v -3.02646 3.747327 -0.9677038
v -2.496242 6.323618 -0.9664819
v -4.323618 4.496242 -0.9664819
v 0 6.992484 -0.9664819
v -4.992485 2 -0.9664819
v 1.747327 5.02646 -0.9677038
v 2.496242 6.323618 -0.9664819
v -3.494655 2 -0.9677038
v -4.524278 0.2526304 -0.9664819
v -3.02646 0.2526726 -0.9677038
v -3.036922 2 -0.5359143
v -2.630052 3.518461 0.5359149
v -3.036922 2 0.5359149
v -2.630052 0.4815388 -0.5359143
v -2.630052 0.4815388 0.5359149
v -2.296575 0.1480615 -0.5359143
v -2.296575 0.1480615 0.5359149
v -2.630052 0.4815388 0.5359149
v -3.02646 0.2526726 0.9677032
v -2.630052 0.4815388 0.5359149
v -4.524278 0.2526304 0.9664825
v -4.992485 2 0.9664825
v -3.494655 2 0.9677032
v -2.630052 0.4815388 0.5359149
v -4.323618 4.496242 0.9664825
v -3.036922 2 0.5359149
v -3.02646 3.747327 0.9677032
v -2.630052 3.518461 0.5359149
v -2.496242 6.323618 0.9664825
v -1.747327 5.02646 0.9677032
v 0 6.992484 0.9664825
v 0 5.494655 0.9677032
v 2.496242 6.323618 0.9664825
v -1.518461 4.630052 0.5359149
v -2.630052 3.518461 0.5359149
v 0 5.036922 0.5359149
v 1.747327 5.02646 0.9677032
v 4.323618 4.496242 0.9664825
v 1.518461 4.630052 0.5359149
v 3.02646 3.747327 0.9677032
v 2.630052 3.518461 0.5359149
v 4.992485 2 0.9664825
v 3.494655 2 0.9677032
v 2.630052 3.518461 0.5359149
v 4.524278 0.2526304 0.9664825
v 3.036922 2 0.5359149
v 3.02646 0.2526726 0.9677032
v 2.630052 0.4815388 0.5359149
v 2.630052 0.4815388 0.5359149
v 2.296575 0.1480615 0.5359149
v 2.630052 0.4815388 -0.5359143
v 2.630052 0.4815388 0.5359149
v 2.296575 0.1480615 -0.5359143
v 3.02646 0.2526726 -0.9677038
v 3.494655 2 -0.9677038
v 4.992485 2 -0.9664819
v 4.524278 0.2526304 -0.9664819
v 4.323618 4.496242 -0.9664819
v 3.036922 2 -0.5359143
v 2.630052 0.4815388 0.5359149
v 3.036922 2 0.5359149
v 3.02646 3.747327 -0.9677038
v 2.630052 3.518461 -0.5359143
v 2.630052 3.518461 0.5359149
v 3.526595 -0.25 -2.372267
v 4.496904 -0.2499997 -1.489761
v 4.496904 0.2500003 -0.9824353
v 3.526595 0.25 -1.581774
v 4.496904 0.2500003 0.9824353
v 3.526595 0.25 1.581774
v 1.783217 0.25 2.03159
v 1.783217 0.25 -2.03159
v 1.783217 -0.25 -2.873971
v 0 0.25 2.113264
v 0 0.25 -2.113264
v 0 -0.25 -2.989511
v -1.783217 0.25 2.03159
v -1.783217 0.25 -2.03159
v -1.783217 -0.25 -2.873971
v -3.526595 0.25 1.581774
v -3.526595 0.25 -1.581774
v -3.526595 -0.25 -2.372267
v -4.496904 -0.2499997 -1.489761
v -4.496904 0.2500003 -0.9824353
v -4.496904 0.2500003 0.9824353
v 3.526595 0.25 1.581774
v 4.496904 0.2500003 0.9824353
v 4.496904 -0.2499997 1.48976
v 3.526595 -0.25 2.372267
v 1.783217 -0.25 2.873971
v 1.783217 0.25 2.03159
v 0 -0.25 2.98951
v 0 0.25 2.113264
v -1.783217 -0.25 2.873971
v -1.783217 0.25 2.03159
v -3.526595 -0.25 2.372267
v -3.526595 0.25 1.581774
v -4.496904 0.2500003 0.9824353
v -4.496904 -0.2499997 1.48976
vt 0.6570354 0.7698912
vt 0.6302182 0.7268408
vt 0.7255443 0.6324345
vt 0.4999999 0.8115625
vt 0.4999999 0.7613958
vt 0.3429646 0.7698912
vt 0.3697819 0.7268408
vt 0.2280067 0.6560429
vt 0.2744555 0.6324345
vt 0.3192956 0.8104909
vt 0.4999999 0.8584432
vt 0.1870111 0.6794832
vt 0.2418448 0.943345
vt 0.05286241 0.7561865
vt 0.4999999 1.01185
vt -0.01630998 0.5005232
vt 0.6807042 0.8104909
vt 0.7581548 0.943345
vt 0.138592 0.5005232
vt 0.03211069 0.3215588
vt 0.1870111 0.3215631
vt 0.1859292 0.5005232
vt 0.2744555 0.6324345
vt 0.2395636 0.5034732
vt 0.2280067 0.3450034
vt 0.2744555 0.3745119
vt 0.2624942 0.310849
vt 0.3030535 0.34619
vt 0.2744555 0.3745119
vt 0.1870111 0.3215631
vt 0.2744555 0.3745119
vt 0.03211069 0.3215588
vt -0.01630998 0.5005232
vt 0.138592 0.5005232
vt 0.2744555 0.3745119
vt 0.05286241 0.7561865
vt 0.2395636 0.5034732
vt 0.1870111 0.6794832
vt 0.2744555 0.6324345
vt 0.2418448 0.943345
vt 0.3192956 0.8104909
vt 0.4999999 1.01185
vt 0.4999999 0.8584432
vt 0.7581548 0.943345
vt 0.3697819 0.7268408
vt 0.2744555 0.6324345
vt 0.4999999 0.7613958
vt 0.6807042 0.8104909
vt 0.9471372 0.7561865
vt 0.6302182 0.7268408
vt 0.8129885 0.6794832
vt 0.7255443 0.6324345
vt 1.01631 0.5005232
vt 0.8614081 0.5005232
vt 0.7255443 0.6324345
vt 0.967889 0.3215588
vt 0.7604362 0.5034732
vt 0.8129885 0.3215631
vt 0.7255443 0.3745119
vt 0.7255443 0.3745119
vt 0.6969463 0.34619
vt 0.7719931 0.3450034
vt 0.7255443 0.3745119
vt 0.7375056 0.310849
vt 0.8129885 0.3215631
vt 0.8614081 0.5005232
vt 1.01631 0.5005232
vt 0.967889 0.3215588
vt 0.9471372 0.7561865
vt 0.8140706 0.5005232
vt 0.7255443 0.3745119
vt 0.7604362 0.5034732
vt 0.8129885 0.6794832
vt 0.7719931 0.6560429
vt 0.7255443 0.6324345
vt 0.7825004 0.05800591
vt 0.8602277 0.1093229
vt 0.8602277 0.1388235
vt 0.7825004 0.1039724
vt 0.8602277 0.2081329
vt 0.7825004 0.2075034
vt 0.6428459 0.2070309
vt 0.6428459 0.07781592
vt 0.6428459 0.02883217
vt 0.5 0.2069452
vt 0.5 0.0730667
vt 0.5 0.02211364
vt 0.3571541 0.2070309
vt 0.3571541 0.07781592
vt 0.3571541 0.02883217
vt 0.2174997 0.2075034
vt 0.2174997 0.1039724
vt 0.2174997 0.05800591
vt 0.1397723 0.1093229
vt 0.1397723 0.1388235
vt 0.1397723 0.2081329
vt 0.7825004 0.1035644
vt 0.8602277 0.1384155
vt 0.8602277 0.1089149
vt 0.7825004 0.05759794
vt 0.6428459 0.0284242
vt 0.6428459 0.07740796
vt 0.5 0.02170569
vt 0.5 0.07265872
vt 0.3571541 0.0284242
vt 0.3571541 0.07740796
vt 0.2174997 0.05759794
vt 0.2174997 0.1035644
vt 0.1397723 0.1384155
vt 0.1397723 0.1089149
vn -0.4724517 -0.8183103 -0.3273495
vn -0.4724516 -0.8183101 0.3273498
vn -0.8183101 -0.4724516 0.3273498
vn 0 -0.9449033 -0.3273494
vn 0 -0.9449033 0.3273497
vn 0.4724517 -0.8183103 -0.3273495
vn 0.4724516 -0.8183103 0.3273499
vn 0.8183103 -0.4724517 -0.3273496
vn 0.8183101 -0.4724516 0.3273499
vn 0.06998238 -0.121213 -0.9901565
vn 0 -0.1399647 -0.9901565
vn 0.121213 -0.06998236 -0.9901565
vn -0.0004078852 0.0007065001 -0.9999996
vn -0.0007064935 0.000407898 -0.9999996
vn 0 0.0008157961 -0.9999996
vn -0.0008158209 2.115431E-05 -0.9999996
vn -0.06998235 -0.121213 -0.9901565
vn 0.0004078929 0.0007065 -0.9999996
vn 0.1511194 1.750922E-05 -0.9885156
vn -0.0008158635 -0.000218592 -0.9999996
vn 0.2181913 0.06497139 -0.9737409
vn 0.9449033 0 -0.3273496
vn 0.8183101 -0.4724516 0.3273499
vn 0.9449033 0 0.32735
vn 0.8921875 0.3392597 -0.2981683
vn 0.8921874 0.3392597 0.2981685
vn 0.7038584 0.7038578 -0.09574647
vn 0.7038584 0.7038579 0.09574642
vn 0.8921874 0.3392597 0.2981685
vn 0.2181913 0.06497135 0.9737409
vn 0.8921874 0.3392597 0.2981685
vn -0.000814951 -0.0002183736 0.9999996
vn -0.0008149705 2.113319E-05 0.9999996
vn 0.1511196 1.748983E-05 0.9885156
vn 0.8921874 0.3392597 0.2981685
vn -0.0007057942 0.0004074904 0.9999996
vn 0.9449033 0 0.32735
vn 0.1212132 -0.06998248 0.9901565
vn 0.8183101 -0.4724516 0.3273499
vn -0.0004074935 0.0007057941 0.9999996
vn 0.06998249 -0.1212132 0.9901565
vn 0 0.0008149811 0.9999996
vn 0 -0.139965 0.9901565
vn 0.0004074858 0.0007057942 0.9999996
vn 0.4724516 -0.8183103 0.3273499
vn 0.8183101 -0.4724516 0.3273499
vn 0 -0.9449033 0.3273497
vn -0.06998251 -0.1212132 0.9901565
vn 0.0007057867 0.0004074904 0.9999996
vn -0.4724516 -0.8183101 0.3273498
vn -0.1212132 -0.06998248 0.9901565
vn -0.8183101 -0.4724516 0.3273498
vn 0.0008149783 2.113319E-05 0.9999996
vn -0.1511197 1.749173E-05 0.9885156
vn -0.8183101 -0.4724516 0.3273498
vn 0.0008149681 -0.0002183736 0.9999996
vn -0.9449033 0 0.3273499
vn -0.2181913 0.06497136 0.9737409
vn -0.8921874 0.3392597 0.2981686
vn -0.8921874 0.3392597 0.2981686
vn -0.7038584 0.7038578 0.09574642
vn -0.8921875 0.3392597 -0.2981683
vn -0.8921874 0.3392597 0.2981686
vn -0.7038584 0.7038578 -0.09574647
vn -0.2181913 0.06497139 -0.9737409
vn -0.1511194 1.750732E-05 -0.9885156
vn 0.000815813 2.115431E-05 -0.9999996
vn 0.0008158465 -0.0002185919 -0.9999996
vn 0.000706501 0.0004078979 -0.9999996
vn -0.9449033 0 -0.3273496
vn -0.8921874 0.3392597 0.2981686
vn -0.9449033 0 0.3273499
vn -0.121213 -0.06998232 -0.9901565
vn -0.8183103 -0.4724517 -0.3273495
vn -0.8183101 -0.4724516 0.3273498
vn 0.2039947 0.8235646 -0.5292708
vn 0.4224356 0.7179799 -0.5532205
vn 0.07238511 0.9928616 -0.09479566
vn 0.06181336 0.9902704 -0.1246746
vn 0.07238515 0.9928616 0.09479567
vn 0.06181341 0.9902704 0.1246746
vn 0.01977551 0.9931142 0.1154693
vn 0.01977552 0.9931142 -0.1154693
vn 0.077494 0.8567778 -0.5098299
vn 0 0.9945828 0.1039471
vn 0 0.9945828 -0.1039471
vn 0 0.8643327 -0.5029205
vn -0.01977551 0.9931142 0.1154693
vn -0.01977552 0.9931142 -0.1154693
vn -0.077494 0.8567778 -0.5098299
vn -0.0618134 0.9902704 0.1246746
vn -0.06181336 0.9902704 -0.1246746
vn -0.2039947 0.8235646 -0.5292708
vn -0.4224356 0.7179799 -0.5532205
vn -0.0723851 0.9928616 -0.09479566
vn -0.07238515 0.9928616 0.09479561
vn 0.06181341 0.9902704 0.1246746
vn 0.07238515 0.9928616 0.09479567
vn 0.4224359 0.7179797 0.5532206
vn 0.2039948 0.8235645 0.5292708
vn 0.07749397 0.8567777 0.50983
vn 0.01977551 0.9931142 0.1154693
vn 0 0.8643326 0.5029207
vn 0 0.9945828 0.1039471
vn -0.07749397 0.8567777 0.5098299
vn -0.01977551 0.9931142 0.1154693
vn -0.2039948 0.8235645 0.5292709
vn -0.0618134 0.9902704 0.1246746
vn -0.07238515 0.9928616 0.09479561
vn -0.4224359 0.7179798 0.5532205
g mesh_frame_COL_0
f 3/3/3 2/2/2 1/1/1
f 1/1/1 2/2/2 4/4/4
f 2/2/2 5/5/5 4/4/4
f 4/4/4 5/5/5 6/6/6
f 5/5/5 7/7/7 6/6/6
f 6/6/6 7/7/7 8/8/8
f 7/7/7 9/9/9 8/8/8
f 4/4/4 6/6/6 10/10/10
f 1/1/1 4/4/4 11/11/11
f 11/11/11 4/4/4 10/10/10
f 6/6/6 8/8/8 12/12/12
f 10/10/10 6/6/6 12/12/12
f 10/10/10 13/13/13 11/11/11
f 14/14/14 13/13/13 10/10/10
f 12/12/12 14/14/14 10/10/10
f 13/13/13 15/15/15 11/11/11
f 16/16/16 14/14/14 12/12/12
f 11/11/11 15/15/15 17/17/17
f 17/17/17 1/1/1 11/11/11
f 15/15/15 18/18/18 17/17/17
f 19/19/19 16/16/16 12/12/12
f 12/12/12 8/8/8 19/19/19
f 20/20/20 16/16/16 19/19/19
f 21/21/21 20/20/20 19/19/19
f 8/8/8 22/22/22 19/19/19
f 19/19/19 22/22/22 21/21/21
f 8/8/8 23/23/23 22/22/22
f 23/23/23 24/24/24 22/22/22
f 22/22/22 25/25/25 21/21/21
f 22/22/22 24/24/24 25/25/25
f 24/24/24 26/26/26 25/25/25
f 21/21/21 25/25/25 27/27/27
f 27/27/27 25/25/25 28/28/28
f 25/25/25 29/29/29 28/28/28
f 28/28/28 31/31/31 30/30/30
f 33/33/33 32/32/32 30/30/30
f 34/34/34 33/33/33 30/30/30
f 34/34/34 30/30/30 35/35/35
f 36/36/36 33/33/33 34/34/34
f 37/37/37 34/34/34 35/35/35
f 38/38/38 36/36/36 34/34/34
f 38/38/38 34/34/34 37/37/37
f 39/39/39 38/38/38 37/37/37
f 40/40/40 36/36/36 38/38/38
f 41/41/41 38/38/38 39/39/39
f 41/41/41 40/40/40 38/38/38
f 42/42/42 40/40/40 41/41/41
f 43/43/43 42/42/42 41/41/41
f 44/44/44 42/42/42 43/43/43
f 43/43/43 41/41/41 45/45/45
f 45/45/45 41/41/41 46/46/46
f 47/47/47 43/43/43 45/45/45
f 48/48/48 44/44/44 43/43/43
f 48/48/48 43/43/43 47/47/47
f 49/49/49 44/44/44 48/48/48
f 50/50/50 48/48/48 47/47/47
f 51/51/51 49/49/49 48/48/48
f 51/51/51 48/48/48 50/50/50
f 52/52/52 51/51/51 50/50/50
f 53/53/53 49/49/49 51/51/51
f 54/54/54 53/53/53 51/51/51
f 54/54/54 51/51/51 55/55/55
f 56/56/56 53/53/53 54/54/54
f 57/57/57 54/54/54 55/55/55
f 58/58/58 56/56/56 54/54/54
f 58/58/58 54/54/54 57/57/57
f 59/59/59 58/58/58 57/57/57
f 61/61/61 58/58/58 60/60/60
f 61/61/61 63/63/63 62/62/62
f 64/64/64 61/61/61 62/62/62
f 64/64/64 62/62/62 65/65/65
f 65/65/65 62/62/62 66/66/66
f 66/66/66 67/67/67 65/65/65
f 67/67/67 68/68/68 65/65/65
f 69/69/69 67/67/67 66/66/66
f 62/62/62 70/70/70 66/66/66
f 62/62/62 71/71/71 70/70/70
f 71/71/71 72/72/72 70/70/70
f 73/73/73 69/69/69 66/66/66
f 66/66/66 70/70/70 73/73/73
f 18/18/18 69/69/69 73/73/73
f 17/17/17 18/18/18 73/73/73
f 70/70/70 72/72/72 74/74/74
f 70/70/70 74/74/74 73/73/73
f 73/73/73 74/74/74 17/17/17
f 72/72/72 75/75/75 74/74/74
f 74/74/74 1/1/1 17/17/17
f 74/74/74 75/75/75 1/1/1
f 78/78/78 77/77/77 76/76/76
f 79/79/79 78/78/78 76/76/76
f 80/80/80 78/78/78 79/79/79
f 81/81/81 80/80/80 79/79/79
f 81/81/81 79/79/79 82/82/82
f 79/79/79 76/76/76 83/83/83
f 79/79/79 83/83/83 82/82/82
f 76/76/76 84/84/84 83/83/83
f 82/82/82 83/83/83 85/85/85
f 83/83/83 84/84/84 86/86/86
f 83/83/83 86/86/86 85/85/85
f 84/84/84 87/87/87 86/86/86
f 85/85/85 86/86/86 88/88/88
f 86/86/86 87/87/87 89/89/89
f 86/86/86 89/89/89 88/88/88
f 87/87/87 90/90/90 89/89/89
f 88/88/88 89/89/89 91/91/91
f 89/89/89 90/90/90 92/92/92
f 89/89/89 92/92/92 91/91/91
f 90/90/90 93/93/93 92/92/92
f 93/93/93 94/94/94 92/92/92
f 94/94/94 95/95/95 92/92/92
f 92/92/92 95/95/95 91/91/91
f 95/95/95 96/96/96 91/91/91
f 99/99/99 98/98/98 97/97/97
f 100/100/100 99/99/99 97/97/97
f 100/100/100 97/97/97 101/101/101
f 97/97/97 102/102/102 101/101/101
f 101/101/101 102/102/102 103/103/103
f 102/102/102 104/104/104 103/103/103
f 103/103/103 104/104/104 105/105/105
f 104/104/104 106/106/106 105/105/105
f 105/105/105 106/106/106 107/107/107
f 106/106/106 108/108/108 107/107/107
f 108/108/108 109/109/109 107/107/107
f 109/109/109 110/110/110 107/107/107
