g mesh_light_r
v 1.238868 0.7667223 -0.4690734
v 1.629614 3.247256 -0.8028008
v 1.421486 3.247256 -0.9668755
v 1.188197 0.7667223 -0.5090198
v 1.126096 0.7667223 -0.5265341
v 1.166414 3.247256 -1.038814
v 1.062019 0.7667223 -0.5189502
v 0.903227 3.247256 -1.007663
v 1.005723 0.7667223 -0.4874226
v 0.671995 3.247256 -0.8781675
v 0.9657761 0.7667223 -0.436751
v 0.5079204 3.247256 -0.6700402
v 0.9482618 0.7667223 -0.3746498
v 0.4359823 3.247256 -0.4149673
v 0.9558457 0.7667223 -0.3105733
v 0.4671326 3.247256 -0.1517809
v 0.9873734 0.7667223 -0.2542765
v 0.5966285 3.247256 0.07945093
v 1.038045 0.7667223 -0.2143302
v 0.8047557 3.247256 0.2435256
v 1.100146 0.7667223 -0.1968158
v 1.059829 3.247256 0.3154635
v 1.164223 0.7667223 -0.2043998
v 1.323015 3.247256 0.2843133
v 1.220519 0.7667223 -0.2359274
v 1.554247 3.247256 0.1548174
v 1.260466 0.7667223 -0.286599
v 1.718321 3.247256 -0.05330984
v 1.27798 0.7667223 -0.3487003
v 1.790259 3.247256 -0.3083828
v 1.270396 0.7667223 -0.4127768
v 1.759109 3.247256 -0.5715693
v 1.238868 0.7667223 -0.4690734
v 1.629614 3.247256 -0.8028008
vt 0.01047575 0.01672953
vt 0.01047575 0.9842103
vt 0.0716663 0.9842103
vt 0.0716663 0.01672953
vt 0.1328568 0.01672953
vt 0.1328568 0.9842103
vt 0.1940473 0.01672953
vt 0.1940473 0.9842103
vt 0.2552379 0.01672953
vt 0.2552379 0.9842103
vt 0.3164284 0.01672953
vt 0.3164284 0.9842103
vt 0.3776189 0.01672953
vt 0.3776189 0.9842103
vt 0.4388095 0.01672953
vt 0.4388095 0.9842103
vt 0.5 0.01672953
vt 0.5 0.9842103
vt 0.5611905 0.01672953
vt 0.5611905 0.9842103
vt 0.6223811 0.01672953
vt 0.6223811 0.9842103
vt 0.6835716 0.01672953
vt 0.6835716 0.9842103
vt 0.7447621 0.01672953
vt 0.7447621 0.9842103
vt 0.8059526 0.01672953
vt 0.8059526 0.9842103
vt 0.8671432 0.01672953
vt 0.8671432 0.9842103
vt 0.9283337 0.01672953
vt 0.9283337 0.9842103
vt 0.9895242 0.01672953
vt 0.9895242 0.9842103
vn 0.7445972 -0.2028514 -0.6359453
vn 0.7445972 -0.2028514 -0.6359453
vn 0.4445528 -0.2028515 -0.8724816
vn 0.4445528 -0.2028515 -0.8724816
vn 0.07682771 -0.2028515 -0.9761909
vn 0.07682775 -0.2028515 -0.9761909
vn -0.3025921 -0.2028515 -0.9312836
vn -0.3025921 -0.2028515 -0.9312837
vn -0.635945 -0.2028515 -0.7445973
vn -0.635945 -0.2028515 -0.7445973
vn -0.8724816 -0.2028515 -0.4445526
vn -0.8724816 -0.2028515 -0.4445526
vn -0.9761909 -0.2028515 -0.07682791
vn -0.9761909 -0.2028515 -0.07682793
vn -0.9312837 -0.2028514 0.3025922
vn -0.9312837 -0.2028514 0.3025921
vn -0.7445973 -0.2028514 0.6359452
vn -0.7445972 -0.2028514 0.6359453
vn -0.4445523 -0.2028515 0.8724819
vn -0.4445523 -0.2028515 0.8724819
vn -0.07682763 -0.2028515 0.9761909
vn -0.07682768 -0.2028515 0.9761909
vn 0.3025921 -0.2028515 0.9312836
vn 0.3025921 -0.2028515 0.9312836
vn 0.6359453 -0.2028515 0.7445971
vn 0.6359454 -0.2028516 0.7445971
vn 0.872482 -0.2028515 0.444552
vn 0.872482 -0.2028515 0.444552
vn 0.9761909 -0.2028515 0.0768275
vn 0.9761909 -0.2028515 0.07682755
vn 0.9312837 -0.2028515 -0.302592
vn 0.9312837 -0.2028515 -0.302592
vn 0.7445972 -0.2028514 -0.6359453
vn 0.7445972 -0.2028514 -0.6359453
g mesh_light_r_0
f 3/3/3 2/2/2 1/1/1
f 4/4/4 3/3/3 1/1/1
f 4/4/4 5/5/5 3/3/3
f 5/5/5 6/6/6 3/3/3
f 5/5/5 7/7/7 6/6/6
f 7/7/7 8/8/8 6/6/6
f 7/7/7 9/9/9 8/8/8
f 9/9/9 10/10/10 8/8/8
f 9/9/9 11/11/11 10/10/10
f 11/11/11 12/12/12 10/10/10
f 11/11/11 13/13/13 12/12/12
f 13/13/13 14/14/14 12/12/12
f 13/13/13 15/15/15 14/14/14
f 15/15/15 16/16/16 14/14/14
f 15/15/15 17/17/17 16/16/16
f 17/17/17 18/18/18 16/16/16
f 17/17/17 19/19/19 18/18/18
f 19/19/19 20/20/20 18/18/18
f 19/19/19 21/21/21 20/20/20
f 21/21/21 22/22/22 20/20/20
f 21/21/21 23/23/23 22/22/22
f 23/23/23 24/24/24 22/22/22
f 23/23/23 25/25/25 24/24/24
f 25/25/25 26/26/26 24/24/24
f 25/25/25 27/27/27 26/26/26
f 27/27/27 28/28/28 26/26/26
f 27/27/27 29/29/29 28/28/28
f 29/29/29 30/30/30 28/28/28
f 29/29/29 31/31/31 30/30/30
f 31/31/31 32/32/32 30/30/30
f 31/31/31 33/33/33 32/32/32
f 33/33/33 34/34/34 32/32/32
