g mesh_gen_arm_r_COL
v -0.40625 -0.03907451 -0.4604278
v -0.40625 -0.03907451 0.4604278
v 1.045874 0.6713189 0.2652971
v 1.045874 0.6713189 -0.2652971
v -0.04430447 1.66921 -0.4432795
v 0.647203 1.6862 -0.2652971
v -0.04430447 1.66921 0.4432795
v 0.647203 1.6862 0.2652971
v -0.40625 -0.03907451 0.4604278
v -0.40625 -0.03907451 -0.4604278
v -0.04430447 1.66921 -0.4432795
v 1.045874 0.6713189 0.2652971
v 0.647203 1.6862 -0.2652971
v 1.045874 0.6713189 -0.2652971
vt 0.375 0.75
vt 0.375 1
vt 0.625 1
vt 0.625 0.75
vt 0.375 0.5
vt 0.625 0.5
vt 0.375 0.25
vt 0.625 0.25
vt 0.375 0
vt 0.125 0
vt 0.125 0.25
vt 0.625 0
vt 0.875 0.25
vt 0.875 0
vn -0.6506746 -0.4570083 -0.6064371
vn -0.6506746 -0.4570083 0.6064371
vn 0.6043226 -0.4050523 0.6860954
vn 0.6043226 -0.4050523 -0.6860954
vn -0.5696823 0.337036 -0.749579
vn 0.3912088 0.3751567 -0.8403649
vn -0.5696823 0.337036 0.749579
vn 0.3912088 0.3751567 0.8403649
vn -0.6506746 -0.4570083 0.6064371
vn -0.6506746 -0.4570083 -0.6064371
vn -0.5696823 0.337036 -0.749579
vn 0.6043226 -0.4050523 0.6860954
vn 0.3912088 0.3751567 -0.8403649
vn 0.6043226 -0.4050523 -0.6860954
g mesh_gen_arm_r_COL_0
f 3/3/3 2/2/2 1/1/1
f 4/4/4 3/3/3 1/1/1
f 4/4/4 1/1/1 5/5/5
f 6/6/6 4/4/4 5/5/5
f 6/6/6 5/5/5 7/7/7
f 8/8/8 6/6/6 7/7/7
f 8/8/8 7/7/7 9/9/9
f 9/9/9 7/7/7 10/10/10
f 7/7/7 11/11/11 10/10/10
f 12/12/12 8/8/8 9/9/9
f 13/13/13 8/8/8 12/12/12
f 14/14/14 13/13/13 12/12/12
