g mesh_sat_glass
v 3.314136 40.546 -1.913418
v 0 41.3072 0
v 1.913418 40.546 -3.314136
v 6.123724 38.37826 -3.535533
v 3.535533 38.37826 -6.123724
v 0 40.546 -3.826835
v 0 41.3072 0
v 0 38.37826 -7.071066
v 4.619397 35.13402 -8.00103
v 0 35.13402 -9.238793
v 8.00103 35.13402 -4.619397
v 5 31.3072 -8.660255
v 0 31.3072 -9.999999
v 8.660255 31.3072 -5
v 5 22.34495 -8.660254
v 0 22.34495 -9.999999
v 8.660254 22.34495 -5
v 5 11.22609 -8.660254
v 0 11.22609 -9.999999
v 8.660254 11.22609 -5
v 5 0.8184752 -8.660254
v 0 0.8184752 -9.999999
v 4.839909 -0.1202359 -8.382968
v 0 -0.1202359 -9.679818
v 8.382968 -0.1202359 -4.839909
v 8.660254 0.8184752 -5
v 9.679818 -0.1202359 0
v 9.999999 0.8184752 0
v 8.382968 -0.1202359 4.839909
v 9.999999 11.22609 0
v 8.660254 0.8184752 5
v 4.839909 -0.1202359 8.382968
v 9.999999 22.34495 0
v 5 0.8184752 8.660254
v 0 -0.1202359 9.679818
v 8.660254 11.22609 5
v 9.999999 31.3072 0
v 0 0.8184752 9.999999
v -4.839909 -0.1202359 8.382968
v 5 11.22609 8.660254
v 8.660254 22.34495 5
v 9.238793 35.13402 0
v -5 0.8184752 8.660254
v -8.382968 -0.1202359 4.839909
v 8.660255 31.3072 5
v 0 11.22609 9.999999
v 5 22.34495 8.660254
v 7.071066 38.37826 0
v -8.660254 0.8184752 5
v -9.679818 -0.1202359 0
v 8.00103 35.13402 4.619397
v 5 31.3072 8.660255
v -5 11.22609 8.660254
v 0 22.34495 9.999999
v 3.826835 40.546 0
v 0 41.3072 0
v -9.999999 0.8184752 0
v -8.382968 -0.1202359 -4.839909
v 6.123724 38.37826 3.535533
v 4.619397 35.13402 8.00103
v 0 31.3072 9.999999
v -8.660254 11.22609 5
v -5 22.34495 8.660254
v -8.660254 0.8184752 -5
v -4.839909 -0.1202359 -8.382968
v 3.314136 40.546 1.913418
v 0 41.3072 0
v 3.535533 38.37826 6.123724
v 0 35.13402 9.238793
v -5 31.3072 8.660255
v -9.999999 11.22609 0
v -8.660254 22.34495 5
v -5 0.8184752 -8.660254
v 0 -0.1202359 -9.679818
v 0 0.8184752 -9.999999
v -8.660254 11.22609 -5
v -5 11.22609 -8.660254
v 0 11.22609 -9.999999
v -9.999999 22.34495 0
v -8.660255 31.3072 5
v -8.660254 22.34495 -5
v -5 22.34495 -8.660254
v 0 22.34495 -9.999999
v -9.999999 31.3072 0
v -4.619397 35.13402 8.00103
v -8.660255 31.3072 -5
v -5 31.3072 -8.660255
v 0 31.3072 -9.999999
v -8.00103 35.13402 4.619397
v 0 38.37826 7.071066
v -9.238793 35.13402 0
v -4.619397 35.13402 -8.00103
v 0 35.13402 -9.238793
v -8.00103 35.13402 -4.619397
v -3.535533 38.37826 6.123724
v 1.913418 40.546 3.314136
v 0 41.3072 0
v 0 40.546 3.826835
v 0 41.3072 0
v -3.535533 38.37826 -6.123724
v 0 38.37826 -7.071066
v -6.123724 38.37826 -3.535533
v -6.123724 38.37826 3.535533
v -1.913418 40.546 3.314136
v 0 41.3072 0
v -7.071066 38.37826 0
v -3.314136 40.546 1.913418
v 0 41.3072 0
v -3.826835 40.546 0
v 0 41.3072 0
v -3.314136 40.546 -1.913418
v 0 41.3072 0
v -1.913418 40.546 -3.314136
v 0 41.3072 0
v 0 40.546 -3.826835
v 0 41.3072 0
vt 1.166698 0.9789588
vt 0.5 0.9876766
vt 1.333365 0.9789588
vt 1.166698 0.9541323
vt 1.333365 0.9541323
vt 1.500032 0.9789588
vt 0.5 0.9876766
vt 1.500032 0.9541323
vt 1.333365 0.9169769
vt 1.500032 0.9169769
vt 1.166698 0.9169769
vt 1.333365 0.8731491
vt 1.500032 0.8731491
vt 1.166698 0.8731491
vt 1.333365 0.7705068
vt 1.500032 0.7705068
vt 1.166698 0.7705068
vt 1.333365 0.6431651
vt 1.500032 0.6431651
vt 1.166698 0.6431651
vt 1.333365 0.5239694
vt 1.500032 0.5239694
vt 1.333365 0.5132185
vt 1.500032 0.5132185
vt 1.166698 0.5132185
vt 1.166698 0.5239694
vt 1.000032 0.5132185
vt 1.000032 0.5239694
vt 0.8333651 0.5132185
vt 1.000032 0.6431651
vt 0.8333652 0.5239694
vt 0.6666985 0.5132185
vt 1.000032 0.7705068
vt 0.6666985 0.5239694
vt 0.5000318 0.5132185
vt 0.8333652 0.6431651
vt 1.000032 0.8731491
vt 0.5000318 0.5239694
vt 0.3333651 0.5132185
vt 0.6666985 0.6431651
vt 0.8333652 0.7705068
vt 1.000032 0.9169769
vt 0.3333651 0.5239694
vt 0.1666985 0.5132185
vt 0.8333652 0.8731491
vt 0.5000318 0.6431651
vt 0.6666985 0.7705068
vt 1.000032 0.9541323
vt 0.1666985 0.5239694
vt 3.182888E-05 0.5132185
vt 0.8333652 0.9169769
vt 0.6666985 0.8731491
vt 0.3333651 0.6431651
vt 0.5000318 0.7705068
vt 1.000032 0.9789588
vt 0.5 0.9876766
vt 3.182888E-05 0.5239694
vt -0.1666349 0.5132185
vt 0.8333651 0.9541323
vt 0.6666985 0.9169769
vt 0.5000318 0.8731491
vt 0.1666985 0.6431651
vt 0.3333651 0.7705068
vt -0.1666349 0.5239694
vt -0.3333015 0.5132185
vt 0.8333652 0.9789588
vt 0.5 0.9876766
vt 0.6666985 0.9541323
vt 0.5000318 0.9169769
vt 0.3333651 0.8731491
vt 3.182888E-05 0.6431651
vt 0.1666985 0.7705068
vt -0.3333015 0.5239694
vt -0.4999682 0.5132185
vt -0.4999682 0.5239694
vt -0.1666349 0.6431651
vt -0.3333015 0.6431651
vt -0.4999682 0.6431651
vt 3.182888E-05 0.7705068
vt 0.1666985 0.8731491
vt -0.1666349 0.7705068
vt -0.3333015 0.7705068
vt -0.4999682 0.7705068
vt 3.182888E-05 0.8731491
vt 0.3333652 0.9169769
vt -0.1666349 0.8731491
vt -0.3333015 0.8731491
vt -0.4999682 0.8731491
vt 0.1666985 0.9169769
vt 0.5000318 0.9541323
vt 3.182888E-05 0.9169769
vt -0.3333015 0.9169769
vt -0.4999682 0.9169769
vt -0.1666348 0.9169769
vt 0.3333651 0.9541323
vt 0.6666985 0.9789588
vt 0.5 0.9876766
vt 0.5000318 0.9789588
vt 0.5 0.9876766
vt -0.3333015 0.9541323
vt -0.4999682 0.9541323
vt -0.1666349 0.9541323
vt 0.1666985 0.9541323
vt 0.3333651 0.9789588
vt 0.5 0.9876766
vt 3.182888E-05 0.9541323
vt 0.1666985 0.9789588
vt 0.5 0.9876766
vt 3.182888E-05 0.9789588
vt 0.5 0.9876766
vt -0.1666349 0.9789588
vt 0.5 0.9876766
vt -0.3333015 0.9789588
vt 0.5 0.9876766
vt -0.4999682 0.9789588
vt 0.5 0.9876766
vn 0.4223639 0.8730093 -0.2438519
vn 0 1 0
vn 0.2438519 0.8730091 -0.4223639
vn 0.6488287 0.6623406 -0.3746014
vn 0.3746014 0.6623406 -0.6488287
vn 0 0.8730091 -0.4877038
vn 0 1 0
vn 0 0.6623406 -0.7492028
vn 0.4672832 0.3557886 -0.8093583
vn 0 0.3557886 -0.9345664
vn 0.8093583 0.3557886 -0.4672833
vn 0.4992015 0.0564913 -0.8646424
vn 0 0.0564913 -0.9984031
vn 0.8646424 0.05649128 -0.4992015
vn 0.5 0 -0.8660254
vn 0 0 -1
vn 0.8660254 0 -0.5
vn 0.5 0 -0.8660254
vn 0 0 -1
vn 0.8660254 0 -0.5
vn 0.4998253 -0.0264289 -0.8657229
vn 0 -0.02642891 -0.9996507
vn 0.4732291 -0.322824 -0.8196579
vn 0 -0.3228242 -0.946459
vn 0.8196571 -0.322824 -0.4732303
vn 0.8657229 -0.0264289 -0.4998253
vn 0.9464591 -0.3228239 0
vn 0.9996507 -0.02642888 0
vn 0.8196572 -0.322824 0.4732301
vn 1 0 0
vn 0.8657229 -0.0264289 0.4998253
vn 0.4732292 -0.3228242 0.8196576
vn 1 0 0
vn 0.4998253 -0.02642892 0.8657229
vn 0 -0.3228242 0.946459
vn 0.8660254 0 0.5
vn 0.9984031 0.05649129 0
vn 0 -0.02642891 0.9996507
vn -0.4732291 -0.322824 0.8196579
vn 0.5000001 0 0.8660253
vn 0.8660254 0 0.5
vn 0.9345665 0.3557886 0
vn -0.4998253 -0.0264289 0.8657229
vn -0.8196571 -0.322824 0.4732303
vn 0.8646424 0.0564913 0.4992015
vn 0 0 1
vn 0.4999999 0 0.8660254
vn 0.7492028 0.6623406 0
vn -0.8657229 -0.0264289 0.4998253
vn -0.9464591 -0.3228239 0
vn 0.8093582 0.3557887 0.4672832
vn 0.4992015 0.0564913 0.8646424
vn -0.5 0 0.8660254
vn 0 0 1
vn 0.4877038 0.8730091 0
vn 0 1 0
vn -0.9996507 -0.02642888 0
vn -0.8196572 -0.322824 -0.4732301
vn 0.6488287 0.6623406 0.3746014
vn 0.4672832 0.3557887 0.8093583
vn 0 0.0564913 0.9984031
vn -0.8660254 0 0.5
vn -0.5 0 0.8660254
vn -0.8657229 -0.0264289 -0.4998253
vn -0.4732292 -0.3228242 -0.8196576
vn 0.4223639 0.8730091 0.243852
vn 0 1 0
vn 0.3746014 0.6623406 0.6488287
vn 0 0.3557886 0.9345664
vn -0.4992015 0.0564913 0.8646424
vn -1 0 0
vn -0.8660254 0 0.5
vn -0.4998253 -0.02642892 -0.8657229
vn 0 -0.3228242 -0.946459
vn 0 -0.02642891 -0.9996507
vn -0.8660254 0 -0.5
vn -0.5000001 0 -0.8660253
vn 0 0 -1
vn -1 0 0
vn -0.8646424 0.05649128 0.4992015
vn -0.8660254 0 -0.5
vn -0.4999999 0 -0.8660254
vn 0 0 -1
vn -0.9984031 0.05649129 0
vn -0.4672832 0.3557886 0.8093583
vn -0.8646424 0.0564913 -0.4992015
vn -0.4992015 0.0564913 -0.8646424
vn 0 0.0564913 -0.9984031
vn -0.8093583 0.3557887 0.4672833
vn 0 0.6623406 0.7492028
vn -0.9345665 0.3557886 0
vn -0.4672832 0.3557887 -0.8093583
vn 0 0.3557886 -0.9345664
vn -0.8093582 0.3557887 -0.4672832
vn -0.3746014 0.6623406 0.6488287
vn 0.2438519 0.8730091 0.4223638
vn 0 1 0
vn 0 0.8730091 0.4877038
vn 0 1 0
vn -0.3746014 0.6623406 -0.6488287
vn 0 0.6623406 -0.7492028
vn -0.6488287 0.6623406 -0.3746014
vn -0.6488287 0.6623406 0.3746014
vn -0.2438519 0.8730091 0.4223639
vn 0 1 0
vn -0.7492028 0.6623406 0
vn -0.4223639 0.8730093 0.2438519
vn 0 1 0
vn -0.4877038 0.8730091 0
vn 0 1 0
vn -0.4223639 0.8730091 -0.243852
vn 0 1 0
vn -0.2438519 0.8730091 -0.4223638
vn 0 1 0
vn 0 0.8730091 -0.4877038
vn 0 1 0
g mesh_sat_glass_0
f 3/3/3 2/2/2 1/1/1
f 3/3/3 1/1/1 4/4/4
f 5/5/5 3/3/3 4/4/4
f 6/6/6 3/3/3 5/5/5
f 6/6/6 7/7/7 3/3/3
f 8/8/8 6/6/6 5/5/5
f 8/8/8 5/5/5 9/9/9
f 10/10/10 8/8/8 9/9/9
f 5/5/5 4/4/4 11/11/11
f 9/9/9 5/5/5 11/11/11
f 10/10/10 9/9/9 12/12/12
f 13/13/13 10/10/10 12/12/12
f 9/9/9 11/11/11 14/14/14
f 12/12/12 9/9/9 14/14/14
f 12/12/12 15/15/15 13/13/13
f 15/15/15 16/16/16 13/13/13
f 14/14/14 17/17/17 12/12/12
f 17/17/17 15/15/15 12/12/12
f 15/15/15 18/18/18 16/16/16
f 18/18/18 19/19/19 16/16/16
f 17/17/17 20/20/20 15/15/15
f 20/20/20 18/18/18 15/15/15
f 18/18/18 21/21/21 19/19/19
f 21/21/21 22/22/22 19/19/19
f 21/21/21 23/23/23 22/22/22
f 23/23/23 24/24/24 22/22/22
f 25/25/25 23/23/23 21/21/21
f 26/26/26 21/21/21 18/18/18
f 26/26/26 25/25/25 21/21/21
f 20/20/20 26/26/26 18/18/18
f 27/27/27 25/25/25 26/26/26
f 28/28/28 27/27/27 26/26/26
f 28/28/28 26/26/26 20/20/20
f 29/29/29 27/27/27 28/28/28
f 30/30/30 20/20/20 17/17/17
f 30/30/30 28/28/28 20/20/20
f 31/31/31 29/29/29 28/28/28
f 31/31/31 28/28/28 30/30/30
f 32/32/32 29/29/29 31/31/31
f 33/33/33 30/30/30 17/17/17
f 33/33/33 17/17/17 14/14/14
f 34/34/34 32/32/32 31/31/31
f 35/35/35 32/32/32 34/34/34
f 36/36/36 31/31/31 30/30/30
f 36/36/36 30/30/30 33/33/33
f 34/34/34 31/31/31 36/36/36
f 37/37/37 33/33/33 14/14/14
f 14/14/14 11/11/11 37/37/37
f 38/38/38 35/35/35 34/34/34
f 39/39/39 35/35/35 38/38/38
f 40/40/40 34/34/34 36/36/36
f 38/38/38 34/34/34 40/40/40
f 41/41/41 36/36/36 33/33/33
f 41/41/41 33/33/33 37/37/37
f 40/40/40 36/36/36 41/41/41
f 11/11/11 42/42/42 37/37/37
f 11/11/11 4/4/4 42/42/42
f 43/43/43 39/39/39 38/38/38
f 44/44/44 39/39/39 43/43/43
f 45/45/45 41/41/41 37/37/37
f 37/37/37 42/42/42 45/45/45
f 46/46/46 38/38/38 40/40/40
f 43/43/43 38/38/38 46/46/46
f 47/47/47 40/40/40 41/41/41
f 47/47/47 41/41/41 45/45/45
f 46/46/46 40/40/40 47/47/47
f 4/4/4 48/48/48 42/42/42
f 4/4/4 1/1/1 48/48/48
f 49/49/49 44/44/44 43/43/43
f 50/50/50 44/44/44 49/49/49
f 42/42/42 51/51/51 45/45/45
f 42/42/42 48/48/48 51/51/51
f 52/52/52 47/47/47 45/45/45
f 45/45/45 51/51/51 52/52/52
f 53/53/53 43/43/43 46/46/46
f 49/49/49 43/43/43 53/53/53
f 54/54/54 46/46/46 47/47/47
f 54/54/54 47/47/47 52/52/52
f 53/53/53 46/46/46 54/54/54
f 1/1/1 55/55/55 48/48/48
f 1/1/1 56/56/56 55/55/55
f 57/57/57 50/50/50 49/49/49
f 58/58/58 50/50/50 57/57/57
f 48/48/48 59/59/59 51/51/51
f 48/48/48 55/55/55 59/59/59
f 51/51/51 60/60/60 52/52/52
f 51/51/51 59/59/59 60/60/60
f 61/61/61 54/54/54 52/52/52
f 52/52/52 60/60/60 61/61/61
f 62/62/62 49/49/49 53/53/53
f 57/57/57 49/49/49 62/62/62
f 63/63/63 53/53/53 54/54/54
f 63/63/63 54/54/54 61/61/61
f 62/62/62 53/53/53 63/63/63
f 64/64/64 58/58/58 57/57/57
f 65/65/65 58/58/58 64/64/64
f 55/55/55 66/66/66 59/59/59
f 55/55/55 67/67/67 66/66/66
f 59/59/59 68/68/68 60/60/60
f 59/59/59 66/66/66 68/68/68
f 60/60/60 69/69/69 61/61/61
f 60/60/60 68/68/68 69/69/69
f 70/70/70 63/63/63 61/61/61
f 61/61/61 69/69/69 70/70/70
f 71/71/71 57/57/57 62/62/62
f 64/64/64 57/57/57 71/71/71
f 72/72/72 62/62/62 63/63/63
f 72/72/72 63/63/63 70/70/70
f 71/71/71 62/62/62 72/72/72
f 73/73/73 65/65/65 64/64/64
f 74/74/74 65/65/65 73/73/73
f 75/75/75 74/74/74 73/73/73
f 76/76/76 64/64/64 71/71/71
f 73/73/73 64/64/64 76/76/76
f 75/75/75 73/73/73 77/77/77
f 77/77/77 73/73/73 76/76/76
f 78/78/78 75/75/75 77/77/77
f 79/79/79 71/71/71 72/72/72
f 76/76/76 71/71/71 79/79/79
f 80/80/80 72/72/72 70/70/70
f 79/79/79 72/72/72 80/80/80
f 77/77/77 76/76/76 81/81/81
f 81/81/81 76/76/76 79/79/79
f 78/78/78 77/77/77 82/82/82
f 82/82/82 77/77/77 81/81/81
f 83/83/83 78/78/78 82/82/82
f 81/81/81 79/79/79 84/84/84
f 84/84/84 79/79/79 80/80/80
f 70/70/70 85/85/85 80/80/80
f 69/69/69 85/85/85 70/70/70
f 82/82/82 81/81/81 86/86/86
f 86/86/86 81/81/81 84/84/84
f 83/83/83 82/82/82 87/87/87
f 87/87/87 82/82/82 86/86/86
f 88/88/88 83/83/83 87/87/87
f 80/80/80 89/89/89 84/84/84
f 85/85/85 89/89/89 80/80/80
f 69/69/69 90/90/90 85/85/85
f 68/68/68 90/90/90 69/69/69
f 84/84/84 91/91/91 86/86/86
f 89/89/89 91/91/91 84/84/84
f 87/87/87 92/92/92 88/88/88
f 92/92/92 93/93/93 88/88/88
f 86/86/86 94/94/94 87/87/87
f 91/91/91 94/94/94 86/86/86
f 94/94/94 92/92/92 87/87/87
f 85/85/85 95/95/95 89/89/89
f 90/90/90 95/95/95 85/85/85
f 68/68/68 96/96/96 90/90/90
f 66/66/66 96/96/96 68/68/68
f 66/66/66 97/97/97 96/96/96
f 96/96/96 98/98/98 90/90/90
f 90/90/90 98/98/98 95/95/95
f 96/96/96 99/99/99 98/98/98
f 92/92/92 100/100/100 93/93/93
f 100/100/100 101/101/101 93/93/93
f 94/94/94 102/102/102 92/92/92
f 102/102/102 100/100/100 92/92/92
f 95/95/95 103/103/103 89/89/89
f 89/89/89 103/103/103 91/91/91
f 98/98/98 104/104/104 95/95/95
f 95/95/95 104/104/104 103/103/103
f 98/98/98 105/105/105 104/104/104
f 91/91/91 106/106/106 94/94/94
f 103/103/103 106/106/106 91/91/91
f 106/106/106 102/102/102 94/94/94
f 104/104/104 107/107/107 103/103/103
f 103/103/103 107/107/107 106/106/106
f 104/104/104 108/108/108 107/107/107
f 107/107/107 109/109/109 106/106/106
f 106/106/106 109/109/109 102/102/102
f 107/107/107 110/110/110 109/109/109
f 109/109/109 111/111/111 102/102/102
f 102/102/102 111/111/111 100/100/100
f 109/109/109 112/112/112 111/111/111
f 111/111/111 113/113/113 100/100/100
f 111/111/111 114/114/114 113/113/113
f 100/100/100 113/113/113 101/101/101
f 113/113/113 115/115/115 101/101/101
f 113/113/113 116/116/116 115/115/115
