g model_speed_pad_collider
v 0.9073184 0 -0.6592056
v 0.753014 0.2762454 -0.5470969
v 0.3465647 0 -1.066617
v 0.2876257 0.2762454 -0.8852215
v -0.3465649 0 -1.066617
v -0.2876259 0.2762454 -0.8852215
v -0.9073185 0 -0.6592053
v -0.7530142 0.2762454 -0.5470967
v -1.10659 0.2762454 5.019727E-08
v -1.333347 0 7.61173E-08
v -0.9073184 0 0.6592054
v -0.753014 0.2762454 0.5470968
v -0.3465647 0 1.066617
v -0.2876257 0.2762454 0.8852214
v 0.3465648 0 1.066617
v 0.2876258 0.2762454 0.8852213
v 0.9073184 0 0.6592054
v 0.753014 0.2762454 0.5470967
v 1.10659 0.2762454 -5.281325E-09
v 1.333347 0 9.270265E-09
v 0.9073184 0 -0.6592056
v 0.753014 0.2762454 -0.5470969
v 0.753014 0.2762454 -0.5470969
v -1.029237E-07 0.2762454 -4.078763E-08
v 0.2876257 0.2762454 -0.8852215
v 1.10659 0.2762454 -5.281325E-09
v -0.2876259 0.2762454 -0.8852215
v 0.753014 0.2762454 0.5470967
v -0.7530142 0.2762454 -0.5470967
v 0.2876258 0.2762454 0.8852213
v -1.10659 0.2762454 5.019727E-08
v -0.2876257 0.2762454 0.8852214
v -0.753014 0.2762454 0.5470968
vt 0.375 0.3125
vt 0.375 0.6884398
vt 0.4 0.3125
vt 0.4 0.6884398
vt 0.425 0.3125
vt 0.425 0.6884398
vt 0.45 0.3125
vt 0.45 0.6884398
vt 0.475 0.6884398
vt 0.475 0.3125
vt 0.5 0.3125
vt 0.5 0.6884398
vt 0.525 0.3125
vt 0.525 0.6884398
vt 0.55 0.3125
vt 0.55 0.6884398
vt 0.5749999 0.3125
vt 0.5749999 0.6884398
vt 0.5999999 0.6884398
vt 0.5999999 0.3125
vt 0.6249999 0.3125
vt 0.6249999 0.6884398
vt 0.6264089 0.9355915
vt 0.5 0.8375
vt 0.5482839 0.9923526
vt 0.65625 0.84375
vt 0.4517161 0.9923526
vt 0.6264089 0.7519085
vt 0.3735911 0.9355915
vt 0.5482839 0.6951474
vt 0.34375 0.84375
vt 0.4517161 0.6951474
vt 0.3735911 0.7519085
vn 0.6040856 0.5653613 -0.561647
vn 0.2090613 0.9568704 -0.2017236
vn 0.239254 0.5680988 -0.7874143
vn 0.09245332 0.9469122 -0.3079119
vn -0.2692702 0.5680988 -0.7776615
vn -0.1061898 0.9469122 -0.3034486
vn -0.6099504 0.5658485 -0.5547755
vn -0.2009238 0.9612164 -0.188925
vn -0.3566101 0.9342533 0
vn -0.772944 0.6344743 1.48741E-07
vn -0.6040854 0.5653612 0.561647
vn -0.2090613 0.9568704 0.2017237
vn -0.2392539 0.5680988 0.7874143
vn -0.0924533 0.9469122 0.3079119
vn 0.2692702 0.5680987 0.7776616
vn 0.1061898 0.9469122 0.3034486
vn 0.6099504 0.5658485 0.5547757
vn 0.2009237 0.9612164 0.188925
vn 0.35661 0.9342533 0
vn 0.7729442 0.634474 0
vn 0.6040856 0.5653613 -0.561647
vn 0.2090613 0.9568704 -0.2017236
vn 0.2090613 0.9568704 -0.2017236
vn 0 1 0
vn 0.09245332 0.9469122 -0.3079119
vn 0.35661 0.9342533 0
vn -0.1061898 0.9469122 -0.3034486
vn 0.2009237 0.9612164 0.188925
vn -0.2009238 0.9612164 -0.188925
vn 0.1061898 0.9469122 0.3034486
vn -0.3566101 0.9342533 0
vn -0.0924533 0.9469122 0.3079119
vn -0.2090613 0.9568704 0.2017237
g model_speed_pad_collider_0
f 3/3/3 2/2/2 1/1/1
f 3/3/3 4/4/4 2/2/2
f 5/5/5 4/4/4 3/3/3
f 5/5/5 6/6/6 4/4/4
f 7/7/7 6/6/6 5/5/5
f 7/7/7 8/8/8 6/6/6
f 9/9/9 8/8/8 7/7/7
f 9/9/9 7/7/7 10/10/10
f 11/11/11 9/9/9 10/10/10
f 11/11/11 12/12/12 9/9/9
f 13/13/13 12/12/12 11/11/11
f 13/13/13 14/14/14 12/12/12
f 15/15/15 14/14/14 13/13/13
f 15/15/15 16/16/16 14/14/14
f 17/17/17 16/16/16 15/15/15
f 17/17/17 18/18/18 16/16/16
f 19/19/19 18/18/18 17/17/17
f 19/19/19 17/17/17 20/20/20
f 21/21/21 19/19/19 20/20/20
f 21/21/21 22/22/22 19/19/19
f 25/25/25 24/24/24 23/23/23
f 23/23/23 24/24/24 26/26/26
f 27/27/27 24/24/24 25/25/25
f 26/26/26 24/24/24 28/28/28
f 29/29/29 24/24/24 27/27/27
f 28/28/28 24/24/24 30/30/30
f 31/31/31 24/24/24 29/29/29
f 30/30/30 24/24/24 32/32/32
f 33/33/33 24/24/24 31/31/31
f 32/32/32 24/24/24 33/33/33
