g mosaic_DLC_shards_LOD1
v -0.4395187 0.9440559 -0.1768993
v -0.5229989 0.8337477 -0.1808295
v -0.455733 0.9640434 -0.01453578
v -0.4212938 0.729907 0.4284103
v -0.2849874 0.8983243 0.4215136
v -0.4193512 0.9038234 0.2785262
v -0.2634499 0.5093337 -0.5834458
v -0.1878503 0.3934499 -0.6044476
v -0.3363302 0.3510911 -0.5268006
v 0.4695753 0.9459032 -0.03389454
v 0.5047913 0.8209901 -0.2367966
v 0.4341622 0.9103593 -0.2461736
v 0.4238604 0.7420149 0.4156516
v 0.4246716 0.9122725 0.2545023
v 0.2931612 0.9042659 0.4085171
v 0.2148084 0.9362563 -0.4264636
v 0.1912549 0.8381354 -0.5169628
v 0.08612809 0.9632258 -0.4422859
v -0.4395187 0.9440559 -0.1768993
v -0.455733 0.9640434 -0.01453578
v -0.5229989 0.8337477 -0.1808295
v -0.4212938 0.729907 0.4284103
v -0.4193512 0.9038234 0.2785262
v -0.2849874 0.8983243 0.4215136
v -0.2634499 0.5093337 -0.5834458
v -0.3363302 0.3510911 -0.5268006
v -0.1878503 0.3934499 -0.6044476
v 0.4695753 0.9459032 -0.03389454
v 0.4341622 0.9103593 -0.2461736
v 0.5047913 0.8209901 -0.2367966
v 0.4238604 0.7420149 0.4156516
v 0.2931612 0.9042659 0.4085171
v 0.4246716 0.9122725 0.2545023
v 0.2148084 0.9362563 -0.4264636
v 0.08612809 0.9632258 -0.4422859
v 0.1912549 0.8381354 -0.5169628
v -0.04378317 0.7364892 0.5911603
v -0.1017048 0.526948 0.6305768
v 0.1371993 0.7143394 0.5865157
v 0.2214089 0.5381469 0.5956459
v 0.1454072 0.4222326 0.6167307
v -0.04609543 0.4291944 0.6299725
v -0.3886762 1.017003 -0.01621446
v -0.2651443 1.085075 0.01153216
v -0.3353224 0.9948235 -0.1613781
v -0.1834027 1.105696 -0.1158648
v -0.1859455 1.060004 -0.2600416
v -0.2674376 1.014097 -0.2791463
v -0.2707544 0.928999 -0.4008718
v -0.3666111 0.8916361 -0.3601403
v -0.2674376 1.014097 -0.2791463
v -0.4395187 0.9440559 -0.1768993
v -0.3353224 0.9948235 -0.1613781
v -0.3353224 0.9948235 -0.1613781
v -0.4395187 0.9440559 -0.1768993
v -0.3886762 1.017003 -0.01621446
v -0.455733 0.9640434 -0.01453578
v -0.5215797 0.4879697 0.3739445
v -0.5825323 0.510776 0.2656854
v -0.5261359 0.3431091 0.3352653
v -0.6042255 0.3842885 0.1851151
v -0.5596902 0.2407219 0.1879208
v -0.5231972 0.2308873 0.2584543
v -0.2849874 0.8983243 0.4215136
v -0.4212938 0.729907 0.4284103
v -0.226994 0.8116178 0.5174263
v -0.3769554 0.6498499 0.4933273
v -0.3112987 0.6342018 0.5424438
v -0.4949392 0.6779312 0.3679533
v -0.4212938 0.729907 0.4284103
v -0.4922408 0.8067725 0.2792786
v -0.4193512 0.9038234 0.2785262
v -0.5120293 0.3563251 -0.3599269
v -0.5742294 0.4776095 -0.2840029
v -0.463423 0.5118518 -0.4505043
v -0.5476586 0.5969472 -0.3176996
v -0.4879297 0.625163 -0.3950746
v -0.3918508 0.5168893 -0.5091522
v -0.463423 0.5118518 -0.4505043
v -0.3852798 0.6521067 -0.4903988
v -0.4879297 0.625163 -0.3950746
v -0.4317494 0.6972936 -0.4326551
v 0.5876392 0.466545 0.2562377
v 0.6260492 0.5157068 0.151615
v 0.5604193 0.617884 0.285006
v 0.5838968 0.7470236 0.0844965
v 0.5401369 0.7907207 0.1956704
v 0.6260492 0.5157068 0.151615
v 0.5876392 0.466545 0.2562377
v 0.6219423 0.3974828 0.09046876
v 0.5717561 0.2452783 0.1343446
v 0.521376 0.3340154 0.333369
v 0.5250099 0.2217332 0.242748
v 0.260798 1.087944 -0.00596571
v 0.1502565 1.123698 0.04182792
v 0.2857901 1.062651 0.1191648
v 0.08319025 1.083334 0.2488893
v 0.1952104 1.038892 0.2927544
v 0.2148084 0.9362563 -0.4264636
v 0.08612809 0.9632258 -0.4422859
v 0.2287507 1.010661 -0.3171614
v 0.1210339 1.056944 -0.2941288
v 0.02538634 1.012964 -0.3914245
v 0.02084478 1.049233 -0.3421767
v 0.1472307 0.48901 -0.624258
v 0.253266 0.4503167 -0.5852705
v 0.09045011 0.3979875 -0.6220425
v 0.1342612 0.2455327 -0.5718644
v 0.3468436 0.3237374 -0.5120132
v 0.2569115 0.2058759 -0.5134308
v 0.431065 0.3165666 0.4399235
v 0.4479946 0.4811011 0.4638801
v 0.3643813 0.3451748 0.5071349
v 0.3924437 0.4830873 0.5086598
v 0.50871 0.5168484 -0.3923948
v 0.461301 0.5205446 -0.4506384
v 0.4901553 0.6520162 -0.3855922
v 0.4018179 0.6300187 -0.480388
v 0.432611 0.697153 -0.4318297
v -0.04378317 0.7364892 0.5911603
v 0.1371993 0.7143394 0.5865157
v -0.1017048 0.526948 0.6305768
v 0.2214089 0.5381469 0.5956459
v 0.1454072 0.4222326 0.6167307
v -0.04609543 0.4291944 0.6299725
v -0.3886762 1.017003 -0.01621446
v -0.3646942 1.040952 -0.1766893
v -0.2651443 1.085075 0.01153216
v -0.1834027 1.105696 -0.1158648
v -0.1859455 1.060004 -0.2600416
v -0.2674376 1.014097 -0.2791463
v -0.2707544 0.928999 -0.4008718
v -0.2674376 1.014097 -0.2791463
v -0.3666111 0.8916361 -0.3601403
v -0.4395187 0.9440559 -0.1768993
v -0.3646942 1.040952 -0.1766893
v -0.3646942 1.040952 -0.1766893
v -0.3886762 1.017003 -0.01621446
v -0.4395187 0.9440559 -0.1768993
v -0.455733 0.9640434 -0.01453578
v -0.5215797 0.4879697 0.3739445
v -0.5261359 0.3431091 0.3352653
v -0.5825323 0.510776 0.2656854
v -0.6042255 0.3842885 0.1851151
v -0.5596902 0.2407219 0.1879208
v -0.5231972 0.2308873 0.2584543
v -0.2849874 0.8983243 0.4215136
v -0.226994 0.8116178 0.5174263
v -0.4212938 0.729907 0.4284103
v -0.3769554 0.6498499 0.4933273
v -0.3112987 0.6342018 0.5424438
v -0.4949392 0.6779312 0.3679533
v -0.4922408 0.8067725 0.2792786
v -0.4212938 0.729907 0.4284103
v -0.4193512 0.9038234 0.2785262
v -0.5120293 0.3563251 -0.3599269
v -0.463423 0.5118518 -0.4505043
v -0.5742294 0.4776095 -0.2840029
v -0.5476586 0.5969472 -0.3176996
v -0.4879297 0.625163 -0.3950746
v -0.3918508 0.5168893 -0.5091522
v -0.3852798 0.6521067 -0.4903988
v -0.463423 0.5118518 -0.4505043
v -0.4879297 0.625163 -0.3950746
v -0.4317494 0.6972936 -0.4326551
v 0.5876392 0.466545 0.2562377
v 0.5604193 0.617884 0.285006
v 0.6260492 0.5157068 0.151615
v 0.5838968 0.7470236 0.0844965
v 0.5401369 0.7907207 0.1956704
v 0.6260492 0.5157068 0.151615
v 0.6219423 0.3974828 0.09046876
v 0.5876392 0.466545 0.2562377
v 0.5717561 0.2452783 0.1343446
v 0.521376 0.3340154 0.333369
v 0.5250099 0.2217332 0.242748
v 0.260798 1.087944 -0.00596571
v 0.2857901 1.062651 0.1191648
v 0.1502565 1.123698 0.04182792
v 0.08319025 1.083334 0.2488893
v 0.1952104 1.038892 0.2927544
v 0.2148084 0.9362563 -0.4264636
v 0.2287507 1.010661 -0.3171614
v 0.08612809 0.9632258 -0.4422859
v 0.1210339 1.056944 -0.2941288
v 0.02538634 1.012964 -0.3914245
v 0.02084478 1.049233 -0.3421767
v 0.1472307 0.48901 -0.624258
v 0.09045011 0.3979875 -0.6220425
v 0.253266 0.4503167 -0.5852705
v 0.1342612 0.2455327 -0.5718644
v 0.3468436 0.3237374 -0.5120132
v 0.2569115 0.2058759 -0.5134308
v 0.431065 0.3165666 0.4399235
v 0.3643813 0.3451748 0.5071349
v 0.4479946 0.4811011 0.4638801
v 0.3924437 0.4830873 0.5086598
v 0.50871 0.5168484 -0.3923948
v 0.4901553 0.6520162 -0.3855922
v 0.461301 0.5205446 -0.4506384
v 0.4018179 0.6300187 -0.480388
v 0.432611 0.697153 -0.4318297
vt 0.9772094 0.10703
vt 0.9312258 0.1147119
vt 0.9768927 0.04664576
vt 0.8526375 0.1457303
vt 0.9187979 0.1156748
vt 0.9198565 0.1792009
vt 0.5954392 0.5071912
vt 0.6421677 0.4720232
vt 0.6642264 0.5407965
vt 0.2703691 0.9201454
vt 0.3510464 0.8711863
vt 0.3557193 0.9157235
vt 0.1317918 0.8174608
vt 0.1739557 0.8887078
vt 0.1024758 0.8849918
vt 0.1353872 0.2863269
vt 0.1406878 0.327176
vt 0.09175918 0.3005812
vt 0.9772094 0.10703
vt 0.9768927 0.04664576
vt 0.9312258 0.1147119
vt 0.8526375 0.1457303
vt 0.9198565 0.1792009
vt 0.9187979 0.1156748
vt 0.5954392 0.5071912
vt 0.6642264 0.5407965
vt 0.6421677 0.4720232
vt 0.2703691 0.9201454
vt 0.3557193 0.9157235
vt 0.3510464 0.8711863
vt 0.1317918 0.8174608
vt 0.1024758 0.8849918
vt 0.1739557 0.8887078
vt 0.1353872 0.2863269
vt 0.09175918 0.3005812
vt 0.1406878 0.327176
vt 0.2850282 0.3298558
vt 0.1949934 0.3585947
vt 0.2777373 0.2519969
vt 0.2006959 0.2159857
vt 0.1489144 0.2499267
vt 0.1560978 0.3330084
vt 0.5668616 0.3679254
vt 0.6178807 0.3538504
vt 0.5834144 0.4237835
vt 0.6533988 0.4010068
vt 0.6473432 0.4587489
vt 0.6149756 0.4634543
vt 0.9124559 0.8043795
vt 0.8883595 0.7799476
vt 0.9405872 0.7720553
vt 0.9050717 0.7267243
vt 0.9341305 0.7335476
vt 0.6993251 0.9851583
vt 0.6668832 0.9822152
vt 0.6996749 0.9361894
vt 0.6770726 0.9295586
vt 0.4659467 0.5890893
vt 0.4796105 0.6388499
vt 0.4108233 0.6052446
vt 0.432882 0.6740179
vt 0.3752065 0.6679007
vt 0.3703907 0.6359015
vt 0.4485706 0.9074976
vt 0.3845546 0.9246054
vt 0.4290876 0.8725327
vt 0.3668185 0.9025407
vt 0.3685058 0.8757264
vt 0.1935668 0.8657303
vt 0.2166127 0.8445146
vt 0.2331908 0.9036208
vt 0.2753223 0.8985159
vt 0.7240383 0.4859877
vt 0.7695889 0.4462176
vt 0.7785295 0.5202439
vt 0.8141336 0.4624497
vt 0.8213167 0.4959059
vt 0.009308487 0.9914092
vt 0.0078125 0.9664519
vt 0.05689293 0.9904154
vt 0.04629743 0.9444399
vt 0.07240307 0.9637543
vt 0.5098804 0.3783745
vt 0.5568587 0.3902615
vt 0.4954176 0.4263897
vt 0.5812969 0.4784097
vt 0.5307683 0.5000726
vt 0.4929381 0.3747936
vt 0.4472081 0.3593917
vt 0.5170513 0.3369533
vt 0.4966388 0.2712032
vt 0.4096848 0.3079305
vt 0.4478415 0.2591534
vt 0.5777701 0.1300754
vt 0.5305958 0.1168674
vt 0.5933941 0.08203398
vt 0.5079203 0.0282051
vt 0.5590022 0.0078125
vt 0.8484879 0.8361989
vt 0.7966661 0.8404754
vt 0.8525379 0.7892013
vt 0.8084606 0.7731428
vt 0.7722147 0.8165109
vt 0.7686908 0.791785
vt 0.3453853 0.4823665
vt 0.3607871 0.4366364
vt 0.3832256 0.5064797
vt 0.4489757 0.4860672
vt 0.4122484 0.3991132
vt 0.4610254 0.4372699
vt 0.2135975 0.9116964
vt 0.2119078 0.9714114
vt 0.179278 0.9206445
vt 0.186899 0.9702488
vt 0.9343075 0.8039517
vt 0.9601249 0.8055035
vt 0.9294397 0.8529465
vt 0.9779702 0.8477536
vt 0.9549026 0.8721754
vt 0.2850282 0.3298558
vt 0.2777373 0.2519969
vt 0.1949934 0.3585947
vt 0.2006959 0.2159857
vt 0.1489144 0.2499267
vt 0.1560978 0.3330084
vt 0.5668616 0.3679254
vt 0.5834144 0.4237835
vt 0.6178807 0.3538504
vt 0.6533988 0.4010068
vt 0.6473432 0.4587489
vt 0.6149756 0.4634543
vt 0.9124559 0.8043795
vt 0.9405872 0.7720553
vt 0.8883595 0.7799476
vt 0.9050717 0.7267243
vt 0.9341305 0.7335476
vt 0.6993251 0.9851583
vt 0.6996749 0.9361894
vt 0.6668832 0.9822152
vt 0.6770726 0.9295586
vt 0.4659467 0.5890893
vt 0.4108233 0.6052446
vt 0.4796105 0.6388499
vt 0.432882 0.6740179
vt 0.3752065 0.6679007
vt 0.3703907 0.6359015
vt 0.4485706 0.9074976
vt 0.4290876 0.8725327
vt 0.3845546 0.9246054
vt 0.3668185 0.9025407
vt 0.3685058 0.8757264
vt 0.1935668 0.8657303
vt 0.2331908 0.9036208
vt 0.2166127 0.8445146
vt 0.2753223 0.8985159
vt 0.7240383 0.4859877
vt 0.7785295 0.5202439
vt 0.7695889 0.4462176
vt 0.8141336 0.4624497
vt 0.8213167 0.4959059
vt 0.009308487 0.9914092
vt 0.05689293 0.9904154
vt 0.0078125 0.9664519
vt 0.04629743 0.9444399
vt 0.07240307 0.9637543
vt 0.5098804 0.3783745
vt 0.4954176 0.4263897
vt 0.5568587 0.3902615
vt 0.5812969 0.4784097
vt 0.5307683 0.5000726
vt 0.4929381 0.3747936
vt 0.5170513 0.3369533
vt 0.4472081 0.3593917
vt 0.4966388 0.2712032
vt 0.4096848 0.3079305
vt 0.4478415 0.2591534
vt 0.5777701 0.1300754
vt 0.5933941 0.08203398
vt 0.5305958 0.1168674
vt 0.5079203 0.0282051
vt 0.5590022 0.0078125
vt 0.8484879 0.8361989
vt 0.8525379 0.7892013
vt 0.7966661 0.8404754
vt 0.8084606 0.7731428
vt 0.7722147 0.8165109
vt 0.7686908 0.791785
vt 0.3453853 0.4823665
vt 0.3832256 0.5064797
vt 0.3607871 0.4366364
vt 0.4489757 0.4860672
vt 0.4122484 0.3991132
vt 0.4610254 0.4372699
vt 0.2135975 0.9116964
vt 0.179278 0.9206445
vt 0.2119078 0.9714114
vt 0.186899 0.9702488
vt 0.9343075 0.8039517
vt 0.9294397 0.8529465
vt 0.9601249 0.8055035
vt 0.9779702 0.8477536
vt 0.9549026 0.8721754
vn 0.6151274 -0.7458566 0.25557
vn 0.7854745 -0.5998655 0.1522862
vn 0.6899889 -0.7068272 0.1559183
vn 0.5981467 -0.4476848 -0.6646795
vn 0.5725205 -0.4902733 -0.6571547
vn 0.6267281 -0.5127153 -0.5868005
vn 0.4328309 0.120457 0.893391
vn 0.4328309 0.120457 0.893391
vn 0.4328309 0.120457 0.8933911
vn -0.7754019 -0.5888862 0.227958
vn -0.7754019 -0.5888863 0.227958
vn -0.7754019 -0.5888863 0.227958
vn -0.6299264 -0.5322976 -0.5655545
vn -0.6299264 -0.5322976 -0.5655545
vn -0.6299264 -0.5322976 -0.5655546
vn -0.2313017 -0.7193206 0.65504
vn -0.2236165 -0.6312663 0.7426295
vn -0.2213605 -0.7562875 0.615653
vn -0.7092782 0.6508736 -0.2707175
vn -0.6899891 0.7068271 -0.155918
vn -0.7854747 0.5998654 -0.152286
vn -0.5981469 0.4476847 0.6646793
vn -0.6267283 0.5127152 0.5868004
vn -0.5725206 0.4902732 0.6571546
vn -0.4328309 -0.1204571 -0.893391
vn -0.4328309 -0.1204571 -0.893391
vn -0.4328309 -0.1204571 -0.893391
vn 0.7754019 0.5888862 -0.227958
vn 0.7754019 0.5888863 -0.227958
vn 0.7754019 0.5888863 -0.227958
vn 0.6299266 0.5322976 0.5655546
vn 0.6299264 0.5322975 0.5655546
vn 0.6299266 0.5322975 0.5655546
vn 0.2313018 0.7193205 -0.6550401
vn 0.2213606 0.7562875 -0.6156531
vn 0.2236166 0.6312662 -0.7426295
vn -0.04633684 -0.1722825 -0.9839571
vn -0.08312166 -0.1139225 -0.9900063
vn -0.08720921 -0.1213078 -0.9887765
vn -0.1033049 -0.1046534 -0.9891288
vn -0.09992344 -0.1049731 -0.9894422
vn -0.07016379 -0.03375017 -0.9969644
vn 0.461352 -0.8505932 0.2522806
vn 0.4893336 -0.8386667 0.2391464
vn 0.4558627 -0.8645166 0.2116611
vn 0.5283166 -0.8177168 0.2285189
vn 0.5091457 -0.8317196 0.2213892
vn 0.510242 -0.7997414 0.3163332
vn 0.4894723 -0.7208949 0.4906398
vn 0.5298721 -0.7226611 0.4438428
vn 0.510242 -0.7997414 0.3163332
vn 0.6151274 -0.7458566 0.25557
vn 0.4558627 -0.8645166 0.2116611
vn 0.4558627 -0.8645166 0.2116611
vn 0.6151274 -0.7458566 0.25557
vn 0.461352 -0.8505932 0.2522806
vn 0.6899889 -0.7068272 0.1559183
vn 0.8758703 0.09857862 -0.4723699
vn 0.8870067 0.1125039 -0.4478413
vn 0.8872398 0.1800418 -0.424724
vn 0.8912535 0.1919676 -0.4108719
vn 0.8789017 0.2739346 -0.3905019
vn 0.8637156 0.299866 -0.4050626
vn 0.5725205 -0.4902733 -0.6571547
vn 0.5981467 -0.4476848 -0.6646795
vn 0.5175145 -0.4182099 -0.7465114
vn 0.5075676 -0.3534651 -0.7857719
vn 0.5056765 -0.3513927 -0.7879178
vn 0.7332379 -0.3958617 -0.5528615
vn 0.5981467 -0.4476848 -0.6646795
vn 0.6742784 -0.4748818 -0.5655406
vn 0.6267281 -0.5127153 -0.5868005
vn 0.8237208 0.07023467 0.5626288
vn 0.8298365 0.02520107 0.5574371
vn 0.7718977 -0.06321061 0.6325966
vn 0.8286335 -0.04990367 0.5575626
vn 0.7465127 -0.1537667 0.6473597
vn 0.6336139 -0.1364078 0.7615289
vn 0.7718977 -0.06321061 0.6325966
vn 0.6792251 -0.1731305 0.7132174
vn 0.7465127 -0.1537667 0.6473597
vn 0.6942825 -0.1773468 0.6975098
vn -0.9309635 0.1471606 -0.3341419
vn -0.9497564 -0.09948171 -0.2967593
vn -0.931421 -0.2207618 -0.2893425
vn -0.9308358 -0.2478007 -0.2685881
vn -0.9306827 -0.2481509 -0.2687954
vn -0.9497564 -0.09948171 -0.2967593
vn -0.9309635 0.1471606 -0.3341419
vn -0.9349381 0.2143276 -0.2827621
vn -0.9167745 0.2402851 -0.3190415
vn -0.9054042 0.2521052 -0.3415936
vn -0.9086466 0.2440499 -0.3388232
vn -0.3512766 -0.9288579 -0.1175919
vn -0.2858935 -0.9295686 -0.2327379
vn -0.2831492 -0.9294429 -0.2365638
vn -0.2647737 -0.9269789 -0.2657161
vn -0.2642332 -0.9273932 -0.264807
vn -0.2313017 -0.7193206 0.65504
vn -0.2213605 -0.7562875 0.615653
vn -0.2279565 -0.7955152 0.5614191
vn -0.2176223 -0.8004239 0.5585357
vn -0.1980573 -0.805344 0.5587435
vn -0.2106442 -0.7963072 0.5670308
vn -0.2751735 0.194572 0.9414995
vn -0.3220322 0.2441143 0.914715
vn -0.281696 0.2202122 0.9338918
vn -0.3250732 0.2473471 0.9127688
vn -0.3492405 0.2604728 0.9001027
vn -0.3476749 0.2544323 0.9024335
vn -0.6609319 0.1742851 -0.7299272
vn -0.6397706 0.1539272 -0.7529941
vn -0.6536515 0.1672079 -0.738093
vn -0.6189653 0.1345029 -0.7738158
vn -0.77246 -0.1372426 0.6200565
vn -0.7300933 -0.1675359 0.6624918
vn -0.7131366 -0.1771832 0.6782643
vn -0.6964272 -0.1879185 0.6925864
vn -0.6982815 -0.1807003 0.6926402
vn 0.0463367 0.1722825 0.9839571
vn 0.08720917 0.1213078 0.9887765
vn 0.08312164 0.1139225 0.9900063
vn 0.1033048 0.1046535 0.9891289
vn 0.09992335 0.1049731 0.9894422
vn 0.0701642 0.03375017 0.9969643
vn -0.5929066 0.8051916 -0.01132301
vn -0.5408773 0.7953144 -0.2737277
vn -0.3875935 0.9217638 -0.01108419
vn -0.2830405 0.9452376 -0.1625235
vn -0.2561041 0.9038939 -0.3426173
vn -0.4830739 0.7201916 -0.4979596
vn -0.4894724 0.7208949 -0.4906398
vn -0.4830739 0.7201916 -0.4979596
vn -0.5298721 0.7226611 -0.4438428
vn -0.7092782 0.6508736 -0.2707175
vn -0.5408773 0.7953144 -0.2737277
vn -0.5408773 0.7953144 -0.2737277
vn -0.5929066 0.8051916 -0.01132301
vn -0.7092782 0.6508736 -0.2707175
vn -0.6899891 0.7068271 -0.155918
vn -0.8758703 -0.09857862 0.4723699
vn -0.8872398 -0.180042 0.4247241
vn -0.8870067 -0.1125039 0.4478414
vn -0.8912534 -0.1919677 0.4108719
vn -0.8789016 -0.2739349 0.3905017
vn -0.8637154 -0.2998667 0.4050624
vn -0.5725206 0.4902732 0.6571546
vn -0.5175145 0.4182099 0.7465113
vn -0.5981469 0.4476847 0.6646793
vn -0.5075678 0.3534653 0.7857717
vn -0.5056767 0.3513928 0.7879177
vn -0.7332379 0.3958615 0.5528615
vn -0.6742784 0.4748816 0.5655405
vn -0.5981469 0.4476847 0.6646793
vn -0.6267283 0.5127152 0.5868004
vn -0.8237208 -0.07023467 -0.5626288
vn -0.7718976 0.06321058 -0.6325966
vn -0.8298365 -0.02520122 -0.5574372
vn -0.8286335 0.04990348 -0.5575627
vn -0.7465128 0.1537668 -0.6473596
vn -0.6336136 0.1364079 -0.7615292
vn -0.6792251 0.1731305 -0.7132174
vn -0.7718976 0.06321058 -0.6325966
vn -0.7465128 0.1537668 -0.6473596
vn -0.6942828 0.177347 -0.6975094
vn 0.9309635 -0.1471606 0.334142
vn 0.9314209 0.2207619 0.2893426
vn 0.9497564 0.0994818 0.2967594
vn 0.9308357 0.2478007 0.2685881
vn 0.9306826 0.2481509 0.2687955
vn 0.9497564 0.0994818 0.2967594
vn 0.9349381 -0.2143274 0.2827621
vn 0.9309635 -0.1471606 0.334142
vn 0.9167745 -0.2402851 0.3190416
vn 0.9054042 -0.2521054 0.3415937
vn 0.9086466 -0.2440499 0.3388232
vn 0.3512766 0.9288579 0.1175917
vn 0.2831492 0.9294429 0.2365636
vn 0.2858934 0.9295686 0.2327378
vn 0.2647736 0.9269789 0.2657157
vn 0.2642333 0.9273933 0.2648064
vn 0.2313018 0.7193205 -0.6550401
vn 0.2279565 0.7955154 -0.5614188
vn 0.2213606 0.7562875 -0.6156531
vn 0.2176224 0.8004241 -0.5585353
vn 0.1980573 0.8053439 -0.5587437
vn 0.2106443 0.7963074 -0.5670304
vn 0.2751736 -0.194572 -0.9414994
vn 0.281696 -0.2202122 -0.9338918
vn 0.3220325 -0.2441143 -0.9147149
vn 0.3250732 -0.2473471 -0.9127687
vn 0.3492408 -0.2604728 -0.9001026
vn 0.3476746 -0.2544323 -0.9024338
vn 0.6609321 -0.1742851 0.7299271
vn 0.6536516 -0.1672079 0.7380928
vn 0.6397706 -0.1539273 0.7529939
vn 0.6189654 -0.134503 0.7738157
vn 0.77246 0.1372426 -0.6200565
vn 0.7131366 0.1771833 -0.6782643
vn 0.7300934 0.1675359 -0.6624917
vn 0.6964272 0.1879186 -0.6925863
vn 0.6982813 0.1807008 -0.6926402
g mosaic_DLC_shards_LOD1_0
f 3/3/3 2/2/2 1/1/1
f 6/6/6 5/5/5 4/4/4
f 9/9/9 8/8/8 7/7/7
f 12/12/12 11/11/11 10/10/10
f 15/15/15 14/14/14 13/13/13
f 18/18/18 17/17/17 16/16/16
f 21/21/21 20/20/20 19/19/19
f 24/24/24 23/23/23 22/22/22
f 27/27/27 26/26/26 25/25/25
f 30/30/30 29/29/29 28/28/28
f 33/33/33 32/32/32 31/31/31
f 36/36/36 35/35/35 34/34/34
f 39/39/39 38/38/38 37/37/37
f 40/40/40 38/38/38 39/39/39
f 41/41/41 38/38/38 40/40/40
f 41/41/41 42/42/42 38/38/38
f 45/45/45 44/44/44 43/43/43
f 45/45/45 46/46/46 44/44/44
f 45/45/45 47/47/47 46/46/46
f 45/45/45 48/48/48 47/47/47
f 51/51/51 50/50/50 49/49/49
f 51/51/51 52/52/52 50/50/50
f 51/51/51 53/53/53 52/52/52
f 56/56/56 55/55/55 54/54/54
f 57/57/57 55/55/55 56/56/56
f 60/60/60 59/59/59 58/58/58
f 60/60/60 61/61/61 59/59/59
f 60/60/60 62/62/62 61/61/61
f 60/60/60 63/63/63 62/62/62
f 66/66/66 65/65/65 64/64/64
f 66/66/66 67/67/67 65/65/65
f 66/66/66 68/68/68 67/67/67
f 71/71/71 70/70/70 69/69/69
f 72/72/72 70/70/70 71/71/71
f 75/75/75 74/74/74 73/73/73
f 75/75/75 76/76/76 74/74/74
f 77/77/77 76/76/76 75/75/75
f 80/80/80 79/79/79 78/78/78
f 80/80/80 81/81/81 79/79/79
f 80/80/80 82/82/82 81/81/81
f 85/85/85 84/84/84 83/83/83
f 85/85/85 86/86/86 84/84/84
f 87/87/87 86/86/86 85/85/85
f 90/90/90 89/89/89 88/88/88
f 91/91/91 89/89/89 90/90/90
f 91/91/91 92/92/92 89/89/89
f 91/91/91 93/93/93 92/92/92
f 96/96/96 95/95/95 94/94/94
f 96/96/96 97/97/97 95/95/95
f 98/98/98 97/97/97 96/96/96
f 101/101/101 100/100/100 99/99/99
f 102/102/102 100/100/100 101/101/101
f 102/102/102 103/103/103 100/100/100
f 102/102/102 104/104/104 103/103/103
f 107/107/107 106/106/106 105/105/105
f 108/108/108 106/106/106 107/107/107
f 108/108/108 109/109/109 106/106/106
f 108/108/108 110/110/110 109/109/109
f 113/113/113 112/112/112 111/111/111
f 114/114/114 112/112/112 113/113/113
f 117/117/117 116/116/116 115/115/115
f 117/117/117 118/118/118 116/116/116
f 117/117/117 119/119/119 118/118/118
f 122/122/122 121/121/121 120/120/120
f 122/122/122 123/123/123 121/121/121
f 122/122/122 124/124/124 123/123/123
f 125/125/125 124/124/124 122/122/122
f 128/128/128 127/127/127 126/126/126
f 129/129/129 127/127/127 128/128/128
f 130/130/130 127/127/127 129/129/129
f 131/131/131 127/127/127 130/130/130
f 134/134/134 133/133/133 132/132/132
f 135/135/135 133/133/133 134/134/134
f 136/136/136 133/133/133 135/135/135
f 139/139/139 138/138/138 137/137/137
f 139/139/139 140/140/140 138/138/138
f 143/143/143 142/142/142 141/141/141
f 144/144/144 142/142/142 143/143/143
f 145/145/145 142/142/142 144/144/144
f 146/146/146 142/142/142 145/145/145
f 149/149/149 148/148/148 147/147/147
f 150/150/150 148/148/148 149/149/149
f 151/151/151 148/148/148 150/150/150
f 154/154/154 153/153/153 152/152/152
f 154/154/154 155/155/155 153/153/153
f 158/158/158 157/157/157 156/156/156
f 159/159/159 157/157/157 158/158/158
f 159/159/159 160/160/160 157/157/157
f 163/163/163 162/162/162 161/161/161
f 164/164/164 162/162/162 163/163/163
f 165/165/165 162/162/162 164/164/164
f 168/168/168 167/167/167 166/166/166
f 169/169/169 167/167/167 168/168/168
f 169/169/169 170/170/170 167/167/167
f 173/173/173 172/172/172 171/171/171
f 173/173/173 174/174/174 172/172/172
f 175/175/175 174/174/174 173/173/173
f 176/176/176 174/174/174 175/175/175
f 179/179/179 178/178/178 177/177/177
f 180/180/180 178/178/178 179/179/179
f 180/180/180 181/181/181 178/178/178
f 184/184/184 183/183/183 182/182/182
f 184/184/184 185/185/185 183/183/183
f 186/186/186 185/185/185 184/184/184
f 187/187/187 185/185/185 186/186/186
f 190/190/190 189/189/189 188/188/188
f 190/190/190 191/191/191 189/189/189
f 192/192/192 191/191/191 190/190/190
f 193/193/193 191/191/191 192/192/192
f 196/196/196 195/195/195 194/194/194
f 196/196/196 197/197/197 195/195/195
f 200/200/200 199/199/199 198/198/198
f 201/201/201 199/199/199 200/200/200
f 202/202/202 199/199/199 201/201/201
