g net
v 0.0841238 1.586661 0.2709091
v 1.91222E-07 1.72649 0.2531247
v 1.895671E-07 1.586661 0.2626236
v 0.08597695 1.72649 0.2615927
v 0.1650146 1.586661 0.2954471
v 9.97304E-08 1.915192 0.2393567
v 0.1686497 1.72649 0.2866712
v 0.2395639 1.586661 0.3352946
v 0.1200132 1.915192 0.2481084
v 0 2.11842 0.2178964
v 0.2448413 1.72649 0.3273966
v 0.304907 1.586661 0.3889203
v 0.2336195 1.915192 0.268325
v 0.1646449 2.11842 0.2223363
v 0.3116237 1.72649 0.3822035
v 0.3585326 1.586661 0.4542634
v 0.1896095 2.245758 0.1991463
v 0 2.245758 0.1991463
v 0.3190655 2.11842 0.2314305
v 0.3674444 2.245758 0.1991463
v 0.5277741 2.245758 0.1991463
v 0.3134921 1.915192 0.2951576
v 0.3664307 1.72649 0.4489861
v 0.39838 1.586661 0.5288128
v 0.4326838 2.11842 0.2471212
v 0.392044 1.915192 0.3435095
v 0.5035129 2.11842 0.2812608
v 0.579859 2.245758 0.2207206
v 0.4071559 1.72649 0.5251778
v 0.4229179 1.586661 0.6097036
v 0.4288374 1.915192 0.4105911
v 0.5222467 2.11842 0.3333062
v 0.6014333 2.245758 0.2728055
v 0.6014333 2.245758 0.4089928
v 0.4322343 1.72649 0.6078504
v 0.4312038 1.586661 0.693827
v 0.4407028 1.72649 0.693827
v 0.4497662 1.915192 0.4922789
v 0.4626541 1.915192 0.588895
v 0.467006 1.915192 0.6875432
v 0.5222467 2.11842 0.4447444
v 0.5222467 2.11842 0.5622751
v 0.5222467 2.11842 0.6805314
v 0.6014333 2.245758 0.5443443
v 0.6014333 2.245758 0.6805314
v -0.4229181 1.586661 0.6097032
v -0.4407026 1.72649 0.6938269
v -0.4312036 1.586661 0.6938269
v -0.4322345 1.72649 0.6078501
v -0.39838 1.586661 0.5288124
v -0.4670059 1.915192 0.687543
v -0.4071559 1.72649 0.5251774
v -0.3585325 1.586661 0.454263
v -0.4626542 1.915192 0.5888947
v -0.5222467 2.11842 0.6805314
v -0.3664306 1.72649 0.4489857
v -0.3049068 1.586661 0.38892
v -0.4497663 1.915192 0.4922787
v -0.5222467 2.11842 0.5622751
v -0.3116236 1.72649 0.3822033
v -0.2395636 1.586661 0.3352944
v -0.6014333 2.245758 0.5443443
v -0.6014333 2.245758 0.6805314
v -0.5222467 2.11842 0.4447444
v -0.6014333 2.245758 0.4089928
v -0.6014333 2.245758 0.2728055
v -0.4288374 1.915192 0.4105909
v -0.244841 1.72649 0.3273963
v -0.1650142 1.586661 0.2954469
v -0.5222467 2.11842 0.3333062
v -0.3920439 1.915192 0.3435093
v -0.5035129 2.11842 0.2812608
v -0.579859 2.245758 0.2207206
v -0.1686493 1.72649 0.286671
v -0.08412342 1.586661 0.270909
v -0.313492 1.915192 0.2951574
v -0.4326838 2.11842 0.2471212
v -0.5277741 2.245758 0.1991463
v -0.08597657 1.72649 0.2615926
v 1.895671E-07 1.586661 0.2626236
v 1.91222E-07 1.72649 0.2531247
v -0.2336193 1.915192 0.2683249
v -0.3190655 2.11842 0.2314305
v -0.3674444 2.245758 0.1991463
v -0.1200131 1.915192 0.2481084
v 9.97304E-08 1.915192 0.2393567
v -0.1646449 2.11842 0.2223363
v -0.1896095 2.245758 0.1991463
v 0 2.11842 0.2178964
v 0 2.245758 0.1991463
v -0.08412373 1.586661 1.116745
v -7.802426E-08 1.72649 1.13453
v -7.387585E-08 1.586661 1.125031
v -0.08597689 1.72649 1.126062
v -0.1650146 1.586661 1.092207
v 5.175225E-09 1.915192 1.154219
v -0.1686497 1.72649 1.100983
v -0.239564 1.586661 1.05236
v -0.09104387 1.915192 1.145251
v 9.512446E-08 2.11842 1.20206
v -0.2448413 1.72649 1.060258
v -0.3049071 1.586661 0.9987339
v -0.178589 1.915192 1.118695
v -0.1017452 2.11842 1.19204
v 1.095479E-07 2.245758 1.281138
v -0.1171725 2.245758 1.269598
v -0.1995805 2.11842 1.162362
v -0.2298423 2.245758 1.23542
v -0.3116239 1.72649 1.005451
v -0.3585328 1.586661 0.9333908
v -0.259271 1.915192 1.07557
v -0.289746 2.11842 1.114167
v -0.3336793 2.245758 1.179918
v -0.3664308 1.72649 0.9386682
v -0.3983802 1.586661 0.8588414
v -0.3299895 1.915192 1.017532
v -0.3687769 2.11842 1.049308
v -0.4246933 2.245758 1.105225
v -0.4071561 1.72649 0.8624765
v -0.4229182 1.586661 0.7779506
v -0.3880265 1.915192 0.9468141
v -0.4336357 2.11842 0.9702777
v -0.4993865 2.245758 1.014211
v -0.4322346 1.72649 0.7798036
v -0.4312036 1.586661 0.6938269
v -0.4407026 1.72649 0.6938269
v -0.4311519 1.915192 0.866132
v -0.4818302 2.11842 0.8801121
v -0.5548886 2.245758 0.9103738
v -0.4577085 1.915192 0.7785869
v -0.4670059 1.915192 0.687543
v -0.5115082 2.11842 0.7822769
v -0.5890666 2.245758 0.7977042
v -0.5222467 2.11842 0.6805314
v -0.6014333 2.245758 0.6805314
v 0.4229183 1.586661 0.7779507
v 0.4407028 1.72649 0.693827
v 0.4312038 1.586661 0.693827
v 0.4322348 1.72649 0.7798038
v 0.3983803 1.586661 0.8588415
v 0.467006 1.915192 0.6875432
v 0.4071563 1.72649 0.8624766
v 0.3585328 1.586661 0.9333911
v 0.4577085 1.915192 0.7785869
v 0.5222467 2.11842 0.6805314
v 0.3664309 1.72649 0.9386684
v 0.3049071 1.586661 0.9987341
v 0.5115081 2.11842 0.7822766
v 0.6014333 2.245758 0.6805314
v 0.5890665 2.245758 0.7977039
v 0.431152 1.915192 0.866132
v 0.4818301 2.11842 0.8801118
v 0.5548885 2.245758 0.9103737
v 0.3116238 1.72649 1.005451
v 0.2395639 1.586661 1.05236
v 0.3880265 1.915192 0.9468141
v 0.4336357 2.11842 0.9702774
v 0.4993865 2.245758 1.014211
v 0.2448413 1.72649 1.060258
v 0.1650145 1.586661 1.092207
v 0.3299895 1.915192 1.017532
v 0.3687769 2.11842 1.049308
v 0.4246934 2.245758 1.105225
v 0.1686496 1.72649 1.100983
v 0.08412361 1.586661 1.116745
v 0.2592711 1.915192 1.07557
v 0.2897462 2.11842 1.114167
v 0.3336795 2.245758 1.179918
v 0.08597676 1.72649 1.126062
v -7.387585E-08 1.586661 1.125031
v -7.802426E-08 1.72649 1.13453
v 0.178589 1.915192 1.118695
v 0.1995807 2.11842 1.162362
v 0.2298425 2.245758 1.23542
v 0.09104389 1.915192 1.145251
v 5.175225E-09 1.915192 1.154219
v 0.1017454 2.11842 1.192039
v 0.1171727 2.245758 1.269598
v 9.512446E-08 2.11842 1.20206
v 1.095479E-07 2.245758 1.281138
vt 0.8750584 0
vt 1 0.212153
vt 1 0
vt 0.8750584 0.212153
vt 0.75 0
vt 1 0.4984563
vt 0.75 0.212153
vt 0.6258875 0
vt 0.845767 0.4984563
vt 1 0.8046209
vt 0.6258875 0.212153
vt 0.5 0
vt 0.6996068 0.4984563
vt 0.8045138 0.8046209
vt 0.5 0.212153
vt 0.3753918 0
vt 0.774035 1
vt 1 1
vt 0.6363301 0.8046209
vt 0.6014373 1
vt 0.4841226 1
vt 0.5928802 0.4984563
vt 0.3753918 0.212153
vt 0.25 0
vt 0.5200903 0.8046209
vt 0.4758601 0.4984563
vt 0.4424254 0.8046209
vt 0.4393685 1
vt 0.25 0.212153
vt 0.1264664 0
vt 0.3781414 0.4984563
vt 0.3871516 0.8046209
vt 0.3928866 1
vt 0.2882884 1
vt 0.1264664 0.212153
vt 0 0
vt 0 0.212153
vt 0.2693094 0.4984563
vt 0.1410145 0.4984563
vt 0 0.4984563
vt 0.2752491 0.8046209
vt 0.1475991 0.8046209
vt 0 0.8046209
vt 0.1628777 1
vt 0 1
vt 0.8750584 0
vt 0.9999999 0.212153
vt 1 0
vt 0.8750583 0.212153
vt 0.75 0
vt 1 0.4984563
vt 0.75 0.212153
vt 0.6258878 0
vt 0.8631132 0.4984563
vt 0.9999999 0.8046209
vt 0.6258879 0.212153
vt 0.4999999 0
vt 0.7335279 0.4984563
vt 0.8564626 0.8046209
vt 0.4999999 0.212153
vt 0.3753918 0
vt 0.8410306 1
vt 1 1
vt 0.7275286 0.8046209
vt 0.714358 1
vt 0.6087074 1
vt 0.6236005 0.4984563
vt 0.3753917 0.212153
vt 0.25 0
vt 0.6145 0.8046209
vt 0.524899 0.4984563
vt 0.5586703 0.8046209
vt 0.5617577 1
vt 0.25 0.212153
vt 0.1264664 0
vt 0.4067014 0.4984563
vt 0.4802239 0.8046209
vt 0.5165532 1
vt 0.1264664 0.212153
vt 0 0
vt 0 0.212153
vt 0.2989013 0.4984563
vt 0.3628147 0.8046209
vt 0.3980587 1
vt 0.1512705 0.4984563
vt 0 0.4984563
vt 0.192939 0.8046209
vt 0.2237251 1
vt 0 0.8046209
vt 0 1
vt 0.8750584 0
vt 1 0.212153
vt 1 0
vt 0.8750584 0.212153
vt 0.75 0
vt 1 0.4984563
vt 0.75 0.212153
vt 0.6258876 0
vt 0.8731463 0.4984563
vt 1 0.8046209
vt 0.6258876 0.212153
vt 0.5000001 0
vt 0.7462631 0.4984563
vt 0.8664687 0.8046209
vt 1 1
vt 0.8524784 1
vt 0.7367577 0.8046209
vt 0.7186202 1
vt 0.5 0.212153
vt 0.3753918 0
vt 0.6201174 0.4984563
vt 0.6126462 0.8046209
vt 0.6026424 1
vt 0.3753918 0.212153
vt 0.25 0
vt 0.4955499 0.4984563
vt 0.493149 0.8046209
vt 0.5006628 1
vt 0.2500001 0.212153
vt 0.1264664 0
vt 0.3711942 0.4984563
vt 0.3722298 0.8046209
vt 0.3873234 1
vt 0.1264663 0.212153
vt 0 0
vt 0 0.212153
vt 0.2462488 0.4984563
vt 0.2486537 0.8046209
vt 0.2633258 1
vt 0.120845 0.4984563
vt 0 0.4984563
vt 0.1218299 0.8046209
vt 0.1325412 1
vt 0 0.8046209
vt 0 1
vt 0.8750585 0
vt 1 0.212153
vt 1 0
vt 0.8750584 0.212153
vt 0.75 0
vt 1 0.4984563
vt 0.75 0.212153
vt 0.6258875 0
vt 0.8734764 0.4984563
vt 1 0.8046209
vt 0.6258875 0.212153
vt 0.5 0
vt 0.8715649 0.8046209
vt 1 1
vt 0.8564486 1
vt 0.7473844 0.4984563
vt 0.7446459 0.8046209
vt 0.7275588 1
vt 0.5 0.212153
vt 0.3753918 0
vt 0.6219649 0.4984563
vt 0.6215483 0.8046209
vt 0.6095347 1
vt 0.3753918 0.212153
vt 0.25 0
vt 0.4977877 0.4984563
vt 0.5019477 0.8046209
vt 0.5003532 1
vt 0.25 0.212153
vt 0.1264665 0
vt 0.3735128 0.4984563
vt 0.3820164 0.8046209
vt 0.3920055 1
vt 0.1264665 0.212153
vt 0 0
vt 0 0.212153
vt 0.2486145 0.4984563
vt 0.2582199 0.8046209
vt 0.2756183 1
vt 0.1219068 0.4984563
vt 0 0.4984563
vt 0.1285824 0.8046209
vt 0.1444872 1
vt 0 0.8046209
vt 0 1
vn 0.1946422 -0.06777624 -0.9785299
vn 4.072668E-07 -0.07507511 -0.997178
vn 6.2892E-07 -0.06777617 -0.9977005
vn 0.1642269 -0.09185609 -0.9821364
vn 0.3818039 -0.06777625 -0.921755
vn 1.271592E-07 -0.1041109 -0.9945657
vn 0.3245133 -0.1390206 -0.935609
vn 0.5542933 -0.06777614 -0.8295572
vn 0.107474 -0.133991 -0.9851375
vn 0 -0.1395103 -0.9902207
vn 0.5015367 -0.2098304 -0.8393046
vn 0.7054813 -0.06777618 -0.7054803
vn 0.2115488 -0.2165509 -0.9530755
vn 0.05283526 -0.1703486 -0.9839663
vn 0.6774394 -0.2559727 -0.6896041
vn 0.8295579 -0.0677763 -0.5542924
vn 0.02021824 -0.1946478 -0.9806647
vn 0 -0.163671 -0.986515
vn 0.1033643 -0.2536837 -0.9617486
vn 0.04244394 -0.282289 -0.9583901
vn 0.2143311 -0.4593484 -0.86201
vn 0.3779683 -0.3428516 -0.8599958
vn 0.8380478 -0.2396564 -0.4901434
vn 0.9217554 -0.0677764 -0.381803
vn 0.2478444 -0.3971198 -0.8836679
vn 0.6273425 -0.4451496 -0.6389704
vn 0.5945248 -0.5459938 -0.5902804
vn 0.5689296 -0.6041054 -0.5580105
vn 0.9304651 -0.1833139 -0.3172233
vn 0.9785295 -0.06777643 -0.1946442
vn 0.8572592 -0.4106351 -0.3106211
vn 0.8467682 -0.5076631 -0.1589395
vn 0.8180518 -0.5624231 -0.1202975
vn 0.8491941 -0.5280808 0
vn 0.9779337 -0.1366577 -0.1580198
vn 0.9977005 -0.06777645 -2.769279E-06
vn 0.9935662 -0.1128877 0.009079649
vn 0.9335675 -0.3188158 -0.163732
vn 0.9653682 -0.2478537 -0.08144213
vn 0.9767469 -0.2127333 0.02664716
vn 0.8960028 -0.4419071 -0.043557
vn 0.9138983 -0.4053534 -0.02187051
vn 0.9201337 -0.3896854 0.03872191
vn 0.849194 -0.5280809 0
vn 0.8484933 -0.527645 0.04061729
vn -0.9785299 -0.06777631 -0.1946426
vn -0.9935662 -0.1128879 0.009081168
vn -0.9977005 -0.06777632 -6.441356E-07
vn -0.9779339 -0.1366578 -0.1580183
vn -0.9217548 -0.06777648 -0.3818043
vn -0.9767468 -0.2127336 0.02664763
vn -0.9304648 -0.1833139 -0.3172246
vn -0.8295573 -0.06777635 -0.5542932
vn -0.9653683 -0.2478538 -0.08144148
vn -0.9201337 -0.3896855 0.0387214
vn -0.8380474 -0.2396563 -0.4901443
vn -0.7054803 -0.06777624 -0.7054814
vn -0.9335675 -0.3188156 -0.1637327
vn -0.9138985 -0.4053533 -0.02187035
vn -0.6774387 -0.2559726 -0.6896048
vn -0.5542924 -0.0677762 -0.8295579
vn -0.8491941 -0.5280809 0
vn -0.8484935 -0.5276449 0.04061625
vn -0.8960028 -0.441907 -0.04355721
vn -0.8491941 -0.5280809 0
vn -0.8180518 -0.5624231 -0.1202975
vn -0.8572592 -0.4106351 -0.3106212
vn -0.5015358 -0.2098302 -0.8393051
vn -0.3818031 -0.06777612 -0.9217553
vn -0.8467683 -0.5076631 -0.158939
vn -0.6273427 -0.4451496 -0.6389703
vn -0.5945253 -0.545994 -0.5902798
vn -0.5689298 -0.6041054 -0.5580105
vn -0.3245125 -0.1390204 -0.9356093
vn -0.1946411 -0.06777607 -0.9785301
vn -0.3779679 -0.3428512 -0.8599961
vn -0.2478447 -0.3971198 -0.8836679
vn -0.2143314 -0.4593486 -0.8620097
vn -0.1642261 -0.09185597 -0.9821367
vn 6.2892E-07 -0.06777617 -0.9977005
vn 4.072668E-07 -0.07507511 -0.997178
vn -0.2115481 -0.2165505 -0.9530756
vn -0.1033642 -0.2536833 -0.9617487
vn -0.04244394 -0.2822889 -0.9583901
vn -0.1074735 -0.1339908 -0.9851376
vn 1.271592E-07 -0.1041109 -0.9945657
vn -0.05283508 -0.1703483 -0.9839664
vn -0.02021823 -0.1946477 -0.9806648
vn 0 -0.1395103 -0.9902207
vn 0 -0.163671 -0.986515
vn -0.1946422 -0.06777613 0.9785299
vn -1.103814E-06 -0.08893781 0.9960372
vn -1.562155E-06 -0.06777621 0.9977005
vn -0.1940815 -0.0893077 0.9769117
vn -0.3818038 -0.06777642 0.9217548
vn 0 -0.1731095 0.9849027
vn -0.3806925 -0.09040301 0.920272
vn -0.5542932 -0.06777631 0.8295573
vn -0.1920898 -0.173735 0.9658767
vn 5.284426E-07 -0.3714784 0.9284417
vn -0.5526511 -0.09218163 0.828299
vn -0.7054809 -0.06777614 0.7054806
vn -0.3766758 -0.1755859 0.9095521
vn -0.1813222 -0.3717865 0.9104378
vn 3.36721E-07 -0.5275573 0.8495195
vn -0.165733 -0.5275571 0.8331963
vn -0.3555115 -0.3726977 0.857151
vn -0.3250972 -0.5275567 0.784854
vn -0.7033384 -0.09457526 0.7045358
vn -0.829558 -0.06777612 0.5542923
vn -0.5465575 -0.1785876 0.8181573
vn -0.5157331 -0.374175 0.770722
vn -0.4719672 -0.5275572 0.70635
vn -0.826956 -0.09749196 0.55375
vn -0.9217553 -0.06777623 0.3818031
vn -0.6951282 -0.1826198 0.6953034
vn -0.6557366 -0.3761572 0.6546108
vn -0.6007007 -0.5275574 0.6007011
vn -0.9187493 -0.1008197 0.3817527
vn -0.97853 -0.06777645 0.1946416
vn -0.8166396 -0.1875208 0.5458349
vn -0.7701065 -0.3785636 0.513445
vn -0.7063497 -0.5275572 0.4719677
vn -0.9750675 -0.1046567 0.1956793
vn -0.9977005 -0.06777632 -6.441356E-07
vn -0.9935662 -0.1128879 0.009081168
vn -0.9064311 -0.1930954 0.3756287
vn -0.8544788 -0.3812965 0.3528158
vn -0.7848537 -0.527557 0.3250973
vn -0.9606897 -0.19945 0.1931193
vn -0.9767468 -0.2127336 0.02664763
vn -0.9051384 -0.3842851 0.1817949
vn -0.8326393 -0.527555 0.1685157
vn -0.9201337 -0.3896855 0.0387214
vn -0.8484935 -0.5276449 0.04061625
vn 0.9785299 -0.06777629 0.1946421
vn 0.9935662 -0.1128877 0.009079649
vn 0.9977005 -0.06777645 -2.769279E-06
vn 0.9750674 -0.1046562 0.1956798
vn 0.921755 -0.06777605 0.3818039
vn 0.9767469 -0.2127333 0.02664716
vn 0.9187492 -0.1008192 0.3817532
vn 0.8295574 -0.06777602 0.5542932
vn 0.9606898 -0.1994492 0.1931195
vn 0.9201337 -0.3896854 0.03872191
vn 0.8269557 -0.09749153 0.5537506
vn 0.7054801 -0.06777623 0.7054815
vn 0.9051385 -0.3842847 0.1817957
vn 0.8484933 -0.527645 0.04061729
vn 0.832639 -0.5275548 0.1685176
vn 0.9064313 -0.1930946 0.3756286
vn 0.854479 -0.381296 0.3528157
vn 0.7848537 -0.5275567 0.3250977
vn 0.703338 -0.09457506 0.7045362
vn 0.5542925 -0.06777643 0.8295578
vn 0.8166397 -0.1875199 0.5458351
vn 0.7701068 -0.3785628 0.513445
vn 0.7063498 -0.5275568 0.471968
vn 0.552651 -0.09218159 0.8282991
vn 0.381804 -0.06777666 0.9217548
vn 0.6951285 -0.1826192 0.6953032
vn 0.6557372 -0.3761567 0.6546105
vn 0.6007015 -0.5275568 0.600701
vn 0.3806926 -0.09040294 0.9202719
vn 0.1946419 -0.0677767 0.97853
vn 0.546558 -0.1785873 0.8181571
vn 0.5157341 -0.3741747 0.7707214
vn 0.4719684 -0.5275571 0.7063494
vn 0.1940809 -0.08930761 0.9769118
vn -1.562155E-06 -0.06777621 0.9977005
vn -1.103814E-06 -0.08893781 0.9960372
vn 0.3766758 -0.1755856 0.9095521
vn 0.3555115 -0.3726979 0.857151
vn 0.3250973 -0.5275571 0.7848536
vn 0.1920895 -0.1737346 0.9658768
vn 0 -0.1731095 0.9849027
vn 0.1813222 -0.3717864 0.9104379
vn 0.1657329 -0.5275573 0.8331962
vn 5.284426E-07 -0.3714784 0.9284417
vn 3.36721E-07 -0.5275573 0.8495195
g net_0
f 3/3/3 2/2/2 1/1/1
f 2/2/2 4/4/4 1/1/1
f 1/1/1 4/4/4 5/5/5
f 2/2/2 6/6/6 4/4/4
f 4/4/4 7/7/7 5/5/5
f 5/5/5 7/7/7 8/8/8
f 6/6/6 9/9/9 4/4/4
f 7/7/7 4/4/4 9/9/9
f 6/6/6 10/10/10 9/9/9
f 7/7/7 11/11/11 8/8/8
f 8/8/8 11/11/11 12/12/12
f 13/13/13 7/7/7 9/9/9
f 7/7/7 13/13/13 11/11/11
f 10/10/10 14/14/14 9/9/9
f 13/13/13 9/9/9 14/14/14
f 11/11/11 15/15/15 12/12/12
f 12/12/12 15/15/15 16/16/16
f 17/17/17 14/14/14 10/10/10
f 18/18/18 17/17/17 10/10/10
f 14/14/14 17/17/17 19/19/19
f 19/19/19 13/13/13 14/14/14
f 17/17/17 20/20/20 19/19/19
f 20/20/20 21/21/21 19/19/19
f 13/13/13 22/22/22 11/11/11
f 13/13/13 19/19/19 22/22/22
f 11/11/11 22/22/22 15/15/15
f 15/15/15 23/23/23 16/16/16
f 16/16/16 23/23/23 24/24/24
f 21/21/21 25/25/25 19/19/19
f 19/19/19 25/25/25 22/22/22
f 22/22/22 26/26/26 15/15/15
f 22/22/22 25/25/25 26/26/26
f 23/23/23 15/15/15 26/26/26
f 27/27/27 25/25/25 21/21/21
f 25/25/25 27/27/27 26/26/26
f 28/28/28 27/27/27 21/21/21
f 23/23/23 29/29/29 24/24/24
f 24/24/24 29/29/29 30/30/30
f 31/31/31 23/23/23 26/26/26
f 31/31/31 26/26/26 27/27/27
f 23/23/23 31/31/31 29/29/29
f 32/32/32 27/27/27 28/28/28
f 32/32/32 31/31/31 27/27/27
f 33/33/33 32/32/32 28/28/28
f 33/33/33 34/34/34 32/32/32
f 29/29/29 35/35/35 30/30/30
f 30/30/30 35/35/35 36/36/36
f 35/35/35 37/37/37 36/36/36
f 31/31/31 38/38/38 29/29/29
f 31/31/31 32/32/32 38/38/38
f 35/35/35 29/29/29 38/38/38
f 35/35/35 39/39/39 37/37/37
f 39/39/39 35/35/35 38/38/38
f 39/39/39 40/40/40 37/37/37
f 32/32/32 41/41/41 38/38/38
f 34/34/34 41/41/41 32/32/32
f 39/39/39 38/38/38 41/41/41
f 39/39/39 42/42/42 40/40/40
f 42/42/42 39/39/39 41/41/41
f 42/42/42 41/41/41 34/34/34
f 42/42/42 43/43/43 40/40/40
f 44/44/44 42/42/42 34/34/34
f 45/45/45 43/43/43 42/42/42
f 44/44/44 45/45/45 42/42/42
f 48/48/48 47/47/47 46/46/46
f 47/47/47 49/49/49 46/46/46
f 46/46/46 49/49/49 50/50/50
f 47/47/47 51/51/51 49/49/49
f 49/49/49 52/52/52 50/50/50
f 50/50/50 52/52/52 53/53/53
f 51/51/51 54/54/54 49/49/49
f 52/52/52 49/49/49 54/54/54
f 51/51/51 55/55/55 54/54/54
f 52/52/52 56/56/56 53/53/53
f 53/53/53 56/56/56 57/57/57
f 58/58/58 52/52/52 54/54/54
f 52/52/52 58/58/58 56/56/56
f 55/55/55 59/59/59 54/54/54
f 58/58/58 54/54/54 59/59/59
f 56/56/56 60/60/60 57/57/57
f 57/57/57 60/60/60 61/61/61
f 59/59/59 55/55/55 62/62/62
f 55/55/55 63/63/63 62/62/62
f 64/64/64 59/59/59 62/62/62
f 64/64/64 58/58/58 59/59/59
f 65/65/65 64/64/64 62/62/62
f 64/64/64 65/65/65 66/66/66
f 58/58/58 67/67/67 56/56/56
f 58/58/58 64/64/64 67/67/67
f 60/60/60 56/56/56 67/67/67
f 60/60/60 68/68/68 61/61/61
f 61/61/61 68/68/68 69/69/69
f 70/70/70 64/64/64 66/66/66
f 64/64/64 70/70/70 67/67/67
f 71/71/71 60/60/60 67/67/67
f 71/71/71 67/67/67 70/70/70
f 60/60/60 71/71/71 68/68/68
f 72/72/72 70/70/70 66/66/66
f 72/72/72 71/71/71 70/70/70
f 73/73/73 72/72/72 66/66/66
f 68/68/68 74/74/74 69/69/69
f 69/69/69 74/74/74 75/75/75
f 71/71/71 76/76/76 68/68/68
f 71/71/71 72/72/72 76/76/76
f 74/74/74 68/68/68 76/76/76
f 77/77/77 72/72/72 73/73/73
f 72/72/72 77/77/77 76/76/76
f 78/78/78 77/77/77 73/73/73
f 74/74/74 79/79/79 75/75/75
f 75/75/75 79/79/79 80/80/80
f 79/79/79 81/81/81 80/80/80
f 82/82/82 74/74/74 76/76/76
f 82/82/82 76/76/76 77/77/77
f 74/74/74 82/82/82 79/79/79
f 83/83/83 77/77/77 78/78/78
f 83/83/83 82/82/82 77/77/77
f 84/84/84 83/83/83 78/78/78
f 81/81/81 79/79/79 85/85/85
f 82/82/82 85/85/85 79/79/79
f 82/82/82 83/83/83 85/85/85
f 86/86/86 81/81/81 85/85/85
f 83/83/83 84/84/84 87/87/87
f 83/83/83 87/87/87 85/85/85
f 86/86/86 85/85/85 87/87/87
f 84/84/84 88/88/88 87/87/87
f 89/89/89 86/86/86 87/87/87
f 88/88/88 90/90/90 87/87/87
f 90/90/90 89/89/89 87/87/87
f 93/93/93 92/92/92 91/91/91
f 92/92/92 94/94/94 91/91/91
f 91/91/91 94/94/94 95/95/95
f 92/92/92 96/96/96 94/94/94
f 94/94/94 97/97/97 95/95/95
f 95/95/95 97/97/97 98/98/98
f 96/96/96 99/99/99 94/94/94
f 97/97/97 94/94/94 99/99/99
f 96/96/96 100/100/100 99/99/99
f 97/97/97 101/101/101 98/98/98
f 98/98/98 101/101/101 102/102/102
f 103/103/103 97/97/97 99/99/99
f 97/97/97 103/103/103 101/101/101
f 100/100/100 104/104/104 99/99/99
f 103/103/103 99/99/99 104/104/104
f 104/104/104 100/100/100 105/105/105
f 106/106/106 104/104/104 105/105/105
f 107/107/107 104/104/104 106/106/106
f 107/107/107 103/103/103 104/104/104
f 108/108/108 107/107/107 106/106/106
f 101/101/101 109/109/109 102/102/102
f 102/102/102 109/109/109 110/110/110
f 103/103/103 111/111/111 101/101/101
f 103/103/103 107/107/107 111/111/111
f 109/109/109 101/101/101 111/111/111
f 112/112/112 107/107/107 108/108/108
f 107/107/107 112/112/112 111/111/111
f 113/113/113 112/112/112 108/108/108
f 109/109/109 114/114/114 110/110/110
f 110/110/110 114/114/114 115/115/115
f 116/116/116 109/109/109 111/111/111
f 116/116/116 111/111/111 112/112/112
f 109/109/109 116/116/116 114/114/114
f 117/117/117 112/112/112 113/113/113
f 117/117/117 116/116/116 112/112/112
f 118/118/118 117/117/117 113/113/113
f 114/114/114 119/119/119 115/115/115
f 115/115/115 119/119/119 120/120/120
f 116/116/116 121/121/121 114/114/114
f 116/116/116 117/117/117 121/121/121
f 119/119/119 114/114/114 121/121/121
f 122/122/122 117/117/117 118/118/118
f 117/117/117 122/122/122 121/121/121
f 123/123/123 122/122/122 118/118/118
f 119/119/119 124/124/124 120/120/120
f 120/120/120 124/124/124 125/125/125
f 124/124/124 126/126/126 125/125/125
f 127/127/127 119/119/119 121/121/121
f 127/127/127 121/121/121 122/122/122
f 119/119/119 127/127/127 124/124/124
f 128/128/128 122/122/122 123/123/123
f 128/128/128 127/127/127 122/122/122
f 129/129/129 128/128/128 123/123/123
f 124/124/124 130/130/130 126/126/126
f 127/127/127 130/130/130 124/124/124
f 127/127/127 128/128/128 130/130/130
f 130/130/130 131/131/131 126/126/126
f 132/132/132 128/128/128 129/129/129
f 128/128/128 132/132/132 130/130/130
f 130/130/130 132/132/132 131/131/131
f 133/133/133 132/132/132 129/129/129
f 132/132/132 134/134/134 131/131/131
f 134/134/134 132/132/132 133/133/133
f 135/135/135 134/134/134 133/133/133
f 138/138/138 137/137/137 136/136/136
f 137/137/137 139/139/139 136/136/136
f 136/136/136 139/139/139 140/140/140
f 139/139/139 137/137/137 141/141/141
f 139/139/139 142/142/142 140/140/140
f 140/140/140 142/142/142 143/143/143
f 144/144/144 139/139/139 141/141/141
f 139/139/139 144/144/144 142/142/142
f 144/144/144 141/141/141 145/145/145
f 142/142/142 146/146/146 143/143/143
f 143/143/143 146/146/146 147/147/147
f 148/148/148 144/144/144 145/145/145
f 148/148/148 145/145/145 149/149/149
f 150/150/150 148/148/148 149/149/149
f 144/144/144 151/151/151 142/142/142
f 144/144/144 148/148/148 151/151/151
f 146/146/146 142/142/142 151/151/151
f 152/152/152 148/148/148 150/150/150
f 148/148/148 152/152/152 151/151/151
f 153/153/153 152/152/152 150/150/150
f 146/146/146 154/154/154 147/147/147
f 147/147/147 154/154/154 155/155/155
f 156/156/156 146/146/146 151/151/151
f 156/156/156 151/151/151 152/152/152
f 146/146/146 156/156/156 154/154/154
f 157/157/157 152/152/152 153/153/153
f 157/157/157 156/156/156 152/152/152
f 158/158/158 157/157/157 153/153/153
f 154/154/154 159/159/159 155/155/155
f 155/155/155 159/159/159 160/160/160
f 156/156/156 161/161/161 154/154/154
f 156/156/156 157/157/157 161/161/161
f 154/154/154 161/161/161 159/159/159
f 162/162/162 157/157/157 158/158/158
f 157/157/157 162/162/162 161/161/161
f 163/163/163 162/162/162 158/158/158
f 159/159/159 164/164/164 160/160/160
f 160/160/160 164/164/164 165/165/165
f 161/161/161 166/166/166 159/159/159
f 161/161/161 162/162/162 166/166/166
f 164/164/164 159/159/159 166/166/166
f 167/167/167 162/162/162 163/163/163
f 162/162/162 167/167/167 166/166/166
f 168/168/168 167/167/167 163/163/163
f 164/164/164 169/169/169 165/165/165
f 165/165/165 169/169/169 170/170/170
f 169/169/169 171/171/171 170/170/170
f 172/172/172 164/164/164 166/166/166
f 172/172/172 166/166/166 167/167/167
f 164/164/164 172/172/172 169/169/169
f 173/173/173 167/167/167 168/168/168
f 173/173/173 172/172/172 167/167/167
f 174/174/174 173/173/173 168/168/168
f 171/171/171 169/169/169 175/175/175
f 172/172/172 175/175/175 169/169/169
f 172/172/172 173/173/173 175/175/175
f 176/176/176 171/171/171 175/175/175
f 177/177/177 173/173/173 174/174/174
f 173/173/173 177/177/177 175/175/175
f 176/176/176 175/175/175 177/177/177
f 178/178/178 177/177/177 174/174/174
f 179/179/179 176/176/176 177/177/177
f 179/179/179 177/177/177 178/178/178
f 180/180/180 179/179/179 178/178/178
