g Pads
v -0.2074973 -1.550054E-08 0.7677056
v 0.2291395 3.290868E-09 0.7721754
v -0.2074973 -1.550054E-08 1.005458
v 0.7782207 0 1.046771
v 0.06534195 0 0.8304482
v 0.1980863 0 0.3929979
v 0.9109648 0 0.6093206
v -4.930791 0.004219762 -0.6817393
v -4.930791 0.004219762 -1.04895
v -4.563581 0.004219779 -1.04895
v -4.563581 0.004219779 -0.6817393
v 0.9307038 -9.043897E-09 -2.845756
v 0.9307038 -9.043897E-09 -3.250346
v 1.335295 9.043897E-09 -3.250346
v 1.335295 9.043897E-09 -2.845756
v 0.6376052 0.004219886 -2.613359
v 0.4188443 0.004219876 -2.907994
v 0.6983281 0.004219889 -3.159014
v 0.9096639 0.004219898 -2.834422
v 0.572759 -1.725328E-08 -2.265935
v 0.7070782 -1.124836E-08 -2.903464
v 1.344608 1.725328E-08 -2.769145
v 1.210289 1.124836E-08 -2.131616
v -0.7780784 -6.264188E-08 -4.981713
v -0.4638401 -4.777372E-08 -4.795859
v -0.6496945 -5.65674E-08 -4.481621
v -0.9639328 -7.143557E-08 -4.667476
v -0.5648889 -1.03909E-08 -4.750702
v -0.1397473 9.724652E-09 -4.764783
v -0.1256662 1.03909E-08 -4.339642
v -0.5508078 -9.724652E-09 -4.32556
v -5.137301 -1.339669E-07 -1.034273
v -5.137301 -1.339669E-07 -1.652544
v -4.51903 -1.044516E-07 -1.652544
v -4.51903 -1.044516E-07 -1.034273
v 0.8993722 0.004219886 -1.812207
v 0.6806113 0.004219876 -2.106843
v 0.9600951 0.004219889 -2.357862
v 1.171431 0.004219898 -2.033271
v -4.882083 0.004219723 -0.9882682
v -5.054808 0.004219715 -0.6911663
v -5.374072 0.0042197 -0.838935
v -5.172826 0.004219709 -1.140714
v -0.4285132 -7.090325E-08 1.324963
v 0.009808883 -5.20393E-08 1.238217
v 0.09655506 -4.830603E-08 1.676539
v -0.341767 -6.716999E-08 1.763285
v 0.6242487 -1.475764E-08 1.641639
v 0.6242487 -1.475764E-08 0.9558225
v 1.310065 1.475764E-08 0.9558225
v 1.310065 1.475764E-08 1.641639
v -0.1481853 -1.294795E-08 1.122246
v 0.152673 0 1.492439
v 0.04775677 -4.515246E-09 1.508074
v 0.152673 0 1.122246
v -0.2074973 -1.550054E-08 1.005458
v 0.2291395 3.290868E-09 0.7721754
v 0.616631 1.996724E-08 1.032924
v 0.5284919 1.617402E-08 1.436432
v 0.101333 -1.33817E-08 2.02351
v 0.101333 -1.33817E-08 1.401636
v 0.7232063 1.33817E-08 1.401636
v 0.7232063 1.33817E-08 2.02351
vt 0.5708242 0.6493546
vt 0.540211 0.2827593
vt 0.3765022 0.6028
vt 0.5001652 0.3303441
vt 0.9770463 0.3303441
vt 0.9770463 0.03771104
vt 0.5001652 0.03771104
vt 0.6301341 0.3672378
vt 0.6301341 0.5369146
vt 0.7998109 0.5369146
vt 0.7998109 0.3672378
vt 0.03348324 0.5674914
vt 0.03348321 0.9774708
vt 0.4379856 0.9774708
vt 0.4297701 0.5852917
vt 0.5052347 0.3321625
vt 0.7699015 0.3321625
vt 0.800271 0.06412505
vt 0.5162746 0.07957906
vt 0.5525095 0.5853717
vt 0.4963703 0.9951911
vt 0.9582213 0.9938219
vt 0.9541135 0.5401863
vt 0.03348324 0.5674914
vt 0.03348321 0.9774708
vt 0.4379856 0.9774708
vt 0.4297701 0.5852917
vt 0.03348324 0.5674914
vt 0.03348321 0.9774708
vt 0.4379856 0.9774708
vt 0.4297701 0.5852917
vt 0.03348324 0.5674914
vt 0.03348321 0.9774708
vt 0.4379856 0.9774708
vt 0.4297701 0.5852917
vt 0.5052347 0.3321625
vt 0.7699015 0.3321625
vt 0.800271 0.06412505
vt 0.5162746 0.07957906
vt 0.5052347 0.3321625
vt 0.7699015 0.3321625
vt 0.800271 0.06412505
vt 0.5162746 0.07957906
vt 0.03348324 0.5674914
vt 0.03348321 0.9774708
vt 0.4379856 0.9774708
vt 0.4297701 0.5852917
vt 0.03348324 0.5674914
vt 0.03348321 0.9774708
vt 0.4379856 0.9774708
vt 0.4297701 0.5852917
vt 0.2904646 0.5591048
vt 0.01774271 0.3374621
vt 0.006224094 0.414754
vt 0.2904646 0.3374621
vt 0.3765022 0.6028
vt 0.540211 0.2827593
vt 0.3562685 -0.004336726
vt 0.05900302 0.06059548
vt 0.5525095 0.5853717
vt 0.4963703 0.9951911
vt 0.9582213 0.9938219
vt 0.9541135 0.5401863
vn 0 1 0
vn 0 1 0
vn 0 1 0
vn 0 1 0
vn 0 1 0
vn 0 1 0
vn 0 1 0
vn 0 1 0
vn 0 1 0
vn 0 1 0
vn 0 1 0
vn 0 1 0
vn 0 1 0
vn 0 1 0
vn 0 1 0
vn 0 1 0
vn 0 1 0
vn 0 1 0
vn 0 1 0
vn 0 1 0
vn 0 1 0
vn 0 1 0
vn 0 1 0
vn 0 1 0
vn 0 1 0
vn 0 1 0
vn 0 1 0
vn 0 1 0
vn 0 1 0
vn 0 1 0
vn 0 1 0
vn 0 1 0
vn 0 1 0
vn 0 1 0
vn 0 1 0
vn 0 1 0
vn 0 1 0
vn 0 1 0
vn 0 1 0
vn 0 1 0
vn 0 1 0
vn 0 1 0
vn 0 1 0
vn 0 1 0
vn 0 1 0
vn 0 1 0
vn 0 1 0
vn 0 1 0
vn 0 1 0
vn 0 1 0
vn 0 1 0
vn 0 1 0
vn 0 1 0
vn 0 1 0
vn 0 1 0
vn 0 1 0
vn 0 1 0
vn 0 1 0
vn 0 1 0
vn 0 1 0
vn 0 1 0
vn 0 1 0
vn 0 1 0
g Pads_0
f 3/3/3 2/2/2 1/1/1
f 6/6/6 5/5/5 4/4/4
f 7/7/7 6/6/6 4/4/4
f 10/10/10 9/9/9 8/8/8
f 11/11/11 10/10/10 8/8/8
f 14/14/14 13/13/13 12/12/12
f 15/15/15 14/14/14 12/12/12
f 18/18/18 17/17/17 16/16/16
f 19/19/19 18/18/18 16/16/16
f 22/22/22 21/21/21 20/20/20
f 23/23/23 22/22/22 20/20/20
f 26/26/26 25/25/25 24/24/24
f 27/27/27 26/26/26 24/24/24
f 30/30/30 29/29/29 28/28/28
f 31/31/31 30/30/30 28/28/28
f 34/34/34 33/33/33 32/32/32
f 35/35/35 34/34/34 32/32/32
f 38/38/38 37/37/37 36/36/36
f 39/39/39 38/38/38 36/36/36
f 42/42/42 41/41/41 40/40/40
f 43/43/43 42/42/42 40/40/40
f 46/46/46 45/45/45 44/44/44
f 47/47/47 46/46/46 44/44/44
f 50/50/50 49/49/49 48/48/48
f 51/51/51 50/50/50 48/48/48
f 54/54/54 53/53/53 52/52/52
f 53/53/53 55/55/55 52/52/52
f 52/52/52 55/55/55 56/56/56
f 55/55/55 57/57/57 56/56/56
f 58/58/58 57/57/57 55/55/55
f 58/58/58 55/55/55 53/53/53
f 59/59/59 58/58/58 53/53/53
f 62/62/62 61/61/61 60/60/60
f 63/63/63 62/62/62 60/60/60
