g phosphor_DLC_halo_wings_LOD1
v -4.067189E-08 0.8273373 0.551053
v -0.2197318 0.9060285 0.5080595
v -4.381551E-08 0.8778629 0.5946054
v -0.2014962 0.8531815 0.4716887
v -0.3107529 0.9740279 0.2991142
v -0.2849494 0.9155725 0.2800951
v -0.2197391 1.04203 0.0901618
v -0.2014831 0.9779594 0.08851433
v 1.572368E-07 1.070197 0.00360918
v 1.444211E-07 1.0038 0.009162426
v -0.2430975 1.001804 0.3081512
v -0.1718972 0.9485737 0.4715996
v -0.2197318 0.9060285 0.5080595
v -0.2197391 1.04203 0.0901618
v -3.600759E-08 0.9265249 0.5393028
v -4.381551E-08 0.8778629 0.5946054
v -0.1718946 1.055033 0.1447058
v 1.572368E-07 1.070197 0.00360918
v 1.229537E-07 1.077081 0.07700539
v -3.365604E-08 0.8744831 0.4946036
v 0.1718972 0.9485737 0.4715996
v 0.1532302 0.8941239 0.4342513
v 0.2430975 1.001804 0.3081517
v 0.2167054 0.9415428 0.2885427
v 0.1718947 1.055033 0.1447062
v 0.1532376 0.9889638 0.1428275
v 1.097028E-07 1.008607 0.08246803
v 0.2849494 0.9155725 0.2800956
v 0.1532302 0.8941239 0.4342513
v 0.2014961 0.8531815 0.4716887
v -3.365604E-08 0.8744831 0.4946036
v -4.067189E-08 0.8273373 0.551053
v 0.2014833 0.9779593 0.08851433
v 0.1532376 0.9889638 0.1428275
v 1.444211E-07 1.0038 0.009162426
v 1.097028E-07 1.008607 0.08246803
v -4.381551E-08 0.8778629 0.5946054
v 0.2014961 0.8531815 0.4716887
v -4.067189E-08 0.8273373 0.551053
v 0.2197317 0.9060285 0.5080595
v 0.2849494 0.9155725 0.2800956
v 0.3107529 0.9740279 0.2991147
v 0.2014833 0.9779593 0.08851433
v 0.2197393 1.04203 0.09016228
v 1.444211E-07 1.0038 0.009162426
v 1.572368E-07 1.070197 0.00360918
v 0.2430975 1.001804 0.3081517
v 0.2197317 0.9060285 0.5080595
v 0.1718972 0.9485737 0.4715996
v -4.381551E-08 0.8778629 0.5946054
v -3.600759E-08 0.9265249 0.5393028
v 0.1718947 1.055033 0.1447062
v 0.2197393 1.04203 0.09016228
v 1.229537E-07 1.077081 0.07700539
v 1.572368E-07 1.070197 0.00360918
v -0.1532302 0.894124 0.4342513
v -3.365604E-08 0.8744831 0.4946036
v -0.1718972 0.9485737 0.4715996
v -0.2167054 0.9415428 0.2885427
v -0.2430975 1.001804 0.3081512
v -0.1532375 0.9889639 0.1428275
v -0.1718946 1.055033 0.1447058
v 1.097028E-07 1.008607 0.08246803
v -0.2849494 0.9155725 0.2800951
v -0.2014962 0.8531815 0.4716887
v -0.1532302 0.894124 0.4342513
v -4.067189E-08 0.8273373 0.551053
v -3.365604E-08 0.8744831 0.4946036
v -0.1532375 0.9889639 0.1428275
v -0.2014831 0.9779594 0.08851433
v 1.097028E-07 1.008607 0.08246803
v 1.444211E-07 1.0038 0.009162426
v -0.6752462 0.9772539 -0.5576549
v -0.5895934 0.8836362 -0.522315
v -0.5436667 0.9061852 -0.5202475
v -0.7530676 1.128075 -0.5409465
v -0.7828208 1.117382 -0.5391502
v -0.6473909 1.002813 -0.5569816
v -0.5436667 0.9061852 -0.5202475
v -0.6145927 0.8439192 -0.7013011
v -0.583936 0.8620575 -0.6968951
v -0.5608689 1.037141 -0.2777319
v -0.6925872 1.109987 -0.4417529
v -0.4377578 0.6786367 -0.5750933
v -0.4053624 0.7175109 -0.5790358
v -0.3377751 0.6719792 -0.4977298
v -0.377985 0.6399873 -0.4997916
v -0.3587067 0.5891278 -0.569654
v -0.3226836 0.6181074 -0.5684667
v -0.2855379 0.5603662 -0.4366879
v -0.2615915 0.5968492 -0.4453435
v -0.2482203 0.6364276 -0.3034325
v -0.2673156 0.6052046 -0.2904754
v -0.2791662 0.7241965 -0.179225
v -0.2975951 0.6992791 -0.1609969
v -0.357951 0.8406816 -0.1314616
v -0.3818947 0.8213191 -0.1101618
v -0.4502005 0.949578 -0.1636944
v -0.4872699 0.9277732 -0.1403956
v -0.6031782 1.01404 -0.2549934
v -0.7271923 1.09534 -0.4241767
v -0.7828208 1.117382 -0.5391502
v -0.7530676 1.128075 -0.5409465
v -0.7828208 1.117382 -0.5391502
v -0.7271923 1.09534 -0.4241767
v -0.6752462 0.9772539 -0.5576549
v -0.6031782 1.01404 -0.2549934
v -0.5895934 0.8836362 -0.522315
v -0.4872699 0.9277732 -0.1403956
v -0.3818947 0.8213191 -0.1101618
v -0.2975951 0.6992791 -0.1609969
v -0.2673156 0.6052046 -0.2904754
v -0.377985 0.6399873 -0.4997916
v -0.2855379 0.5603662 -0.4366879
v -0.3587067 0.5891278 -0.569654
v -0.4377578 0.6786367 -0.5750933
v -0.6145927 0.8439192 -0.7013011
v 0.6752462 0.9772539 -0.5576549
v 0.5436667 0.9061852 -0.5202475
v 0.5895934 0.8836362 -0.522315
v 0.7828208 1.117382 -0.5391502
v 0.7530676 1.128075 -0.5409465
v 0.6473909 1.002813 -0.5569816
v 0.5436667 0.9061852 -0.5202475
v 0.6145927 0.8439192 -0.7013011
v 0.583936 0.8620575 -0.6968951
v 0.5608689 1.037141 -0.2777319
v 0.6925872 1.109987 -0.4417529
v 0.4377578 0.6786367 -0.5750933
v 0.4053624 0.7175109 -0.5790358
v 0.3377751 0.6719792 -0.4977298
v 0.377985 0.6399873 -0.4997916
v 0.3587067 0.5891278 -0.569654
v 0.3226836 0.6181074 -0.5684667
v 0.2855379 0.5603662 -0.4366879
v 0.2615915 0.5968492 -0.4453435
v 0.2482203 0.6364276 -0.3034325
v 0.2673156 0.6052046 -0.2904754
v 0.2791662 0.7241965 -0.179225
v 0.2975951 0.6992791 -0.1609969
v 0.357951 0.8406816 -0.1314616
v 0.3818947 0.8213191 -0.1101618
v 0.4502005 0.949578 -0.1636944
v 0.4872699 0.9277732 -0.1403956
v 0.6031782 1.01404 -0.2549934
v 0.7271923 1.09534 -0.4241767
v 0.7828208 1.117382 -0.5391502
v 0.7530676 1.128075 -0.5409465
v 0.7828208 1.117382 -0.5391502
v 0.6752462 0.9772539 -0.5576549
v 0.7271923 1.09534 -0.4241767
v 0.6031782 1.01404 -0.2549934
v 0.5895934 0.8836362 -0.522315
v 0.4872699 0.9277732 -0.1403956
v 0.3818947 0.8213191 -0.1101618
v 0.2975951 0.6992791 -0.1609969
v 0.2673156 0.6052046 -0.2904754
v 0.377985 0.6399873 -0.4997916
v 0.2855379 0.5603662 -0.4366879
v 0.3587067 0.5891278 -0.569654
v 0.4377578 0.6786367 -0.5750933
v 0.6145927 0.8439192 -0.7013011
vt 0.893287 0.04949726
vt 0.358685 0.1525893
vt 0.3590577 0.008695111
vt 0.8928136 0.1814588
vt 0.357785 0.4999889
vt 0.8916702 0.5000275
vt 0.356885 0.8474001
vt 0.8905271 0.8185758
vt 0.3565121 0.9913058
vt 0.8900536 0.9505166
vt 0.1041028 0.4999705
vt 0.1051151 0.2281981
vt 0.358685 0.1525893
vt 0.356885 0.8474001
vt 0.1055344 0.1156251
vt 0.3590577 0.008695111
vt 0.1030903 0.7717388
vt 0.3565121 0.9913058
vt 0.1026709 0.8843075
vt 0.6553637 0.1574104
vt 0.1051152 0.2281981
vt 0.655106 0.2577541
vt 0.1041029 0.4999703
vt 0.654484 0.5000136
vt 0.1030903 0.7717384
vt 0.6538621 0.7422844
vt 0.6536046 0.84264
vt 0.8916702 0.5000274
vt 0.655106 0.2577541
vt 0.8928136 0.1814586
vt 0.6553637 0.1574104
vt 0.893287 0.04949726
vt 0.8905271 0.8185754
vt 0.6538621 0.7422844
vt 0.8900536 0.9505166
vt 0.6536046 0.84264
vt 0.3590577 0.008695111
vt 0.8928136 0.1814586
vt 0.893287 0.04949726
vt 0.358685 0.1525892
vt 0.8916702 0.5000274
vt 0.3577851 0.4999886
vt 0.8905271 0.8185754
vt 0.3568849 0.8473997
vt 0.8900536 0.9505166
vt 0.3565121 0.9913058
vt 0.1041029 0.4999703
vt 0.358685 0.1525892
vt 0.1051152 0.2281981
vt 0.3590577 0.008695111
vt 0.1055344 0.1156251
vt 0.1030903 0.7717384
vt 0.3568849 0.8473997
vt 0.1026709 0.8843075
vt 0.3565121 0.9913058
vt 0.6551059 0.2577542
vt 0.6553637 0.1574104
vt 0.1051151 0.2281981
vt 0.654484 0.5000138
vt 0.1041028 0.4999705
vt 0.6538622 0.7422847
vt 0.1030903 0.7717388
vt 0.6536046 0.84264
vt 0.8916702 0.5000275
vt 0.8928136 0.1814588
vt 0.6551059 0.2577542
vt 0.893287 0.04949726
vt 0.6553637 0.1574104
vt 0.6538622 0.7422847
vt 0.8905271 0.8185758
vt 0.6536046 0.84264
vt 0.8900536 0.9505166
vt 0.8554454 0.7693298
vt 0.7858906 0.6133602
vt 0.6055378 0.5116026
vt 0.845878 0.9496897
vt 0.863096 0.9717232
vt 0.8237405 0.7766967
vt 0.6055378 0.5116026
vt 0.9784123 0.5283783
vt 0.951382 0.5215972
vt 0.4196969 0.7292277
vt 0.7050969 0.8979404
vt 0.71675 0.2619927
vt 0.6962134 0.2886327
vt 0.5503668 0.1842688
vt 0.5908811 0.1740445
vt 0.6258721 0.08374287
vt 0.5980383 0.09387942
vt 0.411016 0.02437495
vt 0.4126862 0.05919765
vt 0.2292295 0.1041139
vt 0.2134636 0.07355573
vt 0.09676287 0.2204682
vt 0.06675327 0.2052134
vt 0.09113036 0.3926842
vt 0.0586239 0.4001456
vt 0.1962468 0.5675089
vt 0.1713246 0.5924647
vt 0.4007539 0.757634
vt 0.6916777 0.927943
vt 0.863096 0.9717232
vt 0.845878 0.9496897
vt 0.854487 0.9607065
vt 0.6983873 0.9129417
vt 0.8395929 0.7730132
vt 0.4102254 0.7434309
vt 0.6957142 0.5624814
vt 0.1837857 0.5799868
vt 0.07487713 0.3964149
vt 0.08175807 0.2128408
vt 0.2213465 0.08883482
vt 0.5706239 0.1791566
vt 0.4118511 0.0417863
vt 0.6119552 0.08881114
vt 0.7064817 0.2753127
vt 0.9648972 0.5249878
vt 0.8554454 0.7693298
vt 0.6055378 0.5116026
vt 0.7858906 0.6133602
vt 0.863096 0.9717232
vt 0.845878 0.9496897
vt 0.8237405 0.7766967
vt 0.6055378 0.5116026
vt 0.9784123 0.5283783
vt 0.951382 0.5215972
vt 0.4196969 0.7292277
vt 0.7050969 0.8979404
vt 0.71675 0.2619927
vt 0.6962134 0.2886327
vt 0.5503668 0.1842688
vt 0.5908811 0.1740445
vt 0.6258721 0.08374287
vt 0.5980383 0.09387942
vt 0.411016 0.02437495
vt 0.4126862 0.05919765
vt 0.2292295 0.1041139
vt 0.2134636 0.07355573
vt 0.09676287 0.2204682
vt 0.06675327 0.2052134
vt 0.09113036 0.3926842
vt 0.0586239 0.4001456
vt 0.1962468 0.5675089
vt 0.1713246 0.5924647
vt 0.4007539 0.757634
vt 0.6916777 0.927943
vt 0.863096 0.9717232
vt 0.845878 0.9496897
vt 0.854487 0.9607065
vt 0.8395929 0.7730132
vt 0.6983873 0.9129417
vt 0.4102254 0.7434309
vt 0.6957142 0.5624814
vt 0.1837857 0.5799868
vt 0.07487713 0.3964149
vt 0.08175807 0.2128408
vt 0.2213465 0.08883482
vt 0.5706239 0.1791566
vt 0.4118511 0.0417863
vt 0.6119552 0.08881114
vt 0.7064817 0.2753127
vt 0.9648972 0.5249878
vn 0 -0.9593585 0.2821899
vn -0.6717709 0.08888728 0.7354066
vn 0 0.002783735 0.9999962
vn -0.3996532 -0.9081407 0.1247314
vn -0.9500511 0.2967651 0.09661002
vn -0.5651061 -0.7845167 -0.2553206
vn -0.6718044 0.5046524 -0.5422221
vn -0.3995275 -0.6609321 -0.6352531
vn 0 0.5907647 -0.8068439
vn 0 -0.6097527 -0.7925918
vn 0.1136609 0.9447284 0.3075216
vn 0.08046746 0.9696202 0.2310013
vn -0.6717709 0.08888728 0.7354066
vn -0.6718044 0.5046524 -0.5422221
vn 0 0.9799484 0.1992518
vn 0 0.002783735 0.9999962
vn 0.08027265 0.9198965 0.3838578
vn 0 0.5907647 -0.8068439
vn 0 0.9096283 0.415423
vn 0 -0.2184293 -0.9758528
vn -0.08046861 0.9696204 0.2309999
vn -0.6083328 -0.2963905 -0.7362635
vn -0.1136621 0.9447283 0.3075214
vn -0.8603746 -0.4846228 -0.1577853
vn -0.08027412 0.9198962 0.3838582
vn -0.6084219 -0.6728807 0.4207784
vn 0 -0.7508672 0.6604531
vn 0.5651069 -0.7845163 -0.2553205
vn -0.6083328 -0.2963905 -0.7362635
vn 0.3996529 -0.9081406 0.1247325
vn 0 -0.2184293 -0.9758528
vn 0 -0.9593585 0.2821899
vn 0.3995288 -0.6609311 -0.6352534
vn -0.6084219 -0.6728807 0.4207784
vn 0 -0.6097527 -0.7925918
vn 0 -0.7508672 0.6604531
vn 0 0.002783735 0.9999962
vn 0.3996529 -0.9081406 0.1247325
vn 0 -0.9593585 0.2821899
vn 0.6717708 0.08888687 0.7354068
vn 0.5651069 -0.7845163 -0.2553205
vn 0.950051 0.2967651 0.09661039
vn 0.3995288 -0.6609311 -0.6352534
vn 0.6718054 0.5046527 -0.5422205
vn 0 -0.6097527 -0.7925918
vn 0 0.5907647 -0.8068439
vn -0.1136621 0.9447283 0.3075214
vn 0.6717708 0.08888687 0.7354068
vn -0.08046861 0.9696204 0.2309999
vn 0 0.002783735 0.9999962
vn 0 0.9799484 0.1992518
vn -0.08027412 0.9198962 0.3838582
vn 0.6718054 0.5046527 -0.5422205
vn 0 0.9096283 0.415423
vn 0 0.5907647 -0.8068439
vn 0.6083328 -0.2963901 -0.7362636
vn 0 -0.2184293 -0.9758528
vn 0.08046746 0.9696202 0.2310013
vn 0.860375 -0.4846219 -0.1577863
vn 0.1136609 0.9447284 0.3075216
vn 0.6084225 -0.6728799 0.4207787
vn 0.08027265 0.9198965 0.3838578
vn 0 -0.7508672 0.6604531
vn -0.5651061 -0.7845167 -0.2553206
vn -0.3996532 -0.9081407 0.1247314
vn 0.6083328 -0.2963901 -0.7362636
vn 0 -0.9593585 0.2821899
vn 0 -0.2184293 -0.9758528
vn 0.6084225 -0.6728799 0.4207787
vn -0.3995275 -0.6609321 -0.6352531
vn 0 -0.7508672 0.6604531
vn 0 -0.6097527 -0.7925918
vn 0.05596485 -0.06973098 -0.9959947
vn -0.2716817 0.6034698 -0.7496754
vn 0.6773235 0.6539718 -0.3369773
vn 0.228311 0.7763509 -0.5874975
vn -0.2422788 0.6960949 -0.6758349
vn 0.6157087 0.5118105 -0.5991266
vn 0.6773235 0.6539718 -0.3369773
vn 0.01298338 0.2396314 -0.9707771
vn 0.4279211 0.5300669 -0.7320606
vn 0.568548 0.8226283 -0.005989869
vn 0.4754378 0.8791433 -0.0326457
vn 0.3801729 -0.4080125 -0.8300569
vn 0.7359428 0.2788028 -0.6169741
vn 0.7320246 0.5993639 -0.3238872
vn 0.112737 -0.03804623 -0.9928963
vn 0.3198362 -0.2057699 -0.9248586
vn 0.5630174 0.04043799 -0.8254552
vn 0.7685859 -0.6025116 -0.2150709
vn 0.9584885 -0.01218124 -0.284871
vn 0.8733101 0.4593271 -0.1623207
vn 0.8662257 -0.4373894 0.241544
vn 0.8366869 0.5374154 -0.1055452
vn 0.768142 -0.1218275 0.6285825
vn 0.7870398 0.6151776 -0.04609852
vn 0.4438981 0.3277682 0.8339798
vn 0.6925596 0.7213606 -0.0003865373
vn 0.07270541 0.6750979 0.7341368
vn -0.1085239 0.8123649 0.5729624
vn -0.1837397 0.8712379 0.455175
vn -0.2422788 0.6960949 -0.6758349
vn 0.228311 0.7763509 -0.5874975
vn -0.7525773 -0.6103796 0.2471118
vn -0.7488008 -0.6133456 0.2512065
vn -0.7543206 -0.6061125 0.2522461
vn -0.7379741 -0.6211171 0.2638327
vn -0.7430341 -0.6155987 0.2625619
vn -0.7244772 -0.6352697 0.267517
vn -0.7297126 -0.6269161 0.2729392
vn -0.7340746 -0.6200668 0.2768604
vn -0.7346789 -0.6176938 0.2805378
vn -0.7351145 -0.6160403 0.2830209
vn -0.7288776 -0.6252778 0.2788638
vn -0.7262616 -0.6354509 0.262195
vn -0.7431909 -0.6170521 0.2586776
vn -0.7490231 -0.6169544 0.2415197
vn -0.05596511 -0.06973109 -0.9959947
vn -0.6773235 0.6539718 -0.3369772
vn 0.2716813 0.6034698 -0.7496755
vn 0.2422786 0.6960947 -0.6758353
vn -0.2283112 0.7763508 -0.5874977
vn -0.6157088 0.5118106 -0.5991265
vn -0.6773235 0.6539718 -0.3369772
vn -0.01298351 0.2396314 -0.9707771
vn -0.4279211 0.5300667 -0.7320606
vn -0.568548 0.8226283 -0.005989743
vn -0.4754379 0.8791433 -0.03264524
vn -0.3801727 -0.4080122 -0.8300571
vn -0.7359425 0.2788029 -0.6169744
vn -0.7320245 0.5993639 -0.3238875
vn -0.1127368 -0.03804567 -0.9928963
vn -0.319836 -0.2057701 -0.9248586
vn -0.5630173 0.04043795 -0.8254552
vn -0.7685859 -0.6025118 -0.2150707
vn -0.9584885 -0.01218136 -0.2848709
vn -0.8733103 0.459327 -0.1623207
vn -0.8662257 -0.4373895 0.2415441
vn -0.8366869 0.5374153 -0.1055451
vn -0.7681418 -0.1218275 0.6285826
vn -0.7870398 0.6151776 -0.04609849
vn -0.4438981 0.3277682 0.8339798
vn -0.6925597 0.7213606 -0.0003865915
vn -0.07270544 0.6750979 0.7341368
vn 0.108524 0.8123647 0.5729626
vn 0.1837396 0.8712376 0.4551756
vn 0.2422786 0.6960947 -0.6758353
vn -0.2283112 0.7763508 -0.5874977
vn 0.7525775 -0.6103794 0.2471115
vn 0.7543206 -0.6061125 0.2522461
vn 0.7488009 -0.6133455 0.2512065
vn 0.7379742 -0.6211171 0.2638327
vn 0.743034 -0.6155986 0.2625618
vn 0.7244772 -0.6352697 0.2675168
vn 0.7297126 -0.6269161 0.2729391
vn 0.7340745 -0.6200668 0.2768605
vn 0.7346788 -0.6176937 0.2805378
vn 0.7351146 -0.6160404 0.2830209
vn 0.7288776 -0.6252778 0.2788639
vn 0.7262614 -0.6354511 0.262195
vn 0.7431908 -0.617052 0.2586778
vn 0.7490231 -0.6169544 0.2415196
g phosphor_DLC_halo_wings_LOD1_0
f 3/3/3 2/2/2 1/1/1
f 2/2/2 4/4/4 1/1/1
f 4/4/4 2/2/2 5/5/5
f 6/6/6 4/4/4 5/5/5
f 6/6/6 5/5/5 7/7/7
f 8/8/8 6/6/6 7/7/7
f 8/8/8 7/7/7 9/9/9
f 10/10/10 8/8/8 9/9/9
f 12/12/12 11/11/11 5/5/5
f 13/13/13 12/12/12 5/5/5
f 14/14/14 5/5/5 11/11/11
f 12/12/12 13/13/13 15/15/15
f 13/13/13 16/16/16 15/15/15
f 17/17/17 14/14/14 11/11/11
f 18/18/18 14/14/14 17/17/17
f 19/19/19 18/18/18 17/17/17
f 15/15/15 21/21/21 20/20/20
f 21/21/21 22/22/22 20/20/20
f 21/21/21 23/23/23 22/22/22
f 23/23/23 24/24/24 22/22/22
f 23/23/23 25/25/25 24/24/24
f 25/25/25 19/19/19 26/26/26
f 25/25/25 26/26/26 24/24/24
f 19/19/19 27/27/27 26/26/26
f 29/29/29 24/24/24 28/28/28
f 30/30/30 29/29/29 28/28/28
f 31/31/31 29/29/29 30/30/30
f 32/32/32 31/31/31 30/30/30
f 28/28/28 24/24/24 33/33/33
f 24/24/24 34/34/34 33/33/33
f 33/33/33 34/34/34 35/35/35
f 34/34/34 36/36/36 35/35/35
f 39/39/39 38/38/38 37/37/37
f 38/38/38 40/40/40 37/37/37
f 38/38/38 41/41/41 40/40/40
f 41/41/41 42/42/42 40/40/40
f 41/41/41 43/43/43 42/42/42
f 43/43/43 44/44/44 42/42/42
f 43/43/43 45/45/45 44/44/44
f 45/45/45 46/46/46 44/44/44
f 48/48/48 42/42/42 47/47/47
f 49/49/49 48/48/48 47/47/47
f 50/50/50 48/48/48 49/49/49
f 51/51/51 50/50/50 49/49/49
f 47/47/47 42/42/42 52/52/52
f 42/42/42 53/53/53 52/52/52
f 52/52/52 53/53/53 54/54/54
f 53/53/53 55/55/55 54/54/54
f 51/51/51 57/57/57 56/56/56
f 58/58/58 51/51/51 56/56/56
f 58/58/58 56/56/56 59/59/59
f 60/60/60 58/58/58 59/59/59
f 59/59/59 61/61/61 60/60/60
f 61/61/61 62/62/62 60/60/60
f 54/54/54 62/62/62 63/63/63
f 62/62/62 61/61/61 63/63/63
f 65/65/65 64/64/64 59/59/59
f 66/66/66 65/65/65 59/59/59
f 65/65/65 66/66/66 67/67/67
f 66/66/66 68/68/68 67/67/67
f 69/69/69 59/59/59 64/64/64
f 70/70/70 69/69/69 64/64/64
f 71/71/71 69/69/69 70/70/70
f 72/72/72 71/71/71 70/70/70
f 75/75/75 74/74/74 73/73/73
f 77/77/77 76/76/76 73/73/73
f 76/76/76 78/78/78 73/73/73
f 78/78/78 79/79/79 73/73/73
f 74/74/74 79/79/79 80/80/80
f 79/79/79 81/81/81 80/80/80
f 79/79/79 78/78/78 82/82/82
f 83/83/83 78/78/78 76/76/76
f 82/82/82 78/78/78 83/83/83
f 84/84/84 80/80/80 81/81/81
f 85/85/85 84/84/84 81/81/81
f 85/85/85 81/81/81 79/79/79
f 84/84/84 85/85/85 86/86/86
f 85/85/85 79/79/79 86/86/86
f 87/87/87 84/84/84 86/86/86
f 87/87/87 86/86/86 88/88/88
f 86/86/86 89/89/89 88/88/88
f 88/88/88 89/89/89 90/90/90
f 91/91/91 89/89/89 86/86/86
f 89/89/89 91/91/91 90/90/90
f 91/91/91 86/86/86 92/92/92
f 90/90/90 91/91/91 92/92/92
f 86/86/86 79/79/79 92/92/92
f 93/93/93 90/90/90 92/92/92
f 92/92/92 94/94/94 93/93/93
f 79/79/79 94/94/94 92/92/92
f 94/94/94 95/95/95 93/93/93
f 94/94/94 96/96/96 95/95/95
f 79/79/79 96/96/96 94/94/94
f 96/96/96 97/97/97 95/95/95
f 79/79/79 98/98/98 96/96/96
f 97/97/97 96/96/96 98/98/98
f 99/99/99 97/97/97 98/98/98
f 79/79/79 82/82/82 98/98/98
f 98/98/98 82/82/82 99/99/99
f 82/82/82 100/100/100 99/99/99
f 100/100/100 82/82/82 83/83/83
f 101/101/101 100/100/100 83/83/83
f 101/101/101 83/83/83 102/102/102
f 83/83/83 103/103/103 102/102/102
f 106/106/106 105/105/105 104/104/104
f 106/106/106 107/107/107 105/105/105
f 108/108/108 107/107/107 106/106/106
f 107/107/107 108/108/108 109/109/109
f 109/109/109 108/108/108 110/110/110
f 110/110/110 108/108/108 111/111/111
f 111/111/111 108/108/108 112/112/112
f 108/108/108 113/113/113 112/112/112
f 113/113/113 114/114/114 112/112/112
f 113/113/113 115/115/115 114/114/114
f 108/108/108 116/116/116 113/113/113
f 108/108/108 117/117/117 116/116/116
f 120/120/120 119/119/119 118/118/118
f 122/122/122 121/121/121 118/118/118
f 123/123/123 122/122/122 118/118/118
f 124/124/124 123/123/123 118/118/118
f 124/124/124 120/120/120 125/125/125
f 126/126/126 124/124/124 125/125/125
f 123/123/123 124/124/124 127/127/127
f 123/123/123 128/128/128 122/122/122
f 123/123/123 127/127/127 128/128/128
f 125/125/125 129/129/129 126/126/126
f 129/129/129 130/130/130 126/126/126
f 126/126/126 130/130/130 124/124/124
f 130/130/130 129/129/129 131/131/131
f 124/124/124 130/130/130 131/131/131
f 129/129/129 132/132/132 131/131/131
f 131/131/131 132/132/132 133/133/133
f 134/134/134 131/131/131 133/133/133
f 134/134/134 133/133/133 135/135/135
f 134/134/134 136/136/136 131/131/131
f 136/136/136 134/134/134 135/135/135
f 131/131/131 136/136/136 137/137/137
f 136/136/136 135/135/135 137/137/137
f 124/124/124 131/131/131 137/137/137
f 135/135/135 138/138/138 137/137/137
f 139/139/139 137/137/137 138/138/138
f 139/139/139 124/124/124 137/137/137
f 140/140/140 139/139/139 138/138/138
f 141/141/141 139/139/139 140/140/140
f 141/141/141 124/124/124 139/139/139
f 142/142/142 141/141/141 140/140/140
f 143/143/143 124/124/124 141/141/141
f 141/141/141 142/142/142 143/143/143
f 142/142/142 144/144/144 143/143/143
f 127/127/127 124/124/124 143/143/143
f 127/127/127 143/143/143 144/144/144
f 145/145/145 127/127/127 144/144/144
f 127/127/127 145/145/145 128/128/128
f 145/145/145 146/146/146 128/128/128
f 128/128/128 146/146/146 147/147/147
f 148/148/148 128/128/128 147/147/147
f 151/151/151 150/150/150 149/149/149
f 152/152/152 150/150/150 151/151/151
f 152/152/152 153/153/153 150/150/150
f 153/153/153 152/152/152 154/154/154
f 153/153/153 154/154/154 155/155/155
f 153/153/153 155/155/155 156/156/156
f 153/153/153 156/156/156 157/157/157
f 158/158/158 153/153/153 157/157/157
f 159/159/159 158/158/158 157/157/157
f 160/160/160 158/158/158 159/159/159
f 161/161/161 153/153/153 158/158/158
f 162/162/162 153/153/153 161/161/161
