g pillar_y16_deco_COL
v -2.546192 -1.080108 0.5
v -0.5 -3.824992 0.5
v -0.5 -5.25 0.5
v -2.829005 -5.107906 0.5
v -0.5 -6.822272 0.5
v -1.222956 -6.675008 0.5
v -0.5 -3.824992 0.5
v -2.546192 -1.080108 0.5
v -2.546192 -1.080109 -0.4999997
v -0.5 -3.824992 -0.4999999
v -0.5 -5.25 -0.5
v -2.829005 -5.107906 -0.4999999
v -1.222956 -6.675008 -0.5
v -0.5 -6.822272 -0.5
v -0.5 -6.822272 0.5
v -1.222956 -6.675008 0.5
v -2.829005 -5.107906 0.5
v -2.829005 -5.107906 0.5
v -2.829005 -5.107906 -0.4999999
v -6.675011 -1.195225 -0.5
v -6.675011 -1.195225 0.5
v -6.825202 -0.1610861 0.5
v -2.546192 -1.080108 0.5
v -5.53548 1.418831 0.5
v -2.546192 -1.080109 -0.4999997
v -5.53548 1.418831 -0.5
v -6.675011 1.418831 0.5
v -6.675011 1.418831 -0.5
v -6.825206 -0.1610861 -0.4999999
v -6.675011 -1.195225 0.5
v -6.825206 -0.1610861 -0.4999999
v -6.825202 -0.1610861 0.5
v -6.825206 -0.1610861 -0.4999999
v -5.53548 1.418831 -0.5
v -6.675011 1.418831 -0.5
v -2.546192 -1.080109 -0.4999997
v -2.829005 -5.107906 -0.4999999
v -6.675011 -1.195225 -0.5
vt 0.4183702 0.3055037
vt 0.6206409 0.4437646
vt 0.7724011 0.4404044
vt 0.6599512 0.2923989
vt 0.9241613 0.4411987
vt 0.902643 0.3866757
vt 0.6206409 0.4437646
vt 0.4183702 0.3055037
vt 0.4183702 0.3055037
vt 0.6206409 0.4437646
vt 0.7724011 0.4404044
vt 0.6599512 0.2923989
vt 0.902643 0.3866757
vt 0.9241613 0.4411987
vt 0.9241613 0.4411987
vt 0.902643 0.3866757
vt 0.6599512 0.2923989
vt 0.2347917 0.2690562
vt 0.2347917 0.2690562
vt 0.06842989 0.2694389
vt 0.06842989 0.2694389
vt 0.08285353 0.3904421
vt 0.3235948 0.3403461
vt 0.1187984 0.4
vt 0.3235948 0.3403493
vt 0.1187984 0.4
vt 0.06842957 0.4
vt 0.06842957 0.4
vt 0.08285299 0.3856632
vt 0.06842989 0.2694389
vt 0.08285299 0.3856632
vt 0.08285353 0.3904421
vt 0.08285299 0.3856632
vt 0.1187984 0.4
vt 0.06842957 0.4
vt 0.3235948 0.3403493
vt 0.2347917 0.2690562
vt 0.06842989 0.2694389
vn 0.007644851 0.02348988 0.9996948
vn 0 0.009426731 0.9999555
vn 0 0 1
vn -0.02090161 -0.02090148 0.999563
vn -0.003098983 -0.01101675 0.9999346
vn -0.008739722 -0.008740596 0.9999236
vn 0 0.009426731 0.9999555
vn 0.007644851 0.02348988 0.9996948
vn 0.008752118 0.008743331 -0.9999235
vn 0 0.009426811 -0.9999555
vn 0 0 -1
vn -0.02283733 -0.003902915 -0.9997316
vn -0.008739722 -0.008740596 -0.9999236
vn 0 -0.009426732 -0.9999555
vn -0.003098983 -0.01101675 0.9999346
vn -0.008739722 -0.008740596 0.9999236
vn -0.02090161 -0.02090148 0.999563
vn -0.02090161 -0.02090148 0.999563
vn -0.02283733 -0.003902915 -0.9997316
vn -0.02090157 -0.02090167 -0.999563
vn -0.02090178 -0.02090168 0.999563
vn -0.02285917 0.003908361 0.999731
vn 0.007644851 0.02348988 0.9996948
vn 0 0.02956236 0.9995629
vn 0.008752118 0.008743331 -0.9999235
vn 0 0.01235525 -0.9999237
vn -0.02094119 0.0209206 0.9995617
vn -0.008752483 0.008743894 -0.9999235
vn -0.01406169 0 -0.9999012
vn -0.02090178 -0.02090168 0.999563
vn -0.01406169 0 -0.9999012
vn -0.02285917 0.003908361 0.999731
vn -0.01406169 0 -0.9999012
vn 0 0.01235525 -0.9999237
vn -0.008752483 0.008743894 -0.9999235
vn 0.008752118 0.008743331 -0.9999235
vn -0.02283733 -0.003902915 -0.9997316
vn -0.02090157 -0.02090167 -0.999563
g pillar_y16_deco_COL_0
f 3/3/3 2/2/2 1/1/1
f 4/4/4 3/3/3 1/1/1
f 3/3/3 4/4/4 5/5/5
f 4/4/4 6/6/6 5/5/5
f 9/9/9 8/8/8 7/7/7
f 10/10/10 9/9/9 7/7/7
f 9/9/9 10/10/10 11/11/11
f 12/12/12 9/9/9 11/11/11
f 13/13/13 12/12/12 11/11/11
f 14/14/14 13/13/13 11/11/11
f 14/14/14 15/15/15 13/13/13
f 15/15/15 16/16/16 13/13/13
f 12/12/12 13/13/13 16/16/16
f 17/17/17 12/12/12 16/16/16
f 20/20/20 19/19/19 18/18/18
f 21/21/21 20/20/20 18/18/18
f 22/22/22 21/21/21 18/18/18
f 23/23/23 22/22/22 18/18/18
f 22/22/22 23/23/23 24/24/24
f 24/24/24 23/23/23 25/25/25
f 26/26/26 24/24/24 25/25/25
f 27/27/27 24/24/24 26/26/26
f 27/27/27 22/22/22 24/24/24
f 28/28/28 27/27/27 26/26/26
f 27/27/27 28/28/28 22/22/22
f 28/28/28 29/29/29 22/22/22
f 31/31/31 20/20/20 30/30/30
f 32/32/32 31/31/31 30/30/30
f 35/35/35 34/34/34 33/33/33
f 34/34/34 36/36/36 33/33/33
f 36/36/36 37/37/37 33/33/33
f 37/37/37 38/38/38 33/33/33
