g pillar_y16_B_COL
v 0 14 -0.6969808
v 0 0 -0.7920761
v 0.7923155 0 0.0002395859
v 0.6972203 14 0.0002395745
v 0 0 0.792555
v 0 14 0.6974598
v 0 16 -1.521117
v 0 14 -0.6969808
v 0.6972203 14 0.0002395745
v 1.521356 16 0.000239564
v 0 14 0.6974598
v 0 16 1.521596
v 0 14 -0.6969808
v -0.7923155 0 0.0002395859
v 0 0 -0.7920761
v -0.6972203 14 0.0002395745
v 0 0 0.792555
v 0 14 0.6974598
v -1.521356 16 0.000239564
v 0 14 -0.6969808
v 0 16 -1.521117
v -0.6972203 14 0.0002395745
v 0 16 1.521596
v 0 14 0.6974598
vt 0.03839336 0.4366572
vt 0.3101147 0.2765462
vt 0.3490238 0.2765462
vt 0.06133458 0.4366572
vt 0.3879327 0.2765461
vt 0.0842758 0.4366572
vt 0 0.3673688
vt 7.404014E-08 0.3758823
vt -0.125 0.3758824
vt 0.125 0.3673688
vt -0.25 0.3758824
vt 0.25 0.3673688
vt 0.03839336 0.4366572
vt 0.3490238 0.3765561
vt 0.3879328 0.3765561
vt 0.06133458 0.4366572
vt 0.3101148 0.3765562
vt 0.0842758 0.4366572
vt 0.125 0.3673688
vt 7.404014E-08 0.3758823
vt 0 0.3673688
vt -0.125 0.3758824
vt 0.25 0.3673688
vt -0.25 0.3758824
vn 0 0.006792359 -0.999977
vn 0 0.006792359 -0.999977
vn 0.999977 0.006792357 0
vn 0.999977 0.006792358 0
vn 0 0.006792357 0.999977
vn 0 0.006792356 0.999977
vn 0 -0.3809897 -0.9245793
vn 0 -0.3809897 -0.9245793
vn 0.9245793 -0.3809896 0
vn 0.9245793 -0.3809896 0
vn 0 -0.3809897 0.9245793
vn 0 -0.3809896 0.9245793
vn 0 0.006792359 -0.999977
vn -0.999977 0.006792357 0
vn 0 0.006792359 -0.999977
vn -0.999977 0.006792358 0
vn 0 0.006792357 0.999977
vn 0 0.006792356 0.999977
vn -0.9245793 -0.3809896 0
vn 0 -0.3809897 -0.9245793
vn 0 -0.3809897 -0.9245793
vn -0.9245793 -0.3809896 0
vn 0 -0.3809896 0.9245793
vn 0 -0.3809897 0.9245793
g pillar_y16_B_COL_0
f 3/3/3 2/2/2 1/1/1
f 4/4/4 3/3/3 1/1/1
f 5/5/5 3/3/3 4/4/4
f 6/6/6 5/5/5 4/4/4
f 9/9/9 8/8/8 7/7/7
f 10/10/10 9/9/9 7/7/7
f 11/11/11 9/9/9 10/10/10
f 12/12/12 11/11/11 10/10/10
f 15/15/15 14/14/14 13/13/13
f 14/14/14 16/16/16 13/13/13
f 14/14/14 17/17/17 16/16/16
f 17/17/17 18/18/18 16/16/16
f 21/21/21 20/20/20 19/19/19
f 20/20/20 22/22/22 19/19/19
f 19/19/19 22/22/22 23/23/23
f 22/22/22 24/24/24 23/23/23
