g planter_COL
v -0.9103256 0.735014 2.869769
v -0.9103256 1.744239 2.869769
v 0.2571818 1.635185 2.999687
v 0.2571818 0.735014 2.999687
v 1.385535 1.546018 2.67293
v 1.385535 0.735014 2.67293
v 2.302954 1.525755 1.939244
v 2.302954 0.735014 1.939244
v 2.869769 1.574396 0.9103252
v 2.869769 0.735014 0.9103252
v 2.999687 1.680684 -0.2571822
v 2.999687 0.735014 -0.2571822
v 2.672931 1.784402 -1.385534
v 2.672931 0.735014 -1.385534
v -0.9103256 1.744239 2.869769
v 0 1.849523 0
v 0.2571818 1.635185 2.999687
v 1.385535 1.546018 2.67293
v 2.302954 1.525755 1.939244
v 2.869769 1.574396 0.9103252
v 2.999687 1.680684 -0.2571822
v 2.672931 1.784402 -1.385534
v 0 0.735014 0
v 0 1.849523 0
v -0.9103256 1.744239 2.869769
v -0.9103256 0.735014 2.869769
v 2.672931 0.735014 -1.385534
v 2.672931 1.784402 -1.385534
v 0 1.849523 0
v 0 0.735014 0
vt 0.53125 0.3125
vt 0.53125 0.6884398
vt 0.546875 0.6884398
vt 0.546875 0.3125
vt 0.5625 0.6884398
vt 0.5625 0.3125
vt 0.578125 0.6884398
vt 0.578125 0.3125
vt 0.59375 0.6884398
vt 0.59375 0.3125
vt 0.609375 0.6884398
vt 0.609375 0.3125
vt 0.625 0.6884398
vt 0.625 0.3125
vt 0.4402058 0.6993938
vt 0.5 0.8375
vt 0.5000001 0.6875
vt 0.5597944 0.6993939
vt 0.6104855 0.7332646
vt 0.6443562 0.7839558
vt 0.65625 0.84375
vt 0.6443562 0.9035443
vt 0 0
vt 0 1
vt 0.4705594 0.908555
vt 0.4705594 0
vt 0 0
vt 0 0.9434387
vt 0.4705594 1
vt 0.4705594 0
vn -0.9989132 0 0.0466085
vn -0.8967016 0.4402617 0.04577836
vn 0.06405779 0 0.9979462
vn 0.07456819 0 0.9972159
vn 0.4492157 0 0.8934234
vn 0.454362 0 0.8908171
vn 0.7670124 0 0.6416323
vn 0.7660491 0 0.6427821
vn 0.9582507 0 0.2859295
vn 0.955882 0 0.2937508
vn 0.9941952 0 -0.1075918
vn 0.99534 0 -0.09642699
vn -0.1035554 0.4349394 -0.8944854
vn -0.1152985 0 -0.9933309
vn -0.8967016 0.4402617 0.04577836
vn -0.6922027 0.4226003 -0.5850338
vn 0.09124618 0.9938216 0.06318877
vn 0.08798183 0.9938499 0.06724291
vn 0.07390053 0.9941929 0.07822536
vn 0.06635951 0.9936277 0.09110744
vn 0.0633022 0.9943191 0.08557005
vn -0.1035554 0.4349394 -0.8944854
vn -0.9531925 0 -0.3023642
vn -0.6922027 0.4226003 -0.5850338
vn -0.8967016 0.4402617 0.04577836
vn -0.9989132 0 0.0466085
vn -0.1152985 0 -0.9933309
vn -0.1035554 0.4349394 -0.8944854
vn -0.6922027 0.4226003 -0.5850338
vn -0.4602047 0 -0.8878129
g planter_COL_0
f 3/3/3 2/2/2 1/1/1
f 4/4/4 3/3/3 1/1/1
f 5/5/5 3/3/3 4/4/4
f 6/6/6 5/5/5 4/4/4
f 7/7/7 5/5/5 6/6/6
f 8/8/8 7/7/7 6/6/6
f 9/9/9 7/7/7 8/8/8
f 10/10/10 9/9/9 8/8/8
f 11/11/11 9/9/9 10/10/10
f 12/12/12 11/11/11 10/10/10
f 13/13/13 11/11/11 12/12/12
f 14/14/14 13/13/13 12/12/12
f 17/17/17 16/16/16 15/15/15
f 18/18/18 16/16/16 17/17/17
f 19/19/19 16/16/16 18/18/18
f 20/20/20 16/16/16 19/19/19
f 21/21/21 16/16/16 20/20/20
f 22/22/22 16/16/16 21/21/21
f 25/25/25 24/24/24 23/23/23
f 26/26/26 25/25/25 23/23/23
f 29/29/29 28/28/28 27/27/27
f 30/30/30 29/29/29 27/27/27
