g planeTree
v -0.4262106 0.9910435 0.4428652
v 0.2758074 0.8895031 -0.7019023
v 0.3583603 1.415322 0.09422259
v -0.6446817 0.589511 -0.4476344
v -1.077475 0.4448665 0.884069
v 0.3265609 0.2417856 -1.405466
v -1.160028 -0.08095245 0.08794414
v -0.4580099 -0.1824929 -1.056823
v -1.109274 -0.7286699 -0.6156194
v 0.9751334 0.6346316 -0.07943573
v -0.2412496 1.020952 -0.5093207
v 0.6262659 0.9590479 -0.9101951
v 0.1363684 0.8826181 0.4073122
v 1.295803 0.1277085 0.6671001
v -1.136963 0.9003499 -0.1926699
v 0.4282872 0.1896128 1.067974
v -0.7880957 0.5759334 0.6380894
v -0.4674263 0.06901037 1.384625
v -0.01252575 0.7845333 0.86273
v -0.9067193 0.7194453 -0.1421649
v -0.3420263 1.406406 0.2132538
v -0.7314249 0.1236396 0.6428413
v 0.468218 0.1370945 1.37928
v -1.320169 0.006918668 -0.6305097
v -0.09647502 -0.549866 1.023861
v -0.9906685 -0.6149539 0.01896648
v -0.5099248 -1.262393 0.5355166
v -1.103819 0.1299291 -0.3530648
v -0.2149964 -0.7331151 -0.8810624
v -0.7800211 -0.04662509 -1.236863
v -0.682735 -0.7052483 0.003466529
v -1.286441 0.4523138 0.5300165
v 0.4912036 -1.273775 -0.5259789
v -0.7214167 -0.2341763 0.8858171
v 0.1674058 -1.097221 0.3578193
v -0.01521673 -0.7748358 1.240901
v -0.322425 1.11337 -0.12807
v 0.5269156 0.4517903 -0.9371221
v 0.5667329 1.272939 -0.4459555
v -0.4590169 0.370289 -0.784668
v -1.116668 0.8772325 0.3520683
v 0.5820131 -0.4459264 -1.266036
v -1.156485 0.05608375 -0.1390983
v -0.3071449 -0.6054957 -0.9481504
v -1.101388 -0.841633 -0.4680121
v 0.6089079 0.8446931 0.5250494
v 0.7593527 0.4593196 -0.7565456
v 1.350814 0.561811 -0.01036534
v 0.022108 0.9404838 -0.2802067
v -0.1375693 0.9331031 1.118405
v 0.1633203 0.162356 -1.444785
v -0.7290303 0.8306118 0.3722249
v -0.5785855 0.4452382 -0.9093702
v -1.325063 0.5336481 -0.3160145
v -0.001576543 -0.5540285 1.026159
v 1.094461 -0.09743948 0.3906582
v 0.8283182 -0.9442052 0.7502016
v 0.3352458 0.3709432 0.8447045
v -0.9007929 -0.2405549 1.127449
v 1.291281 0.672623 -0.1435523
v -0.6346504 0.6062109 0.767906
v 0.4613868 1.0628 0.1324051
v -0.4378296 1.376273 0.2336954
v 0.1138646 0.7911748 0.8491346
v 1.078645 0.4426377 -0.02342049
v 1.018041 0.4865001 0.9313144
v 0.2210786 0.9469598 -0.1338118
v -0.8360264 0.9000382 0.7946243
v 1.093535 0.2029641 -0.9504859
v -0.7754223 0.8561758 -0.1601106
v 0.1893584 0.5076388 -1.032666
v -0.7605326 0.6165022 -1.087176
v -1.086174 0.2552253 -0.3391732
v -0.08877377 1.147443 -0.1882692
v -0.9827757 1.07376 0.1470619
v -0.2435116 0.4167773 -0.8547006
v -1.139219 -0.6494905 -0.6486742
v 0.8555812 1.134945 -0.3468662
v -0.2452173 -0.5758076 -0.9840053
v 0.7521828 0.3164104 -0.8331012
v 0.6991376 -0.5883054 -1.142602
v 1.034387 0.5267544 -0.1119159
v 0.7509177 -0.7248656 -0.5202352
v 1.423586 -0.3351408 0.03900351
v 0.4583541 0.1736376 -0.8504563
v 0.5504109 1.352745 -0.08697905
v -0.01652813 -1.150495 -0.9036176
v -0.122257 0.9630203 -0.6462178
v -0.4057265 -0.2885997 -1.054537
v -0.8897029 0.5373909 -1.0296
v -0.1076511 -1.147475 -0.1779427
v 0.8530212 -0.5621399 0.5624107
v 0.8494617 -1.178939 -0.1701615
v -0.1319001 -0.6724489 0.7028009
v -1.03749 -0.9769639 -0.3310482
v 0.883855 0.1937071 1.149659
v -1.03393 -0.3601651 0.4015239
v -0.0732579 0.2251704 1.141877
v -1.003096 0.3956819 0.9887719
v 0.8387393 0.4985866 0.6386549
v 0.9317672 0.2016964 -0.6716254
v 1.459407 0.003955483 0.1027194
v 0.3942106 0.8823542 -0.1719401
v 0.1365569 0.8107657 1.210144
v 0.3226127 0.2169852 -1.410417
v -0.3910832 1.008507 0.435799
v -0.2980553 0.7116164 -0.8744813
v -1.000238 1.023795 -0.3029923
v -0.3889183 0.9480293 0.5567182
v 0.4031017 0.0007395744 1.094285
v -0.432954 0.3981867 1.339565
v 0.5665919 0.6976725 0.3946405
v -0.4620419 1.353608 -0.307732
v 1.121998 -0.5409713 0.7674024
v 0.3740138 0.9561611 -0.5530118
v 1.166034 0.008871316 -0.01544454
v 1.09291 0.4144501 -0.8798948
v 0.9690488 -0.5364923 -0.3647911
v 0.344871 0.4662451 -1.011747
v 0.6314556 -0.4151817 -1.252727
v 0.8647873 0.4370852 -0.1568877
v 1.127822 -0.7481828 0.5555858
v -0.1205332 1.257292 -0.7383258
v 0.8412379 0.1332441 0.7965658
v 0.21706 1.135981 0.14961
v 0.3758336 0.924291 1.069987
v -0.5166391 -1.02163 -0.2220542
v 0.6627214 -0.6193877 -0.7328789
v -0.1570632 -0.9444096 -1.106281
v 0.384132 -0.8827099 0.1917815
v -0.9556454 -0.916325 0.6225166
v 1.403076 -0.1118401 -0.3991328
v -0.1358608 -0.5913032 0.995919
v 1.0435 -0.1890607 0.4850943
v 0.6044935 -0.08375558 1.329665
v 0.2625704 -0.9320066 0.6499022
v 1.157216 -0.07373857 0.123958
v 1.040335 -1.023907 0.09876518
v 0.4808235 0.02301362 0.8554493
v -0.6146184 -0.8448651 1.02415
v 1.174673 0.8716708 -0.027738
v -0.4977373 0.1053032 1.049343
v 0.3969086 0.9635711 0.5233991
v -0.4802802 1.050713 0.8976473
v -0.9441817 0.5713469 -0.3768763
v -0.4056404 -0.5138354 -0.965081
v -0.6432868 0.3649688 -1.262306
v -0.895289 -0.3895957 -0.1009304
v -1.05995 0.8582852 0.5294236
v 0.01713288 -1.31208 -0.6469857
v -0.8223035 -0.02051911 0.8266487
v -0.2837622 -1.105701 0.238444
v -0.3995303 -0.8187632 1.144744
v -0.682629 0.6027202 0.7284905
v 0.570918 0.9451926 0.3749874
v 0.118042 0.8156644 1.208799
v -0.2911324 0.9278713 -0.1334577
v -1.4231 0.1979117 0.2757785
v 1.083994 0.8828567 -0.4312277
v -0.970224 0.3274399 -0.5580328
v 0.283323 0.6699125 -0.9115359
v -0.457148 0.265104 -1.364248
v -0.004613781 -1.165185 0.04768321
v -0.3288242 -0.4298669 -1.032977
v -0.760538 -1.127573 -0.53907
v 0.5412015 -0.5923676 -0.5654342
v 0.6394016 -1.080308 0.7513562
v -0.009019374 0.3903289 -1.409964
v 1.071115 -0.3826018 0.2574493
v 0.7469049 0.3527169 -0.8232108
v 1.39092 0.437594 -0.1195378
v 0.5531352 0.2349779 0.9993894
v 0.8094326 0.8184116 -0.1870122
v 1.338914 0.3606164 0.4665842
v 0.02997258 0.8778499 0.4381729
v -0.2388418 -0.07218155 1.44159
v 0.2737533 1.094686 -0.9312135
v -0.7683234 0.3856136 0.7879933
v -0.5120259 0.9690473 -0.3984083
v -1.304003 0.6618878 0.04379205
v 0.5516959 0.1096371 1.02155
v 0.3387378 -1.051528 0.3734937
v 0.1579005 -0.7308067 1.257547
v 0.9282323 -0.2674764 0.1742284
v 0.7535526 1.005389 0.749525
v 0.3276363 -1.316941 -0.5465868
v 0.9343898 0.6846678 -0.1345288
v 0.7214317 -0.4764974 -0.7825847
v 0.9232883 0.4192548 -1.054609
v -0.7178396 0.4905143 0.7772093
v -0.3352827 -0.8007177 0.7787098
v -1.179323 -0.3484803 0.7925876
v 0.1599158 0.04850269 0.9672584
v -0.2894233 1.31948 0.5618224
v 0.4756904 -1.262985 0.5648233
v 0.5546171 0.8672422 0.5479445
v 0.937174 -0.4239899 0.549445
v 1.36559 0.4049754 0.3340581
v -0.8820118 0.6787063 -0.3483753
v 0.3622183 1.106781 -0.06153712
v -0.5171908 1.349077 0.2300922
v -0.003297894 0.5529989 -0.8109844
v -1.246151 -0.1060126 -0.7591485
v 1.242309 0.7501361 -0.1854721
v -0.3667416 -0.3483087 -1.050778
v 0.8774885 0.07976567 -0.7639396
v 0.5133495 -0.7049532 -1.174713
v -0.3113808 1.123829 -0.001689219
v 0.217803 0.4651281 1.046981
v -0.5697129 0.9928363 0.9111202
v 0.6033363 0.7553766 0.1700165
v -0.177806 1.098626 -0.9496543
v 0.8805617 -0.218776 1.147687
v 0.6097099 0.5709174 -0.8137932
v 1.138894 -0.08778338 0.2348773
v 1.272469 -0.1129867 -0.7130878
vt 0.5 0
vt 1 0.5
vt 1 0
vt 0.5 0.5
vt 0 0
vt 1 1
vt 0 0.5
vt 0.5 1
vt 0 1
vt 0.5 0
vt 1 0.5
vt 1 0
vt 0.5 0.5
vt 0 0
vt 1 1
vt 0 0.5
vt 0.5 1
vt 0 1
vt 0.5 0
vt 1 0.5
vt 1 0
vt 0.5 0.5
vt 0 0
vt 1 1
vt 0 0.5
vt 0.5 1
vt 0 1
vt 0.5 0
vt 1 0.5
vt 1 0
vt 0.5 0.5
vt 0 0
vt 1 1
vt 0 0.5
vt 0.5 1
vt 0 1
vt 0.5 0
vt 1 0.5
vt 1 0
vt 0.5 0.5
vt 0 0
vt 1 1
vt 0 0.5
vt 0.5 1
vt 0 1
vt 0.5 0
vt 1 0.5
vt 1 0
vt 0.5 0.5
vt 0 0
vt 1 1
vt 0 0.5
vt 0.5 1
vt 0 1
vt 0.5 0
vt 1 0.5
vt 1 0
vt 0.5 0.5
vt 0 0
vt 1 1
vt 0 0.5
vt 0.5 1
vt 0 1
vt 0.5 0
vt 1 0.5
vt 1 0
vt 0.5 0.5
vt 0 0
vt 1 1
vt 0 0.5
vt 0.5 1
vt 0 1
vt 0.5 0
vt 1 0.5
vt 1 0
vt 0.5 0.5
vt 0 0
vt 1 1
vt 0 0.5
vt 0.5 1
vt 0 1
vt 0.5 0
vt 1 0.5
vt 1 0
vt 0.5 0.5
vt 0 0
vt 1 1
vt 0 0.5
vt 0.5 1
vt 0 1
vt 0.5 0
vt 1 0.5
vt 1 0
vt 0.5 0.5
vt 0 0
vt 1 1
vt 0 0.5
vt 0.5 1
vt 0 1
vt 0.5 0
vt 1 0.5
vt 1 0
vt 0.5 0.5
vt 0 0
vt 1 1
vt 0 0.5
vt 0.5 1
vt 0 1
vt 0.5 0
vt 1 0.5
vt 1 0
vt 0.5 0.5
vt 0 0
vt 1 1
vt 0 0.5
vt 0.5 1
vt 0 1
vt 0.5 0
vt 1 0.5
vt 1 0
vt 0.5 0.5
vt 0 0
vt 1 1
vt 0 0.5
vt 0.5 1
vt 0 1
vt 0.5 0
vt 1 0.5
vt 1 0
vt 0.5 0.5
vt 0 0
vt 1 1
vt 0 0.5
vt 0.5 1
vt 0 1
vt 0.5 0
vt 1 0.5
vt 1 0
vt 0.5 0.5
vt 0 0
vt 1 1
vt 0 0.5
vt 0.5 1
vt 0 1
vt 0.5 0
vt 1 0.5
vt 1 0
vt 0.5 0.5
vt 0 0
vt 1 1
vt 0 0.5
vt 0.5 1
vt 0 1
vt 0.5 0
vt 1 0.5
vt 1 0
vt 0.5 0.5
vt 0 0
vt 1 1
vt 0 0.5
vt 0.5 1
vt 0 1
vt 0.5 0
vt 1 0.5
vt 1 0
vt 0.5 0.5
vt 0 0
vt 1 1
vt 0 0.5
vt 0.5 1
vt 0 1
vt 0.5 0
vt 1 0.5
vt 1 0
vt 0.5 0.5
vt 0 0
vt 1 1
vt 0 0.5
vt 0.5 1
vt 0 1
vt 0.5 0
vt 1 0.5
vt 1 0
vt 0.5 0.5
vt 0 0
vt 1 1
vt 0 0.5
vt 0.5 1
vt 0 1
vt 0.5 0
vt 1 0.5
vt 1 0
vt 0.5 0.5
vt 0 0
vt 1 1
vt 0 0.5
vt 0.5 1
vt 0 1
vt 0.5 0
vt 1 0.5
vt 1 0
vt 0.5 0.5
vt 0 0
vt 1 1
vt 0 0.5
vt 0.5 1
vt 0 1
vt 0.5 0
vt 1 0.5
vt 1 0
vt 0.5 0.5
vt 0 0
vt 1 1
vt 0 0.5
vt 0.5 1
vt 0 1
vn -0.4335548 0.8504706 0.297876
vn 0.1366747 0.7703922 -0.6227486
vn 0.370644 0.9180003 0.1410616
vn -0.6613509 0.5930721 -0.4592172
vn -0.668863 0.2193955 0.710273
vn 0.3320436 0.08262139 -0.9396386
vn -0.9998438 0.01505448 0.009252575
vn -0.4424917 -0.07185795 -0.8938891
vn -0.7003902 -0.6076882 -0.3743909
vn 0.7923425 0.6100199 -0.00830024
vn -0.1804039 0.9128601 -0.3662525
vn 0.4305697 0.5426016 -0.7212443
vn 0.144505 0.890388 0.4316567
vn 0.9093874 -0.05293307 0.4125686
vn -0.8412161 0.5010502 -0.2032342
vn 0.3565678 0.2584753 0.8978028
vn -0.6097885 0.5609127 0.5599419
vn -0.357022 -0.08810378 0.9299317
vn -0.1039229 0.6287466 0.7706345
vn -0.8169869 0.5760376 -0.02670419
vn -0.1814339 0.9801866 0.07947185
vn -0.7453225 0.1241922 0.6550348
vn 0.45918 0.07687359 0.8850108
vn -0.8349533 -0.01370986 -0.55015
vn -0.1682898 -0.4146966 0.8942624
vn -0.8801454 -0.4646381 0.09723941
vn -0.2697627 -0.9137791 0.3037034
vn -0.9605137 0.009650157 -0.2780654
vn -0.2615869 -0.6627911 -0.7016267
vn -0.4471203 0.08315501 -0.8906001
vn -0.7041123 -0.7100794 0.003602826
vn -0.8175582 0.4315731 0.3812388
vn 0.460123 -0.8002546 -0.3845509
vn -0.6574527 -0.2694243 0.7036806
vn 0.04484327 -0.9500802 0.3087664
vn 0.09702624 -0.4391864 0.8931412
vn -0.3322694 0.9179603 -0.2166701
vn 0.3605336 0.399002 -0.8430973
vn 0.488362 0.8477209 -0.2070552
vn -0.4685735 0.3721534 -0.801212
vn -0.7336946 0.5641565 0.3787078
vn 0.4915772 -0.3736833 -0.7865828
vn -0.9742339 0.08893827 -0.207264
vn -0.3035935 -0.4231524 -0.853682
vn -0.7274053 -0.6496956 -0.2208559
vn 0.4915425 0.7818922 0.3834457
vn 0.6064909 0.4760414 -0.6368307
vn 0.9662511 0.2551339 0.03557228
vn 0.02562744 0.9496828 -0.3121631
vn -0.1030436 0.5127014 0.8523609
vn 0.1137894 -0.03711235 -0.9928115
vn -0.5827577 0.7693537 0.2617026
vn -0.4562969 0.4663999 -0.7578023
vn -0.9573565 0.2250807 -0.1811277
vn 0.04204271 -0.3849146 0.9219941
vn 0.9095131 -0.03084168 0.4145297
vn 0.5510758 -0.7216576 0.4189582
vn 0.3422487 0.3728049 0.8624861
vn -0.7039477 -0.2312276 0.671559
vn 0.8770996 0.4196752 -0.2336
vn -0.4609385 0.5200958 0.7190522
vn 0.4224374 0.8781707 0.2244169
vn -0.3843735 0.922133 0.04390609
vn 0.1198575 0.7387917 0.6631901
vn 0.8834167 0.4671925 -0.036142
vn 0.6959847 0.1910285 0.6921802
vn 0.2517063 0.9561213 -0.1499198
vn -0.6385555 0.4886111 0.5945637
vn 0.7501267 -0.004699602 -0.6612774
vn -0.593201 0.791548 -0.1468477
vn 0.178792 0.5146703 -0.8385391
vn -0.5774963 0.298817 -0.7597411
vn -0.8919414 0.2508986 -0.3761521
vn -0.1123173 0.9507956 -0.288743
vn -0.6760195 0.7003447 0.2291613
vn -0.2487856 0.4189396 -0.8732671
vn -0.7833819 -0.5252822 -0.3322519
vn 0.6607503 0.7412417 -0.1181938
vn -0.2256588 -0.3971162 -0.8895936
vn 0.5592276 0.3012602 -0.7723386
vn 0.53953 -0.4776265 -0.6933832
vn 0.8794876 0.4330502 -0.1974055
vn 0.6561159 -0.5428617 -0.5242261
vn 0.9492652 -0.2658196 0.1680344
vn 0.4671749 0.1744294 -0.8667884
vn 0.3496111 0.9345291 0.06653906
vn -0.08394088 -0.8421594 -0.5326551
vn -0.03671502 0.7739016 -0.6322408
vn -0.2618817 -0.2029072 -0.9435288
vn -0.7128934 0.3534798 -0.605669
vn -0.1314261 -0.9895679 -0.05901245
vn 0.6605464 -0.5240569 0.537627
vn 0.6367911 -0.7361048 -0.2294492
vn -0.1356466 -0.6769351 0.7234355
vn -0.7287827 -0.5895112 -0.3483568
vn 0.6577821 0.2464516 0.7117474
vn -0.8380285 -0.3639791 0.4064819
vn -0.07459339 0.09277955 0.9928886
vn -0.7011107 0.3860661 0.599497
vn 0.7167402 0.5020344 0.4839887
vn 0.7876425 0.271935 -0.5528749
vn 0.985301 -0.1373839 0.1015266
vn 0.4175477 0.8902418 -0.1819982
vn 0.03904631 0.4431064 0.8956183
vn 0.1675576 0.01177168 -0.985792
vn -0.2680051 0.9033239 0.3349315
vn -0.1858449 0.6685956 -0.7200289
vn -0.7820258 0.5927752 -0.1924921
vn -0.2390648 0.8306679 0.5028307
vn 0.3900688 0.08611347 0.9167501
vn -0.4024358 0.1713656 0.8992659
vn 0.5840416 0.7024323 0.4067975
vn -0.4266065 0.8577033 -0.28697
vn 0.7220208 -0.4857407 0.4926886
vn 0.3790052 0.8370456 -0.3946008
vn 0.994683 0.09547175 0.03861147
vn 0.6931723 0.1809621 -0.6976853
vn 0.8797672 -0.3612137 -0.3090863
vn 0.3827972 0.41854 -0.8235839
vn 0.321168 -0.3596196 -0.8760849
vn 0.8838671 0.4394031 -0.1603241
vn 0.6821746 -0.5950494 0.4249163
vn -0.2207533 0.8266131 -0.5176666
vn 0.7776197 0.1603261 0.60795
vn 0.311895 0.9443427 0.1045871
vn 0.1368887 0.5880781 0.7971358
vn -0.3753429 -0.9134797 -0.1570747
vn 0.577234 -0.5954555 -0.5587787
vn -0.1750084 -0.5307972 -0.8292324
vn 0.4069234 -0.8906271 0.2029695
vn -0.7515655 -0.5099321 0.4184718
vn 0.9482743 0.04827566 -0.3137601
vn -0.05752006 -0.5745568 0.816441
vn 0.8761185 -0.2554769 0.4088372
vn 0.3726723 0.08019807 0.924491
vn 0.273634 -0.7245427 0.6325837
vn 0.9774511 -0.05487709 0.2039063
vn 0.6817445 -0.7290932 -0.06039502
vn 0.4898377 0.02311673 0.8715071
vn -0.5178969 -0.6017638 0.6079993
vn 0.7737346 0.6143166 -0.154757
vn -0.3303135 0.08492391 0.9400431
vn 0.3825739 0.7536569 0.5344515
vn -0.4226374 0.740939 0.5219071
vn -0.8642239 0.3950548 -0.3115265
vn -0.4366698 -0.4501722 -0.7788867
vn -0.3274314 0.3154205 -0.8906731
vn -0.9143648 -0.3915803 -0.1029665
vn -0.629748 0.6666228 0.3987877
vn 0.1450983 -0.8739932 -0.4637697
vn -0.7638667 -0.06428301 0.6421645
vn -0.3593599 -0.9147207 0.184788
vn -0.1432242 -0.5187132 0.8428662
vn -0.5809394 0.5884181 0.5623819
vn 0.4237729 0.8592786 0.2864559
vn 0.1318517 0.431319 0.8925128
vn -0.3176253 0.9369175 -0.145944
vn -0.9756566 -0.005240429 0.219241
vn 0.823419 0.4876074 -0.2902069
vn -0.8070811 0.3700988 -0.4600511
vn 0.1880474 0.6412211 -0.7439582
vn -0.2836132 0.04889335 -0.9576914
vn 0.08801464 -0.9949319 -0.04861976
vn -0.1930965 -0.4093946 -0.8916893
vn -0.6349258 -0.7101192 -0.3043023
vn 0.5552022 -0.5959928 -0.5801234
vn 0.3796363 -0.6757599 0.6318425
vn -0.09416489 0.3712425 -0.9237489
vn 0.9185744 -0.3716944 0.1344033
vn 0.6598524 0.2034825 -0.7233184
vn 0.918968 0.3943204 -0.003045185
vn 0.4426948 0.2917528 0.8478807
vn 0.6534553 0.7512949 -0.09247857
vn 0.9558012 0.1221595 0.2674347
vn 0.03166546 0.8856596 0.4632541
vn -0.1767258 -0.1936253 0.9650271
vn 0.1935087 0.6426588 -0.7413124
vn -0.6064738 0.4102899 0.6810666
vn -0.4126446 0.8716619 -0.264443
vn -0.9409525 0.3367067 -0.0351689
vn 0.5556952 0.0514177 0.8297945
vn 0.4013598 -0.8556625 0.3267291
vn -0.02538054 -0.4773194 0.8783633
vn 0.9466872 -0.2687415 0.1776554
vn 0.4073403 0.7515838 0.5188408
vn 0.1026357 -0.8949518 -0.4341973
vn 0.8609086 0.5016484 -0.08476701
vn 0.6902044 -0.4055526 -0.599287
vn 0.5214519 0.3367044 -0.7840396
vn -0.5457711 0.3877103 0.7428423
vn -0.2445326 -0.6163644 0.748531
vn -0.8751557 -0.2549906 0.4111961
vn 0.1629037 0.04871853 0.9854385
vn -0.2457616 0.929044 0.2765473
vn 0.3317739 -0.9026183 0.2742375
vn 0.4633656 0.6824719 0.5652649
vn 0.7606359 -0.3229058 0.5631739
vn 0.9564022 0.279228 0.08559457
vn -0.7028319 0.5999951 -0.3821431
vn 0.3053922 0.9372882 -0.168007
vn -0.3825747 0.8771667 0.2901984
vn -0.003371087 0.556208 -0.8310363
vn -0.8951142 -0.1628761 -0.4150203
vn 0.8923865 0.4509919 -0.01589533
vn -0.2897794 -0.1987611 -0.9362274
vn 0.6958699 0.1297326 -0.7063529
vn 0.3711858 -0.5837218 -0.7221426
vn -0.20525 0.9783511 0.02648632
vn 0.2526385 0.4607576 0.8508092
vn -0.500791 0.5917928 0.6316563
vn 0.624531 0.7608856 0.1761084
vn -0.218062 0.6675199 -0.7119452
vn 0.5402706 -0.2677265 0.7977658
vn 0.5621336 0.5406131 -0.625894
vn 0.9779608 0.02424147 0.2073771
vn 0.8198524 -0.1953318 -0.5382261
g planeTree_0
f 3/3/3 2/2/2 1/1/1
f 2/2/2 4/4/4 1/1/1
f 1/1/1 4/4/4 5/5/5
f 2/2/2 6/6/6 4/4/4
f 4/4/4 7/7/7 5/5/5
f 6/6/6 8/8/8 4/4/4
f 4/4/4 8/8/8 7/7/7
f 8/8/8 9/9/9 7/7/7
f 12/12/12 11/11/11 10/10/10
f 11/11/11 13/13/13 10/10/10
f 10/10/10 13/13/13 14/14/14
f 11/11/11 15/15/15 13/13/13
f 13/13/13 16/16/16 14/14/14
f 15/15/15 17/17/17 13/13/13
f 13/13/13 17/17/17 16/16/16
f 17/17/17 18/18/18 16/16/16
f 21/21/21 20/20/20 19/19/19
f 20/20/20 22/22/22 19/19/19
f 19/19/19 22/22/22 23/23/23
f 20/20/20 24/24/24 22/22/22
f 22/22/22 25/25/25 23/23/23
f 24/24/24 26/26/26 22/22/22
f 22/22/22 26/26/26 25/25/25
f 26/26/26 27/27/27 25/25/25
f 30/30/30 29/29/29 28/28/28
f 29/29/29 31/31/31 28/28/28
f 28/28/28 31/31/31 32/32/32
f 29/29/29 33/33/33 31/31/31
f 31/31/31 34/34/34 32/32/32
f 33/33/33 35/35/35 31/31/31
f 31/31/31 35/35/35 34/34/34
f 35/35/35 36/36/36 34/34/34
f 39/39/39 38/38/38 37/37/37
f 38/38/38 40/40/40 37/37/37
f 37/37/37 40/40/40 41/41/41
f 38/38/38 42/42/42 40/40/40
f 40/40/40 43/43/43 41/41/41
f 42/42/42 44/44/44 40/40/40
f 40/40/40 44/44/44 43/43/43
f 44/44/44 45/45/45 43/43/43
f 48/48/48 47/47/47 46/46/46
f 47/47/47 49/49/49 46/46/46
f 46/46/46 49/49/49 50/50/50
f 47/47/47 51/51/51 49/49/49
f 49/49/49 52/52/52 50/50/50
f 51/51/51 53/53/53 49/49/49
f 49/49/49 53/53/53 52/52/52
f 53/53/53 54/54/54 52/52/52
f 57/57/57 56/56/56 55/55/55
f 56/56/56 58/58/58 55/55/55
f 55/55/55 58/58/58 59/59/59
f 56/56/56 60/60/60 58/58/58
f 58/58/58 61/61/61 59/59/59
f 60/60/60 62/62/62 58/58/58
f 58/58/58 62/62/62 61/61/61
f 62/62/62 63/63/63 61/61/61
f 66/66/66 65/65/65 64/64/64
f 65/65/65 67/67/67 64/64/64
f 64/64/64 67/67/67 68/68/68
f 65/65/65 69/69/69 67/67/67
f 67/67/67 70/70/70 68/68/68
f 69/69/69 71/71/71 67/67/67
f 67/67/67 71/71/71 70/70/70
f 71/71/71 72/72/72 70/70/70
f 75/75/75 74/74/74 73/73/73
f 74/74/74 76/76/76 73/73/73
f 73/73/73 76/76/76 77/77/77
f 74/74/74 78/78/78 76/76/76
f 76/76/76 79/79/79 77/77/77
f 78/78/78 80/80/80 76/76/76
f 76/76/76 80/80/80 79/79/79
f 80/80/80 81/81/81 79/79/79
f 84/84/84 83/83/83 82/82/82
f 83/83/83 85/85/85 82/82/82
f 82/82/82 85/85/85 86/86/86
f 83/83/83 87/87/87 85/85/85
f 85/85/85 88/88/88 86/86/86
f 87/87/87 89/89/89 85/85/85
f 85/85/85 89/89/89 88/88/88
f 89/89/89 90/90/90 88/88/88
f 93/93/93 92/92/92 91/91/91
f 92/92/92 94/94/94 91/91/91
f 91/91/91 94/94/94 95/95/95
f 92/92/92 96/96/96 94/94/94
f 94/94/94 97/97/97 95/95/95
f 96/96/96 98/98/98 94/94/94
f 94/94/94 98/98/98 97/97/97
f 98/98/98 99/99/99 97/97/97
f 102/102/102 101/101/101 100/100/100
f 101/101/101 103/103/103 100/100/100
f 100/100/100 103/103/103 104/104/104
f 101/101/101 105/105/105 103/103/103
f 103/103/103 106/106/106 104/104/104
f 105/105/105 107/107/107 103/103/103
f 103/103/103 107/107/107 106/106/106
f 107/107/107 108/108/108 106/106/106
f 111/111/111 110/110/110 109/109/109
f 110/110/110 112/112/112 109/109/109
f 109/109/109 112/112/112 113/113/113
f 110/110/110 114/114/114 112/112/112
f 112/112/112 115/115/115 113/113/113
f 114/114/114 116/116/116 112/112/112
f 112/112/112 116/116/116 115/115/115
f 116/116/116 117/117/117 115/115/115
f 120/120/120 119/119/119 118/118/118
f 119/119/119 121/121/121 118/118/118
f 118/118/118 121/121/121 122/122/122
f 119/119/119 123/123/123 121/121/121
f 121/121/121 124/124/124 122/122/122
f 123/123/123 125/125/125 121/121/121
f 121/121/121 125/125/125 124/124/124
f 125/125/125 126/126/126 124/124/124
f 129/129/129 128/128/128 127/127/127
f 128/128/128 130/130/130 127/127/127
f 127/127/127 130/130/130 131/131/131
f 128/128/128 132/132/132 130/130/130
f 130/130/130 133/133/133 131/131/131
f 132/132/132 134/134/134 130/130/130
f 130/130/130 134/134/134 133/133/133
f 134/134/134 135/135/135 133/133/133
f 138/138/138 137/137/137 136/136/136
f 137/137/137 139/139/139 136/136/136
f 136/136/136 139/139/139 140/140/140
f 137/137/137 141/141/141 139/139/139
f 139/139/139 142/142/142 140/140/140
f 141/141/141 143/143/143 139/139/139
f 139/139/139 143/143/143 142/142/142
f 143/143/143 144/144/144 142/142/142
f 147/147/147 146/146/146 145/145/145
f 146/146/146 148/148/148 145/145/145
f 145/145/145 148/148/148 149/149/149
f 146/146/146 150/150/150 148/148/148
f 148/148/148 151/151/151 149/149/149
f 150/150/150 152/152/152 148/148/148
f 148/148/148 152/152/152 151/151/151
f 152/152/152 153/153/153 151/151/151
f 156/156/156 155/155/155 154/154/154
f 155/155/155 157/157/157 154/154/154
f 154/154/154 157/157/157 158/158/158
f 155/155/155 159/159/159 157/157/157
f 157/157/157 160/160/160 158/158/158
f 159/159/159 161/161/161 157/157/157
f 157/157/157 161/161/161 160/160/160
f 161/161/161 162/162/162 160/160/160
f 165/165/165 164/164/164 163/163/163
f 164/164/164 166/166/166 163/163/163
f 163/163/163 166/166/166 167/167/167
f 164/164/164 168/168/168 166/166/166
f 166/166/166 169/169/169 167/167/167
f 168/168/168 170/170/170 166/166/166
f 166/166/166 170/170/170 169/169/169
f 170/170/170 171/171/171 169/169/169
f 174/174/174 173/173/173 172/172/172
f 173/173/173 175/175/175 172/172/172
f 172/172/172 175/175/175 176/176/176
f 173/173/173 177/177/177 175/175/175
f 175/175/175 178/178/178 176/176/176
f 177/177/177 179/179/179 175/175/175
f 175/175/175 179/179/179 178/178/178
f 179/179/179 180/180/180 178/178/178
f 183/183/183 182/182/182 181/181/181
f 182/182/182 184/184/184 181/181/181
f 181/181/181 184/184/184 185/185/185
f 182/182/182 186/186/186 184/184/184
f 184/184/184 187/187/187 185/185/185
f 186/186/186 188/188/188 184/184/184
f 184/184/184 188/188/188 187/187/187
f 188/188/188 189/189/189 187/187/187
f 192/192/192 191/191/191 190/190/190
f 191/191/191 193/193/193 190/190/190
f 190/190/190 193/193/193 194/194/194
f 191/191/191 195/195/195 193/193/193
f 193/193/193 196/196/196 194/194/194
f 195/195/195 197/197/197 193/193/193
f 193/193/193 197/197/197 196/196/196
f 197/197/197 198/198/198 196/196/196
f 201/201/201 200/200/200 199/199/199
f 200/200/200 202/202/202 199/199/199
f 199/199/199 202/202/202 203/203/203
f 200/200/200 204/204/204 202/202/202
f 202/202/202 205/205/205 203/203/203
f 204/204/204 206/206/206 202/202/202
f 202/202/202 206/206/206 205/205/205
f 206/206/206 207/207/207 205/205/205
f 210/210/210 209/209/209 208/208/208
f 209/209/209 211/211/211 208/208/208
f 208/208/208 211/211/211 212/212/212
f 209/209/209 213/213/213 211/211/211
f 211/211/211 214/214/214 212/212/212
f 213/213/213 215/215/215 211/211/211
f 211/211/211 215/215/215 214/214/214
f 215/215/215 216/216/216 214/214/214
