g polySurface504
v -0.6338135 -0.4258587 -0.06204445
v -0.6136798 0.9227315 -0.0894702
v -0.7104939 0.9227315 -0.1115687
v -0.70095 -0.4258587 -0.07736813
v -0.788134 0.9227315 -0.04965288
v -0.7547923 -0.4258587 -0.03443312
v -0.788134 0.9227315 0.04965288
v -0.7547923 -0.4258587 0.03443312
v -0.7104939 0.9227315 0.1115687
v -0.70095 -0.4258587 0.07736813
v -0.6136798 0.9227315 0.0894702
v -0.6338135 -0.4258587 0.06204445
v -0.5705913 0.9227315 6.084936E-17
v -0.6039335 -0.4258587 9.478319E-17
v -0.6136798 0.9227315 -0.0894702
v -0.6338135 -0.4258587 -0.06204445
v -0.788134 0.9227315 -0.04965288
v -0.7104939 0.9227315 -0.1115687
v -0.6136798 0.9227315 -0.0894702
v -0.5705913 0.9227315 6.084936E-17
v -0.788134 0.9227315 0.04965288
v -0.6136798 0.9227315 0.0894702
v -0.7104939 0.9227315 0.1115687
v 0.8128575 -0.4573746 -0.06204445
v 0.8329939 0.8912156 -0.0894702
v 0.7361773 0.8912156 -0.1115687
v 0.745721 -0.4573746 -0.07736813
v 0.6585394 0.8912156 -0.04965288
v 0.6918813 -0.4573746 -0.03443312
v 0.6585394 0.8912156 0.04965288
v 0.6918813 -0.4573746 0.03443312
v 0.7361773 0.8912156 0.1115687
v 0.745721 -0.4573746 0.07736813
v 0.8329939 0.8912156 0.0894702
v 0.8128575 -0.4573746 0.06204445
v 0.8760799 0.8912156 4.522863E-17
v 0.8427379 -0.4573746 7.018236E-17
v 0.8329939 0.8912156 -0.0894702
v 0.8128575 -0.4573746 -0.06204445
v 0.6585394 0.8912156 -0.04965288
v 0.7361773 0.8912156 -0.1115687
v 0.8329939 0.8912156 -0.0894702
v 0.8760799 0.8912156 4.522863E-17
v 0.6585394 0.8912156 0.04965288
v 0.8329939 0.8912156 0.0894702
v 0.7361773 0.8912156 0.1115687
v -0.8760799 0.6369682 0.1561813
v -0.8700353 0.8650444 0.1561813
v 0.8463356 0.7911799 0.1561813
v 0.8417927 0.6197987 0.1561813
v -0.8700353 0.8650444 0.1561813
v -0.8700353 0.8650444 0.1091933
v 0.8463356 0.7911799 0.1091933
v 0.8463356 0.7911799 0.1561813
v -0.8700353 0.8650444 0.1091933
v -0.8760799 0.6369682 0.1091933
v 0.8417927 0.6197987 0.1091933
v 0.8463356 0.7911799 0.1091933
v -0.8760799 0.6369682 0.1091933
v -0.8760799 0.6369682 0.1561813
v 0.8417927 0.6197987 0.1561813
v 0.8417927 0.6197987 0.1091933
v 0.8417927 0.6197987 0.1561813
v 0.8463356 0.7911799 0.1561813
v 0.8463356 0.7911799 0.1091933
v 0.8417927 0.6197987 0.1091933
v -0.8760799 0.6369682 0.1091933
v -0.8700353 0.8650444 0.1091933
v -0.8700353 0.8650444 0.1561813
v -0.8760799 0.6369682 0.1561813
v -0.8733584 0.3042887 0.1561813
v -0.8733584 0.4454556 0.1561813
v -0.1384503 0.4605937 0.1561813
v -0.1020697 0.4155629 0.1561813
v -0.05860794 0.2891531 0.1561813
v 0.8576459 0.4779217 0.1561813
v 0.844366 0.2718252 0.1561813
v -0.08067405 0.4605937 0.1561813
v -0.8733584 0.4454556 0.1561813
v -0.8733584 0.4454556 0.1091933
v -0.1445495 0.4605937 0.1091933
v -0.1384503 0.4605937 0.1561813
v -0.1097676 0.4155629 0.1091933
v -0.1020697 0.4155629 0.1561813
v -0.08067405 0.4605937 0.1561813
v -0.1020697 0.4155629 0.1561813
v -0.08733737 0.4605937 0.1091933
v 0.8576459 0.4779217 0.1561813
v 0.8576459 0.4779217 0.1091933
v -0.1445495 0.4605937 0.1091933
v -0.8733584 0.4454556 0.1091933
v -0.8733584 0.3042887 0.1091933
v -0.1097676 0.4155629 0.1091933
v -0.06630552 0.2891531 0.1091933
v 0.844366 0.2718252 0.1091933
v -0.08733737 0.4605937 0.1091933
v 0.8576459 0.4779217 0.1091933
v -0.8733584 0.3042887 0.1561813
v -0.06630552 0.2891531 0.1091933
v -0.8733584 0.3042887 0.1091933
v -0.05860794 0.2891531 0.1561813
v 0.844366 0.2718252 0.1091933
v 0.844366 0.2718252 0.1561813
v 0.844366 0.2718252 0.1561813
v 0.8576459 0.4779217 0.1561813
v 0.8576459 0.4779217 0.1091933
v 0.844366 0.2718252 0.1091933
v -0.8733584 0.3042887 0.1091933
v -0.8733584 0.4454556 0.1091933
v -0.8733584 0.4454556 0.1561813
v -0.8733584 0.3042887 0.1561813
vt 0.346213 0.69535
vt 0.34587 0.98455
vt 0.364592 0.98455
vt 0.364249 0.69535
vt 0.382284 0.98455
vt 0.382284 0.69535
vt 0.400319 0.98455
vt 0.400319 0.69535
vt 0.418354 0.98455
vt 0.418354 0.69535
vt 0.436389 0.98455
vt 0.436389 0.69535
vt 0.454424 0.98455
vt 0.454424 0.69535
vt 0.472459 0.98455
vt 0.472459 0.69535
vt 0.103145 0.969438
vt 0.090701 0.954263
vt 0.071979 0.954263
vt 0.059534 0.969437
vt 0.098826 0.98836
vt 0.063853 0.988359
vt 0.081339 0.99678
vt 0.210952 0.69535
vt 0.210609 0.98455
vt 0.229331 0.98455
vt 0.228987 0.69535
vt 0.247022 0.98455
vt 0.247022 0.69535
vt 0.265058 0.98455
vt 0.265058 0.69535
vt 0.283093 0.98455
vt 0.283093 0.69535
vt 0.301128 0.98455
vt 0.301128 0.69535
vt 0.319163 0.98455
vt 0.319163 0.69535
vt 0.337198 0.98455
vt 0.337198 0.69535
vt 0.051552 0.962908
vt 0.039107 0.947733
vt 0.020385 0.947733
vt 0.007941 0.962907
vt 0.047233 0.98183
vt 0.012259 0.981829
vt 0.029746 0.99025
vt 0.808074 0.82598
vt 0.846301 0.82598
vt 0.846301 0.50121
vt 0.808074 0.50121
vt 0.846301 0.82598
vt 0.856778 0.82598
vt 0.856778 0.50121
vt 0.846301 0.50121
vt 0.75937 0.82598
vt 0.797597 0.82598
vt 0.797597 0.50121
vt 0.75937 0.50121
vt 0.797597 0.82598
vt 0.808074 0.82598
vt 0.808074 0.50121
vt 0.797597 0.50121
vt 0.808074 0.50121
vt 0.846301 0.50121
vt 0.846301 0.492326
vt 0.808074 0.492326
vt 0.808074 0.834864
vt 0.846301 0.834864
vt 0.846301 0.82598
vt 0.808074 0.82598
vt 0.84768 0.351999
vt 0.88364 0.352217
vt 0.883035 0.206868
vt 0.874979 0.199172
vt 0.850242 0.190724
vt 0.881924 0.016888
vt 0.849042 0.017047
vt 0.883031 0.194473
vt 0.88364 0.352217
vt 0.892942 0.352143
vt 0.891808 0.207761
vt 0.883035 0.206868
vt 0.885369 0.200358
vt 0.874979 0.199172
vt 0.883031 0.194473
vt 0.874979 0.199172
vt 0.891539 0.195741
vt 0.881924 0.016888
vt 0.890949 0.016856
vt 0.807353 0.207251
vt 0.804553 0.351163
vt 0.838404 0.351821
vt 0.816378 0.200556
vt 0.841055 0.192208
vt 0.840027 0.017083
vt 0.807708 0.196274
vt 0.807085 0.017199
vt 0.84768 0.351999
vt 0.841055 0.192208
vt 0.838404 0.351821
vt 0.850242 0.190724
vt 0.840027 0.017083
vt 0.849042 0.017047
vt 0.849042 0.017047
vt 0.881924 0.016888
vt 0.881876 0.007869
vt 0.848995 0.008043
vt 0.847621 0.361855
vt 0.883582 0.362072
vt 0.88364 0.352217
vt 0.84768 0.351999
vn 0.6235068 -0.02519999 -0.7814117
vn 0.6230721 -0.02520101 -0.7817582
vn -0.222785 -0.026289 -0.974513
vn -0.2221091 -0.02628801 -0.9746674
vn -0.9007051 -0.027162 -0.433581
vn -0.9005712 -0.02716201 -0.4338591
vn -0.9007051 -0.027162 0.433581
vn -0.9005712 -0.02716201 0.4338591
vn -0.222785 -0.026289 0.974513
vn -0.2221091 -0.02628801 0.9746674
vn 0.6230721 -0.02520101 0.7817582
vn 0.6235068 -0.02519999 0.7814117
vn 0.9996945 -0.02471599 0
vn 0.9996945 -0.02471599 0
vn 0.6230721 -0.02520101 -0.7817582
vn 0.6235068 -0.02519999 -0.7814117
vn 0 1 0
vn 0 1 0
vn 0 1 0
vn 0 1 0
vn 0 1 0
vn 0 1 0
vn 0 1 0
vn 0.6235079 -0.0252 -0.7814109
vn 0.6230739 -0.025201 -0.7817569
vn -0.2227841 -0.02628901 -0.9745132
vn -0.2221089 -0.02628799 -0.9746674
vn -0.9007037 -0.02716199 -0.4335839
vn -0.9005698 -0.027162 -0.4338619
vn -0.9007037 -0.02716199 0.4335839
vn -0.9005698 -0.027162 0.4338619
vn -0.2227841 -0.02628901 0.9745132
vn -0.2221089 -0.02628799 0.9746674
vn 0.6230733 -0.02520001 0.7817574
vn 0.6235083 -0.02520001 0.7814104
vn 0.9996945 -0.02471599 0
vn 0.9996945 -0.02471599 0
vn 0.6230739 -0.025201 -0.7817569
vn 0.6235079 -0.0252 -0.7814109
vn 0 1 0
vn 0 1 0
vn 0 1 0
vn 0 1 0
vn 0 1 0
vn 0 1 0
vn 0 1 0
vn 0 0 1
vn 0 0 1
vn 0 0 1
vn 0 0 1
vn 0.04299501 0.9990753 0
vn 0.04299501 0.9990753 0
vn 0.04299501 0.9990753 0
vn 0.04299501 0.9990753 0
vn 0 0 -1
vn 0 0 -1
vn 0 0 -1
vn 0 0 -1
vn -0.009994 -0.9999501 0
vn -0.009994 -0.9999501 0
vn -0.009994 -0.9999501 0
vn -0.009994 -0.9999501 0
vn 0.9996488 -0.026499 0
vn 0.9996488 -0.026499 0
vn 0.9996488 -0.026499 0
vn 0.9996488 -0.026499 0
vn -0.9996489 0.026498 0
vn -0.9996489 0.026498 0
vn -0.9996489 0.026498 0
vn -0.9996489 0.026498 0
vn 0 0 1
vn 0 0 1
vn 0 0 1
vn 0 0 1
vn 0 0 1
vn 0 0 1
vn 0 0 1
vn 0 0 1
vn -0.02067901 0.9997852 0.001343
vn -0.02067901 0.9997852 0.001343
vn 0.03193999 0.9994698 -0.006312998
vn 0.04712902 0.9988525 -0.008523006
vn 0.08324202 0.9964983 -0.007860004
vn -0.087054 0.9960451 0.017773
vn -0.05927698 0.9982127 0.007584997
vn -0.087054 0.9960451 0.017773
vn -0.07095296 0.9974356 0.009378997
vn -0.018398 0.9998299 0.001305
vn -0.018398 0.9998299 0.001305
vn 0 0 -1
vn 0 0 -1
vn 0 0 -1
vn 0 0 -1
vn 0 0 -1
vn 0 0 -1
vn 0 0 -1
vn 0 0 -1
vn -0.01866399 -0.9998247 0.001529
vn -0.018874 -0.9998208 0.001546
vn -0.01866399 -0.9998247 0.001529
vn -0.018919 -0.9998198 0.00155
vn -0.01910401 -0.9998164 0.001564001
vn -0.01910401 -0.9998164 0.001564001
vn 0.9979302 -0.06430701 0
vn 0.9979302 -0.06430701 0
vn 0.9979302 -0.06430701 0
vn 0.9979302 -0.06430701 0
vn -1 0 0
vn -1 0 0
vn -1 0 0
vn -1 0 0
g polySurface504_0
f 3/3/3 2/2/2 1/1/1
f 4/4/4 3/3/3 1/1/1
f 5/5/5 3/3/3 4/4/4
f 6/6/6 5/5/5 4/4/4
f 7/7/7 5/5/5 6/6/6
f 8/8/8 7/7/7 6/6/6
f 9/9/9 7/7/7 8/8/8
f 10/10/10 9/9/9 8/8/8
f 11/11/11 9/9/9 10/10/10
f 12/12/12 11/11/11 10/10/10
f 13/13/13 11/11/11 12/12/12
f 14/14/14 13/13/13 12/12/12
f 15/15/15 13/13/13 14/14/14
f 16/16/16 15/15/15 14/14/14
f 19/19/19 18/18/18 17/17/17
f 17/17/17 20/20/20 19/19/19
f 17/17/17 21/21/21 20/20/20
f 21/21/21 22/22/22 20/20/20
f 21/21/21 23/23/23 22/22/22
f 26/26/26 25/25/25 24/24/24
f 27/27/27 26/26/26 24/24/24
f 28/28/28 26/26/26 27/27/27
f 29/29/29 28/28/28 27/27/27
f 30/30/30 28/28/28 29/29/29
f 31/31/31 30/30/30 29/29/29
f 32/32/32 30/30/30 31/31/31
f 33/33/33 32/32/32 31/31/31
f 34/34/34 32/32/32 33/33/33
f 35/35/35 34/34/34 33/33/33
f 36/36/36 34/34/34 35/35/35
f 37/37/37 36/36/36 35/35/35
f 38/38/38 36/36/36 37/37/37
f 39/39/39 38/38/38 37/37/37
f 42/42/42 41/41/41 40/40/40
f 40/40/40 43/43/43 42/42/42
f 40/40/40 44/44/44 43/43/43
f 44/44/44 45/45/45 43/43/43
f 44/44/44 46/46/46 45/45/45
f 49/49/49 48/48/48 47/47/47
f 50/50/50 49/49/49 47/47/47
f 53/53/53 52/52/52 51/51/51
f 54/54/54 53/53/53 51/51/51
f 57/57/57 56/56/56 55/55/55
f 58/58/58 57/57/57 55/55/55
f 61/61/61 60/60/60 59/59/59
f 62/62/62 61/61/61 59/59/59
f 65/65/65 64/64/64 63/63/63
f 66/66/66 65/65/65 63/63/63
f 69/69/69 68/68/68 67/67/67
f 70/70/70 69/69/69 67/67/67
f 73/73/73 72/72/72 71/71/71
f 74/74/74 73/73/73 71/71/71
f 74/74/74 71/71/71 75/75/75
f 76/76/76 74/74/74 75/75/75
f 77/77/77 76/76/76 75/75/75
f 74/74/74 76/76/76 78/78/78
f 81/81/81 80/80/80 79/79/79
f 82/82/82 81/81/81 79/79/79
f 83/83/83 81/81/81 82/82/82
f 84/84/84 83/83/83 82/82/82
f 86/86/86 85/85/85 83/83/83
f 85/85/85 87/87/87 83/83/83
f 85/85/85 88/88/88 87/87/87
f 88/88/88 89/89/89 87/87/87
f 92/92/92 91/91/91 90/90/90
f 93/93/93 92/92/92 90/90/90
f 92/92/92 93/93/93 94/94/94
f 93/93/93 95/95/95 94/94/94
f 95/95/95 93/93/93 96/96/96
f 97/97/97 95/95/95 96/96/96
f 100/100/100 99/99/99 98/98/98
f 99/99/99 101/101/101 98/98/98
f 99/99/99 102/102/102 101/101/101
f 102/102/102 103/103/103 101/101/101
f 106/106/106 105/105/105 104/104/104
f 107/107/107 106/106/106 104/104/104
f 110/110/110 109/109/109 108/108/108
f 111/111/111 110/110/110 108/108/108
