g polySurface20
v -0.3365658 0.1002994 -0.1828997
v -0.1141926 0.1724094 -0.3410586
v -0.331403 0.3067661 0.09473973
v -0.331403 0.3067661 0.09473973
v 0.005459976 0.3130115 0.3410586
v -0.3261532 -0.08179019 0.3245054
v -0.1141926 0.1724094 -0.3410586
v -0.1611538 -0.08332324 -0.3259642
v 0.2459362 -0.08701449 -0.3305078
v 0.2068378 0.1183057 -0.3357668
v 0.1909466 0.1807475 0.3354307
v 0.005459976 0.3130115 0.3410586
v 0.3365658 0.1938141 0.1075373
v 0.3330494 -0.07888784 0.1395388
v 0.2022182 -0.08598711 0.3326376
v 0.3346729 0.1399759 -0.1470923
v 0.3326412 -0.07008722 -0.1977102
v 0.3326412 -0.07008722 -0.1977102
v 0.3346729 0.1399759 -0.1470923
v 0.2068378 0.1183057 -0.3357668
v 0.2459362 -0.08701449 -0.3305078
v -0.3261532 -0.08179019 0.3245054
v -0.3348293 -0.08752441 -0.1794279
v -0.331403 0.3067661 0.09473973
v -0.3365658 0.1002994 -0.1828997
v 0.005459976 0.3130115 0.3410586
v 0.2022182 -0.08598711 0.3326376
v -0.3261532 -0.08179019 0.3245054
v 0.1909466 0.1807475 0.3354307
v -0.331403 0.3067661 0.09473973
v -0.1141926 0.1724094 -0.3410586
v 0.005459976 0.3130115 0.3410586
v 0.2068378 0.1183057 -0.3357668
v 0.3346729 0.1399759 -0.1470923
v 0.3365658 0.1938141 0.1075373
v -0.1611538 -0.08332324 -0.3259642
v -0.1141926 0.1724094 -0.3410586
v -0.3365658 0.1002994 -0.1828997
v -0.3348293 -0.08752441 -0.1794279
vt 0.5000079 0.9193481
vt 0.5210077 0.9095166
vt 0.4779036 0.9006763
vt 0.4779036 0.9006763
vt 0.483927 0.8689938
vt 0.4460036 0.8752471
vt 0.5210077 0.9095166
vt 0.538781 0.9218981
vt 0.5539622 0.8918481
vt 0.5375462 0.8872724
vt 0.4908988 0.8523438
vt 0.483927 0.8689938
vt 0.5120111 0.8594118
vt 0.5222274 0.8411126
vt 0.5040079 0.8335593
vt 0.5292481 0.8708537
vt 0.5441817 0.8638306
vt 0.5441817 0.8638306
vt 0.5292481 0.8708537
vt 0.5375462 0.8872724
vt 0.5507751 0.8754918
vt 0.458176 0.9329581
vt 0.50002 0.934881
vt 0.4779036 0.9006763
vt 0.5000079 0.9193481
vt 0.483927 0.8689938
vt 0.4741878 0.8374801
vt 0.4460036 0.8752471
vt 0.4908988 0.8523438
vt 0.4779036 0.9006763
vt 0.5210077 0.9095166
vt 0.483927 0.8689938
vt 0.5375462 0.8872724
vt 0.5292481 0.8708537
vt 0.5120111 0.8594118
vt 0.5193613 0.9319066
vt 0.5210077 0.9095166
vt 0.5000079 0.9193481
vt 0.50002 0.934881
vn -0.5627417 0.6682979 -0.486518
vn -0.5627417 0.6682979 -0.486518
vn -0.5627417 0.6682979 -0.486518
vn -0.5399364 0.4230097 0.7276892
vn -0.5399364 0.4230097 0.7276892
vn -0.5399364 0.4230097 0.7276892
vn -0.006847962 -0.05012425 -0.9987196
vn -0.01165716 -0.0567841 -0.9983184
vn -0.001262064 -0.04238534 -0.9991006
vn 0.01256585 -0.02321168 -0.9996517
vn 0.7447048 0.4333468 0.5075679
vn 0.5425661 0.744323 0.3893655
vn 0.9459667 0.1142693 0.3034625
vn 0.9524493 0.0175558 0.304191
vn 0.8270282 0.02906854 0.5614084
vn 0.9999348 -0.01107254 -0.002792507
vn 0.9999555 -0.009318935 -0.001453487
vn 0.8166434 0.1339395 -0.5613856
vn 0.8140761 0.1285906 -0.5663431
vn 0.8162591 0.1331331 -0.5621356
vn 0.8204522 0.1420546 -0.5537857
vn -0.9998457 -0.003303218 0.01725181
vn -0.9998216 -0.004124466 0.01843174
vn -0.9998347 -0.003690266 0.0178079
vn -0.9996461 -0.008777405 0.02511634
vn -0.01213401 -0.02707936 0.9995596
vn -0.01251025 -0.02726465 0.9995499
vn -0.01561273 -0.02879247 0.9994635
vn 0.02358418 -0.009471501 0.9996769
vn 0.1461002 0.9635212 -0.2242357
vn 0.159957 0.9608765 -0.2261197
vn 0.1598814 0.9615349 -0.2233576
vn 0.1667843 0.9596395 -0.2264401
vn 0.1752865 0.9592077 -0.2217999
vn 0.2009868 0.9581017 -0.2040719
vn -0.6079437 0.03716975 -0.7931095
vn -0.5916035 0.06118938 -0.8039037
vn -0.6123953 0.03046674 -0.7899644
vn -0.6444523 -0.02008998 -0.7643806
g polySurface20_0
f 3/3/3 2/2/2 1/1/1
f 6/6/6 5/5/5 4/4/4
f 9/9/9 8/8/8 7/7/7
f 9/9/9 7/7/7 10/10/10
f 13/13/13 12/12/12 11/11/11
f 14/14/14 13/13/13 11/11/11
f 14/14/14 11/11/11 15/15/15
f 14/14/14 16/16/16 13/13/13
f 17/17/17 16/16/16 14/14/14
f 20/20/20 19/19/19 18/18/18
f 21/21/21 20/20/20 18/18/18
f 24/24/24 23/23/23 22/22/22
f 23/23/23 24/24/24 25/25/25
f 28/28/28 27/27/27 26/26/26
f 26/26/26 27/27/27 29/29/29
f 32/32/32 31/31/31 30/30/30
f 33/33/33 31/31/31 32/32/32
f 33/33/33 32/32/32 34/34/34
f 34/34/34 32/32/32 35/35/35
f 38/38/38 37/37/37 36/36/36
f 39/39/39 38/38/38 36/36/36
