g polySurface24
v -1.112917 0.9991111 0.4703051
v -1.233539 0.6923273 0.03987222
v -1.262123 1.003114 -0.06024356
v -1.025171 0.7329543 0.4184519
v -1.112917 0.9991111 0.4703051
v -1.40001 -0.06148234 1.037105
v -1.099474 -0.1932972 1.142565
v -1.522104 -0.187415 -0.1574113
v -1.035474 -0.0525778 1.441543
v -1.099474 -0.1932972 1.142565
v 1.368857 0.2879552 -0.8761335
v 1.500251 -0.03911448 -1.020492
v 1.384942 -0.08230066 -0.4599971
v -1.338041 0.7262962 -0.6691997
v -1.497795 0.3758676 -0.8780459
v -1.337425 0.5973051 -1.123883
v -0.7804083 1.117618 0.6266314
v -0.5893838 0.7199855 0.5748612
v -1.112917 0.9991111 0.4703051
v -1.112917 0.9991111 0.4703051
v -1.025171 0.7329543 0.4184519
v -1.099474 -0.1932972 1.142565
v -1.035474 -0.0525778 1.441543
v 0.2494146 -0.1023591 1.309577
v -0.5461892 0.9436962 -0.8821577
v -0.5879482 1.049807 -0.4889341
v -0.562148 0.8819262 -0.5114875
v 1.180661 0.01383098 0.608445
v 1.291045 -0.08229703 0.4996358
v 0.613325 -0.07975919 0.594818
v 1.234145 1.162235 -1.788139E-05
v 0.2781193 1.17814 0.2894684
v 0.8279859 1.18338 -0.9702297
v -0.152497 1.177875 -0.8321665
v -0.1617261 1.171357 -0.04881492
v -0.2887069 1.182167 -0.3069788
v -0.365079 1.130119 -0.9804258
v 0.4137761 1.067239 -1.417271
v 0.7262333 1.028498 -1.346792
v 1.510785 0.6729153 -0.8721859
v 1.234145 1.162235 -1.788139E-05
v 1.422317 1.039297 0.2042449
v 1.429865 0.5114545 -0.9870725
v 0.6699035 0.8622943 -1.444963
v 0.4137761 1.067239 -1.417271
v 0.2371274 0.7861628 -1.424696
v -0.365079 1.130119 -0.9804258
v -0.5461892 0.9436962 -0.8821577
v -0.3349413 0.6660354 -1.07177
v 0.6654943 0.6584389 -1.372731
v 1.429865 0.5114545 -0.9870725
v 1.368857 0.2879552 -0.8761335
v 0.04678495 -0.02697946 -1.435505
v -0.4961694 -0.1480218 -1.127618
v 0.7628993 0.398775 -1.447647
v 0.6654943 0.6584389 -1.372731
v 0.8184335 -0.07999123 -1.410154
v 1.500251 -0.03911448 -1.020492
v 1.368857 0.2879552 -0.8761335
v 1.500251 -0.03911448 -1.020492
v -0.5461892 0.9436962 -0.8821577
v -0.562148 0.8819262 -0.5114875
v -1.032321 0.8857251 -0.5418836
v -1.338041 0.7262962 -0.6691997
v -1.337425 0.5973051 -1.123883
v -0.8309374 0.6896702 -1.35415
v 0.6223673 0.464352 0.7313517
v 0.2689465 0.165421 1.308179
v 0.008988261 0.6392691 1.324077
v 0.5865299 -0.1902381 0.9437221
v 0.2494146 -0.1023591 1.309577
v 0.613325 -0.07975919 0.594818
v 0.6146122 0.4472516 0.610965
v 1.510785 0.6729153 -0.8721859
v 1.539032 0.2753249 0.1656245
v 1.422317 1.039297 0.2042449
v 1.429865 0.5114545 -0.9870725
v 1.384942 -0.08230066 -0.4599971
v 1.368857 0.2879552 -0.8761335
v 1.291045 -0.08229703 0.4996358
v -1.288562 0.4008093 -0.5566111
v -1.32922 -0.1811199 -0.5083868
v -1.497795 0.3758676 -0.8780459
v -1.338041 0.7262962 -0.6691997
v -1.068041 0.6417964 -0.3407005
v -1.032321 0.8857251 -0.5418836
v -0.9976567 0.4536365 1.447647
v -0.9358978 0.7334867 1.056223
v -0.3126957 0.7064153 1.369003
v -1.412822 0.3780694 1.072119
v -1.293448 0.7271564 0.6673135
v -1.421029 0.614395 0.2587233
v -1.539032 0.3638406 -0.2116031
v -1.40001 -0.06148234 1.037105
v -1.522104 -0.187415 -0.1574113
v -1.32922 -0.1811199 -0.5083868
v -1.288562 0.4008093 -0.5566111
v -1.068041 0.6417964 -0.3407005
v -1.421029 0.614395 0.2587233
v -1.233539 0.6923273 0.03987222
v -1.293448 0.7271564 0.6673135
v -1.025171 0.7329543 0.4184519
v -0.9358978 0.7334867 1.056223
v -0.3126957 0.7064153 1.369003
v -0.5893838 0.7199855 0.5748612
v -0.3939047 0.6916494 0.4632601
v 0.1635954 0.5859627 0.5247613
v 0.008988261 0.6392691 1.324077
v 0.6223673 0.464352 0.7313517
v 0.6146122 0.4472516 0.610965
v -0.5879482 1.049807 -0.4889341
v -0.5461892 0.9436962 -0.8821577
v -0.365079 1.130119 -0.9804258
v -0.2887069 1.182167 -0.3069788
v 1.180661 0.01383098 0.608445
v 0.613325 -0.07975919 0.594818
v 0.6146122 0.4472516 0.610965
v 1.129824 0.7556288 0.5878754
v 0.2964289 0.8664078 0.6131177
v 0.1635954 0.5859627 0.5247613
v 0.01148107 1.049001 0.3932343
v -0.08231556 0.8993211 0.5309319
v 0.2494146 -0.1023591 1.309577
v -1.035474 -0.0525778 1.441543
v -0.9976567 0.4536365 1.447647
v -0.3126957 0.7064153 1.369003
v 0.008988261 0.6392691 1.324077
v 0.2689465 0.165421 1.308179
v -1.035474 -0.0525778 1.441543
v -1.412822 0.3780694 1.072119
v -0.9976567 0.4536365 1.447647
v -1.40001 -0.06148234 1.037105
v 1.129824 0.7556288 0.5878754
v 1.422317 1.039297 0.2042449
v 1.539032 0.2753249 0.1656245
v 1.291045 -0.08229703 0.4996358
v 1.180661 0.01383098 0.608445
v -0.6066078 0.2155897 -1.3603
v -0.4961694 -0.1480218 -1.127618
v -0.3349413 0.6660354 -1.07177
v -0.8309374 0.6896702 -1.35415
v -0.5461892 0.9436962 -0.8821577
v -0.8439729 0.2139886 -1.38588
v -0.8056446 -0.05701201 -1.248701
v -0.4961694 -0.1480218 -1.127618
v -1.229228 0.371945 -1.19984
v -1.337425 0.5973051 -1.123883
v -1.497795 0.3758676 -0.8780459
v -1.302561 -0.1860986 -0.7675297
v -0.8056446 -0.05701201 -1.248701
v -1.32922 -0.1811199 -0.5083868
v -0.8340917 1.235204 -0.4616279
v -1.032321 0.8857251 -0.5418836
v -0.562148 0.8819262 -0.5114875
v -0.5879482 1.049807 -0.4889341
v -0.2887069 1.182167 -0.3069788
v -0.3221849 1.322411 -0.2545602
v -0.3221849 1.322411 -0.2545602
v -0.3610879 1.38312 0.1786421
v -0.8340917 1.235204 -0.4616279
v -1.262123 1.003114 -0.06024356
v -0.7804083 1.117618 0.6266314
v -1.112917 0.9991111 0.4703051
v -0.364175 1.194623 0.4660039
v -0.5893838 0.7199855 0.5748612
v -0.3307517 0.9808276 0.4373627
v -0.3939047 0.6916494 0.4632601
v -0.1617261 1.171357 -0.04881492
v -0.3307517 0.9808276 0.4373627
v -0.3221849 1.322411 -0.2545602
v -0.2887069 1.182167 -0.3069788
v -1.262123 1.003114 -0.06024356
v -1.032321 0.8857251 -0.5418836
v -0.8340917 1.235204 -0.4616279
v -1.233539 0.6923273 0.03987222
v -1.068041 0.6417964 -0.3407005
v -0.08231556 0.8993211 0.5309319
v 0.1635954 0.5859627 0.5247613
v -0.3939047 0.6916494 0.4632601
v -0.3307517 0.9808276 0.4373627
v 1.422317 1.039297 0.2042449
v 0.2781193 1.17814 0.2894684
v 1.234145 1.162235 -1.788139E-05
v 1.129824 0.7556288 0.5878754
v 0.2964289 0.8664078 0.6131177
v 0.01148107 1.049001 0.3932343
v -0.1617261 1.171357 -0.04881492
v -0.3307517 0.9808276 0.4373627
v -0.08231556 0.8993211 0.5309319
vt 0.02353644 0.8635265
vt 0.0024876 0.8909436
vt 0.01989809 0.8931637
vt 0.007011697 0.8656737
vt 0.02353644 0.8635265
vt 0.4765365 0.5908242
vt 0.4587024 0.5972936
vt 0.5212997 0.6428888
vt 0.4611428 0.5634097
vt 0.4592658 0.5821055
vt 0.7206985 0.4572018
vt 0.74301 0.4566584
vt 0.7316034 0.4254175
vt 0.8018192 0.8078429
vt 0.7809576 0.8184968
vt 0.7955107 0.8303155
vt 0.04375717 0.8594109
vt 0.05236548 0.8373273
vt 0.02353644 0.8635265
vt 0.02353644 0.8635265
vt 0.02570313 0.8468632
vt 0.4440498 0.5196533
vt 0.4604346 0.5291975
vt 0.5003519 0.4668371
vt 0.576641 0.4954675
vt 0.5696533 0.4703274
vt 0.5632325 0.4774269
vt 0.6877182 0.3699504
vt 0.6990861 0.371312
vt 0.6655477 0.3448921
vt 0.6585885 0.4282516
vt 0.6116774 0.4139329
vt 0.6499081 0.4709408
vt 0.5983714 0.4766209
vt 0.5887007 0.4336144
vt 0.5844119 0.4505506
vt 0.5899962 0.4886506
vt 0.63337 0.4967111
vt 0.6501104 0.4911363
vt 0.6986437 0.467632
vt 0.6585885 0.4282516
vt 0.6676128 0.4171933
vt 0.6997327 0.4811787
vt 0.6508955 0.5018423
vt 0.63337 0.4967111
vt 0.6292531 0.5134577
vt 0.5899962 0.4886506
vt 0.576641 0.4954675
vt 0.5920388 0.5162382
vt 0.6571599 0.5109246
vt 0.6997327 0.4811787
vt 0.7074928 0.4939104
vt 0.6314012 0.557111
vt 0.5949062 0.5685788
vt 0.666654 0.5224454
vt 0.6571599 0.5109246
vt 0.6810442 0.5444474
vt 0.7200378 0.5133938
vt 0.7074928 0.4939104
vt 0.7200378 0.5133938
vt 0.8405566 0.8362949
vt 0.8460508 0.8156939
vt 0.820908 0.8054204
vt 0.8018192 0.8078429
vt 0.7955107 0.8303155
vt 0.811446 0.8506778
vt 0.552166 0.4753375
vt 0.5117894 0.4761995
vt 0.5201275 0.5025994
vt 0.5245343 0.4485511
vt 0.5003519 0.4668371
vt 0.5452765 0.4462894
vt 0.558505 0.4742152
vt 0.6986437 0.467632
vt 0.6974655 0.4031684
vt 0.6676128 0.4171933
vt 0.7106426 0.4682343
vt 0.7316034 0.4254175
vt 0.7206985 0.4572018
vt 0.6990861 0.371312
vt 0.7844442 0.797877
vt 0.7488449 0.8120562
vt 0.7809576 0.8184968
vt 0.8018192 0.8078429
vt 0.8081957 0.7896814
vt 0.820908 0.8054204
vt 0.4839423 0.5446526
vt 0.5119705 0.5508585
vt 0.5125726 0.5179268
vt 0.4935013 0.5746506
vt 0.523244 0.5749924
vt 0.5340779 0.5951832
vt 0.5422902 0.6224324
vt 0.4765365 0.5908242
vt 0.5212997 0.6428888
vt 0.5400251 0.6558886
vt 0.563259 0.6308334
vt 0.5693694 0.608763
vt 0.5340779 0.5951832
vt 0.5502982 0.5960956
vt 0.523244 0.5749924
vt 0.5429912 0.5713255
vt 0.5119705 0.5508585
vt 0.5125726 0.5179268
vt 0.5462567 0.5456805
vt 0.5555242 0.5363665
vt 0.5619718 0.5027452
vt 0.5201275 0.5025994
vt 0.552166 0.4753375
vt 0.558505 0.4742152
vt 0.5696533 0.4703274
vt 0.576641 0.4954675
vt 0.5899962 0.4886506
vt 0.5844119 0.4505506
vt 0.6877182 0.3699504
vt 0.6655477 0.3448921
vt 0.6415405 0.3685055
vt 0.6589404 0.3944927
vt 0.6175526 0.3894638
vt 0.6096288 0.3747123
vt 0.597983 0.4042336
vt 0.5930984 0.3923378
vt 0.5003519 0.4668371
vt 0.4604346 0.5291975
vt 0.4839423 0.5446526
vt 0.5125726 0.5179268
vt 0.5201275 0.5025994
vt 0.5117894 0.4761995
vt 0.4611428 0.5634097
vt 0.4935013 0.5746506
vt 0.4839423 0.5446526
vt 0.4765365 0.5908242
vt 0.6589404 0.3944927
vt 0.6676128 0.4171933
vt 0.6974655 0.4031684
vt 0.6990861 0.371312
vt 0.6877182 0.3699504
vt 0.8016213 0.8738506
vt 0.8014499 0.8978223
vt 0.8367792 0.8614317
vt 0.811446 0.8506778
vt 0.8405566 0.8362949
vt 0.7888258 0.8673456
vt 0.7864215 0.8847404
vt 0.8014499 0.8978223
vt 0.7863125 0.8415545
vt 0.7955107 0.8303155
vt 0.7809576 0.8184968
vt 0.7507163 0.827375
vt 0.7713419 0.8656807
vt 0.7488449 0.8120562
vt 0.04662114 0.9123029
vt 0.02620107 0.9233377
vt 0.05513167 0.9332213
vt 0.05748022 0.9237384
vt 0.0770303 0.9110662
vt 0.07718715 0.9019762
vt 0.07718715 0.9019762
vt 0.06982216 0.8804638
vt 0.04662114 0.9123029
vt 0.01989809 0.8931637
vt 0.04375717 0.8594109
vt 0.02353644 0.8635265
vt 0.06731835 0.8621081
vt 0.05236548 0.8373273
vt 0.07204464 0.8519201
vt 0.06528854 0.8359575
vt 0.0881868 0.8862038
vt 0.07204464 0.8519201
vt 0.07718715 0.9019762
vt 0.08573589 0.9026024
vt 0.01989809 0.8931637
vt 0.02620107 0.9233377
vt 0.04662114 0.9123029
vt 0.0024876 0.8909436
vt 0.008924395 0.9154046
vt 0.5930984 0.3923378
vt 0.6096288 0.3747123
vt 0.5753081 0.3822418
vt 0.57934 0.3994727
vt 0.6676128 0.4171933
vt 0.6116774 0.4139329
vt 0.6585885 0.4282516
vt 0.6589404 0.3944927
vt 0.6175526 0.3894638
vt 0.597983 0.4042336
vt 0.5887007 0.4336144
vt 0.57934 0.3994727
vt 0.5930984 0.3923378
vn -0.9008821 -0.1919903 0.3892957
vn -0.9415643 -0.08652839 0.3255296
vn -0.9626579 -0.001331159 0.2707176
vn -0.801395 -0.3576099 0.4794592
vn -0.9008821 -0.1919903 0.3892957
vn -0.4444742 -0.8801811 0.166505
vn -0.2429106 -0.9058397 0.3470573
vn -0.4381317 -0.8881894 0.1384202
vn -0.0376222 -0.9010229 0.4321369
vn -0.2429106 -0.9058397 0.3470573
vn 0.795248 0.4753109 -0.3763777
vn 0.8441858 0.4603517 -0.274639
vn 0.9354314 0.2812864 0.2141169
vn -0.8681511 0.4771486 -0.1365393
vn -0.8681511 0.4771486 -0.1365393
vn -0.8681511 0.4771486 -0.1365393
vn -0.3271083 -0.2748588 0.904131
vn -0.3285423 -0.2781183 0.902613
vn -0.328934 -0.2790099 0.9021951
vn -0.328934 -0.2790099 0.9021951
vn -0.33134 -0.2844977 0.8995971
vn -0.2429106 -0.9058397 0.3470573
vn -0.0376222 -0.9010229 0.4321369
vn 0.008502081 -0.905458 0.4243507
vn -0.987519 -0.1428542 -0.06632227
vn -0.987519 -0.1428542 -0.06632227
vn -0.987519 -0.1428542 -0.06632227
vn 0.09748673 -0.6947164 0.7126468
vn 0.09748673 -0.6947164 0.7126468
vn 0.09748674 -0.6947165 0.7126468
vn 0.02061569 0.9997009 0.01315739
vn 0.004852946 0.9999597 0.007552638
vn 0.2372196 0.9588872 -0.1557631
vn -0.03105314 0.9982815 -0.04969583
vn -0.01645919 0.9998316 0.008125682
vn 0.02485668 0.9996896 -0.001722686
vn -0.07302227 0.9793788 -0.1883743
vn -0.02218104 0.9724422 -0.2320868
vn 0.4964506 0.6156974 -0.6119261
vn 0.6259472 0.6889165 -0.3654916
vn 0.6345707 0.7423047 -0.2151828
vn 0.6722683 0.7159268 -0.1884256
vn 0.582792 0.2566935 -0.7710136
vn 0.3511147 0.006773451 -0.936308
vn -0.2860928 0.2484273 -0.9254376
vn -0.3323215 0.1344113 -0.9335396
vn -0.5338604 0.1419804 -0.8335674
vn -0.5483357 0.1224566 -0.8272438
vn -0.534122 0.1482316 -0.8323107
vn 0.2905888 -0.3457407 -0.8922004
vn 0.3222897 -0.4739945 -0.8194258
vn 0.3158888 -0.4896288 -0.8126979
vn -0.340436 0.09068737 -0.9358842
vn -0.5136288 0.1595633 -0.8430451
vn 0.3009378 0.1336589 -0.9442308
vn 0.4650764 0.4020156 -0.7887253
vn 0.2955112 -0.0404685 -0.9544818
vn 0.4966311 -0.01035887 -0.8678998
vn 0.795248 0.4753109 -0.3763777
vn 0.8441858 0.4603517 -0.274639
vn -0.2461678 0.9515869 -0.1840751
vn -0.002649456 0.9864124 0.1642662
vn -0.2617456 0.941205 -0.2135941
vn -0.3217609 0.9075159 -0.2699719
vn -0.3141015 0.908899 -0.2743041
vn -0.3027651 0.9034263 -0.3035691
vn 0.860285 0.1853852 0.4749128
vn 0.7525617 0.2360317 0.6147681
vn 0.6989844 0.3627954 0.6162794
vn 0.8841768 0.08048534 0.4601669
vn 0.7285334 -0.04957509 0.6832139
vn 0.9976273 -0.0318892 0.06101527
vn 0.9979358 -0.0004705095 -0.06421808
vn 0.996651 -0.06354329 -0.05146987
vn 0.9901386 -0.1394934 0.0129262
vn 0.9883032 0.1494497 0.0303565
vn 0.9530281 -0.2622374 -0.151555
vn 0.9618729 -0.2570826 -0.0933222
vn 0.8089813 -0.4232898 -0.4078909
vn 0.8537264 -0.5139776 0.08353625
vn -0.8191577 0.09417149 0.5657847
vn -0.8372641 0.1029982 0.5370106
vn -0.8379089 0.08887118 0.5385264
vn -0.7558547 0.2200491 0.616654
vn -0.6752147 0.3553575 0.6463792
vn -0.5517241 0.5772692 0.6019641
vn -0.3714721 0.7820007 0.500483
vn -0.4029944 0.7691163 0.4960401
vn -0.2360554 0.8077242 0.5402401
vn -0.9295383 0.2841289 0.2350091
vn -0.7534702 0.5912194 0.2876494
vn -0.9463699 0.3075723 0.09891085
vn -0.9593129 0.2406755 -0.1476283
vn -0.9944913 -0.03222639 0.09974204
vn -0.9987287 -0.03429986 -0.03694039
vn -0.8479124 -0.03850269 -0.5287364
vn -0.769547 0.3723846 -0.5187747
vn -0.5491109 0.7812173 -0.2969457
vn -0.5208265 0.8293072 -0.2024586
vn -0.5004559 0.8328416 -0.2364716
vn -0.0860315 0.9959884 -0.0246127
vn -0.01502515 0.9996699 -0.02083742
vn 0.03863858 0.9992337 -0.006242667
vn 0.1433646 0.9894378 -0.0214314
vn 0.05990076 0.9981971 -0.003812969
vn 0.1752802 0.9840062 -0.03175729
vn 0.2245807 0.9741306 -0.02515983
vn 0.2219345 0.9748116 -0.02208264
vn 0.2689142 0.9626816 -0.03048463
vn 0.3171495 0.935892 -0.1533696
vn -0.4525537 0.889728 -0.05982655
vn -0.7567044 0.6065072 -0.2440236
vn -0.5689209 0.812812 -0.1251618
vn -0.3906916 0.9201312 -0.02680709
vn 0.007771627 0.004337075 0.9999604
vn -0.01896213 -0.03057275 0.9993526
vn 0.001074155 -0.001640365 0.9999981
vn 0.02897766 0.02640342 0.9992312
vn -0.2566874 -0.03481123 0.9658673
vn -0.3001167 -0.06082709 0.9519611
vn -0.1165949 0.23575 0.964794
vn 0.5112083 0.3860535 0.7678729
vn 0.1093565 -0.001535858 0.9940013
vn 0.1013985 -0.01956933 0.9946533
vn 0.1057548 -0.009719598 0.9943447
vn 0.1159588 0.00761508 0.9932248
vn 0.1413635 0.02647864 0.9896035
vn 0.06226027 0.000669346 0.9980597
vn -0.7016217 -0.003543173 0.7125409
vn -0.7085023 -0.01558041 0.7055365
vn -0.6743826 0.04149053 0.7372155
vn -0.7398967 -0.07481945 0.6685467
vn 0.7597802 0.08135419 0.6450703
vn 0.7615595 0.08385906 0.6426467
vn 0.7597108 0.07992447 0.6453305
vn 0.7538701 0.07632692 0.6525748
vn 0.7301262 0.06888831 0.679831
vn 0.5774572 -0.06263593 -0.8140146
vn 0.8100693 -0.1210799 -0.5736962
vn 0.5488712 0.3890046 -0.7398757
vn 0.1631966 0.3008914 -0.939591
vn 0.3778943 0.7007359 -0.6051158
vn -0.3623801 -0.2559891 -0.8961864
vn 0.1684889 -0.4763122 -0.8629821
vn 0.190013 -0.487591 -0.8521445
vn -0.5771433 -0.2640446 -0.7727782
vn -0.5938209 -0.01395318 -0.8044763
vn -0.7627259 -0.3424802 -0.548595
vn -0.7848557 -0.4160024 -0.4592857
vn -0.5656333 -0.4347236 -0.7007671
vn -0.935221 -0.3425326 -0.08962779
vn 0.1325917 0.2789999 -0.9510933
vn 0.06487485 0.1882475 -0.9799767
vn 0.05685602 0.182304 -0.9815969
vn 0.2005707 0.3981299 -0.8951334
vn 0.2848493 0.4277073 -0.8578621
vn 0.2859821 0.3946401 -0.8731973
vn -0.1078392 0.9831704 -0.1474666
vn -0.1140264 0.9798695 0.163871
vn -0.3689438 0.927624 0.05825966
vn -0.4096801 0.9050077 0.1145569
vn -0.278653 0.8757476 0.3942316
vn -0.3806432 0.9176717 0.1139709
vn 0.5167494 0.4738296 0.7130607
vn 0.3982361 0.02232599 0.9170113
vn 0.4973952 -0.03627571 0.8667653
vn 0.4923441 -0.02961828 0.8698965
vn 0.8305261 0.5489883 0.09401252
vn 0.9277451 0.09674618 0.360457
vn 0.7780936 0.6071453 -0.161074
vn 0.8457016 0.3518493 -0.4012367
vn -0.8966243 0.04992637 -0.4399684
vn -0.8344156 0.2931227 -0.4667223
vn -0.7181676 0.51486 -0.4681392
vn -0.9038991 -0.1988138 -0.3787341
vn -0.9112574 -0.174307 -0.3731312
vn -0.1724812 -0.06156211 0.9830872
vn -0.1317919 -0.122793 0.9836426
vn -0.1969859 -0.02382744 0.9801167
vn -0.3047341 0.1507698 0.9404285
vn 0.1404765 0.7975912 0.5866128
vn 0.03457325 0.7823225 0.6219133
vn 0.1399578 0.9000238 0.4127577
vn 0.1352175 0.7388387 0.660177
vn 0.09198233 0.7197845 0.6880767
vn -0.1724793 0.8675826 0.466424
vn -0.2101741 0.9179537 0.3364341
vn -0.1289344 0.9069044 0.4011239
vn -0.04475029 0.6914013 0.7210837
g polySurface24_0
f 3/3/3 2/2/2 1/1/1
f 5/5/5 2/2/2 4/4/4
f 8/8/8 7/7/7 6/6/6
f 10/10/10 9/9/9 6/6/6
f 13/13/13 12/12/12 11/11/11
f 16/16/16 15/15/15 14/14/14
f 19/19/19 18/18/18 17/17/17
f 21/21/21 18/18/18 20/20/20
f 24/24/24 23/23/23 22/22/22
f 27/27/27 26/26/26 25/25/25
f 30/30/30 29/29/29 28/28/28
f 33/33/33 32/32/32 31/31/31
f 33/33/33 34/34/34 32/32/32
f 35/35/35 32/32/32 34/34/34
f 36/36/36 35/35/35 34/34/34
f 37/37/37 36/36/36 34/34/34
f 34/34/34 33/33/33 37/37/37
f 37/37/37 33/33/33 38/38/38
f 38/38/38 33/33/33 39/39/39
f 40/40/40 39/39/39 33/33/33
f 40/40/40 33/33/33 41/41/41
f 41/41/41 42/42/42 40/40/40
f 40/40/40 43/43/43 39/39/39
f 39/39/39 43/43/43 44/44/44
f 45/45/45 39/39/39 44/44/44
f 44/44/44 46/46/46 45/45/45
f 47/47/47 45/45/45 46/46/46
f 47/47/47 46/46/46 48/48/48
f 48/48/48 46/46/46 49/49/49
f 44/44/44 50/50/50 46/46/46
f 51/51/51 50/50/50 44/44/44
f 52/52/52 50/50/50 51/51/51
f 46/46/46 53/53/53 49/49/49
f 54/54/54 49/49/49 53/53/53
f 55/55/55 53/53/53 46/46/46
f 46/46/46 56/56/56 55/55/55
f 57/57/57 53/53/53 55/55/55
f 58/58/58 57/57/57 55/55/55
f 56/56/56 59/59/59 55/55/55
f 60/60/60 55/55/55 59/59/59
f 63/63/63 62/62/62 61/61/61
f 64/64/64 63/63/63 61/61/61
f 64/64/64 61/61/61 65/65/65
f 65/65/65 61/61/61 66/66/66
f 69/69/69 68/68/68 67/67/67
f 68/68/68 70/70/70 67/67/67
f 71/71/71 70/70/70 68/68/68
f 67/67/67 70/70/70 72/72/72
f 67/67/67 72/72/72 73/73/73
f 76/76/76 75/75/75 74/74/74
f 77/77/77 74/74/74 75/75/75
f 75/75/75 78/78/78 77/77/77
f 77/77/77 78/78/78 79/79/79
f 78/78/78 75/75/75 80/80/80
f 83/83/83 82/82/82 81/81/81
f 81/81/81 84/84/84 83/83/83
f 85/85/85 84/84/84 81/81/81
f 85/85/85 86/86/86 84/84/84
f 89/89/89 88/88/88 87/87/87
f 87/87/87 88/88/88 90/90/90
f 88/88/88 91/91/91 90/90/90
f 91/91/91 92/92/92 90/90/90
f 92/92/92 93/93/93 90/90/90
f 93/93/93 94/94/94 90/90/90
f 95/95/95 94/94/94 93/93/93
f 93/93/93 96/96/96 95/95/95
f 97/97/97 96/96/96 93/93/93
f 98/98/98 97/97/97 93/93/93
f 98/98/98 93/93/93 99/99/99
f 99/99/99 100/100/100 98/98/98
f 101/101/101 100/100/100 99/99/99
f 100/100/100 101/101/101 102/102/102
f 101/101/101 103/103/103 102/102/102
f 103/103/103 104/104/104 102/102/102
f 102/102/102 104/104/104 105/105/105
f 105/105/105 104/104/104 106/106/106
f 106/106/106 104/104/104 107/107/107
f 107/107/107 104/104/104 108/108/108
f 107/107/107 108/108/108 109/109/109
f 107/107/107 109/109/109 110/110/110
f 113/113/113 112/112/112 111/111/111
f 111/111/111 114/114/114 113/113/113
f 117/117/117 116/116/116 115/115/115
f 117/117/117 115/115/115 118/118/118
f 119/119/119 117/117/117 118/118/118
f 120/120/120 117/117/117 119/119/119
f 119/119/119 121/121/121 120/120/120
f 121/121/121 122/122/122 120/120/120
f 125/125/125 124/124/124 123/123/123
f 125/125/125 123/123/123 126/126/126
f 123/123/123 127/127/127 126/126/126
f 127/127/127 123/123/123 128/128/128
f 131/131/131 130/130/130 129/129/129
f 130/130/130 132/132/132 129/129/129
f 135/135/135 134/134/134 133/133/133
f 136/136/136 135/135/135 133/133/133
f 137/137/137 136/136/136 133/133/133
f 140/140/140 139/139/139 138/138/138
f 140/140/140 138/138/138 141/141/141
f 141/141/141 142/142/142 140/140/140
f 138/138/138 143/143/143 141/141/141
f 138/138/138 144/144/144 143/143/143
f 138/138/138 145/145/145 144/144/144
f 141/141/141 143/143/143 146/146/146
f 146/146/146 147/147/147 141/141/141
f 147/147/147 146/146/146 148/148/148
f 146/146/146 143/143/143 149/149/149
f 149/149/149 148/148/148 146/146/146
f 150/150/150 149/149/149 143/143/143
f 149/149/149 151/151/151 148/148/148
f 154/154/154 153/153/153 152/152/152
f 155/155/155 154/154/154 152/152/152
f 152/152/152 156/156/156 155/155/155
f 157/157/157 156/156/156 152/152/152
f 160/160/160 159/159/159 158/158/158
f 161/161/161 159/159/159 160/160/160
f 162/162/162 159/159/159 161/161/161
f 163/163/163 162/162/162 161/161/161
f 159/159/159 162/162/162 164/164/164
f 164/164/164 162/162/162 165/165/165
f 165/165/165 166/166/166 164/164/164
f 167/167/167 166/166/166 165/165/165
f 164/164/164 168/168/168 159/159/159
f 169/169/169 168/168/168 164/164/164
f 170/170/170 159/159/159 168/168/168
f 170/170/170 168/168/168 171/171/171
f 174/174/174 173/173/173 172/172/172
f 173/173/173 175/175/175 172/172/172
f 173/173/173 176/176/176 175/175/175
f 179/179/179 178/178/178 177/177/177
f 180/180/180 179/179/179 177/177/177
f 183/183/183 182/182/182 181/181/181
f 184/184/184 181/181/181 182/182/182
f 184/184/184 182/182/182 185/185/185
f 186/186/186 185/185/185 182/182/182
f 182/182/182 187/187/187 186/186/186
f 188/188/188 186/186/186 187/187/187
f 186/186/186 188/188/188 189/189/189
