g polySurface160
v 0.2829776 0.7957237 -0.3279004
v 0.3839965 0.650022 -0.3631854
v 0.40978 0.7924649 0.1063771
v 0.2829776 0.7957237 -0.3279004
v -0.1340823 0.7437573 -0.4147439
v 0.3839965 0.650022 -0.3631854
v -0.3162436 0.8339244 0.1391864
v -0.4113154 0.7438729 0.2738938
v -0.3885064 0.7886218 -0.2517962
v -0.1340823 0.7437573 -0.4147439
v -0.3885064 0.7886218 -0.2517962
v -0.3044028 0.6184059 -0.4224219
v -0.3185716 -0.831468 0.2739711
v 0.1879802 -0.8336966 0.3529115
v -0.3303437 -0.8339244 -0.2071614
v 0.3472838 -0.8339012 0.1651149
v 0.3234487 -0.8334476 -0.3211017
v -0.1792493 -0.8275242 -0.3585496
v 0.2629876 0.7271356 0.42944
v 0.4104743 0.7396165 0.311398
v 0.2452159 -0.5577126 0.424293
v 0.4088655 -0.7399657 0.2591109
v 0.2898421 -0.7665479 0.3876681
v 0.3441682 -0.4859078 -0.4277425
v 0.4093814 -0.7332281 -0.323442
v 0.4113154 0.248166 -0.3453069
v 0.3839965 0.650022 -0.3631854
v 0.221499 0.4845673 -0.428802
v -0.1340823 0.7437573 -0.4147439
v -0.3044028 0.6184059 -0.4224219
v -0.3011031 -0.2709438 -0.4281611
v 0.06919432 -0.7481709 -0.42944
v 0.3234487 -0.8334476 -0.3211017
v 0.4093814 -0.7332281 -0.323442
v -0.1792493 -0.8275242 -0.3585496
v -0.34094 -0.7141025 -0.4009757
v -0.3863606 -0.7426475 -0.3281112
v -0.3303437 -0.8339244 -0.2071614
v -0.4100547 -0.2686552 -0.3533282
v -0.3863606 -0.7426475 -0.3281112
v -0.3044028 0.6184059 -0.4224219
v -0.3982558 -0.7338196 0.1876369
v -0.4107976 0.352614 -0.3472161
v -0.3885064 0.7886218 -0.2517962
v -0.4113154 0.7438729 0.2738938
v -0.4078088 0.2238793 0.3560481
v -0.3286595 -0.7073258 0.3380923
v -0.3367095 0.01105525 0.4268718
v -0.3004031 0.6919115 0.424087
v -0.4113154 0.7438729 0.2738938
v -0.3185716 -0.831468 0.2739711
v -0.3863606 -0.7426475 -0.3281112
v -0.3303437 -0.8339244 -0.2071614
v -0.1340823 0.7437573 -0.4147439
v 0.2829776 0.7957237 -0.3279004
v -0.3885064 0.7886218 -0.2517962
v -0.3162436 0.8339244 0.1391864
v 0.1396279 0.8289539 0.06101942
v 0.40978 0.7924649 0.1063771
v 0.2441907 0.8284571 0.3558202
v 0.4104743 0.7396165 0.311398
v 0.2629876 0.7271356 0.42944
v -0.04082632 0.8261655 0.3541551
v -0.3004031 0.6919115 0.424087
v -0.04082632 0.8261655 0.3541551
v -0.3004031 0.6919115 0.424087
v -0.4113154 0.7438729 0.2738938
v 0.2629876 0.7271356 0.42944
v -0.3367095 0.01105525 0.4268718
v -0.3004031 0.6919115 0.424087
v 0.06586599 -0.5650885 0.4291091
v 0.2452159 -0.5577126 0.424293
v 0.2898421 -0.7665479 0.3876681
v -0.3286595 -0.7073258 0.3380923
v 0.1879802 -0.8336966 0.3529115
v -0.3185716 -0.831468 0.2739711
v 0.3234487 -0.8334476 -0.3211017
v 0.3472838 -0.8339012 0.1651149
v 0.4093814 -0.7332281 -0.323442
v 0.4088655 -0.7399657 0.2591109
v 0.4113154 0.248166 -0.3453069
v 0.2898421 -0.7665479 0.3876681
v 0.1879802 -0.8336966 0.3529115
v 0.4104743 0.7396165 0.311398
v 0.40978 0.7924649 0.1063771
v 0.3839965 0.650022 -0.3631854
vt 0.9214614 0.9651091
vt 0.9311979 0.9711711
vt 0.9279215 0.937838
vt 0.9214614 0.9651091
vt 0.8968135 0.975053
vt 0.9311979 0.9711711
vt 0.8821416 0.9413777
vt 0.8740309 0.932781
vt 0.8794906 0.9665322
vt 0.2695182 0.6534493
vt 0.2724113 0.6328
vt 0.2610506 0.6438101
vt 0.02674996 0.9851428
vt 0.0258476 0.9673755
vt 0.01048794 0.9889463
vt 0.01834062 0.9632923
vt 0.001991546 0.9675421
vt 0.004270847 0.9848866
vt 0.2698331 0.5506201
vt 0.2702782 0.5388227
vt 0.1902568 0.5538606
vt 0.1788241 0.5404027
vt 0.1772738 0.5510089
vt 0.191199 0.6785917
vt 0.1748823 0.6842398
vt 0.2369744 0.6878979
vt 0.2622958 0.6873098
vt 0.252423 0.6758181
vt 0.2695182 0.6534493
vt 0.2610506 0.6438101
vt 0.2070443 0.6419791
vt 0.1758925 0.6609878
vt 0.168716 0.678505
vt 0.1748823 0.6842398
vt 0.1701868 0.6435734
vt 0.1803055 0.6378191
vt 0.1781499 0.6325861
vt 0.1713298 0.6270751
vt 0.2073731 0.6338979
vt 0.1781499 0.6325861
vt 0.2610506 0.6438101
vt 0.1790975 0.6001351
vt 0.2450798 0.6352964
vt 0.2724113 0.6328
vt 0.270753 0.5983465
vt 0.2386065 0.5933499
vt 0.1802339 0.5902465
vt 0.2254155 0.58716
vt 0.2677073 0.5863036
vt 0.270753 0.5983465
vt 0.1719064 0.5933581
vt 0.1781499 0.6325861
vt 0.1713298 0.6270751
vt 0.8968135 0.975053
vt 0.9214614 0.9651091
vt 0.8794906 0.9665322
vt 0.8821416 0.9413777
vt 0.9110624 0.9429547
vt 0.9279215 0.937838
vt 0.9146582 0.9244633
vt 0.9261774 0.9241417
vt 0.9161278 0.9166706
vt 0.8973305 0.9267997
vt 0.8791302 0.9215482
vt 0.8973305 0.9267997
vt 0.8791302 0.9215482
vt 0.8740309 0.932781
vt 0.2698331 0.5506201
vt 0.2254155 0.58716
vt 0.2677073 0.5863036
vt 0.1892542 0.5647764
vt 0.1902568 0.5538606
vt 0.1772738 0.5510089
vt 0.1802339 0.5902465
vt 0.1712069 0.5558953
vt 0.1719064 0.5933581
vt 0.1681865 0.5058609
vt 0.1705415 0.5376624
vt 0.1762848 0.5052671
vt 0.1788241 0.5404027
vt 0.2378585 0.4993976
vt 0.1772738 0.5510089
vt 0.1712069 0.5558953
vt 0.2702782 0.5388227
vt 0.2730643 0.5259664
vt 0.262977 0.4970005
vn 0.7753137 0.5912949 -0.2219432
vn 0.7753137 0.5912949 -0.2219432
vn 0.7753137 0.5912949 -0.2219432
vn 0.1526057 0.3312925 -0.9311051
vn 0.04537974 0.1228297 -0.9913897
vn 0.2535907 0.1633944 -0.9534118
vn -0.6605276 0.7499771 0.03518204
vn -0.6605276 0.7499771 0.03518204
vn -0.6605276 0.7499771 0.03518204
vn -0.3762403 0.5565924 -0.7407078
vn -0.3762404 0.5565923 -0.7407079
vn -0.3762403 0.5565925 -0.7407078
vn -0.005214927 -0.9999727 0.005232925
vn -0.002197691 -0.9999946 0.002440648
vn -0.002429768 -0.9999908 -0.00352817
vn 0.0001464839 -1 -0.0002042558
vn 0.0002029521 -0.9999955 -0.003019927
vn -0.008026062 -0.9987053 -0.05023255
vn 0.6254314 -0.01177634 0.7801902
vn 0.6364912 -0.01397101 0.7711574
vn 0.6936647 -0.02349182 0.7199149
vn 0.6989945 -0.02024368 0.7148405
vn 0.7295786 0.03612587 0.6829422
vn 0.2326885 -0.02318472 -0.9722749
vn 0.8325898 -0.01397791 -0.5537136
vn 0.7139333 0.01331688 -0.7000871
vn 0.2535907 0.1633944 -0.9534118
vn 0.09932239 0.04097906 -0.9942111
vn 0.04537974 0.1228297 -0.9913897
vn -0.009021019 0.01221858 -0.9998847
vn -0.1056649 -0.003416739 -0.994396
vn 0.03520805 -0.2098825 -0.9770925
vn 0.2592294 -0.3727443 -0.8909893
vn 0.3198673 -0.2953165 -0.9002628
vn -0.1389955 -0.6054252 -0.7836713
vn -0.2608076 -0.1412418 -0.9550027
vn -0.3931793 -0.7918284 -0.4673519
vn -0.3957791 -0.8118064 -0.4293357
vn -0.9905946 -0.01269078 -0.1362395
vn -0.99511 -0.0541416 -0.08261273
vn -0.7640513 0.127893 -0.6323519
vn -0.9895527 -0.1162634 0.08525248
vn -0.9862343 0.01369852 -0.1647854
vn -0.9926444 0.07204377 -0.09729645
vn -0.9999037 0.01135618 -0.007987778
vn -0.9907948 -0.002624456 0.1353471
vn -0.8936158 -0.09945942 0.4376738
vn -0.7946236 -0.06458009 0.6036577
vn -0.7734063 0.08618546 0.6280245
vn -0.7857019 0.09136218 0.6118215
vn -0.8298489 -0.5427683 0.1294349
vn -0.8368614 -0.5472485 0.0134914
vn -0.8657702 -0.4998786 0.02373542
vn -0.04779101 0.9414227 -0.3338255
vn 0.0137748 0.9939005 -0.1094164
vn -0.02566283 0.9906515 -0.1339819
vn -0.0638833 0.9978758 0.01276251
vn 0.04280153 0.9978862 -0.04889831
vn 0.1849802 0.9826924 -0.0099044
vn 0.1434088 0.9515036 0.272167
vn 0.5107864 0.8045632 0.3029444
vn 0.01092517 0.07475401 0.9971421
vn -0.03843871 0.5273463 0.8487806
vn -0.01157548 0.0332091 0.9993814
vn -0.07927928 0.9887692 0.1266895
vn -0.2991782 0.8472383 0.4389529
vn -0.1950627 0.8734099 0.4462126
vn 0.01092517 0.07475401 0.9971421
vn -0.02543031 -0.0127114 0.9995958
vn -0.01157548 0.0332091 0.9993814
vn -0.0600967 -0.08697541 0.9943961
vn 0.02800993 -0.02884845 0.9991912
vn -0.06625697 -0.2711936 0.9602417
vn -0.1635012 -0.2140074 0.9630515
vn -0.109658 -0.3308409 0.9372937
vn -0.1384406 -0.4633504 0.8752947
vn 0.758165 -0.6509677 -0.03777385
vn 0.7853563 -0.6154754 0.06637464
vn 0.9978579 -0.0653703 -0.002502351
vn 0.9984334 -0.05410573 0.01426025
vn 0.9999887 0.003355122 -0.003398265
vn 0.4669015 -0.8057564 0.3643616
vn 0.4243359 -0.8304929 0.3608612
vn 0.9999987 -0.0004353062 0.001606661
vn 0.9994847 0.02212198 -0.02325847
vn 0.9951674 0.06435326 -0.07416606
g polySurface160_0
f 3/3/3 2/2/2 1/1/1
f 6/6/6 5/5/5 4/4/4
f 9/9/9 8/8/8 7/7/7
f 12/12/12 11/11/11 10/10/10
f 15/15/15 14/14/14 13/13/13
f 16/16/16 14/14/14 15/15/15
f 17/17/17 16/16/16 15/15/15
f 17/17/17 15/15/15 18/18/18
f 21/21/21 20/20/20 19/19/19
f 21/21/21 22/22/22 20/20/20
f 21/21/21 23/23/23 22/22/22
f 26/26/26 25/25/25 24/24/24
f 26/26/26 24/24/24 27/27/27
f 28/28/28 27/27/27 24/24/24
f 27/27/27 28/28/28 29/29/29
f 28/28/28 30/30/30 29/29/29
f 28/28/28 31/31/31 30/30/30
f 24/24/24 31/31/31 28/28/28
f 24/24/24 32/32/32 31/31/31
f 24/24/24 33/33/33 32/32/32
f 34/34/34 33/33/33 24/24/24
f 33/33/33 35/35/35 32/32/32
f 32/32/32 36/36/36 31/31/31
f 32/32/32 35/35/35 36/36/36
f 35/35/35 37/37/37 36/36/36
f 35/35/35 38/38/38 37/37/37
f 31/31/31 36/36/36 39/39/39
f 36/36/36 40/40/40 39/39/39
f 31/31/31 39/39/39 41/41/41
f 42/42/42 39/39/39 40/40/40
f 41/41/41 39/39/39 43/43/43
f 41/41/41 43/43/43 44/44/44
f 44/44/44 43/43/43 45/45/45
f 46/46/46 45/45/45 43/43/43
f 46/46/46 43/43/43 39/39/39
f 39/39/39 42/42/42 46/46/46
f 42/42/42 47/47/47 46/46/46
f 48/48/48 46/46/46 47/47/47
f 46/46/46 48/48/48 49/49/49
f 50/50/50 46/46/46 49/49/49
f 51/51/51 47/47/47 42/42/42
f 51/51/51 42/42/42 52/52/52
f 53/53/53 51/51/51 52/52/52
f 56/56/56 55/55/55 54/54/54
f 57/57/57 55/55/55 56/56/56
f 55/55/55 57/57/57 58/58/58
f 55/55/55 58/58/58 59/59/59
f 58/58/58 60/60/60 59/59/59
f 60/60/60 61/61/61 59/59/59
f 62/62/62 61/61/61 60/60/60
f 63/63/63 62/62/62 60/60/60
f 64/64/64 62/62/62 63/63/63
f 65/65/65 60/60/60 58/58/58
f 65/65/65 58/58/58 57/57/57
f 57/57/57 66/66/66 65/65/65
f 67/67/67 66/66/66 57/57/57
f 70/70/70 69/69/69 68/68/68
f 71/71/71 68/68/68 69/69/69
f 71/71/71 72/72/72 68/68/68
f 71/71/71 73/73/73 72/72/72
f 69/69/69 74/74/74 71/71/71
f 71/71/71 75/75/75 73/73/73
f 74/74/74 75/75/75 71/71/71
f 75/75/75 74/74/74 76/76/76
f 79/79/79 78/78/78 77/77/77
f 79/79/79 80/80/80 78/78/78
f 81/81/81 80/80/80 79/79/79
f 80/80/80 82/82/82 78/78/78
f 82/82/82 83/83/83 78/78/78
f 81/81/81 84/84/84 80/80/80
f 81/81/81 85/85/85 84/84/84
f 85/85/85 81/81/81 86/86/86
