g polySurface52
v 0.2756777 -0.06875776 -0.4364885
v 0.2645901 0.4304362 -0.4172843
v 0.2316271 0.4304362 -0.4172843
v 0.2205395 -0.06875776 -0.4364885
v 0.2205395 -0.06875776 -0.4364885
v 0.2316271 0.4304362 -0.4172843
v 0.2151456 0.4304362 -0.3887374
v 0.1929704 -0.06875776 -0.3887374
v 0.1929704 -0.06875776 -0.3887374
v 0.2151456 0.4304362 -0.3887374
v 0.2316271 0.4304362 -0.3601906
v 0.2205395 -0.06875776 -0.3409863
v 0.2205395 -0.06875776 -0.3409863
v 0.2316271 0.4304362 -0.3601906
v 0.2645901 0.4304362 -0.3601906
v 0.2756777 -0.06875776 -0.3409863
v 0.2756777 -0.06875776 -0.3409863
v 0.2645901 0.4304362 -0.3601906
v 0.2810716 0.4304362 -0.3887374
v 0.3032468 -0.06875776 -0.3887374
v 0.3032468 -0.06875776 -0.3887374
v 0.2810716 0.4304362 -0.3887374
v 0.2645901 0.4304362 -0.4172843
v 0.2756777 -0.06875776 -0.4364885
v -0.376126 -0.06344508 0.1361572
v -0.3990182 0.1694601 0.1185418
v -0.4163229 0.167666 0.1102004
v -0.4050721 -0.06644621 0.1222043
v -0.4050721 -0.06644621 0.1222043
v -0.4163229 0.167666 0.1102004
v -0.4323136 0.1679857 0.1209916
v -0.4318201 -0.06591146 0.140255
v -0.4318201 -0.06591146 0.140255
v -0.4323136 0.1679857 0.1209916
v -0.4309994 0.1700995 0.1401242
v -0.429622 -0.06237562 0.1722586
v -0.429622 -0.06237562 0.1722586
v -0.4309994 0.1700995 0.1401242
v -0.4136948 0.1718936 0.1484656
v -0.4006759 -0.05937449 0.1862116
v -0.4006759 -0.05937449 0.1862116
v -0.4136948 0.1718936 0.1484656
v -0.3977042 0.171574 0.1376744
v -0.373928 -0.05990922 0.1681608
v -0.373928 -0.05990922 0.1681608
v -0.3977042 0.171574 0.1376744
v -0.3990182 0.1694601 0.1185418
v -0.376126 -0.06344508 0.1361572
v 0.08127046 -0.05457198 0.4612579
v 0.04027994 0.3209645 0.5052347
v 0.03433638 0.3242536 0.477742
v 0.07132843 -0.04907016 0.4152699
v 0.07132843 -0.04907016 0.4152699
v 0.03433638 0.3242536 0.477742
v 0.00743092 0.323787 0.4689172
v 0.02632286 -0.04985073 0.4005083
v 0.02632286 -0.04985073 0.4005083
v 0.00743092 0.323787 0.4689172
v -0.01353095 0.3200311 0.4875851
v -0.008740751 -0.05613317 0.4317347
v -0.008740751 -0.05613317 0.4317347
v -0.01353095 0.3200311 0.4875851
v -0.007587417 0.3167421 0.5150778
v 0.001201266 -0.061635 0.4777227
v 0.001201266 -0.061635 0.4777227
v -0.007587417 0.3167421 0.5150778
v 0.01931806 0.3172087 0.5239028
v 0.04620683 -0.06085436 0.4924842
v 0.04620683 -0.06085436 0.4924842
v 0.01931806 0.3172087 0.5239028
v 0.04027994 0.3209645 0.5052347
v 0.08127046 -0.05457198 0.4612579
v 0.2033825 0.2262523 -0.008381053
v 0.3805342 0.3202655 0.003729345
v 0.2306216 0.2196706 0.09190398
v 0.240179 0.2271271 -0.1057855
v 0.3269559 0.2219609 -0.1631043
v 0.4305677 0.212727 -0.1584434
v 0.511438 0.2029525 -0.09358325
v 0.5386772 0.1963708 0.006701758
v 0.2306216 0.2196706 0.09190398
v 0.3805342 0.3202655 0.003729345
v 0.3114919 0.2098961 0.1567641
v 0.4151036 0.2006622 0.161425
v 0.5018807 0.195496 0.1041062
v 0.5386772 0.1963708 0.006701758
v 0.3497331 -0.06871664 -0.039505
v 0.3758586 0.222181 -0.01484203
v 0.3604073 0.2231009 -0.004636029
v 0.3238871 -0.06717792 -0.02243301
v 0.3238871 -0.06717792 -0.02243301
v 0.3604073 0.2231009 -0.004636029
v 0.361446 0.2222348 0.01385519
v 0.3256246 -0.06862658 0.008497808
v 0.3256246 -0.06862658 0.008497808
v 0.361446 0.2222348 0.01385519
v 0.377936 0.2204489 0.02214031
v 0.3532079 -0.07161394 0.02235664
v 0.3532079 -0.07161394 0.02235664
v 0.377936 0.2204489 0.02214031
v 0.3933873 0.219529 0.01193431
v 0.3790539 -0.07315266 0.005284622
v 0.3790539 -0.07315266 0.005284622
v 0.3933873 0.219529 0.01193431
v 0.3923486 0.2203951 -0.006556909
v 0.3773164 -0.07170401 -0.02564614
v 0.3773164 -0.07170401 -0.02564614
v 0.3923486 0.2203951 -0.006556909
v 0.3758586 0.222181 -0.01484203
v 0.3497331 -0.06871664 -0.039505
v 0.4599895 0.3931596 -0.5520989
v 0.2401041 0.5110125 -0.3923428
v 0.3240928 0.3931596 -0.6508337
v 0.5118974 0.3931596 -0.3923428
v 0.1561153 0.3931596 -0.6508337
v 0.4599895 0.3931596 -0.2325867
v 0.02021856 0.3931596 -0.5520989
v 0.3240929 0.3931596 -0.1338519
v -0.03168933 0.3931596 -0.3923428
v 0.1561153 0.3931596 -0.1338519
v 0.0202186 0.3931596 -0.2325866
v -0.2410881 0.1663503 0.09271529
v -0.4181011 0.2476431 0.1143727
v -0.2917414 0.1535605 -0.002215643
v -0.2563152 0.1769684 0.1994702
v -0.3889271 0.1434843 -0.04906218
v -0.3316064 0.1813591 0.2772722
v -0.4955238 0.1399704 -0.02993066
v -0.4382031 0.1778452 0.2964038
v -0.570815 0.1443611 0.04787141
v -0.5353889 0.167769 0.2495572
v -0.5860421 0.1549792 0.1546263
v 0.2140201 0.2968107 0.6616306
v 0.01415611 0.4484609 0.508525
v 0.2782447 0.3198025 0.5179555
v 0.07672244 0.2780814 0.739698
v 0.2448647 0.3382747 0.3635518
v -0.08120522 0.2707685 0.7223387
v 0.1266301 0.3451715 0.2573963
v -0.1994398 0.2776653 0.6161833
v -0.03129758 0.3378586 0.2400371
v -0.2328199 0.2961375 0.4617796
v -0.1685953 0.3191293 0.3181046
vt 0.749628 0.4384083
vt 0.7941741 0.6605046
vt 0.8165105 0.6547734
vt 0.7857475 0.4334204
vt 0.7857475 0.4334204
vt 0.8165105 0.6547734
vt 0.8394076 0.652483
vt 0.8240494 0.4295746
vt 0.8240494 0.4295746
vt 0.8394076 0.652483
vt 0.862407 0.6518402
vt 0.8625309 0.4284131
vt 0.8625309 0.4284131
vt 0.862407 0.6518402
vt 0.8854002 0.6527666
vt 0.900996 0.4298999
vt 0.900996 0.4298999
vt 0.8854002 0.6527666
vt 0.9082818 0.6552125
vt 0.939274 0.4339622
vt 0.939274 0.4339622
vt 0.9082818 0.6552125
vt 0.9309403 0.6592204
vt 0.977188 0.4405985
vt 0.8651436 0.7215362
vt 0.8882356 0.8289924
vt 0.8997245 0.8259019
vt 0.8837346 0.7187336
vt 0.8837346 0.7187336
vt 0.8997245 0.8259019
vt 0.9115511 0.8245951
vt 0.9035192 0.7165619
vt 0.9035192 0.7165619
vt 0.9115511 0.8245951
vt 0.9234421 0.8241698
vt 0.923409 0.7158343
vt 0.923409 0.7158343
vt 0.9234421 0.8241698
vt 0.9353315 0.8246166
vt 0.9432985 0.7165733
vt 0.9432985 0.7165733
vt 0.9353315 0.8246166
vt 0.9471565 0.8259383
vt 0.9630776 0.7187819
vt 0.9630776 0.7187819
vt 0.9471565 0.8259383
vt 0.9588236 0.8281294
vt 0.9826254 0.7224344
vt 0.8651436 0.7215362
vt 0.8882356 0.8289924
vt 0.8997245 0.8259019
vt 0.8837346 0.7187336
vt 0.8837346 0.7187336
vt 0.8997245 0.8259019
vt 0.9115511 0.8245951
vt 0.9035192 0.7165619
vt 0.9035192 0.7165619
vt 0.9115511 0.8245951
vt 0.9234421 0.8241698
vt 0.923409 0.7158343
vt 0.923409 0.7158343
vt 0.9234421 0.8241698
vt 0.9353315 0.8246166
vt 0.9432985 0.7165733
vt 0.9432985 0.7165733
vt 0.9353315 0.8246166
vt 0.9471565 0.8259383
vt 0.9630776 0.7187819
vt 0.9630776 0.7187819
vt 0.9471565 0.8259383
vt 0.9588236 0.8281294
vt 0.9826254 0.7224344
vt 0.6106824 0.7625119
vt 0.7197788 0.7980823
vt 0.6524361 0.7051681
vt 0.6106176 0.8334327
vt 0.6522639 0.8908588
vt 0.719646 0.9129804
vt 0.7870797 0.8910143
vt 0.8288578 0.8336869
vt 0.6524361 0.7051681
vt 0.7197788 0.7980823
vt 0.7199103 0.6833302
vt 0.7873392 0.7053259
vt 0.8289567 0.7627627
vt 0.8288578 0.8336869
vt 0.8651436 0.7215362
vt 0.8882356 0.8289924
vt 0.8997245 0.8259019
vt 0.8837346 0.7187336
vt 0.8837346 0.7187336
vt 0.8997245 0.8259019
vt 0.9115511 0.8245951
vt 0.9035192 0.7165619
vt 0.9035192 0.7165619
vt 0.9115511 0.8245951
vt 0.9234421 0.8241698
vt 0.923409 0.7158343
vt 0.923409 0.7158343
vt 0.9234421 0.8241698
vt 0.9353315 0.8246166
vt 0.9432985 0.7165733
vt 0.9432985 0.7165733
vt 0.9353315 0.8246166
vt 0.9471565 0.8259383
vt 0.9630776 0.7187819
vt 0.9630776 0.7187819
vt 0.9471565 0.8259383
vt 0.9588236 0.8281294
vt 0.9826254 0.7224344
vt 0.8720473 0.08889446
vt 0.7114266 0.2058506
vt 0.9101301 0.2056458
vt 0.7726393 0.01676399
vt 0.8723083 0.3224921
vt 0.64979 0.0169017
vt 0.7730401 0.3947798
vt 0.5505441 0.08925492
vt 0.650237 0.3949175
vt 0.512723 0.2060918
vt 0.5508067 0.3228525
vt 0.719646 0.9129804
vt 0.7197788 0.7980823
vt 0.6522639 0.8908588
vt 0.7870797 0.8910143
vt 0.6106176 0.8334327
vt 0.8288578 0.8336869
vt 0.6106824 0.7625119
vt 0.8289567 0.7627627
vt 0.6524361 0.7051681
vt 0.7873392 0.7053259
vt 0.7199103 0.6833302
vt 0.719646 0.9129804
vt 0.7197788 0.7980823
vt 0.6522639 0.8908588
vt 0.7870797 0.8910143
vt 0.6106176 0.8334327
vt 0.8288578 0.8336869
vt 0.6106824 0.7625119
vt 0.8289567 0.7627627
vt 0.6524361 0.7051681
vt 0.7873392 0.7053259
vt 0.7199103 0.6833302
vn 0.4995074 0.04437831 -0.8651721
vn 0.4995074 0.04437831 -0.8651721
vn -0.4995072 0.04437828 -0.8651723
vn -0.4995072 0.04437828 -0.8651723
vn -0.4995072 0.04437828 -0.8651723
vn -0.4995072 0.04437828 -0.8651723
vn -0.9990149 0.04437828 0
vn -0.9990149 0.04437828 0
vn -0.9990149 0.04437828 0
vn -0.9990149 0.04437828 0
vn -0.4995077 0.0443783 0.8651721
vn -0.4995077 0.0443783 0.8651721
vn -0.4995077 0.0443783 0.8651721
vn -0.4995077 0.0443783 0.8651721
vn 0.4995077 0.04437828 0.8651721
vn 0.4995077 0.04437828 0.8651721
vn 0.4995077 0.04437828 0.8651721
vn 0.4995077 0.04437828 0.8651721
vn 0.9990149 0.04437829 0
vn 0.9990149 0.04437829 0
vn 0.9990149 0.04437829 0
vn 0.9990149 0.04437829 0
vn 0.4995074 0.04437831 -0.8651721
vn 0.4995074 0.04437831 -0.8651721
vn 0.8246633 0.03837477 -0.5643207
vn 0.8246633 0.03837477 -0.5643207
vn -0.07086933 -0.05447438 -0.9959971
vn -0.07086933 -0.05447438 -0.9959971
vn -0.07086933 -0.05447438 -0.9959971
vn -0.07086933 -0.05447438 -0.9959971
vn -0.898396 -0.03793079 -0.4375454
vn -0.898396 -0.03793079 -0.4375454
vn -0.898396 -0.03793079 -0.4375454
vn -0.898396 -0.03793079 -0.4375454
vn -0.8303899 0.0714618 0.5525811
vn -0.8303899 0.0714618 0.5525811
vn -0.8303899 0.0714618 0.5525811
vn -0.8303899 0.0714618 0.5525811
vn 0.06514224 0.1643105 0.9842553
vn 0.06514224 0.1643105 0.9842553
vn 0.06514224 0.1643105 0.9842553
vn 0.06514224 0.1643105 0.9842553
vn 0.8926672 0.1477668 0.4258053
vn 0.8926672 0.1477668 0.4258053
vn 0.8926672 0.1477668 0.4258053
vn 0.8926672 0.1477668 0.4258053
vn 0.8246633 0.03837477 -0.5643207
vn 0.8246633 0.03837477 -0.5643207
vn 0.9458532 0.06602497 0.3178089
vn 0.9458532 0.06602497 0.3178089
vn 0.7362422 0.1820219 -0.6517786
vn 0.7362422 0.1820219 -0.6517786
vn 0.7362422 0.1820219 -0.6517786
vn 0.7362422 0.1820219 -0.6517786
vn -0.2126297 0.1655643 -0.9630042
vn -0.2126297 0.1655643 -0.9630042
vn -0.2126297 0.1655643 -0.9630042
vn -0.2126297 0.1655643 -0.9630042
vn -0.9518911 0.0331096 -0.3046425
vn -0.9518911 0.0331096 -0.3046425
vn -0.9518911 0.0331096 -0.3046425
vn -0.9518911 0.0331096 -0.3046425
vn -0.7422796 -0.08288751 0.6649441
vn -0.7422796 -0.08288751 0.6649441
vn -0.7422796 -0.08288751 0.6649441
vn -0.7422796 -0.08288751 0.6649441
vn 0.2065912 -0.06642985 0.9761696
vn 0.2065912 -0.06642985 0.9761696
vn 0.2065912 -0.06642985 0.9761696
vn 0.2065912 -0.06642985 0.9761696
vn 0.9458532 0.06602497 0.3178089
vn 0.9458532 0.06602497 0.3178089
vn -0.4693114 0.882969 0.0106151
vn 0.08682775 0.9953485 0.04174034
vn -0.381228 0.8616858 0.334907
vn -0.3503227 0.8857978 -0.3043621
vn -0.06971162 0.869092 -0.4897136
vn 0.265338 0.8392323 -0.4746417
vn 0.526848 0.8076245 -0.2649035
vn 0.614931 0.7863415 0.05938805
vn -0.381228 0.8616858 0.334907
vn 0.08682775 0.9953485 0.04174034
vn -0.1197177 0.830078 0.544645
vn 0.2153313 0.8002184 0.5597168
vn 0.4959422 0.7835127 0.374365
vn 0.614931 0.7863415 0.05938805
vn -0.05227464 0.08902404 -0.9946568
vn -0.05227464 0.08902404 -0.9946568
vn -0.8848994 0.1385935 -0.444685
vn -0.8848994 0.1385935 -0.444685
vn -0.8848994 0.1385935 -0.444685
vn -0.8848994 0.1385935 -0.444685
vn -0.8289288 0.09192521 0.551749
vn -0.8289288 0.09192521 0.551749
vn -0.8289288 0.09192521 0.551749
vn -0.8289288 0.09192521 0.551749
vn 0.05966636 -0.004312484 0.9982091
vn 0.05966636 -0.004312484 0.9982091
vn 0.05966636 -0.004312484 0.9982091
vn 0.05966636 -0.004312484 0.9982091
vn 0.8922898 -0.05388173 0.4482363
vn 0.8922898 -0.05388173 0.4482363
vn 0.8922898 -0.05388173 0.4482363
vn 0.8922898 -0.05388173 0.4482363
vn 0.8363188 -0.007213494 -0.5481959
vn 0.8363188 -0.007213494 -0.5481959
vn 0.8363188 -0.007213494 -0.5481959
vn 0.8363188 -0.007213494 -0.5481959
vn -0.05227464 0.08902404 -0.9946568
vn -0.05227464 0.08902404 -0.9946568
vn 0.3218454 0.9174623 -0.2338344
vn 0 1 0
vn 0.122934 0.9174622 -0.3783522
vn 0.3978228 0.9174623 0
vn -0.1229341 0.9174622 -0.3783521
vn 0.3218454 0.9174623 0.2338344
vn -0.3218455 0.9174623 -0.2338344
vn 0.122934 0.9174623 0.3783521
vn -0.3978228 0.9174623 0
vn -0.122934 0.9174623 0.378352
vn -0.3218454 0.9174623 0.2338343
vn 0.3933378 0.9028037 -0.1738702
vn -0.05178522 0.9930004 -0.106153
vn 0.2642168 0.870201 -0.4158603
vn 0.3545224 0.9298704 0.09825998
vn 0.01647927 0.8445154 -0.5352776
vn 0.1625965 0.9410627 0.2965859
vn -0.2552474 0.8355582 -0.4865092
vn -0.1091306 0.9321055 0.3453544
vn -0.4471733 0.8467507 -0.2881828
vn -0.3568684 0.9064201 0.2259374
vn -0.4859892 0.8738174 -0.0160523
vn 0.3063512 0.8454323 0.437485
vn -0.06026309 0.9894951 0.131407
vn 0.4269116 0.8885918 0.167783
vn 0.04862107 0.8102742 0.5840306
vn 0.364252 0.9232671 -0.1220586
vn -0.2478357 0.7965467 0.5514443
vn 0.1423057 0.9362136 -0.3213301
vn -0.4697821 0.8094931 0.352173
vn -0.154151 0.9224861 -0.3539164
vn -0.5324417 0.8441685 0.06233132
vn -0.4118814 0.887328 -0.2073708
g polySurface52_0
f 3/3/3 2/2/2 1/1/1
f 4/4/4 3/3/3 1/1/1
f 7/7/7 6/6/6 5/5/5
f 8/8/8 7/7/7 5/5/5
f 11/11/11 10/10/10 9/9/9
f 12/12/12 11/11/11 9/9/9
f 15/15/15 14/14/14 13/13/13
f 16/16/16 15/15/15 13/13/13
f 19/19/19 18/18/18 17/17/17
f 20/20/20 19/19/19 17/17/17
f 23/23/23 22/22/22 21/21/21
f 24/24/24 23/23/23 21/21/21
f 27/27/27 26/26/26 25/25/25
f 28/28/28 27/27/27 25/25/25
f 31/31/31 30/30/30 29/29/29
f 32/32/32 31/31/31 29/29/29
f 35/35/35 34/34/34 33/33/33
f 36/36/36 35/35/35 33/33/33
f 39/39/39 38/38/38 37/37/37
f 40/40/40 39/39/39 37/37/37
f 43/43/43 42/42/42 41/41/41
f 44/44/44 43/43/43 41/41/41
f 47/47/47 46/46/46 45/45/45
f 48/48/48 47/47/47 45/45/45
f 51/51/51 50/50/50 49/49/49
f 52/52/52 51/51/51 49/49/49
f 55/55/55 54/54/54 53/53/53
f 56/56/56 55/55/55 53/53/53
f 59/59/59 58/58/58 57/57/57
f 60/60/60 59/59/59 57/57/57
f 63/63/63 62/62/62 61/61/61
f 64/64/64 63/63/63 61/61/61
f 67/67/67 66/66/66 65/65/65
f 68/68/68 67/67/67 65/65/65
f 71/71/71 70/70/70 69/69/69
f 72/72/72 71/71/71 69/69/69
f 75/75/75 74/74/74 73/73/73
f 73/73/73 74/74/74 76/76/76
f 76/76/76 74/74/74 77/77/77
f 77/77/77 74/74/74 78/78/78
f 78/78/78 74/74/74 79/79/79
f 79/79/79 74/74/74 80/80/80
f 83/83/83 82/82/82 81/81/81
f 84/84/84 82/82/82 83/83/83
f 85/85/85 82/82/82 84/84/84
f 86/86/86 82/82/82 85/85/85
f 89/89/89 88/88/88 87/87/87
f 90/90/90 89/89/89 87/87/87
f 93/93/93 92/92/92 91/91/91
f 94/94/94 93/93/93 91/91/91
f 97/97/97 96/96/96 95/95/95
f 98/98/98 97/97/97 95/95/95
f 101/101/101 100/100/100 99/99/99
f 102/102/102 101/101/101 99/99/99
f 105/105/105 104/104/104 103/103/103
f 106/106/106 105/105/105 103/103/103
f 109/109/109 108/108/108 107/107/107
f 110/110/110 109/109/109 107/107/107
f 113/113/113 112/112/112 111/111/111
f 111/111/111 112/112/112 114/114/114
f 115/115/115 112/112/112 113/113/113
f 114/114/114 112/112/112 116/116/116
f 117/117/117 112/112/112 115/115/115
f 116/116/116 112/112/112 118/118/118
f 119/119/119 112/112/112 117/117/117
f 118/118/118 112/112/112 120/120/120
f 121/121/121 112/112/112 119/119/119
f 120/120/120 112/112/112 121/121/121
f 124/124/124 123/123/123 122/122/122
f 122/122/122 123/123/123 125/125/125
f 126/126/126 123/123/123 124/124/124
f 125/125/125 123/123/123 127/127/127
f 128/128/128 123/123/123 126/126/126
f 127/127/127 123/123/123 129/129/129
f 130/130/130 123/123/123 128/128/128
f 129/129/129 123/123/123 131/131/131
f 132/132/132 123/123/123 130/130/130
f 131/131/131 123/123/123 132/132/132
f 135/135/135 134/134/134 133/133/133
f 133/133/133 134/134/134 136/136/136
f 137/137/137 134/134/134 135/135/135
f 136/136/136 134/134/134 138/138/138
f 139/139/139 134/134/134 137/137/137
f 138/138/138 134/134/134 140/140/140
f 141/141/141 134/134/134 139/139/139
f 140/140/140 134/134/134 142/142/142
f 143/143/143 134/134/134 141/141/141
f 142/142/142 134/134/134 143/143/143
