g polySphere01_Sm
v 0.5669224 -1.935598 -0.5669226
v -2.193515E-07 -2.095076 0
v 0.7407212 -1.935598 -0.3068164
v 1.047538 -1.481443 -1.047537
v 1.368675 -1.481443 -0.5669226
v 1.368675 -0.8017508 -1.368674
v 1.788259 -0.8017508 -0.7407202
v 1.481443 0 -1.481442
v 1.935599 0 -0.8017505
v 1.368675 0.8017508 -1.368674
v 1.788259 0.8017508 -0.7407202
v 1.047538 1.481443 -1.047537
v 1.368675 1.481443 -0.5669226
v 0.5669224 1.935598 -0.5669226
v 0.7407212 1.935598 -0.3068164
v -2.193515E-07 2.095076 0
v 0.3068162 1.935598 -0.7407214
v -2.193515E-07 2.095076 0
v 0.5669224 1.481443 -1.368674
v 0.7407224 0.8017508 -1.788259
v 0.8017514 0 -1.935598
v -2.193515E-07 1.935598 -0.8017529
v -2.193515E-07 2.095076 0
v 1.001352E-06 1.481443 -1.481443
v 0.7407224 -0.8017508 -1.788259
v 1.001352E-06 0.8017508 -1.935598
v -0.3068166 1.935598 -0.7407214
v -2.193515E-07 2.095076 0
v -0.5669216 1.481443 -1.368674
v 1.001352E-06 0 -2.095076
v 0.5669224 -1.481443 -1.368674
v -0.566924 1.935598 -0.566925
v -2.193515E-07 2.095076 0
v -0.7407205 0.8017508 -1.788258
v 1.001352E-06 -0.8017508 -1.935598
v 0.3068162 -1.935598 -0.7407214
v -2.193515E-07 -2.095076 0
v -1.047537 1.481443 -1.047538
v -0.8017507 0 -1.935598
v 1.001352E-06 -1.481443 -1.481443
v -0.7407216 1.935598 -0.3068164
v -2.193515E-07 2.095076 0
v -1.368673 0.8017508 -1.368675
v -0.7407205 -0.8017508 -1.788258
v -2.193515E-07 -1.935598 -0.8017529
v -2.193515E-07 -2.095076 0
v -1.368673 1.481443 -0.566925
v -1.481441 0 -1.481443
v -0.5669216 -1.481443 -1.368674
v -0.8017513 1.935598 0
v -2.193515E-07 2.095076 0
v -1.78826 0.8017508 -0.7407214
v -1.368673 -0.8017508 -1.368675
v -0.3068166 -1.935598 -0.7407214
v -2.193515E-07 -2.095076 0
v -1.481442 1.481443 0
v -1.935597 0 -0.8017529
v -1.047537 -1.481443 -1.047538
v -0.7407216 1.935598 0.3068164
v -2.193515E-07 2.095076 0
v -1.935597 0.8017508 -1.220703E-06
v -1.78826 -0.8017508 -0.7407214
v -0.566924 -1.935598 -0.566925
v -2.193515E-07 -2.095076 0
v -1.368674 1.481443 0.5669214
v -2.095077 0 -1.220703E-06
v -1.368673 -1.481443 -0.566925
v -0.566924 1.935598 0.566925
v -2.193515E-07 2.095076 0
v -1.788261 0.8017508 0.7407202
v -1.935597 -0.8017508 -1.220703E-06
v -0.7407216 -1.935598 -0.3068164
v -2.193515E-07 -2.095076 0
v -1.047538 1.481443 1.047538
v -1.935598 0 0.8017505
v -1.481442 -1.481443 0
v -0.3068166 1.935598 0.7407214
v -2.193515E-07 2.095076 0
v -1.368674 0.8017508 1.368674
v -1.788261 -0.8017508 0.7407202
v -0.8017513 -1.935598 0
v -2.193515E-07 -2.095076 0
v -0.566924 1.481443 1.368674
v -1.481442 0 1.481443
v -1.368674 -1.481443 0.5669214
v -2.193515E-07 1.935598 0.8017529
v -2.193515E-07 2.095076 0
v -0.7407216 0.8017508 1.788257
v -1.368674 -0.8017508 1.368674
v -0.7407216 -1.935598 0.3068164
v -2.193515E-07 -2.095076 0
v -2.193515E-07 1.481443 1.481443
v -0.8017532 0 1.935598
v -1.047538 -1.481443 1.047538
v 0.3068162 1.935598 0.7407214
v -2.193515E-07 2.095076 0
v -2.193515E-07 0.8017508 1.935598
v -0.7407216 -0.8017508 1.788257
v -0.566924 -1.935598 0.566925
v -2.193515E-07 -2.095076 0
v 0.5669236 1.481443 1.368674
v -2.193515E-07 0 2.095076
v -0.566924 -1.481443 1.368674
v 0.5669224 1.935598 0.566925
v -2.193515E-07 2.095076 0
v 0.7407212 0.8017508 1.788258
v -2.193515E-07 -0.8017508 1.935598
v -0.3068166 -1.935598 0.7407214
v -2.193515E-07 -2.095076 0
v 1.047538 1.481443 1.047538
v 0.8017502 0 1.935598
v -2.193515E-07 -1.481443 1.481443
v 0.7407212 1.935598 0.3068164
v -2.193515E-07 2.095076 0
v 1.368673 0.8017508 1.368674
v 0.7407212 -0.8017508 1.788258
v -2.193515E-07 -1.935598 0.8017529
v -2.193515E-07 -2.095076 0
v 1.368673 1.481443 0.566925
v 1.481443 0 1.481443
v 0.5669236 -1.481443 1.368674
v 0.8017514 1.935598 0
v -2.193515E-07 2.095076 0
v 1.78826 0.8017508 0.7407214
v 1.368673 -0.8017508 1.368674
v 0.3068162 -1.935598 0.7407214
v -2.193515E-07 -2.095076 0
v 1.481443 1.481443 0
v 1.935597 0 0.8017529
v 1.047538 -1.481443 1.047538
v 0.7407212 1.935598 -0.3068164
v -2.193515E-07 2.095076 0
v 1.368675 1.481443 -0.5669226
v 1.935597 0.8017508 0
v 1.788259 0.8017508 -0.7407202
v 2.095077 0 0
v 1.935599 0 -0.8017505
v 1.78826 -0.8017508 0.7407214
v 1.935597 -0.8017508 0
v 1.788259 -0.8017508 -0.7407202
v 1.368673 -1.481443 0.566925
v 1.481443 -1.481443 0
v 1.368675 -1.481443 -0.5669226
v 0.5669224 -1.935598 0.566925
v -2.193515E-07 -2.095076 0
v 0.7407212 -1.935598 0.3068164
v -2.193515E-07 -2.095076 0
v 0.8017514 -1.935598 0
v -2.193515E-07 -2.095076 0
v 0.7407212 -1.935598 -0.3068164
v -2.193515E-07 -2.095076 0
vt 0.0625 0.125
vt 0.03125 0
vt 0 0.125
vt 0.0625 0.25
vt 0 0.25
vt 0.0625 0.375
vt 0 0.375
vt 0.0625 0.5
vt 0 0.5
vt 0.0625 0.625
vt 0 0.625
vt 0.0625 0.75
vt 0 0.75
vt 0.0625 0.875
vt 0 0.875
vt 0.03125 1
vt 0.125 0.875
vt 0.09375 1
vt 0.125 0.75
vt 0.125 0.625
vt 0.125 0.5
vt 0.1875 0.875
vt 0.15625 1
vt 0.1875 0.75
vt 0.125 0.375
vt 0.1875 0.625
vt 0.25 0.875
vt 0.21875 1
vt 0.25 0.75
vt 0.1875 0.5
vt 0.125 0.25
vt 0.3125 0.875
vt 0.28125 1
vt 0.25 0.625
vt 0.1875 0.375
vt 0.125 0.125
vt 0.09375 0
vt 0.3125 0.75
vt 0.25 0.5
vt 0.1875 0.25
vt 0.375 0.875
vt 0.34375 1
vt 0.3125 0.625
vt 0.25 0.375
vt 0.1875 0.125
vt 0.15625 0
vt 0.375 0.75
vt 0.3125 0.5
vt 0.25 0.25
vt 0.4375 0.875
vt 0.40625 1
vt 0.375 0.625
vt 0.3125 0.375
vt 0.25 0.125
vt 0.21875 0
vt 0.4375 0.75
vt 0.375 0.5
vt 0.3125 0.25
vt 0.5 0.875
vt 0.46875 1
vt 0.4375 0.625
vt 0.375 0.375
vt 0.3125 0.125
vt 0.28125 0
vt 0.5 0.75
vt 0.4375 0.5
vt 0.375 0.25
vt 0.5625 0.875
vt 0.53125 1
vt 0.5 0.625
vt 0.4375 0.375
vt 0.375 0.125
vt 0.34375 0
vt 0.5625 0.75
vt 0.5 0.5
vt 0.4375 0.25
vt 0.625 0.875
vt 0.59375 1
vt 0.5625 0.625
vt 0.5 0.375
vt 0.4375 0.125
vt 0.40625 0
vt 0.625 0.75
vt 0.5625 0.5
vt 0.5 0.25
vt 0.6875 0.875
vt 0.65625 1
vt 0.625 0.625
vt 0.5625 0.375
vt 0.5 0.125
vt 0.46875 0
vt 0.6875 0.75
vt 0.625 0.5
vt 0.5625 0.25
vt 0.75 0.875
vt 0.71875 1
vt 0.6875 0.625
vt 0.625 0.375
vt 0.5625 0.125
vt 0.53125 0
vt 0.75 0.75
vt 0.6875 0.5
vt 0.625 0.25
vt 0.8125 0.875
vt 0.78125 1
vt 0.75 0.625
vt 0.6875 0.375
vt 0.625 0.125
vt 0.59375 0
vt 0.8125 0.75
vt 0.75 0.5
vt 0.6875 0.25
vt 0.875 0.875
vt 0.84375 1
vt 0.8125 0.625
vt 0.75 0.375
vt 0.6875 0.125
vt 0.65625 0
vt 0.875 0.75
vt 0.8125 0.5
vt 0.75 0.25
vt 0.9375 0.875
vt 0.90625 1
vt 0.875 0.625
vt 0.8125 0.375
vt 0.75 0.125
vt 0.71875 0
vt 0.9375 0.75
vt 0.875 0.5
vt 0.8125 0.25
vt 1 0.875
vt 0.96875 1
vt 1 0.75
vt 0.9375 0.625
vt 1 0.625
vt 0.9375 0.5
vt 1 0.5
vt 0.875 0.375
vt 0.9375 0.375
vt 1 0.375
vt 0.875 0.25
vt 0.9375 0.25
vt 1 0.25
vt 0.8125 0.125
vt 0.78125 0
vt 0.875 0.125
vt 0.84375 0
vt 0.9375 0.125
vt 0.90625 0
vt 1 0.125
vt 0.96875 0
vn 0.177424 -0.9680091 -0.1774236
vn 0 -1 0
vn 0.2318154 -0.9680089 -0.09602286
vn 0.5090415 -0.6940842 -0.5090422
vn 0.6650948 -0.6940846 -0.2754912
vn 0.6941115 -0.1908396 -0.6941105
vn 0.9068999 -0.1908408 -0.3756492
vn 0.6941115 0.1908394 -0.6941105
vn 0.9068999 0.1908408 -0.3756492
vn 0.5930971 0.5444914 -0.5930977
vn 0.7749199 0.5444901 -0.3209825
vn 0.407062 0.8176809 -0.4070608
vn 0.5318507 0.8176814 -0.2202994
vn 0.1774238 0.9680092 -0.1774232
vn 0.2318154 0.9680089 -0.09602249
vn 0 1 0
vn 0.09602276 0.968009 -0.231815
vn 0 1 0
vn 0.2203009 0.8176805 -0.5318516
vn 0.3209839 0.5444911 -0.7749186
vn 0.37565 0.1908392 -0.9068999
vn 0 0.9680092 -0.2509146
vn 0 1 0
vn -1.77593E-07 0.8176804 -0.5756725
vn 0.37565 -0.1908395 -0.9068999
vn 1.104067E-06 0.5444907 -0.8387669
vn -0.09602189 0.9680092 -0.2318144
vn 0 1 0
vn -0.2203003 0.8176804 -0.5318521
vn 0 0.1908398 -0.9816212
vn 0.2754923 -0.6940833 -0.6650957
vn -0.1774239 0.9680089 -0.1774245
vn 0 1 0
vn -0.3209825 0.5444903 -0.7749197
vn 0 -0.1908398 -0.9816212
vn 0.09602286 -0.9680089 -0.2318153
vn 0 -1 0
vn -0.4070617 0.8176805 -0.4070618
vn -0.3756488 0.1908402 -0.9069002
vn 5.883006E-07 -0.6940837 -0.7198943
vn -0.2318158 0.9680089 -0.09602169
vn 0 1 0
vn -0.5930974 0.5444907 -0.5930981
vn -0.3756488 -0.1908402 -0.9069002
vn 0 -0.9680092 -0.2509145
vn 0 -1 0
vn -0.5318515 0.8176807 -0.2202999
vn -0.6941108 0.190839 -0.6941115
vn -0.2754918 -0.6940836 -0.6650957
vn -0.2509151 0.9680091 0
vn 0 1 0
vn -0.7749189 0.5444916 -0.3209824
vn -0.6941106 -0.1908393 -0.6941115
vn -0.09602191 -0.9680092 -0.2318143
vn 0 -1 0
vn -0.5756723 0.8176805 0
vn -0.9068999 0.1908386 -0.3756505
vn -0.5090429 -0.6940829 -0.5090427
vn -0.2318157 0.968009 0.09602157
vn 0 1 0
vn -0.8387665 0.5444912 -6.117612E-07
vn -0.9068998 -0.1908389 -0.3756505
vn -0.1774238 -0.9680089 -0.1774248
vn 0 -1 0
vn -0.5318523 0.8176802 0.2203004
vn -0.9816212 0.1908394 -1.944881E-07
vn -0.6650955 -0.6940835 -0.2754925
vn -0.1774239 0.968009 0.1774239
vn 0 1 0
vn -0.7749192 0.5444913 0.3209822
vn -0.9816213 -0.1908394 -1.91401E-07
vn -0.2318156 -0.9680089 -0.09602221
vn 0 -1 0
vn -0.4070624 0.8176806 0.4070611
vn -0.9068999 0.1908393 0.3756499
vn -0.7198937 -0.6940843 -5.036528E-07
vn -0.09602171 0.9680093 0.2318141
vn 0 1 0
vn -0.593098 0.5444904 0.5930977
vn -0.9069 -0.1908391 0.37565
vn -0.2509152 -0.9680091 0
vn 0 -1 0
vn -0.2203005 0.8176807 0.5318515
vn -0.6941112 0.1908405 0.6941106
vn -0.6650954 -0.6940841 0.2754912
vn 0 0.9680093 0.2509142
vn 0 1 0
vn -0.3209831 0.5444893 0.7749203
vn -0.6941112 -0.1908402 0.6941105
vn -0.231816 -0.9680089 0.09602176
vn 0 -1 0
vn 0 0.8176804 0.5756726
vn -0.37565 0.1908413 0.9068995
vn -0.509043 -0.6940833 0.5090417
vn 0.09602235 0.9680091 0.2318148
vn 0 1 0
vn 0 0.5444899 0.8387673
vn -0.37565 -0.1908411 0.9068995
vn -0.177424 -0.968009 0.177424
vn 0 -1 0
vn 0.2203005 0.8176804 0.5318519
vn 0 0.1908406 0.981621
vn -0.275492 -0.6940833 0.6650959
vn 0.1774234 0.9680092 0.1774234
vn 0 1 0
vn 0.320983 0.5444906 0.7749193
vn 0 -0.1908405 0.9816211
vn -0.09602179 -0.9680093 0.2318142
vn 0 -1 0
vn 0.4070619 0.8176808 0.4070609
vn 0.3756505 0.1908404 0.9068995
vn 0 -0.6940833 0.7198945
vn 0.2318152 0.968009 0.0960227
vn 0 1 0
vn 0.5930973 0.544491 0.5930979
vn 0.3756505 -0.1908404 0.9068995
vn 0 -0.9680093 0.2509142
vn 0 -1 0
vn 0.5318516 0.8176809 0.2202993
vn 0.6941107 0.1908396 0.6941112
vn 0.2754922 -0.6940831 0.665096
vn 0.2509156 0.968009 1.592527E-07
vn 0 1 0
vn 0.7749192 0.5444911 0.3209825
vn 0.6941108 -0.1908396 0.6941113
vn 0.09602232 -0.9680091 0.2318149
vn 0 -1 0
vn 0.5756714 0.8176811 5.167541E-07
vn 0.9069 0.1908392 0.3756499
vn 0.5090429 -0.6940829 0.5090424
vn 0.2318154 0.9680089 -0.09602249
vn 0 1 0
vn 0.5318507 0.8176814 -0.2202994
vn 0.8387675 0.5444898 8.796334E-07
vn 0.7749199 0.5444901 -0.3209825
vn 0.981621 0.1908408 6.019875E-07
vn 0.9068999 0.1908408 -0.3756492
vn 0.9069 -0.1908392 0.37565
vn 0.981621 -0.1908408 6.050745E-07
vn 0.9068999 -0.1908408 -0.3756492
vn 0.6650945 -0.6940845 0.2754922
vn 0.7198932 -0.6940849 1.320499E-06
vn 0.6650948 -0.6940846 -0.2754912
vn 0.1774234 -0.9680092 0.1774236
vn 0 -1 0
vn 0.2318152 -0.968009 0.09602255
vn 0 -1 0
vn 0.2509156 -0.968009 -1.590265E-07
vn 0 -1 0
vn 0.2318154 -0.9680089 -0.09602286
vn 0 -1 0
g polySphere01_Sm_0
f 3/3/3 2/2/2 1/1/1
f 1/1/1 4/4/4 3/3/3
f 4/4/4 5/5/5 3/3/3
f 4/4/4 6/6/6 5/5/5
f 6/6/6 7/7/7 5/5/5
f 6/6/6 8/8/8 7/7/7
f 8/8/8 9/9/9 7/7/7
f 8/8/8 10/10/10 9/9/9
f 10/10/10 11/11/11 9/9/9
f 10/10/10 12/12/12 11/11/11
f 12/12/12 13/13/13 11/11/11
f 12/12/12 14/14/14 13/13/13
f 14/14/14 15/15/15 13/13/13
f 14/14/14 16/16/16 15/15/15
f 17/17/17 14/14/14 12/12/12
f 17/17/17 18/18/18 14/14/14
f 19/19/19 12/12/12 10/10/10
f 19/19/19 17/17/17 12/12/12
f 20/20/20 10/10/10 8/8/8
f 20/20/20 19/19/19 10/10/10
f 21/21/21 8/8/8 6/6/6
f 21/21/21 20/20/20 8/8/8
f 22/22/22 17/17/17 19/19/19
f 22/22/22 23/23/23 17/17/17
f 24/24/24 19/19/19 20/20/20
f 24/24/24 22/22/22 19/19/19
f 25/25/25 21/21/21 6/6/6
f 25/25/25 6/6/6 4/4/4
f 26/26/26 20/20/20 21/21/21
f 26/26/26 24/24/24 20/20/20
f 27/27/27 22/22/22 24/24/24
f 27/27/27 28/28/28 22/22/22
f 29/29/29 27/27/27 24/24/24
f 29/29/29 24/24/24 26/26/26
f 30/30/30 26/26/26 21/21/21
f 30/30/30 21/21/21 25/25/25
f 31/31/31 25/25/25 4/4/4
f 31/31/31 4/4/4 1/1/1
f 32/32/32 27/27/27 29/29/29
f 32/32/32 33/33/33 27/27/27
f 34/34/34 29/29/29 26/26/26
f 34/34/34 26/26/26 30/30/30
f 35/35/35 30/30/30 25/25/25
f 35/35/35 25/25/25 31/31/31
f 36/36/36 31/31/31 1/1/1
f 1/1/1 37/37/37 36/36/36
f 38/38/38 32/32/32 29/29/29
f 38/38/38 29/29/29 34/34/34
f 39/39/39 34/34/34 30/30/30
f 39/39/39 30/30/30 35/35/35
f 40/40/40 31/31/31 36/36/36
f 40/40/40 35/35/35 31/31/31
f 41/41/41 32/32/32 38/38/38
f 41/41/41 42/42/42 32/32/32
f 43/43/43 38/38/38 34/34/34
f 43/43/43 34/34/34 39/39/39
f 44/44/44 39/39/39 35/35/35
f 44/44/44 35/35/35 40/40/40
f 45/45/45 40/40/40 36/36/36
f 36/36/36 46/46/46 45/45/45
f 47/47/47 41/41/41 38/38/38
f 47/47/47 38/38/38 43/43/43
f 48/48/48 43/43/43 39/39/39
f 48/48/48 39/39/39 44/44/44
f 49/49/49 40/40/40 45/45/45
f 49/49/49 44/44/44 40/40/40
f 50/50/50 41/41/41 47/47/47
f 50/50/50 51/51/51 41/41/41
f 52/52/52 47/47/47 43/43/43
f 52/52/52 43/43/43 48/48/48
f 53/53/53 48/48/48 44/44/44
f 53/53/53 44/44/44 49/49/49
f 54/54/54 49/49/49 45/45/45
f 45/45/45 55/55/55 54/54/54
f 56/56/56 50/50/50 47/47/47
f 56/56/56 47/47/47 52/52/52
f 57/57/57 52/52/52 48/48/48
f 57/57/57 48/48/48 53/53/53
f 58/58/58 49/49/49 54/54/54
f 58/58/58 53/53/53 49/49/49
f 59/59/59 50/50/50 56/56/56
f 59/59/59 60/60/60 50/50/50
f 61/61/61 56/56/56 52/52/52
f 61/61/61 52/52/52 57/57/57
f 62/62/62 57/57/57 53/53/53
f 62/62/62 53/53/53 58/58/58
f 63/63/63 58/58/58 54/54/54
f 54/54/54 64/64/64 63/63/63
f 65/65/65 59/59/59 56/56/56
f 65/65/65 56/56/56 61/61/61
f 66/66/66 61/61/61 57/57/57
f 66/66/66 57/57/57 62/62/62
f 67/67/67 58/58/58 63/63/63
f 67/67/67 62/62/62 58/58/58
f 68/68/68 59/59/59 65/65/65
f 68/68/68 69/69/69 59/59/59
f 70/70/70 65/65/65 61/61/61
f 70/70/70 61/61/61 66/66/66
f 71/71/71 66/66/66 62/62/62
f 71/71/71 62/62/62 67/67/67
f 72/72/72 67/67/67 63/63/63
f 63/63/63 73/73/73 72/72/72
f 74/74/74 68/68/68 65/65/65
f 74/74/74 65/65/65 70/70/70
f 75/75/75 70/70/70 66/66/66
f 75/75/75 66/66/66 71/71/71
f 76/76/76 67/67/67 72/72/72
f 76/76/76 71/71/71 67/67/67
f 77/77/77 68/68/68 74/74/74
f 77/77/77 78/78/78 68/68/68
f 79/79/79 74/74/74 70/70/70
f 79/79/79 70/70/70 75/75/75
f 80/80/80 75/75/75 71/71/71
f 80/80/80 71/71/71 76/76/76
f 81/81/81 76/76/76 72/72/72
f 72/72/72 82/82/82 81/81/81
f 83/83/83 77/77/77 74/74/74
f 83/83/83 74/74/74 79/79/79
f 84/84/84 79/79/79 75/75/75
f 84/84/84 75/75/75 80/80/80
f 85/85/85 76/76/76 81/81/81
f 85/85/85 80/80/80 76/76/76
f 86/86/86 77/77/77 83/83/83
f 86/86/86 87/87/87 77/77/77
f 88/88/88 83/83/83 79/79/79
f 88/88/88 79/79/79 84/84/84
f 89/89/89 84/84/84 80/80/80
f 89/89/89 80/80/80 85/85/85
f 90/90/90 85/85/85 81/81/81
f 81/81/81 91/91/91 90/90/90
f 92/92/92 86/86/86 83/83/83
f 92/92/92 83/83/83 88/88/88
f 93/93/93 88/88/88 84/84/84
f 93/93/93 84/84/84 89/89/89
f 94/94/94 85/85/85 90/90/90
f 94/94/94 89/89/89 85/85/85
f 95/95/95 86/86/86 92/92/92
f 95/95/95 96/96/96 86/86/86
f 97/97/97 92/92/92 88/88/88
f 97/97/97 88/88/88 93/93/93
f 98/98/98 93/93/93 89/89/89
f 98/98/98 89/89/89 94/94/94
f 99/99/99 94/94/94 90/90/90
f 90/90/90 100/100/100 99/99/99
f 101/101/101 95/95/95 92/92/92
f 101/101/101 92/92/92 97/97/97
f 102/102/102 97/97/97 93/93/93
f 102/102/102 93/93/93 98/98/98
f 103/103/103 94/94/94 99/99/99
f 103/103/103 98/98/98 94/94/94
f 104/104/104 95/95/95 101/101/101
f 104/104/104 105/105/105 95/95/95
f 106/106/106 101/101/101 97/97/97
f 106/106/106 97/97/97 102/102/102
f 107/107/107 102/102/102 98/98/98
f 107/107/107 98/98/98 103/103/103
f 108/108/108 103/103/103 99/99/99
f 99/99/99 109/109/109 108/108/108
f 110/110/110 104/104/104 101/101/101
f 110/110/110 101/101/101 106/106/106
f 111/111/111 106/106/106 102/102/102
f 111/111/111 102/102/102 107/107/107
f 112/112/112 103/103/103 108/108/108
f 112/112/112 107/107/107 103/103/103
f 113/113/113 104/104/104 110/110/110
f 113/113/113 114/114/114 104/104/104
f 115/115/115 110/110/110 106/106/106
f 115/115/115 106/106/106 111/111/111
f 116/116/116 111/111/111 107/107/107
f 116/116/116 107/107/107 112/112/112
f 117/117/117 112/112/112 108/108/108
f 108/108/108 118/118/118 117/117/117
f 119/119/119 113/113/113 110/110/110
f 119/119/119 110/110/110 115/115/115
f 120/120/120 115/115/115 111/111/111
f 120/120/120 111/111/111 116/116/116
f 121/121/121 112/112/112 117/117/117
f 121/121/121 116/116/116 112/112/112
f 122/122/122 113/113/113 119/119/119
f 122/122/122 123/123/123 113/113/113
f 124/124/124 119/119/119 115/115/115
f 124/124/124 115/115/115 120/120/120
f 125/125/125 120/120/120 116/116/116
f 125/125/125 116/116/116 121/121/121
f 126/126/126 121/121/121 117/117/117
f 117/117/117 127/127/127 126/126/126
f 128/128/128 122/122/122 119/119/119
f 128/128/128 119/119/119 124/124/124
f 129/129/129 124/124/124 120/120/120
f 129/129/129 120/120/120 125/125/125
f 130/130/130 121/121/121 126/126/126
f 130/130/130 125/125/125 121/121/121
f 131/131/131 122/122/122 128/128/128
f 131/131/131 132/132/132 122/122/122
f 133/133/133 131/131/131 128/128/128
f 134/134/134 128/128/128 124/124/124
f 133/133/133 128/128/128 134/134/134
f 134/134/134 124/124/124 129/129/129
f 135/135/135 133/133/133 134/134/134
f 135/135/135 134/134/134 136/136/136
f 136/136/136 134/134/134 129/129/129
f 137/137/137 135/135/135 136/136/136
f 138/138/138 129/129/129 125/125/125
f 136/136/136 129/129/129 138/138/138
f 138/138/138 125/125/125 130/130/130
f 137/137/137 136/136/136 139/139/139
f 139/139/139 136/136/136 138/138/138
f 140/140/140 137/137/137 139/139/139
f 141/141/141 138/138/138 130/130/130
f 139/139/139 138/138/138 141/141/141
f 140/140/140 139/139/139 142/142/142
f 142/142/142 139/139/139 141/141/141
f 143/143/143 140/140/140 142/142/142
f 141/141/141 130/130/130 144/144/144
f 144/144/144 130/130/130 126/126/126
f 126/126/126 145/145/145 144/144/144
f 146/146/146 141/141/141 144/144/144
f 142/142/142 141/141/141 146/146/146
f 144/144/144 147/147/147 146/146/146
f 143/143/143 142/142/142 148/148/148
f 148/148/148 142/142/142 146/146/146
f 146/146/146 149/149/149 148/148/148
f 150/150/150 143/143/143 148/148/148
f 148/148/148 151/151/151 150/150/150
