g polySurface21
v 0.2033754 -0.08602951 0.3398401
v -0.152558 -0.08694389 0.3408403
v 0.1185614 0.3309599 0.343294
v -0.1504225 0.2716424 0.3443514
v 0.1185614 0.3309599 0.343294
v -0.02603436 0.3569827 0.3450072
v -0.152558 -0.08694389 0.3408403
v -0.3432852 0.09732967 0.104826
v -0.1504225 0.2716424 0.3443514
v -0.2734511 -0.0897666 -0.2655773
v -0.08158245 0.2318465 -0.3450072
v 0.06530438 0.3682849 0.05354328
v -0.02603436 0.3569827 0.3450072
v -0.1504225 0.2716424 0.3443514
v 0.272114 0.3363006 -0.03723145
v 0.1185614 0.3309599 0.343294
v -0.02603436 0.3569827 0.3450072
v 0.3314879 0.31399 -0.1645308
v 0.2121527 0.2544408 -0.3245781
v 0.3432852 -0.04492876 -0.1538195
v 0.3325922 0.1205117 0.140762
v 0.3314879 0.31399 -0.1645308
v 0.3040163 -0.08493888 0.2244124
v 0.3314879 0.31399 -0.1645308
v 0.2716627 -0.06968627 -0.3126276
v 0.2121527 0.2544408 -0.3245781
v 0.272114 0.3363006 -0.03723145
v 0.1185614 0.3309599 0.343294
v 0.2033754 -0.08602951 0.3398401
v 0.1185614 0.3309599 0.343294
v 0.3040163 -0.08493888 0.2244124
v 0.2121527 0.2544408 -0.3245781
v -0.08158245 0.2318465 -0.3450072
v 0.2716627 -0.06968627 -0.3126276
v -0.2734511 -0.0897666 -0.2655773
vt 0.7107276 0.8141798
vt 0.740168 0.812968
vt 0.7153617 0.7788049
vt 0.7389091 0.7838625
vt 0.7153617 0.7788049
vt 0.7280827 0.7779452
vt 0.7705005 0.7955462
vt 0.7619039 0.7691202
vt 0.7389091 0.7838625
vt 0.7828242 0.742505
vt 0.7521491 0.7273992
vt 0.7287165 0.7557848
vt 0.7280827 0.7779452
vt 0.7389091 0.7838625
vt 0.7168134 0.7438247
vt 0.7153617 0.7788049
vt 0.7280827 0.7779452
vt 0.7167977 0.7323347
vt 0.7271293 0.7203128
vt 0.6905555 0.7239517
vt 0.6964457 0.7527485
vt 0.7167977 0.7323347
vt 0.6791071 0.756909
vt 0.7167977 0.7323347
vt 0.6975079 0.710337
vt 0.7271293 0.7203128
vt 0.7168134 0.7438247
vt 0.7153617 0.7788049
vt 0.6785076 0.770027
vt 0.7153617 0.7788049
vt 0.6791071 0.756909
vt 0.7271293 0.7203128
vt 0.7521491 0.7273992
vt 0.7349663 0.6955164
vt 0.7782245 0.709525
vn 0.002829973 -0.007706905 0.9999664
vn 0.003716407 -0.008281939 0.9999589
vn 0.004248864 -0.008894281 0.9999515
vn 0.006171646 -0.01015982 0.9999293
vn 0.004248864 -0.008894281 0.9999515
vn 0.008290303 -0.01976327 0.9997703
vn -0.8432055 -0.3122884 0.4375848
vn -0.974291 0.2138204 0.07097846
vn -0.7783562 -0.001512473 0.6278211
vn -0.951439 0.1624938 -0.2614567
vn -0.5894228 0.7742733 -0.2303948
vn -0.3136078 0.9419193 -0.1201591
vn -0.5593914 0.8163604 -0.1436556
vn -0.5593342 0.8163856 -0.1437354
vn 0.008977572 0.9780599 -0.2081299
vn 0.1827418 0.9788002 0.09249786
vn 0.1774199 0.9796751 0.09358898
vn -0.0896629 0.9677861 -0.2352673
vn -0.05102767 0.947845 -0.3146206
vn 0.9898662 0.004184853 -0.1419422
vn 0.9257597 0.1825711 0.3311144
vn 0.9750622 0.1271913 -0.1818687
vn 0.9906776 -0.1002372 0.09225173
vn 0.9750622 0.1271913 -0.1818687
vn 0.8697881 0.05370586 -0.4904941
vn 0.7741941 0.1192242 -0.6216182
vn 0.8114982 0.4900244 0.3183501
vn 0.797433 0.3167242 0.5136015
vn 0.750934 0.1500628 0.6431013
vn 0.797433 0.3167242 0.5136015
vn 0.743138 0.1610713 0.6494629
vn 0.07117642 -0.02369763 -0.9971823
vn -0.04227728 -0.1555081 -0.9869295
vn -0.02812314 -0.139241 -0.989859
vn -0.07718771 -0.1954124 -0.9776789
g polySurface21_0
f 3/3/3 2/2/2 1/1/1
f 2/2/2 5/5/5 4/4/4
f 5/5/5 6/6/6 4/4/4
f 9/9/9 8/8/8 7/7/7
f 7/7/7 8/8/8 10/10/10
f 8/8/8 11/11/11 10/10/10
f 12/12/12 11/11/11 8/8/8
f 8/8/8 13/13/13 12/12/12
f 13/13/13 8/8/8 14/14/14
f 15/15/15 11/11/11 12/12/12
f 16/16/16 15/15/15 12/12/12
f 16/16/16 12/12/12 17/17/17
f 18/18/18 11/11/11 15/15/15
f 19/19/19 11/11/11 18/18/18
f 22/22/22 21/21/21 20/20/20
f 20/20/20 21/21/21 23/23/23
f 25/25/25 24/24/24 20/20/20
f 24/24/24 25/25/25 26/26/26
f 21/21/21 24/24/24 27/27/27
f 27/27/27 28/28/28 21/21/21
f 21/21/21 30/30/30 29/29/29
f 31/31/31 21/21/21 29/29/29
f 34/34/34 33/33/33 32/32/32
f 34/34/34 35/35/35 33/33/33
