g polySurface669
v 0.144383 -0.7189617 1.118054
v 0.08320189 0.06823206 1.938923
v -0.1254497 0.07196736 1.942672
v 0.04737759 -1.235073 0.6938649
v -0.1254497 0.07196736 1.942672
v 0.04737759 -1.235073 0.6938649
v 0.2057204 -0.9076236 0.9673063
v 0.04678106 -1.602782 0.2888275
v 0.2778134 -2.086417 -0.2157252
v 0.1393948 -2.135719 -0.2650093
v 0.3221645 -2.081546 -0.2108552
v 0.1257925 -0.6908057 1.542657
v 0.04329872 -1.212585 1.02285
v -0.1254478 -0.09481096 2.10945
v 0.08320427 -0.09854603 2.105701
v 0.1257925 -0.6908057 1.542657
v 0.2133603 -1.119462 1.034886
v 0.04329872 -1.212585 1.02285
v 0.03545427 -1.514452 0.7092293
v 0.2778158 -2.253196 -0.04894684
v 0.3221674 -2.248324 -0.0440767
v 0.1393967 -2.302497 -0.09823091
v 0.2047873 0.1720454 3.930165
v 0.2418661 -0.2024205 3.888845
v 0.2047892 -0.1712795 3.930165
v 0.2418652 0.2075412 3.888845
v 0.2418661 -0.2024205 3.888845
v 0.207139 -0.1712798 3.844619
v -0.1773367 0.1450316 3.930165
v -0.2138977 0.1731224 3.888845
v -0.1753569 -0.1831186 3.930165
v 0.2418652 0.2075412 3.888845
v 0.2071381 0.1761361 3.844619
v -0.2138977 0.1731224 3.888845
v -0.1786175 0.1450306 3.844619
v -0.2113752 -0.2175048 3.888846
v 0.2047892 -0.1712795 3.930165
v 0.2418661 -0.2024205 3.888845
v -0.2113752 -0.2175048 3.888846
v -0.1763391 -0.1849121 3.844619
v 0.2418661 -0.2024205 3.888845
v 0.207139 -0.1712798 3.844619
v -0.01054364 -0.8894579 0.7760222
v 0.08673251 -0.1075178 1.598408
v 0.088889 0.07168055 1.448979
v -0.12991 -1.230195 0.2020979
v 0.088889 0.07168055 1.448979
v -0.12991 -1.230195 0.2020979
v -0.05707414 -1.093439 0.6399209
v -0.1643874 -1.581552 -0.2160323
v -0.2255449 -2.225064 -0.5791466
v -0.2315862 -2.153127 -0.7340419
v -0.2251869 -2.258017 -0.5412804
v -0.2033647 -0.652138 1.022577
v -0.278958 -1.054739 0.4010586
v -0.1009367 0.08548021 1.462782
v -0.1030932 -0.09371841 1.612211
v -0.2033647 -0.652138 1.022577
v -0.2265525 -1.153712 0.5794137
v -0.278958 -1.054739 0.4010586
v -0.3165933 -1.327641 0.063344
v -0.4153705 -2.211264 -0.5653431
v -0.4150126 -2.244219 -0.5274768
v -0.4214119 -2.139327 -0.7202389
v -0.1794128 0.1450255 1.638947
v 0.1034937 0.145033 1.722315
v -0.1029034 0.1450262 2.845019
v 0.1866808 0.2016099 1.481117
v 0.1034937 0.145033 1.722315
v 0.2157001 0.1910349 3.446851
v -0.1854801 0.1450252 3.300192
v -0.1688776 0.1450382 4.408745
v 0.1892681 0.1450382 4.408745
v -0.2044849 0.1524515 -0.2959118
v 0.1610832 0.1642216 -0.7392445
v -0.1054773 0.1213302 -1.660216
v -0.1454639 0.1187056 -1.660216
v 0.1605892 0.1594069 -1.660216
v -0.1688747 -0.1712775 4.408745
v 0.1892719 -0.1712775 4.408745
v 0.2157001 -0.171281 3.446851
v -0.1854792 -0.2016099 2.961993
v -0.1029015 -0.1712896 2.845019
v 0.1034966 -0.1712826 1.355581
v -0.1794109 -0.1533907 1.426338
v 0.1866817 -0.1712821 1.114384
v 0.1482525 -0.1449932 -0.01092529
v -0.2157001 -0.1178223 -0.2959118
v 0.1026421 -0.1509166 -1.660216
v 0.1523256 -0.1548506 -1.660216
v -0.1583843 -0.1926147 -1.660216
v 0.1892681 0.1450382 4.408745
v 0.2157001 -0.171281 3.446851
v 0.1892719 -0.1712775 4.408745
v 0.2157001 0.1910349 3.446851
v 0.1034937 0.145033 1.722315
v 0.1034966 -0.1712826 1.355581
v 0.1866808 0.2016099 1.481117
v 0.1866817 -0.1712821 1.114384
v 0.1482525 -0.1449932 -0.01092529
v 0.1610832 0.1642216 -0.7392445
v 0.1523256 -0.1548506 -1.660216
v 0.1605892 0.1594069 -1.660216
v -0.1854801 0.1450252 3.300192
v -0.1688776 0.1450382 4.408745
v -0.1688747 -0.1712775 4.408745
v -0.1854792 -0.2016099 2.961993
v -0.1029034 0.1450262 2.845019
v -0.1029015 -0.1712896 2.845019
v -0.1794128 0.1450255 1.638947
v -0.1794109 -0.1533907 1.426338
v -0.2044849 0.1524515 -0.2959118
v -0.2157001 -0.1178223 -0.2959118
v -0.1454639 0.1187056 -1.660216
v -0.1583843 -0.1926147 -1.660216
v -0.1688747 -0.1712775 4.408745
v -0.1688776 0.1450382 4.408745
v 0.1892719 -0.1712775 4.408745
v 0.1892681 0.1450382 4.408745
v 0.08320427 -0.09854603 2.105701
v 0.08320189 0.06823206 1.938923
v 0.1257925 -0.6908057 1.542657
v 0.144383 -0.7189617 1.118054
v 0.2133603 -1.119462 1.034886
v 0.2057204 -0.9076236 0.9673063
v 0.3221645 -2.081546 -0.2108552
v 0.3221674 -2.248324 -0.0440767
v 0.03545427 -1.514452 0.7092293
v 0.1393967 -2.302497 -0.09823091
v 0.04678106 -1.602782 0.2888275
v 0.1393948 -2.135719 -0.2650093
v 0.04678106 -1.602782 0.2888275
v 0.04737759 -1.235073 0.6938649
v 0.04329872 -1.212585 1.02285
v -0.1254497 0.07196736 1.942672
v -0.1254478 -0.09481096 2.10945
v 0.242795 -0.1964379 3.599568
v 0.2148914 -0.1712809 3.562473
v -0.1787443 -0.1893073 3.634985
v -0.2069206 -0.216128 3.681383
v 0.2123032 -0.1712805 3.656661
v -0.1817484 0.1450281 3.635538
v -0.1776943 -0.1873883 3.726511
v -0.2102013 0.1664445 3.681981
v 0.2148914 0.189628 3.562473
v -0.1803789 0.1450292 3.726992
v 0.242795 0.2152855 3.599569
v 0.2148914 -0.1712809 3.562473
v 0.2123032 0.185124 3.656661
v 0.242795 -0.1964379 3.599568
v 0.2123032 -0.1712805 3.656661
v 0.2244186 -0.1942297 4.069174
v 0.2000704 -0.1712789 4.015728
v -0.1733408 -0.1794363 4.019595
v -0.1985016 -0.2025049 4.073103
v 0.1975861 -0.1712786 4.10616
v -0.1770096 0.1552815 3.948675
v -0.1723127 -0.1775588 4.109148
v -0.2025051 0.1758617 3.981176
v 0.2045336 0.1716042 3.926539
v -0.1756639 0.1552826 4.038525
v 0.2294731 0.1934887 3.9584
v 0.2000704 -0.1712789 4.015728
v 0.2020082 0.16721 4.018433
v 0.2244186 -0.1942297 4.069174
v 0.1975861 -0.1712786 4.10616
v -0.1030932 -0.09371841 1.612211
v 0.08673251 -0.1075178 1.598408
v -0.2033647 -0.652138 1.022577
v -0.01054364 -0.8894579 0.7760222
v -0.2265525 -1.153712 0.5794137
v -0.05707414 -1.093439 0.6399209
v -0.2251869 -2.258017 -0.5412804
v -0.4150126 -2.244219 -0.5274768
v -0.3165933 -1.327641 0.063344
v -0.4214119 -2.139327 -0.7202389
v -0.1643874 -1.581552 -0.2160323
v -0.2315862 -2.153127 -0.7340419
v -0.1643874 -1.581552 -0.2160323
v -0.12991 -1.230195 0.2020979
v -0.278958 -1.054739 0.4010586
v 0.088889 0.07168055 1.448979
v -0.1009367 0.08548021 1.462782
vt 0.7356764 0.2099298
vt 0.7274739 0.3238423
vt 0.7695498 0.3272519
vt 0.7674645 0.1436259
vt 0.7695498 0.3272519
vt 0.7674645 0.1436259
vt 0.7281578 0.1847927
vt 0.7691143 0.08649681
vt 0.7332585 0.01627758
vt 0.7632663 0.01043843
vt 0.7240335 0.01690936
vt 0.8362763 0.2398811
vt 0.8035418 0.1671849
vt 0.8039408 0.3264819
vt 0.8454951 0.3218389
vt 0.8362763 0.2398811
vt 0.8407008 0.1720916
vt 0.8035418 0.1671849
vt 0.7975228 0.1237916
vt 0.8291017 0.01509134
vt 0.8382382 0.01525975
vt 0.7996319 0.009464421
vt 0.9780912 0.2225771
vt 0.9858112 0.1825891
vt 0.9781739 0.1825839
vt 0.9857275 0.2226141
vt 0.9858112 0.1825891
vt 0.9939859 0.1825946
vt 0.9785203 0.2657837
vt 0.9861579 0.2658014
vt 0.9785925 0.3017673
vt 0.9857275 0.2226141
vt 0.9939012 0.2226537
vt 0.9861579 0.2658014
vt 0.9943328 0.2658204
vt 0.98623 0.3017941
vt 0.9783971 0.3454071
vt 0.9860336 0.3455566
vt 0.98623 0.3017941
vt 0.9944049 0.3018228
vt 0.9860336 0.3455566
vt 0.9942076 0.3457167
vt 0.7356764 0.2099298
vt 0.7274739 0.3238423
vt 0.7695498 0.3272519
vt 0.7674645 0.1436259
vt 0.7695498 0.3272519
vt 0.7674645 0.1436259
vt 0.7281578 0.1847927
vt 0.7691143 0.08649681
vt 0.7332585 0.01627758
vt 0.7632663 0.01043843
vt 0.7240335 0.01690936
vt 0.8362763 0.2398811
vt 0.8035418 0.1671849
vt 0.8039408 0.3264819
vt 0.8454951 0.3218389
vt 0.8362763 0.2398811
vt 0.8407008 0.1720916
vt 0.8035418 0.1671849
vt 0.7975228 0.1237916
vt 0.8291017 0.01509134
vt 0.8382382 0.01525975
vt 0.7996319 0.009464421
vt 0.3079129 0.2923361
vt 0.3414117 0.2834525
vt 0.3114036 0.1667862
vt 0.342864 0.3085247
vt 0.3414117 0.2834525
vt 0.3443732 0.103928
vt 0.3069214 0.1194408
vt 0.307335 0.004060485
vt 0.3451216 0.003828299
vt 0.3077818 0.4937182
vt 0.3441004 0.5396239
vt 0.3137745 0.6356673
vt 0.3096521 0.6356938
vt 0.3445833 0.6354763
vt 0.2761642 0.004101714
vt 0.2396871 0.003997894
vt 0.2366611 0.104102
vt 0.2753465 0.1546811
vt 0.2726188 0.1668415
vt 0.2477401 0.3217888
vt 0.2774305 0.3145045
vt 0.2390134 0.3468682
vt 0.2426906 0.4639987
vt 0.281047 0.4937551
vt 0.2470414 0.6356649
vt 0.2417944 0.6356519
vt 0.2740748 0.6357462
vt 0.3451216 0.003828299
vt 0.3794036 0.1039797
vt 0.3795084 0.003867623
vt 0.3443732 0.103928
vt 0.3414117 0.2834525
vt 0.3791753 0.3216347
vt 0.342864 0.3085247
vt 0.3791489 0.3467384
vt 0.37629 0.4638554
vt 0.3441004 0.5396239
vt 0.3771358 0.6355113
vt 0.3445833 0.6354763
vt 0.3069214 0.1194408
vt 0.307335 0.004060485
vt 0.2761642 0.004101714
vt 0.2753465 0.1546811
vt 0.3114036 0.1667862
vt 0.2726188 0.1668415
vt 0.3079129 0.2923361
vt 0.2774305 0.3145045
vt 0.3077818 0.4937182
vt 0.281047 0.4937551
vt 0.3096521 0.6356938
vt 0.2740748 0.6357462
vt 0.4176877 0.9842473
vt 0.4503698 0.9842485
vt 0.4176887 0.947243
vt 0.450371 0.9472444
vt 0.8454951 0.3218389
vt 0.8799736 0.3195026
vt 0.8362763 0.2398811
vt 0.8756657 0.2064895
vt 0.8407008 0.1720916
vt 0.8703267 0.1809689
vt 0.8728055 0.01565108
vt 0.8382382 0.01525975
vt 0.7975228 0.1237916
vt 0.7996319 0.009464421
vt 0.7691143 0.08649681
vt 0.7632663 0.01043843
vt 0.7691143 0.08649681
vt 0.7674645 0.1436259
vt 0.8035418 0.1671849
vt 0.7695498 0.3272519
vt 0.8039408 0.3264819
vt 0.9873748 0.4527599
vt 0.9952083 0.4529132
vt 0.9930017 0.4081346
vt 0.9853889 0.4081078
vt 0.9778004 0.4525723
vt 0.9928277 0.3720855
vt 0.976084 0.4080751
vt 0.9852208 0.3720679
vt 0.9948995 0.3290816
vt 0.9759232 0.3720463
vt 0.9870664 0.3290437
vt 0.9949905 0.2888054
vt 0.9774923 0.3289973
vt 0.9871565 0.2888001
vt 0.9775813 0.2887936
vt 0.9862266 0.359522
vt 0.9940902 0.359676
vt 0.9935675 0.3165435
vt 0.9857796 0.3165162
vt 0.9773766 0.3593488
vt 0.9959394 0.2806648
vt 0.9770146 0.3164853
vt 0.9881254 0.2806466
vt 0.9948405 0.2374593
vt 0.9793313 0.2806262
vt 0.9868503 0.2374206
vt 0.9938646 0.1974528
vt 0.9778577 0.237377
vt 0.9860003 0.1974475
vt 0.9771496 0.1974415
vt 0.8454951 0.3218389
vt 0.8799736 0.3195026
vt 0.8362763 0.2398811
vt 0.8756657 0.2064895
vt 0.8407008 0.1720916
vt 0.8703267 0.1809689
vt 0.8728055 0.01565108
vt 0.8382382 0.01525975
vt 0.7975228 0.1237916
vt 0.7996319 0.009464421
vt 0.7691143 0.08649681
vt 0.7632663 0.01043843
vt 0.7691143 0.08649681
vt 0.7674645 0.1436259
vt 0.8035418 0.1671849
vt 0.7695498 0.3272519
vt 0.8039408 0.3264819
vn -0.2739332 0.6449997 -0.7133975
vn 0.0004846135 0.7217744 -0.6921282
vn -0.03611674 0.7152942 -0.6978896
vn -0.322825 0.6823021 -0.6559328
vn -0.03611674 0.7152942 -0.6978896
vn -0.322825 0.6823021 -0.6559328
vn -0.02243455 0.6608588 -0.7501748
vn -0.07066703 0.7054421 -0.7052358
vn -0.02041135 0.7133694 -0.7004909
vn -0.009211479 0.7197713 -0.6941502
vn -0.0002995166 0.7083652 -0.705846
vn -0.0360779 -0.7015271 0.7117289
vn 0.2713306 -0.6970493 0.6637032
vn -0.009637013 -0.6912302 0.7225704
vn 0.0006893437 -0.6889793 0.7247807
vn -0.0360779 -0.7015271 0.7117289
vn 0.2887967 -0.6871636 0.6666353
vn 0.2713306 -0.6970493 0.6637032
vn 0.1854737 -0.6754219 0.7137259
vn 0.02723331 -0.7059028 0.7077849
vn -0.003455076 -0.6911184 0.7227333
vn 0.005939513 -0.7152635 0.6988296
vn 0.3962916 0.4980001 0.7713292
vn 0.7067114 -0.7074472 0.008802558
vn 0.4345045 -0.4838019 0.7596983
vn 0.6729318 0.7396678 0.007364823
vn 0.7067114 -0.7074472 0.008802558
vn 0.4689664 -0.5094208 -0.7214991
vn -0.4442015 0.4992775 0.7439134
vn -0.7152498 0.6987739 0.01152121
vn -0.4037673 -0.5017751 0.7649796
vn 0.6729318 0.7396678 0.007364823
vn 0.4212682 0.5409272 -0.7279636
vn -0.7152498 0.6987739 0.01152121
vn -0.4771853 0.5269114 -0.7033197
vn -0.6597134 -0.7515152 -0.001772461
vn 0.4345045 -0.4838019 0.7596983
vn 0.7067114 -0.7074472 0.008802558
vn -0.6597134 -0.7515152 -0.001772461
vn -0.4234204 -0.5326499 -0.7328023
vn 0.7067114 -0.7074472 0.008802558
vn 0.4689664 -0.5094208 -0.7214991
vn 0.9717149 0.05604536 -0.2294102
vn 0.9963394 -0.06150172 -0.05937527
vn 0.9955076 -0.04445755 -0.08359542
vn 0.9694707 0.1208129 -0.2133793
vn 0.9955076 -0.04445755 -0.08359542
vn 0.9694707 0.1208129 -0.2133793
vn 0.9886129 -0.08959074 -0.1209047
vn 0.9939115 -0.03279386 -0.1051873
vn 0.9954575 -0.05565415 -0.07724572
vn 0.996178 -0.05764378 -0.06562486
vn 0.9949033 -0.0712177 -0.07138262
vn -0.9936262 0.0949873 0.06069889
vn -0.9789802 -0.09077717 0.1826399
vn -0.9926985 0.08976232 0.08057539
vn -0.9924623 0.08530921 0.08798207
vn -0.9936262 0.0949873 0.06069889
vn -0.9752707 -0.09742343 0.1983824
vn -0.9789802 -0.09077717 0.1826399
vn -0.9843835 -0.0173954 0.1751756
vn -0.9945451 0.05683604 0.08746278
vn -0.9927227 0.08603603 0.08425795
vn -0.995698 0.06289266 0.06804428
vn -0.1001947 0.9948912 0.01235467
vn -0.02548735 0.9992465 0.02927444
vn -0.1004284 0.9947736 -0.01843293
vn -0.1356331 0.9906888 0.01181035
vn -0.02548735 0.9992465 0.02927444
vn -0.07267139 0.9972576 0.01400343
vn -0.07583584 0.9970598 0.01097983
vn -0.0646719 0.9976673 0.02185065
vn -0.06467191 0.9976673 0.02185065
vn -0.06008166 0.9980583 -0.01642665
vn -0.06403094 0.9976853 -0.02289305
vn -0.08468454 0.9961675 -0.02188283
vn -0.06547109 0.9974753 -0.02750476
vn -0.1416647 0.9899015 -0.005098996
vn 0.03179818 -0.9994134 0.01271689
vn 0.03179818 -0.9994134 0.01271689
vn 0.02980126 -0.9995008 0.01049296
vn 0.06769247 -0.9976304 -0.01230606
vn 0.009054119 -0.9999359 -0.006811481
vn -0.05584411 -0.9983858 -0.01034985
vn -0.06498514 -0.9977943 -0.01354835
vn -0.06674947 -0.9975461 -0.0211218
vn -0.06586531 -0.9977608 -0.01163179
vn -0.06527611 -0.997867 0.0006729156
vn -0.01111158 -0.9997037 0.0216573
vn -0.07893351 -0.9968632 0.00576305
vn 0.1574563 -0.9856618 0.06064977
vn 0.9996227 5.645365E-06 0.02746696
vn 0.9998442 0.003709244 -0.01726043
vn 0.9996227 5.645364E-06 0.02746696
vn 0.9998362 2.865575E-06 -0.01809764
vn 0.9986684 0.03652975 -0.03642743
vn 0.9959012 -0.06207017 0.06578883
vn 0.990783 -0.1097095 0.07945268
vn 0.9999576 0.006465293 -0.006571264
vn 0.9983761 -0.05612539 -0.009744766
vn 0.9993505 -0.03603634 0.0001424274
vn 0.9994874 -0.03197715 0.001574343
vn 0.9994874 -0.03197715 0.001574343
vn -0.999989 0.004539423 0.001198999
vn -0.9998922 -0.00667491 0.01307316
vn -0.9998922 -0.00667491 0.01307316
vn -0.9979539 0.03075264 -0.05605609
vn -0.9990731 0.04214372 -0.008754168
vn -0.9998908 -0.005906148 -0.0135507
vn -0.9989379 -0.02472177 0.03888202
vn -0.9996245 -0.0142015 0.02343245
vn -0.9990498 0.03890861 -0.01963295
vn -0.9989383 0.04145379 -0.02010114
vn -0.9981634 0.04142286 -0.04420536
vn -0.9981634 0.04142286 -0.04420536
vn 0 0 1
vn 0 0 1
vn 0 0 1
vn 0 0 1
vn 0.9986439 0.03682021 0.03680583
vn 0.9986188 0.03611061 0.03816238
vn 0.9978681 0.05158711 0.03997626
vn 0.9928335 0.1109005 0.04452766
vn 0.9963331 0.06818 0.0516889
vn 0.9936789 0.06502892 0.09150729
vn 0.9975784 0.04931546 0.04904315
vn 0.9975801 0.04917155 0.04915442
vn -0.9996423 -0.01853837 -0.01927918
vn -0.9933176 -0.09623557 -0.06370944
vn -0.9935416 -0.1131311 -0.008743522
vn -0.9928159 -0.08461262 -0.08460112
vn -0.9935416 -0.1131311 -0.008743522
vn -0.9986217 -0.0508999 -0.01279618
vn -0.9933863 -0.1145295 -0.008164767
vn -0.9943061 -0.0812434 -0.06895476
vn -0.994191 -0.07611161 -0.07610028
vn 0.7187055 -0.6952697 0.007897712
vn 0.4405701 -0.5547668 -0.7057845
vn -0.5189731 -0.5642045 -0.6421373
vn -0.6223755 -0.7796326 0.06943899
vn 0.5944908 -0.5632432 0.5738795
vn -0.5830632 0.5510255 -0.5969993
vn -0.4128472 -0.6297149 0.6580397
vn -0.7024676 0.7080334 0.0723051
vn 0.3679171 0.5989743 -0.7112432
vn -0.4823814 0.6151561 0.6236115
vn 0.6691148 0.7430487 0.01280461
vn 0.4405701 -0.5547668 -0.7057845
vn 0.5405758 0.595745 0.594025
vn 0.7187055 -0.6952697 0.007897712
vn 0.5944908 -0.5632432 0.5738795
vn 0.702668 -0.7088509 0.0615476
vn 0.4949022 -0.6817893 -0.5387347
vn -0.4648928 -0.693572 -0.5503023
vn -0.6727262 -0.7386798 0.04232744
vn 0.5751058 -0.4640009 0.6737629
vn -0.579164 0.459048 -0.6736794
vn -0.5571286 -0.4784342 0.678755
vn -0.6872402 0.7260453 0.0236436
vn 0.5398604 0.4573976 -0.7066387
vn -0.4940498 0.6924119 0.5258144
vn 0.6719086 0.7405079 -0.01367366
vn 0.4949022 -0.6817893 -0.5387347
vn 0.4852596 0.6960037 0.5292467
vn 0.702668 -0.7088509 0.0615476
vn 0.5751058 -0.4640009 0.6737629
vn -0.002744443 -0.7258285 0.6878702
vn -0.00438075 -0.7254121 0.6883008
vn 0.006884704 -0.7179831 0.6960266
vn 0.07767352 -0.6800188 0.7290688
vn 0.01401958 -0.7024428 0.7116021
vn -0.02412819 -0.6736625 0.7386452
vn -0.0005358582 -0.7122962 0.7018788
vn -0.0007387905 -0.7122962 0.7018785
vn 0.01678188 0.7472397 -0.6643427
vn -0.03066714 0.6780103 -0.7344123
vn -0.1076944 0.7018006 -0.7041859
vn -0.005014461 0.6718479 -0.7406721
vn -0.1076944 0.7018006 -0.7041859
vn -0.02544609 0.7368485 -0.675579
vn -0.1077671 0.7013862 -0.7045878
vn -0.0132179 0.6833854 -0.7299383
vn -0.003635071 0.6817659 -0.7315613
g polySurface669_0
f 3/3/3 2/2/2 1/1/1
f 5/5/5 1/1/1 4/4/4
f 7/7/7 6/6/6 1/1/1
f 7/7/7 8/8/8 4/4/4
f 7/7/7 9/9/9 8/8/8
f 8/8/8 9/9/9 10/10/10
f 7/7/7 11/11/11 9/9/9
f 14/14/14 13/13/13 12/12/12
f 14/14/14 16/16/16 15/15/15
f 18/18/18 17/17/17 16/16/16
f 17/17/17 18/18/18 19/19/19
f 17/17/17 19/19/19 20/20/20
f 17/17/17 20/20/20 21/21/21
f 22/22/22 20/20/20 19/19/19
f 25/25/25 24/24/24 23/23/23
f 27/27/27 26/26/26 23/23/23
f 27/27/27 28/28/28 26/26/26
f 29/29/29 23/23/23 26/26/26
f 30/30/30 29/29/29 26/26/26
f 31/31/31 29/29/29 30/30/30
f 28/28/28 33/33/33 32/32/32
f 34/34/34 32/32/32 33/33/33
f 35/35/35 34/34/34 33/33/33
f 36/36/36 31/31/31 34/34/34
f 36/36/36 34/34/34 35/35/35
f 31/31/31 36/36/36 37/37/37
f 36/36/36 38/38/38 37/37/37
f 40/40/40 39/39/39 35/35/35
f 39/39/39 40/40/40 41/41/41
f 40/40/40 42/42/42 41/41/41
f 45/45/45 44/44/44 43/43/43
f 47/47/47 43/43/43 46/46/46
f 49/49/49 48/48/48 43/43/43
f 49/49/49 50/50/50 46/46/46
f 49/49/49 51/51/51 50/50/50
f 50/50/50 51/51/51 52/52/52
f 49/49/49 53/53/53 51/51/51
f 56/56/56 55/55/55 54/54/54
f 56/56/56 58/58/58 57/57/57
f 60/60/60 59/59/59 58/58/58
f 59/59/59 60/60/60 61/61/61
f 59/59/59 61/61/61 62/62/62
f 59/59/59 62/62/62 63/63/63
f 64/64/64 62/62/62 61/61/61
f 67/67/67 66/66/66 65/65/65
f 65/65/65 69/69/69 68/68/68
f 67/67/67 70/70/70 69/69/69
f 71/71/71 70/70/70 67/67/67
f 71/71/71 72/72/72 70/70/70
f 72/72/72 73/73/73 70/70/70
f 74/74/74 65/65/65 68/68/68
f 74/74/74 68/68/68 75/75/75
f 75/75/75 76/76/76 74/74/74
f 76/76/76 77/77/77 74/74/74
f 76/76/76 75/75/75 78/78/78
f 81/81/81 80/80/80 79/79/79
f 82/82/82 81/81/81 79/79/79
f 81/81/81 82/82/82 83/83/83
f 84/84/84 81/81/81 83/83/83
f 84/84/84 83/83/83 85/85/85
f 86/86/86 84/84/84 85/85/85
f 86/86/86 85/85/85 87/87/87
f 87/87/87 85/85/85 88/88/88
f 88/88/88 89/89/89 87/87/87
f 89/89/89 90/90/90 87/87/87
f 89/89/89 88/88/88 91/91/91
f 94/94/94 93/93/93 92/92/92
f 93/93/93 95/95/95 92/92/92
f 96/96/96 95/95/95 93/93/93
f 96/96/96 93/93/93 97/97/97
f 98/98/98 96/96/96 97/97/97
f 98/98/98 97/97/97 99/99/99
f 100/100/100 98/98/98 99/99/99
f 100/100/100 101/101/101 98/98/98
f 100/100/100 102/102/102 101/101/101
f 102/102/102 103/103/103 101/101/101
f 106/106/106 105/105/105 104/104/104
f 107/107/107 106/106/106 104/104/104
f 107/107/107 104/104/104 108/108/108
f 107/107/107 108/108/108 109/109/109
f 109/109/109 108/108/108 110/110/110
f 109/109/109 110/110/110 111/111/111
f 111/111/111 110/110/110 112/112/112
f 111/111/111 112/112/112 113/113/113
f 113/113/113 112/112/112 114/114/114
f 115/115/115 113/113/113 114/114/114
f 118/118/118 117/117/117 116/116/116
f 118/118/118 119/119/119 117/117/117
f 122/122/122 121/121/121 120/120/120
f 122/122/122 123/123/123 121/121/121
f 124/124/124 123/123/123 122/122/122
f 124/124/124 125/125/125 123/123/123
f 126/126/126 125/125/125 124/124/124
f 126/126/126 124/124/124 127/127/127
f 130/130/130 129/129/129 128/128/128
f 132/132/132 131/131/131 129/129/129
f 133/133/133 132/132/132 128/128/128
f 133/133/133 128/128/128 134/134/134
f 135/135/135 133/133/133 134/134/134
f 135/135/135 134/134/134 136/136/136
f 139/139/139 138/138/138 137/137/137
f 140/140/140 139/139/139 137/137/137
f 140/140/140 137/137/137 141/141/141
f 139/139/139 140/140/140 142/142/142
f 143/143/143 140/140/140 141/141/141
f 140/140/140 144/144/144 142/142/142
f 140/140/140 143/143/143 144/144/144
f 142/142/142 144/144/144 145/145/145
f 143/143/143 146/146/146 144/144/144
f 144/144/144 147/147/147 145/145/145
f 144/144/144 146/146/146 147/147/147
f 148/148/148 145/145/145 147/147/147
f 146/146/146 149/149/149 147/147/147
f 150/150/150 148/148/148 147/147/147
f 150/150/150 147/147/147 149/149/149
f 151/151/151 150/150/150 149/149/149
f 154/154/154 153/153/153 152/152/152
f 155/155/155 154/154/154 152/152/152
f 155/155/155 152/152/152 156/156/156
f 154/154/154 155/155/155 157/157/157
f 158/158/158 155/155/155 156/156/156
f 155/155/155 159/159/159 157/157/157
f 155/155/155 158/158/158 159/159/159
f 157/157/157 159/159/159 160/160/160
f 158/158/158 161/161/161 159/159/159
f 159/159/159 162/162/162 160/160/160
f 159/159/159 161/161/161 162/162/162
f 163/163/163 160/160/160 162/162/162
f 161/161/161 164/164/164 162/162/162
f 165/165/165 163/163/163 162/162/162
f 165/165/165 162/162/162 164/164/164
f 166/166/166 165/165/165 164/164/164
f 169/169/169 168/168/168 167/167/167
f 169/169/169 170/170/170 168/168/168
f 171/171/171 170/170/170 169/169/169
f 171/171/171 172/172/172 170/170/170
f 173/173/173 172/172/172 171/171/171
f 173/173/173 171/171/171 174/174/174
f 177/177/177 176/176/176 175/175/175
f 179/179/179 178/178/178 176/176/176
f 180/180/180 179/179/179 175/175/175
f 180/180/180 175/175/175 181/181/181
f 182/182/182 180/180/180 181/181/181
f 182/182/182 181/181/181 183/183/183
