g polySurface8
v 0.4193253 -0.2885689 0.6868708
v 0.7385353 -0.2843711 0.1112637
v 0.6081528 -0.2863788 -0.1994658
v 0.02113838 -0.2871147 -0.5849365
v -0.5925843 -0.2930703 0.2840585
v -0.2119846 -0.2743429 0.7648838
v 0.1345596 -0.2637703 0.780973
v -0.4001507 -0.2927415 -0.5490079
v -0.7192783 -0.2481159 -0.02970918
v -0.2924927 -0.2527663 -0.7209044
v 0.7117035 0.1839621 0.01805901
v 0.6801212 -0.0702542 -0.2626069
v 0.7620701 -0.1101669 -0.02097777
v 0.4940426 0.209552 -0.3661892
v 0.5884186 0.2899891 -0.07860204
v 0.6548092 0.2909021 0.3070943
v 0.3299389 0.2923332 -0.2995059
v 0.1677074 0.2927608 -0.4855623
v 0.03704682 0.1079688 -0.774636
v -0.257103 0.2373391 -0.7215211
v 0.5854592 -0.1795464 -0.3702025
v 0.6801212 -0.0702542 -0.2626069
v 0.04726181 -0.004154448 -0.7905803
v 0.2718315 -0.143395 -0.6295807
v 0.7620701 -0.1101669 -0.02097777
v 0.6548092 0.2909021 0.3070943
v 0.7385353 -0.2843711 0.1112637
v 0.6950707 0.03283458 0.5289163
v 0.6675797 0.2096592 0.5085766
v 0.439642 -0.2059787 0.7302415
v 0.6950707 0.03283458 0.5289163
v 0.4193253 -0.2885689 0.6868708
v 0.7385353 -0.2843711 0.1112637
v -0.4164391 0.148035 -0.7288691
v -0.257103 0.2373391 -0.7215211
v -0.6581085 0.241269 -0.1351926
v -0.4175068 0.2913674 -0.1180177
v 0.1677074 0.2927608 -0.4855623
v 0.3299389 0.2923332 -0.2995059
v 0.6548092 0.2909021 0.3070943
v 0.5884186 0.2899891 -0.07860204
v -0.07235985 0.28968 0.3598444
v -0.6725922 0.2638507 -0.005560784
v 0.1303047 0.2876953 0.4990069
v 0.6675797 0.2096592 0.5085766
v 0.2323322 0.1544048 0.7288771
v -0.116502 0.2240959 0.7001835
v -0.4982689 0.2093785 0.5268039
v -0.7620701 -0.01019318 0.01342899
v -0.6340084 -0.1444671 -0.3365752
v -0.4164391 0.148035 -0.7288691
v -0.4392346 -0.04498686 -0.7547698
v -0.7192783 -0.2481159 -0.02970918
v -0.6340084 -0.1444671 -0.3365752
v -0.4001507 -0.2927415 -0.5490079
v -0.4392346 -0.04498686 -0.7547698
v -0.2924927 -0.2527663 -0.7209044
v -0.6602131 -0.1565161 0.4409605
v -0.7620701 -0.01019318 0.01342899
v -0.7192783 -0.2481159 -0.02970918
v -0.5925843 -0.2930703 0.2840585
v -0.4982689 0.2093785 0.5268039
v -0.5721989 -0.1031471 0.6258587
v -0.2119846 -0.2743429 0.7648838
v -0.3682205 -0.1726861 0.755429
v -0.5721989 -0.1031471 0.6258587
v -0.3858982 -0.03102991 0.7293465
v -0.116502 0.2240959 0.7001835
v -0.3682205 -0.1726861 0.755429
v 0.6801212 -0.0702542 -0.2626069
v 0.7385353 -0.2843711 0.1112637
v 0.7620701 -0.1101669 -0.02097777
v 0.6081528 -0.2863788 -0.1994658
v 0.5854592 -0.1795464 -0.3702025
v 0.5854592 -0.1795464 -0.3702025
v 0.2718315 -0.143395 -0.6295807
v 0.6081528 -0.2863788 -0.1994658
v 0.02113838 -0.2871147 -0.5849365
v -0.2924927 -0.2527663 -0.7209044
v 0.04726181 -0.004154448 -0.7905803
v -0.4392346 -0.04498686 -0.7547698
v 0.03704682 0.1079688 -0.774636
v -0.257103 0.2373391 -0.7215211
v -0.4164391 0.148035 -0.7288691
v -0.116502 0.2240959 0.7001835
v 0.2323322 0.1544048 0.7288771
v -0.3858982 -0.03102991 0.7293465
v 0.2914776 -0.1591156 0.7905803
v 0.439642 -0.2059787 0.7302415
v -0.3682205 -0.1726861 0.755429
v -0.2119846 -0.2743429 0.7648838
v 0.1345596 -0.2637703 0.780973
v 0.439642 -0.2059787 0.7302415
v 0.4193253 -0.2885689 0.6868708
v 0.6675797 0.2096592 0.5085766
v 0.439642 -0.2059787 0.7302415
v 0.6950707 0.03283458 0.5289163
vt 0.4369706 0.9714028
vt 0.4555691 0.9590538
vt 0.456494 0.9476618
vt 0.4448358 0.9268907
vt 0.4127887 0.9434765
vt 0.4167331 0.9639081
vt 0.4268779 0.96988
vt 0.431588 0.9213956
vt 0.4137402 0.9319378
vt 0.4375879 0.9177668
vt 0.5275688 0.7401551
vt 0.5355394 0.7621627
vt 0.5444419 0.751047
vt 0.517334 0.7636192
vt 0.5180831 0.7470913
vt 0.5142756 0.728978
vt 0.5072399 0.7619059
vt 0.5017208 0.7732331
vt 0.5022642 0.7906513
vt 0.4865974 0.7935504
vt 0.5357553 0.7718276
vt 0.5355394 0.7621627
vt 0.5063337 0.7944123
vt 0.5208774 0.7880312
vt 0.5422208 0.7283341
vt 0.5142756 0.728978
vt 0.5437284 0.7147342
vt 0.5157884 0.7118799
vt 0.5106483 0.7189081
vt 0.5084873 0.6915797
vt 0.5157884 0.7118799
vt 0.5132138 0.6883264
vt 0.5437284 0.7147342
vt 0.4803119 0.800693
vt 0.4865974 0.7935504
vt 0.4540726 0.7719818
vt 0.4663808 0.7661683
vt 0.5017208 0.7732331
vt 0.5072399 0.7619059
vt 0.5142756 0.728978
vt 0.5180831 0.7470913
vt 0.4776792 0.7369262
vt 0.4500102 0.7650899
vt 0.4854653 0.7258952
vt 0.5106483 0.7189081
vt 0.4861416 0.707983
vt 0.4707222 0.7211125
vt 0.4551859 0.7352117
vt 0.4373762 0.7769691
vt 0.4492387 0.7964735
vt 0.4803119 0.800693
vt 0.4731067 0.80962
vt 0.4313431 0.7898434
vt 0.4492387 0.7964735
vt 0.4553217 0.8154505
vt 0.4731067 0.80962
vt 0.4650888 0.8219601
vt 0.4344344 0.7332001
vt 0.432868 0.7588449
vt 0.4186502 0.7533189
vt 0.4225454 0.7327611
vt 0.4551859 0.7352117
vt 0.4423198 0.7256094
vt 0.4480239 0.7028999
vt 0.4476925 0.7128292
vt 0.4423198 0.7256094
vt 0.4519467 0.7190526
vt 0.4707222 0.7211125
vt 0.4476925 0.7128292
vt 0.5355394 0.7621627
vt 0.5570667 0.7524895
vt 0.5444419 0.751047
vt 0.5471753 0.7704362
vt 0.5357553 0.7718276
vt 0.5357553 0.7718276
vt 0.5208774 0.7880312
vt 0.5471753 0.7704362
vt 0.5209394 0.804244
vt 0.503521 0.8162024
vt 0.5063337 0.7944123
vt 0.4871141 0.8115819
vt 0.5022642 0.7906513
vt 0.4865974 0.7935504
vt 0.4803119 0.800693
vt 0.4707222 0.7211125
vt 0.4861416 0.707983
vt 0.4519467 0.7190526
vt 0.4760091 0.6910524
vt 0.4813522 0.6832951
vt 0.4476925 0.7128292
vt 0.4480239 0.7028999
vt 0.4651086 0.6915352
vt 0.4813522 0.6832951
vt 0.4775206 0.6794699
vt 0.5106483 0.7189081
vt 0.5084873 0.6915797
vt 0.5157884 0.7118799
vn 0.002952701 -0.9999834 0.004945938
vn 0.01411756 -0.9999002 0.0005370112
vn 0.003498939 -0.9999924 -0.001725551
vn 0.006000354 -0.9999622 -0.006296081
vn -0.008274587 -0.9999658 -0.000204338
vn -0.01581897 -0.9984128 0.05405218
vn 0.01529329 -0.9545006 0.2978169
vn -0.005257308 -0.9997599 -0.02127335
vn -0.2193024 -0.9743209 -0.05104209
vn -0.006657888 -0.9730593 -0.2304587
vn 0.9144911 0.375748 -0.1500652
vn 0.858006 0.3289428 -0.39449
vn 0.990914 0.1169671 0.06639369
vn 0.6441515 0.3913692 -0.6571903
vn 0.6799077 0.6587023 -0.3222371
vn 0.7005175 0.7030869 -0.1222456
vn 0.3219206 0.8925492 -0.3157893
vn 0.3550581 0.7238767 -0.5915539
vn 0.4823966 0.4954372 -0.7223818
vn 0.2306763 0.7691675 -0.5959614
vn 0.6416146 0.1588609 -0.7503959
vn 0.6539498 0.1612636 -0.7391506
vn 0.6399571 0.1649306 -0.7505017
vn 0.6398476 0.163786 -0.7508456
vn 0.990914 0.1169671 0.06639369
vn 0.9894891 0.1354591 0.05061672
vn 0.9870069 0.1011501 0.1248439
vn 0.9890513 0.1473507 -0.008083775
vn 0.9881396 0.153556 -0.0007178588
vn 0.7718992 -0.4338968 0.4646561
vn 0.7788585 -0.4572091 0.4293472
vn 0.7781318 -0.4545736 0.4334441
vn 0.7789794 -0.4576528 0.4286549
vn -0.452872 0.8339542 -0.3153208
vn -0.1694553 0.972571 -0.1593443
vn -0.76552 0.5449759 -0.342024
vn -0.06836702 0.9971374 -0.03229459
vn -0.03678453 0.9978204 -0.05478638
vn -0.0002566072 0.9999968 0.002519425
vn 0.02665912 0.9964889 0.07936786
vn 0.01300358 0.9999049 -0.004605222
vn -0.0461738 0.9971161 0.06022881
vn -0.5642094 0.8059444 0.1792242
vn 0.04492233 0.9678047 0.2476611
vn 0.1252683 0.9107262 0.3935552
vn 0.125798 0.8814266 0.4552605
vn -0.05473756 0.9684493 0.243125
vn -0.1262494 0.9806533 0.1495996
vn -0.9944468 0.1027747 0.02264697
vn -0.9080957 0.1487188 -0.3914649
vn -0.9080925 0.1522558 -0.3901105
vn -0.908902 0.1590627 -0.3854818
vn -0.959317 -0.2697799 -0.0832456
vn -0.7725526 -0.4909471 -0.4026578
vn -0.7177306 -0.5194724 -0.463693
vn -0.7113239 -0.5120688 -0.48146
vn -0.6480634 -0.5444793 -0.5324998
vn -0.9335991 0.03819289 0.3562781
vn -0.9944468 0.1027747 0.02264697
vn -0.959317 -0.2697799 -0.0832456
vn -0.6431113 -0.6893765 0.3334183
vn -0.7764394 0.3825236 0.5008169
vn -0.5164213 -0.7354546 0.438652
vn -0.5180827 -0.7354009 0.4367789
vn -0.5154278 -0.7543429 0.4065723
vn -0.7579809 0.3300453 0.5626144
vn -0.4603774 0.3916476 0.7966585
vn -0.376527 0.4876227 0.7876874
vn -0.5109059 0.09358464 0.8545274
vn 0.8514017 -0.3865102 -0.3545773
vn 0.8519207 -0.3858276 -0.3540736
vn 0.8536501 -0.3831574 -0.3528057
vn 0.8510837 -0.3870406 -0.354762
vn 0.8508143 -0.3871253 -0.3553154
vn 0.3492119 -0.772784 -0.5299584
vn 0.3191151 -0.721225 -0.614817
vn 0.348978 -0.7729716 -0.5298389
vn 0.2926917 -0.7096309 -0.6409021
vn 0.05463791 -0.3493047 -0.9354149
vn 0.1235835 -0.35692 -0.9259239
vn -0.07177327 -0.02741763 -0.997044
vn -0.09123681 0.1563617 -0.9834769
vn -0.09345773 0.1757012 -0.9799973
vn -0.03084702 0.1365104 -0.9901583
vn -0.04834787 0.1636835 0.9853275
vn 0.1442605 0.2117968 0.966608
vn -0.05383925 0.1754066 0.9830229
vn 0.09151717 0.1160272 0.9890209
vn 0.4227844 0.2386118 0.8742526
vn -0.05556732 0.1408762 0.9884666
vn -0.05311783 0.009404049 0.998544
vn 0.00584488 -0.105814 0.9943687
vn 0.2312617 -0.4759922 0.8484984
vn 0.2330896 -0.4964466 0.8361878
vn 0.432981 0.2276909 0.8721722
vn 0.4227844 0.2386118 0.8742526
vn 0.5029299 0.1755467 0.8463125
g polySurface8_0
f 3/3/3 2/2/2 1/1/1
f 3/3/3 1/1/1 4/4/4
f 4/4/4 1/1/1 5/5/5
f 1/1/1 6/6/6 5/5/5
f 1/1/1 7/7/7 6/6/6
f 4/4/4 5/5/5 8/8/8
f 8/8/8 5/5/5 9/9/9
f 10/10/10 4/4/4 8/8/8
f 13/13/13 12/12/12 11/11/11
f 12/12/12 14/14/14 11/11/11
f 15/15/15 11/11/11 14/14/14
f 16/16/16 11/11/11 15/15/15
f 14/14/14 17/17/17 15/15/15
f 18/18/18 17/17/17 14/14/14
f 18/18/18 14/14/14 19/19/19
f 20/20/20 18/18/18 19/19/19
f 19/19/19 14/14/14 21/21/21
f 22/22/22 21/21/21 14/14/14
f 19/19/19 21/21/21 23/23/23
f 23/23/23 21/21/21 24/24/24
f 11/11/11 26/26/26 25/25/25
f 27/27/27 25/25/25 26/26/26
f 26/26/26 28/28/28 27/27/27
f 29/29/29 28/28/28 26/26/26
f 32/32/32 31/31/31 30/30/30
f 32/32/32 33/33/33 31/31/31
f 36/36/36 35/35/35 34/34/34
f 36/36/36 37/37/37 35/35/35
f 35/35/35 37/37/37 38/38/38
f 37/37/37 39/39/39 38/38/38
f 39/39/39 37/37/37 40/40/40
f 39/39/39 40/40/40 41/41/41
f 37/37/37 42/42/42 40/40/40
f 37/37/37 36/36/36 43/43/43
f 43/43/43 42/42/42 37/37/37
f 42/42/42 44/44/44 40/40/40
f 44/44/44 45/45/45 40/40/40
f 45/45/45 44/44/44 46/46/46
f 47/47/47 46/46/46 44/44/44
f 47/47/47 44/44/44 42/42/42
f 48/48/48 47/47/47 42/42/42
f 43/43/43 48/48/48 42/42/42
f 43/43/43 36/36/36 49/49/49
f 50/50/50 49/49/49 36/36/36
f 51/51/51 50/50/50 36/36/36
f 51/51/51 52/52/52 50/50/50
f 54/54/54 53/53/53 49/49/49
f 55/55/55 53/53/53 54/54/54
f 55/55/55 54/54/54 56/56/56
f 56/56/56 57/57/57 55/55/55
f 43/43/43 59/59/59 58/58/58
f 59/59/59 60/60/60 58/58/58
f 60/60/60 61/61/61 58/58/58
f 62/62/62 43/43/43 58/58/58
f 61/61/61 63/63/63 58/58/58
f 61/61/61 64/64/64 63/63/63
f 64/64/64 65/65/65 63/63/63
f 62/62/62 58/58/58 66/66/66
f 66/66/66 67/67/67 62/62/62
f 62/62/62 67/67/67 68/68/68
f 67/67/67 66/66/66 69/69/69
f 72/72/72 71/71/71 70/70/70
f 70/70/70 71/71/71 73/73/73
f 74/74/74 70/70/70 73/73/73
f 77/77/77 76/76/76 75/75/75
f 77/77/77 78/78/78 76/76/76
f 79/79/79 76/76/76 78/78/78
f 80/80/80 76/76/76 79/79/79
f 80/80/80 79/79/79 81/81/81
f 82/82/82 80/80/80 81/81/81
f 81/81/81 83/83/83 82/82/82
f 83/83/83 81/81/81 84/84/84
f 87/87/87 86/86/86 85/85/85
f 87/87/87 88/88/88 86/86/86
f 89/89/89 86/86/86 88/88/88
f 87/87/87 90/90/90 88/88/88
f 90/90/90 91/91/91 88/88/88
f 92/92/92 88/88/88 91/91/91
f 88/88/88 92/92/92 93/93/93
f 93/93/93 92/92/92 94/94/94
f 96/96/96 95/95/95 86/86/86
f 96/96/96 97/97/97 95/95/95
