g polySurface23
v 0.6346988 -0.100504 0.2174924
v 0.8039308 -0.1752792 0.6329822
v 0.9341661 -0.04159786 0.2660708
v -0.4492564 1.040885 -0.5633907
v -0.1634711 1.12008 -0.5444862
v -0.5475454 0.9283085 -0.3122701
v -0.7104166 0.0110516 -0.3238269
v -0.6383398 -0.05934684 -0.2917234
v -0.6552218 -0.158647 -0.5128049
v 0.9848093 0.6036524 0.2585864
v 1.1327 0.3963344 0.2755311
v 1.133849 0.5850621 0.4583951
v 0.8454415 0.8276184 -1.06242
v 0.2438554 0.9609877 -1.163521
v 0.2092343 0.849044 -1.280512
v 0.006548596 1.013804 0.7239718
v 0.222969 1.153662 0.6202168
v 0.2584677 1.066969 0.5282447
v 0.8886862 0.01254349 0.2143447
v 1.251673 0.5270077 0.01819868
v 1.143722 0.01975121 -0.0454648
v 0.9848093 0.6036524 0.2585864
v 0.9565969 0.8326417 0.3149961
v 0.467285 0.7904069 0.6366477
v -1.239258 0.7285872 0.319243
v -0.3445218 0.682127 1.282909
v -0.8985818 0.4552305 1.184042
v -0.5999442 0.9330126 0.4927949
v -0.7968565 1.020162 0.1333537
v -0.9895912 1.001959 -0.1586062
v -0.6766717 1.026418 -0.2821647
v -0.957361 0.8538665 -0.3505832
v -0.5475454 0.9283085 -0.3122701
v 0.006548596 1.013804 0.7239718
v 0.3434209 0.9470468 1.047115
v 0.2584677 1.066969 0.5282447
v -0.03468247 0.6073209 1.341689
v 0.3022797 0.6569831 1.179252
v 0.4162657 0.7267129 1.088081
v 0.1298716 0.1437006 1.201769
v -0.8077198 0.2900755 1.207212
v -0.3445218 0.682127 1.282909
v -0.8985818 0.4552305 1.184042
v -0.886169 -0.037194 1.096654
v -1.251673 -0.004919124 0.5370435
v -1.239258 0.7285872 0.319243
v -1.178877 0.1658322 -0.08740568
v -1.035808 -0.1626653 0.6800712
v -0.841636 -0.1951678 0.9254583
v -1.116591 0.5269117 -0.4438308
v -0.9895912 1.001959 -0.1586062
v -0.957361 0.8538665 -0.3505832
v -0.6035116 0.3160862 -0.4804141
v -0.5475454 0.9283085 -0.3122701
v -0.2556087 -0.1680377 1.001442
v -0.841636 -0.1951678 0.9254583
v 0.1987639 -0.1783627 0.8820794
v 0.3157941 -0.07517827 0.9727567
v 0.09885092 1.47096 0.5713672
v 0.006548596 1.013804 0.7239718
v -0.3948195 1.192824 0.724948
v 0.222969 1.153662 0.6202168
v 0.3922408 1.44603 0.1629453
v 0.165728 1.666809 0.05335722
v 0.2314264 1.627541 0.03292265
v -0.5379158 0.02328261 -0.7916013
v 0.1730423 0.2206662 -1.341689
v 0.2092343 0.849044 -1.280512
v -0.4097715 0.9685535 -0.7331197
v -0.6035116 0.3160862 -0.4804141
v -0.6552218 -0.158647 -0.5128049
v -0.7104166 0.0110516 -0.3238269
v -0.4492564 1.040885 -0.5633907
v -0.5475454 0.9283085 -0.3122701
v 0.1743264 1.691989 -0.01324396
v -0.3357004 1.55482 -0.3256957
v 0.2299547 1.554712 -0.09536963
v -0.06175976 1.642707 -0.05477343
v -0.6963447 1.510237 -0.1664031
v 0.165728 1.666809 0.05335722
v 0.2314264 1.627541 0.03292265
v 0.2299547 1.554712 -0.09536963
v 0.09885092 1.47096 0.5713672
v 0.165728 1.666809 0.05335722
v -0.6497238 1.192307 0.5365554
v -0.3948195 1.192824 0.724948
v -0.7968565 1.020162 0.1333537
v -0.5999442 0.9330126 0.4927949
v -0.6766717 1.026418 -0.2821647
v -0.6578648 1.304612 -0.3227752
v -0.5999442 0.9330126 0.4927949
v -0.3948195 1.192824 0.724948
v 0.006548596 1.013804 0.7239718
v 0.2092343 0.849044 -1.280512
v 0.1730423 0.2206662 -1.341689
v 0.8454415 0.8276184 -1.06242
v 0.5881963 0.08763422 -1.22455
v 0.3934855 -0.03973683 -1.226702
v 1.116019 0.2505257 -0.6309583
v 1.200649 0.710816 -0.6146951
v 1.143722 0.01975121 -0.0454648
v 1.248845 0.7300903 -0.2539899
v 1.251673 0.5270077 0.01819868
v 1.081029 -0.05132195 -0.4433833
v 0.3655958 -0.171429 -1.039674
v 0.3934855 -0.03973683 -1.226702
v 1.006699 -0.1077213 -0.1881332
v 1.143722 0.01975121 -0.0454648
v 0.8886862 0.01254349 0.2143447
v 1.006699 -0.1077213 -0.1881332
v 0.6346988 -0.100504 0.2174924
v 1.251673 0.5270077 0.01819868
v 0.9565969 0.8326417 0.3149961
v 1.248845 0.7300903 -0.2539899
v 0.7935999 0.9463406 0.1912952
v 1.200649 0.710816 -0.6146951
v 0.8454415 0.8276184 -1.06242
v 0.2584677 1.066969 0.5282447
v 0.467285 0.7904069 0.6366477
v 0.3774053 1.059202 0.169624
v 0.3877753 1.018507 -0.2256034
v -0.1634711 1.12008 -0.5444862
v 0.2438554 0.9609877 -1.163521
v -0.4097715 0.9685535 -0.7331197
v 0.2092343 0.849044 -1.280512
v -0.4492564 1.040885 -0.5633907
v -0.5379158 0.02328261 -0.7916013
v 0.3934855 -0.03973683 -1.226702
v 0.1730423 0.2206662 -1.341689
v -0.2798733 -0.238312 -0.6587182
v -0.6552218 -0.158647 -0.5128049
v 0.3655958 -0.171429 -1.039674
v -0.1634711 1.12008 -0.5444862
v -0.3357004 1.55482 -0.3256957
v -0.3777426 1.16462 -0.5308791
v -0.6578648 1.304612 -0.3227752
v -0.6963447 1.510237 -0.1664031
v -0.6766717 1.026418 -0.2821647
v -0.5475454 0.9283085 -0.3122701
v -0.1634711 1.12008 -0.5444862
v 0.2299547 1.554712 -0.09536963
v 0.3559456 1.243795 -0.2813728
v -0.1634711 1.12008 -0.5444862
v 0.3877753 1.018507 -0.2256034
v 0.3922408 1.44603 0.1629453
v 0.2314264 1.627541 0.03292265
v 0.2299547 1.554712 -0.09536963
v 0.3559456 1.243795 -0.2813728
v 0.4473277 1.240716 -0.02488833
v 0.3877753 1.018507 -0.2256034
v 0.3774053 1.059202 0.169624
v 0.3922408 1.44603 0.1629453
v 0.2584677 1.066969 0.5282447
v 0.222969 1.153662 0.6202168
v 0.3434209 0.9470468 1.047115
v 0.2584677 1.066969 0.5282447
v 0.467285 0.7904069 0.6366477
v 0.4162657 0.7267129 1.088081
v -1.116591 0.5269117 -0.4438308
v -0.7104166 0.0110516 -0.3238269
v -0.6035116 0.3160862 -0.4804141
v -1.178877 0.1658322 -0.08740568
v -1.035808 -0.1626653 0.6800712
v -1.251673 -0.004919124 0.5370435
v -0.6383398 -0.05934684 -0.2917234
v 0.9848093 0.6036524 0.2585864
v 1.133849 0.5850621 0.4583951
v 0.467285 0.7904069 0.6366477
v 0.4162657 0.7267129 1.088081
v 1.045171 0.4464134 0.8408762
v 0.8154821 0.4381764 1.124397
v 0.3022797 0.6569831 1.179252
v 1.164082 0.3524184 0.6401016
v 1.1327 0.3963344 0.2755311
v 0.9341661 -0.04159786 0.2660708
v 0.8039308 -0.1752792 0.6329822
v 0.7031332 -0.1175076 0.988636
v 0.9312207 0.2631068 1.002785
v 0.8154821 0.4381764 1.124397
v 0.398555 0.007900405 1.223395
v 0.3022797 0.6569831 1.179252
v 0.1298716 0.1437006 1.201769
v 0.9848093 0.6036524 0.2585864
v 0.8886862 0.01254349 0.2143447
v 1.1327 0.3963344 0.2755311
v 0.9341661 -0.04159786 0.2660708
v 0.6346988 -0.100504 0.2174924
v 0.398555 0.007900405 1.223395
v 0.7031332 -0.1175076 0.988636
v 0.3157941 -0.07517827 0.9727567
v 0.1298716 0.1437006 1.201769
vt 0.8436948 0.860359
vt 0.8431599 0.888168
vt 0.8578117 0.8668699
vt 0.2226666 0.5706154
vt 0.2199458 0.5522413
vt 0.2129757 0.5834617
vt 0.2524813 0.6284888
vt 0.2554333 0.6338775
vt 0.267365 0.6267858
vt 0.8989881 0.8740407
vt 0.8833766 0.8752249
vt 0.8914766 0.885588
vt 0.2699145 0.5202234
vt 0.2596245 0.5451773
vt 0.268101 0.549018
vt 0.2701509 0.7675133
vt 0.2846159 0.7597981
vt 0.2817439 0.7532858
vt 0.2878821 0.4378127
vt 0.2663842 0.4647676
vt 0.2970525 0.4583156
vt 0.248801 0.4530539
vt 0.2373509 0.4627264
vt 0.2058073 0.4516768
vt 0.940111 0.6055685
vt 0.9368669 0.542011
vt 0.9187062 0.5662283
vt 0.9657344 0.5800904
vt 0.9704881 0.6080196
vt 0.960804 0.6256925
vt 0.9729879 0.639654
vt 0.9546191 0.637944
vt 0.9726146 0.6501988
vt 0.9767398 0.5413558
vt 0.9653351 0.5163112
vt 0.9922614 0.5299022
vt 0.9361312 0.524471
vt 0.9489813 0.5077397
vt 0.9591505 0.5051858
vt 0.910665 0.5097451
vt 0.9097437 0.5615953
vt 0.9368669 0.542011
vt 0.9187062 0.5662283
vt 0.8913251 0.5691359
vt 0.8993509 0.6008757
vt 0.940111 0.6055685
vt 0.9158239 0.6312637
vt 0.8831871 0.5944757
vt 0.8797505 0.5730889
vt 0.9363123 0.6414683
vt 0.960804 0.6256925
vt 0.9546191 0.637944
vt 0.9311037 0.6683313
vt 0.9726146 0.6501988
vt 0.8856132 0.532463
vt 0.8797505 0.5730889
vt 0.8839345 0.5046091
vt 0.8921305 0.4983374
vt 0.2946106 0.7753083
vt 0.2701509 0.7675133
vt 0.2711781 0.7930125
vt 0.2846159 0.7597981
vt 0.316757 0.7649999
vt 0.3240681 0.7821561
vt 0.3249474 0.7783104
vt 0.2703493 0.6074888
vt 0.2989113 0.5607914
vt 0.268101 0.549018
vt 0.2325214 0.5696357
vt 0.2449594 0.608771
vt 0.267365 0.6267858
vt 0.2524813 0.6284888
vt 0.2226666 0.5706154
vt 0.2129757 0.5834617
vt 0.3278555 0.7830366
vt 0.3261648 0.8180035
vt 0.3369769 0.7849241
vt 0.3221222 0.7943856
vt 0.3067117 0.824891
vt 0.3240681 0.7821561
vt 0.3249474 0.7783104
vt 0.3313574 0.7735231
vt 0.2946106 0.7753083
vt 0.3240681 0.7821561
vt 0.2695233 0.8107575
vt 0.2711781 0.7930125
vt 0.279826 0.8365804
vt 0.260532 0.8224356
vt 0.3036287 0.8506591
vt 0.3111327 0.8368423
vt 0.2545297 0.8050371
vt 0.2711781 0.7930125
vt 0.2701509 0.7675133
vt 0.268101 0.549018
vt 0.2989113 0.5607914
vt 0.2699145 0.5202234
vt 0.3064675 0.5357171
vt 0.3161241 0.5430459
vt 0.291235 0.4927026
vt 0.2694043 0.4957835
vt 0.2970525 0.4583156
vt 0.2627527 0.4807088
vt 0.2663842 0.4647676
vt 0.3046997 0.4808294
vt 0.327286 0.5331309
vt 0.3161241 0.5430459
vt 0.310339 0.4662657
vt 0.2970525 0.4583156
vt 0.2878821 0.4378127
vt 0.3088617 0.451945
vt 0.2954097 0.4233442
vt 0.2663842 0.4647676
vt 0.2373509 0.4627264
vt 0.2627527 0.4807088
vt 0.2290353 0.4747016
vt 0.2694043 0.4957835
vt 0.2699145 0.5202234
vt 0.1939614 0.4699709
vt 0.2058073 0.4516768
vt 0.2083645 0.4875942
vt 0.2218674 0.5091797
vt 0.2199458 0.5522413
vt 0.2596245 0.5451773
vt 0.2325214 0.5696357
vt 0.268101 0.549018
vt 0.2226666 0.5706154
vt 0.2703493 0.6074888
vt 0.3179972 0.5706185
vt 0.2989113 0.5607914
vt 0.2903909 0.6167315
vt 0.267365 0.6267858
vt 0.3204771 0.5838804
vt 0.3389936 0.8470024
vt 0.3261648 0.8180035
vt 0.3274155 0.8436154
vt 0.3111327 0.8368423
vt 0.3067117 0.824891
vt 0.3036287 0.8506591
vt 0.3111478 0.8563172
vt 0.3389936 0.8470024
vt 0.3369769 0.7849241
vt 0.3576357 0.7891991
vt 0.3545367 0.8222072
vt 0.3705569 0.7898977
vt 0.316757 0.7649999
vt 0.3249474 0.7783104
vt 0.3313574 0.7735231
vt 0.339289 0.7519764
vt 0.3247104 0.7527257
vt 0.334011 0.7395983
vt 0.3106098 0.7452893
vt 0.316757 0.7649999
vt 0.2891845 0.7536386
vt 0.2846159 0.7597981
vt 0.9653351 0.5163112
vt 0.9922614 0.5299022
vt 0.9881796 0.5081246
vt 0.9591505 0.5051858
vt 0.9363123 0.6414683
vt 0.907302 0.660664
vt 0.9311037 0.6683313
vt 0.9158239 0.6312637
vt 0.8831871 0.5944757
vt 0.8993509 0.6008757
vt 0.9012752 0.6611855
vt 0.8989881 0.8740407
vt 0.8914766 0.885588
vt 0.911782 0.9173334
vt 0.8923998 0.9389368
vt 0.8785994 0.9030051
vt 0.8746305 0.9207528
vt 0.886961 0.9461347
vt 0.8753064 0.890458
vt 0.8833766 0.8752249
vt 0.8578117 0.8668699
vt 0.8431599 0.888168
vt 0.8417914 0.9127624
vt 0.8657819 0.9105989
vt 0.8746305 0.9207528
vt 0.8489412 0.9359907
vt 0.886961 0.9461347
vt 0.852903 0.9516284
vt 0.8989881 0.8740407
vt 0.8602029 0.8625353
vt 0.8833766 0.8752249
vt 0.8578117 0.8668699
vt 0.8436948 0.860359
vt 0.8489412 0.9359907
vt 0.8417914 0.9127624
vt 0.8348128 0.9368027
vt 0.852903 0.9516284
vn 0.2269313 -0.9382085 -0.2612794
vn 0.2269313 -0.9382085 -0.2612794
vn 0.2269313 -0.9382085 -0.2612794
vn -0.2730675 0.9131956 0.3025029
vn -0.2730675 0.9131956 0.3025029
vn -0.2730675 0.9131956 0.3025029
vn -0.7308928 -0.5999818 0.3252961
vn -0.7308927 -0.5999817 0.3252961
vn -0.7308928 -0.5999818 0.3252961
vn 0.7252785 0.4767879 -0.4966331
vn 0.7252785 0.4767879 -0.4966331
vn 0.7252784 0.4767879 -0.4966331
vn 0.2642819 0.6565698 -0.7064497
vn 0.264282 0.6565697 -0.7064497
vn 0.264282 0.6565698 -0.7064497
vn 0.6053334 -0.4492319 0.6570861
vn 0.6053334 -0.4492319 0.657086
vn 0.6053334 -0.4492319 0.657086
vn 0.6719823 -0.2025401 0.7123323
vn 0.6549299 -0.1764481 0.7348012
vn 0.697145 -0.2334367 0.6778615
vn 0.6199247 -0.1401754 0.7720389
vn 0.5707547 -0.1294278 0.810856
vn 0.5523891 -0.1345952 0.8226483
vn -0.3961921 0.83499 0.3818686
vn -0.295573 0.8503148 0.4354323
vn -0.4071755 0.8124861 0.4172224
vn -0.3455297 0.8553151 0.386064
vn -0.3728821 0.8785735 0.2984419
vn -0.3249435 0.9457185 -0.005324923
vn -0.1023424 0.8059109 -0.583124
vn -0.2473969 0.6772041 -0.692957
vn 0.02877 0.3276487 -0.9443616
vn -0.2028417 0.9117211 0.3572392
vn -0.08237624 0.8582696 0.5065445
vn -0.02716604 0.9729716 0.2293215
vn 0.07006425 0.02174835 0.9973054
vn 0.419861 0.1371945 0.8971591
vn 0.4713325 0.3093861 0.8259091
vn 0.03867478 -0.4376652 0.898306
vn -0.1202855 -0.2345254 0.9646395
vn -0.1815449 0.02467887 0.983073
vn -0.8121559 0.04098986 0.5819989
vn -0.4744008 -0.37206 0.797819
vn -0.9582723 0.0224143 0.2849768
vn -0.9892446 0.1267129 0.07306837
vn -0.9899989 -0.004328586 -0.1410092
vn -0.6937446 -0.5818608 0.4244482
vn -0.6418294 -0.6395203 0.4231652
vn -0.7840999 0.2624528 -0.5624106
vn -0.8814868 0.3929136 -0.2619157
vn -0.1476699 0.3401111 -0.9287184
vn 0.04025166 0.2594352 -0.9649213
vn 0.04275981 0.2609597 -0.9644023
vn 0.04349668 -0.5930164 0.8040147
vn -0.05255543 -0.7406786 0.6698009
vn 0.1532154 -0.6794673 0.71753
vn -0.132144 -0.8465143 0.5157048
vn 0.5369911 0.4514773 0.7126071
vn 0.1610164 0.2831021 0.9454771
vn 0.1315988 0.2898752 0.9479737
vn 0.5615534 0.336072 0.7561173
vn 0.6281652 0.660727 0.4109115
vn 0.5585191 0.7494676 0.3554643
vn 0.5585191 0.7494675 0.3554643
vn -0.7565502 0.1336802 -0.640126
vn -0.6272728 0.1111736 -0.7708237
vn -0.6361158 0.1247281 -0.7614457
vn -0.727064 0.1431752 -0.6714752
vn -0.9330129 0.1450232 -0.3293254
vn -0.9332792 0.1246385 -0.3368313
vn -0.9161831 0.1257571 -0.3805177
vn -0.9417074 0.1669813 -0.2920693
vn -0.9412572 0.1667002 -0.2936763
vn 0.3142426 0.7673995 -0.5588823
vn -0.141523 0.9705278 -0.195056
vn 0.3497111 0.5921277 -0.7260076
vn -0.2376203 0.9434288 0.2312548
vn -0.5724632 0.7812731 0.2487934
vn 0.3733272 0.9222032 0.1008357
vn 0.7842202 0.6087385 -0.1201503
vn 0.3497111 0.5921277 -0.7260076
vn -0.3040677 0.8747976 0.3771896
vn -0.2466916 0.916577 0.3146903
vn -0.561343 0.6782683 0.4741796
vn -0.3305254 0.8323394 0.4449316
vn -0.977862 0.1888766 0.09006406
vn -0.633284 -0.3690289 0.6802713
vn -0.9605176 0.02719333 -0.2768869
vn -0.9623913 0.02557938 -0.2704599
vn -0.633284 -0.3690289 0.6802713
vn -0.2975644 -0.4946856 0.8165425
vn -0.2372699 -0.5363844 0.809935
vn 0.3256074 0.07302213 -0.9426811
vn 0.3060904 0.06768927 -0.949593
vn 0.6119663 -0.04375505 -0.7896727
vn 0.5715646 -0.2776374 -0.7721601
vn 0.182828 -0.2634769 -0.9471821
vn 0.8573355 -0.2247382 -0.4631076
vn 0.908081 -0.1545951 -0.3892161
vn 0.9756738 -0.1811453 -0.123479
vn 0.9753097 -0.1813376 -0.1260464
vn 0.9706768 -0.1877276 -0.1501497
vn 0.6494365 -0.7007207 -0.2953349
vn 0.477725 -0.7726505 -0.4180792
vn 0.4920979 -0.7446411 -0.4509427
vn 0.4149368 -0.9080245 0.05760952
vn 0.4696676 -0.8327999 0.2930134
vn 0.3853767 -0.8470277 0.3660995
vn 0.4149368 -0.9080245 0.05760952
vn 0.3822493 -0.8486322 0.3656623
vn 0.8193772 0.4635077 0.3373155
vn 0.5453086 0.7774011 0.3135057
vn 0.5084703 0.8605725 0.02954656
vn 0.3461236 0.937824 0.02616423
vn 0.3862142 0.9194654 -0.07363423
vn 0.2858543 0.954499 -0.08496381
vn 0.378777 0.8022907 0.461365
vn 0.410031 0.5841496 0.7004597
vn 0.2622333 0.9649436 -0.01084268
vn 0.2449977 0.9655714 -0.08745318
vn 0.08048845 0.9767852 -0.1985254
vn 0.07515574 0.970358 -0.2296889
vn -0.2505541 0.8781589 -0.4075043
vn -0.3741688 0.7228496 -0.5809357
vn -0.2155468 0.8792341 -0.4248376
vn -0.3610729 -0.6684967 -0.6501833
vn -0.3453708 -0.660114 -0.6670595
vn -0.3667714 -0.617676 -0.6956688
vn -0.3515336 -0.6815641 -0.64179
vn -0.3846673 -0.6905723 -0.6124874
vn -0.2633405 -0.76986 -0.5813498
vn 0.2678229 0.463861 -0.8444548
vn 0.07204832 0.5399587 -0.8386022
vn -0.2755722 0.08884348 -0.957166
vn -0.4761168 0.316573 -0.8204232
vn -0.4000424 0.506168 -0.7640419
vn -0.5746884 -0.1896472 -0.7960951
vn -0.4085498 -0.4441051 -0.7974068
vn -0.1740506 -0.5984081 -0.7820576
vn 0.3080415 0.577241 -0.7562429
vn 0.5898947 0.3868961 -0.7087565
vn 0.2678229 0.463861 -0.8444548
vn 0.7683547 -0.157717 -0.6202874
vn 0.8146203 0.4999095 -0.294082
vn 0.8146203 0.4999095 -0.294082
vn 0.8146203 0.4999095 -0.294082
vn 0.5898947 0.3868961 -0.7087565
vn 0.9443186 0.2860257 -0.1626394
vn 0.7683547 -0.157717 -0.6202874
vn 0.9599901 -0.08655104 0.2663229
vn 0.9478357 -0.02747626 0.3175729
vn 0.9425005 -0.0107079 0.3340331
vn 0.9358072 0.009344116 0.3523881
vn 0.8798039 0.4672748 0.08717436
vn 0.7962438 0.6049022 0.009438438
vn 0.8284928 0.5587915 0.03676651
vn 0.9295693 0.3356639 0.1524163
vn -0.4316142 -0.5125248 -0.7423123
vn -0.4571465 -0.7164056 -0.5270485
vn -0.2212717 -0.382872 -0.8969102
vn -0.4663752 -0.7837947 -0.4100733
vn -0.4353197 -0.8532308 -0.2872174
vn -0.4356975 -0.8540099 -0.2843145
vn -0.5857788 -0.7451348 -0.3188061
vn 0.2658633 0.9578062 -0.1091975
vn 0.5637765 0.8117079 0.1525983
vn 0.32625 0.9342989 0.1436894
vn 0.4007744 0.814558 0.4193746
vn 0.6274393 0.6308621 0.4564351
vn 0.4942416 0.741038 0.4545195
vn 0.3096089 0.5279161 0.7908521
vn 0.9310899 -0.317684 0.1792997
vn 0.942099 -0.3135605 -0.1188664
vn 0.8511775 -0.5240834 0.0288696
vn 0.8044691 -0.5520056 0.2193612
vn 0.6789644 -0.4515355 0.578898
vn 0.7042997 -0.3366907 0.624981
vn 0.3200443 -0.03260152 0.9468414
vn 0.2102324 -0.04141077 0.976774
vn 0.1068466 0.08323152 0.9907857
vn -0.04969515 0.06042926 0.9969347
vn 0.1757819 0.04501826 -0.9833993
vn 0.3922296 -0.261898 -0.8817967
vn 0.1900311 0.03559675 -0.9811326
vn 0.4770119 -0.3637062 -0.8001109
vn 0.2387227 -0.5584647 -0.794436
vn -0.2758515 -0.8814825 0.3832683
vn -0.115933 -0.930749 0.3467938
vn -0.132144 -0.8465143 0.5157048
vn 0.03867478 -0.4376652 0.898306
g polySurface23_0
f 3/3/3 2/2/2 1/1/1
f 6/6/6 5/5/5 4/4/4
f 9/9/9 8/8/8 7/7/7
f 12/12/12 11/11/11 10/10/10
f 15/15/15 14/14/14 13/13/13
f 18/18/18 17/17/17 16/16/16
f 21/21/21 20/20/20 19/19/19
f 19/19/19 20/20/20 22/22/22
f 20/20/20 23/23/23 22/22/22
f 22/22/22 23/23/23 24/24/24
f 27/27/27 26/26/26 25/25/25
f 25/25/25 26/26/26 28/28/28
f 25/25/25 28/28/28 29/29/29
f 25/25/25 29/29/29 30/30/30
f 30/30/30 29/29/29 31/31/31
f 31/31/31 32/32/32 30/30/30
f 31/31/31 33/33/33 32/32/32
f 26/26/26 34/34/34 28/28/28
f 26/26/26 35/35/35 34/34/34
f 34/34/34 35/35/35 36/36/36
f 35/35/35 26/26/26 37/37/37
f 35/35/35 37/37/37 38/38/38
f 35/35/35 38/38/38 39/39/39
f 37/37/37 40/40/40 38/38/38
f 41/41/41 40/40/40 37/37/37
f 41/41/41 37/37/37 42/42/42
f 43/43/43 41/41/41 42/42/42
f 41/41/41 43/43/43 44/44/44
f 41/41/41 44/44/44 40/40/40
f 43/43/43 45/45/45 44/44/44
f 43/43/43 46/46/46 45/45/45
f 47/47/47 45/45/45 46/46/46
f 45/45/45 48/48/48 44/44/44
f 49/49/49 44/44/44 48/48/48
f 50/50/50 47/47/47 46/46/46
f 46/46/46 51/51/51 50/50/50
f 52/52/52 50/50/50 51/51/51
f 50/50/50 52/52/52 53/53/53
f 54/54/54 53/53/53 52/52/52
f 40/40/40 44/44/44 55/55/55
f 55/55/55 44/44/44 56/56/56
f 55/55/55 57/57/57 40/40/40
f 58/58/58 40/40/40 57/57/57
f 61/61/61 60/60/60 59/59/59
f 62/62/62 59/59/59 60/60/60
f 62/62/62 63/63/63 59/59/59
f 64/64/64 59/59/59 63/63/63
f 65/65/65 64/64/64 63/63/63
f 68/68/68 67/67/67 66/66/66
f 66/66/66 69/69/69 68/68/68
f 69/69/69 66/66/66 70/70/70
f 66/66/66 71/71/71 70/70/70
f 71/71/71 72/72/72 70/70/70
f 69/69/69 70/70/70 73/73/73
f 70/70/70 74/74/74 73/73/73
f 77/77/77 76/76/76 75/75/75
f 78/78/78 75/75/75 76/76/76
f 78/78/78 76/76/76 79/79/79
f 78/78/78 80/80/80 75/75/75
f 80/80/80 81/81/81 75/75/75
f 81/81/81 82/82/82 75/75/75
f 83/83/83 78/78/78 79/79/79
f 83/83/83 84/84/84 78/78/78
f 85/85/85 83/83/83 79/79/79
f 86/86/86 83/83/83 85/85/85
f 79/79/79 87/87/87 85/85/85
f 87/87/87 88/88/88 85/85/85
f 89/89/89 87/87/87 79/79/79
f 90/90/90 89/89/89 79/79/79
f 92/92/92 85/85/85 91/91/91
f 92/92/92 91/91/91 93/93/93
f 96/96/96 95/95/95 94/94/94
f 96/96/96 97/97/97 95/95/95
f 95/95/95 97/97/97 98/98/98
f 96/96/96 99/99/99 97/97/97
f 100/100/100 99/99/99 96/96/96
f 99/99/99 100/100/100 101/101/101
f 101/101/101 100/100/100 102/102/102
f 102/102/102 103/103/103 101/101/101
f 99/99/99 101/101/101 104/104/104
f 97/97/97 99/99/99 104/104/104
f 97/97/97 104/104/104 105/105/105
f 105/105/105 106/106/106 97/97/97
f 105/105/105 104/104/104 107/107/107
f 107/107/107 104/104/104 108/108/108
f 110/110/110 108/108/108 109/109/109
f 109/109/109 111/111/111 110/110/110
f 114/114/114 113/113/113 112/112/112
f 114/114/114 115/115/115 113/113/113
f 115/115/115 114/114/114 116/116/116
f 116/116/116 117/117/117 115/115/115
f 118/118/118 113/113/113 115/115/115
f 118/118/118 119/119/119 113/113/113
f 120/120/120 118/118/118 115/115/115
f 115/115/115 121/121/121 120/120/120
f 115/115/115 117/117/117 121/121/121
f 117/117/117 122/122/122 121/121/121
f 123/123/123 122/122/122 117/117/117
f 124/124/124 122/122/122 123/123/123
f 123/123/123 125/125/125 124/124/124
f 124/124/124 126/126/126 122/122/122
f 129/129/129 128/128/128 127/127/127
f 127/127/127 128/128/128 130/130/130
f 127/127/127 130/130/130 131/131/131
f 128/128/128 132/132/132 130/130/130
f 135/135/135 134/134/134 133/133/133
f 136/136/136 134/134/134 135/135/135
f 134/134/134 136/136/136 137/137/137
f 136/136/136 135/135/135 138/138/138
f 135/135/135 139/139/139 138/138/138
f 139/139/139 135/135/135 140/140/140
f 142/142/142 134/134/134 141/141/141
f 143/143/143 134/134/134 142/142/142
f 142/142/142 144/144/144 143/143/143
f 147/147/147 146/146/146 145/145/145
f 148/148/148 147/147/147 145/145/145
f 145/145/145 149/149/149 148/148/148
f 149/149/149 150/150/150 148/148/148
f 151/151/151 150/150/150 149/149/149
f 151/151/151 149/149/149 152/152/152
f 151/151/151 152/152/152 153/153/153
f 154/154/154 153/153/153 152/152/152
f 157/157/157 156/156/156 155/155/155
f 158/158/158 157/157/157 155/155/155
f 161/161/161 160/160/160 159/159/159
f 160/160/160 162/162/162 159/159/159
f 160/160/160 163/163/163 162/162/162
f 162/162/162 163/163/163 164/164/164
f 165/165/165 163/163/163 160/160/160
f 168/168/168 167/167/167 166/166/166
f 169/169/169 167/167/167 168/168/168
f 167/167/167 169/169/169 170/170/170
f 171/171/171 170/170/170 169/169/169
f 171/171/171 169/169/169 172/172/172
f 173/173/173 167/167/167 170/170/170
f 167/167/167 173/173/173 174/174/174
f 174/174/174 173/173/173 175/175/175
f 173/173/173 176/176/176 175/175/175
f 177/177/177 176/176/176 173/173/173
f 178/178/178 173/173/173 170/170/170
f 178/178/178 177/177/177 173/173/173
f 178/178/178 170/170/170 179/179/179
f 180/180/180 177/177/177 178/178/178
f 180/180/180 178/178/178 179/179/179
f 181/181/181 180/180/180 179/179/179
f 181/181/181 182/182/182 180/180/180
f 185/185/185 184/184/184 183/183/183
f 185/185/185 186/186/186 184/184/184
f 186/186/186 187/187/187 184/184/184
f 190/190/190 189/189/189 188/188/188
f 191/191/191 190/190/190 188/188/188
