g polySurface162
v -0.06552172 0.7094154 -0.4202094
v 0.2227864 0.6927996 -0.4274988
v 0.2506356 0.8225259 -0.3289428
v -0.1588168 0.7373983 0.1329813
v -0.05826616 0.6913859 0.4247885
v -0.08195448 0.5787128 0.4263649
v 0.2192388 0.7711335 0.4280391
v -0.08195448 0.5787128 0.4263649
v -0.05826616 0.6913859 0.4247885
v -0.1651731 0.6777546 0.3681178
v -0.3009143 0.5405579 0.4294181
v -0.3772464 0.6500812 0.2852445
v -0.1588168 0.7373983 0.1329813
v -0.3367486 0.7027519 -0.08163881
v -0.0409646 0.764118 -0.3416195
v -0.3071942 0.6436318 -0.3898649
v -0.4070115 0.6593406 -0.1395497
v -0.4109998 0.5772946 0.2312465
v -0.3772464 0.6500812 0.2852445
v -0.06552172 0.7094154 -0.4202094
v 0.2506356 0.8225259 -0.3289428
v 0.3115335 0.8364379 0.1806602
v 0.4099059 0.7774336 -0.2356787
v -0.05826616 0.6913859 0.4247885
v 0.2192388 0.7711335 0.4280391
v 0.4089665 0.7760111 0.1756392
v 0.2192388 0.7711335 0.4280391
v -0.1588168 0.7373983 0.1329813
v -0.08195448 0.5787128 0.4263649
v -0.1651731 0.6777546 0.3681178
v -0.3009143 0.5405579 0.4294181
v -0.4109998 0.5772946 0.2312465
v -0.3772464 0.6500812 0.2852445
v -0.4109998 0.5772946 0.2312465
v -0.3009143 0.5405579 0.4294181
v -0.4085336 -0.386052 0.289186
v -0.2815289 -0.2737039 0.4295616
v -0.3314147 -0.5714613 0.4107275
v -0.3713984 -0.7745432 0.2968774
v 0.1224532 -0.7401942 -0.4275703
v -0.1066165 -0.7289463 -0.4295616
v 0.2914319 -0.8356102 -0.2654395
v -0.2152696 -0.8347811 -0.2487297
v -0.2474694 -0.8364379 0.3408689
v 0.1014466 -0.7617022 0.426331
v 0.2020583 -0.8359307 0.3190575
v -0.1241755 -0.7235781 0.4290509
v -0.3713984 -0.7745432 0.2968774
v -0.3314147 -0.5714613 0.4107275
v -0.2815289 -0.2737039 0.4295616
v -0.3009143 0.5405579 0.4294181
v -0.08195448 0.5787128 0.4263649
v 0.3061051 -0.4535746 0.4294014
v 0.1014466 -0.7617022 0.426331
v 0.2192388 0.7711335 0.4280391
v 0.3478856 0.5131423 0.381743
v 0.4089665 0.7760111 0.1756392
v 0.411654 0.08743358 0.2597957
v 0.4099059 0.7774336 -0.2356787
v 0.3061051 -0.4535746 0.4294014
v 0.4114938 0.6152136 -0.3256907
v 0.4110017 -0.01920471 -0.3660803
v 0.412024 -0.762401 0.2135406
v 0.4112763 -0.7445394 -0.1814117
v 0.3485932 -0.7254146 -0.2919397
v 0.2914319 -0.8356102 -0.2654395
v 0.3556581 -0.8357362 0.2111349
v 0.412024 -0.762401 0.2135406
v 0.1224532 -0.7401942 -0.4275703
v 0.3519979 0.1206494 -0.4280505
v 0.332191 0.5353529 -0.4280405
v 0.4114938 0.6152136 -0.3256907
v 0.2227864 0.6927996 -0.4274988
v 0.2506356 0.8225259 -0.3289428
v 0.4099059 0.7774336 -0.2356787
v 0.3061051 -0.4535746 0.4294014
v 0.412024 -0.762401 0.2135406
v 0.1014466 -0.7617022 0.426331
v 0.2020583 -0.8359307 0.3190575
v 0.3556581 -0.8357362 0.2111349
v -0.2560716 -0.4545694 -0.4005079
v -0.1066165 -0.7289463 -0.4295616
v -0.3071942 0.6436318 -0.3898649
v -0.22679 0.5311799 -0.426549
v -0.06552172 0.7094154 -0.4202094
v 0.2227864 0.6927996 -0.4274988
v 0.3519979 0.1206494 -0.4280505
v 0.1224532 -0.7401942 -0.4275703
v 0.332191 0.5353529 -0.4280405
v -0.2560716 -0.4545694 -0.4005079
v -0.2152696 -0.8347811 -0.2487297
v -0.1066165 -0.7289463 -0.4295616
v -0.4087796 -0.8149042 0.06757355
v -0.4074864 -0.3430374 -0.1914744
v -0.3071942 0.6436318 -0.3898649
v -0.4085336 -0.386052 0.289186
v -0.3713984 -0.7745432 0.2968774
v -0.4109998 0.5772946 0.2312465
v -0.412024 0.5585717 -0.2430911
v -0.4070115 0.6593406 -0.1395497
v -0.4087796 -0.8149042 0.06757355
v -0.3713984 -0.7745432 0.2968774
v -0.2474694 -0.8364379 0.3408689
v -0.2152696 -0.8347811 -0.2487297
v 0.2914319 -0.8356102 -0.2654395
v 0.2020583 -0.8359307 0.3190575
v 0.3556581 -0.8357362 0.2111349
vt 0.05977163 0.6669689
vt 0.06195117 0.6492868
vt 0.05282761 0.6441161
vt 0.4384131 0.9389321
vt 0.4468725 0.9223565
vt 0.4422072 0.9166028
vt 0.4646726 0.9228584
vt 0.4422072 0.9166028
vt 0.4468725 0.9223565
vt 0.4366756 0.9235957
vt 0.427075 0.9164246
vt 0.4243236 0.9284943
vt 0.4384131 0.9389321
vt 0.4251214 0.9502855
vt 0.4419584 0.9685925
vt 0.4237131 0.9697948
vt 0.4197685 0.9533783
vt 0.4184578 0.9291239
vt 0.4243236 0.9284943
vt 0.4389082 0.973901
vt 0.4605055 0.9701325
vt 0.4685722 0.9393281
vt 0.471533 0.9656038
vt 0.4468725 0.9223565
vt 0.4646726 0.9228584
vt 0.4756432 0.939777
vt 0.4646726 0.9228584
vt 0.4384131 0.9389321
vt 0.4422072 0.9166028
vt 0.4366756 0.9235957
vt 0.427075 0.9164246
vt 0.4184578 0.9291239
vt 0.4243236 0.9284943
vt 0.07078422 0.5363305
vt 0.07236171 0.5506909
vt 0.1316053 0.543431
vt 0.1234328 0.5549678
vt 0.1421679 0.5536159
vt 0.1567255 0.549977
vt 0.14826 0.6528105
vt 0.1484438 0.6670466
vt 0.1579101 0.6390516
vt 0.1586579 0.6775664
vt 0.1598003 0.5588679
vt 0.15227 0.5813305
vt 0.1580205 0.5904579
vt 0.1510019 0.566636
vt 0.1567255 0.549977
vt 0.1421679 0.5536159
vt 0.1234328 0.5549678
vt 0.07236171 0.5506909
vt 0.06929116 0.5643789
vt 0.1326493 0.5905141
vt 0.15227 0.5813305
vt 0.05697437 0.5834163
vt 0.0728789 0.5920575
vt 0.05606058 0.6046927
vt 0.09911492 0.6010081
vt 0.05572556 0.6315256
vt 0.1326493 0.5905141
vt 0.06641499 0.6356766
vt 0.1053381 0.6376575
vt 0.1526653 0.604754
vt 0.1507166 0.6297992
vt 0.1497224 0.6374822
vt 0.1579101 0.6390516
vt 0.1579676 0.6032587
vt 0.1526653 0.604754
vt 0.14826 0.6528105
vt 0.09674139 0.6428735
vt 0.07180904 0.6431679
vt 0.06641499 0.6356766
vt 0.06195117 0.6492868
vt 0.05282761 0.6441161
vt 0.05572556 0.6315256
vt 0.1326493 0.5905141
vt 0.1526653 0.604754
vt 0.15227 0.5813305
vt 0.1580205 0.5904579
vt 0.1579676 0.6032587
vt 0.1320873 0.6767876
vt 0.1484438 0.6670466
vt 0.06408627 0.6828877
vt 0.07089548 0.6771778
vt 0.05977163 0.6669689
vt 0.06195117 0.6492868
vt 0.09674139 0.6428735
vt 0.14826 0.6528105
vt 0.07180904 0.6431679
vt 0.1320873 0.6767876
vt 0.1586579 0.6775664
vt 0.1484438 0.6670466
vt 0.158398 0.7028563
vt 0.1264296 0.6929201
vt 0.06408627 0.6828877
vt 0.1329493 0.7218856
vt 0.1574474 0.7179808
vt 0.07092905 0.7234091
vt 0.07019548 0.6937563
vt 0.06410975 0.7003496
vt 0.6854545 0.9520972
vt 0.6774207 0.9536524
vt 0.6765507 0.9586204
vt 0.6970234 0.9577719
vt 0.6992856 0.9752185
vt 0.6787992 0.974075
vt 0.6830376 0.9790218
vn -0.1757544 0.7881055 -0.5899153
vn 0.01458 0.6028956 -0.7976869
vn -0.1022716 0.9893969 -0.103122
vn -0.9167874 0.1976034 0.3470644
vn -0.9167874 0.1976034 0.3470644
vn -0.9167874 0.1976034 0.3470644
vn 0.1803064 0.05519536 0.9820607
vn -0.001339625 0.01216359 0.9999251
vn -0.01674544 0.01750667 0.9997064
vn -0.2243054 0.7969587 0.5608422
vn -0.02128316 0.07569424 0.9969038
vn -0.2970608 0.9086607 0.293412
vn -0.225371 0.9706477 0.08397039
vn -0.3431472 0.9392376 -0.009101694
vn -0.2306445 0.9659905 -0.1168998
vn -0.3684312 0.9021921 -0.2242944
vn -0.4955299 0.8672156 -0.04885938
vn -0.8697315 0.4934512 -0.008537151
vn -0.8963242 0.4419767 -0.03548725
vn -0.1757544 0.7881055 -0.5899153
vn -0.1022716 0.9893969 -0.103122
vn -0.05743477 0.9950312 0.08132706
vn 0.3241579 0.9442703 -0.05723142
vn -0.23251 0.9492502 0.2118092
vn -0.2747462 0.9500138 0.148284
vn 0.5277907 0.8412721 0.1170399
vn 0.4996542 0.773197 0.3905281
vn 0.6913577 0.6956586 0.1951502
vn 0.6913577 0.6956586 0.1951502
vn 0.6913577 0.6956587 0.1951502
vn -0.8619353 0.02373649 0.5064624
vn -0.9879627 0.006443467 0.1545586
vn -0.8703676 0.03949663 0.4908157
vn -0.9879627 0.006443467 0.1545586
vn -0.8619353 0.02373649 0.5064624
vn -0.9884167 -0.001690002 0.1517546
vn -0.7398184 -0.004303989 0.6727929
vn -0.8627757 -0.02793801 0.5048144
vn -0.9711236 -0.08844186 0.2215788
vn -0.03899089 -0.8784081 -0.4763181
vn -0.02032247 -0.8601114 -0.5097013
vn -0.00376752 -0.9973489 -0.07266995
vn -0.01394592 -0.9956887 -0.09170363
vn -0.2620647 -0.4540032 0.8515887
vn 0.01473715 -0.7817253 0.6234487
vn 0.02940899 -0.8088546 0.5872728
vn -0.04251615 -0.08187742 0.995735
vn -0.3800835 -0.3628193 0.8508223
vn -0.2061742 -0.1647033 0.9645544
vn -0.007648899 -0.003808835 0.9999635
vn -0.02128316 0.07569424 0.9969038
vn -0.001339625 0.01216359 0.9999251
vn 0.004058434 0.001887591 0.99999
vn 0.009325712 -0.01615525 0.999826
vn 0.1803064 0.05519536 0.9820607
vn 0.7064945 0.06311674 0.7048983
vn 0.9922644 0.0441366 0.1160311
vn 0.9893135 -0.002167676 0.1457875
vn 0.9999806 0.005101423 0.003575877
vn 0.8812039 -0.02390632 0.4721314
vn 0.9999955 0.002364572 0.00185988
vn 0.9815529 -0.02919121 -0.1889493
vn 0.9972149 -0.003835856 0.07448229
vn 0.9811876 -0.1648146 -0.1005328
vn 0.643375 -0.1763455 -0.7449637
vn 0.6356479 -0.6584519 -0.40298
vn 0.7468874 -0.6631977 -0.04824977
vn 0.7929867 -0.6085473 -0.02902213
vn 0.5167091 -0.1544679 -0.8421113
vn 0.668934 -0.04650414 -0.7418656
vn 0.7404596 0.1130386 -0.6625268
vn 0.6768841 0.2347513 -0.6976531
vn 0.5580855 0.4130246 -0.7196884
vn 0.5528343 0.4176463 -0.7210726
vn 0.5445054 0.4110262 -0.731144
vn 0.5272266 -0.3578674 0.77069
vn 0.5262979 -0.3654554 0.7677583
vn 0.5264375 -0.3614635 0.7695503
vn 0.519226 -0.3953411 0.7577003
vn 0.5208589 -0.4246331 0.7405354
vn -0.1896096 0.0006897034 -0.9818593
vn -0.01672524 0.0001270676 -0.9998602
vn -0.3208698 0.05233572 -0.9456763
vn -0.110234 0.0008501133 -0.9939054
vn -0.04325709 0.07457533 -0.9962767
vn -0.003366149 0.00315143 -0.9999894
vn -0.0008597735 0.001847866 -0.999998
vn 0.008553376 -0.002838489 -0.9999595
vn -0.005281572 -0.0002280005 -0.9999861
vn -0.8257974 -0.1530194 -0.542811
vn -0.8065808 -0.2917797 -0.5140932
vn -0.7151749 -0.3239763 -0.6193255
vn -0.9793833 -0.1243458 -0.1592057
vn -0.967479 -0.04852133 -0.2482539
vn -0.8160614 -0.006344674 -0.5779303
vn -0.9884167 -0.001690002 0.1517546
vn -0.9711236 -0.08844186 0.2215788
vn -0.9879627 0.006443467 0.1545586
vn -0.9785137 0.006424858 -0.2060816
vn -0.9904205 0.1198087 -0.06865269
vn -0.1414889 -0.9899244 0.005513769
vn -0.4986959 -0.8361244 0.2284694
vn -0.03991769 -0.9991633 0.008911962
vn -0.01394592 -0.9956887 -0.09170363
vn -0.00376752 -0.9973489 -0.07266995
vn 0.00109488 -0.9999994 -0.0003810066
vn 0.0009873473 -0.9999994 -0.0003974795
g polySurface162_0
f 3/3/3 2/2/2 1/1/1
f 6/6/6 5/5/5 4/4/4
f 9/9/9 8/8/8 7/7/7
f 11/11/11 8/8/8 10/10/10
f 11/11/11 10/10/10 12/12/12
f 12/12/12 10/10/10 13/13/13
f 12/12/12 13/13/13 14/14/14
f 14/14/14 13/13/13 15/15/15
f 14/14/14 15/15/15 16/16/16
f 14/14/14 16/16/16 17/17/17
f 17/17/17 18/18/18 14/14/14
f 18/18/18 19/19/19 14/14/14
f 15/15/15 20/20/20 16/16/16
f 15/15/15 21/21/21 20/20/20
f 13/13/13 21/21/21 15/15/15
f 13/13/13 22/22/22 21/21/21
f 21/21/21 22/22/22 23/23/23
f 24/24/24 22/22/22 13/13/13
f 22/22/22 24/24/24 25/25/25
f 26/26/26 23/23/23 22/22/22
f 27/27/27 26/26/26 22/22/22
f 30/30/30 29/29/29 28/28/28
f 33/33/33 32/32/32 31/31/31
f 36/36/36 35/35/35 34/34/34
f 36/36/36 37/37/37 35/35/35
f 37/37/37 36/36/36 38/38/38
f 39/39/39 38/38/38 36/36/36
f 42/42/42 41/41/41 40/40/40
f 42/42/42 43/43/43 41/41/41
f 46/46/46 45/45/45 44/44/44
f 45/45/45 47/47/47 44/44/44
f 48/48/48 44/44/44 47/47/47
f 48/48/48 47/47/47 49/49/49
f 50/50/50 49/49/49 47/47/47
f 50/50/50 47/47/47 51/51/51
f 51/51/51 47/47/47 52/52/52
f 52/52/52 47/47/47 53/53/53
f 47/47/47 54/54/54 53/53/53
f 52/52/52 53/53/53 55/55/55
f 55/55/55 53/53/53 56/56/56
f 57/57/57 55/55/55 56/56/56
f 57/57/57 56/56/56 58/58/58
f 59/59/59 57/57/57 58/58/58
f 56/56/56 60/60/60 58/58/58
f 59/59/59 58/58/58 61/61/61
f 62/62/62 61/61/61 58/58/58
f 63/63/63 58/58/58 60/60/60
f 62/62/62 58/58/58 63/63/63
f 63/63/63 64/64/64 62/62/62
f 65/65/65 62/62/62 64/64/64
f 64/64/64 66/66/66 65/65/65
f 64/64/64 67/67/67 66/66/66
f 68/68/68 67/67/67 64/64/64
f 65/65/65 66/66/66 69/69/69
f 62/62/62 65/65/65 69/69/69
f 70/70/70 62/62/62 69/69/69
f 62/62/62 70/70/70 71/71/71
f 72/72/72 62/62/62 71/71/71
f 72/72/72 71/71/71 73/73/73
f 72/72/72 73/73/73 74/74/74
f 74/74/74 75/75/75 72/72/72
f 78/78/78 77/77/77 76/76/76
f 78/78/78 79/79/79 77/77/77
f 77/77/77 79/79/79 80/80/80
f 83/83/83 82/82/82 81/81/81
f 84/84/84 82/82/82 83/83/83
f 85/85/85 84/84/84 83/83/83
f 85/85/85 86/86/86 84/84/84
f 84/84/84 87/87/87 82/82/82
f 84/84/84 86/86/86 87/87/87
f 87/87/87 88/88/88 82/82/82
f 89/89/89 87/87/87 86/86/86
f 92/92/92 91/91/91 90/90/90
f 91/91/91 93/93/93 90/90/90
f 94/94/94 90/90/90 93/93/93
f 95/95/95 90/90/90 94/94/94
f 96/96/96 94/94/94 93/93/93
f 93/93/93 97/97/97 96/96/96
f 96/96/96 98/98/98 94/94/94
f 95/95/95 94/94/94 99/99/99
f 99/99/99 94/94/94 98/98/98
f 95/95/95 99/99/99 100/100/100
f 100/100/100 99/99/99 98/98/98
f 103/103/103 102/102/102 101/101/101
f 103/103/103 101/101/101 104/104/104
f 105/105/105 103/103/103 104/104/104
f 105/105/105 106/106/106 103/103/103
f 105/105/105 107/107/107 106/106/106
