g popper01
v 0.2290371 1.372198 0.1664039
v 0.004041342 0.7389233 -0.04691155
v 0.05059041 0.8062646 -0.1235229
v 0.08747823 1.372198 0.2692408
v -0.09222911 0.7149499 0.006040115
v 0.08747823 1.372198 0.2692408
v 0.004041342 0.7389233 -0.04691155
v 0.2290371 1.372198 0.1664039
v -0.05103983 0.9611813 -0.2324364
v -0.1400782 0.7387772 -0.49687
v -0.1603593 0.9895443 -0.222976
v -0.08747783 1.372198 -0.2692406
v -0.2565873 0.9655381 -0.1698363
v -0.1400782 0.7387772 -0.49687
v -0.2290366 1.372198 -0.1664037
v -0.1703721 1.662217 -0.524353
v -0.3029878 0.8983439 -0.09340812
v -0.2819071 0.8135489 -0.02279045
v -0.4460398 1.662217 -0.3240697
v -0.2228099 1.800242 -0.6857396
v -0.2831248 1.372198 7.65852E-08
v -0.5833238 1.881908 -0.423811
v -0.266638 1.797658 -0.8206322
v -0.6980698 1.879324 -0.5071801
v -0.5513353 1.662217 7.65852E-08
v -0.7210288 1.800242 7.65852E-08
v -0.8628611 1.797658 7.65852E-08
v -0.2290366 1.372198 0.1664039
v -0.2014265 0.7434843 0.01519539
v -0.08747783 1.372198 0.2692408
v -0.4460398 1.662217 0.3240699
v -0.5833238 1.800242 0.4238111
v -0.6980698 1.797658 0.5071802
v -0.1703721 1.662217 0.5243531
v -0.2228099 1.970441 0.6857374
v -0.266638 1.967857 0.8206275
v 0.2228103 1.970441 0.6857374
v 0.2666384 1.967857 0.8206275
v 0.1703731 1.662217 0.5243531
v 0.08747823 1.372198 0.2692408
v -0.09222911 0.7149499 0.006040115
v -0.2014265 0.7434843 0.01519539
v 0.2290371 1.372198 0.1664039
v 0.5833241 1.885384 0.4238111
v 0.6980697 1.8828 0.5071754
v 0.4460396 1.662217 0.3240699
v 0.7210286 1.846739 7.65852E-08
v 0.8628622 1.844155 7.65852E-08
v 0.2831252 1.372198 7.65852E-08
v 0.05059041 0.8062646 -0.1235229
v 0.5513356 1.662217 7.65852E-08
v 0.5833241 1.921798 -0.423811
v 0.6980697 1.919214 -0.5071801
v 0.4460396 1.662217 -0.3240697
v 0.2290371 1.372198 -0.1664037
v 0.02955922 0.8911864 -0.1944482
v 0.2228103 1.896728 -0.6857396
v 0.2666384 1.894144 -0.8206322
v 0.1703731 1.662217 -0.524353
v -0.2228099 1.800242 -0.6857396
v -0.266638 1.797658 -0.8206322
v -0.1703721 1.662217 -0.524353
v -0.08747783 1.372198 -0.2692406
v 0.08747823 1.372198 -0.2692406
v -0.1603593 0.9895443 -0.222976
v -0.05103983 0.9611813 -0.2324364
v -0.1400782 0.7387772 -0.49687
v 0.004041342 0.7389233 -0.04691155
v -0.09222911 0.7149499 0.006040115
v -0.3219676 1.180374 -0.990913
v -0.4815547 -1.045521 -1.482073
v 0.481555 -1.045521 -1.482075
v 0.3397475 1.180374 -1.048843
v -0.2941831 1.679789 -0.9054027
v 1.260727 -1.045521 -0.9159667
v 0.2941836 1.679789 -0.9054027
v -0.266638 1.797658 -0.8206322
v 0.2666384 1.894144 -0.8206322
v 0.8953627 1.180374 -0.6772826
v 1.558344 -1.045521 7.65852E-08
v 0.7701827 1.679789 -0.5595678
v 0.6980697 1.919214 -0.5071801
v 1.041909 1.180374 7.65852E-08
v 1.260727 -1.045521 0.9159742
v 0.9519985 1.679789 7.65852E-08
v 0.8628622 1.844155 7.65852E-08
v 0.9111403 1.180374 0.6599976
v 0.481555 -1.045521 1.482078
v 0.7701827 1.679789 0.5595704
v 0.6980697 1.8828 0.5071754
v 0.3374465 1.180374 1.072222
v -0.4815531 -1.045521 1.48207
v 0.2941836 1.679789 0.9054029
v 0.2666384 1.967857 0.8206275
v -0.3219676 1.180374 0.9909132
v -1.260726 -1.045521 0.9159742
v -0.2941831 1.679789 0.9054029
v -0.266638 1.967857 0.8206275
v -0.9242625 1.180374 0.6614674
v -1.558344 -1.045521 2.517992E-06
v -0.7701817 1.679789 0.5595704
v -0.6980698 1.797658 0.5071802
v -1.041909 1.180374 7.65852E-08
v -1.260726 -1.045521 -0.9159667
v -0.9519981 1.679789 7.65852E-08
v -0.8628611 1.797658 7.65852E-08
v -0.8429221 1.180374 -0.6124194
v -0.4815547 -1.045521 -1.482073
v -0.3219676 1.180374 -0.990913
v -0.7701817 1.679789 -0.5595678
v -0.6980698 1.879324 -0.5071801
v -0.2941831 1.679789 -0.9054027
v -0.266638 1.797658 -0.8206322
v -0.2014265 0.7434843 0.01519539
v -0.1400782 0.7387772 -0.49687
v -0.09222911 0.7149499 0.006040115
vt 0.8000354 0.7569299
vt 1.472678 0.4996262
vt 1.376299 0.5269874
vt 2.600029 0.7569299
vt 2.02084 0.4898856
vt 2.600029 0.7569299
vt 1.472678 0.4996262
vt 2.800035 0.7569299
vt -0.4311646 0.5899311
vt -0.4125004 0.4995668
vt -0.3015098 0.6014551
vt -0.3999732 0.7569299
vt -0.1860858 0.5917013
vt -0.4125004 0.4995668
vt -0.1999695 0.7569299
vt -0.3999689 0.8747663
vt -0.09515959 0.5643998
vt -0.02564853 0.529947
vt -0.1999707 0.8747663
vt -0.3999687 0.930847
vt 2.908707E-05 0.7569299
vt -0.1999696 0.9640284
vt -0.399969 0.9741883
vt -0.1999697 1.00737
vt 3.042817E-05 0.8747663
vt 3.0756E-05 0.930847
vt 3.093481E-05 0.9741881
vt 0.2000287 0.7569299
vt 0.02399543 0.5014793
vt 0.4000351 0.7569299
vt 0.2000321 0.8747663
vt 0.2000315 0.930847
vt 0.2000319 0.9741883
vt 0.4000317 0.8747663
vt 0.4000314 1
vt 0.4000316 1.043341
vt 0.6000325 1
vt 0.6000323 1.043341
vt 0.6000326 0.8747663
vt 0.6000292 0.7569299
vt 0.02083969 0.4898856
vt 0.02399543 0.5014793
vt 0.8000354 0.7569299
vt 0.8000323 0.9654409
vt 0.8000332 1.008782
vt 0.8000315 0.8747663
vt 1.000033 0.949739
vt 1.000033 0.9930801
vt 1.000035 0.7569299
vt 1.376299 0.5269874
vt 1.000033 0.8747663
vt 1.200033 0.9802359
vt 1.200033 1.023577
vt 1.200034 0.8747663
vt 1.200033 0.7569299
vt 1.452012 0.5614917
vt 1.400032 0.9700497
vt 1.400033 1.013391
vt 1.400032 0.8747663
vt 1.600031 0.930847
vt 1.600031 0.9741883
vt 1.600031 0.8747663
vt 1.600027 0.7569299
vt 1.400036 0.7569299
vt 1.69849 0.6014551
vt 1.568835 0.5899311
vt 1.5875 0.4995668
vt 1.472678 0.4996262
vt 2.02084 0.4898856
vt 1.600032 0.6789907
vt 1.600032 0
vt 1.400032 0
vt 1.400318 0.6789907
vt 1.600032 0.8819063
vt 1.200032 0
vt 1.400032 0.8819063
vt 1.600031 0.9741883
vt 1.400033 1.013391
vt 1.206172 0.6789904
vt 1.000032 0
vt 1.200032 0.8819063
vt 1.200033 1.023577
vt 1.000033 0.6789904
vt 0.800032 0
vt 1.000033 0.8819063
vt 1.000033 0.9930801
vt 0.8004867 0.6789904
vt 0.6000317 0
vt 0.8000326 0.8819063
vt 0.8000332 1.008782
vt 0.5970858 0.6789904
vt 0.4000318 0
vt 0.6000322 0.8819063
vt 0.6000323 1.043341
vt 0.4000315 0.6789904
vt 0.2000317 0
vt 0.4000316 0.8819063
vt 0.4000316 1.043341
vt 0.1977545 0.6789904
vt 3.182888E-05 0
vt 0.2000313 0.8819063
vt 0.2000319 0.9741883
vt 3.108382E-05 0.6789904
vt -0.1999681 0
vt 3.102422E-05 0.8819063
vt 3.093481E-05 0.9741881
vt -0.1999689 0.6789904
vt -0.3999684 0
vt -0.3999683 0.6789907
vt -0.1999683 0.8819063
vt -0.1999697 1.00737
vt -0.3999684 0.8819063
vt -0.399969 0.9741883
vt 0.02399543 0.5014793
vt -0.4125004 0.4995668
vt 0.02083969 0.4898856
vn -0.6531557 0.5826154 -0.4836806
vn -0.656785 0.5731502 -0.4900328
vn -0.9036283 0.4283174 5.376752E-05
vn -0.2594559 0.5714569 -0.7785368
vn -0.2066353 0.6040961 -0.7696556
vn -0.2594559 0.5714569 -0.7785368
vn -0.656785 0.5731502 -0.4900328
vn -0.6531557 0.5826154 -0.4836806
vn -0.3221035 -0.01629185 0.9465643
vn 0.1586565 0.5246491 0.8364038
vn 0.3288076 -0.1485294 0.9326439
vn 0.2537206 0.495988 0.8304347
vn 0.8290861 -0.129432 0.5439336
vn 0.1586565 0.5246491 0.8364038
vn 0.7063184 0.464776 0.5339453
vn 0.218721 0.6867228 0.6932336
vn 0.998946 0.04187205 -0.01880395
vn 0.792346 0.2985559 -0.5320267
vn 0.5946174 0.6780742 0.4320249
vn 0.1006291 0.9277987 0.3592538
vn 0.8910417 0.4536961 -0.01430159
vn 0.3267624 0.9148029 0.2374069
vn -0.2191703 0.70858 -0.6707301
vn -0.5088208 0.7774546 -0.3696834
vn 0.7028192 0.7104887 0.03536899
vn 0.3347145 0.9385751 0.08392229
vn -0.6355159 0.7720454 0.008099342
vn 0.6836048 0.4873342 -0.5433137
vn 0.3233169 0.5105712 -0.7967328
vn 0.2327216 0.5366945 -0.8110485
vn 0.5431932 0.6869401 -0.4827571
vn 0.1981291 0.9127166 -0.3573417
vn -0.5790162 0.7085149 0.4034188
vn 0.1920418 0.5896738 -0.7844775
vn 0.0176307 0.8237177 -0.5667259
vn -0.2469454 0.6197397 0.7449434
vn -0.1000974 0.8159912 -0.5693319
vn 0.2530339 0.5761211 0.7772119
vn -0.2252209 0.5740095 -0.7872666
vn -0.2594559 0.5714569 -0.7785368
vn -0.2066353 0.6040961 -0.7696556
vn 0.3233169 0.5105712 -0.7967328
vn -0.6531557 0.5826154 -0.4836806
vn -0.322907 0.8641161 -0.38605
vn 0.6303732 0.6307495 0.4525315
vn -0.6024851 0.6258492 -0.4953025
vn -0.4430573 0.8957278 0.03704071
vn 0.7510105 0.6602876 0.001877754
vn -0.8214723 0.5702477 -0.0009395865
vn -0.9036283 0.4283174 5.376752E-05
vn -0.7589236 0.6510218 0.01433996
vn -0.3716168 0.8676323 0.3303255
vn 0.6079091 0.661536 -0.4391089
vn -0.6223308 0.6220265 0.475171
vn -0.6718093 0.5442881 0.5024169
vn -0.7986923 0.2056744 0.5654985
vn -0.2569188 0.8776121 0.4047095
vn 0.2191876 0.6840236 -0.6957504
vn -0.2813768 0.6403067 0.7147267
vn 0.1006291 0.9277987 0.3592538
vn -0.2191703 0.70858 -0.6707301
vn 0.218721 0.6867228 0.6932336
vn 0.2537206 0.495988 0.8304347
vn -0.2585922 0.5201024 0.8140169
vn 0.3288076 -0.1485294 0.9326439
vn -0.3221035 -0.01629185 0.9465643
vn 0.1586565 0.5246491 0.8364038
vn -0.656785 0.5731502 -0.4900328
vn -0.2066353 0.6040961 -0.7696556
vn -0.3205643 0.1959773 -0.9267315
vn -0.3190953 0.1939823 -0.9276578
vn 0.279026 0.1746735 -0.9442636
vn 0.2758237 0.1935061 -0.941529
vn -0.3124276 0.2656741 -0.9120341
vn 0.8078071 0.1744457 -0.5630422
vn 0.2771031 0.3095837 -0.9095997
vn -0.2191703 0.70858 -0.6707301
vn 0.2191876 0.6840236 -0.6957504
vn 0.8015354 0.1942653 -0.5655104
vn 0.9837911 0.1792423 -0.005224694
vn 0.7802658 0.3079362 -0.5443901
vn 0.6079091 0.661536 -0.4391089
vn 0.9814162 0.1918093 -0.005605709
vn 0.8088789 0.1703894 0.5627455
vn 0.9580613 0.2864888 -0.006530159
vn 0.7510105 0.6602876 0.001877754
vn 0.8065282 0.1932132 0.5587317
vn 0.2843588 0.1698949 0.9435442
vn 0.774372 0.3157375 0.5483227
vn 0.6303732 0.6307495 0.4525315
vn 0.2785433 0.1930061 0.9408306
vn -0.3044359 0.1759654 0.9361383
vn 0.275798 0.3008786 0.9129117
vn 0.2530339 0.5761211 0.7772119
vn -0.3035303 0.1909406 0.933494
vn -0.7950081 0.1807655 0.5790387
vn -0.289197 0.27903 0.9157004
vn -0.2469454 0.6197397 0.7449434
vn -0.7941548 0.1965961 0.5750375
vn -0.9817458 0.1882039 -0.0274655
vn -0.7612184 0.3149848 0.5668608
vn -0.5790162 0.7085149 0.4034188
vn -0.9804636 0.1943856 -0.03009014
vn -0.7920564 0.2036938 -0.5754612
vn -0.9579022 0.2854016 -0.03113412
vn -0.6355159 0.7720454 0.008099342
vn -0.7928668 0.1988146 -0.5760514
vn -0.3190953 0.1939823 -0.9276578
vn -0.3205643 0.1959773 -0.9267315
vn -0.7832277 0.2504796 -0.569047
vn -0.5088208 0.7774546 -0.3696834
vn -0.3124276 0.2656741 -0.9120341
vn -0.2191703 0.70858 -0.6707301
vn 0.3233169 0.5105712 -0.7967328
vn 0.1586565 0.5246491 0.8364038
vn -0.2066353 0.6040961 -0.7696556
g popper01_0
f 3/3/3 2/2/2 1/1/1
f 2/2/2 5/5/5 4/4/4
f 8/8/8 7/7/7 6/6/6
f 11/11/11 10/10/10 9/9/9
f 13/13/13 11/11/11 12/12/12
f 13/13/13 14/14/14 11/11/11
f 15/15/15 13/13/13 12/12/12
f 15/15/15 12/12/12 16/16/16
f 17/17/17 14/14/14 13/13/13
f 17/17/17 13/13/13 15/15/15
f 18/18/18 14/14/14 17/17/17
f 19/19/19 15/15/15 16/16/16
f 19/19/19 16/16/16 20/20/20
f 21/21/21 17/17/17 15/15/15
f 18/18/18 17/17/17 21/21/21
f 21/21/21 15/15/15 19/19/19
f 22/22/22 19/19/19 20/20/20
f 22/22/22 20/20/20 23/23/23
f 24/24/24 22/22/22 23/23/23
f 25/25/25 21/21/21 19/19/19
f 25/25/25 19/19/19 22/22/22
f 26/26/26 22/22/22 24/24/24
f 26/26/26 25/25/25 22/22/22
f 27/27/27 26/26/26 24/24/24
f 28/28/28 18/18/18 21/21/21
f 28/28/28 21/21/21 25/25/25
f 29/29/29 18/18/18 28/28/28
f 30/30/30 29/29/29 28/28/28
f 31/31/31 28/28/28 25/25/25
f 31/31/31 25/25/25 26/26/26
f 30/30/30 28/28/28 31/31/31
f 32/32/32 26/26/26 27/27/27
f 32/32/32 31/31/31 26/26/26
f 33/33/33 32/32/32 27/27/27
f 34/34/34 31/31/31 32/32/32
f 34/34/34 30/30/30 31/31/31
f 35/35/35 32/32/32 33/33/33
f 35/35/35 34/34/34 32/32/32
f 36/36/36 35/35/35 33/33/33
f 37/37/37 35/35/35 36/36/36
f 38/38/38 37/37/37 36/36/36
f 39/39/39 34/34/34 35/35/35
f 37/37/37 39/39/39 35/35/35
f 40/40/40 30/30/30 34/34/34
f 39/39/39 40/40/40 34/34/34
f 40/40/40 41/41/41 30/30/30
f 41/41/41 42/42/42 30/30/30
f 43/43/43 40/40/40 39/39/39
f 44/44/44 37/37/37 38/38/38
f 45/45/45 44/44/44 38/38/38
f 46/46/46 39/39/39 37/37/37
f 46/46/46 43/43/43 39/39/39
f 44/44/44 46/46/46 37/37/37
f 47/47/47 44/44/44 45/45/45
f 48/48/48 47/47/47 45/45/45
f 49/49/49 43/43/43 46/46/46
f 49/49/49 50/50/50 43/43/43
f 51/51/51 46/46/46 44/44/44
f 47/47/47 51/51/51 44/44/44
f 51/51/51 49/49/49 46/46/46
f 52/52/52 47/47/47 48/48/48
f 53/53/53 52/52/52 48/48/48
f 54/54/54 51/51/51 47/47/47
f 52/52/52 54/54/54 47/47/47
f 55/55/55 49/49/49 51/51/51
f 54/54/54 55/55/55 51/51/51
f 56/56/56 50/50/50 49/49/49
f 55/55/55 56/56/56 49/49/49
f 57/57/57 52/52/52 53/53/53
f 58/58/58 57/57/57 53/53/53
f 59/59/59 54/54/54 52/52/52
f 57/57/57 59/59/59 52/52/52
f 60/60/60 57/57/57 58/58/58
f 61/61/61 60/60/60 58/58/58
f 60/60/60 62/62/62 57/57/57
f 62/62/62 59/59/59 57/57/57
f 62/62/62 63/63/63 59/59/59
f 59/59/59 64/64/64 54/54/54
f 63/63/63 64/64/64 59/59/59
f 64/64/64 55/55/55 54/54/54
f 63/63/63 65/65/65 64/64/64
f 65/65/65 66/66/66 64/64/64
f 64/64/64 66/66/66 55/55/55
f 66/66/66 56/56/56 55/55/55
f 66/66/66 67/67/67 56/56/56
f 56/56/56 67/67/67 50/50/50
f 50/50/50 67/67/67 68/68/68
f 68/68/68 67/67/67 69/69/69
f 72/72/72 71/71/71 70/70/70
f 73/73/73 72/72/72 70/70/70
f 70/70/70 74/74/74 73/73/73
f 75/75/75 72/72/72 73/73/73
f 74/74/74 76/76/76 73/73/73
f 74/74/74 77/77/77 76/76/76
f 77/77/77 78/78/78 76/76/76
f 79/79/79 75/75/75 73/73/73
f 73/73/73 76/76/76 79/79/79
f 80/80/80 75/75/75 79/79/79
f 76/76/76 78/78/78 81/81/81
f 76/76/76 81/81/81 79/79/79
f 78/78/78 82/82/82 81/81/81
f 83/83/83 80/80/80 79/79/79
f 79/79/79 81/81/81 83/83/83
f 84/84/84 80/80/80 83/83/83
f 81/81/81 82/82/82 85/85/85
f 81/81/81 85/85/85 83/83/83
f 82/82/82 86/86/86 85/85/85
f 87/87/87 84/84/84 83/83/83
f 83/83/83 85/85/85 87/87/87
f 88/88/88 84/84/84 87/87/87
f 85/85/85 86/86/86 89/89/89
f 85/85/85 89/89/89 87/87/87
f 86/86/86 90/90/90 89/89/89
f 91/91/91 88/88/88 87/87/87
f 87/87/87 89/89/89 91/91/91
f 92/92/92 88/88/88 91/91/91
f 89/89/89 90/90/90 93/93/93
f 89/89/89 93/93/93 91/91/91
f 90/90/90 94/94/94 93/93/93
f 95/95/95 92/92/92 91/91/91
f 91/91/91 93/93/93 95/95/95
f 96/96/96 92/92/92 95/95/95
f 93/93/93 94/94/94 97/97/97
f 93/93/93 97/97/97 95/95/95
f 94/94/94 98/98/98 97/97/97
f 99/99/99 96/96/96 95/95/95
f 95/95/95 97/97/97 99/99/99
f 100/100/100 96/96/96 99/99/99
f 97/97/97 98/98/98 101/101/101
f 97/97/97 101/101/101 99/99/99
f 98/98/98 102/102/102 101/101/101
f 103/103/103 100/100/100 99/99/99
f 99/99/99 101/101/101 103/103/103
f 104/104/104 100/100/100 103/103/103
f 101/101/101 102/102/102 105/105/105
f 101/101/101 105/105/105 103/103/103
f 102/102/102 106/106/106 105/105/105
f 107/107/107 104/104/104 103/103/103
f 103/103/103 105/105/105 107/107/107
f 108/108/108 104/104/104 107/107/107
f 109/109/109 108/108/108 107/107/107
f 105/105/105 106/106/106 110/110/110
f 105/105/105 110/110/110 107/107/107
f 107/107/107 110/110/110 109/109/109
f 106/106/106 111/111/111 110/110/110
f 110/110/110 112/112/112 109/109/109
f 110/110/110 111/111/111 112/112/112
f 111/111/111 113/113/113 112/112/112
f 116/116/116 115/115/115 114/114/114
f 114/114/114 115/115/115 18/18/18
