g prop_rubbermat
v -0.8106261 0.08356415 1.805983
v -0.9362723 0.08356415 1.77469
v -1.028252 0.08356415 1.689198
v -1.061918 0.08356415 1.572413
v 0.05664917 0.0542547 0.8401263
v 0.05664917 0.05955844 1.805983
v -1.061918 0.07826041 0.8150191
v 0.8106261 0.08356415 1.805983
v 0.02598768 0.05955844 -0.8117326
v -1.061918 0.08356415 -0.8117326
v -1.061918 0.08356415 -1.572413
v 1.061918 0.08356415 1.572413
v 0.9362723 0.08356415 1.77469
v 1.028252 0.08356415 1.689198
v 1.061918 0.06837237 0.8401263
v 1.061918 0.08356415 -0.8117326
v 1.061918 0.08356415 -1.572413
v 0.8106261 0.08356415 -1.805983
v 1.028252 0.08356415 -1.689198
v 0.9362723 0.08356415 -1.77469
v 0.0259878 0.05955844 -1.805983
v -0.8106261 0.08356415 -1.805983
v -0.9362723 0.08356415 -1.77469
v -1.028252 0.08356415 -1.689198
v -0.8106261 0.08356415 1.805983
v 0.05922081 0.03480254 1.847022
v -0.858834 0.03480254 1.847022
v -0.9844802 0.03480254 1.815729
v 0.05664917 0.05955844 1.805983
v -0.9362723 0.08356415 1.77469
v -1.07646 0.03480254 1.730237
v -1.028252 0.08356415 1.689198
v 0.858834 0.03480254 1.847022
v 0.8106261 0.08356415 1.805983
v 0.9362723 0.08356415 1.77469
v 0.9844801 0.03480254 1.815729
v 1.028252 0.08356415 1.689198
v 1.07646 0.03480254 1.730237
v -1.110126 0.03480254 1.613452
v -1.061918 0.08356415 1.572413
v -1.061918 0.07826041 0.8150191
v -1.110126 0.03480254 0.8590979
v -1.061918 0.08356415 -0.8117326
v -1.110126 0.03480254 -0.8301784
v 1.061918 0.08356415 1.572413
v 1.110126 0.03480254 1.613452
v 1.110126 0.03480254 0.8590979
v 1.061918 0.06837237 0.8401263
v 1.110126 0.03480254 -0.8301784
v 1.061918 0.08356415 -0.8117326
v -1.061918 0.08356415 -1.572413
v -1.110126 0.03480254 -1.613452
v -1.07646 0.03480254 -1.730237
v -1.028252 0.08356415 -1.689198
v -0.9844801 0.03480254 -1.815729
v -0.9362723 0.08356415 -1.77469
v 1.110126 0.03480254 -1.613452
v 1.061918 0.08356415 -1.572413
v 1.028252 0.08356415 -1.689198
v 1.07646 0.03480254 -1.730237
v 0.9362723 0.08356415 -1.77469
v 0.9844802 0.03480254 -1.815729
v -0.858834 0.03480254 -1.847022
v -0.8106261 0.08356415 -1.805983
v 0.0259878 0.05955844 -1.805983
v 0.05922081 0.03480254 -1.847022
v 0.8106261 0.08356415 -1.805983
v 0.858834 0.03480254 -1.847022
vt 0.7101299 0.4487832
vt 0.7090645 0.4530612
vt 0.7061536 0.4561929
vt 0.7021774 0.4573392
vt 0.6772444 0.4192543
vt 0.7101299 0.4192542
vt 0.6763897 0.4573392
vt 0.71013 0.3935829
vt 0.621002 0.4202982
vt 0.6210021 0.4573393
vt 0.5951025 0.4573392
vt 0.7021774 0.3850268
vt 0.7090646 0.3893049
vt 0.7061538 0.3861732
vt 0.6772445 0.3850269
vt 0.6210022 0.3850269
vt 0.5951025 0.3850269
vt 0.5871499 0.3935829
vt 0.5911263 0.3861732
vt 0.5882155 0.3893049
vt 0.5871498 0.4202982
vt 0.5871499 0.4487832
vt 0.5882154 0.4530612
vt 0.5911262 0.4561929
vt 0.7101299 0.4487832
vt 0.7115271 0.4191667
vt 0.7115273 0.4504246
vt 0.7104618 0.4547026
vt 0.7101299 0.4192542
vt 0.7090645 0.4530612
vt 0.7075509 0.4578342
vt 0.7061536 0.4561929
vt 0.7115273 0.3919415
vt 0.71013 0.3935829
vt 0.7090646 0.3893049
vt 0.7104619 0.3876635
vt 0.7061538 0.3861732
vt 0.707551 0.3845318
vt 0.7035747 0.4589806
vt 0.7021774 0.4573392
vt 0.6763897 0.4573392
vt 0.6778904 0.4589806
vt 0.6210021 0.4573393
vt 0.620374 0.4589806
vt 0.7021774 0.3850268
vt 0.7035747 0.3833855
vt 0.6778904 0.3833855
vt 0.6772445 0.3850269
vt 0.6203741 0.3833855
vt 0.6210022 0.3850269
vt 0.5951025 0.4573392
vt 0.5937052 0.4589806
vt 0.5897289 0.4578343
vt 0.5911262 0.4561929
vt 0.586818 0.4547026
vt 0.5882154 0.4530612
vt 0.5937052 0.3833855
vt 0.5951025 0.3850269
vt 0.5911263 0.3861732
vt 0.589729 0.3845318
vt 0.5882155 0.3893049
vt 0.586818 0.3876635
vt 0.5857525 0.4504246
vt 0.5871499 0.4487832
vt 0.5871498 0.4202982
vt 0.5857525 0.4191667
vt 0.5871499 0.3935829
vt 0.5857525 0.3919415
vn 0.0213419 0.9997132 -0.01085434
vn 0 1 0
vn 0 1 0
vn 0.01882399 0.9997643 -0.01082226
vn 0.001977676 0.9999958 0.002106204
vn -2.158563E-07 0.999985 -0.005491136
vn 0.02169996 0.9997639 0.001171033
vn -0.02404216 0.999648 -0.01122052
vn 0.002057228 0.9999897 0.004053777
vn 0.02178313 0.9997597 0.002466961
vn 0.01776706 0.9998254 0.005788751
vn -0.01489928 0.9997072 -0.01906513
vn 0 1 0
vn 0 1 0
vn -0.01784372 0.9998397 0.001516013
vn -0.01952478 0.9997961 0.00516787
vn -0.01837344 0.9998123 0.006160124
vn -0.02190756 0.9997383 0.006587178
vn 0 1 0
vn 0 1 0
vn 0 1 0
vn 0.02069047 0.999765 0.006476433
vn 0 1 0
vn 0 1 0
vn -0.004926655 0.7416205 0.6708016
vn -0.0003648546 0.74175 0.6706764
vn -0.04165189 0.7397732 0.6715659
vn -0.3272321 0.7765996 0.5383421
vn 0.0003523341 0.7417757 0.6706479
vn -0.2805718 0.7651321 0.5795277
vn -0.5128088 0.7899368 0.3361948
vn -0.5289294 0.7880395 0.3150038
vn 0.0458432 0.7389406 0.6722093
vn 0.005609241 0.7408547 0.6716418
vn 0.2805718 0.7651321 0.5795276
vn 0.3272321 0.7765996 0.5383422
vn 0.5289296 0.7880393 0.3150041
vn 0.5128089 0.7899365 0.336195
vn -0.6768031 0.7348966 0.0431809
vn -0.6865998 0.7268804 0.01501406
vn -0.6912706 0.7225959 0.0005260553
vn -0.6917129 0.7221722 -0.0007023281
vn -0.6962144 0.7178334 0.0008615861
vn -0.6991772 0.714948 0.0006919039
vn 0.6499372 0.7599013 0.01148186
vn 0.6459877 0.7622125 0.04161685
vn 0.6504856 0.7595178 -0.001029178
vn 0.6500116 0.7599237 0.0008704305
vn 0.6753941 0.7374541 0.002034901
vn 0.6661012 0.7458571 0.002548263
vn -0.7040363 0.7099711 -0.01654966
vn -0.6919013 0.7206789 -0.0435271
vn -0.5128087 0.7899368 -0.3361949
vn -0.5289294 0.7880395 -0.315004
vn -0.3272321 0.7765996 -0.5383422
vn -0.2805718 0.7651321 -0.5795276
vn 0.6919007 0.7206794 -0.0435271
vn 0.7040355 0.7099718 -0.01654966
vn 0.5289296 0.7880393 -0.3150039
vn 0.512809 0.7899366 -0.3361949
vn 0.2805718 0.7651321 -0.5795277
vn 0.3272321 0.7765996 -0.5383421
vn -0.04223954 0.7410341 -0.6701376
vn -0.005021766 0.7432963 -0.6689436
vn 0.003999072 0.7426217 -0.6696992
vn -0.004194397 0.7408484 -0.6716591
vn 0.005490541 0.7390339 -0.6736459
vn 0.04515165 0.7376025 -0.6737239
g prop_rubbermat_0
f 3/3/3 2/2/2 1/1/1
f 4/4/4 3/3/3 1/1/1
f 5/5/5 4/4/4 1/1/1
f 5/5/5 1/1/1 6/6/6
f 5/5/5 7/7/7 4/4/4
f 5/5/5 6/6/6 8/8/8
f 5/5/5 9/9/9 7/7/7
f 9/9/9 10/10/10 7/7/7
f 10/10/10 9/9/9 11/11/11
f 5/5/5 8/8/8 12/12/12
f 8/8/8 13/13/13 12/12/12
f 13/13/13 14/14/14 12/12/12
f 5/5/5 12/12/12 15/15/15
f 5/5/5 15/15/15 9/9/9
f 15/15/15 16/16/16 9/9/9
f 9/9/9 16/16/16 17/17/17
f 9/9/9 17/17/17 18/18/18
f 17/17/17 19/19/19 18/18/18
f 19/19/19 20/20/20 18/18/18
f 21/21/21 9/9/9 18/18/18
f 9/9/9 21/21/21 22/22/22
f 9/9/9 22/22/22 11/11/11
f 22/22/22 23/23/23 11/11/11
f 23/23/23 24/24/24 11/11/11
f 27/27/27 26/26/26 25/25/25
f 27/27/27 25/25/25 28/28/28
f 26/26/26 29/29/29 25/25/25
f 25/25/25 30/30/30 28/28/28
f 28/28/28 30/30/30 31/31/31
f 30/30/30 32/32/32 31/31/31
f 26/26/26 33/33/33 29/29/29
f 33/33/33 34/34/34 29/29/29
f 35/35/35 34/34/34 33/33/33
f 36/36/36 35/35/35 33/33/33
f 37/37/37 35/35/35 36/36/36
f 38/38/38 37/37/37 36/36/36
f 31/31/31 32/32/32 39/39/39
f 32/32/32 40/40/40 39/39/39
f 39/39/39 40/40/40 41/41/41
f 42/42/42 39/39/39 41/41/41
f 42/42/42 41/41/41 43/43/43
f 44/44/44 42/42/42 43/43/43
f 45/45/45 37/37/37 38/38/38
f 46/46/46 45/45/45 38/38/38
f 46/46/46 47/47/47 45/45/45
f 47/47/47 48/48/48 45/45/45
f 47/47/47 49/49/49 48/48/48
f 49/49/49 50/50/50 48/48/48
f 44/44/44 43/43/43 51/51/51
f 52/52/52 44/44/44 51/51/51
f 52/52/52 51/51/51 53/53/53
f 51/51/51 54/54/54 53/53/53
f 53/53/53 54/54/54 55/55/55
f 54/54/54 56/56/56 55/55/55
f 49/49/49 57/57/57 50/50/50
f 57/57/57 58/58/58 50/50/50
f 59/59/59 58/58/58 57/57/57
f 60/60/60 59/59/59 57/57/57
f 61/61/61 59/59/59 60/60/60
f 62/62/62 61/61/61 60/60/60
f 55/55/55 56/56/56 63/63/63
f 56/56/56 64/64/64 63/63/63
f 63/63/63 64/64/64 65/65/65
f 66/66/66 63/63/63 65/65/65
f 67/67/67 61/61/61 62/62/62
f 66/66/66 65/65/65 67/67/67
f 68/68/68 67/67/67 62/62/62
f 68/68/68 66/66/66 67/67/67
