g puddle_DLC_flower_LOD2
v -0.1113141 1.026864 0.1668242
v -0.01983047 0.9647424 0.01178503
v -0.004027577 0.9323553 0.0007186786
v -0.004027577 0.9323553 0.0007186786
v -0.01983047 0.9647424 0.01178503
v -0.1698634 1.036004 0.09624934
v -0.1698634 1.036004 0.09624934
v -0.1987626 1.025968 0.01331055
v -0.3172189 0.9612487 0.1831465
v -0.1113141 1.026864 0.1668242
v -0.01983047 0.9647424 0.01178503
v 0.2001311 1.026864 0.01298857
v 0.02012134 0.9647424 0.01128101
v -0.002998173 0.9323553 0.001531896
v -0.002998173 0.9323553 0.001531896
v 0.02012134 0.9647424 0.01128101
v 0.168286 1.036004 0.09898138
v 0.168286 1.036004 0.09898138
v 0.1109086 1.025968 0.165478
v 0.3172189 0.9612487 0.1831465
v 0.2001311 1.026864 0.01298857
v 0.02012134 0.9647424 0.01128101
v -0.08881703 1.026864 -0.179813
v -0.0002908111 0.9647424 -0.02306652
v -0.002808608 0.9323553 0.0002338011
v -0.002808608 0.9323553 0.0002338011
v 0.001577451 1.036004 -0.1952306
v 0.001577451 1.036004 -0.1952306
v 0.08785395 1.025968 -0.1787885
v 0 0.9612487 -0.366293
v -0.08881703 1.026864 -0.179813
v -0.0002908111 0.9647424 -0.02306652
v 0.02443721 1.046114 -0.0294311
v -0.005375102 1.04214 -0.04823111
v 0.0006109872 0.9617116 -0.0225036
v -0.01146464 1.231405 -0.07297468
v 0.0006109872 0.9617116 -0.0225036
v -0.02746147 1.043443 -0.02241087
v -0.01146464 1.231405 -0.07297468
v 0.0006109872 0.9617116 -0.0225036
v -0.01113249 0.962244 -0.004546391
v 0.004940115 0.9639229 0.009579433
v 0.002415245 1.047779 0.004847527
v -0.01146464 1.231405 -0.07297468
v 0.0006109872 0.9617116 -0.0225036
v 0.01668359 0.9633905 -0.008377777
v 0.002415245 1.047779 0.004847527
v 0.004940115 0.9639229 0.009579433
v -0.01146464 1.231405 -0.07297468
v 0.004934296 0.9699939 0.004464626
v -0.01540125 1.03997 -0.009807825
v -0.008254614 0.968031 -0.007426739
v 0.007472951 1.045771 0.01371336
v -0.05966656 1.144633 0.03250313
v -0.01540125 1.03997 -0.009807825
v -0.03855231 1.025843 0.009512663
v -0.008254614 0.968031 -0.007426739
v -0.02101758 0.9625311 0.003801346
v -0.03855231 1.025843 0.009512663
v -0.007828651 0.9644939 0.01569295
v -0.01567811 1.031643 0.03303385
v -0.05966656 1.144633 0.03250313
v 0.004934296 0.9699939 0.004464626
v 0.007472951 1.045771 0.01371336
v 0.02295313 1.044843 -0.01228929
v 0.002128759 0.9795611 0.01214504
v 0.01399663 0.9795611 -0.001196861
v 0.0008696229 1.045649 0.01264346
v 0.06538257 1.161827 0.0431571
v 0.0008696229 1.045649 0.01264346
v 0.02203551 1.041621 0.03793335
v 0.002128759 0.9795611 0.01214504
v 0.01363813 0.9795611 0.02579737
v 0.0006924896 1.048065 0.1799222
v 0.08881928 1.0698 0.1798197
v 0.04538059 0.9821211 0.01767349
v 0 1.007245 0.366293
v -0.08785628 1.068903 0.1787955
v -0.04523158 0.9865586 0.01734734
v -0.0002153516 0.9587063 0.02103186
v -0.0008912683 0.9338112 0.004067421
v -0.04523158 0.9865586 0.01734734
v -0.001577509 1.073671 0.1952442
v -0.08785628 1.068903 0.1787955
v 0 1.007245 0.366293
v 0.08881928 1.0698 0.1798197
v 0.0002907515 0.9824216 0.02306652
v -0.0008912683 0.9338112 0.004067421
v 0.04538059 0.9821211 0.01767349
v -0.1554647 1.005116 0.09055734
v -0.1113141 1.026864 0.1668242
v -0.004027577 0.9323553 0.0007186786
v -0.1987626 1.025968 0.01331055
v -0.3172189 0.9612487 0.1831465
v -0.1561634 1.048065 -0.08936149
v -0.2001379 1.0698 -0.01299
v -0.03799582 0.9821211 0.03046417
v -0.3172189 1.007245 -0.1831465
v -0.1109133 1.068903 -0.1654835
v 0.00759244 0.9865584 -0.04784536
v -0.01810658 0.9587062 -0.01070237
v -0.003076792 0.9338112 -0.00280571
v 0.00759244 0.9865584 -0.04784536
v -0.1682978 1.073671 -0.09898829
v -0.1109133 1.068903 -0.1654835
v -0.3172189 1.007245 -0.1831465
v -0.2001379 1.0698 -0.01299
v -0.02012134 0.9824215 -0.01128101
v -0.003076792 0.9338112 -0.00280571
v -0.03799582 0.9821211 0.03046417
v 0.1561573 1.005116 0.08935767
v 0.2001311 1.026864 0.01298857
v -0.002998173 0.9323553 0.001531896
v 0.1109086 1.025968 0.165478
v 0.3172189 0.9612487 0.1831465
v 0.04411887 1.040816 0.01300085
v 0.02295313 1.044843 -0.01228929
v 0.01399663 0.9795611 -0.001196861
v 0.02550581 0.9795611 0.01245546
v 0.06538257 1.161827 0.0431571
v 0.01363813 0.9795611 0.02579737
v 0.02203551 1.041621 0.03793335
v -0.0006926963 1.005116 -0.1799151
v -0.08881703 1.026864 -0.179813
v -0.002808608 0.9323553 0.0002338011
v 0.08785395 1.025968 -0.1787885
v 0 0.9612487 -0.366293
v 0.155471 1.048065 -0.09056079
v 0.1113187 1.0698 -0.1668295
v -0.007384777 0.982121 -0.04813719
v 0.3172189 1.007245 -0.1831465
v 0.1987697 1.068903 -0.01331198
v 0.0376389 0.9865585 0.03049803
v 0.01832187 0.9587062 -0.01032948
v 0.003968 0.9338112 -0.001261711
v 0.0376389 0.9865585 0.03049803
v 0.1698753 1.073671 -0.09625602
v 0.1987697 1.068903 -0.01331198
v 0.3172189 1.007245 -0.1831465
v 0.1113187 1.0698 -0.1668295
v 0.01983047 0.9824216 -0.01178503
v 0.003968 0.9338112 -0.001261711
v -0.007384777 0.982121 -0.04813719
vt 0.5803593 0.8325152
vt 0.6589468 0.6808987
vt 0.6688297 0.6756602
vt 0.6688297 0.6756602
vt 0.6589468 0.6808987
vt 0.6561192 0.8325151
vt 0.6561192 0.8325151
vt 0.7310732 0.8325152
vt 0.6543469 0.9809961
vt 0.5803593 0.8325152
vt 0.6589468 0.6808987
vt 0.6906265 0.5617807
vt 0.7692137 0.410164
vt 0.7790968 0.4049255
vt 0.7790968 0.4049255
vt 0.7692137 0.410164
vt 0.7663863 0.5617806
vt 0.7663863 0.5617806
vt 0.8413403 0.5617807
vt 0.764614 0.7102615
vt 0.6906265 0.5617807
vt 0.7692137 0.410164
vt 0.2193217 0.2755293
vt 0.297909 0.1239127
vt 0.307792 0.1186742
vt 0.307792 0.1186742
vt 0.2950815 0.2755291
vt 0.2950815 0.2755291
vt 0.3700355 0.2755292
vt 0.2933093 0.4240102
vt 0.2193217 0.2755293
vt 0.297909 0.1239127
vt 0.924839 0.8545701
vt 0.87234 0.8545701
vt 0.8720977 0.9674834
vt 0.8751626 0.6503711
vt 0.8720977 0.9674834
vt 0.8199147 0.85457
vt 0.8751626 0.6503711
vt 0.8720977 0.9674834
vt 0.8257738 0.9674833
vt 0.7870981 0.9674834
vt 0.7657352 0.8545701
vt 0.8751626 0.6503711
vt 0.8720977 0.9674834
vt 0.9180052 0.9674833
vt 0.9782802 0.8545701
vt 0.9550663 0.9674834
vt 0.8751626 0.6503711
vt 0.8277685 0.1962079
vt 0.7993446 0.1466593
vt 0.8065996 0.1962079
vt 0.8263381 0.1466593
vt 0.8801198 0.02851188
vt 0.9499467 0.1466593
vt 0.9003817 0.1466593
vt 0.9320623 0.1962079
vt 0.8979238 0.1962079
vt 0.9003817 0.1466593
vt 0.8652471 0.1962078
vt 0.8603659 0.1466591
vt 0.8801198 0.02851188
vt 0.8277685 0.1962079
vt 0.8263381 0.1466593
vt 0.9366887 0.2857336
vt 0.9643685 0.2264504
vt 0.9385713 0.2264504
vt 0.9701384 0.2857336
vt 0.8765877 0.4268397
vt 0.8071721 0.2857336
vt 0.850332 0.2857336
vt 0.8106847 0.2264504
vt 0.8510163 0.2264504
vt 0.182945 0.5674287
vt 0.2559417 0.5674287
vt 0.2199969 0.4333943
vt 0.1807625 0.7038091
vt 0.110371 0.5674287
vt 0.1461853 0.4333946
vt 0.1842494 0.4333947
vt 0.183044 0.4218763
vt 0.4183636 0.4167752
vt 0.3786768 0.5683917
vt 0.4536308 0.5683918
vt 0.3769046 0.7168725
vt 0.302917 0.5683918
vt 0.3815042 0.416775
vt 0.3839051 0.3958211
vt 0.3449169 0.4167752
vt 0.4698928 0.8331912
vt 0.5428894 0.8331912
vt 0.4609513 0.697717
vt 0.3973187 0.8331912
vt 0.4677104 0.9695717
vt 0.09846257 0.839409
vt 0.1714593 0.8394088
vt 0.1355142 0.7053746
vt 0.09628016 0.9757895
vt 0.02588853 0.8394088
vt 0.06170291 0.7053746
vt 0.09976685 0.7053748
vt 0.09856182 0.6938566
vt 0.315722 0.6863942
vt 0.2760353 0.8380105
vt 0.3509892 0.8380105
vt 0.274263 0.9864912
vt 0.2002754 0.8380105
vt 0.2788628 0.686394
vt 0.2812635 0.6654391
vt 0.2422754 0.6863942
vt 0.5654759 0.5616693
vt 0.6384724 0.5616693
vt 0.5565344 0.426195
vt 0.4929019 0.5616693
vt 0.5632937 0.6980495
vt 0.8947325 0.2857336
vt 0.9366887 0.2857336
vt 0.9385713 0.2264504
vt 0.8949407 0.2264504
vt 0.8765877 0.4268397
vt 0.8510163 0.2264504
vt 0.850332 0.2857336
vt 0.09771093 0.3049836
vt 0.1707076 0.3049835
vt 0.08876941 0.1695097
vt 0.02513695 0.3049835
vt 0.0955286 0.4413638
vt 0.4768834 0.2717461
vt 0.54988 0.2717461
vt 0.513935 0.1377116
vt 0.474701 0.4081265
vt 0.4043095 0.2717461
vt 0.4401238 0.1377116
vt 0.4781877 0.1377118
vt 0.4769824 0.1261935
vt 0.70496 0.1338754
vt 0.6652734 0.2854916
vt 0.7402273 0.2854916
vt 0.663501 0.4339724
vt 0.5895135 0.2854916
vt 0.6681009 0.1338751
vt 0.6705016 0.1129203
vt 0.6315135 0.1338754
vn 0.2246564 0.9670693 0.1196086
vn 0.4115712 0.879323 -0.2395831
vn 0.4071489 0.8792722 -0.2472048
vn 0.4071489 0.8792722 -0.2472048
vn 0.4115712 0.879323 -0.2395831
vn 0.02107488 0.9996046 -0.01861595
vn 0.02107488 0.9996046 -0.01861595
vn 0.01569323 0.9617814 -0.2733685
vn -0.3481902 0.9163101 0.1978369
vn 0.2246564 0.9670693 0.1196086
vn 0.4115712 0.879323 -0.2395831
vn -0.01245401 0.9703392 -0.2414262
vn -0.404029 0.8850466 -0.2311991
vn -0.4120417 0.8849459 -0.2170083
vn -0.4120417 0.8849459 -0.2170083
vn -0.404029 0.8850466 -0.2311991
vn -0.02631323 0.9996156 -0.008738316
vn -0.02631323 0.9996156 -0.008738316
vn -0.2380102 0.9652845 0.1075964
vn 0.3454261 0.9163104 0.2026228
vn -0.01245401 0.9703392 -0.2414262
vn -0.404029 0.8850466 -0.2311991
vn -0.2009706 0.9691278 0.1428365
vn 0.001764173 0.8834568 0.4685093
vn -0.01088045 0.8835232 0.4682608
vn -0.01088045 0.8835232 0.4682608
vn 0.005587409 0.9996106 0.02734181
vn 0.005587409 0.9996106 0.02734181
vn 0.2231236 0.9644692 0.1414744
vn 0.002764367 0.9163104 -0.4004593
vn -0.2009706 0.9691278 0.1428365
vn 0.001764173 0.8834568 0.4685093
vn 0.9904912 0.05414183 -0.1264745
vn -0.1255561 -0.2126897 -0.9690195
vn -0.1136796 -0.3374885 -0.9344402
vn 0.05692948 0.954034 0.2942417
vn -0.1136796 -0.3374885 -0.9344402
vn -0.9866608 0.01467416 0.1621267
vn 0.05692948 0.954034 0.2942417
vn -0.1136796 -0.3374885 -0.9344402
vn -0.9648561 -0.1356185 0.2250784
vn 0.1238622 0.06327061 0.9902803
vn 0.1139382 0.2571346 0.9596353
vn 0.05692948 0.954034 0.2942417
vn -0.1136796 -0.3374885 -0.9344402
vn 0.9937808 -0.09491502 -0.05823204
vn 0.1139382 0.2571346 0.9596353
vn 0.1238622 0.06327061 0.9902803
vn 0.05692948 0.954034 0.2942417
vn 0.9992293 -0.03924276 -0.0008072819
vn 0.06545526 0.1855014 -0.9804616
vn 0.0208427 -0.02875621 -0.9993692
vn 0.9536436 0.2984684 0.03847742
vn -0.3856151 0.9061596 0.1737114
vn 0.06545526 0.1855014 -0.9804616
vn -0.9746444 -0.2138232 -0.06593935
vn 0.0208427 -0.02875621 -0.9993692
vn -0.9635612 -0.2668681 -0.01819725
vn -0.9746444 -0.2138232 -0.06593935
vn -0.02515856 -0.2483915 0.9683329
vn 0.03369305 -0.1258749 0.9914738
vn -0.3856151 0.9061596 0.1737114
vn 0.9992293 -0.03924276 -0.0008072819
vn 0.9536436 0.2984684 0.03847742
vn -0.03987644 0.1811245 -0.9826514
vn -0.9994109 -0.01980007 -0.02803229
vn -0.07451858 -0.1595516 -0.9843731
vn -0.9606337 0.2718828 -0.05711978
vn 0.2023195 0.9658732 0.1617272
vn -0.9606337 0.2718828 -0.05711978
vn -0.08140015 -0.08048726 0.9934263
vn -0.9994109 -0.01980007 -0.02803229
vn -0.09728779 -0.1778693 0.9792332
vn -0.004506322 -0.9822561 0.1874907
vn 0.2891145 -0.9361296 0.200185
vn 0.2997572 -0.8497424 0.4336859
vn 0.006058739 -0.9768313 -0.2139253
vn -0.3012614 -0.9341151 0.191496
vn -0.3261082 -0.847648 0.4185049
vn -0.01277357 -0.8793817 0.4759462
vn -0.03006891 -0.5623119 0.8263783
vn 0.07609355 0.8746909 -0.4786705
vn 0.004037669 0.9939573 -0.1096933
vn 0.01764747 0.9719217 -0.2346418
vn -0.003979841 0.9321558 0.3620354
vn -0.001278563 0.9709701 -0.2391976
vn 0.01282399 0.8612605 -0.5080019
vn 0.02012213 0.3635296 -0.9313653
vn -0.04789929 0.8689666 -0.4925472
vn -0.06783265 -0.9966416 0.04587136
vn 0.05793073 -0.9683939 0.2426053
vn -0.3305889 -0.9241942 0.191249
vn -0.1817936 -0.9702318 -0.160004
vn 0.2014502 -0.973388 -0.1092413
vn -0.1601189 -0.9822561 -0.09764726
vn -0.3179236 -0.936129 0.1502899
vn -0.5254622 -0.8497418 0.04275828
vn 0.1822358 -0.9768312 0.1122093
vn -0.01520988 -0.9341146 -0.3566489
vn -0.1993825 -0.8476474 -0.4916711
vn -0.4057962 -0.8793817 -0.2490327
vn -0.7006301 -0.562313 -0.4392285
vn 0.3764951 0.8746908 0.3052334
vn 0.09297815 0.9939574 0.05834226
vn 0.1943833 0.9719214 0.1326045
vn -0.3115425 0.9321556 -0.1844644
vn 0.2077915 0.9709701 0.1184893
vn 0.4335318 0.8612605 0.2651049
vn 0.7965291 0.3635231 0.4831071
vn 0.4505079 0.8689674 0.2047881
vn 0.0725805 -0.9967628 0.03458254
vn 0.1802059 -0.9684685 -0.1720306
vn 0.3217357 -0.9283647 0.1860784
vn -0.0457553 -0.9700564 0.2385311
vn -0.1953299 -0.9733881 -0.1198408
vn 0.9759855 -0.2122864 -0.04885349
vn -0.03987644 0.1811245 -0.9826514
vn -0.07451858 -0.1595516 -0.9843731
vn 0.9577031 -0.2877069 -0.005426471
vn 0.2023195 0.9658732 0.1617272
vn -0.09728779 -0.1778693 0.9792332
vn -0.08140015 -0.08048726 0.9934263
vn -0.004280766 -0.9967315 -0.08067276
vn -0.2389744 -0.967988 -0.07674922
vn -0.002675732 -0.9272129 -0.374525
vn 0.2294881 -0.9705886 -0.07275263
vn -0.006120583 -0.9733882 0.2290809
vn 0.1646245 -0.9822561 -0.08984314
vn 0.02880741 -0.9361292 -0.3504744
vn 0.2257028 -0.8497416 -0.4764424
vn -0.1882944 -0.9768312 0.1017165
vn 0.316471 -0.9341151 0.1651522
vn 0.5254903 -0.8476478 0.07316531
vn 0.4185671 -0.8793818 -0.2269123
vn 0.7306951 -0.5623176 -0.3871479
vn -0.4525868 0.874691 0.1734382
vn -0.09701554 0.9939574 0.05134972
vn -0.2120292 0.9719216 0.1020389
vn 0.3155219 0.9321557 -0.177572
vn -0.2065117 0.9709701 0.1207058
vn -0.4463536 0.8612607 0.242896
vn -0.8166465 0.3635273 0.4482593
vn -0.4026076 0.8689671 0.2877554
g puddle_DLC_flower_LOD2_0
f 3/3/3 2/2/2 1/1/1
f 6/6/6 5/5/5 4/4/4
f 8/8/8 7/7/7 4/4/4
f 7/7/7 8/8/8 9/9/9
f 7/7/7 9/9/9 10/10/10
f 11/11/11 7/7/7 10/10/10
f 14/14/14 13/13/13 12/12/12
f 17/17/17 16/16/16 15/15/15
f 19/19/19 18/18/18 15/15/15
f 18/18/18 19/19/19 20/20/20
f 18/18/18 20/20/20 21/21/21
f 22/22/22 18/18/18 21/21/21
f 25/25/25 24/24/24 23/23/23
f 27/27/27 24/24/24 26/26/26
f 29/29/29 28/28/28 26/26/26
f 28/28/28 29/29/29 30/30/30
f 28/28/28 30/30/30 31/31/31
f 32/32/32 28/28/28 31/31/31
f 35/35/35 34/34/34 33/33/33
f 34/34/34 36/36/36 33/33/33
f 38/38/38 34/34/34 37/37/37
f 38/38/38 39/39/39 34/34/34
f 41/41/41 38/38/38 40/40/40
f 41/41/41 42/42/42 38/38/38
f 42/42/42 43/43/43 38/38/38
f 43/43/43 44/44/44 38/38/38
f 46/46/46 45/45/45 33/33/33
f 46/46/46 33/33/33 47/47/47
f 48/48/48 46/46/46 47/47/47
f 33/33/33 49/49/49 47/47/47
f 52/52/52 51/51/51 50/50/50
f 51/51/51 53/53/53 50/50/50
f 51/51/51 54/54/54 53/53/53
f 56/56/56 54/54/54 55/55/55
f 56/56/56 55/55/55 57/57/57
f 58/58/58 56/56/56 57/57/57
f 58/58/58 60/60/60 59/59/59
f 60/60/60 61/61/61 59/59/59
f 61/61/61 62/62/62 59/59/59
f 60/60/60 63/63/63 61/61/61
f 64/64/64 62/62/62 61/61/61
f 63/63/63 64/64/64 61/61/61
f 67/67/67 66/66/66 65/65/65
f 66/66/66 68/68/68 65/65/65
f 68/68/68 69/69/69 65/65/65
f 71/71/71 69/69/69 70/70/70
f 71/71/71 70/70/70 72/72/72
f 73/73/73 71/71/71 72/72/72
f 76/76/76 75/75/75 74/74/74
f 75/75/75 77/77/77 74/74/74
f 74/74/74 77/77/77 78/78/78
f 74/74/74 78/78/78 79/79/79
f 80/80/80 76/76/76 74/74/74
f 80/80/80 74/74/74 79/79/79
f 80/80/80 81/81/81 76/76/76
f 79/79/79 81/81/81 80/80/80
f 84/84/84 83/83/83 82/82/82
f 83/83/83 84/84/84 85/85/85
f 83/83/83 85/85/85 86/86/86
f 83/83/83 87/87/87 82/82/82
f 87/87/87 83/83/83 86/86/86
f 87/87/87 88/88/88 82/82/82
f 89/89/89 87/87/87 86/86/86
f 88/88/88 87/87/87 89/89/89
f 92/92/92 91/91/91 90/90/90
f 90/90/90 93/93/93 92/92/92
f 91/91/91 94/94/94 90/90/90
f 90/90/90 94/94/94 93/93/93
f 97/97/97 96/96/96 95/95/95
f 96/96/96 98/98/98 95/95/95
f 95/95/95 98/98/98 99/99/99
f 95/95/95 99/99/99 100/100/100
f 101/101/101 97/97/97 95/95/95
f 101/101/101 95/95/95 100/100/100
f 101/101/101 102/102/102 97/97/97
f 100/100/100 102/102/102 101/101/101
f 105/105/105 104/104/104 103/103/103
f 104/104/104 105/105/105 106/106/106
f 104/104/104 106/106/106 107/107/107
f 104/104/104 108/108/108 103/103/103
f 108/108/108 104/104/104 107/107/107
f 108/108/108 109/109/109 103/103/103
f 110/110/110 108/108/108 107/107/107
f 109/109/109 108/108/108 110/110/110
f 113/113/113 112/112/112 111/111/111
f 111/111/111 114/114/114 113/113/113
f 112/112/112 115/115/115 111/111/111
f 111/111/111 115/115/115 114/114/114
f 118/118/118 117/117/117 116/116/116
f 119/119/119 118/118/118 116/116/116
f 117/117/117 120/120/120 116/116/116
f 119/119/119 116/116/116 121/121/121
f 116/116/116 120/120/120 122/122/122
f 116/116/116 122/122/122 121/121/121
f 125/125/125 124/124/124 123/123/123
f 123/123/123 126/126/126 125/125/125
f 124/124/124 127/127/127 123/123/123
f 123/123/123 127/127/127 126/126/126
f 130/130/130 129/129/129 128/128/128
f 129/129/129 131/131/131 128/128/128
f 128/128/128 131/131/131 132/132/132
f 128/128/128 132/132/132 133/133/133
f 134/134/134 130/130/130 128/128/128
f 134/134/134 128/128/128 133/133/133
f 134/134/134 135/135/135 130/130/130
f 133/133/133 135/135/135 134/134/134
f 138/138/138 137/137/137 136/136/136
f 137/137/137 138/138/138 139/139/139
f 137/137/137 139/139/139 140/140/140
f 137/137/137 141/141/141 136/136/136
f 141/141/141 137/137/137 140/140/140
f 141/141/141 142/142/142 136/136/136
f 143/143/143 141/141/141 140/140/140
f 142/142/142 141/141/141 143/143/143
