g Railing_Wooden_Standalone_LOD0
v 0.05455795 1.907349E-08 -0.1070449
v -0.05455795 0 -0.1070449
v -0.05455795 2.863298E-09 0
v 0.05455795 2.193678E-08 0
v 0.04926373 0.447959 -0.1018511
v 0.05455795 0.8999269 0
v 0.05455795 0.8999269 -0.1070449
v 0.04926373 0.447959 -0.005193749
v 0.05455795 2.193678E-08 0
v 0.05455795 1.907349E-08 -0.1070449
v -0.04926373 0.447959 -0.005193749
v -0.05455795 0.8999269 0
v 0.05455795 0.8999269 0
v 0.04926373 0.447959 -0.005193749
v 0.05455795 2.193678E-08 0
v -0.05455795 2.863298E-09 0
v -0.04926373 0.447959 -0.005193749
v -0.05455795 0.8999269 -0.1070449
v -0.05455795 0.8999269 0
v -0.04926372 0.447959 -0.1018511
v -0.05455795 0 -0.1070449
v -0.05455795 2.863298E-09 0
v 0.05455795 0.8999269 -0.1070449
v -0.05455795 0.8999269 -0.1070449
v -0.04926372 0.447959 -0.1018511
v 0.04926373 0.447959 -0.1018511
v -0.05455795 0 -0.1070449
v 0.05455795 1.907349E-08 -0.1070449
v 0.05455795 0.8999269 0
v -0.05455795 0.8999269 0
v -0.05455795 0.8999269 -0.1070449
v 0.05455795 0.8999269 -0.1070449
v -0.05352242 0.8919823 -0.942364
v 0.05352249 0.8919823 -0.942364
v 0.05352249 0.8919823 -0.8332481
v -0.05352242 0.8919823 -0.8332481
v -0.04717178 0.4742751 -0.9358905
v 0.05352249 0.8919823 -0.942364
v -0.05352242 0.8919823 -0.942364
v 0.04717186 0.474275 -0.9358906
v -0.05352242 0 -0.942364
v 0.05352249 0 -0.942364
v 0.05352249 0 -0.8332481
v 0.05352249 0 -0.942364
v -0.05352242 0 -0.942364
v -0.05352242 0 -0.8332481
v -0.05352242 0.8919823 -0.8332481
v 0.05352249 0.8919823 -0.8332481
v 0.04717186 0.474275 -0.8397215
v -0.04717178 0.4742751 -0.8397215
v 0.05352249 0 -0.8332481
v -0.05352242 0 -0.8332481
v -0.04717178 0.4742751 -0.9358905
v -0.05352242 0.8919823 -0.942364
v -0.05352242 0.8919823 -0.8332481
v -0.04717178 0.4742751 -0.8397215
v -0.05352242 0 -0.942364
v -0.05352242 0 -0.8332481
v 0.04717186 0.474275 -0.9358906
v 0.05352249 0 -0.942364
v 0.05352249 0 -0.8332481
v 0.04717186 0.474275 -0.8397215
v 0.05352249 0.8919823 -0.942364
v 0.05352249 0.8919823 -0.8332481
v -0.0466583 0.4685526 -0.1017956
v -0.0466583 0.5755975 -0.1017956
v 0.04704522 0.5755975 -0.1017956
v 0.04704518 0.4685525 -0.1017956
v -0.04568458 0.5227879 -0.8396368
v -0.04568458 0.6171316 -0.8396369
v -0.0466583 0.5755975 -0.1017956
v -0.0466583 0.4685526 -0.1017956
v 0.04449165 0.5227879 -0.8396368
v 0.04704518 0.4685525 -0.1017956
v 0.04704522 0.5755975 -0.1017956
v 0.04683059 0.6171315 -0.8396369
v -0.04568458 0.5227879 -0.8396368
v -0.0466583 0.4685526 -0.1017956
v 0.04704518 0.4685525 -0.1017956
v 0.04449165 0.5227879 -0.8396368
v 0.04683059 0.6171315 -0.8396369
v 0.04704522 0.5755975 -0.1017956
v -0.0466583 0.5755975 -0.1017956
v -0.04568458 0.6171316 -0.8396369
v 0.08028368 0.8996139 0
v -0.08028368 0.8996139 0
v -0.08028368 0.9781857 0
v 0.08028368 0.9781857 0
v 0.08028366 0.8996138 -1.6
v -0.08028366 0.8996138 -1.6
v -0.07249298 0.885123 -0.7999999
v 0.07249305 0.885123 -0.7999999
v -0.08028368 0.8996139 0
v 0.08028368 0.8996139 0
v 0.07249305 0.885123 -0.7999999
v 0.08028366 0.9781857 -1.6
v 0.08028366 0.8996138 -1.6
v 0.07249305 0.9531063 -0.7999999
v 0.08028368 0.8996139 0
v 0.08028368 0.9781857 0
v 0.07249305 0.9531063 -0.7999999
v -0.08028366 0.9781857 -1.6
v 0.08028366 0.9781857 -1.6
v -0.07249298 0.9531063 -0.7999999
v -0.08028368 0.9781857 0
v 0.08028368 0.9781857 0
v -0.07249298 0.885123 -0.7999999
v -0.08028366 0.8996138 -1.6
v -0.08028366 0.9781857 -1.6
v -0.07249298 0.9531063 -0.7999999
v -0.08028368 0.9781857 0
v -0.08028368 0.8996139 0
v 0.08028366 0.9781857 -1.6
v -0.08028366 0.9781857 -1.6
v -0.08028366 0.8996138 -1.6
v 0.08028366 0.8996138 -1.6
v -0.04381912 0.5755973 -1.498916
v -0.04381912 0.4685525 -1.498916
v 0.04435226 0.4685525 -1.498916
v 0.04435226 0.5755973 -1.498916
v 0.04474281 0.5105209 -0.9354889
v 0.04435226 0.4685525 -1.498916
v -0.04381912 0.4685525 -1.498916
v -0.04499519 0.5105209 -0.9354889
v -0.04499527 0.6048645 -0.9362867
v -0.04381912 0.5755973 -1.498916
v 0.04435226 0.5755973 -1.498916
v 0.04474281 0.6048645 -0.9362867
v 0.04474281 0.5105209 -0.9354889
v 0.04474281 0.6048645 -0.9362867
v 0.04435226 0.5755973 -1.498916
v 0.04435226 0.4685525 -1.498916
v -0.04381912 0.5755973 -1.498916
v -0.04499527 0.6048645 -0.9362867
v -0.04499519 0.5105209 -0.9354889
v -0.04381912 0.4685525 -1.498916
v -0.05455795 0 -1.492955
v 0.05455795 0 -1.492955
v 0.05455795 0 -1.6
v -0.05455795 0 -1.6
v -0.04926372 0.447959 -1.498149
v -0.05455795 0.8999269 -1.6
v -0.05455795 0.8999269 -1.492955
v -0.04926373 0.447959 -1.594806
v -0.05455795 0 -1.6
v -0.05455795 0 -1.492955
v 0.04926373 0.447959 -1.594806
v 0.05455795 0.8999269 -1.6
v -0.05455795 0.8999269 -1.6
v -0.04926373 0.447959 -1.594806
v -0.05455795 0 -1.6
v 0.05455795 0 -1.6
v 0.04926373 0.447959 -1.594806
v 0.05455795 0.8999269 -1.492955
v 0.05455795 0.8999269 -1.6
v 0.04926373 0.447959 -1.498149
v 0.05455795 0 -1.492955
v 0.05455795 0 -1.6
v -0.05455795 0.8999269 -1.492955
v 0.05455795 0.8999269 -1.492955
v 0.04926373 0.447959 -1.498149
v -0.04926372 0.447959 -1.498149
v 0.05455795 0 -1.492955
v -0.05455795 0 -1.492955
v -0.05455795 0.8999269 -1.6
v 0.05455795 0.8999269 -1.6
v 0.05455795 0.8999269 -1.492955
v -0.05455795 0.8999269 -1.492955
vt 0.5044575 0.9980203
vt 0.5406923 0.9980204
vt 0.5406924 0.9624733
vt 0.5044575 0.9624732
vt 0.6124743 0.7499442
vt 0.6480215 0.537441
vt 0.6124743 0.537441
vt 0.6480215 0.7499442
vt 0.6480215 0.9624733
vt 0.6124743 0.9624733
vt 0.5406924 0.7499442
vt 0.5406924 0.5374152
vt 0.5044575 0.5374152
vt 0.5044575 0.7499442
vt 0.5044575 0.9624732
vt 0.5406924 0.9624733
vt 0.5406924 0.7499442
vt 0.5762395 0.5374152
vt 0.5406924 0.5374152
vt 0.5762395 0.7499442
vt 0.5762395 0.9624733
vt 0.5406924 0.9624733
vt 0.6124743 0.537441
vt 0.5762395 0.5374152
vt 0.5762395 0.7499442
vt 0.6124743 0.7499442
vt 0.5762395 0.9624733
vt 0.6124743 0.9624733
vt 0.5044575 0.5374152
vt 0.5406924 0.5374152
vt 0.5406924 0.5018681
vt 0.5044576 0.5018681
vt 0.6537877 0.9624732
vt 0.6537876 0.9980203
vt 0.6900224 0.9980204
vt 0.6900225 0.9624733
vt 0.7973515 0.7499442
vt 0.7618045 0.9624733
vt 0.7973515 0.9624733
vt 0.7618044 0.7499442
vt 0.7973515 0.5374152
vt 0.7618044 0.5374152
vt 0.6900225 0.5018681
vt 0.6537877 0.5018681
vt 0.6537877 0.5374152
vt 0.6900225 0.5374152
vt 0.6900225 0.9624733
vt 0.7255696 0.9624733
vt 0.7255696 0.7499442
vt 0.6900225 0.7499442
vt 0.7255696 0.5374152
vt 0.6900225 0.5374152
vt 0.6537877 0.7499442
vt 0.6537877 0.9624732
vt 0.6900225 0.9624733
vt 0.6900225 0.7499442
vt 0.6537877 0.5374152
vt 0.6900225 0.5374152
vt 0.7618044 0.7499442
vt 0.7618044 0.5374152
vt 0.7255696 0.5374152
vt 0.7255696 0.7499442
vt 0.7618045 0.9624733
vt 0.7255696 0.9624733
vt 0.5038075 0.9624732
vt 0.5038074 0.9980203
vt 0.5400422 0.9980204
vt 0.5400423 0.9624733
vt 0.6473714 0.7499442
vt 0.6118242 0.7499442
vt 0.6118243 0.9624733
vt 0.6473714 0.9624733
vt 0.5400423 0.7499442
vt 0.5400423 0.9624733
vt 0.5755894 0.9624733
vt 0.5755894 0.7499442
vt 0.5038075 0.7499442
vt 0.5038075 0.9624732
vt 0.5400423 0.9624733
vt 0.5400423 0.7499442
vt 0.5755894 0.7499442
vt 0.5755894 0.9624733
vt 0.6118243 0.9624733
vt 0.6118242 0.7499442
vt 0.5044575 0.9624732
vt 0.5044575 0.9980203
vt 0.5406923 0.9980204
vt 0.5406924 0.9624733
vt 0.6480215 0.537441
vt 0.6124743 0.537441
vt 0.6124743 0.7499442
vt 0.6480215 0.7499442
vt 0.6124743 0.9624733
vt 0.6480215 0.9624733
vt 0.5044575 0.7499442
vt 0.5406924 0.5374152
vt 0.5044575 0.5374152
vt 0.5406924 0.7499442
vt 0.5044575 0.9624732
vt 0.5406924 0.9624733
vt 0.5406924 0.7499442
vt 0.5762395 0.5374152
vt 0.5406924 0.5374152
vt 0.5762395 0.7499442
vt 0.5762395 0.9624733
vt 0.5406924 0.9624733
vt 0.6124743 0.7499442
vt 0.6124743 0.537441
vt 0.5762395 0.5374152
vt 0.5762395 0.7499442
vt 0.5762395 0.9624733
vt 0.6124743 0.9624733
vt 0.5406924 0.5374152
vt 0.5406924 0.5018681
vt 0.5044576 0.5018681
vt 0.5044575 0.5374152
vt 0.5038075 0.5018681
vt 0.5038075 0.5374152
vt 0.5400423 0.5374152
vt 0.5400423 0.5018681
vt 0.5400423 0.7499442
vt 0.5400423 0.5374152
vt 0.5038075 0.5374152
vt 0.5038075 0.7499442
vt 0.6118242 0.7499442
vt 0.6118242 0.5374152
vt 0.5755894 0.5374152
vt 0.5755894 0.7499442
vt 0.5400423 0.7499442
vt 0.5755894 0.7499442
vt 0.5755894 0.5374152
vt 0.5400423 0.5374152
vt 0.6118242 0.5374152
vt 0.6118242 0.7499442
vt 0.6473714 0.7499442
vt 0.6473714 0.5374152
vt 0.5044575 0.9980203
vt 0.5406923 0.9980204
vt 0.5406924 0.9624733
vt 0.5044575 0.9624732
vt 0.6124743 0.7499442
vt 0.6480215 0.537441
vt 0.6124743 0.537441
vt 0.6480215 0.7499442
vt 0.6480215 0.9624733
vt 0.6124743 0.9624733
vt 0.5406924 0.7499442
vt 0.5406924 0.5374152
vt 0.5044575 0.5374152
vt 0.5044575 0.7499442
vt 0.5044575 0.9624732
vt 0.5406924 0.9624733
vt 0.5406924 0.7499442
vt 0.5762395 0.5374152
vt 0.5406924 0.5374152
vt 0.5762395 0.7499442
vt 0.5762395 0.9624733
vt 0.5406924 0.9624733
vt 0.6124743 0.537441
vt 0.5762395 0.5374152
vt 0.5762395 0.7499442
vt 0.6124743 0.7499442
vt 0.5762395 0.9624733
vt 0.6124743 0.9624733
vt 0.5044575 0.5374152
vt 0.5406924 0.5374152
vt 0.5406924 0.5018681
vt 0.5044576 0.5018681
vn 1.748002E-07 -1 0
vn 1.748002E-07 -1 0
vn 1.748002E-07 -1 0
vn 1.748002E-07 -1 0
vn 1 3.80063E-07 0
vn 0.9999315 -0.0117129 0
vn 0.9999315 -0.0117129 0
vn 1 3.794055E-07 0
vn 0.9999301 0.01181771 0
vn 0.9999301 0.01181771 0
vn 0 3.811816E-07 1
vn 0 -0.01149065 0.999934
vn 0 -0.01149065 0.999934
vn 0 3.811816E-07 1
vn 0 0.01159347 0.9999328
vn 0 0.01159347 0.9999328
vn -1 3.813781E-07 0
vn -0.9999315 -0.01171292 0
vn -0.9999315 -0.01171292 0
vn -1 3.813781E-07 0
vn -0.9999301 0.01181773 0
vn -0.9999301 0.01181773 0
vn 0 -0.01149073 -0.999934
vn 0 -0.01149073 -0.999934
vn 0 3.824715E-07 -1
vn 0 3.818265E-07 -1
vn 0 0.01159356 -0.9999328
vn 0 0.01159356 -0.9999328
vn 0 1 0
vn 0 1 0
vn 0 1 0
vn 0 1 0
vn 0 1 0
vn 0 1 0
vn 0 1 0
vn 0 1 0
vn -2.924757E-07 -8.305244E-06 -1
vn -6.24105E-07 -0.01549575 -0.99988
vn -6.24105E-07 -0.01549575 -0.99988
vn -2.924754E-07 -8.291845E-06 -1
vn 0 0.01364791 -0.9999069
vn 0 0.01364791 -0.9999069
vn 0 -1 0
vn 0 -1 0
vn 0 -1 0
vn 0 -1 0
vn 0 -0.01549557 0.99988
vn 0 -0.01549557 0.99988
vn -1.021138E-07 -8.291176E-06 1
vn -1.021137E-07 -8.305913E-06 1
vn -1.921332E-07 0.01364775 0.9999069
vn -1.921332E-07 0.01364775 0.9999069
vn -1 -8.295344E-06 0
vn -0.9998845 -0.01520178 0
vn -0.9998845 -0.01520178 0
vn -1 -8.295345E-06 0
vn -0.9999104 0.01338899 0
vn -0.9999104 0.01338899 0
vn 1 -8.297312E-06 0
vn 0.9999104 0.013389 0
vn 0.9999104 0.013389 0
vn 1 -8.297312E-06 0
vn 0.9998845 -0.01520179 0
vn 0.9998845 -0.01520179 0
vn 0 -3.563645E-07 1
vn 0 -3.563645E-07 1
vn 0 -3.563645E-07 1
vn 0 -3.563645E-07 1
vn -0.9999992 0 -0.001319687
vn -0.9999992 0 -0.001319687
vn -0.9999992 0 -0.001319687
vn -0.9999992 0 -0.001319687
vn 0.9999291 -0.01161347 -0.002629407
vn 0.9999291 -0.01161347 -0.002629407
vn 0.9999291 -0.01161347 -0.002629407
vn 0.9999291 -0.01161347 -0.002629407
vn 0 -0.9973094 -0.07330757
vn 0 -0.9973094 -0.07330756
vn 0 -0.9973094 -0.07330757
vn 0 -0.9973094 -0.07330757
vn 4.213377E-07 0.9984194 0.05620242
vn 4.213377E-07 0.9984194 0.05620242
vn 4.213377E-07 0.9984194 0.05620243
vn 4.213377E-07 0.9984194 0.05620243
vn 0 0 1
vn 0 0 1
vn 0 0 1
vn 0 0 1
vn 0 -0.999836 -0.01811052
vn 0 -0.999836 -0.01811052
vn 0 -1 0
vn 0 -1 0
vn 0 -0.999836 0.01811052
vn 0 -0.999836 0.01811052
vn 1 0 0
vn 0.9999526 0 0.009737801
vn 0.9999526 0 0.009737802
vn 1 0 0
vn 0.9999526 0 -0.009737822
vn 0.9999526 0 -0.009737822
vn 0 1 0
vn 0 0.999509 0.03133382
vn 0 0.999509 0.03133382
vn 0 1 0
vn 0 0.999509 -0.03133373
vn 0 0.999509 -0.03133373
vn -1 0 0
vn -0.9999526 0 0.00973788
vn -0.9999526 0 0.009737882
vn -1 0 0
vn -0.9999526 0 -0.0097379
vn -0.9999526 0 -0.0097379
vn 0 0 -1
vn 0 0 -1
vn 0 0 -1
vn 0 0 -1
vn 0 0 -1
vn 0 0 -1
vn 0 0 -1
vn 0 0 -1
vn 0 -0.9972372 0.07428198
vn 0 -0.9972372 0.07428198
vn 0 -0.9972372 0.07428198
vn 0 -0.9972372 0.07428198
vn 0 0.9986498 -0.05194845
vn 0 0.9986498 -0.05194845
vn 0 0.9986498 -0.05194845
vn 0 0.9986498 -0.05194845
vn 0.9999998 -2.745059E-06 -0.0006934839
vn 0.9999998 -2.745058E-06 -0.0006934839
vn 0.9999998 -2.745059E-06 -0.000693484
vn 0.9999998 -2.745058E-06 -0.0006934839
vn -0.9999979 -8.637357E-06 -0.002088349
vn -0.9999979 -8.637357E-06 -0.002088349
vn -0.9999979 -8.637356E-06 -0.002088349
vn -0.9999979 -8.637357E-06 -0.002088349
vn 0 -1 0
vn 0 -1 0
vn 0 -1 0
vn 0 -1 0
vn -1 3.807204E-07 0
vn -0.9999315 -0.01171293 0
vn -0.9999315 -0.01171293 0
vn -1 3.807204E-07 0
vn -0.9999301 0.01181772 0
vn -0.9999301 0.01181772 0
vn -1.567802E-06 3.818265E-07 -1
vn -2.081017E-06 -0.01149057 -0.999934
vn -2.081017E-06 -0.01149057 -0.999934
vn -1.567802E-06 3.811815E-07 -1
vn -1.049819E-06 0.01159338 -0.9999328
vn -1.049819E-06 0.01159338 -0.9999328
vn 1 3.826931E-07 0
vn 0.9999315 -0.01171288 0
vn 0.9999315 -0.01171288 0
vn 1 3.840081E-07 0
vn 0.9999301 0.0118177 0
vn 0.9999301 0.0118177 0
vn 1.040509E-06 -0.01149073 0.999934
vn 1.040509E-06 -0.01149073 0.999934
vn 1.567837E-06 3.818265E-07 1
vn 1.567837E-06 3.818265E-07 1
vn 2.099639E-06 0.01159356 0.9999328
vn 2.099639E-06 0.01159356 0.9999328
vn 0 1 0
vn 0 1 0
vn 0 1 0
vn 0 1 0
g Railing_Wooden_Standalone_LOD0_0
f 3/3/3 2/2/2 1/1/1
f 4/4/4 3/3/3 1/1/1
f 7/7/7 6/6/6 5/5/5
f 6/6/6 8/8/8 5/5/5
f 8/8/8 9/9/9 5/5/5
f 9/9/9 10/10/10 5/5/5
f 13/13/13 12/12/12 11/11/11
f 14/14/14 13/13/13 11/11/11
f 14/14/14 11/11/11 15/15/15
f 11/11/11 16/16/16 15/15/15
f 19/19/19 18/18/18 17/17/17
f 18/18/18 20/20/20 17/17/17
f 20/20/20 21/21/21 17/17/17
f 21/21/21 22/22/22 17/17/17
f 25/25/25 24/24/24 23/23/23
f 26/26/26 25/25/25 23/23/23
f 27/27/27 25/25/25 26/26/26
f 28/28/28 27/27/27 26/26/26
f 31/31/31 30/30/30 29/29/29
f 32/32/32 31/31/31 29/29/29
f 35/35/35 34/34/34 33/33/33
f 36/36/36 35/35/35 33/33/33
f 39/39/39 38/38/38 37/37/37
f 38/38/38 40/40/40 37/37/37
f 37/37/37 40/40/40 41/41/41
f 40/40/40 42/42/42 41/41/41
f 45/45/45 44/44/44 43/43/43
f 46/46/46 45/45/45 43/43/43
f 49/49/49 48/48/48 47/47/47
f 50/50/50 49/49/49 47/47/47
f 51/51/51 49/49/49 50/50/50
f 52/52/52 51/51/51 50/50/50
f 55/55/55 54/54/54 53/53/53
f 56/56/56 55/55/55 53/53/53
f 53/53/53 57/57/57 56/56/56
f 57/57/57 58/58/58 56/56/56
f 61/61/61 60/60/60 59/59/59
f 62/62/62 61/61/61 59/59/59
f 59/59/59 63/63/63 62/62/62
f 63/63/63 64/64/64 62/62/62
f 67/67/67 66/66/66 65/65/65
f 68/68/68 67/67/67 65/65/65
f 71/71/71 70/70/70 69/69/69
f 72/72/72 71/71/71 69/69/69
f 75/75/75 74/74/74 73/73/73
f 76/76/76 75/75/75 73/73/73
f 79/79/79 78/78/78 77/77/77
f 80/80/80 79/79/79 77/77/77
f 83/83/83 82/82/82 81/81/81
f 84/84/84 83/83/83 81/81/81
f 87/87/87 86/86/86 85/85/85
f 88/88/88 87/87/87 85/85/85
f 91/91/91 90/90/90 89/89/89
f 92/92/92 91/91/91 89/89/89
f 93/93/93 91/91/91 92/92/92
f 94/94/94 93/93/93 92/92/92
f 97/97/97 96/96/96 95/95/95
f 96/96/96 98/98/98 95/95/95
f 95/95/95 98/98/98 99/99/99
f 98/98/98 100/100/100 99/99/99
f 103/103/103 102/102/102 101/101/101
f 102/102/102 104/104/104 101/101/101
f 101/101/101 104/104/104 105/105/105
f 106/106/106 101/101/101 105/105/105
f 109/109/109 108/108/108 107/107/107
f 110/110/110 109/109/109 107/107/107
f 111/111/111 110/110/110 107/107/107
f 112/112/112 111/111/111 107/107/107
f 115/115/115 114/114/114 113/113/113
f 116/116/116 115/115/115 113/113/113
f 119/119/119 118/118/118 117/117/117
f 120/120/120 119/119/119 117/117/117
f 123/123/123 122/122/122 121/121/121
f 124/124/124 123/123/123 121/121/121
f 127/127/127 126/126/126 125/125/125
f 128/128/128 127/127/127 125/125/125
f 131/131/131 130/130/130 129/129/129
f 132/132/132 131/131/131 129/129/129
f 135/135/135 134/134/134 133/133/133
f 136/136/136 135/135/135 133/133/133
f 139/139/139 138/138/138 137/137/137
f 140/140/140 139/139/139 137/137/137
f 143/143/143 142/142/142 141/141/141
f 142/142/142 144/144/144 141/141/141
f 144/144/144 145/145/145 141/141/141
f 145/145/145 146/146/146 141/141/141
f 149/149/149 148/148/148 147/147/147
f 150/150/150 149/149/149 147/147/147
f 150/150/150 147/147/147 151/151/151
f 147/147/147 152/152/152 151/151/151
f 155/155/155 154/154/154 153/153/153
f 154/154/154 156/156/156 153/153/153
f 156/156/156 157/157/157 153/153/153
f 157/157/157 158/158/158 153/153/153
f 161/161/161 160/160/160 159/159/159
f 162/162/162 161/161/161 159/159/159
f 163/163/163 161/161/161 162/162/162
f 164/164/164 163/163/163 162/162/162
f 167/167/167 166/166/166 165/165/165
f 168/168/168 167/167/167 165/165/165
