g Railing_Stair_Wooden_Right_COL
v 0.01813891 0 -0.1070449
v 0.0742227 0.972717 -0.1070449
v -0.02430476 0.972717 -0.1070449
v -0.08038855 0 -0.1070449
v 0.0742227 0.972717 -0.1070449
v 0.0742227 0.972717 0
v -0.02430476 0.972717 0
v -0.02430476 0.972717 -0.1070449
v 0.0742227 0.972717 0
v 0.01813891 0 2.221376E-18
v -0.08038855 0 -9.844759E-18
v -0.02430476 0.972717 0
v 0.01813891 0 2.221376E-18
v 0.01813891 0 -0.1070449
v -0.08038855 0 -0.1070449
v -0.08038855 0 -9.844759E-18
v -0.08038855 0 -0.1070449
v -0.02430476 0.972717 -0.1070449
v -0.02430476 0.972717 0
v -0.08038855 0 -9.844759E-18
v 0.01813891 0 2.221376E-18
v 0.0742227 0.972717 0
v 0.0742227 0.972717 -0.1070449
v 0.01813891 0 -0.1070449
v -0.01675481 0.5120041 -0.8952115
v 0.08719724 1.511747 -0.8952116
v -0.01133022 1.511747 -0.8952116
v -0.1152823 0.5120041 -0.8952115
v 0.08719724 1.511747 -0.8952116
v 0.08719724 1.511747 -0.7881666
v -0.01133022 1.511747 -0.7881666
v -0.01133022 1.511747 -0.8952116
v 0.08719724 1.511747 -0.7881666
v -0.01675481 0.5120043 -0.7881667
v -0.1152823 0.5120043 -0.7881667
v -0.01133022 1.511747 -0.7881666
v -0.01675481 0.5120043 -0.7881667
v -0.01675481 0.5120041 -0.8952115
v -0.1152823 0.5120041 -0.8952115
v -0.1152823 0.5120043 -0.7881667
v -0.1152823 0.5120041 -0.8952115
v -0.01133022 1.511747 -0.8952116
v -0.01133022 1.511747 -0.7881666
v -0.1152823 0.5120043 -0.7881667
v -0.01675481 0.5120043 -0.7881667
v 0.08719724 1.511747 -0.7881666
v 0.08719724 1.511747 -0.8952116
v -0.01675481 0.5120041 -0.8952115
v 0.08325989 0.8996139 0
v 0.08325989 1.999832 -1.6
v -0.07730743 1.999832 -1.6
v -0.07730743 0.8996139 0
v 0.08325989 1.999832 -1.6
v 0.08325989 2.078403 -1.6
v -0.07730743 2.078403 -1.6
v -0.07730743 1.999832 -1.6
v 0.08325989 2.078403 -1.6
v 0.08325989 0.9781857 0
v -0.07730743 0.9781857 0
v -0.07730743 2.078403 -1.6
v 0.08325989 0.9781857 0
v 0.08325989 0.8996139 0
v -0.07730743 0.8996139 0
v -0.07730743 0.9781857 0
v -0.07730743 0.8996139 0
v -0.07730743 1.999832 -1.6
v -0.07730743 2.078403 -1.6
v -0.07730743 0.9781857 0
v 0.08325989 0.9781857 0
v 0.08325989 2.078403 -1.6
v 0.08325989 1.999832 -1.6
v 0.08325989 0.8996139 0
v 0.05567675 1.033797 -0.8999839
v 0.04156937 1.54904 -1.612426
v -0.05281306 1.54904 -1.612426
v -0.03870567 1.033797 -0.8999839
v 0.04156937 1.54904 -1.612426
v 0.04156937 1.680479 -1.612426
v -0.05281306 1.680479 -1.612426
v -0.05281306 1.54904 -1.612426
v 0.04156937 1.680479 -1.612426
v 0.05567675 1.171646 -0.8999838
v -0.03870567 1.171646 -0.8999838
v -0.05281306 1.680479 -1.612426
v 0.05567675 1.171646 -0.8999838
v 0.05567675 1.033797 -0.8999839
v -0.03870567 1.033797 -0.8999839
v -0.03870567 1.171646 -0.8999838
v -0.03870567 1.033797 -0.8999839
v -0.05281306 1.54904 -1.612426
v -0.05281306 1.680479 -1.612426
v -0.03870567 1.171646 -0.8999838
v 0.05567675 1.171646 -0.8999838
v 0.04156937 1.680479 -1.612426
v 0.04156937 1.54904 -1.612426
v 0.05567675 1.033797 -0.8999839
v 0.04688371 0.4408684 -0.1074973
v 0.04397884 0.9393665 -0.7872319
v -0.05004244 0.9393665 -0.7872319
v -0.04713755 0.4408684 -0.1074973
v 0.04397884 0.9393665 -0.7872319
v 0.04397884 1.069033 -0.787232
v -0.05004244 1.069033 -0.787232
v -0.05004244 0.9393665 -0.7872319
v 0.04397884 1.069033 -0.787232
v 0.04688371 0.5768397 -0.1074973
v -0.04713755 0.5768397 -0.1074973
v -0.05004244 1.069033 -0.787232
v 0.04688371 0.5768397 -0.1074973
v 0.04688371 0.4408684 -0.1074973
v -0.04713755 0.4408684 -0.1074973
v -0.04713755 0.5768397 -0.1074973
v -0.04713755 0.4408684 -0.1074973
v -0.05004244 0.9393665 -0.7872319
v -0.05004244 1.069033 -0.787232
v -0.04713755 0.5768397 -0.1074973
v 0.04688371 0.5768397 -0.1074973
v 0.04397884 1.069033 -0.787232
v 0.04397884 0.9393665 -0.7872319
v 0.04688371 0.4408684 -0.1074973
vt 0.375 0
vt 0.375 0.25
vt 0.625 0.25
vt 0.625 0
vt 0.375 0.25
vt 0.375 0.5
vt 0.625 0.5
vt 0.625 0.25
vt 0.375 0.5
vt 0.375 0.75
vt 0.625 0.75
vt 0.625 0.5
vt 0.375 0.75
vt 0.375 1
vt 0.625 1
vt 0.625 0.75
vt 0.625 0
vt 0.625 0.25
vt 0.875 0.25
vt 0.875 0
vt 0.125 0
vt 0.125 0.25
vt 0.375 0.25
vt 0.375 0
vt 0.375 0
vt 0.375 0.25
vt 0.625 0.25
vt 0.625 0
vt 0.375 0.25
vt 0.375 0.5
vt 0.625 0.5
vt 0.625 0.25
vt 0.375 0.5
vt 0.375 0.75
vt 0.625 0.75
vt 0.625 0.5
vt 0.375 0.75
vt 0.375 1
vt 0.625 1
vt 0.625 0.75
vt 0.625 0
vt 0.625 0.25
vt 0.875 0.25
vt 0.875 0
vt 0.125 0
vt 0.125 0.25
vt 0.375 0.25
vt 0.375 0
vt 0.375 0
vt 0.375 0.25
vt 0.625 0.25
vt 0.625 0
vt 0.375 0.25
vt 0.375 0.5
vt 0.625 0.5
vt 0.625 0.25
vt 0.375 0.5
vt 0.375 0.75
vt 0.625 0.75
vt 0.625 0.5
vt 0.375 0.75
vt 0.375 1
vt 0.625 1
vt 0.625 0.75
vt 0.625 0
vt 0.625 0.25
vt 0.875 0.25
vt 0.875 0
vt 0.125 0
vt 0.125 0.25
vt 0.375 0.25
vt 0.375 0
vt 0.375 0
vt 0.375 0.25
vt 0.625 0.25
vt 0.625 0
vt 0.375 0.25
vt 0.375 0.5
vt 0.625 0.5
vt 0.625 0.25
vt 0.375 0.5
vt 0.375 0.75
vt 0.625 0.75
vt 0.625 0.5
vt 0.375 0.75
vt 0.375 1
vt 0.625 1
vt 0.625 0.75
vt 0.625 0
vt 0.625 0.25
vt 0.875 0.25
vt 0.875 0
vt 0.125 0
vt 0.125 0.25
vt 0.375 0.25
vt 0.375 0
vt 0.375 0
vt 0.375 0.25
vt 0.625 0.25
vt 0.625 0
vt 0.375 0.25
vt 0.375 0.5
vt 0.625 0.5
vt 0.625 0.25
vt 0.375 0.5
vt 0.375 0.75
vt 0.625 0.75
vt 0.625 0.5
vt 0.375 0.75
vt 0.375 1
vt 0.625 1
vt 0.625 0.75
vt 0.625 0
vt 0.625 0.25
vt 0.875 0.25
vt 0.875 0
vt 0.125 0
vt 0.125 0.25
vt 0.375 0.25
vt 0.375 0
vn 0 0 -1
vn 0 0 -1
vn 0 0 -1
vn 0 0 -1
vn 0 1 0
vn 0 1 0
vn 0 1 0
vn 0 1 0
vn 0 0 1
vn 0 0 1
vn 0 0 1
vn 0 0 1
vn 0 -1 0
vn 0 -1 0
vn 0 -1 0
vn 0 -1 0
vn -0.998342 0.05756124 0
vn -0.998342 0.05756124 0
vn -0.998342 0.05756124 0
vn -0.998342 0.05756124 0
vn 0.998342 -0.05756124 0
vn 0.998342 -0.05756124 0
vn 0.998342 -0.05756124 0
vn 0.998342 -0.05756124 0
vn 0 0 -1
vn 0 0 -1
vn 0 0 -1
vn 0 0 -1
vn 0 1 0
vn 0 1 0
vn 0 1 0
vn 0 1 0
vn 0 0 1
vn 0 0 1
vn 0 0 1
vn 0 0 1
vn 0 -1 8.680573E-07
vn 0 -1 8.680573E-07
vn 0 -1 8.680573E-07
vn 0 -1 8.680573E-07
vn -0.9946377 0.1034212 0
vn -0.9946377 0.1034212 0
vn -0.9946377 0.1034212 0
vn -0.9946377 0.1034212 0
vn 0.9946377 -0.1034212 0
vn 0.9946377 -0.1034212 0
vn 0.9946377 -0.1034212 0
vn 0.9946377 -0.1034212 0
vn 0 -0.8239896 -0.566605
vn 0 -0.8239896 -0.566605
vn 0 -0.8239896 -0.566605
vn 0 -0.8239896 -0.566605
vn 0 0 -1
vn 0 0 -1
vn 0 0 -1
vn 0 0 -1
vn 0 0.8239896 0.566605
vn 0 0.8239896 0.566605
vn 0 0.8239896 0.566605
vn 0 0.8239896 0.566605
vn 0 0 1
vn 0 0 1
vn 0 0 1
vn 0 0 1
vn -1 0 0
vn -1 0 0
vn -1 0 0
vn -1 0 0
vn 1 0 0
vn 1 0 0
vn 1 0 0
vn 1 0 0
vn 0 -0.8103006 -0.5860144
vn 0 -0.8103006 -0.5860144
vn 0 -0.8103006 -0.5860144
vn 0 -0.8103006 -0.5860144
vn 0 0 -1
vn 0 0 -1
vn 0 0 -1
vn 0 0 -1
vn 0 0.8137631 0.5811967
vn 0 0.8137631 0.5811967
vn 0 0.8137631 0.5811967
vn 0 0.8137631 0.5811967
vn 0 -5.534598E-07 1
vn 0 -5.534598E-07 1
vn 0 -5.534598E-07 1
vn 0 -5.534598E-07 1
vn -0.9998041 0 0.01979757
vn -0.9998041 0 0.01979757
vn -0.9998041 0 0.01979757
vn -0.9998041 0 0.01979757
vn 0.9998041 0 -0.01979754
vn 0.9998041 0 -0.01979754
vn 0.9998041 0 -0.01979754
vn 0.9998041 0 -0.01979754
vn 0 -0.8063903 -0.5913838
vn 0 -0.8063903 -0.5913838
vn 0 -0.8063903 -0.5913838
vn 0 -0.8063903 -0.5913838
vn 0 -1.17677E-06 -1
vn 0 -1.17677E-06 -1
vn 0 -1.17677E-06 -1
vn 0 -1.17677E-06 -1
vn 0 0.809958 0.5864878
vn 0 0.8099581 0.5864878
vn 0 0.809958 0.5864878
vn 0 0.8099581 0.5864878
vn 0 2.805515E-07 1
vn 0 2.805515E-07 1
vn 0 2.805515E-07 1
vn 0 2.805515E-07 1
vn -0.9999909 0 0.004273525
vn -0.9999909 0 0.004273525
vn -0.9999909 0 0.004273524
vn -0.9999909 0 0.004273525
vn 0.9999909 0 -0.004273504
vn 0.9999909 0 -0.004273503
vn 0.9999909 0 -0.004273504
vn 0.9999909 0 -0.004273504
g Railing_Stair_Wooden_Right_COL_0
f 3/3/3 2/2/2 1/1/1
f 4/4/4 3/3/3 1/1/1
f 7/7/7 6/6/6 5/5/5
f 8/8/8 7/7/7 5/5/5
f 11/11/11 10/10/10 9/9/9
f 12/12/12 11/11/11 9/9/9
f 15/15/15 14/14/14 13/13/13
f 16/16/16 15/15/15 13/13/13
f 19/19/19 18/18/18 17/17/17
f 20/20/20 19/19/19 17/17/17
f 23/23/23 22/22/22 21/21/21
f 24/24/24 23/23/23 21/21/21
f 27/27/27 26/26/26 25/25/25
f 28/28/28 27/27/27 25/25/25
f 31/31/31 30/30/30 29/29/29
f 32/32/32 31/31/31 29/29/29
f 35/35/35 34/34/34 33/33/33
f 36/36/36 35/35/35 33/33/33
f 39/39/39 38/38/38 37/37/37
f 40/40/40 39/39/39 37/37/37
f 43/43/43 42/42/42 41/41/41
f 44/44/44 43/43/43 41/41/41
f 47/47/47 46/46/46 45/45/45
f 48/48/48 47/47/47 45/45/45
f 51/51/51 50/50/50 49/49/49
f 52/52/52 51/51/51 49/49/49
f 55/55/55 54/54/54 53/53/53
f 56/56/56 55/55/55 53/53/53
f 59/59/59 58/58/58 57/57/57
f 60/60/60 59/59/59 57/57/57
f 63/63/63 62/62/62 61/61/61
f 64/64/64 63/63/63 61/61/61
f 67/67/67 66/66/66 65/65/65
f 68/68/68 67/67/67 65/65/65
f 71/71/71 70/70/70 69/69/69
f 72/72/72 71/71/71 69/69/69
f 75/75/75 74/74/74 73/73/73
f 76/76/76 75/75/75 73/73/73
f 79/79/79 78/78/78 77/77/77
f 80/80/80 79/79/79 77/77/77
f 83/83/83 82/82/82 81/81/81
f 84/84/84 83/83/83 81/81/81
f 87/87/87 86/86/86 85/85/85
f 88/88/88 87/87/87 85/85/85
f 91/91/91 90/90/90 89/89/89
f 92/92/92 91/91/91 89/89/89
f 95/95/95 94/94/94 93/93/93
f 96/96/96 95/95/95 93/93/93
f 99/99/99 98/98/98 97/97/97
f 100/100/100 99/99/99 97/97/97
f 103/103/103 102/102/102 101/101/101
f 104/104/104 103/103/103 101/101/101
f 107/107/107 106/106/106 105/105/105
f 108/108/108 107/107/107 105/105/105
f 111/111/111 110/110/110 109/109/109
f 112/112/112 111/111/111 109/109/109
f 115/115/115 114/114/114 113/113/113
f 116/116/116 115/115/115 113/113/113
f 119/119/119 118/118/118 117/117/117
f 120/120/120 119/119/119 117/117/117
