g Railing_Inner_Wooden_Long_LOD0
v -0.05352242 0.8919823 -0.8299771
v 0.05352249 0.8919823 -0.8299771
v 0.05352249 0.8919823 -0.7208612
v -0.05352242 0.8919823 -0.7208612
v -0.04717178 0.4742751 -0.8235037
v 0.05352249 0.8919823 -0.8299771
v -0.05352242 0.8919823 -0.8299771
v 0.04717186 0.474275 -0.8235036
v -0.05352242 0 -0.8299771
v 0.05352249 0 -0.8299771
v 0.05352249 0 -0.7208612
v 0.05352249 0 -0.8299771
v -0.05352242 0 -0.8299771
v -0.05352242 0 -0.7208612
v -0.05352242 0.8919823 -0.7208612
v 0.05352249 0.8919823 -0.7208612
v 0.04717186 0.4742751 -0.7273347
v -0.04717178 0.4742751 -0.7273347
v 0.05352249 0 -0.7208612
v -0.05352242 0 -0.7208612
v -0.04717178 0.4742751 -0.8235037
v -0.05352242 0.8919823 -0.8299771
v -0.05352242 0.8919823 -0.7208612
v -0.04717178 0.4742751 -0.7273347
v -0.05352242 0 -0.8299771
v -0.05352242 0 -0.7208612
v 0.04717186 0.474275 -0.8235036
v 0.05352249 0 -0.8299771
v 0.05352249 0 -0.7208612
v 0.04717186 0.4742751 -0.7273347
v 0.05352249 0.8919823 -0.8299771
v 0.05352249 0.8919823 -0.7208612
v -0.05149807 0.4685526 0
v -0.05149807 0.5755975 0
v 0.05203102 0.5755975 0
v 0.05203098 0.4685525 0
v -0.03977869 0.5227879 -0.7291966
v -0.03977869 0.6171315 -0.7291965
v -0.05149807 0.5755975 0
v -0.05149807 0.4685526 0
v 0.04164017 0.5227879 -0.7291966
v 0.05203098 0.4685525 0
v 0.05203102 0.5755975 0
v 0.0418723 0.6171315 -0.7291965
v -0.03977869 0.5227879 -0.7291966
v -0.05149807 0.4685526 0
v 0.05203098 0.4685525 0
v 0.04164017 0.5227879 -0.7291966
v 0.0418723 0.6171315 -0.7291965
v 0.05203102 0.5755975 0
v -0.05149807 0.5755975 0
v -0.03977869 0.6171315 -0.7291965
v 0.05797928 0.8996139 0
v -0.07302438 0.8996139 0
v -0.07302438 0.9781857 0
v 0.05797928 0.9781857 0
v 0.0501062 0.8996138 -1.451995
v -0.07323064 0.8996138 -1.451995
v -0.06543995 0.885123 -0.7999999
v 0.06265245 0.885123 -0.7999999
v -0.07302438 0.8996139 0
v 0.05797928 0.8996139 0
v 0.06265245 0.885123 -0.7999999
v 0.0501062 0.9781857 -1.451995
v 0.0501062 0.8996138 -1.451995
v 0.06265245 0.9531063 -0.7999999
v 0.05797928 0.8996139 0
v 0.05797928 0.9781857 0
v 0.06265245 0.9531063 -0.7999999
v -0.07323064 0.9781857 -1.451995
v 0.0501062 0.9781857 -1.451995
v -0.06543995 0.9531063 -0.7999999
v -0.07302438 0.9781857 0
v 0.05797928 0.9781857 0
v -0.06543995 0.885123 -0.7999999
v -0.07323064 0.8996138 -1.451995
v -0.07323064 0.9781857 -1.451995
v -0.06543995 0.9531063 -0.7999999
v -0.07302438 0.9781857 0
v -0.07302438 0.8996139 0
v 0.0501062 0.9781857 -1.451995
v -0.07323064 0.9781857 -1.451995
v -0.07323064 0.8996138 -1.451995
v 0.0501062 0.8996138 -1.451995
v -0.05429153 0.5755973 -1.452039
v -0.05429153 0.4685525 -1.452039
v 0.04574779 0.4685525 -1.452039
v 0.04574779 0.5755973 -1.452039
v 0.04066689 0.5105209 -0.8231475
v 0.04574779 0.4685525 -1.452039
v -0.05429153 0.4685525 -1.452039
v -0.04113831 0.5105209 -0.8231475
v -0.04113831 0.6048645 -0.8239455
v -0.05429153 0.5755973 -1.452039
v 0.04574779 0.5755973 -1.452039
v 0.04066689 0.6048645 -0.8239455
v 0.04066689 0.5105209 -0.8231475
v 0.04066689 0.6048645 -0.8239455
v 0.04574779 0.5755973 -1.452039
v 0.04574779 0.4685525 -1.452039
v -0.05429153 0.5755973 -1.452039
v -0.04113831 0.6048645 -0.8239455
v -0.04113831 0.5105209 -0.8231475
v -0.05429153 0.4685525 -1.452039
vt 0.6537877 0.9624732
vt 0.6537876 0.9980203
vt 0.6900224 0.9980204
vt 0.6900225 0.9624733
vt 0.7973515 0.7499442
vt 0.7618045 0.9624733
vt 0.7973515 0.9624733
vt 0.7618044 0.7499442
vt 0.7973515 0.5374152
vt 0.7618044 0.5374152
vt 0.6900225 0.5018681
vt 0.6537877 0.5018681
vt 0.6537877 0.5374152
vt 0.6900225 0.5374152
vt 0.6900225 0.9624733
vt 0.7255696 0.9624733
vt 0.7255696 0.7499442
vt 0.6900225 0.7499442
vt 0.7255696 0.5374152
vt 0.6900225 0.5374152
vt 0.6537877 0.7499442
vt 0.6537877 0.9624732
vt 0.6900225 0.9624733
vt 0.6900225 0.7499442
vt 0.6537877 0.5374152
vt 0.6900225 0.5374152
vt 0.7618044 0.7499442
vt 0.7618044 0.5374152
vt 0.7255696 0.5374152
vt 0.7255696 0.7499442
vt 0.7618045 0.9624733
vt 0.7255696 0.9624733
vt 0.5038075 0.9624732
vt 0.5038074 0.9980203
vt 0.5400422 0.9980204
vt 0.5400423 0.9624733
vt 0.6473714 0.7499442
vt 0.6118242 0.7499442
vt 0.6118243 0.9624733
vt 0.6473714 0.9624733
vt 0.5400423 0.7499442
vt 0.5400423 0.9624733
vt 0.5755894 0.9624733
vt 0.5755894 0.7499442
vt 0.5038075 0.7499442
vt 0.5038075 0.9624732
vt 0.5400423 0.9624733
vt 0.5400423 0.7499442
vt 0.5755894 0.7499442
vt 0.5755894 0.9624733
vt 0.6118243 0.9624733
vt 0.6118242 0.7499442
vt 0.5044575 0.9624732
vt 0.5044575 0.9980203
vt 0.5406923 0.9980204
vt 0.5406924 0.9624733
vt 0.6480215 0.537441
vt 0.6124743 0.537441
vt 0.6124743 0.7499442
vt 0.6480215 0.7499442
vt 0.6124743 0.9624733
vt 0.6480215 0.9624733
vt 0.5044575 0.7499442
vt 0.5406924 0.5374152
vt 0.5044575 0.5374152
vt 0.5406924 0.7499442
vt 0.5044575 0.9624732
vt 0.5406924 0.9624733
vt 0.5406924 0.7499442
vt 0.5762395 0.5374152
vt 0.5406924 0.5374152
vt 0.5762395 0.7499442
vt 0.5762395 0.9624733
vt 0.5406924 0.9624733
vt 0.6124743 0.7499442
vt 0.6124743 0.537441
vt 0.5762395 0.5374152
vt 0.5762395 0.7499442
vt 0.5762395 0.9624733
vt 0.6124743 0.9624733
vt 0.5406924 0.5374152
vt 0.5406924 0.5018681
vt 0.5044576 0.5018681
vt 0.5044575 0.5374152
vt 0.5038075 0.5018681
vt 0.5038075 0.5374152
vt 0.5400423 0.5374152
vt 0.5400423 0.5018681
vt 0.5400423 0.7499442
vt 0.5400423 0.5374152
vt 0.5038075 0.5374152
vt 0.5038075 0.7499442
vt 0.6118242 0.7499442
vt 0.6118242 0.5374152
vt 0.5755894 0.5374152
vt 0.5755894 0.7499442
vt 0.5400423 0.7499442
vt 0.5755894 0.7499442
vt 0.5755894 0.5374152
vt 0.5400423 0.5374152
vt 0.6118242 0.5374152
vt 0.6118242 0.7499442
vt 0.6473714 0.7499442
vt 0.6473714 0.5374152
vn 0 1 0
vn 0 1 0
vn 0 1 0
vn 0 1 0
vn 6.993146E-07 -8.305244E-06 -1
vn 3.328173E-07 -0.01549575 -0.99988
vn 3.328173E-07 -0.01549575 -0.99988
vn 6.993149E-07 -8.291176E-06 -1
vn 1.022338E-06 0.01364791 -0.9999069
vn 1.022338E-06 0.01364791 -0.9999069
vn 0 -1 0
vn 0 -1 0
vn 0 -1 0
vn 0 -1 0
vn -5.803782E-07 -0.01549584 0.99988
vn -5.803782E-07 -0.01549584 0.99988
vn -5.436568E-07 -8.299215E-06 1
vn -5.436568E-07 -8.299885E-06 1
vn -5.11169E-07 0.01364799 0.9999069
vn -5.11169E-07 0.01364799 0.9999069
vn -1 -8.29666E-06 0
vn -0.9998845 -0.01520179 0
vn -0.9998845 -0.01520179 0
vn -1 -8.297315E-06 0
vn -0.9999104 0.01338898 0
vn -0.9999104 0.01338898 0
vn 1 -8.28549E-06 0
vn 0.9999104 0.01338899 0
vn 0.9999104 0.01338899 0
vn 1 -8.299947E-06 0
vn 0.9998845 -0.01520177 0
vn 0.9998845 -0.01520177 0
vn 0 0 1
vn 0 0 1
vn 0 0 1
vn 0 0 1
vn -0.9998709 0 -0.01606955
vn -0.9998709 0 -0.01606955
vn -0.9998709 0 -0.01606955
vn -0.9998709 0 -0.01606955
vn 0.999899 -0.001152741 -0.0141648
vn 0.999899 -0.001152741 -0.0141648
vn 0.999899 -0.001152741 -0.01416481
vn 0.999899 -0.001152741 -0.01416481
vn -2.030957E-07 -0.9972456 -0.07417193
vn -2.030956E-07 -0.9972456 -0.07417192
vn -2.030957E-07 -0.9972456 -0.07417193
vn -2.030957E-07 -0.9972456 -0.07417193
vn 0 0.9983819 0.05686641
vn 0 0.9983819 0.05686641
vn 0 0.9983819 0.0568664
vn 0 0.9983819 0.05686641
vn 0 0 1
vn 0 0 1
vn 0 0 1
vn 0 0 1
vn 0 -0.9997531 -0.02221981
vn 0 -0.9997531 -0.02221981
vn 0 -1 0.000283865
vn 0 -1 0.0003848475
vn 0 -0.999836 0.01811068
vn 0 -0.999836 0.01811068
vn 0.9999855 0 -0.005405735
vn 0.9998149 0 -0.01923928
vn 0.9998149 0 -0.01923928
vn 0.9999852 0 -0.005449616
vn 0.999983 0 0.005841372
vn 0.999983 0 0.005841371
vn 0 0.9999998 -0.0006658341
vn 0 0.999261 0.03843715
vn 0 0.999261 0.03843715
vn 0 0.9999999 -0.0004911767
vn 0 0.999509 -0.03133386
vn 0 0.999509 -0.03133386
vn -1 0 0.0001280073
vn -0.9999286 0 0.01194812
vn -0.9999286 0 0.01194812
vn -1 0 0.0001655244
vn -0.9999551 0 -0.009480094
vn -0.9999551 0 -0.009480093
vn 0 1.942014E-06 -1
vn 0 1.942014E-06 -1
vn 0 1.942014E-06 -1
vn 0 1.942014E-06 -1
vn -3.419752E-06 7.127285E-07 -1
vn -3.419752E-06 7.127285E-07 -1
vn -3.419752E-06 7.127285E-07 -1
vn -3.419752E-06 7.127285E-07 -1
vn 0 -0.9977807 0.06658577
vn 0 -0.9977807 0.06658576
vn 0 -0.9977807 0.06658576
vn 0 -0.9977807 0.06658577
vn -1.067614E-07 0.9989161 -0.04654633
vn -1.067614E-07 0.9989161 -0.04654631
vn -1.067614E-07 0.9989161 -0.04654632
vn -1.067614E-07 0.9989161 -0.04654631
vn 0.9999673 3.204205E-05 0.008082179
vn 0.9999673 3.204205E-05 0.00808218
vn 0.9999673 3.204205E-05 0.00808218
vn 0.9999673 3.204205E-05 0.00808218
vn -0.9997812 8.280869E-05 0.02091894
vn -0.9997812 8.280868E-05 0.02091894
vn -0.9997812 8.280869E-05 0.02091894
vn -0.9997812 8.280869E-05 0.02091894
g Railing_Inner_Wooden_Long_LOD0_0
f 3/3/3 2/2/2 1/1/1
f 4/4/4 3/3/3 1/1/1
f 7/7/7 6/6/6 5/5/5
f 6/6/6 8/8/8 5/5/5
f 5/5/5 8/8/8 9/9/9
f 8/8/8 10/10/10 9/9/9
f 13/13/13 12/12/12 11/11/11
f 14/14/14 13/13/13 11/11/11
f 17/17/17 16/16/16 15/15/15
f 18/18/18 17/17/17 15/15/15
f 19/19/19 17/17/17 18/18/18
f 20/20/20 19/19/19 18/18/18
f 23/23/23 22/22/22 21/21/21
f 24/24/24 23/23/23 21/21/21
f 21/21/21 25/25/25 24/24/24
f 25/25/25 26/26/26 24/24/24
f 29/29/29 28/28/28 27/27/27
f 30/30/30 29/29/29 27/27/27
f 27/27/27 31/31/31 30/30/30
f 31/31/31 32/32/32 30/30/30
f 35/35/35 34/34/34 33/33/33
f 36/36/36 35/35/35 33/33/33
f 39/39/39 38/38/38 37/37/37
f 40/40/40 39/39/39 37/37/37
f 43/43/43 42/42/42 41/41/41
f 44/44/44 43/43/43 41/41/41
f 47/47/47 46/46/46 45/45/45
f 48/48/48 47/47/47 45/45/45
f 51/51/51 50/50/50 49/49/49
f 52/52/52 51/51/51 49/49/49
f 55/55/55 54/54/54 53/53/53
f 56/56/56 55/55/55 53/53/53
f 59/59/59 58/58/58 57/57/57
f 60/60/60 59/59/59 57/57/57
f 61/61/61 59/59/59 60/60/60
f 62/62/62 61/61/61 60/60/60
f 65/65/65 64/64/64 63/63/63
f 64/64/64 66/66/66 63/63/63
f 63/63/63 66/66/66 67/67/67
f 66/66/66 68/68/68 67/67/67
f 71/71/71 70/70/70 69/69/69
f 70/70/70 72/72/72 69/69/69
f 69/69/69 72/72/72 73/73/73
f 74/74/74 69/69/69 73/73/73
f 77/77/77 76/76/76 75/75/75
f 78/78/78 77/77/77 75/75/75
f 79/79/79 78/78/78 75/75/75
f 80/80/80 79/79/79 75/75/75
f 83/83/83 82/82/82 81/81/81
f 84/84/84 83/83/83 81/81/81
f 87/87/87 86/86/86 85/85/85
f 88/88/88 87/87/87 85/85/85
f 91/91/91 90/90/90 89/89/89
f 92/92/92 91/91/91 89/89/89
f 95/95/95 94/94/94 93/93/93
f 96/96/96 95/95/95 93/93/93
f 99/99/99 98/98/98 97/97/97
f 100/100/100 99/99/99 97/97/97
f 103/103/103 102/102/102 101/101/101
f 104/104/104 103/103/103 101/101/101
