g ramp_y6
v -0.5 6.09386 12.65733
v -0.6944885 6.09981 12.57677
v -0.6122894 6.184176 12.49457
v -0.5 6.180008 12.54108
v -0.5 6.229989 12.38228
v -0.3055115 6.09981 12.57677
v -0.3877106 6.184176 12.49457
v -0.5 6.229989 12.38228
v -0.2249489 6.118007 12.38228
v -0.3412018 6.196016 12.38228
v -0.3055115 6.099811 12.18779
v -0.3877106 6.184176 12.26999
v -0.5 6.09386 12.10723
v -0.5 6.229989 12.38228
v -0.5 6.180008 12.22348
v -0.6944885 6.099811 12.18779
v -0.6122894 6.184176 12.26999
v -0.7750511 6.118007 12.38228
v -0.6587982 6.196016 12.38228
v -0.6944885 6.09981 12.57677
v -0.6122894 6.184176 12.49457
v -0.5 6.229989 12.38228
v -7.5 6.09386 12.65733
v -7.694489 6.09981 12.57677
v -7.612289 6.184176 12.49457
v -7.5 6.180008 12.54108
v -7.5 6.229989 12.38228
v -7.305511 6.09981 12.57677
v -7.387711 6.184176 12.49457
v -7.5 6.229989 12.38228
v -7.224949 6.118007 12.38228
v -7.341202 6.196016 12.38228
v -7.305511 6.099811 12.18779
v -7.387711 6.184176 12.26999
v -7.5 6.09386 12.10723
v -7.5 6.229989 12.38228
v -7.5 6.180008 12.22348
v -7.694489 6.099811 12.18779
v -7.612289 6.184176 12.26999
v -7.775051 6.118007 12.38228
v -7.658798 6.196016 12.38228
v -7.694489 6.09981 12.57677
v -7.612289 6.184176 12.49457
v -7.5 6.229989 12.38228
v -4 6 12.75
v -8 6 12.75
v -8 6.09728 12.68137
v -4 6.09728 12.68137
v -8 6.121196 12.38228
v -4 6.121196 12.38228
v 0 6.121195 12.38228
v 0 6.09728 12.68137
v 0 6 12.75
v -4 6.121196 12.38228
v -8 6.121196 12.38228
v -8 6.09728 12.08318
v -4 6.09728 12.08318
v -8 6 12.02295
v -4 6 12.02295
v 0 6 12.02295
v 0 6.09728 12.08318
v 0 6.121195 12.38228
v -8 0.08263564 0.05534363
v -8 1.110223E-16 0
v 0 1.110223E-16 0
v 0 0.08263564 0.05534363
v 0 6 12
v 0 6 12.25
v -8 6 12.25
v -8 6 12
v 0 5.377334 10.24227
v -8 5.377334 10.24227
v -8 5.243633 10.11889
v 0 5.243633 10.11889
v -8 1.077623 2.045319
v 0 0.3825854 0.2457085
v 0 1.077623 2.045319
v -8 0.3825854 0.2457085
v -8 0.252939 0.1180744
v 0 0.252939 0.1180744
v -8 2.085205 4.060482
v 0 1.383991 2.248219
v 0 2.085205 4.060482
v -8 1.383991 2.248219
v -8 1.256545 2.118389
v 0 1.256545 2.118389
v -8 3.080193 6.050457
v 0 2.397034 4.274614
v 0 3.080193 6.050457
v -8 2.397034 4.274614
v -8 2.271577 4.14286
v 0 2.271577 4.14286
v -8 4.087775 8.065622
v 0 3.387228 6.254692
v 0 4.087775 8.065622
v -8 3.387228 6.254692
v -8 3.260014 6.124634
v 0 3.260014 6.124634
v -8 5.094561 10.07919
v 0 4.389148 8.258556
v 0 5.094561 10.07919
v -8 4.389148 8.258556
v -8 4.259914 8.130505
v 0 4.259914 8.130505
v -8 5.243633 10.11889
v -8 5.094561 10.07919
v 0 5.094561 10.07919
v 0 5.243633 10.11889
v -8 4.259914 8.130505
v -8 4.087775 8.065622
v 0 4.087775 8.065622
v 0 4.259914 8.130505
v -8 3.260014 6.124634
v -8 3.080193 6.050457
v 0 3.080193 6.050457
v 0 3.260014 6.124634
v -8 2.271577 4.14286
v -8 2.085205 4.060482
v 0 2.085205 4.060482
v 0 2.271577 4.14286
v -8 1.256545 2.118389
v -8 1.077623 2.045319
v 0 1.077623 2.045319
v 0 1.256545 2.118389
v -8 0.252939 0.1180744
v -8 0.08263564 0.05534363
v 0 0.08263564 0.05534363
v 0 0.252939 0.1180744
vt 0.5289057 0.3821129
vt 0.5065815 0.3821129
vt 0.5065815 0.3566545
vt 0.5289057 0.3566545
vt 0.5958781 0.3192839
vt 0.5512298 0.3821129
vt 0.5512298 0.3566545
vt 0.5958781 0.3192838
vt 0.573554 0.3821129
vt 0.573554 0.3566545
vt 0.5958782 0.3821129
vt 0.5958782 0.3566545
vt 0.6182023 0.3821129
vt 0.5958781 0.3192839
vt 0.6182023 0.3566545
vt 0.6405265 0.3821129
vt 0.6405265 0.3566545
vt 0.6628506 0.3821129
vt 0.6628506 0.3566545
vt 0.6851748 0.3821128
vt 0.6851748 0.3566545
vt 0.5958781 0.3192838
vt 0.5289057 0.3821129
vt 0.5065815 0.3821129
vt 0.5065815 0.3566545
vt 0.5289057 0.3566545
vt 0.5958781 0.3192839
vt 0.5512298 0.3821129
vt 0.5512298 0.3566545
vt 0.5958781 0.3192838
vt 0.573554 0.3821129
vt 0.573554 0.3566545
vt 0.5958782 0.3821129
vt 0.5958782 0.3566545
vt 0.6182023 0.3821129
vt 0.5958781 0.3192839
vt 0.6182023 0.3566545
vt 0.6405265 0.3821129
vt 0.6405265 0.3566545
vt 0.6628506 0.3821129
vt 0.6628506 0.3566545
vt 0.6851748 0.3821128
vt 0.6851748 0.3566545
vt 0.5958781 0.3192838
vt -0.7499999 0.3772391
vt -0.4999999 0.3772391
vt -0.5 0.3673688
vt -0.75 0.3673688
vt -0.4999999 0.3131313
vt -0.7499999 0.3131313
vt -0.9999999 0.3131313
vt -1 0.3673688
vt -0.9999999 0.3772391
vt -0.7499999 0.3131313
vt -0.4999999 0.3131313
vt -0.4999999 0.3657787
vt -0.7499999 0.3657787
vt -0.5 0.3772293
vt -0.7499999 0.3772296
vt -0.9999999 0.3772299
vt -0.9999999 0.3657787
vt -0.9999999 0.3131313
vt 2.060083 0.3757041
vt 2.060083 0.3709369
vt 1.616461 0.3709371
vt 1.616461 0.3757043
vt 0.9264034 0.377177
vt 0.9264034 0.3647168
vt 0.7311978 0.3647168
vt 0.7311978 0.377177
vt 0.9264034 0.4591981
vt 0.7311978 0.4591982
vt 0.7311978 0.4685977
vt 0.9264035 0.4685977
vt 0.6473309 0.3730417
vt 0.8425364 0.4589094
vt 0.8425365 0.3730416
vt 0.6473309 0.4589096
vt 0.6473309 0.4684225
vt 0.8425365 0.4684225
vt 0.8751055 0.3724301
vt 1.070311 0.4590785
vt 1.070311 0.3724301
vt 0.8751055 0.4590786
vt 0.8751056 0.4686475
vt 1.070311 0.4686474
vt 0.5665598 0.3747813
vt 0.7617654 0.4591758
vt 0.7617654 0.3747814
vt 0.5665598 0.4591758
vt 0.5665598 0.4687922
vt 0.7617654 0.4687923
vt 0.7831953 0.3726206
vt 0.9784009 0.4591867
vt 0.978401 0.3726206
vt 0.7831953 0.4591866
vt 0.7831953 0.4687613
vt 0.9784009 0.4687613
vt 0.9421231 0.3719804
vt 1.137329 0.4591486
vt 1.137329 0.3719803
vt 0.9421231 0.4591486
vt 0.9421231 0.4686721
vt 1.137329 0.4686721
vt 0.7311978 0.4685977
vt 0.7311978 0.4572949
vt 0.9264034 0.4572949
vt 0.9264035 0.4685977
vt 0.9421231 0.4686721
vt 0.9421231 0.4591856
vt 1.137329 0.4591857
vt 1.137329 0.4686721
vt 0.7831953 0.4687613
vt 0.7831953 0.4599246
vt 0.9784009 0.4599247
vt 0.9784009 0.4687613
vt 0.5665598 0.4687922
vt 0.5665598 0.4605238
vt 0.7617653 0.4605238
vt 0.7617654 0.4687923
vt 0.8751056 0.4686475
vt 0.8751055 0.459734
vt 1.070311 0.4597339
vt 1.070311 0.4686474
vt 0.6473309 0.4684225
vt 0.6473309 0.4587843
vt 0.8425365 0.4587842
vt 0.8425365 0.4684225
vn 0 0.801895 0.5974649
vn -0.3748334 0.8074376 0.4555704
vn -0.3369321 0.8475212 0.4101031
vn 0 0.8411711 0.5407689
vn 0 1 0
vn 0.3748332 0.8074374 0.455571
vn 0.3369319 0.847521 0.4101036
vn 0 1 0
vn 0.553028 0.8331626 0
vn 0.4834116 0.8753932 0
vn 0.3748236 0.8074437 -0.4555677
vn 0.3369271 0.8475255 -0.4100985
vn 0 0.8018969 -0.5974622
vn 0 1 0
vn 0 0.8411724 -0.5407668
vn -0.3748238 0.807443 -0.4555687
vn -0.3369274 0.8475249 -0.4100994
vn -0.5530284 0.8331624 0
vn -0.4834119 0.875393 0
vn -0.3748334 0.8074376 0.4555704
vn -0.3369321 0.8475212 0.4101031
vn 0 1 0
vn 0 0.8018969 0.5974623
vn -0.3748324 0.8074395 0.4555678
vn -0.3369313 0.8475226 0.410101
vn 0 0.8411724 0.5407668
vn 0 1 0
vn 0.3748326 0.8074374 0.4555716
vn 0.3369315 0.8475209 0.4101042
vn 0 1 0
vn 0.553028 0.8331626 0
vn 0.4834116 0.8753932 0
vn 0.3748213 0.8074466 -0.4555643
vn 0.3369254 0.8475273 -0.4100959
vn 0 0.8019008 -0.5974572
vn 0 1 0
vn 0 0.8411751 -0.5407628
vn -0.3748233 0.807444 -0.4555674
vn -0.336927 0.8475255 -0.4100984
vn -0.5530284 0.8331624 0
vn -0.4834119 0.875393 0
vn -0.3748324 0.8074395 0.4555678
vn -0.3369313 0.8475226 0.410101
vn 0 1 0
vn 0 0.5764504 0.8171321
vn 0 0.5764504 0.8171321
vn 0 0.9497457 0.3130227
vn 0 0.9497457 0.3130227
vn 0 1 0
vn 0 1 0
vn 0 1 0
vn 0 0.9497457 0.3130227
vn 0 1 0
vn 0 1 0
vn 0 1 0
vn 0 0.9475534 -0.3195975
vn 0 0.9475534 -0.3195975
vn 0 0.5264152 -0.8502277
vn 0 0.5264152 -0.8502277
vn 0 0.5264152 -0.8502277
vn 0 0.9475534 -0.3195975
vn 0 1 0
vn 0 0.5564615 -0.8308734
vn 0 0.5564615 -0.8308734
vn 0 0.5564615 -0.8308734
vn 0 0.5564615 -0.8308734
vn 0 0.9551211 -0.2962157
vn 0 1 0
vn 0 1 0
vn 0 0.9551211 -0.2962157
vn 0 0.9278084 -0.3730572
vn 0 0.9278084 -0.3730572
vn 0 0.4995764 -0.8662698
vn 0 0.4995764 -0.8662698
vn 0 0.9328445 -0.3602792
vn 0 0.9193656 -0.3934043
vn 0 0.9328445 -0.3602792
vn 0 0.9193656 -0.3934043
vn 0 0.5358487 -0.844314
vn 0 0.5358487 -0.844314
vn 0 0.9326214 -0.3608561
vn 0 0.9197724 -0.3924522
vn 0 0.9326214 -0.3608561
vn 0 0.9197724 -0.3924522
vn 0 0.5521625 -0.8337365
vn 0 0.5521625 -0.8337365
vn 0 0.9333206 -0.359044
vn 0 0.9206976 -0.3902767
vn 0 0.9333206 -0.359044
vn 0 0.9206976 -0.3902767
vn 0 0.5660787 -0.8243513
vn 0 0.5660787 -0.8243513
vn 0 0.9326475 -0.3607889
vn 0 0.9198456 -0.3922805
vn 0 0.9326475 -0.3607889
vn 0 0.9198456 -0.3922805
vn 0 0.5538459 -0.8326192
vn 0 0.5538459 -0.8326192
vn 0 0.9324559 -0.3612837
vn 0 0.9192313 -0.393718
vn 0 0.9324559 -0.3612837
vn 0 0.9192313 -0.393718
vn 0 0.5391627 -0.8422016
vn 0 0.5391627 -0.8422016
vn 0 0.4995764 -0.8662698
vn 0 0.2572955 -0.9663327
vn 0 0.2572955 -0.9663327
vn 0 0.4995764 -0.8662698
vn 0 0.5391627 -0.8422016
vn 0 0.352696 -0.9357379
vn 0 0.352696 -0.9357379
vn 0 0.5391627 -0.8422016
vn 0 0.5538459 -0.8326192
vn 0 0.3813328 -0.9244379
vn 0 0.3813328 -0.9244379
vn 0 0.5538459 -0.8326192
vn 0 0.5660787 -0.8243513
vn 0 0.4042782 -0.9146361
vn 0 0.4042782 -0.9146361
vn 0 0.5660787 -0.8243513
vn 0 0.5521625 -0.8337365
vn 0 0.37808 -0.9257729
vn 0 0.37808 -0.9257729
vn 0 0.5521625 -0.8337365
vn 0 0.5358487 -0.844314
vn 0 0.3456444 -0.9383656
vn 0 0.3456444 -0.9383656
vn 0 0.5358487 -0.844314
g ramp_y6_0
f 3/3/3 2/2/2 1/1/1
f 4/4/4 3/3/3 1/1/1
f 5/5/5 3/3/3 4/4/4
f 4/4/4 1/1/1 6/6/6
f 7/7/7 4/4/4 6/6/6
f 8/8/8 4/4/4 7/7/7
f 7/7/7 6/6/6 9/9/9
f 8/8/8 7/7/7 10/10/10
f 10/10/10 7/7/7 9/9/9
f 10/10/10 9/9/9 11/11/11
f 12/12/12 10/10/10 11/11/11
f 12/12/12 11/11/11 13/13/13
f 14/14/14 10/10/10 12/12/12
f 15/15/15 12/12/12 13/13/13
f 14/14/14 12/12/12 15/15/15
f 15/15/15 13/13/13 16/16/16
f 14/14/14 15/15/15 17/17/17
f 17/17/17 15/15/15 16/16/16
f 17/17/17 16/16/16 18/18/18
f 14/14/14 17/17/17 19/19/19
f 19/19/19 17/17/17 18/18/18
f 19/19/19 18/18/18 20/20/20
f 21/21/21 19/19/19 20/20/20
f 22/22/22 19/19/19 21/21/21
f 25/25/25 24/24/24 23/23/23
f 26/26/26 25/25/25 23/23/23
f 27/27/27 25/25/25 26/26/26
f 26/26/26 23/23/23 28/28/28
f 29/29/29 26/26/26 28/28/28
f 30/30/30 26/26/26 29/29/29
f 29/29/29 28/28/28 31/31/31
f 30/30/30 29/29/29 32/32/32
f 32/32/32 29/29/29 31/31/31
f 32/32/32 31/31/31 33/33/33
f 34/34/34 32/32/32 33/33/33
f 34/34/34 33/33/33 35/35/35
f 36/36/36 32/32/32 34/34/34
f 37/37/37 34/34/34 35/35/35
f 36/36/36 34/34/34 37/37/37
f 37/37/37 35/35/35 38/38/38
f 36/36/36 37/37/37 39/39/39
f 39/39/39 37/37/37 38/38/38
f 39/39/39 38/38/38 40/40/40
f 36/36/36 39/39/39 41/41/41
f 41/41/41 39/39/39 40/40/40
f 41/41/41 40/40/40 42/42/42
f 43/43/43 41/41/41 42/42/42
f 44/44/44 41/41/41 43/43/43
f 47/47/47 46/46/46 45/45/45
f 48/48/48 47/47/47 45/45/45
f 49/49/49 47/47/47 48/48/48
f 50/50/50 49/49/49 48/48/48
f 50/50/50 48/48/48 51/51/51
f 48/48/48 52/52/52 51/51/51
f 48/48/48 45/45/45 52/52/52
f 45/45/45 53/53/53 52/52/52
f 56/56/56 55/55/55 54/54/54
f 57/57/57 56/56/56 54/54/54
f 58/58/58 56/56/56 57/57/57
f 59/59/59 58/58/58 57/57/57
f 59/59/59 57/57/57 60/60/60
f 57/57/57 61/61/61 60/60/60
f 57/57/57 54/54/54 61/61/61
f 54/54/54 62/62/62 61/61/61
f 65/65/65 64/64/64 63/63/63
f 66/66/66 65/65/65 63/63/63
f 69/69/69 68/68/68 67/67/67
f 70/70/70 69/69/69 67/67/67
f 67/67/67 71/71/71 70/70/70
f 71/71/71 72/72/72 70/70/70
f 72/72/72 71/71/71 73/73/73
f 71/71/71 74/74/74 73/73/73
f 77/77/77 76/76/76 75/75/75
f 76/76/76 78/78/78 75/75/75
f 78/78/78 76/76/76 79/79/79
f 76/76/76 80/80/80 79/79/79
f 83/83/83 82/82/82 81/81/81
f 82/82/82 84/84/84 81/81/81
f 84/84/84 82/82/82 85/85/85
f 82/82/82 86/86/86 85/85/85
f 89/89/89 88/88/88 87/87/87
f 88/88/88 90/90/90 87/87/87
f 90/90/90 88/88/88 91/91/91
f 88/88/88 92/92/92 91/91/91
f 95/95/95 94/94/94 93/93/93
f 94/94/94 96/96/96 93/93/93
f 96/96/96 94/94/94 97/97/97
f 94/94/94 98/98/98 97/97/97
f 101/101/101 100/100/100 99/99/99
f 100/100/100 102/102/102 99/99/99
f 102/102/102 100/100/100 103/103/103
f 100/100/100 104/104/104 103/103/103
f 107/107/107 106/106/106 105/105/105
f 108/108/108 107/107/107 105/105/105
f 111/111/111 110/110/110 109/109/109
f 112/112/112 111/111/111 109/109/109
f 115/115/115 114/114/114 113/113/113
f 116/116/116 115/115/115 113/113/113
f 119/119/119 118/118/118 117/117/117
f 120/120/120 119/119/119 117/117/117
f 123/123/123 122/122/122 121/121/121
f 124/124/124 123/123/123 121/121/121
f 127/127/127 126/126/126 125/125/125
f 128/128/128 127/127/127 125/125/125
