g ranchUp_stoneStep03
v 0.5443222 0.1664456 -0.3271227
v 0.5921591 0.1881626 0.04238049
v 0.4974576 0.1881626 -0.3096502
v 0.6431668 0.1664657 0.04027721
v 0.7226321 -0.03071041 0.0408894
v 0.6106161 -0.03071041 -0.3744872
v 0.6265579 -0.03071041 0.4454505
v 0.5597244 0.1663651 0.4018629
v 0.3620059 -0.03071041 0.7255928
v 0.5308346 0.1881626 0.3864173
v 0.5921591 0.1881626 0.04238049
v 0.3289322 0.1665184 0.6482905
v 0.02177461 -0.03071041 0.8139308
v 0.3049088 0.1881626 0.5586775
v 0.5308346 0.1881626 0.3864173
v 0.02637056 0.1668798 0.7272499
v -0.3048068 -0.03071041 0.6918373
v 0.02080598 0.1881626 0.6325953
v 0.3049088 0.1881626 0.5586775
v -0.266058 0.1664063 0.6190076
v -0.5496176 -0.03071041 0.3828016
v -0.2468539 0.1881626 0.5922908
v 0.02080598 0.1881626 0.6325953
v -0.482858 0.1662775 0.3467152
v -0.6551383 -0.03071041 -0.00806263
v -0.4540793 0.1881626 0.3321504
v -0.2468539 0.1881626 0.5922908
v -0.5777994 0.1662826 -0.004878425
v -0.5941787 -0.03071041 -0.3812749
v -0.5455435 0.1881626 -0.006531258
v -0.4540793 0.1881626 0.3321504
v -0.5238174 0.1664282 -0.3411431
v -0.368934 -0.03071041 -0.66562
v -0.476832 0.1881626 -0.2913329
v -0.5455435 0.1881626 -0.006531258
v -0.3245462 0.166721 -0.5925426
v -0.03076628 -0.03071041 -0.7751097
v -0.2885885 0.1881626 -0.5285643
v -0.476832 0.1881626 -0.2913329
v -0.02395903 0.1667418 -0.6887987
v 0.3295016 -0.03071041 -0.6653972
v -0.0236447 0.1881626 -0.6553807
v -0.2885885 0.1881626 -0.5285643
v 0.2957163 0.1663687 -0.5917235
v 0.6106161 -0.03071041 -0.3744872
v 0.5443222 0.1664456 -0.3271227
v 0.4974576 0.1881626 -0.3096502
v 0.2784866 0.1881626 -0.5638451
v 0.2784866 0.1881626 -0.5638451
v -0.0236447 0.1881626 -0.6553807
v 0.4974576 0.1881626 -0.3096502
v 0.02173799 0.1881626 0.008512077
v 0.2784866 0.1881626 -0.5638451
v 0.5921591 0.1881626 0.04238049
v -0.0236447 0.1881626 -0.6553807
v 0.5308346 0.1881626 0.3864173
v -0.2885885 0.1881626 -0.5285643
v 0.3049088 0.1881626 0.5586775
v -0.476832 0.1881626 -0.2913329
v 0.02080598 0.1881626 0.6325953
v -0.5455435 0.1881626 -0.006531258
v -0.2468539 0.1881626 0.5922908
v -0.4540793 0.1881626 0.3321504
vt 0.624957 0.6511384
vt 0.6044862 0.6884398
vt 0.6246471 0.6884398
vt 0.6041777 0.6511729
vt 0.6041666 0.3125
vt 0.6249999 0.3125
vt 0.5833333 0.3125
vt 0.5833677 0.651
vt 0.5625 0.3125
vt 0.5837202 0.6884398
vt 0.6038385 0.6884398
vt 0.5625577 0.6512634
vt 0.5416667 0.3125
vt 0.562951 0.6884398
vt 0.5829417 0.6884398
vt 0.5416684 0.6518841
vt 0.5208334 0.3125
vt 0.5421869 0.6884398
vt 0.5620459 0.6884398
vt 0.5207757 0.6510708
vt 0.5000001 0.3125
vt 0.5212741 0.6884398
vt 0.5411459 0.6884398
vt 0.4999883 0.6508496
vt 0.4791667 0.3125002
vt 0.5002921 0.6884398
vt 0.5204103 0.6884398
vt 0.4792033 0.6508583
vt 0.4583334 0.3125002
vt 0.4794853 0.6884398
vt 0.4997219 0.6884398
vt 0.458378 0.6511085
vt 0.4375 0.3125
vt 0.4587392 0.6884398
vt 0.4788572 0.6884398
vt 0.4375277 0.6516113
vt 0.4166667 0.3125
vt 0.4379936 0.6884398
vt 0.4579336 0.6884398
vt 0.4166344 0.6516472
vt 0.3958333 0.3125
vt 0.4171822 0.6884398
vt 0.4370309 0.6884398
vt 0.3957824 0.6510062
vt 0.375 0.3125
vt 0.375 0.6512291
vt 0.3753374 0.6884398
vt 0.3954404 0.6884398
vt 0.396227 0.6884398
vt 0.416181 0.6884398
vt 0.6298379 0.918859
vt 0.5 0.8375
vt 0.5745598 0.9741493
vt 0.6501333 0.8431451
vt 0.4996349 0.9942816
vt 0.6298863 0.7675945
vt 0.425094 0.974308
vt 0.5749263 0.7126463
vt 0.3703207 0.9194685
vt 0.5003585 0.6926272
vt 0.350096 0.8439224
vt 0.4257702 0.7126577
vt 0.3704717 0.7679461
vn 0.7751628 0.4719063 -0.4200323
vn 0.08381575 0.9964772 -0.002862947
vn 0.07414156 0.9963977 -0.04116825
vn 0.8826959 0.4695102 -0.0202046
vn 0.9285027 0.370914 -0.01748164
vn 0.808198 0.3747137 -0.4543188
vn 0.8194204 0.3749739 0.433526
vn 0.7807202 0.4770744 0.4035788
vn 0.4716263 0.3902302 0.7907522
vn 0.08053483 0.9957855 0.04387719
vn 0.08381575 0.9964772 -0.002862947
vn 0.4363649 0.5478089 0.7137864
vn -0.04576419 0.4019142 0.914533
vn 0.03592832 0.9974732 0.06128843
vn 0.08053483 0.9957855 0.04387719
vn -0.03688381 0.5568048 0.829824
vn -0.5475022 0.3825602 0.7442373
vn 0.0001867473 0.9976348 0.06873851
vn 0.03592832 0.9974732 0.06128843
vn -0.5318773 0.475575 0.7006674
vn -0.833753 0.3602166 0.4184495
vn -0.05084509 0.9958722 0.07518972
vn 0.0001867473 0.9976348 0.06873851
vn -0.8087623 0.428088 0.4032916
vn -0.9303395 0.3632244 0.05036239
vn -0.07743954 0.9962488 0.03861792
vn -0.05084509 0.9958722 0.07518972
vn -0.8942396 0.4441251 0.05557134
vn -0.8465113 0.3793905 -0.373472
vn -0.0913228 0.9958128 0.004122268
vn -0.07743954 0.9962488 0.03861792
vn -0.7918827 0.5045142 -0.3440745
vn -0.5210701 0.3979595 -0.755059
vn -0.07576694 0.99666 -0.03046966
vn -0.0913228 0.9958128 0.004122268
vn -0.4926361 0.5180637 -0.699228
vn -0.004643751 0.3994598 -0.916739
vn -0.0460357 0.9972235 -0.05853343
vn -0.07576694 0.99666 -0.03046966
vn 0.002965912 0.4817942 -0.8762794
vn 0.4862303 0.383533 -0.7851641
vn -0.00323291 0.996251 -0.08644892
vn -0.0460357 0.9972235 -0.05853343
vn 0.4805476 0.4550883 -0.7496457
vn 0.808198 0.3747137 -0.4543188
vn 0.7751628 0.4719063 -0.4200323
vn 0.07414156 0.9963977 -0.04116825
vn 0.04741496 0.9962516 -0.07235045
vn 0.04741496 0.9962516 -0.07235045
vn -0.00323291 0.996251 -0.08644892
vn 0.07414156 0.9963977 -0.04116825
vn 0 1 0
vn 0.04741496 0.9962516 -0.07235045
vn 0.08381575 0.9964772 -0.002862947
vn -0.00323291 0.996251 -0.08644892
vn 0.08053483 0.9957855 0.04387719
vn -0.0460357 0.9972235 -0.05853343
vn 0.03592832 0.9974732 0.06128843
vn -0.07576694 0.99666 -0.03046966
vn 0.0001867473 0.9976348 0.06873851
vn -0.0913228 0.9958128 0.004122268
vn -0.05084509 0.9958722 0.07518972
vn -0.07743954 0.9962488 0.03861792
g ranchUp_stoneStep03_0
f 3/3/3 2/2/2 1/1/1
f 2/2/2 4/4/4 1/1/1
f 1/1/1 4/4/4 5/5/5
f 6/6/6 1/1/1 5/5/5
f 5/5/5 4/4/4 7/7/7
f 4/4/4 8/8/8 7/7/7
f 7/7/7 8/8/8 9/9/9
f 8/8/8 4/4/4 10/10/10
f 4/4/4 11/11/11 10/10/10
f 8/8/8 12/12/12 9/9/9
f 9/9/9 12/12/12 13/13/13
f 12/12/12 8/8/8 14/14/14
f 8/8/8 15/15/15 14/14/14
f 12/12/12 16/16/16 13/13/13
f 13/13/13 16/16/16 17/17/17
f 16/16/16 12/12/12 18/18/18
f 12/12/12 19/19/19 18/18/18
f 16/16/16 20/20/20 17/17/17
f 17/17/17 20/20/20 21/21/21
f 20/20/20 16/16/16 22/22/22
f 16/16/16 23/23/23 22/22/22
f 20/20/20 24/24/24 21/21/21
f 21/21/21 24/24/24 25/25/25
f 24/24/24 20/20/20 26/26/26
f 20/20/20 27/27/27 26/26/26
f 24/24/24 28/28/28 25/25/25
f 25/25/25 28/28/28 29/29/29
f 28/28/28 24/24/24 30/30/30
f 24/24/24 31/31/31 30/30/30
f 28/28/28 32/32/32 29/29/29
f 29/29/29 32/32/32 33/33/33
f 32/32/32 28/28/28 34/34/34
f 28/28/28 35/35/35 34/34/34
f 32/32/32 36/36/36 33/33/33
f 33/33/33 36/36/36 37/37/37
f 36/36/36 32/32/32 38/38/38
f 32/32/32 39/39/39 38/38/38
f 36/36/36 40/40/40 37/37/37
f 37/37/37 40/40/40 41/41/41
f 40/40/40 36/36/36 42/42/42
f 36/36/36 43/43/43 42/42/42
f 40/40/40 44/44/44 41/41/41
f 41/41/41 44/44/44 45/45/45
f 44/44/44 46/46/46 45/45/45
f 46/46/46 44/44/44 47/47/47
f 44/44/44 48/48/48 47/47/47
f 44/44/44 40/40/40 49/49/49
f 40/40/40 50/50/50 49/49/49
f 53/53/53 52/52/52 51/51/51
f 51/51/51 52/52/52 54/54/54
f 55/55/55 52/52/52 53/53/53
f 54/54/54 52/52/52 56/56/56
f 57/57/57 52/52/52 55/55/55
f 56/56/56 52/52/52 58/58/58
f 59/59/59 52/52/52 57/57/57
f 58/58/58 52/52/52 60/60/60
f 61/61/61 52/52/52 59/59/59
f 60/60/60 52/52/52 62/62/62
f 63/63/63 52/52/52 61/61/61
f 62/62/62 52/52/52 63/63/63
