g ranchUp_stoneStep02
v 0.8824524 0.1663822 -0.3326628
v 0.9391132 0.1881626 -8.96525E-06
v 0.8541678 0.1881626 -0.3180394
v 0.9714881 0.166642 5.072835E-06
v 1.049667 -0.03071041 2.021078E-06
v 0.9510722 -0.03071041 -0.3621342
v 0.9510722 -0.03071041 0.3621382
v 0.8822815 0.1663396 0.3319637
v 0.6950458 -0.03071041 0.6464711
v 0.8025663 0.1881626 0.2917012
v 0.9391132 0.1881626 -8.96525E-06
v 0.6462668 0.1666019 0.5869496
v 0.3655711 -0.03071041 0.8110377
v 0.5756279 0.1881626 0.5366237
v 0.8025663 0.1881626 0.2917012
v 0.3397853 0.1667697 0.7369691
v 0.01725169 -0.03071041 0.870962
v 0.329973 0.1881626 0.7068532
v 0.5756279 0.1881626 0.5366237
v 0.01883342 0.1666673 0.7936415
v -0.3340828 -0.03071041 0.8297169
v 0.01801738 0.1881626 0.762007
v 0.329973 0.1881626 0.7068532
v -0.3038658 0.166871 0.7539387
v -0.6370162 -0.03071041 0.6693642
v -0.2942723 0.1881626 0.7234584
v 0.01801738 0.1881626 0.762007
v -0.5858602 0.1669018 0.60514
v -0.847756 -0.03071041 0.3817793
v -0.539222 0.1881626 0.5558919
v -0.2942723 0.1881626 0.7234584
v -0.7780617 0.1666609 0.347502
v -0.9373128 -0.03071041 0.006651802
v -0.7234676 0.1881626 0.3091689
v -0.539222 0.1881626 0.5558919
v -0.8611074 0.1665825 0.004338569
v -0.8929043 -0.03071041 -0.3854234
v -0.7788473 0.1881626 0.01191608
v -0.7234676 0.1881626 0.3091689
v -0.8250027 0.1662775 -0.3602903
v -0.7203383 -0.03071041 -0.7331377
v -0.744023 0.1881626 -0.3418821
v -0.7788473 0.1881626 0.01191608
v -0.6680648 0.166288 -0.6804704
v -0.4310414 -0.03071041 -0.9604057
v -0.6433913 0.1881626 -0.6603398
v -0.744023 0.1881626 -0.3418821
v -0.4011586 0.1666344 -0.8881547
v -0.0511977 -0.03071041 -1.010304
v -0.3886193 0.1881626 -0.8583024
v -0.6433913 0.1881626 -0.6603398
v -0.05347157 0.1664526 -0.9353251
v 0.343506 -0.03071041 -0.8975602
v -0.05574421 0.1881626 -0.9035765
v -0.3886193 0.1881626 -0.8583024
v 0.3108683 0.1664752 -0.830933
v 0.6968558 -0.03071041 -0.6693785
v 0.2979048 0.1881626 -0.8022325
v -0.05574421 0.1881626 -0.9035765
v 0.6456885 0.1664061 -0.6166422
v 0.9510722 -0.03071041 -0.3621342
v 0.8824524 0.1663822 -0.3326628
v 0.8541678 0.1881626 -0.3180394
v 0.6248667 0.1881626 -0.5930284
v 0.6248667 0.1881626 -0.5930284
v 0.2979048 0.1881626 -0.8022325
v 0.8541678 0.1881626 -0.3180394
v 0.007423508 0.1881626 -0.01462811
v 0.6248667 0.1881626 -0.5930284
v 0.9391132 0.1881626 -8.96525E-06
v 0.2979048 0.1881626 -0.8022325
v 0.8025663 0.1881626 0.2917012
v -0.05574421 0.1881626 -0.9035765
v 0.5756279 0.1881626 0.5366237
v -0.3886193 0.1881626 -0.8583024
v 0.329973 0.1881626 0.7068532
v -0.6433913 0.1881626 -0.6603398
v 0.01801738 0.1881626 0.762007
v -0.744023 0.1881626 -0.3418821
v -0.2942723 0.1881626 0.7234584
v -0.7788473 0.1881626 0.01191608
v -0.539222 0.1881626 0.5558919
v -0.7234676 0.1881626 0.3091689
vt 0.625 0.6510843
vt 0.6096676 0.6884398
vt 0.6247657 0.6884398
vt 0.6093748 0.6514756
vt 0.609375 0.3125
vt 0.6249999 0.3125
vt 0.59375 0.3125
vt 0.5937226 0.6509563
vt 0.578125 0.3125
vt 0.594014 0.6884398
vt 0.6090816 0.6884398
vt 0.5781099 0.6514068
vt 0.5625 0.3125
vt 0.5783197 0.6884399
vt 0.5934781 0.6884398
vt 0.5624926 0.651695
vt 0.546875 0.3125
vt 0.5626488 0.6884398
vt 0.577916 0.6884398
vt 0.5468905 0.651519
vt 0.53125 0.3125
vt 0.5470529 0.6884398
vt 0.5623445 0.6884398
vt 0.5312761 0.6518689
vt 0.515625 0.3125
vt 0.5314642 0.6884398
vt 0.5467076 0.6884398
vt 0.515613 0.651922
vt 0.5000001 0.3125
vt 0.5158918 0.6884398
vt 0.5310423 0.6884398
vt 0.4999942 0.6515081
vt 0.484375 0.3125
vt 0.5002313 0.6884398
vt 0.5153606 0.6884398
vt 0.4843869 0.6513735
vt 0.4687501 0.3125
vt 0.4845601 0.6884398
vt 0.49979 0.6884398
vt 0.4687721 0.6508496
vt 0.453125 0.3125
vt 0.4689411 0.6884398
vt 0.4842076 0.6884398
vt 0.4531561 0.6508678
vt 0.4375 0.3125
vt 0.4533727 0.6884398
vt 0.4685645 0.6884398
vt 0.4375018 0.6514627
vt 0.421875 0.3125
vt 0.4377993 0.6884398
vt 0.4528741 0.6884398
vt 0.4218634 0.6511503
vt 0.40625 0.3125
vt 0.4220936 0.6884398
vt 0.4372112 0.6884398
vt 0.4062595 0.6511892
vt 0.390625 0.3125
vt 0.4063898 0.6884398
vt 0.4216627 0.6884398
vt 0.3906379 0.6510705
vt 0.375 0.3125004
vt 0.3750207 0.6510295
vt 0.3752279 0.6884398
vt 0.3904728 0.6884399
vt 0.3907767 0.6884398
vt 0.4061168 0.6884398
vt 0.6408259 0.9013356
vt 0.5000002 0.8375
vt 0.6077378 0.9508177
vt 0.6523528 0.8435301
vt 0.5579303 0.9841081
vt 0.6408511 0.7858384
vt 0.4994337 0.9957662
vt 0.607964 0.736643
vt 0.441535 0.9842837
vt 0.5584599 0.7035358
vt 0.3926153 0.9515603
vt 0.4999478 0.6918693
vt 0.3596707 0.9022229
vt 0.4415793 0.7034761
vt 0.3480069 0.8437694
vt 0.3923923 0.7363311
vt 0.3595938 0.7854552
vn 0.7994343 0.4245135 -0.4250801
vn 0.06316117 0.9979976 0.003367065
vn 0.05185434 0.998276 -0.02749805
vn 0.8839049 0.467658 0.002866994
vn 0.9307531 0.3656481 0.0001092132
vn 0.8279207 0.3564749 -0.4329815
vn 0.8187836 0.3613422 0.4461223
vn 0.7415593 0.526425 0.4158925
vn 0.564133 0.3607577 0.742703
vn 0.04443943 0.9986167 0.02810594
vn 0.06316117 0.9979976 0.003367065
vn 0.5122522 0.5349343 0.671895
vn 0.2926416 0.3646771 0.8839523
vn 0.03270355 0.998579 0.042077
vn 0.04443943 0.9986167 0.02810594
vn 0.2791179 0.4662802 0.8394498
vn 0.02314312 0.367849 0.9295975
vn 0.02223232 0.9979664 0.05973909
vn 0.03270355 0.998579 0.042077
vn 0.025127 0.4372118 0.8990074
vn -0.2771335 0.3784414 0.8831643
vn 0.001623788 0.9981607 0.06060177
vn 0.02223232 0.9979664 0.05973909
vn -0.2609439 0.4674356 0.8446373
vn -0.6031879 0.3810496 0.7006893
vn -0.02093227 0.997937 0.06069334
vn 0.001623788 0.9981607 0.06060177
vn -0.5653134 0.5101281 0.6482208
vn -0.8458558 0.3676526 0.3864708
vn -0.03844076 0.9983709 0.0421643
vn -0.02093227 0.997937 0.06069334
vn -0.7757244 0.522366 0.3540978
vn -0.9328027 0.3558403 0.05706878
vn -0.05585405 0.9981624 0.02349539
vn -0.03844076 0.9983709 0.0421643
vn -0.8400497 0.5400631 0.0514614
vn -0.9002858 0.347797 -0.2617683
vn -0.05474358 0.9984951 0.003286583
vn -0.05585405 0.9981624 0.02349539
vn -0.8229383 0.5190132 -0.23108
vn -0.7258155 0.3542931 -0.589634
vn -0.05095672 0.998625 -0.01230917
vn -0.05474358 0.9984951 0.003286583
vn -0.6979116 0.4563557 -0.551959
vn -0.3560574 0.3651955 -0.8601484
vn -0.05019488 0.9980674 -0.03663187
vn -0.05095672 0.998625 -0.01230917
vn -0.3458202 0.4305097 -0.8337085
vn 0.07323065 0.3570958 -0.9311926
vn -0.02271298 0.9982438 -0.05471187
vn -0.05019488 0.9980674 -0.03663187
vn 0.07441135 0.4255217 -0.9018837
vn 0.389365 0.3499549 -0.8520132
vn 0.004754593 0.9982898 -0.05826483
vn -0.02271298 0.9982438 -0.05471187
vn 0.3751867 0.4224209 -0.8251033
vn 0.61879 0.349213 -0.7036684
vn 0.02370071 0.9983682 -0.05195491
vn 0.004754593 0.9982898 -0.05826483
vn 0.5966569 0.4214321 -0.6829316
vn 0.8279207 0.3564749 -0.4329815
vn 0.7994343 0.4245135 -0.4250801
vn 0.05185434 0.998276 -0.02749805
vn 0.03777419 0.9983459 -0.04334296
vn 0.03777419 0.9983459 -0.04334296
vn 0.02370071 0.9983682 -0.05195491
vn 0.05185434 0.998276 -0.02749805
vn 0 1 0
vn 0.03777419 0.9983459 -0.04334296
vn 0.06316117 0.9979976 0.003367065
vn 0.02370071 0.9983682 -0.05195491
vn 0.04443943 0.9986167 0.02810594
vn 0.004754593 0.9982898 -0.05826483
vn 0.03270355 0.998579 0.042077
vn -0.02271298 0.9982438 -0.05471187
vn 0.02223232 0.9979664 0.05973909
vn -0.05019488 0.9980674 -0.03663187
vn 0.001623788 0.9981607 0.06060177
vn -0.05095672 0.998625 -0.01230917
vn -0.02093227 0.997937 0.06069334
vn -0.05474358 0.9984951 0.003286583
vn -0.03844076 0.9983709 0.0421643
vn -0.05585405 0.9981624 0.02349539
g ranchUp_stoneStep02_0
f 3/3/3 2/2/2 1/1/1
f 2/2/2 4/4/4 1/1/1
f 1/1/1 4/4/4 5/5/5
f 6/6/6 1/1/1 5/5/5
f 5/5/5 4/4/4 7/7/7
f 4/4/4 8/8/8 7/7/7
f 7/7/7 8/8/8 9/9/9
f 8/8/8 4/4/4 10/10/10
f 4/4/4 11/11/11 10/10/10
f 8/8/8 12/12/12 9/9/9
f 9/9/9 12/12/12 13/13/13
f 12/12/12 8/8/8 14/14/14
f 8/8/8 15/15/15 14/14/14
f 12/12/12 16/16/16 13/13/13
f 13/13/13 16/16/16 17/17/17
f 16/16/16 12/12/12 18/18/18
f 12/12/12 19/19/19 18/18/18
f 16/16/16 20/20/20 17/17/17
f 17/17/17 20/20/20 21/21/21
f 20/20/20 16/16/16 22/22/22
f 16/16/16 23/23/23 22/22/22
f 20/20/20 24/24/24 21/21/21
f 21/21/21 24/24/24 25/25/25
f 24/24/24 20/20/20 26/26/26
f 20/20/20 27/27/27 26/26/26
f 24/24/24 28/28/28 25/25/25
f 25/25/25 28/28/28 29/29/29
f 28/28/28 24/24/24 30/30/30
f 24/24/24 31/31/31 30/30/30
f 28/28/28 32/32/32 29/29/29
f 29/29/29 32/32/32 33/33/33
f 32/32/32 28/28/28 34/34/34
f 28/28/28 35/35/35 34/34/34
f 32/32/32 36/36/36 33/33/33
f 33/33/33 36/36/36 37/37/37
f 36/36/36 32/32/32 38/38/38
f 32/32/32 39/39/39 38/38/38
f 36/36/36 40/40/40 37/37/37
f 37/37/37 40/40/40 41/41/41
f 40/40/40 36/36/36 42/42/42
f 36/36/36 43/43/43 42/42/42
f 40/40/40 44/44/44 41/41/41
f 41/41/41 44/44/44 45/45/45
f 44/44/44 40/40/40 46/46/46
f 40/40/40 47/47/47 46/46/46
f 44/44/44 48/48/48 45/45/45
f 45/45/45 48/48/48 49/49/49
f 48/48/48 44/44/44 50/50/50
f 44/44/44 51/51/51 50/50/50
f 48/48/48 52/52/52 49/49/49
f 49/49/49 52/52/52 53/53/53
f 52/52/52 48/48/48 54/54/54
f 48/48/48 55/55/55 54/54/54
f 52/52/52 56/56/56 53/53/53
f 53/53/53 56/56/56 57/57/57
f 56/56/56 52/52/52 58/58/58
f 52/52/52 59/59/59 58/58/58
f 56/56/56 60/60/60 57/57/57
f 57/57/57 60/60/60 61/61/61
f 60/60/60 62/62/62 61/61/61
f 62/62/62 60/60/60 63/63/63
f 60/60/60 64/64/64 63/63/63
f 60/60/60 56/56/56 65/65/65
f 56/56/56 66/66/66 65/65/65
f 69/69/69 68/68/68 67/67/67
f 67/67/67 68/68/68 70/70/70
f 71/71/71 68/68/68 69/69/69
f 70/70/70 68/68/68 72/72/72
f 73/73/73 68/68/68 71/71/71
f 72/72/72 68/68/68 74/74/74
f 75/75/75 68/68/68 73/73/73
f 74/74/74 68/68/68 76/76/76
f 77/77/77 68/68/68 75/75/75
f 76/76/76 68/68/68 78/78/78
f 79/79/79 68/68/68 77/77/77
f 78/78/78 68/68/68 80/80/80
f 81/81/81 68/68/68 79/79/79
f 80/80/80 68/68/68 82/82/82
f 83/83/83 68/68/68 81/81/81
f 82/82/82 68/68/68 83/83/83
