g ranchUp_stoneBlock06
v -0.3406529 0.1532319 -1.043755
v -0.3406529 0.007680912 -1.083164
v -0.2948738 0.007680912 -1.128943
v -0.255704 0.1532319 -1.128943
v 0.04293617 0.007680912 -1.128943
v 0.04293617 0.1617014 -1.128943
v 0.2850221 0.1908203 -1.128943
v 0.2850221 0.007680912 -1.128943
v 0.3308012 0.007680912 -1.083164
v 0.3308012 0.1908203 -1.083164
v 0.2850221 0.2365994 -1.083164
v 0.3308012 0.1908203 -1.083164
v 0.04293617 0.2365994 -1.083164
v 0.2850223 0.2365994 -0.1960372
v 0.3308012 0.1908203 -0.196037
v 0.2850221 0.2365994 1.171313
v 0.3308012 0.1908203 1.171313
v -0.2586598 0.2365994 -1.037594
v -0.3406529 0.1532319 -1.043755
v -0.3406528 0.1425629 -0.1960372
v -0.2372913 0.2365994 -0.196037
v -0.3406529 0.1908203 1.171313
v -0.2948738 0.2365994 1.171313
v 0.04293609 0.2365994 -0.1960371
v 0.04293617 0.2365994 1.137508
v 0.2850221 0.1908203 1.217092
v 0.3308012 0.1908203 1.171313
v 0.04293617 0.1908203 1.217092
v 0.2850221 0.007680912 1.217092
v 0.3308012 0.007680912 1.171313
v 0.3308011 0.007680912 -0.1960372
v 0.3308012 0.1908203 -0.196037
v 0.3308012 0.007680912 -1.083164
v 0.3308012 0.1908203 -1.083164
v 0.04293617 0.007680912 1.217092
v -0.2948738 0.1908203 1.217092
v -0.2948738 0.007680912 1.217092
v -0.3406529 0.1908203 1.171313
v -0.3406529 0.007680912 1.171313
v -0.3406528 0.1425629 -0.1960372
v -0.3406528 0.007680912 -0.1960372
v -0.3406529 0.1532319 -1.043755
v -0.3406529 0.007680912 -1.083164
vt 0.375 0.549995
vt 0.375 0.75
vt 0.3773499 0.75
vt 0.3773499 0.549995
vt 0.4374659 0.75
vt 0.4374659 0.549995
vt 0.6226501 0.549995
vt 0.62265 0.7500001
vt 0.625 0.75
vt 0.625 0.549995
vt 0.62265 0.4976501
vt 0.625 0.4976501
vt 0.4374659 0.4976501
vt 0.62265 0.331614
vt 0.625 0.331614
vt 0.62265 0.2523499
vt 0.625 0.2523499
vt 0.3773499 0.4976501
vt 0.375 0.4976501
vt 0.375 0.331614
vt 0.3773499 0.331614
vt 0.375 0.2523499
vt 0.3773499 0.2523499
vt 0.4374659 0.331614
vt 0.4374659 0.2523499
vt 0.6226501 0.200005
vt 0.6273499 0.200005
vt 0.4374658 0.200005
vt 0.6226501 -2.793968E-09
vt 0.62735 -1.164153E-09
vt 0.706614 -1.690797E-09
vt 0.706614 0.200005
vt 0.8726501 -2.793968E-09
vt 0.8726501 0.200005
vt 0.4374659 -1.563573E-09
vt 0.3773499 0.200005
vt 0.3773499 -1.164153E-09
vt 0.3726501 0.200005
vt 0.3726501 -2.793968E-09
vt 0.293386 0.200005
vt 0.293386 -2.267324E-09
vt 0.1273499 0.200005
vt 0.1273499 -1.164153E-09
vn -0.9402027 0.338316 -0.03951257
vn -0.9951848 0.02556545 -0.09462317
vn -0.2070491 0.05583868 -0.9767358
vn -0.1341844 0.2654225 -0.9547489
vn 0 0 -1
vn -0.02079394 0.2361868 -0.9714851
vn 0.131046 0.1935566 -0.9722977
vn 0.1680014 0 -0.9857867
vn 0.9987981 -4.281731E-07 -0.04901246
vn 0.980701 0.1909532 -0.04198315
vn 0.1501655 0.9870423 -0.05654935
vn 0.980701 0.1909532 -0.04198315
vn -0.006007362 0.9965359 -0.08294591
vn 0.158028 0.9874347 0
vn 0.9805846 0.1960967 0
vn 0.1631987 0.9860551 0.03258123
vn 0.9808585 0.1927475 0.02765857
vn -0.2148443 0.9748809 -0.05873006
vn -0.9402027 0.338316 -0.03951257
vn -0.9447323 0.3278148 -0.004266876
vn -0.1912182 0.981544 -0.002635231
vn -0.9503089 0.3109208 0.01553377
vn -0.1887857 0.9816957 0.02517307
vn 0 1 0
vn 1.994684E-05 0.9995555 0.02981259
vn 0.1241175 0.2371136 0.9635206
vn 0.9808585 0.1927475 0.02765857
vn 0 0.2640959 0.9644964
vn 0.1570561 0 0.9875896
vn 0.9994757 -5.657178E-07 0.03237851
vn 1 -5.321755E-07 0
vn 0.9805846 0.1960967 0
vn 0.9987981 -4.281731E-07 -0.04901246
vn 0.980701 0.1909532 -0.04198315
vn 0 0 1
vn -0.09280892 0.2443238 0.9652422
vn -0.1185032 0 0.9929537
vn -0.9503089 0.3109208 0.01553377
vn -0.9993114 0 0.03710314
vn -0.9447323 0.3278148 -0.004266876
vn -1 0 0
vn -0.9402027 0.338316 -0.03951257
vn -0.9951848 0.02556545 -0.09462317
g ranchUp_stoneBlock06_0
f 3/3/3 2/2/2 1/1/1
f 4/4/4 3/3/3 1/1/1
f 5/5/5 3/3/3 4/4/4
f 6/6/6 5/5/5 4/4/4
f 6/6/6 7/7/7 5/5/5
f 7/7/7 8/8/8 5/5/5
f 9/9/9 8/8/8 7/7/7
f 10/10/10 9/9/9 7/7/7
f 11/11/11 7/7/7 6/6/6
f 11/11/11 12/12/12 7/7/7
f 13/13/13 6/6/6 4/4/4
f 13/13/13 11/11/11 6/6/6
f 12/12/12 11/11/11 14/14/14
f 14/14/14 11/11/11 13/13/13
f 15/15/15 12/12/12 14/14/14
f 15/15/15 14/14/14 16/16/16
f 17/17/17 15/15/15 16/16/16
f 18/18/18 13/13/13 4/4/4
f 18/18/18 4/4/4 19/19/19
f 18/18/18 19/19/19 20/20/20
f 21/21/21 18/18/18 20/20/20
f 13/13/13 18/18/18 21/21/21
f 21/21/21 20/20/20 22/22/22
f 23/23/23 21/21/21 22/22/22
f 24/24/24 14/14/14 13/13/13
f 24/24/24 13/13/13 21/21/21
f 16/16/16 14/14/14 24/24/24
f 24/24/24 21/21/21 23/23/23
f 25/25/25 16/16/16 24/24/24
f 25/25/25 24/24/24 23/23/23
f 26/26/26 16/16/16 25/25/25
f 26/26/26 27/27/27 16/16/16
f 28/28/28 25/25/25 23/23/23
f 28/28/28 26/26/26 25/25/25
f 26/26/26 29/29/29 27/27/27
f 29/29/29 26/26/26 28/28/28
f 29/29/29 30/30/30 27/27/27
f 30/30/30 31/31/31 27/27/27
f 31/31/31 32/32/32 27/27/27
f 31/31/31 33/33/33 32/32/32
f 33/33/33 34/34/34 32/32/32
f 35/35/35 29/29/29 28/28/28
f 36/36/36 28/28/28 23/23/23
f 35/35/35 28/28/28 36/36/36
f 37/37/37 35/35/35 36/36/36
f 36/36/36 23/23/23 38/38/38
f 39/39/39 37/37/37 36/36/36
f 38/38/38 39/39/39 36/36/36
f 39/39/39 38/38/38 40/40/40
f 41/41/41 39/39/39 40/40/40
f 41/41/41 40/40/40 42/42/42
f 43/43/43 41/41/41 42/42/42
