g rock_round
v 0.982171 -0.1694609 -0.320673
v 1.039311 -0.193457 0.01682064
v 1.092583 -0.04894796 -0.1620483
v 1.073187 0.09058598 0.03042103
v 1.048452 0.04804196 0.2199597
v 1.030877 -0.03523304 0.2453537
v 0.8639819 -0.2401941 0.3213341
v 0.829852 -0.07463608 0.536865
v 0.814317 0.0795809 0.5449889
v 0.418735 -0.2038101 0.7200511
v 0.8755549 0.265561 0.2311609
v 0.749833 0.2505868 0.4614201
v 0.431131 0.4738049 -0.0944759
v 0.848202 0.318127 0.05811601
v 0.87533 0.1671251 -0.4587879
v 0.9931331 0.181382 -0.155436
v 0.592416 0.1866079 0.6443479
v 0.178973 -0.1250801 0.823961
v 0.284995 -0.329004 0.6637963
v 0.12417 -0.4192531 0.5996243
v -0.378683 -0.3579481 0.5997089
v 1.018514 0.07980405 -0.285238
v 1.011722 0.009859058 -0.3495609
v 0.982171 -0.1694609 -0.320673
v 0.316096 0.3563899 0.5208703
v -0.020666 0.4670449 0.4434951
v 0.16444 0.3910069 0.5609692
v 0.290335 0.1762388 0.7794669
v 0.019831 0.2233628 0.7971127
v 0.153379 0.06717486 0.8387239
v -0.206055 -0.04945114 0.8503537
v -0.414602 0.1158739 0.8107688
v -0.4687379 -0.04025713 0.7923887
v -0.578555 -0.2383491 0.587526
v -0.8047799 -0.0661931 0.5940769
v -0.362438 0.2876858 0.6594542
v -0.6732879 0.1088199 0.7034721
v -0.897998 0.0959599 0.503072
v -1.045938 0.02687093 0.4008808
v -1.062852 0.1535179 0.217581
v -0.6954 0.2194919 0.5793529
v -0.816835 0.2755329 0.3468321
v -0.898416 0.272841 -0.08155078
v -1.112352 0.117771 0.004236956
v -1.06328 0.09281303 -0.254601
v -0.966807 0.1796951 -0.3326461
v -0.561523 0.337469 0.4245889
v -0.600499 0.396761 0.227798
v -0.511399 0.421865 -0.2726089
v -0.545488 0.3267891 -0.5058529
v 0.139307 0.4995959 0.02098211
v 0.234318 0.478003 -0.1927909
v -0.285046 0.368833 -0.5019859
v 0.459053 0.3267921 -0.594133
v -0.636587 0.2408921 -0.6361321
v -0.45735 0.1682161 -0.788507
v -0.233997 0.2621711 -0.6862398
v -0.887996 0.1304891 -0.5671849
v 0.266173 0.1748161 -0.800863
v 0.581259 0.2647681 -0.6140278
v 0.612785 0.1077161 -0.754591
v -0.658638 -0.02016988 -0.747141
v -0.928295 -0.1007009 -0.5189471
v 0.921125 0.06604308 -0.523319
v 0.127943 0.05868814 -0.8479961
v -0.459395 -0.1114738 -0.8031871
v -0.701703 -0.1327499 -0.685294
v -0.292355 0.03737314 -0.8525819
v -0.173085 -0.1320399 -0.7884831
v -0.4204599 -0.2718099 -0.6418572
v -0.626167 -0.2942019 -0.4936791
v 0.843796 -0.1331929 -0.5230911
v 0.6696699 -0.07828988 -0.7040719
v 0.357043 -0.06453986 -0.827866
v -0.017617 -0.1216318 -0.816974
v 0.42794 -0.2121439 -0.7122599
v 0.6517779 -0.3063199 -0.439394
v 0.534687 -0.5110719 -0.2172733
v -0.051195 -0.3138409 -0.6529461
v -0.279889 -0.3123009 -0.6348971
v 0.501969 -0.3051399 -0.578609
v 0.254889 -0.40391 -0.5566121
v 0.4927939 -0.3098399 -0.5274301
v 0.339749 -0.4420999 -0.4619971
v 0.293925 -0.5897109 -0.3557824
v 0.198586 -0.4867009 -0.4787301
v 0.11008 -0.4044719 -0.5257016
v -0.40491 -0.3952359 -0.4796391
v -0.163561 -0.4730569 -0.4769224
v -0.299227 -0.3796609 -0.4954782
v -0.273088 -0.6071309 -0.3185802
v -0.359766 -0.5457159 -0.3788794
v -0.549267 -0.5528179 -0.2159585
v -0.385086 -0.711794 -0.05337154
v -0.32931 -0.6338629 -0.2218712
v -0.260689 -0.715865 -0.06536042
v -0.517967 -0.3979389 -0.4697245
v -0.674813 -0.460191 -0.2764855
v -0.85359 -0.2279879 -0.3483911
v -0.529077 -0.633622 -0.08480535
v -0.539573 -0.570668 0.08013763
v -0.6491479 -0.5296749 -0.09641608
v -0.874991 -0.3040549 -0.2149201
v -0.948332 -0.282144 0.008950903
v -1.081112 -0.05916696 -0.2538819
v -1.096547 -0.125822 -0.00483801
v -0.886709 -0.319514 0.1905274
v -0.790961 -0.432524 0.1287119
v -0.699463 -0.46032 0.220554
v -1.048246 0.02817906 -0.368258
v -0.887996 0.1304891 -0.5671849
v -0.966807 0.1796951 -0.3326461
v -1.06328 0.09281303 -0.254601
v -1.112352 0.117771 0.004236956
v -1.045938 0.02687093 0.4008808
v -1.062852 0.1535179 0.217581
v -0.6874489 -0.2310461 0.5118567
v -0.8047799 -0.0661931 0.5940769
v -0.578555 -0.2383491 0.587526
v -0.577691 -0.372535 0.4435965
v -0.378683 -0.3579481 0.5997089
v -0.725923 -0.3587131 0.3661198
v -0.593024 -0.4257831 0.2710435
v -0.307757 -0.489336 0.3679728
v -0.427755 -0.5385351 0.2042426
v -0.098773 -0.481431 0.5075604
v 0.12417 -0.4192531 0.5996243
v -0.272089 -0.525758 0.2957679
v -0.39024 -0.6255571 0.1259629
v 0.293795 -0.5140831 0.3939575
v 0.284995 -0.329004 0.6637963
v -0.000355 -0.5633541 0.3197125
v -0.291863 -0.697591 0.07003534
v -0.09994 -0.636844 0.2872516
v 0.09635099 -0.6463121 0.2720615
v 0.546044 -0.477716 0.3104767
v 0.418735 -0.2038101 0.7200511
v 0.364002 -0.576786 0.1762578
v 0.230148 -0.694038 -0.1021095
v 0.419586 -0.6683969 0.01928748
v 0.452003 -0.5403351 0.2239219
v 0.513214 -0.581012 0.02488556
v 0.470013 -0.573624 -0.2231661
v 0.78959 -0.409598 -0.07339603
v 0.982171 -0.1694609 -0.320673
v 1.039311 -0.193457 0.01682064
v 0.8639819 -0.2401941 0.3213341
v 0.829852 -0.07463608 0.536865
vt 0.8593503 0.2890399
vt 0.8873184 0.2106882
vt 0.8590707 0.2401619
vt 0.8465878 0.2056715
vt 0.8495668 0.1784432
vt 0.8587979 0.1728758
vt 0.8826593 0.145296
vt 0.8383404 0.1166831
vt 0.8211139 0.1263204
vt 0.7705986 0.0545978
vt 0.8123578 0.1733337
vt 0.7993329 0.1413563
vt 0.7434444 0.201616
vt 0.804446 0.193469
vt 0.8085594 0.2545516
vt 0.8278913 0.225533
vt 0.7800769 0.1143278
vt 0.7276964 0.05484831
vt 0.7469703 0.02746445
vt 0.7185938 0.00960654
vt 0.6324896 0.01854408
vt 0.8356773 0.2481281
vt 0.8399023 0.2625191
vt 0.8593503 0.2890399
vt 0.7350875 0.1319224
vt 0.684604 0.1427122
vt 0.7126712 0.128598
vt 0.7346206 0.09560245
vt 0.6962391 0.09577918
vt 0.717842 0.07768822
vt 0.6656917 0.06466329
vt 0.634802 0.08531183
vt 0.6250137 0.06804544
vt 0.5972511 0.04206508
vt 0.5650632 0.08234549
vt 0.6399157 0.1125374
vt 0.5958493 0.0955624
vt 0.5564225 0.1163464
vt 0.5285714 0.1274874
vt 0.5285553 0.1641697
vt 0.5913794 0.1176056
vt 0.5703393 0.1494496
vt 0.5530463 0.2131199
vt 0.516995 0.1991124
vt 0.5225064 0.2420015
vt 0.5433561 0.2562123
vt 0.6091027 0.1420157
vt 0.6014848 0.1681926
vt 0.6124225 0.2294155
vt 0.6090278 0.2629267
vt 0.7036659 0.1892934
vt 0.7154456 0.2118825
vt 0.6450071 0.2536657
vt 0.7452869 0.253906
vt 0.600815 0.2860343
vt 0.6309592 0.2964967
vt 0.6557419 0.2760585
vt 0.5654857 0.3006108
vt 0.7234046 0.2816799
vt 0.7622313 0.2595094
vt 0.7683299 0.279433
vt 0.6077619 0.3218389
vt 0.5706495 0.3568793
vt 0.8154879 0.2681841
vt 0.7093606 0.2970256
vt 0.6388584 0.327018
vt 0.6072758 0.3399532
vt 0.6567653 0.3080773
vt 0.6776474 0.3244957
vt 0.6515976 0.3513172
vt 0.6263063 0.3702354
vt 0.8198844 0.2929117
vt 0.7849925 0.2940964
vt 0.7424932 0.3028475
vt 0.6973721 0.3187665
vt 0.7609047 0.317248
vt 0.8079799 0.3247079
vt 0.8074445 0.3666139
vt 0.7031929 0.3436569
vt 0.6724172 0.3514485
vt 0.7801639 0.3261821
vt 0.7503645 0.3456872
vt 0.783576 0.3304759
vt 0.7672447 0.3511882
vt 0.7670002 0.3711553
vt 0.7479101 0.3591849
vt 0.7317744 0.3534451
vt 0.6623882 0.3727303
vt 0.6993214 0.3713506
vt 0.6761115 0.3674517
vt 0.6950493 0.3956537
vt 0.6791795 0.3898566
vt 0.6597524 0.4113179
vt 0.6943434 0.4283775
vt 0.6920965 0.4074647
vt 0.7088004 0.4237252
vt 0.6479676 0.3772276
vt 0.6372296 0.4036989
vt 0.5945539 0.3873495
vt 0.6736015 0.4269516
vt 0.6724167 0.4474559
vt 0.6502575 0.4265374
vt 0.6043965 0.4092147
vt 0.6009231 0.4407046
vt 0.5596782 0.4054636
vt 0.5716794 0.4409229
vt 0.6168048 0.4652809
vt 0.634557 0.4551903
vt 0.6510309 0.4657066
vt 0.5494709 0.3876784
vt 0.5345695 0.3536162
vt 0.5243559 0.3872533
vt 0.538569 0.404653
vt 0.5382679 0.4470811
vt 0.5705537 0.5006187
vt 0.5436924 0.4789689
vt 0.6431072 0.512958
vt 0.6137599 0.5271489
vt 0.6615205 0.5240607
vt 0.669471 0.4996809
vt 0.7064681 0.5195088
vt 0.6453506 0.4882875
vt 0.6653988 0.4768681
vt 0.7148508 0.4831864
vt 0.6914595 0.4636278
vt 0.7557193 0.4907762
vt 0.8003304 0.492076
vt 0.718477 0.4727144
vt 0.6966164 0.4509335
vt 0.8100694 0.4544756
vt 0.8361785 0.4874151
vt 0.7623774 0.4630918
vt 0.7097198 0.439588
vt 0.7441665 0.4574005
vt 0.7685995 0.4468494
vt 0.8391504 0.424407
vt 0.8664356 0.4849762
vt 0.8055649 0.4247389
vt 0.7701877 0.401396
vt 0.8002816 0.4034201
vt 0.8203074 0.4226488
vt 0.815676 0.3959168
vt 0.796525 0.3735874
vt 0.8487592 0.3558192
vt 0.8593503 0.2890399
vt 0.8937383 0.3424944
vt 0.8927314 0.4008863
vt 0.9136223 0.4333538
vn 0.67609 -0.6358637 -0.3722628
vn 0.7802916 -0.617945 0.09638003
vn 0.9821431 -0.1375915 -0.1283106
vn 0.9190647 0.3862745 0.07817877
vn 0.8914323 0.3012492 0.3385224
vn 0.847705 -0.3082358 0.4317257
vn 0.5956693 -0.6806785 0.4264444
vn 0.5996078 -0.3800961 0.7042708
vn 0.6183927 0.2201296 0.7544094
vn 0.4315878 -0.3932058 0.8118628
vn 0.4919175 0.8304988 0.2613212
vn 0.3926343 0.8519895 0.346341
vn 0.3064614 0.9510008 -0.040973
vn 0.4477175 0.8910867 -0.07425413
vn 0.4809607 0.8206098 -0.3086688
vn 0.6684437 0.7262903 -0.1602664
vn 0.3924139 0.4031086 0.8267496
vn 0.1096389 -0.3748094 0.9205961
vn 0.2478052 -0.6952229 0.674728
vn 0.002271363 -0.7091373 0.7050667
vn -0.1972874 -0.6854934 0.7008398
vn 0.8427116 0.4475156 -0.2992775
vn 0.8854764 -0.002472186 -0.4646779
vn 0.67609 -0.6358637 -0.3722628
vn 0.2640029 0.9140466 0.3079306
vn -0.02899472 0.9743936 0.222972
vn 0.1444972 0.8397082 0.5234603
vn 0.3279169 0.4236251 0.8444006
vn -0.01012883 0.6276358 0.7784411
vn 0.1147107 0.1111204 0.9871645
vn -0.08316926 -0.3435115 0.9354585
vn -0.2159561 0.4306632 0.8762946
vn -0.3228114 -0.3790703 0.8672361
vn -0.407137 -0.5844862 0.7018655
vn -0.5927426 -0.4047911 0.6962761
vn -0.1866987 0.8148667 0.5487585
vn -0.4877002 0.2864855 0.8246664
vn -0.6322231 0.4534525 0.6282314
vn -0.8219031 -0.2971377 0.4859881
vn -0.6758478 0.7098026 0.1985192
vn -0.4036882 0.7541708 0.5179405
vn -0.4686219 0.8425732 0.2654504
vn -0.4562166 0.8868644 -0.07306042
vn -0.9296513 0.3684366 -0.001722467
vn -0.837002 0.508497 -0.2021346
vn -0.5332707 0.8088855 -0.247642
vn -0.2641956 0.8951837 0.3589524
vn -0.2420609 0.9666689 0.08341352
vn -0.2173599 0.9692854 -0.1150671
vn -0.29966 0.8859681 -0.3539272
vn -0.04592162 0.9989078 0.008624279
vn 0.01776266 0.9654624 -0.2599357
vn -0.04114249 0.9279351 -0.370464
vn 0.1956735 0.9029788 -0.3825455
vn -0.3674322 0.7758997 -0.512809
vn -0.2115237 0.5531816 -0.8057591
vn -0.03539094 0.8215464 -0.5690422
vn -0.6369811 0.4189105 -0.6471237
vn 0.05909426 0.6484829 -0.7589321
vn 0.3838085 0.7261955 -0.5703781
vn 0.418071 0.3291106 -0.8467011
vn -0.4633156 0.08298317 -0.8822995
vn -0.6792517 -0.459928 -0.571912
vn 0.745944 0.1467899 -0.649631
vn 0.0180979 0.1562554 -0.9875509
vn -0.1891261 -0.4328011 -0.8814276
vn -0.4414136 -0.6208541 -0.6478381
vn -0.05688851 0.05404126 -0.9969169
vn -0.02645021 -0.4860053 -0.8735555
vn -0.2039001 -0.7407535 -0.6400852
vn -0.4305642 -0.7245547 -0.5381776
vn 0.5941125 -0.5366859 -0.5991648
vn 0.4907148 -0.3639103 -0.791687
vn 0.1665084 -0.2412249 -0.9560782
vn -0.01941461 -0.4941638 -0.8691521
vn 0.2053019 -0.6301997 -0.7487987
vn 0.4386977 -0.7605429 -0.4786637
vn 0.4938121 -0.7778255 -0.3887635
vn -0.006072791 -0.7034032 -0.7107651
vn -0.1025707 -0.7621964 -0.6391682
vn 0.3717246 -0.7112257 -0.5966396
vn 0.07222489 -0.7419084 -0.6665999
vn 0.3875189 -0.8097976 -0.4405189
vn 0.3834863 -0.7114606 -0.5888651
vn 0.167259 -0.8508239 -0.4981196
vn 0.0536375 -0.6667951 -0.7433084
vn -0.05384168 -0.7246767 -0.6869823
vn -0.2247794 -0.7384744 -0.635712
vn -0.0884348 -0.6445877 -0.7593983
vn -0.09562959 -0.7736713 -0.6263288
vn -0.03928281 -0.8613073 -0.5065635
vn -0.304775 -0.7036907 -0.6418191
vn -0.4036554 -0.814015 -0.4176624
vn -0.3347038 -0.935315 -0.1147138
vn -0.1853532 -0.8869486 -0.4230443
vn 0.01891619 -0.9888136 -0.1479523
vn -0.2414711 -0.7148576 -0.6562548
vn -0.5352888 -0.7266961 -0.4305563
vn -0.601047 -0.7046577 -0.3770939
vn -0.706591 -0.7053797 -0.05629139
vn -0.4353656 -0.8600594 0.2659971
vn -0.5348626 -0.8410234 -0.08125026
vn -0.7298958 -0.6321159 -0.2601569
vn -0.6995304 -0.7044293 -0.1201517
vn -0.8482575 -0.4701988 -0.2436642
vn -0.8966409 -0.4397665 0.05138567
vn -0.6873945 -0.6160814 0.3846199
vn -0.6042964 -0.7942107 0.06368022
vn -0.4124611 -0.7481126 0.5198108
vn -0.8749886 0.1082269 -0.4718918
vn -0.6369811 0.4189105 -0.6471237
vn -0.5332707 0.8088855 -0.247642
vn -0.837002 0.508497 -0.2021346
vn -0.9296513 0.3684366 -0.001722467
vn -0.8219031 -0.2971377 0.4859881
vn -0.6758478 0.7098026 0.1985192
vn -0.5630108 -0.6124083 0.5549547
vn -0.5927426 -0.4047911 0.6962761
vn -0.407137 -0.5844862 0.7018655
vn -0.3400493 -0.8183883 0.4632569
vn -0.1972874 -0.6854934 0.7008398
vn -0.5270693 -0.734614 0.4272472
vn -0.2881083 -0.8379423 0.4635151
vn -0.262115 -0.8888419 0.37584
vn -0.2894518 -0.7677523 0.5716414
vn -0.09086934 -0.8504635 0.5181261
vn 0.002271363 -0.7091373 0.7050667
vn -0.2920146 -0.7943808 0.5326222
vn -0.3791852 -0.771309 0.5111762
vn 0.1793601 -0.8746464 0.4503595
vn 0.2478052 -0.6952229 0.674728
vn 0.01836743 -0.8460196 0.5328354
vn -0.1172788 -0.9486502 0.2937831
vn -0.133665 -0.7867699 0.6026002
vn 0.1348932 -0.9150252 0.3801745
vn 0.4858179 -0.7542322 0.441718
vn 0.4315878 -0.3932058 0.8118628
vn 0.2893741 -0.8389397 0.4609151
vn 0.08262647 -0.9892975 -0.1202633
vn 0.3250057 -0.940258 0.1014204
vn 0.2680567 -0.9093139 0.3182671
vn 0.5620998 -0.8211769 0.09855133
vn 0.4648945 -0.8188547 -0.336675
vn 0.5860392 -0.8087127 -0.05041676
vn 0.67609 -0.6358637 -0.3722628
vn 0.7802916 -0.617945 0.09638003
vn 0.5956693 -0.6806785 0.4264444
vn 0.5996078 -0.3800961 0.7042708
g rock_round_0
f 3/3/3 2/2/2 1/1/1
f 3/3/3 4/4/4 2/2/2
f 2/2/2 4/4/4 5/5/5
f 2/2/2 5/5/5 6/6/6
f 7/7/7 2/2/2 6/6/6
f 7/7/7 6/6/6 8/8/8
f 9/9/9 8/8/8 6/6/6
f 6/6/6 5/5/5 9/9/9
f 9/9/9 10/10/10 8/8/8
f 4/4/4 11/11/11 5/5/5
f 12/12/12 9/9/9 5/5/5
f 5/5/5 11/11/11 12/12/12
f 12/12/12 11/11/11 13/13/13
f 11/11/11 14/14/14 13/13/13
f 14/14/14 15/15/15 13/13/13
f 15/15/15 14/14/14 16/16/16
f 16/16/16 14/14/14 11/11/11
f 4/4/4 16/16/16 11/11/11
f 4/4/4 3/3/3 16/16/16
f 17/17/17 10/10/10 9/9/9
f 12/12/12 17/17/17 9/9/9
f 10/10/10 17/17/17 18/18/18
f 18/18/18 19/19/19 10/10/10
f 20/20/20 19/19/19 18/18/18
f 20/20/20 18/18/18 21/21/21
f 3/3/3 22/22/22 16/16/16
f 16/16/16 22/22/22 15/15/15
f 23/23/23 22/22/22 3/3/3
f 22/22/22 23/23/23 15/15/15
f 23/23/23 3/3/3 24/24/24
f 12/12/12 25/25/25 17/17/17
f 12/12/12 13/13/13 25/25/25
f 25/25/25 13/13/13 26/26/26
f 25/25/25 26/26/26 27/27/27
f 17/17/17 25/25/25 28/28/28
f 27/27/27 28/28/28 25/25/25
f 18/18/18 17/17/17 28/28/28
f 29/29/29 28/28/28 27/27/27
f 26/26/26 29/29/29 27/27/27
f 18/18/18 28/28/28 30/30/30
f 29/29/29 30/30/30 28/28/28
f 31/31/31 18/18/18 30/30/30
f 21/21/21 18/18/18 31/31/31
f 32/32/32 30/30/30 29/29/29
f 32/32/32 31/31/31 30/30/30
f 31/31/31 33/33/33 21/21/21
f 32/32/32 33/33/33 31/31/31
f 34/34/34 21/21/21 33/33/33
f 34/34/34 33/33/33 35/35/35
f 36/36/36 32/32/32 29/29/29
f 26/26/26 36/36/36 29/29/29
f 37/37/37 33/33/33 32/32/32
f 35/35/35 33/33/33 37/37/37
f 32/32/32 36/36/36 37/37/37
f 38/38/38 35/35/35 37/37/37
f 38/38/38 39/39/39 35/35/35
f 38/38/38 40/40/40 39/39/39
f 37/37/37 36/36/36 41/41/41
f 38/38/38 37/37/37 41/41/41
f 38/38/38 42/42/42 40/40/40
f 42/42/42 38/38/38 41/41/41
f 40/40/40 42/42/42 43/43/43
f 44/44/44 40/40/40 43/43/43
f 44/44/44 43/43/43 45/45/45
f 46/46/46 45/45/45 43/43/43
f 41/41/41 36/36/36 47/47/47
f 47/47/47 36/36/36 26/26/26
f 48/48/48 42/42/42 41/41/41
f 41/41/41 47/47/47 48/48/48
f 43/43/43 42/42/42 48/48/48
f 48/48/48 47/47/47 26/26/26
f 43/43/43 48/48/48 49/49/49
f 48/48/48 26/26/26 49/49/49
f 50/50/50 46/46/46 43/43/43
f 49/49/49 50/50/50 43/43/43
f 49/49/49 26/26/26 51/51/51
f 51/51/51 26/26/26 13/13/13
f 52/52/52 49/49/49 51/51/51
f 13/13/13 52/52/52 51/51/51
f 52/52/52 53/53/53 49/49/49
f 49/49/49 53/53/53 50/50/50
f 52/52/52 13/13/13 54/54/54
f 53/53/53 52/52/52 54/54/54
f 54/54/54 13/13/13 15/15/15
f 50/50/50 55/55/55 46/46/46
f 56/56/56 55/55/55 50/50/50
f 57/57/57 56/56/56 50/50/50
f 53/53/53 57/57/57 50/50/50
f 57/57/57 53/53/53 54/54/54
f 58/58/58 46/46/46 55/55/55
f 55/55/55 56/56/56 58/58/58
f 57/57/57 54/54/54 59/59/59
f 57/57/57 59/59/59 56/56/56
f 15/15/15 60/60/60 54/54/54
f 59/59/59 54/54/54 60/60/60
f 60/60/60 15/15/15 61/61/61
f 61/61/61 59/59/59 60/60/60
f 58/58/58 56/56/56 62/62/62
f 63/63/63 58/58/58 62/62/62
f 64/64/64 61/61/61 15/15/15
f 64/64/64 15/15/15 23/23/23
f 24/24/24 64/64/64 23/23/23
f 65/65/65 59/59/59 61/61/61
f 56/56/56 59/59/59 65/65/65
f 62/62/62 56/56/56 66/66/66
f 67/67/67 63/63/63 62/62/62
f 66/66/66 67/67/67 62/62/62
f 65/65/65 68/68/68 56/56/56
f 66/66/66 56/56/56 68/68/68
f 68/68/68 69/69/69 66/66/66
f 68/68/68 65/65/65 69/69/69
f 70/70/70 67/67/67 66/66/66
f 66/66/66 69/69/69 70/70/70
f 71/71/71 63/63/63 67/67/67
f 67/67/67 70/70/70 71/71/71
f 72/72/72 64/64/64 24/24/24
f 73/73/73 61/61/61 64/64/64
f 73/73/73 64/64/64 72/72/72
f 61/61/61 74/74/74 65/65/65
f 61/61/61 73/73/73 74/74/74
f 74/74/74 75/75/75 65/65/65
f 65/65/65 75/75/75 69/69/69
f 74/74/74 73/73/73 76/76/76
f 76/76/76 75/75/75 74/74/74
f 72/72/72 76/76/76 73/73/73
f 77/77/77 72/72/72 24/24/24
f 77/77/77 24/24/24 78/78/78
f 75/75/75 79/79/79 69/69/69
f 76/76/76 79/79/79 75/75/75
f 70/70/70 69/69/69 80/80/80
f 80/80/80 69/69/69 79/79/79
f 77/77/77 81/81/81 72/72/72
f 72/72/72 81/81/81 76/76/76
f 79/79/79 76/76/76 82/82/82
f 82/82/82 76/76/76 81/81/81
f 77/77/77 83/83/83 81/81/81
f 77/77/77 78/78/78 83/83/83
f 84/84/84 81/81/81 83/83/83
f 84/84/84 82/82/82 81/81/81
f 84/84/84 83/83/83 78/78/78
f 85/85/85 84/84/84 78/78/78
f 86/86/86 84/84/84 85/85/85
f 82/82/82 87/87/87 79/79/79
f 87/87/87 82/82/82 84/84/84
f 84/84/84 86/86/86 87/87/87
f 80/80/80 79/79/79 87/87/87
f 70/70/70 80/80/80 88/88/88
f 88/88/88 71/71/71 70/70/70
f 87/87/87 86/86/86 89/89/89
f 85/85/85 89/89/89 86/86/86
f 80/80/80 87/87/87 90/90/90
f 89/89/89 90/90/90 87/87/87
f 88/88/88 80/80/80 90/90/90
f 90/90/90 89/89/89 91/91/91
f 85/85/85 91/91/91 89/89/89
f 92/92/92 88/88/88 90/90/90
f 90/90/90 91/91/91 92/92/92
f 88/88/88 92/92/92 93/93/93
f 92/92/92 94/94/94 93/93/93
f 95/95/95 92/92/92 91/91/91
f 92/92/92 95/95/95 94/94/94
f 95/95/95 91/91/91 96/96/96
f 96/96/96 91/91/91 85/85/85
f 94/94/94 95/95/95 96/96/96
f 88/88/88 97/97/97 71/71/71
f 97/97/97 88/88/88 93/93/93
f 97/97/97 98/98/98 71/71/71
f 93/93/93 98/98/98 97/97/97
f 99/99/99 71/71/71 98/98/98
f 71/71/71 99/99/99 63/63/63
f 94/94/94 100/100/100 93/93/93
f 101/101/101 93/93/93 100/100/100
f 101/101/101 100/100/100 94/94/94
f 102/102/102 98/98/98 93/93/93
f 102/102/102 93/93/93 101/101/101
f 98/98/98 103/103/103 99/99/99
f 103/103/103 98/98/98 102/102/102
f 104/104/104 99/99/99 103/103/103
f 104/104/104 103/103/103 102/102/102
f 99/99/99 105/105/105 63/63/63
f 106/106/106 99/99/99 104/104/104
f 105/105/105 99/99/99 106/106/106
f 104/104/104 107/107/107 106/106/106
f 104/104/104 102/102/102 108/108/108
f 108/108/108 107/107/107 104/104/104
f 109/109/109 108/108/108 102/102/102
f 109/109/109 102/102/102 101/101/101
f 109/109/109 107/107/107 108/108/108
f 110/110/110 63/63/63 105/105/105
f 110/110/110 111/111/111 63/63/63
f 110/110/110 112/112/112 111/111/111
f 112/112/112 110/110/110 113/113/113
f 113/113/113 110/110/110 105/105/105
f 114/114/114 113/113/113 105/105/105
f 114/114/114 105/105/105 106/106/106
f 114/114/114 106/106/106 115/115/115
f 106/106/106 107/107/107 115/115/115
f 115/115/115 116/116/116 114/114/114
f 115/115/115 107/107/107 117/117/117
f 117/117/117 118/118/118 115/115/115
f 118/118/118 117/117/117 119/119/119
f 120/120/120 119/119/119 117/117/117
f 120/120/120 121/121/121 119/119/119
f 122/122/122 117/117/117 107/107/107
f 120/120/120 117/117/117 122/122/122
f 123/123/123 122/122/122 107/107/107
f 123/123/123 120/120/120 122/122/122
f 123/123/123 107/107/107 109/109/109
f 124/124/124 121/121/121 120/120/120
f 120/120/120 123/123/123 124/124/124
f 109/109/109 125/125/125 123/123/123
f 109/109/109 101/101/101 125/125/125
f 121/121/121 124/124/124 126/126/126
f 126/126/126 127/127/127 121/121/121
f 128/128/128 124/124/124 123/123/123
f 125/125/125 128/128/128 123/123/123
f 128/128/128 126/126/126 124/124/124
f 125/125/125 101/101/101 129/129/129
f 129/129/129 128/128/128 125/125/125
f 129/129/129 101/101/101 94/94/94
f 127/127/127 126/126/126 130/130/130
f 127/127/127 130/130/130 131/131/131
f 132/132/132 126/126/126 128/128/128
f 130/130/130 126/126/126 132/132/132
f 94/94/94 133/133/133 129/129/129
f 96/96/96 133/133/133 94/94/94
f 129/129/129 134/134/134 128/128/128
f 133/133/133 134/134/134 129/129/129
f 132/132/132 128/128/128 134/134/134
f 135/135/135 134/134/134 133/133/133
f 133/133/133 96/96/96 135/135/135
f 134/134/134 135/135/135 132/132/132
f 131/131/131 130/130/130 136/136/136
f 136/136/136 137/137/137 131/131/131
f 130/130/130 132/132/132 138/138/138
f 135/135/135 138/138/138 132/132/132
f 139/139/139 135/135/135 96/96/96
f 85/85/85 139/139/139 96/96/96
f 135/135/135 139/139/139 140/140/140
f 139/139/139 85/85/85 140/140/140
f 140/140/140 138/138/138 135/135/135
f 138/138/138 141/141/141 130/130/130
f 141/141/141 136/136/136 130/130/130
f 141/141/141 138/138/138 142/142/142
f 138/138/138 140/140/140 142/142/142
f 142/142/142 136/136/136 141/141/141
f 143/143/143 140/140/140 85/85/85
f 143/143/143 142/142/142 140/140/140
f 78/78/78 143/143/143 85/85/85
f 78/78/78 142/142/142 143/143/143
f 144/144/144 142/142/142 78/78/78
f 136/136/136 142/142/142 144/144/144
f 144/144/144 78/78/78 145/145/145
f 146/146/146 144/144/144 145/145/145
f 146/146/146 147/147/147 144/144/144
f 136/136/136 144/144/144 147/147/147
f 136/136/136 147/147/147 137/137/137
f 148/148/148 137/137/137 147/147/147
