g rockBoulder02_COL
v -0.165686 -0.8617225 0.4920007
v -0.6986621 -0.8034102 1.046443
v 0.4906079 -0.9757527 1.150625
v 0.2152624 0.940542 1.299279
v 1.402584 0.9208514 1.00102
v 1.00979 0.7312747 1.51155
v 0.7659692 0.4385509 1.922419
v 1.781317 0.2718128 1.151076
v 0.6524683 0.9325975 0.7095466
v 1.883308 0.3602055 0.5632976
v 1.059593 1.107823 0.08358214
v -0.3483154 0.9470068 0.8819755
v -0.634397 0.5679917 1.434022
v -1.507461 0.4362205 0.354899
v -0.1966394 0.834237 -0.09855979
v -0.851427 0.8895903 0.04222847
v -1.174431 0.879254 -0.4981832
v 0.9268713 1.05662 -0.3777621
v 1.38753 0.7846472 -0.1446891
v 1.067491 0.328558 -1.293476
v -0.08380982 0.9120221 -0.9599082
v 1.829653 -0.003155012 -0.06463679
v 1.533849 0.1186688 -0.8378173
v 1.850027 -0.1419609 0.9304132
v 1.579205 -0.4779153 -0.5264208
v 1.470378 -0.4885928 0.3411788
v 1.50287 -0.6066123 1.4641
v 1.226699 -0.3254523 -1.220097
v 1.094269 -0.213399 1.921164
v -0.1963171 0.1729645 1.821262
v 1.061781 -0.8945784 -1.145949
v 1.313623 -0.8846063 -0.6760864
v 0.6717066 -0.4152177 -1.420302
v 1.178037 -0.9771309 1.466694
v 0.4154016 -0.4631307 1.979903
v -0.3863513 -0.2817532 1.685005
v 0.8973743 -1.107823 0.6463598
v 1.001038 -1.080644 0.09500489
v 0.5432251 -0.8224443 1.731403
v -0.8301916 -0.3852758 1.187824
v 0.4906079 -0.9757527 1.150625
v -0.6986621 -0.8034102 1.046443
v -0.165686 -0.8617225 0.4920007
v -1.268153 -0.6089768 0.5627742
v -0.9936987 -1.015062 -0.0639888
v -1.703593 -0.4643336 0.04783572
v -1.812245 0.1257502 -0.4518278
v -1.883308 -0.5135713 -0.6679721
v -0.2126269 -0.9785954 -0.4368486
v -1.633934 -0.04149204 -1.239678
v -0.8258471 -0.9274095 -0.8111017
v 0.1354211 -1.031269 -0.9915243
v -1.098166 0.6749241 -1.159451
v -0.4163269 0.5084285 -1.59927
v -0.8214197 0.2065012 -1.600653
v -0.2838354 -0.01453939 -1.979903
v -1.423496 -0.5685247 -1.189276
v -0.7430786 -0.3979041 -1.915839
v 0.1186292 -0.8350891 -1.564593
v -0.7840369 -0.7255867 -1.561256
v 0.8585656 -1.062159 -0.7483423
vt 0 0
vt 0 0
vt 0 0
vt 0 0
vt 0 0
vt 0 0
vt 0 0
vt 0 0
vt 0 0
vt 0 0
vt 0 0
vt 0 0
vt 0 0
vt 0 0
vt 0 0
vt 0 0
vt 0 0
vt 0 0
vt 0 0
vt 0 0
vt 0 0
vt 0 0
vt 0 0
vt 0 0
vt 0 0
vt 0 0
vt 0 0
vt 0 0
vt 0 0
vt 0 0
vt 0 0
vt 0 0
vt 0 0
vt 0 0
vt 0 0
vt 0 0
vt 0 0
vt 0 0
vt 0 0
vt 0 0
vt 0 0
vt 0 0
vt 0 0
vt 0 0
vt 0 0
vt 0 0
vt 0 0
vt 0 0
vt 0 0
vt 0 0
vt 0 0
vt 0 0
vt 0 0
vt 0 0
vt 0 0
vt 0 0
vt 0 0
vt 0 0
vt 0 0
vt 0 0
vt 0 0
vn -0.1406732 -0.9895658 -0.03115123
vn -0.1406732 -0.9895658 -0.03115123
vn -0.1406732 -0.9895658 -0.03115123
vn -0.08230242 0.915327 0.3942116
vn 0.4931935 0.8233892 0.2806963
vn 0.3387986 0.715897 0.6104974
vn 0.1542981 0.4191948 0.8946887
vn 0.8423198 0.2591061 0.4726111
vn -0.06180266 0.9963428 0.05900254
vn 0.9379559 0.3453838 -0.03079855
vn 0.2456912 0.968865 -0.0305989
vn -0.2346072 0.9585295 0.161805
vn -0.5726911 0.4938924 0.6542899
vn -0.7971836 0.4516907 0.4005918
vn -0.05000224 0.9987446 -0.003000134
vn -0.2137917 0.972962 0.08739658
vn -0.4457901 0.8916802 -0.07859825
vn 0.2377115 0.9237448 -0.3003145
vn 0.7182157 0.6470141 -0.2560056
vn 0.5088094 0.4277079 -0.7471138
vn 0.02610072 0.943126 -0.3314092
vn 0.9796138 -0.06780095 -0.1891027
vn 0.8504683 0.2217917 -0.4769822
vn 0.9384271 -0.3174092 0.1364039
vn 0.8977662 -0.3870854 -0.2101921
vn 0.7662912 -0.6424926 -0.0009999885
vn 0.784873 -0.4520845 0.4237854
vn 0.6405189 -0.1381041 -0.7554223
vn 0.4113914 -0.06439865 0.9091809
vn -0.3644178 0.1989097 0.9097443
vn 0.4815842 -0.6435789 -0.5948806
vn 0.6982786 -0.6928787 -0.1797945
vn 0.4054941 -0.1582977 -0.9002869
vn 0.4243943 -0.8211889 0.3814949
vn -0.1074966 -0.2792913 0.9541703
vn -0.5500029 -0.2823015 0.7860042
vn 0.2346092 -0.9720383 0.01000039
vn 0.3573932 -0.9321824 0.05749892
vn -0.0750982 -0.7616818 0.6435846
vn -0.7295042 -0.2183013 0.6482037
vn -0.1551952 -0.9732696 0.1692947
vn -0.4151011 -0.7925022 0.4468012
vn -0.07340351 -0.9944477 0.07540362
vn -0.7206967 -0.4880977 0.4922976
vn -0.2705916 -0.9591702 0.08229744
vn -0.8440779 -0.3747903 0.3834901
vn -0.9320205 0.362308 -0.008400185
vn -0.8815074 -0.4498037 -0.1436012
vn -0.05519907 -0.9975833 0.04219929
vn -0.7795336 0.1787077 -0.6003259
vn -0.2234022 -0.9558094 -0.1911019
vn -0.05510291 -0.9817516 -0.1820095
vn -0.4556777 0.7325642 -0.5056753
vn -0.07330233 0.6914219 -0.7187228
vn -0.4234121 0.4358124 -0.7942227
vn 0.06749908 0.1824975 -0.9808866
vn -0.5706119 -0.6519136 -0.4994104
vn -0.3183006 -0.2404005 -0.9170018
vn 0.1548066 -0.7005298 -0.6966296
vn -0.2874996 -0.8162988 -0.5009993
vn 0.1622042 -0.9740249 -0.1580041
g rockBoulder02_COL_0
f 3/3/3 2/2/2 1/1/1
f 6/6/6 5/5/5 4/4/4
f 7/7/7 6/6/6 4/4/4
f 5/5/5 6/6/6 8/8/8
f 7/7/7 8/8/8 6/6/6
f 9/9/9 4/4/4 5/5/5
f 8/8/8 10/10/10 5/5/5
f 9/9/9 5/5/5 11/11/11
f 10/10/10 11/11/11 5/5/5
f 9/9/9 12/12/12 4/4/4
f 7/7/7 4/4/4 13/13/13
f 13/13/13 4/4/4 12/12/12
f 14/14/14 13/13/13 12/12/12
f 15/15/15 12/12/12 9/9/9
f 9/9/9 11/11/11 15/15/15
f 16/16/16 14/14/14 12/12/12
f 12/12/12 15/15/15 16/16/16
f 16/16/16 17/17/17 14/14/14
f 16/16/16 15/15/15 17/17/17
f 11/11/11 18/18/18 15/15/15
f 10/10/10 19/19/19 11/11/11
f 11/11/11 19/19/19 18/18/18
f 18/18/18 19/19/19 20/20/20
f 15/15/15 18/18/18 21/21/21
f 15/15/15 21/21/21 17/17/17
f 20/20/20 21/21/21 18/18/18
f 22/22/22 19/19/19 10/10/10
f 20/20/20 19/19/19 23/23/23
f 23/23/23 19/19/19 22/22/22
f 24/24/24 22/22/22 10/10/10
f 10/10/10 8/8/8 24/24/24
f 22/22/22 25/25/25 23/23/23
f 24/24/24 26/26/26 22/22/22
f 25/25/25 22/22/22 26/26/26
f 27/27/27 24/24/24 8/8/8
f 26/26/26 24/24/24 27/27/27
f 23/23/23 28/28/28 20/20/20
f 28/28/28 23/23/23 25/25/25
f 29/29/29 27/27/27 8/8/8
f 29/29/29 8/8/8 7/7/7
f 7/7/7 30/30/30 29/29/29
f 30/30/30 7/7/7 13/13/13
f 31/31/31 28/28/28 25/25/25
f 25/25/25 26/26/26 32/32/32
f 31/31/31 25/25/25 32/32/32
f 33/33/33 20/20/20 28/28/28
f 33/33/33 28/28/28 31/31/31
f 34/34/34 27/27/27 29/29/29
f 29/29/29 30/30/30 35/35/35
f 35/35/35 34/34/34 29/29/29
f 13/13/13 36/36/36 30/30/30
f 35/35/35 30/30/30 36/36/36
f 27/27/27 37/37/37 26/26/26
f 27/27/27 34/34/34 37/37/37
f 32/32/32 26/26/26 38/38/38
f 38/38/38 26/26/26 37/37/37
f 35/35/35 39/39/39 34/34/34
f 35/35/35 36/36/36 39/39/39
f 40/40/40 36/36/36 13/13/13
f 40/40/40 13/13/13 14/14/14
f 37/37/37 34/34/34 41/41/41
f 34/34/34 39/39/39 41/41/41
f 39/39/39 36/36/36 42/42/42
f 42/42/42 41/41/41 39/39/39
f 42/42/42 36/36/36 40/40/40
f 43/43/43 37/37/37 41/41/41
f 37/37/37 43/43/43 38/38/38
f 40/40/40 44/44/44 42/42/42
f 14/14/14 44/44/44 40/40/40
f 43/43/43 42/42/42 45/45/45
f 45/45/45 42/42/42 44/44/44
f 46/46/46 44/44/44 14/14/14
f 46/46/46 45/45/45 44/44/44
f 14/14/14 47/47/47 46/46/46
f 14/14/14 17/17/17 47/47/47
f 48/48/48 46/46/46 47/47/47
f 48/48/48 45/45/45 46/46/46
f 43/43/43 45/45/45 49/49/49
f 38/38/38 43/43/43 49/49/49
f 47/47/47 17/17/17 50/50/50
f 50/50/50 48/48/48 47/47/47
f 51/51/51 49/49/49 45/45/45
f 51/51/51 45/45/45 48/48/48
f 49/49/49 52/52/52 38/38/38
f 52/52/52 49/49/49 51/51/51
f 17/17/17 53/53/53 50/50/50
f 21/21/21 53/53/53 17/17/17
f 54/54/54 53/53/53 21/21/21
f 20/20/20 54/54/54 21/21/21
f 53/53/53 54/54/54 55/55/55
f 53/53/53 55/55/55 50/50/50
f 56/56/56 54/54/54 20/20/20
f 54/54/54 56/56/56 55/55/55
f 20/20/20 33/33/33 56/56/56
f 48/48/48 50/50/50 57/57/57
f 48/48/48 57/57/57 51/51/51
f 58/58/58 50/50/50 55/55/55
f 56/56/56 58/58/58 55/55/55
f 57/57/57 50/50/50 58/58/58
f 59/59/59 56/56/56 33/33/33
f 56/56/56 59/59/59 58/58/58
f 52/52/52 51/51/51 59/59/59
f 33/33/33 31/31/31 59/59/59
f 52/52/52 59/59/59 31/31/31
f 57/57/57 60/60/60 51/51/51
f 58/58/58 60/60/60 57/57/57
f 60/60/60 59/59/59 51/51/51
f 59/59/59 60/60/60 58/58/58
f 52/52/52 31/31/31 61/61/61
f 61/61/61 31/31/31 32/32/32
f 61/61/61 38/38/38 52/52/52
f 32/32/32 38/38/38 61/61/61
