g rockDeco11
v -0.6926524 0.06766065 -0.3001383
v -0.2673448 0.07243937 -0.2882804
v -0.4648936 0.106528 -0.2977603
v -0.2653526 -0.08769009 -0.2850333
v -0.6926524 0.06766065 -0.3001383
v -0.6740733 -0.08759233 -0.2923307
v 0.3086416 0.12226 -0.5205753
v 0.4926259 0.04273147 -0.5381339
v 0.6181142 0.1790999 -0.3522159
v 0.6135048 0.1420185 -0.2730435
v 0.4586659 0.1481332 -0.1785904
v 0.6181142 0.1790999 -0.3522159
v 0.6181142 0.1790999 -0.3522159
v 0.6572206 -0.02702975 -0.3068277
v 0.6135048 0.1420185 -0.2730435
v 0.3029677 0.09735534 0.3367196
v 0.3086318 -0.06799928 0.3123349
v 0.4407167 0.03034434 0.4619198
v 0.2092031 -0.0678005 0.7861971
v 0.1721279 0.0502892 0.7697274
v 0.3686171 0.07186978 0.7539364
v 0.3686171 0.07186978 0.7539364
v 0.1721279 0.0502892 0.7697274
v 0.09507221 0.09917382 0.6629134
v -0.0003135327 0.03879165 0.5808773
v 0.1718203 0.08839442 0.3854379
v 0.02741108 0.03261394 0.475306
v 0.3029677 0.09735534 0.3367196
v 0.3686171 0.07186978 0.7539364
v 0.4766884 0.03504582 0.6298251
v 0.4407167 0.03034434 0.4619198
v 0.09507221 0.09917382 0.6629134
v 0.1721279 0.0502892 0.7697274
v -0.0003135327 0.03879165 0.5808773
v 0.1721279 0.0502892 0.7697274
v 0.001229436 -0.06660011 0.5783285
v 0.2092031 -0.0678005 0.7861971
v -0.27171 0.07012895 -0.9143253
v -0.3917735 -0.03548033 -0.7916227
v -0.2048497 -0.064488 -0.9680021
v -0.405709 0.04543595 -0.7622306
v -0.27171 0.07012895 -0.9143253
v -0.3888194 -0.0673627 -0.6011392
v -0.2048497 -0.064488 -0.9680021
v -0.3917735 -0.03548033 -0.7916227
v -0.1309971 0.08990732 -0.9217862
v -0.27171 0.07012895 -0.9143253
v -0.2048497 -0.064488 -0.9680021
v 0.1059902 0.06744874 -0.4945743
v 0.1392958 -0.06798844 -0.5662931
v 0.04225482 -0.06587306 -0.4658902
v -0.4634239 0.09289051 0.2894686
v -0.4432627 -0.06279886 0.3111264
v -0.7240636 -0.06702438 0.006468162
v -0.7365879 0.06567353 -0.007694435
v -0.7365879 0.06567353 -0.007694435
v -0.6926524 0.06766065 -0.3001383
v -0.4648936 0.106528 -0.2977603
v -0.4634239 0.09289051 0.2894686
v -0.4648936 0.106528 -0.2977603
v -0.1568174 0.05350604 0.04066982
v -0.2673448 0.07243937 -0.2882804
v -0.7365879 0.06567353 -0.007694435
v -0.7240636 -0.06702438 0.006468162
v -0.6926524 0.06766065 -0.3001383
v -0.6740733 -0.08759233 -0.2923307
v -0.2673448 0.07243937 -0.2882804
v -0.2653526 -0.08769009 -0.2850333
v -0.1568174 0.05350604 0.04066982
v -0.1607872 -0.06962523 0.03863369
v -0.1568174 0.05350604 0.04066982
v -0.4432627 -0.06279886 0.3111264
v -0.4634239 0.09289051 0.2894686
v -0.1607872 -0.06962523 0.03863369
v 0.6181142 0.1790999 -0.3522159
v 0.4920937 -0.02683282 -0.5377799
v 0.6572206 -0.02702975 -0.3068277
v 0.4926259 0.04273147 -0.5381339
v 0.6572206 -0.02702975 -0.3068277
v 0.3413222 -0.0275119 -0.1131803
v 0.6135048 0.1420185 -0.2730435
v 0.4586659 0.1481332 -0.1785904
v 0.2576357 -0.02984007 -0.4983097
v 0.4926259 0.04273147 -0.5381339
v 0.3086416 0.12226 -0.5205753
v 0.4920937 -0.02683282 -0.5377799
v 0.6181142 0.1790999 -0.3522159
v 0.4586659 0.1481332 -0.1785904
v 0.3086416 0.12226 -0.5205753
v 0.2497206 0.1007287 -0.3696769
v 0.2576357 -0.02984007 -0.4983097
v 0.3086416 0.12226 -0.5205753
v 0.2438027 -0.02931506 -0.2310245
v 0.2993007 0.03837746 -0.1778653
v 0.4586659 0.1481332 -0.1785904
v 0.3413222 -0.0275119 -0.1131803
v 0.3783925 -0.06775549 0.6196786
v 0.4407167 0.03034434 0.4619198
v 0.3086318 -0.06799928 0.3123349
v 0.4766884 0.03504582 0.6298251
v 0.02741108 0.03261394 0.475306
v 0.02604877 -0.06457152 0.4808627
v 0.3086318 -0.06799928 0.3123349
v 0.1718203 0.08839442 0.3854379
v 0.3029677 0.09735534 0.3367196
v -0.0003135327 0.03879165 0.5808773
v 0.02604877 -0.06457152 0.4808627
v 0.02741108 0.03261394 0.475306
v 0.001229436 -0.06660011 0.5783285
v 0.4766884 0.03504582 0.6298251
v 0.2092031 -0.0678005 0.7861971
v 0.3686171 0.07186978 0.7539364
v 0.3783925 -0.06775549 0.6196786
v -0.1309971 0.08990732 -0.9217862
v -0.2048497 -0.064488 -0.9680021
v 0.1069667 -0.06013545 -0.7403385
v 0.1322841 0.09199119 -0.6853751
v -0.27171 0.07012895 -0.9143253
v -0.09876568 0.1096517 -0.5263638
v -0.405709 0.04543595 -0.7622306
v -0.3797325 0.05535455 -0.5657877
v -0.2016319 0.06918529 -0.4341031
v 0.1059902 0.06744874 -0.4945743
v 0.1322841 0.09199119 -0.6853751
v 0.1059902 0.06744874 -0.4945743
v -0.1309971 0.08990732 -0.9217862
v -0.27171 0.07012895 -0.9143253
v -0.2071788 -0.0640524 -0.4416495
v -0.2016319 0.06918529 -0.4341031
v 0.04225482 -0.06587306 -0.4658902
v 0.1059902 0.06744874 -0.4945743
v 0.1322841 0.09199119 -0.6853751
v 0.1392958 -0.06798844 -0.5662931
v 0.1059902 0.06744874 -0.4945743
v 0.1069667 -0.06013545 -0.7403385
v -0.3797325 0.05535455 -0.5657877
v -0.3888194 -0.0673627 -0.6011392
v -0.405709 0.04543595 -0.7622306
v -0.3917735 -0.03548033 -0.7916227
v -0.2016319 0.06918529 -0.4341031
v -0.2071788 -0.0640524 -0.4416495
v -0.3797325 0.05535455 -0.5657877
v -0.3888194 -0.0673627 -0.6011392
vt 0.2434854 0.376061
vt 0.234178 0.4087223
vt 0.2419086 0.3947143
vt 0.2173445 0.4035387
vt 0.2434854 0.376061
vt 0.2265905 0.3727738
vt 0.4613399 0.6379312
vt 0.4517711 0.6549634
vt 0.47151 0.6729097
vt 0.480196 0.6704529
vt 0.4836742 0.6564616
vt 0.47151 0.6729097
vt 0.47151 0.6729097
vt 0.4989194 0.680227
vt 0.480196 0.6704529
vt 0.7847306 0.9728289
vt 0.7875144 0.9978524
vt 0.7999669 0.9843304
vt 0.8385406 0.9735379
vt 0.8295198 0.9575994
vt 0.8200348 0.9701779
vt 0.8200348 0.9701779
vt 0.8295198 0.9575994
vt 0.8156163 0.9534094
vt 0.8094181 0.9417142
vt 0.7912693 0.9609469
vt 0.7997249 0.9452797
vt 0.7847306 0.9728289
vt 0.8200348 0.9701779
vt 0.8131449 0.9816306
vt 0.7999669 0.9843304
vt 0.8156163 0.9534094
vt 0.8295198 0.9575994
vt 0.8094181 0.9417142
vt 0.8295198 0.9575994
vt 0.8182973 0.9321029
vt 0.8406377 0.9468625
vt 0.246048 0.975324
vt 0.2428745 0.9560025
vt 0.2267371 0.9708405
vt 0.252233 0.9571317
vt 0.246048 0.975324
vt 0.245526 0.9386963
vt 0.2267371 0.9708405
vt 0.2428745 0.9560025
vt 0.2569739 0.9810507
vt 0.246048 0.975324
vt 0.2469146 0.9959309
vt 0.2978964 0.9704323
vt 0.3132605 0.9610813
vt 0.3042355 0.9530456
vt 0.2843426 0.4067393
vt 0.2967637 0.3946225
vt 0.2742088 0.3705765
vt 0.2656642 0.3821072
vt 0.2656642 0.3821072
vt 0.2434854 0.376061
vt 0.2419086 0.3947143
vt 0.2843426 0.4067393
vt 0.2419086 0.3947143
vt 0.2576148 0.4221579
vt 0.234178 0.4087223
vt 0.2656642 0.3821072
vt 0.2742088 0.3705765
vt 0.2434854 0.376061
vt 0.2520592 0.3609108
vt 0.234178 0.4087223
vt 0.2296372 0.4263263
vt 0.2576148 0.4221579
vt 0.2568922 0.4352811
vt 0.2576148 0.4221579
vt 0.2880032 0.4242771
vt 0.2843426 0.4067393
vt 0.2568922 0.4352811
vt 0.47151 0.6729097
vt 0.4431261 0.6559587
vt 0.4464073 0.6810212
vt 0.4517711 0.6549634
vt 0.4989194 0.680227
vt 0.5050974 0.6446257
vt 0.480196 0.6704529
vt 0.4836742 0.6564616
vt 0.4416845 0.6347495
vt 0.4517711 0.6549634
vt 0.4613399 0.6379312
vt 0.4431261 0.6559587
vt 0.47151 0.6729097
vt 0.4836742 0.6564616
vt 0.4613399 0.6379312
vt 0.4761722 0.6364879
vt 0.4733039 0.6193095
vt 0.4613399 0.6379312
vt 0.4968294 0.6316234
vt 0.4946263 0.6417695
vt 0.4836742 0.6564616
vt 0.5050974 0.6446257
vt 0.8208408 0.9921893
vt 0.7999669 0.9843304
vt 0.7875144 0.9978524
vt 0.8131449 0.9816306
vt 0.7997249 0.9452797
vt 0.7936404 0.9350749
vt 0.7697009 0.9552631
vt 0.7912693 0.9609469
vt 0.7847306 0.9728289
vt 0.8094181 0.9417142
vt 0.7936404 0.9350749
vt 0.7997249 0.9452797
vt 0.8015321 0.9307278
vt 0.8131449 0.9816306
vt 0.8385406 0.9735379
vt 0.8200348 0.9701779
vt 0.8208408 0.9921893
vt 0.2569739 0.9810507
vt 0.2469146 0.9959309
vt 0.2845009 0.9986787
vt 0.2846493 0.9804599
vt 0.246048 0.975324
vt 0.2810927 0.9604548
vt 0.252233 0.9571317
vt 0.2617446 0.9431415
vt 0.2802036 0.9483924
vt 0.2978964 0.9704323
vt 0.2846493 0.9804599
vt 0.2978964 0.9704323
vt 0.2569739 0.9810507
vt 0.246048 0.975324
vt 0.2873629 0.9353396
vt 0.2802036 0.9483924
vt 0.3042355 0.9530456
vt 0.2978964 0.9704323
vt 0.2846493 0.9804599
vt 0.2997996 0.9907997
vt 0.2978964 0.9704323
vt 0.2845009 0.9986787
vt 0.2617446 0.9431415
vt 0.245526 0.9386963
vt 0.252233 0.9571317
vt 0.2428745 0.9560025
vt 0.2802036 0.9483924
vt 0.2873629 0.9353396
vt 0.2617446 0.9431415
vt 0.2670619 0.9286082
vn 0.02159227 -0.04085655 -0.9989317
vn 0.0281235 -0.02310191 -0.9993374
vn 0.02892678 -0.1086875 -0.9936551
vn 0.02512886 -0.02804906 -0.9992906
vn 0.02159227 -0.04085655 -0.9989317
vn 0.01782288 -0.0480868 -0.9986841
vn 0.2380784 0.6995203 -0.6737878
vn 0.2380783 0.6995204 -0.6737878
vn 0.2380783 0.6995204 -0.6737878
vn 0.2900011 0.8600782 0.4197198
vn 0.2900011 0.8600782 0.4197198
vn 0.2900011 0.8600782 0.4197198
vn 0.9631839 0.2175345 0.1579726
vn 0.9631839 0.2175345 0.1579726
vn 0.9631839 0.2175345 0.1579725
vn 0.7003766 0.1275469 -0.7022852
vn 0.7003766 0.1275469 -0.7022852
vn 0.7003766 0.1275469 -0.7022851
vn 0.06197638 0.1569145 0.9856656
vn 0.06197638 0.1569145 0.9856656
vn 0.06197641 0.1569145 0.9856656
vn 0.1469576 0.9871076 0.06342011
vn -0.06145718 0.89006 0.4516817
vn -0.04164108 0.998514 0.03515521
vn -0.4326736 0.8880038 -0.1557013
vn -0.1818682 0.9792967 -0.08889253
vn -0.444552 0.8798113 -0.1682424
vn 0.1265512 0.9918963 0.01124694
vn 0.1469576 0.9871076 0.06342011
vn 0.3474096 0.9376905 -0.00656832
vn 0.5314294 0.8359061 -0.1372731
vn -0.7198416 0.2661189 0.6410996
vn -0.717764 -0.05390039 0.6941971
vn -0.7388739 0.01744972 0.6736178
vn -0.717764 -0.05390039 0.6941971
vn -0.7231008 -0.06826843 0.6873608
vn -0.701939 -0.1225491 0.7016148
vn -0.703737 -0.02489066 -0.7100245
vn -0.7192779 0.0106514 -0.6946408
vn -0.689741 -0.05470158 -0.7219869
vn -0.7545807 0.1053269 -0.6476992
vn -0.703737 -0.02489066 -0.7100245
vn -0.2913844 -0.9442065 -0.1535228
vn -0.2913845 -0.9442065 -0.1535228
vn -0.2913844 -0.9442065 -0.1535228
vn -0.09585451 0.3272432 -0.9400659
vn -0.09585439 0.3272433 -0.9400659
vn -0.09585451 0.3272432 -0.9400659
vn 0.7040548 -0.1893175 0.6844455
vn 0.7040548 -0.1893175 0.6844454
vn 0.7040548 -0.1893175 0.6844455
vn -0.7355524 -8.847994E-05 0.6774678
vn -0.7353094 -0.0009502297 0.6777309
vn -0.7359744 0.001413279 0.6770079
vn -0.7363316 0.00269 0.6766155
vn -0.1302543 0.9913241 0.01761794
vn -0.1679993 0.9856127 -0.01854136
vn 0.01028616 0.999855 0.01356786
vn 0.03163325 0.9992319 0.02312669
vn 0.01028616 0.999855 0.01356786
vn 0.1476505 0.9888269 0.02051383
vn 0.1700629 0.9854332 -0.0004198119
vn -0.9829411 -0.1086402 -0.1484051
vn -0.9816127 -0.1160756 -0.151535
vn -0.9808925 -0.1199584 -0.1531668
vn -0.97991 -0.1251016 -0.1553254
vn 0.948006 0.005323264 -0.3182082
vn 0.948995 -0.002183594 -0.3152834
vn 0.950204 -0.01208448 -0.3113941
vn 0.9516815 -0.0256269 -0.3060155
vn 0.675226 0.0485527 0.7360111
vn 0.64928 0.1395079 0.747645
vn 0.633386 0.1865092 0.7510237
vn 0.6934456 -0.03426437 0.7196938
vn 0.8143551 0.02416296 -0.5798638
vn 0.8163295 0.02057247 -0.57722
vn 0.8131847 0.02627454 -0.5814124
vn 0.8319376 -0.009186806 -0.5547931
vn 0.522341 -0.03518665 0.8520105
vn 0.5216695 -0.03366249 0.8524833
vn 0.5217104 -0.03375524 0.8524547
vn 0.5197046 -0.0292229 0.8538461
vn -0.1419178 -0.08180852 -0.9864921
vn -0.1480166 -0.06234858 -0.9870176
vn -0.1366371 -0.09848043 -0.985714
vn -0.1659656 -0.003739047 -0.9861244
vn -0.1839826 0.9829091 0.006346493
vn -0.2850883 0.948867 0.1355584
vn -0.2126343 0.9769399 0.01936708
vn -0.7070177 0.7052912 0.05186933
vn -0.9847357 0.08813995 -0.1500899
vn -0.9116635 0.2590117 -0.3190338
vn -0.9645729 0.1714983 0.200468
vn -0.5991561 0.5957817 0.5348421
vn -0.2850883 0.948867 0.1355584
vn -0.5244977 0.4022215 0.7504132
vn 0.7072635 -0.690814 -0.1501811
vn 0.7046806 -0.6929375 -0.1525219
vn 0.6985663 -0.6978808 -0.1580112
vn 0.7227289 -0.6776424 -0.1358815
vn -0.5129308 -0.04512425 -0.8572432
vn -0.5121359 -0.04186531 -0.8578835
vn -0.4702336 0.002632167 -0.882538
vn -0.4708738 0.0004445247 -0.8822005
vn -0.3529775 0.1246562 -0.9272906
vn -0.9679407 -0.003889499 -0.2511487
vn -0.9682814 -0.005275048 -0.2498067
vn -0.9672106 -0.000969163 -0.2539738
vn -0.9689819 -0.00817332 -0.2469965
vn 0.5692888 -0.5457669 0.6148566
vn 0.5690543 -0.5484149 0.6127138
vn 0.5720978 -0.5034151 0.6475164
vn 0.5636339 -0.5954326 0.5725181
vn 0.6137294 0.01885949 -0.7892913
vn 0.5895641 -0.04052387 -0.8067045
vn 0.6374732 0.08495613 -0.7657743
vn 0.6592527 0.1560474 -0.7355508
vn -0.1727658 0.9846874 -0.02329684
vn -0.021468 0.9950305 0.09722815
vn -0.1928623 0.9810933 -0.01612769
vn -0.1902622 0.9817256 0.003876422
vn -0.1414718 0.9548908 0.2610924
vn 0.1671238 0.9645774 0.2041084
vn 0.06986184 0.9975135 -0.009277618
vn 0.1671238 0.9645774 0.2041084
vn -0.06058306 0.997155 -0.0448521
vn -0.1727658 0.9846874 -0.02329684
vn 0.09612106 -0.06026265 0.9935437
vn 0.1418321 0.02320554 0.9896187
vn 0.1649473 0.0662515 0.9840747
vn 0.1921791 0.1177336 0.9742721
vn 0.9988931 0.04685774 0.004133346
vn 0.9993216 0.02159176 -0.02983589
vn 0.9752616 0.1578978 0.1547038
vn 0.9779018 -0.09555068 -0.1859519
vn -0.9909582 0.03618735 0.1291984
vn -0.9956841 -0.01943126 0.09074969
vn -0.9962912 -0.05672894 0.06469753
vn -0.9861634 -0.1653123 -0.01239365
vn -0.593336 -0.02085982 0.8046845
vn -0.6192477 -0.08315707 0.7807798
vn -0.6282372 -0.1066505 0.7706774
vn -0.6489469 -0.1658282 0.7425421
g rockDeco11_0
f 3/3/3 2/2/2 1/1/1
f 5/5/5 2/2/2 4/4/4
f 5/5/5 4/4/4 6/6/6
f 9/9/9 8/8/8 7/7/7
f 12/12/12 11/11/11 10/10/10
f 15/15/15 14/14/14 13/13/13
f 18/18/18 17/17/17 16/16/16
f 21/21/21 20/20/20 19/19/19
f 24/24/24 23/23/23 22/22/22
f 24/24/24 26/26/26 25/25/25
f 26/26/26 27/27/27 25/25/25
f 28/28/28 26/26/26 24/24/24
f 29/29/29 28/28/28 24/24/24
f 29/29/29 30/30/30 28/28/28
f 31/31/31 28/28/28 30/30/30
f 34/34/34 33/33/33 32/32/32
f 34/34/34 36/36/36 35/35/35
f 36/36/36 37/37/37 35/35/35
f 40/40/40 39/39/39 38/38/38
f 42/42/42 39/39/39 41/41/41
f 45/45/45 44/44/44 43/43/43
f 48/48/48 47/47/47 46/46/46
f 51/51/51 50/50/50 49/49/49
f 54/54/54 53/53/53 52/52/52
f 54/54/54 52/52/52 55/55/55
f 58/58/58 57/57/57 56/56/56
f 59/59/59 58/58/58 56/56/56
f 61/61/61 60/60/60 59/59/59
f 62/62/62 60/60/60 61/61/61
f 65/65/65 64/64/64 63/63/63
f 66/66/66 64/64/64 65/65/65
f 69/69/69 68/68/68 67/67/67
f 70/70/70 68/68/68 69/69/69
f 73/73/73 72/72/72 71/71/71
f 71/71/71 72/72/72 74/74/74
f 77/77/77 76/76/76 75/75/75
f 75/75/75 76/76/76 78/78/78
f 81/81/81 80/80/80 79/79/79
f 80/80/80 81/81/81 82/82/82
f 85/85/85 84/84/84 83/83/83
f 84/84/84 86/86/86 83/83/83
f 89/89/89 88/88/88 87/87/87
f 88/88/88 89/89/89 90/90/90
f 90/90/90 92/92/92 91/91/91
f 93/93/93 90/90/90 91/91/91
f 90/90/90 93/93/93 94/94/94
f 95/95/95 90/90/90 94/94/94
f 93/93/93 96/96/96 94/94/94
f 94/94/94 96/96/96 95/95/95
f 99/99/99 98/98/98 97/97/97
f 98/98/98 100/100/100 97/97/97
f 103/103/103 102/102/102 101/101/101
f 104/104/104 103/103/103 101/101/101
f 105/105/105 103/103/103 104/104/104
f 108/108/108 107/107/107 106/106/106
f 109/109/109 106/106/106 107/107/107
f 112/112/112 111/111/111 110/110/110
f 111/111/111 113/113/113 110/110/110
f 116/116/116 115/115/115 114/114/114
f 117/117/117 116/116/116 114/114/114
f 120/120/120 119/119/119 118/118/118
f 120/120/120 121/121/121 119/119/119
f 119/119/119 121/121/121 122/122/122
f 122/122/122 123/123/123 119/119/119
f 125/125/125 124/124/124 119/119/119
f 126/126/126 119/119/119 124/124/124
f 119/119/119 126/126/126 127/127/127
f 130/130/130 129/129/129 128/128/128
f 130/130/130 131/131/131 129/129/129
f 134/134/134 133/133/133 132/132/132
f 133/133/133 135/135/135 132/132/132
f 138/138/138 137/137/137 136/136/136
f 139/139/139 137/137/137 138/138/138
f 142/142/142 141/141/141 140/140/140
f 143/143/143 141/141/141 142/142/142
