g rock_tall
v 0.00124836 -0.8082839 -0.2971281
v -0.4913096 -0.698948 -0.1090094
v -0.1765926 -0.799178 0.08515487
v -0.6394756 -0.570281 -0.352546
v -0.1022196 -0.7147228 -0.4775904
v 0.1917994 -0.6731069 -0.4675532
v 0.1823864 -0.8107458 -0.2718672
v 0.4016407 -0.7143738 -0.3904642
v 0.4171822 -0.5641159 -0.5419261
v 0.6278243 -0.4238159 -0.4421223
v 0.6335472 -0.2764919 -0.5334873
v 0.4210234 -0.1088589 -0.683779
v 0.7187955 0.003960072 -0.4400921
v 0.2877154 -0.4929938 -0.613357
v -0.1082847 -0.6314059 -0.5992842
v -0.2503486 -0.5656149 -0.56547
v 0.4002445 0.1971831 -0.6417352
v 0.6624474 0.2975981 -0.3906109
v 0.3742752 0.5130711 -0.586524
v 0.6235163 0.4509431 -0.4158849
v 0.5522323 0.870034 -0.400195
v 0.2541294 1.182256 -0.4799671
v 0.3859274 1.214099 -0.3804279
v 0.5002422 1.151093 -0.2867899
v 0.2237103 1.515897 -0.3148076
v 0.1212773 1.458833 -0.4208157
v -0.1737757 1.041226 -0.5016952
v 0.1574843 1.591094 -0.2671637
v -0.1221094 1.459677 -0.388876
v -0.1035097 1.618701 -0.2411849
v 0.04351544 1.678467 -0.04710862
v 0.1971843 0.5383741 -0.6216323
v 0.1892192 0.7962739 -0.5741029
v 0.004392385 0.8983769 -0.5327938
v 0.2042863 0.1401591 -0.654931
v -0.04614663 0.05774311 -0.6844891
v -0.3403706 0.732467 -0.5083693
v 0.1393304 -0.3518899 -0.7070363
v 0.03794432 -0.5041519 -0.686549
v -0.06408978 -0.3203549 -0.7120441
v -0.4863836 -0.1987619 -0.5962813
v -0.5456417 -0.5119169 -0.4802981
v -0.7425546 -0.2816229 -0.3367191
v -0.5596203 -0.03257791 -0.5621639
v -0.4730225 0.2726171 -0.55281
v -0.7176675 -0.482938 -0.0553635
v -0.7406647 0.01591706 -0.395401
v -0.6840327 0.308596 -0.506421
v -0.5481686 0.719305 -0.4661468
v -0.5193286 0.992401 -0.4005719
v -0.6715987 0.5955471 -0.4349569
v -0.6353376 -0.653906 -0.04725753
v -0.3638237 -0.741705 0.1444911
v -0.1765926 -0.799178 0.08515487
v -0.006120682 -0.831798 0.1627849
v -0.7294506 0.3604811 -0.4021789
v -0.6677234 -0.483736 0.2687637
v -0.4392765 1.409574 -0.3295488
v -0.5592575 1.258872 -0.2845619
v -0.2933466 1.392753 -0.3948228
v -0.2459455 1.508105 -0.2445419
v -0.4985197 1.463311 0.05349921
v -0.5858176 0.938373 -0.1263002
v -0.6227753 0.603408 0.1096702
v -0.5495298 1.028021 0.1922821
v -0.6745093 0.052497 -0.04164409
v -0.6702647 -0.138046 0.1375265
v -0.6380656 0.3104489 0.305713
v -0.6799617 -0.385372 0.3055157
v -0.6243165 -0.441255 0.4924249
v -0.5728786 0.751187 0.58345
v -0.6601452 -0.1581411 0.6138379
v -0.5921657 0.4747909 0.677219
v -0.4472971 0.9295799 0.6496428
v -0.5253687 1.133244 0.466423
v -0.5054448 1.36829 0.2783353
v -0.3728571 1.416751 0.4384012
v -0.2718396 1.576147 0.2753882
v -0.2171457 1.621899 0.1375294
v -0.04778934 1.695628 0.2188273
v 0.04351544 1.678467 -0.04710862
v 0.1368403 1.675159 0.124135
v -0.1296747 1.661501 0.2736688
v -0.2066693 1.457984 0.4660089
v -0.07310677 1.589626 0.2816851
v -0.2346616 1.348097 0.5723703
v 0.0666573 1.597991 0.2006522
v -0.1763997 1.430868 0.4559851
v -0.0889771 1.479388 0.4572777
v 0.1178894 1.542295 0.3637803
v -0.1277797 1.295327 0.5887702
v 0.01959825 1.190425 0.6029431
v -0.2293937 1.06627 0.6170349
v 0.3004472 1.543972 0.125946
v 0.3117144 1.599394 0.0810752
v 0.4493313 1.345934 0.06471536
v 0.2595312 1.489515 0.3162081
v 0.3309894 1.577045 -0.07086777
v 0.1574843 1.591094 -0.2671637
v 0.04351544 1.678467 -0.04710862
v 0.2237103 1.515897 -0.3148076
v 0.5002422 1.151093 -0.2867899
v 0.4844012 1.324073 -0.09336999
v 0.5676725 1.07702 -0.2067962
v 0.5522323 0.870034 -0.400195
v 0.3153393 1.395821 0.387948
v 0.5566523 1.123221 -0.07894713
v 0.6752633 0.379866 -0.3099961
v 0.6235163 0.4509431 -0.4158849
v 0.6624474 0.2975981 -0.3906109
v 0.6799074 0.29873 -0.09007498
v 0.6056184 0.189629 0.150141
v 0.6838583 0.130262 -0.101696
v 0.7187955 0.003960072 -0.4400921
v 0.7425545 -0.1760579 -0.2965684
v 0.6335472 -0.2764919 -0.5334873
v 0.6278243 -0.4238159 -0.4421223
v 0.5067222 1.115662 0.03772086
v 0.4851224 0.8587238 0.5127279
v 0.4681842 1.332943 0.185816
v 0.4643683 1.156879 0.4141497
v 0.3501694 1.169138 0.5025658
v 0.1913693 1.077947 0.606249
v -0.05286479 0.648301 0.6116475
v 0.3782632 0.7265209 0.6133913
v 0.3711603 0.2748469 0.630378
v 0.5564892 0.2131209 0.4536288
v 0.6164243 -0.1416831 0.4059739
v -0.1866476 0.800044 0.6231631
v -0.2797456 0.928808 0.657102
v -0.2184227 0.6743299 0.690193
v -0.4332607 0.1307059 0.709888
v -0.009877682 0.3838419 0.7120441
v 0.6448253 -0.120308 0.1374547
v -0.4676137 -0.3156121 0.6654304
v -0.4003284 -0.5753161 0.5635189
v -0.1459217 -0.4732701 0.6653918
v -0.2340317 -0.701795 0.5244366
v 0.1313384 0.4321918 0.620966
v 0.04707742 0.05563588 0.7085845
v 0.3007543 -0.3722591 0.6341518
v 0.1303403 -0.6223019 0.5738994
v 0.1391153 -0.4999772 0.6498278
v 0.3342843 -0.6666051 0.4856585
v 0.3786144 -0.2334121 0.6334185
v 0.2936742 -0.832821 0.14351
v 0.6211213 -0.4365639 0.3141748
v 0.06349921 -0.8257 -0.01965227
v -0.1765926 -0.799178 0.08515487
v 0.00124836 -0.8082839 -0.2971281
v 0.1823864 -0.8107458 -0.2718672
v 0.5769585 -0.6036581 0.2827016
v 0.4299533 -0.8075399 0.02055488
v 0.6212624 -0.6264721 0.1467389
v 0.7163705 -0.396322 0.03937595
v 0.5179923 -0.723646 -0.2184654
v 0.4016407 -0.7143738 -0.3904642
v 0.6474836 -0.5965579 -0.1880542
v 0.6923406 -0.552875 -0.05472049
v 0.6995803 -0.08256296 -0.03731229
vt 0.453346 0.1716973
vt 0.4131708 0.233139
vt 0.4531305 0.2863041
vt 0.3767331 0.205324
vt 0.4183103 0.1558245
vt 0.4216827 0.1138004
vt 0.4582029 0.1319631
vt 0.434514 0.08175058
vt 0.396982 0.07279868
vt 0.3798673 0.03318925
vt 0.3457229 0.0303555
vt 0.3116052 0.05823579
vt 0.2865674 0.008035213
vt 0.3822105 0.08721856
vt 0.396758 0.1430042
vt 0.3849731 0.1555737
vt 0.2543641 0.05834568
vt 0.2258764 0.01506549
vt 0.195548 0.06844825
vt 0.1963 0.02784312
vt 0.1168417 0.07008106
vt 0.08388028 0.1358899
vt 0.0665823 0.12344
vt 0.06199304 0.09854031
vt 0.02998292 0.1872997
vt 0.05279973 0.1869001
vt 0.1316305 0.1658418
vt 0.02502072 0.2203897
vt 0.07155675 0.2112256
vt 0.050926 0.2504134
vt 0.03924346 0.3034617
vt 0.1978984 0.0924913
vt 0.1548108 0.1105737
vt 0.1448094 0.1369511
vt 0.2666803 0.08121312
vt 0.2832704 0.1090479
vt 0.1839094 0.1605776
vt 0.3521612 0.09832154
vt 0.3745856 0.1174204
vt 0.3453018 0.1202708
vt 0.3253099 0.1623907
vt 0.3683669 0.1854216
vt 0.3363028 0.2024542
vt 0.3017818 0.1681238
vt 0.2568558 0.159657
vt 0.3663572 0.2335611
vt 0.2964507 0.1937399
vt 0.2564964 0.1812862
vt 0.1959174 0.1819223
vt 0.1611778 0.1970396
vt 0.2173871 0.1896942
vt 0.3932308 0.2378014
vt 0.4266218 0.2732935
vt 0.4531305 0.2863041
vt 0.4507367 0.326903
vt 0.2502844 0.1929359
vt 0.3666554 0.2656275
vt 0.1055442 0.2230933
vt 0.1323019 0.2214513
vt 0.09557763 0.2124935
vt 0.07573307 0.2381576
vt 0.1157584 0.2630763
vt 0.1771658 0.2295102
vt 0.2236812 0.2475718
vt 0.1729025 0.2646733
vt 0.2937512 0.2300064
vt 0.3198712 0.2489834
vt 0.2626016 0.2650332
vt 0.352558 0.2668172
vt 0.3558308 0.2868776
vt 0.2133584 0.2998575
vt 0.3198127 0.2950949
vt 0.2463956 0.3054342
vt 0.1928503 0.3150127
vt 0.1665718 0.2956297
vt 0.1336331 0.282913
vt 0.1295016 0.3049828
vt 0.09814936 0.3006151
vt 0.08335295 0.2905139
vt 0.06990731 0.3173572
vt 0.03924346 0.3034617
vt 0.05764347 0.3297492
vt 0.08301252 0.313028
vt 0.1190216 0.3200246
vt 0.08660436 0.3235788
vt 0.1379426 0.3254484
vt 0.07233292 0.3348976
vt 0.1190202 0.3244593
vt 0.1123388 0.3326114
vt 0.09356767 0.3495511
vt 0.141348 0.3377624
vt 0.1498358 0.3564892
vt 0.1715743 0.3340869
vt 0.07042199 0.3699256
vt 0.06096089 0.3655313
vt 0.0865953 0.4121332
vt 0.09329313 0.3684036
vt 0.04614383 0.3769611
vt 0.01255387 0.3583568
vt 0.03924346 0.3034617
vt 0.01350707 0.3860245
vt 0.07924062 0.4729589
vt 0.07797474 0.4294419
vt 0.1056041 0.4762917
vt 0.1359041 0.5145776
vt 0.1085328 0.3790014
vt 0.1074962 0.4593593
vt 0.2374985 0.5296279
vt 0.2178649 0.540287
vt 0.2564126 0.5426218
vt 0.2560682 0.5049695
vt 0.277177 0.4787157
vt 0.2901441 0.5068152
vt 0.3296912 0.5440868
vt 0.3588096 0.5166601
vt 0.396867 0.5361555
vt 0.4184242 0.5102322
vt 0.1156622 0.4461067
vt 0.1815333 0.4161111
vt 0.100777 0.4088103
vt 0.1372703 0.4063228
vt 0.1418349 0.3914515
vt 0.1603217 0.377553
vt 0.2194712 0.3634438
vt 0.2035195 0.4045843
vt 0.2671425 0.4112411
vt 0.2754844 0.4402901
vt 0.3260051 0.4406997
vt 0.2029115 0.3459393
vt 0.1900544 0.332138
vt 0.2201727 0.3436494
vt 0.2861453 0.3220493
vt 0.2546819 0.3672949
vt 0.3286828 0.4703498
vt 0.3411012 0.3113139
vt 0.375826 0.3079229
vt 0.3641694 0.3396712
vt 0.3960519 0.3187853
vt 0.2474452 0.3854245
vt 0.2969811 0.368663
vt 0.3513512 0.3895378
vt 0.3883747 0.3631335
vt 0.3690402 0.3685413
vt 0.3936156 0.3868181
vt 0.3334288 0.4014176
vt 0.4407631 0.3787174
vt 0.369485 0.4329147
vt 0.4714089 0.3492177
vt 0.4531305 0.2863041
vt 0.5141487 0.3671767
vt 0.4946508 0.3946458
vt 0.3939567 0.4214053
vt 0.4427271 0.4071699
vt 0.4036848 0.4322913
vt 0.3758597 0.4640693
vt 0.4506696 0.4447715
vt 0.4779162 0.4513367
vt 0.4232979 0.464994
vt 0.4050531 0.4590066
vt 0.3282565 0.4919071
vn -0.1583179 -0.9533338 -0.2570802
vn -0.3048523 -0.9332976 -0.1897908
vn -0.2328145 -0.9715963 -0.04240353
vn -0.6274852 -0.6828789 -0.374084
vn -0.1951335 -0.875254 -0.4425531
vn 0.1372784 -0.7527158 -0.6438739
vn 0.1093017 -0.9609106 -0.2543699
vn 0.397187 -0.7724027 -0.4956172
vn 0.4051794 -0.5002393 -0.7652386
vn 0.8115237 -0.3993728 -0.4265334
vn 0.6496553 -0.1808317 -0.738409
vn 0.3320024 0.01431903 -0.9431698
vn 0.8671952 0.1440469 -0.4766791
vn 0.2686355 -0.4419308 -0.8558809
vn -0.1133219 -0.6154734 -0.7799683
vn -0.3446285 -0.4632297 -0.8164861
vn 0.4293147 0.1676299 -0.8874621
vn 0.8370363 0.1860385 -0.5145483
vn 0.4648475 0.1774576 -0.8674247
vn 0.7186198 0.1175436 -0.685397
vn 0.7089989 0.2195683 -0.6701569
vn 0.2344797 0.2613489 -0.9363311
vn 0.5962285 0.4033724 -0.6941198
vn 0.7650737 0.4361695 -0.4737282
vn 0.6349781 0.5453984 -0.547123
vn 0.06390367 0.4066034 -0.9113672
vn -0.167774 0.1897031 -0.9674009
vn 0.1965334 0.8719731 -0.448372
vn -0.141189 0.457393 -0.8779848
vn -0.2773895 0.8667572 -0.4144718
vn 0.04391523 0.9820796 -0.1832789
vn -0.0572516 0.1778684 -0.9823874
vn 0.08533166 0.2037384 -0.9752995
vn -0.09894989 0.1743388 -0.9797014
vn 0.05605268 0.09667838 -0.993736
vn -0.1195579 0.128736 -0.9844455
vn -0.1871747 0.1732043 -0.9669363
vn 0.1398248 -0.07914588 -0.987008
vn 0.04518466 -0.4642447 -0.8845537
vn -0.2036301 -0.06516422 -0.9768769
vn -0.4098368 -0.0923657 -0.9074703
vn -0.5035761 -0.3513876 -0.7892641
vn -0.9305432 -0.1319146 -0.341596
vn -0.4392826 -0.001691937 -0.8983474
vn -0.2186667 0.1345852 -0.9664739
vn -0.9891333 -0.1323578 0.06400622
vn -0.9833959 -0.01883686 -0.1804929
vn -0.4958297 0.08349362 -0.8643968
vn -0.2784802 0.2041103 -0.938503
vn -0.3839107 0.2335339 -0.8933502
vn -0.9616446 0.2328681 -0.1449549
vn -0.6533566 -0.7490042 0.1100807
vn -0.400092 -0.8937545 0.2028035
vn -0.2328145 -0.9715963 -0.04240353
vn -0.04048023 -0.9594434 0.2789795
vn -0.9924842 0.1030084 0.06606505
vn -0.7008913 -0.659152 0.2725252
vn -0.5264627 0.5888135 -0.613299
vn -0.9520795 0.2588065 -0.1629842
vn -0.2417709 0.3832541 -0.8914388
vn -0.4309247 0.859471 -0.2749791
vn -0.7714867 0.6361633 -0.01022742
vn -0.9845268 0.1488378 0.09249049
vn -0.9883904 0.1224092 0.09000241
vn -0.9880012 0.1437933 0.05636672
vn -0.9877859 0.06594917 0.1411721
vn -0.9938034 0.06416468 0.09076256
vn -0.9944941 0.08556443 0.0604995
vn -0.9967647 0.006295799 0.08012837
vn -0.6952332 -0.577224 0.4283262
vn -0.9616386 0.1704602 0.2149293
vn -0.9130143 -0.01479317 0.4076594
vn -0.710168 0.09838004 0.6971247
vn -0.3766357 0.2313987 0.8969951
vn -0.8991391 0.2678542 0.3461258
vn -0.8941466 0.3960111 0.2089906
vn -0.5783519 0.5657234 0.5877636
vn -0.4998462 0.8432538 0.1976786
vn -0.5572841 0.8234032 -0.1069656
vn -0.1095077 0.9856188 0.1286997
vn 0.04391523 0.9820796 -0.1832789
vn 0.322951 0.9317062 0.166211
vn -0.180601 0.8474936 0.499137
vn -0.1242981 0.7266119 0.6757109
vn 0.2319771 0.7338706 0.6384516
vn -0.3241097 0.4274947 0.8439202
vn 0.3331437 0.7935799 0.5091624
vn -0.06895156 0.7945821 0.6032286
vn 0.007066426 0.7026785 0.7114725
vn 0.3096579 0.6906266 0.6535647
vn 0.130535 0.3720187 0.9190009
vn 0.153223 0.2685602 0.9509985
vn 0.04677315 0.1086438 0.9929798
vn 0.6516469 0.6093507 0.4517168
vn 0.6726838 0.7047967 0.225295
vn 0.8768509 0.4636765 0.1270306
vn 0.5366569 0.6459512 0.5429056
vn 0.6467323 0.7172161 -0.2594961
vn 0.1965334 0.8719731 -0.448372
vn 0.04391523 0.9820796 -0.1832789
vn 0.6349781 0.5453984 -0.547123
vn 0.7650737 0.4361695 -0.4737282
vn 0.8663928 0.476056 -0.1507792
vn 0.9689352 0.2173224 -0.1180482
vn 0.7089989 0.2195683 -0.6701569
vn 0.4833495 0.6148102 0.6232029
vn 0.9566596 0.1818136 0.2274783
vn 0.9901366 0.1287578 -0.05523463
vn 0.7186198 0.1175436 -0.685397
vn 0.8370363 0.1860385 -0.5145483
vn 0.9686089 0.1160591 0.2198343
vn 0.9726171 0.1170273 0.2007994
vn 0.9849245 0.1095273 0.1338937
vn 0.8671952 0.1440469 -0.4766791
vn 0.9942168 -0.05076395 -0.09463536
vn 0.6496553 -0.1808317 -0.738409
vn 0.8115237 -0.3993728 -0.4265334
vn 0.9719054 0.1304516 0.1959136
vn 0.9440128 0.1356401 0.3007352
vn 0.8890386 0.4312714 0.1536729
vn 0.9166914 0.2378697 0.321084
vn 0.4508579 0.3541105 0.8193492
vn 0.1583828 0.1732388 0.9720613
vn 0.1145315 0.1111814 0.9871784
vn 0.2043351 0.05889016 0.977128
vn 0.3240976 0.01744211 0.9458629
vn 0.9068969 0.07347699 0.4148965
vn 0.8548042 -0.04931522 0.5166022
vn 0.2158746 0.08160934 0.9730047
vn 0.1250444 0.1705534 0.9773819
vn 0.02423635 0.1162335 0.9929262
vn -0.1217988 -0.03471876 0.9919474
vn 0.1920173 0.09716958 0.9765693
vn 0.9703743 0.09943261 0.2201972
vn -0.227598 -0.2119255 0.950414
vn -0.4573453 -0.6785991 0.5747509
vn -0.02461318 -0.2221592 0.9746996
vn -0.1540774 -0.856786 0.4921158
vn 0.2802674 0.1145623 0.9530612
vn 0.08241665 -0.03847289 0.995855
vn 0.2859949 -0.1482987 0.946686
vn 0.08292057 -0.7983538 0.5964524
vn 0.1350482 -0.2274376 0.9643827
vn 0.4336513 -0.6748243 0.5971255
vn 0.6114038 -0.1366587 0.7794292
vn 0.1975616 -0.9373816 0.2868539
vn 0.8185707 -0.16343 0.5506657
vn -0.03193939 -0.9983785 -0.04711886
vn -0.2328145 -0.9715963 -0.04240353
vn -0.1583179 -0.9533338 -0.2570802
vn 0.1093017 -0.9609106 -0.2543699
vn 0.6292352 -0.6225829 0.4652458
vn 0.4078403 -0.9128212 0.02058425
vn 0.7849485 -0.5917354 0.1835891
vn 0.979905 -0.04576447 0.1941437
vn 0.5339018 -0.8001099 -0.2734468
vn 0.397187 -0.7724027 -0.4956172
vn 0.8252274 -0.5182005 -0.2246509
vn 0.9408759 -0.3373807 -0.0304427
vn 0.9720117 0.1170544 0.2036944
g rock_tall_0
f 3/3/3 2/2/2 1/1/1
f 2/2/2 4/4/4 1/1/1
f 5/5/5 1/1/1 4/4/4
f 1/1/1 5/5/5 6/6/6
f 7/7/7 1/1/1 6/6/6
f 6/6/6 8/8/8 7/7/7
f 9/9/9 8/8/8 6/6/6
f 10/10/10 8/8/8 9/9/9
f 11/11/11 10/10/10 9/9/9
f 11/11/11 9/9/9 12/12/12
f 11/11/11 12/12/12 13/13/13
f 9/9/9 6/6/6 14/14/14
f 14/14/14 12/12/12 9/9/9
f 6/6/6 5/5/5 15/15/15
f 6/6/6 15/15/15 14/14/14
f 5/5/5 4/4/4 16/16/16
f 5/5/5 16/16/16 15/15/15
f 13/13/13 12/12/12 17/17/17
f 18/18/18 13/13/13 17/17/17
f 19/19/19 18/18/18 17/17/17
f 19/19/19 20/20/20 18/18/18
f 20/20/20 19/19/19 21/21/21
f 22/22/22 21/21/21 19/19/19
f 23/23/23 21/21/21 22/22/22
f 24/24/24 21/21/21 23/23/23
f 25/25/25 24/24/24 23/23/23
f 25/25/25 23/23/23 22/22/22
f 22/22/22 26/26/26 25/25/25
f 26/26/26 22/22/22 27/27/27
f 26/26/26 28/28/28 25/25/25
f 26/26/26 29/29/29 28/28/28
f 27/27/27 29/29/29 26/26/26
f 29/29/29 30/30/30 28/28/28
f 28/28/28 30/30/30 31/31/31
f 32/32/32 19/19/19 17/17/17
f 33/33/33 22/22/22 19/19/19
f 32/32/32 33/33/33 19/19/19
f 33/33/33 34/34/34 22/22/22
f 22/22/22 34/34/34 27/27/27
f 33/33/33 32/32/32 34/34/34
f 32/32/32 17/17/17 35/35/35
f 32/32/32 35/35/35 36/36/36
f 35/35/35 17/17/17 12/12/12
f 34/34/34 32/32/32 37/37/37
f 27/27/27 34/34/34 37/37/37
f 37/37/37 32/32/32 36/36/36
f 35/35/35 12/12/12 38/38/38
f 38/38/38 36/36/36 35/35/35
f 38/38/38 12/12/12 14/14/14
f 39/39/39 38/38/38 14/14/14
f 14/14/14 15/15/15 39/39/39
f 40/40/40 38/38/38 39/39/39
f 39/39/39 15/15/15 40/40/40
f 36/36/36 38/38/38 40/40/40
f 40/40/40 15/15/15 16/16/16
f 41/41/41 40/40/40 16/16/16
f 40/40/40 41/41/41 36/36/36
f 42/42/42 41/41/41 16/16/16
f 42/42/42 16/16/16 4/4/4
f 43/43/43 41/41/41 42/42/42
f 4/4/4 43/43/43 42/42/42
f 36/36/36 41/41/41 44/44/44
f 41/41/41 43/43/43 44/44/44
f 36/36/36 45/45/45 37/37/37
f 36/36/36 44/44/44 45/45/45
f 4/4/4 46/46/46 43/43/43
f 47/47/47 44/44/44 43/43/43
f 46/46/46 47/47/47 43/43/43
f 44/44/44 48/48/48 45/45/45
f 47/47/47 48/48/48 44/44/44
f 45/45/45 49/49/49 37/37/37
f 48/48/48 49/49/49 45/45/45
f 50/50/50 37/37/37 49/49/49
f 50/50/50 27/27/27 37/37/37
f 49/49/49 48/48/48 51/51/51
f 50/50/50 49/49/49 51/51/51
f 52/52/52 46/46/46 4/4/4
f 2/2/2 52/52/52 4/4/4
f 53/53/53 52/52/52 2/2/2
f 2/2/2 54/54/54 53/53/53
f 53/53/53 54/54/54 55/55/55
f 48/48/48 47/47/47 56/56/56
f 48/48/48 56/56/56 51/51/51
f 46/46/46 52/52/52 57/57/57
f 53/53/53 57/57/57 52/52/52
f 50/50/50 58/58/58 27/27/27
f 51/51/51 59/59/59 50/50/50
f 59/59/59 58/58/58 50/50/50
f 60/60/60 27/27/27 58/58/58
f 27/27/27 60/60/60 29/29/29
f 61/61/61 29/29/29 60/60/60
f 61/61/61 60/60/60 58/58/58
f 61/61/61 30/30/30 29/29/29
f 59/59/59 62/62/62 58/58/58
f 62/62/62 61/61/61 58/58/58
f 59/59/59 51/51/51 63/63/63
f 63/63/63 62/62/62 59/59/59
f 64/64/64 63/63/63 51/51/51
f 64/64/64 51/51/51 56/56/56
f 62/62/62 63/63/63 65/65/65
f 65/65/65 63/63/63 64/64/64
f 66/66/66 64/64/64 56/56/56
f 56/56/56 47/47/47 66/66/66
f 47/47/47 67/67/67 66/66/66
f 47/47/47 46/46/46 67/67/67
f 68/68/68 64/64/64 66/66/66
f 66/66/66 67/67/67 68/68/68
f 69/69/69 67/67/67 46/46/46
f 67/67/67 69/69/69 68/68/68
f 69/69/69 46/46/46 57/57/57
f 70/70/70 69/69/69 57/57/57
f 57/57/57 53/53/53 70/70/70
f 65/65/65 64/64/64 71/71/71
f 71/71/71 64/64/64 68/68/68
f 69/69/69 72/72/72 68/68/68
f 72/72/72 69/69/69 70/70/70
f 68/68/68 73/73/73 71/71/71
f 68/68/68 72/72/72 73/73/73
f 74/74/74 71/71/71 73/73/73
f 75/75/75 65/65/65 71/71/71
f 75/75/75 71/71/71 74/74/74
f 65/65/65 75/75/75 76/76/76
f 65/65/65 76/76/76 62/62/62
f 75/75/75 77/77/77 76/76/76
f 77/77/77 75/75/75 74/74/74
f 78/78/78 62/62/62 76/76/76
f 78/78/78 76/76/76 77/77/77
f 61/61/61 62/62/62 78/78/78
f 78/78/78 79/79/79 61/61/61
f 30/30/30 61/61/61 79/79/79
f 80/80/80 30/30/30 79/79/79
f 80/80/80 81/81/81 30/30/30
f 80/80/80 82/82/82 81/81/81
f 79/79/79 78/78/78 83/83/83
f 80/80/80 79/79/79 83/83/83
f 78/78/78 77/77/77 84/84/84
f 83/83/83 78/78/78 84/84/84
f 83/83/83 85/85/85 80/80/80
f 84/84/84 85/85/85 83/83/83
f 84/84/84 77/77/77 86/86/86
f 74/74/74 86/86/86 77/77/77
f 80/80/80 87/87/87 82/82/82
f 85/85/85 87/87/87 80/80/80
f 88/88/88 84/84/84 86/86/86
f 84/84/84 88/88/88 85/85/85
f 89/89/89 85/85/85 88/88/88
f 88/88/88 86/86/86 89/89/89
f 89/89/89 90/90/90 85/85/85
f 85/85/85 90/90/90 87/87/87
f 89/89/89 86/86/86 91/91/91
f 91/91/91 90/90/90 89/89/89
f 90/90/90 91/91/91 92/92/92
f 91/91/91 86/86/86 93/93/93
f 74/74/74 93/93/93 86/86/86
f 93/93/93 92/92/92 91/91/91
f 87/87/87 90/90/90 94/94/94
f 82/82/82 87/87/87 95/95/95
f 95/95/95 87/87/87 94/94/94
f 95/95/95 94/94/94 96/96/96
f 96/96/96 94/94/94 97/97/97
f 97/97/97 94/94/94 90/90/90
f 90/90/90 92/92/92 97/97/97
f 95/95/95 98/98/98 82/82/82
f 98/98/98 95/95/95 96/96/96
f 98/98/98 99/99/99 82/82/82
f 82/82/82 99/99/99 100/100/100
f 101/101/101 99/99/99 98/98/98
f 98/98/98 102/102/102 101/101/101
f 103/103/103 102/102/102 98/98/98
f 98/98/98 96/96/96 103/103/103
f 104/104/104 102/102/102 103/103/103
f 102/102/102 104/104/104 105/105/105
f 97/97/97 106/106/106 96/96/96
f 106/106/106 97/97/97 92/92/92
f 107/107/107 104/104/104 103/103/103
f 96/96/96 107/107/107 103/103/103
f 105/105/105 104/104/104 108/108/108
f 108/108/108 109/109/109 105/105/105
f 109/109/109 108/108/108 110/110/110
f 104/104/104 111/111/111 108/108/108
f 111/111/111 110/110/110 108/108/108
f 107/107/107 111/111/111 104/104/104
f 112/112/112 111/111/111 107/107/107
f 111/111/111 113/113/113 110/110/110
f 113/113/113 111/111/111 112/112/112
f 113/113/113 114/114/114 110/110/110
f 113/113/113 115/115/115 114/114/114
f 116/116/116 114/114/114 115/115/115
f 116/116/116 115/115/115 117/117/117
f 118/118/118 107/107/107 96/96/96
f 112/112/112 107/107/107 118/118/118
f 112/112/112 118/118/118 119/119/119
f 120/120/120 118/118/118 96/96/96
f 96/96/96 106/106/106 120/120/120
f 120/120/120 121/121/121 118/118/118
f 118/118/118 121/121/121 119/119/119
f 106/106/106 121/121/121 120/120/120
f 106/106/106 122/122/122 121/121/121
f 119/119/119 121/121/121 122/122/122
f 122/122/122 106/106/106 123/123/123
f 122/122/122 123/123/123 119/119/119
f 123/123/123 106/106/106 92/92/92
f 123/123/123 92/92/92 124/124/124
f 119/119/119 123/123/123 125/125/125
f 124/124/124 125/125/125 123/123/123
f 119/119/119 125/125/125 126/126/126
f 125/125/125 124/124/124 126/126/126
f 112/112/112 119/119/119 127/127/127
f 126/126/126 127/127/127 119/119/119
f 127/127/127 128/128/128 112/112/112
f 127/127/127 126/126/126 128/128/128
f 124/124/124 92/92/92 129/129/129
f 92/92/92 93/93/93 129/129/129
f 93/93/93 130/130/130 129/129/129
f 130/130/130 93/93/93 74/74/74
f 129/129/129 130/130/130 131/131/131
f 74/74/74 131/131/131 130/130/130
f 129/129/129 131/131/131 124/124/124
f 74/74/74 73/73/73 131/131/131
f 73/73/73 132/132/132 131/131/131
f 72/72/72 132/132/132 73/73/73
f 124/124/124 131/131/131 133/133/133
f 132/132/132 133/133/133 131/131/131
f 134/134/134 112/112/112 128/128/128
f 134/134/134 113/113/113 112/112/112
f 132/132/132 72/72/72 135/135/135
f 135/135/135 72/72/72 70/70/70
f 136/136/136 135/135/135 70/70/70
f 136/136/136 70/70/70 53/53/53
f 135/135/135 137/137/137 132/132/132
f 137/137/137 135/135/135 136/136/136
f 136/136/136 53/53/53 138/138/138
f 136/136/136 138/138/138 137/137/137
f 138/138/138 53/53/53 55/55/55
f 124/124/124 133/133/133 139/139/139
f 139/139/139 126/126/126 124/124/124
f 133/133/133 132/132/132 140/140/140
f 140/140/140 132/132/132 137/137/137
f 139/139/139 133/133/133 141/141/141
f 139/139/139 141/141/141 126/126/126
f 140/140/140 141/141/141 133/133/133
f 142/142/142 137/137/137 138/138/138
f 142/142/142 138/138/138 55/55/55
f 137/137/137 143/143/143 140/140/140
f 143/143/143 141/141/141 140/140/140
f 137/137/137 142/142/142 143/143/143
f 143/143/143 144/144/144 141/141/141
f 144/144/144 143/143/143 142/142/142
f 141/141/141 145/145/145 126/126/126
f 145/145/145 141/141/141 144/144/144
f 145/145/145 128/128/128 126/126/126
f 145/145/145 144/144/144 128/128/128
f 55/55/55 146/146/146 142/142/142
f 146/146/146 144/144/144 142/142/142
f 144/144/144 147/147/147 128/128/128
f 134/134/134 128/128/128 147/147/147
f 55/55/55 148/148/148 146/146/146
f 148/148/148 55/55/55 149/149/149
f 150/150/150 148/148/148 149/149/149
f 148/148/148 150/150/150 151/151/151
f 152/152/152 144/144/144 146/146/146
f 152/152/152 147/147/147 144/144/144
f 146/146/146 148/148/148 153/153/153
f 148/148/148 151/151/151 153/153/153
f 153/153/153 152/152/152 146/146/146
f 152/152/152 154/154/154 147/147/147
f 154/154/154 152/152/152 153/153/153
f 155/155/155 134/134/134 147/147/147
f 155/155/155 147/147/147 154/154/154
f 151/151/151 156/156/156 153/153/153
f 157/157/157 156/156/156 151/151/151
f 156/156/156 157/157/157 117/117/117
f 153/153/153 156/156/156 158/158/158
f 156/156/156 117/117/117 158/158/158
f 154/154/154 153/153/153 158/158/158
f 115/115/115 158/158/158 117/117/117
f 159/159/159 154/154/154 158/158/158
f 154/154/154 159/159/159 155/155/155
f 158/158/158 115/115/115 159/159/159
f 155/155/155 159/159/159 115/115/115
f 134/134/134 155/155/155 160/160/160
f 115/115/115 160/160/160 155/155/155
f 113/113/113 134/134/134 160/160/160
f 115/115/115 113/113/113 160/160/160
