g roof_round_trim
v -15.42903 14.61816 2.709283E-06
v -15.42903 14.86728 2.709283E-06
v -15.23907 14.86728 -2.413629
v -15.23907 14.61816 -2.413629
v -14.67388 14.86728 -4.767829
v -14.67388 14.61816 -4.767829
v -13.74736 14.86728 -7.004629
v -13.74737 14.61816 -7.004629
v -12.48235 14.86728 -9.068952
v -12.48235 14.61816 -9.068952
v -10.90997 14.86728 -10.90997
v -10.90997 14.61816 -10.90997
v -13.98504 13.79971 -10.16072
v -12.01876 13.63643 -12.01875
v -12.22337 13.79971 -12.22337
v -13.75093 13.63643 -9.990633
v -10.95821 13.9661 -10.9582
v -15.40235 13.79971 -7.847886
v -12.53754 13.9661 -9.109048
v -15.14451 13.63643 -7.716513
v -16.4404 13.79971 -5.341808
v -13.80815 13.9661 -7.035598
v -16.16519 13.63643 -5.252386
v -17.07364 13.79971 -2.704195
v -14.73876 13.9661 -4.788909
v -16.78782 13.63643 -2.658927
v -17.28646 13.79971 2.691016E-06
v -15.30645 13.9661 -2.4243
v -16.99709 13.63643 2.693862E-06
v -15.49724 13.9661 2.708612E-06
v -15.60634 14.43841 2.716152E-06
v -15.42903 14.61816 2.709283E-06
v -15.23907 14.61816 -2.413629
v -15.4142 14.43841 -2.441366
v -14.67388 14.61816 -4.767829
v -14.84251 14.43841 -4.822621
v -13.74737 14.61816 -7.004629
v -13.90535 14.43841 -7.085126
v -12.48235 14.61816 -9.068952
v -12.6258 14.43841 -9.173171
v -10.90997 14.61816 -10.90997
v -11.03535 14.43841 -11.03535
v -15.42903 14.21325 2.709283E-06
v -15.60634 14.43841 2.716152E-06
v -15.4142 14.43841 -2.441366
v -15.23907 14.21325 -2.413629
v -14.84251 14.43841 -4.822621
v -14.67388 14.21325 -4.767829
v -13.90535 14.43841 -7.085126
v -13.74736 14.21325 -7.004629
v -12.6258 14.43841 -9.173171
v -12.48235 14.21325 -9.068951
v -11.03535 14.43841 -11.03535
v -10.90997 14.21325 -10.90997
v -15.42903 14.05073 2.709283E-06
v -15.30645 13.9661 -2.4243
v -15.49724 13.9661 2.708612E-06
v -15.23907 14.05073 -2.413629
v -14.73876 13.9661 -4.788909
v -14.67388 14.05073 -4.767829
v -13.80815 13.9661 -7.035598
v -13.74736 14.05073 -7.004629
v -12.53754 13.9661 -9.109048
v -12.48235 14.05073 -9.068952
v -10.95821 13.9661 -10.9582
v -10.90997 14.05073 -10.90997
v -15.42903 14.05073 2.709283E-06
v -15.42903 14.21325 2.709283E-06
v -15.23907 14.21325 -2.413629
v -15.23907 14.05073 -2.413629
v -14.67388 14.21325 -4.767829
v -14.67388 14.05073 -4.767829
v -13.74736 14.21325 -7.004629
v -13.74736 14.05073 -7.004629
v -12.48235 14.21325 -9.068951
v -12.48235 14.05073 -9.068952
v -10.90997 14.21325 -10.90997
v -10.90997 14.05073 -10.90997
v -17.59684 12.68113 2.806626E-06
v -17.48521 12.61445 -2.769383
v -17.70317 12.61445 2.841289E-06
v -17.38019 12.68113 -2.752749
v -16.83671 12.61445 -5.470578
v -17.07105 13.3306 -2.703785
v -17.28384 13.3306 2.734732E-06
v -16.43791 13.3306 -5.340999
v -16.73559 12.68113 -5.437719
v -15.77364 12.61445 -8.037067
v -15.40001 13.3306 -7.846696
v -15.6789 12.68113 -7.988794
v -14.32217 12.61445 -10.40566
v -13.98292 13.3306 -10.15918
v -14.23614 12.68113 -10.34316
v -12.51803 12.61445 -12.51803
v -12.22152 13.3306 -12.22152
v -12.44284 12.68113 -12.44284
v -12.22152 13.3306 -12.22152
v -13.96406 13.45365 -10.14548
v -12.20504 13.45365 -12.20503
v -13.98292 13.3306 -10.15918
v -15.37924 13.45365 -7.836113
v -15.40001 13.3306 -7.846696
v -16.41574 13.45365 -5.333795
v -16.43791 13.3306 -5.340999
v -17.04802 13.45365 -2.700139
v -17.07105 13.3306 -2.703785
v -17.26053 13.45365 2.722403E-06
v -17.28384 13.3306 2.734732E-06
v -18.00001 12.61445 2.95043E-06
v -17.70317 12.61445 2.841289E-06
v -17.48521 12.61445 -2.769383
v -17.7784 12.61445 -2.815818
v -16.83671 12.61445 -5.470578
v -17.11902 12.61445 -5.562305
v -15.77364 12.61445 -8.037067
v -16.03812 12.61445 -8.171829
v -14.32217 12.61445 -10.40566
v -14.56231 12.61445 -10.58014
v -12.51803 12.61445 -12.51803
v -12.72793 12.61445 -12.72792
v -13.96406 13.45365 -10.14548
v -12.22337 13.79971 -12.22337
v -12.20504 13.45365 -12.20503
v -13.98504 13.79971 -10.16072
v -15.37924 13.45365 -7.836113
v -15.40235 13.79971 -7.847886
v -16.41574 13.45365 -5.333795
v -16.4404 13.79971 -5.341808
v -17.04802 13.45365 -2.700139
v -17.07364 13.79971 -2.704195
v -17.26053 13.45365 2.722403E-06
v -17.28646 13.79971 2.691016E-06
vt 1.712643 0.3550187
vt 1.712643 0.38313
vt 1.512643 0.38313
vt 1.512643 0.3550187
vt 1.312643 0.38313
vt 1.312643 0.3550187
vt 1.112643 0.38313
vt 1.112643 0.3550187
vt 0.912643 0.38313
vt 0.912643 0.3550187
vt 0.7126427 0.38313
vt 0.7126427 0.3550187
vt -1.255531 0.3894239
vt -1.162157 0.3598113
vt -1.162157 0.3894241
vt -1.255531 0.3598111
vt -1.162157 0.2522131
vt -1.348906 0.389424
vt -1.255531 0.2522122
vt -1.348906 0.3598111
vt -1.44228 0.389424
vt -1.348906 0.2522123
vt -1.44228 0.3598113
vt -1.535654 0.389424
vt -1.44228 0.2522128
vt -1.535654 0.3598111
vt -1.629028 0.389424
vt -1.535654 0.2522126
vt -1.629028 0.3598113
vt -1.629028 0.2522126
vt 0.7756724 0.4066683
vt 0.7756724 0.3628532
vt 0.5756724 0.3628532
vt 0.5756724 0.4066683
vt 0.3756723 0.3628532
vt 0.3756723 0.4066683
vt 0.1756723 0.3628532
vt 0.1756723 0.4066683
vt -0.02432752 0.3628532
vt -0.02432752 0.4066683
vt -0.2243278 0.3628532
vt -0.2243278 0.4066683
vt 0.7756724 0.3627051
vt 0.7756724 0.4066683
vt 0.5756724 0.4066683
vt 0.5756725 0.3627051
vt 0.3756723 0.4066683
vt 0.3756723 0.3627051
vt 0.1756723 0.4066683
vt 0.1756723 0.3627051
vt -0.02432752 0.4066683
vt -0.02432752 0.3627051
vt -0.2243278 0.4066683
vt -0.2243278 0.3627051
vt -1.629028 0.2559897
vt -1.535654 0.2522126
vt -1.629028 0.2522126
vt -1.535654 0.2559898
vt -1.44228 0.2522128
vt -1.44228 0.2559892
vt -1.348906 0.2522123
vt -1.348906 0.2559901
vt -1.255531 0.2522122
vt -1.255531 0.2559905
vt -1.162157 0.2522131
vt -1.162157 0.2559901
vt 0.03236234 0.3035322
vt 0.03236234 0.3218709
vt -0.1676376 0.3218709
vt -0.1676377 0.3035322
vt -0.3676378 0.3218709
vt -0.3676378 0.3035322
vt -0.5676378 0.3218709
vt -0.5676378 0.3035322
vt -0.7676376 0.3218709
vt -0.7676376 0.3035322
vt -0.9676379 0.3218709
vt -0.9676379 0.3035322
vt 1.346223 1.339643
vt 0.9957757 1.348554
vt 1.346223 1.348554
vt 0.9957757 1.339643
vt 0.656111 1.348554
vt 0.9957757 1.252844
vt 1.346223 1.252844
vt 0.656111 1.252844
vt 0.656111 1.339643
vt 0.3056633 1.348554
vt 0.3056633 1.252844
vt 0.3056633 1.339643
vt -0.03400111 1.348554
vt -0.03400111 1.252844
vt -0.03400111 1.339643
vt -0.3790572 1.348553
vt -0.3790572 1.252844
vt -0.3790572 1.339642
vt -0.3790572 1.252844
vt -0.03400111 1.257111
vt -0.3790572 1.257111
vt -0.03400111 1.252844
vt 0.3056633 1.257111
vt 0.3056633 1.252844
vt 0.656111 1.257111
vt 0.656111 1.252844
vt 0.9957757 1.257111
vt 0.9957757 1.252844
vt 1.346223 1.257111
vt 1.346223 1.252844
vt 2.134609 1.398829
vt 2.134609 1.358828
vt 1.880702 1.358828
vt 1.880702 1.398829
vt 1.634609 1.358828
vt 1.634609 1.398829
vt 1.380702 1.358828
vt 1.380702 1.398829
vt 1.134609 1.358828
vt 1.134609 1.398829
vt 0.8846088 1.358828
vt 0.8846088 1.398829
vt 1.717101 -0.639015
vt 1.967101 -0.5991268
vt 1.967101 -0.639015
vt 1.717101 -0.5991267
vt 1.471007 -0.6390151
vt 1.471007 -0.5991267
vt 1.217101 -0.639015
vt 1.217101 -0.5991266
vt 0.9710075 -0.6390151
vt 0.9710076 -0.5991268
vt 0.7171013 -0.6390151
vt 0.7171011 -0.5991269
vn 0.9185395 -0.3886635 0.07228987
vn 0.9969175 0 0.07845815
vn 0.9876884 0 0.1564344
vn 0.9096101 -0.3896845 0.1440678
vn 0.9510565 0 0.3090167
vn 0.8758746 -0.3896835 0.2845885
vn 0.8910068 0 0.45399
vn 0.8205721 -0.3896818 0.4181022
vn 0.8090168 0 0.5877856
vn 0.7450634 -0.3896817 0.5413211
vn 0.7604054 0 0.6494488
vn 0.7006229 -0.3886617 0.5983891
vn -0.39757 -0.8709206 -0.2888519
vn 0.05830652 -0.9970559 0.04979872
vn -0.3745568 -0.8702694 -0.3199036
vn 0.06184382 -0.997074 0.04493176
vn 0.1912396 -0.9678581 0.1633347
vn -0.4378628 -0.8709204 -0.223101
vn 0.2028775 -0.9680466 0.1473988
vn 0.06811152 -0.997074 0.03470421
vn -0.4673733 -0.8709198 -0.1518583
vn 0.223438 -0.9680467 0.1138468
vn 0.07270186 -0.9970739 0.02362259
vn -0.4853741 -0.8709202 -0.07687608
vn 0.2384964 -0.9680466 0.07749256
vn 0.07550215 -0.9970739 0.01195834
vn -0.491057 -0.8702698 -0.03864716
vn 0.2476826 -0.9680467 0.03922917
vn 0.07644205 -0.9970559 0.006015783
vn 0.2507212 -0.9678582 0.01973186
vn 0.9969156 0.001890754 0.07845852
vn 0.9185395 -0.3886635 0.07228987
vn 0.9096101 -0.3896845 0.1440678
vn 0.9876866 0.001896441 0.1564337
vn 0.8758746 -0.3896835 0.2845885
vn 0.9510549 0.001895684 0.3090161
vn 0.8205721 -0.3896818 0.4181022
vn 0.8910048 0.001894708 0.45399
vn 0.7450634 -0.3896817 0.5413211
vn 0.8090156 0.001893907 0.5877842
vn 0.7006229 -0.3886617 0.5983891
vn 0.7604047 0.001887333 0.6494468
vn 0.904708 0.4200402 0.07120175
vn 0.9969156 0.001890754 0.07845852
vn 0.9876866 0.001896441 0.1564337
vn 0.8958427 0.4211103 0.1418874
vn 0.9510549 0.001895684 0.3090161
vn 0.8626176 0.4211093 0.2802814
vn 0.8910048 0.001894708 0.45399
vn 0.8081526 0.4211077 0.4117738
vn 0.8090156 0.001893907 0.5877842
vn 0.7337872 0.4211077 0.5331272
vn 0.7604047 0.001887333 0.6494468
vn 0.6900731 0.4200384 0.5893784
vn 0.9597008 -0.2706837 0.07552998
vn 0.2476826 -0.9680467 0.03922917
vn 0.2507212 -0.9678582 0.01973186
vn 0.9505998 -0.2714618 0.1505604
vn 0.2384964 -0.9680466 0.07749256
vn 0.9153427 -0.2714639 0.2974138
vn 0.223438 -0.9680467 0.1138468
vn 0.8575487 -0.2714612 0.4369428
vn 0.2028775 -0.9680466 0.1473988
vn 0.7786384 -0.2714596 0.5657137
vn 0.1912396 -0.9678581 0.1633347
vn 0.7320183 -0.2706845 0.6252032
vn 0.9597008 -0.2706837 0.07552998
vn 0.904708 0.4200402 0.07120175
vn 0.8958427 0.4211103 0.1418874
vn 0.9505998 -0.2714618 0.1505604
vn 0.8626176 0.4211093 0.2802814
vn 0.9153427 -0.2714639 0.2974138
vn 0.8081526 0.4211077 0.4117738
vn 0.8575487 -0.2714612 0.4369428
vn 0.7337872 0.4211077 0.5331272
vn 0.7786384 -0.2714596 0.5657137
vn 0.6900731 0.4200384 0.5893784
vn 0.7320183 -0.2706845 0.6252032
vn 0.8582335 -0.5087956 0.06754404
vn 0.1494697 -0.9884829 0.02367315
vn 0.151322 -0.9884128 0.01190942
vn 0.8496079 -0.5099597 0.1345643
vn 0.1439258 -0.9884829 0.04676336
vn 0.9050767 -0.4003584 0.14335
vn 0.9139845 -0.3993223 0.07193177
vn 0.8715096 -0.4003564 0.283171
vn 0.8180983 -0.5099579 0.2658161
vn 0.1348385 -0.9884829 0.06870234
vn 0.8164823 -0.4003568 0.4160182
vn 0.7664434 -0.5099582 0.3905216
vn 0.1224311 -0.9884828 0.08895191
vn 0.74135 -0.4003585 0.5386215
vn 0.6959156 -0.5099589 0.5056118
vn 0.1154224 -0.9884123 0.09858321
vn 0.6971485 -0.3993215 0.5954211
vn 0.6546243 -0.5087934 0.5591031
vn 0.6971485 -0.3993215 0.5954211
vn 0.8090058 0.005309276 0.5877765
vn 0.7603951 0.005291528 0.6494393
vn 0.74135 -0.4003585 0.5386215
vn 0.8909942 0.005308212 0.4539837
vn 0.8164823 -0.4003568 0.4160182
vn 0.951043 0.005307097 0.309013
vn 0.8715096 -0.4003564 0.283171
vn 0.9876744 0.00531012 0.1564322
vn 0.9050767 -0.4003584 0.14335
vn 0.9969034 0.005295225 0.07845766
vn 0.9139845 -0.3993223 0.07193177
vn 0 -1 0
vn 0.151322 -0.9884128 0.01190942
vn 0.1494697 -0.9884829 0.02367315
vn 0 -1 0
vn 0.1439258 -0.9884829 0.04676336
vn 0 -1 0
vn 0.1348385 -0.9884829 0.06870234
vn 0 -1 0
vn 0.1224311 -0.9884828 0.08895191
vn 0 -1 0
vn 0.1154224 -0.9884123 0.09858321
vn 0 -1 0
vn 0.8090058 0.005309276 0.5877765
vn 0.7582927 0.07449967 0.6476434
vn 0.7603951 0.005291528 0.6494393
vn 0.8067552 0.07472881 0.5861413
vn 0.8909942 0.005308212 0.4539837
vn 0.8885157 0.07472544 0.4527207
vn 0.951043 0.005307097 0.309013
vn 0.9483975 0.07472597 0.308153
vn 0.9876744 0.00531012 0.1564322
vn 0.9849263 0.074732 0.155997
vn 0.9969034 0.005295225 0.07845766
vn 0.9941466 0.07450498 0.07824064
g roof_round_trim_0
f 3/3/3 2/2/2 1/1/1
f 4/4/4 3/3/3 1/1/1
f 5/5/5 3/3/3 4/4/4
f 6/6/6 5/5/5 4/4/4
f 7/7/7 5/5/5 6/6/6
f 8/8/8 7/7/7 6/6/6
f 9/9/9 7/7/7 8/8/8
f 10/10/10 9/9/9 8/8/8
f 11/11/11 9/9/9 10/10/10
f 12/12/12 11/11/11 10/10/10
f 15/15/15 14/14/14 13/13/13
f 14/14/14 16/16/16 13/13/13
f 14/14/14 17/17/17 16/16/16
f 13/13/13 16/16/16 18/18/18
f 17/17/17 19/19/19 16/16/16
f 16/16/16 20/20/20 18/18/18
f 16/16/16 19/19/19 20/20/20
f 18/18/18 20/20/20 21/21/21
f 19/19/19 22/22/22 20/20/20
f 20/20/20 23/23/23 21/21/21
f 20/20/20 22/22/22 23/23/23
f 21/21/21 23/23/23 24/24/24
f 22/22/22 25/25/25 23/23/23
f 23/23/23 26/26/26 24/24/24
f 23/23/23 25/25/25 26/26/26
f 24/24/24 26/26/26 27/27/27
f 25/25/25 28/28/28 26/26/26
f 26/26/26 29/29/29 27/27/27
f 26/26/26 28/28/28 29/29/29
f 28/28/28 30/30/30 29/29/29
f 33/33/33 32/32/32 31/31/31
f 34/34/34 33/33/33 31/31/31
f 35/35/35 33/33/33 34/34/34
f 36/36/36 35/35/35 34/34/34
f 37/37/37 35/35/35 36/36/36
f 38/38/38 37/37/37 36/36/36
f 39/39/39 37/37/37 38/38/38
f 40/40/40 39/39/39 38/38/38
f 41/41/41 39/39/39 40/40/40
f 42/42/42 41/41/41 40/40/40
f 45/45/45 44/44/44 43/43/43
f 46/46/46 45/45/45 43/43/43
f 47/47/47 45/45/45 46/46/46
f 48/48/48 47/47/47 46/46/46
f 49/49/49 47/47/47 48/48/48
f 50/50/50 49/49/49 48/48/48
f 51/51/51 49/49/49 50/50/50
f 52/52/52 51/51/51 50/50/50
f 53/53/53 51/51/51 52/52/52
f 54/54/54 53/53/53 52/52/52
f 57/57/57 56/56/56 55/55/55
f 56/56/56 58/58/58 55/55/55
f 56/56/56 59/59/59 58/58/58
f 59/59/59 60/60/60 58/58/58
f 59/59/59 61/61/61 60/60/60
f 61/61/61 62/62/62 60/60/60
f 61/61/61 63/63/63 62/62/62
f 63/63/63 64/64/64 62/62/62
f 63/63/63 65/65/65 64/64/64
f 65/65/65 66/66/66 64/64/64
f 69/69/69 68/68/68 67/67/67
f 70/70/70 69/69/69 67/67/67
f 71/71/71 69/69/69 70/70/70
f 72/72/72 71/71/71 70/70/70
f 73/73/73 71/71/71 72/72/72
f 74/74/74 73/73/73 72/72/72
f 75/75/75 73/73/73 74/74/74
f 76/76/76 75/75/75 74/74/74
f 77/77/77 75/75/75 76/76/76
f 78/78/78 77/77/77 76/76/76
f 81/81/81 80/80/80 79/79/79
f 80/80/80 82/82/82 79/79/79
f 80/80/80 83/83/83 82/82/82
f 82/82/82 84/84/84 79/79/79
f 84/84/84 85/85/85 79/79/79
f 86/86/86 84/84/84 82/82/82
f 83/83/83 87/87/87 82/82/82
f 87/87/87 86/86/86 82/82/82
f 83/83/83 88/88/88 87/87/87
f 89/89/89 86/86/86 87/87/87
f 88/88/88 90/90/90 87/87/87
f 90/90/90 89/89/89 87/87/87
f 88/88/88 91/91/91 90/90/90
f 92/92/92 89/89/89 90/90/90
f 91/91/91 93/93/93 90/90/90
f 93/93/93 92/92/92 90/90/90
f 91/91/91 94/94/94 93/93/93
f 95/95/95 92/92/92 93/93/93
f 94/94/94 96/96/96 93/93/93
f 96/96/96 95/95/95 93/93/93
f 99/99/99 98/98/98 97/97/97
f 98/98/98 100/100/100 97/97/97
f 98/98/98 101/101/101 100/100/100
f 101/101/101 102/102/102 100/100/100
f 101/101/101 103/103/103 102/102/102
f 103/103/103 104/104/104 102/102/102
f 103/103/103 105/105/105 104/104/104
f 105/105/105 106/106/106 104/104/104
f 105/105/105 107/107/107 106/106/106
f 107/107/107 108/108/108 106/106/106
f 111/111/111 110/110/110 109/109/109
f 112/112/112 111/111/111 109/109/109
f 113/113/113 111/111/111 112/112/112
f 114/114/114 113/113/113 112/112/112
f 115/115/115 113/113/113 114/114/114
f 116/116/116 115/115/115 114/114/114
f 117/117/117 115/115/115 116/116/116
f 118/118/118 117/117/117 116/116/116
f 119/119/119 117/117/117 118/118/118
f 120/120/120 119/119/119 118/118/118
f 123/123/123 122/122/122 121/121/121
f 122/122/122 124/124/124 121/121/121
f 121/121/121 124/124/124 125/125/125
f 124/124/124 126/126/126 125/125/125
f 125/125/125 126/126/126 127/127/127
f 126/126/126 128/128/128 127/127/127
f 127/127/127 128/128/128 129/129/129
f 128/128/128 130/130/130 129/129/129
f 129/129/129 130/130/130 131/131/131
f 130/130/130 132/132/132 131/131/131
