g ruinPillar01_COL
v -1.740968 0 -2.010504
v -1.740968 0 2.010504
v 1.740968 0 2.010504
v 1.740968 0 -2.010504
v -1.732332 0.7969882 -1.979249
v 1.729326 0.7969882 -1.979249
v -1.38947 1.805295 -1.306181
v 1.283973 1.805295 -1.306181
v -1.04799 5.669608 -1.094388
v 1.048741 5.669608 -1.094388
v -1.306259 9.781403 -1.358619
v 1.183181 9.781403 -1.358619
v -1.609864 12.09831 -1.536063
v 1.564235 12.09831 -1.536063
v -1.609864 12.09831 1.655222
v 1.564235 12.09831 1.655222
v -1.306259 9.781403 1.398897
v -1.306259 9.781403 -1.358619
v -1.609864 12.09831 -1.536063
v -1.04799 5.669608 -1.094388
v 1.183181 9.781403 1.398897
v 1.564235 12.09831 -1.536063
v 1.183181 9.781403 -1.358619
v -1.04799 5.669608 1.045112
v -1.38947 1.805295 -1.306181
v 1.048741 5.669608 1.045112
v 1.048741 5.669608 -1.094388
v -1.38947 1.805294 1.454796
v -1.732332 0.7969882 -1.979249
v 1.283974 1.805294 1.454796
v 1.283973 1.805295 -1.306181
v -1.732332 0.796987 1.987099
v -1.740968 0 -2.010504
v -1.740968 0 2.010504
v 1.729326 0.796987 1.987099
v 1.729326 0.7969882 -1.979249
v 1.740968 0 2.010504
v 1.740968 0 -2.010504
vt 0.375 0.75
vt 0.375 1
vt 0.625 1
vt 0.625 0.75
vt 0.375 0.733531
vt 0.625 0.733531
vt 0.375 0.7114577
vt 0.625 0.7114577
vt 0.375 0.6566222
vt 0.625 0.6566222
vt 0.375 0.5407312
vt 0.625 0.5407312
vt 0.375 0.5
vt 0.625 0.5
vt 0.375 0.25
vt 0.625 0.25
vt 0.375 0.2092688
vt 0.125 0.2092688
vt 0.125 0.25
vt 0.125 0.09337781
vt 0.625 0.2092688
vt 0.875 0.25
vt 0.875 0.2092688
vt 0.375 0.0933778
vt 0.125 0.03854235
vt 0.625 0.0933778
vt 0.875 0.09337781
vt 0.375 0.03854233
vt 0.125 0.016469
vt 0.625 0.03854233
vt 0.875 0.03854235
vt 0.375 0.01646898
vt 0.125 0
vt 0.375 0
vt 0.625 0.01646898
vt 0.875 0.016469
vt 0.625 0
vt 0.875 0
vn -0.2145355 -0.9580666 -0.1899548
vn -0.2154665 -0.9579358 0.1895609
vn 0.2156505 -0.957953 0.1892642
vn 0.2147172 -0.9580851 -0.1896563
vn -0.6757948 0.3214868 -0.6632856
vn 0.6818578 0.3408262 -0.6472304
vn -0.715651 0.2747675 -0.6421421
vn 0.7042025 0.2870441 -0.6493878
vn -0.720084 0.003942014 -0.6938757
vn 0.7261584 0.005729661 -0.6875035
vn -0.7177408 -0.1139037 -0.686931
vn 0.7111868 -0.1117138 -0.6940701
vn -0.5237259 0.7034019 -0.480559
vn 0.5328305 0.6984748 -0.4777285
vn -0.5205762 0.7000927 0.4887439
vn 0.5295467 0.6954164 0.4857741
vn -0.7162472 -0.1326699 0.6851193
vn -0.7177408 -0.1139037 -0.686931
vn -0.5237259 0.7034019 -0.480559
vn -0.720084 0.003942014 -0.6938757
vn 0.7096835 -0.1310499 0.6922248
vn 0.5328305 0.6984748 -0.4777285
vn 0.7111868 -0.1117138 -0.6940701
vn -0.7275243 0.01453715 0.6859278
vn -0.715651 0.2747675 -0.6421421
vn 0.733507 0.01609099 0.6794913
vn 0.7261584 0.005729661 -0.6875035
vn -0.7026622 0.2727081 0.6571881
vn -0.6757948 0.3214868 -0.6632856
vn 0.6911371 0.2840929 0.6645455
vn 0.7042025 0.2870441 -0.6493878
vn -0.6988859 0.2802801 0.6580285
vn -0.2145355 -0.9580666 -0.1899548
vn -0.2154665 -0.9579358 0.1895609
vn 0.7046027 0.3041241 0.6411268
vn 0.6818578 0.3408262 -0.6472304
vn 0.2156505 -0.957953 0.1892642
vn 0.2147172 -0.9580851 -0.1896563
g ruinPillar01_COL_0
f 3/3/3 2/2/2 1/1/1
f 4/4/4 3/3/3 1/1/1
f 4/4/4 1/1/1 5/5/5
f 6/6/6 4/4/4 5/5/5
f 6/6/6 5/5/5 7/7/7
f 8/8/8 6/6/6 7/7/7
f 8/8/8 7/7/7 9/9/9
f 10/10/10 8/8/8 9/9/9
f 10/10/10 9/9/9 11/11/11
f 12/12/12 10/10/10 11/11/11
f 12/12/12 11/11/11 13/13/13
f 14/14/14 12/12/12 13/13/13
f 14/14/14 13/13/13 15/15/15
f 16/16/16 14/14/14 15/15/15
f 16/16/16 15/15/15 17/17/17
f 17/17/17 15/15/15 18/18/18
f 15/15/15 19/19/19 18/18/18
f 17/17/17 18/18/18 20/20/20
f 21/21/21 16/16/16 17/17/17
f 22/22/22 16/16/16 21/21/21
f 23/23/23 22/22/22 21/21/21
f 24/24/24 17/17/17 20/20/20
f 21/21/21 17/17/17 24/24/24
f 24/24/24 20/20/20 25/25/25
f 23/23/23 21/21/21 26/26/26
f 26/26/26 21/21/21 24/24/24
f 27/27/27 23/23/23 26/26/26
f 28/28/28 24/24/24 25/25/25
f 26/26/26 24/24/24 28/28/28
f 28/28/28 25/25/25 29/29/29
f 27/27/27 26/26/26 30/30/30
f 30/30/30 26/26/26 28/28/28
f 31/31/31 27/27/27 30/30/30
f 32/32/32 28/28/28 29/29/29
f 30/30/30 28/28/28 32/32/32
f 32/32/32 29/29/29 33/33/33
f 34/34/34 32/32/32 33/33/33
f 31/31/31 30/30/30 35/35/35
f 35/35/35 30/30/30 32/32/32
f 35/35/35 32/32/32 34/34/34
f 36/36/36 31/31/31 35/35/35
f 37/37/37 35/35/35 34/34/34
f 36/36/36 35/35/35 37/37/37
f 38/38/38 36/36/36 37/37/37
