g ruinBlock05
v -0.9098127 7.93457E-06 0.906849
v 0.9214131 2.410889E-05 0.906849
v 0.9214131 6.103515E-06 -0.872056
v -0.9098127 7.019043E-06 -0.872056
v -0.9098127 7.93457E-06 0.906849
v -0.9098127 7.019043E-06 -0.872056
v -0.9909051 0.07261505 -0.872056
v -0.987767 0.07261505 0.906849
v -0.9098127 7.019043E-06 -0.872056
v 0.9214131 0.07261505 -0.9773689
v -0.9098127 0.07261505 -0.953329
v 0.9214131 6.103515E-06 -0.872056
v 0.9983479 0.07261505 -0.872056
v 0.9214131 0.687384 -0.9852359
v 0.9999989 0.6873831 -0.872056
v -0.9098127 0.07261505 -0.953329
v -0.9098127 0.6873831 -1.000031
v 0.9214131 0.7650372 -0.872056
v -0.9098127 0.6873831 -1.000031
v -0.9098127 0.7637771 -0.872056
v -0.9098127 0.07261505 -0.953329
v -0.9909051 0.07261505 -0.872056
v -0.9098127 0.6873831 -1.000031
v -0.999974 0.6873831 -0.872056
v -0.9098127 0.7637771 -0.872056
v -0.9098127 0.7637771 -0.872056
v 0.9214131 0.7650372 -0.872056
v 0.9214131 0.7444989 0.906849
v -0.9098127 0.7382821 0.906849
v 0.9999989 0.6873831 -0.872056
v 0.9832222 0.687384 0.906849
v 0.9214131 0.7650372 -0.872056
v -0.9098127 0.7637771 -0.872056
v -0.9098127 0.7382821 0.906849
v -0.9690379 0.6873831 0.906849
v -0.999974 0.6873831 -0.872056
v -0.9098127 0.7382821 0.906849
v 0.9214131 0.6873831 0.968382
v -0.9098127 0.6873831 0.9947641
v 0.9214131 0.7444989 0.906849
v 0.9832222 0.687384 0.906849
v 0.9214131 0.07261505 0.9791789
v -0.9098127 0.6873831 0.9947641
v -0.9098127 0.07261505 0.993566
v 0.982359 0.07261413 0.906849
v 0.9214131 2.410889E-05 0.906849
v -0.9098127 0.07261505 0.993566
v -0.9098127 7.93457E-06 0.906849
v -0.987767 0.07261505 0.906849
v -0.9690379 0.6873831 0.906849
v -0.9098127 0.6873831 0.9947641
v -0.9098127 0.7382821 0.906849
v -0.987767 0.07261505 0.906849
v -0.9909051 0.07261505 -0.872056
v -0.999974 0.6873831 -0.872056
v -0.9690379 0.6873831 0.906849
v 0.9214131 6.103515E-06 -0.872056
v 0.9214131 2.410889E-05 0.906849
v 0.982359 0.07261413 0.906849
v 0.9983479 0.07261505 -0.872056
v 0.9832222 0.687384 0.906849
v 0.9999989 0.6873831 -0.872056
vt 0.481546 0.272932
vt 0.481546 0.412726
vt 0.617347 0.412726
vt 0.617347 0.272932
vt 0.470025 0.395809
vt 0.472862 0.259995
vt 0.464549 0.259835
vt 0.461872 0.395674
vt 0.403097 0.242944
vt 0.393393 0.101301
vt 0.395275 0.240414
vt 0.402153 0.097304
vt 0.395475 0.091561
vt 0.348741 0.10148
vt 0.345546 0.091561
vt 0.395275 0.240414
vt 0.350465 0.238815
vt 0.339082 0.097863
vt 0.350465 0.238815
vt 0.340251 0.242847
vt 0.395275 0.240414
vt 0.39653 0.249075
vt 0.350465 0.238815
vt 0.347071 0.249905
vt 0.340251 0.242847
vt 0.408412 0.258819
vt 0.268166 0.258994
vt 0.268398 0.394803
vt 0.40856 0.394577
vt 0.259716 0.259091
vt 0.261961 0.394856
vt 0.268166 0.258994
vt 0.408412 0.258819
vt 0.40856 0.394577
vt 0.414559 0.394656
vt 0.417484 0.258949
vt 0.293516 0.069722
vt 0.434309 0.071431
vt 0.296831 0.063003
vt 0.435679 0.077637
vt 0.440726 0.073061
vt 0.436626 0.025853
vt 0.296831 0.063003
vt 0.298083 0.018152
vt 0.443742 0.024811
vt 0.439275 0.018644
vt 0.298083 0.018152
vt 0.295689 0.01
vt 0.289464 0.016124
vt 0.289122 0.065228
vt 0.296831 0.063003
vt 0.293516 0.069722
vt 0.461872 0.395674
vt 0.464549 0.259835
vt 0.417484 0.258949
vt 0.414559 0.394656
vt 0.204539 0.260025
vt 0.207687 0.395809
vt 0.214925 0.39563
vt 0.212627 0.259846
vt 0.261961 0.394856
vt 0.259716 0.259091
vn -0.07415336 -0.9949487 0.06766254
vn 0.06597934 -0.9956666 0.06553259
vn 0.07165723 -0.9974292 0.0003336123
vn -0.07547772 -0.9949366 -0.06636488
vn -0.07415336 -0.9949487 0.06766254
vn -0.07547772 -0.9949366 -0.06636488
vn -0.9889072 -0.1279832 -0.07538494
vn -0.9929109 -0.1185491 0.008596323
vn -0.07547772 -0.9949366 -0.06636488
vn 0.113468 -0.1602919 -0.9805261
vn -0.00299033 -0.1892366 -0.981927
vn 0.06865559 -0.9951325 -0.07069416
vn 0.9909759 -0.1102929 -0.07617284
vn 0.1167476 0.1520458 -0.9814541
vn 0.9908333 0.1092796 -0.0794187
vn -0.1159652 -0.1648658 -0.979475
vn -0.001793783 0.1602797 -0.9870701
vn 0.07309967 0.994911 -0.06934323
vn -0.1340956 0.1364645 -0.9815273
vn 0.002385156 0.996929 -0.07827515
vn -0.1159652 -0.1648658 -0.979475
vn -0.9889072 -0.1279832 -0.07538494
vn -0.1340956 0.1364645 -0.9815273
vn -0.9892854 0.1084759 -0.09770974
vn -0.07687476 0.9940759 -0.07683288
vn -0.07687476 0.9940759 -0.07683288
vn 0.07309967 0.994911 -0.06934323
vn 0.06595784 0.9960803 0.05893657
vn 0.001321534 0.9969063 0.07858703
vn 0.9908333 0.1092796 -0.0794187
vn 0.9934177 0.08940094 0.07161568
vn 0.07443409 0.997201 0.00706206
vn -0.07687476 0.9940759 -0.07683288
vn -0.06540854 0.9954534 0.06923974
vn -0.9923627 0.09447152 0.07931755
vn -0.9920802 0.1251824 0.01031114
vn -0.06540854 0.9954534 0.06923974
vn 0.08662857 0.1005863 0.9911498
vn 0.0103832 0.1375811 0.9904361
vn 0.06595784 0.9960803 0.05893657
vn 0.9934177 0.08940094 0.07161568
vn 0.08869201 -0.1037305 0.9906431
vn -0.09167533 0.117782 0.9887988
vn 0.01027756 -0.1255853 0.9920295
vn 0.9926641 -0.09471424 0.07514847
vn 0.06597934 -0.9956666 0.06553259
vn -0.09798331 -0.1250307 0.9873027
vn -0.07415336 -0.9949487 0.06766254
vn -0.9913524 -0.1033278 0.08089297
vn -0.9923627 0.09447152 0.07931755
vn -0.09167533 0.117782 0.9887988
vn -0.06540854 0.9954534 0.06923974
vn -0.9913524 -0.1033278 0.08089297
vn -0.9889072 -0.1279832 -0.07538494
vn -0.9892854 0.1084759 -0.09770974
vn -0.9923627 0.09447152 0.07931755
vn 0.06865559 -0.9951325 -0.07069416
vn 0.06597934 -0.9956666 0.06553259
vn 0.9926641 -0.09471424 0.07514847
vn 0.9909759 -0.1102929 -0.07617284
vn 0.9934177 0.08940094 0.07161568
vn 0.9941478 0.1076245 0.009334291
g ruinBlock05_0
f 3/3/3 2/2/2 1/1/1
f 4/4/4 3/3/3 1/1/1
f 7/7/7 6/6/6 5/5/5
f 8/8/8 7/7/7 5/5/5
f 11/11/11 10/10/10 9/9/9
f 10/10/10 12/12/12 9/9/9
f 13/13/13 12/12/12 10/10/10
f 10/10/10 14/14/14 13/13/13
f 14/14/14 15/15/15 13/13/13
f 14/14/14 10/10/10 16/16/16
f 17/17/17 14/14/14 16/16/16
f 14/14/14 18/18/18 15/15/15
f 18/18/18 14/14/14 19/19/19
f 20/20/20 18/18/18 19/19/19
f 9/9/9 22/22/22 21/21/21
f 21/21/21 22/22/22 23/23/23
f 22/22/22 24/24/24 23/23/23
f 23/23/23 24/24/24 25/25/25
f 28/28/28 27/27/27 26/26/26
f 29/29/29 28/28/28 26/26/26
f 28/28/28 31/31/31 30/30/30
f 32/32/32 28/28/28 30/30/30
f 35/35/35 34/34/34 33/33/33
f 36/36/36 35/35/35 33/33/33
f 39/39/39 38/38/38 37/37/37
f 38/38/38 40/40/40 37/37/37
f 41/41/41 40/40/40 38/38/38
f 41/41/41 38/38/38 42/42/42
f 42/42/42 38/38/38 43/43/43
f 44/44/44 42/42/42 43/43/43
f 45/45/45 41/41/41 42/42/42
f 42/42/42 46/46/46 45/45/45
f 46/46/46 42/42/42 47/47/47
f 48/48/48 46/46/46 47/47/47
f 47/47/47 49/49/49 48/48/48
f 50/50/50 49/49/49 47/47/47
f 51/51/51 50/50/50 47/47/47
f 52/52/52 50/50/50 51/51/51
f 55/55/55 54/54/54 53/53/53
f 56/56/56 55/55/55 53/53/53
f 59/59/59 58/58/58 57/57/57
f 60/60/60 59/59/59 57/57/57
f 61/61/61 59/59/59 60/60/60
f 62/62/62 61/61/61 60/60/60
