g ruinWall03_LOD1
v -2.977924 5.698796 0.250025
v -1.701623 5.750025 0.5
v -2.977924 5.448821 0.5
v -1.701623 6 0.250025
v 1.701623 5.750025 0.5
v -1.701623 6 -0.250025
v -2.977924 5.698796 -0.250025
v -2.977924 5.448821 -0.5
v -1.701623 5.750025 -0.5
v 1.701623 6 0.250025
v 2.931099 5.61903 0.5
v 2.931099 5.869004 0.250025
v 2.931099 5.869004 -0.250025
v 1.701623 6 -0.250025
v 1.701623 5.750025 -0.5
v 2.931099 5.61903 -0.5
v -3.292766 0.2610981 0.250025
v -3.042792 2 0.5
v -3.042792 0.2610981 0.5
v -3.292766 2 0.250025
v -3.042792 4 0.5
v -3.292766 4 0.250025
v -2.977924 5.448821 0.5
v -3.292766 2 -0.250025
v -3.227899 5.448821 0.250025
v -2.977924 5.698796 0.250025
v -2.977924 5.698796 -0.250025
v -3.292766 4 -0.250025
v -3.227899 5.448821 -0.250025
v -2.977924 5.448821 -0.5
v -3.042792 4 -0.5
v -3.042792 2 -0.5
v -3.042792 0.2610981 -0.5
v -3.292766 0.2610981 -0.250025
v -3.557175 0 -0.3615828
v -3.557175 0 0.3615828
v 3.042791 2 -0.5
v 3.042791 0.2610981 -0.5
v 3.292766 0.2610981 -0.250025
v 3.292767 2 -0.250025
v 3.042791 4 -0.5
v 3.292767 4 -0.250025
v 2.931099 5.61903 -0.5
v 3.292767 2 0.250025
v 3.181074 5.61903 -0.250025
v 2.931099 5.869004 -0.250025
v 2.931099 5.869004 0.250025
v 3.292767 4 0.250025
v 3.181074 5.61903 0.250025
v 2.931099 5.61903 0.5
v 3.042791 4 0.5
v 3.042791 2 0.5
v 3.042791 0.2610981 0.5
v 3.292766 0.2610981 0.250025
v 3.557174 0 0.3615828
v 3.557174 0 -0.3615828
v -3.042792 4 0.5
v -2.977924 5.448821 0.5
v -1.701623 5.750025 0.5
v -1.701623 4 0.5
v -3.042792 2 0.5
v 1.701623 4 0.5
v 1.701623 5.750025 0.5
v 2.931099 5.61903 0.5
v 3.042791 4 0.5
v 1.701623 2 0.5
v 3.042791 2 0.5
v -1.701623 2 0.5
v 1.701623 0.2610981 0.5
v 3.042791 0.2610981 0.5
v -1.701623 0.2610981 0.5
v -3.042792 0.2610981 0.5
v 1.701623 0 0.7230932
v 3.042791 0 0.7230932
v 3.292766 0.2610981 0.250025
v 3.557174 0 0.3615828
v -1.701623 0 0.7230932
v -3.042792 0 0.7230932
v -3.557175 0 0.3615828
v -3.292766 0.2610981 0.250025
v 1.701623 5.750025 -0.5
v 3.042791 4 -0.5
v 2.931099 5.61903 -0.5
v 1.701623 4 -0.5
v 3.042791 2 -0.5
v -1.701623 4 -0.5
v -1.701623 5.750025 -0.5
v -2.977924 5.448821 -0.5
v -3.042792 4 -0.5
v -1.701623 2 -0.5
v -3.042792 2 -0.5
v 1.701623 2 -0.5
v 3.042791 0.2610981 -0.5
v -1.701623 0.2610981 -0.5
v -3.042792 0.2610981 -0.5
v 1.701623 0.2610981 -0.5
v -1.701623 0 -0.7230932
v -3.042792 0 -0.7230932
v -3.292766 0.2610981 -0.250025
v -3.557175 0 -0.3615828
v 1.701623 0 -0.7230932
v 3.042791 0 -0.7230932
v 3.557174 0 -0.3615828
v 3.292766 0.2610981 -0.250025
vt 1.110128 1.361143
vt 1.077195 1.192993
vt 1.077195 1.361143
vt 1.110128 1.192993
vt 1.077195 0.7446237
vt 1.176008 1.192993
vt 1.176008 1.361143
vt 1.208942 1.361143
vt 1.208942 1.192993
vt 1.110128 0.7446237
vt 1.077195 0.5826432
vt 1.110128 0.5826432
vt 1.176008 0.5826432
vt 1.176008 0.7446237
vt 1.208942 0.7446237
vt 1.208942 0.5826432
vt 0.8931684 0.6170423
vt 0.926102 0.8461386
vt 0.926102 0.6170423
vt 0.8931684 0.8461386
vt 0.926102 1.109634
vt 0.8931684 1.109634
vt 0.926102 1.300513
vt 0.8272882 0.8461386
vt 0.8931684 1.300513
vt 0.8931684 1.333446
vt 0.8272882 1.333446
vt 0.8272882 1.109634
vt 0.8272882 1.300513
vt 0.7943544 1.300513
vt 0.7943544 1.109634
vt 0.7943544 0.8461386
vt 0.7943544 0.6170423
vt 0.8272882 0.6170423
vt 0.8125906 0.5826433
vt 0.9078659 0.5826433
vt 1.067522 0.8461386
vt 1.067522 0.6170423
vt 1.034588 0.6170423
vt 1.034588 0.8461386
vt 1.067522 1.109634
vt 1.034588 1.109634
vt 1.067522 1.322937
vt 0.968708 0.8461386
vt 1.034588 1.322937
vt 1.034588 1.355871
vt 0.968708 1.355871
vt 0.968708 1.109634
vt 0.968708 1.322937
vt 0.9357743 1.322937
vt 0.9357743 1.109634
vt 0.9357743 0.8461386
vt 0.9357743 0.6170423
vt 0.968708 0.6170423
vt 0.9540105 0.5826433
vt 1.049286 0.5826433
vt 0.1657053 0.5085819
vt 0.3565842 0.5000357
vt 0.396267 0.3318861
vt 0.1657053 0.3318861
vt -0.09779002 0.5085819
vt 0.1657053 -0.1164837
vt 0.396267 -0.1164837
vt 0.3790087 -0.2784642
vt 0.1657053 -0.2931793
vt -0.09779002 -0.1164837
vt -0.09779002 -0.2931793
vt -0.09779002 0.3318861
vt -0.3268863 -0.1164837
vt -0.3268863 -0.2931793
vt -0.3268863 0.3318861
vt -0.3268863 0.5085819
vt -0.3612852 -0.1164837
vt -0.3612852 -0.2931793
vt -0.3268863 -0.3261129
vt -0.3612852 -0.3609481
vt -0.3612852 0.3318861
vt -0.3612852 0.5085819
vt -0.3612852 0.5763506
vt -0.3268863 0.5415155
vt 0.4071568 -0.1164836
vt 0.6377184 -0.2931793
vt 0.4244151 -0.278464
vt 0.6377184 -0.1164836
vt 0.9012138 -0.2931793
vt 0.6377184 0.3318861
vt 0.4071568 0.3318861
vt 0.4468396 0.5000358
vt 0.6377184 0.508582
vt 0.9012138 0.3318861
vt 0.9012138 0.508582
vt 0.9012138 -0.1164836
vt 1.13031 -0.2931792
vt 1.13031 0.3318861
vt 1.13031 0.508582
vt 1.13031 -0.1164836
vt 1.164709 0.3318861
vt 1.164709 0.508582
vt 1.13031 0.5415155
vt 1.164709 0.5763507
vt 1.164709 -0.1164836
vt 1.164709 -0.2931792
vt 1.164709 -0.3609481
vt 1.13031 -0.326113
vn -0.3025172 0.9055935 0.2972939
vn -0.009214478 0.1333619 0.9910246
vn -0.1400082 0.1019236 0.9848905
vn -0.059519 0.9488072 0.3101973
vn 0.003721569 0.1272099 0.9918689
vn -0.059519 0.9488072 -0.3101973
vn -0.3025172 0.9055935 -0.2972939
vn -0.1400082 0.1019236 -0.9848905
vn -0.009214478 0.1333619 -0.9910246
vn 0.02652368 0.9491642 0.3136619
vn 0.1406535 0.1078372 0.9841686
vn 0.2114162 0.9317924 0.2950699
vn 0.2114162 0.9317924 -0.2950699
vn 0.02652368 0.9491642 -0.3136619
vn 0.003721569 0.1272099 -0.9918689
vn 0.1406535 0.1078372 -0.9841686
vn -0.9283269 0.1840983 0.3229813
vn -0.1552004 0 0.987883
vn -0.1622703 0.1311031 0.9779981
vn -0.9486962 0 0.3161891
vn -0.1539344 0.002928824 0.9880767
vn -0.9490815 0.0177812 0.3145284
vn -0.1400082 0.1019236 0.9848905
vn -0.9486962 0 -0.3161891
vn -0.9433147 0.1482244 0.2969628
vn -0.3025172 0.9055935 0.2972939
vn -0.3025172 0.9055935 -0.2972939
vn -0.9490815 0.0177812 -0.3145284
vn -0.9433147 0.1482244 -0.2969628
vn -0.1400082 0.1019236 -0.9848905
vn -0.1539344 0.002928824 -0.9880767
vn -0.1552004 0 -0.987883
vn -0.1622703 0.1311031 -0.9779981
vn -0.9283269 0.1840983 -0.3229813
vn -0.6489499 0.717113 -0.2541908
vn -0.64895 0.717113 0.2541909
vn 0.1552004 0 -0.987883
vn 0.1622702 0.1311029 -0.9779981
vn 0.9283266 0.1840976 -0.3229825
vn 0.9486957 0 -0.3161905
vn 0.1597901 0.00501483 -0.9871383
vn 0.9491709 0.02912574 -0.3134108
vn 0.1406535 0.1078372 -0.9841686
vn 0.9486958 0 0.3161905
vn 0.9407023 0.157939 -0.300224
vn 0.2114162 0.9317924 -0.2950699
vn 0.2114162 0.9317924 0.2950699
vn 0.9491709 0.02912574 0.3134108
vn 0.9407023 0.157939 0.3002239
vn 0.1406535 0.1078372 0.9841686
vn 0.1597901 0.00501483 0.9871383
vn 0.1552004 0 0.987883
vn 0.1622702 0.1311029 0.9779981
vn 0.9283266 0.1840976 0.3229825
vn 0.6489508 0.7171118 0.2541918
vn 0.6489508 0.7171118 -0.2541918
vn -0.1539344 0.002928824 0.9880767
vn -0.1400082 0.1019236 0.9848905
vn -0.009214478 0.1333619 0.9910246
vn 0 0 1
vn -0.1552004 0 0.987883
vn 0 0 1
vn 0.003721569 0.1272099 0.9918689
vn 0.1406535 0.1078372 0.9841686
vn 0.1597901 0.00501483 0.9871383
vn 0 0 1
vn 0.1552004 0 0.987883
vn 0 0 1
vn 0 0.110859 0.9938361
vn 0.1622702 0.1311029 0.9779981
vn 0 0.110859 0.9938361
vn -0.1622703 0.1311031 0.9779981
vn 0 0.6496069 0.7602702
vn 0.1054493 0.6604536 0.7434256
vn 0.9283266 0.1840976 0.3229825
vn 0.6489508 0.7171118 0.2541918
vn 0 0.6496069 0.7602702
vn -0.1054492 0.6604537 0.7434254
vn -0.64895 0.717113 0.2541909
vn -0.9283269 0.1840983 0.3229813
vn 0.003721569 0.1272099 -0.9918689
vn 0.1597901 0.00501483 -0.9871383
vn 0.1406535 0.1078372 -0.9841686
vn 0 0 -1
vn 0.1552004 0 -0.987883
vn 0 0 -1
vn -0.009214478 0.1333619 -0.9910246
vn -0.1400082 0.1019236 -0.9848905
vn -0.1539344 0.002928824 -0.9880767
vn 0 0 -1
vn -0.1552004 0 -0.987883
vn 0 0 -1
vn 0.1622702 0.1311029 -0.9779981
vn 0 0.110859 -0.9938361
vn -0.1622703 0.1311031 -0.9779981
vn 0 0.110859 -0.9938361
vn 0 0.6496069 -0.7602702
vn -0.1054492 0.6604537 -0.7434254
vn -0.9283269 0.1840983 -0.3229813
vn -0.6489499 0.717113 -0.2541908
vn 0 0.6496069 -0.7602702
vn 0.1054493 0.6604536 -0.7434256
vn 0.6489508 0.7171118 -0.2541918
vn 0.9283266 0.1840976 -0.3229825
g ruinWall03_LOD1_0
f 3/3/3 2/2/2 1/1/1
f 2/2/2 4/4/4 1/1/1
f 2/2/2 5/5/5 4/4/4
f 4/4/4 6/6/6 1/1/1
f 6/6/6 7/7/7 1/1/1
f 7/7/7 6/6/6 8/8/8
f 6/6/6 9/9/9 8/8/8
f 5/5/5 10/10/10 4/4/4
f 4/4/4 10/10/10 6/6/6
f 5/5/5 11/11/11 10/10/10
f 11/11/11 12/12/12 10/10/10
f 12/12/12 13/13/13 10/10/10
f 6/6/6 14/14/14 9/9/9
f 10/10/10 14/14/14 6/6/6
f 13/13/13 14/14/14 10/10/10
f 14/14/14 15/15/15 9/9/9
f 14/14/14 13/13/13 15/15/15
f 13/13/13 16/16/16 15/15/15
f 19/19/19 18/18/18 17/17/17
f 18/18/18 20/20/20 17/17/17
f 18/18/18 21/21/21 20/20/20
f 21/21/21 22/22/22 20/20/20
f 22/22/22 21/21/21 23/23/23
f 17/17/17 20/20/20 24/24/24
f 20/20/20 22/22/22 24/24/24
f 25/25/25 22/22/22 23/23/23
f 23/23/23 26/26/26 25/25/25
f 26/26/26 27/27/27 25/25/25
f 22/22/22 25/25/25 28/28/28
f 22/22/22 28/28/28 24/24/24
f 27/27/27 29/29/29 25/25/25
f 25/25/25 29/29/29 28/28/28
f 27/27/27 30/30/30 29/29/29
f 30/30/30 31/31/31 29/29/29
f 31/31/31 28/28/28 29/29/29
f 31/31/31 32/32/32 28/28/28
f 32/32/32 24/24/24 28/28/28
f 32/32/32 33/33/33 24/24/24
f 33/33/33 34/34/34 24/24/24
f 34/34/34 17/17/17 24/24/24
f 34/34/34 35/35/35 17/17/17
f 35/35/35 36/36/36 17/17/17
f 39/39/39 38/38/38 37/37/37
f 40/40/40 39/39/39 37/37/37
f 40/40/40 37/37/37 41/41/41
f 42/42/42 40/40/40 41/41/41
f 42/42/42 41/41/41 43/43/43
f 39/39/39 40/40/40 44/44/44
f 40/40/40 42/42/42 44/44/44
f 45/45/45 42/42/42 43/43/43
f 46/46/46 45/45/45 43/43/43
f 45/45/45 46/46/46 47/47/47
f 42/42/42 45/45/45 48/48/48
f 42/42/42 48/48/48 44/44/44
f 49/49/49 45/45/45 47/47/47
f 45/45/45 49/49/49 48/48/48
f 50/50/50 49/49/49 47/47/47
f 50/50/50 51/51/51 49/49/49
f 51/51/51 48/48/48 49/49/49
f 48/48/48 51/51/51 52/52/52
f 44/44/44 48/48/48 52/52/52
f 44/44/44 52/52/52 53/53/53
f 54/54/54 44/44/44 53/53/53
f 54/54/54 39/39/39 44/44/44
f 54/54/54 55/55/55 39/39/39
f 55/55/55 56/56/56 39/39/39
f 59/59/59 58/58/58 57/57/57
f 60/60/60 59/59/59 57/57/57
f 60/60/60 57/57/57 61/61/61
f 60/60/60 62/62/62 59/59/59
f 62/62/62 63/63/63 59/59/59
f 64/64/64 63/63/63 62/62/62
f 65/65/65 64/64/64 62/62/62
f 65/65/65 62/62/62 66/66/66
f 66/66/66 62/62/62 60/60/60
f 67/67/67 65/65/65 66/66/66
f 68/68/68 60/60/60 61/61/61
f 68/68/68 66/66/66 60/60/60
f 67/67/67 66/66/66 69/69/69
f 69/69/69 66/66/66 68/68/68
f 70/70/70 67/67/67 69/69/69
f 71/71/71 68/68/68 61/61/61
f 71/71/71 69/69/69 68/68/68
f 72/72/72 71/71/71 61/61/61
f 70/70/70 69/69/69 73/73/73
f 73/73/73 69/69/69 71/71/71
f 74/74/74 70/70/70 73/73/73
f 75/75/75 70/70/70 74/74/74
f 76/76/76 75/75/75 74/74/74
f 77/77/77 73/73/73 71/71/71
f 78/78/78 77/77/77 71/71/71
f 72/72/72 78/78/78 71/71/71
f 78/78/78 72/72/72 79/79/79
f 72/72/72 80/80/80 79/79/79
f 83/83/83 82/82/82 81/81/81
f 82/82/82 84/84/84 81/81/81
f 82/82/82 85/85/85 84/84/84
f 81/81/81 84/84/84 86/86/86
f 87/87/87 81/81/81 86/86/86
f 87/87/87 86/86/86 88/88/88
f 86/86/86 89/89/89 88/88/88
f 86/86/86 90/90/90 89/89/89
f 86/86/86 84/84/84 90/90/90
f 90/90/90 91/91/91 89/89/89
f 85/85/85 92/92/92 84/84/84
f 84/84/84 92/92/92 90/90/90
f 85/85/85 93/93/93 92/92/92
f 90/90/90 94/94/94 91/91/91
f 94/94/94 95/95/95 91/91/91
f 90/90/90 92/92/92 96/96/96
f 93/93/93 96/96/96 92/92/92
f 94/94/94 90/90/90 96/96/96
f 94/94/94 97/97/97 95/95/95
f 97/97/97 98/98/98 95/95/95
f 95/95/95 98/98/98 99/99/99
f 98/98/98 100/100/100 99/99/99
f 97/97/97 94/94/94 101/101/101
f 94/94/94 96/96/96 101/101/101
f 102/102/102 101/101/101 96/96/96
f 93/93/93 102/102/102 96/96/96
f 103/103/103 102/102/102 93/93/93
f 104/104/104 103/103/103 93/93/93
