g ruinWall04_LOD1
v -5.750025 6 0.250025
v -3.929333 5.634764 0.5
v -5.750025 5.750026 0.5
v -3.936414 5.879911 0.250025
v -1.65471 5.238705 0.5
v -3.936414 5.879911 -0.250025
v -5.750025 6 -0.250025
v -5.750025 5.750026 -0.5
v -3.929333 5.634764 -0.5
v -1.65471 5.48868 -0.250025
v -1.65471 5.238705 -0.5
v -1.65471 5.48868 0.250025
v 0.01946472 4.581357 0.5
v 0.02159668 4.827965 -0.250025
v 0.01946472 4.581357 -0.5
v 0.02159668 4.827965 0.250025
v 1.723945 4.278627 0.5
v 1.723945 4.519145 -0.250025
v 1.723945 4.278627 -0.5
v 1.723945 4.519145 0.250025
v 3.282385 3.976968 0.5
v 3.282385 4.229615 -0.250025
v 3.282385 3.976968 -0.5
v 3.282385 4.229615 0.250025
v 4.555735 3.505842 0.5
v 4.555735 3.755816 0.250025
v 4.555735 3.755816 -0.250025
v 4.555735 3.505842 -0.5
v -6 0.2610981 0.250025
v -5.750025 2 0.5
v -5.750025 0.2610981 0.5
v -6 2 0.250025
v -5.750025 3.999999 0.5
v -6 3.999999 0.250025
v -5.750025 5.750026 0.5
v -6 2 -0.250025
v -5.999999 5.750026 0.250025
v -5.750025 6 0.250025
v -5.750025 6 -0.250025
v -6 3.999999 -0.250025
v -5.999999 5.750026 -0.250025
v -5.750025 5.750026 -0.5
v -5.750025 3.999999 -0.5
v -5.750025 2 -0.5
v -5.750025 0.2610981 -0.5
v -6 0.2610981 -0.250025
v -6.264409 0 -0.3615828
v -6.264409 0 0.3615828
v 5.58847 1.537674 -0.5
v 5.726027 0.2291676 -0.5
v 5.990703 0.2487313 -0.250025
v 5.841853 1.542131 -0.250025
v 5.029619 2.413224 -0.5
v 5.279592 2.413224 -0.250025
v 4.555735 3.505842 -0.5
v 5.841853 1.542131 0.250025
v 4.80571 3.505842 -0.250025
v 4.555735 3.755816 -0.250025
v 4.555735 3.755816 0.250025
v 5.279592 2.413224 0.250025
v 4.80571 3.505842 0.250025
v 4.555735 3.505842 0.5
v 5.029619 2.413224 0.5
v 5.58847 1.537674 0.5
v 5.726027 0.2291676 0.5
v 5.990703 0.2487313 0.250025
v 6.264407 0 0.3615828
v 6.264407 0 -0.3615828
v -5.750025 3.999999 0.5
v -5.750025 5.750026 0.5
v -3.929333 5.634764 0.5
v -3.956128 3.859017 0.5
v -1.65471 5.238705 0.5
v -5.750025 2 0.5
v -1.887736 3.241725 0.5
v 0.01946472 4.581357 0.5
v -4 1.884229 0.5
v -0.06302002 2.743918 0.5
v 1.723945 4.278627 0.5
v -4 0.2610981 0.5
v -5.750025 0.2610981 0.5
v -2 1.608887 0.5
v 1.723945 2.528601 0.5
v 3.282385 3.976968 0.5
v -0.01735107 1.492418 0.5
v 3.512695 2.549115 0.5
v 4.555735 3.505842 0.5
v 5.029619 2.413224 0.5
v 1.868818 1.360508 0.5
v 3.863348 1.442286 0.5
v 5.58847 1.537674 0.5
v -2 0.2529806 0.5
v -6.103515E-07 0.2610981 0.5
v 1.98201 0.2290425 0.5
v 3.981665 0.2367041 0.5
v 5.726027 0.2291676 0.5
v -4 0 0.7230932
v -2 0 0.7230932
v -5.750025 0 0.7230932
v -6.103515E-07 0 0.7230932
v -6.264409 0 0.3615828
v -6 0.2610981 0.250025
v 1.999999 0 0.7230932
v 4 0 0.7230932
v 5.750024 0 0.7230932
v 5.990703 0.2487313 0.250025
v 6.264407 0 0.3615828
v 3.282385 3.976968 -0.5
v 5.029619 2.413224 -0.5
v 4.555735 3.505842 -0.5
v 3.512695 2.549115 -0.5
v 1.723945 4.278627 -0.5
v 5.58847 1.537674 -0.5
v 1.723945 2.528601 -0.5
v 0.01946472 4.581357 -0.5
v 3.863348 1.442286 -0.5
v 5.726027 0.2291676 -0.5
v -0.06302002 2.743918 -0.5
v -1.65471 5.238705 -0.5
v 1.868818 1.360508 -0.5
v -1.887736 3.241725 -0.5
v -3.929333 5.634764 -0.5
v 3.981665 0.2367041 -0.5
v -0.01735107 1.492418 -0.5
v -3.956128 3.859017 -0.5
v -5.750025 5.750026 -0.5
v -5.750025 3.999999 -0.5
v -2 1.608887 -0.5
v -4 1.884229 -0.5
v -5.750025 2 -0.5
v 1.98201 0.2290425 -0.5
v -6.103515E-07 0.2610981 -0.5
v -4 0.2610981 -0.5
v -5.750025 0.2610981 -0.5
v -2 0.2529806 -0.5
v 4 0 -0.7230932
v 1.999999 0 -0.7230932
v 5.750024 0 -0.7230932
v -6.103515E-07 0 -0.7230932
v 6.264407 0 -0.3615828
v 5.990703 0.2487313 -0.250025
v -2 0 -0.7230932
v -4 0 -0.7230932
v -5.750025 0 -0.7230932
v -6 0.2610981 -0.250025
v -6.264409 0 -0.3615828
vt 1.064156 0.8649095
vt 1.034411 0.6482587
vt 1.034411 0.8649095
vt 1.064156 0.6491013
vt 1.034411 0.3775931
vt 1.123659 0.6491013
vt 1.123659 0.8649095
vt 1.153404 0.8649095
vt 1.153404 0.6482587
vt 1.123659 0.3775931
vt 1.153404 0.3775931
vt 1.064156 0.3775931
vt 1.034411 0.1783769
vt 1.123659 0.1781232
vt 1.153404 0.1783769
vt 1.064156 0.1781232
vt 1.034411 -0.02444544
vt 1.123659 -0.02444544
vt 1.153404 -0.02444544
vt 1.064156 -0.02444544
vt 1.034411 -0.2098899
vt 1.123659 -0.2098899
vt 1.153404 -0.2098899
vt 1.064156 -0.2098899
vt 1.034411 -0.3614105
vt 1.064156 -0.3614105
vt 1.123659 -0.3614105
vt 1.153404 -0.3614105
vt 1.255077 -0.3303416
vt 1.284823 -0.1234232
vt 1.284823 -0.3303416
vt 1.255077 -0.1234232
vt 1.284823 0.1145639
vt 1.255077 0.1145639
vt 1.284823 0.3228061
vt 1.195574 -0.1234232
vt 1.255077 0.3228061
vt 1.255077 0.3525514
vt 1.195574 0.3525514
vt 1.195574 0.1145639
vt 1.195574 0.3228061
vt 1.165829 0.3228061
vt 1.165829 0.1145639
vt 1.165829 -0.1234232
vt 1.165829 -0.3303416
vt 1.195574 -0.3303416
vt 1.1823 -0.3614105
vt 1.268352 -0.3614105
vt 1.36111 0.542426
vt 1.36111 0.3867221
vt 1.331364 0.3890501
vt 1.331364 0.5429564
vt 1.36111 0.646611
vt 1.331364 0.646611
vt 1.36111 0.7766256
vt 1.271862 0.5429564
vt 1.331364 0.7766256
vt 1.331364 0.806371
vt 1.271862 0.806371
vt 1.271862 0.646611
vt 1.271862 0.7766256
vt 1.242116 0.7766256
vt 1.242116 0.646611
vt 1.242116 0.542426
vt 1.242116 0.3867221
vt 1.271862 0.3890501
vt 1.258587 0.3594527
vt 1.344639 0.3594527
vt 0.1149929 1.068231
vt 0.3232351 1.068231
vt 0.3095196 0.8515799
vt 0.09821698 0.8547683
vt 0.2623911 0.5809142
vt -0.1229942 1.068231
vt 0.02476317 0.6086426
vt 0.1841709 0.381698
vt -0.1367702 0.8599888
vt -0.03447278 0.3915131
vt 0.1481479 0.1788757
vt -0.3299126 0.8599888
vt -0.3299126 1.068231
vt -0.1695342 0.6220015
vt -0.06009403 0.1788757
vt 0.1122524 -0.006568819
vt -0.1833934 0.3860789
vt -0.0576531 -0.03397438
vt 0.05619146 -0.1580894
vt -0.07382326 -0.2144787
vt -0.1990896 0.1616366
vt -0.1893587 -0.07569984
vt -0.1780083 -0.2809784
vt -0.3308785 0.6220015
vt -0.3299126 0.3840142
vt -0.333727 0.1481674
vt -0.3328153 -0.08977881
vt -0.3337121 -0.2973469
vt -0.3609816 0.8599888
vt -0.3609816 0.6220015
vt -0.3609816 1.068231
vt -0.3609816 0.3840142
vt -0.3609816 1.129439
vt -0.3299126 1.097976
vt -0.3609816 0.1460269
vt -0.3609816 -0.09196046
vt -0.3609816 -0.3002023
vt -0.3313842 -0.3288415
vt -0.3609816 -0.3614106
vt 0.5478657 -0.006568819
vt 0.7339413 -0.2144788
vt 0.6039267 -0.1580894
vt 0.7177712 -0.0339745
vt 0.5119702 0.1788756
vt 0.8381263 -0.2809784
vt 0.7202121 0.1788756
vt 0.4759472 0.381698
vt 0.8494768 -0.07569984
vt 0.9938302 -0.2973469
vt 0.6945908 0.3915131
vt 0.397727 0.5809142
vt 0.8592077 0.1616366
vt 0.6353548 0.6086426
vt 0.3505985 0.8515799
vt 0.9929334 -0.08977887
vt 0.8435115 0.3860788
vt 0.5619011 0.8547683
vt 0.336883 1.068231
vt 0.5451251 1.068231
vt 0.8296523 0.6220015
vt 0.7968882 0.8599888
vt 0.7831123 1.068231
vt 0.9938451 0.1481674
vt 0.9900306 0.3840141
vt 0.9900306 0.8599888
vt 0.9900306 1.068231
vt 0.9909966 0.6220015
vt 1.0211 -0.09196046
vt 1.0211 0.1460269
vt 1.0211 -0.3002023
vt 1.0211 0.3840141
vt 1.0211 -0.3614106
vt 0.9915023 -0.3288415
vt 1.0211 0.6220015
vt 1.0211 0.8599888
vt 1.0211 1.068231
vt 0.9900306 1.097976
vt 1.0211 1.129439
vn -0.03662433 0.9556092 0.2923521
vn 0.01662589 0.1296595 0.9914192
vn -0.1061454 0.1210133 0.9869594
vn 0.1168963 0.9451326 0.305057
vn 0.03424287 0.1227019 0.9918527
vn 0.1168963 0.9451326 -0.305057
vn -0.03662433 0.9556092 -0.2923521
vn -0.1061454 0.1210133 -0.9869594
vn 0.01662588 0.1296595 -0.9914192
vn 0.2414481 0.9231949 -0.2990215
vn 0.03424286 0.122702 -0.9918527
vn 0.2414481 0.9231949 0.2990215
vn 0.02792507 0.1025238 0.9943385
vn 0.2655033 0.9134269 -0.308479
vn 0.02792507 0.1025237 -0.9943385
vn 0.2655033 0.9134269 0.308479
vn 0.02259517 0.1222855 0.9922377
vn 0.1719427 0.9362385 -0.3064201
vn 0.02259517 0.1222855 -0.9922377
vn 0.1719427 0.9362385 0.3064201
vn 0.03989772 0.1414997 0.989134
vn 0.2456088 0.9217947 -0.2999515
vn 0.03989771 0.1414997 -0.989134
vn 0.2456088 0.9217947 0.2999515
vn 0.1141299 0.1280784 0.9851753
vn 0.3928897 0.8706086 0.2961054
vn 0.3928896 0.8706086 -0.2961054
vn 0.1141299 0.1280785 -0.9851753
vn -0.928327 0.1840978 0.3229812
vn -0.124885 0 0.9921712
vn -0.13354 0.1304993 0.9824139
vn -0.9486962 0 0.3161891
vn -0.1218983 0 0.9925426
vn -0.9486963 2.305766E-07 0.3161889
vn -0.1061454 0.1210133 0.9869594
vn -0.9486962 0 -0.3161891
vn -0.9496939 0.09496282 0.2984351
vn -0.03662433 0.9556092 0.2923521
vn -0.03662433 0.9556092 -0.2923521
vn -0.9486963 2.305766E-07 -0.3161889
vn -0.9496939 0.09496282 -0.2984351
vn -0.1061454 0.1210133 -0.9869594
vn -0.1218983 0 -0.9925426
vn -0.124885 0 -0.9921712
vn -0.13354 0.1304994 -0.9824139
vn -0.928327 0.1840979 -0.3229812
vn -0.6489506 0.7171122 -0.2541912
vn -0.6489508 0.7171121 0.2541912
vn 0.1466707 0.05240324 -0.9877964
vn 0.1405101 0.1955069 -0.9705843
vn 0.8917933 0.3180957 -0.321745
vn 0.9104437 0.2861874 -0.2986454
vn 0.1241714 0.06256625 -0.9902863
vn 0.8451313 0.4517517 -0.2857859
vn 0.1141299 0.1280785 -0.9851753
vn 0.9104437 0.2861875 0.2986454
vn 0.8512902 0.4384836 -0.2881615
vn 0.3928896 0.8706086 -0.2961054
vn 0.3928897 0.8706086 0.2961054
vn 0.8451313 0.4517517 0.2857859
vn 0.8512902 0.4384836 0.2881615
vn 0.1141299 0.1280784 0.9851753
vn 0.1241714 0.06256624 0.9902863
vn 0.1466707 0.05240324 0.9877964
vn 0.1405101 0.1955069 0.9705843
vn 0.8917933 0.3180956 0.321745
vn 0.6114382 0.7541607 0.2395515
vn 0.611438 0.7541608 -0.2395516
vn -0.1218983 0 0.9925426
vn -0.1061454 0.1210133 0.9869594
vn 0.01662589 0.1296595 0.9914192
vn 0 0 1
vn 0.03424287 0.1227019 0.9918527
vn -0.124885 0 0.9921712
vn 0 0 1
vn 0.02792507 0.1025238 0.9943385
vn 0 0 1
vn 0 0 1
vn 0.02259517 0.1222855 0.9922377
vn 0.0001300559 0.1202662 0.9927417
vn -0.13354 0.1304993 0.9824139
vn 0 0 1
vn 0 0 1
vn 0.03989772 0.1414997 0.989134
vn 0 0 1
vn 0 0 1
vn 0.1141299 0.1280784 0.9851753
vn 0.1241714 0.06256624 0.9902863
vn 0 0 1
vn 0 0 1
vn 0.1466707 0.05240324 0.9877964
vn 0 0.1348382 0.9908676
vn 0.0004446534 0.14901 0.9888356
vn 0.0005164912 0.1590362 0.9872727
vn -1.370403E-05 0.153048 0.9882188
vn 0.1405101 0.1955069 0.9705843
vn 0.0007064575 0.6527292 0.7575911
vn 0 0.655477 0.7552152
vn -0.08475884 0.658918 0.7474243
vn 0.001992196 0.6642851 0.7474766
vn -0.6489508 0.7171121 0.2541912
vn -0.928327 0.1840978 0.3229812
vn 0.00196503 0.6827825 0.7306191
vn 3.883746E-05 0.6917402 0.7221463
vn 0.08665069 0.7016038 0.7072792
vn 0.8917933 0.3180956 0.321745
vn 0.6114382 0.7541607 0.2395515
vn 0.03989771 0.1414997 -0.989134
vn 0.1241714 0.06256625 -0.9902863
vn 0.1141299 0.1280785 -0.9851753
vn 0 0 -1
vn 0.02259517 0.1222855 -0.9922377
vn 0.1466707 0.05240324 -0.9877964
vn 0 0 -1
vn 0.02792507 0.1025237 -0.9943385
vn 0 0 -1
vn 0.1405101 0.1955069 -0.9705843
vn 0 0 -1
vn 0.03424286 0.122702 -0.9918527
vn 0 0 -1
vn 0 0 -1
vn 0.01662588 0.1296595 -0.9914192
vn -1.370403E-05 0.153048 -0.9882188
vn 0 0 -1
vn 0 0 -1
vn -0.1061454 0.1210133 -0.9869594
vn -0.1218983 0 -0.9925426
vn 0 0 -1
vn 0 0 -1
vn -0.124885 0 -0.9921712
vn 0.0005164912 0.1590362 -0.9872727
vn 0.0004446534 0.14901 -0.9888356
vn 0.0001300603 0.1202662 -0.9927417
vn -0.13354 0.1304994 -0.9824139
vn 0 0.1348382 -0.9908676
vn 3.883746E-05 0.6917402 -0.7221463
vn 0.00196503 0.6827825 -0.7306191
vn 0.08665073 0.7016038 -0.7072791
vn 0.001992196 0.6642851 -0.7474766
vn 0.611438 0.7541608 -0.2395516
vn 0.8917933 0.3180957 -0.321745
vn 0 0.655477 -0.7552152
vn 0.0007064575 0.6527292 -0.7575911
vn -0.08475883 0.658918 -0.7474242
vn -0.928327 0.1840979 -0.3229812
vn -0.6489506 0.7171122 -0.2541912
g ruinWall04_LOD1_0
f 3/3/3 2/2/2 1/1/1
f 2/2/2 4/4/4 1/1/1
f 2/2/2 5/5/5 4/4/4
f 4/4/4 6/6/6 1/1/1
f 6/6/6 7/7/7 1/1/1
f 7/7/7 6/6/6 8/8/8
f 6/6/6 9/9/9 8/8/8
f 6/6/6 10/10/10 9/9/9
f 10/10/10 6/6/6 4/4/4
f 10/10/10 11/11/11 9/9/9
f 5/5/5 12/12/12 4/4/4
f 12/12/12 10/10/10 4/4/4
f 5/5/5 13/13/13 12/12/12
f 10/10/10 14/14/14 11/11/11
f 14/14/14 10/10/10 12/12/12
f 14/14/14 15/15/15 11/11/11
f 13/13/13 16/16/16 12/12/12
f 16/16/16 14/14/14 12/12/12
f 13/13/13 17/17/17 16/16/16
f 14/14/14 18/18/18 15/15/15
f 18/18/18 14/14/14 16/16/16
f 18/18/18 19/19/19 15/15/15
f 17/17/17 20/20/20 16/16/16
f 20/20/20 18/18/18 16/16/16
f 17/17/17 21/21/21 20/20/20
f 18/18/18 22/22/22 19/19/19
f 22/22/22 18/18/18 20/20/20
f 22/22/22 23/23/23 19/19/19
f 21/21/21 24/24/24 20/20/20
f 24/24/24 22/22/22 20/20/20
f 21/21/21 25/25/25 24/24/24
f 25/25/25 26/26/26 24/24/24
f 26/26/26 27/27/27 24/24/24
f 27/27/27 22/22/22 24/24/24
f 22/22/22 27/27/27 23/23/23
f 27/27/27 28/28/28 23/23/23
f 31/31/31 30/30/30 29/29/29
f 30/30/30 32/32/32 29/29/29
f 30/30/30 33/33/33 32/32/32
f 33/33/33 34/34/34 32/32/32
f 34/34/34 33/33/33 35/35/35
f 29/29/29 32/32/32 36/36/36
f 32/32/32 34/34/34 36/36/36
f 37/37/37 34/34/34 35/35/35
f 35/35/35 38/38/38 37/37/37
f 38/38/38 39/39/39 37/37/37
f 34/34/34 37/37/37 40/40/40
f 34/34/34 40/40/40 36/36/36
f 39/39/39 41/41/41 37/37/37
f 37/37/37 41/41/41 40/40/40
f 39/39/39 42/42/42 41/41/41
f 42/42/42 43/43/43 41/41/41
f 43/43/43 40/40/40 41/41/41
f 43/43/43 44/44/44 40/40/40
f 44/44/44 36/36/36 40/40/40
f 44/44/44 45/45/45 36/36/36
f 45/45/45 46/46/46 36/36/36
f 46/46/46 29/29/29 36/36/36
f 46/46/46 47/47/47 29/29/29
f 47/47/47 48/48/48 29/29/29
f 51/51/51 50/50/50 49/49/49
f 52/52/52 51/51/51 49/49/49
f 52/52/52 49/49/49 53/53/53
f 54/54/54 52/52/52 53/53/53
f 54/54/54 53/53/53 55/55/55
f 51/51/51 52/52/52 56/56/56
f 52/52/52 54/54/54 56/56/56
f 57/57/57 54/54/54 55/55/55
f 58/58/58 57/57/57 55/55/55
f 57/57/57 58/58/58 59/59/59
f 54/54/54 57/57/57 60/60/60
f 54/54/54 60/60/60 56/56/56
f 61/61/61 57/57/57 59/59/59
f 57/57/57 61/61/61 60/60/60
f 62/62/62 61/61/61 59/59/59
f 62/62/62 63/63/63 61/61/61
f 63/63/63 60/60/60 61/61/61
f 60/60/60 63/63/63 64/64/64
f 56/56/56 60/60/60 64/64/64
f 56/56/56 64/64/64 65/65/65
f 66/66/66 56/56/56 65/65/65
f 66/66/66 51/51/51 56/56/56
f 66/66/66 67/67/67 51/51/51
f 67/67/67 68/68/68 51/51/51
f 71/71/71 70/70/70 69/69/69
f 72/72/72 71/71/71 69/69/69
f 73/73/73 71/71/71 72/72/72
f 72/72/72 69/69/69 74/74/74
f 75/75/75 73/73/73 72/72/72
f 76/76/76 73/73/73 75/75/75
f 77/77/77 72/72/72 74/74/74
f 75/75/75 72/72/72 77/77/77
f 78/78/78 76/76/76 75/75/75
f 79/79/79 76/76/76 78/78/78
f 80/80/80 77/77/77 74/74/74
f 81/81/81 80/80/80 74/74/74
f 82/82/82 75/75/75 77/77/77
f 78/78/78 75/75/75 82/82/82
f 82/82/82 77/77/77 80/80/80
f 83/83/83 79/79/79 78/78/78
f 84/84/84 79/79/79 83/83/83
f 85/85/85 78/78/78 82/82/82
f 83/83/83 78/78/78 85/85/85
f 86/86/86 84/84/84 83/83/83
f 87/87/87 84/84/84 86/86/86
f 88/88/88 87/87/87 86/86/86
f 86/86/86 83/83/83 89/89/89
f 89/89/89 83/83/83 85/85/85
f 88/88/88 86/86/86 90/90/90
f 90/90/90 86/86/86 89/89/89
f 91/91/91 88/88/88 90/90/90
f 85/85/85 82/82/82 92/92/92
f 92/92/92 82/82/82 80/80/80
f 89/89/89 85/85/85 93/93/93
f 93/93/93 85/85/85 92/92/92
f 90/90/90 89/89/89 94/94/94
f 94/94/94 89/89/89 93/93/93
f 91/91/91 90/90/90 95/95/95
f 95/95/95 90/90/90 94/94/94
f 96/96/96 91/91/91 95/95/95
f 92/92/92 80/80/80 97/97/97
f 98/98/98 92/92/92 97/97/97
f 93/93/93 92/92/92 98/98/98
f 99/99/99 97/97/97 80/80/80
f 100/100/100 93/93/93 98/98/98
f 94/94/94 93/93/93 100/100/100
f 81/81/81 99/99/99 80/80/80
f 99/99/99 81/81/81 101/101/101
f 81/81/81 102/102/102 101/101/101
f 103/103/103 94/94/94 100/100/100
f 95/95/95 94/94/94 103/103/103
f 104/104/104 95/95/95 103/103/103
f 96/96/96 95/95/95 104/104/104
f 105/105/105 96/96/96 104/104/104
f 106/106/106 96/96/96 105/105/105
f 107/107/107 106/106/106 105/105/105
f 110/110/110 109/109/109 108/108/108
f 109/109/109 111/111/111 108/108/108
f 108/108/108 111/111/111 112/112/112
f 109/109/109 113/113/113 111/111/111
f 111/111/111 114/114/114 112/112/112
f 112/112/112 114/114/114 115/115/115
f 113/113/113 116/116/116 111/111/111
f 111/111/111 116/116/116 114/114/114
f 113/113/113 117/117/117 116/116/116
f 114/114/114 118/118/118 115/115/115
f 115/115/115 118/118/118 119/119/119
f 116/116/116 120/120/120 114/114/114
f 114/114/114 120/120/120 118/118/118
f 118/118/118 121/121/121 119/119/119
f 119/119/119 121/121/121 122/122/122
f 117/117/117 123/123/123 116/116/116
f 116/116/116 123/123/123 120/120/120
f 120/120/120 124/124/124 118/118/118
f 118/118/118 124/124/124 121/121/121
f 121/121/121 125/125/125 122/122/122
f 122/122/122 125/125/125 126/126/126
f 125/125/125 127/127/127 126/126/126
f 121/121/121 128/128/128 125/125/125
f 124/124/124 128/128/128 121/121/121
f 125/125/125 129/129/129 127/127/127
f 128/128/128 129/129/129 125/125/125
f 129/129/129 130/130/130 127/127/127
f 120/120/120 131/131/131 124/124/124
f 123/123/123 131/131/131 120/120/120
f 124/124/124 132/132/132 128/128/128
f 131/131/131 132/132/132 124/124/124
f 129/129/129 133/133/133 130/130/130
f 133/133/133 134/134/134 130/130/130
f 128/128/128 135/135/135 129/129/129
f 132/132/132 135/135/135 128/128/128
f 135/135/135 133/133/133 129/129/129
f 123/123/123 136/136/136 131/131/131
f 136/136/136 137/137/137 131/131/131
f 131/131/131 137/137/137 132/132/132
f 138/138/138 136/136/136 123/123/123
f 137/137/137 139/139/139 132/132/132
f 132/132/132 139/139/139 135/135/135
f 117/117/117 138/138/138 123/123/123
f 140/140/140 138/138/138 117/117/117
f 141/141/141 140/140/140 117/117/117
f 139/139/139 142/142/142 135/135/135
f 135/135/135 142/142/142 133/133/133
f 142/142/142 143/143/143 133/133/133
f 133/133/133 143/143/143 134/134/134
f 143/143/143 144/144/144 134/134/134
f 134/134/134 144/144/144 145/145/145
f 144/144/144 146/146/146 145/145/145
