g ruinPlatform04
v 9.700575 -2.564234 -2.275371
v 8.500843 -0.8875563 -5.742662
v 7.879604 -2.5102 -5.19274
v 10.5305 -1.082153 -2.302886
v 8.415009 0.1085505 -5.607555
v 9.024393 -2.664082 2.321306
v 10.40673 0.1616868 -2.202745
v 9.701609 -1.003834 2.919399
v 6.592108 -2.621382 5.929051
v 9.580688 0.006317291 2.653946
v 7.043144 -0.9476883 6.500016
v 4.967483 -2.986276 6.246634
v 6.99599 -0.1832873 6.31202
v 5.042344 -1.084476 7.21605
v -0.5592817 -3.246205 5.863617
v 4.986093 0.1992149 6.837484
v 9.580688 0.006317291 2.653946
v -0.07436858 -1.063873 6.713288
v -5.570373 -3.048524 3.874235
v 6.001655 0.6317547 2.205125
v 10.40673 0.1616868 -2.202745
v -0.03530535 -0.06524967 6.474507
v -7.013577 -0.8594533 4.39908
v 6.00923 0.6077384 -2.943628
v 8.415009 0.1085505 -5.607555
v -11.04512 -1.171539 2.911036
v -11.14364 -2.473558 2.712572
v -11.19793 -2.489859 0.7777011
v -6.772509 0.2078092 4.196548
v 0.3575122 0.5985448 2.163236
v -11.42829 -1.185045 1.05601
v -10.5099 -3.33303 -0.7384908
v -8.936807 -0.08036022 3.425302
v -5.396169 0.5917192 1.680956
v -11.71085 -1.196299 -1.130843
v -10.36874 -3.266482 -2.787821
v -9.279815 -1.034222 -3.776315
v -11.39905 -0.06521259 1.076154
v -11.38166 0.009485511 -0.9908195
v -9.149058 0.1146253 -3.73749
v 0.3583221 0.5686354 -2.52765
v -8.664228 0.3873641 1.416307
v -11.39905 -0.06521259 1.076154
v -8.821206 0.3964559 -1.367157
v -11.38166 0.009485511 -0.9908195
v -9.149058 0.1146253 -3.73749
v -5.39495 0.5776573 -1.694499
v 2.907447 0.1104914 -6.934452
v -0.07637642 -0.0121513 -6.309449
v -5.455347 0.295745 -4.57908
v 6.163257 0.2050861 -7.382695
v 8.500843 -0.8875563 -5.742662
v -5.357742 -0.8665817 -4.694487
v -9.279815 -1.034222 -3.776315
v -0.01823298 -0.9726802 -6.457507
v 2.850235 -1.019463 -6.980722
v 6.211794 -1.058258 -7.375138
v 7.879604 -2.5102 -5.19274
v -8.209298 -5.492233 -3.170044
v -10.36874 -3.266482 -2.787821
v -0.2491277 -3.271001 -5.610445
v -1.751805 -6.78302 -3.477967
v 5.931037 -2.994524 -6.780561
v 6.649282 -5.616768 -3.272352
v 9.700575 -2.564234 -2.275371
v 9.024393 -2.664082 2.321306
v -8.221231 -5.385674 -1.210976
v -1.735636 -5.816461 4.065591
v -10.5099 -3.33303 -0.7384908
v 2.478722 -5.529266 -5.264311
v -9.144722 -3.402369 1.945641
v -11.19793 -2.489859 0.7777011
v -11.14364 -2.473558 2.712572
v -5.570373 -3.048524 3.874235
v -0.5592817 -3.246205 5.863617
v 4.967483 -2.986276 6.246634
v 7.800106 -5.615002 4.395791
v 6.592108 -2.621382 5.929051
v 4.062354 -6.440747 -0.8350915
v 1.356383 -6.570193 -0.9249858
v 4.098302 -6.394382 2.303181
v 1.365897 -6.528052 2.241405
vt 0.7916667 0
vt 0.875 0.125
vt 0.875 0
vt 0.7916667 0.125
vt 0.875 0.25
vt 0.7083334 0
vt 0.7916667 0.25
vt 0.7083334 0.125
vt 0.625 0
vt 0.7083334 0.25
vt 0.625 0.125
vt 0.5625 0
vt 0.625 0.25
vt 0.5625 0.125
vt 0.5 0
vt 0.5625 0.25
vt 0.625 0.3333333
vt 0.5 0.125
vt 0.4375 0
vt 0.5625 0.3333333
vt 0.625 0.4166667
vt 0.5 0.25
vt 0.4375 0.125
vt 0.5625 0.4166667
vt 0.625 0.5
vt 0.375 0.125
vt 0.375 0
vt 0.2916667 0
vt 0.4375 0.25
vt 0.5 0.3333333
vt 0.2916667 0.125
vt 0.2083333 0
vt 0.375 0.25
vt 0.4375 0.3333333
vt 0.2083333 0.125
vt 0.125 0
vt 0.125 0.125
vt 0.2916667 0.25
vt 0.2083333 0.25
vt 0.125 0.25
vt 0.5 0.4166667
vt 0.4101512 0.3333333
vt 0.375 0.3333333
vt 0.4084258 0.4166667
vt 0.375 0.4166667
vt 0.375 0.5
vt 0.4375 0.4166667
vt 0.5352848 0.5
vt 0.5 0.5
vt 0.4375 0.5
vt 0.5625 0.5
vt 0.625 0.625
vt 0.4375 0.625
vt 0.375 0.625
vt 0.5 0.625
vt 0.534167 0.625
vt 0.5625 0.625
vt 0.625 0.75
vt 0.4375 0.75
vt 0.375 0.75
vt 0.5 0.75
vt 0.5 0.8333333
vt 0.5625 0.75
vt 0.5625 0.8333333
vt 0.625 0.8333333
vt 0.625 0.9166666
vt 0.4375 0.8333333
vt 0.5 0.9166666
vt 0.375 0.8333333
vt 0.5344154 0.7874461
vt 0.4375 0.9166666
vt 0.375 0.9166666
vt 0.375 0.9999999
vt 0.4375 0.9999999
vt 0.5 0.9999999
vt 0.5625 0.9999999
vt 0.5625 0.9166666
vt 0.625 0.9999999
vt 0.5625 0.8333333
vt 0.5 0.8333333
vt 0.5625 0.9166666
vt 0.5 0.9166666
vn 0.8305835 -0.5451961 -0.1135437
vn 0.7490734 -0.2019978 -0.6309405
vn 0.6772909 -0.4857725 -0.5525414
vn 0.9629064 -0.2331448 -0.1358486
vn 0.3444135 0.8970031 -0.2770644
vn 0.8491011 -0.5135761 0.1235598
vn 0.4204221 0.9063624 -0.04186112
vn 0.8985326 -0.228552 0.3747041
vn 0.6165959 -0.3432207 0.708526
vn 0.4055184 0.9024066 0.1456604
vn 0.6614096 -0.206364 0.7210764
vn -0.00175978 -0.5215395 0.8532253
vn 0.3422913 0.8740429 0.344798
vn 0.02029489 -0.1852688 0.9824783
vn -0.1592702 -0.4831851 0.8609096
vn 0.01899758 0.9497654 0.3123856
vn 0.4055184 0.9024066 0.1456604
vn -0.206435 -0.1711215 0.9633805
vn -0.3443395 -0.4136546 0.842805
vn 0.05073793 0.997104 0.05665015
vn 0.4204221 0.9063624 -0.04186112
vn -0.07921851 0.9211441 0.3810747
vn -0.3308666 -0.1342384 0.934081
vn 0.04991776 0.9983507 -0.02835682
vn 0.3444135 0.8970031 -0.2770644
vn -0.6545931 0.1383416 0.7432156
vn -0.6048431 -0.4757936 0.6385807
vn -0.8484259 -0.52429 0.07275439
vn -0.1358432 0.8963177 0.4220913
vn -0.01297146 0.9979877 0.06206634
vn -0.979072 0.07881928 0.1876311
vn -0.737332 -0.6710163 0.07796533
vn -0.3022353 0.7975651 0.5220572
vn -0.02171725 0.9971916 0.0716753
vn -0.9379767 -0.0485112 -0.3432874
vn -0.7416518 -0.4603143 -0.4879172
vn -0.4273204 -0.02994368 -0.9036043
vn -0.5061861 0.844182 0.1764439
vn -0.5856735 0.7811166 -0.2164335
vn -0.3159083 0.7865246 -0.5306422
vn -0.006266859 0.9987457 -0.04967664
vn -0.1078462 0.9921558 0.06321492
vn -0.5061861 0.844182 0.1764439
vn -0.0924435 0.9949543 -0.0389896
vn -0.5856735 0.7811166 -0.2164335
vn -0.3159083 0.7865246 -0.5306422
vn -0.02000909 0.9983208 -0.05436183
vn -0.08531892 0.883909 -0.4598101
vn -0.1147449 0.8808863 -0.4592091
vn -0.09573705 0.9162589 -0.388978
vn 0.1176232 0.8701862 -0.4784775
vn 0.7490734 -0.2019978 -0.6309405
vn -0.2559405 -0.09889113 -0.9616209
vn -0.4273204 -0.02994368 -0.9036043
vn -0.2640225 -0.1228969 -0.9566548
vn -0.159555 -0.1887767 -0.9689714
vn 0.2978623 -0.1792275 -0.9376329
vn 0.6772909 -0.4857725 -0.5525414
vn -0.3018982 -0.5962619 -0.743861
vn -0.7416518 -0.4603143 -0.4879172
vn -0.2240529 -0.4253812 -0.8768416
vn -0.1888517 -0.96723 -0.1697094
vn 0.2535595 -0.5279775 -0.8105229
vn 0.5206876 -0.8310649 -0.1954878
vn 0.8305835 -0.5451961 -0.1135437
vn 0.8491011 -0.5135761 0.1235598
vn -0.3151629 -0.9470967 0.06066475
vn -0.2071741 -0.8370082 0.5064546
vn -0.737332 -0.6710163 0.07796533
vn 0.02074695 -0.7171081 -0.6966531
vn -0.2936176 -0.8995444 0.3234329
vn -0.8484259 -0.52429 0.07275439
vn -0.6048431 -0.4757936 0.6385807
vn -0.3443395 -0.4136546 0.842805
vn -0.1592702 -0.4831851 0.8609096
vn -0.00175978 -0.5215395 0.8532253
vn 0.4879273 -0.7803625 0.3911026
vn 0.6165959 -0.3432207 0.708526
vn 0.1669841 -0.984206 -0.05877913
vn 0.01562376 -0.9998203 -0.01074028
vn 0.1243557 -0.9826401 0.1376741
vn -0.02565285 -0.9821491 0.186347
g ruinPlatform04_0
f 3/3/3 2/2/2 1/1/1
f 2/2/2 4/4/4 1/1/1
f 2/2/2 5/5/5 4/4/4
f 1/1/1 4/4/4 6/6/6
f 5/5/5 7/7/7 4/4/4
f 4/4/4 8/8/8 6/6/6
f 4/4/4 7/7/7 8/8/8
f 6/6/6 8/8/8 9/9/9
f 7/7/7 10/10/10 8/8/8
f 8/8/8 11/11/11 9/9/9
f 8/8/8 10/10/10 11/11/11
f 9/9/9 11/11/11 12/12/12
f 10/10/10 13/13/13 11/11/11
f 11/11/11 14/14/14 12/12/12
f 11/11/11 13/13/13 14/14/14
f 12/12/12 14/14/14 15/15/15
f 13/13/13 16/16/16 14/14/14
f 13/13/13 17/17/17 16/16/16
f 14/14/14 18/18/18 15/15/15
f 14/14/14 16/16/16 18/18/18
f 15/15/15 18/18/18 19/19/19
f 17/17/17 20/20/20 16/16/16
f 17/17/17 21/21/21 20/20/20
f 16/16/16 22/22/22 18/18/18
f 16/16/16 20/20/20 22/22/22
f 18/18/18 23/23/23 19/19/19
f 18/18/18 22/22/22 23/23/23
f 21/21/21 24/24/24 20/20/20
f 21/21/21 25/25/25 24/24/24
f 19/19/19 23/23/23 26/26/26
f 19/19/19 26/26/26 27/27/27
f 27/27/27 26/26/26 28/28/28
f 22/22/22 29/29/29 23/23/23
f 23/23/23 29/29/29 26/26/26
f 20/20/20 30/30/30 22/22/22
f 20/20/20 24/24/24 30/30/30
f 22/22/22 30/30/30 29/29/29
f 26/26/26 31/31/31 28/28/28
f 28/28/28 31/31/31 32/32/32
f 29/29/29 33/33/33 26/26/26
f 26/26/26 33/33/33 31/31/31
f 30/30/30 34/34/34 29/29/29
f 29/29/29 34/34/34 33/33/33
f 31/31/31 35/35/35 32/32/32
f 32/32/32 35/35/35 36/36/36
f 35/35/35 37/37/37 36/36/36
f 33/33/33 38/38/38 31/31/31
f 31/31/31 38/38/38 35/35/35
f 38/38/38 39/39/39 35/35/35
f 35/35/35 39/39/39 37/37/37
f 39/39/39 40/40/40 37/37/37
f 30/30/30 41/41/41 34/34/34
f 24/24/24 41/41/41 30/30/30
f 34/34/34 42/42/42 33/33/33
f 42/42/42 43/43/43 33/33/33
f 42/42/42 44/44/44 43/43/43
f 42/42/42 34/34/34 44/44/44
f 44/44/44 45/45/45 43/43/43
f 44/44/44 46/46/46 45/45/45
f 34/34/34 47/47/47 44/44/44
f 41/41/41 47/47/47 34/34/34
f 44/44/44 47/47/47 46/46/46
f 24/24/24 48/48/48 41/41/41
f 41/41/41 49/49/49 47/47/47
f 48/48/48 49/49/49 41/41/41
f 47/47/47 50/50/50 46/46/46
f 49/49/49 50/50/50 47/47/47
f 24/24/24 51/51/51 48/48/48
f 25/25/25 51/51/51 24/24/24
f 25/25/25 52/52/52 51/51/51
f 50/50/50 53/53/53 46/46/46
f 53/53/53 54/54/54 46/46/46
f 49/49/49 55/55/55 50/50/50
f 55/55/55 53/53/53 50/50/50
f 48/48/48 56/56/56 49/49/49
f 48/48/48 51/51/51 56/56/56
f 56/56/56 55/55/55 49/49/49
f 52/52/52 57/57/57 51/51/51
f 51/51/51 57/57/57 56/56/56
f 52/52/52 58/58/58 57/57/57
f 53/53/53 59/59/59 54/54/54
f 59/59/59 60/60/60 54/54/54
f 55/55/55 61/61/61 53/53/53
f 56/56/56 61/61/61 55/55/55
f 61/61/61 59/59/59 53/53/53
f 61/61/61 62/62/62 59/59/59
f 56/56/56 57/57/57 63/63/63
f 58/58/58 63/63/63 57/57/57
f 56/56/56 63/63/63 61/61/61
f 58/58/58 64/64/64 63/63/63
f 58/58/58 65/65/65 64/64/64
f 65/65/65 66/66/66 64/64/64
f 59/59/59 67/67/67 60/60/60
f 62/62/62 67/67/67 59/59/59
f 62/62/62 68/68/68 67/67/67
f 67/67/67 69/69/69 60/60/60
f 63/63/63 70/70/70 61/61/61
f 70/70/70 63/63/63 64/64/64
f 70/70/70 62/62/62 61/61/61
f 70/70/70 64/64/64 62/62/62
f 67/67/67 71/71/71 69/69/69
f 68/68/68 71/71/71 67/67/67
f 71/71/71 72/72/72 69/69/69
f 71/71/71 73/73/73 72/72/72
f 71/71/71 74/74/74 73/73/73
f 75/75/75 74/74/74 71/71/71
f 68/68/68 75/75/75 71/71/71
f 76/76/76 75/75/75 68/68/68
f 77/77/77 76/76/76 68/68/68
f 78/78/78 76/76/76 77/77/77
f 66/66/66 78/78/78 77/77/77
f 66/66/66 77/77/77 64/64/64
f 64/64/64 79/79/79 62/62/62
f 62/62/62 80/80/80 68/68/68
f 79/79/79 80/80/80 62/62/62
f 81/81/81 79/79/79 64/64/64
f 77/77/77 81/81/81 64/64/64
f 79/79/79 81/81/81 80/80/80
f 68/68/68 82/82/82 77/77/77
f 80/80/80 82/82/82 68/68/68
f 81/81/81 82/82/82 80/80/80
f 82/82/82 81/81/81 77/77/77
