g ruinPath02
v 0.7758582 0.07471453 0.4503003
v 0.6856968 -0.04231634 0.4503003
v 0.7758582 -0.04231634 0.3223254
v 1.358991 0.07635263 0.4503003
v 1.358991 -0.04231634 0.3371204
v 1.437577 -0.04231634 0.4503003
v 0.7758582 0.07471453 0.4503003
v 0.716633 -0.04231634 1.00478
v 0.6856968 -0.04231634 0.4503003
v 0.7758582 0.04157104 1.00478
v 1.358991 0.0496528 1.00478
v 1.358991 0.07635263 0.4503003
v 1.437577 -0.04231634 0.4503003
v 1.4208 -0.04231634 1.00478
v 0.7758582 -0.04231634 1.092695
v 0.716633 -0.04231634 1.00478
v 0.7758582 0.04157104 1.00478
v 1.358991 -0.04231634 1.066313
v 1.358991 0.0496528 1.00478
v 1.4208 -0.04231634 1.00478
v -1.000176 -0.04231669 -0.06344513
v 0.008614769 -0.04231669 -0.06344513
v 0.008614769 0.1117833 0.04063202
v -1.000176 0.1117902 0.04063202
v -1.000176 0.1117902 0.04063202
v 0.008614769 0.1117833 0.04063202
v 0.008614769 0.1117914 0.9621387
v -1.000177 0.1117914 0.9621387
v 0.008614769 0.1117833 0.04063202
v 0.008614769 -0.04231669 -0.06344513
v 0.1096539 -0.04231669 0.04063202
v 0.008614769 0.1117914 0.9621387
v 0.1096609 -0.04231669 0.9621387
v 0.008614769 -0.04231669 1.076436
v -1.109622 -0.04231669 0.04063202
v -1.000176 -0.04231669 -0.06344513
v -1.000176 0.1117902 0.04063202
v -1.10965 -0.04231669 0.9621387
v -1.000177 0.1117914 0.9621387
v -1.000176 -0.04231669 1.076435
v 0.008614769 -0.04231669 1.076436
v -1.000176 -0.04231669 1.076435
v -1.000177 0.1117914 0.9621387
v 0.008614769 0.1117914 0.9621387
v 0.05262913 -0.04231662 -1.069234
v 0.1567063 -0.04231662 -0.9681932
v 0.05262913 0.08769911 -0.9491307
v -0.4020904 -0.04231662 -1.069237
v -0.4020904 0.08770168 -0.9491307
v -0.5163836 -0.04231662 -0.9681932
v 0.1567063 -0.04231662 -0.9681932
v 0.1463779 -0.04231662 -0.1168588
v 0.05262913 0.06762049 -0.09779632
v 0.05262913 0.08769911 -0.9491307
v -0.4020904 0.06855002 -0.09779632
v -0.4020904 0.08770168 -0.9491307
v -0.5163885 -0.04231662 -0.11686
v -0.5163836 -0.04231662 -0.9681932
v 0.05262913 0.06762049 -0.09779632
v 0.1463779 -0.04231662 -0.1168588
v 0.05262913 -0.04231662 -0.01042694
v -0.4020904 0.06855002 -0.09779632
v -0.4020904 -0.04231662 -0.01784607
v -0.5163885 -0.04231662 -0.11686
v 0.2189297 0.09190963 0.353837
v 0.2190758 -0.04231649 0.4699188
v 0.07836384 -0.04231649 0.354014
v 0.2173714 0.09190329 -1.032229
v 0.09736347 -0.04231649 -1.032078
v 0.2172588 -0.04231649 -1.1217
v 0.2189297 0.09190963 0.353837
v 1.753224 -0.04231649 0.3647952
v 0.2190758 -0.04231649 0.4699188
v 1.753115 0.05512497 0.2779477
v 0.2173714 0.09190329 -1.032229
v 1.751557 0.09190845 -1.03416
v 0.2172588 -0.04231649 -1.1217
v 1.751455 -0.04231649 -1.115274
v 1.852004 -0.04231649 0.2778229
v 1.753224 -0.04231649 0.3647952
v 1.753115 0.05512497 0.2779477
v 1.859564 -0.04231649 -1.034296
v 1.751557 0.09190845 -1.03416
v 1.751455 -0.04231649 -1.115274
v -1.164141 -0.04231669 -0.9527227
v -0.7987357 -0.04231669 -0.9413186
v -0.7987357 0.1117833 -0.8372415
v -1.164141 0.1117902 -0.8486456
v -1.164141 0.1117902 -0.8486456
v -0.7987357 0.1117833 -0.8372415
v -0.7989955 0.1117914 -0.4659828
v -1.164402 0.1117914 -0.4773869
v -0.7987357 0.1117833 -0.8372415
v -0.7987357 -0.04231669 -0.9413186
v -0.6976966 -0.04231669 -0.8372415
v -0.7989955 0.1117914 -0.4659828
v -0.6979493 -0.04231669 -0.4659828
v -0.7989955 -0.04231669 -0.3516859
v -1.273587 -0.04231669 -0.8486456
v -1.164141 -0.04231669 -0.9527227
v -1.164141 0.1117902 -0.8486456
v -1.273875 -0.04231669 -0.4773869
v -1.164402 0.1117914 -0.4773869
v -1.164401 -0.04231669 -0.3630907
v -0.7989955 -0.04231669 -0.3516859
v -1.164401 -0.04231669 -0.3630907
v -1.164402 0.1117914 -0.4773869
v -0.7989955 0.1117914 -0.4659828
vt 0.340251 0.242847
vt 0.347071 0.249905
vt 0.350465 0.238815
vt 0.339082 0.097863
vt 0.348741 0.10148
vt 0.345546 0.091561
vt 0.408412 0.258819
vt 0.414559 0.394656
vt 0.417484 0.258949
vt 0.40856 0.394577
vt 0.268398 0.394803
vt 0.268166 0.258994
vt 0.259716 0.259091
vt 0.261961 0.394856
vt 0.296831 0.063003
vt 0.289122 0.065228
vt 0.293516 0.069722
vt 0.434309 0.071431
vt 0.435679 0.077637
vt 0.440726 0.073061
vt 0.773167 0.832188
vt 0.636567 0.833369
vt 0.636673 0.8462099
vt 0.773277 0.845031
vt 0.146606 0.06355999
vt 0.01 0.06355999
vt 0.01 0.142062
vt 0.146606 0.142062
vt 0.590861 0.8462099
vt 0.599589 0.835422
vt 0.588673 0.833841
vt 0.508524 0.8462099
vt 0.510334 0.833584
vt 0.498784 0.835604
vt 0.904677 0.125784
vt 0.902479 0.114342
vt 0.891771 0.12337
vt 0.904526 0.204229
vt 0.891771 0.206499
vt 0.902905 0.216072
vt 0.636584 0.5878
vt 0.773185 0.588748
vt 0.773277 0.575409
vt 0.636676 0.574461
vt 0.585983 0.763082
vt 0.596913 0.760872
vt 0.588004 0.751159
vt 0.507765 0.762729
vt 0.505685 0.75095
vt 0.496348 0.761043
vt 0.635935 0.762289
vt 0.772554 0.761102
vt 0.772473 0.750316
vt 0.635909 0.750094
vt 0.772626 0.671742
vt 0.635986 0.671589
vt 0.772698 0.659824
vt 0.636088 0.658876
vt 0.986218 0.120521
vt 0.97747 0.112717
vt 0.9752191 0.123237
vt 0.986658 0.203039
vt 0.975574 0.201416
vt 0.978045 0.212748
vt 0.618887 0.097118
vt 0.610839 0.087413
vt 0.606363 0.100113
vt 0.610572 0.244521
vt 0.599436 0.240421
vt 0.602064 0.251454
vt 0.319586 0.700941
vt 0.329032 0.843766
vt 0.331422 0.701052
vt 0.320313 0.843686
vt 0.175103 0.701794
vt 0.176066 0.844586
vt 0.16476 0.701878
vt 0.166135 0.8446441
vt 0.175215 0.094406
vt 0.172683 0.084877
vt 0.166445 0.091363
vt 0.169184 0.234717
vt 0.158396 0.237279
vt 0.166159 0.244301
vt 0.773167 0.832188
vt 0.636567 0.833369
vt 0.636673 0.8462099
vt 0.773277 0.845031
vt 0.146606 0.06355999
vt 0.01 0.06355999
vt 0.01 0.142062
vt 0.146606 0.142062
vt 0.590861 0.8462099
vt 0.599589 0.835422
vt 0.588673 0.833841
vt 0.508524 0.8462099
vt 0.510334 0.833584
vt 0.498784 0.835604
vt 0.904677 0.125784
vt 0.902479 0.114342
vt 0.891771 0.12337
vt 0.904526 0.204229
vt 0.891771 0.206499
vt 0.902905 0.216072
vt 0.636584 0.5878
vt 0.773185 0.588748
vt 0.773277 0.575409
vt 0.636676 0.574461
vn 0.002385156 0.996929 -0.07827515
vn -0.9892854 0.1084759 -0.09770974
vn -0.001793783 0.1602797 -0.9870701
vn 0.07309967 0.994911 -0.06934323
vn 0.1167476 0.1520458 -0.9814541
vn 0.9908333 0.1092796 -0.0794187
vn 0.002385156 0.996929 -0.07827515
vn -0.9923627 0.09447152 0.07931755
vn -0.9892854 0.1084759 -0.09770974
vn -0.06540854 0.9954534 0.06923974
vn 0.06595784 0.9960803 0.05893657
vn 0.07309967 0.994911 -0.06934323
vn 0.9908333 0.1092796 -0.0794187
vn 0.9934177 0.08940094 0.07161568
vn 0.0103832 0.1375811 0.9904361
vn -0.9923627 0.09447152 0.07931755
vn -0.06540854 0.9954534 0.06923974
vn 0.08662857 0.1005863 0.9911498
vn 0.06595784 0.9960803 0.05893657
vn 0.9934177 0.08940094 0.07161568
vn -0.09726664 0.08545251 -0.9915832
vn 0.09648816 0.09052686 -0.9912088
vn 0.126709 0.9857692 -0.1104718
vn -0.1248589 0.9860161 -0.1103748
vn -0.1248589 0.9860161 -0.1103748
vn 0.126709 0.9857692 -0.1104718
vn 0.1265358 0.9858743 0.1097298
vn 1.279619E-06 0.993376 0.1149102
vn 0.126709 0.9857692 -0.1104718
vn 0.09648816 0.09052686 -0.9912088
vn 0.9920476 0.09214942 -0.08573293
vn 0.1265358 0.9858743 0.1097298
vn 0.9921044 0.09209158 0.085135
vn 0.1097729 0.1031553 0.9885894
vn -0.99145 0.09336948 -0.09115387
vn -0.09726664 0.08545251 -0.9915832
vn -0.1248589 0.9860161 -0.1103748
vn -0.9913951 0.09312591 0.0919962
vn 1.279619E-06 0.993376 0.1149102
vn -0.1107026 0.1027642 0.9885265
vn 0.1097729 0.1031553 0.9885894
vn -0.1107026 0.1027642 0.9885265
vn 1.279619E-06 0.993376 0.1149102
vn 0.1265358 0.9858743 0.1097298
vn 0.08578067 0.09296079 -0.9919677
vn 0.9907055 0.0966407 -0.09572427
vn 0.1004008 0.9886755 -0.1115369
vn -0.08517843 0.09289693 -0.9920256
vn -0.1019411 0.9885649 -0.1111184
vn -0.9882896 0.1062443 -0.1095255
vn 0.9907055 0.0966407 -0.09572427
vn 0.991248 0.09347934 0.09321379
vn 0.08985511 0.9895278 0.1129634
vn 0.1004008 0.9886755 -0.1115369
vn -0.09382085 0.9895675 0.1093334
vn -0.1019411 0.9885649 -0.1111184
vn -0.9887775 0.104333 0.106929
vn -0.9882896 0.1062443 -0.1095255
vn 0.08985511 0.9895278 0.1129634
vn 0.991248 0.09347934 0.09321379
vn 0.08595844 0.1030296 0.9909571
vn -0.09382085 0.9895675 0.1093334
vn -0.08960771 0.1007538 0.9908679
vn -0.9887775 0.104333 0.106929
vn -0.09616163 0.9953614 -0.002934692
vn -0.1355544 0.1021625 0.9854886
vn -0.9931735 0.1126687 -0.03020252
vn -0.09220358 0.9905261 -0.1017674
vn -0.9835581 0.1091579 -0.1438679
vn -0.05756926 0.07957526 -0.9951651
vn -0.09616163 0.9953614 -0.002934692
vn 0.07731256 0.09444004 0.992524
vn -0.1355544 0.1021625 0.9854886
vn 0.09587685 0.9953421 0.01008292
vn -0.09220358 0.9905261 -0.1017674
vn 0.09647938 0.9907566 -0.09535779
vn -0.05756926 0.07957526 -0.9951651
vn 0.1096341 0.07369222 -0.9912366
vn 0.9960537 0.08515326 0.02501826
vn 0.07731256 0.09444004 0.992524
vn 0.09587685 0.9953421 0.01008292
vn 0.9944414 0.0780876 -0.07062963
vn 0.09647938 0.9907566 -0.09535779
vn 0.1096341 0.07369222 -0.9912366
vn -0.09726664 0.08545251 -0.9915832
vn 0.09648816 0.09052686 -0.9912088
vn 0.126709 0.9857692 -0.1104718
vn -0.1248589 0.9860161 -0.1103748
vn -0.1248589 0.9860161 -0.1103748
vn 0.126709 0.9857692 -0.1104718
vn 0.1265358 0.9858743 0.1097298
vn 1.279619E-06 0.993376 0.1149102
vn 0.126709 0.9857692 -0.1104718
vn 0.09648816 0.09052686 -0.9912088
vn 0.9920476 0.09214942 -0.08573293
vn 0.1265358 0.9858743 0.1097298
vn 0.9921044 0.09209158 0.085135
vn 0.1097729 0.1031553 0.9885894
vn -0.99145 0.09336948 -0.09115387
vn -0.09726664 0.08545251 -0.9915832
vn -0.1248589 0.9860161 -0.1103748
vn -0.9913951 0.09312591 0.0919962
vn 1.279619E-06 0.993376 0.1149102
vn -0.1107026 0.1027642 0.9885265
vn 0.1097729 0.1031553 0.9885894
vn -0.1107026 0.1027642 0.9885265
vn 1.279619E-06 0.993376 0.1149102
vn 0.1265358 0.9858743 0.1097298
g ruinPath02_0
f 3/3/3 2/2/2 1/1/1
f 1/1/1 4/4/4 3/3/3
f 4/4/4 5/5/5 3/3/3
f 5/5/5 4/4/4 6/6/6
f 9/9/9 8/8/8 7/7/7
f 8/8/8 10/10/10 7/7/7
f 10/10/10 11/11/11 7/7/7
f 11/11/11 12/12/12 7/7/7
f 12/12/12 11/11/11 13/13/13
f 11/11/11 14/14/14 13/13/13
f 17/17/17 16/16/16 15/15/15
f 15/15/15 18/18/18 17/17/17
f 18/18/18 19/19/19 17/17/17
f 20/20/20 19/19/19 18/18/18
f 23/23/23 22/22/22 21/21/21
f 24/24/24 23/23/23 21/21/21
f 27/27/27 26/26/26 25/25/25
f 28/28/28 27/27/27 25/25/25
f 31/31/31 30/30/30 29/29/29
f 29/29/29 32/32/32 31/31/31
f 32/32/32 33/33/33 31/31/31
f 32/32/32 34/34/34 33/33/33
f 37/37/37 36/36/36 35/35/35
f 35/35/35 38/38/38 37/37/37
f 38/38/38 39/39/39 37/37/37
f 38/38/38 40/40/40 39/39/39
f 43/43/43 42/42/42 41/41/41
f 44/44/44 43/43/43 41/41/41
f 47/47/47 46/46/46 45/45/45
f 45/45/45 48/48/48 47/47/47
f 48/48/48 49/49/49 47/47/47
f 48/48/48 50/50/50 49/49/49
f 53/53/53 52/52/52 51/51/51
f 54/54/54 53/53/53 51/51/51
f 55/55/55 53/53/53 54/54/54
f 56/56/56 55/55/55 54/54/54
f 55/55/55 56/56/56 57/57/57
f 56/56/56 58/58/58 57/57/57
f 61/61/61 60/60/60 59/59/59
f 59/59/59 62/62/62 61/61/61
f 62/62/62 63/63/63 61/61/61
f 62/62/62 64/64/64 63/63/63
f 67/67/67 66/66/66 65/65/65
f 65/65/65 68/68/68 67/67/67
f 68/68/68 69/69/69 67/67/67
f 68/68/68 70/70/70 69/69/69
f 73/73/73 72/72/72 71/71/71
f 72/72/72 74/74/74 71/71/71
f 71/71/71 74/74/74 75/75/75
f 74/74/74 76/76/76 75/75/75
f 75/75/75 76/76/76 77/77/77
f 76/76/76 78/78/78 77/77/77
f 81/81/81 80/80/80 79/79/79
f 79/79/79 82/82/82 81/81/81
f 82/82/82 83/83/83 81/81/81
f 82/82/82 84/84/84 83/83/83
f 87/87/87 86/86/86 85/85/85
f 88/88/88 87/87/87 85/85/85
f 91/91/91 90/90/90 89/89/89
f 92/92/92 91/91/91 89/89/89
f 95/95/95 94/94/94 93/93/93
f 93/93/93 96/96/96 95/95/95
f 96/96/96 97/97/97 95/95/95
f 96/96/96 98/98/98 97/97/97
f 101/101/101 100/100/100 99/99/99
f 99/99/99 102/102/102 101/101/101
f 102/102/102 103/103/103 101/101/101
f 102/102/102 104/104/104 103/103/103
f 107/107/107 106/106/106 105/105/105
f 108/108/108 107/107/107 105/105/105
