g ruinBlock06
v 1.603172 0.6726626 0.9907569
v -1.578998 0.6726626 0.95599
v -1.578998 0.7472766 0.90759
v 1.603172 0.7473428 0.90759
v 1.603172 0.7473428 0.90759
v 1.682939 0.6726626 0.90759
v 1.603172 0.6726626 0.9907569
v 1.616065 0.09776672 0.907589
v 1.603173 0.09776672 0.929954
v 1.603173 0.07364471 0.90759
v 1.603172 0.7473428 0.90759
v -1.578998 0.7472766 0.90759
v -1.578998 0.7124539 -0.923637
v 1.603172 0.7485418 -0.923637
v 1.603172 0.7473428 0.90759
v 1.603172 0.7485418 -0.923637
v 1.683148 0.6726626 -0.923637
v 1.682939 0.6726626 0.90759
v 1.603172 0.7485418 -0.923637
v -1.578998 0.7124539 -0.923637
v -1.578998 0.6726626 -0.970989
v 1.603173 0.6726626 -0.992341
v 1.603173 0.6726626 -0.992341
v 1.683148 0.6726626 -0.923637
v 1.603172 0.7485418 -0.923637
v 1.603173 0.0977658 -0.953663
v 1.626105 0.0977658 -0.923637
v 1.603172 0.06080597 -0.923637
v 1.603173 0.6726626 -0.992341
v -1.578998 0.6726626 -0.970989
v -1.578998 0.0977658 -0.99248
v 1.603173 0.0977658 -0.953663
v -1.682898 0.09776672 -0.923637
v -1.578998 0.000211792 -0.923637
v -1.578998 0.6726626 -0.970989
v -1.633626 0.6726626 -0.923637
v -1.578998 0.7124539 -0.923637
v 1.603173 0.0977658 -0.953663
v -1.578998 0.0977658 -0.99248
v -1.578998 0.000211792 -0.923637
v 1.603172 0.06080597 -0.923637
v 1.603172 0.06080597 -0.923637
v -1.578998 0.000211792 -0.923637
v -1.578998 0.003128662 0.907589
v 1.603173 0.07364471 0.90759
v 1.603172 0.06080597 -0.923637
v 1.603173 0.07364471 0.90759
v 1.616065 0.09776672 0.907589
v 1.626105 0.0977658 -0.923637
v 1.626105 0.0977658 -0.923637
v 1.682939 0.6726626 0.90759
v 1.683148 0.6726626 -0.923637
v 1.603173 0.07364471 0.90759
v -1.578998 0.003128662 0.907589
v -1.578998 0.09776672 0.990805
v 1.603173 0.09776672 0.929954
v 1.603173 0.09776672 0.929954
v -1.578998 0.09776672 0.990805
v -1.578998 0.6726626 0.95599
v 1.603172 0.6726626 0.9907569
v -1.68308 0.6726626 0.90759
v -1.578998 0.7472766 0.90759
v -1.578998 0.09776672 0.990805
v -1.683318 0.09776672 0.90759
v -1.578998 0.003128662 0.907589
v -1.578998 0.003128662 0.907589
v -1.578998 0.000211792 -0.923637
v -1.682898 0.09776672 -0.923637
v -1.683318 0.09776672 0.90759
v -1.578998 0.7124539 -0.923637
v -1.578998 0.7472766 0.90759
v -1.68308 0.6726626 0.90759
v -1.633626 0.6726626 -0.923637
v -1.683318 0.09776672 0.90759
v -1.682898 0.09776672 -0.923637
v -1.633626 0.6726626 -0.923637
v -1.68308 0.6726626 0.90759
vt 0.886673 0.554047
vt 0.644658 0.5553221
vt 0.643661 0.56198
vt 0.8890941 0.56198
vt 0.8890941 0.56198
vt 0.8952309 0.555803
vt 0.886673 0.554047
vt 0.8866389 0.51179
vt 0.888513 0.511217
vt 0.887768 0.513632
vt 0.318014 0.403641
vt 0.074893 0.402613
vt 0.074006 0.542344
vt 0.317396 0.543507
vt 0.318014 0.403641
vt 0.317396 0.543507
vt 0.325847 0.543589
vt 0.326382 0.403628
vt 0.8813241 0.084612
vt 0.637654 0.084612
vt 0.638683 0.089121
vt 0.879303 0.092044
vt 0.879303 0.092044
vt 0.887242 0.091063
vt 0.8813241 0.084612
vt 0.878994 0.135049
vt 0.8818231 0.135761
vt 0.879841 0.138484
vt 0.879303 0.092044
vt 0.638683 0.089121
vt 0.636921 0.131798
vt 0.878994 0.135049
vt 0.627451 0.132084
vt 0.634917 0.140539
vt 0.638683 0.089121
vt 0.633394 0.087629
vt 0.637654 0.084612
vt 0.878994 0.135049
vt 0.636921 0.131798
vt 0.634917 0.140539
vt 0.879841 0.138484
vt 0.150174 0.393695
vt 0.150163 0.150596
vt 0.010368 0.150514
vt 0.01 0.393695
vt 0.373727 0.543771
vt 0.373088 0.403758
vt 0.37099 0.403778
vt 0.370392 0.543718
vt 0.370392 0.543718
vt 0.326382 0.403628
vt 0.325847 0.543589
vt 0.887768 0.513632
vt 0.64444 0.503322
vt 0.646248 0.512553
vt 0.888513 0.511217
vt 0.888513 0.511217
vt 0.646248 0.512553
vt 0.644658 0.5553221
vt 0.886673 0.554047
vt 0.635909 0.555585
vt 0.643661 0.56198
vt 0.646248 0.512553
vt 0.63633 0.51087
vt 0.64444 0.503322
vt 0.01 0.403996
vt 0.013524 0.543828
vt 0.024408 0.543557
vt 0.020781 0.403641
vt 0.074006 0.542344
vt 0.074893 0.402613
vt 0.065052 0.402651
vt 0.068818 0.542369
vt 0.020781 0.403641
vt 0.024408 0.543557
vt 0.068818 0.542369
vt 0.065052 0.402651
vn 0.121368 0.07156507 0.9900243
vn -0.01091478 0.1316293 0.9912389
vn -0.0792338 0.9949 0.06241851
vn -0.0002735292 0.9972264 0.07442621
vn 0.08403297 0.9939557 0.07064395
vn 0.9930021 0.06444155 0.09896467
vn 0.121368 0.07156507 0.9900243
vn 0.9948289 -0.08538297 0.0550011
vn 0.06420927 -0.08930716 0.9939323
vn 0.07310436 -0.9950528 0.0672734
vn 0.08502491 0.9963787 0.0003486916
vn -0.003378452 0.9969632 0.07780027
vn -0.08612178 0.9962309 -0.01034807
vn -0.000140283 0.9971349 -0.07564333
vn 0.08403297 0.9939557 0.07064395
vn 0.08440371 0.9938312 -0.07194173
vn 0.9926834 0.07388779 -0.09550013
vn 0.997286 0.07358243 0.002513278
vn 0.08440371 0.9938312 -0.07194173
vn -0.01368763 0.9966665 -0.08042647
vn -0.05954545 0.08897761 -0.9942521
vn -2.58049E-05 0.1052598 -0.9944448
vn 0.09722599 0.06980231 -0.9928115
vn 0.9926834 0.07388779 -0.09550013
vn 0.08440371 0.9938312 -0.07194173
vn 0.05693922 -0.07880102 -0.995263
vn 0.9939698 -0.09155367 -0.06034822
vn 0.07984128 -0.9940175 -0.07452959
vn 0.09722599 0.06980231 -0.9928115
vn -0.007822121 0.1164929 -0.9931607
vn -0.08311215 -0.08135971 -0.9932134
vn -2.166014E-05 -0.1018479 -0.9948
vn -0.9876834 -0.1099293 -0.1113422
vn -0.09911986 -0.9906011 -0.09425952
vn -0.05954545 0.08897761 -0.9942521
vn -0.9875712 0.131448 -0.08616492
vn -0.06660999 0.9959838 -0.05982686
vn 0.05693922 -0.07880102 -0.995263
vn -0.005670593 -0.09356134 -0.9955974
vn -0.09911986 -0.9906011 -0.09425952
vn -0.0001462257 -0.9951148 -0.09872448
vn 0.1471934 -0.9891006 0.003736002
vn -7.466305E-05 -0.9951308 -0.09856329
vn -0.1016241 -0.9948226 0.00077268
vn -0.000151218 -0.9952546 0.09730426
vn 0.07984128 -0.9940175 -0.07452959
vn 0.07310436 -0.9950528 0.0672734
vn 0.9948289 -0.08538297 0.0550011
vn 0.9879615 -0.1546689 0.003116454
vn 0.9939698 -0.09155367 -0.06034822
vn 0.9930021 0.06444155 0.09896467
vn 0.9926834 0.07388779 -0.09550013
vn 0.07310436 -0.9950528 0.0672734
vn -0.0009951231 -0.9952369 0.09748054
vn -0.08658186 -0.09227791 0.9919619
vn -0.0005403773 -0.1235544 0.9923376
vn 0.06420927 -0.08930716 0.9939323
vn -0.009402814 -0.1101307 0.9938726
vn -0.08140842 0.1159997 0.9899074
vn -0.0006388328 0.127147 0.9918836
vn -0.9833196 0.1575721 0.09084924
vn -0.0792338 0.9949 0.06241851
vn -0.08658186 -0.09227791 0.9919619
vn -0.9838164 -0.1455826 0.1044557
vn -0.09862889 -0.9907926 0.09274857
vn -0.09862889 -0.9907926 0.09274857
vn -0.09911986 -0.9906011 -0.09425952
vn -0.9876834 -0.1099293 -0.1113422
vn -0.9908478 -0.1344984 -0.01143293
vn -0.06660999 0.9959838 -0.05982686
vn -0.0792338 0.9949 0.06241851
vn -0.9833196 0.1575721 0.09084924
vn -0.9849762 0.1720525 -0.01482336
vn -0.9838164 -0.1455826 0.1044557
vn -0.9876834 -0.1099293 -0.1113422
vn -0.9875712 0.131448 -0.08616492
vn -0.9833196 0.1575721 0.09084924
g ruinBlock06_0
f 3/3/3 2/2/2 1/1/1
f 4/4/4 3/3/3 1/1/1
f 7/7/7 6/6/6 5/5/5
f 8/8/8 6/6/6 7/7/7
f 9/9/9 8/8/8 7/7/7
f 10/10/10 8/8/8 9/9/9
f 13/13/13 12/12/12 11/11/11
f 14/14/14 13/13/13 11/11/11
f 17/17/17 16/16/16 15/15/15
f 18/18/18 17/17/17 15/15/15
f 21/21/21 20/20/20 19/19/19
f 22/22/22 21/21/21 19/19/19
f 25/25/25 24/24/24 23/23/23
f 23/23/23 24/24/24 26/26/26
f 24/24/24 27/27/27 26/26/26
f 26/26/26 27/27/27 28/28/28
f 31/31/31 30/30/30 29/29/29
f 32/32/32 31/31/31 29/29/29
f 34/34/34 33/33/33 31/31/31
f 31/31/31 33/33/33 35/35/35
f 33/33/33 36/36/36 35/35/35
f 35/35/35 36/36/36 37/37/37
f 40/40/40 39/39/39 38/38/38
f 41/41/41 40/40/40 38/38/38
f 44/44/44 43/43/43 42/42/42
f 45/45/45 44/44/44 42/42/42
f 48/48/48 47/47/47 46/46/46
f 49/49/49 48/48/48 46/46/46
f 51/51/51 48/48/48 50/50/50
f 52/52/52 51/51/51 50/50/50
f 55/55/55 54/54/54 53/53/53
f 56/56/56 55/55/55 53/53/53
f 59/59/59 58/58/58 57/57/57
f 60/60/60 59/59/59 57/57/57
f 62/62/62 61/61/61 59/59/59
f 59/59/59 61/61/61 63/63/63
f 61/61/61 64/64/64 63/63/63
f 63/63/63 64/64/64 65/65/65
f 68/68/68 67/67/67 66/66/66
f 69/69/69 68/68/68 66/66/66
f 72/72/72 71/71/71 70/70/70
f 73/73/73 72/72/72 70/70/70
f 76/76/76 75/75/75 74/74/74
f 77/77/77 76/76/76 74/74/74
