g ruinWall02_LOD1
v -5.525298 4.256122 0.250025
v -4.009802 4.277041 0.5
v -5.525298 4.01216 0.5
v -4.009802 4.52604 0.250025
v -2 4.629577 0.5
v -4.009802 4.52604 -0.250025
v -5.525298 4.256122 -0.250025
v -5.525298 4.01216 -0.5
v -4.009802 4.277041 -0.5
v -2 4.87955 -0.250025
v -2 4.629577 -0.5
v -2 4.87955 0.250025
v 0 5.377095 0.5
v 0 5.627601 -0.250025
v 0 5.377095 -0.5
v 0 5.627601 0.250025
v 2 5.750025 0.5
v 2 6 -0.250025
v 2 5.750025 -0.5
v 2 6 0.250025
v 4 5.750025 0.5
v 4 6 -0.250025
v 4 5.750025 -0.5
v 4 6 0.250025
v 5.750024 5.750025 0.5
v 5.750024 6 0.250025
v 5.750024 6 -0.250025
v 5.750024 5.750025 -0.5
v -6 0.2477152 0.250025
v -5.750024 1.589147 0.5
v -5.750024 0.2446069 0.5
v -6 1.629362 0.250025
v -5.692905 2.835497 0.5
v -5.942881 2.885492 0.250025
v -5.525298 4.01216 0.5
v -6 1.629362 -0.250025
v -5.775271 4.053201 0.250025
v -5.525298 4.256122 0.250025
v -5.525298 4.256122 -0.250025
v -5.942881 2.885492 -0.250025
v -5.775271 4.053201 -0.250025
v -5.525298 4.01216 -0.5
v -5.692905 2.835497 -0.5
v -5.750024 1.589147 -0.5
v -5.750024 0.2446069 -0.5
v -6 0.2477152 -0.250025
v -6.264409 0 -0.3615828
v -6.264409 0 0.3615828
v 5.750024 2 -0.5
v 5.750024 0.2610981 -0.5
v 6 0.2610981 -0.250025
v 6 2 -0.250025
v 5.750024 4 -0.5
v 6 4 -0.250025
v 5.750024 5.750025 -0.5
v 6 2 0.250025
v 6 5.750025 -0.250025
v 5.750024 6 -0.250025
v 5.750024 6 0.250025
v 6 4 0.250025
v 6 5.750025 0.250025
v 5.750024 5.750025 0.5
v 5.750024 4 0.5
v 5.750024 2 0.5
v 5.750024 0.2610981 0.5
v 6 0.2610981 0.250025
v 6.264407 0 0.3615828
v 6.264407 0 -0.3615828
v -5.692905 2.835497 0.5
v -5.525298 4.01216 0.5
v -4.009802 4.277041 0.5
v -4 2.834609 0.5
v -2 4.629577 0.5
v -5.750024 1.589147 0.5
v -2 2.880418 0.5
v 0 5.377095 0.5
v -4 1.443811 0.5
v 0 3.627598 0.5
v 2 5.750025 0.5
v -4 0.2146726 0.5
v -5.750024 0.2446069 0.5
v -2 1.479435 0.5
v 2 4 0.5
v 4 5.750025 0.5
v 0 1.814135 0.5
v 4 4 0.5
v 5.750024 5.750025 0.5
v 5.750024 4 0.5
v 2 2 0.5
v 4 2 0.5
v 5.750024 2 0.5
v -2 0.2441258 0.5
v 0 0.2610981 0.5
v 2 0.2610981 0.5
v 4 0.2610981 0.5
v 5.750024 0.2610981 0.5
v -4 0 0.7230932
v -2 0 0.7230932
v -5.750024 0 0.7230932
v 0 0 0.7230932
v -6.264409 0 0.3615828
v -6 0.2477152 0.250025
v 2 0 0.7230932
v 4 0 0.7230932
v 5.750024 0 0.7230932
v 6 0.2610981 0.250025
v 6.264407 0 0.3615828
v 4 5.750025 -0.5
v 5.750024 4 -0.5
v 5.750024 5.750025 -0.5
v 4 4 -0.5
v 2 5.750025 -0.5
v 5.750024 2 -0.5
v 2 4 -0.5
v 0 5.377095 -0.5
v 4 2 -0.5
v 5.750024 0.2610981 -0.5
v 0 3.627598 -0.5
v -2 4.629577 -0.5
v 2 2 -0.5
v -2 2.880418 -0.5
v -4.009802 4.277041 -0.5
v 4 0.2610981 -0.5
v 0 1.814135 -0.5
v -4 2.834609 -0.5
v -5.525298 4.01216 -0.5
v -5.692905 2.835497 -0.5
v -2 1.479435 -0.5
v -4 1.443811 -0.5
v -5.750024 1.589147 -0.5
v 2 0.2610981 -0.5
v 0 0.2610981 -0.5
v -4 0.2146726 -0.5
v -5.750024 0.2446069 -0.5
v -2 0.2441258 -0.5
v 4 0 -0.7230932
v 2 0 -0.7230932
v 5.750024 0 -0.7230932
v 0 0 -0.7230932
v 6.264407 0 -0.3615828
v 6 0.2610981 -0.250025
v -2 0 -0.7230932
v -4 0 -0.7230932
v -5.750024 0 -0.7230932
v -6 0.2477152 -0.250025
v -6.264409 0 -0.3615828
vt 1.119254 1.033721
vt 1.088326 0.8462193
vt 1.088326 1.033721
vt 1.119254 0.8462193
vt 1.088326 0.5975615
vt 1.181121 0.8462193
vt 1.181121 1.033721
vt 1.212049 1.033721
vt 1.212049 0.8462193
vt 1.181121 0.5975615
vt 1.212049 0.5975615
vt 1.119254 0.5975615
vt 1.088326 0.3501162
vt 1.181121 0.3501162
vt 1.212049 0.3501162
vt 1.119254 0.3501162
vt 1.088326 0.1026709
vt 1.181121 0.1026709
vt 1.212049 0.1026709
vt 1.119254 0.1026709
vt 1.088326 -0.1447744
vt 1.181121 -0.1447744
vt 1.212049 -0.1447744
vt 1.119254 -0.1447744
vt 1.088326 -0.3612922
vt 1.119254 -0.3612922
vt 1.181121 -0.3612922
vt 1.212049 -0.3612922
vt 1.330182 0.4185929
vt 1.36111 0.5845584
vt 1.36111 0.4182084
vt 1.330182 0.5895339
vt 1.36111 0.7387603
vt 1.330182 0.7449456
vt 1.36111 0.88434
vt 1.268315 0.5895339
vt 1.330182 0.8894178
vt 1.330182 0.9145236
vt 1.268315 0.9145236
vt 1.268315 0.7449456
vt 1.268315 0.8894178
vt 1.237387 0.88434
vt 1.237387 0.7387603
vt 1.237387 0.5845584
vt 1.237387 0.4182084
vt 1.268315 0.4185929
vt 1.254512 0.387945
vt 1.343984 0.387945
vt 1.346837 -0.1138468
vt 1.346837 -0.3289883
vt 1.315909 -0.3289883
vt 1.315909 -0.1138468
vt 1.346837 0.1335985
vt 1.315909 0.1335985
vt 1.346837 0.3501163
vt 1.254042 -0.1138468
vt 1.315909 0.3501163
vt 1.315909 0.3810438
vt 1.254042 0.3810438
vt 1.254042 0.1335985
vt 1.254042 0.3501163
vt 1.223114 0.3501163
vt 1.223114 0.1335985
vt 1.223114 -0.1138468
vt 1.223114 -0.3289883
vt 1.254042 -0.3289883
vt 1.240239 -0.3612922
vt 1.329711 -0.3612922
vt -0.01016638 1.118099
vt 0.1354135 1.097362
vt 0.1681852 0.9098601
vt -0.01027623 0.9086477
vt 0.2118019 0.6612024
vt -0.1643681 1.125165
vt -0.004608601 0.6612024
vt 0.3042868 0.413757
vt -0.1823495 0.9086477
vt 0.08783442 0.413757
vt 0.3504268 0.1663117
vt -0.3344217 0.9086477
vt -0.3307182 1.125165
vt -0.1779419 0.6612024
vt 0.133909 0.1663117
vt 0.3504268 -0.08113357
vt -0.1365321 0.413757
vt 0.133909 -0.08113357
vt 0.3504268 -0.2976513
vt 0.133909 -0.2976513
vt -0.1135363 0.1663117
vt -0.1135363 -0.08113357
vt -0.1135363 -0.2976513
vt -0.3307777 0.6612024
vt -0.3286779 0.413757
vt -0.3286779 0.1663117
vt -0.3286779 -0.08113357
vt -0.3286779 -0.2976513
vt -0.3609816 0.9086477
vt -0.3609816 0.6612024
vt -0.3609816 1.125165
vt -0.3609816 0.413757
vt -0.3609816 1.188806
vt -0.3303336 1.156093
vt -0.3609816 0.1663117
vt -0.3609816 -0.08113357
vt -0.3609816 -0.2976513
vt -0.3286779 -0.3285788
vt -0.3609816 -0.3612922
vt 0.3638406 -0.08113369
vt 0.5803584 -0.2976513
vt 0.3638406 -0.2976513
vt 0.5803584 -0.08113369
vt 0.3638406 0.1663117
vt 0.8278037 -0.2976513
vt 0.5803584 0.1663117
vt 0.4099806 0.413757
vt 0.8278037 -0.08113369
vt 1.042945 -0.2976513
vt 0.626433 0.413757
vt 0.5024655 0.6612023
vt 0.8278037 0.1663117
vt 0.7188761 0.6612023
vt 0.5460821 0.9098601
vt 1.042945 -0.08113369
vt 0.8507994 0.413757
vt 0.7245436 0.9086475
vt 0.578854 1.097361
vt 0.7244339 1.118099
vt 0.8922094 0.6612023
vt 0.8966169 0.9086475
vt 0.8786355 1.125165
vt 1.042945 0.1663117
vt 1.042945 0.413757
vt 1.048689 0.9086475
vt 1.044986 1.125165
vt 1.045045 0.6612023
vt 1.075249 -0.08113369
vt 1.075249 0.1663117
vt 1.075249 -0.2976513
vt 1.075249 0.413757
vt 1.075249 -0.3612922
vt 1.042945 -0.3285789
vt 1.075249 0.6612023
vt 1.075249 0.9086475
vt 1.075249 1.125165
vt 1.044601 1.156093
vt 1.075249 1.188806
vn -0.2301989 0.9260072 0.2991975
vn -0.02421014 0.1375401 0.9902002
vn -0.1156567 0.1274636 0.985077
vn -0.1651849 0.9356368 0.3119258
vn -0.03090212 0.1178221 0.9925538
vn -0.1651849 0.9356368 -0.3119258
vn -0.2301989 0.9260072 -0.2991975
vn -0.1156566 0.1274636 -0.985077
vn -0.02421013 0.1375401 -0.9902002
vn -0.2548351 0.914947 -0.3129393
vn -0.03090211 0.1178221 -0.9925538
vn -0.2548351 0.914947 0.3129393
vn -0.03910296 0.1343499 0.9901621
vn -0.2541243 0.919816 -0.2989303
vn -0.03910296 0.1343499 -0.9901621
vn -0.2541243 0.919816 0.2989303
vn -0.01309586 0.1351932 0.9907327
vn -0.08701494 0.947665 -0.3071798
vn -0.01309586 0.1351932 -0.9907327
vn -0.08701494 0.947665 0.3071798
vn 0 0.1240225 0.9922794
vn 0 0.9486962 -0.3161892
vn 0 0.1240225 -0.9922794
vn 0 0.9486962 0.3161892
vn 0.1142573 0.1142572 0.986859
vn 0.09496265 0.9496937 0.2984357
vn 0.09496265 0.9496937 -0.2984357
vn 0.1142573 0.1142572 -0.986859
vn -0.9204903 0.2230912 0.3208242
vn -0.1281485 0.002621762 0.9917515
vn -0.1353142 0.1635075 0.9772182
vn -0.9494688 0.0210658 0.3131539
vn -0.1262484 0.01142473 0.9919328
vn -0.9448866 0.088335 0.3152559
vn -0.1156567 0.1274636 0.985077
vn -0.9494688 0.0210658 -0.3131539
vn -0.9213741 0.252141 0.2957953
vn -0.2301989 0.9260072 0.2991975
vn -0.2301989 0.9260072 -0.2991975
vn -0.9448866 0.088335 -0.3152559
vn -0.921374 0.252141 -0.2957952
vn -0.1156566 0.1274636 -0.985077
vn -0.1262484 0.01142473 -0.9919328
vn -0.1281485 0.002621762 -0.9917515
vn -0.1353142 0.1635075 -0.9772182
vn -0.9204903 0.2230912 -0.3208242
vn -0.630335 0.7362787 -0.2461128
vn -0.630335 0.7362787 0.2461128
vn 0.1240225 0 -0.9922794
vn 0.1303239 0.1273563 -0.9832579
vn 0.9283267 0.1840972 -0.3229824
vn 0.9486958 0 -0.3161905
vn 0.1240225 0 -0.9922794
vn 0.9486958 0 -0.3161905
vn 0.1142573 0.1142572 -0.986859
vn 0.9486958 0 0.3161905
vn 0.9496934 0.09496298 -0.2984368
vn 0.09496265 0.9496937 -0.2984357
vn 0.09496265 0.9496937 0.2984357
vn 0.9486958 0 0.3161905
vn 0.9496934 0.09496298 0.2984368
vn 0.1142573 0.1142572 0.986859
vn 0.1240225 0 0.9922794
vn 0.1240225 0 0.9922794
vn 0.1303238 0.1273564 0.9832579
vn 0.9283267 0.1840973 0.3229824
vn 0.6489517 0.7171109 0.2541923
vn 0.6489517 0.7171108 -0.2541924
vn -0.1262484 0.01142473 0.9919328
vn -0.1156567 0.1274636 0.985077
vn -0.02421014 0.1375401 0.9902002
vn 0 0 1
vn -0.03090212 0.1178221 0.9925538
vn -0.1281485 0.002621762 0.9917515
vn 0 0 1
vn -0.03910296 0.1343499 0.9901621
vn 0 0 1
vn 0 0 1
vn -0.01309586 0.1351932 0.9907327
vn 1.02764E-05 0.150458 0.9886164
vn -0.1353142 0.1635075 0.9772182
vn 0 0 1
vn 0 0 1
vn 0 0.1240225 0.9922794
vn 0 0 1
vn 0 0 1
vn 0.1142573 0.1142572 0.986859
vn 0.1240225 0 0.9922794
vn 0 0 1
vn 0 0 1
vn 0.1240225 0 0.9922794
vn -0.0008212652 0.1417276 0.9899054
vn -0.0002627429 0.124097 0.9922701
vn 0 0.1134624 0.9935423
vn 0 0.110859 0.9938361
vn 0.1303238 0.1273564 0.9832579
vn 4.471878E-05 0.6970094 0.7170619
vn -0.003942134 0.6793043 0.7338462
vn -0.07893229 0.7019526 0.7078363
vn -0.001391194 0.6557445 0.7549816
vn -0.630335 0.7362787 0.2461128
vn -0.9204903 0.2230912 0.3208242
vn 0 0.649607 0.7602702
vn 0 0.649607 0.7602702
vn 0.08475883 0.6589179 0.7474243
vn 0.9283267 0.1840973 0.3229824
vn 0.6489517 0.7171109 0.2541923
vn 0 0.1240225 -0.9922794
vn 0.1240225 0 -0.9922794
vn 0.1142573 0.1142572 -0.986859
vn 0 0 -1
vn -0.01309586 0.1351932 -0.9907327
vn 0.1240225 0 -0.9922794
vn 0 0 -1
vn -0.03910296 0.1343499 -0.9901621
vn 0 0 -1
vn 0.1303239 0.1273563 -0.9832579
vn 0 0 -1
vn -0.03090211 0.1178221 -0.9925538
vn 0 0 -1
vn 0 0 -1
vn -0.02421013 0.1375401 -0.9902002
vn 0 0.110859 -0.9938361
vn 0 0 -1
vn 0 0 -1
vn -0.1156566 0.1274636 -0.985077
vn -0.1262484 0.01142473 -0.9919328
vn 0 0 -1
vn 0 0 -1
vn -0.1281485 0.002621762 -0.9917515
vn 0 0.1134624 -0.9935423
vn -0.0002627429 0.124097 -0.9922701
vn 1.027423E-05 0.150458 -0.9886164
vn -0.1353142 0.1635075 -0.9772182
vn -0.0008212652 0.1417276 -0.9899054
vn 0 0.649607 -0.7602702
vn 0 0.649607 -0.7602702
vn 0.08475888 0.6589179 -0.7474244
vn -0.001391194 0.6557445 -0.7549816
vn 0.6489517 0.7171108 -0.2541924
vn 0.9283267 0.1840972 -0.3229824
vn -0.003942134 0.6793043 -0.7338462
vn 4.471878E-05 0.6970094 -0.7170619
vn -0.07893229 0.7019526 -0.7078363
vn -0.9204903 0.2230912 -0.3208242
vn -0.630335 0.7362787 -0.2461128
g ruinWall02_LOD1_0
f 3/3/3 2/2/2 1/1/1
f 2/2/2 4/4/4 1/1/1
f 2/2/2 5/5/5 4/4/4
f 4/4/4 6/6/6 1/1/1
f 6/6/6 7/7/7 1/1/1
f 7/7/7 6/6/6 8/8/8
f 6/6/6 9/9/9 8/8/8
f 6/6/6 10/10/10 9/9/9
f 10/10/10 6/6/6 4/4/4
f 10/10/10 11/11/11 9/9/9
f 5/5/5 12/12/12 4/4/4
f 12/12/12 10/10/10 4/4/4
f 5/5/5 13/13/13 12/12/12
f 10/10/10 14/14/14 11/11/11
f 14/14/14 10/10/10 12/12/12
f 14/14/14 15/15/15 11/11/11
f 13/13/13 16/16/16 12/12/12
f 16/16/16 14/14/14 12/12/12
f 13/13/13 17/17/17 16/16/16
f 14/14/14 18/18/18 15/15/15
f 18/18/18 14/14/14 16/16/16
f 18/18/18 19/19/19 15/15/15
f 17/17/17 20/20/20 16/16/16
f 20/20/20 18/18/18 16/16/16
f 17/17/17 21/21/21 20/20/20
f 18/18/18 22/22/22 19/19/19
f 22/22/22 18/18/18 20/20/20
f 22/22/22 23/23/23 19/19/19
f 21/21/21 24/24/24 20/20/20
f 24/24/24 22/22/22 20/20/20
f 21/21/21 25/25/25 24/24/24
f 25/25/25 26/26/26 24/24/24
f 26/26/26 27/27/27 24/24/24
f 27/27/27 22/22/22 24/24/24
f 22/22/22 27/27/27 23/23/23
f 27/27/27 28/28/28 23/23/23
f 31/31/31 30/30/30 29/29/29
f 30/30/30 32/32/32 29/29/29
f 30/30/30 33/33/33 32/32/32
f 33/33/33 34/34/34 32/32/32
f 34/34/34 33/33/33 35/35/35
f 29/29/29 32/32/32 36/36/36
f 32/32/32 34/34/34 36/36/36
f 37/37/37 34/34/34 35/35/35
f 35/35/35 38/38/38 37/37/37
f 38/38/38 39/39/39 37/37/37
f 34/34/34 37/37/37 40/40/40
f 34/34/34 40/40/40 36/36/36
f 39/39/39 41/41/41 37/37/37
f 37/37/37 41/41/41 40/40/40
f 39/39/39 42/42/42 41/41/41
f 42/42/42 43/43/43 41/41/41
f 43/43/43 40/40/40 41/41/41
f 43/43/43 44/44/44 40/40/40
f 44/44/44 36/36/36 40/40/40
f 44/44/44 45/45/45 36/36/36
f 45/45/45 46/46/46 36/36/36
f 46/46/46 29/29/29 36/36/36
f 46/46/46 47/47/47 29/29/29
f 47/47/47 48/48/48 29/29/29
f 51/51/51 50/50/50 49/49/49
f 52/52/52 51/51/51 49/49/49
f 52/52/52 49/49/49 53/53/53
f 54/54/54 52/52/52 53/53/53
f 54/54/54 53/53/53 55/55/55
f 51/51/51 52/52/52 56/56/56
f 52/52/52 54/54/54 56/56/56
f 57/57/57 54/54/54 55/55/55
f 58/58/58 57/57/57 55/55/55
f 57/57/57 58/58/58 59/59/59
f 54/54/54 57/57/57 60/60/60
f 54/54/54 60/60/60 56/56/56
f 61/61/61 57/57/57 59/59/59
f 57/57/57 61/61/61 60/60/60
f 62/62/62 61/61/61 59/59/59
f 62/62/62 63/63/63 61/61/61
f 63/63/63 60/60/60 61/61/61
f 60/60/60 63/63/63 64/64/64
f 56/56/56 60/60/60 64/64/64
f 56/56/56 64/64/64 65/65/65
f 66/66/66 56/56/56 65/65/65
f 66/66/66 51/51/51 56/56/56
f 66/66/66 67/67/67 51/51/51
f 67/67/67 68/68/68 51/51/51
f 71/71/71 70/70/70 69/69/69
f 72/72/72 71/71/71 69/69/69
f 73/73/73 71/71/71 72/72/72
f 72/72/72 69/69/69 74/74/74
f 75/75/75 73/73/73 72/72/72
f 76/76/76 73/73/73 75/75/75
f 77/77/77 72/72/72 74/74/74
f 75/75/75 72/72/72 77/77/77
f 78/78/78 76/76/76 75/75/75
f 79/79/79 76/76/76 78/78/78
f 80/80/80 77/77/77 74/74/74
f 81/81/81 80/80/80 74/74/74
f 82/82/82 75/75/75 77/77/77
f 78/78/78 75/75/75 82/82/82
f 82/82/82 77/77/77 80/80/80
f 83/83/83 79/79/79 78/78/78
f 84/84/84 79/79/79 83/83/83
f 85/85/85 78/78/78 82/82/82
f 83/83/83 78/78/78 85/85/85
f 86/86/86 84/84/84 83/83/83
f 87/87/87 84/84/84 86/86/86
f 88/88/88 87/87/87 86/86/86
f 86/86/86 83/83/83 89/89/89
f 89/89/89 83/83/83 85/85/85
f 88/88/88 86/86/86 90/90/90
f 90/90/90 86/86/86 89/89/89
f 91/91/91 88/88/88 90/90/90
f 85/85/85 82/82/82 92/92/92
f 92/92/92 82/82/82 80/80/80
f 89/89/89 85/85/85 93/93/93
f 93/93/93 85/85/85 92/92/92
f 90/90/90 89/89/89 94/94/94
f 94/94/94 89/89/89 93/93/93
f 91/91/91 90/90/90 95/95/95
f 95/95/95 90/90/90 94/94/94
f 96/96/96 91/91/91 95/95/95
f 92/92/92 80/80/80 97/97/97
f 98/98/98 92/92/92 97/97/97
f 93/93/93 92/92/92 98/98/98
f 99/99/99 97/97/97 80/80/80
f 100/100/100 93/93/93 98/98/98
f 94/94/94 93/93/93 100/100/100
f 81/81/81 99/99/99 80/80/80
f 99/99/99 81/81/81 101/101/101
f 81/81/81 102/102/102 101/101/101
f 103/103/103 94/94/94 100/100/100
f 95/95/95 94/94/94 103/103/103
f 104/104/104 95/95/95 103/103/103
f 96/96/96 95/95/95 104/104/104
f 105/105/105 96/96/96 104/104/104
f 106/106/106 96/96/96 105/105/105
f 107/107/107 106/106/106 105/105/105
f 110/110/110 109/109/109 108/108/108
f 109/109/109 111/111/111 108/108/108
f 108/108/108 111/111/111 112/112/112
f 109/109/109 113/113/113 111/111/111
f 111/111/111 114/114/114 112/112/112
f 112/112/112 114/114/114 115/115/115
f 113/113/113 116/116/116 111/111/111
f 111/111/111 116/116/116 114/114/114
f 113/113/113 117/117/117 116/116/116
f 114/114/114 118/118/118 115/115/115
f 115/115/115 118/118/118 119/119/119
f 116/116/116 120/120/120 114/114/114
f 114/114/114 120/120/120 118/118/118
f 118/118/118 121/121/121 119/119/119
f 119/119/119 121/121/121 122/122/122
f 117/117/117 123/123/123 116/116/116
f 116/116/116 123/123/123 120/120/120
f 120/120/120 124/124/124 118/118/118
f 118/118/118 124/124/124 121/121/121
f 121/121/121 125/125/125 122/122/122
f 122/122/122 125/125/125 126/126/126
f 125/125/125 127/127/127 126/126/126
f 121/121/121 128/128/128 125/125/125
f 124/124/124 128/128/128 121/121/121
f 125/125/125 129/129/129 127/127/127
f 128/128/128 129/129/129 125/125/125
f 129/129/129 130/130/130 127/127/127
f 120/120/120 131/131/131 124/124/124
f 123/123/123 131/131/131 120/120/120
f 124/124/124 132/132/132 128/128/128
f 131/131/131 132/132/132 124/124/124
f 129/129/129 133/133/133 130/130/130
f 133/133/133 134/134/134 130/130/130
f 128/128/128 135/135/135 129/129/129
f 132/132/132 135/135/135 128/128/128
f 135/135/135 133/133/133 129/129/129
f 123/123/123 136/136/136 131/131/131
f 136/136/136 137/137/137 131/131/131
f 131/131/131 137/137/137 132/132/132
f 138/138/138 136/136/136 123/123/123
f 137/137/137 139/139/139 132/132/132
f 132/132/132 139/139/139 135/135/135
f 117/117/117 138/138/138 123/123/123
f 140/140/140 138/138/138 117/117/117
f 141/141/141 140/140/140 117/117/117
f 139/139/139 142/142/142 135/135/135
f 135/135/135 142/142/142 133/133/133
f 142/142/142 143/143/143 133/133/133
f 133/133/133 143/143/143 134/134/134
f 143/143/143 144/144/144 134/134/134
f 134/134/134 144/144/144 145/145/145
f 144/144/144 146/146/146 145/145/145
