g ruinStatue01_COL
v 0.4157564 -0.0442366 -0.7479028
v 2.822377E-11 -0.02544411 0.005031337
v 0.7335723 -0.03616093 -0.4055595
v 0.6036341 -0.01667465 -1.079559
v 1.107258 -0.02762302 -0.5954343
v 0.7274667 0.3453878 -1.307146
v 1.306713 0.3224526 -0.732594
v 0.7856579 0.9850674 -1.423059
v 1.41756 0.988902 -0.7954768
v 0.7355641 1.589603 -1.330342
v 1.337664 1.59594 -0.748185
v 0.590587 2.14869 -1.010018
v 1.024242 2.16606 -0.5749767
v 0.3456168 2.577531 -0.5396799
v 0.5539616 2.595859 -0.3462048
v 1.692003E-10 2.770736 0.03783647
v -1.103615E-10 2.575103 -0.6262615
v 1.692003E-10 2.770736 0.03783647
v 1.204543E-10 2.139972 -1.154272
v 7.287035E-10 1.589253 -1.485086
v 3.583299E-10 0.9688444 -1.597776
v -0.3456168 2.577531 -0.53968
v 1.692003E-10 2.770736 0.03783647
v -0.590587 2.14869 -1.010018
v 1.421085E-16 0.3414585 -1.490625
v -0.7355641 1.589603 -1.330342
v -0.5539616 2.595859 -0.3462048
v 1.692003E-10 2.770736 0.03783647
v -1.024242 2.16606 -0.5749767
v -0.7856579 0.9850674 -1.423059
v 1.421085E-16 -0.03767349 -1.234353
v -0.650132 2.606485 0.02543472
v 1.692003E-10 2.770736 0.03783647
v -1.337664 1.59594 -0.748185
v -0.7274667 0.3453878 -1.307146
v 0.01369032 -0.04463901 -0.8555512
v 2.822377E-11 -0.02544411 0.005031337
v -1.187578 2.184513 -0.02336992
v -1.41756 0.9889021 -0.7954768
v -0.6036341 -0.01667465 -1.079559
v -0.5520362 2.610814 0.3312982
v 1.692003E-10 2.770736 0.03783647
v -1.537629 1.599417 -0.003646774
v -1.306713 0.3224526 -0.732594
v -0.4157564 -0.0442366 -0.7479028
v 2.822377E-11 -0.02544411 0.005031337
v -1.018211 2.221138 0.604094
v -1.638475 0.9890867 -0.01143628
v -1.107258 -0.02762302 -0.5954343
v -0.3390773 2.587144 0.6073799
v 1.692003E-10 2.770736 0.03783647
v -1.338085 1.598436 0.7871248
v -1.484164 0.3389814 -0.02148847
v -0.7335723 -0.03616093 -0.4055595
v 2.822377E-11 -0.02544411 0.005031337
v -0.6035787 2.204481 1.042083
v -1.418226 0.9920208 0.796766
v -1.25392 -0.0389912 -0.02456901
v 7.481349E-10 2.640241 0.6521431
v 1.692003E-10 2.770736 0.03783647
v -0.746176 1.626325 1.323736
v -1.299134 0.3564904 0.7170042
v -0.8734113 -0.05218692 0.005576528
v 2.822377E-11 -0.02544411 0.005031337
v -1.320551E-10 2.197738 1.221367
v -0.8007922 0.9973599 1.432235
v -1.072134 -0.04647072 0.6695744
v 0.3390773 2.587144 0.60738
v 1.692003E-10 2.770736 0.03783647
v 1.421085E-16 1.636438 1.536982
v -0.7925526 0.3593915 1.293896
v -0.7763991 -0.06025432 0.4642232
v 2.822377E-11 -0.02544411 0.005031337
v 0.6035789 2.204481 1.042083
v 2.139716E-10 1.205995 1.624106
v -0.6125509 -0.02363247 1.035596
v 0.5520362 2.610814 0.3312982
v 1.692003E-10 2.770736 0.03783647
v 0.746176 1.626325 1.323736
v -7.353016E-11 0.3742148 1.482444
v -0.3986972 -0.0479673 0.7612038
v 2.822377E-11 -0.02544411 0.005031337
v 1.018211 2.221138 0.6040939
v 0.8007922 0.9973598 1.432235
v -3.292071E-10 -0.05964474 1.1214
v 0.650132 2.606485 0.02543471
v 1.692003E-10 2.770736 0.03783647
v 1.338085 1.598436 0.7871248
v 0.7925526 0.3593915 1.293896
v -1.671499E-10 -0.05126892 0.8691311
v 2.822377E-11 -0.02544411 0.005031337
v 1.187578 2.184512 -0.02336991
v 1.418226 0.9920209 0.7967662
v 0.6125509 -0.02363247 1.035596
v 0.5539616 2.595859 -0.3462048
v 1.692003E-10 2.770736 0.03783647
v 1.024242 2.16606 -0.5749767
v 1.537629 1.599417 -0.003646789
v 1.337664 1.59594 -0.748185
v 1.638475 0.9890867 -0.01143628
v 1.41756 0.988902 -0.7954768
v 1.299134 0.3564904 0.7170042
v 1.484164 0.3389814 -0.02148847
v 1.306713 0.3224526 -0.732594
v 1.072134 -0.04647072 0.6695744
v 1.25392 -0.0389912 -0.024569
v 1.107258 -0.02762302 -0.5954343
v 0.3986973 -0.0479673 0.7612038
v 2.822377E-11 -0.02544411 0.005031337
v 0.7763991 -0.06025432 0.4642232
v 2.822377E-11 -0.02544411 0.005031337
v 0.8734112 -0.05218692 0.005576517
v 2.822377E-11 -0.02544411 0.005031337
v 0.7335723 -0.03616093 -0.4055595
v 2.822377E-11 -0.02544411 0.005031337
vt 0.08333334 0.125
vt 0.04166667 0
vt 0 0.125
vt 0.08333334 0.25
vt 0 0.25
vt 0.08333334 0.375
vt 0 0.375
vt 0.08333334 0.5
vt 0 0.5
vt 0.08333334 0.625
vt 0 0.625
vt 0.08333334 0.75
vt 0 0.75
vt 0.08333334 0.875
vt 0 0.875
vt 0.04166667 1
vt 0.1666667 0.875
vt 0.125 1
vt 0.1666667 0.75
vt 0.1666667 0.625
vt 0.1666667 0.5
vt 0.25 0.875
vt 0.2083333 1
vt 0.25 0.75
vt 0.1666667 0.375
vt 0.25 0.625
vt 0.3333333 0.875
vt 0.2916667 1
vt 0.3333333 0.75
vt 0.25 0.5
vt 0.1666667 0.25
vt 0.4166667 0.875
vt 0.375 1
vt 0.3333333 0.625
vt 0.25 0.375
vt 0.1666667 0.125
vt 0.125 0
vt 0.4166667 0.75
vt 0.3333333 0.5
vt 0.25 0.25
vt 0.5 0.875
vt 0.4583333 1
vt 0.4166667 0.625
vt 0.3333333 0.375
vt 0.25 0.125
vt 0.2083333 0
vt 0.5 0.75
vt 0.4166667 0.5
vt 0.3333333 0.25
vt 0.5833333 0.875
vt 0.5416667 1
vt 0.5 0.625
vt 0.4166667 0.375
vt 0.3333333 0.125
vt 0.2916667 0
vt 0.5833333 0.75
vt 0.5 0.5
vt 0.4166667 0.25
vt 0.6666666 0.875
vt 0.625 1
vt 0.5833333 0.625
vt 0.5 0.375
vt 0.4166667 0.125
vt 0.375 0
vt 0.6666666 0.75
vt 0.5833333 0.5
vt 0.5 0.25
vt 0.7499999 0.875
vt 0.7083334 1
vt 0.6666666 0.625
vt 0.5833333 0.375
vt 0.5 0.125
vt 0.4583333 0
vt 0.7499999 0.75
vt 0.6666666 0.5
vt 0.5833333 0.25
vt 0.8333333 0.875
vt 0.7916667 1
vt 0.7499999 0.625
vt 0.6666666 0.375
vt 0.5833333 0.125
vt 0.5416667 0
vt 0.8333333 0.75
vt 0.7499999 0.5
vt 0.6666666 0.25
vt 0.9166666 0.875
vt 0.875 1
vt 0.8333333 0.625
vt 0.7499999 0.375
vt 0.6666666 0.125
vt 0.625 0
vt 0.9166666 0.75
vt 0.8333333 0.5
vt 0.7499999 0.25
vt 0.9999999 0.875
vt 0.9583334 1
vt 0.9999999 0.75
vt 0.9166666 0.625
vt 0.9999999 0.625
vt 0.9166666 0.5
vt 0.9999999 0.5
vt 0.8333333 0.375
vt 0.9166666 0.375
vt 0.9999999 0.375
vt 0.8333333 0.25
vt 0.9166666 0.25
vt 0.9999999 0.25
vt 0.7499999 0.125
vt 0.7083334 0
vt 0.8333333 0.125
vt 0.7916667 0
vt 0.9166666 0.125
vt 0.875 0
vt 0.9999999 0.125
vt 0.9583334 0
vn 0.01861195 -0.9997227 -0.01443068
vn 2.318375E-05 -0.9999762 -0.006907432
vn 0.009355111 -0.999729 -0.02131613
vn 0.3076454 -0.7872558 -0.5343994
vn 0.5227257 -0.7911062 -0.3176616
vn 0.4727136 -0.3261514 -0.8186373
vn 0.8093032 -0.3277863 -0.4874265
vn 0.4924116 -0.01375097 -0.8702538
vn 0.8574454 -0.02515846 -0.5139595
vn 0.4540639 0.334809 -0.8256688
vn 0.8073675 0.3292959 -0.489614
vn 0.3750767 0.6211083 -0.6881438
vn 0.6670075 0.6214188 -0.4110226
vn 0.2536139 0.822132 -0.5096852
vn 0.4648812 0.8300043 -0.3081855
vn 0 0.9998186 -0.01904842
vn 0 0.8258342 -0.563913
vn 0 0.9998186 -0.01904842
vn 0 0.6257032 -0.7800612
vn 0 0.3389023 -0.9408216
vn 0 -0.01026208 -0.9999473
vn -0.253614 0.822132 -0.5096852
vn 0 0.9998186 -0.01904842
vn -0.3750768 0.6211084 -0.6881438
vn 0 -0.3284014 -0.9445382
vn -0.454064 0.3348091 -0.8256687
vn -0.4648812 0.8300044 -0.3081853
vn 0 0.9998186 -0.01904842
vn -0.6670076 0.6214187 -0.4110226
vn -0.4924116 -0.01375096 -0.8702538
vn -0.0003174877 -0.7887829 -0.6146718
vn -0.5424716 0.83982 -0.02066151
vn 0 0.9998186 -0.01904842
vn -0.8073676 0.3292959 -0.489614
vn -0.4727135 -0.3261515 -0.8186374
vn 0.0004433253 -0.9998839 -0.01523293
vn 2.318375E-05 -0.9999762 -0.006907432
vn -0.7836893 0.6209453 -0.01606472
vn -0.8574455 -0.02515835 -0.5139595
vn -0.3062106 -0.7894465 -0.5319862
vn -0.4624965 0.8505554 0.250305
vn 0 0.9998186 -0.01904842
vn -0.9443183 0.3290302 0.001473096
vn -0.8093031 -0.3277862 -0.4874265
vn -0.01831553 -0.9997322 -0.01414333
vn 2.318375E-05 -0.9999762 -0.006907432
vn -0.6859103 0.6197923 0.3812932
vn -0.9993479 -0.03609634 0.0008881257
vn -0.5227256 -0.7911062 -0.3176615
vn -0.282653 0.8359269 0.470461
vn 0 0.9998186 -0.01904842
vn -0.8194085 0.3165674 0.477865
vn -0.9448684 -0.3273772 0.006912532
vn -0.00935511 -0.999729 -0.02131612
vn 2.318375E-05 -0.9999762 -0.006907432
vn -0.4076917 0.6085289 0.6807937
vn -0.8692853 -0.03220345 0.4932607
vn -0.636418 -0.77127 0.01071094
vn 0 0.8544353 0.519558
vn 0 0.9998186 -0.01904842
vn -0.4894635 0.3247375 0.8093028
vn -0.8291912 -0.3278673 0.4527087
vn -0.006015696 -0.9997551 -0.02129975
vn 2.318375E-05 -0.9999762 -0.006907432
vn 0 0.6105018 0.7920148
vn -0.4827936 -0.04298315 0.8746787
vn -0.556608 -0.7560486 0.3443518
vn 0.282653 0.8359269 0.4704611
vn 0 0.9998186 -0.01904842
vn 0 0.3431515 0.9392801
vn -0.453919 -0.3399012 0.8236653
vn -0.002697521 -0.9999366 0.01093898
vn 2.318375E-05 -0.9999762 -0.006907432
vn 0.4076918 0.6085289 0.6807936
vn 0 -0.0006866592 0.9999998
vn -0.2796203 -0.7628023 0.5830482
vn 0.4624966 0.8505554 0.2503051
vn 0 0.9998186 -0.01904842
vn 0.4894635 0.3247376 0.8093027
vn 0 -0.3498548 0.9368039
vn -0.00364346 -0.9999107 0.01285643
vn 2.318375E-05 -0.9999762 -0.006907432
vn 0.6859104 0.6197924 0.3812931
vn 0.4827935 -0.04298317 0.8746787
vn 0 -0.7786136 0.6275038
vn 0.5424717 0.8398198 -0.0206616
vn 0 0.9998186 -0.01904842
vn 0.8194085 0.3165674 0.4778649
vn 0.4539191 -0.3399013 0.8236653
vn 0 -0.9999789 -0.006506745
vn 2.318375E-05 -0.9999762 -0.006907432
vn 0.7836891 0.6209453 -0.01606466
vn 0.8692853 -0.03220341 0.4932607
vn 0.2796203 -0.7628023 0.5830481
vn 0.4648812 0.8300043 -0.3081855
vn 0 0.9998186 -0.01904842
vn 0.6670075 0.6214188 -0.4110226
vn 0.9443183 0.3290302 0.001473169
vn 0.8073675 0.3292959 -0.489614
vn 0.9993479 -0.03609643 0.000888196
vn 0.8574454 -0.02515846 -0.5139595
vn 0.8291912 -0.3278673 0.4527087
vn 0.9448684 -0.3273772 0.006912571
vn 0.8093032 -0.3277863 -0.4874265
vn 0.556608 -0.7560486 0.3443518
vn 0.636418 -0.7712699 0.01071094
vn 0.5227257 -0.7911062 -0.3176616
vn 0.003643459 -0.9999107 0.01285643
vn 2.318375E-05 -0.9999762 -0.006907432
vn 0.002697524 -0.9999366 0.01093898
vn 2.318375E-05 -0.9999762 -0.006907432
vn 0.006015697 -0.9997551 -0.02129976
vn 2.318375E-05 -0.9999762 -0.006907432
vn 0.009355111 -0.999729 -0.02131613
vn 2.318375E-05 -0.9999762 -0.006907432
g ruinStatue01_COL_0
f 3/3/3 2/2/2 1/1/1
f 1/1/1 4/4/4 3/3/3
f 4/4/4 5/5/5 3/3/3
f 4/4/4 6/6/6 5/5/5
f 6/6/6 7/7/7 5/5/5
f 6/6/6 8/8/8 7/7/7
f 8/8/8 9/9/9 7/7/7
f 8/8/8 10/10/10 9/9/9
f 10/10/10 11/11/11 9/9/9
f 10/10/10 12/12/12 11/11/11
f 12/12/12 13/13/13 11/11/11
f 12/12/12 14/14/14 13/13/13
f 14/14/14 15/15/15 13/13/13
f 14/14/14 16/16/16 15/15/15
f 17/17/17 14/14/14 12/12/12
f 17/17/17 18/18/18 14/14/14
f 19/19/19 12/12/12 10/10/10
f 19/19/19 17/17/17 12/12/12
f 20/20/20 10/10/10 8/8/8
f 20/20/20 19/19/19 10/10/10
f 21/21/21 8/8/8 6/6/6
f 21/21/21 20/20/20 8/8/8
f 22/22/22 17/17/17 19/19/19
f 22/22/22 23/23/23 17/17/17
f 24/24/24 19/19/19 20/20/20
f 24/24/24 22/22/22 19/19/19
f 25/25/25 21/21/21 6/6/6
f 25/25/25 6/6/6 4/4/4
f 26/26/26 20/20/20 21/21/21
f 26/26/26 24/24/24 20/20/20
f 27/27/27 22/22/22 24/24/24
f 27/27/27 28/28/28 22/22/22
f 29/29/29 27/27/27 24/24/24
f 29/29/29 24/24/24 26/26/26
f 30/30/30 26/26/26 21/21/21
f 30/30/30 21/21/21 25/25/25
f 31/31/31 25/25/25 4/4/4
f 31/31/31 4/4/4 1/1/1
f 32/32/32 27/27/27 29/29/29
f 32/32/32 33/33/33 27/27/27
f 34/34/34 29/29/29 26/26/26
f 34/34/34 26/26/26 30/30/30
f 35/35/35 30/30/30 25/25/25
f 35/35/35 25/25/25 31/31/31
f 36/36/36 31/31/31 1/1/1
f 1/1/1 37/37/37 36/36/36
f 38/38/38 32/32/32 29/29/29
f 38/38/38 29/29/29 34/34/34
f 39/39/39 34/34/34 30/30/30
f 39/39/39 30/30/30 35/35/35
f 40/40/40 31/31/31 36/36/36
f 40/40/40 35/35/35 31/31/31
f 41/41/41 32/32/32 38/38/38
f 41/41/41 42/42/42 32/32/32
f 43/43/43 38/38/38 34/34/34
f 43/43/43 34/34/34 39/39/39
f 44/44/44 39/39/39 35/35/35
f 44/44/44 35/35/35 40/40/40
f 45/45/45 40/40/40 36/36/36
f 36/36/36 46/46/46 45/45/45
f 47/47/47 41/41/41 38/38/38
f 47/47/47 38/38/38 43/43/43
f 48/48/48 43/43/43 39/39/39
f 48/48/48 39/39/39 44/44/44
f 49/49/49 40/40/40 45/45/45
f 49/49/49 44/44/44 40/40/40
f 50/50/50 41/41/41 47/47/47
f 50/50/50 51/51/51 41/41/41
f 52/52/52 47/47/47 43/43/43
f 52/52/52 43/43/43 48/48/48
f 53/53/53 48/48/48 44/44/44
f 53/53/53 44/44/44 49/49/49
f 54/54/54 49/49/49 45/45/45
f 45/45/45 55/55/55 54/54/54
f 56/56/56 50/50/50 47/47/47
f 56/56/56 47/47/47 52/52/52
f 57/57/57 52/52/52 48/48/48
f 57/57/57 48/48/48 53/53/53
f 58/58/58 49/49/49 54/54/54
f 58/58/58 53/53/53 49/49/49
f 59/59/59 50/50/50 56/56/56
f 59/59/59 60/60/60 50/50/50
f 61/61/61 56/56/56 52/52/52
f 61/61/61 52/52/52 57/57/57
f 62/62/62 57/57/57 53/53/53
f 62/62/62 53/53/53 58/58/58
f 63/63/63 58/58/58 54/54/54
f 54/54/54 64/64/64 63/63/63
f 65/65/65 59/59/59 56/56/56
f 65/65/65 56/56/56 61/61/61
f 66/66/66 61/61/61 57/57/57
f 66/66/66 57/57/57 62/62/62
f 67/67/67 58/58/58 63/63/63
f 67/67/67 62/62/62 58/58/58
f 68/68/68 59/59/59 65/65/65
f 68/68/68 69/69/69 59/59/59
f 70/70/70 65/65/65 61/61/61
f 70/70/70 61/61/61 66/66/66
f 71/71/71 66/66/66 62/62/62
f 71/71/71 62/62/62 67/67/67
f 72/72/72 67/67/67 63/63/63
f 63/63/63 73/73/73 72/72/72
f 74/74/74 68/68/68 65/65/65
f 74/74/74 65/65/65 70/70/70
f 75/75/75 70/70/70 66/66/66
f 75/75/75 66/66/66 71/71/71
f 76/76/76 67/67/67 72/72/72
f 76/76/76 71/71/71 67/67/67
f 77/77/77 68/68/68 74/74/74
f 77/77/77 78/78/78 68/68/68
f 79/79/79 74/74/74 70/70/70
f 79/79/79 70/70/70 75/75/75
f 80/80/80 75/75/75 71/71/71
f 80/80/80 71/71/71 76/76/76
f 81/81/81 76/76/76 72/72/72
f 72/72/72 82/82/82 81/81/81
f 83/83/83 77/77/77 74/74/74
f 83/83/83 74/74/74 79/79/79
f 84/84/84 79/79/79 75/75/75
f 84/84/84 75/75/75 80/80/80
f 85/85/85 76/76/76 81/81/81
f 85/85/85 80/80/80 76/76/76
f 86/86/86 77/77/77 83/83/83
f 86/86/86 87/87/87 77/77/77
f 88/88/88 83/83/83 79/79/79
f 88/88/88 79/79/79 84/84/84
f 89/89/89 84/84/84 80/80/80
f 89/89/89 80/80/80 85/85/85
f 90/90/90 85/85/85 81/81/81
f 81/81/81 91/91/91 90/90/90
f 92/92/92 86/86/86 83/83/83
f 92/92/92 83/83/83 88/88/88
f 93/93/93 88/88/88 84/84/84
f 93/93/93 84/84/84 89/89/89
f 94/94/94 85/85/85 90/90/90
f 94/94/94 89/89/89 85/85/85
f 95/95/95 86/86/86 92/92/92
f 95/95/95 96/96/96 86/86/86
f 97/97/97 95/95/95 92/92/92
f 98/98/98 92/92/92 88/88/88
f 97/97/97 92/92/92 98/98/98
f 98/98/98 88/88/88 93/93/93
f 99/99/99 97/97/97 98/98/98
f 99/99/99 98/98/98 100/100/100
f 100/100/100 98/98/98 93/93/93
f 101/101/101 99/99/99 100/100/100
f 102/102/102 93/93/93 89/89/89
f 100/100/100 93/93/93 102/102/102
f 102/102/102 89/89/89 94/94/94
f 101/101/101 100/100/100 103/103/103
f 103/103/103 100/100/100 102/102/102
f 104/104/104 101/101/101 103/103/103
f 105/105/105 102/102/102 94/94/94
f 103/103/103 102/102/102 105/105/105
f 104/104/104 103/103/103 106/106/106
f 106/106/106 103/103/103 105/105/105
f 107/107/107 104/104/104 106/106/106
f 105/105/105 94/94/94 108/108/108
f 108/108/108 94/94/94 90/90/90
f 90/90/90 109/109/109 108/108/108
f 110/110/110 105/105/105 108/108/108
f 106/106/106 105/105/105 110/110/110
f 108/108/108 111/111/111 110/110/110
f 107/107/107 106/106/106 112/112/112
f 112/112/112 106/106/106 110/110/110
f 110/110/110 113/113/113 112/112/112
f 114/114/114 107/107/107 112/112/112
f 112/112/112 115/115/115 114/114/114
