g ruinWall01_COL
v 1.740008 0.006843651 0.8027805
v 6.509164 0 0.7628731
v 6.476917 2.273737E-15 -0.720358
v 1.740008 0.006843651 -0.8581222
v 6.428203 1.476808 -0.6790781
v -6.347293 0.01896736 -0.707061
v -6.347293 0.01896736 0.6517192
v -6.270898 1.237402 -0.7828839
v 1.669591 1.728357 -0.7413115
v 3.516901 5.991765 -0.9938868
v 1.764496 6.279307 -0.9094961
v 6.32239 6.220127 -0.7729294
v 6.32239 6.220127 0.7628731
v -4.514088 4.816866 -0.8710374
v -6.270898 1.237402 -0.7828839
v -6.308292 6.108059 -0.7544891
v -6.308292 6.108059 0.7639354
v 1.764496 6.279307 0.7628731
v 4.075913 2.850199 0.8131884
v 6.428203 1.476808 0.7296129
v 6.32239 6.220127 -0.7729294
v 6.428203 1.476808 -0.6790781
v 1.669591 1.728357 0.6859698
v 6.509164 0 0.7628731
v 6.476917 2.273737E-15 -0.720358
v 1.740008 0.006843651 0.8027805
v -6.347293 0.01896736 0.6517192
v -6.270898 1.237402 0.7275422
v -6.347293 0.01896736 -0.707061
v -6.270898 1.237402 -0.7828839
v -6.308292 6.108059 -0.7544891
vt 0.534797 1
vt 0.625 1
vt 0.625 0.75
vt 0.534797 0.75
vt 0.625 0.6580895
vt 0.375 0.75
vt 0.375 1
vt 0.375 0.6580895
vt 0.534797 0.6580895
vt 0.5778947 0.575533
vt 0.534797 0.5
vt 0.625 0.5
vt 0.625 0.25
vt 0.4573926 0.5765773
vt 0.375 0.6580895
vt 0.375 0.5
vt 0.375 0.25
vt 0.534797 0.25
vt 0.5778594 0.174529
vt 0.625 0.0919105
vt 0.875 0.25
vt 0.875 0.0919105
vt 0.534797 0.0919105
vt 0.625 0
vt 0.875 0
vt 0.534797 0
vt 0.375 0
vt 0.375 0.0919105
vt 0.125 0
vt 0.125 0.0919105
vt 0.125 0.25
vn -0.00388059 -0.7016609 0.7125003
vn 0.203407 -0.6754983 0.7087507
vn 0.2119733 -0.6816552 -0.7002953
vn 0.002333117 -0.6999308 -0.7142069
vn 0.5032511 0.01127556 -0.8640668
vn -0.115069 -0.725147 -0.6789116
vn -0.115069 -0.725147 0.6789116
vn -0.3659072 -0.001042297 -0.9306508
vn 0.00371251 -0.01247091 -0.9999154
vn 0.01855179 -0.002847459 -0.9998239
vn -0.01402522 0.7640152 -0.6450457
vn 0.6039839 0.6040621 -0.519916
vn 0.5679436 0.6006128 0.5627648
vn -0.01050907 -0.003317825 -0.9999393
vn -0.3659072 -0.001042297 -0.9306508
vn -0.4911928 0.8180003 -0.2993412
vn -0.1841844 0.3038658 0.9347414
vn -0.003296873 0.4134199 0.9105345
vn -0.005363842 -0.01845492 0.9998153
vn 0.5935213 0.03417812 0.8040922
vn 0.6039839 0.6040621 -0.519916
vn 0.5032511 0.01127556 -0.8640668
vn -0.002209909 -0.001887274 0.9999958
vn 0.203407 -0.6754983 0.7087507
vn 0.2119733 -0.6816552 -0.7002953
vn -0.00388059 -0.7016609 0.7125003
vn -0.115069 -0.725147 0.6789116
vn -0.1815301 -0.004260872 0.9833762
vn -0.115069 -0.725147 -0.6789116
vn -0.3659072 -0.001042297 -0.9306508
vn -0.4911928 0.8180003 -0.2993412
g ruinWall01_COL_0
f 3/3/3 2/2/2 1/1/1
f 4/4/4 3/3/3 1/1/1
f 5/5/5 3/3/3 4/4/4
f 4/4/4 1/1/1 6/6/6
f 1/1/1 7/7/7 6/6/6
f 4/4/4 6/6/6 8/8/8
f 9/9/9 4/4/4 8/8/8
f 9/9/9 5/5/5 4/4/4
f 10/10/10 5/5/5 9/9/9
f 11/11/11 10/10/10 9/9/9
f 10/10/10 12/12/12 5/5/5
f 10/10/10 11/11/11 12/12/12
f 13/13/13 12/12/12 11/11/11
f 14/14/14 11/11/11 9/9/9
f 14/14/14 9/9/9 15/15/15
f 14/14/14 15/15/15 16/16/16
f 11/11/11 14/14/14 16/16/16
f 11/11/11 16/16/16 17/17/17
f 18/18/18 13/13/13 11/11/11
f 18/18/18 11/11/11 17/17/17
f 19/19/19 13/13/13 18/18/18
f 19/19/19 20/20/20 13/13/13
f 21/21/21 13/13/13 20/20/20
f 22/22/22 21/21/21 20/20/20
f 23/23/23 19/19/19 18/18/18
f 23/23/23 20/20/20 19/19/19
f 22/22/22 20/20/20 24/24/24
f 24/24/24 20/20/20 23/23/23
f 25/25/25 22/22/22 24/24/24
f 26/26/26 24/24/24 23/23/23
f 26/26/26 23/23/23 27/27/27
f 23/23/23 18/18/18 28/28/28
f 23/23/23 28/28/28 27/27/27
f 18/18/18 17/17/17 28/28/28
f 27/27/27 28/28/28 29/29/29
f 28/28/28 30/30/30 29/29/29
f 28/28/28 17/17/17 30/30/30
f 17/17/17 31/31/31 30/30/30
