g ruinPath01_LOD1
v 0.5390946 0.07140479 1.370841
v -0.8501374 0.07267442 1.420166
v -0.9028582 0.07317095 0.7701803
v 0.5355378 0.07182137 0.7944916
v 0.9316459 0.05394815 0.6954046
v -1.395297 0.0867558 0.6838157
v -1.379609 0.06845897 -1.28015
v 0.9072135 0.05493374 -1.250389
v -1.516208 0.08290534 -1.454954
v -1.519651 0.07478236 -0.6084207
v -2.331336 0.07515841 -0.6108941
v -2.331335 0.08290638 -1.454955
v -2.986089 0.07081239 -0.4563196
v -1.467422 0.07147508 -0.4513879
v -1.473014 0.06067345 1.385755
v -2.975777 0.0574039 1.394549
v 1.641192 0.08581135 -1.507214
v 2.358569 0.08580857 -1.507214
v 2.358572 0.08581185 -0.9237972
v 1.641182 0.08581185 -0.9237974
v 1.386446 0.08581135 0.9169838
v 2.457181 0.08580857 0.9169838
v 2.457183 0.08581185 1.500401
v 1.386436 0.08581185 1.500401
v 2.953634 0.07776611 -0.8271386
v 2.993083 0.07776821 0.7825721
v 1.699312 0.06288713 0.8134785
v 1.647236 0.07776868 -0.7997156
v 1.547637 0.07085178 -1.286
v 1.547631 0.06244282 0.8256454
v 1.026485 0.06289677 0.8220465
v 1.019639 0.07172008 -1.288622
v -1.395265 0.08581135 0.7672921
v -0.9596976 0.08580857 0.7786963
v -0.959955 0.08581185 1.222746
v -1.395534 0.08581185 1.211342
vt 0.186836 0.553393
vt 0.1867735 0.6918435
vt 0.276601 0.691749
vt 0.2764175 0.553289
vt 0.322198 0.4036345
vt 0.0699725 0.402632
vt 0.071412 0.5423565
vt 0.3216215 0.543548
vt 0.635922 0.7561915
vt 0.7725135 0.7557091
vt 0.772662 0.665783
vt 0.636037 0.6652325
vt 0.412948 0.258884
vt 0.263941 0.2590425
vt 0.2651795 0.3948295
vt 0.4115595 0.3946165
vt 0.146606 0.06355999
vt 0.01 0.06355999
vt 0.01 0.142062
vt 0.146606 0.142062
vt 0.146606 0.06355999
vt 0.01 0.06355999
vt 0.01 0.142062
vt 0.146606 0.142062
vt 0.1699315 0.701836
vt 0.1711005 0.844615
vt 0.3246725 0.843726
vt 0.325504 0.7009965
vt 0.208583 0.2599355
vt 0.211306 0.3957195
vt 0.2651795 0.3948295
vt 0.263941 0.2590425
vt 0.146606 0.06355999
vt 0.01 0.06355999
vt 0.01 0.142062
vt 0.146606 0.142062
vn 0.08185578 0.9942588 -0.06891363
vn -0.08071749 0.9941386 0.07192529
vn -0.08312324 0.9940733 -0.07006208
vn 0.08188006 0.9942225 0.06940645
vn -0.0002735292 0.9972264 0.07442621
vn -0.0792338 0.9949 0.06241851
vn -0.08612178 0.9962309 -0.01034807
vn -0.000140283 0.9971349 -0.07564333
vn 0.1004008 0.9886755 -0.1115369
vn -0.09382085 0.9895675 0.1093334
vn 0.08985511 0.9895278 0.1129634
vn -0.1019411 0.9885649 -0.1111184
vn 0.002385156 0.996929 -0.07827515
vn 0.06595784 0.9960803 0.05893657
vn 0.07309967 0.994911 -0.06934323
vn -0.06540854 0.9954534 0.06923974
vn -0.1248589 0.9860161 -0.1103748
vn 0.1265358 0.9858743 0.1097298
vn 0.126709 0.9857692 -0.1104718
vn 1.279619E-06 0.993376 0.1149102
vn -0.1248589 0.9860161 -0.1103748
vn 0.1265358 0.9858743 0.1097298
vn 0.126709 0.9857692 -0.1104718
vn 1.279619E-06 0.993376 0.1149102
vn -0.0076856 0.9953421 0.09609874
vn 0.09773729 0.9907566 0.09406807
vn 0.0005324851 0.9953614 -0.09620494
vn 0.09943317 0.9905261 -0.0947161
vn 0.1102929 0.9909759 -0.07617284
vn -0.08940094 0.9934177 0.07161568
vn 0.09471424 0.9926641 0.07514847
vn -0.1092796 0.9908333 -0.0794187
vn -0.1248589 0.9860161 -0.1103748
vn 0.1265358 0.9858743 0.1097298
vn 0.126709 0.9857692 -0.1104718
vn 1.279619E-06 0.993376 0.1149102
g ruinPath01_LOD1_0
f 3/3/3 2/2/2 1/1/1
f 4/4/4 3/3/3 1/1/1
f 7/7/7 6/6/6 5/5/5
f 8/8/8 7/7/7 5/5/5
f 11/11/11 10/10/10 9/9/9
f 12/12/12 11/11/11 9/9/9
f 15/15/15 14/14/14 13/13/13
f 16/16/16 15/15/15 13/13/13
f 19/19/19 18/18/18 17/17/17
f 20/20/20 19/19/19 17/17/17
f 23/23/23 22/22/22 21/21/21
f 24/24/24 23/23/23 21/21/21
f 27/27/27 26/26/26 25/25/25
f 28/28/28 27/27/27 25/25/25
f 31/31/31 30/30/30 29/29/29
f 32/32/32 31/31/31 29/29/29
f 35/35/35 34/34/34 33/33/33
f 36/36/36 35/35/35 33/33/33
