g ruinArc01_COL
v -1.529613 4.707664 -0.5766717
v 0 4.949931 0.5766717
v 0 4.949931 -0.5766717
v -1.529613 4.707664 0.5766717
v -2.909496 4.004578 -0.5766717
v 0 8.249884 0.5766717
v -2.909496 4.004578 0.5766717
v -4.004579 2.909496 -0.5766717
v -2.549355 7.846106 0.5766717
v 0 8.249884 -0.5766717
v -4.004579 2.909496 0.5766717
v -4.707664 1.529613 -0.5766717
v -4.849161 6.674297 0.5766717
v -2.549355 7.846106 -0.5766717
v 0 4.949931 -0.5766717
v -1.529613 4.707664 -0.5766717
v -4.849161 6.674297 -0.5766717
v -2.909496 4.004578 -0.5766717
v -4.707664 1.529613 0.5766717
v -4.949931 7.878742E-16 -0.5766717
v -4.949931 -7.878742E-16 0.5766717
v -6.674297 4.849161 0.5766717
v -6.674297 4.849161 -0.5766717
v -4.004579 2.909496 -0.5766717
v -7.846107 2.549355 0.5766717
v -8.249886 -1.57354E-07 0.5766717
v -7.846107 2.549355 -0.5766717
v -4.707664 1.529613 -0.5766717
v -8.249886 -1.57354E-07 -0.5766717
v -4.949931 7.878742E-16 -0.5766717
v 0 8.249884 0.5766717
v 0 8.249884 -0.5766717
v 0 4.949931 -0.5766717
v 0 4.949931 0.5766717
v -8.249886 -1.57354E-07 -0.5766717
v -8.249886 -1.57354E-07 0.5766717
v -4.949931 -7.878742E-16 0.5766717
v -4.949931 7.878742E-16 -0.5766717
vt 0.3 1
vt 0.25 0.75
vt 0.25 1
vt 0.3 0.75
vt 0.35 1
vt 0.25 0.5
vt 0.35 0.75
vt 0.4 1
vt 0.3 0.5
vt 0.25 0.25
vt 0.4 0.75
vt 0.45 1
vt 0.35 0.5
vt 0.3 0.25
vt 0.25 0
vt 0.3 0
vt 0.35 0.25
vt 0.35 0
vt 0.45 0.75
vt 0.5000001 1
vt 0.5000001 0.75
vt 0.4 0.5
vt 0.4 0.25
vt 0.4 0
vt 0.45 0.5
vt 0.5000001 0.5
vt 0.45 0.25
vt 0.45 0
vt 0.5000001 0.25
vt 0.5000001 0
vt 0 1
vt 0 0
vt 0.4 0
vt 0.4 1
vt 0 0
vt 0 1
vt 0.4000002 1
vt 0.4000002 0
vn 0.07163222 -0.2204613 -0.9727619
vn 0.472971 -0.2042399 0.857079
vn 0.472971 -0.2042399 -0.857079
vn 0.07163221 -0.2204613 0.9727619
vn 0.1362526 -0.1875356 -0.9727619
vn 0.4444156 0.3911963 0.8058909
vn 0.1362526 -0.1875356 0.9727619
vn 0.1875355 -0.1362526 -0.9727619
vn -0.1349447 0.4153171 0.8996118
vn 0.4444157 0.3911963 -0.8058909
vn 0.1875355 -0.1362526 0.9727619
vn 0.2204612 -0.07163219 -0.972762
vn -0.2566801 0.3532899 0.8996118
vn -0.1349447 0.4153171 -0.8996118
vn 0.472971 -0.2042399 -0.857079
vn 0.07163222 -0.2204613 -0.9727619
vn -0.2566801 0.3532899 -0.8996118
vn 0.1362526 -0.1875356 -0.9727619
vn 0.2204612 -0.07163219 0.9727619
vn 0.2042397 -0.4729708 -0.8570792
vn 0.2042398 -0.472971 0.8570791
vn -0.3532898 0.2566802 0.8996119
vn -0.3532899 0.2566802 -0.8996118
vn 0.1875355 -0.1362526 -0.9727619
vn -0.4153171 0.1349448 0.8996118
vn -0.3911961 -0.4444157 0.8058911
vn -0.4153171 0.1349447 -0.8996118
vn 0.2204612 -0.07163219 -0.972762
vn -0.3911961 -0.4444157 -0.8058911
vn 0.2042397 -0.4729708 -0.8570792
vn 0.4444156 0.3911963 0.8058909
vn 0.4444157 0.3911963 -0.8058909
vn 0.472971 -0.2042399 -0.857079
vn 0.472971 -0.2042399 0.857079
vn -0.3911961 -0.4444157 -0.8058911
vn -0.3911961 -0.4444157 0.8058911
vn 0.2042398 -0.472971 0.8570791
vn 0.2042397 -0.4729708 -0.8570792
g ruinArc01_COL_0
f 3/3/3 2/2/2 1/1/1
f 2/2/2 4/4/4 1/1/1
f 1/1/1 4/4/4 5/5/5
f 2/2/2 6/6/6 4/4/4
f 4/4/4 7/7/7 5/5/5
f 5/5/5 7/7/7 8/8/8
f 6/6/6 9/9/9 4/4/4
f 4/4/4 9/9/9 7/7/7
f 6/6/6 10/10/10 9/9/9
f 7/7/7 11/11/11 8/8/8
f 8/8/8 11/11/11 12/12/12
f 9/9/9 13/13/13 7/7/7
f 7/7/7 13/13/13 11/11/11
f 10/10/10 14/14/14 9/9/9
f 9/9/9 14/14/14 13/13/13
f 10/10/10 15/15/15 14/14/14
f 15/15/15 16/16/16 14/14/14
f 14/14/14 16/16/16 17/17/17
f 14/14/14 17/17/17 13/13/13
f 16/16/16 18/18/18 17/17/17
f 11/11/11 19/19/19 12/12/12
f 12/12/12 19/19/19 20/20/20
f 19/19/19 21/21/21 20/20/20
f 13/13/13 22/22/22 11/11/11
f 13/13/13 17/17/17 22/22/22
f 11/11/11 22/22/22 19/19/19
f 17/17/17 18/18/18 23/23/23
f 17/17/17 23/23/23 22/22/22
f 18/18/18 24/24/24 23/23/23
f 19/19/19 25/25/25 21/21/21
f 22/22/22 25/25/25 19/19/19
f 22/22/22 23/23/23 25/25/25
f 25/25/25 26/26/26 21/21/21
f 23/23/23 24/24/24 27/27/27
f 23/23/23 27/27/27 25/25/25
f 25/25/25 27/27/27 26/26/26
f 24/24/24 28/28/28 27/27/27
f 27/27/27 29/29/29 26/26/26
f 27/27/27 28/28/28 29/29/29
f 28/28/28 30/30/30 29/29/29
f 33/33/33 32/32/32 31/31/31
f 34/34/34 33/33/33 31/31/31
f 37/37/37 36/36/36 35/35/35
f 38/38/38 37/37/37 35/35/35
