g ruinCeiling01_LOD1
v -5.417119 -2.048956 5.417119
v 0 -2.837421 5.359809
v -5.230996 -2.469743 5.230996
v 0 -2.351675 5.544102
v 5.320418 -2.565309 5.306293
v 5.499692 -2.097134 5.486528
v 5.499692 6.103515E-07 5.488144
v 0 -4.577637E-07 5.544298
v -5.417119 3.051758E-07 5.417119
v -5.417119 -2.031456 -5.372597
v -0.005700607 0 -5.364784
v -5.417119 3.051758E-07 -5.372597
v -0.03196129 -2.156029 -5.364856
v -5.230996 -2.45496 -5.21806
v 5.266365 3.051758E-07 -5.417119
v -0.03215923 -2.615122 -5.190578
v 5.266365 -1.990623 -5.417119
v 5.080242 -2.407305 -5.230996
v -5.438966 -2.682838 0
v -0.03215923 -2.615122 -5.190578
v -5.230996 -2.45496 -5.21806
v -0.02096092 -3.044245 0
v -5.230996 -2.469743 5.230996
v 5.080242 -2.407305 -5.230996
v 0 -2.837421 5.359809
v 5.25247 -2.538898 0
v 5.320418 -2.565309 5.306293
v 5.266365 -1.990623 -5.417119
v 5.080242 -2.407305 -5.230996
v 5.25247 -2.538898 0
v 5.454062 -2.086416 0
v 5.266365 3.051758E-07 -5.417119
v 5.320418 -2.565309 5.306293
v 5.454062 1.525879E-07 0
v 5.499692 -2.097134 5.486528
v 5.499692 6.103515E-07 5.488144
v -5.417119 -2.031456 -5.372597
v -5.438966 -2.682838 0
v -5.230996 -2.45496 -5.21806
v -5.657958 -2.188117 0
v -5.230996 -2.469743 5.230996
v -5.417119 -2.048956 5.417119
v -5.417119 3.051758E-07 5.417119
v -5.657958 0 0
v -5.417119 3.051758E-07 -5.372597
vt 0.1176811 0.5000414
vt 0.03030589 -0.1974773
vt 0.06601197 0.4760759
vt 0.08958866 -0.1974773
vt 0.0364362 -0.8825445
vt 0.09671938 -0.9056282
vt 0.3865426 -0.9056282
vt 0.38029 -0.1974773
vt 0.3886967 0.5000414
vt -0.03994438 1.903084
vt -0.3132293 1.206299
vt -0.3205179 1.903084
vt -0.01585056 1.20968
vt 0.01458675 1.879118
vt -0.3126303 0.5274575
vt 0.04331847 1.209706
vt -0.01439217 0.5274575
vt 0.04446453 0.5514231
vt 1.117387 1.905628
vt 0.4490376 1.209438
vt 0.4454991 1.87885
vt 1.117387 1.207996
vt 1.79094 1.87885
vt 0.4438333 0.5511551
vt 1.807526 1.205297
vt 1.117387 0.5289787
vt 1.800635 0.5202295
vt 0.469799 -0.9056282
vt 0.4109423 -0.8816627
vt 0.4223348 -0.2081095
vt 0.4807248 -0.2081095
vt 0.7680371 -0.9056282
vt 0.4266113 0.4751391
vt 0.7719536 -0.2081095
vt 0.4868944 0.4983465
vt 0.7767176 0.4985544
vt 0.1416954 1.900071
vt 0.06993029 1.208286
vt 0.08716416 1.880173
vt 0.1291686 1.208286
vt 0.1025311 0.5347323
vt 0.1542002 0.5107668
vt 0.4252159 0.5107668
vt 0.4159286 1.208286
vt 0.422269 1.900071
vn -0.6839781 -0.07672694 0.7254564
vn 0.001970365 -0.9939656 0.1096751
vn -0.1597154 -0.9778265 0.135449
vn -0.006799184 -0.07179658 0.9973961
vn 0.1658582 -0.9793943 0.1152302
vn 0.6841353 -0.07810278 0.7251614
vn 0.6908743 -0.0002944716 0.722975
vn -0.006335704 -0.0002282113 0.99998
vn -0.6871465 -3.101769E-05 0.7265188
vn -0.6955503 -0.07758933 -0.7142757
vn -0.004183608 4.382245E-05 -0.9999913
vn -0.691884 5.640859E-06 -0.7220085
vn -0.003439191 -0.06888751 -0.9976185
vn -0.1387803 -0.9777679 -0.1571939
vn 0.6941348 5.567481E-05 -0.719845
vn 0.008715509 -0.9907575 -0.135365
vn 0.6913648 -0.07953547 -0.7181148
vn 0.1558282 -0.9767685 -0.1471088
vn -0.1395679 -0.9901572 -0.01046509
vn 0.008715509 -0.9907575 -0.135365
vn -0.1387803 -0.9777679 -0.1571939
vn 0.005591307 -0.9998769 -0.01466736
vn -0.1597154 -0.9778265 0.135449
vn 0.1558282 -0.9767685 -0.1471088
vn 0.001970365 -0.9939656 0.1096751
vn 0.1503651 -0.9884385 -0.01948328
vn 0.1658582 -0.9793943 0.1152302
vn 0.6913648 -0.07953547 -0.7181148
vn 0.1558282 -0.9767685 -0.1471088
vn 0.1503651 -0.9884385 -0.01948328
vn 0.9968632 -0.07598654 -0.02213058
vn 0.6941348 5.567481E-05 -0.719845
vn 0.1658582 -0.9793943 0.1152302
vn 0.9997748 1.664724E-06 -0.02122287
vn 0.6841353 -0.07810278 0.7251614
vn 0.6908743 -0.0002944716 0.722975
vn -0.6955503 -0.07758933 -0.7142757
vn -0.1395679 -0.9901572 -0.01046509
vn -0.1387803 -0.9777679 -0.1571939
vn -0.9967651 -0.08037028 -2.435707E-05
vn -0.1597154 -0.9778265 0.135449
vn -0.6839781 -0.07672694 0.7254564
vn -0.6871465 -3.101769E-05 0.7265188
vn -1 0 9.237973E-05
vn -0.691884 5.640859E-06 -0.7220085
g ruinCeiling01_LOD1_0
f 3/3/3 2/2/2 1/1/1
f 2/2/2 4/4/4 1/1/1
f 2/2/2 5/5/5 4/4/4
f 5/5/5 6/6/6 4/4/4
f 4/4/4 6/6/6 7/7/7
f 8/8/8 4/4/4 7/7/7
f 1/1/1 4/4/4 8/8/8
f 9/9/9 1/1/1 8/8/8
f 12/12/12 11/11/11 10/10/10
f 11/11/11 13/13/13 10/10/10
f 10/10/10 13/13/13 14/14/14
f 11/11/11 15/15/15 13/13/13
f 13/13/13 16/16/16 14/14/14
f 15/15/15 17/17/17 13/13/13
f 13/13/13 17/17/17 16/16/16
f 17/17/17 18/18/18 16/16/16
f 21/21/21 20/20/20 19/19/19
f 20/20/20 22/22/22 19/19/19
f 19/19/19 22/22/22 23/23/23
f 20/20/20 24/24/24 22/22/22
f 22/22/22 25/25/25 23/23/23
f 24/24/24 26/26/26 22/22/22
f 22/22/22 26/26/26 25/25/25
f 26/26/26 27/27/27 25/25/25
f 30/30/30 29/29/29 28/28/28
f 31/31/31 30/30/30 28/28/28
f 31/31/31 28/28/28 32/32/32
f 33/33/33 30/30/30 31/31/31
f 34/34/34 31/31/31 32/32/32
f 35/35/35 33/33/33 31/31/31
f 35/35/35 31/31/31 34/34/34
f 36/36/36 35/35/35 34/34/34
f 39/39/39 38/38/38 37/37/37
f 38/38/38 40/40/40 37/37/37
f 38/38/38 41/41/41 40/40/40
f 41/41/41 42/42/42 40/40/40
f 40/40/40 42/42/42 43/43/43
f 44/44/44 40/40/40 43/43/43
f 37/37/37 40/40/40 44/44/44
f 45/45/45 37/37/37 44/44/44
