g ruinLightLamp
v 0.6123724 0.3535534 -0.7071068
v 0.8001031 0.4619397 -0.3826834
v 0.4619397 0.8001031 -0.3826834
v 0.3535534 0.6123724 -0.7071068
v 0.3314136 0.1913417 -0.9238794
v 0 0.9238794 -0.3826834
v 0.1913417 0.3314136 -0.9238794
v 0 0 -1
v 0 0.7071068 -0.7071068
v -0.4619397 0.8001031 -0.3826834
v 0 0.3826835 -0.9238794
v 0 0 -1
v -0.3535534 0.6123724 -0.7071068
v -0.8001031 0.4619397 -0.3826834
v -0.1913417 0.3314136 -0.9238794
v 0 0 -1
v -0.6123724 0.3535534 -0.7071068
v -0.9238794 0 -0.3826834
v -0.3314136 0.1913417 -0.9238794
v 0 0 -1
v -0.7071068 0 -0.7071068
v -0.8001031 -0.4619397 -0.3826834
v -0.6123724 -0.3535534 -0.7071068
v -0.3826834 0 -0.9238794
v 0 0 -1
v -0.3314136 -0.1913417 -0.9238794
v 0 0 -1
v -0.6123724 -0.3535534 -0.7071068
v -0.8001031 -0.4619397 -0.3826834
v -0.4619397 -0.8001031 -0.3826834
v -0.3535534 -0.6123724 -0.7071068
v -0.3314136 -0.1913417 -0.9238794
v 0 -0.9238794 -0.3826833
v -0.1913417 -0.3314136 -0.9238794
v 0 0 -1
v 0 -0.7071068 -0.7071068
v 0.4619397 -0.8001031 -0.3826834
v 0 -0.3826834 -0.9238795
v 0 0 -1
v 0.3535534 -0.6123724 -0.7071068
v 0.8001031 -0.4619397 -0.3826834
v 0.1913417 -0.3314136 -0.9238794
v 0 0 -1
v 0.6123724 -0.3535534 -0.7071068
v 0.9238794 0 -0.3826834
v 0.3314136 -0.1913417 -0.9238794
v 0 0 -1
v 0.7071068 0 -0.7071068
v 0.8001031 0.4619397 -0.3826834
v 0.6123724 0.3535534 -0.7071068
v 0.3826834 0 -0.9238794
v 0 0 -1
v 0.3314136 0.1913417 -0.9238794
v 0 0 -1
v 0.7813318 0.4511022 0.4018311
v 0.4639846 0.8036448 0.3621229
v 0.8036448 0.4639846 0.3621229
v 0.4511022 0.7813318 0.401831
v 0 0.9279692 0.362123
v 0.3623534 0.6276144 0.401831
v 0.6276144 0.3623534 0.401831
v 0.600135 0.3464881 0.3725487
v 0.3464881 0.600135 0.3725487
v 0 0.7247067 0.401831
v 0 0.6929762 0.3725487
v 0 0.9022043 0.4018311
v -0.4639846 0.8036448 0.3621229
v -0.3623534 0.6276144 0.401831
v -0.3464881 0.600135 0.3725487
v -0.4511022 0.7813318 0.401831
v -0.8036448 0.4639846 0.3621229
v -0.6276144 0.3623534 0.401831
v -0.600135 0.3464881 0.3725487
v -0.7813318 0.4511022 0.4018311
v -0.9279692 0 0.3621229
v -0.7247067 0 0.4018311
v -0.6929762 0 0.3725487
v -0.9022043 0 0.4018311
v -0.8036448 -0.4639845 0.3621229
v -0.7813318 -0.4511022 0.4018311
v -0.6276144 -0.3623533 0.4018311
v -0.600135 -0.3464881 0.3725487
v -0.7813318 -0.4511022 0.4018311
v -0.4639846 -0.8036448 0.3621229
v -0.8036448 -0.4639845 0.3621229
v -0.4511022 -0.7813318 0.4018311
v 0 -0.9279692 0.3621229
v -0.3623534 -0.6276144 0.4018311
v -0.6276144 -0.3623533 0.4018311
v -0.600135 -0.3464881 0.3725487
v -0.3464881 -0.600135 0.3725487
v 0 -0.7247067 0.4018311
v 0 -0.6929762 0.3725487
v 0 -0.9022044 0.4018311
v 0.4639846 -0.8036448 0.3621229
v 0.3623534 -0.6276144 0.4018311
v 0.3464881 -0.600135 0.3725487
v 0.4511022 -0.7813318 0.4018311
v 0.8036448 -0.4639845 0.3621229
v 0.6276144 -0.3623533 0.4018311
v 0.600135 -0.3464881 0.3725487
v 0.7813318 -0.4511022 0.4018311
v 0.9279692 0 0.3621229
v 0.7247067 0 0.4018311
v 0.6929762 0 0.3725487
v 0.9022043 0 0.4018311
v 0.8036448 0.4639846 0.3621229
v 0.7813318 0.4511022 0.4018311
v 0.6276144 0.3623534 0.401831
v 0.600135 0.3464881 0.3725487
v 0.600135 0.3464881 0.3725487
v 0 0 -0.1244657
v 0.3464881 0.600135 0.3725487
v 0 0.6929762 0.3725487
v -0.3464881 0.600135 0.3725487
v -0.600135 0.3464881 0.3725487
v -0.6929762 0 0.3725487
v -0.600135 -0.3464881 0.3725487
v -0.600135 -0.3464881 0.3725487
v 0 0 -0.1244657
v -0.3464881 -0.600135 0.3725487
v 0 -0.6929762 0.3725487
v 0.3464881 -0.600135 0.3725487
v 0.600135 -0.3464881 0.3725487
v 0.6929762 0 0.3725487
v 0.600135 0.3464881 0.3725487
v -0.9238794 0 -0.3826834
v -0.8597879 -0.4963988 -0.03620869
v -0.8001031 -0.4619397 -0.3826834
v -0.9927976 0 -0.03620867
v -0.8001031 0.4619397 -0.3826834
v -0.9927976 0 0.03620867
v -0.8597879 -0.4963988 0.03620869
v -0.8036448 -0.4639845 0.3621229
v -0.9279692 0 0.3621229
v -0.8597879 0.4963988 0.03620869
v -0.8036448 0.4639846 0.3621229
v -0.8597879 0.4963988 -0.03620869
v -0.4619397 0.8001031 -0.3826834
v -0.4963988 0.8597879 0.03620865
v -0.4639846 0.8036448 0.3621229
v -0.4963988 0.8597879 -0.03620865
v 0 0.9238794 -0.3826834
v 0 0.9927976 0.03620865
v 0 0.9279692 0.362123
v 0 0.9927976 -0.03620865
v 0.4619397 0.8001031 -0.3826834
v 0.4963988 0.8597879 0.03620865
v 0.4639846 0.8036448 0.3621229
v 0.4963988 0.8597879 -0.03620865
v 0.8001031 0.4619397 -0.3826834
v 0.8597879 0.4963988 -0.03620869
v 0.8597879 0.4963988 0.03620869
v 0.8036448 0.4639846 0.3621229
v 0.9238794 0 -0.3826834
v 0.8597879 0.4963988 -0.03620869
v 0.8001031 0.4619397 -0.3826834
v 0.9927976 0 -0.03620867
v 0.8001031 -0.4619397 -0.3826834
v 0.9927976 0 0.03620867
v 0.8597879 0.4963988 0.03620869
v 0.8036448 0.4639846 0.3621229
v 0.9279692 0 0.3621229
v 0.8597879 -0.4963988 0.03620869
v 0.8036448 -0.4639845 0.3621229
v 0.8597879 -0.4963988 -0.03620869
v 0.4619397 -0.8001031 -0.3826834
v 0.4963988 -0.8597879 0.03620865
v 0.4639846 -0.8036448 0.3621229
v 0.4963988 -0.8597879 -0.03620865
v 0 -0.9238794 -0.3826833
v 0 -0.9927976 0.03620865
v 0 -0.9279692 0.3621229
v -7.928243E-18 -0.9927976 -0.03620865
v -0.4619397 -0.8001031 -0.3826834
v -0.4963988 -0.8597879 0.03620865
v -0.4639846 -0.8036448 0.3621229
v -0.4963988 -0.8597879 -0.03620865
v -0.8001031 -0.4619397 -0.3826834
v -0.8597879 -0.4963988 -0.03620869
v -0.8597879 -0.4963988 0.03620869
v -0.8036448 -0.4639845 0.3621229
vt 0.7733461 0.2926547
vt 0.7733461 0.2587894
vt 0.7520999 0.2587894
vt 0.7520999 0.2926547
vt 0.7733461 0.3401871
vt 0.7308537 0.2587894
vt 0.7520999 0.3401871
vt 0.7082762 0.3859202
vt 0.7308537 0.2926547
vt 0.7096075 0.2587894
vt 0.7308537 0.3401871
vt 0.7082737 0.3859202
vt 0.7096075 0.2926547
vt 0.6883612 0.2587894
vt 0.7096075 0.3401871
vt 0.7082712 0.3859202
vt 0.6883613 0.2926547
vt 0.667115 0.2587894
vt 0.6883613 0.3401871
vt 0.7082687 0.3859202
vt 0.667115 0.2926547
vt 0.6458688 0.2587894
vt 0.6458689 0.2926547
vt 0.667115 0.3401871
vt 0.7082662 0.3859202
vt 0.6458689 0.3401871
vt 0.7082637 0.3859202
vt 0.6460797 0.2926547
vt 0.6460798 0.2587894
vt 0.667326 0.2587894
vt 0.667326 0.2926547
vt 0.6460797 0.3401871
vt 0.688572 0.2587894
vt 0.6673259 0.3401871
vt 0.7084744 0.3859202
vt 0.688572 0.2926547
vt 0.7098185 0.2587894
vt 0.688572 0.3401871
vt 0.708477 0.3859202
vt 0.7098185 0.2926547
vt 0.7310647 0.2587894
vt 0.7098185 0.3401871
vt 0.7084793 0.3859202
vt 0.7310647 0.2926547
vt 0.752311 0.2587894
vt 0.7310647 0.3401872
vt 0.7084819 0.3859202
vt 0.7523109 0.2926547
vt 0.7735572 0.2587894
vt 0.7735572 0.2926547
vt 0.7523109 0.3401871
vt 0.7084845 0.3859202
vt 0.7735571 0.3401871
vt 0.7084869 0.3859202
vt 0.7733461 0.156804
vt 0.7520999 0.1623572
vt 0.7733461 0.1623572
vt 0.7520999 0.156804
vt 0.7308534 0.1623572
vt 0.7520999 0.1491848
vt 0.7733461 0.1491848
vt 0.7707989 0.1451832
vt 0.7499771 0.1451833
vt 0.7308537 0.1491848
vt 0.7291555 0.1451833
vt 0.7308537 0.1568041
vt 0.7096072 0.1623572
vt 0.7096075 0.1491848
vt 0.7083339 0.1451832
vt 0.7096075 0.156804
vt 0.6883613 0.1623572
vt 0.6883612 0.1491848
vt 0.687512 0.1451833
vt 0.6883612 0.156804
vt 0.667115 0.1623572
vt 0.6671151 0.1491848
vt 0.6666905 0.1451833
vt 0.667115 0.1568041
vt 0.6458689 0.1623572
vt 0.6458688 0.156804
vt 0.6458688 0.1491848
vt 0.6458689 0.1451832
vt 0.6460798 0.156804
vt 0.6673261 0.1623572
vt 0.6460797 0.1623572
vt 0.6673259 0.156804
vt 0.688572 0.1623572
vt 0.6673259 0.1491848
vt 0.6460798 0.1491848
vt 0.6460797 0.1451832
vt 0.6669015 0.1451833
vt 0.6885722 0.1491848
vt 0.687723 0.1451833
vt 0.688572 0.1568041
vt 0.7098185 0.1623572
vt 0.7098185 0.1491848
vt 0.7085446 0.1451832
vt 0.7098185 0.1568041
vt 0.7310647 0.1623572
vt 0.7310647 0.1491848
vt 0.7293664 0.1451833
vt 0.7310647 0.156804
vt 0.7523109 0.1623572
vt 0.7523111 0.1491848
vt 0.750188 0.1451833
vt 0.752311 0.1568041
vt 0.7735571 0.1623572
vt 0.7735571 0.1568041
vt 0.7735571 0.1491848
vt 0.7710096 0.1451832
vt 0.7707989 0.1451832
vt 0.6458689 0.2282515
vt 0.7499771 0.1451833
vt 0.7291555 0.1451833
vt 0.7083339 0.1451832
vt 0.687512 0.1451833
vt 0.6666905 0.1451833
vt 0.6458689 0.1451832
vt 0.6460797 0.1451832
vt 0.6460797 0.2282515
vt 0.6669015 0.1451833
vt 0.687723 0.1451833
vt 0.7085446 0.1451832
vt 0.7293664 0.1451833
vt 0.750188 0.1451833
vt 0.7710096 0.1451832
vt 0.667115 0.2587894
vt 0.6458689 0.2198957
vt 0.6458688 0.2587894
vt 0.6671151 0.2198957
vt 0.6883612 0.2587894
vt 0.6671151 0.2106763
vt 0.6458689 0.2106763
vt 0.6458689 0.1623572
vt 0.667115 0.1623572
vt 0.6883613 0.2106763
vt 0.6883613 0.1623572
vt 0.6883613 0.2198957
vt 0.7096075 0.2587894
vt 0.7096075 0.2106763
vt 0.7096072 0.1623572
vt 0.7096075 0.2198957
vt 0.7308537 0.2587894
vt 0.7308537 0.2106763
vt 0.7308534 0.1623572
vt 0.7308537 0.2198957
vt 0.7520999 0.2587894
vt 0.7520999 0.2106762
vt 0.7520999 0.1623572
vt 0.7520999 0.2198957
vt 0.7733461 0.2587894
vt 0.7733461 0.2198957
vt 0.7733461 0.2106762
vt 0.7733461 0.1623572
vt 0.752311 0.2587894
vt 0.7735571 0.2198957
vt 0.7735572 0.2587894
vt 0.7523109 0.2198957
vt 0.7310647 0.2587894
vt 0.7523109 0.2106762
vt 0.7735571 0.2106763
vt 0.7735571 0.1623572
vt 0.7523109 0.1623572
vt 0.7310647 0.2106762
vt 0.7310647 0.1623572
vt 0.7310647 0.2198957
vt 0.7098185 0.2587894
vt 0.7098185 0.2106763
vt 0.7098185 0.1623572
vt 0.7098185 0.2198957
vt 0.688572 0.2587894
vt 0.688572 0.2106762
vt 0.688572 0.1623572
vt 0.6885722 0.2198956
vt 0.667326 0.2587894
vt 0.6673259 0.2106763
vt 0.6673261 0.1623572
vt 0.6673259 0.2198957
vt 0.6460798 0.2587894
vt 0.6460797 0.2198957
vt 0.6460797 0.2106763
vt 0.6460797 0.1623572
vn 0.6488279 0.374601 -0.6623417
vn 0.8062045 0.4654624 -0.365211
vn 0.4654624 0.8062045 -0.365211
vn 0.374601 0.6488279 -0.6623417
vn 0.4223619 0.2438508 -0.8730103
vn 0 0.9309248 -0.365211
vn 0.2438509 0.4223621 -0.8730103
vn 0 0 -1
vn 0 0.7492021 -0.6623416
vn -0.4654624 0.8062045 -0.365211
vn 0 0.4877018 -0.8730103
vn 0 0 -1
vn -0.374601 0.6488279 -0.6623417
vn -0.8062045 0.4654624 -0.365211
vn -0.243851 0.4223621 -0.8730103
vn 0 0 -1
vn -0.6488279 0.374601 -0.6623417
vn -0.9309248 0 -0.365211
vn -0.422362 0.2438508 -0.8730103
vn 0 0 -1
vn -0.749202 0 -0.6623417
vn -0.8062045 -0.4654624 -0.365211
vn -0.6488279 -0.374601 -0.6623417
vn -0.4877017 0 -0.8730103
vn 0 0 -1
vn -0.4223619 -0.2438508 -0.8730103
vn 0 0 -1
vn -0.6488279 -0.374601 -0.6623417
vn -0.8062045 -0.4654624 -0.365211
vn -0.4654624 -0.8062045 -0.365211
vn -0.3746009 -0.6488279 -0.6623417
vn -0.4223619 -0.2438508 -0.8730103
vn 0 -0.9309248 -0.365211
vn -0.2438509 -0.4223621 -0.8730103
vn 0 0 -1
vn 0 -0.749202 -0.6623417
vn 0.4654624 -0.8062045 -0.365211
vn 0 -0.4877017 -0.8730103
vn 0 0 -1
vn 0.3746009 -0.6488279 -0.6623417
vn 0.8062045 -0.4654623 -0.365211
vn 0.243851 -0.422362 -0.8730103
vn 0 0 -1
vn 0.6488279 -0.374601 -0.6623417
vn 0.9309248 0 -0.365211
vn 0.422362 -0.2438508 -0.8730103
vn 0 0 -1
vn 0.749202 0 -0.6623417
vn 0.8062045 0.4654624 -0.365211
vn 0.6488279 0.374601 -0.6623417
vn 0.4877017 0 -0.8730103
vn 0 0 -1
vn 0.4223619 0.2438508 -0.8730103
vn 0 0 -1
vn 0.2267065 0.1308891 0.9651281
vn 0.4861175 0.8419803 0.2340063
vn 0.8419803 0.4861175 0.2340064
vn 0.1308891 0.2267065 0.9651281
vn 0 0.9722351 0.2340064
vn -0.04820037 -0.08348563 0.9953426
vn -0.08348566 -0.0482004 0.9953426
vn -0.5149195 -0.297289 0.804038
vn -0.2972888 -0.5149196 0.804038
vn 0 -0.09640095 0.9953426
vn 0 -0.5945778 0.804038
vn 0 0.261778 0.9651281
vn -0.4861175 0.8419803 0.2340064
vn 0.04820035 -0.08348566 0.9953426
vn 0.2972889 -0.5149196 0.804038
vn -0.1308892 0.2267065 0.965128
vn -0.8419803 0.4861175 0.2340064
vn 0.08348565 -0.04820041 0.9953426
vn 0.5149195 -0.297289 0.804038
vn -0.2267065 0.1308891 0.965128
vn -0.972235 0 0.2340064
vn 0.09640094 0 0.9953426
vn 0.594578 0 0.804038
vn -0.2617781 0 0.9651281
vn -0.8419803 -0.4861175 0.2340065
vn -0.2267065 -0.1308891 0.9651281
vn 0.0834856 0.04820045 0.9953426
vn 0.5149196 0.297289 0.8040379
vn -0.2267065 -0.1308891 0.9651281
vn -0.4861175 -0.8419803 0.2340065
vn -0.8419803 -0.4861175 0.2340065
vn -0.130889 -0.2267064 0.9651281
vn 0 -0.9722351 0.2340064
vn 0.04820047 0.08348563 0.9953426
vn 0.0834856 0.04820045 0.9953426
vn 0.5149196 0.297289 0.8040379
vn 0.297289 0.5149198 0.8040379
vn 0 0.09640085 0.9953426
vn 0 0.594578 0.804038
vn 0 -0.2617782 0.965128
vn 0.4861175 -0.8419803 0.2340065
vn -0.04820049 0.08348563 0.9953426
vn -0.297289 0.5149197 0.8040379
vn 0.130889 -0.2267065 0.9651281
vn 0.8419803 -0.4861174 0.2340066
vn -0.08348563 0.04820045 0.9953426
vn -0.5149196 0.297289 0.804038
vn 0.2267065 -0.1308891 0.9651281
vn 0.972235 0 0.2340064
vn -0.09640098 0 0.9953426
vn -0.594578 0 0.804038
vn 0.2617781 0 0.9651281
vn 0.8419803 0.4861175 0.2340064
vn 0.2267065 0.1308891 0.9651281
vn -0.08348566 -0.0482004 0.9953426
vn -0.5149195 -0.297289 0.804038
vn -0.5149195 -0.297289 0.804038
vn 0 0 1
vn -0.2972888 -0.5149196 0.804038
vn 0 -0.5945778 0.804038
vn 0.2972889 -0.5149196 0.804038
vn 0.5149195 -0.297289 0.804038
vn 0.594578 0 0.804038
vn 0.5149196 0.297289 0.8040379
vn 0.5149196 0.297289 0.8040379
vn 0 0 1
vn 0.297289 0.5149198 0.8040379
vn 0 0.594578 0.804038
vn -0.297289 0.5149197 0.8040379
vn -0.5149196 0.297289 0.804038
vn -0.594578 0 0.804038
vn -0.5149195 -0.297289 0.804038
vn -0.9309248 0 -0.365211
vn -0.8548064 -0.4935226 -0.1604414
vn -0.8062045 -0.4654624 -0.365211
vn -0.9870453 0 -0.1604414
vn -0.8062045 0.4654624 -0.365211
vn -0.9873233 0 0.1587217
vn -0.8550471 -0.4936617 0.1587218
vn -0.8419803 -0.4861175 0.2340065
vn -0.972235 0 0.2340064
vn -0.8550472 0.4936616 0.1587218
vn -0.8419803 0.4861175 0.2340064
vn -0.8548064 0.4935226 -0.1604414
vn -0.4654624 0.8062045 -0.365211
vn -0.4936617 0.8550471 0.1587218
vn -0.4861175 0.8419803 0.2340064
vn -0.4935226 0.8548064 -0.1604415
vn 0 0.9309248 -0.365211
vn 0 0.9873233 0.1587217
vn 0 0.9722351 0.2340064
vn 0 0.9870453 -0.1604415
vn 0.4654624 0.8062045 -0.365211
vn 0.4936617 0.8550471 0.1587217
vn 0.4861175 0.8419803 0.2340063
vn 0.4935226 0.8548064 -0.1604414
vn 0.8062045 0.4654624 -0.365211
vn 0.8548064 0.4935226 -0.1604414
vn 0.8550472 0.4936616 0.1587217
vn 0.8419803 0.4861175 0.2340064
vn 0.9309248 0 -0.365211
vn 0.8548064 0.4935226 -0.1604414
vn 0.8062045 0.4654624 -0.365211
vn 0.9870453 0 -0.1604414
vn 0.8062045 -0.4654623 -0.365211
vn 0.9873233 0 0.1587218
vn 0.8550472 0.4936616 0.1587217
vn 0.8419803 0.4861175 0.2340064
vn 0.972235 0 0.2340064
vn 0.8550471 -0.4936617 0.1587218
vn 0.8419803 -0.4861174 0.2340066
vn 0.8548064 -0.4935226 -0.1604414
vn 0.4654624 -0.8062045 -0.365211
vn 0.4936617 -0.8550471 0.1587218
vn 0.4861175 -0.8419803 0.2340065
vn 0.4935227 -0.8548064 -0.1604415
vn 0 -0.9309248 -0.365211
vn 0 -0.9873233 0.1587217
vn 0 -0.9722351 0.2340064
vn 0 -0.9870453 -0.1604415
vn -0.4654624 -0.8062045 -0.365211
vn -0.4936617 -0.8550471 0.1587217
vn -0.4861175 -0.8419803 0.2340065
vn -0.4935226 -0.8548064 -0.1604415
vn -0.8062045 -0.4654624 -0.365211
vn -0.8548064 -0.4935226 -0.1604414
vn -0.8550471 -0.4936617 0.1587218
vn -0.8419803 -0.4861175 0.2340065
g ruinLightLamp_0
f 3/3/3 2/2/2 1/1/1
f 4/4/4 3/3/3 1/1/1
f 4/4/4 1/1/1 5/5/5
f 6/6/6 3/3/3 4/4/4
f 7/7/7 4/4/4 5/5/5
f 5/5/5 8/8/8 7/7/7
f 9/9/9 6/6/6 4/4/4
f 9/9/9 4/4/4 7/7/7
f 10/10/10 6/6/6 9/9/9
f 11/11/11 9/9/9 7/7/7
f 7/7/7 12/12/12 11/11/11
f 13/13/13 10/10/10 9/9/9
f 13/13/13 9/9/9 11/11/11
f 14/14/14 10/10/10 13/13/13
f 15/15/15 13/13/13 11/11/11
f 11/11/11 16/16/16 15/15/15
f 17/17/17 14/14/14 13/13/13
f 17/17/17 13/13/13 15/15/15
f 18/18/18 14/14/14 17/17/17
f 19/19/19 17/17/17 15/15/15
f 15/15/15 20/20/20 19/19/19
f 21/21/21 18/18/18 17/17/17
f 21/21/21 17/17/17 19/19/19
f 22/22/22 18/18/18 21/21/21
f 23/23/23 22/22/22 21/21/21
f 24/24/24 21/21/21 19/19/19
f 23/23/23 21/21/21 24/24/24
f 19/19/19 25/25/25 24/24/24
f 26/26/26 23/23/23 24/24/24
f 24/24/24 27/27/27 26/26/26
f 30/30/30 29/29/29 28/28/28
f 31/31/31 30/30/30 28/28/28
f 31/31/31 28/28/28 32/32/32
f 33/33/33 30/30/30 31/31/31
f 34/34/34 31/31/31 32/32/32
f 32/32/32 35/35/35 34/34/34
f 36/36/36 33/33/33 31/31/31
f 36/36/36 31/31/31 34/34/34
f 37/37/37 33/33/33 36/36/36
f 38/38/38 36/36/36 34/34/34
f 34/34/34 39/39/39 38/38/38
f 40/40/40 37/37/37 36/36/36
f 40/40/40 36/36/36 38/38/38
f 41/41/41 37/37/37 40/40/40
f 42/42/42 40/40/40 38/38/38
f 38/38/38 43/43/43 42/42/42
f 44/44/44 41/41/41 40/40/40
f 44/44/44 40/40/40 42/42/42
f 45/45/45 41/41/41 44/44/44
f 46/46/46 44/44/44 42/42/42
f 42/42/42 47/47/47 46/46/46
f 48/48/48 45/45/45 44/44/44
f 48/48/48 44/44/44 46/46/46
f 49/49/49 45/45/45 48/48/48
f 50/50/50 49/49/49 48/48/48
f 51/51/51 48/48/48 46/46/46
f 50/50/50 48/48/48 51/51/51
f 46/46/46 52/52/52 51/51/51
f 53/53/53 50/50/50 51/51/51
f 51/51/51 54/54/54 53/53/53
f 57/57/57 56/56/56 55/55/55
f 56/56/56 58/58/58 55/55/55
f 56/56/56 59/59/59 58/58/58
f 58/58/58 60/60/60 55/55/55
f 60/60/60 61/61/61 55/55/55
f 61/61/61 60/60/60 62/62/62
f 60/60/60 63/63/63 62/62/62
f 60/60/60 64/64/64 63/63/63
f 64/64/64 60/60/60 58/58/58
f 64/64/64 65/65/65 63/63/63
f 59/59/59 66/66/66 58/58/58
f 66/66/66 64/64/64 58/58/58
f 59/59/59 67/67/67 66/66/66
f 64/64/64 68/68/68 65/65/65
f 68/68/68 64/64/64 66/66/66
f 68/68/68 69/69/69 65/65/65
f 67/67/67 70/70/70 66/66/66
f 70/70/70 68/68/68 66/66/66
f 67/67/67 71/71/71 70/70/70
f 68/68/68 72/72/72 69/69/69
f 72/72/72 68/68/68 70/70/70
f 72/72/72 73/73/73 69/69/69
f 71/71/71 74/74/74 70/70/70
f 74/74/74 72/72/72 70/70/70
f 71/71/71 75/75/75 74/74/74
f 72/72/72 76/76/76 73/73/73
f 76/76/76 72/72/72 74/74/74
f 76/76/76 77/77/77 73/73/73
f 75/75/75 78/78/78 74/74/74
f 78/78/78 76/76/76 74/74/74
f 75/75/75 79/79/79 78/78/78
f 79/79/79 80/80/80 78/78/78
f 80/80/80 81/81/81 78/78/78
f 81/81/81 76/76/76 78/78/78
f 76/76/76 81/81/81 77/77/77
f 81/81/81 82/82/82 77/77/77
f 85/85/85 84/84/84 83/83/83
f 84/84/84 86/86/86 83/83/83
f 84/84/84 87/87/87 86/86/86
f 86/86/86 88/88/88 83/83/83
f 88/88/88 89/89/89 83/83/83
f 89/89/89 88/88/88 90/90/90
f 88/88/88 91/91/91 90/90/90
f 88/88/88 92/92/92 91/91/91
f 92/92/92 88/88/88 86/86/86
f 92/92/92 93/93/93 91/91/91
f 87/87/87 94/94/94 86/86/86
f 94/94/94 92/92/92 86/86/86
f 87/87/87 95/95/95 94/94/94
f 92/92/92 96/96/96 93/93/93
f 96/96/96 92/92/92 94/94/94
f 96/96/96 97/97/97 93/93/93
f 95/95/95 98/98/98 94/94/94
f 98/98/98 96/96/96 94/94/94
f 95/95/95 99/99/99 98/98/98
f 96/96/96 100/100/100 97/97/97
f 100/100/100 96/96/96 98/98/98
f 100/100/100 101/101/101 97/97/97
f 99/99/99 102/102/102 98/98/98
f 102/102/102 100/100/100 98/98/98
f 99/99/99 103/103/103 102/102/102
f 100/100/100 104/104/104 101/101/101
f 104/104/104 100/100/100 102/102/102
f 104/104/104 105/105/105 101/101/101
f 103/103/103 106/106/106 102/102/102
f 106/106/106 104/104/104 102/102/102
f 106/106/106 103/103/103 107/107/107
f 108/108/108 106/106/106 107/107/107
f 108/108/108 109/109/109 106/106/106
f 109/109/109 104/104/104 106/106/106
f 105/105/105 104/104/104 109/109/109
f 110/110/110 105/105/105 109/109/109
f 113/113/113 112/112/112 111/111/111
f 114/114/114 112/112/112 113/113/113
f 115/115/115 112/112/112 114/114/114
f 116/116/116 112/112/112 115/115/115
f 117/117/117 112/112/112 116/116/116
f 118/118/118 112/112/112 117/117/117
f 121/121/121 120/120/120 119/119/119
f 122/122/122 120/120/120 121/121/121
f 123/123/123 120/120/120 122/122/122
f 124/124/124 120/120/120 123/123/123
f 125/125/125 120/120/120 124/124/124
f 126/126/126 120/120/120 125/125/125
f 129/129/129 128/128/128 127/127/127
f 128/128/128 130/130/130 127/127/127
f 127/127/127 130/130/130 131/131/131
f 130/130/130 128/128/128 132/132/132
f 128/128/128 133/133/133 132/132/132
f 133/133/133 134/134/134 132/132/132
f 134/134/134 135/135/135 132/132/132
f 132/132/132 135/135/135 136/136/136
f 130/130/130 132/132/132 136/136/136
f 135/135/135 137/137/137 136/136/136
f 130/130/130 138/138/138 131/131/131
f 138/138/138 130/130/130 136/136/136
f 131/131/131 138/138/138 139/139/139
f 136/136/136 137/137/137 140/140/140
f 138/138/138 136/136/136 140/140/140
f 137/137/137 141/141/141 140/140/140
f 138/138/138 142/142/142 139/139/139
f 142/142/142 138/138/138 140/140/140
f 139/139/139 142/142/142 143/143/143
f 140/140/140 141/141/141 144/144/144
f 142/142/142 140/140/140 144/144/144
f 141/141/141 145/145/145 144/144/144
f 142/142/142 146/146/146 143/143/143
f 146/146/146 142/142/142 144/144/144
f 143/143/143 146/146/146 147/147/147
f 144/144/144 145/145/145 148/148/148
f 146/146/146 144/144/144 148/148/148
f 145/145/145 149/149/149 148/148/148
f 146/146/146 150/150/150 147/147/147
f 150/150/150 146/146/146 148/148/148
f 147/147/147 150/150/150 151/151/151
f 150/150/150 152/152/152 151/151/151
f 152/152/152 150/150/150 153/153/153
f 150/150/150 148/148/148 153/153/153
f 148/148/148 149/149/149 153/153/153
f 149/149/149 154/154/154 153/153/153
f 157/157/157 156/156/156 155/155/155
f 156/156/156 158/158/158 155/155/155
f 155/155/155 158/158/158 159/159/159
f 160/160/160 158/158/158 156/156/156
f 161/161/161 160/160/160 156/156/156
f 161/161/161 162/162/162 160/160/160
f 162/162/162 163/163/163 160/160/160
f 160/160/160 163/163/163 164/164/164
f 158/158/158 160/160/160 164/164/164
f 163/163/163 165/165/165 164/164/164
f 158/158/158 166/166/166 159/159/159
f 166/166/166 158/158/158 164/164/164
f 159/159/159 166/166/166 167/167/167
f 164/164/164 165/165/165 168/168/168
f 166/166/166 164/164/164 168/168/168
f 165/165/165 169/169/169 168/168/168
f 166/166/166 170/170/170 167/167/167
f 170/170/170 166/166/166 168/168/168
f 167/167/167 170/170/170 171/171/171
f 168/168/168 169/169/169 172/172/172
f 170/170/170 168/168/168 172/172/172
f 169/169/169 173/173/173 172/172/172
f 170/170/170 174/174/174 171/171/171
f 174/174/174 170/170/170 172/172/172
f 171/171/171 174/174/174 175/175/175
f 172/172/172 173/173/173 176/176/176
f 174/174/174 172/172/172 176/176/176
f 173/173/173 177/177/177 176/176/176
f 174/174/174 178/178/178 175/175/175
f 178/178/178 174/174/174 176/176/176
f 175/175/175 178/178/178 179/179/179
f 178/178/178 180/180/180 179/179/179
f 180/180/180 178/178/178 181/181/181
f 178/178/178 176/176/176 181/181/181
f 176/176/176 177/177/177 181/181/181
f 177/177/177 182/182/182 181/181/181
