g ruinPillar02_COL
v -1.740968 0 -2.010504
v -1.740968 0 2.010504
v 1.740968 0 2.010504
v 1.740968 0 -2.010504
v -1.732332 0.7969882 -1.979249
v 1.729326 0.7969882 -1.979249
v -1.38947 1.805295 -1.306181
v 1.283973 1.805295 -1.306181
v -1.284083 3.969713 -1.12985
v 1.109194 3.752988 -1.380231
v -0.8813641 4.616836 -0.5038247
v 1.004312 4.22816 -1.13619
v 0.1153278 4.384477 0.02953742
v 1.740968 0 2.010504
v 1.729326 0.7969882 -1.979249
v 1.740968 0 -2.010504
v 1.729326 0.796987 1.987099
v -1.740968 0 2.010504
v 1.283973 1.805295 -1.306181
v -1.732332 0.796987 1.987099
v -1.740968 0 -2.010504
v -1.732332 0.7969882 -1.979249
v 1.283974 1.805294 1.454796
v 1.109194 3.752988 -1.380231
v -1.38947 1.805294 1.454796
v -1.38947 1.805295 -1.306181
v 1.183719 3.080634 1.087179
v 1.004312 4.22816 -1.13619
v -1.284083 3.969713 1.186614
v -1.284083 3.969713 -1.12985
v 0.8281221 3.839785 0.7350241
v 0.1153278 4.384477 0.02953742
v -1.00356 4.228461 1.086914
v -0.8813641 4.616836 -0.5038247
v 0.1153278 4.384477 0.02953742
vt 0.375 0.75
vt 0.375 1
vt 0.625 1
vt 0.625 0.75
vt 0.375 0.733531
vt 0.625 0.733531
vt 0.375 0.7114577
vt 0.625 0.7114577
vt 0.375 0.6785374
vt 0.625 0.6785374
vt 0.375 0.6566222
vt 0.625 0.6566222
vt 0.5 0.5407312
vt 0.625 0
vt 0.875 0.016469
vt 0.875 0
vt 0.625 0.01646898
vt 0.375 0
vt 0.875 0.03854235
vt 0.375 0.01646898
vt 0.125 0
vt 0.125 0.016469
vt 0.625 0.03854233
vt 0.875 0.07146259
vt 0.375 0.03854233
vt 0.125 0.03854235
vt 0.625 0.07146259
vt 0.875 0.09337781
vt 0.375 0.07146259
vt 0.125 0.07146259
vt 0.625 0.0933778
vt 0.875 0.2092688
vt 0.375 0.0933778
vt 0.125 0.09337781
vt 0.375 0.2092688
vn -0.2145355 -0.9580666 -0.1899548
vn -0.2154665 -0.9579358 0.1895609
vn 0.2156505 -0.957953 0.1892642
vn 0.2147172 -0.9580851 -0.1896563
vn -0.6757948 0.3214868 -0.6632856
vn 0.6818578 0.3408262 -0.6472304
vn -0.7193592 0.3123127 -0.6204702
vn 0.6489231 0.3803061 -0.6589887
vn -0.7284588 0.1758056 -0.6621481
vn 0.5139119 0.2069505 -0.8325059
vn -0.3528583 0.8775236 -0.3247202
vn 0.4890419 0.7644417 -0.4200798
vn 0.2660523 0.9371676 0.2256833
vn 0.2156505 -0.957953 0.1892642
vn 0.6818578 0.3408262 -0.6472304
vn 0.2147172 -0.9580851 -0.1896563
vn 0.7046027 0.3041241 0.6411268
vn -0.2154665 -0.9579358 0.1895609
vn 0.6489231 0.3803061 -0.6589887
vn -0.6988859 0.2802801 0.6580285
vn -0.2145355 -0.9580666 -0.1899548
vn -0.6757948 0.3214868 -0.6632856
vn 0.6447009 0.4050309 0.6483138
vn 0.5139119 0.2069505 -0.8325059
vn -0.7114387 0.3441885 0.6126902
vn -0.7193592 0.3123127 -0.6204702
vn 0.7195441 0.2195515 0.6588272
vn 0.4890419 0.7644417 -0.4200798
vn -0.7992764 0.2359257 0.5527171
vn -0.7284588 0.1758056 -0.6621481
vn 0.6414666 0.5755107 0.5072553
vn 0.2660523 0.9371676 0.2256833
vn -0.2395046 0.7627462 0.6007128
vn -0.3528583 0.8775236 -0.3247202
vn 0.2660523 0.9371676 0.2256833
g ruinPillar02_COL_0
f 3/3/3 2/2/2 1/1/1
f 4/4/4 3/3/3 1/1/1
f 4/4/4 1/1/1 5/5/5
f 6/6/6 4/4/4 5/5/5
f 6/6/6 5/5/5 7/7/7
f 8/8/8 6/6/6 7/7/7
f 8/8/8 7/7/7 9/9/9
f 10/10/10 8/8/8 9/9/9
f 10/10/10 9/9/9 11/11/11
f 12/12/12 10/10/10 11/11/11
f 12/12/12 11/11/11 13/13/13
f 16/16/16 15/15/15 14/14/14
f 15/15/15 17/17/17 14/14/14
f 14/14/14 17/17/17 18/18/18
f 15/15/15 19/19/19 17/17/17
f 17/17/17 20/20/20 18/18/18
f 18/18/18 20/20/20 21/21/21
f 20/20/20 22/22/22 21/21/21
f 19/19/19 23/23/23 17/17/17
f 17/17/17 23/23/23 20/20/20
f 19/19/19 24/24/24 23/23/23
f 20/20/20 25/25/25 22/22/22
f 23/23/23 25/25/25 20/20/20
f 25/25/25 26/26/26 22/22/22
f 24/24/24 27/27/27 23/23/23
f 23/23/23 27/27/27 25/25/25
f 24/24/24 28/28/28 27/27/27
f 25/25/25 29/29/29 26/26/26
f 27/27/27 29/29/29 25/25/25
f 29/29/29 30/30/30 26/26/26
f 28/28/28 31/31/31 27/27/27
f 27/27/27 31/31/31 29/29/29
f 28/28/28 32/32/32 31/31/31
f 29/29/29 33/33/33 30/30/30
f 31/31/31 33/33/33 29/29/29
f 33/33/33 34/34/34 30/30/30
f 31/31/31 35/35/35 33/33/33
f 33/33/33 35/35/35 34/34/34
