g ruinBlockPile04_COL
v -3.047151 0 -0.8053709
v -3.047151 0 1.122049
v 0.3925141 0 1.122049
v 0.3925141 0 -0.8053709
v -3.047151 2.565723 -0.8053709
v 0.4662615 2.010683 -0.8053709
v 1.708382 2.800101 -0.8053709
v -2.99977 3.605758 -0.8053709
v 1.600441 3.498712 -0.8053709
v -2.99977 3.605758 1.122049
v 1.600441 3.498712 1.122049
v -3.047151 2.565723 1.122049
v -3.047151 2.565723 -0.8053709
v -2.99977 3.605758 -0.8053709
v -3.047151 0 -0.8053709
v -3.047151 0 1.122049
v 1.708382 2.800101 1.122049
v 1.600441 3.498712 -0.8053709
v 1.708382 2.800101 -0.8053709
v 0.4982279 2.070931 1.122049
v 0.3925141 0 1.122049
v 0.4662615 2.010683 -0.8053709
v 0.3925141 0 -0.8053709
v 2.724394 2.797463 -0.7726628
v 2.699539 2.799663 1.021653
v 2.635232 2.073334 1.021653
v 2.654774 2.011121 -0.7726629
v 0.4026257 -0.03222828 -0.5096766
v 0.4761145 -0.03222828 1.400589
v 3.036384 -0.03222828 1.253992
v 2.932275 -0.03222828 -0.6394818
v 0.4026257 2.05267 -0.5096766
v 2.932275 2.05267 -0.6394818
v 0.4761153 2.05267 1.400589
v 3.036384 2.05267 1.253992
v 0.4761145 -0.03222828 1.400589
v 0.4026257 -0.03222828 -0.5096766
v 0.4026257 2.05267 -0.5096766
v 3.036384 -0.03222828 1.253992
v 2.932275 2.05267 -0.6394818
v 2.932275 -0.03222828 -0.6394818
vt 0.375 0.75
vt 0.375 1
vt 0.625 1
vt 0.625 0.75
vt 0.375 0.572777
vt 0.625 0.6115378
vt 0.625 0.572777
vt 0.375 0.5
vt 0.625 0.5
vt 0.375 0.25
vt 0.625 0.25
vt 0.375 0.177223
vt 0.125 0.177223
vt 0.125 0.25
vt 0.125 0
vt 0.375 0
vt 0.625 0.177223
vt 0.875 0.25
vt 0.875 0.177223
vt 0.625 0.1427675
vt 0.625 0
vt 0.875 0.1384622
vt 0.875 0
vt 0.875 0.177223
vt 0.625 0.177223
vt 0.625 0.1427675
vt 0.875 0.1384622
vt 0.375 0.75
vt 0.375 1
vt 0.625 1
vt 0.625 0.75
vt 0.375 0.5
vt 0.625 0.5
vt 0.375 0.25
vt 0.625 0.25
vt 0.375 0
vt 0.125 0
vt 0.125 0.25
vt 0.625 0
vt 0.875 0.25
vt 0.875 0
vn -0.430666 -0.5773605 -0.6936725
vn -0.4269187 -0.5723368 0.7001221
vn 0.3432014 -0.5935366 0.7279609
vn 0.3467576 -0.5996866 -0.7212041
vn -0.5265397 0.006918865 -0.8501224
vn 0.3109494 -0.3187583 -0.895379
vn 0.2021264 0.2907795 -0.9351963
vn -0.1793764 0.893545 -0.4115842
vn 0.1513669 0.8845681 -0.4411659
vn -0.1793764 0.893545 0.4115842
vn 0.1513669 0.8845681 0.4411659
vn -0.52027 0.00683648 0.8539745
vn -0.5265397 0.006918865 -0.8501224
vn -0.1793764 0.893545 -0.4115842
vn -0.430666 -0.5773605 -0.6936725
vn -0.4269187 -0.5723368 0.7001221
vn 0.2223249 0.2798129 0.9339573
vn 0.1513669 0.8845681 -0.4411659
vn 0.2021264 0.2907795 -0.9351963
vn 0.3017409 -0.3215999 0.897511
vn 0.3432014 -0.5935366 0.7279609
vn 0.3109494 -0.3187583 -0.895379
vn 0.3467576 -0.5996866 -0.7212041
vn 0.5490353 0.6934556 -0.4665614
vn 0.5580485 0.7118471 0.4264452
vn 0.3058796 -0.9089994 0.2831214
vn 0.2990502 -0.9181017 -0.2601121
vn -0.5148625 -0.5921773 -0.6198731
vn -0.4503667 -0.5872352 0.6725508
vn 0.5160652 -0.5896071 0.6213213
vn 0.4481255 -0.5927473 -0.6692041
vn -0.5148625 0.5921773 -0.6198731
vn 0.4481255 0.5927473 -0.6692041
vn -0.4503665 0.5872352 0.672551
vn 0.5160653 0.589607 0.6213213
vn -0.4503667 -0.5872352 0.6725508
vn -0.5148625 -0.5921773 -0.6198731
vn -0.5148625 0.5921773 -0.6198731
vn 0.5160652 -0.5896071 0.6213213
vn 0.4481255 0.5927473 -0.6692041
vn 0.4481255 -0.5927473 -0.6692041
g ruinBlockPile04_COL_0
f 3/3/3 2/2/2 1/1/1
f 4/4/4 3/3/3 1/1/1
f 4/4/4 1/1/1 5/5/5
f 6/6/6 4/4/4 5/5/5
f 7/7/7 6/6/6 5/5/5
f 7/7/7 5/5/5 8/8/8
f 9/9/9 7/7/7 8/8/8
f 9/9/9 8/8/8 10/10/10
f 11/11/11 9/9/9 10/10/10
f 11/11/11 10/10/10 12/12/12
f 12/12/12 10/10/10 13/13/13
f 10/10/10 14/14/14 13/13/13
f 12/12/12 13/13/13 15/15/15
f 16/16/16 12/12/12 15/15/15
f 17/17/17 11/11/11 12/12/12
f 18/18/18 11/11/11 17/17/17
f 19/19/19 18/18/18 17/17/17
f 20/20/20 12/12/12 16/16/16
f 20/20/20 17/17/17 12/12/12
f 21/21/21 20/20/20 16/16/16
f 22/22/22 20/20/20 21/21/21
f 23/23/23 22/22/22 21/21/21
f 19/19/19 24/24/24 22/22/22
f 17/17/17 25/25/25 19/19/19
f 25/25/25 24/24/24 19/19/19
f 26/26/26 25/25/25 17/17/17
f 20/20/20 26/26/26 17/17/17
f 24/24/24 25/25/25 26/26/26
f 22/22/22 27/27/27 20/20/20
f 27/27/27 26/26/26 20/20/20
f 27/27/27 24/24/24 26/26/26
f 24/24/24 27/27/27 22/22/22
f 30/30/30 29/29/29 28/28/28
f 31/31/31 30/30/30 28/28/28
f 31/31/31 28/28/28 32/32/32
f 33/33/33 31/31/31 32/32/32
f 33/33/33 32/32/32 34/34/34
f 35/35/35 33/33/33 34/34/34
f 35/35/35 34/34/34 36/36/36
f 36/36/36 34/34/34 37/37/37
f 34/34/34 38/38/38 37/37/37
f 39/39/39 35/35/35 36/36/36
f 40/40/40 35/35/35 39/39/39
f 41/41/41 40/40/40 39/39/39
