g ruinPlatform05_COL
v -5.667743 -3.191436 4.375782
v -5.327182 -3.305004 5.590868
v -4.463224 -3.292079 5.564775
v -4.401211 -3.303858 4.417139
v -6.022923 -3.41484 1.455804
v -0.8792589 -3.048191 5.494425
v -4.375179 -3.512864 1.483172
v -5.983405 -3.497054 -1.207392
v -1.421735 -3.292852 4.340881
v 0.6003802 -3.057928 5.541094
v -4.375895 -3.528781 -1.278405
v -5.732346 -3.22842 -3.641743
v -1.444595 -3.234861 1.449935
v 1.461805 -3.363317 4.159494
v 4.442439 -3.113134 5.776522
v -3.616207 -3.262223 -3.642708
v -5.763319 -3.228129 -5.780613
v -1.457829 -3.425454 -1.466823
v 1.455288 -3.261333 1.455407
v 4.384367 -3.043261 4.405654
v 5.874108 -3.071426 5.732939
v 5.933654 -3.106441 4.372994
v 4.390782 -3.384325 1.32087
v 5.987319 -3.340464 1.194209
v -3.58623 -3.255819 -5.627409
v -5.946664 -2.004461 -6.28961
v -1.43562 -3.039699 -4.257632
v 1.456908 -3.507288 -1.387994
v 4.385111 -3.476817 -1.460893
v 5.978804 -3.394571 -1.452236
v -4.501234 -1.901903 -6.197048
v -6.788008 -0.8718131 -6.432142
v -1.457472 -2.890727 -5.431324
v 1.443982 -3.530337 -3.977769
v 4.437489 -3.288762 -4.42032
v 5.578254 -3.321718 -4.544587
v -4.450519 -1.109542 -6.72883
v -6.49381 -0.1422201 -6.686597
v -0.4173783 -2.229536 -6.444738
v 1.443163 -3.167313 -5.574763
v 4.391892 -3.217557 -5.646317
v 5.599048 -3.222535 -5.497951
v -4.443403 -0.1472617 -6.857297
v -6.925576 -0.1486298 -4.540522
v -1.499804 -0.955836 -6.805192
v 0.8832493 -2.208414 -6.510677
v 3.56828 -1.801128 -6.64577
v 6.444433 -1.670508 -6.07602
v -4.395893 0.1465462 -4.3911
v -7.373731 -0.0943671 -0.5138464
v -1.4366 -0.1197699 -6.708346
v 1.946543 -1.080715 -7.11585
v 3.760972 -1.085829 -7.006951
v 6.449781 -0.8850501 -6.603182
v -4.388904 0.1155093 -1.463216
v -6.912742 -0.06806061 1.363371
v -1.462854 0.08846001 -4.384805
v 1.425596 -0.1101767 -6.660405
v 4.424543 -0.1569001 -6.909093
v 6.351979 -0.1196725 -6.77909
v -4.388663 0.1080542 1.463412
v -7.091726 -0.1279291 4.606311
v -1.463186 0.1103299 -1.463271
v 1.463275 0.1157539 -4.389426
v 4.387207 0.1620908 -4.38839
v 6.970315 -0.1081269 -4.521546
v -4.389532 0.107171 4.38855
v -6.631767 -0.174183 6.710572
v -1.463267 0.1103444 1.463202
v 1.463242 0.109345 -1.463223
v 4.387757 0.1072003 -1.462962
v 6.962798 -0.07391883 -1.446528
v 1.463216 0.1113145 1.463243
v 4.38885 0.1055339 1.463
v 6.969347 -0.07887542 1.452129
v -1.463389 0.09802315 4.387679
v 1.463022 0.1182875 4.389513
v 4.390943 0.1365492 4.3887
v 6.913344 -0.07398766 4.504552
v -4.366129 -0.2437444 6.707876
v -1.46181 -0.08868301 6.639327
v 1.427793 -0.1136053 6.830309
v 4.557561 -0.05864963 6.891935
v 6.381939 -0.1128699 6.692662
v -6.685779 -0.8573141 6.673949
v -4.578163 -1.043617 6.670542
v -1.477459 -0.9895762 7.058987
v 1.451626 -0.9815623 7.104132
v 4.597718 -0.9491825 7.060771
v -7.158498 -0.9971371 4.629898
v -7.091726 -0.1279291 4.606311
v 6.68815 -0.8149921 6.824261
v 6.913344 -0.07398766 4.504552
v -7.039922 -1.00262 1.455606
v -6.912742 -0.06806061 1.363371
v 7.260962 -0.8525338 4.41093
v 6.969347 -0.07887542 1.452129
v -7.557456 -1.026488 -0.5191188
v -7.373731 -0.0943671 -0.5138464
v 7.259655 -0.8757188 1.500201
v 6.962798 -0.07391883 -1.446528
v -7.049899 -1.027053 -4.343492
v -6.925576 -0.1486298 -4.540522
v -6.788008 -0.8718131 -6.432142
v -6.49381 -0.1422201 -6.686597
v -5.946664 -2.004461 -6.28961
v -6.349931 -1.822827 -4.429068
v -5.763319 -3.228129 -5.780613
v -5.732346 -3.22842 -3.641743
v -6.475412 -1.87653 -1.960735
v -5.983405 -3.497054 -1.207392
v -5.834033 -2.252435 1.409646
v -6.022923 -3.41484 1.455804
v -5.638636 -2.219744 4.329312
v -5.667743 -3.191436 4.375782
v -6.139657 -1.728863 5.950395
v -5.327182 -3.305004 5.590868
v -4.470683 -2.191275 5.663407
v -4.463224 -3.292079 5.564775
v -0.9885651 -2.137593 6.099185
v -0.8792589 -3.048191 5.494425
v 0.7370799 -2.129382 6.081753
v 0.6003802 -3.057928 5.541094
v 3.951783 -2.216206 6.350617
v 4.442439 -3.113134 5.776522
v 5.855999 -2.225621 5.866179
v 5.874108 -3.071426 5.732939
v 5.736382 -2.236713 4.340817
v 5.933654 -3.106441 4.372994
v 6.059096 -2.232483 1.19421
v 5.987319 -3.340464 1.194209
v 7.148098 -0.798224 -1.449461
v 6.970315 -0.1081269 -4.521546
v 6.067727 -2.252431 -1.454328
v 5.978804 -3.394571 -1.452236
v 7.144183 -1.006649 -4.48327
v 6.351979 -0.1196725 -6.77909
v 6.449781 -0.8850501 -6.603182
v 6.002411 -2.157906 -4.520157
v 5.578254 -3.321718 -4.544587
v 6.444433 -1.670508 -6.07602
v 5.599048 -3.222535 -5.497951
vt 0.375 0.95
vt 0.375 1
vt 0.425 1
vt 0.425 0.95
vt 0.375 0.9
vt 0.475 1
vt 0.425 0.9
vt 0.375 0.85
vt 0.475 0.95
vt 0.525 1
vt 0.425 0.85
vt 0.375 0.8
vt 0.475 0.9
vt 0.525 0.95
vt 0.575 1
vt 0.425 0.8
vt 0.375 0.75
vt 0.475 0.85
vt 0.525 0.9
vt 0.575 0.95
vt 0.6250001 1
vt 0.6250001 0.95
vt 0.575 0.9
vt 0.6250001 0.9
vt 0.425 0.75
vt 0.375 0.6666667
vt 0.475 0.8
vt 0.525 0.85
vt 0.575 0.85
vt 0.6250001 0.85
vt 0.425 0.6666667
vt 0.375 0.5833334
vt 0.475 0.75
vt 0.525 0.8
vt 0.575 0.8
vt 0.6250001 0.8
vt 0.425 0.5833334
vt 0.375 0.5000001
vt 0.475 0.6666667
vt 0.525 0.75
vt 0.575 0.75
vt 0.6250001 0.75
vt 0.425 0.5000001
vt 0.375 0.45
vt 0.475 0.5833334
vt 0.525 0.6666667
vt 0.575 0.6666667
vt 0.6250001 0.6666667
vt 0.425 0.45
vt 0.375 0.4
vt 0.475 0.5000001
vt 0.525 0.5833334
vt 0.575 0.5833334
vt 0.6250001 0.5833334
vt 0.425 0.4
vt 0.375 0.35
vt 0.475 0.45
vt 0.525 0.5000001
vt 0.575 0.5000001
vt 0.6250001 0.5000001
vt 0.425 0.35
vt 0.375 0.3
vt 0.475 0.4
vt 0.525 0.45
vt 0.575 0.45
vt 0.6250001 0.45
vt 0.425 0.3
vt 0.375 0.25
vt 0.475 0.35
vt 0.525 0.4
vt 0.575 0.4
vt 0.6250001 0.4
vt 0.525 0.35
vt 0.575 0.35
vt 0.6250001 0.35
vt 0.475 0.3
vt 0.525 0.3
vt 0.575 0.3
vt 0.6250001 0.3
vt 0.425 0.25
vt 0.475 0.25
vt 0.525 0.25
vt 0.575 0.25
vt 0.6250001 0.25
vt 0.375 0.1666667
vt 0.425 0.1666667
vt 0.475 0.1666667
vt 0.525 0.1666667
vt 0.575 0.1666667
vt 0.325 0.1666667
vt 0.325 0.25
vt 0.6250001 0.1666667
vt 0.675 0.25
vt 0.275 0.1666667
vt 0.275 0.25
vt 0.675 0.1666667
vt 0.725 0.25
vt 0.225 0.1666667
vt 0.225 0.25
vt 0.725 0.1666667
vt 0.775 0.25
vt 0.175 0.1666667
vt 0.175 0.25
vt 0.125 0.1666667
vt 0.125 0.25
vt 0.125 0.08333334
vt 0.175 0.08333334
vt 0.125 0
vt 0.175 0
vt 0.225 0.08333334
vt 0.225 0
vt 0.275 0.08333334
vt 0.275 0
vt 0.325 0.08333334
vt 0.325 0
vt 0.375 0.08333334
vt 0.375 0
vt 0.425 0.08333334
vt 0.425 0
vt 0.475 0.08333334
vt 0.475 0
vt 0.525 0.08333334
vt 0.525 0
vt 0.575 0.08333334
vt 0.575 0
vt 0.6250001 0.08333334
vt 0.6250001 0
vt 0.675 0.08333334
vt 0.675 0
vt 0.725 0.08333334
vt 0.725 0
vt 0.775 0.1666667
vt 0.825 0.25
vt 0.775 0.08333334
vt 0.775 0
vt 0.825 0.1666667
vt 0.875 0.25
vt 0.875 0.1666667
vt 0.825 0.08333334
vt 0.825 0
vt 0.875 0.08333334
vt 0.875 0
vn -0.679242 -0.7304056 0.07167999
vn -0.4744669 -0.6638197 0.5781215
vn 0.01433774 -0.7654276 0.6433622
vn 0.011756 -0.9986336 0.05091845
vn -0.6704186 -0.7361948 0.09249905
vn -0.006660736 -0.8150494 0.5793532
vn 0.01909327 -0.99915 0.03653325
vn -0.6159964 -0.7876617 -0.01173196
vn 0.01979404 -0.9989809 0.04056032
vn -0.01750299 -0.8665754 0.4987389
vn 0.022216 -0.9991259 -0.03540925
vn -0.4965398 -0.8635988 -0.08743681
vn 0.02006311 -0.9994085 0.02793246
vn 0.01283861 -0.9990108 0.04257396
vn 0.02330367 -0.8816559 0.4713173
vn 0.03185204 -0.9961401 -0.08179463
vn -0.4191837 -0.8265476 -0.3756382
vn -0.002420705 -0.9999013 -0.01384115
vn -0.003953075 -0.9992905 0.03745454
vn 0.02029355 -0.9978841 0.06176891
vn 0.4899228 -0.7588711 0.4290572
vn 0.5529507 -0.8298985 0.07425625
vn 0.01202441 -0.9984061 0.05514333
vn 0.5568336 -0.8280811 0.06494669
vn 0.03570023 -0.8982922 -0.4379458
vn -0.52723 -0.5213745 -0.6709674
vn -0.0232164 -0.9946346 -0.1008119
vn -0.0200121 -0.9997268 0.01207259
vn 0.01984744 -0.9997782 0.007039068
vn 0.5907038 -0.8063498 -0.02947945
vn -0.008616798 -0.4350454 -0.9003672
vn -0.7641746 -0.3039821 -0.5688868
vn -0.01297881 -0.8867117 -0.4621408
vn -0.03212992 -0.9959551 -0.08391195
vn 0.02596714 -0.9973199 -0.06840144
vn 0.5809794 -0.8122318 -0.05236797
vn -0.04985813 -0.2745672 -0.9602745
vn -0.2784156 0.8621939 -0.4232096
vn -0.06344728 -0.5555755 -0.8290418
vn -0.03457566 -0.8830219 -0.4680565
vn 0.07254207 -0.7937832 -0.603859
vn 0.4337499 -0.6785471 -0.5928196
vn -0.03557514 0.8974163 -0.4397479
vn -0.3714665 0.9261453 -0.06532706
vn -0.03949205 -0.1747252 -0.983825
vn -0.04412961 -0.5689582 -0.8211816
vn 0.07554377 -0.5498784 -0.8318214
vn 0.5645193 -0.5781953 -0.589074
vn -0.03540507 0.9986437 -0.03817457
vn -0.4042248 0.9146594 -0.0006915138
vn -0.003432235 0.9059428 -0.4233863
vn -0.01766828 -0.08209196 -0.9964682
vn 0.07334106 -0.1844877 -0.9800946
vn 0.606159 -0.2888716 -0.7410294
vn -0.03932313 0.9992247 -0.001935552
vn -0.3241158 0.945704 0.02435124
vn 0.00236716 0.9989964 -0.04472662
vn -0.01435058 0.9203763 -0.3907705
vn 0.03994051 0.9149532 -0.4015786
vn 0.2817942 0.8715168 -0.4013109
vn -0.03411574 0.9994118 0.003465635
vn -0.3801208 0.9233971 0.05334844
vn 0.001701726 0.9999986 -3.851646E-05
vn -0.005634092 0.9989986 -0.04438507
vn 0.02998551 0.9988467 -0.03750035
vn 0.3756034 0.9244698 -0.06540303
vn -0.03332703 0.998355 0.04665393
vn -0.2476905 0.8947501 0.3715799
vn -0.0004900283 0.9999994 0.001025652
vn -0.002673689 0.9999948 0.001859608
vn 0.03575237 0.9993532 0.003846105
vn 0.3361992 0.9417902 -0.001140518
vn -0.00110125 0.9999983 -0.001492502
vn 0.03460416 0.9993973 -0.002751463
vn 0.3233223 0.9462843 -0.002947802
vn -0.00630545 0.9989053 0.04635292
vn -0.005143342 0.999246 0.03848452
vn 0.02697967 0.9992179 0.02891115
vn 0.3385434 0.9397993 0.04653719
vn -0.03619043 0.9108155 0.4112242
vn -0.02536215 0.9237229 0.3822209
vn -0.01362812 0.9221986 0.3864765
vn 0.02553305 0.9285604 0.3703023
vn 0.2891134 0.8979764 0.3317407
vn -0.5885466 -0.4427951 0.676421
vn -0.06492659 -0.4376523 0.8967971
vn -0.06030419 -0.3346438 0.9404132
vn -0.02593164 -0.2678095 0.9631229
vn 0.06441656 -0.3107227 0.9483153
vn -0.8770419 -0.4772476 0.05506456
vn -0.3801208 0.9233971 0.05334844
vn 0.6904429 -0.3621635 0.6261999
vn 0.3385434 0.9397993 0.04653719
vn -0.8457407 -0.5304209 0.05810815
vn -0.3241158 0.945704 0.02435124
vn 0.9134443 -0.3991702 0.07926427
vn 0.3233223 0.9462843 -0.002947802
vn -0.8989298 -0.4363938 0.03854506
vn -0.4042248 0.9146594 -0.0006915138
vn 0.9081448 -0.4185174 0.01078372
vn 0.3361992 0.9417902 -0.001140518
vn -0.9426758 -0.3102834 -0.1228267
vn -0.3714665 0.9261453 -0.06532706
vn -0.7641746 -0.3039821 -0.5688868
vn -0.2784156 0.8621939 -0.4232096
vn -0.52723 -0.5213745 -0.6709674
vn -0.8493072 -0.5195745 -0.09337906
vn -0.4191837 -0.8265476 -0.3756382
vn -0.4965398 -0.8635988 -0.08743681
vn -0.8450935 -0.5339708 -0.02630847
vn -0.6159964 -0.7876617 -0.01173196
vn -0.883082 -0.4636482 0.07208677
vn -0.6704186 -0.7361948 0.09249905
vn -0.8669425 -0.4964201 0.04447266
vn -0.679242 -0.7304056 0.07167999
vn -0.4999495 -0.7174543 0.4850873
vn -0.4744669 -0.6638197 0.5781215
vn -0.03777737 -0.495065 0.8680343
vn 0.01433774 -0.7654276 0.6433622
vn -0.03723363 -0.5617344 0.8264793
vn -0.006660736 -0.8150494 0.5793532
vn -0.0318033 -0.5820222 0.8125507
vn -0.01750299 -0.8665754 0.4987389
vn 0.003224369 -0.5466621 0.8373471
vn 0.02330367 -0.8816559 0.4713173
vn 0.587425 -0.6183385 0.5221008
vn 0.4899228 -0.7588711 0.4290572
vn 0.8766897 -0.4777524 0.05628376
vn 0.5529507 -0.8298985 0.07425625
vn 0.8874625 -0.4605468 0.01752109
vn 0.5568336 -0.8280811 0.06494669
vn 0.9253288 -0.3790169 -0.01061904
vn 0.3756034 0.9244698 -0.06540303
vn 0.8863493 -0.4624347 -0.02321882
vn 0.5907038 -0.8063498 -0.02947945
vn 0.930771 -0.3585596 -0.07141671
vn 0.2817942 0.8715168 -0.4013109
vn 0.606159 -0.2888716 -0.7410294
vn 0.8778293 -0.478166 -0.02780354
vn 0.5809794 -0.8122318 -0.05236797
vn 0.5645193 -0.5781953 -0.589074
vn 0.4337499 -0.6785471 -0.5928196
g ruinPlatform05_COL_0
f 3/3/3 2/2/2 1/1/1
f 4/4/4 3/3/3 1/1/1
f 4/4/4 1/1/1 5/5/5
f 6/6/6 3/3/3 4/4/4
f 7/7/7 4/4/4 5/5/5
f 7/7/7 5/5/5 8/8/8
f 9/9/9 6/6/6 4/4/4
f 9/9/9 4/4/4 7/7/7
f 10/10/10 6/6/6 9/9/9
f 11/11/11 7/7/7 8/8/8
f 11/11/11 8/8/8 12/12/12
f 13/13/13 9/9/9 7/7/7
f 13/13/13 7/7/7 11/11/11
f 14/14/14 10/10/10 9/9/9
f 14/14/14 9/9/9 13/13/13
f 15/15/15 10/10/10 14/14/14
f 16/16/16 11/11/11 12/12/12
f 16/16/16 12/12/12 17/17/17
f 18/18/18 13/13/13 11/11/11
f 18/18/18 11/11/11 16/16/16
f 19/19/19 14/14/14 13/13/13
f 19/19/19 13/13/13 18/18/18
f 20/20/20 15/15/15 14/14/14
f 20/20/20 14/14/14 19/19/19
f 21/21/21 15/15/15 20/20/20
f 22/22/22 21/21/21 20/20/20
f 22/22/22 20/20/20 23/23/23
f 23/23/23 20/20/20 19/19/19
f 24/24/24 22/22/22 23/23/23
f 25/25/25 16/16/16 17/17/17
f 25/25/25 17/17/17 26/26/26
f 27/27/27 18/18/18 16/16/16
f 27/27/27 16/16/16 25/25/25
f 28/28/28 19/19/19 18/18/18
f 23/23/23 19/19/19 28/28/28
f 28/28/28 18/18/18 27/27/27
f 24/24/24 23/23/23 29/29/29
f 29/29/29 23/23/23 28/28/28
f 30/30/30 24/24/24 29/29/29
f 31/31/31 25/25/25 26/26/26
f 31/31/31 26/26/26 32/32/32
f 33/33/33 27/27/27 25/25/25
f 33/33/33 25/25/25 31/31/31
f 34/34/34 28/28/28 27/27/27
f 29/29/29 28/28/28 34/34/34
f 34/34/34 27/27/27 33/33/33
f 30/30/30 29/29/29 35/35/35
f 35/35/35 29/29/29 34/34/34
f 36/36/36 30/30/30 35/35/35
f 37/37/37 31/31/31 32/32/32
f 37/37/37 32/32/32 38/38/38
f 39/39/39 33/33/33 31/31/31
f 39/39/39 31/31/31 37/37/37
f 40/40/40 34/34/34 33/33/33
f 35/35/35 34/34/34 40/40/40
f 40/40/40 33/33/33 39/39/39
f 36/36/36 35/35/35 41/41/41
f 41/41/41 35/35/35 40/40/40
f 42/42/42 36/36/36 41/41/41
f 43/43/43 37/37/37 38/38/38
f 43/43/43 38/38/38 44/44/44
f 45/45/45 39/39/39 37/37/37
f 45/45/45 37/37/37 43/43/43
f 46/46/46 40/40/40 39/39/39
f 41/41/41 40/40/40 46/46/46
f 46/46/46 39/39/39 45/45/45
f 42/42/42 41/41/41 47/47/47
f 47/47/47 41/41/41 46/46/46
f 48/48/48 42/42/42 47/47/47
f 49/49/49 43/43/43 44/44/44
f 49/49/49 44/44/44 50/50/50
f 51/51/51 45/45/45 43/43/43
f 51/51/51 43/43/43 49/49/49
f 52/52/52 46/46/46 45/45/45
f 47/47/47 46/46/46 52/52/52
f 52/52/52 45/45/45 51/51/51
f 48/48/48 47/47/47 53/53/53
f 53/53/53 47/47/47 52/52/52
f 54/54/54 48/48/48 53/53/53
f 55/55/55 49/49/49 50/50/50
f 55/55/55 50/50/50 56/56/56
f 57/57/57 51/51/51 49/49/49
f 57/57/57 49/49/49 55/55/55
f 58/58/58 52/52/52 51/51/51
f 53/53/53 52/52/52 58/58/58
f 58/58/58 51/51/51 57/57/57
f 54/54/54 53/53/53 59/59/59
f 59/59/59 53/53/53 58/58/58
f 60/60/60 54/54/54 59/59/59
f 61/61/61 55/55/55 56/56/56
f 61/61/61 56/56/56 62/62/62
f 63/63/63 57/57/57 55/55/55
f 63/63/63 55/55/55 61/61/61
f 64/64/64 58/58/58 57/57/57
f 59/59/59 58/58/58 64/64/64
f 64/64/64 57/57/57 63/63/63
f 60/60/60 59/59/59 65/65/65
f 65/65/65 59/59/59 64/64/64
f 66/66/66 60/60/60 65/65/65
f 67/67/67 61/61/61 62/62/62
f 67/67/67 62/62/62 68/68/68
f 69/69/69 63/63/63 61/61/61
f 69/69/69 61/61/61 67/67/67
f 70/70/70 64/64/64 63/63/63
f 65/65/65 64/64/64 70/70/70
f 70/70/70 63/63/63 69/69/69
f 66/66/66 65/65/65 71/71/71
f 71/71/71 65/65/65 70/70/70
f 72/72/72 66/66/66 71/71/71
f 73/73/73 70/70/70 69/69/69
f 71/71/71 70/70/70 73/73/73
f 72/72/72 71/71/71 74/74/74
f 74/74/74 71/71/71 73/73/73
f 75/75/75 72/72/72 74/74/74
f 76/76/76 69/69/69 67/67/67
f 73/73/73 69/69/69 76/76/76
f 74/74/74 73/73/73 77/77/77
f 77/77/77 73/73/73 76/76/76
f 75/75/75 74/74/74 78/78/78
f 78/78/78 74/74/74 77/77/77
f 79/79/79 75/75/75 78/78/78
f 76/76/76 67/67/67 80/80/80
f 80/80/80 67/67/67 68/68/68
f 77/77/77 76/76/76 81/81/81
f 81/81/81 76/76/76 80/80/80
f 78/78/78 77/77/77 82/82/82
f 82/82/82 77/77/77 81/81/81
f 79/79/79 78/78/78 83/83/83
f 83/83/83 78/78/78 82/82/82
f 84/84/84 79/79/79 83/83/83
f 80/80/80 68/68/68 85/85/85
f 81/81/81 80/80/80 86/86/86
f 86/86/86 80/80/80 85/85/85
f 82/82/82 81/81/81 87/87/87
f 87/87/87 81/81/81 86/86/86
f 83/83/83 82/82/82 88/88/88
f 88/88/88 82/82/82 87/87/87
f 84/84/84 83/83/83 89/89/89
f 89/89/89 83/83/83 88/88/88
f 85/85/85 68/68/68 90/90/90
f 68/68/68 91/91/91 90/90/90
f 92/92/92 84/84/84 89/89/89
f 93/93/93 84/84/84 92/92/92
f 90/90/90 91/91/91 94/94/94
f 91/91/91 95/95/95 94/94/94
f 96/96/96 93/93/93 92/92/92
f 97/97/97 93/93/93 96/96/96
f 94/94/94 95/95/95 98/98/98
f 95/95/95 99/99/99 98/98/98
f 100/100/100 97/97/97 96/96/96
f 101/101/101 97/97/97 100/100/100
f 98/98/98 99/99/99 102/102/102
f 99/99/99 103/103/103 102/102/102
f 102/102/102 103/103/103 104/104/104
f 103/103/103 105/105/105 104/104/104
f 102/102/102 104/104/104 106/106/106
f 107/107/107 102/102/102 106/106/106
f 98/98/98 102/102/102 107/107/107
f 107/107/107 106/106/106 108/108/108
f 109/109/109 107/107/107 108/108/108
f 110/110/110 98/98/98 107/107/107
f 110/110/110 107/107/107 109/109/109
f 94/94/94 98/98/98 110/110/110
f 111/111/111 110/110/110 109/109/109
f 112/112/112 94/94/94 110/110/110
f 112/112/112 110/110/110 111/111/111
f 90/90/90 94/94/94 112/112/112
f 113/113/113 112/112/112 111/111/111
f 114/114/114 90/90/90 112/112/112
f 114/114/114 112/112/112 113/113/113
f 85/85/85 90/90/90 114/114/114
f 115/115/115 114/114/114 113/113/113
f 116/116/116 85/85/85 114/114/114
f 116/116/116 114/114/114 115/115/115
f 86/86/86 85/85/85 116/116/116
f 117/117/117 116/116/116 115/115/115
f 118/118/118 86/86/86 116/116/116
f 118/118/118 116/116/116 117/117/117
f 87/87/87 86/86/86 118/118/118
f 119/119/119 118/118/118 117/117/117
f 120/120/120 87/87/87 118/118/118
f 120/120/120 118/118/118 119/119/119
f 88/88/88 87/87/87 120/120/120
f 121/121/121 120/120/120 119/119/119
f 122/122/122 88/88/88 120/120/120
f 122/122/122 120/120/120 121/121/121
f 89/89/89 88/88/88 122/122/122
f 123/123/123 122/122/122 121/121/121
f 124/124/124 89/89/89 122/122/122
f 124/124/124 122/122/122 123/123/123
f 92/92/92 89/89/89 124/124/124
f 125/125/125 124/124/124 123/123/123
f 126/126/126 92/92/92 124/124/124
f 126/126/126 124/124/124 125/125/125
f 96/96/96 92/92/92 126/126/126
f 127/127/127 126/126/126 125/125/125
f 128/128/128 96/96/96 126/126/126
f 128/128/128 126/126/126 127/127/127
f 129/129/129 128/128/128 127/127/127
f 100/100/100 96/96/96 128/128/128
f 130/130/130 128/128/128 129/129/129
f 130/130/130 100/100/100 128/128/128
f 131/131/131 130/130/130 129/129/129
f 132/132/132 100/100/100 130/130/130
f 132/132/132 101/101/101 100/100/100
f 133/133/133 101/101/101 132/132/132
f 134/134/134 130/130/130 131/131/131
f 134/134/134 132/132/132 130/130/130
f 135/135/135 134/134/134 131/131/131
f 136/136/136 133/133/133 132/132/132
f 136/136/136 132/132/132 134/134/134
f 137/137/137 133/133/133 136/136/136
f 138/138/138 137/137/137 136/136/136
f 139/139/139 134/134/134 135/135/135
f 139/139/139 136/136/136 134/134/134
f 138/138/138 136/136/136 139/139/139
f 140/140/140 139/139/139 135/135/135
f 141/141/141 138/138/138 139/139/139
f 141/141/141 139/139/139 140/140/140
f 142/142/142 141/141/141 140/140/140
