g ruinBlock03
v -0.9300032 0.06944412 -1.038303
v -1.046085 0.06944412 -0.9189384
v -0.9300032 -0.02643112 -0.9189384
v 0.9566278 0.06944412 -1.041796
v -0.9300032 0.06944412 -1.038303
v 0.9566278 -0.02642883 -0.9189384
v 1.046096 0.06944412 -0.9189384
v 0.9566278 1.964172 -1.038947
v 1.046099 1.964172 -0.9189384
v 0.9566278 2.065755 -0.9189384
v -0.9300032 1.964172 -1.059504
v -0.9300032 0.06944412 -1.038303
v -0.9300032 1.964172 -1.059504
v -0.9300032 2.06576 -0.9189384
v -0.9300032 1.964172 1.050386
v -1.016851 1.964172 0.9514976
v -0.9300032 2.037464 0.9514976
v 0.9566278 1.964172 1.059504
v -0.9300032 1.964172 1.050386
v 0.9566278 2.065759 0.9514976
v 1.037742 1.964172 0.9514976
v 0.9566278 0.06944412 1.015042
v 1.040967 0.06944412 0.9514976
v 0.9566278 -0.001413116 0.9514976
v -0.9300032 0.06944412 1.050393
v -0.9300032 1.964172 1.050386
v -0.9300032 0.06944412 1.050393
v -0.9300032 -0.02463135 0.9514976
v -1.023274 0.06944412 0.9514976
v -0.9300032 1.964172 1.050386
v -1.016851 1.964172 0.9514976
v 0.9566278 -0.02642883 -0.9189384
v -0.9300032 -0.02643112 -0.9189384
v -0.9300032 -0.02463135 0.9514976
v 0.9566278 -0.001413116 0.9514976
v -0.9300032 -0.02463135 0.9514976
v -0.9300032 -0.02643112 -0.9189384
v -1.046085 0.06944412 -0.9189384
v -1.023274 0.06944412 0.9514976
v -0.9300032 0.06944412 -1.038303
v -1.046085 1.964172 -0.9189384
v -1.046085 0.06944412 -0.9189384
v -0.9300032 1.964172 -1.059504
v -0.9300032 2.06576 -0.9189384
v 0.9566278 2.065755 -0.9189384
v -0.9300032 2.037464 0.9514976
v -0.9300032 2.06576 -0.9189384
v 0.9566278 2.065759 0.9514976
v 1.046099 1.964172 -0.9189384
v 1.037742 1.964172 0.9514976
v -0.9300032 2.06576 -0.9189384
v -0.9300032 2.037464 0.9514976
v -1.016851 1.964172 0.9514976
v -1.046085 1.964172 -0.9189384
v 0.9566278 -0.02642883 -0.9189384
v 0.9566278 -0.001413116 0.9514976
v 1.040967 0.06944412 0.9514976
v 1.046096 0.06944412 -0.9189384
v -1.046085 0.06944412 -0.9189384
v -1.046085 1.964172 -0.9189384
v -1.016851 1.964172 0.9514976
v -1.023274 0.06944412 0.9514976
v 1.037742 1.964172 0.9514976
v 1.046099 1.964172 -0.9189384
v 1.046096 0.06944412 -0.9189384
v 1.040967 0.06944412 0.9514976
vt 0.465436 0.092755
vt 0.462996 0.080403
vt 0.454463 0.089047
vt 0.45856 0.233768
vt 0.465436 0.092755
vt 0.447305 0.236997
vt 0.454831 0.244503
vt 0.599436 0.240421
vt 0.602064 0.251454
vt 0.610572 0.244521
vt 0.606363 0.100113
vt 0.465436 0.092755
vt 0.606363 0.100113
vt 0.618887 0.097118
vt 0.175215 0.094406
vt 0.172683 0.084877
vt 0.166445 0.091363
vt 0.169184 0.234717
vt 0.175215 0.094406
vt 0.158396 0.237279
vt 0.166159 0.244301
vt 0.311824 0.24183
vt 0.312864 0.249784
vt 0.318888 0.243426
vt 0.316725 0.099318
vt 0.175215 0.094406
vt 0.316725 0.099318
vt 0.326704 0.097413
vt 0.319489 0.08951
vt 0.175215 0.094406
vt 0.172683 0.084877
vt 0.925849 0.847146
vt 0.781815 0.847196
vt 0.781814 0.989992
vt 0.925867 0.989967
vt 0.484428 0.8462099
vt 0.487887 0.703478
vt 0.47639 0.703237
vt 0.474312 0.845959
vt 0.465436 0.092755
vt 0.610839 0.087413
vt 0.462996 0.080403
vt 0.606363 0.100113
vt 0.618887 0.097118
vt 0.175103 0.701794
vt 0.320313 0.843686
vt 0.319586 0.700941
vt 0.176066 0.844586
vt 0.16476 0.701878
vt 0.166135 0.8446441
vt 0.319586 0.700941
vt 0.320313 0.843686
vt 0.329032 0.843766
vt 0.331422 0.701052
vt 0.01 0.703433
vt 0.013055 0.8462099
vt 0.021464 0.846096
vt 0.020013 0.703321
vt 0.47639 0.703237
vt 0.331422 0.701052
vt 0.329032 0.843766
vt 0.474312 0.845959
vt 0.166135 0.8446441
vt 0.16476 0.701878
vt 0.020013 0.703321
vt 0.021464 0.846096
vn -0.1061586 -0.1152833 -0.9876437
vn -0.9882664 -0.1084048 -0.1076005
vn -0.0715659 -0.9943433 -0.07848376
vn 0.1200515 -0.115733 -0.9859987
vn -0.0009351991 -0.1205126 -0.9927114
vn 0.08059575 -0.9936274 -0.07879743
vn 0.9930367 -0.08350017 -0.08310116
vn 0.1192622 0.1091579 -0.986844
vn 0.9934171 0.07957525 -0.08240198
vn 0.09943317 0.9905261 -0.0947161
vn 0.005392162 0.1126687 -0.993618
vn -0.1093467 -0.005290034 -0.9939896
vn -0.108275 0.1120786 -0.9877829
vn 0.0005324851 0.9953614 -0.09620494
vn -0.07613625 0.07937016 0.9939334
vn -0.9902839 0.09444003 0.1020732
vn -0.08032802 0.9926881 0.09009983
vn 0.0954402 0.07808759 0.9923677
vn -0.0001375934 0.08515326 0.9963678
vn 0.09773729 0.9907566 0.09406807
vn 0.9936651 0.07369221 0.08484735
vn 0.08951981 -0.07179559 0.993394
vn 0.9940789 -0.07442448 0.07917139
vn 0.07699525 -0.9947877 0.06685261
vn 0.01289638 -0.09209158 0.995667
vn -0.08805902 1.853417E-05 0.9961152
vn -0.07605843 -0.08845738 0.9931719
vn -0.06774313 -0.9947054 0.07727946
vn -0.9892135 -0.1053166 0.101809
vn -0.07613625 0.07937016 0.9939334
vn -0.9935893 0.001694189 0.1130373
vn 0.08564842 -0.9963033 0.006629894
vn -0.0001002598 -0.9967769 -0.08022325
vn -0.06774313 -0.9947054 0.07727946
vn 0.07699525 -0.9947877 0.06685261
vn -0.06774313 -0.9947054 0.07727946
vn -0.0715659 -0.9943433 -0.07848376
vn -0.9882664 -0.1084048 -0.1076005
vn -0.9932667 -0.1156891 0.006113637
vn -0.1061586 -0.1152833 -0.9876437
vn -0.9885663 0.1021625 -0.1109031
vn -0.9939155 -0.0006070096 -0.1101432
vn -0.108275 0.1120786 -0.9877829
vn -0.08724868 0.9913636 -0.09790676
vn 0.09943317 0.9905261 -0.0947161
vn -0.0076856 0.9953421 0.09609874
vn -0.09640955 0.995307 0.008308021
vn 0.09773729 0.9907566 0.09406807
vn 0.9934171 0.07957525 -0.08240198
vn 0.9936651 0.07369221 0.08484735
vn -0.08724868 0.9913636 -0.09790676
vn -0.08032802 0.9926881 0.09009983
vn -0.9902839 0.09444003 0.1020732
vn -0.993432 0.114104 0.008556073
vn 0.08059575 -0.9936274 -0.07879743
vn 0.07699525 -0.9947877 0.06685261
vn 0.9940789 -0.07442448 0.07917139
vn 0.9961373 -0.08770546 0.004259232
vn -0.9882664 -0.1084048 -0.1076005
vn -0.9885663 0.1021625 -0.1109031
vn -0.9902839 0.09444003 0.1020732
vn -0.9892135 -0.1053166 0.101809
vn 0.996555 0.0001065721 0.0829354
vn 0.9967834 0.08001628 0.004499021
vn 0.9963521 0.0002251205 -0.0853378
vn 0.9940789 -0.07442448 0.07917139
g ruinBlock03_0
f 3/3/3 2/2/2 1/1/1
f 5/5/5 4/4/4 3/3/3
f 4/4/4 6/6/6 3/3/3
f 4/4/4 7/7/7 6/6/6
f 4/4/4 8/8/8 7/7/7
f 8/8/8 9/9/9 7/7/7
f 10/10/10 9/9/9 8/8/8
f 11/11/11 8/8/8 4/4/4
f 12/12/12 11/11/11 4/4/4
f 10/10/10 8/8/8 13/13/13
f 14/14/14 10/10/10 13/13/13
f 17/17/17 16/16/16 15/15/15
f 19/19/19 18/18/18 17/17/17
f 18/18/18 20/20/20 17/17/17
f 18/18/18 21/21/21 20/20/20
f 18/18/18 22/22/22 21/21/21
f 22/22/22 23/23/23 21/21/21
f 24/24/24 23/23/23 22/22/22
f 25/25/25 22/22/22 18/18/18
f 26/26/26 25/25/25 18/18/18
f 24/24/24 22/22/22 27/27/27
f 28/28/28 24/24/24 27/27/27
f 27/27/27 29/29/29 28/28/28
f 29/29/29 27/27/27 30/30/30
f 31/31/31 29/29/29 30/30/30
f 34/34/34 33/33/33 32/32/32
f 35/35/35 34/34/34 32/32/32
f 38/38/38 37/37/37 36/36/36
f 39/39/39 38/38/38 36/36/36
f 42/42/42 41/41/41 40/40/40
f 41/41/41 43/43/43 40/40/40
f 43/43/43 41/41/41 44/44/44
f 47/47/47 46/46/46 45/45/45
f 46/46/46 48/48/48 45/45/45
f 45/45/45 48/48/48 49/49/49
f 48/48/48 50/50/50 49/49/49
f 53/53/53 52/52/52 51/51/51
f 54/54/54 53/53/53 51/51/51
f 57/57/57 56/56/56 55/55/55
f 58/58/58 57/57/57 55/55/55
f 61/61/61 60/60/60 59/59/59
f 62/62/62 61/61/61 59/59/59
f 65/65/65 64/64/64 63/63/63
f 66/66/66 65/65/65 63/63/63
