g ruinWall01_LOD1
v -5.750024 6 0.250025
v -4 5.750025 0.5
v -5.750024 5.750025 0.5
v -4 6 0.250025
v 0 5.750025 0.5
v -4 6 -0.250025
v -5.750024 6 -0.250025
v -5.750024 5.750025 -0.5
v -4 5.750025 -0.5
v 0 6 0.250025
v 4 5.750025 0.5
v 0 6 -0.250025
v 0 5.750025 -0.5
v 4 6 0.250025
v 5.750024 5.750025 0.5
v 5.750024 6 0.250025
v 5.750024 6 -0.250025
v 4 6 -0.250025
v 4 5.750025 -0.5
v 5.750024 5.750025 -0.5
v -6 0.2610981 0.250025
v -5.750024 2 0.5
v -5.750024 0.2610981 0.5
v -6 2 0.250025
v -5.750024 4 0.5
v -6 4 0.250025
v -5.750024 5.750025 0.5
v -6 2 -0.250025
v -6 5.750025 0.250025
v -5.750024 6 0.250025
v -5.750024 6 -0.250025
v -6 4 -0.250025
v -6 5.750025 -0.250025
v -5.750024 5.750025 -0.5
v -5.750024 4 -0.5
v -5.750024 2 -0.5
v -5.750024 0.2610981 -0.5
v -6 0.2610981 -0.250025
v -6.264409 0 -0.3615828
v -6.264409 0 0.3615828
v 5.750024 2 -0.5
v 5.750024 0.2610981 -0.5
v 5.999999 0.2610981 -0.250025
v 5.999999 2 -0.250025
v 5.750024 4 -0.5
v 5.999999 4 -0.250025
v 5.750024 5.750025 -0.5
v 5.999999 2 0.250025
v 5.999999 5.750025 -0.250025
v 5.750024 6 -0.250025
v 5.750024 6 0.250025
v 5.999999 4 0.250025
v 5.999999 5.750025 0.250025
v 5.750024 5.750025 0.5
v 5.750024 4 0.5
v 5.750024 2 0.5
v 5.750024 0.2610981 0.5
v 5.999999 0.2610981 0.250025
v 6.264407 0 0.3615828
v 6.264407 0 -0.3615828
v -5.750024 4 0.5
v -5.750024 5.750025 0.5
v -4 5.750025 0.5
v -4 4 0.5
v -5.750024 2 0.5
v 0 4 0.5
v 0 5.750025 0.5
v 4 4 0.5
v 4 5.750025 0.5
v 5.750024 5.750025 0.5
v 5.750024 4 0.5
v 4 2 0.5
v 5.750024 2 0.5
v 0 2 0.5
v 4 0.2610981 0.5
v 5.750024 0.2610981 0.5
v -4 2 0.5
v 0 0.2610981 0.5
v -4 0.2610981 0.5
v -5.750024 0.2610981 0.5
v 4 0 0.7230932
v 5.750024 0 0.7230932
v 5.999999 0.2610981 0.250025
v 6.264407 0 0.3615828
v 0 0 0.7230932
v -4 0 0.7230932
v -5.750024 0 0.7230932
v -6.264409 0 0.3615828
v -6 0.2610981 0.250025
v 4 5.750025 -0.5
v 5.750024 4 -0.5
v 5.750024 5.750025 -0.5
v 4 4 -0.5
v 5.750024 2 -0.5
v 0 4 -0.5
v 0 5.750025 -0.5
v 4 2 -0.5
v 5.750024 0.2610981 -0.5
v 0 2 -0.5
v -4 4 -0.5
v -4 5.750025 -0.5
v -5.750024 5.750025 -0.5
v -5.750024 4 -0.5
v -4 2 -0.5
v -5.750024 2 -0.5
v 4 0.2610981 -0.5
v -4 0.2610981 -0.5
v -5.750024 0.2610981 -0.5
v 0 0.2610981 -0.5
v 5.750024 0 -0.7230932
v 6.264407 0 -0.3615828
v 5.999999 0.2610981 -0.250025
v 4 0 -0.7230932
v 0 0 -0.7230932
v -4 0 -0.7230932
v -5.750024 0 -0.7230932
v -6 0.2610981 -0.250025
v -6.264409 0 -0.3615828
vt 1.112428 1.057548
vt 1.081586 0.8416343
vt 1.081586 1.057548
vt 1.112428 0.8416343
vt 1.081586 0.3481238
vt 1.174123 0.8416343
vt 1.174123 1.057548
vt 1.204964 1.057548
vt 1.204964 0.8416343
vt 1.112428 0.3481238
vt 1.081586 -0.1453868
vt 1.174123 0.3481238
vt 1.204964 0.3481238
vt 1.112428 -0.1453868
vt 1.081586 -0.3613008
vt 1.112428 -0.3613008
vt 1.174123 -0.3613008
vt 1.174123 -0.1453868
vt 1.204964 -0.1453868
vt 1.204964 -0.3613008
vt 1.308911 -0.3290871
vt 1.339752 -0.1145454
vt 1.339752 -0.3290871
vt 1.308911 -0.1145454
vt 1.339752 0.1322098
vt 1.308911 0.1322098
vt 1.339752 0.3481239
vt 1.247216 -0.1145454
vt 1.308911 0.3481239
vt 1.308911 0.3789651
vt 1.247216 0.3789651
vt 1.247216 0.1322098
vt 1.247216 0.3481239
vt 1.216374 0.3481239
vt 1.216374 0.1322098
vt 1.216374 -0.1145454
vt 1.216374 -0.3290871
vt 1.247216 -0.3290871
vt 1.233452 -0.3613008
vt 1.322675 -0.3613008
vt 1.36111 0.6326215
vt 1.36111 0.4180799
vt 1.330268 0.4180799
vt 1.330268 0.6326215
vt 1.36111 0.8793769
vt 1.330268 0.8793769
vt 1.36111 1.095291
vt 1.268573 0.6326215
vt 1.330268 1.095291
vt 1.330268 1.126132
vt 1.268573 1.126132
vt 1.268573 0.8793769
vt 1.268573 1.095291
vt 1.237732 1.095291
vt 1.237732 0.8793769
vt 1.237732 0.6326215
vt 1.237732 0.4180799
vt 1.268573 0.4180799
vt 1.25481 0.3858663
vt 1.344032 0.3858663
vt 0.1325291 1.121012
vt 0.3484431 1.121012
vt 0.3484431 0.9050978
vt 0.1325291 0.9050978
vt -0.1142263 1.121012
vt 0.1325291 0.4115872
vt 0.3484431 0.4115872
vt 0.1325291 -0.0819234
vt 0.3484431 -0.0819234
vt 0.3484431 -0.2978373
vt 0.1325291 -0.2978373
vt -0.1142263 -0.0819234
vt -0.1142263 -0.2978373
vt -0.1142263 0.4115872
vt -0.3287679 -0.0819234
vt -0.3287679 -0.2978373
vt -0.1142263 0.9050978
vt -0.3287679 0.4115872
vt -0.3287679 0.9050978
vt -0.3287679 1.121012
vt -0.3609816 -0.0819234
vt -0.3609816 -0.2978373
vt -0.3287679 -0.3286787
vt -0.3609816 -0.3613008
vt -0.3609816 0.4115872
vt -0.3609816 0.9050978
vt -0.3609816 1.121012
vt -0.3609816 1.184475
vt -0.3287679 1.151853
vt 0.360471 -0.08192357
vt 0.576385 -0.2978375
vt 0.360471 -0.2978375
vt 0.576385 -0.08192357
vt 0.8231403 -0.2978375
vt 0.576385 0.4115871
vt 0.360471 0.4115871
vt 0.8231403 -0.08192357
vt 1.037682 -0.2978375
vt 0.8231403 0.4115871
vt 0.576385 0.9050977
vt 0.360471 0.9050977
vt 0.360471 1.121012
vt 0.576385 1.121012
vt 0.8231403 0.9050977
vt 0.8231403 1.121012
vt 1.037682 -0.08192357
vt 1.037682 0.9050977
vt 1.037682 1.121012
vt 1.037682 0.4115871
vt 1.069896 -0.2978375
vt 1.069896 -0.3613008
vt 1.037682 -0.3286788
vt 1.069896 -0.08192357
vt 1.069896 0.4115871
vt 1.069896 0.9050977
vt 1.069896 1.121012
vt 1.037682 1.151853
vt 1.069896 1.184475
vn -0.09496265 0.9496937 0.2984357
vn 0 0.1240225 0.9922794
vn -0.1142573 0.1142572 0.986859
vn 0 0.9486962 0.3161891
vn 0 0.1240225 0.9922794
vn 0 0.9486962 -0.3161891
vn -0.09496265 0.9496937 -0.2984357
vn -0.1142573 0.1142572 -0.986859
vn 0 0.1240225 -0.9922794
vn 0 0.9486963 0.316189
vn 0 0.1240225 0.9922794
vn 0 0.9486963 -0.316189
vn 0 0.1240225 -0.9922794
vn 0 0.9486963 0.316189
vn 0.1142573 0.1142572 0.986859
vn 0.09496269 0.9496939 0.2984353
vn 0.09496269 0.9496939 -0.2984353
vn 0 0.9486963 -0.316189
vn 0 0.1240225 -0.9922794
vn 0.1142573 0.1142572 -0.986859
vn -0.9283265 0.1840982 0.3229827
vn -0.1240225 0 0.9922794
vn -0.1303238 0.1273565 0.9832579
vn -0.9486958 0 0.3161905
vn -0.1240225 0 0.9922794
vn -0.9486958 0 0.3161905
vn -0.1142573 0.1142572 0.986859
vn -0.9486958 0 -0.3161905
vn -0.9496934 0.09496298 0.2984368
vn -0.09496265 0.9496937 0.2984357
vn -0.09496265 0.9496937 -0.2984357
vn -0.9486958 0 -0.3161905
vn -0.9496934 0.09496298 -0.2984368
vn -0.1142573 0.1142572 -0.986859
vn -0.1240225 0 -0.9922794
vn -0.1240225 0 -0.9922794
vn -0.1303238 0.1273565 -0.9832579
vn -0.9283265 0.1840982 -0.3229827
vn -0.6489499 0.7171128 -0.2541915
vn -0.6489499 0.7171128 0.2541915
vn 0.1240226 0 -0.9922794
vn 0.1303239 0.1273564 -0.9832579
vn 0.9283266 0.1840978 -0.3229825
vn 0.9486958 0 -0.3161905
vn 0.1240226 0 -0.9922794
vn 0.9486958 0 -0.3161905
vn 0.1142573 0.1142572 -0.986859
vn 0.9486958 0 0.3161905
vn 0.9496934 0.09496306 -0.2984368
vn 0.09496269 0.9496939 -0.2984353
vn 0.09496269 0.9496939 0.2984353
vn 0.9486958 0 0.3161905
vn 0.9496934 0.09496306 0.2984368
vn 0.1142573 0.1142572 0.986859
vn 0.1240226 0 0.9922794
vn 0.1240226 0 0.9922794
vn 0.1303239 0.1273564 0.9832579
vn 0.9283266 0.1840978 0.3229825
vn 0.6489507 0.7171119 0.2541917
vn 0.6489508 0.7171118 -0.2541919
vn -0.1240225 0 0.9922794
vn -0.1142573 0.1142572 0.986859
vn 0 0.1240225 0.9922794
vn 0 0 1
vn -0.1240225 0 0.9922794
vn 0 0 1
vn 0 0.1240225 0.9922794
vn 0 0 1
vn 0 0.1240225 0.9922794
vn 0.1142573 0.1142572 0.986859
vn 0.1240226 0 0.9922794
vn 0 0 1
vn 0.1240226 0 0.9922794
vn 0 0 1
vn 0 0.110859 0.9938361
vn 0.1303239 0.1273564 0.9832579
vn 0 0 1
vn 0 0.110859 0.9938361
vn 0 0.110859 0.9938361
vn -0.1303238 0.1273565 0.9832579
vn 0 0.649607 0.7602702
vn 0.08475886 0.6589181 0.7474243
vn 0.9283266 0.1840978 0.3229825
vn 0.6489507 0.7171119 0.2541917
vn 0 0.649607 0.7602702
vn 0 0.649607 0.7602702
vn -0.08475886 0.658918 0.7474242
vn -0.6489499 0.7171128 0.2541915
vn -0.9283265 0.1840982 0.3229827
vn 0 0.1240225 -0.9922794
vn 0.1240226 0 -0.9922794
vn 0.1142573 0.1142572 -0.986859
vn 0 0 -1
vn 0.1240226 0 -0.9922794
vn 0 0 -1
vn 0 0.1240225 -0.9922794
vn 0 0 -1
vn 0.1303239 0.1273564 -0.9832579
vn 0 0 -1
vn 0 0 -1
vn 0 0.1240225 -0.9922794
vn -0.1142573 0.1142572 -0.986859
vn -0.1240225 0 -0.9922794
vn 0 0 -1
vn -0.1240225 0 -0.9922794
vn 0 0.110859 -0.9938361
vn 0 0.110859 -0.9938361
vn -0.1303238 0.1273565 -0.9832579
vn 0 0.110859 -0.9938361
vn 0.08475892 0.658918 -0.7474243
vn 0.6489508 0.7171118 -0.2541919
vn 0.9283266 0.1840978 -0.3229825
vn 0 0.649607 -0.7602702
vn 0 0.649607 -0.7602702
vn 0 0.649607 -0.7602702
vn -0.08475886 0.658918 -0.7474242
vn -0.9283265 0.1840982 -0.3229827
vn -0.6489499 0.7171128 -0.2541915
g ruinWall01_LOD1_0
f 3/3/3 2/2/2 1/1/1
f 2/2/2 4/4/4 1/1/1
f 2/2/2 5/5/5 4/4/4
f 4/4/4 6/6/6 1/1/1
f 6/6/6 7/7/7 1/1/1
f 7/7/7 6/6/6 8/8/8
f 6/6/6 9/9/9 8/8/8
f 5/5/5 10/10/10 4/4/4
f 4/4/4 10/10/10 6/6/6
f 5/5/5 11/11/11 10/10/10
f 6/6/6 12/12/12 9/9/9
f 10/10/10 12/12/12 6/6/6
f 12/12/12 13/13/13 9/9/9
f 11/11/11 14/14/14 10/10/10
f 10/10/10 14/14/14 12/12/12
f 11/11/11 15/15/15 14/14/14
f 15/15/15 16/16/16 14/14/14
f 16/16/16 17/17/17 14/14/14
f 12/12/12 18/18/18 13/13/13
f 14/14/14 18/18/18 12/12/12
f 17/17/17 18/18/18 14/14/14
f 18/18/18 19/19/19 13/13/13
f 18/18/18 17/17/17 19/19/19
f 17/17/17 20/20/20 19/19/19
f 23/23/23 22/22/22 21/21/21
f 22/22/22 24/24/24 21/21/21
f 22/22/22 25/25/25 24/24/24
f 25/25/25 26/26/26 24/24/24
f 26/26/26 25/25/25 27/27/27
f 21/21/21 24/24/24 28/28/28
f 24/24/24 26/26/26 28/28/28
f 29/29/29 26/26/26 27/27/27
f 27/27/27 30/30/30 29/29/29
f 30/30/30 31/31/31 29/29/29
f 26/26/26 29/29/29 32/32/32
f 26/26/26 32/32/32 28/28/28
f 31/31/31 33/33/33 29/29/29
f 29/29/29 33/33/33 32/32/32
f 31/31/31 34/34/34 33/33/33
f 34/34/34 35/35/35 33/33/33
f 35/35/35 32/32/32 33/33/33
f 35/35/35 36/36/36 32/32/32
f 36/36/36 28/28/28 32/32/32
f 36/36/36 37/37/37 28/28/28
f 37/37/37 38/38/38 28/28/28
f 38/38/38 21/21/21 28/28/28
f 38/38/38 39/39/39 21/21/21
f 39/39/39 40/40/40 21/21/21
f 43/43/43 42/42/42 41/41/41
f 44/44/44 43/43/43 41/41/41
f 44/44/44 41/41/41 45/45/45
f 46/46/46 44/44/44 45/45/45
f 46/46/46 45/45/45 47/47/47
f 43/43/43 44/44/44 48/48/48
f 44/44/44 46/46/46 48/48/48
f 49/49/49 46/46/46 47/47/47
f 50/50/50 49/49/49 47/47/47
f 49/49/49 50/50/50 51/51/51
f 46/46/46 49/49/49 52/52/52
f 46/46/46 52/52/52 48/48/48
f 53/53/53 49/49/49 51/51/51
f 49/49/49 53/53/53 52/52/52
f 54/54/54 53/53/53 51/51/51
f 54/54/54 55/55/55 53/53/53
f 55/55/55 52/52/52 53/53/53
f 52/52/52 55/55/55 56/56/56
f 48/48/48 52/52/52 56/56/56
f 48/48/48 56/56/56 57/57/57
f 58/58/58 48/48/48 57/57/57
f 58/58/58 43/43/43 48/48/48
f 58/58/58 59/59/59 43/43/43
f 59/59/59 60/60/60 43/43/43
f 63/63/63 62/62/62 61/61/61
f 64/64/64 63/63/63 61/61/61
f 64/64/64 61/61/61 65/65/65
f 64/64/64 66/66/66 63/63/63
f 66/66/66 67/67/67 63/63/63
f 66/66/66 68/68/68 67/67/67
f 68/68/68 69/69/69 67/67/67
f 70/70/70 69/69/69 68/68/68
f 71/71/71 70/70/70 68/68/68
f 71/71/71 68/68/68 72/72/72
f 72/72/72 68/68/68 66/66/66
f 73/73/73 71/71/71 72/72/72
f 74/74/74 66/66/66 64/64/64
f 74/74/74 72/72/72 66/66/66
f 73/73/73 72/72/72 75/75/75
f 75/75/75 72/72/72 74/74/74
f 76/76/76 73/73/73 75/75/75
f 77/77/77 64/64/64 65/65/65
f 77/77/77 74/74/74 64/64/64
f 78/78/78 75/75/75 74/74/74
f 78/78/78 74/74/74 77/77/77
f 79/79/79 77/77/77 65/65/65
f 79/79/79 78/78/78 77/77/77
f 80/80/80 79/79/79 65/65/65
f 76/76/76 75/75/75 81/81/81
f 81/81/81 75/75/75 78/78/78
f 82/82/82 76/76/76 81/81/81
f 83/83/83 76/76/76 82/82/82
f 84/84/84 83/83/83 82/82/82
f 85/85/85 81/81/81 78/78/78
f 85/85/85 78/78/78 79/79/79
f 86/86/86 85/85/85 79/79/79
f 87/87/87 86/86/86 79/79/79
f 80/80/80 87/87/87 79/79/79
f 87/87/87 80/80/80 88/88/88
f 80/80/80 89/89/89 88/88/88
f 92/92/92 91/91/91 90/90/90
f 91/91/91 93/93/93 90/90/90
f 91/91/91 94/94/94 93/93/93
f 90/90/90 93/93/93 95/95/95
f 96/96/96 90/90/90 95/95/95
f 94/94/94 97/97/97 93/93/93
f 94/94/94 98/98/98 97/97/97
f 93/93/93 97/97/97 99/99/99
f 95/95/95 93/93/93 99/99/99
f 96/96/96 95/95/95 100/100/100
f 101/101/101 96/96/96 100/100/100
f 101/101/101 100/100/100 102/102/102
f 100/100/100 103/103/103 102/102/102
f 100/100/100 95/95/95 104/104/104
f 100/100/100 104/104/104 103/103/103
f 95/95/95 99/99/99 104/104/104
f 104/104/104 105/105/105 103/103/103
f 99/99/99 97/97/97 106/106/106
f 98/98/98 106/106/106 97/97/97
f 104/104/104 107/107/107 105/105/105
f 107/107/107 108/108/108 105/105/105
f 104/104/104 99/99/99 109/109/109
f 109/109/109 99/99/99 106/106/106
f 107/107/107 104/104/104 109/109/109
f 98/98/98 110/110/110 106/106/106
f 111/111/111 110/110/110 98/98/98
f 112/112/112 111/111/111 98/98/98
f 110/110/110 113/113/113 106/106/106
f 109/109/109 106/106/106 113/113/113
f 114/114/114 109/109/109 113/113/113
f 107/107/107 109/109/109 114/114/114
f 115/115/115 107/107/107 114/114/114
f 107/107/107 115/115/115 108/108/108
f 115/115/115 116/116/116 108/108/108
f 108/108/108 116/116/116 117/117/117
f 116/116/116 118/118/118 117/117/117
