g ruinPlatform01_COL
v -5.667743 -6.382872 4.375782
v -5.327182 -6.610008 5.590868
v -4.463224 -6.584159 5.564775
v -4.401211 -6.607717 4.417139
v -6.022923 -6.829679 1.455804
v -0.8792589 -6.096382 5.494425
v -4.375179 -7.025727 1.483172
v -5.983405 -6.994108 -1.207392
v -1.421735 -6.585703 4.340881
v 0.6003802 -6.115855 5.541094
v -4.375895 -7.057562 -1.278405
v -5.732346 -6.45684 -3.641743
v -1.444595 -6.469721 1.449935
v 1.461805 -6.726634 4.159494
v 4.442439 -6.226269 5.776522
v -3.616207 -6.524445 -3.642708
v -5.763319 -6.456258 -5.780613
v -1.457829 -6.850907 -1.466823
v 1.455288 -6.522667 1.455407
v 4.384367 -6.086523 4.405654
v 5.874108 -6.142851 5.732939
v 5.933654 -6.212882 4.372994
v 4.390782 -6.768651 1.32087
v 5.987319 -6.680929 1.194209
v -3.58623 -6.511638 -5.627409
v -5.946664 -4.008921 -6.28961
v -1.43562 -6.079399 -4.257632
v 1.456908 -7.014576 -1.387994
v 4.385111 -6.953634 -1.460893
v 5.978804 -6.789142 -1.452236
v -4.501234 -3.803806 -6.197048
v -6.788008 -1.743626 -6.432142
v -1.457472 -5.781453 -5.431324
v 1.443982 -7.060676 -3.977769
v 4.437489 -6.577526 -4.42032
v 5.578254 -6.643435 -4.544587
v -4.450519 -2.219084 -6.72883
v -6.49381 -0.2844402 -6.686597
v -0.4173783 -4.459071 -6.444738
v 1.443163 -6.334625 -5.574763
v 4.391892 -6.435113 -5.646317
v 5.599048 -6.44507 -5.497951
v -4.443403 -0.2945234 -6.857297
v -6.925576 -0.2972597 -4.540522
v -1.499804 -1.911672 -6.805192
v 0.8832493 -4.416829 -6.510677
v 3.56828 -3.602256 -6.64577
v 6.444433 -3.341015 -6.07602
v -4.395893 0.2930923 -4.3911
v -7.373731 -0.1887342 -0.5138464
v -1.4366 -0.2395399 -6.708346
v 1.946543 -2.16143 -7.11585
v 3.760972 -2.171658 -7.006951
v 6.449781 -1.7701 -6.603182
v -4.388904 0.2310186 -1.463216
v -6.912742 -0.1361212 1.363371
v -1.462854 0.17692 -4.384805
v 1.425596 -0.2203534 -6.660405
v 4.424543 -0.3138003 -6.909093
v 6.351979 -0.239345 -6.77909
v -4.388663 0.2161084 1.463412
v -7.091726 -0.2558582 4.606311
v -1.463186 0.2206599 -1.463271
v 1.463275 0.2315079 -4.389426
v 4.387207 0.3241815 -4.38839
v 6.970315 -0.2162539 -4.521546
v -4.389532 0.214342 4.38855
v -6.631767 -0.348366 6.710572
v -1.463267 0.2206887 1.463202
v 1.463242 0.2186899 -1.463223
v 4.387757 0.2144007 -1.462962
v 6.962798 -0.1478376 -1.446528
v 1.463216 0.222629 1.463243
v 4.38885 0.2110678 1.463
v 6.969347 -0.1577508 1.452129
v -1.463389 0.1960462 4.387679
v 1.463022 0.2365749 4.389513
v 4.390943 0.2730983 4.3887
v 6.913344 -0.1479753 4.504552
v -4.366129 -0.4874887 6.707876
v -1.46181 -0.1773661 6.639327
v 1.427793 -0.2272107 6.830309
v 4.557561 -0.1172993 6.891935
v 6.381939 -0.2257397 6.692662
v -6.685779 -1.714628 6.673949
v -4.578163 -2.087234 6.670542
v -1.477459 -1.979152 7.058987
v 1.451626 -1.963124 7.104132
v 4.597718 -1.898365 7.060771
v -7.158498 -1.994274 4.629898
v -7.091726 -0.2558582 4.606311
v 6.68815 -1.629984 6.824261
v 6.913344 -0.1479753 4.504552
v -7.039922 -2.005241 1.455606
v -6.912742 -0.1361212 1.363371
v 7.260962 -1.705068 4.41093
v 6.969347 -0.1577508 1.452129
v -7.557456 -2.052975 -0.5191188
v -7.373731 -0.1887342 -0.5138464
v 7.259655 -1.751438 1.500201
v 6.962798 -0.1478376 -1.446528
v -7.049899 -2.054106 -4.343492
v -6.925576 -0.2972597 -4.540522
v -6.788008 -1.743626 -6.432142
v -6.49381 -0.2844402 -6.686597
v -5.946664 -4.008921 -6.28961
v -6.349931 -3.645653 -4.429068
v -5.763319 -6.456258 -5.780613
v -5.732346 -6.45684 -3.641743
v -6.475412 -3.75306 -1.960735
v -5.983405 -6.994108 -1.207392
v -5.834033 -4.50487 1.409646
v -6.022923 -6.829679 1.455804
v -5.638636 -4.439488 4.329312
v -5.667743 -6.382872 4.375782
v -6.139657 -3.457727 5.950395
v -5.327182 -6.610008 5.590868
v -4.470683 -4.382551 5.663407
v -4.463224 -6.584159 5.564775
v -0.9885651 -4.275187 6.099185
v -0.8792589 -6.096382 5.494425
v 0.7370799 -4.258764 6.081753
v 0.6003802 -6.115855 5.541094
v 3.951783 -4.432412 6.350617
v 4.442439 -6.226269 5.776522
v 5.855999 -4.451243 5.866179
v 5.874108 -6.142851 5.732939
v 5.736382 -4.473427 4.340817
v 5.933654 -6.212882 4.372994
v 6.059096 -4.464965 1.19421
v 5.987319 -6.680929 1.194209
v 7.148098 -1.596448 -1.449461
v 6.970315 -0.2162539 -4.521546
v 6.067727 -4.504863 -1.454328
v 5.978804 -6.789142 -1.452236
v 7.144183 -2.013297 -4.48327
v 6.351979 -0.239345 -6.77909
v 6.449781 -1.7701 -6.603182
v 6.002411 -4.315812 -4.520157
v 5.578254 -6.643435 -4.544587
v 6.444433 -3.341015 -6.07602
v 5.599048 -6.44507 -5.497951
vt 0.375 0.95
vt 0.375 1
vt 0.425 1
vt 0.425 0.95
vt 0.375 0.9
vt 0.475 1
vt 0.425 0.9
vt 0.375 0.85
vt 0.475 0.95
vt 0.525 1
vt 0.425 0.85
vt 0.375 0.8
vt 0.475 0.9
vt 0.525 0.95
vt 0.575 1
vt 0.425 0.8
vt 0.375 0.75
vt 0.475 0.85
vt 0.525 0.9
vt 0.575 0.95
vt 0.6250001 1
vt 0.6250001 0.95
vt 0.575 0.9
vt 0.6250001 0.9
vt 0.425 0.75
vt 0.375 0.6666667
vt 0.475 0.8
vt 0.525 0.85
vt 0.575 0.85
vt 0.6250001 0.85
vt 0.425 0.6666667
vt 0.375 0.5833334
vt 0.475 0.75
vt 0.525 0.8
vt 0.575 0.8
vt 0.6250001 0.8
vt 0.425 0.5833334
vt 0.375 0.5000001
vt 0.475 0.6666667
vt 0.525 0.75
vt 0.575 0.75
vt 0.6250001 0.75
vt 0.425 0.5000001
vt 0.375 0.45
vt 0.475 0.5833334
vt 0.525 0.6666667
vt 0.575 0.6666667
vt 0.6250001 0.6666667
vt 0.425 0.45
vt 0.375 0.4
vt 0.475 0.5000001
vt 0.525 0.5833334
vt 0.575 0.5833334
vt 0.6250001 0.5833334
vt 0.425 0.4
vt 0.375 0.35
vt 0.475 0.45
vt 0.525 0.5000001
vt 0.575 0.5000001
vt 0.6250001 0.5000001
vt 0.425 0.35
vt 0.375 0.3
vt 0.475 0.4
vt 0.525 0.45
vt 0.575 0.45
vt 0.6250001 0.45
vt 0.425 0.3
vt 0.375 0.25
vt 0.475 0.35
vt 0.525 0.4
vt 0.575 0.4
vt 0.6250001 0.4
vt 0.525 0.35
vt 0.575 0.35
vt 0.6250001 0.35
vt 0.475 0.3
vt 0.525 0.3
vt 0.575 0.3
vt 0.6250001 0.3
vt 0.425 0.25
vt 0.475 0.25
vt 0.525 0.25
vt 0.575 0.25
vt 0.6250001 0.25
vt 0.375 0.1666667
vt 0.425 0.1666667
vt 0.475 0.1666667
vt 0.525 0.1666667
vt 0.575 0.1666667
vt 0.325 0.1666667
vt 0.325 0.25
vt 0.6250001 0.1666667
vt 0.675 0.25
vt 0.275 0.1666667
vt 0.275 0.25
vt 0.675 0.1666667
vt 0.725 0.25
vt 0.225 0.1666667
vt 0.225 0.25
vt 0.725 0.1666667
vt 0.775 0.25
vt 0.175 0.1666667
vt 0.175 0.25
vt 0.125 0.1666667
vt 0.125 0.25
vt 0.125 0.08333334
vt 0.175 0.08333334
vt 0.125 0
vt 0.175 0
vt 0.225 0.08333334
vt 0.225 0
vt 0.275 0.08333334
vt 0.275 0
vt 0.325 0.08333334
vt 0.325 0
vt 0.375 0.08333334
vt 0.375 0
vt 0.425 0.08333334
vt 0.425 0
vt 0.475 0.08333334
vt 0.475 0
vt 0.525 0.08333334
vt 0.525 0
vt 0.575 0.08333334
vt 0.575 0
vt 0.6250001 0.08333334
vt 0.6250001 0
vt 0.675 0.08333334
vt 0.675 0
vt 0.725 0.08333334
vt 0.725 0
vt 0.775 0.1666667
vt 0.825 0.25
vt 0.775 0.08333334
vt 0.775 0
vt 0.825 0.1666667
vt 0.875 0.25
vt 0.875 0.1666667
vt 0.825 0.08333334
vt 0.825 0
vt 0.875 0.08333334
vt 0.875 0
vn -0.8883247 -0.4500641 0.09122286
vn -0.5904871 -0.4291426 0.6834922
vn 0.02092206 -0.5183914 0.8548875
vn 0.02296531 -0.9945627 0.1015763
vn -0.8680329 -0.481701 0.1203453
vn -0.01056646 -0.5607061 0.8279474
vn 0.03809806 -0.9966145 0.07285679
vn -0.8268905 -0.5618079 -0.02497894
vn 0.03920521 -0.9959068 0.08143947
vn -0.02768415 -0.6517354 0.7579409
vn 0.04440162 -0.996539 -0.07027482
vn -0.755953 -0.6415094 -0.1303871
vn 0.0397639 -0.9976552 0.05570467
vn 0.02502898 -0.9961271 0.08428759
vn 0.02652182 -0.6794164 0.7332734
vn 0.06297778 -0.9847706 -0.1620516
vn -0.5733628 -0.6115288 -0.5452409
vn -0.004863882 -0.9995993 -0.02788795
vn -0.007933737 -0.9971759 0.07468051
vn 0.04015704 -0.9916107 0.122864
vn 0.6346327 -0.5057132 0.5843761
vn 0.8038829 -0.5851167 0.1068207
vn 0.02383771 -0.9936749 0.1097352
vn 0.7930297 -0.6019973 0.09329111
vn 0.06478506 -0.7295093 -0.6808957
vn -0.6287045 -0.2896527 -0.7216868
vn -0.04495789 -0.9787903 -0.1998705
vn -0.04001055 -0.9989133 0.02390171
vn 0.03965449 -0.9991133 0.01414782
vn 0.8211164 -0.569285 -0.04101811
vn -0.01450087 -0.2399433 -0.9706786
vn -0.7365499 -0.1599287 -0.6572041
vn -0.02422892 -0.6788669 -0.7338616
vn -0.06210594 -0.9845583 -0.1636701
vn 0.05136143 -0.989327 -0.136361
vn 0.8187406 -0.5690212 -0.07667347
vn -0.05126375 -0.1442016 -0.9882196
vn -0.4548371 0.6599623 -0.597974
vn -0.06709859 -0.3180564 -0.9456944
vn -0.05746914 -0.6942603 -0.7174259
vn 0.09223379 -0.5524544 -0.8284245
vn 0.5549425 -0.4293712 -0.712516
vn -0.05661723 0.7110188 -0.70089
vn -0.6318646 0.7672462 -0.1099109
vn -0.04042058 -0.08089115 -0.995903
vn -0.04288138 -0.3315808 -0.9424517
vn 0.09589081 -0.3051611 -0.9474607
vn 0.6252921 -0.3326195 -0.7059562
vn -0.07029775 0.9946472 -0.07573054
vn -0.6585766 0.7525132 -0.0009149425
vn -0.005240856 0.7307039 -0.6826743
vn -0.02448834 -0.04198976 -0.9988179
vn 0.08004151 -0.1061796 -0.9911203
vn 0.6334895 -0.1518871 -0.7586972
vn -0.07847653 0.9969085 -0.003860397
vn -0.5652704 0.8238938 0.04084712
vn 0.004721762 0.9959919 -0.0893193
vn -0.02334308 0.7652164 -0.6433498
vn 0.05853241 0.747428 -0.6617593
vn 0.4540314 0.6629598 -0.5952644
vn -0.06811433 0.9976535 0.006918478
vn -0.6320011 0.7698762 0.08868656
vn 0.003403561 0.9999943 -7.700745E-05
vn -0.01123333 0.9960077 -0.08855723
vn 0.05953791 0.9954501 -0.07439318
vn 0.6261829 0.7722481 -0.107368
vn -0.06635441 0.9935026 0.09246442
vn -0.4053457 0.7103823 0.575371
vn -0.0009800704 0.9999975 0.002051301
vn -0.005347294 0.9999788 0.003719166
vn 0.07142662 0.9974163 0.007676905
vn 0.5796893 0.8148353 -0.001949334
vn -0.002202506 0.9999932 -0.002985009
vn 0.06911435 0.9975936 -0.005494444
vn 0.5642858 0.8255641 -0.005058625
vn -0.01257148 0.9956388 0.09244032
vn -0.01026858 0.9969941 0.07679364
vn 0.05367836 0.9968961 0.05759006
vn 0.579513 0.8113102 0.07707486
vn -0.05794454 0.7345085 0.676121
vn -0.04206085 0.7739146 0.6318917
vn -0.02254027 0.7640797 0.6447279
vn 0.04314762 0.7867124 0.6158099
vn 0.4635198 0.7253001 0.5090081
vn -0.6302432 -0.2459731 0.7364039
vn -0.07165772 -0.2369428 0.9688774
vn -0.0609217 -0.1719703 0.9832166
vn -0.02579791 -0.1381446 0.990076
vn 0.06034186 -0.16581 0.9843099
vn -0.961346 -0.2688836 0.05929209
vn -0.6320011 0.7698762 0.08868656
vn 0.7182874 -0.1934568 0.6683096
vn 0.579513 0.8113102 0.07707486
vn -0.9527745 -0.2963076 0.06650259
vn -0.5652704 0.8238938 0.04084712
vn 0.972966 -0.2141597 0.0864464
vn 0.5642858 0.8255641 -0.005058625
vn -0.9711546 -0.2359253 0.03461159
vn -0.6585766 0.7525132 -0.0009149425
vn 0.9740073 -0.2262819 0.0103004
vn 0.5796893 0.8148353 -0.001949334
vn -0.9776393 -0.1664852 -0.1284678
vn -0.6318646 0.7672462 -0.1099109
vn -0.7365499 -0.1599287 -0.6572041
vn -0.4548371 0.6599623 -0.597974
vn -0.6287045 -0.2896527 -0.7216868
vn -0.9497797 -0.2945573 -0.105615
vn -0.5733628 -0.6115288 -0.5452409
vn -0.755953 -0.6415094 -0.1303871
vn -0.9528003 -0.3031221 -0.01699066
vn -0.8268905 -0.5618079 -0.02497894
vn -0.9664936 -0.2442872 0.07882706
vn -0.8680329 -0.481701 0.1203453
vn -0.9620649 -0.2689926 0.04554397
vn -0.8883247 -0.4500641 0.09122286
vn -0.6213388 -0.4606922 0.6337987
vn -0.5904871 -0.4291426 0.6834922
vn -0.03819829 -0.266531 0.9630691
vn 0.02092206 -0.5183914 0.8548875
vn -0.04465586 -0.3226096 0.9454781
vn -0.01056646 -0.5607061 0.8279474
vn -0.03680812 -0.3356476 0.9412683
vn -0.02768415 -0.6517354 0.7579409
vn 0.01369569 -0.3080544 0.9512701
vn 0.02652182 -0.6794164 0.7332734
vn 0.6941922 -0.3579724 0.6244621
vn 0.6346327 -0.5057132 0.5843761
vn 0.9627709 -0.263155 0.06182038
vn 0.8038829 -0.5851167 0.1068207
vn 0.9676377 -0.2515635 0.0198287
vn 0.7930297 -0.6019973 0.09329111
vn 0.9811926 -0.1926971 -0.01135639
vn 0.6261829 0.7722481 -0.107368
vn 0.9678403 -0.2502404 -0.02578663
vn 0.8211164 -0.569285 -0.04101811
vn 0.9771686 -0.198397 -0.07602856
vn 0.4540314 0.6629598 -0.5952644
vn 0.6334895 -0.1518871 -0.7586972
vn 0.9642593 -0.2638241 -0.02451386
vn 0.8187406 -0.5690212 -0.07667347
vn 0.6252921 -0.3326195 -0.7059562
vn 0.5549425 -0.4293712 -0.712516
g ruinPlatform01_COL_0
f 3/3/3 2/2/2 1/1/1
f 4/4/4 3/3/3 1/1/1
f 4/4/4 1/1/1 5/5/5
f 6/6/6 3/3/3 4/4/4
f 7/7/7 4/4/4 5/5/5
f 7/7/7 5/5/5 8/8/8
f 9/9/9 6/6/6 4/4/4
f 9/9/9 4/4/4 7/7/7
f 10/10/10 6/6/6 9/9/9
f 11/11/11 7/7/7 8/8/8
f 11/11/11 8/8/8 12/12/12
f 13/13/13 9/9/9 7/7/7
f 13/13/13 7/7/7 11/11/11
f 14/14/14 10/10/10 9/9/9
f 14/14/14 9/9/9 13/13/13
f 15/15/15 10/10/10 14/14/14
f 16/16/16 11/11/11 12/12/12
f 16/16/16 12/12/12 17/17/17
f 18/18/18 13/13/13 11/11/11
f 18/18/18 11/11/11 16/16/16
f 19/19/19 14/14/14 13/13/13
f 19/19/19 13/13/13 18/18/18
f 20/20/20 15/15/15 14/14/14
f 20/20/20 14/14/14 19/19/19
f 21/21/21 15/15/15 20/20/20
f 22/22/22 21/21/21 20/20/20
f 22/22/22 20/20/20 23/23/23
f 23/23/23 20/20/20 19/19/19
f 24/24/24 22/22/22 23/23/23
f 25/25/25 16/16/16 17/17/17
f 25/25/25 17/17/17 26/26/26
f 27/27/27 18/18/18 16/16/16
f 27/27/27 16/16/16 25/25/25
f 28/28/28 19/19/19 18/18/18
f 23/23/23 19/19/19 28/28/28
f 28/28/28 18/18/18 27/27/27
f 24/24/24 23/23/23 29/29/29
f 29/29/29 23/23/23 28/28/28
f 30/30/30 24/24/24 29/29/29
f 31/31/31 25/25/25 26/26/26
f 31/31/31 26/26/26 32/32/32
f 33/33/33 27/27/27 25/25/25
f 33/33/33 25/25/25 31/31/31
f 34/34/34 28/28/28 27/27/27
f 29/29/29 28/28/28 34/34/34
f 34/34/34 27/27/27 33/33/33
f 30/30/30 29/29/29 35/35/35
f 35/35/35 29/29/29 34/34/34
f 36/36/36 30/30/30 35/35/35
f 37/37/37 31/31/31 32/32/32
f 37/37/37 32/32/32 38/38/38
f 39/39/39 33/33/33 31/31/31
f 39/39/39 31/31/31 37/37/37
f 40/40/40 34/34/34 33/33/33
f 35/35/35 34/34/34 40/40/40
f 40/40/40 33/33/33 39/39/39
f 36/36/36 35/35/35 41/41/41
f 41/41/41 35/35/35 40/40/40
f 42/42/42 36/36/36 41/41/41
f 43/43/43 37/37/37 38/38/38
f 43/43/43 38/38/38 44/44/44
f 45/45/45 39/39/39 37/37/37
f 45/45/45 37/37/37 43/43/43
f 46/46/46 40/40/40 39/39/39
f 41/41/41 40/40/40 46/46/46
f 46/46/46 39/39/39 45/45/45
f 42/42/42 41/41/41 47/47/47
f 47/47/47 41/41/41 46/46/46
f 48/48/48 42/42/42 47/47/47
f 49/49/49 43/43/43 44/44/44
f 49/49/49 44/44/44 50/50/50
f 51/51/51 45/45/45 43/43/43
f 51/51/51 43/43/43 49/49/49
f 52/52/52 46/46/46 45/45/45
f 47/47/47 46/46/46 52/52/52
f 52/52/52 45/45/45 51/51/51
f 48/48/48 47/47/47 53/53/53
f 53/53/53 47/47/47 52/52/52
f 54/54/54 48/48/48 53/53/53
f 55/55/55 49/49/49 50/50/50
f 55/55/55 50/50/50 56/56/56
f 57/57/57 51/51/51 49/49/49
f 57/57/57 49/49/49 55/55/55
f 58/58/58 52/52/52 51/51/51
f 53/53/53 52/52/52 58/58/58
f 58/58/58 51/51/51 57/57/57
f 54/54/54 53/53/53 59/59/59
f 59/59/59 53/53/53 58/58/58
f 60/60/60 54/54/54 59/59/59
f 61/61/61 55/55/55 56/56/56
f 61/61/61 56/56/56 62/62/62
f 63/63/63 57/57/57 55/55/55
f 63/63/63 55/55/55 61/61/61
f 64/64/64 58/58/58 57/57/57
f 59/59/59 58/58/58 64/64/64
f 64/64/64 57/57/57 63/63/63
f 60/60/60 59/59/59 65/65/65
f 65/65/65 59/59/59 64/64/64
f 66/66/66 60/60/60 65/65/65
f 67/67/67 61/61/61 62/62/62
f 67/67/67 62/62/62 68/68/68
f 69/69/69 63/63/63 61/61/61
f 69/69/69 61/61/61 67/67/67
f 70/70/70 64/64/64 63/63/63
f 65/65/65 64/64/64 70/70/70
f 70/70/70 63/63/63 69/69/69
f 66/66/66 65/65/65 71/71/71
f 71/71/71 65/65/65 70/70/70
f 72/72/72 66/66/66 71/71/71
f 73/73/73 70/70/70 69/69/69
f 71/71/71 70/70/70 73/73/73
f 72/72/72 71/71/71 74/74/74
f 74/74/74 71/71/71 73/73/73
f 75/75/75 72/72/72 74/74/74
f 76/76/76 69/69/69 67/67/67
f 73/73/73 69/69/69 76/76/76
f 74/74/74 73/73/73 77/77/77
f 77/77/77 73/73/73 76/76/76
f 75/75/75 74/74/74 78/78/78
f 78/78/78 74/74/74 77/77/77
f 79/79/79 75/75/75 78/78/78
f 76/76/76 67/67/67 80/80/80
f 80/80/80 67/67/67 68/68/68
f 77/77/77 76/76/76 81/81/81
f 81/81/81 76/76/76 80/80/80
f 78/78/78 77/77/77 82/82/82
f 82/82/82 77/77/77 81/81/81
f 79/79/79 78/78/78 83/83/83
f 83/83/83 78/78/78 82/82/82
f 84/84/84 79/79/79 83/83/83
f 80/80/80 68/68/68 85/85/85
f 81/81/81 80/80/80 86/86/86
f 86/86/86 80/80/80 85/85/85
f 82/82/82 81/81/81 87/87/87
f 87/87/87 81/81/81 86/86/86
f 83/83/83 82/82/82 88/88/88
f 88/88/88 82/82/82 87/87/87
f 84/84/84 83/83/83 89/89/89
f 89/89/89 83/83/83 88/88/88
f 85/85/85 68/68/68 90/90/90
f 68/68/68 91/91/91 90/90/90
f 92/92/92 84/84/84 89/89/89
f 93/93/93 84/84/84 92/92/92
f 90/90/90 91/91/91 94/94/94
f 91/91/91 95/95/95 94/94/94
f 96/96/96 93/93/93 92/92/92
f 97/97/97 93/93/93 96/96/96
f 94/94/94 95/95/95 98/98/98
f 95/95/95 99/99/99 98/98/98
f 100/100/100 97/97/97 96/96/96
f 101/101/101 97/97/97 100/100/100
f 98/98/98 99/99/99 102/102/102
f 99/99/99 103/103/103 102/102/102
f 102/102/102 103/103/103 104/104/104
f 103/103/103 105/105/105 104/104/104
f 102/102/102 104/104/104 106/106/106
f 107/107/107 102/102/102 106/106/106
f 98/98/98 102/102/102 107/107/107
f 107/107/107 106/106/106 108/108/108
f 109/109/109 107/107/107 108/108/108
f 110/110/110 98/98/98 107/107/107
f 110/110/110 107/107/107 109/109/109
f 94/94/94 98/98/98 110/110/110
f 111/111/111 110/110/110 109/109/109
f 112/112/112 94/94/94 110/110/110
f 112/112/112 110/110/110 111/111/111
f 90/90/90 94/94/94 112/112/112
f 113/113/113 112/112/112 111/111/111
f 114/114/114 90/90/90 112/112/112
f 114/114/114 112/112/112 113/113/113
f 85/85/85 90/90/90 114/114/114
f 115/115/115 114/114/114 113/113/113
f 116/116/116 85/85/85 114/114/114
f 116/116/116 114/114/114 115/115/115
f 86/86/86 85/85/85 116/116/116
f 117/117/117 116/116/116 115/115/115
f 118/118/118 86/86/86 116/116/116
f 118/118/118 116/116/116 117/117/117
f 87/87/87 86/86/86 118/118/118
f 119/119/119 118/118/118 117/117/117
f 120/120/120 87/87/87 118/118/118
f 120/120/120 118/118/118 119/119/119
f 88/88/88 87/87/87 120/120/120
f 121/121/121 120/120/120 119/119/119
f 122/122/122 88/88/88 120/120/120
f 122/122/122 120/120/120 121/121/121
f 89/89/89 88/88/88 122/122/122
f 123/123/123 122/122/122 121/121/121
f 124/124/124 89/89/89 122/122/122
f 124/124/124 122/122/122 123/123/123
f 92/92/92 89/89/89 124/124/124
f 125/125/125 124/124/124 123/123/123
f 126/126/126 92/92/92 124/124/124
f 126/126/126 124/124/124 125/125/125
f 96/96/96 92/92/92 126/126/126
f 127/127/127 126/126/126 125/125/125
f 128/128/128 96/96/96 126/126/126
f 128/128/128 126/126/126 127/127/127
f 129/129/129 128/128/128 127/127/127
f 100/100/100 96/96/96 128/128/128
f 130/130/130 128/128/128 129/129/129
f 130/130/130 100/100/100 128/128/128
f 131/131/131 130/130/130 129/129/129
f 132/132/132 100/100/100 130/130/130
f 132/132/132 101/101/101 100/100/100
f 133/133/133 101/101/101 132/132/132
f 134/134/134 130/130/130 131/131/131
f 134/134/134 132/132/132 130/130/130
f 135/135/135 134/134/134 131/131/131
f 136/136/136 133/133/133 132/132/132
f 136/136/136 132/132/132 134/134/134
f 137/137/137 133/133/133 136/136/136
f 138/138/138 137/137/137 136/136/136
f 139/139/139 134/134/134 135/135/135
f 139/139/139 136/136/136 134/134/134
f 138/138/138 136/136/136 139/139/139
f 140/140/140 139/139/139 135/135/135
f 141/141/141 138/138/138 139/139/139
f 141/141/141 139/139/139 140/140/140
f 142/142/142 141/141/141 140/140/140
