g Scaffolding_Wooden_Basic_LOD0
v 1.959435E-16 0 -1.6
v 1.763491E-16 0 -1.44
v 0.16 0 -1.44
v 0.16 0 -1.6
v 0.1522422 1.1 -1.447278
v 1.763491E-16 2 -1.44
v 0.16 2 -1.44
v 0.007889881 1.1 -1.447278
v 1.763491E-16 0 -1.44
v 0.16 0 -1.44
v 0.007889881 1.1 -1.447278
v 1.959435E-16 2 -1.6
v 1.763491E-16 2 -1.44
v 0.007889881 1.1 -1.592031
v 1.763491E-16 0 -1.44
v 1.959435E-16 0 -1.6
v 0.007889881 1.1 -1.592031
v 0.16 2 -1.6
v 1.959435E-16 2 -1.6
v 0.1522422 1.1 -1.592031
v 0.16 0 -1.6
v 1.959435E-16 0 -1.6
v 0.1522422 1.1 -1.447278
v 0.16 2 -1.44
v 0.16 2 -1.6
v 0.1522422 1.1 -1.592031
v 0.16 0 -1.6
v 0.16 0 -1.44
v 0.16 2 -1.6
v 0.16 2 -1.44
v 1.763491E-16 2 -1.44
v 1.959435E-16 2 -1.6
v 1.44 0 1.525879E-07
v 1.6 0 1.959435E-16
v 1.6 0 -0.1600001
v 1.44 0 -0.16
v 1.592722 1.1 -0.1522423
v 1.6 2 0
v 1.6 2 -0.16
v 1.592722 1.1 -0.007889862
v 1.6 0 1.959435E-16
v 1.6 0 -0.1600001
v 1.592722 1.1 -0.007889862
v 1.44 2 0
v 1.6 2 0
v 1.447969 1.1 -0.007889862
v 1.6 0 1.959435E-16
v 1.44 0 1.525879E-07
v 1.447969 1.1 -0.007889862
v 1.44 2 -0.16
v 1.44 2 0
v 1.447969 1.1 -0.1522423
v 1.44 0 -0.16
v 1.44 0 1.525879E-07
v 1.592722 1.1 -0.1522423
v 1.6 2 -0.16
v 1.44 2 -0.16
v 1.447969 1.1 -0.1522423
v 1.44 0 -0.16
v 1.6 0 -0.1600001
v 1.44 2 -0.16
v 1.6 2 -0.16
v 1.6 2 0
v 1.44 2 0
v 0.16 0 1.959435E-17
v 0.16 0 -0.16
v 4.768371E-09 0 -0.16
v 9.536743E-09 0 1.525879E-07
v 0.152356 1.1 -0.007620697
v 0.16 0 -0.16
v 0.16 0 1.959435E-17
v 0.152356 1.1 -0.1521802
v 0.16 2 -0.16
v 0.16 2 0
v 0.16 2 -0.16
v 0.16 2 0
v 9.536743E-09 2 0
v 4.768371E-09 2 -0.16
v 0.007768173 1.1 -0.007620697
v 9.536743E-09 0 1.525879E-07
v 4.768371E-09 0 -0.16
v 0.007768173 1.1 -0.1521802
v 4.768371E-09 2 -0.16
v 9.536743E-09 2 0
v 0.152356 1.1 -0.007620697
v 0.16 0 1.959435E-17
v 9.536743E-09 0 1.525879E-07
v 0.007768173 1.1 -0.007620697
v 0.16 2 0
v 9.536743E-09 2 0
v 0.152356 1.1 -0.1521802
v 0.16 2 -0.16
v 4.768371E-09 2 -0.16
v 0.007768173 1.1 -0.1521802
v 0.16 0 -0.16
v 4.768371E-09 0 -0.16
v 1.44 2 -1.44
v 1.44 2 -1.6
v 1.6 2 -1.6
v 1.6 2 -1.44
v 1.447644 1.1 -1.447621
v 1.44 2 -1.6
v 1.44 2 -1.44
v 1.447644 1.1 -1.59218
v 1.44 0 -1.6
v 1.44 1.525879E-06 -1.44
v 1.44 0 -1.6
v 1.44 1.525879E-06 -1.44
v 1.6 1.525879E-06 -1.44
v 1.6 0 -1.6
v 1.592232 1.1 -1.447621
v 1.6 2 -1.44
v 1.6 2 -1.6
v 1.592232 1.1 -1.59218
v 1.6 0 -1.6
v 1.6 1.525879E-06 -1.44
v 1.447644 1.1 -1.447621
v 1.44 2 -1.44
v 1.6 2 -1.44
v 1.592232 1.1 -1.447621
v 1.44 1.525879E-06 -1.44
v 1.6 1.525879E-06 -1.44
v 1.447644 1.1 -1.59218
v 1.44 0 -1.6
v 1.6 0 -1.6
v 1.592232 1.1 -1.59218
v 1.44 2 -1.6
v 1.6 2 -1.6
vt 0.5406924 0.9624733
vt 0.5044575 0.9624732
vt 0.5044575 0.9980203
vt 0.5406923 0.9980204
vt 0.6124743 0.7499442
vt 0.6480215 0.537441
vt 0.6124743 0.537441
vt 0.6480215 0.7499442
vt 0.6480215 0.9624733
vt 0.6124743 0.9624733
vt 0.5044575 0.7499442
vt 0.5406924 0.5374152
vt 0.5044575 0.5374152
vt 0.5406924 0.7499442
vt 0.5044575 0.9624732
vt 0.5406924 0.9624733
vt 0.5406924 0.7499442
vt 0.5762395 0.5374152
vt 0.5406924 0.5374152
vt 0.5762395 0.7499442
vt 0.5762395 0.9624733
vt 0.5406924 0.9624733
vt 0.6124743 0.7499442
vt 0.6124743 0.537441
vt 0.5762395 0.5374152
vt 0.5762395 0.7499442
vt 0.5762395 0.9624733
vt 0.6124743 0.9624733
vt 0.5406924 0.5018681
vt 0.5044576 0.5018681
vt 0.5044575 0.5374152
vt 0.5406924 0.5374152
vt 0.5406924 0.9624733
vt 0.5044575 0.9624732
vt 0.5044575 0.9980203
vt 0.5406923 0.9980204
vt 0.6124743 0.7499442
vt 0.6480215 0.537441
vt 0.6124743 0.537441
vt 0.6480215 0.7499442
vt 0.6480215 0.9624733
vt 0.6124743 0.9624733
vt 0.5044575 0.7499442
vt 0.5406924 0.5374152
vt 0.5044575 0.5374152
vt 0.5406924 0.7499442
vt 0.5044575 0.9624732
vt 0.5406924 0.9624733
vt 0.5406924 0.7499442
vt 0.5762395 0.5374152
vt 0.5406924 0.5374152
vt 0.5762395 0.7499442
vt 0.5762395 0.9624733
vt 0.5406924 0.9624733
vt 0.6124743 0.7499442
vt 0.6124743 0.537441
vt 0.5762395 0.5374152
vt 0.5762395 0.7499442
vt 0.5762395 0.9624733
vt 0.6124743 0.9624733
vt 0.5406924 0.5018681
vt 0.5044576 0.5018681
vt 0.5044575 0.5374152
vt 0.5406924 0.5374152
vt 0.6537877 0.9624732
vt 0.6537876 0.9980203
vt 0.6900224 0.9980204
vt 0.6900225 0.9624733
vt 0.7973515 0.7499442
vt 0.7618045 0.9624733
vt 0.7973515 0.9624733
vt 0.7618044 0.7499442
vt 0.7618044 0.5374152
vt 0.7973515 0.5374152
vt 0.6537877 0.5018681
vt 0.6537877 0.5374152
vt 0.6900225 0.5374152
vt 0.6900225 0.5018681
vt 0.6900225 0.7499442
vt 0.6900225 0.9624733
vt 0.7255696 0.9624733
vt 0.7255696 0.7499442
vt 0.7255696 0.5374152
vt 0.6900225 0.5374152
vt 0.6537877 0.7499442
vt 0.6537877 0.9624732
vt 0.6900225 0.9624733
vt 0.6900225 0.7499442
vt 0.6537877 0.5374152
vt 0.6900225 0.5374152
vt 0.7618044 0.7499442
vt 0.7618044 0.5374152
vt 0.7255696 0.5374152
vt 0.7255696 0.7499442
vt 0.7618045 0.9624733
vt 0.7255696 0.9624733
vt 0.6537877 0.9624732
vt 0.6537876 0.9980203
vt 0.6900224 0.9980204
vt 0.6900225 0.9624733
vt 0.7973515 0.7499442
vt 0.7618045 0.9624733
vt 0.7973515 0.9624733
vt 0.7618044 0.7499442
vt 0.7618044 0.5374152
vt 0.7973515 0.5374152
vt 0.6537877 0.5018681
vt 0.6537877 0.5374152
vt 0.6900225 0.5374152
vt 0.6900225 0.5018681
vt 0.6900225 0.7499442
vt 0.6900225 0.9624733
vt 0.7255696 0.9624733
vt 0.7255696 0.7499442
vt 0.7255696 0.5374152
vt 0.6900225 0.5374152
vt 0.6537877 0.7499442
vt 0.6537877 0.9624732
vt 0.6900225 0.9624733
vt 0.6900225 0.7499442
vt 0.6537877 0.5374152
vt 0.6900225 0.5374152
vt 0.7618044 0.7499442
vt 0.7618044 0.5374152
vt 0.7255696 0.5374152
vt 0.7255696 0.7499442
vt 0.7618045 0.9624733
vt 0.7255696 0.9624733
vn 0 -1 0
vn 0 -1 0
vn 0 -1 0
vn 0 -1 0
vn 0 -3.68816E-06 1
vn 0 -0.008086215 0.9999673
vn 0 -0.008086215 0.9999673
vn 0 -3.748985E-06 1
vn 0 0.006615929 0.9999782
vn 0 0.006615929 0.9999782
vn -1 -3.672931E-06 0
vn -0.9999616 -0.008766196 0
vn -0.9999616 -0.008766195 0
vn -1 -4.02454E-06 0
vn -0.9999743 0.007172437 0
vn -0.9999743 0.007172437 0
vn 0 -3.945486E-06 -1
vn 0 -0.008854329 -0.9999608
vn 0 -0.008854329 -0.9999608
vn 0 -3.878722E-06 -1
vn 0 0.007244683 -0.9999738
vn 0 0.007244684 -0.9999738
vn 1 -3.609871E-06 0
vn 0.9999629 -0.008619454 0
vn 0.9999629 -0.008619453 0
vn 1 -3.955958E-06 0
vn 0.9999752 0.007052372 0
vn 0.9999752 0.007052373 0
vn 0 1 0
vn 0 1 0
vn 0 1 0
vn 0 1 0
vn 0 -1 0
vn 0 -1 0
vn 0 -1 0
vn 0 -1 0
vn 1 -3.587319E-06 0
vn 0.9999673 -0.008086085 0
vn 0.9999673 -0.008086086 0
vn 1 -3.64855E-06 0
vn 0.9999782 0.006616003 0
vn 0.9999782 0.006616003 0
vn 2.752661E-07 -3.636444E-06 1
vn 0 -0.008766176 0.9999616
vn 0 -0.008766176 0.9999616
vn 2.752552E-07 -3.984104E-06 1
vn 5.006808E-07 0.007172485 0.9999743
vn 5.006808E-07 0.007172484 0.9999743
vn -1 -4.041947E-06 0
vn -0.9999608 -0.008854478 0
vn -0.9999608 -0.008854478 0
vn -1 -3.975192E-06 0
vn -0.9999738 0.007244627 0
vn -0.9999738 0.007244627 0
vn -2.802709E-07 -3.57497E-06 -1
vn 0 -0.008619367 -0.9999629
vn 0 -0.008619368 -0.9999629
vn -2.802598E-07 -3.917107E-06 -1
vn -5.097846E-07 0.007052364 -0.9999752
vn -5.097846E-07 0.007052363 -0.9999752
vn 0 1 0
vn 0 1 0
vn 0 1 0
vn 0 1 0
vn 0 -1 0
vn 0 -1 0
vn 0 -1 0
vn 0 -1 0
vn 1 -3.726443E-06 0
vn 0.9999759 0.006948893 0
vn 0.9999759 0.006948893 0
vn 1 -3.823168E-06 0
vn 0.999964 -0.00849299 0
vn 0.999964 -0.00849299 0
vn 0 1 -2.086163E-07
vn 0 1 -2.086163E-07
vn 0 1 -2.086163E-07
vn 0 1 -2.086163E-07
vn -1 -3.785956E-06 0
vn -0.9999751 0.007061793 0
vn -0.9999751 0.007061792 0
vn -1 -3.884658E-06 0
vn -0.9999628 -0.008630974 0
vn -0.9999628 -0.008630974 0
vn 2.754095E-07 -3.688748E-06 1
vn 5.009532E-07 0.006927811 0.999976
vn 5.009532E-07 0.006927811 0.999976
vn 2.754076E-07 -3.749152E-06 1
vn 0 -0.008467138 0.9999642
vn 0 -0.008467137 0.9999642
vn 0 -3.824825E-06 -1
vn 0 -0.008688367 -0.9999623
vn 0 -0.008688367 -0.9999623
vn 0 -3.886805E-06 -1
vn 0 0.007108752 -0.9999747
vn 0 0.007108751 -0.9999747
vn 0 1 0
vn 0 1 0
vn 0 1 0
vn 0 1 0
vn -1 -3.71137E-06 0
vn -0.999964 -0.008493121 0
vn -0.999964 -0.00849312 0
vn -1 -3.809288E-06 0
vn -0.9999759 0.006949033 0
vn -0.9999759 0.006949033 0
vn 0 -1 9.536743E-06
vn 0 -1 9.536743E-06
vn 0 -1 9.536743E-06
vn 0 -1 9.536743E-06
vn 1 -3.819688E-06 0
vn 0.9999628 -0.008631055 0
vn 0.9999628 -0.008631054 0
vn 1 -3.919179E-06 0
vn 0.9999751 0.007061808 0
vn 0.9999751 0.007061808 0
vn 0 -3.689546E-06 1
vn 0 -0.008467054 0.9999642
vn 0 -0.008467053 0.9999642
vn 0 -3.74995E-06 1
vn 0 0.006927749 0.999976
vn 0 0.006927749 0.999976
vn 0 -3.89941E-06 -1
vn 0 0.00710875 -0.9999747
vn 0 0.007108751 -0.9999747
vn 0 -3.961782E-06 -1
vn 0 -0.008688534 -0.9999623
vn 0 -0.008688534 -0.9999623
g Scaffolding_Wooden_Basic_LOD0_0
f 3/3/3 2/2/2 1/1/1
f 4/4/4 3/3/3 1/1/1
f 7/7/7 6/6/6 5/5/5
f 6/6/6 8/8/8 5/5/5
f 8/8/8 9/9/9 5/5/5
f 9/9/9 10/10/10 5/5/5
f 13/13/13 12/12/12 11/11/11
f 12/12/12 14/14/14 11/11/11
f 11/11/11 14/14/14 15/15/15
f 14/14/14 16/16/16 15/15/15
f 19/19/19 18/18/18 17/17/17
f 18/18/18 20/20/20 17/17/17
f 20/20/20 21/21/21 17/17/17
f 21/21/21 22/22/22 17/17/17
f 25/25/25 24/24/24 23/23/23
f 26/26/26 25/25/25 23/23/23
f 27/27/27 26/26/26 23/23/23
f 28/28/28 27/27/27 23/23/23
f 31/31/31 30/30/30 29/29/29
f 32/32/32 31/31/31 29/29/29
f 35/35/35 34/34/34 33/33/33
f 36/36/36 35/35/35 33/33/33
f 39/39/39 38/38/38 37/37/37
f 38/38/38 40/40/40 37/37/37
f 40/40/40 41/41/41 37/37/37
f 41/41/41 42/42/42 37/37/37
f 45/45/45 44/44/44 43/43/43
f 44/44/44 46/46/46 43/43/43
f 43/43/43 46/46/46 47/47/47
f 46/46/46 48/48/48 47/47/47
f 51/51/51 50/50/50 49/49/49
f 50/50/50 52/52/52 49/49/49
f 52/52/52 53/53/53 49/49/49
f 53/53/53 54/54/54 49/49/49
f 57/57/57 56/56/56 55/55/55
f 58/58/58 57/57/57 55/55/55
f 59/59/59 58/58/58 55/55/55
f 60/60/60 59/59/59 55/55/55
f 63/63/63 62/62/62 61/61/61
f 64/64/64 63/63/63 61/61/61
f 67/67/67 66/66/66 65/65/65
f 68/68/68 67/67/67 65/65/65
f 71/71/71 70/70/70 69/69/69
f 70/70/70 72/72/72 69/69/69
f 69/69/69 72/72/72 73/73/73
f 74/74/74 69/69/69 73/73/73
f 77/77/77 76/76/76 75/75/75
f 78/78/78 77/77/77 75/75/75
f 81/81/81 80/80/80 79/79/79
f 82/82/82 81/81/81 79/79/79
f 83/83/83 82/82/82 79/79/79
f 84/84/84 83/83/83 79/79/79
f 87/87/87 86/86/86 85/85/85
f 88/88/88 87/87/87 85/85/85
f 85/85/85 89/89/89 88/88/88
f 89/89/89 90/90/90 88/88/88
f 93/93/93 92/92/92 91/91/91
f 94/94/94 93/93/93 91/91/91
f 91/91/91 95/95/95 94/94/94
f 95/95/95 96/96/96 94/94/94
f 99/99/99 98/98/98 97/97/97
f 100/100/100 99/99/99 97/97/97
f 103/103/103 102/102/102 101/101/101
f 102/102/102 104/104/104 101/101/101
f 101/101/101 104/104/104 105/105/105
f 106/106/106 101/101/101 105/105/105
f 109/109/109 108/108/108 107/107/107
f 110/110/110 109/109/109 107/107/107
f 113/113/113 112/112/112 111/111/111
f 114/114/114 113/113/113 111/111/111
f 115/115/115 114/114/114 111/111/111
f 116/116/116 115/115/115 111/111/111
f 119/119/119 118/118/118 117/117/117
f 120/120/120 119/119/119 117/117/117
f 117/117/117 121/121/121 120/120/120
f 121/121/121 122/122/122 120/120/120
f 125/125/125 124/124/124 123/123/123
f 126/126/126 125/125/125 123/123/123
f 123/123/123 127/127/127 126/126/126
f 127/127/127 128/128/128 126/126/126
