g sprinkler
v 0.04916389 0.7807457 -0.08515207
v 4.145388E-07 0.8118568 8.290776E-07
v 4.145388E-07 0.7807457 -0.09832529
v 0.08515373 0.7807457 -0.04916181
v 4.145388E-07 0.8118568 8.290776E-07
v 0.09832653 0.7807457 8.290776E-07
v 4.145388E-07 0.8118568 8.290776E-07
v 0.08515373 0.7807457 0.0491643
v 4.145388E-07 0.8118568 8.290776E-07
v 0.04916389 0.7807457 0.08515415
v 4.145388E-07 0.8118568 8.290776E-07
v 4.145388E-07 0.7807457 0.09832695
v 4.145388E-07 0.8118568 8.290776E-07
v 4.145388E-07 0.7807457 -0.09832529
v 4.145388E-07 0.8118568 8.290776E-07
v -0.04916222 0.7807457 -0.08515207
v 4.145388E-07 0.8118568 8.290776E-07
v -0.08515249 0.7807457 -0.04916181
v 4.145388E-07 0.8118568 8.290776E-07
v -0.09832569 0.7807457 8.290776E-07
v 4.145388E-07 0.8118568 8.290776E-07
v -0.08515249 0.7807457 0.0491643
v 4.145388E-07 0.8118568 8.290776E-07
v -0.04916222 0.7807457 0.08515415
v 4.145388E-07 0.8118568 8.290776E-07
v 4.145388E-07 0.7807457 0.09832695
v 0.1697963 0.5356944 -0.2940925
v 1.243616E-06 0.6835409 -0.2276581
v 1.243616E-06 0.5356944 -0.3395886
v 0.1138303 0.6835409 -0.197158
v 0.2940949 0.5356944 -0.1697947
v 0.19716 0.6835409 -0.1138282
v 0.3395901 0.5356944 1.658155E-06
v 0.2276593 0.6835409 1.658155E-06
v 0.2940949 0.5356944 0.1697967
v 0.19716 0.6835409 0.1138311
v 0.1697963 0.5356944 0.2940954
v 0.1138303 0.6835409 0.1971605
v 1.243616E-06 0.5356944 0.3395906
v 1.243616E-06 0.6835409 0.2276601
v 1.243616E-06 0.5356944 -0.3395886
v 1.243616E-06 0.6835409 -0.2276581
v -0.113829 0.6835409 -0.197158
v -0.1697955 0.5356944 -0.2940925
v -0.1971588 0.6835409 -0.1138282
v -0.2940933 0.5356944 -0.1697947
v -0.2276585 0.6835409 1.658155E-06
v -0.3395889 0.5356944 1.658155E-06
v -0.1971588 0.6835409 0.1138311
v -0.2940933 0.5356944 0.1697967
v -0.113829 0.6835409 0.1971605
v -0.1697955 0.5356944 0.2940954
v 1.243616E-06 0.6835409 0.2276601
v 1.243616E-06 0.5356944 0.3395906
v 1.243616E-06 0.5356944 -0.3395886
v 1.243616E-06 0.3828931 -0.3155208
v 0.1577619 0.3828931 -0.2732486
v 0.1697963 0.5356944 -0.2940925
v 0.2732515 0.3828931 -0.1577602
v 0.2940949 0.5356944 -0.1697947
v 0.3155233 0.3828931 1.658155E-06
v 0.3395901 0.5356944 1.658155E-06
v 0.2732515 0.3828931 0.1577627
v 0.2940949 0.5356944 0.1697967
v 0.1577619 0.3828931 0.273252
v 0.1697963 0.5356944 0.2940954
v 1.243616E-06 0.3828931 0.3155237
v 1.243616E-06 0.5356944 0.3395906
v -0.1697955 0.5356944 -0.2940925
v 1.243616E-06 0.3828931 -0.3155208
v 1.243616E-06 0.5356944 -0.3395886
v -0.1577606 0.3828931 -0.2732486
v -0.2940933 0.5356944 -0.1697947
v -0.2732491 0.3828931 -0.1577602
v -0.3395889 0.5356944 1.658155E-06
v -0.3155212 0.3828931 1.658155E-06
v -0.2940933 0.5356944 0.1697967
v -0.2732491 0.3828931 0.1577627
v -0.1697955 0.5356944 0.2940954
v -0.1577606 0.3828931 0.273252
v 1.243616E-06 0.5356944 0.3395906
v 1.243616E-06 0.3828931 0.3155237
v 0.1138303 0.6835409 -0.197158
v 8.290776E-07 0.6693681 -0.1695198
v 1.243616E-06 0.6835409 -0.2276581
v 0.08476158 0.6693681 -0.1468085
v 0.19716 0.6835409 -0.1138282
v 0.1468106 0.6693681 -0.08475908
v 0.2276593 0.6835409 1.658155E-06
v 0.1695215 0.6693681 1.243616E-06
v 0.19716 0.6835409 0.1138311
v 0.1468106 0.6693681 0.08476198
v 0.1138303 0.6835409 0.1971605
v 0.08476158 0.6693681 0.146811
v 1.243616E-06 0.6835409 0.2276601
v 8.290776E-07 0.6693681 0.1695219
v 1.243616E-06 0.6835409 -0.2276581
v 8.290776E-07 0.6693681 -0.1695198
v -0.0847595 0.6693681 -0.1468085
v -0.113829 0.6835409 -0.197158
v -0.1468089 0.6693681 -0.08475908
v -0.1971588 0.6835409 -0.1138282
v -0.1695203 0.6693681 1.243616E-06
v -0.2276585 0.6835409 1.658155E-06
v -0.1468089 0.6693681 0.08476198
v -0.1971588 0.6835409 0.1138311
v -0.0847595 0.6693681 0.146811
v -0.113829 0.6835409 0.1971605
v 8.290776E-07 0.6693681 0.1695219
v 1.243616E-06 0.6835409 0.2276601
v 0.08476158 0.6693681 -0.1468085
v 4.145388E-07 0.7807457 -0.09832529
v 8.290776E-07 0.6693681 -0.1695198
v 0.04916389 0.7807457 -0.08515207
v 0.1468106 0.6693681 -0.08475908
v 0.08515373 0.7807457 -0.04916181
v 0.1695215 0.6693681 1.243616E-06
v 0.09832653 0.7807457 8.290776E-07
v 0.1468106 0.6693681 0.08476198
v 0.08515373 0.7807457 0.0491643
v 0.08476158 0.6693681 0.146811
v 0.04916389 0.7807457 0.08515415
v 8.290776E-07 0.6693681 0.1695219
v 4.145388E-07 0.7807457 0.09832695
v 8.290776E-07 0.6693681 -0.1695198
v 4.145388E-07 0.7807457 -0.09832529
v -0.04916222 0.7807457 -0.08515207
v -0.0847595 0.6693681 -0.1468085
v -0.08515249 0.7807457 -0.04916181
v -0.1468089 0.6693681 -0.08475908
v -0.09832569 0.7807457 8.290776E-07
v -0.1695203 0.6693681 1.243616E-06
v -0.08515249 0.7807457 0.0491643
v -0.1468089 0.6693681 0.08476198
v -0.04916222 0.7807457 0.08515415
v -0.0847595 0.6693681 0.146811
v 4.145388E-07 0.7807457 0.09832695
v 8.290776E-07 0.6693681 0.1695219
vt 0.5244458 0.3615991
vt 0.5000014 0.3539164
vt 0.5282273 0.3615991
vt 0.5141144 0.3615991
vt 0.5000014 0.3539164
vt 0.5000014 0.3615991
vt 0.5000014 0.3539164
vt 0.4858885 0.3615991
vt 0.5000014 0.3539164
vt 0.475557 0.3615991
vt 0.5000014 0.3539164
vt 0.4717755 0.3615991
vt 0.5000014 0.3539164
vt 0.5282273 0.3615991
vt 0.5000014 0.3539164
vt 0.5244458 0.3615991
vt 0.5000014 0.3539164
vt 0.5141144 0.3615991
vt 0.5000014 0.3539164
vt 0.5000014 0.3615991
vt 0.5000014 0.3539164
vt 0.4858885 0.3615991
vt 0.5000014 0.3539164
vt 0.475557 0.3615991
vt 0.5000014 0.3539164
vt 0.4717755 0.3615991
vt 0.5844252 0.4221129
vt 0.5653541 0.3678833
vt 0.5974854 0.4221129
vt 0.5565987 0.3678833
vt 0.5487437 0.4221129
vt 0.5326777 0.3678833
vt 0.5000013 0.4221129
vt 0.5000013 0.3678833
vt 0.4512591 0.4221129
vt 0.4673249 0.3678833
vt 0.4155775 0.4221129
vt 0.443404 0.3678833
vt 0.4025174 0.4221129
vt 0.4346488 0.3678833
vt 0.5974854 0.4221129
vt 0.5653541 0.3678833
vt 0.5565987 0.3678833
vt 0.5844252 0.4221129
vt 0.5326777 0.3678833
vt 0.5487437 0.4221129
vt 0.5000013 0.3678833
vt 0.5000013 0.4221129
vt 0.4673249 0.3678833
vt 0.4512591 0.4221129
vt 0.443404 0.3678833
vt 0.4155775 0.4221129
vt 0.4346488 0.3678833
vt 0.4025174 0.4221129
vt 0.5974854 0.4221129
vt 0.5905764 0.4598462
vt 0.5784415 0.4598462
vt 0.5844252 0.4221129
vt 0.545289 0.4598462
vt 0.5487437 0.4221129
vt 0.5000013 0.4598462
vt 0.5000013 0.4221129
vt 0.4547138 0.4598462
vt 0.4512591 0.4221129
vt 0.4215609 0.4598462
vt 0.4155775 0.4221129
vt 0.4094262 0.4598462
vt 0.4025174 0.4221129
vt 0.5844252 0.4221129
vt 0.5905764 0.4598462
vt 0.5974854 0.4221129
vt 0.5784415 0.4598462
vt 0.5487437 0.4221129
vt 0.545289 0.4598462
vt 0.5000013 0.4221129
vt 0.5000013 0.4598462
vt 0.4512591 0.4221129
vt 0.4547138 0.4598462
vt 0.4155775 0.4221129
vt 0.4215609 0.4598462
vt 0.4025174 0.4221129
vt 0.4094262 0.4598462
vt 0.5565987 0.3678833
vt 0.5486648 0.3891031
vt 0.5653541 0.3678833
vt 0.5421451 0.3891031
vt 0.5326777 0.3678833
vt 0.524333 0.3891031
vt 0.5000013 0.3678833
vt 0.5000013 0.3891031
vt 0.4673249 0.3678833
vt 0.4756696 0.3891031
vt 0.443404 0.3678833
vt 0.4578575 0.3891031
vt 0.4346488 0.3678833
vt 0.4513381 0.3891031
vt 0.5653541 0.3678833
vt 0.5486648 0.3891031
vt 0.5421451 0.3891031
vt 0.5565987 0.3678833
vt 0.524333 0.3891031
vt 0.5326777 0.3678833
vt 0.5000013 0.3891031
vt 0.5000013 0.3678833
vt 0.4756696 0.3891031
vt 0.4673249 0.3678833
vt 0.4578575 0.3891031
vt 0.443404 0.3678833
vt 0.4513381 0.3891031
vt 0.4346488 0.3678833
vt 0.5421451 0.3891031
vt 0.5282273 0.3615991
vt 0.5486648 0.3891031
vt 0.5244458 0.3615991
vt 0.524333 0.3891031
vt 0.5141144 0.3615991
vt 0.5000013 0.3891031
vt 0.5000014 0.3615991
vt 0.4756696 0.3891031
vt 0.4858885 0.3615991
vt 0.4578575 0.3891031
vt 0.475557 0.3615991
vt 0.4513381 0.3891031
vt 0.4717755 0.3615991
vt 0.5486648 0.3891031
vt 0.5282273 0.3615991
vt 0.5244458 0.3615991
vt 0.5421451 0.3891031
vt 0.5141144 0.3615991
vt 0.524333 0.3891031
vt 0.5000014 0.3615991
vt 0.5000013 0.3891031
vt 0.4858885 0.3615991
vt 0.4756696 0.3891031
vt 0.475557 0.3615991
vt 0.4578575 0.3891031
vt 0.4717755 0.3615991
vt 0.4513381 0.3891031
vn 0.1508339 0.9534132 -0.2612515
vn -3.692422E-07 1 -5.851829E-07
vn 1.281039E-07 0.9534132 -0.3016675
vn 0.2612518 0.9534132 -0.1508335
vn -3.692422E-07 1 -5.851829E-07
vn 0.3016672 0.9534132 1.209863E-07
vn -3.692422E-07 1 -5.851829E-07
vn 0.2612509 0.9534137 0.1508322
vn -3.692422E-07 1 -5.851829E-07
vn 0.1508317 0.9534137 0.261251
vn -3.692422E-07 1 -5.851829E-07
vn 1.174279E-07 0.9534132 0.3016675
vn -3.692422E-07 1 -5.851829E-07
vn 1.281039E-07 0.9534132 -0.3016675
vn -3.692422E-07 1 -5.851829E-07
vn -0.1508347 0.9534131 -0.2612513
vn -3.692422E-07 1 -5.851829E-07
vn -0.2612517 0.9534132 -0.1508338
vn -3.692422E-07 1 -5.851829E-07
vn -0.3016673 0.9534132 1.20987E-07
vn -3.692422E-07 1 -5.851829E-07
vn -0.2612509 0.9534137 0.1508324
vn -3.692422E-07 1 -5.851829E-07
vn -0.1508326 0.9534137 0.2612508
vn -3.692422E-07 1 -5.851829E-07
vn 1.174279E-07 0.9534132 0.3016675
vn 0.3986417 0.6036042 -0.6904685
vn 0 0.6036026 -0.7972853
vn -1.333713E-07 0.6036026 -0.7972853
vn 0.3986404 0.6036042 -0.6904692
vn 0.6904685 0.6036055 -0.3986396
vn 0.6904695 0.6036055 -0.3986379
vn 0.7972848 0.6036033 -1.846677E-07
vn 0.7972848 0.6036034 0
vn 0.6904687 0.603605 0.3986402
vn 0.6904691 0.6036049 0.3986394
vn 0.3986406 0.6036045 0.6904688
vn 0.3986394 0.6036045 0.6904696
vn 0 0.6036029 0.7972851
vn 1.175487E-07 0.6036029 0.7972851
vn -1.333713E-07 0.6036026 -0.7972853
vn 0 0.6036026 -0.7972853
vn -0.3986388 0.6036045 -0.6904699
vn -0.3986405 0.6036045 -0.690469
vn -0.6904703 0.6036045 -0.3986384
vn -0.6904691 0.6036045 -0.3986403
vn -0.7972857 0.603602 1.427378E-07
vn -0.7972857 0.603602 0
vn -0.6904698 0.603604 0.3986399
vn -0.6904692 0.6036039 0.3986409
vn -0.3986377 0.6036049 0.6904702
vn -0.3986394 0.6036048 0.6904692
vn 1.175487E-07 0.6036029 0.7972851
vn 0 0.6036029 0.7972851
vn 0 -0.1555942 -0.987821
vn 0 -0.1555942 -0.987821
vn 0.4939083 -0.155595 -0.8554792
vn 0.4939089 -0.155595 -0.855479
vn 0.8554792 -0.1555933 -0.4939089
vn 0.8554787 -0.1555933 -0.4939098
vn 0.9878218 -0.1555896 0
vn 0.9878218 -0.1555896 0
vn 0.8554791 -0.155592 0.4939096
vn 0.855479 -0.155592 0.4939098
vn 0.4939089 -0.1555923 0.8554795
vn 0.4939097 -0.1555923 0.855479
vn 0 -0.15559 0.9878216
vn 0 -0.15559 0.9878216
vn -0.4939085 -0.1555967 -0.8554789
vn 0 -0.1555942 -0.987821
vn 0 -0.1555942 -0.987821
vn -0.4939074 -0.1555967 -0.8554795
vn -0.8554792 -0.1555971 -0.4939077
vn -0.8554794 -0.1555971 -0.4939076
vn -0.9878209 -0.1555948 0
vn -0.9878209 -0.1555948 0
vn -0.8554794 -0.1555959 0.4939077
vn -0.8554792 -0.1555959 0.4939081
vn -0.4939094 -0.155594 0.8554788
vn -0.4939079 -0.155594 0.8554797
vn 0 -0.15559 0.9878216
vn 0 -0.15559 0.9878216
vn -0.11842 0.9715485 0.2051107
vn 2.572423E-07 0.9715486 0.2368403
vn -2.74282E-07 0.9715486 0.2368403
vn -0.1184206 0.9715485 0.2051104
vn -0.2051105 0.9715484 0.1184205
vn -0.2051106 0.9715484 0.1184203
vn -0.2368416 0.9715483 -3.10853E-07
vn -0.2368417 0.9715483 2.616417E-07
vn -0.2051102 0.9715485 -0.1184202
vn -0.2051102 0.9715485 -0.1184201
vn -0.1184194 0.9715485 -0.2051111
vn -0.1184197 0.9715485 -0.2051109
vn -2.712341E-07 0.9715485 -0.2368409
vn 2.594419E-07 0.9715485 -0.2368409
vn -2.74282E-07 0.9715486 0.2368403
vn 2.572423E-07 0.9715486 0.2368403
vn 0.1184194 0.9715488 0.2051089
vn 0.1184198 0.9715488 0.2051087
vn 0.2051087 0.9715488 0.1184199
vn 0.2051089 0.9715488 0.1184196
vn 0.2368397 0.9715487 2.594402E-07
vn 0.2368398 0.9715487 -3.108513E-07
vn 0.2051083 0.9715489 -0.1184201
vn 0.2051086 0.9715489 -0.1184197
vn 0.1184185 0.9715488 -0.2051097
vn 0.1184192 0.9715488 -0.2051093
vn 2.594419E-07 0.9715485 -0.2368409
vn -2.712341E-07 0.9715485 -0.2368409
vn 0.4212856 0.538588 -0.7296858
vn -5.290538E-07 0.5385865 -0.8425702
vn 5.496435E-07 0.5385866 -0.8425702
vn 0.4212852 0.538588 -0.729686
vn 0.7296876 0.5385885 -0.421282
vn 0.7296877 0.5385885 -0.4212818
vn 0.8425691 0.5385882 3.463498E-07
vn 0.8425691 0.5385881 -7.305989E-07
vn 0.7296869 0.5385901 0.421281
vn 0.7296873 0.5385901 0.4212803
vn 0.421281 0.5385901 0.7296869
vn 0.4212803 0.5385901 0.7296874
vn 5.421127E-07 0.5385882 0.8425691
vn -5.542474E-07 0.5385882 0.8425691
vn 5.496435E-07 0.5385866 -0.8425702
vn -5.290538E-07 0.5385865 -0.8425702
vn -0.4212866 0.5385864 -0.7296865
vn -0.4212864 0.5385864 -0.7296866
vn -0.7296864 0.5385866 -0.4212864
vn -0.7296865 0.5385865 -0.4212863
vn -0.8425701 0.5385867 -5.416504E-07
vn -0.8425701 0.5385867 5.421142E-07
vn -0.729686 0.538588 0.4212852
vn -0.7296858 0.538588 0.4212855
vn -0.4212816 0.5385883 0.7296879
vn -0.4212818 0.5385883 0.7296878
vn -5.542474E-07 0.5385882 0.8425691
vn 5.421127E-07 0.5385882 0.8425691
g sprinkler_0
f 3/3/3 2/2/2 1/1/1
f 1/1/1 5/5/5 4/4/4
f 4/4/4 7/7/7 6/6/6
f 6/6/6 9/9/9 8/8/8
f 8/8/8 11/11/11 10/10/10
f 10/10/10 13/13/13 12/12/12
f 16/16/16 15/15/15 14/14/14
f 18/18/18 17/17/17 16/16/16
f 20/20/20 19/19/19 18/18/18
f 22/22/22 21/21/21 20/20/20
f 24/24/24 23/23/23 22/22/22
f 26/26/26 25/25/25 24/24/24
f 29/29/29 28/28/28 27/27/27
f 28/28/28 30/30/30 27/27/27
f 27/27/27 30/30/30 31/31/31
f 30/30/30 32/32/32 31/31/31
f 31/31/31 32/32/32 33/33/33
f 32/32/32 34/34/34 33/33/33
f 33/33/33 34/34/34 35/35/35
f 34/34/34 36/36/36 35/35/35
f 35/35/35 36/36/36 37/37/37
f 36/36/36 38/38/38 37/37/37
f 37/37/37 38/38/38 39/39/39
f 38/38/38 40/40/40 39/39/39
f 43/43/43 42/42/42 41/41/41
f 44/44/44 43/43/43 41/41/41
f 45/45/45 43/43/43 44/44/44
f 46/46/46 45/45/45 44/44/44
f 47/47/47 45/45/45 46/46/46
f 48/48/48 47/47/47 46/46/46
f 49/49/49 47/47/47 48/48/48
f 50/50/50 49/49/49 48/48/48
f 51/51/51 49/49/49 50/50/50
f 52/52/52 51/51/51 50/50/50
f 53/53/53 51/51/51 52/52/52
f 54/54/54 53/53/53 52/52/52
f 57/57/57 56/56/56 55/55/55
f 58/58/58 57/57/57 55/55/55
f 59/59/59 57/57/57 58/58/58
f 60/60/60 59/59/59 58/58/58
f 61/61/61 59/59/59 60/60/60
f 62/62/62 61/61/61 60/60/60
f 63/63/63 61/61/61 62/62/62
f 64/64/64 63/63/63 62/62/62
f 65/65/65 63/63/63 64/64/64
f 66/66/66 65/65/65 64/64/64
f 67/67/67 65/65/65 66/66/66
f 68/68/68 67/67/67 66/66/66
f 71/71/71 70/70/70 69/69/69
f 70/70/70 72/72/72 69/69/69
f 69/69/69 72/72/72 73/73/73
f 72/72/72 74/74/74 73/73/73
f 73/73/73 74/74/74 75/75/75
f 74/74/74 76/76/76 75/75/75
f 75/75/75 76/76/76 77/77/77
f 76/76/76 78/78/78 77/77/77
f 77/77/77 78/78/78 79/79/79
f 78/78/78 80/80/80 79/79/79
f 79/79/79 80/80/80 81/81/81
f 80/80/80 82/82/82 81/81/81
f 85/85/85 84/84/84 83/83/83
f 84/84/84 86/86/86 83/83/83
f 83/83/83 86/86/86 87/87/87
f 86/86/86 88/88/88 87/87/87
f 87/87/87 88/88/88 89/89/89
f 88/88/88 90/90/90 89/89/89
f 89/89/89 90/90/90 91/91/91
f 90/90/90 92/92/92 91/91/91
f 91/91/91 92/92/92 93/93/93
f 92/92/92 94/94/94 93/93/93
f 93/93/93 94/94/94 95/95/95
f 94/94/94 96/96/96 95/95/95
f 99/99/99 98/98/98 97/97/97
f 100/100/100 99/99/99 97/97/97
f 101/101/101 99/99/99 100/100/100
f 102/102/102 101/101/101 100/100/100
f 103/103/103 101/101/101 102/102/102
f 104/104/104 103/103/103 102/102/102
f 105/105/105 103/103/103 104/104/104
f 106/106/106 105/105/105 104/104/104
f 107/107/107 105/105/105 106/106/106
f 108/108/108 107/107/107 106/106/106
f 109/109/109 107/107/107 108/108/108
f 110/110/110 109/109/109 108/108/108
f 113/113/113 112/112/112 111/111/111
f 112/112/112 114/114/114 111/111/111
f 111/111/111 114/114/114 115/115/115
f 114/114/114 116/116/116 115/115/115
f 115/115/115 116/116/116 117/117/117
f 116/116/116 118/118/118 117/117/117
f 117/117/117 118/118/118 119/119/119
f 118/118/118 120/120/120 119/119/119
f 119/119/119 120/120/120 121/121/121
f 120/120/120 122/122/122 121/121/121
f 121/121/121 122/122/122 123/123/123
f 122/122/122 124/124/124 123/123/123
f 127/127/127 126/126/126 125/125/125
f 128/128/128 127/127/127 125/125/125
f 129/129/129 127/127/127 128/128/128
f 130/130/130 129/129/129 128/128/128
f 131/131/131 129/129/129 130/130/130
f 132/132/132 131/131/131 130/130/130
f 133/133/133 131/131/131 132/132/132
f 134/134/134 133/133/133 132/132/132
f 135/135/135 133/133/133 134/134/134
f 136/136/136 135/135/135 134/134/134
f 137/137/137 135/135/135 136/136/136
f 138/138/138 137/137/137 136/136/136
