g straight_pipe
v 3.544436E-07 -0.199232 1.036174
v -0.09961567 -0.1725401 0.800574
v -0.09961567 -0.1725401 1.036174
v 3.544436E-07 -0.1992321 0.800574
v 0.09961585 -0.1725401 0.800574
v 0.09961585 -0.1725401 1.036174
v 0.1725399 -0.09961612 0.800574
v 0.1725399 -0.09961616 1.036174
v 0.1992319 3.814697E-08 0.800574
v 0.1992322 -3.814697E-08 1.036174
v 0.1725398 0.09961613 0.800574
v 0.1725399 0.0996161 1.036174
v 0.09961585 0.17254 0.800572
v 0.09961567 0.1725401 1.036174
v 3.544436E-07 0.1992321 0.8005761
v 1.772218E-07 0.1992321 1.036174
v -0.09961567 0.17254 0.800572
v -0.09961585 0.1725401 1.036174
v -0.1725398 0.09961613 0.800574
v -0.1725405 0.09961575 1.036175
v -0.199232 -1.144409E-07 0.800574
v -0.1992322 3.814697E-08 1.036174
v -0.1725401 -0.09961585 0.800574
v -0.1725398 -0.09961612 1.036174
v -0.09961567 -0.1725401 0.800574
v -0.09961567 -0.1725401 1.036174
v 3.544436E-07 -0.1858305 0.7871783
v -0.09291492 -0.160934 0.7871773
v -0.09961567 -0.1725401 0.800574
v 3.544436E-07 -0.1992321 0.800574
v 0.09291562 -0.160934 0.7871783
v 0.09961585 -0.1725401 0.800574
v 0.1609342 -0.09291518 0.7871783
v 0.1725399 -0.09961612 0.800574
v 0.1858309 -3.814697E-08 0.7871783
v 0.1992319 3.814697E-08 0.800574
v 0.1609341 0.09291527 0.7871783
v 0.1725398 0.09961613 0.800574
v 0.09291562 0.1609341 0.7871783
v 0.09961585 0.17254 0.800572
v 3.544436E-07 0.1858303 0.7871783
v 3.544436E-07 0.1992321 0.8005761
v -0.09291492 0.1609341 0.7871783
v -0.09961567 0.17254 0.800572
v -0.1609335 0.0929151 0.7871783
v -0.1725398 0.09961613 0.800574
v -0.1858309 -3.814697E-08 0.7871783
v -0.199232 -1.144409E-07 0.800574
v -0.1609335 -0.09291523 0.7871783
v -0.1725401 -0.09961585 0.800574
v -0.09291492 -0.160934 0.7871773
v -0.09961567 -0.1725401 0.800574
v 3.544436E-07 -0.199232 -1.036174
v -0.09961567 -0.1725401 -1.036174
v -0.09961567 -0.1725401 -0.8005756
v 3.544436E-07 -0.1992321 -0.8005756
v 0.09961585 -0.1725401 -0.8005756
v 0.09961585 -0.1725401 -1.036174
v 0.1725399 -0.0996161 -0.8005756
v 0.1725399 -0.09961616 -1.036174
v 0.1992319 3.814697E-08 -0.8005756
v 0.1992322 -3.814697E-08 -1.036174
v 0.1725398 0.09961613 -0.8005765
v 0.1725399 0.0996161 -1.036174
v 0.09961585 0.1725401 -0.8005756
v 0.09961567 0.1725401 -1.036174
v 3.544436E-07 0.1992321 -0.8005755
v 1.772218E-07 0.1992321 -1.036174
v -0.09961567 0.1725401 -0.8005756
v -0.09961585 0.1725401 -1.036174
v -0.1725398 0.09961613 -0.8005765
v -0.1725405 0.09961576 -1.036174
v -0.199232 -1.335144E-07 -0.8005756
v -0.1992322 3.814697E-08 -1.036174
v -0.1725401 -0.09961584 -0.8005756
v -0.1725398 -0.09961612 -1.036174
v -0.09961567 -0.1725401 -0.8005756
v -0.09961567 -0.1725401 -1.036174
v 3.544436E-07 -0.1858305 -0.7871783
v -0.09961567 -0.1725401 -0.8005756
v -0.09291492 -0.160934 -0.7871783
v 3.544436E-07 -0.1992321 -0.8005756
v 0.09291562 -0.160934 -0.7871783
v 0.09961585 -0.1725401 -0.8005756
v 0.1609342 -0.09291518 -0.7871783
v 0.1725399 -0.0996161 -0.8005756
v 0.1858309 -3.814697E-08 -0.7871783
v 0.1992319 3.814697E-08 -0.8005756
v 0.1609341 0.09291527 -0.7871783
v 0.1725398 0.09961613 -0.8005765
v 0.09291562 0.1609341 -0.7871783
v 0.09961585 0.1725401 -0.8005756
v 3.544436E-07 0.1858303 -0.7871783
v 3.544436E-07 0.1992321 -0.8005755
v -0.09291492 0.1609341 -0.7871783
v -0.09961567 0.1725401 -0.8005756
v -0.1609335 0.0929151 -0.7871783
v -0.1725398 0.09961613 -0.8005765
v -0.1858309 -3.814697E-08 -0.7871783
v -0.199232 -1.335144E-07 -0.8005756
v -0.1609335 -0.09291523 -0.7871783
v -0.1725401 -0.09961584 -0.8005756
v -0.09291492 -0.160934 -0.7871783
v -0.09961567 -0.1725401 -0.8005756
v -0.09291492 -0.160934 0.7871773
v 3.544436E-07 -0.1858305 -0.7871783
v -0.09291492 -0.160934 -0.7871783
v 3.544436E-07 -0.1858305 0.7871783
v 0.09291562 -0.160934 -0.7871783
v 0.09291562 -0.160934 0.7871783
v 0.1609342 -0.09291518 -0.7871783
v 0.1609342 -0.09291518 0.7871783
v 0.1858309 -3.814697E-08 -0.7871783
v 0.1858309 -3.814697E-08 0.7871783
v 0.1609341 0.09291527 -0.7871783
v 0.1609341 0.09291527 0.7871783
v 0.09291562 0.1609341 -0.7871783
v 0.09291562 0.1609341 0.7871783
v 3.544436E-07 0.1858303 -0.7871783
v 3.544436E-07 0.1858303 0.7871783
v -0.09291492 0.1609341 -0.7871783
v -0.09291492 0.1609341 0.7871783
v -0.1609335 0.0929151 -0.7871783
v -0.1609335 0.0929151 0.7871783
v -0.1858309 -3.814697E-08 -0.7871783
v -0.1858309 -3.814697E-08 0.7871783
v -0.1609335 -0.09291523 -0.7871783
v -0.1609335 -0.09291523 0.7871783
v -0.09291492 -0.160934 -0.7871783
v -0.09291492 -0.160934 0.7871773
vt 0.6093528 0.3706407
vt 0.593903 0.3301051
vt 0.5939059 0.3706426
vt 0.6093493 0.3301036
vt 0.6247922 0.3301017
vt 0.6247951 0.3706389
vt 0.6402324 0.3301007
vt 0.6402342 0.3706375
vt 0.6556712 0.3301004
vt 0.6556712 0.3706369
vt 0.6711099 0.3301007
vt 0.6711082 0.3706374
vt 0.6865504 0.3301017
vt 0.6865472 0.3706389
vt 0.7019932 0.3301036
vt 0.7019897 0.3706407
vt 0.7174397 0.330105
vt 0.7174363 0.3706425
vt 0.7328886 0.3301064
vt 0.7328867 0.3706436
vt 0.7483392 0.3301069
vt 0.7483392 0.370644
vt 0.7637894 0.3301064
vt 0.7637913 0.3706436
vt 0.7792387 0.3301051
vt 0.7792416 0.3706426
vt 0.6093498 0.3277986
vt 0.5939034 0.3277999
vt 0.593903 0.3301051
vt 0.6093493 0.3301036
vt 0.6247926 0.3277971
vt 0.6247922 0.3301017
vt 0.6402329 0.3277957
vt 0.6402324 0.3301007
vt 0.6556712 0.3277956
vt 0.6556712 0.3301004
vt 0.6711095 0.3277957
vt 0.6711099 0.3301007
vt 0.6865496 0.3277971
vt 0.6865504 0.3301017
vt 0.7019925 0.3277986
vt 0.7019932 0.3301036
vt 0.7174388 0.3277999
vt 0.7174397 0.330105
vt 0.732888 0.3278014
vt 0.7328886 0.3301064
vt 0.7483392 0.3278018
vt 0.7483392 0.3301069
vt 0.76379 0.3278014
vt 0.7637894 0.3301064
vt 0.7792394 0.3277999
vt 0.7792387 0.3301051
vt 0.609322 0.01407555
vt 0.5938793 0.01407716
vt 0.5938824 0.05461407
vt 0.6093255 0.05461216
vt 0.6247718 0.05461073
vt 0.6247687 0.01407376
vt 0.6402206 0.05460942
vt 0.6402189 0.01407257
vt 0.6556712 0.05460891
vt 0.6556712 0.01407221
vt 0.6711219 0.05460942
vt 0.6711234 0.0140726
vt 0.6865709 0.0546107
vt 0.6865737 0.0140737
vt 0.7020169 0.05461216
vt 0.7020203 0.01407558
vt 0.71746 0.05461407
vt 0.717463 0.01407716
vt 0.7329003 0.05461535
vt 0.7329022 0.01407856
vt 0.7483392 0.05461571
vt 0.7483391 0.01407889
vt 0.763778 0.05461538
vt 0.7637761 0.01407856
vt 0.779218 0.05461407
vt 0.779215 0.01407719
vt 0.6093248 0.0569174
vt 0.5938824 0.05461407
vt 0.5938817 0.05691892
vt 0.6093255 0.05461216
vt 0.6247711 0.05691591
vt 0.6247718 0.05461073
vt 0.6402203 0.05691469
vt 0.6402206 0.05460942
vt 0.6556712 0.05691421
vt 0.6556712 0.05460891
vt 0.6711221 0.05691469
vt 0.6711219 0.05460942
vt 0.6865712 0.05691591
vt 0.6865709 0.0546107
vt 0.7020175 0.0569174
vt 0.7020169 0.05461216
vt 0.7174605 0.05691892
vt 0.71746 0.05461407
vt 0.7329004 0.05692014
vt 0.7329003 0.05461535
vt 0.7483392 0.05692068
vt 0.7483392 0.05461571
vt 0.7637772 0.05692014
vt 0.763778 0.05461538
vt 0.7792173 0.05691892
vt 0.779218 0.05461407
vt 0.5939034 0.3277999
vt 0.6093248 0.0569174
vt 0.5938817 0.05691892
vt 0.6093498 0.3277986
vt 0.6247711 0.05691591
vt 0.6247926 0.3277971
vt 0.6402203 0.05691469
vt 0.6402329 0.3277957
vt 0.6556712 0.05691421
vt 0.6556712 0.3277956
vt 0.6711221 0.05691469
vt 0.6711095 0.3277957
vt 0.6865712 0.05691591
vt 0.6865496 0.3277971
vt 0.7020175 0.0569174
vt 0.7019925 0.3277986
vt 0.7174605 0.05691892
vt 0.7174388 0.3277999
vt 0.7329004 0.05692014
vt 0.732888 0.3278014
vt 0.7483392 0.05692068
vt 0.7483392 0.3278018
vt 0.7637772 0.05692014
vt 0.76379 0.3278014
vt 0.7792173 0.05691892
vt 0.7792394 0.3277999
vn 0 -1 2.356807E-07
vn -0.4999997 -0.8660255 0
vn -0.4999998 -0.8660256 0
vn 0 -1 2.356807E-07
vn 0.5000008 -0.866025 2.214584E-07
vn 0.5000008 -0.8660249 2.214584E-07
vn 0.8660251 -0.5000004 -3.657101E-07
vn 0.8660253 -0.5000004 -3.657101E-07
vn 1 5.277213E-07 -9.183389E-07
vn 1 3.518145E-07 -9.183387E-07
vn 0.8660237 0.500003 -4.876092E-07
vn 0.8660246 0.5000014 -4.87613E-07
vn 0.5000027 0.8660238 0
vn 0.500001 0.8660248 0
vn 1.138198E-07 1 -3.250767E-07
vn -1.241702E-07 1 -3.250769E-07
vn -0.5000016 0.8660244 -7.801793E-07
vn -0.5000007 0.8660251 -7.801789E-07
vn -0.8660233 0.5000037 -1.349056E-06
vn -0.8660246 0.5000015 -1.349061E-06
vn -1 -8.898843E-07 -7.558017E-07
vn -1 -3.104243E-07 -7.558039E-07
vn -0.8660246 -0.5000013 1.625378E-07
vn -0.8660244 -0.5000018 1.625376E-07
vn -0.4999997 -0.8660255 0
vn -0.4999998 -0.8660256 0
vn -2.070544E-06 -0.7069584 -0.7072551
vn -0.3534803 -0.6122484 -0.7072508
vn -0.3534804 -0.6122483 -0.7072507
vn -1.715447E-06 -0.7069584 -0.7072551
vn 0.353482 -0.6122391 -0.707258
vn 0.3534762 -0.6122423 -0.707258
vn 0.6122485 -0.3534788 -0.7072514
vn 0.6122464 -0.3534824 -0.7072514
vn 0.7069638 1.862054E-07 -0.7072497
vn 0.7069638 1.017979E-06 -0.7072498
vn 0.6122425 0.3534648 -0.7072636
vn 0.6122413 0.3534667 -0.7072636
vn 0.3534643 0.6122355 -0.7072698
vn 0.353459 0.6122386 -0.7072698
vn 0 0.7069565 -0.707257
vn 0 0.7069565 -0.707257
vn -0.3534583 0.6122314 -0.7072765
vn -0.353458 0.6122316 -0.7072765
vn -0.6122323 0.3534619 -0.7072739
vn -0.612232 0.3534623 -0.7072739
vn -0.7069526 1.050179E-06 -0.707261
vn -0.7069526 0 -0.707261
vn -0.6122391 -0.3534842 -0.7072567
vn -0.612242 -0.3534793 -0.7072568
vn -0.3534803 -0.6122484 -0.7072508
vn -0.3534804 -0.6122483 -0.7072507
vn 0 -1 -2.356822E-07
vn -0.4999998 -0.8660255 0
vn -0.4999998 -0.8660255 0
vn 0 -1 -2.356823E-07
vn 0.5000008 -0.866025 -2.214599E-07
vn 0.5000008 -0.866025 -2.214598E-07
vn 0.8660253 -0.5000003 3.682232E-07
vn 0.8660253 -0.5000004 3.68223E-07
vn 1 -4.759888E-07 9.247704E-07
vn 1 3.000792E-07 9.247709E-07
vn 0.8660249 0.5000008 4.867229E-07
vn 0.8660251 0.5000007 4.867234E-07
vn 0.4999999 0.8660255 0
vn 0.5000005 0.8660251 0
vn 1.345186E-07 1 3.111909E-07
vn -1.24171E-07 1 3.111912E-07
vn -0.4999985 0.8660262 7.769097E-07
vn -0.4999995 0.8660257 7.769103E-07
vn -0.8660246 0.5000014 1.353415E-06
vn -0.8660251 0.5000005 1.353417E-06
vn -1 -2.090216E-06 7.558048E-07
vn -1 -9.623246E-07 7.558092E-07
vn -0.8660246 -0.5000013 -1.572195E-07
vn -0.8660244 -0.5000018 -1.572192E-07
vn -0.4999998 -0.8660255 0
vn -0.4999998 -0.8660255 0
vn 0 -0.706992 0.7072216
vn -0.3534947 -0.6122721 0.707223
vn -0.3534947 -0.6122722 0.7072229
vn 0 -0.7069919 0.7072216
vn 0.3535017 -0.6122741 0.7072178
vn 0.353496 -0.6122774 0.7072178
vn 0.6122831 -0.353499 0.7072114
vn 0.6122811 -0.3535025 0.7072114
vn 0.7070098 5.5337E-06 0.7072038
vn 0.7070098 6.84257E-06 0.7072037
vn 0.6122932 0.3535077 0.7071984
vn 0.6122916 0.3535104 0.7071983
vn 0.3535076 0.6122795 0.7072101
vn 0.3535034 0.612282 0.7072101
vn 2.457755E-07 0.7069929 0.7072207
vn 1.790761E-07 0.7069927 0.7072208
vn -0.3535017 0.6122752 0.7072168
vn -0.3535026 0.6122748 0.7072167
vn -0.612283 0.3535047 0.7072086
vn -0.6122822 0.3535058 0.7072086
vn -0.7069979 6.397521E-06 0.7072156
vn -0.7069979 5.570111E-06 0.7072156
vn -0.612269 -0.3534991 0.7072234
vn -0.6122718 -0.3534945 0.7072234
vn -0.3534947 -0.6122722 0.7072229
vn -0.3534947 -0.6122721 0.707223
vn -0.5000002 -0.8660253 0
vn 2.78907E-07 -1 0
vn -0.5000002 -0.8660253 0
vn 1.155476E-06 -1 0
vn 0.5000004 -0.8660251 0
vn 0.5000004 -0.8660251 0
vn 0.8660253 -0.5000001 0
vn 0.8660253 -0.5000001 0
vn 1 8.898462E-07 0
vn 1 8.898462E-07 0
vn 0.8660256 0.4999998 0
vn 0.8660256 0.4999998 0
vn 0.4999999 0.8660255 0
vn 0.4999999 0.8660255 0
vn 0 1 0
vn 0 1 0
vn -0.5000002 0.8660253 0
vn -0.5000002 0.8660253 0
vn -0.8660239 0.5000026 0
vn -0.8660239 0.5000026 0
vn -1 0 0
vn -1 0 0
vn -0.8660238 -0.5000028 0
vn -0.8660243 -0.500002 0
vn -0.5000002 -0.8660253 0
vn -0.5000002 -0.8660253 0
g straight_pipe_0
f 3/3/3 2/2/2 1/1/1
f 2/2/2 4/4/4 1/1/1
f 1/1/1 4/4/4 5/5/5
f 6/6/6 1/1/1 5/5/5
f 6/6/6 5/5/5 7/7/7
f 8/8/8 6/6/6 7/7/7
f 8/8/8 7/7/7 9/9/9
f 10/10/10 8/8/8 9/9/9
f 10/10/10 9/9/9 11/11/11
f 12/12/12 10/10/10 11/11/11
f 12/12/12 11/11/11 13/13/13
f 14/14/14 12/12/12 13/13/13
f 14/14/14 13/13/13 15/15/15
f 16/16/16 14/14/14 15/15/15
f 16/16/16 15/15/15 17/17/17
f 18/18/18 16/16/16 17/17/17
f 18/18/18 17/17/17 19/19/19
f 20/20/20 18/18/18 19/19/19
f 20/20/20 19/19/19 21/21/21
f 22/22/22 20/20/20 21/21/21
f 22/22/22 21/21/21 23/23/23
f 24/24/24 22/22/22 23/23/23
f 24/24/24 23/23/23 25/25/25
f 26/26/26 24/24/24 25/25/25
f 29/29/29 28/28/28 27/27/27
f 30/30/30 29/29/29 27/27/27
f 30/30/30 27/27/27 31/31/31
f 32/32/32 30/30/30 31/31/31
f 32/32/32 31/31/31 33/33/33
f 34/34/34 32/32/32 33/33/33
f 34/34/34 33/33/33 35/35/35
f 36/36/36 34/34/34 35/35/35
f 36/36/36 35/35/35 37/37/37
f 38/38/38 36/36/36 37/37/37
f 38/38/38 37/37/37 39/39/39
f 40/40/40 38/38/38 39/39/39
f 40/40/40 39/39/39 41/41/41
f 42/42/42 40/40/40 41/41/41
f 42/42/42 41/41/41 43/43/43
f 44/44/44 42/42/42 43/43/43
f 44/44/44 43/43/43 45/45/45
f 46/46/46 44/44/44 45/45/45
f 46/46/46 45/45/45 47/47/47
f 48/48/48 46/46/46 47/47/47
f 48/48/48 47/47/47 49/49/49
f 50/50/50 48/48/48 49/49/49
f 50/50/50 49/49/49 51/51/51
f 52/52/52 50/50/50 51/51/51
f 55/55/55 54/54/54 53/53/53
f 56/56/56 55/55/55 53/53/53
f 56/56/56 53/53/53 57/57/57
f 53/53/53 58/58/58 57/57/57
f 57/57/57 58/58/58 59/59/59
f 58/58/58 60/60/60 59/59/59
f 59/59/59 60/60/60 61/61/61
f 60/60/60 62/62/62 61/61/61
f 61/61/61 62/62/62 63/63/63
f 62/62/62 64/64/64 63/63/63
f 63/63/63 64/64/64 65/65/65
f 64/64/64 66/66/66 65/65/65
f 65/65/65 66/66/66 67/67/67
f 66/66/66 68/68/68 67/67/67
f 67/67/67 68/68/68 69/69/69
f 68/68/68 70/70/70 69/69/69
f 69/69/69 70/70/70 71/71/71
f 70/70/70 72/72/72 71/71/71
f 71/71/71 72/72/72 73/73/73
f 72/72/72 74/74/74 73/73/73
f 73/73/73 74/74/74 75/75/75
f 74/74/74 76/76/76 75/75/75
f 75/75/75 76/76/76 77/77/77
f 76/76/76 78/78/78 77/77/77
f 81/81/81 80/80/80 79/79/79
f 80/80/80 82/82/82 79/79/79
f 79/79/79 82/82/82 83/83/83
f 82/82/82 84/84/84 83/83/83
f 83/83/83 84/84/84 85/85/85
f 84/84/84 86/86/86 85/85/85
f 85/85/85 86/86/86 87/87/87
f 86/86/86 88/88/88 87/87/87
f 87/87/87 88/88/88 89/89/89
f 88/88/88 90/90/90 89/89/89
f 89/89/89 90/90/90 91/91/91
f 90/90/90 92/92/92 91/91/91
f 91/91/91 92/92/92 93/93/93
f 92/92/92 94/94/94 93/93/93
f 93/93/93 94/94/94 95/95/95
f 94/94/94 96/96/96 95/95/95
f 95/95/95 96/96/96 97/97/97
f 96/96/96 98/98/98 97/97/97
f 97/97/97 98/98/98 99/99/99
f 98/98/98 100/100/100 99/99/99
f 99/99/99 100/100/100 101/101/101
f 100/100/100 102/102/102 101/101/101
f 101/101/101 102/102/102 103/103/103
f 102/102/102 104/104/104 103/103/103
f 107/107/107 106/106/106 105/105/105
f 106/106/106 108/108/108 105/105/105
f 106/106/106 109/109/109 108/108/108
f 109/109/109 110/110/110 108/108/108
f 109/109/109 111/111/111 110/110/110
f 111/111/111 112/112/112 110/110/110
f 111/111/111 113/113/113 112/112/112
f 113/113/113 114/114/114 112/112/112
f 113/113/113 115/115/115 114/114/114
f 115/115/115 116/116/116 114/114/114
f 115/115/115 117/117/117 116/116/116
f 117/117/117 118/118/118 116/116/116
f 117/117/117 119/119/119 118/118/118
f 119/119/119 120/120/120 118/118/118
f 119/119/119 121/121/121 120/120/120
f 121/121/121 122/122/122 120/120/120
f 121/121/121 123/123/123 122/122/122
f 123/123/123 124/124/124 122/122/122
f 123/123/123 125/125/125 124/124/124
f 125/125/125 126/126/126 124/124/124
f 125/125/125 127/127/127 126/126/126
f 127/127/127 128/128/128 126/126/126
f 127/127/127 129/129/129 128/128/128
f 129/129/129 130/130/130 128/128/128
