g straight_pipe2_back_faces
v 0 0.1858305 0.9183764
v -0.09291504 0.160934 0.9183764
v -0.09961548 0.1725401 0.904978
v 0 0.1992321 0.904978
v 0.09291504 0.160934 0.9183764
v 0.09961548 0.1725401 0.904978
v 0.1609338 0.09291519 0.9183764
v 0.1725403 0.09961613 0.904978
v 0.1858313 3.814697E-08 0.9183764
v 0.1992322 -3.814697E-08 0.904978
v 0.1609338 -0.09291527 0.9183764
v 0.1725403 -0.09961615 0.904978
v 0.09291504 -0.1609341 0.9183764
v 0.09961548 -0.17254 0.9049804
v 0 -0.1858303 0.9183764
v 0 -0.1992321 0.904978
v -0.09291504 -0.1609341 0.9183764
v -0.09961548 -0.1725401 0.9049804
v -0.1609338 -0.0929151 0.9183764
v -0.1725403 -0.09961613 0.904978
v -0.1858313 3.814697E-08 0.9183764
v -0.1992322 7.629394E-08 0.904978
v -0.1609338 0.09291523 0.9183764
v -0.1725403 0.09961582 0.904978
v -0.09291504 0.160934 0.9183764
v -0.09961548 0.1725401 0.904978
v 0.09291504 0.160934 0.9183764
v 0.08690917 0.1505318 0.9183764
v 0 0.1738192 0.9183764
v 0 0.1858305 0.9183764
v 0 0.1858305 0.9183764
v 0 0.1738192 0.9183764
v -0.08690917 0.1505319 0.9183764
v -0.09291504 0.160934 0.9183764
v -0.09291504 0.160934 0.9183764
v -0.08690917 0.1505319 0.9183764
v -0.1505322 0.08690956 0.9183764
v -0.1609338 0.09291523 0.9183764
v -0.1609338 0.09291523 0.9183764
v -0.1505322 0.08690956 0.9183764
v -0.1738196 3.814697E-08 0.9183764
v -0.1858313 3.814697E-08 0.9183764
v -0.1858313 3.814697E-08 0.9183764
v -0.1738196 3.814697E-08 0.9183764
v -0.1505322 -0.08690943 0.9183764
v -0.1609338 -0.0929151 0.9183764
v -0.1609338 -0.0929151 0.9183764
v -0.1505322 -0.08690943 0.9183764
v -0.08690917 -0.1505319 0.9183764
v -0.09291504 -0.1609341 0.9183764
v -0.09291504 -0.1609341 0.9183764
v -0.08690917 -0.1505319 0.9183764
v 0 -0.173819 0.9183764
v 0 -0.1858303 0.9183764
v 0 -0.1858303 0.9183764
v 0 -0.173819 0.9183764
v 0.08690917 -0.1505319 0.9183764
v 0.09291504 -0.1609341 0.9183764
v 0.09291504 -0.1609341 0.9183764
v 0.08690917 -0.1505319 0.9183764
v 0.1505322 -0.08690958 0.9183764
v 0.1609338 -0.09291527 0.9183764
v 0.1609338 -0.09291527 0.9183764
v 0.1505322 -0.08690958 0.9183764
v 0.1738196 3.814697E-08 0.9183764
v 0.1858313 3.814697E-08 0.9183764
v 0.1858313 3.814697E-08 0.9183764
v 0.1738196 3.814697E-08 0.9183764
v 0.1505322 0.08690952 0.9183764
v 0.1609338 0.09291519 0.9183764
v 0.1609338 0.09291519 0.9183764
v 0.1505322 0.08690952 0.9183764
v 0.08690917 0.1505318 0.9183764
v 0.09291504 0.160934 0.9183764
v 0 0.1738192 0.9183764
v -0.08690917 0.1505319 0.03086182
v -0.08690917 0.1505319 0.9183764
v 0 0.1738192 0.03085693
v 0.08690917 0.1505318 0.9183764
v 0.08690917 0.1505318 0.03085693
v 0.1505322 0.08690952 0.9183764
v 0.1505322 0.08690952 0.03085693
v 0.1738196 3.814697E-08 0.9183764
v 0.1738196 3.814697E-08 0.03085693
v 0.1505322 -0.08690958 0.9183764
v 0.1505322 -0.08690958 0.03085693
v 0.08690917 -0.1505319 0.9183764
v 0.08690917 -0.1505319 0.03085693
v 0 -0.173819 0.9183764
v 0 -0.173819 0.03085693
v -0.08690917 -0.1505319 0.9183764
v -0.08690917 -0.1505319 0.03085693
v -0.1505322 -0.08690943 0.9183764
v -0.1505322 -0.08690943 0.03085693
v -0.1738196 3.814697E-08 0.9183764
v -0.1738196 3.814697E-08 0.03085693
v -0.1505322 0.08690956 0.9183764
v -0.1505322 0.08690956 0.03085693
v -0.08690917 0.1505319 0.9183764
v -0.08690917 0.1505319 0.03086182
v 0 0.1738192 0.03085693
v 0.08690917 0.1505318 0.03085693
v -0.08690917 0.1505319 0.03086182
v -0.1505322 0.08690956 0.03085693
v -0.1738196 3.814697E-08 0.03085693
v -0.1505322 -0.08690943 0.03085693
v -0.08690917 -0.1505319 0.03085693
v 0 -0.173819 0.03085693
v 0.08690917 -0.1505319 0.03085693
v 0.1505322 -0.08690958 0.03085693
v 0.1738196 3.814697E-08 0.03085693
v 0.1505322 0.08690952 0.03085693
v 0 -0.1992321 0.904978
v -0.09961548 -0.1725401 0.6693774
v -0.09961548 -0.1725401 0.9049804
v 0 -0.1992321 0.6693774
v 0.09961548 -0.1725401 0.6693774
v 0.09961548 -0.17254 0.9049804
v 0.1725403 -0.09961612 0.6693774
v 0.1725403 -0.09961615 0.904978
v 0.1992322 3.814697E-08 0.6693774
v 0.1992322 -3.814697E-08 0.904978
v 0.1725403 0.09961613 0.6693774
v 0.1725403 0.09961613 0.904978
v 0.09961548 0.1725401 0.6693774
v 0.09961548 0.1725401 0.904978
v 0 0.1992321 0.6693799
v 0 0.1992321 0.904978
v -0.09961548 0.1725401 0.6693774
v -0.09961548 0.1725401 0.904978
v -0.1725403 0.09961613 0.6693774
v -0.1725403 0.09961582 0.904978
v -0.1992322 -1.144409E-07 0.6693774
v -0.1992322 7.629394E-08 0.904978
v -0.1725403 -0.09961585 0.6693774
v -0.1725403 -0.09961613 0.904978
v -0.09961548 -0.1725401 0.6693774
v -0.09961548 -0.1725401 0.9049804
v 0 -0.1858305 0.6559814
v -0.09291504 -0.160934 0.655979
v -0.09961548 -0.1725401 0.6693774
v 0 -0.1992321 0.6693774
v 0.09291504 -0.160934 0.6559814
v 0.09961548 -0.1725401 0.6693774
v 0.1609338 -0.09291518 0.6559814
v 0.1725403 -0.09961612 0.6693774
v 0.1858313 -3.814697E-08 0.6559814
v 0.1992322 3.814697E-08 0.6693774
v 0.1609338 0.09291527 0.6559814
v 0.1725403 0.09961613 0.6693774
v 0.09291504 0.1609341 0.6559814
v 0.09961548 0.1725401 0.6693774
v 0 0.1858303 0.6559814
v 0 0.1992321 0.6693799
v -0.09291504 0.1609341 0.6559814
v -0.09961548 0.1725401 0.6693774
v -0.1609338 0.0929151 0.6559814
v -0.1725403 0.09961613 0.6693774
v -0.1858313 -3.814697E-08 0.6559814
v -0.1992322 -1.144409E-07 0.6693774
v -0.1609338 -0.09291523 0.6559814
v -0.1725403 -0.09961585 0.6693774
v -0.09291504 -0.160934 0.655979
v -0.09961548 -0.1725401 0.6693774
v -0.09291504 -0.160934 0.655979
v 0 -0.1858305 -0.9183764
v -0.09291504 -0.160934 -0.9183764
v 0 -0.1858305 0.6559814
v 0.09291504 -0.160934 -0.9183764
v 0.09291504 -0.160934 0.6559814
v 0.1609338 -0.09291518 -0.9183764
v 0.1609338 -0.09291518 0.6559814
v 0.1858313 -3.814697E-08 -0.9183764
v 0.1858313 -3.814697E-08 0.6559814
v 0.1609338 0.09291527 -0.9183764
v 0.1609338 0.09291527 0.6559814
v 0.09291504 0.1609341 -0.9183764
v 0.09291504 0.1609341 0.6559814
v 0 0.1858303 -0.9183764
v 0 0.1858303 0.6559814
v -0.09291504 0.1609341 -0.9183764
v -0.09291504 0.1609341 0.6559814
v -0.1609338 0.0929151 -0.9183764
v -0.1609338 0.0929151 0.6559814
v -0.1858313 -3.814697E-08 -0.9183764
v -0.1858313 -3.814697E-08 0.6559814
v -0.1609338 -0.09291523 -0.9183764
v -0.1609338 -0.09291523 0.6559814
v -0.09291504 -0.160934 -0.9183764
v -0.09291504 -0.160934 0.655979
vt 0.609304 0.3285265
vt 0.5939034 0.3283037
vt 0.593903 0.3306088
vt 0.6093493 0.3306074
vt 0.6248194 0.328528
vt 0.6247922 0.3306054
vt 0.6402329 0.3282994
vt 0.6402324 0.3306045
vt 0.6556712 0.3282994
vt 0.6556712 0.3306041
vt 0.6711095 0.3282994
vt 0.6711099 0.3306045
vt 0.6865496 0.3283009
vt 0.6865504 0.3306055
vt 0.7019925 0.3283024
vt 0.7019932 0.3306073
vt 0.7174388 0.3283037
vt 0.7174397 0.3306088
vt 0.732888 0.3283052
vt 0.7328886 0.3306102
vt 0.7483392 0.3283056
vt 0.7483392 0.3306107
vt 0.76379 0.3283052
vt 0.7637894 0.3306101
vt 0.7792394 0.3283037
vt 0.7792387 0.3306088
vt 0.6256323 0.3389703
vt 0.6259011 0.3371174
vt 0.6114588 0.3351253
vt 0.6112699 0.3369197
vt 0.6112699 0.3369197
vt 0.6114588 0.3351253
vt 0.5969675 0.3349654
vt 0.5964419 0.3368266
vt 0.7755267 0.3337925
vt 0.7745776 0.3320689
vt 0.7600051 0.3347004
vt 0.7603178 0.3365792
vt 0.7603178 0.3365792
vt 0.7600051 0.3347004
vt 0.7451486 0.3359077
vt 0.7452737 0.3377814
vt 0.7452737 0.3377814
vt 0.7451486 0.3359077
vt 0.7302455 0.3366151
vt 0.7303073 0.3384844
vt 0.7303073 0.3384844
vt 0.7302455 0.3366151
vt 0.7153184 0.3371111
vt 0.715355 0.3389804
vt 0.715355 0.3389804
vt 0.7153184 0.3371111
vt 0.700386 0.337478
vt 0.7004029 0.3393467
vt 0.7004029 0.3393467
vt 0.700386 0.337478
vt 0.6854452 0.3377386
vt 0.6854476 0.339606
vt 0.6854476 0.339606
vt 0.6854452 0.3377386
vt 0.6705075 0.3378915
vt 0.6704937 0.339759
vt 0.6704937 0.339759
vt 0.6705075 0.3378915
vt 0.6555837 0.3379199
vt 0.655544 0.3397873
vt 0.655544 0.3397873
vt 0.6555837 0.3379199
vt 0.6406921 0.3377499
vt 0.6405959 0.3396148
vt 0.6405959 0.3396148
vt 0.6406921 0.3377499
vt 0.6259011 0.3371174
vt 0.6256323 0.3389703
vt 0.9334238 0.8359554
vt 0.9308074 0.8090088
vt 0.9306791 0.8359252
vt 0.9335483 0.8090424
vt 0.9361592 0.8363327
vt 0.9362851 0.8090797
vt 0.9389606 0.8364525
vt 0.9389873 0.8091106
vt 0.941781 0.8364847
vt 0.9416825 0.809125
vt 0.9446076 0.8364794
vt 0.9443745 0.8091208
vt 0.9474368 0.8364504
vt 0.9470652 0.8090981
vt 0.9502666 0.836401
vt 0.9497553 0.8090562
vt 0.9530949 0.8363315
vt 0.9524456 0.8089954
vt 0.955922 0.8362376
vt 0.9551367 0.8089159
vt 0.9587447 0.8361036
vt 0.9578303 0.8088179
vt 0.9615585 0.835875
vt 0.9605277 0.8087023
vt 0.9643185 0.8353766
vt 0.9632328 0.808571
vt 0.9144161 0.8169522
vt 0.9110211 0.8178883
vt 0.9178109 0.817846
vt 0.9202963 0.8203298
vt 0.921206 0.8237384
vt 0.9202963 0.8271584
vt 0.917811 0.8296733
vt 0.9144161 0.8306094
vt 0.9110211 0.8297157
vt 0.9085358 0.8272318
vt 0.9076263 0.8238233
vt 0.9085358 0.8204033
vt 0.8142363 0.331252
vt 0.7987865 0.2907164
vt 0.7987893 0.3312535
vt 0.8142327 0.2907149
vt 0.8296756 0.290713
vt 0.8296787 0.3312503
vt 0.845116 0.2907121
vt 0.8451179 0.3312488
vt 0.8605546 0.2907116
vt 0.8605546 0.3312482
vt 0.8759934 0.2907121
vt 0.8759917 0.3312488
vt 0.8914337 0.2907131
vt 0.8914307 0.3312502
vt 0.9068766 0.2907149
vt 0.9068733 0.331252
vt 0.922323 0.2907164
vt 0.92232 0.3312535
vt 0.937772 0.2907178
vt 0.9377703 0.3312548
vt 0.9532225 0.2907183
vt 0.9532225 0.3312554
vt 0.9686731 0.2907177
vt 0.9686751 0.3312554
vt 0.984122 0.2907164
vt 0.9841252 0.3312535
vt 0.8142336 0.2884099
vt 0.798787 0.2884113
vt 0.7987865 0.2907164
vt 0.8142327 0.2907149
vt 0.8296765 0.2884085
vt 0.8296756 0.290713
vt 0.8451163 0.288407
vt 0.845116 0.2907121
vt 0.8605546 0.288407
vt 0.8605546 0.2907116
vt 0.8759931 0.288407
vt 0.8759934 0.2907121
vt 0.8914332 0.2884085
vt 0.8914337 0.2907131
vt 0.906876 0.2884099
vt 0.9068766 0.2907149
vt 0.9223223 0.2884113
vt 0.922323 0.2907164
vt 0.9377717 0.2884127
vt 0.937772 0.2907178
vt 0.9532225 0.2884132
vt 0.9532225 0.2907183
vt 0.9686734 0.2884127
vt 0.9686731 0.2907177
vt 0.9841228 0.2884113
vt 0.984122 0.2907164
vt 0.798787 0.2884113
vt 0.8142084 0.01752873
vt 0.7987654 0.01753031
vt 0.8142336 0.2884099
vt 0.8296545 0.01752727
vt 0.8296765 0.2884085
vt 0.8451038 0.01752605
vt 0.8451163 0.288407
vt 0.8605546 0.01752554
vt 0.8605546 0.288407
vt 0.8760056 0.01752608
vt 0.8759931 0.288407
vt 0.8914546 0.01752727
vt 0.8914332 0.2884085
vt 0.906901 0.01752876
vt 0.906876 0.2884099
vt 0.9223439 0.01753025
vt 0.9223223 0.2884113
vt 0.9377843 0.0175315
vt 0.9377717 0.2884127
vt 0.9532225 0.01753204
vt 0.9532225 0.2884132
vt 0.968661 0.0175315
vt 0.9686734 0.2884127
vt 0.9841011 0.01753028
vt 0.9841228 0.2884113
vn 4.245033E-07 0.7070244 0.7071892
vn -0.3535145 0.6123019 0.7071874
vn -0.3535117 0.6123035 0.7071874
vn 4.241053E-07 0.7070245 0.7071892
vn 0.3535137 0.6122995 0.7071898
vn 0.3535107 0.6123013 0.7071897
vn 0.6123005 0.3535156 0.707188
vn 0.6123011 0.3535147 0.707188
vn 0.7070282 6.106889E-07 0.7071854
vn 0.7070282 -3.675561E-07 0.7071854
vn 0.612294 -0.3534975 0.7072027
vn 0.6122954 -0.353495 0.7072027
vn 0.3534957 -0.6122725 0.7072222
vn 0.3534934 -0.6122739 0.7072222
vn 3.947316E-07 -0.706994 0.7072196
vn 3.864292E-07 -0.706994 0.7072196
vn -0.3534947 -0.6122717 0.7072234
vn -0.3534922 -0.6122731 0.7072234
vn -0.6122936 -0.3534962 0.7072037
vn -0.6122942 -0.3534952 0.7072036
vn -0.7070288 0 0.7071848
vn -0.7070289 3.958301E-07 0.7071847
vn -0.6123022 0.3535185 0.7071851
vn -0.6123046 0.3535143 0.7071851
vn -0.3535145 0.6123019 0.7071874
vn -0.3535117 0.6123035 0.7071874
vn 0 0 1
vn 0 0 1
vn 0 0 1
vn 0 0 1
vn 0 0 1
vn 0 0 1
vn 0 0 1
vn 0 0 1
vn 2.825803E-06 0 1
vn 2.825802E-06 0 1
vn 2.825802E-06 0 1
vn 2.825802E-06 0 1
vn 1.412899E-06 0 1
vn 1.412899E-06 0 1
vn 1.412899E-06 0 1
vn 1.412899E-06 0 1
vn 0 0 1
vn 0 0 1
vn 0 0 1
vn 0 0 1
vn 4.238693E-06 0 1
vn 4.238692E-06 0 1
vn 4.238692E-06 0 1
vn 4.238692E-06 0 1
vn -1.412894E-06 0 1
vn -1.412894E-06 0 1
vn -1.412894E-06 0 1
vn -1.412894E-06 0 1
vn 0 0 1
vn 0 0 1
vn 0 0 1
vn 0 0 1
vn -2.825796E-06 0 1
vn -2.825796E-06 0 1
vn -2.825796E-06 0 1
vn -2.825796E-06 0 1
vn -2.119345E-06 0 1
vn -2.119345E-06 0 1
vn -2.119345E-06 0 1
vn -2.119345E-06 0 1
vn 0 0 1
vn 0 0 1
vn 0 0 1
vn 0 0 1
vn -4.238696E-06 0 1
vn -4.238696E-06 0 1
vn -4.238696E-06 0 1
vn -4.238696E-06 0 1
vn -5.793153E-07 -1 0
vn 0.499999 -0.866026 0
vn 0.499999 -0.866026 0
vn -5.213928E-06 -1 0
vn -0.4999992 -0.8660259 0
vn -0.4999992 -0.8660259 0
vn -0.8660234 -0.5000036 0
vn -0.8660234 -0.5000036 0
vn -1 0 0
vn -1 0 0
vn -0.8660237 0.5000032 0
vn -0.8660237 0.5000032 0
vn -0.4999983 0.8660264 0
vn -0.4999983 0.8660264 0
vn 0 1 0
vn 0 1 0
vn 0.499999 0.866026 0
vn 0.499999 0.866026 0
vn 0.8660237 0.5000032 0
vn 0.8660237 0.5000032 0
vn 1 0 0
vn 1 0 0
vn 0.8660237 -0.5000032 0
vn 0.8660259 -0.4999991 0
vn 0.499999 -0.866026 0
vn 0.499999 -0.866026 0
vn 2.810782E-05 0.0001048389 1
vn 2.340172E-06 -4.054635E-06 1
vn 2.81074E-05 -9.664435E-05 1
vn 3.527796E-06 -1.322334E-05 1
vn 0 0 1
vn 0 0 1
vn 0 0 1
vn 0 0 1
vn 0 0 1
vn 0 0 1
vn 0 0 1
vn 0 0 1
vn -1.862519E-07 -1 2.885048E-07
vn -0.4999998 -0.8660256 -1.361246E-07
vn -0.4999997 -0.8660255 -1.361245E-07
vn -1.862547E-07 -1 2.885048E-07
vn 0.4999991 -0.8660259 2.620907E-07
vn 0.4999991 -0.8660259 2.620907E-07
vn 0.8660237 -0.5000029 0
vn 0.8660228 -0.5000047 0
vn 1 0 0
vn 1 0 0
vn 0.8660241 0.5000024 0
vn 0.8660241 0.5000024 0
vn 0.5000016 0.8660244 -1.625373E-07
vn 0.4999998 0.8660255 -1.625381E-07
vn 0 1 -2.600633E-07
vn -1.034759E-07 1 -2.600633E-07
vn -0.5000022 0.8660241 1.300333E-07
vn -0.5000004 0.8660251 1.300304E-07
vn -0.866024 0.5000026 2.925677E-07
vn -0.8660241 0.5000021 2.925673E-07
vn -1 -1.241698E-07 0
vn -1 1.448648E-07 0
vn -0.8660237 -0.5000029 -2.356787E-07
vn -0.8660226 -0.500005 -2.356805E-07
vn -0.4999998 -0.8660256 -1.361246E-07
vn -0.4999997 -0.8660255 -1.361245E-07
vn -4.751707E-06 -0.7069765 -0.7072371
vn -0.3534972 -0.6122728 -0.7072212
vn -0.3534945 -0.6122744 -0.7072211
vn -3.732422E-06 -0.7069765 -0.7072371
vn 0.3534817 -0.6122429 -0.7072548
vn 0.3534782 -0.612245 -0.7072548
vn 0.6122451 -0.353483 -0.7072522
vn 0.6122456 -0.353482 -0.7072523
vn 0.7069636 -3.277134E-07 -0.7072499
vn 0.7069635 6.409332E-07 -0.7072499
vn 0.6122454 0.353484 -0.7072514
vn 0.6122464 0.3534824 -0.7072515
vn 0.3534775 0.6122657 -0.7072371
vn 0.3534741 0.6122677 -0.7072371
vn 0 0.7069945 -0.707219
vn 0 0.7069945 -0.707219
vn -0.353477 0.6122648 -0.7072382
vn -0.3534736 0.6122668 -0.7072382
vn -0.6122448 0.3534827 -0.7072526
vn -0.6122448 0.3534827 -0.7072526
vn -0.7069634 4.394344E-07 -0.7072502
vn -0.7069634 -4.71275E-07 -0.7072502
vn -0.6122568 -0.3534992 -0.707234
vn -0.6122596 -0.3534944 -0.7072341
vn -0.3534972 -0.6122728 -0.7072212
vn -0.3534945 -0.6122744 -0.7072211
vn -0.5000003 -0.8660253 0
vn 3.453141E-07 -1 0
vn -0.5000003 -0.8660253 0
vn 2.523469E-06 -1 0
vn 0.5000005 -0.8660251 0
vn 0.5000005 -0.8660251 0
vn 0.8660231 -0.5000041 0
vn 0.8660231 -0.5000041 0
vn 1 0 0
vn 1 0 0
vn 0.8660233 0.5000037 0
vn 0.8660233 0.5000037 0
vn 0.4999995 0.8660257 0
vn 0.4999995 0.8660257 0
vn 0 1 0
vn 0 1 0
vn -0.5000002 0.8660253 0
vn -0.5000002 0.8660253 0
vn -0.8660234 0.5000036 0
vn -0.8660234 0.5000036 0
vn -1 0 0
vn -1 0 0
vn -0.8660232 -0.5000039 0
vn -0.8660243 -0.500002 0
vn -0.5000003 -0.8660253 0
vn -0.5000003 -0.8660253 0
g straight_pipe2_back_faces_0
f 3/3/3 2/2/2 1/1/1
f 4/4/4 3/3/3 1/1/1
f 4/4/4 1/1/1 5/5/5
f 6/6/6 4/4/4 5/5/5
f 6/6/6 5/5/5 7/7/7
f 8/8/8 6/6/6 7/7/7
f 8/8/8 7/7/7 9/9/9
f 10/10/10 8/8/8 9/9/9
f 10/10/10 9/9/9 11/11/11
f 12/12/12 10/10/10 11/11/11
f 12/12/12 11/11/11 13/13/13
f 14/14/14 12/12/12 13/13/13
f 14/14/14 13/13/13 15/15/15
f 16/16/16 14/14/14 15/15/15
f 16/16/16 15/15/15 17/17/17
f 18/18/18 16/16/16 17/17/17
f 18/18/18 17/17/17 19/19/19
f 20/20/20 18/18/18 19/19/19
f 20/20/20 19/19/19 21/21/21
f 22/22/22 20/20/20 21/21/21
f 22/22/22 21/21/21 23/23/23
f 24/24/24 22/22/22 23/23/23
f 24/24/24 23/23/23 25/25/25
f 26/26/26 24/24/24 25/25/25
f 29/29/29 28/28/28 27/27/27
f 30/30/30 29/29/29 27/27/27
f 33/33/33 32/32/32 31/31/31
f 34/34/34 33/33/33 31/31/31
f 37/37/37 36/36/36 35/35/35
f 38/38/38 37/37/37 35/35/35
f 41/41/41 40/40/40 39/39/39
f 42/42/42 41/41/41 39/39/39
f 45/45/45 44/44/44 43/43/43
f 46/46/46 45/45/45 43/43/43
f 49/49/49 48/48/48 47/47/47
f 50/50/50 49/49/49 47/47/47
f 53/53/53 52/52/52 51/51/51
f 54/54/54 53/53/53 51/51/51
f 57/57/57 56/56/56 55/55/55
f 58/58/58 57/57/57 55/55/55
f 61/61/61 60/60/60 59/59/59
f 62/62/62 61/61/61 59/59/59
f 65/65/65 64/64/64 63/63/63
f 66/66/66 65/65/65 63/63/63
f 69/69/69 68/68/68 67/67/67
f 70/70/70 69/69/69 67/67/67
f 73/73/73 72/72/72 71/71/71
f 74/74/74 73/73/73 71/71/71
f 77/77/77 76/76/76 75/75/75
f 76/76/76 78/78/78 75/75/75
f 75/75/75 78/78/78 79/79/79
f 78/78/78 80/80/80 79/79/79
f 79/79/79 80/80/80 81/81/81
f 80/80/80 82/82/82 81/81/81
f 81/81/81 82/82/82 83/83/83
f 82/82/82 84/84/84 83/83/83
f 83/83/83 84/84/84 85/85/85
f 84/84/84 86/86/86 85/85/85
f 85/85/85 86/86/86 87/87/87
f 86/86/86 88/88/88 87/87/87
f 87/87/87 88/88/88 89/89/89
f 88/88/88 90/90/90 89/89/89
f 89/89/89 90/90/90 91/91/91
f 90/90/90 92/92/92 91/91/91
f 91/91/91 92/92/92 93/93/93
f 92/92/92 94/94/94 93/93/93
f 93/93/93 94/94/94 95/95/95
f 94/94/94 96/96/96 95/95/95
f 95/95/95 96/96/96 97/97/97
f 96/96/96 98/98/98 97/97/97
f 97/97/97 98/98/98 99/99/99
f 98/98/98 100/100/100 99/99/99
f 103/103/103 102/102/102 101/101/101
f 104/104/104 102/102/102 103/103/103
f 105/105/105 102/102/102 104/104/104
f 106/106/106 102/102/102 105/105/105
f 107/107/107 102/102/102 106/106/106
f 108/108/108 102/102/102 107/107/107
f 109/109/109 102/102/102 108/108/108
f 110/110/110 102/102/102 109/109/109
f 111/111/111 102/102/102 110/110/110
f 112/112/112 102/102/102 111/111/111
f 115/115/115 114/114/114 113/113/113
f 114/114/114 116/116/116 113/113/113
f 113/113/113 116/116/116 117/117/117
f 118/118/118 113/113/113 117/117/117
f 118/118/118 117/117/117 119/119/119
f 120/120/120 118/118/118 119/119/119
f 120/120/120 119/119/119 121/121/121
f 122/122/122 120/120/120 121/121/121
f 122/122/122 121/121/121 123/123/123
f 124/124/124 122/122/122 123/123/123
f 124/124/124 123/123/123 125/125/125
f 126/126/126 124/124/124 125/125/125
f 126/126/126 125/125/125 127/127/127
f 128/128/128 126/126/126 127/127/127
f 128/128/128 127/127/127 129/129/129
f 130/130/130 128/128/128 129/129/129
f 130/130/130 129/129/129 131/131/131
f 132/132/132 130/130/130 131/131/131
f 132/132/132 131/131/131 133/133/133
f 134/134/134 132/132/132 133/133/133
f 134/134/134 133/133/133 135/135/135
f 136/136/136 134/134/134 135/135/135
f 136/136/136 135/135/135 137/137/137
f 138/138/138 136/136/136 137/137/137
f 141/141/141 140/140/140 139/139/139
f 142/142/142 141/141/141 139/139/139
f 142/142/142 139/139/139 143/143/143
f 144/144/144 142/142/142 143/143/143
f 144/144/144 143/143/143 145/145/145
f 146/146/146 144/144/144 145/145/145
f 146/146/146 145/145/145 147/147/147
f 148/148/148 146/146/146 147/147/147
f 148/148/148 147/147/147 149/149/149
f 150/150/150 148/148/148 149/149/149
f 150/150/150 149/149/149 151/151/151
f 152/152/152 150/150/150 151/151/151
f 152/152/152 151/151/151 153/153/153
f 154/154/154 152/152/152 153/153/153
f 154/154/154 153/153/153 155/155/155
f 156/156/156 154/154/154 155/155/155
f 156/156/156 155/155/155 157/157/157
f 158/158/158 156/156/156 157/157/157
f 158/158/158 157/157/157 159/159/159
f 160/160/160 158/158/158 159/159/159
f 160/160/160 159/159/159 161/161/161
f 162/162/162 160/160/160 161/161/161
f 162/162/162 161/161/161 163/163/163
f 164/164/164 162/162/162 163/163/163
f 167/167/167 166/166/166 165/165/165
f 166/166/166 168/168/168 165/165/165
f 166/166/166 169/169/169 168/168/168
f 169/169/169 170/170/170 168/168/168
f 169/169/169 171/171/171 170/170/170
f 171/171/171 172/172/172 170/170/170
f 171/171/171 173/173/173 172/172/172
f 173/173/173 174/174/174 172/172/172
f 173/173/173 175/175/175 174/174/174
f 175/175/175 176/176/176 174/174/174
f 175/175/175 177/177/177 176/176/176
f 177/177/177 178/178/178 176/176/176
f 177/177/177 179/179/179 178/178/178
f 179/179/179 180/180/180 178/178/178
f 179/179/179 181/181/181 180/180/180
f 181/181/181 182/182/182 180/180/180
f 181/181/181 183/183/183 182/182/182
f 183/183/183 184/184/184 182/182/182
f 183/183/183 185/185/185 184/184/184
f 185/185/185 186/186/186 184/184/184
f 185/185/185 187/187/187 186/186/186
f 187/187/187 188/188/188 186/186/186
f 187/187/187 189/189/189 188/188/188
f 189/189/189 190/190/190 188/188/188
