g Support_Corner_Wooden_Tall_LOD0
v 4.930381E-32 2 0
v 1.959435E-17 2 -0.16
v 0.16 2 -0.16
v 0.16 2 0
v 0.1522422 0.9064166 -0.1527223
v 1.959435E-17 0 -0.16
v 0.16 0 -0.16
v 0.0078899 0.9064166 -0.1527223
v 1.959435E-17 2 -0.16
v 0.16 2 -0.16
v 0.0078899 0.9064166 -0.1527223
v 0 0 0
v 1.959435E-17 0 -0.16
v 0.0078899 0.9064167 -0.007969436
v 1.959435E-17 2 -0.16
v 4.930381E-32 2 0
v 0.0078899 0.9064167 -0.007969436
v 0.16 0 1.959434E-17
v 0 0 0
v 0.1522422 0.9064167 -0.007969436
v 0.16 2 0
v 4.930381E-32 2 0
v 0.1522422 0.9064166 -0.1527223
v 0.16 0 -0.16
v 0.16 0 1.959434E-17
v 0.1522422 0.9064167 -0.007969436
v 0.16 2 0
v 0.16 2 -0.16
v 0.16 0 1.959434E-17
v 0.16 0 -0.16
v 1.959435E-17 0 -0.16
v 0 0 0
v 0.1423328 1.556255 -0.1522707
v 0.1375257 2 -0.6276126
v 0.02997444 2 -0.6277744
v 0.03321686 1.554996 -0.1522847
v 0.1375257 2 -0.6276126
v 0.1423328 1.556255 -0.1522707
v 0.1410643 1.719068 -0.1506519
v 0.137483 2 -0.4707567
v 0.137483 2 -0.4707567
v 0.1410643 1.719068 -0.1506519
v 0.03450295 1.720418 -0.1518072
v 0.02999641 2 -0.4692374
v 0.02997444 2 -0.6277744
v 0.02999641 2 -0.4692374
v 0.03450295 1.720418 -0.1518072
v 0.03321686 1.554996 -0.1522847
v 0.02999641 2 -0.4692374
v 0.02997444 2 -0.6277744
v 0.1375257 2 -0.6276126
v 0.137483 2 -0.4707567
v 0.1556257 1.612794 -0.1293571
v 0.1556257 1.612794 -0.02024109
v 0.6218482 2 -0.02372787
v 0.6218483 2 -0.1274362
v 0.4641105 2 -0.1281732
v 0.155151 1.763877 -0.1284759
v 0.1556257 1.612794 -0.1293571
v 0.6218483 2 -0.1274362
v 0.4647667 2 -0.02288773
v 0.1551794 1.763895 -0.02113052
v 0.155151 1.763877 -0.1284759
v 0.4641105 2 -0.1281732
v 0.6218482 2 -0.02372787
v 0.1556257 1.612794 -0.02024109
v 0.1551794 1.763895 -0.02113052
v 0.4647667 2 -0.02288773
v 0.4647667 2 -0.02288773
v 0.4641105 2 -0.1281732
v 0.6218483 2 -0.1274362
v 0.6218482 2 -0.02372787
vt 0.5406924 0.9624733
vt 0.5044575 0.9624732
vt 0.5044575 0.9980203
vt 0.5406923 0.9980204
vt 0.6124743 0.7499442
vt 0.6480215 0.537441
vt 0.6124743 0.537441
vt 0.6480215 0.7499442
vt 0.6480215 0.9624733
vt 0.6124743 0.9624733
vt 0.5044575 0.7499442
vt 0.5406924 0.5374152
vt 0.5044575 0.5374152
vt 0.5406924 0.7499442
vt 0.5044575 0.9624732
vt 0.5406924 0.9624733
vt 0.5406924 0.7499442
vt 0.5762395 0.5374152
vt 0.5406924 0.5374152
vt 0.5762395 0.7499442
vt 0.5762395 0.9624733
vt 0.5406924 0.9624733
vt 0.6124743 0.7499442
vt 0.6124743 0.537441
vt 0.5762395 0.5374152
vt 0.5762395 0.7499442
vt 0.5762395 0.9624733
vt 0.6124743 0.9624733
vt 0.5406924 0.5018681
vt 0.5044576 0.5018681
vt 0.5044575 0.5374152
vt 0.5406924 0.5374152
vt 0.6900225 0.7359763
vt 0.6900225 0.9623907
vt 0.6537877 0.9623907
vt 0.6537877 0.7359765
vt 0.6900225 0.9623907
vt 0.6900225 0.7359763
vt 0.7255696 0.77762
vt 0.7255696 0.9360162
vt 0.7255696 0.9360162
vt 0.7255696 0.77762
vt 0.7618045 0.7782099
vt 0.7618045 0.9352404
vt 0.7973516 0.9624733
vt 0.7618045 0.9352404
vt 0.7618045 0.7782099
vt 0.7973515 0.7359763
vt 0.6537877 0.9976699
vt 0.6537877 0.9623907
vt 0.6900225 0.9623907
vt 0.6900225 0.9976699
vt 0.5044575 0.7499443
vt 0.5406924 0.7499442
vt 0.5406923 0.9624721
vt 0.5044575 0.9624744
vt 0.6124743 0.9309005
vt 0.6124743 0.7853181
vt 0.6480215 0.7499442
vt 0.6480215 0.9624733
vt 0.5762395 0.9312651
vt 0.5762395 0.7856469
vt 0.6124743 0.7853181
vt 0.6124743 0.9309005
vt 0.5406923 0.9624721
vt 0.5406924 0.7499442
vt 0.5762395 0.7856469
vt 0.5762395 0.9312651
vt 0.5406967 0.9972845
vt 0.5044619 0.9972889
vt 0.5044575 0.9624744
vt 0.5406923 0.9624721
vn 0 1 0
vn 0 1 0
vn 0 1 0
vn 0 1 0
vn 0 3.366588E-06 -1
vn 1.769912E-07 0.008028788 -0.9999678
vn 1.769912E-07 0.008028788 -0.9999678
vn 0 3.423867E-06 -1
vn 0 -0.006654745 -0.9999778
vn 0 -0.006654745 -0.9999778
vn -1 3.43735E-06 0
vn -0.9999621 0.008704166 0
vn -0.9999621 0.008704168 0
vn -1 3.756554E-06 0
vn -0.999974 -0.007214534 0
vn -0.999974 -0.007214535 0
vn 0 3.759306E-06 1
vn 0 0.008791903 0.9999614
vn 0 0.008791904 0.9999614
vn 0 3.696498E-06 1
vn 0 -0.007287261 0.9999735
vn 0 -0.007287262 0.9999735
vn 1 3.360806E-06 0
vn 0.9999634 0.00855836 0
vn 0.9999634 0.00855836 0
vn 1 3.675287E-06 0
vn 0.9999748 -0.007093712 0
vn 0.9999748 -0.007093712 0
vn 0 -1 0
vn 0 -1 0
vn 0 -1 0
vn 0 -1 0
vn 0.004795792 -0.7305259 -0.6828682
vn 0.004795793 -0.7305259 -0.6828682
vn 0.004795791 -0.7305259 -0.6828682
vn 0.004795793 -0.7305259 -0.6828682
vn 0.9999515 0.009708199 -0.001700541
vn 0.9999515 0.009708199 -0.001700541
vn 0.9999515 0.009708199 -0.001700541
vn 0.9999515 0.009708199 -0.001700541
vn 0.005858747 0.7510394 0.6602314
vn 0.005858747 0.7510394 0.6602313
vn 0.005858747 0.7510394 0.6602314
vn 0.005858747 0.7510395 0.6602314
vn -0.9999588 -0.0007914394 0.009049052
vn -0.9999588 -0.0007914395 0.009049051
vn -0.9999588 -0.0007914395 0.009049051
vn -0.9999588 -0.0007914394 0.009049051
vn 0 1 0
vn 0 1 0
vn 0 1 0
vn 0 1 0
vn 0.6389052 -0.7692856 0
vn 0.6389052 -0.7692854 0
vn 0.6389052 -0.7692854 0
vn 0.6389052 -0.7692854 0
vn 0.001140604 0.002148874 -0.999997
vn 0.001140604 0.002148874 -0.999997
vn 0.001140604 0.002148874 -0.999997
vn 0.001140604 0.002148874 -0.999997
vn -0.6068149 0.794841 0.001888548
vn -0.6068149 0.794841 0.001888548
vn -0.6068149 0.7948409 0.001888548
vn -0.6068148 0.794841 0.001888548
vn 0.003535693 0.004012251 0.9999857
vn 0.003535693 0.004012252 0.9999857
vn 0.003535693 0.004012251 0.9999857
vn 0.003535693 0.004012251 0.9999857
vn 0 1 -3.710604E-07
vn 0 1 -3.710604E-07
vn 0 1 -3.710604E-07
vn 0 1 -3.710604E-07
g Support_Corner_Wooden_Tall_LOD0_0
f 3/3/3 2/2/2 1/1/1
f 4/4/4 3/3/3 1/1/1
f 7/7/7 6/6/6 5/5/5
f 6/6/6 8/8/8 5/5/5
f 8/8/8 9/9/9 5/5/5
f 9/9/9 10/10/10 5/5/5
f 13/13/13 12/12/12 11/11/11
f 12/12/12 14/14/14 11/11/11
f 11/11/11 14/14/14 15/15/15
f 14/14/14 16/16/16 15/15/15
f 19/19/19 18/18/18 17/17/17
f 18/18/18 20/20/20 17/17/17
f 20/20/20 21/21/21 17/17/17
f 21/21/21 22/22/22 17/17/17
f 25/25/25 24/24/24 23/23/23
f 26/26/26 25/25/25 23/23/23
f 27/27/27 26/26/26 23/23/23
f 28/28/28 27/27/27 23/23/23
f 31/31/31 30/30/30 29/29/29
f 32/32/32 31/31/31 29/29/29
f 35/35/35 34/34/34 33/33/33
f 36/36/36 35/35/35 33/33/33
f 39/39/39 38/38/38 37/37/37
f 40/40/40 39/39/39 37/37/37
f 43/43/43 42/42/42 41/41/41
f 44/44/44 43/43/43 41/41/41
f 47/47/47 46/46/46 45/45/45
f 48/48/48 47/47/47 45/45/45
f 51/51/51 50/50/50 49/49/49
f 52/52/52 51/51/51 49/49/49
f 55/55/55 54/54/54 53/53/53
f 56/56/56 55/55/55 53/53/53
f 59/59/59 58/58/58 57/57/57
f 60/60/60 59/59/59 57/57/57
f 63/63/63 62/62/62 61/61/61
f 64/64/64 63/63/63 61/61/61
f 67/67/67 66/66/66 65/65/65
f 68/68/68 67/67/67 65/65/65
f 71/71/71 70/70/70 69/69/69
f 72/72/72 71/71/71 69/69/69
