g tangle_DLC_flower_LOD1
v -0.2181184 1.021531 -0.5003456
v -0.2036904 1.082963 -0.416457
v -0.3141386 1.183212 -0.3805813
v -0.3141386 1.183212 -0.3805813
v -0.1626019 1.160923 -0.3602791
v -0.1353005 1.163467 -0.4069908
v -0.230555 1.217074 -0.2850482
v -0.07163203 1.155297 -0.2428057
v -0.0653393 1.245569 -0.4050707
v -0.04612806 1.123113 -0.4214566
v -0.1075165 1.100488 -0.5339771
v -0.002592005 1.109909 -0.5095304
v -0.1812198 1.170139 -0.4763161
v 0.003381432 1.177642 -0.5091881
v 0.03880494 1.202767 -0.4623178
v 0.0319851 1.189337 -0.3489658
v 0.08839124 1.229622 -0.4749972
v 0.003381432 1.177642 -0.5091881
v 0.08140481 1.240685 -0.3285253
v -0.2181184 1.021531 -0.5003456
v -0.1329506 0.9782498 -0.5182189
v 0.004995418 1.07085 -0.6369922
v 0.1125915 0.9294762 -0.5368236
v -0.2912222 0.976409 -0.4900835
v -0.2373768 0.8441506 -0.4586634
v -0.3338137 0.9272624 -0.3592299
v -0.3338137 0.9272624 -0.3592299
v 0.01864425 0.9550537 -0.6014884
v -0.08146266 0.9928489 -0.6088284
v -0.5152575 0.9791353 -0.3623078
v -0.5746546 1.10473 -0.1485265
v -0.3628223 0.8050225 -0.4296526
v -0.2771766 0.9955389 -0.215148
v -0.3338137 0.9272624 -0.3592299
v -0.230555 1.217074 -0.2850482
v -0.2375079 0.7382193 -0.4275599
v -0.1906223 1.155656 -0.171298
v -0.2207494 1.107672 -0.1015448
v -0.3168752 1.138195 0.004894981
v -0.200348 0.7942066 -0.6048859
v -0.1968106 0.6891943 -0.5961609
v -0.007498998 0.602994 -0.7940152
v -0.1228911 1.274908 -0.06435332
v -0.009103741 1.095797 0.01552324
v -0.08491775 1.020201 0.04367554
v 0.000446501 0.9787188 0.03730131
v 0.018606 1.249827 -0.01371846
v 0.225171 1.160442 0.03768279
v 0.08204391 1.150007 -0.00962096
v -0.1451831 0.8726743 -0.5327621
v -0.002036601 0.7577487 -0.702634
v 0.2553998 0.7353894 -0.6095179
v -0.01149795 0.8117523 -0.5941943
v -0.07913433 0.9311606 -0.6519183
v -0.08146266 0.9928489 -0.6088284
v 0.004995418 1.07085 -0.6369922
v 0.06149163 0.9248112 -0.7617733
v 0.1488586 0.8423803 -0.6093183
v -0.01149795 0.8117523 -0.5941943
v 0.2157441 0.8241743 -0.5937492
v 0.1680808 0.9078202 -0.5901301
v 0.2638187 0.8544108 -0.4218704
v 0.2817978 0.7681483 -0.3939707
v 0.3869964 0.9599448 -0.3495017
v 0.1979505 0.861028 -0.506906
v 0.2706238 1.037811 -0.5605966
v 0.3322494 1.06438 -0.4251488
v 0.2706238 1.037811 -0.5605966
v 0.2773672 0.9518316 -0.2237287
v 0.2742898 1.083541 -0.1736088
v 0.3921025 1.161307 -0.4871583
v 0.3277397 1.166818 -0.3245382
v 0.2742898 1.083541 -0.1736088
v -0.08146266 0.9928489 -0.6088284
v 0.06149163 0.9248112 -0.7617733
v 0.2706238 1.037811 -0.5605966
v 0.1891354 1.036228 -0.5126925
v 0.3921025 1.161307 -0.4871583
v 0.2238141 1.145375 -0.3249049
v 0.3277397 1.166818 -0.3245382
v 0.2017925 1.113667 -0.2318332
v 0.2742898 1.083541 -0.1736088
v 0.2002316 1.064238 -0.3746357
v 0.1891354 1.036228 -0.5126925
v 0.1157713 1.263927 -0.1772163
v 0.2086182 1.231786 -0.1435622
v 0.2742898 1.083541 -0.1736088
v 0.1472585 1.102164 -0.3715994
v 0.118414 1.154794 -0.468982
v 0.1487871 1.178736 -0.5524771
v 0.1891354 1.036228 -0.5126925
v 0.2002316 1.064238 -0.3746357
v 0.1486355 1.165549 -0.3769569
v 0.118414 1.154794 -0.468982
v 0.08839124 1.229622 -0.4749972
v 0.003381432 1.177642 -0.5091881
v 0.1127765 1.292864 -0.2765772
v -0.0105339 1.207198 -0.1735727
v 0.1127765 1.292864 -0.2765772
v -0.230555 1.217074 -0.2850482
v -0.1228911 1.274908 -0.06435332
v 0.012854 1.316428 -0.1126543
v -0.1228911 1.274908 -0.06435332
v -0.0001302686 1.391273 0.03019106
v 0.1237912 1.308435 -0.07827836
v 0.018606 1.249827 -0.01371846
v 0.2258511 1.16654 -0.08042598
v 0.2870567 1.192416 -0.04223967
v 0.402801 1.137907 -0.1324556
v 0.5058405 1.15429 -0.02922447
v 0.3869964 0.9599448 -0.3495017
v 0.2773672 0.9518316 -0.2237287
v 0.2638187 0.8544108 -0.4218704
v 0.5118216 1.051828 -0.2071073
v 0.6374575 1.077636 -0.1017296
v 0.4842417 0.9080551 -0.3378157
v 0.1487871 1.178736 -0.5524771
v 0.118414 1.154794 -0.468982
v -0.2207494 1.107672 -0.1015448
v 0.018606 1.249827 -0.01371846
v -0.0001302686 1.391273 0.03019106
v 0.02028394 0.6845741 -0.4439769
v 0.2817978 0.7681483 -0.3939707
v 0.2553998 0.7353894 -0.6095179
v 0.00429733 0.6771636 -0.6133385
v -0.007498998 0.602994 -0.7940152
v -0.1968106 0.6891943 -0.5961609
v -0.2375079 0.7382193 -0.4275599
v 0.225171 1.160442 0.03768279
v 0.1555215 0.7482617 -0.1102858
v 0.000446501 0.9787188 0.03730131
v 0.3712556 0.9521241 -0.130059
v 0.2817978 0.7681483 -0.3939707
v 0.5058405 1.15429 -0.02922447
v 0.6374575 1.077636 -0.1017296
v 0.4842417 0.9080551 -0.3378157
v 0.2817978 0.7681483 -0.3939707
v -0.2181184 1.021531 -0.5003456
v -0.2036904 1.082963 -0.416457
v -0.1353005 1.163467 -0.4069908
v -0.2614235 0.8579513 -0.1264258
v -0.3168752 1.138195 0.004894981
v -0.08491775 1.020201 0.04367554
v -0.4414675 1.010587 -0.1236051
v -0.5746546 1.10473 -0.1485265
v -0.5152575 0.9791353 -0.3623078
v -0.3628223 0.8050225 -0.4296526
v -0.2375079 0.7382193 -0.4275599
v -2.682209E-08 0.8624997 -0.2256258
v 0.1067181 0.6911705 -0.5058441
v 0.2793918 0.7566121 -0.3988104
v 0.2930693 0.7032111 -0.3778076
v 0.1119425 0.6345654 -0.4900815
v -8.940697E-09 0.6539012 -0.09940587
v -0.1067182 0.6911705 -0.5058441
v -2.682209E-08 0.8624997 -0.2256258
v -0.1119426 0.6345654 -0.4900815
v -8.940697E-09 0.6539012 -0.09940587
v -0.2793918 0.7566123 -0.3988104
v -2.682209E-08 0.8624997 -0.2256258
v -0.2930694 0.7032111 -0.3778076
v -8.940697E-09 0.6539012 -0.09940587
v -0.3453472 0.8624995 -0.2256255
v -2.682209E-08 0.8624997 -0.2256258
v -0.3622536 0.8142817 -0.1961451
v -8.940697E-09 0.6539012 -0.09940587
v -0.2793918 0.9683867 -0.0524416
v -2.682209E-08 0.8624997 -0.2256258
v -0.2930694 0.9253528 -0.0144825
v -8.940697E-09 0.6539012 -0.09940587
v -0.1053418 1.033317 0.05457937
v -2.682209E-08 0.8624997 -0.2256258
v -0.1126138 0.9955353 0.09795538
v -8.940697E-09 0.6539012 -0.09940587
v 0.1067182 1.033828 0.05459237
v -2.682209E-08 0.8624997 -0.2256258
v 0.1119425 0.9939983 0.09779119
v -8.940697E-09 0.6539012 -0.09940587
v 0.2793917 0.9683867 -0.0524416
v -2.682209E-08 0.8624997 -0.2256258
v 0.2930693 0.9253526 -0.01448226
v -8.940697E-09 0.6539012 -0.09940587
v 0.3453472 0.8624995 -0.2256255
v -2.682209E-08 0.8624997 -0.2256258
v 0.3622536 0.8142817 -0.1961451
v -8.940697E-09 0.6539012 -0.09940587
v 0.2793918 0.7566121 -0.3988104
v -2.682209E-08 0.8624997 -0.2256258
v 0.2930693 0.7032111 -0.3778076
v -8.940697E-09 0.6539012 -0.09940587
vt 0.6016598 0.4287842
vt 0.594948 0.3745252
vt 0.543344 0.3403482
vt 0.543344 0.3403482
vt 0.5980024 0.3205801
vt 0.6214692 0.3379384
vt 0.5560869 0.2868729
vt 0.5985756 0.244059
vt 0.6359262 0.300569
vt 0.6638302 0.3273143
vt 0.6605542 0.3897085
vt 0.6989231 0.3437434
vt 0.6223055 0.3733039
vt 0.6879932 0.3190769
vt 0.6854724 0.2922222
vt 0.6568472 0.2537829
vt 0.7032232 0.2802825
vt 0.6879932 0.3190769
vt 0.6827161 0.2311543
vt 0.6016598 0.4287842
vt 0.6444064 0.450986
vt 0.7262775 0.3938184
vt 0.8028414 0.3782337
vt 0.5584217 0.4355394
vt 0.5779194 0.5000846
vt 0.4964742 0.4163148
vt 0.4964742 0.4163148
vt 0.7527621 0.4137856
vt 0.6937497 0.4443938
vt 0.4037974 0.4132773
vt 0.3414034 0.3049719
vt 0.5068054 0.5076855
vt 0.4766293 0.3043997
vt 0.4964742 0.4163148
vt 0.5560869 0.2868729
vt 0.563067 0.5639839
vt 0.5331411 0.2405869
vt 0.4941271 0.2098933
vt 0.4316061 0.1735754
vt 0.6658361 0.5431901
vt 0.6643823 0.5885271
vt 0.8190256 0.6183479
vt 0.558032 0.1850231
vt 0.5732267 0.06498454
vt 0.5093163 0.06375083
vt 0.553785 0.01694518
vt 0.6155663 0.1151449
vt 0.7122606 0.03197944
vt 0.6352002 0.06260096
vt 0.6545606 0.495151
vt 0.790784 0.5392575
vt 0.9143739 0.4531211
vt 0.7628022 0.498507
vt 0.7142341 0.4685917
vt 0.6937497 0.4443938
vt 0.7262775 0.3938184
vt 0.7776145 0.4491601
vt 0.8430216 0.4384555
vt 0.7628022 0.498507
vt 0.8778572 0.4290525
vt 0.8342465 0.4033636
vt 0.910767 0.3192447
vt 0.9630356 0.3347035
vt 0.9210801 0.2136431
vt 0.8777372 0.3718805
vt 0.8361422 0.3170689
vt 0.8509986 0.2570079
vt 0.8361422 0.3170689
vt 0.8617899 0.1885652
vt 0.8036489 0.1477639
vt 0.830787 0.2601868
vt 0.8084799 0.2130546
vt 0.8036489 0.1477639
vt 0.6937497 0.4443938
vt 0.7776145 0.4491601
vt 0.8361422 0.3170689
vt 0.7939981 0.3228259
vt 0.830787 0.2601868
vt 0.7659141 0.2185277
vt 0.8084799 0.2130546
vt 0.7649091 0.1756415
vt 0.8036489 0.1477639
vt 0.7639883 0.2645039
vt 0.7939981 0.3228259
vt 0.6871527 0.1633905
vt 0.7253517 0.1277888
vt 0.8036489 0.1477639
vt 0.7466375 0.2537147
vt 0.7221752 0.2885412
vt 0.7429125 0.3083645
vt 0.7939981 0.3228259
vt 0.7639883 0.2645039
vt 0.7330317 0.2461798
vt 0.7221752 0.2885412
vt 0.7032232 0.2802825
vt 0.6879932 0.3190769
vt 0.6903245 0.2009098
vt 0.6203728 0.196651
vt 0.6903245 0.2009098
vt 0.5560869 0.2868729
vt 0.558032 0.1850231
vt 0.6333356 0.173132
vt 0.558032 0.1850231
vt 0.6192009 0.1382827
vt 0.6751651 0.1288265
vt 0.6155663 0.1151449
vt 0.7389949 0.09322389
vt 0.7606997 0.06293516
vt 0.8396125 0.08698729
vt 0.8736765 0.03454309
vt 0.9210801 0.2136431
vt 0.8617899 0.1885652
vt 0.910767 0.3192447
vt 0.9216384 0.1137871
vt 0.9450452 0.03596163
vt 0.9696002 0.1930311
vt 0.7429125 0.3083645
vt 0.7221752 0.2885412
vt 0.4941271 0.2098933
vt 0.6155663 0.1151449
vt 0.6192009 0.1382827
vt 0.1888335 0.8000888
vt 0.1018755 0.6681081
vt 0.03795886 0.7846668
vt 0.1392901 0.8804327
vt 0.07753545 0.9713674
vt 0.2327506 0.9345841
vt 0.32365 0.8695471
vt 0.3226896 0.4048237
vt 0.2443802 0.6119089
vt 0.4013102 0.5413706
vt 0.172843 0.4798279
vt 0.1018755 0.6681081
vt 0.1702957 0.3408858
vt 0.08072859 0.3425147
vt 0.05069347 0.5212655
vt 0.1018755 0.6681081
vt 0.6016598 0.4287842
vt 0.594948 0.3745252
vt 0.6214692 0.3379384
vt 0.4467841 0.7301162
vt 0.6047332 0.6615492
vt 0.4881931 0.567364
vt 0.5712498 0.7598457
vt 0.6605548 0.7945263
vt 0.5515683 0.8805575
vt 0.4074132 0.898536
vt 0.32365 0.8695471
vt 0.7050795 0.991537
vt 0.4773391 0.9637507
vt 0.4138494 0.9637507
vt 0.4138494 0.9468925
vt 0.4773391 0.9468925
vt 0.7050795 0.91358
vt 0.5330948 0.9637507
vt 0.7050795 0.991537
vt 0.5330948 0.9468925
vt 0.7050795 0.91358
vt 0.5901222 0.9637507
vt 0.7050795 0.991537
vt 0.5901222 0.9468925
vt 0.7050795 0.91358
vt 0.6477488 0.9637507
vt 0.7050795 0.991537
vt 0.6477488 0.9468925
vt 0.7050795 0.91358
vt 0.7056183 0.9637507
vt 0.7050795 0.991537
vt 0.7056183 0.9468925
vt 0.7050795 0.91358
vt 0.7634155 0.9637507
vt 0.7050795 0.991537
vt 0.7634155 0.9468925
vt 0.7050795 0.91358
vt 0.8208248 0.9637507
vt 0.7050795 0.991537
vt 0.8208248 0.9468925
vt 0.7050795 0.91358
vt 0.8774802 0.9637507
vt 0.7050795 0.991537
vt 0.8774802 0.9468925
vt 0.7050795 0.91358
vt 0.9326452 0.9637507
vt 0.7050795 0.991537
vt 0.9326452 0.9468925
vt 0.7050795 0.91358
vt 0.9935719 0.9637507
vt 0.7050795 0.991537
vt 0.9935719 0.9468925
vt 0.7050795 0.91358
vn -0.2892471 0.08135565 -0.9537911
vn -0.06814109 0.8128233 -0.5785111
vn -0.8858383 0.4577805 0.07567985
vn -0.8858383 0.4577805 0.07567985
vn -0.002241607 0.9172742 -0.39825
vn -0.02685311 0.882482 -0.469579
vn -0.7029719 0.6737319 0.2278507
vn -0.1889041 0.9818454 0.01717512
vn -0.1943452 0.9767203 -0.09081589
vn -0.03717484 0.7458012 -0.6651305
vn -0.3133405 0.6411584 -0.7005239
vn 0.05979431 0.5576547 -0.8279166
vn -0.1495214 0.8793346 -0.4521215
vn -0.04302884 0.272687 -0.9611401
vn -0.3706757 0.8973079 -0.2396625
vn -0.1738475 0.9790061 0.1064145
vn 0.4257842 0.5681001 -0.7042513
vn -0.04302884 0.272687 -0.9611401
vn 0.008575854 0.8586195 -0.5125417
vn -0.2892471 0.08135565 -0.9537911
vn -0.5509157 0.04656972 -0.8332605
vn 0.2401949 0.6069282 -0.7575912
vn 0.3560246 0.6149132 -0.7036535
vn -0.6589335 -0.06778008 -0.7491412
vn -0.6744519 -0.008094967 -0.7382744
vn -0.5519656 0.7810039 -0.2921763
vn -0.5519656 0.7810039 -0.2921763
vn 0.4314843 0.8032002 -0.4107201
vn -0.6095704 0.3700274 -0.7010733
vn 0.210062 0.8280329 -0.5198418
vn 0.1526043 0.8480387 -0.5074862
vn -0.2458158 0.07135963 -0.9666863
vn -0.5207294 0.8273886 -0.2104019
vn -0.5519656 0.7810039 -0.2921763
vn -0.7029719 0.6737319 0.2278507
vn -0.8967903 -0.1184112 -0.4263166
vn -0.6523936 0.7555526 0.05935429
vn -0.265541 0.9638839 -0.02039297
vn 0.05840863 0.9889642 -0.1361549
vn -0.6669752 0.4266242 -0.6108485
vn -0.8792678 -0.0719241 -0.4708665
vn 0.08312781 0.4305172 -0.8987463
vn -0.6258001 0.4460533 0.6398521
vn -0.2278338 0.3091209 0.9233288
vn 0.04318346 0.3103426 0.9496434
vn -0.1054542 0.3107312 0.9446298
vn -0.1341028 0.05646553 0.9893574
vn -0.09857894 0.9469601 0.3058573
vn -0.02042492 0.4214126 0.906639
vn -0.5481935 0.3479519 -0.7605351
vn 0.09323328 0.5596626 -0.8234594
vn 0.5496789 0.4147134 -0.7251662
vn -0.309427 0.1515281 -0.9387727
vn -0.6270092 -0.3887442 -0.6750833
vn -0.6095704 0.3700274 -0.7010733
vn 0.2401949 0.6069282 -0.7575912
vn -0.02965618 -0.09421345 -0.9951102
vn 0.3091237 0.2777469 -0.9095599
vn -0.309427 0.1515281 -0.9387727
vn 0.5523387 0.489297 -0.6749151
vn 0.5960129 0.7776578 -0.2000425
vn 0.8375666 -0.01869278 -0.5460153
vn 0.733327 0.1813654 -0.655239
vn 0.01558171 0.5588422 -0.8291276
vn 0.7815817 -0.1359327 -0.6088123
vn 0.3506147 0.3647218 -0.8625818
vn 0.9303079 -0.358554 -0.0772412
vn 0.3506147 0.3647218 -0.8625818
vn 0.3861232 0.663938 -0.6403868
vn 0.1495251 0.8071299 -0.5711249
vn -0.1216427 0.8764159 -0.4659379
vn 0.2795883 0.9600435 -0.01211045
vn 0.1495251 0.8071299 -0.5711249
vn -0.6095704 0.3700274 -0.7010733
vn -0.02965618 -0.09421345 -0.9951102
vn 0.3506147 0.3647218 -0.8625818
vn -0.03683913 0.7525702 -0.6574808
vn -0.1216427 0.8764159 -0.4659379
vn 0.00750392 0.9720215 -0.2347716
vn 0.2795883 0.9600435 -0.01211045
vn 0.5223119 0.8491589 -0.07822667
vn 0.1495251 0.8071299 -0.5711249
vn -0.1531496 0.9148448 -0.3736365
vn -0.03683913 0.7525702 -0.6574808
vn 0.3651652 0.8657373 -0.3422768
vn 0.6635603 0.6217455 -0.4160773
vn 0.1495251 0.8071299 -0.5711249
vn 0.6935591 0.6889243 -0.2106157
vn 0.5274805 0.8364687 -0.1486084
vn 0.2226431 0.4753547 -0.8511569
vn -0.03683913 0.7525702 -0.6574808
vn -0.1531496 0.9148448 -0.3736365
vn 0.6334471 0.5336993 -0.5602767
vn 0.5274805 0.8364687 -0.1486084
vn 0.4257842 0.5681001 -0.7042513
vn -0.04302884 0.272687 -0.9611401
vn 0.281913 0.9346058 -0.21688
vn -0.4211199 0.7743362 -0.4722938
vn 0.281913 0.9346058 -0.21688
vn -0.7029719 0.6737319 0.2278507
vn -0.6258001 0.4460533 0.6398521
vn -0.1433445 0.7854221 -0.6021333
vn -0.6258001 0.4460533 0.6398521
vn -0.140332 0.7428823 0.6545477
vn 0.5629047 0.7819238 0.2678312
vn -0.1341028 0.05646553 0.9893574
vn 0.1809104 0.9818159 -0.05752253
vn 0.03759308 0.985948 -0.1627674
vn 0.06219732 0.8660607 -0.4960549
vn 0.2198573 0.9137098 -0.341756
vn 0.01558171 0.5588422 -0.8291276
vn 0.3861232 0.663938 -0.6403868
vn 0.8375666 -0.01869278 -0.5460153
vn 0.3054257 0.7349468 -0.6054488
vn 0.2947082 0.7857617 -0.5438066
vn 0.3990645 0.3032786 -0.8653148
vn 0.2226431 0.4753547 -0.8511569
vn 0.5274805 0.8364687 -0.1486084
vn -0.265541 0.9638839 -0.02039297
vn -0.1341028 0.05646553 0.9893574
vn -0.140332 0.7428823 0.6545477
vn 0.1081402 -0.9884256 0.1063979
vn 0.2588841 -0.96322 0.0720156
vn 0.2526244 -0.9608396 0.1138779
vn 0.09324499 -0.9739568 0.2066722
vn 0.1081391 -0.9221218 0.37148
vn -0.1118551 -0.9748902 0.1925559
vn -0.1289114 -0.979601 0.1541553
vn 0.3285351 -0.401858 0.8547367
vn 0.4740993 -0.4847288 0.7350292
vn 0.3603392 -0.3685225 0.8569403
vn 0.4065352 -0.5793962 0.7064201
vn 0.6766663 -0.6915585 0.2527243
vn 0.1727324 -0.5293024 0.8306639
vn 0.2785028 -0.7312317 0.6226848
vn 0.4053542 -0.8242769 0.3952918
vn 0.439455 -0.7999175 0.4086699
vn -0.2892471 0.08135565 -0.9537911
vn -0.06814109 0.8128233 -0.5785111
vn -0.02685311 0.882482 -0.469579
vn -0.5204982 -0.6216005 0.5854012
vn -0.3735602 -0.4488545 0.8117773
vn -0.3685631 -0.4532485 0.81162
vn -0.5373028 -0.6169093 0.5750901
vn -0.5598125 -0.6590219 0.5022949
vn -0.6267309 -0.7143994 0.3111943
vn -0.5899761 -0.7447808 0.3118168
vn -0.4528993 -0.8402438 0.2981151
vn -7.501378E-05 0.8532912 -0.5214349
vn 0.1125318 0.6139241 -0.7813026
vn 0.2946115 0.6829305 -0.6684384
vn 0.5632625 -0.8258806 0.02562367
vn 0.2153165 -0.9577177 -0.1908288
vn -0.0001489092 -0.8531829 0.5216119
vn -0.1125317 0.6139238 -0.7813029
vn -7.501378E-05 0.8532912 -0.5214349
vn -0.2153168 -0.9577176 -0.1908288
vn -0.0001489092 -0.8531829 0.5216119
vn -0.2946115 0.6829309 -0.668438
vn -7.501378E-05 0.8532912 -0.5214349
vn -0.5632627 -0.8258804 0.02562386
vn -0.0001489092 -0.8531829 0.5216119
vn -0.3641605 0.7945861 -0.4858191
vn -7.501378E-05 0.8532912 -0.5214349
vn -0.695345 -0.6130024 0.375131
vn -0.0001489092 -0.8531829 0.5216119
vn -0.2920954 0.9063019 -0.3054459
vn -7.501378E-05 0.8532912 -0.5214349
vn -0.561075 -0.4006941 0.7243197
vn -0.0001489092 -0.8531829 0.5216119
vn -0.1095708 0.9749088 -0.1937702
vn -7.501378E-05 0.8532912 -0.5214349
vn -0.2160595 -0.2695758 0.9384281
vn -0.0001489092 -0.8531829 0.5216119
vn 0.1123557 0.9748119 -0.1926605
vn -7.501378E-05 0.8532912 -0.5214349
vn 0.2131772 -0.2715315 0.9385235
vn -0.0001489092 -0.8531829 0.5216119
vn 0.2946123 0.906241 -0.3032012
vn -7.501378E-05 0.8532912 -0.5214349
vn 0.5618317 -0.400663 0.7237503
vn -0.0001489092 -0.8531829 0.5216119
vn 0.3641605 0.7945858 -0.4858193
vn -7.501378E-05 0.8532912 -0.5214349
vn 0.6953455 -0.6130024 0.3751304
vn -0.0001489092 -0.8531829 0.5216119
vn 0.2946115 0.6829305 -0.6684384
vn -7.501378E-05 0.8532912 -0.5214349
vn 0.5632625 -0.8258806 0.02562367
vn -0.0001489092 -0.8531829 0.5216119
g tangle_DLC_flower_LOD1_0
f 3/3/3 2/2/2 1/1/1
f 5/5/5 2/2/2 4/4/4
f 6/6/6 2/2/2 5/5/5
f 7/7/7 5/5/5 4/4/4
f 5/5/5 7/7/7 8/8/8
f 9/9/9 6/6/6 5/5/5
f 8/8/8 9/9/9 5/5/5
f 9/9/9 10/10/10 6/6/6
f 6/6/6 10/10/10 11/11/11
f 11/11/11 10/10/10 12/12/12
f 13/13/13 6/6/6 11/11/11
f 14/14/14 12/12/12 10/10/10
f 15/15/15 14/14/14 10/10/10
f 10/10/10 9/9/9 15/15/15
f 15/15/15 9/9/9 16/16/16
f 8/8/8 16/16/16 9/9/9
f 16/16/16 17/17/17 15/15/15
f 15/15/15 17/17/17 18/18/18
f 17/17/17 16/16/16 19/19/19
f 16/16/16 8/8/8 19/19/19
f 20/20/20 13/13/13 11/11/11
f 21/21/21 20/20/20 11/11/11
f 22/22/22 11/11/11 12/12/12
f 21/21/21 11/11/11 22/22/22
f 22/22/22 12/12/12 23/23/23
f 24/24/24 20/20/20 21/21/21
f 25/25/25 24/24/24 21/21/21
f 4/4/4 20/20/20 24/24/24
f 26/26/26 24/24/24 25/25/25
f 4/4/4 24/24/24 27/27/27
f 23/23/23 28/28/28 22/22/22
f 29/29/29 22/22/22 28/28/28
f 25/25/25 30/30/30 27/27/27
f 27/27/27 30/30/30 31/31/31
f 25/25/25 32/32/32 30/30/30
f 27/27/27 31/31/31 33/33/33
f 4/4/4 34/34/34 33/33/33
f 35/35/35 4/4/4 33/33/33
f 36/36/36 32/32/32 25/25/25
f 35/35/35 33/33/33 37/37/37
f 33/33/33 31/31/31 38/38/38
f 33/33/33 38/38/38 37/37/37
f 31/31/31 39/39/39 38/38/38
f 36/36/36 25/25/25 40/40/40
f 41/41/41 36/36/36 40/40/40
f 42/42/42 41/41/41 40/40/40
f 37/37/37 38/38/38 43/43/43
f 39/39/39 44/44/44 38/38/38
f 45/45/45 44/44/44 39/39/39
f 45/45/45 46/46/46 44/44/44
f 44/44/44 47/47/47 38/38/38
f 44/44/44 46/46/46 48/48/48
f 49/49/49 47/47/47 44/44/44
f 49/49/49 44/44/44 48/48/48
f 40/40/40 25/25/25 50/50/50
f 25/25/25 21/21/21 50/50/50
f 51/51/51 42/42/42 40/40/40
f 42/42/42 51/51/51 52/52/52
f 50/50/50 53/53/53 40/40/40
f 53/53/53 51/51/51 40/40/40
f 50/50/50 21/21/21 54/54/54
f 53/53/53 50/50/50 54/54/54
f 55/55/55 54/54/54 21/21/21
f 55/55/55 21/21/21 56/56/56
f 57/57/57 53/53/53 54/54/54
f 53/53/53 58/58/58 51/51/51
f 59/59/59 57/57/57 58/58/58
f 51/51/51 60/60/60 52/52/52
f 58/58/58 60/60/60 51/51/51
f 61/61/61 58/58/58 57/57/57
f 57/57/57 28/28/28 61/61/61
f 52/52/52 60/60/60 62/62/62
f 63/63/63 52/52/52 62/62/62
f 63/63/63 62/62/62 64/64/64
f 58/58/58 65/65/65 60/60/60
f 65/65/65 58/58/58 61/61/61
f 65/65/65 62/62/62 60/60/60
f 28/28/28 23/23/23 61/61/61
f 61/61/61 23/23/23 65/65/65
f 23/23/23 66/66/66 65/65/65
f 67/67/67 62/62/62 65/65/65
f 68/68/68 67/67/67 65/65/65
f 69/69/69 62/62/62 67/67/67
f 69/69/69 67/67/67 70/70/70
f 68/68/68 71/71/71 67/67/67
f 67/67/67 71/71/71 72/72/72
f 72/72/72 73/73/73 67/67/67
f 75/75/75 74/74/74 28/28/28
f 75/75/75 54/54/54 74/74/74
f 77/77/77 76/76/76 23/23/23
f 76/76/76 77/77/77 78/78/78
f 80/80/80 78/78/78 79/79/79
f 80/80/80 79/79/79 81/81/81
f 82/82/82 80/80/80 81/81/81
f 78/78/78 83/83/83 79/79/79
f 84/84/84 83/83/83 78/78/78
f 85/85/85 81/81/81 79/79/79
f 81/81/81 85/85/85 86/86/86
f 87/87/87 81/81/81 86/86/86
f 79/79/79 83/83/83 88/88/88
f 89/89/89 88/88/88 83/83/83
f 90/90/90 89/89/89 83/83/83
f 23/23/23 90/90/90 91/91/91
f 90/90/90 92/92/92 91/91/91
f 23/23/23 12/12/12 90/90/90
f 93/93/93 79/79/79 88/88/88
f 88/88/88 94/94/94 93/93/93
f 94/94/94 12/12/12 95/95/95
f 93/93/93 94/94/94 95/95/95
f 12/12/12 96/96/96 95/95/95
f 19/19/19 93/93/93 95/95/95
f 97/97/97 79/79/79 93/93/93
f 19/19/19 97/97/97 93/93/93
f 97/97/97 85/85/85 79/79/79
f 97/97/97 19/19/19 8/8/8
f 97/97/97 98/98/98 85/85/85
f 98/98/98 99/99/99 8/8/8
f 37/37/37 98/98/98 8/8/8
f 37/37/37 8/8/8 100/100/100
f 101/101/101 98/98/98 37/37/37
f 98/98/98 102/102/102 85/85/85
f 98/98/98 103/103/103 102/102/102
f 86/86/86 85/85/85 102/102/102
f 102/102/102 103/103/103 104/104/104
f 102/102/102 104/104/104 105/105/105
f 105/105/105 86/86/86 102/102/102
f 106/106/106 105/105/105 104/104/104
f 107/107/107 86/86/86 105/105/105
f 107/107/107 105/105/105 47/47/47
f 106/106/106 49/49/49 107/107/107
f 87/87/87 86/86/86 107/107/107
f 49/49/49 48/48/48 107/107/107
f 107/107/107 108/108/108 87/87/87
f 48/48/48 108/108/108 107/107/107
f 108/108/108 48/48/48 109/109/109
f 108/108/108 109/109/109 82/82/82
f 48/48/48 110/110/110 109/109/109
f 109/109/109 111/111/111 87/87/87
f 111/111/111 112/112/112 82/82/82
f 113/113/113 112/112/112 111/111/111
f 110/110/110 114/114/114 109/109/109
f 114/114/114 111/111/111 109/109/109
f 115/115/115 114/114/114 110/110/110
f 115/115/115 116/116/116 114/114/114
f 114/114/114 116/116/116 111/111/111
f 116/116/116 63/63/63 111/111/111
f 118/118/118 117/117/117 12/12/12
f 120/120/120 43/43/43 119/119/119
f 121/121/121 103/103/103 120/120/120
f 124/124/124 123/123/123 122/122/122
f 125/125/125 124/124/124 122/122/122
f 124/124/124 125/125/125 126/126/126
f 126/126/126 125/125/125 127/127/127
f 125/125/125 122/122/122 127/127/127
f 122/122/122 128/128/128 127/127/127
f 131/131/131 130/130/130 129/129/129
f 130/130/130 132/132/132 129/129/129
f 133/133/133 132/132/132 130/130/130
f 129/129/129 132/132/132 134/134/134
f 134/134/134 132/132/132 135/135/135
f 135/135/135 132/132/132 136/136/136
f 137/137/137 136/136/136 132/132/132
f 139/139/139 13/13/13 138/138/138
f 140/140/140 13/13/13 139/139/139
f 143/143/143 142/142/142 141/141/141
f 142/142/142 144/144/144 141/141/141
f 144/144/144 142/142/142 145/145/145
f 146/146/146 144/144/144 145/145/145
f 146/146/146 147/147/147 144/144/144
f 147/147/147 141/141/141 144/144/144
f 141/141/141 147/147/147 148/148/148
f 151/151/151 150/150/150 149/149/149
f 151/151/151 152/152/152 150/150/150
f 152/152/152 153/153/153 150/150/150
f 152/152/152 154/154/154 153/153/153
f 150/150/150 153/153/153 155/155/155
f 150/150/150 155/155/155 156/156/156
f 153/153/153 157/157/157 155/155/155
f 153/153/153 158/158/158 157/157/157
f 155/155/155 157/157/157 159/159/159
f 155/155/155 159/159/159 160/160/160
f 157/157/157 161/161/161 159/159/159
f 157/157/157 162/162/162 161/161/161
f 159/159/159 161/161/161 163/163/163
f 159/159/159 163/163/163 164/164/164
f 161/161/161 165/165/165 163/163/163
f 161/161/161 166/166/166 165/165/165
f 163/163/163 165/165/165 167/167/167
f 163/163/163 167/167/167 168/168/168
f 165/165/165 169/169/169 167/167/167
f 165/165/165 170/170/170 169/169/169
f 167/167/167 169/169/169 171/171/171
f 167/167/167 171/171/171 172/172/172
f 169/169/169 173/173/173 171/171/171
f 169/169/169 174/174/174 173/173/173
f 171/171/171 173/173/173 175/175/175
f 171/171/171 175/175/175 176/176/176
f 173/173/173 177/177/177 175/175/175
f 173/173/173 178/178/178 177/177/177
f 175/175/175 177/177/177 179/179/179
f 175/175/175 179/179/179 180/180/180
f 177/177/177 181/181/181 179/179/179
f 177/177/177 182/182/182 181/181/181
f 179/179/179 181/181/181 183/183/183
f 179/179/179 183/183/183 184/184/184
f 181/181/181 185/185/185 183/183/183
f 181/181/181 186/186/186 185/185/185
f 183/183/183 185/185/185 187/187/187
f 183/183/183 187/187/187 188/188/188
f 185/185/185 189/189/189 187/187/187
f 189/189/189 185/185/185 190/190/190
