g valley_ramp01
v -6.48065 5.555812E-07 -1.625724
v -6.44306 0.2142448 -0.9827651
v -6.818902 5.555756E-07 -0.7918969
v -6.053865 5.555879E-07 -1.232001
v -7.109673 5.55581E-07 -0.2199976
v -5.712048 0.3419608 -1.136759
v -5.425489 5.555965E-07 -1.479058
v -6.307256 0.460495 -0.2165355
v -4.690064 0.5151457 -0.8581212
v -4.484882 5.566981E-07 -1.632135
v -3.621528 0.6768687 -1.001867
v -4.00433 5.556022E-07 -1.855137
v -3.897218 5.55583E-07 -2.418334
v -3.117522 5.555822E-07 -2.237212
v -5.233554 0.855729 -0.1903332
v -6.882563 0.1964597 -0.01140165
v -7.489337 5.555804E-07 0.3227433
v -6.901667 5.555826E-07 0.550384
v -5.732093 0.6434585 0.2274951
v -6.181516 0.1265008 1.063245
v -6.689508 5.555822E-07 1.088329
v -5.988263 5.555737E-07 1.255159
v -5.358818 0.2916154 1.224369
v -5.567164 5.555805E-07 1.473981
v -5.16927 5.555804E-07 2.068824
v -4.195189 1.152435 -0.286499
v -4.817925 1.001384 0.09242896
v -4.784408 0.5031592 0.7238725
v -4.146616 0.5734782 1.012403
v -2.788687 0.3783715 1.730812
v -3.81002 5.555755E-07 2.185705
v -3.574368 5.555761E-07 2.39067
v -2.320517 5.555777E-07 2.237301
v -1.592141 5.555755E-07 2.03184
v -1.301918 5.555826E-07 1.724447
v -4.055214 1.269193 0.06123749
v -3.379734 0.6844259 0.5886213
v -2.512611 0.672592 0.8017826
v -2.049626 1.41311 0.03562716
v -3.487359 1.398025 -0.001659329
v -1.472138 0.6593238 0.4661158
v -0.622936 5.555809E-07 1.684865
v 0.4073828 5.555828E-07 1.77948
v -3.149108 1.367056 -0.1319307
v -2.412647 0.6268669 -0.5042442
v -2.247205 0.2115465 -1.559473
v -2.655328 5.5558E-07 -2.011291
v -2.010022 5.555687E-07 -1.773319
v -1.357482 5.555783E-07 -1.826596
v -1.627844 0.4641636 -1.264799
v -1.120296 0.8445261 -0.7608327
v -0.9768236 5.555786E-07 -1.738749
v -1.364685 1.323037 -0.2159531
v -0.6146365 1.183534 -0.01534266
v -0.334741 0.6241448 0.6112778
v 0.0792968 1.03163 -0.02354731
v 0.807569 0.4475811 0.4014683
v 1.771385 5.555768E-07 1.658104
v -0.04110317 0.4737763 -1.237507
v -0.09431882 5.555761E-07 -1.844238
v 0.5484865 5.555834E-07 -2.386588
v 0.2169355 0.7389938 -0.4893009
v 0.8693296 0.5957056 -0.5289937
v 0.724076 1.145463 -0.1755207
v 0.6785277 1.069423 -0.04688418
v 1.548395 1.225901 -0.2507497
v 1.515626 0.4123257 -1.451229
v 1.125533 5.555779E-07 -2.143513
v 1.916505 5.555753E-07 -1.874114
v 2.393469 5.555763E-07 -1.739896
v 2.119295 0.7220693 -1.063704
v 3.211317 0.6167494 -1.123122
v 3.14438 5.555783E-07 -1.927442
v 3.698685 5.555802E-07 -2.160888
v 1.541427 1.309855 0.02521108
v 2.36918 1.417614 -0.1594679
v 3.94678 0.2217234 -1.926108
v 4.474838 5.555807E-07 -2.402077
v 5.171368 5.555744E-07 -2.116141
v 4.871115 0.209487 -1.180429
v 5.382915 5.555812E-07 -1.834391
v 3.922623 0.5933452 -1.171981
v 3.781605 1.165196 -0.002128262
v 5.563868 0.3654992 -0.8639925
v 6.054238 5.555779E-07 -1.680964
v 6.189629 5.555897E-07 -1.066522
v 6.442887 5.556052E-07 -0.7533495
v 4.656983 0.9074249 -0.2747163
v 5.566325 0.4123266 -0.2762501
v 2.761791 1.249649 0.1616328
v 2.362135 0.6085247 0.4463964
v 4.901421 0.8515554 0.4268259
v 5.981301 0.4713562 0.4301077
v 6.805541 0.3258335 -0.3860325
v 6.824253 5.55593E-07 -0.5607138
v 3.149889 0.8652311 0.6089532
v 7.253779 0.1638249 -0.3779123
v 6.950849 5.55586E-07 -0.7661551
v 7.297132 5.555846E-07 -0.6026564
v 7.389941 5.555812E-07 -0.32514
v 7.117882 5.555786E-07 0.5247546
v 6.558275 5.555793E-07 0.785562
v 6.156843 5.55577E-07 0.976554
v 5.977279 5.555802E-07 1.348145
v 4.884129 0.7118536 1.171318
v 3.133996 0.3812519 1.708255
v 5.045212 0.3548081 1.788929
v 5.725889 5.555805E-07 1.849167
v 5.429754 5.555825E-07 2.178068
v 4.845441 5.555794E-07 2.550477
v 3.482665 5.555794E-07 2.339861
v 2.652842 5.55588E-07 2.125041
v 2.181966 5.555787E-07 2.033801
v 1.493631 0.5964738 0.4588808
vn 0 1 0
vn -0.3390528 0.893966 -0.2930327
vn 0 1 0
vn 0 1 0
vn 0 1 0
vn -0.1699004 0.8440557 -0.5086294
vn 0 1 0
vn -0.3734673 0.9145477 -0.1553217
vn -0.1459545 0.8008965 -0.5807427
vn 0 1 0
vn 0.02615687 0.8393726 -0.5429268
vn 0 1 0
vn 0 1 0
vn 0 1 0
vn -0.2553704 0.9099292 -0.3268253
vn -0.3917262 0.9084969 0.1455474
vn 0 1 0
vn 0 1 0
vn -0.3008207 0.9013046 0.3117
vn -0.3185405 0.8661147 0.3851976
vn 0 1 0
vn 0 1 0
vn -0.1885584 0.9084834 0.3729658
vn 0 1 0
vn 0 1 0
vn -0.1963314 0.8190576 -0.539072
vn -0.2808508 0.8726562 0.3994921
vn -0.2024476 0.8759325 0.4379008
vn -0.07631227 0.9040789 0.4204971
vn 0.06102338 0.912594 0.4042874
vn 0 1 0
vn 0 1 0
vn 0 1 0
vn 0 1 0
vn 0 1 0
vn -0.1323902 0.8727143 0.4699388
vn 0.005976152 0.8434663 0.5371488
vn 0.07501616 0.8636508 0.4984775
vn 0.04580374 0.9771646 0.2074887
vn -0.05932778 0.7888687 0.6116914
vn 0.1033252 0.7715769 0.6276886
vn 0 1 0
vn 0 1 0
vn 0.1210766 0.7381232 -0.6637127
vn 0.06645653 0.7987158 -0.5980273
vn 0.0741233 0.8935943 -0.4427133
vn 0 1 0
vn 0 1 0
vn 0 1 0
vn -0.09044829 0.8441045 -0.5284949
vn -0.02383092 0.8097636 -0.5862721
vn 0 1 0
vn -0.02860138 0.8360187 -0.5479549
vn 0.1522117 0.9482851 0.2785441
vn 0.06874084 0.8547864 0.5144073
vn 0.1534871 0.9748663 0.1614843
vn 0.03010453 0.8614199 0.5070006
vn 0 1 0
vn 0.05600265 0.8899148 -0.4526758
vn 0 1 0
vn 0 1 0
vn 0.1145046 0.866743 -0.4854332
vn -0.09000024 0.8556367 -0.5096919
vn -0.1070012 0.7462807 -0.6569748
vn -0.1273263 0.6359196 0.7611796
vn -0.2375373 0.7635949 -0.6004156
vn -0.07639632 0.9048981 -0.4187161
vn 0 1 0
vn 0 1 0
vn 0 1 0
vn -0.06289682 0.7751374 -0.6286539
vn 0.04422594 0.8252883 -0.5629771
vn 0 1 0
vn 0 1 0
vn -0.1484685 0.7359955 0.6605057
vn 0.06411397 0.9240381 -0.3768859
vn 0.06530044 0.9093423 -0.4108922
vn 0 1 0
vn 0 1 0
vn 0.1693541 0.895886 -0.4107402
vn 0 1 0
vn 0.1623861 0.8747146 -0.4566235
vn 0.1511606 0.9855365 -0.07660443
vn 0.2415783 0.9208853 -0.3059576
vn 0 1 0
vn 0 1 0
vn 0 1 0
vn 0.2808723 0.9083 -0.3100026
vn 0.3064262 0.9348473 -0.179342
vn -0.01800101 0.744041 0.6678914
vn -0.1640143 0.7649161 0.6228986
vn 0.227224 0.9679238 0.1072047
vn 0.3241375 0.9350835 0.1433654
vn 0.2458521 0.9595075 -0.1374843
vn 0 1 0
vn -0.1030445 0.8870642 0.449999
vn 0.4342818 0.9006684 0.01398469
vn 0 1 0
vn 0 1 0
vn 0 1 0
vn 0 1 0
vn 0 1 0
vn 0 1 0
vn 0 1 0
vn 0.1432961 0.9212705 0.3615619
vn -0.1585559 0.8875341 0.4326007
vn 0.1437346 0.8891078 0.4345433
vn 0 1 0
vn 0 1 0
vn 0 1 0
vn 0 1 0
vn 0 1 0
vn 0 1 0
vn -0.1088375 0.764173 0.6357626
g valley_ramp01_0
f 3/3/3 2/2/2 1/1/1
f 2/2/2 4/4/4 1/1/1
f 3/3/3 5/5/5 2/2/2
f 4/4/4 2/2/2 6/6/6
f 7/7/7 4/4/4 6/6/6
f 2/2/2 5/5/5 8/8/8
f 2/2/2 8/8/8 6/6/6
f 6/6/6 9/9/9 7/7/7
f 10/10/10 7/7/7 9/9/9
f 11/11/11 10/10/10 9/9/9
f 10/10/10 11/11/11 12/12/12
f 11/11/11 13/13/13 12/12/12
f 11/11/11 14/14/14 13/13/13
f 6/6/6 15/15/15 9/9/9
f 15/15/15 6/6/6 8/8/8
f 5/5/5 16/16/16 8/8/8
f 5/5/5 17/17/17 16/16/16
f 18/18/18 16/16/16 17/17/17
f 8/8/8 16/16/16 19/19/19
f 8/8/8 19/19/19 15/15/15
f 16/16/16 18/18/18 20/20/20
f 19/19/19 16/16/16 20/20/20
f 20/20/20 18/18/18 21/21/21
f 21/21/21 22/22/22 20/20/20
f 22/22/22 23/23/23 20/20/20
f 19/19/19 20/20/20 23/23/23
f 24/24/24 23/23/23 22/22/22
f 24/24/24 25/25/25 23/23/23
f 26/26/26 9/9/9 15/15/15
f 11/11/11 9/9/9 26/26/26
f 15/15/15 19/19/19 27/27/27
f 15/15/15 27/27/27 26/26/26
f 19/19/19 23/23/23 28/28/28
f 19/19/19 28/28/28 27/27/27
f 28/28/28 23/23/23 29/29/29
f 29/29/29 23/23/23 25/25/25
f 29/29/29 27/27/27 28/28/28
f 25/25/25 30/30/30 29/29/29
f 25/25/25 31/31/31 30/30/30
f 31/31/31 32/32/32 30/30/30
f 30/30/30 32/32/32 33/33/33
f 34/34/34 30/30/30 33/33/33
f 34/34/34 35/35/35 30/30/30
f 29/29/29 36/36/36 27/27/27
f 36/36/36 26/26/26 27/27/27
f 37/37/37 29/29/29 30/30/30
f 36/36/36 29/29/29 37/37/37
f 38/38/38 30/30/30 35/35/35
f 38/38/38 37/37/37 30/30/30
f 39/39/39 37/37/37 38/38/38
f 36/36/36 37/37/37 40/40/40
f 26/26/26 36/36/36 40/40/40
f 37/37/37 39/39/39 40/40/40
f 41/41/41 38/38/38 35/35/35
f 39/39/39 38/38/38 41/41/41
f 41/41/41 35/35/35 42/42/42
f 41/41/41 42/42/42 43/43/43
f 44/44/44 26/26/26 40/40/40
f 44/44/44 40/40/40 39/39/39
f 44/44/44 11/11/11 26/26/26
f 44/44/44 45/45/45 11/11/11
f 44/44/44 39/39/39 45/45/45
f 45/45/45 46/46/46 11/11/11
f 46/46/46 14/14/14 11/11/11
f 47/47/47 14/14/14 46/46/46
f 48/48/48 47/47/47 46/46/46
f 49/49/49 48/48/48 46/46/46
f 46/46/46 50/50/50 49/49/49
f 45/45/45 50/50/50 46/46/46
f 45/45/45 51/51/51 50/50/50
f 49/49/49 50/50/50 52/52/52
f 51/51/51 52/52/52 50/50/50
f 39/39/39 53/53/53 45/45/45
f 45/45/45 53/53/53 51/51/51
f 54/54/54 53/53/53 39/39/39
f 53/53/53 54/54/54 51/51/51
f 41/41/41 54/54/54 39/39/39
f 55/55/55 54/54/54 41/41/41
f 41/41/41 43/43/43 55/55/55
f 55/55/55 56/56/56 54/54/54
f 51/51/51 54/54/54 56/56/56
f 55/55/55 43/43/43 57/57/57
f 56/56/56 55/55/55 57/57/57
f 57/57/57 43/43/43 58/58/58
f 51/51/51 59/59/59 52/52/52
f 60/60/60 52/52/52 59/59/59
f 60/60/60 59/59/59 61/61/61
f 62/62/62 59/59/59 51/51/51
f 56/56/56 62/62/62 51/51/51
f 59/59/59 63/63/63 61/61/61
f 59/59/59 62/62/62 63/63/63
f 64/64/64 62/62/62 56/56/56
f 63/63/63 62/62/62 64/64/64
f 64/64/64 56/56/56 65/65/65
f 56/56/56 57/57/57 65/65/65
f 65/65/65 66/66/66 64/64/64
f 63/63/63 64/64/64 66/66/66
f 61/61/61 63/63/63 67/67/67
f 61/61/61 67/67/67 68/68/68
f 69/69/69 68/68/68 67/67/67
f 69/69/69 67/67/67 70/70/70
f 71/71/71 67/67/67 63/63/63
f 70/70/70 67/67/67 71/71/71
f 63/63/63 66/66/66 71/71/71
f 70/70/70 71/71/71 72/72/72
f 70/70/70 72/72/72 73/73/73
f 72/72/72 74/74/74 73/73/73
f 65/65/65 57/57/57 75/75/75
f 75/75/75 66/66/66 65/65/65
f 71/71/71 66/66/66 76/76/76
f 72/72/72 71/71/71 76/76/76
f 66/66/66 75/75/75 76/76/76
f 74/74/74 72/72/72 77/77/77
f 78/78/78 74/74/74 77/77/77
f 78/78/78 77/77/77 79/79/79
f 80/80/80 79/79/79 77/77/77
f 81/81/81 79/79/79 80/80/80
f 77/77/77 72/72/72 82/82/82
f 77/77/77 82/82/82 80/80/80
f 83/83/83 72/72/72 76/76/76
f 72/72/72 83/83/83 82/82/82
f 80/80/80 84/84/84 81/81/81
f 85/85/85 81/81/81 84/84/84
f 86/86/86 85/85/85 84/84/84
f 84/84/84 87/87/87 86/86/86
f 80/80/80 82/82/82 88/88/88
f 88/88/88 84/84/84 80/80/80
f 88/88/88 82/82/82 83/83/83
f 84/84/84 89/89/89 87/87/87
f 89/89/89 84/84/84 88/88/88
f 83/83/83 76/76/76 90/90/90
f 75/75/75 90/90/90 76/76/76
f 91/91/91 90/90/90 75/75/75
f 92/92/92 88/88/88 83/83/83
f 89/89/89 88/88/88 92/92/92
f 92/92/92 93/93/93 89/89/89
f 89/89/89 94/94/94 87/87/87
f 93/93/93 94/94/94 89/89/89
f 94/94/94 95/95/95 87/87/87
f 83/83/83 90/90/90 96/96/96
f 83/83/83 96/96/96 92/92/92
f 96/96/96 90/90/90 91/91/91
f 97/97/97 95/95/95 94/94/94
f 98/98/98 95/95/95 97/97/97
f 99/99/99 98/98/98 97/97/97
f 100/100/100 99/99/99 97/97/97
f 101/101/101 100/100/100 97/97/97
f 97/97/97 94/94/94 101/101/101
f 93/93/93 101/101/101 94/94/94
f 93/93/93 102/102/102 101/101/101
f 93/93/93 103/103/103 102/102/102
f 103/103/103 93/93/93 104/104/104
f 92/92/92 105/105/105 93/93/93
f 105/105/105 92/92/92 96/96/96
f 105/105/105 104/104/104 93/93/93
f 96/96/96 106/106/106 105/105/105
f 96/96/96 91/91/91 106/106/106
f 107/107/107 104/104/104 105/105/105
f 107/107/107 105/105/105 106/106/106
f 104/104/104 107/107/107 108/108/108
f 108/108/108 107/107/107 109/109/109
f 110/110/110 109/109/109 107/107/107
f 106/106/106 110/110/110 107/107/107
f 111/111/111 110/110/110 106/106/106
f 111/111/111 106/106/106 112/112/112
f 106/106/106 91/91/91 112/112/112
f 113/113/113 112/112/112 91/91/91
f 113/113/113 91/91/91 58/58/58
f 91/91/91 114/114/114 58/58/58
f 114/114/114 57/57/57 58/58/58
f 91/91/91 75/75/75 114/114/114
f 114/114/114 75/75/75 57/57/57
