g valley_mochiStairs_COL
v 3.403022 -1.582924 5.146057
v 3.453852 -3.19998 1.4
v 3.403022 -2.078627 6.118494
v 3.403022 -1.088165 4.175492
v 3.453852 -3.19998 1.4
v 3.403022 -1.582924 5.146057
v 3.403022 -0.5917334 3.201613
v 3.453852 -3.19998 1.4
v 3.403022 -1.088165 4.175492
v 3.401754 -3.2 7.085745
v 3.394017 -2.562236 7.110765
v 3.403022 -2.078627 6.118494
v 3.403152 -0.09564575 2.228263
v 3.453852 -3.19998 1.4
v 3.403022 -0.5917334 3.201613
v 3.406269 -0.04758255 1.400001
v 3.453852 -3.19998 1.4
v 3.403152 -0.09564575 2.228263
v 2.974941 -0.01287541 1.400001
v 3.403152 -0.09564575 2.228263
v 2.975287 -0.06147136 2.316074
v 2.974941 -0.01287541 1.788139E-07
v 3.42891 -0.04986883 -0.02222186
v 2.917775 -0.01287541 -0.5803803
v 3.361793 -0.04986883 -0.668639
v 2.748484 -0.01287541 -1.138458
v 3.166722 -0.04986883 -1.311699
v 2.473569 -0.01287541 -1.652785
v 2.849974 -0.04986883 -1.904291
v 2.103598 -0.01287541 -2.103597
v 2.423705 -0.04986883 -2.423702
v 1.652787 -0.01287541 -2.473569
v 1.904294 -0.04986883 -2.849973
v 1.13846 -0.01287541 -2.748484
v 1.311701 -0.04986883 -3.166723
v 0.5803826 -0.01287541 -2.917775
v 0.6686995 -0.04986883 -3.361775
v 0 -0.01287541 -2.974938
v 0 -0.04986883 -3.427636
v -0.6686995 -0.04986883 -3.361775
v -0.5803826 -0.01287541 -2.917775
v -1.311701 -0.04986883 -3.166723
v -1.13846 -0.01287541 -2.748484
v -1.904294 -0.04986883 -2.849973
v -1.652787 -0.01287541 -2.473569
v -2.423705 -0.04986883 -2.423702
v -2.103598 -0.01287541 -2.103597
v -2.849974 -0.04986883 -1.904291
v -2.473569 -0.01287541 -1.652785
v -3.166722 -0.04986883 -1.311699
v -2.748484 -0.01287541 -1.138458
v -3.361793 -0.04986883 -0.668639
v -2.917775 -0.01287541 -0.5803803
v -3.42891 -0.04986883 -0.02222186
v -2.974941 -0.01287541 1.788139E-07
v -3.406269 -0.04758255 1.400001
v -2.974941 -0.01287541 1.400001
v -3.403152 -0.09564575 2.228263
v -2.975287 -0.06147136 2.316074
v -3.403152 -0.09564575 2.228263
v -3.451028 -3.199982 1.4
v -3.451028 -3.199982 1.4
v -3.42891 -0.04986883 -0.02222186
v -3.452699 -3.19998 -0.02347261
v -3.361793 -0.04986883 -0.668639
v -3.385221 -3.19998 -0.6733635
v -3.166722 -0.04986883 -1.311699
v -3.188808 -3.19998 -1.320847
v -2.849974 -0.04986883 -1.904291
v -2.869851 -3.19998 -1.917573
v -2.423705 -0.04986883 -2.423702
v -2.440609 -3.19998 -2.440607
v -1.904294 -0.04986883 -2.849973
v -1.917575 -3.19998 -2.869851
v -1.311701 -0.04986883 -3.166723
v -1.320849 -3.19998 -3.188809
v -0.6686995 -0.04986883 -3.361775
v -0.6733634 -3.19998 -3.385222
v 0 -0.04986883 -3.427636
v 0 -3.19998 -3.451543
v 0.6733634 -3.19998 -3.385222
v 0.6686995 -0.04986883 -3.361775
v 1.320849 -3.19998 -3.188809
v 1.311701 -0.04986883 -3.166723
v 1.917575 -3.19998 -2.869851
v 1.904294 -0.04986883 -2.849973
v 2.440609 -3.19998 -2.440607
v 2.423705 -0.04986883 -2.423702
v 2.869851 -3.19998 -1.917573
v 2.849974 -0.04986883 -1.904291
v 3.188808 -3.19998 -1.320847
v 3.166722 -0.04986883 -1.311699
v 3.385221 -3.19998 -0.6733635
v 3.361793 -0.04986883 -0.668639
v 3.452699 -3.19998 -0.02347261
v 3.42891 -0.04986883 -0.02222186
v 3.453852 -3.19998 1.4
v -3.403022 -2.078627 6.118494
v -3.451028 -3.199982 1.4
v -3.403022 -1.582924 5.146057
v -3.403022 -1.582924 5.146057
v -3.451028 -3.199982 1.4
v -3.403022 -1.088165 4.175492
v -3.403022 -1.088165 4.175492
v -3.451028 -3.199982 1.4
v -3.403022 -0.5917334 3.201613
v -3.403022 -0.5917334 3.201613
v -3.451028 -3.199982 1.4
v -3.403152 -0.09564575 2.228263
v -3.394017 -2.562236 7.110765
v -3.401754 -3.2 7.085745
v -3.451028 -3.199982 1.4
v -3.451028 -3.199982 1.4
v -3.403022 -2.078627 6.118494
v 2.974941 -0.01287541 1.400001
v 2.975287 -0.06147136 2.316074
v 1.557412 -0.0475822 2.316072
v 0 5.551115E-17 -5.960464E-08
v 0 5.551115E-17 -5.960464E-08
v 2.974941 -0.01287541 1.788139E-07
v 0 5.551115E-17 -5.960464E-08
v 2.917775 -0.01287541 -0.5803803
v 2.748484 -0.01287541 -1.138458
v 2.473569 -0.01287541 -1.652785
v 2.103598 -0.01287541 -2.103597
v 1.652787 -0.01287541 -2.473569
v 1.13846 -0.01287541 -2.748484
v 0.5803826 -0.01287541 -2.917775
v 0 -0.01287541 -2.974938
v -0.5803826 -0.01287541 -2.917775
v -1.13846 -0.01287541 -2.748484
v -1.652787 -0.01287541 -2.473569
v -2.103598 -0.01287541 -2.103597
v -2.473569 -0.01287541 -1.652785
v -2.748484 -0.01287541 -1.138458
v -2.917775 -0.01287541 -0.5803803
v -2.974941 -0.01287541 1.788139E-07
v -2.974941 -0.01287541 1.400001
v -1.557412 -0.0475822 2.316072
v -2.975287 -0.06147136 2.316074
v 0 5.551115E-17 -5.960464E-08
v 0 -0.04758219 2.316074
v 2.975287 -2.027528 6.212323
v 2.975287 -2.525797 7.199773
v 1.557412 -2.511908 7.199769
v 1.557412 -2.013638 6.212319
v 2.975287 -1.536122 5.238475
v 1.557412 -1.522233 5.238473
v 2.975287 -1.046604 4.268369
v 1.557412 -1.032715 4.268367
v 2.975287 -0.5537413 3.291633
v 1.557412 -0.5398521 3.291631
v 2.975287 -0.06147136 2.316074
v 1.557412 -0.0475822 2.316072
v 1.557412 -2.013638 6.212319
v 1.557412 -2.511908 7.199769
v 0 -2.511908 7.199773
v 0 -2.013638 6.212323
v 1.557412 -1.522233 5.238473
v 0 -1.522233 5.238475
v 1.557412 -1.032715 4.268367
v 0 -1.032715 4.268369
v 1.557412 -0.5398521 3.291631
v 0 -0.5398521 3.291633
v 1.557412 -0.0475822 2.316072
v 0 -0.04758219 2.316074
v 3.403022 -2.078627 6.118494
v 3.394017 -2.562236 7.110765
v 2.975287 -2.525797 7.199773
v 2.975287 -2.027528 6.212323
v 3.403022 -1.582924 5.146057
v 2.975287 -1.536122 5.238475
v 3.403022 -1.088165 4.175492
v 2.975287 -1.046604 4.268369
v 3.403022 -0.5917334 3.201613
v 2.975287 -0.5537413 3.291633
v 3.403152 -0.09564575 2.228263
v 2.975287 -0.06147136 2.316074
v -1.557412 -2.013638 6.212319
v -1.557412 -2.511908 7.199769
v -2.975287 -2.525797 7.199773
v -2.975287 -2.027528 6.212323
v -1.557412 -1.522233 5.238473
v -2.975287 -1.536122 5.238475
v -1.557412 -1.032715 4.268367
v -2.975287 -1.046604 4.268369
v -1.557412 -0.5398521 3.291631
v -2.975287 -0.5537413 3.291633
v -1.557412 -0.0475822 2.316072
v -2.975287 -0.06147136 2.316074
v 0 -2.013638 6.212323
v 0 -2.511908 7.199773
v -1.557412 -2.511908 7.199769
v -1.557412 -2.013638 6.212319
v 0 -1.522233 5.238475
v -1.557412 -1.522233 5.238473
v 0 -1.032715 4.268369
v -1.557412 -1.032715 4.268367
v 0 -0.5398521 3.291633
v -1.557412 -0.5398521 3.291631
v 0 -0.04758219 2.316074
v -1.557412 -0.0475822 2.316072
v -2.975287 -2.027528 6.212323
v -2.975287 -2.525797 7.199773
v -3.394017 -2.562236 7.110765
v -3.403022 -2.078627 6.118494
v -2.975287 -1.536122 5.238475
v -3.403022 -1.582924 5.146057
v -2.975287 -1.046604 4.268369
v -3.403022 -1.088165 4.175492
v -2.975287 -0.5537413 3.291633
v -3.403022 -0.5917334 3.201613
v -2.975287 -0.06147136 2.316074
v -3.403152 -0.09564575 2.228263
v 2.975287 -2.525797 7.199773
v 2.975287 -3.2 7.172246
v 1.557412 -3.2 7.172242
v 1.557412 -2.511908 7.199769
v 1.557412 -2.511908 7.199769
v 1.557412 -3.2 7.172242
v 0 -3.2 7.172246
v 0 -2.511908 7.199773
v 3.394017 -2.562236 7.110765
v 3.401754 -3.2 7.085745
v 2.975287 -3.2 7.172246
v 2.975287 -2.525797 7.199773
v -1.557412 -2.511908 7.199769
v -1.557412 -3.2 7.172242
v -2.975287 -3.2 7.172246
v -2.975287 -2.525797 7.199773
v 0 -2.511908 7.199773
v 0 -3.2 7.172246
v -1.557412 -3.2 7.172242
v -1.557412 -2.511908 7.199769
v -2.975287 -2.525797 7.199773
v -2.975287 -3.2 7.172246
v -3.401754 -3.2 7.085745
v -3.394017 -2.562236 7.110765
vt 0.25 0.65
vt 0.25 0.65
vt 0.25 0.65
vt 0.25 0.65
vt 0.25 0.65
vt 0.25 0.65
vt 0.25 0.65
vt 0.25 0.65
vt 0.25 0.65
vt 0.25 0.65
vt 0.25 0.65
vt 0.25 0.65
vt 0.25 0.65
vt 0.25 0.65
vt 0.25 0.65
vt 0.25 0.65
vt 0.25 0.65
vt 0.25 0.65
vt 0.25 0.65
vt 0.25 0.65
vt 0.25 0.65
vt 0.25 0.65
vt 0.25 0.65
vt 0.25 0.65
vt 0.25 0.65
vt 0.25 0.65
vt 0.25 0.65
vt 0.25 0.65
vt 0.25 0.65
vt 0.25 0.65
vt 0.25 0.65
vt 0.25 0.65
vt 0.25 0.65
vt 0.25 0.65
vt 0.25 0.65
vt 0.25 0.65
vt 0.25 0.65
vt 0.25 0.65
vt 0.25 0.65
vt 0.25 0.65
vt 0.25 0.65
vt 0.25 0.65
vt 0.25 0.65
vt 0.25 0.65
vt 0.25 0.65
vt 0.25 0.65
vt 0.25 0.65
vt 0.25 0.65
vt 0.25 0.65
vt 0.25 0.65
vt 0.25 0.65
vt 0.25 0.65
vt 0.25 0.65
vt 0.25 0.65
vt 0.25 0.65
vt 0.25 0.65
vt 0.25 0.65
vt 0.25 0.65
vt 0.25 0.65
vt 0.25 0.65
vt 0.25 0.65
vt 0.25 0.65
vt 0.25 0.65
vt 0.25 0.65
vt 0.25 0.65
vt 0.25 0.65
vt 0.25 0.65
vt 0.25 0.65
vt 0.25 0.65
vt 0.25 0.65
vt 0.25 0.65
vt 0.25 0.65
vt 0.25 0.65
vt 0.25 0.65
vt 0.25 0.65
vt 0.25 0.65
vt 0.25 0.65
vt 0.25 0.65
vt 0.25 0.65
vt 0.25 0.65
vt 0.25 0.65
vt 0.25 0.65
vt 0.25 0.65
vt 0.25 0.65
vt 0.25 0.65
vt 0.25 0.65
vt 0.25 0.65
vt 0.25 0.65
vt 0.25 0.65
vt 0.25 0.65
vt 0.25 0.65
vt 0.25 0.65
vt 0.25 0.65
vt 0.25 0.65
vt 0.25 0.65
vt 0.25 0.65
vt 0.25 0.65
vt 0.25 0.65
vt 0.25 0.65
vt 0.25 0.65
vt 0.25 0.65
vt 0.25 0.65
vt 0.25 0.65
vt 0.25 0.65
vt 0.25 0.65
vt 0.25 0.65
vt 0.25 0.65
vt 0.25 0.65
vt 0.25 0.65
vt 0.25 0.65
vt 0.25 0.65
vt 0.25 0.65
vt 0.25 0.65
vt 0.25 0.65
vt 0.25 0.35
vt 0.25 0.35
vt 0.25 0.35
vt 0.25 0.35
vt 0.25 0.35
vt 0.25 0.35
vt 0.25 0.35
vt 0.25 0.35
vt 0.25 0.35
vt 0.25 0.35
vt 0.25 0.35
vt 0.25 0.35
vt 0.25 0.35
vt 0.25 0.35
vt 0.25 0.35
vt 0.25 0.35
vt 0.25 0.35
vt 0.25 0.35
vt 0.25 0.35
vt 0.25 0.35
vt 0.25 0.35
vt 0.25 0.35
vt 0.25 0.35
vt 0.25 0.35
vt 0.25 0.35
vt 0.25 0.35
vt 0.25 0.35
vt 0.25 0.35
vt 0 0.797807
vt 0 1
vt 1 1
vt 1 0.797807
vt 0 0.5983991
vt 1 0.5983991
vt 0 0.3997575
vt 1 0.3997575
vt 0 0.1997584
vt 1 0.1997584
vt 0 0
vt 1 0
vt 0 0.797807
vt 0 1
vt 1 1
vt 1 0.797807
vt 0 0.5983991
vt 1 0.5983991
vt 0 0.3997575
vt 1 0.3997575
vt 0 0.1997584
vt 1 0.1997584
vt 0 0
vt 1 0
vt 0 0.797807
vt 0 1
vt 1 1
vt 1 0.797807
vt 0 0.5983991
vt 1 0.5983991
vt 0 0.3997575
vt 1 0.3997575
vt 0 0.1997584
vt 1 0.1997584
vt 0 0
vt 1 0
vt 0 0.797807
vt 0 1
vt 1 1
vt 1 0.797807
vt 0 0.5983991
vt 1 0.5983991
vt 0 0.3997575
vt 1 0.3997575
vt 0 0.1997584
vt 1 0.1997584
vt 0 0
vt 1 0
vt 0 0.797807
vt 0 1
vt 1 1
vt 1 0.797807
vt 0 0.5983991
vt 1 0.5983991
vt 0 0.3997575
vt 1 0.3997575
vt 0 0.1997584
vt 1 0.1997584
vt 0 0
vt 1 0
vt 0 0.797807
vt 0 1
vt 1 1
vt 1 0.797807
vt 0 0.5983991
vt 1 0.5983991
vt 0 0.3997575
vt 1 0.3997575
vt 0 0.1997584
vt 1 0.1997584
vt 0 0
vt 1 0
vt 0 0
vt 0 1
vt 1 1
vt 1 0
vt 0 0
vt 0 1
vt 1 1
vt 1 0
vt 0 0
vt 0 1
vt 1 1
vt 1 0
vt 0 0
vt 0 1
vt 1 1
vt 1 0
vt 0 0
vt 0 1
vt 1 1
vt 1 0
vt 0 0
vt 0 1
vt 1 1
vt 1 0
vn 0.9998692 0.01441127 0.00734623
vn 0.9999015 0.01185912 0.007498679
vn 0.9999415 0.005054877 0.009570587
vn 0.9998692 0.01441102 0.007346231
vn 0.9999015 0.01185912 0.007498679
vn 0.9998692 0.01441127 0.00734623
vn 0.9998693 0.01438019 0.007390846
vn 0.9999015 0.01185912 0.007498679
vn 0.9998692 0.01441102 0.007346231
vn 0.9886545 0.005808807 0.150095
vn 0.9580595 0.1869534 0.2171874
vn 0.9999415 0.005054877 0.009570587
vn 0.9527192 0.2928896 0.08088157
vn 0.9999015 0.01185912 0.007498679
vn 0.9998693 0.01438019 0.007390846
vn 0.9832985 0.1817146 0.01019444
vn 0.9999015 0.01185912 0.007498679
vn 0.9527192 0.2928896 0.08088157
vn 0.01161962 0.9996803 0.02245948
vn 0.9527192 0.2928896 0.08088157
vn 0.02198772 0.979992 0.1978189
vn 0.02302731 0.9997346 -0.0007371354
vn 0.9897732 0.1400601 -0.02705851
vn 0.02462914 0.9996845 -0.004949761
vn 0.971388 0.1318689 -0.1975245
vn 0.02334281 0.9996808 -0.009668883
vn 0.9159819 0.1304773 -0.3794112
vn 0.02100762 0.9996808 -0.01403685
vn 0.8243616 0.1304772 -0.5508209
vn 0.01786556 0.9996808 -0.01786553
vn 0.7010629 0.1304771 -0.7010611
vn 0.01403689 0.9996808 -0.0210076
vn 0.5508224 0.1304771 -0.8243605
vn 0.009668799 0.9996808 -0.02334245
vn 0.3794132 0.1304769 -0.9159811
vn 0.004929082 0.9996808 -0.02478019
vn 0.1934224 0.1304771 -0.9724009
vn 0 0.9996808 -0.02526569
vn 0 0.1304772 -0.9914513
vn -0.1934224 0.1304771 -0.9724009
vn -0.004929082 0.9996808 -0.02478019
vn -0.3794132 0.1304769 -0.9159811
vn -0.0096688 0.9996808 -0.02334246
vn -0.5508224 0.1304771 -0.8243606
vn -0.01403689 0.9996808 -0.0210076
vn -0.7010629 0.130477 -0.7010611
vn -0.01786556 0.9996808 -0.01786552
vn -0.8243616 0.1304772 -0.5508209
vn -0.02100761 0.9996808 -0.01403684
vn -0.9159819 0.1304773 -0.3794112
vn -0.02334281 0.9996808 -0.009668883
vn -0.971388 0.1318689 -0.1975245
vn -0.02462914 0.9996845 -0.004949761
vn -0.9898326 0.1397667 -0.02639195
vn -0.02302731 0.9997346 -0.0007371355
vn -0.9833855 0.1811999 0.01093557
vn -0.01161961 0.9996803 0.02245948
vn -0.9529518 0.2921906 0.08066915
vn -0.02198772 0.979992 0.1978189
vn -0.9529518 0.2921906 0.08066915
vn -0.9999028 0.01132928 0.008124896
vn -0.9999028 0.01132928 0.008124896
vn -0.9898326 0.1397667 -0.02639195
vn -0.9995974 0.009843932 -0.02661224
vn -0.971388 0.1318689 -0.1975245
vn -0.979913 0.007586816 -0.199281
vn -0.9159819 0.1304773 -0.3794112
vn -0.9238533 0.00758877 -0.3826716
vn -0.8243616 0.1304772 -0.5508209
vn -0.8314456 0.007588776 -0.5555544
vn -0.7010629 0.130477 -0.7010611
vn -0.7070874 0.007588794 -0.7070855
vn -0.5508224 0.1304771 -0.8243606
vn -0.5555559 0.007588795 -0.8314446
vn -0.3794132 0.1304769 -0.9159811
vn -0.3826736 0.007588782 -0.9238524
vn -0.1934224 0.1304771 -0.9724009
vn -0.1950846 0.007588835 -0.9807571
vn 0 0.1304772 -0.9914513
vn 0 0.007588896 -0.9999713
vn 0.1950846 0.007588835 -0.9807571
vn 0.1934224 0.1304771 -0.9724009
vn 0.3826736 0.007588778 -0.9238524
vn 0.3794132 0.1304769 -0.9159811
vn 0.5555558 0.007588795 -0.8314446
vn 0.5508224 0.1304771 -0.8243605
vn 0.7070874 0.00758881 -0.7070855
vn 0.7010629 0.1304771 -0.7010611
vn 0.8314456 0.007588789 -0.5555544
vn 0.8243616 0.1304772 -0.5508209
vn 0.9238533 0.007588757 -0.3826716
vn 0.9159819 0.1304773 -0.3794112
vn 0.979913 0.00758678 -0.199281
vn 0.971388 0.1318689 -0.1975245
vn 0.9995759 0.01015159 -0.02729326
vn 0.9897732 0.1400601 -0.02705851
vn 0.9999015 0.01185912 0.007498679
vn -0.9999491 0.004234737 0.009167066
vn -0.9999028 0.01132928 0.008124896
vn -0.9998833 0.01361111 0.006938211
vn -0.9998833 0.01361111 0.006938211
vn -0.9999028 0.01132928 0.008124896
vn -0.9998833 0.01361083 0.006938208
vn -0.9998833 0.01361083 0.006938208
vn -0.9999028 0.01132928 0.008124896
vn -0.9998834 0.01358009 0.006982852
vn -0.9998834 0.01358009 0.006982852
vn -0.9999028 0.01132928 0.008124896
vn -0.9529518 0.2921906 0.08066915
vn -0.9581811 0.1867883 0.2167927
vn -0.9887249 0.005827134 0.1496295
vn -0.9999028 0.01132928 0.008124896
vn -0.9999028 0.01132928 0.008124896
vn -0.9999491 0.004234737 0.009167066
vn 0.01161962 0.9996803 0.02245948
vn 0.02198772 0.979992 0.1978189
vn -0.0003679332 0.9809262 0.19438
vn 0 0.9999019 0.01401152
vn 0 0.9999019 0.01401152
vn 0.02302731 0.9997346 -0.0007371354
vn 0 0.9999019 0.01401152
vn 0.02462914 0.9996845 -0.004949761
vn 0.02334281 0.9996808 -0.009668883
vn 0.02100762 0.9996808 -0.01403685
vn 0.01786556 0.9996808 -0.01786553
vn 0.01403689 0.9996808 -0.0210076
vn 0.009668799 0.9996808 -0.02334245
vn 0.004929082 0.9996808 -0.02478019
vn 0 0.9996808 -0.02526569
vn -0.004929082 0.9996808 -0.02478019
vn -0.0096688 0.9996808 -0.02334246
vn -0.01403689 0.9996808 -0.0210076
vn -0.01786556 0.9996808 -0.01786552
vn -0.02100761 0.9996808 -0.01403684
vn -0.02334281 0.9996808 -0.009668883
vn -0.02462914 0.9996845 -0.004949761
vn -0.02302731 0.9997346 -0.0007371355
vn -0.01161961 0.9996803 0.02245948
vn 0.0003679329 0.9809262 0.1943801
vn -0.02198772 0.979992 0.1978189
vn 0 0.9999019 0.01401152
vn 0 0.9719724 0.2350949
vn 0.05144202 0.8918452 0.4494062
vn 0.05365139 0.629487 0.7751566
vn 0.002992587 0.6310636 0.7757252
vn 0.00416756 0.8927698 0.4504938
vn 0.0520542 0.891353 0.4503112
vn 0.004167567 0.8927698 0.4504937
vn 0.04961769 0.8914641 0.4503663
vn 0.004167628 0.89277 0.4504935
vn 0.04719941 0.8915702 0.4504162
vn 0.004167595 0.8927698 0.4504937
vn 0.02198772 0.979992 0.1978189
vn -0.0003679332 0.9809262 0.19438
vn 0.00416756 0.8927698 0.4504938
vn 0.002992587 0.6310636 0.7757252
vn 0 0.6290137 0.7773942
vn 0 0.8927776 0.4504977
vn 0.004167567 0.8927698 0.4504937
vn 0 0.8927776 0.4504977
vn 0.004167628 0.89277 0.4504935
vn 0 0.8927777 0.4504974
vn 0.004167595 0.8927698 0.4504937
vn 0 0.8927776 0.4504977
vn -0.0003679332 0.9809262 0.19438
vn 0 0.9719724 0.2350949
vn 0.1915615 0.8769819 0.4406893
vn 0.9580595 0.1869534 0.2171874
vn 0.05365139 0.629487 0.7751566
vn 0.05144202 0.8918452 0.4494062
vn 0.1912655 0.8753859 0.4439786
vn 0.0520542 0.891353 0.4503112
vn 0.1813142 0.8770703 0.4448292
vn 0.04961769 0.8914641 0.4503663
vn 0.1713885 0.878663 0.4456201
vn 0.04719941 0.8915702 0.4504162
vn 0.9527192 0.2928896 0.08088157
vn 0.02198772 0.979992 0.1978189
vn -0.00416756 0.8927698 0.4504938
vn -0.002992587 0.6310636 0.7757252
vn -0.05365138 0.629487 0.7751565
vn -0.05144203 0.8918452 0.4494062
vn -0.004167568 0.8927698 0.4504938
vn -0.05205421 0.891353 0.4503112
vn -0.004167628 0.89277 0.4504935
vn -0.04961768 0.8914641 0.4503663
vn -0.004167596 0.8927698 0.4504938
vn -0.04719938 0.8915703 0.4504162
vn 0.0003679329 0.9809262 0.1943801
vn -0.02198772 0.979992 0.1978189
vn 0 0.8927776 0.4504977
vn 0 0.6290137 0.7773942
vn -0.002992587 0.6310636 0.7757252
vn -0.00416756 0.8927698 0.4504938
vn 0 0.8927776 0.4504977
vn -0.004167568 0.8927698 0.4504938
vn 0 0.8927777 0.4504974
vn -0.004167628 0.89277 0.4504935
vn 0 0.8927776 0.4504977
vn -0.004167596 0.8927698 0.4504938
vn 0 0.9719724 0.2350949
vn 0.0003679329 0.9809262 0.1943801
vn -0.05144203 0.8918452 0.4494062
vn -0.05365138 0.629487 0.7751565
vn -0.9581811 0.1867883 0.2167927
vn -0.1915615 0.8769819 0.4406893
vn -0.05205421 0.891353 0.4503112
vn -0.1912656 0.8753859 0.4439785
vn -0.04961768 0.8914641 0.4503663
vn -0.1813142 0.8770704 0.4448289
vn -0.04719938 0.8915703 0.4504162
vn -0.1713885 0.878663 0.4456201
vn -0.02198772 0.979992 0.1978189
vn -0.9529518 0.2921906 0.08066915
vn 0.05365139 0.629487 0.7751566
vn 0.04587267 -0.03998614 0.9981467
vn -9.377398E-05 -0.04016622 0.999193
vn 0.002992587 0.6310636 0.7757252
vn 0.002992587 0.6310636 0.7757252
vn -9.377398E-05 -0.04016622 0.999193
vn 0 -0.03997334 0.9992008
vn 0 0.6290137 0.7773942
vn 0.9580595 0.1869534 0.2171874
vn 0.9886545 0.005808807 0.150095
vn 0.04587267 -0.03998614 0.9981467
vn 0.05365139 0.629487 0.7751566
vn -0.002992587 0.6310636 0.7757252
vn 9.377398E-05 -0.04016622 0.999193
vn -0.04587267 -0.03998613 0.9981467
vn -0.05365138 0.629487 0.7751565
vn 0 0.6290137 0.7773942
vn 0 -0.03997334 0.9992008
vn 9.377398E-05 -0.04016622 0.999193
vn -0.002992587 0.6310636 0.7757252
vn -0.05365138 0.629487 0.7751565
vn -0.04587267 -0.03998613 0.9981467
vn -0.9887249 0.005827134 0.1496295
vn -0.9581811 0.1867883 0.2167927
g valley_mochiStairs_COL_0
f 3/3/3 2/2/2 1/1/1
f 6/6/6 5/5/5 4/4/4
f 9/9/9 8/8/8 7/7/7
f 11/11/11 10/10/10 8/8/8
f 11/11/11 8/8/8 12/12/12
f 15/15/15 14/14/14 13/13/13
f 18/18/18 17/17/17 16/16/16
f 20/20/20 16/16/16 19/19/19
f 21/21/21 20/20/20 19/19/19
f 22/22/22 19/19/19 16/16/16
f 23/23/23 22/22/22 16/16/16
f 22/22/22 23/23/23 24/24/24
f 23/23/23 25/25/25 24/24/24
f 24/24/24 25/25/25 26/26/26
f 25/25/25 27/27/27 26/26/26
f 26/26/26 27/27/27 28/28/28
f 27/27/27 29/29/29 28/28/28
f 28/28/28 29/29/29 30/30/30
f 29/29/29 31/31/31 30/30/30
f 30/30/30 31/31/31 32/32/32
f 31/31/31 33/33/33 32/32/32
f 32/32/32 33/33/33 34/34/34
f 33/33/33 35/35/35 34/34/34
f 34/34/34 35/35/35 36/36/36
f 35/35/35 37/37/37 36/36/36
f 36/36/36 37/37/37 38/38/38
f 37/37/37 39/39/39 38/38/38
f 39/39/39 40/40/40 38/38/38
f 40/40/40 41/41/41 38/38/38
f 40/40/40 42/42/42 41/41/41
f 42/42/42 43/43/43 41/41/41
f 42/42/42 44/44/44 43/43/43
f 44/44/44 45/45/45 43/43/43
f 44/44/44 46/46/46 45/45/45
f 46/46/46 47/47/47 45/45/45
f 46/46/46 48/48/48 47/47/47
f 48/48/48 49/49/49 47/47/47
f 48/48/48 50/50/50 49/49/49
f 50/50/50 51/51/51 49/49/49
f 50/50/50 52/52/52 51/51/51
f 52/52/52 53/53/53 51/51/51
f 52/52/52 54/54/54 53/53/53
f 54/54/54 55/55/55 53/53/53
f 55/55/55 54/54/54 56/56/56
f 57/57/57 55/55/55 56/56/56
f 56/56/56 58/58/58 57/57/57
f 58/58/58 59/59/59 57/57/57
f 61/61/61 60/60/60 56/56/56
f 56/56/56 63/63/63 62/62/62
f 63/63/63 64/64/64 62/62/62
f 64/64/64 63/63/63 65/65/65
f 66/66/66 64/64/64 65/65/65
f 66/66/66 65/65/65 67/67/67
f 68/68/68 66/66/66 67/67/67
f 68/68/68 67/67/67 69/69/69
f 70/70/70 68/68/68 69/69/69
f 70/70/70 69/69/69 71/71/71
f 72/72/72 70/70/70 71/71/71
f 72/72/72 71/71/71 73/73/73
f 74/74/74 72/72/72 73/73/73
f 74/74/74 73/73/73 75/75/75
f 76/76/76 74/74/74 75/75/75
f 76/76/76 75/75/75 77/77/77
f 78/78/78 76/76/76 77/77/77
f 78/78/78 77/77/77 79/79/79
f 80/80/80 78/78/78 79/79/79
f 81/81/81 80/80/80 79/79/79
f 82/82/82 81/81/81 79/79/79
f 83/83/83 81/81/81 82/82/82
f 84/84/84 83/83/83 82/82/82
f 85/85/85 83/83/83 84/84/84
f 86/86/86 85/85/85 84/84/84
f 87/87/87 85/85/85 86/86/86
f 88/88/88 87/87/87 86/86/86
f 89/89/89 87/87/87 88/88/88
f 90/90/90 89/89/89 88/88/88
f 91/91/91 89/89/89 90/90/90
f 92/92/92 91/91/91 90/90/90
f 93/93/93 91/91/91 92/92/92
f 94/94/94 93/93/93 92/92/92
f 95/95/95 93/93/93 94/94/94
f 96/96/96 95/95/95 94/94/94
f 95/95/95 96/96/96 97/97/97
f 96/96/96 16/16/16 97/97/97
f 100/100/100 99/99/99 98/98/98
f 103/103/103 102/102/102 101/101/101
f 106/106/106 105/105/105 104/104/104
f 109/109/109 108/108/108 107/107/107
f 112/112/112 111/111/111 110/110/110
f 114/114/114 113/113/113 110/110/110
f 117/117/117 116/116/116 115/115/115
f 118/118/118 117/117/117 115/115/115
f 115/115/115 120/120/120 119/119/119
f 122/122/122 121/121/121 120/120/120
f 123/123/123 121/121/121 122/122/122
f 124/124/124 121/121/121 123/123/123
f 125/125/125 121/121/121 124/124/124
f 126/126/126 121/121/121 125/125/125
f 127/127/127 121/121/121 126/126/126
f 128/128/128 121/121/121 127/127/127
f 129/129/129 121/121/121 128/128/128
f 121/121/121 129/129/129 130/130/130
f 121/121/121 130/130/130 131/131/131
f 121/121/121 131/131/131 132/132/132
f 121/121/121 132/132/132 133/133/133
f 121/121/121 133/133/133 134/134/134
f 121/121/121 134/134/134 135/135/135
f 121/121/121 135/135/135 136/136/136
f 121/121/121 136/136/136 137/137/137
f 137/137/137 138/138/138 119/119/119
f 139/139/139 118/118/118 138/138/138
f 140/140/140 139/139/139 138/138/138
f 139/139/139 142/142/142 141/141/141
f 142/142/142 117/117/117 141/141/141
f 145/145/145 144/144/144 143/143/143
f 146/146/146 145/145/145 143/143/143
f 146/146/146 143/143/143 147/147/147
f 148/148/148 146/146/146 147/147/147
f 148/148/148 147/147/147 149/149/149
f 150/150/150 148/148/148 149/149/149
f 150/150/150 149/149/149 151/151/151
f 152/152/152 150/150/150 151/151/151
f 152/152/152 151/151/151 153/153/153
f 154/154/154 152/152/152 153/153/153
f 157/157/157 156/156/156 155/155/155
f 158/158/158 157/157/157 155/155/155
f 158/158/158 155/155/155 159/159/159
f 160/160/160 158/158/158 159/159/159
f 160/160/160 159/159/159 161/161/161
f 162/162/162 160/160/160 161/161/161
f 162/162/162 161/161/161 163/163/163
f 164/164/164 162/162/162 163/163/163
f 164/164/164 163/163/163 165/165/165
f 166/166/166 164/164/164 165/165/165
f 169/169/169 168/168/168 167/167/167
f 170/170/170 169/169/169 167/167/167
f 170/170/170 167/167/167 171/171/171
f 172/172/172 170/170/170 171/171/171
f 172/172/172 171/171/171 173/173/173
f 174/174/174 172/172/172 173/173/173
f 174/174/174 173/173/173 175/175/175
f 176/176/176 174/174/174 175/175/175
f 176/176/176 175/175/175 177/177/177
f 178/178/178 176/176/176 177/177/177
f 181/181/181 180/180/180 179/179/179
f 182/182/182 181/181/181 179/179/179
f 182/182/182 179/179/179 183/183/183
f 184/184/184 182/182/182 183/183/183
f 184/184/184 183/183/183 185/185/185
f 186/186/186 184/184/184 185/185/185
f 186/186/186 185/185/185 187/187/187
f 188/188/188 186/186/186 187/187/187
f 188/188/188 187/187/187 189/189/189
f 190/190/190 188/188/188 189/189/189
f 193/193/193 192/192/192 191/191/191
f 194/194/194 193/193/193 191/191/191
f 194/194/194 191/191/191 195/195/195
f 196/196/196 194/194/194 195/195/195
f 196/196/196 195/195/195 197/197/197
f 198/198/198 196/196/196 197/197/197
f 198/198/198 197/197/197 199/199/199
f 200/200/200 198/198/198 199/199/199
f 200/200/200 199/199/199 201/201/201
f 202/202/202 200/200/200 201/201/201
f 205/205/205 204/204/204 203/203/203
f 206/206/206 205/205/205 203/203/203
f 206/206/206 203/203/203 207/207/207
f 208/208/208 206/206/206 207/207/207
f 208/208/208 207/207/207 209/209/209
f 210/210/210 208/208/208 209/209/209
f 210/210/210 209/209/209 211/211/211
f 212/212/212 210/210/210 211/211/211
f 212/212/212 211/211/211 213/213/213
f 214/214/214 212/212/212 213/213/213
f 217/217/217 216/216/216 215/215/215
f 218/218/218 217/217/217 215/215/215
f 221/221/221 220/220/220 219/219/219
f 222/222/222 221/221/221 219/219/219
f 225/225/225 224/224/224 223/223/223
f 226/226/226 225/225/225 223/223/223
f 229/229/229 228/228/228 227/227/227
f 230/230/230 229/229/229 227/227/227
f 233/233/233 232/232/232 231/231/231
f 234/234/234 233/233/233 231/231/231
f 237/237/237 236/236/236 235/235/235
f 238/238/238 237/237/237 235/235/235
