g valley_cord_x20
v 9.835063E-09 0.04918837 -19.67496
v 9.835063E-09 -0.252432 -17.42293
v -0.075 -0.3274318 -17.42275
v -0.075 -0.02581162 -19.67494
v 0.075 -0.02581162 -19.67494
v -3.278354E-09 -0.4024316 -17.42258
v -3.278354E-09 -0.1008116 -19.67493
v 0.075 -0.3274318 -17.42275
v -0.075 -0.5912162 -15.33098
v -3.278354E-09 -0.6662156 -15.33066
v 0.075 -0.5912162 -15.33098
v 9.835063E-09 -0.5162169 -15.3313
v -3.278354E-09 -0.8429952 -13.74643
v 0.075 -0.7679963 -13.74685
v -0.075 -0.7679963 -13.74685
v 9.835063E-09 -0.6929975 -13.74727
v -3.278354E-09 -0.9790745 -12.41223
v 0.075 -0.9040763 -12.41272
v -0.075 -0.9040763 -12.41272
v 9.835063E-09 -0.8290778 -12.41322
v -3.278354E-09 -1.077036 -11.28113
v 0.075 -1.002038 -11.28169
v -0.075 -1.002038 -11.28169
v 9.835063E-09 -0.92704 -11.28224
v -3.278354E-09 -1.142161 -10.30365
v 0.075 -1.067163 -10.30425
v -0.075 -1.067163 -10.30425
v 9.835063E-09 -0.9921657 -10.30485
v -3.278354E-09 -1.188857 -9.412676
v 0.075 -1.113859 -9.413301
v -0.075 -1.113859 -9.413301
v 9.835063E-09 -1.038862 -9.413928
v -3.278354E-09 -1.221149 -8.583797
v 0.075 -1.146152 -8.584445
v -0.075 -1.146152 -8.584445
v 9.835063E-09 -1.071154 -8.585093
v -3.278354E-09 -1.236533 -7.812268
v 0.075 -1.161536 -7.812929
v -0.075 -1.161536 -7.812929
v 9.835063E-09 -1.086539 -7.81359
v -3.278354E-09 -1.243464 -7.068386
v 0.075 -1.168466 -7.069054
v -0.075 -1.168466 -7.069054
v 9.835063E-09 -1.093469 -7.069723
v -3.278354E-09 -1.223914 -6.380318
v 0.075 -1.148916 -6.380979
v -0.075 -1.148916 -6.380979
v 9.835063E-09 -1.073919 -6.381639
v -3.278354E-09 -1.196218 -5.700069
v 0.075 -1.12122 -5.700718
v -0.075 -1.12122 -5.700718
v 9.835063E-09 -1.046223 -5.701366
v -3.278354E-09 -1.152299 -5.034273
v 0.075 -1.077301 -5.034899
v -0.075 -1.077301 -5.034899
v 9.835063E-09 -1.002304 -5.035525
v -3.278354E-09 -1.095003 -4.369106
v 0.075 -1.020005 -4.369702
v -0.075 -1.020005 -4.369702
v 9.835063E-09 -0.9450073 -4.370298
v -3.278354E-09 -1.020879 -3.699908
v 0.075 -0.9458812 -3.700464
v -0.075 -0.9458812 -3.700464
v 9.835063E-09 -0.8708833 -3.701019
v -3.278354E-09 -0.9168797 -3.027966
v 0.075 -0.8418813 -3.028463
v -0.075 -0.8418813 -3.028463
v 9.835063E-09 -0.766883 -3.02896
v -3.278354E-09 -0.7793932 -2.33843
v 0.075 -0.7043943 -2.338848
v -0.075 -0.7043943 -2.338848
v 9.835063E-09 -0.6293955 -2.339266
v -3.278354E-09 -0.608011 -1.612393
v 0.075 -0.5330117 -1.612711
v -0.075 -0.5330117 -1.612711
v 9.835063E-09 -0.4580123 -1.613029
v -3.278354E-09 -0.3640624 -0.8473819
v 0.075 -0.2890626 -0.8475555
v -0.075 -0.2890626 -0.8475555
v 9.835063E-09 -0.2140628 -0.8477291
v -3.278354E-09 -0.1192732 -0.1692868
v -0.075 -0.04564996 -0.1835917
v 0.075 -0.04564996 -0.1835917
v 9.835063E-09 0.02797322 -0.1978966
v 9.835063E-09 0.02797322 -0.1978966
v -2.328306E-09 0.04749241 -0.184176
v -0.08751339 -0.03841497 -0.1674872
v -0.075 -0.04564996 -0.1835917
v 0.075 -0.04564996 -0.1835917
v -1.536682E-08 -0.1243224 -0.1507984
v -3.278354E-09 -0.1192732 -0.1692868
v 0.08751336 -0.03841497 -0.1674872
v -0.08944917 0.01487156 0.00714331
v 7.813737E-08 -0.07293868 0.02418779
v 0.0894492 0.01487156 0.00714331
v -4.121916E-09 0.1026819 -0.009901181
v 8.434936E-08 0.02269378 0.04744207
v -0.075 -0.02581162 -19.67494
v -0.08751337 -0.02202903 -19.71253
v 1.071021E-08 0.06548435 -19.71254
v 9.835063E-09 0.04918837 -19.67496
v -3.278354E-09 -0.1008116 -19.67493
v 0.08751337 -0.02202903 -19.71253
v 0.075 -0.02581162 -19.67494
v -3.72529E-09 -0.1095424 -19.71252
v 2.224127E-08 0.08944917 -20.01022
v 0.0894492 0 -20.01022
v -0.08944917 0 -20.01022
v 1.042108E-07 -0.08944923 -20.01022
v 1.031704E-07 0 -20.05127
vt 0.25 0.65
vt 0.25 0.65
vt 0.25 0.65
vt 0.25 0.65
vt 0.25 0.65
vt 0.25 0.65
vt 0.25 0.65
vt 0.25 0.65
vt 0.25 0.65
vt 0.25 0.65
vt 0.25 0.65
vt 0.25 0.65
vt 0.25 0.65
vt 0.25 0.65
vt 0.25 0.65
vt 0.25 0.65
vt 0.25 0.65
vt 0.25 0.65
vt 0.25 0.65
vt 0.25 0.65
vt 0.25 0.65
vt 0.25 0.65
vt 0.25 0.65
vt 0.25 0.65
vt 0.25 0.65
vt 0.25 0.65
vt 0.25 0.65
vt 0.25 0.65
vt 0.25 0.65
vt 0.25 0.65
vt 0.25 0.65
vt 0.25 0.65
vt 0.25 0.65
vt 0.25 0.65
vt 0.25 0.65
vt 0.25 0.65
vt 0.25 0.65
vt 0.25 0.65
vt 0.25 0.65
vt 0.25 0.65
vt 0.25 0.65
vt 0.25 0.65
vt 0.25 0.65
vt 0.25 0.65
vt 0.25 0.65
vt 0.25 0.65
vt 0.25 0.65
vt 0.25 0.65
vt 0.25 0.65
vt 0.25 0.65
vt 0.25 0.65
vt 0.25 0.65
vt 0.25 0.65
vt 0.25 0.65
vt 0.25 0.65
vt 0.25 0.65
vt 0.25 0.65
vt 0.25 0.65
vt 0.25 0.65
vt 0.25 0.65
vt 0.25 0.65
vt 0.25 0.65
vt 0.25 0.65
vt 0.25 0.65
vt 0.25 0.65
vt 0.25 0.65
vt 0.25 0.65
vt 0.25 0.65
vt 0.25 0.65
vt 0.25 0.65
vt 0.25 0.65
vt 0.25 0.65
vt 0.25 0.65
vt 0.25 0.65
vt 0.25 0.65
vt 0.25 0.65
vt 0.25 0.65
vt 0.25 0.65
vt 0.25 0.65
vt 0.25 0.65
vt 0.25 0.65
vt 0.25 0.65
vt 0.25 0.65
vt 0.25 0.65
vt 0.25 0.35
vt 0.25 0.35
vt 0.25 0.35
vt 0.25 0.35
vt 0.25 0.35
vt 0.25 0.35
vt 0.25 0.35
vt 0.25 0.35
vt 0.25 0.35
vt 0.25 0.35
vt 0.25 0.35
vt 0.25 0.35
vt 0.25 0.35
vt 0.25 0.35
vt 0.25 0.35
vt 0.25 0.35
vt 0.25 0.35
vt 0.25 0.35
vt 0.25 0.35
vt 0.25 0.35
vt 0.25 0.35
vt 0.25 0.35
vt 0.25 0.35
vt 0.25 0.35
vt 0.25 0.35
vt 0.25 0.35
vn 0 0.9911505 0.1327427
vn 0 0.9916056 0.1292989
vn -0.999992 -0.003943712 -0.0007396708
vn -0.9981787 0.05979244 0.008012387
vn 0.9981787 0.05979232 0.008012372
vn 0 -0.9916654 -0.1288395
vn 0 -0.9911518 -0.1327334
vn 0.999992 -0.003943492 -0.0007396342
vn -0.9999397 -0.01085445 -0.001689068
vn 0 -0.9929411 -0.1186084
vn 0.9999397 -0.01085431 -0.001689036
vn 0 0.9928482 0.1193842
vn 0 -0.9943281 -0.1063562
vn 0.9999787 -0.006477297 -0.0009309505
vn -0.9999787 -0.006476928 -0.0009309192
vn 0 0.9942768 0.1068345
vn 0 -0.9955563 -0.09416806
vn 0.9999737 -0.007185566 -0.001025507
vn -0.9999737 -0.007185179 -0.001025476
vn 0 0.9954911 0.09485614
vn 0 -0.997051 -0.07674175
vn 0.9999734 -0.007240167 -0.0009332541
vn -0.9999734 -0.007240031 -0.000933254
vn 0 0.9969932 0.07748916
vn 0 -0.9982267 -0.05952607
vn 0.9999893 -0.004610108 -0.0004898666
vn -0.9999893 -0.004609582 -0.0004898538
vn 0 0.998201 0.05995652
vn 0 -0.9989544 -0.04571611
vn 0.9999924 -0.003913566 -0.0003422006
vn -0.9999924 -0.003912977 -0.0003421781
vn 0 0.9989395 0.04604324
vn 0 -0.9995614 -0.02961405
vn 0.999988 -0.004902036 -0.0003084083
vn -0.999988 -0.004901778 -0.0003084104
vn 0 0.9995517 0.0299402
vn 0 -0.9998925 -0.01466746
vn 0.9999967 -0.002590401 -9.408305E-05
vn -0.9999967 -0.002589838 -9.404458E-05
vn 0 0.9998908 0.0147797
vn 0 -0.9999613 0.008807274
vn 0.9999641 -0.008478301 8.009668E-05
vn -0.9999641 -0.008477969 8.013187E-05
vn 0 0.9999611 -0.008817864
vn 0 -0.9994068 0.03443644
vn 0.9999964 -0.002691068 0.0001644029
vn -0.9999964 -0.002690768 0.000164361
vn 0 0.999402 -0.03457823
vn 0 -0.9986011 0.05287438
vn 0.9999851 -0.005432929 0.0005429973
vn -0.9999851 -0.005432742 0.0005429593
vn 0 0.9985744 -0.0533784
vn 0 -0.9971442 0.07552078
vn 0.9999899 -0.004472246 0.0006477978
vn -0.9999899 -0.004471961 0.0006477859
vn 0 0.9970982 -0.07612594
vn 0 -0.9952338 0.09751678
vn 0.9999839 -0.005569976 0.001050055
vn -0.999984 -0.005569741 0.001050061
vn 0 0.9951374 -0.09849634
vn 0 -0.991456 0.1304418
vn 0.9999492 -0.009761536 0.00253128
vn -0.9999492 -0.009761889 0.002531339
vn 0 0.9911385 -0.1328324
vn 0 -0.9849206 0.1730068
vn 0.9999377 -0.01057924 0.003570346
vn -0.9999377 -0.01057951 0.003570416
vn 0 0.9843521 -0.1762129
vn 0 -0.9773675 0.2115489
vn 0.999941 -0.01012758 0.003934965
vn -0.999941 -0.01012749 0.003934953
vn 0 0.9766753 -0.2147216
vn 0 -0.9645738 0.2638133
vn 0.9997451 -0.01998805 0.0105046
vn -0.9997451 -0.01998773 0.01050453
vn 0 0.9621338 -0.2725777
vn 0 -0.9477503 0.319013
vn 0.9999863 -0.003849364 0.003569155
vn -0.9999863 -0.003849211 0.003569138
vn 0 0.9450514 -0.3269219
vn 0 -0.9397529 0.3418546
vn -0.9979346 0.05936189 -0.02455012
vn 0.9979346 0.05936179 -0.02455013
vn 0 0.9380141 -0.3465969
vn 0 0.575038 -0.8181268
vn 0 0.9391849 -0.3434119
vn -0.9980761 -0.04520324 -0.04243695
vn -0.8135904 -0.1683045 -0.5565466
vn 0.8135911 -0.1683047 -0.5565457
vn 0 -0.9698486 0.2437084
vn 0 -0.96468 -0.263425
vn 0.9980761 -0.04520299 -0.04243737
vn -0.992373 0.06519195 0.1046219
vn 0 -0.9201089 0.3916626
vn 0.992373 0.06519224 0.1046213
vn 0 0.9867085 -0.1625004
vn 0 0.1905493 0.9816776
vn -0.9492589 -0.0365408 0.3123655
vn -0.9990902 -0.02557658 0.03412576
vn 0 0.9939908 0.1094638
vn 0 0.9174756 0.3977922
vn 0 -0.9740649 0.2262688
vn 0.9990902 -0.02557837 0.03412561
vn 0.9492602 -0.03654589 0.3123609
vn 0 -0.9992623 -0.03840428
vn 0 0.999977 -0.006784241
vn 0.9968477 0.03196506 -0.07261422
vn -0.9968477 0.0319663 -0.07261451
vn 0 -0.9897915 -0.1425226
vn 0 0 -1
g valley_cord_x20_0
f 3/3/3 2/2/2 1/1/1
f 4/4/4 3/3/3 1/1/1
f 1/1/1 2/2/2 5/5/5
f 6/6/6 3/3/3 4/4/4
f 7/7/7 6/6/6 4/4/4
f 5/5/5 8/8/8 7/7/7
f 2/2/2 8/8/8 5/5/5
f 8/8/8 6/6/6 7/7/7
f 3/3/3 9/9/9 2/2/2
f 6/6/6 10/10/10 3/3/3
f 10/10/10 9/9/9 3/3/3
f 8/8/8 11/11/11 6/6/6
f 11/11/11 10/10/10 6/6/6
f 2/2/2 12/12/12 8/8/8
f 9/9/9 12/12/12 2/2/2
f 12/12/12 11/11/11 8/8/8
f 10/10/10 13/13/13 9/9/9
f 11/11/11 14/14/14 10/10/10
f 14/14/14 13/13/13 10/10/10
f 9/9/9 15/15/15 12/12/12
f 13/13/13 15/15/15 9/9/9
f 12/12/12 16/16/16 11/11/11
f 16/16/16 14/14/14 11/11/11
f 15/15/15 16/16/16 12/12/12
f 13/13/13 17/17/17 15/15/15
f 14/14/14 18/18/18 13/13/13
f 18/18/18 17/17/17 13/13/13
f 15/15/15 19/19/19 16/16/16
f 17/17/17 19/19/19 15/15/15
f 16/16/16 20/20/20 14/14/14
f 20/20/20 18/18/18 14/14/14
f 19/19/19 20/20/20 16/16/16
f 17/17/17 21/21/21 19/19/19
f 18/18/18 22/22/22 17/17/17
f 22/22/22 21/21/21 17/17/17
f 19/19/19 23/23/23 20/20/20
f 21/21/21 23/23/23 19/19/19
f 20/20/20 24/24/24 18/18/18
f 24/24/24 22/22/22 18/18/18
f 23/23/23 24/24/24 20/20/20
f 21/21/21 25/25/25 23/23/23
f 22/22/22 26/26/26 21/21/21
f 26/26/26 25/25/25 21/21/21
f 23/23/23 27/27/27 24/24/24
f 25/25/25 27/27/27 23/23/23
f 24/24/24 28/28/28 22/22/22
f 28/28/28 26/26/26 22/22/22
f 27/27/27 28/28/28 24/24/24
f 25/25/25 29/29/29 27/27/27
f 26/26/26 30/30/30 25/25/25
f 30/30/30 29/29/29 25/25/25
f 27/27/27 31/31/31 28/28/28
f 29/29/29 31/31/31 27/27/27
f 28/28/28 32/32/32 26/26/26
f 32/32/32 30/30/30 26/26/26
f 31/31/31 32/32/32 28/28/28
f 29/29/29 33/33/33 31/31/31
f 30/30/30 34/34/34 29/29/29
f 34/34/34 33/33/33 29/29/29
f 31/31/31 35/35/35 32/32/32
f 33/33/33 35/35/35 31/31/31
f 32/32/32 36/36/36 30/30/30
f 36/36/36 34/34/34 30/30/30
f 35/35/35 36/36/36 32/32/32
f 33/33/33 37/37/37 35/35/35
f 34/34/34 38/38/38 33/33/33
f 38/38/38 37/37/37 33/33/33
f 35/35/35 39/39/39 36/36/36
f 37/37/37 39/39/39 35/35/35
f 36/36/36 40/40/40 34/34/34
f 40/40/40 38/38/38 34/34/34
f 39/39/39 40/40/40 36/36/36
f 37/37/37 41/41/41 39/39/39
f 38/38/38 42/42/42 37/37/37
f 42/42/42 41/41/41 37/37/37
f 39/39/39 43/43/43 40/40/40
f 41/41/41 43/43/43 39/39/39
f 40/40/40 44/44/44 38/38/38
f 44/44/44 42/42/42 38/38/38
f 43/43/43 44/44/44 40/40/40
f 41/41/41 45/45/45 43/43/43
f 42/42/42 46/46/46 41/41/41
f 46/46/46 45/45/45 41/41/41
f 43/43/43 47/47/47 44/44/44
f 45/45/45 47/47/47 43/43/43
f 44/44/44 48/48/48 42/42/42
f 48/48/48 46/46/46 42/42/42
f 47/47/47 48/48/48 44/44/44
f 45/45/45 49/49/49 47/47/47
f 46/46/46 50/50/50 45/45/45
f 50/50/50 49/49/49 45/45/45
f 47/47/47 51/51/51 48/48/48
f 49/49/49 51/51/51 47/47/47
f 48/48/48 52/52/52 46/46/46
f 52/52/52 50/50/50 46/46/46
f 51/51/51 52/52/52 48/48/48
f 49/49/49 53/53/53 51/51/51
f 50/50/50 54/54/54 49/49/49
f 54/54/54 53/53/53 49/49/49
f 51/51/51 55/55/55 52/52/52
f 53/53/53 55/55/55 51/51/51
f 52/52/52 56/56/56 50/50/50
f 56/56/56 54/54/54 50/50/50
f 55/55/55 56/56/56 52/52/52
f 53/53/53 57/57/57 55/55/55
f 54/54/54 58/58/58 53/53/53
f 58/58/58 57/57/57 53/53/53
f 55/55/55 59/59/59 56/56/56
f 57/57/57 59/59/59 55/55/55
f 56/56/56 60/60/60 54/54/54
f 60/60/60 58/58/58 54/54/54
f 59/59/59 60/60/60 56/56/56
f 57/57/57 61/61/61 59/59/59
f 58/58/58 62/62/62 57/57/57
f 62/62/62 61/61/61 57/57/57
f 59/59/59 63/63/63 60/60/60
f 61/61/61 63/63/63 59/59/59
f 60/60/60 64/64/64 58/58/58
f 64/64/64 62/62/62 58/58/58
f 63/63/63 64/64/64 60/60/60
f 61/61/61 65/65/65 63/63/63
f 62/62/62 66/66/66 61/61/61
f 66/66/66 65/65/65 61/61/61
f 63/63/63 67/67/67 64/64/64
f 65/65/65 67/67/67 63/63/63
f 64/64/64 68/68/68 62/62/62
f 68/68/68 66/66/66 62/62/62
f 67/67/67 68/68/68 64/64/64
f 65/65/65 69/69/69 67/67/67
f 66/66/66 70/70/70 65/65/65
f 70/70/70 69/69/69 65/65/65
f 67/67/67 71/71/71 68/68/68
f 69/69/69 71/71/71 67/67/67
f 68/68/68 72/72/72 66/66/66
f 72/72/72 70/70/70 66/66/66
f 71/71/71 72/72/72 68/68/68
f 69/69/69 73/73/73 71/71/71
f 70/70/70 74/74/74 69/69/69
f 74/74/74 73/73/73 69/69/69
f 71/71/71 75/75/75 72/72/72
f 73/73/73 75/75/75 71/71/71
f 72/72/72 76/76/76 70/70/70
f 76/76/76 74/74/74 70/70/70
f 75/75/75 76/76/76 72/72/72
f 73/73/73 77/77/77 75/75/75
f 74/74/74 78/78/78 73/73/73
f 78/78/78 77/77/77 73/73/73
f 75/75/75 79/79/79 76/76/76
f 77/77/77 79/79/79 75/75/75
f 76/76/76 80/80/80 74/74/74
f 80/80/80 78/78/78 74/74/74
f 79/79/79 80/80/80 76/76/76
f 77/77/77 81/81/81 79/79/79
f 81/81/81 82/82/82 79/79/79
f 79/79/79 82/82/82 80/80/80
f 83/83/83 81/81/81 77/77/77
f 78/78/78 83/83/83 77/77/77
f 82/82/82 84/84/84 80/80/80
f 84/84/84 83/83/83 78/78/78
f 80/80/80 84/84/84 78/78/78
f 87/87/87 86/86/86 85/85/85
f 88/88/88 87/87/87 85/85/85
f 85/85/85 86/86/86 89/89/89
f 90/90/90 87/87/87 88/88/88
f 91/91/91 90/90/90 88/88/88
f 89/89/89 92/92/92 91/91/91
f 86/86/86 92/92/92 89/89/89
f 92/92/92 90/90/90 91/91/91
f 87/87/87 93/93/93 86/86/86
f 90/90/90 94/94/94 87/87/87
f 94/94/94 93/93/93 87/87/87
f 92/92/92 95/95/95 90/90/90
f 95/95/95 94/94/94 90/90/90
f 86/86/86 96/96/96 92/92/92
f 93/93/93 96/96/96 86/86/86
f 96/96/96 95/95/95 92/92/92
f 94/94/94 97/97/97 93/93/93
f 95/95/95 97/97/97 94/94/94
f 93/93/93 97/97/97 96/96/96
f 96/96/96 97/97/97 95/95/95
f 100/100/100 99/99/99 98/98/98
f 101/101/101 100/100/100 98/98/98
f 98/98/98 99/99/99 102/102/102
f 103/103/103 100/100/100 101/101/101
f 104/104/104 103/103/103 101/101/101
f 102/102/102 105/105/105 104/104/104
f 99/99/99 105/105/105 102/102/102
f 105/105/105 103/103/103 104/104/104
f 99/99/99 100/100/100 106/106/106
f 100/100/100 103/103/103 107/107/107
f 106/106/106 100/100/100 107/107/107
f 105/105/105 99/99/99 108/108/108
f 108/108/108 99/99/99 106/106/106
f 103/103/103 105/105/105 109/109/109
f 107/107/107 103/103/103 109/109/109
f 109/109/109 105/105/105 108/108/108
f 106/106/106 110/110/110 108/108/108
f 107/107/107 110/110/110 106/106/106
f 108/108/108 110/110/110 109/109/109
f 109/109/109 110/110/110 107/107/107
