g valley_ramp01_COL
v -4.664577 0 2.80822
v -3.728984 0.1834227 2.203153
v -3.732644 0 2.943325
v -2.182541 0.0003948076 2.696993
v -4.481524 0.1774244 2.106167
v -5.659263 0 2.388816
v -2.197433 0.2103881 1.982399
v -0.3591217 0.0127449 2.17734
v -5.321931 0.1771086 1.791612
v -6.714237 0 1.735577
v -3.811415 0.5776491 1.471212
v -0.4240949 0.2375789 1.509073
v 1.153865 0.01536614 1.925618
v -6.154521 0.1771086 1.301683
v -7.561962 0 0.9124463
v -4.367738 0.5906996 1.40411
v -2.328855 0.6167529 1.341059
v 1.067688 0.2389517 1.277072
v 2.183082 0.009826732 2.154443
v -6.787454 0.1771086 0.684335
v -7.891311 0 -3.491768E-07
v -4.949121 0.6061987 1.194408
v -3.858307 0.9807564 0.7381841
v -0.6361212 0.6291096 0.9844304
v 2.130454 0.2301573 1.479481
v 2.979083 0.0006712028 2.609309
v -7.026059 0.1771086 -3.491768E-07
v -7.561961 0 -0.9124463
v -4.131422 1.016587 0.7020552
v -2.46502 0.9056641 0.6828197
v 0.8383573 0.5562473 0.7809843
v 2.976362 0.2145864 1.888116
v 3.890984 -7.450581E-09 2.876252
v -3.512437 1.540204 -3.938803E-07
v -4.394799 1.050371 0.5972034
v -2.32087 1.499415 -0.01667515
v -4.614344 1.078557 0.4338937
v -4.760018 1.097435 0.2281111
v -0.8933579 0.9161807 0.4863305
v -0.989453 1.326217 -0.06278937
v -5.478417 0.6176468 0.8677879
v 0.5576862 0.8007536 0.3301058
v 0.1900907 1.182396 -0.1031228
v -5.852449 0.6257026 0.4562229
v 1.946778 0.6226916 0.9394586
v 1.708162 0.9384171 0.437423
v 1.397157 1.420875 -0.07983144
v -5.989449 0.6288114 -3.491768E-07
v 2.876366 0.673241 1.246074
v 2.722731 1.017939 0.6173545
v 2.417682 1.468631 -0.01600096
v 3.903189 0.1988444 2.131449
v 3.813319 0.9696718 0.7080886
v 3.75 1.338009 3.044734E-07
v 3.877928 0.6628544 1.409699
v 4.532233 0.1918797 2.082613
v 4.689231 -9.313226E-10 2.79503
v 4.049992 0.9751362 0.6853801
v 4.350514 0.6649816 1.378831
v 5.365421 0.1838161 1.791612
v 5.687211 -9.313226E-10 2.388818
v 4.287582 0.9830291 0.5911797
v 4.904343 0.6700873 1.193026
v 4.495796 0.9932283 0.4332837
v 4.641586 1.003763 0.2281117
v 4.694388 1.008195 3.417263E-07
v 5.45819 0.6746998 0.867788
v 6.253199 0.1771086 1.301682
v 6.806837 -2.910383E-11 1.735576
v 5.857878 0.67203 0.4562235
v 6.937326 0.1771086 0.6843346
v 7.723495 0 0.9124463
v 6.005617 0.6697707 3.491768E-07
v 7.196889 0.1771086 3.491768E-07
v 8.08259 0 3.491768E-07
v 4.641586 1.003763 -0.2281111
v 6.937327 0.1771086 -0.684335
v 7.723495 0 -0.9124463
v 5.857879 0.67203 -0.4562229
v 6.252427 0.1771086 -1.300883
v 6.806839 -2.910383E-11 -1.735577
v 4.493742 0.9931913 -0.4326692
v 5.450876 0.674637 -0.860797
v 5.319443 0.1864864 -1.738483
v 5.666551 -3.72529E-09 -2.362196
v 4.26802 0.9805214 -0.5874437
v 4.855687 0.667788 -1.145561
v 4.35165 0.2044047 -1.932353
v 4.533929 9.313226E-10 -2.64425
v 4.001097 0.9715558 -0.6790194
v 4.207718 0.6589547 -1.287148
v 3.545642 0.2237947 -1.902593
v 3.51812 0.003374523 -2.598766
v 2.2877 0.002930121 -2.466614
v 3.73289 0.9684771 -0.7023129
v 3.631127 0.6612341 -1.291129
v 2.310397 0.2185651 -1.780398
v 1.172707 0 -2.598764
v 2.468274 1.053969 -0.6655382
v 2.417682 1.468631 -0.01600096
v 2.380108 0.6849987 -1.201838
v 1.181881 0.2021991 -1.902592
v 6.065856E-08 0 -2.851518
v 1.251673 0.9451864 -0.7074697
v 1.397157 1.420875 -0.07983144
v 1.209551 0.5844741 -1.291129
v 6.046282E-08 0.1907636 -2.132132
v -1.172706 0 -2.598762
v 0.01789131 0.7998941 -0.7478902
v 0.1900907 1.182396 -0.1031228
v 2.377576E-07 0.5296569 -1.444628
v -1.181881 0.2078394 -1.902592
v -2.2877 0.00241002 -2.466609
v -1.242998 0.9107424 -0.7062008
v -0.989453 1.326217 -0.06278937
v -1.209551 0.5893173 -1.291129
v -2.310397 0.2185651 -1.780398
v -3.51812 0 -2.59876
v -2.536637 0.8954708 -0.6655384
v -2.32087 1.499415 -0.01667515
v -2.419455 0.5918297 -1.201838
v -3.553427 0.1860235 -1.902592
v -3.833088 0.973419 -0.7023133
v -3.709217 0.5549953 -1.291129
v -4.350318 0.1759938 -1.932353
v -4.533239 0 -2.644249
v -4.118026 1.012701 -0.6847541
v -4.298151 0.5778058 -1.304795
v -5.277721 0.1763256 -1.738483
v -5.637924 0 -2.362197
v -4.391659 1.049482 -0.5934104
v -4.919089 0.6015351 -1.155471
v -6.153913 0.1771086 -1.301055
v -6.714234 0 -1.735576
v -4.614344 1.078557 -0.4338938
v -5.475676 0.6172573 -0.8641832
v -6.787453 0.1771086 -0.6843346
v -5.852448 0.6257026 -0.4562235
v -4.760018 1.097435 -0.2281117
v -4.81153 1.104112 -3.566274E-07
vt 0.5482839 0.9923526
vt 0.5 0.9609375
vt 0.5 1
vt 0.5 0.9479166
vt 0.5362129 0.955202
vt 0.5918415 0.9701589
vt 0.5 0.921875
vt 0.5 0.8958333
vt 0.5688811 0.9385567
vt 0.6264089 0.9355915
vt 0.5 0.921875
vt 0.5 0.8828125
vt 0.5 0.84375
vt 0.5948067 0.9126311
vt 0.6486026 0.8920339
vt 0.524142 0.9180513
vt 0.5 0.8958333
vt 0.5 0.84375
vt 0.5 0.7916666
vt 0.6114519 0.8799629
vt 0.65625 0.84375
vt 0.5459207 0.9069545
vt 0.5 0.8828125
vt 0.5 0.8697916
vt 0.5 0.8046874
vt 0.5 0.7395833
vt 0.6171875 0.84375
vt 0.6486027 0.7954661
vt 0.512071 0.8809006
vt 0.5 0.8697916
vt 0.5 0.84375
vt 0.5 0.7656249
vt 0.5 0.6874999
vt 0.5 0.8375
vt 0.5229604 0.8753523
vt 0.5 0.8375
vt 0.5316022 0.8667104
vt 0.5371506 0.855821
vt 0.5 0.8567708
vt 0.5 0.8375
vt 0.5632045 0.8896707
vt 0.5 0.84375
vt 0.5 0.8375
vt 0.5743013 0.867892
vt 0.5 0.8177083
vt 0.5 0.8307291
vt 0.5 0.8375
vt 0.578125 0.84375
vt 0.5 0.7916666
vt 0.5 0.8177083
vt 0.5 0.8375
vt 0.5 0.7265624
vt 0.5 0.8046875
vt 0.5 0.8375
vt 0.5 0.7656249
vt 0.5362129 0.732298
vt 0.5482839 0.6951473
vt 0.512071 0.8065993
vt 0.524142 0.7694486
vt 0.5688812 0.7489433
vt 0.5918415 0.717341
vt 0.5229604 0.8121477
vt 0.5459207 0.7805455
vt 0.5316023 0.8207896
vt 0.5371507 0.831679
vt 0.5390625 0.84375
vt 0.5632045 0.7978293
vt 0.5948067 0.7748688
vt 0.626409 0.7519085
vt 0.5743014 0.819608
vt 0.611452 0.8075371
vt 0.6486027 0.7954661
vt 0.578125 0.84375
vt 0.6171875 0.84375
vt 0.65625 0.84375
vt 0.5371506 0.855821
vt 0.6114519 0.8799629
vt 0.6486026 0.8920339
vt 0.5743013 0.867892
vt 0.5948067 0.9126311
vt 0.6264089 0.9355915
vt 0.5316022 0.8667104
vt 0.5632045 0.8896707
vt 0.5688811 0.9385567
vt 0.5918415 0.9701589
vt 0.5229604 0.8753523
vt 0.5459207 0.9069545
vt 0.5362129 0.955202
vt 0.5482839 0.9923526
vt 0.512071 0.8809006
vt 0.524142 0.9180513
vt 0.5 0.9609375
vt 0.5 1
vt 0.5 0.9479166
vt 0.5 0.8828125
vt 0.5 0.921875
vt 0.5 0.921875
vt 0.5 0.8958333
vt 0.5 0.8697916
vt 0.5 0.8375
vt 0.5 0.8958333
vt 0.5 0.8828124
vt 0.5 0.84375
vt 0.5 0.8567708
vt 0.5 0.8375
vt 0.5 0.8697916
vt 0.5 0.8437499
vt 0.5 0.7916666
vt 0.5 0.84375
vt 0.5 0.8375
vt 0.5 0.84375
vt 0.5 0.8046874
vt 0.5 0.7395833
vt 0.5 0.8307291
vt 0.5 0.8375
vt 0.5 0.8177083
vt 0.5 0.7656249
vt 0.5 0.6874999
vt 0.5 0.8177083
vt 0.5 0.8375
vt 0.5 0.7916666
vt 0.5 0.7265624
vt 0.5 0.8046875
vt 0.5 0.7656249
vt 0.5362129 0.732298
vt 0.5482839 0.6951473
vt 0.512071 0.8065993
vt 0.524142 0.7694486
vt 0.5688812 0.7489433
vt 0.5918415 0.717341
vt 0.5229604 0.8121477
vt 0.5459207 0.7805455
vt 0.5948067 0.7748688
vt 0.626409 0.7519085
vt 0.5316023 0.8207896
vt 0.5632045 0.7978293
vt 0.611452 0.8075371
vt 0.5743014 0.819608
vt 0.5371507 0.831679
vt 0.5390625 0.84375
vn 0 1 0
vn 0.009624116 0.9298647 0.3677756
vn 0 1 0
vn 0 1 0
vn -0.08740589 0.9341187 0.3460961
vn 0 1 0
vn 0.06748893 0.9142545 0.3994795
vn 0 1 0
vn -0.1618972 0.9283811 0.3345112
vn 0 1 0
vn 0.01630651 0.8783431 0.4777526
vn 0.08603633 0.9009153 0.4253816
vn 0 1 0
vn -0.2205929 0.9335028 0.282686
vn 0 1 0
vn -0.1055014 0.8636772 0.4928806
vn 0.06752853 0.8744314 0.4804263
vn -0.002265399 0.8920565 0.4519182
vn 0 1 0
vn -0.2635584 0.9498262 0.1684252
vn 0 1 0
vn -0.20988 0.859054 0.4668796
vn 0.03550855 0.8452729 0.5331538
vn 0.1014809 0.8662077 0.4892708
vn -0.1539345 0.8674423 0.4731258
vn 0 1 0
vn -0.2787564 0.9603618 0
vn 0 1 0
vn -0.07171338 0.8545766 0.5143501
vn 0.06167832 0.8417201 0.5363795
vn 0.002291949 0.8441592 0.5360876
vn -0.1345545 0.8875881 0.4405479
vn 0 1 0
vn 0.04325901 0.9989506 0.01504628
vn -0.1795787 0.8661567 0.4663948
vn 0.07542327 0.7724303 0.630605
vn -0.2692377 0.8889505 0.3705106
vn -0.3360704 0.9173914 0.2131895
vn 0.09490471 0.8463339 0.5241297
vn 0.1054779 0.7837368 0.6120712
vn -0.2955698 0.8727579 0.3884998
vn -0.009922868 0.8076545 0.5895726
vn 0.0342143 0.7688099 0.6385614
vn -0.3637138 0.9014718 0.2346508
vn -0.1712956 0.8012654 0.5732639
vn -0.1449534 0.7622144 0.6308865
vn -0.1399306 0.6992784 0.70102
vn -0.3935527 0.919302 0
vn -0.1368523 0.8330838 0.5359505
vn -0.05714942 0.8420291 0.5363961
vn -0.05625318 0.7937728 0.6056074
vn -0.03595801 0.9153329 0.4010896
vn 0.008501169 0.8841772 0.4670742
vn 0.07662798 0.9970585 0.001596919
vn -0.03804473 0.8605701 0.5079092
vn 0.09294838 0.921643 0.3767425
vn 0 1 0
vn 0.07277499 0.916293 0.3938413
vn 0.1073171 0.8683494 0.4842027
vn 0.1716602 0.9181485 0.3571221
vn 0 1 0
vn 0.1509407 0.9265056 0.34468
vn 0.201579 0.8734379 0.4432517
vn 0.2062924 0.9408597 0.2687498
vn 0.2468432 0.9570271 0.1522085
vn 0.2627169 0.964873 0
vn 0.2682246 0.8910576 0.3661582
vn 0.2240989 0.9280242 0.2975748
vn 0 1 0
vn 0.322052 0.9202822 0.2221781
vn 0.2607856 0.9493412 0.1753341
vn 0 1 0
vn 0.3467971 0.9379401 0
vn 0.2735436 0.9618596 0
vn 0 1 0
vn 0.2464925 0.9567021 -0.1547981
vn 0.2602045 0.9494327 -0.1757022
vn 0 1 0
vn 0.3211116 0.9201106 -0.2242403
vn 0.2128232 0.9297269 -0.3005232
vn 0 1 0
vn 0.1983832 0.9360673 -0.2905549
vn 0.2539923 0.8872688 -0.3850222
vn 0.1380678 0.9184802 -0.3705827
vn 0 1 0
vn 0.1317168 0.9115681 -0.3894795
vn 0.1624815 0.8608994 -0.4821328
vn 0.05062862 0.9135821 -0.4034904
vn 0 1 0
vn 0.05989652 0.8947232 -0.4425864
vn 0.06404206 0.8465764 -0.5284003
vn -0.0241761 0.8956054 -0.4441918
vn 0 1 0
vn 0 1 0
vn 0.03808234 0.8662046 -0.4982362
vn -0.0101374 0.8319446 -0.5547661
vn -0.01198509 0.8875303 -0.4605935
vn 0 1 0
vn 0.007886662 0.8478684 -0.5301481
vn 0.0210789 0.8451333 -0.5341398
vn -0.01927007 0.8273036 -0.5614244
vn 0.03643595 0.9102539 -0.4124442
vn 0 1 0
vn -0.06315972 0.8496371 -0.523572
vn -0.06732678 0.8285388 -0.5558692
vn -0.004440862 0.8592697 -0.5115037
vn 0.001317731 0.9294012 -0.3690686
vn 0 1 0
vn -0.006691151 0.8739837 -0.485909
vn -0.03621553 0.8407239 -0.5402516
vn -0.0006955297 0.8875609 -0.4606898
vn -0.04283753 0.9142058 -0.4029799
vn 0 1 0
vn 0.02375145 0.8442266 -0.5354598
vn 0.04927082 0.8120976 -0.5814376
vn -0.02104274 0.8760823 -0.4817024
vn -0.00930516 0.9068812 -0.4212838
vn 0 1 0
vn 0.02451196 0.8048766 -0.5929358
vn 0.03293069 0.7654979 -0.6425951
vn -0.002134069 0.8536097 -0.5209086
vn 0.01620635 0.9193125 -0.3931946
vn 0.0447814 0.796277 -0.6032724
vn 0.03194382 0.8444898 -0.5346183
vn -0.03365984 0.9307372 -0.3641364
vn 0 1 0
vn -0.02562551 0.8171217 -0.5758951
vn -0.0420345 0.8369366 -0.5456833
vn -0.1255867 0.9297881 -0.3460088
vn 0 1 0
vn -0.155521 0.8461671 -0.50972
vn -0.1706253 0.8441408 -0.5082453
vn -0.2090982 0.9352697 -0.2855671
vn 0 1 0
vn -0.2627269 0.8834915 -0.3878368
vn -0.2828251 0.8693538 -0.4052578
vn -0.2631941 0.9498959 -0.1686022
vn -0.3630771 0.9014743 -0.2356248
vn -0.3359601 0.917129 -0.2144885
vn -0.3626278 0.9319341 0
g valley_ramp01_COL_0
f 3/3/3 2/2/2 1/1/1
f 3/3/3 4/4/4 2/2/2
f 2/2/2 5/5/5 1/1/1
f 1/1/1 5/5/5 6/6/6
f 4/4/4 7/7/7 2/2/2
f 4/4/4 8/8/8 7/7/7
f 5/5/5 9/9/9 6/6/6
f 6/6/6 9/9/9 10/10/10
f 2/2/2 11/11/11 5/5/5
f 2/2/2 7/7/7 11/11/11
f 8/8/8 12/12/12 7/7/7
f 8/8/8 13/13/13 12/12/12
f 9/9/9 14/14/14 10/10/10
f 10/10/10 14/14/14 15/15/15
f 5/5/5 16/16/16 9/9/9
f 11/11/11 16/16/16 5/5/5
f 7/7/7 17/17/17 11/11/11
f 7/7/7 12/12/12 17/17/17
f 13/13/13 18/18/18 12/12/12
f 13/13/13 19/19/19 18/18/18
f 14/14/14 20/20/20 15/15/15
f 15/15/15 20/20/20 21/21/21
f 9/9/9 22/22/22 14/14/14
f 16/16/16 22/22/22 9/9/9
f 11/11/11 23/23/23 16/16/16
f 11/11/11 17/17/17 23/23/23
f 12/12/12 24/24/24 17/17/17
f 12/12/12 18/18/18 24/24/24
f 19/19/19 25/25/25 18/18/18
f 19/19/19 26/26/26 25/25/25
f 20/20/20 27/27/27 21/21/21
f 21/21/21 27/27/27 28/28/28
f 16/16/16 29/29/29 22/22/22
f 23/23/23 29/29/29 16/16/16
f 17/17/17 30/30/30 23/23/23
f 17/17/17 24/24/24 30/30/30
f 18/18/18 31/31/31 24/24/24
f 18/18/18 25/25/25 31/31/31
f 26/26/26 32/32/32 25/25/25
f 26/26/26 33/33/33 32/32/32
f 23/23/23 34/34/34 29/29/29
f 23/23/23 30/30/30 34/34/34
f 29/29/29 35/35/35 22/22/22
f 29/29/29 34/34/34 35/35/35
f 30/30/30 36/36/36 34/34/34
f 35/35/35 34/34/34 37/37/37
f 37/37/37 34/34/34 38/38/38
f 24/24/24 39/39/39 30/30/30
f 30/30/30 39/39/39 36/36/36
f 39/39/39 40/40/40 36/36/36
f 24/24/24 31/31/31 39/39/39
f 22/22/22 35/35/35 41/41/41
f 35/35/35 37/37/37 41/41/41
f 22/22/22 41/41/41 14/14/14
f 14/14/14 41/41/41 20/20/20
f 39/39/39 42/42/42 40/40/40
f 31/31/31 42/42/42 39/39/39
f 42/42/42 43/43/43 40/40/40
f 41/41/41 37/37/37 44/44/44
f 41/41/41 44/44/44 20/20/20
f 37/37/37 38/38/38 44/44/44
f 20/20/20 44/44/44 27/27/27
f 31/31/31 45/45/45 42/42/42
f 25/25/25 45/45/45 31/31/31
f 25/25/25 32/32/32 45/45/45
f 42/42/42 46/46/46 43/43/43
f 45/45/45 46/46/46 42/42/42
f 46/46/46 47/47/47 43/43/43
f 44/44/44 38/38/38 48/48/48
f 44/44/44 48/48/48 27/27/27
f 32/32/32 49/49/49 45/45/45
f 45/45/45 49/49/49 46/46/46
f 46/46/46 50/50/50 47/47/47
f 49/49/49 50/50/50 46/46/46
f 50/50/50 51/51/51 47/47/47
f 32/32/32 52/52/52 49/49/49
f 33/33/33 52/52/52 32/32/32
f 50/50/50 53/53/53 51/51/51
f 53/53/53 54/54/54 51/51/51
f 49/49/49 55/55/55 50/50/50
f 55/55/55 53/53/53 50/50/50
f 52/52/52 55/55/55 49/49/49
f 56/56/56 52/52/52 33/33/33
f 57/57/57 56/56/56 33/33/33
f 58/58/58 53/53/53 55/55/55
f 58/58/58 54/54/54 53/53/53
f 59/59/59 55/55/55 52/52/52
f 59/59/59 58/58/58 55/55/55
f 56/56/56 59/59/59 52/52/52
f 60/60/60 56/56/56 57/57/57
f 61/61/61 60/60/60 57/57/57
f 62/62/62 54/54/54 58/58/58
f 62/62/62 58/58/58 59/59/59
f 63/63/63 59/59/59 56/56/56
f 63/63/63 62/62/62 59/59/59
f 60/60/60 63/63/63 56/56/56
f 64/64/64 54/54/54 62/62/62
f 64/64/64 62/62/62 63/63/63
f 65/65/65 54/54/54 64/64/64
f 66/66/66 54/54/54 65/65/65
f 67/67/67 64/64/64 63/63/63
f 67/67/67 63/63/63 60/60/60
f 65/65/65 64/64/64 67/67/67
f 68/68/68 60/60/60 61/61/61
f 68/68/68 67/67/67 60/60/60
f 69/69/69 68/68/68 61/61/61
f 70/70/70 65/65/65 67/67/67
f 70/70/70 67/67/67 68/68/68
f 66/66/66 65/65/65 70/70/70
f 71/71/71 68/68/68 69/69/69
f 71/71/71 70/70/70 68/68/68
f 72/72/72 71/71/71 69/69/69
f 73/73/73 66/66/66 70/70/70
f 73/73/73 70/70/70 71/71/71
f 74/74/74 71/71/71 72/72/72
f 74/74/74 73/73/73 71/71/71
f 75/75/75 74/74/74 72/72/72
f 76/76/76 66/66/66 73/73/73
f 76/76/76 54/54/54 66/66/66
f 77/77/77 74/74/74 75/75/75
f 78/78/78 77/77/77 75/75/75
f 79/79/79 73/73/73 74/74/74
f 79/79/79 76/76/76 73/73/73
f 77/77/77 79/79/79 74/74/74
f 80/80/80 77/77/77 78/78/78
f 81/81/81 80/80/80 78/78/78
f 82/82/82 76/76/76 79/79/79
f 82/82/82 54/54/54 76/76/76
f 83/83/83 79/79/79 77/77/77
f 83/83/83 82/82/82 79/79/79
f 80/80/80 83/83/83 77/77/77
f 84/84/84 80/80/80 81/81/81
f 85/85/85 84/84/84 81/81/81
f 86/86/86 82/82/82 83/83/83
f 86/86/86 54/54/54 82/82/82
f 87/87/87 83/83/83 80/80/80
f 87/87/87 86/86/86 83/83/83
f 84/84/84 87/87/87 80/80/80
f 88/88/88 84/84/84 85/85/85
f 89/89/89 88/88/88 85/85/85
f 90/90/90 86/86/86 87/87/87
f 90/90/90 54/54/54 86/86/86
f 91/91/91 87/87/87 84/84/84
f 91/91/91 90/90/90 87/87/87
f 88/88/88 91/91/91 84/84/84
f 92/92/92 88/88/88 89/89/89
f 93/93/93 92/92/92 89/89/89
f 92/92/92 93/93/93 94/94/94
f 95/95/95 54/54/54 90/90/90
f 95/95/95 90/90/90 91/91/91
f 96/96/96 91/91/91 88/88/88
f 92/92/92 96/96/96 88/88/88
f 96/96/96 95/95/95 91/91/91
f 97/97/97 92/92/92 94/94/94
f 96/96/96 92/92/92 97/97/97
f 97/97/97 94/94/94 98/98/98
f 54/54/54 95/95/95 99/99/99
f 100/100/100 54/54/54 99/99/99
f 95/95/95 96/96/96 101/101/101
f 101/101/101 96/96/96 97/97/97
f 99/99/99 95/95/95 101/101/101
f 102/102/102 97/97/97 98/98/98
f 101/101/101 97/97/97 102/102/102
f 102/102/102 98/98/98 103/103/103
f 100/100/100 99/99/99 104/104/104
f 105/105/105 100/100/100 104/104/104
f 99/99/99 101/101/101 106/106/106
f 106/106/106 101/101/101 102/102/102
f 104/104/104 99/99/99 106/106/106
f 107/107/107 102/102/102 103/103/103
f 106/106/106 102/102/102 107/107/107
f 107/107/107 103/103/103 108/108/108
f 105/105/105 104/104/104 109/109/109
f 110/110/110 105/105/105 109/109/109
f 104/104/104 106/106/106 111/111/111
f 111/111/111 106/106/106 107/107/107
f 109/109/109 104/104/104 111/111/111
f 112/112/112 107/107/107 108/108/108
f 111/111/111 107/107/107 112/112/112
f 112/112/112 108/108/108 113/113/113
f 110/110/110 109/109/109 114/114/114
f 115/115/115 110/110/110 114/114/114
f 109/109/109 111/111/111 116/116/116
f 116/116/116 111/111/111 112/112/112
f 114/114/114 109/109/109 116/116/116
f 117/117/117 112/112/112 113/113/113
f 116/116/116 112/112/112 117/117/117
f 117/117/117 113/113/113 118/118/118
f 115/115/115 114/114/114 119/119/119
f 120/120/120 115/115/115 119/119/119
f 114/114/114 116/116/116 121/121/121
f 121/121/121 116/116/116 117/117/117
f 119/119/119 114/114/114 121/121/121
f 122/122/122 117/117/117 118/118/118
f 121/121/121 117/117/117 122/122/122
f 120/120/120 119/119/119 123/123/123
f 34/34/34 120/120/120 123/123/123
f 119/119/119 121/121/121 124/124/124
f 123/123/123 119/119/119 124/124/124
f 124/124/124 121/121/121 122/122/122
f 125/125/125 122/122/122 118/118/118
f 126/126/126 125/125/125 118/118/118
f 127/127/127 123/123/123 124/124/124
f 127/127/127 34/34/34 123/123/123
f 128/128/128 124/124/124 122/122/122
f 128/128/128 127/127/127 124/124/124
f 125/125/125 128/128/128 122/122/122
f 129/129/129 125/125/125 126/126/126
f 130/130/130 129/129/129 126/126/126
f 131/131/131 127/127/127 128/128/128
f 131/131/131 34/34/34 127/127/127
f 132/132/132 128/128/128 125/125/125
f 132/132/132 131/131/131 128/128/128
f 129/129/129 132/132/132 125/125/125
f 133/133/133 129/129/129 130/130/130
f 134/134/134 133/133/133 130/130/130
f 135/135/135 131/131/131 132/132/132
f 135/135/135 34/34/34 131/131/131
f 136/136/136 132/132/132 129/129/129
f 136/136/136 135/135/135 132/132/132
f 133/133/133 136/136/136 129/129/129
f 137/137/137 133/133/133 134/134/134
f 28/28/28 137/137/137 134/134/134
f 27/27/27 137/137/137 28/28/28
f 27/27/27 48/48/48 137/137/137
f 137/137/137 138/138/138 133/133/133
f 138/138/138 136/136/136 133/133/133
f 48/48/48 138/138/138 137/137/137
f 139/139/139 135/135/135 136/136/136
f 139/139/139 34/34/34 135/135/135
f 138/138/138 139/139/139 136/136/136
f 48/48/48 140/140/140 138/138/138
f 140/140/140 139/139/139 138/138/138
f 140/140/140 34/34/34 139/139/139
f 38/38/38 140/140/140 48/48/48
f 38/38/38 34/34/34 140/140/140
