g valley_cord_x5
v 9.835063E-09 0.07499999 -4.805877
v 9.835063E-09 -0.2200201 -3.488806
v -0.075 -0.292051 -3.508717
v -0.075 0 -4.805877
v 0.075 0 -4.805877
v -3.278354E-09 -0.3639218 -3.529181
v -3.278354E-09 -0.07499999 -4.805875
v 0.075 -0.292051 -3.508717
v -0.075 -0.4248037 -2.522492
v -3.278354E-09 -0.4997986 -2.521616
v 0.075 -0.4248036 -2.522492
v 9.835063E-09 -0.3498088 -2.523369
v -3.278354E-09 -0.4909698 -1.766112
v 0.075 -0.4159747 -1.766989
v -0.075 -0.4159747 -1.766989
v 9.835063E-09 -0.3409799 -1.767865
v -3.278354E-09 -0.3394212 -0.9545763
v 0.075 -0.2669074 -0.9718797
v -0.075 -0.2669074 -0.9718797
v 9.835063E-09 -0.1944372 -0.9891803
v -3.278354E-09 -0.1061493 -0.1720623
v -0.075 -0.03401167 -0.1925845
v 0.075 -0.03401167 -0.1925845
v 9.835063E-09 0.03812598 -0.2131067
v 9.835063E-09 0.03812598 -0.2131067
v -2.328306E-09 0.05530617 -0.1984478
v -0.08751339 -0.02886728 -0.1745015
v -0.075 -0.03401167 -0.1925845
v 0.075 -0.03401167 -0.1925845
v -1.536682E-08 -0.1130408 -0.1505553
v -3.278354E-09 -0.1061493 -0.1720623
v 0.08751336 -0.02886728 -0.1745015
v -0.08944917 0.02277893 0.007040318
v 7.813737E-08 -0.06325642 0.03151622
v 0.0894492 0.02277893 0.007040318
v -4.121916E-09 0.1088143 -0.01743561
v 8.434936E-08 0.03401167 0.04652453
v -0.075 0 -4.805877
v -0.08751337 0 -4.824346
v 1.071021E-08 0.08751339 -4.824346
v 9.835063E-09 0.07499999 -4.805877
v -3.278354E-09 -0.07499999 -4.805875
v 0.08751337 0 -4.824346
v 0.075 0 -4.805877
v -3.72529E-09 -0.08751339 -4.824348
v 2.224127E-08 0.08944917 -5.009958
v 0.0894492 0 -5.009958
v -0.08944917 0 -5.009958
v 1.042108E-07 -0.08944923 -5.009958
v 1.031704E-07 0 -5.051008
vt 0.25 0.65
vt 0.25 0.65
vt 0.25 0.65
vt 0.25 0.65
vt 0.25 0.65
vt 0.25 0.65
vt 0.25 0.65
vt 0.25 0.65
vt 0.25 0.65
vt 0.25 0.65
vt 0.25 0.65
vt 0.25 0.65
vt 0.25 0.65
vt 0.25 0.65
vt 0.25 0.65
vt 0.25 0.65
vt 0.25 0.65
vt 0.25 0.65
vt 0.25 0.65
vt 0.25 0.65
vt 0.25 0.65
vt 0.25 0.65
vt 0.25 0.65
vt 0.25 0.65
vt 0.25 0.35
vt 0.25 0.35
vt 0.25 0.35
vt 0.25 0.35
vt 0.25 0.35
vt 0.25 0.35
vt 0.25 0.35
vt 0.25 0.35
vt 0.25 0.35
vt 0.25 0.35
vt 0.25 0.35
vt 0.25 0.35
vt 0.25 0.35
vt 0.25 0.35
vt 0.25 0.35
vt 0.25 0.35
vt 0.25 0.35
vt 0.25 0.35
vt 0.25 0.35
vt 0.25 0.35
vt 0.25 0.35
vt 0.25 0.35
vt 0.25 0.35
vt 0.25 0.35
vt 0.25 0.35
vt 0.25 0.35
vn 0 0.9757001 0.2191104
vn 0 0.983443 0.1812178
vn -0.9999027 -0.01393094 -0.0006513421
vn -0.9941702 0.1053102 0.0231422
vn 0.9941702 0.1053097 0.02314209
vn 0 -0.9827788 -0.1847856
vn 0 -0.9754589 -0.2201815
vn 0.9999027 -0.01393143 -0.0006514282
vn -0.9990544 -0.04308268 -0.005860038
vn 0 -0.9976166 -0.0690005
vn 0.9990544 -0.04308276 -0.005860028
vn 0 0.9973471 0.07279232
vn 0 -0.9951797 0.09806868
vn 0.9989496 -0.04507127 0.008264355
vn -0.9989496 -0.04507099 0.008264325
vn 0 0.9945467 -0.1042935
vn 0 -0.9719598 0.235147
vn 0.9995545 -0.0291178 0.006559005
vn -0.9995545 -0.02911753 0.006558961
vn 0 0.9716501 -0.2364235
vn 0 -0.9582265 0.2860106
vn -0.9999919 0.003746287 -0.001494955
vn 0.9999919 0.003746013 -0.001494906
vn 0 0.9580213 -0.286697
vn 0 0.6490814 -0.7607191
vn 0 0.9463862 -0.3230376
vn -0.9986601 -0.01416038 -0.04977465
vn -0.8324642 -0.151612 -0.5329326
vn 0.8324648 -0.1516121 -0.5329316
vn 0 -0.9747066 0.2234879
vn 0 -0.9523059 -0.3051452
vn 0.9986601 -0.01416015 -0.04977506
vn -0.9933015 0.03161798 0.1111415
vn 0 -0.9237742 0.3829375
vn 0.9933016 0.03161824 0.1111408
vn 0 0.9870106 -0.1606553
vn 0 0.2736293 0.9618352
vn -0.8278863 -4.647651E-05 0.5608959
vn -0.9986238 0 0.05244438
vn 0 0.9986238 0.05244402
vn 0 0.8278724 0.5609165
vn 0 -0.8278993 0.5608768
vn 0.9986238 0 0.05244476
vn 0.8278863 -4.585985E-05 0.5608959
vn 0 -0.9986237 0.05244528
vn 0 0.9930881 -0.1173711
vn 0.9930881 0 -0.1173712
vn -0.9930881 0 -0.1173718
vn 0 -0.9930881 -0.1173716
vn 0 0 -1
g valley_cord_x5_0
f 3/3/3 2/2/2 1/1/1
f 4/4/4 3/3/3 1/1/1
f 1/1/1 2/2/2 5/5/5
f 6/6/6 3/3/3 4/4/4
f 7/7/7 6/6/6 4/4/4
f 5/5/5 8/8/8 7/7/7
f 2/2/2 8/8/8 5/5/5
f 8/8/8 6/6/6 7/7/7
f 3/3/3 9/9/9 2/2/2
f 6/6/6 10/10/10 3/3/3
f 10/10/10 9/9/9 3/3/3
f 8/8/8 11/11/11 6/6/6
f 11/11/11 10/10/10 6/6/6
f 2/2/2 12/12/12 8/8/8
f 9/9/9 12/12/12 2/2/2
f 12/12/12 11/11/11 8/8/8
f 10/10/10 13/13/13 9/9/9
f 11/11/11 14/14/14 10/10/10
f 14/14/14 13/13/13 10/10/10
f 9/9/9 15/15/15 12/12/12
f 13/13/13 15/15/15 9/9/9
f 12/12/12 16/16/16 11/11/11
f 16/16/16 14/14/14 11/11/11
f 15/15/15 16/16/16 12/12/12
f 13/13/13 17/17/17 15/15/15
f 14/14/14 18/18/18 13/13/13
f 18/18/18 17/17/17 13/13/13
f 15/15/15 19/19/19 16/16/16
f 17/17/17 19/19/19 15/15/15
f 16/16/16 20/20/20 14/14/14
f 20/20/20 18/18/18 14/14/14
f 19/19/19 20/20/20 16/16/16
f 17/17/17 21/21/21 19/19/19
f 21/21/21 22/22/22 19/19/19
f 19/19/19 22/22/22 20/20/20
f 23/23/23 21/21/21 17/17/17
f 18/18/18 23/23/23 17/17/17
f 22/22/22 24/24/24 20/20/20
f 24/24/24 23/23/23 18/18/18
f 20/20/20 24/24/24 18/18/18
f 27/27/27 26/26/26 25/25/25
f 28/28/28 27/27/27 25/25/25
f 25/25/25 26/26/26 29/29/29
f 30/30/30 27/27/27 28/28/28
f 31/31/31 30/30/30 28/28/28
f 29/29/29 32/32/32 31/31/31
f 26/26/26 32/32/32 29/29/29
f 32/32/32 30/30/30 31/31/31
f 27/27/27 33/33/33 26/26/26
f 30/30/30 34/34/34 27/27/27
f 34/34/34 33/33/33 27/27/27
f 32/32/32 35/35/35 30/30/30
f 35/35/35 34/34/34 30/30/30
f 26/26/26 36/36/36 32/32/32
f 33/33/33 36/36/36 26/26/26
f 36/36/36 35/35/35 32/32/32
f 34/34/34 37/37/37 33/33/33
f 35/35/35 37/37/37 34/34/34
f 33/33/33 37/37/37 36/36/36
f 36/36/36 37/37/37 35/35/35
f 40/40/40 39/39/39 38/38/38
f 41/41/41 40/40/40 38/38/38
f 38/38/38 39/39/39 42/42/42
f 43/43/43 40/40/40 41/41/41
f 44/44/44 43/43/43 41/41/41
f 42/42/42 45/45/45 44/44/44
f 39/39/39 45/45/45 42/42/42
f 45/45/45 43/43/43 44/44/44
f 39/39/39 40/40/40 46/46/46
f 40/40/40 43/43/43 47/47/47
f 46/46/46 40/40/40 47/47/47
f 45/45/45 39/39/39 48/48/48
f 48/48/48 39/39/39 46/46/46
f 43/43/43 45/45/45 49/49/49
f 47/47/47 43/43/43 49/49/49
f 49/49/49 45/45/45 48/48/48
f 46/46/46 50/50/50 48/48/48
f 47/47/47 50/50/50 46/46/46
f 48/48/48 50/50/50 49/49/49
f 49/49/49 50/50/50 47/47/47
