g valley_ramp02
v -3.19463 -7.448773E-09 3.06506
v -3.4146 -1.154482E-14 3.404781
v -3.834316 -2.980233E-08 3.344803
v -4.027538 0.130057 2.75367
v -4.232912 -1.796321E-08 3.12603
v -4.317754 0.2851641 2.457584
v -4.572018 -1.490117E-08 2.890362
v -5.152552 -1.490117E-08 2.779022
v -4.69883 0.7445594 1.867953
v -5.329859 0.5227641 2.124622
v -5.706591 0.3582503 2.386356
v -5.49758 -1.490026E-08 3.324207
v -5.623199 -1.490026E-08 3.349155
v -5.824841 0.3516673 2.40226
v -6.039608 -1.490208E-08 3.064484
v -6.279797 -2.980233E-08 2.627853
v -6.540824 0.1869238 2.121223
v -6.666889 -1.490026E-08 2.462833
v -6.919584 -4.470349E-08 2.215588
v -7.212357 -2.980142E-08 1.918568
v -7.065256 0.201166 1.465654
v -7.659069 -4.191135E-08 1.796734
v -7.683603 -4.470349E-08 1.668491
v -7.450169 -4.470349E-08 1.370514
v -7.428932 -1.489935E-08 0.9434319
v -5.801678 0.4028321 2.265732
v -6.170891 0.3990452 1.240208
v -5.370935 0.5625758 2.008488
v -7.451214 0.1364262 0.3532639
v -7.657753 -2.980188E-08 0.4595871
v -8.102404 -5.960466E-08 0.3055573
v -8.086647 -5.215407E-08 -0.3165016
v -6.479099 0.5946525 0.5770683
v -6.878464 0.1788377 -0.3015366
v -7.601645 -4.470258E-08 -0.5629044
v -7.007364 -1.154482E-14 -0.860302
v -5.453371 0.9433686 0.8253365
v -6.106424 0.7348949 -0.1192398
v -6.210585 0.3714223 -0.8132248
v -6.280178 0.1966515 -1.460777
v -6.922951 -4.470349E-08 -1.650887
v -6.426668 -4.470304E-08 -1.745953
v -5.983618 -5.96042E-08 -1.96521
v -5.491434 0.1906161 -2.123329
v -5.765408 -1.490026E-08 -2.174351
v -5.337639 0.3796929 -1.207245
v -4.786991 0.7059915 -0.9466476
v -5.345741 0.08721158 -2.410137
v -4.057831 0.4799042 -1.322727
v -5.151747 -5.96042E-08 -2.588974
v -4.395399 -5.960466E-08 -2.421539
v -5.424468 0.9904522 -0.04241943
v -5.291086 1.061763 0.08385277
v -3.673506 0.1279484 -1.817513
v -4.041016 -2.980279E-08 -2.729061
v -3.691858 -1.490117E-08 -2.809067
v -3.536594 -2.980188E-08 -2.640461
v -3.000418 0.3769423 -1.679825
v -3.461071 0.9728509 -0.6839924
v -2.731041 -1.490117E-08 -2.580296
v -2.115456 0.153913 -2.156132
v -2.371426 -2.980188E-08 -2.417503
v -1.990528 -2.980233E-08 -2.408783
v -1.547882 -4.470349E-08 -2.610226
v -4.976822 1.226865 0.7088547
v -4.056707 1.177709 0.7375832
v -4.5905 1.46379 0.1818523
v -2.558453 0.524902 -1.379974
v -3.814642 0.6689917 1.617981
v -5.255445 1.044854 -0.03680038
v -3.666712 0.1635053 2.152985
v -3.534134 0.05611774 2.450993
v -2.108871 0.1332842 2.188507
v -2.518669 -1.490117E-08 2.933746
v -2.12619 -2.980233E-08 2.581577
v -1.593369 -2.980324E-08 2.071022
v -2.777008 0.2399911 1.814716
v -4.561371 1.484915 0.06731796
v -4.586233 1.004334 -0.5314846
v -4.208801 1.646116 0.09437561
v -4.224348 1.668047 -0.04673386
v -4.128868 0.8094381 -0.7005596
v -4.014933 0.7640061 -0.7578468
v -4.022978 0.8503913 -0.6601524
v -4.164291 1.599047 -0.1776352
v -3.32872 1.618708 0.1998634
v -2.993467 1.62641 -0.275032
v -3.050457 1.689348 -0.08180618
v -3.287434 1.689839 0.08987045
v -3.164448 1.636688 0.1510048
v -3.358264 1.376438 0.6041775
v -3.171848 1.115462 0.8525887
v -2.645683 0.7405438 1.12785
v -2.337508 1.083818 0.2432243
v -1.517431 0.9809576 0.3881563
v -1.487595 0.4896521 1.305424
v -2.663158 1.614007 -0.09215164
v -1.449787 0.40353 1.437187
v -1.356558 0.4662454 1.312748
v -0.5566101 0.4070974 0.8955841
v -0.728405 0.2549491 1.58372
v -0.2677765 -2.286016E-08 2.030499
v -0.1522217 -2.399521E-08 1.958935
v -0.002407074 -3.725109E-08 1.405769
v 0.3008194 -5.960284E-08 1.117325
v -2.672628 1.663185 -0.2410955
v 0.3579254 0.1779298 0.7696533
v 0.6412926 -4.470349E-08 1.300117
v 1.038521 0.4545411 0.7236748
v 1.138496 -4.470258E-08 1.557869
v -0.09133148 0.7069085 0.431263
v -0.4919548 1.337147 -0.2962608
v -2.267414 1.670316 -0.264019
v -0.9391212 1.689297 -0.378788
v -2.275242 1.714318 -0.4009981
v -2.62006 1.587665 -0.4196281
v -2.228607 1.65387 -0.5335007
v -3.000162 1.046121 -0.6187782
v -0.9473833 1.79955 -0.4917221
v -0.2628288 2.000719 -0.6124725
v -2.001098 0.7790765 -1.177933
v -1.442562 0.4022777 -2.018761
v -0.9103394 0.2542424 -2.53635
v -1.099354 -1.490117E-08 -2.987846
v -0.3749847 -4.470304E-08 -2.760445
v -0.340126 0.607626 -1.735634
v 0.1107368 0.3546728 -2.074173
v 0.1492844 -1.490026E-08 -2.515987
v 0.8157272 -1.490117E-08 -2.426605
v -0.3197517 1.070093 -1.225925
v 0.2278824 0.8393317 -1.406689
v 1.113098 1.591074 -0.9535789
v 0.7706008 0.432082 -1.937325
v -0.9758072 1.781944 -0.6462822
v -0.2072372 2.000781 -0.717495
v 0.107338 2.014028 -0.5591736
v 1.198167 0.2016783 -2.274649
v 1.486614 0.4782608 -1.456783
v 1.30756 -2.980142E-08 -2.877712
v 2.105396 -2.980233E-08 -2.852753
v 0.760006 0.8777592 -1.42778
v 0.2831078 2.032768 -0.6686897
v 0.5915756 1.339075 -0.1232071
v 0.8630524 1.857882 -0.5533218
v 1.83337 1.246439 -1.004047
v 0.9188271 1.860598 -0.6805
v 1.835423 1.805123 -0.6547127
v 2.263302 1.049168 -1.142025
v 1.864605 1.848192 -0.5099945
v 1.895802 0.812503 0.4563751
v 2.063095 1.609098 -0.0780983
v 1.89978 0.3918737 1.204906
v 2.075539 -4.470349E-08 1.718937
v 2.918041 -1.490117E-08 1.850571
v 2.831772 0.7198744 0.4001007
v 3.033623 0.3208867 1.367939
v 3.18634 -7.450592E-09 2.0392
v 3.736534 0.1285686 1.467041
v 3.522099 -2.980233E-08 2.421196
v 4.042847 -1.490208E-08 2.464031
v 1.912483 1.700746 -0.1746178
v 3.399044 0.5439888 1.003025
v 4.111043 0.5879679 0.9263115
v 4.363262 0.245916 1.614052
v 4.845531 -7.450592E-09 2.399776
v 4.972782 0.2356906 1.341927
v 5.370148 8.979499E-13 2.175087
v 5.409256 -4.470168E-08 1.009399
v 5.258949 0.4976137 0.2561226
v 5.757668 0.2110866 0.5535698
v 6.240067 -4.470349E-08 0.7015152
v 6.420456 -5.960466E-08 0.3596115
v 6.264713 -4.470304E-08 -0.370594
v 4.978379 0.3881085 -0.5319374
v 5.782646 -2.67055E-08 -0.5185852
v 5.637341 -2.148046E-08 -0.6207466
v 5.420605 -1.490117E-08 -1.122551
v 4.742574 0.4103605 -1.141831
v 5.600372 -1.490117E-08 -1.682106
v 5.561888 0.001802555 -1.80847
v 4.801903 0.03871697 -2.065563
v 4.87125 -2.980233E-08 -2.202309
v 4.420654 -1.490117E-08 -2.774666
v 3.894978 -1.154482E-14 -2.777576
v 4.088947 0.3092687 -1.670986
v 4.210264 1.154212 -0.3396139
v 4.907024 0.6357524 -0.08501053
v 4.067058 1.330046 0.0401427
v 4.607342 0.7947814 0.08730316
v 4.239296 0.7025844 0.4720192
v 3.675882 1.165345 0.369936
v 3.560738 1.143663 0.4147434
v 3.569567 1.290848 0.3090782
v 3.049149 1.797938 -0.08490372
v 3.759338 1.759895 -0.1546707
v 2.154993 1.715607 -0.1573385
v 3.979015 1.500895 -0.2235146
v 3.920586 1.487681 -0.3369102
v 3.047141 1.851172 -0.203687
v 1.997162 1.732191 -0.2530479
v 2.1716 1.857169 -0.2880745
v 2.273167 1.782115 -0.2381363
v 2.209492 1.850131 -0.4132538
v 2.341599 1.760085 -0.3561249
v 3.048687 1.784524 -0.3227081
v 2.938393 1.04525 -1.015404
v 2.493688 0.5111267 -1.75999
v 4.000511 0.9574216 -0.9007759
v 3.306953 0.389644 -1.442421
v 3.423595 0.1874091 -1.754181
v 2.647916 0.2490315 -2.207297
v 3.00959 0.07749339 -2.865711
v 3.025688 -2.980188E-08 -2.954697
v 2.55669 -1.490117E-08 -2.990002
vn 0 1 0
vn 0 1 0
vn 0 1 0
vn 0.1374039 0.9688076 0.2062325
vn 0 1 0
vn 0.1115913 0.8376633 0.5346659
vn 0 1 0
vn 0 1 0
vn -0.03147674 0.8827114 0.4688601
vn -0.02236005 0.8166472 0.5767037
vn 0.1098301 0.8935207 0.4353828
vn 0 1 0
vn 0 1 0
vn -0.24911 0.8931592 0.3744476
vn 0 1 0
vn 0 1 0
vn -0.2757138 0.9354002 0.2213785
vn 0 1 0
vn 0 1 0
vn 0 1 0
vn -0.309054 0.9340761 0.1788499
vn 0 1 0
vn 0 1 0
vn 0 1 0
vn 0 1 0
vn -0.276848 0.9485566 0.153608
vn -0.2829571 0.9098847 0.3033896
vn -0.2494017 0.9618199 0.1126999
vn -0.3268448 0.9446362 -0.02889457
vn 0 1 0
vn 0 1 0
vn 0 1 0
vn -0.3876673 0.9183331 0.07986572
vn -0.3583573 0.9088886 -0.2133112
vn 0 1 0
vn 0 1 0
vn -0.390314 0.869658 0.3022414
vn -0.4089189 0.894938 -0.1785258
vn -0.313589 0.8869911 -0.338982
vn -0.2328139 0.9462771 -0.2244044
vn 0 1 0
vn 0 1 0
vn 0 1 0
vn -0.1141152 0.9545816 -0.2752304
vn 0 1 0
vn -0.2760307 0.9128238 -0.3009312
vn -0.1190616 0.8928245 -0.4343834
vn -0.04319436 0.9018046 -0.4299798
vn 0.01553899 0.8802392 -0.4742757
vn 0 1 0
vn 0 1 0
vn -0.2988243 0.9069884 -0.2967762
vn -0.4293267 0.9030538 0.01312509
vn -0.06487855 0.9106902 -0.4079634
vn 0 1 0
vn 0 1 0
vn 0 1 0
vn -0.05233492 0.8904981 -0.4519669
vn -0.08823084 0.7144394 -0.6941121
vn 0 1 0
vn -0.1082868 0.8721682 -0.4770709
vn 0 1 0
vn 0 1 0
vn 0 1 0
vn -0.2131103 0.9229415 0.3205664
vn 0.02213293 0.8761411 0.4815462
vn -0.2715801 0.9186149 0.2870384
vn -0.1157874 0.8053606 -0.5813671
vn 0.1901188 0.8190457 0.5413123
vn -0.2892017 0.8505728 -0.4391904
vn 0.2438585 0.819493 0.5186177
vn 0.05491728 0.9867989 0.152355
vn 0.05256198 0.9467463 0.3176612
vn 0 1 0
vn 0 1 0
vn 0 1 0
vn 0.0807078 0.8732012 0.4806308
vn -0.4728376 0.7860546 -0.3981745
vn -0.1989422 0.7397364 -0.6428157
vn -0.1235839 0.8514618 0.5096468
vn -0.2464787 0.9433681 -0.2220465
vn 0.01518151 0.7530736 -0.657761
vn -0.07826302 0.8822056 -0.4643147
vn -0.09463596 0.5509954 -0.8291249
vn -0.1116337 0.7168789 -0.6882024
vn -0.0432811 0.8674265 0.4956792
vn -0.09438027 0.7076187 -0.700263
vn 0.02682856 0.9860745 -0.1641254
vn 0.00213362 0.9847621 0.1738938
vn 0.3599837 0.7564828 0.546027
vn 0.003241189 0.7903808 0.6126073
vn 0.2234689 0.7968246 0.5613662
vn 0.167417 0.8250048 0.5397578
vn 0.1540066 0.8083307 0.5682283
vn 0.1231737 0.8020209 0.5844576
vn 0.1575032 0.8720947 0.4632964
vn 0.2671477 0.746291 0.6096572
vn 0.1068643 0.8377873 0.5354366
vn 0.2085074 0.8705063 0.4458064
vn 0.2271145 0.8318706 0.5063697
vn 0.1591522 0.9062815 0.3915666
vn 0 1 0
vn 0 1 0
vn 0 1 0
vn 0 1 0
vn -0.0242496 0.9986997 -0.04484331
vn -0.02477796 0.7118857 0.7018581
vn 0 1 0
vn -0.1280464 0.7439591 0.6558421
vn 0 1 0
vn 0.02661375 0.7090809 0.7046248
vn 0.06245131 0.653966 0.7539418
vn 0.0428619 0.7526676 0.6570039
vn 0.1268402 0.6689284 0.7324251
vn -0.08891144 0.9921176 0.0883035
vn -0.282259 0.6430345 -0.7119245
vn -0.1810291 0.6766964 -0.7136599
vn -0.2397713 0.6624618 -0.7096859
vn -0.08750898 0.9740172 0.2088845
vn -0.08734561 0.6617236 0.7446425
vn -0.1036519 0.6841229 -0.7219641
vn -0.1239809 0.8811339 -0.4563242
vn -0.02807233 0.887691 -0.4595831
vn 0 1 0
vn 0 1 0
vn -0.03329283 0.8324435 -0.5531089
vn 0.09209516 0.8155375 -0.5713292
vn 0 1 0
vn 0 1 0
vn -0.09028009 0.5979728 -0.7964157
vn -0.01761427 0.6682221 -0.7437534
vn 0.08003869 0.5496681 -0.83154
vn 0.1204112 0.8033938 -0.5831462
vn -0.1581011 0.6454161 -0.7472897
vn -0.08330576 0.5538394 -0.8284456
vn -0.05900777 0.6245404 0.7787601
vn -0.0102786 0.9275185 -0.3736359
vn 0.05848494 0.766124 -0.6400263
vn 0 1 0
vn 0 1 0
vn 0.1085391 0.6008423 -0.7919645
vn 0.1249104 0.8791696 -0.4598458
vn -0.08501817 0.6390289 0.7644696
vn -0.02751066 0.7670779 0.6409638
vn 0.09749454 0.5000193 -0.8605089
vn 0.125537 0.9136781 -0.3865655
vn 0.1965636 0.7497746 -0.6318234
vn 0.01956815 0.6969796 -0.7168239
vn -0.003213146 0.9802854 0.1975606
vn -0.02921203 0.701303 0.7122645
vn -0.08388893 0.5634306 0.8218933
vn -0.08143961 0.8599746 0.5037969
vn 0 1 0
vn 0 1 0
vn -0.08876534 0.7078267 0.7007867
vn 0.0133075 0.8882572 0.4591535
vn 0 1 0
vn -0.06233271 0.9129348 0.403317
vn 0 1 0
vn 0 1 0
vn -0.1222346 0.7312692 0.671047
vn -0.09271342 0.7910798 0.6046463
vn 0.1537716 0.8718967 0.4649197
vn -0.01825788 0.9499531 0.3118584
vn 0 1 0
vn 0.3105077 0.9201621 0.2385091
vn 0 1 0
vn 0 1 0
vn 0.3456777 0.9361295 0.06456272
vn 0.2614743 0.871972 0.4138792
vn 0 1 0
vn 0 1 0
vn 0 1 0
vn 0.5073304 0.8262431 -0.2448228
vn 0 1 0
vn 0 1 0
vn 0 1 0
vn 0.4078219 0.8471673 -0.3405716
vn 0 1 0
vn 0 1 0
vn 0 1 0
vn 0 1 0
vn 0 1 0
vn 0 1 0
vn 0.08110117 0.8963305 -0.4359064
vn 0.6198285 0.7306409 -0.286315
vn 0.5956336 0.7723029 -0.2208368
vn 0.520662 0.674907 0.5228878
vn 0.444231 0.7548143 0.4826117
vn 0.3959199 0.8009702 0.4491037
vn 0.352579 0.6418415 0.6809754
vn -0.2241852 0.5709982 0.789748
vn -0.0565426 0.5407526 0.8392791
vn -0.09572895 0.5488982 0.8303895
vn 0.3137658 0.8998681 0.3029663
vn -0.1549145 0.7894726 0.5939144
vn 0.7879688 0.6140916 -0.04468388
vn 0.2667033 0.6857955 -0.677166
vn -0.02527903 0.9944208 0.1024117
vn -0.1030028 0.8759029 0.4713645
vn -0.08786872 0.9386881 0.3333822
vn 0.02908179 0.990311 0.1357877
vn 0.4026222 0.7356785 -0.5446765
vn 0.1408044 0.76737 -0.6255535
vn 0.1118996 0.7142473 -0.6908902
vn 0.165777 0.6835066 -0.7108704
vn 0.02884534 0.7903994 -0.6119123
vn 0.2287863 0.7423601 -0.6297286
vn 0.146078 0.7222341 -0.6760466
vn 0.06845867 0.96101 -0.2679053
vn 0.04208159 0.9514945 -0.3047747
vn 0.0433258 0.9591625 -0.2795176
vn 0 1 0
vn 0 1 0
g valley_ramp02_0
f 3/3/3 2/2/2 1/1/1
f 4/4/4 3/3/3 1/1/1
f 4/4/4 5/5/5 3/3/3
f 5/5/5 4/4/4 6/6/6
f 5/5/5 6/6/6 7/7/7
f 8/8/8 7/7/7 6/6/6
f 6/6/6 9/9/9 8/8/8
f 9/9/9 10/10/10 8/8/8
f 11/11/11 8/8/8 10/10/10
f 11/11/11 12/12/12 8/8/8
f 13/13/13 12/12/12 11/11/11
f 14/14/14 13/13/13 11/11/11
f 14/14/14 15/15/15 13/13/13
f 15/15/15 14/14/14 16/16/16
f 17/17/17 16/16/16 14/14/14
f 16/16/16 17/17/17 18/18/18
f 18/18/18 17/17/17 19/19/19
f 20/20/20 19/19/19 17/17/17
f 20/20/20 17/17/17 21/21/21
f 21/21/21 22/22/22 20/20/20
f 22/22/22 21/21/21 23/23/23
f 21/21/21 24/24/24 23/23/23
f 21/21/21 25/25/25 24/24/24
f 14/14/14 11/11/11 26/26/26
f 26/26/26 17/17/17 14/14/14
f 11/11/11 10/10/10 26/26/26
f 26/26/26 27/27/27 17/17/17
f 27/27/27 21/21/21 17/17/17
f 10/10/10 28/28/28 26/26/26
f 28/28/28 27/27/27 26/26/26
f 10/10/10 9/9/9 28/28/28
f 9/9/9 27/27/27 28/28/28
f 29/29/29 25/25/25 21/21/21
f 29/29/29 30/30/30 25/25/25
f 29/29/29 31/31/31 30/30/30
f 31/31/31 29/29/29 32/32/32
f 33/33/33 21/21/21 27/27/27
f 29/29/29 21/21/21 33/33/33
f 34/34/34 32/32/32 29/29/29
f 33/33/33 34/34/34 29/29/29
f 35/35/35 32/32/32 34/34/34
f 36/36/36 35/35/35 34/34/34
f 33/33/33 27/27/27 37/37/37
f 37/37/37 27/27/27 9/9/9
f 33/33/33 38/38/38 34/34/34
f 33/33/33 37/37/37 38/38/38
f 34/34/34 39/39/39 36/36/36
f 39/39/39 34/34/34 38/38/38
f 40/40/40 36/36/36 39/39/39
f 41/41/41 36/36/36 40/40/40
f 42/42/42 41/41/41 40/40/40
f 42/42/42 40/40/40 43/43/43
f 43/43/43 40/40/40 44/44/44
f 45/45/45 43/43/43 44/44/44
f 40/40/40 46/46/46 44/44/44
f 39/39/39 46/46/46 40/40/40
f 39/39/39 47/47/47 46/46/46
f 45/45/45 44/44/44 48/48/48
f 48/48/48 44/44/44 46/46/46
f 48/48/48 46/46/46 47/47/47
f 47/47/47 49/49/49 48/48/48
f 48/48/48 50/50/50 45/45/45
f 51/51/51 50/50/50 48/48/48
f 49/49/49 51/51/51 48/48/48
f 52/52/52 39/39/39 38/38/38
f 39/39/39 52/52/52 47/47/47
f 53/53/53 52/52/52 38/38/38
f 37/37/37 53/53/53 38/38/38
f 51/51/51 49/49/49 54/54/54
f 55/55/55 51/51/51 54/54/54
f 55/55/55 54/54/54 56/56/56
f 57/57/57 56/56/56 54/54/54
f 54/54/54 58/58/58 57/57/57
f 58/58/58 54/54/54 49/49/49
f 49/49/49 59/59/59 58/58/58
f 60/60/60 57/57/57 58/58/58
f 58/58/58 61/61/61 60/60/60
f 60/60/60 61/61/61 62/62/62
f 61/61/61 63/63/63 62/62/62
f 64/64/64 63/63/63 61/61/61
f 65/65/65 53/53/53 37/37/37
f 65/65/65 37/37/37 9/9/9
f 9/9/9 66/66/66 65/65/65
f 67/67/67 53/53/53 65/65/65
f 65/65/65 66/66/66 67/67/67
f 59/59/59 68/68/68 58/58/58
f 61/61/61 58/58/58 68/68/68
f 9/9/9 69/69/69 66/66/66
f 6/6/6 69/69/69 9/9/9
f 70/70/70 53/53/53 67/67/67
f 52/52/52 53/53/53 70/70/70
f 52/52/52 70/70/70 47/47/47
f 69/69/69 6/6/6 71/71/71
f 4/4/4 71/71/71 6/6/6
f 71/71/71 4/4/4 72/72/72
f 72/72/72 4/4/4 1/1/1
f 1/1/1 73/73/73 72/72/72
f 74/74/74 73/73/73 1/1/1
f 74/74/74 75/75/75 73/73/73
f 73/73/73 75/75/75 76/76/76
f 72/72/72 77/77/77 71/71/71
f 77/77/77 69/69/69 71/71/71
f 77/77/77 72/72/72 73/73/73
f 78/78/78 70/70/70 67/67/67
f 47/47/47 70/70/70 79/79/79
f 70/70/70 78/78/78 79/79/79
f 67/67/67 80/80/80 78/78/78
f 67/67/67 66/66/66 80/80/80
f 80/80/80 81/81/81 78/78/78
f 81/81/81 79/79/79 78/78/78
f 79/79/79 82/82/82 47/47/47
f 47/47/47 82/82/82 49/49/49
f 82/82/82 83/83/83 49/49/49
f 59/59/59 49/49/49 83/83/83
f 82/82/82 84/84/84 83/83/83
f 82/82/82 79/79/79 84/84/84
f 84/84/84 59/59/59 83/83/83
f 79/79/79 85/85/85 84/84/84
f 81/81/81 85/85/85 79/79/79
f 84/84/84 85/85/85 59/59/59
f 86/86/86 80/80/80 66/66/66
f 80/80/80 86/86/86 81/81/81
f 85/85/85 87/87/87 59/59/59
f 81/81/81 88/88/88 85/85/85
f 88/88/88 87/87/87 85/85/85
f 86/86/86 89/89/89 81/81/81
f 88/88/88 81/81/81 89/89/89
f 89/89/89 86/86/86 90/90/90
f 88/88/88 89/89/89 90/90/90
f 86/86/86 66/66/66 91/91/91
f 86/86/86 91/91/91 90/90/90
f 91/91/91 66/66/66 92/92/92
f 91/91/91 92/92/92 90/90/90
f 66/66/66 69/69/69 92/92/92
f 69/69/69 93/93/93 92/92/92
f 93/93/93 69/69/69 77/77/77
f 94/94/94 90/90/90 92/92/92
f 92/92/92 93/93/93 94/94/94
f 94/94/94 93/93/93 95/95/95
f 77/77/77 96/96/96 93/93/93
f 95/95/95 93/93/93 96/96/96
f 73/73/73 96/96/96 77/77/77
f 90/90/90 97/97/97 88/88/88
f 97/97/97 90/90/90 94/94/94
f 98/98/98 96/96/96 73/73/73
f 73/73/73 76/76/76 98/98/98
f 98/98/98 99/99/99 96/96/96
f 98/98/98 76/76/76 99/99/99
f 96/96/96 99/99/99 95/95/95
f 99/99/99 100/100/100 95/95/95
f 76/76/76 101/101/101 99/99/99
f 101/101/101 100/100/100 99/99/99
f 101/101/101 76/76/76 102/102/102
f 102/102/102 103/103/103 101/101/101
f 103/103/103 104/104/104 101/101/101
f 101/101/101 104/104/104 100/100/100
f 100/100/100 104/104/104 105/105/105
f 97/97/97 106/106/106 88/88/88
f 87/87/87 88/88/88 106/106/106
f 107/107/107 100/100/100 105/105/105
f 105/105/105 108/108/108 107/107/107
f 107/107/107 108/108/108 109/109/109
f 108/108/108 110/110/110 109/109/109
f 111/111/111 100/100/100 107/107/107
f 111/111/111 107/107/107 109/109/109
f 112/112/112 100/100/100 111/111/111
f 112/112/112 95/95/95 100/100/100
f 97/97/97 113/113/113 106/106/106
f 97/97/97 94/94/94 113/113/113
f 95/95/95 113/113/113 94/94/94
f 114/114/114 113/113/113 95/95/95
f 112/112/112 114/114/114 95/95/95
f 113/113/113 115/115/115 106/106/106
f 113/113/113 114/114/114 115/115/115
f 116/116/116 87/87/87 106/106/106
f 116/116/116 106/106/106 115/115/115
f 117/117/117 116/116/116 115/115/115
f 87/87/87 116/116/116 118/118/118
f 117/117/117 118/118/118 116/116/116
f 87/87/87 118/118/118 59/59/59
f 68/68/68 59/59/59 118/118/118
f 117/117/117 68/68/68 118/118/118
f 114/114/114 119/119/119 115/115/115
f 115/115/115 119/119/119 117/117/117
f 114/114/114 112/112/112 120/120/120
f 114/114/114 120/120/120 119/119/119
f 121/121/121 68/68/68 117/117/117
f 68/68/68 121/121/121 61/61/61
f 121/121/121 122/122/122 61/61/61
f 64/64/64 61/61/61 122/122/122
f 64/64/64 122/122/122 123/123/123
f 124/124/124 64/64/64 123/123/123
f 124/124/124 123/123/123 125/125/125
f 126/126/126 122/122/122 121/121/121
f 123/123/123 122/122/122 126/126/126
f 123/123/123 127/127/127 125/125/125
f 126/126/126 127/127/127 123/123/123
f 125/125/125 127/127/127 128/128/128
f 128/128/128 127/127/127 129/129/129
f 130/130/130 121/121/121 117/117/117
f 130/130/130 126/126/126 121/121/121
f 127/127/127 126/126/126 131/131/131
f 130/130/130 131/131/131 126/126/126
f 131/131/131 130/130/130 132/132/132
f 129/129/129 127/127/127 133/133/133
f 131/131/131 133/133/133 127/127/127
f 134/134/134 130/130/130 117/117/117
f 119/119/119 134/134/134 117/117/117
f 130/130/130 134/134/134 135/135/135
f 135/135/135 134/134/134 119/119/119
f 135/135/135 132/132/132 130/130/130
f 120/120/120 135/135/135 119/119/119
f 135/135/135 120/120/120 136/136/136
f 136/136/136 120/120/120 112/112/112
f 133/133/133 137/137/137 129/129/129
f 137/137/137 133/133/133 138/138/138
f 139/139/139 129/129/129 137/137/137
f 137/137/137 140/140/140 139/139/139
f 137/137/137 138/138/138 140/140/140
f 141/141/141 133/133/133 131/131/131
f 141/141/141 131/131/131 132/132/132
f 141/141/141 138/138/138 133/133/133
f 142/142/142 135/135/135 136/136/136
f 135/135/135 142/142/142 132/132/132
f 112/112/112 143/143/143 136/136/136
f 112/112/112 111/111/111 143/143/143
f 143/143/143 111/111/111 109/109/109
f 136/136/136 144/144/144 142/142/142
f 136/136/136 143/143/143 144/144/144
f 141/141/141 145/145/145 138/138/138
f 145/145/145 141/141/141 132/132/132
f 132/132/132 142/142/142 146/146/146
f 144/144/144 146/146/146 142/142/142
f 147/147/147 145/145/145 132/132/132
f 146/146/146 147/147/147 132/132/132
f 148/148/148 138/138/138 145/145/145
f 145/145/145 147/147/147 148/148/148
f 144/144/144 149/149/149 146/146/146
f 149/149/149 147/147/147 146/146/146
f 150/150/150 143/143/143 109/109/109
f 144/144/144 143/143/143 151/151/151
f 151/151/151 143/143/143 150/150/150
f 150/150/150 109/109/109 152/152/152
f 109/109/109 110/110/110 152/152/152
f 110/110/110 153/153/153 152/152/152
f 152/152/152 153/153/153 154/154/154
f 150/150/150 152/152/152 155/155/155
f 150/150/150 155/155/155 151/151/151
f 152/152/152 154/154/154 156/156/156
f 156/156/156 155/155/155 152/152/152
f 157/157/157 156/156/156 154/154/154
f 158/158/158 156/156/156 157/157/157
f 158/158/158 157/157/157 159/159/159
f 160/160/160 158/158/158 159/159/159
f 144/144/144 161/161/161 149/149/149
f 161/161/161 144/144/144 151/151/151
f 162/162/162 155/155/155 156/156/156
f 156/156/156 158/158/158 162/162/162
f 158/158/158 163/163/163 162/162/162
f 158/158/158 160/160/160 164/164/164
f 164/164/164 163/163/163 158/158/158
f 160/160/160 165/165/165 164/164/164
f 166/166/166 164/164/164 165/165/165
f 164/164/164 166/166/166 163/163/163
f 165/165/165 167/167/167 166/166/166
f 168/168/168 166/166/166 167/167/167
f 169/169/169 166/166/166 168/168/168
f 166/166/166 169/169/169 163/163/163
f 170/170/170 169/169/169 168/168/168
f 171/171/171 170/170/170 168/168/168
f 172/172/172 170/170/170 171/171/171
f 172/172/172 169/169/169 170/170/170
f 169/169/169 172/172/172 173/173/173
f 173/173/173 174/174/174 169/169/169
f 175/175/175 174/174/174 173/173/173
f 175/175/175 176/176/176 174/174/174
f 176/176/176 177/177/177 174/174/174
f 174/174/174 177/177/177 178/178/178
f 179/179/179 178/178/178 177/177/177
f 179/179/179 180/180/180 178/178/178
f 180/180/180 181/181/181 178/178/178
f 181/181/181 180/180/180 182/182/182
f 181/181/181 182/182/182 183/183/183
f 183/183/183 184/184/184 181/181/181
f 185/185/185 178/178/178 181/181/181
f 184/184/184 185/185/185 181/181/181
f 178/178/178 186/186/186 174/174/174
f 187/187/187 169/169/169 174/174/174
f 186/186/186 187/187/187 174/174/174
f 186/186/186 188/188/188 187/187/187
f 187/187/187 189/189/189 169/169/169
f 187/187/187 188/188/188 189/189/189
f 169/169/169 189/189/189 190/190/190
f 189/189/189 188/188/188 190/190/190
f 163/163/163 169/169/169 190/190/190
f 163/163/163 190/190/190 191/191/191
f 191/191/191 190/190/190 188/188/188
f 191/191/191 192/192/192 163/163/163
f 192/192/192 162/162/162 163/163/163
f 162/162/162 192/192/192 155/155/155
f 193/193/193 192/192/192 191/191/191
f 193/193/193 191/191/191 188/188/188
f 194/194/194 155/155/155 192/192/192
f 193/193/193 194/194/194 192/192/192
f 194/194/194 151/151/151 155/155/155
f 195/195/195 193/193/193 188/188/188
f 194/194/194 193/193/193 195/195/195
f 196/196/196 151/151/151 194/194/194
f 161/161/161 151/151/151 196/196/196
f 188/188/188 197/197/197 195/195/195
f 188/188/188 186/186/186 197/197/197
f 198/198/198 197/197/197 186/186/186
f 197/197/197 198/198/198 195/195/195
f 194/194/194 195/195/195 199/199/199
f 199/199/199 196/196/196 194/194/194
f 200/200/200 161/161/161 196/196/196
f 161/161/161 200/200/200 149/149/149
f 201/201/201 149/149/149 200/200/200
f 196/196/196 201/201/201 200/200/200
f 149/149/149 201/201/201 147/147/147
f 201/201/201 196/196/196 202/202/202
f 199/199/199 202/202/202 196/196/196
f 201/201/201 203/203/203 147/147/147
f 203/203/203 201/201/201 202/202/202
f 147/147/147 203/203/203 148/148/148
f 204/204/204 203/203/203 202/202/202
f 202/202/202 199/199/199 204/204/204
f 204/204/204 148/148/148 203/203/203
f 199/199/199 195/195/195 205/205/205
f 199/199/199 205/205/205 204/204/204
f 195/195/195 198/198/198 205/205/205
f 204/204/204 205/205/205 206/206/206
f 204/204/204 206/206/206 148/148/148
f 205/205/205 198/198/198 206/206/206
f 207/207/207 148/148/148 206/206/206
f 207/207/207 138/138/138 148/148/148
f 198/198/198 208/208/208 206/206/206
f 186/186/186 208/208/208 198/198/198
f 178/178/178 208/208/208 186/186/186
f 178/178/178 185/185/185 208/208/208
f 206/206/206 208/208/208 209/209/209
f 185/185/185 209/209/209 208/208/208
f 209/209/209 207/207/207 206/206/206
f 210/210/210 209/209/209 185/185/185
f 210/210/210 207/207/207 209/209/209
f 184/184/184 210/210/210 185/185/185
f 211/211/211 138/138/138 207/207/207
f 211/211/211 207/207/207 210/210/210
f 210/210/210 184/184/184 211/211/211
f 140/140/140 138/138/138 211/211/211
f 212/212/212 211/211/211 184/184/184
f 211/211/211 212/212/212 140/140/140
f 184/184/184 213/213/213 212/212/212
f 212/212/212 214/214/214 140/140/140
f 213/213/213 214/214/214 212/212/212
