g valley_cord_x20_str8
v 9.835063E-09 0.07499999 -19.80614
v 9.835063E-09 0.01253549 -19
v -0.075 -0.0624645 -19
v -0.075 0 -19.80614
v 0.075 0 -19.80614
v -3.278354E-09 -0.1374645 -19
v -3.278354E-09 -0.07499999 -19.80614
v 0.075 -0.0624645 -19
v -0.075 -0.1931318 -18
v -3.278354E-09 -0.2681318 -18
v 0.075 -0.1931318 -18
v 9.835063E-09 -0.1181318 -18
v -3.278354E-09 -0.3452633 -17
v 0.075 -0.2702633 -17
v -0.075 -0.2702633 -17
v 9.835063E-09 -0.1952633 -17
v -3.278354E-09 -0.4060785 -16
v 0.075 -0.3310785 -16
v -0.075 -0.3310785 -16
v 9.835063E-09 -0.2560785 -16
v -3.278354E-09 -0.4517116 -15
v 0.075 -0.3767116 -15
v -0.075 -0.3767116 -15
v 9.835063E-09 -0.3017116 -15
v -3.278354E-09 -0.4828845 -14
v 0.075 -0.4078845 -14
v -0.075 -0.4078845 -14
v 9.835063E-09 -0.3328845 -14
v -3.278354E-09 -0.50541 -13
v 0.075 -0.4304099 -13
v -0.075 -0.4304099 -13
v 9.835063E-09 -0.35541 -13
v -3.278354E-09 -0.5222004 -12
v 0.075 -0.4472004 -12
v -0.075 -0.4472004 -12
v 9.835063E-09 -0.3722004 -12
v -3.278354E-09 -0.5315925 -11
v 0.075 -0.4565925 -11
v -0.075 -0.4565925 -11
v 9.835063E-09 -0.3815925 -11
v -3.278354E-09 -0.5372039 -9.999999
v 0.075 -0.4622039 -9.999999
v -0.075 -0.4622039 -9.999999
v 9.835063E-09 -0.3872039 -9.999999
v -3.278354E-09 -0.5315925 -8.999999
v 0.075 -0.4565925 -8.999999
v -0.075 -0.4565925 -8.999999
v 9.835063E-09 -0.3815925 -8.999999
v -3.278354E-09 -0.5222005 -7.999999
v 0.075 -0.4472004 -7.999999
v -0.075 -0.4472004 -7.999999
v 9.835063E-09 -0.3722004 -7.999999
v -3.278354E-09 -0.50541 -7
v 0.075 -0.4304099 -6.999999
v -0.075 -0.4304099 -6.999999
v 9.835063E-09 -0.3554099 -6.999999
v -3.278354E-09 -0.4828845 -6
v 0.075 -0.4078845 -6
v -0.075 -0.4078845 -6
v 9.835063E-09 -0.3328845 -5.999999
v -3.278354E-09 -0.4517116 -5
v 0.075 -0.3767116 -5
v -0.075 -0.3767116 -5
v 9.835063E-09 -0.3017116 -4.999999
v -3.278354E-09 -0.4060785 -3.999999
v 0.075 -0.3310785 -3.999999
v -0.075 -0.3310785 -3.999999
v 9.835063E-09 -0.2560785 -3.999999
v -3.278354E-09 -0.3452633 -2.999999
v 0.075 -0.2702633 -2.999999
v -0.075 -0.2702633 -2.999999
v 9.835063E-09 -0.1952633 -2.999999
v -3.278354E-09 -0.2681318 -1.999999
v 0.075 -0.1931318 -1.999999
v -0.075 -0.1931318 -1.999999
v 9.835063E-09 -0.1181318 -1.999999
v -3.278354E-09 -0.1374645 -0.9999979
v 0.075 -0.0624645 -0.9999979
v -0.075 -0.0624645 -0.9999979
v 9.835063E-09 0.01253549 -0.9999979
v -3.278354E-09 -0.07500005 -0.1973283
v -0.075 0 -0.1973283
v 0.075 0 -0.1973283
v 9.835063E-09 0.07499999 -0.1973283
v 9.835063E-09 0.07499999 -0.1973283
v -2.328306E-09 0.08751339 -0.1785278
v -0.08751339 0 -0.1785278
v -0.075 0 -0.1973283
v 0.075 0 -0.1973283
v -1.536682E-08 -0.08751345 -0.1785278
v -3.278354E-09 -0.07500005 -0.1973283
v 0.08751336 0 -0.1785278
v -0.08944917 0 0.01021743
v 7.813737E-08 -0.08944917 0.01021743
v 0.0894492 0 0.01021743
v -4.121916E-09 0.08944923 0.01021743
v 8.434936E-08 0 0.05126834
v -0.075 0 -19.80614
v -0.08751337 0 -19.82461
v 1.071021E-08 0.08751339 -19.82461
v 9.835063E-09 0.07499999 -19.80614
v -3.278354E-09 -0.07499999 -19.80614
v 0.08751337 0 -19.82461
v 0.075 0 -19.80614
v -3.72529E-09 -0.08751339 -19.82461
v 2.224127E-08 0.08944917 -20.01022
v 0.0894492 0 -20.01022
v -0.08944917 0 -20.01022
v 1.042108E-07 -0.08944923 -20.01022
v 1.031704E-07 0 -20.05127
vt 0.25 0.65
vt 0.25 0.65
vt 0.25 0.65
vt 0.25 0.65
vt 0.25 0.65
vt 0.25 0.65
vt 0.25 0.65
vt 0.25 0.65
vt 0.25 0.65
vt 0.25 0.65
vt 0.25 0.65
vt 0.25 0.65
vt 0.25 0.65
vt 0.25 0.65
vt 0.25 0.65
vt 0.25 0.65
vt 0.25 0.65
vt 0.25 0.65
vt 0.25 0.65
vt 0.25 0.65
vt 0.25 0.65
vt 0.25 0.65
vt 0.25 0.65
vt 0.25 0.65
vt 0.25 0.65
vt 0.25 0.65
vt 0.25 0.65
vt 0.25 0.65
vt 0.25 0.65
vt 0.25 0.65
vt 0.25 0.65
vt 0.25 0.65
vt 0.25 0.65
vt 0.25 0.65
vt 0.25 0.65
vt 0.25 0.65
vt 0.25 0.65
vt 0.25 0.65
vt 0.25 0.65
vt 0.25 0.65
vt 0.25 0.65
vt 0.25 0.65
vt 0.25 0.65
vt 0.25 0.65
vt 0.25 0.65
vt 0.25 0.65
vt 0.25 0.65
vt 0.25 0.65
vt 0.25 0.65
vt 0.25 0.65
vt 0.25 0.65
vt 0.25 0.65
vt 0.25 0.65
vt 0.25 0.65
vt 0.25 0.65
vt 0.25 0.65
vt 0.25 0.65
vt 0.25 0.65
vt 0.25 0.65
vt 0.25 0.65
vt 0.25 0.65
vt 0.25 0.65
vt 0.25 0.65
vt 0.25 0.65
vt 0.25 0.65
vt 0.25 0.65
vt 0.25 0.65
vt 0.25 0.65
vt 0.25 0.65
vt 0.25 0.65
vt 0.25 0.65
vt 0.25 0.65
vt 0.25 0.65
vt 0.25 0.65
vt 0.25 0.65
vt 0.25 0.65
vt 0.25 0.65
vt 0.25 0.65
vt 0.25 0.65
vt 0.25 0.65
vt 0.25 0.65
vt 0.25 0.65
vt 0.25 0.65
vt 0.25 0.65
vt 0.25 0.35
vt 0.25 0.35
vt 0.25 0.35
vt 0.25 0.35
vt 0.25 0.35
vt 0.25 0.35
vt 0.25 0.35
vt 0.25 0.35
vt 0.25 0.35
vt 0.25 0.35
vt 0.25 0.35
vt 0.25 0.35
vt 0.25 0.35
vt 0.25 0.35
vt 0.25 0.35
vt 0.25 0.35
vt 0.25 0.35
vt 0.25 0.35
vt 0.25 0.35
vt 0.25 0.35
vt 0.25 0.35
vt 0.25 0.35
vt 0.25 0.35
vt 0.25 0.35
vt 0.25 0.35
vt 0.25 0.35
vn 0 0.9970114 0.07725473
vn 0 0.9944617 0.1050995
vn -0.9998542 0.01680646 0.003021964
vn -0.9993914 0.0347784 0.00269485
vn 0.9993914 0.03477922 0.002694911
vn 0 -0.9942042 -0.1075088
vn 0 -0.9970114 -0.07725473
vn 0.9998542 0.01680674 0.003021984
vn -0.9999263 -0.0118848 -0.002480169
vn 0 -0.9947739 -0.1021024
vn 0.9999263 -0.01188494 -0.002480183
vn 0 0.9945192 0.1045538
vn 0 -0.9976471 -0.06855787
vn 0.9999932 -0.003650634 -0.0005046393
vn -0.9999932 -0.003650128 -0.0005046066
vn 0 0.9976126 0.06905992
vn 0 -0.9985963 -0.05296745
vn 0.9999942 -0.003405144 -0.0003629069
vn -0.9999942 -0.003404686 -0.0003628861
vn 0 0.998577 0.05332917
vn 0 -0.9992682 -0.03824967
vn 0.9999948 -0.003248845 -0.0002496687
vn -0.9999948 -0.003248735 -0.0002496752
vn 0 0.9992586 0.03849892
vn 0 -0.9996412 -0.0267872
vn 0.9999981 -0.001944686 -0.0001044477
vn -0.9999981 -0.001944639 -0.0001044423
vn 0 0.9996383 0.02689159
vn 0 -0.9998074 -0.01962878
vn 0.9999992 -0.001290288 -5.073872E-05
vn -0.9999992 -0.001290099 -5.073182E-05
vn 0 0.9998063 0.01967948
vn 0 -0.9999146 -0.01306832
vn 0.9999987 -0.001664904 -4.35876E-05
vn -0.9999987 -0.001664778 -4.358095E-05
vn 0 0.9999141 0.01311192
vn 0 -0.999972 -0.007495143
vn 0.9999996 -0.0008509116 -1.275991E-05
vn -0.9999996 -0.0008508802 -1.275423E-05
vn 0 0.9999719 0.007507926
vn 0 -1 0
vn 0.9999968 -0.002526055 0
vn -0.9999968 -0.002525992 0
vn 0 1 0
vn 0 -0.999972 0.007495143
vn 0.9999996 -0.0008509276 1.275991E-05
vn -0.9999996 -0.0008508326 1.275398E-05
vn 0 0.9999719 -0.007507926
vn 0 -0.9999146 0.01306832
vn 0.9999987 -0.001664793 4.358586E-05
vn -0.9999987 -0.001664666 4.357993E-05
vn 0 0.9999141 -0.01311192
vn 0 -0.9998074 0.01962877
vn 0.9999992 -0.001290098 5.074118E-05
vn -0.9999992 -0.001290114 5.073773E-05
vn 0 0.9998063 -0.01967948
vn 0 -0.9996412 0.02678722
vn 0.9999981 -0.001944482 0.0001044601
vn -0.9999981 -0.001944656 0.0001044611
vn 0 0.9996383 -0.02689159
vn 0 -0.9992682 0.03824967
vn 0.9999948 -0.003248529 0.0002496653
vn -0.9999948 -0.00324864 0.0002496791
vn 0 0.9992586 -0.03849894
vn 0 -0.9985963 0.05296741
vn 0.9999942 -0.003405083 0.0003628754
vn -0.9999942 -0.00340502 0.0003628754
vn 0 0.998577 -0.05332918
vn 0 -0.9976471 0.06855796
vn 0.9999932 -0.003650679 0.0005045707
vn -0.9999932 -0.003650553 0.0005045648
vn 0 0.9976126 -0.06905992
vn 0 -0.9947739 0.1021027
vn 0.9999263 -0.01188483 0.002480004
vn -0.9999263 -0.01188475 0.002480001
vn 0 0.9945192 -0.1045538
vn 0 -0.994183 0.1077047
vn 0.9998536 0.01683857 -0.00302239
vn -0.9998536 0.0168386 -0.0030224
vn 0 0.9944396 -0.1053083
vn 0 -0.9969856 0.07758632
vn -0.9993863 0.03492209 -0.002717691
vn 0.9993863 0.03492213 -0.002717694
vn 0 0.9969856 -0.07758637
vn 0 0.8324645 -0.5540783
vn 0 0.9986601 -0.05175003
vn -0.9986601 0 -0.05174975
vn -0.8324642 0 -0.5540788
vn 0.8324647 0 -0.5540781
vn 0 -0.9986601 -0.05174975
vn 0 -0.8324643 -0.5540786
vn 0.9986601 0 -0.05175006
vn -0.9933015 0 0.1155513
vn 0 -0.9933015 0.1155512
vn 0.9933016 0 0.1155509
vn 0 0.9933015 0.115551
vn 0 0 1
vn -0.827888 -4.09916E-05 0.5608935
vn -0.9986238 0 0.05244422
vn 0 0.9986238 0.05244377
vn 0 0.8278724 0.5609165
vn 0 -0.8278993 0.5608768
vn 0.9986238 0 0.05244461
vn 0.827888 -5.124761E-05 0.5608934
vn 0 -0.9986238 0.05244503
vn 0 0.9930881 -0.1173711
vn 0.9930881 0 -0.1173716
vn -0.9930881 0 -0.1173721
vn 0 -0.9930881 -0.1173716
vn 0 0 -1
g valley_cord_x20_str8_0
f 3/3/3 2/2/2 1/1/1
f 4/4/4 3/3/3 1/1/1
f 1/1/1 2/2/2 5/5/5
f 6/6/6 3/3/3 4/4/4
f 7/7/7 6/6/6 4/4/4
f 5/5/5 8/8/8 7/7/7
f 2/2/2 8/8/8 5/5/5
f 8/8/8 6/6/6 7/7/7
f 3/3/3 9/9/9 2/2/2
f 6/6/6 10/10/10 3/3/3
f 10/10/10 9/9/9 3/3/3
f 8/8/8 11/11/11 6/6/6
f 11/11/11 10/10/10 6/6/6
f 2/2/2 12/12/12 8/8/8
f 9/9/9 12/12/12 2/2/2
f 12/12/12 11/11/11 8/8/8
f 10/10/10 13/13/13 9/9/9
f 11/11/11 14/14/14 10/10/10
f 14/14/14 13/13/13 10/10/10
f 9/9/9 15/15/15 12/12/12
f 13/13/13 15/15/15 9/9/9
f 12/12/12 16/16/16 11/11/11
f 16/16/16 14/14/14 11/11/11
f 15/15/15 16/16/16 12/12/12
f 13/13/13 17/17/17 15/15/15
f 14/14/14 18/18/18 13/13/13
f 18/18/18 17/17/17 13/13/13
f 15/15/15 19/19/19 16/16/16
f 17/17/17 19/19/19 15/15/15
f 16/16/16 20/20/20 14/14/14
f 20/20/20 18/18/18 14/14/14
f 19/19/19 20/20/20 16/16/16
f 17/17/17 21/21/21 19/19/19
f 18/18/18 22/22/22 17/17/17
f 22/22/22 21/21/21 17/17/17
f 19/19/19 23/23/23 20/20/20
f 21/21/21 23/23/23 19/19/19
f 20/20/20 24/24/24 18/18/18
f 24/24/24 22/22/22 18/18/18
f 23/23/23 24/24/24 20/20/20
f 21/21/21 25/25/25 23/23/23
f 22/22/22 26/26/26 21/21/21
f 26/26/26 25/25/25 21/21/21
f 23/23/23 27/27/27 24/24/24
f 25/25/25 27/27/27 23/23/23
f 24/24/24 28/28/28 22/22/22
f 28/28/28 26/26/26 22/22/22
f 27/27/27 28/28/28 24/24/24
f 25/25/25 29/29/29 27/27/27
f 26/26/26 30/30/30 25/25/25
f 30/30/30 29/29/29 25/25/25
f 27/27/27 31/31/31 28/28/28
f 29/29/29 31/31/31 27/27/27
f 28/28/28 32/32/32 26/26/26
f 32/32/32 30/30/30 26/26/26
f 31/31/31 32/32/32 28/28/28
f 29/29/29 33/33/33 31/31/31
f 30/30/30 34/34/34 29/29/29
f 34/34/34 33/33/33 29/29/29
f 31/31/31 35/35/35 32/32/32
f 33/33/33 35/35/35 31/31/31
f 32/32/32 36/36/36 30/30/30
f 36/36/36 34/34/34 30/30/30
f 35/35/35 36/36/36 32/32/32
f 33/33/33 37/37/37 35/35/35
f 34/34/34 38/38/38 33/33/33
f 38/38/38 37/37/37 33/33/33
f 35/35/35 39/39/39 36/36/36
f 37/37/37 39/39/39 35/35/35
f 36/36/36 40/40/40 34/34/34
f 40/40/40 38/38/38 34/34/34
f 39/39/39 40/40/40 36/36/36
f 37/37/37 41/41/41 39/39/39
f 38/38/38 42/42/42 37/37/37
f 42/42/42 41/41/41 37/37/37
f 39/39/39 43/43/43 40/40/40
f 41/41/41 43/43/43 39/39/39
f 40/40/40 44/44/44 38/38/38
f 44/44/44 42/42/42 38/38/38
f 43/43/43 44/44/44 40/40/40
f 41/41/41 45/45/45 43/43/43
f 42/42/42 46/46/46 41/41/41
f 46/46/46 45/45/45 41/41/41
f 43/43/43 47/47/47 44/44/44
f 45/45/45 47/47/47 43/43/43
f 44/44/44 48/48/48 42/42/42
f 48/48/48 46/46/46 42/42/42
f 47/47/47 48/48/48 44/44/44
f 45/45/45 49/49/49 47/47/47
f 46/46/46 50/50/50 45/45/45
f 50/50/50 49/49/49 45/45/45
f 47/47/47 51/51/51 48/48/48
f 49/49/49 51/51/51 47/47/47
f 48/48/48 52/52/52 46/46/46
f 52/52/52 50/50/50 46/46/46
f 51/51/51 52/52/52 48/48/48
f 49/49/49 53/53/53 51/51/51
f 50/50/50 54/54/54 49/49/49
f 54/54/54 53/53/53 49/49/49
f 51/51/51 55/55/55 52/52/52
f 53/53/53 55/55/55 51/51/51
f 52/52/52 56/56/56 50/50/50
f 56/56/56 54/54/54 50/50/50
f 55/55/55 56/56/56 52/52/52
f 53/53/53 57/57/57 55/55/55
f 54/54/54 58/58/58 53/53/53
f 58/58/58 57/57/57 53/53/53
f 55/55/55 59/59/59 56/56/56
f 57/57/57 59/59/59 55/55/55
f 56/56/56 60/60/60 54/54/54
f 60/60/60 58/58/58 54/54/54
f 59/59/59 60/60/60 56/56/56
f 57/57/57 61/61/61 59/59/59
f 58/58/58 62/62/62 57/57/57
f 62/62/62 61/61/61 57/57/57
f 59/59/59 63/63/63 60/60/60
f 61/61/61 63/63/63 59/59/59
f 60/60/60 64/64/64 58/58/58
f 64/64/64 62/62/62 58/58/58
f 63/63/63 64/64/64 60/60/60
f 61/61/61 65/65/65 63/63/63
f 62/62/62 66/66/66 61/61/61
f 66/66/66 65/65/65 61/61/61
f 63/63/63 67/67/67 64/64/64
f 65/65/65 67/67/67 63/63/63
f 64/64/64 68/68/68 62/62/62
f 68/68/68 66/66/66 62/62/62
f 67/67/67 68/68/68 64/64/64
f 65/65/65 69/69/69 67/67/67
f 66/66/66 70/70/70 65/65/65
f 70/70/70 69/69/69 65/65/65
f 67/67/67 71/71/71 68/68/68
f 69/69/69 71/71/71 67/67/67
f 68/68/68 72/72/72 66/66/66
f 72/72/72 70/70/70 66/66/66
f 71/71/71 72/72/72 68/68/68
f 69/69/69 73/73/73 71/71/71
f 70/70/70 74/74/74 69/69/69
f 74/74/74 73/73/73 69/69/69
f 71/71/71 75/75/75 72/72/72
f 73/73/73 75/75/75 71/71/71
f 72/72/72 76/76/76 70/70/70
f 76/76/76 74/74/74 70/70/70
f 75/75/75 76/76/76 72/72/72
f 73/73/73 77/77/77 75/75/75
f 74/74/74 78/78/78 73/73/73
f 78/78/78 77/77/77 73/73/73
f 75/75/75 79/79/79 76/76/76
f 77/77/77 79/79/79 75/75/75
f 76/76/76 80/80/80 74/74/74
f 80/80/80 78/78/78 74/74/74
f 79/79/79 80/80/80 76/76/76
f 77/77/77 81/81/81 79/79/79
f 81/81/81 82/82/82 79/79/79
f 79/79/79 82/82/82 80/80/80
f 83/83/83 81/81/81 77/77/77
f 78/78/78 83/83/83 77/77/77
f 82/82/82 84/84/84 80/80/80
f 84/84/84 83/83/83 78/78/78
f 80/80/80 84/84/84 78/78/78
f 87/87/87 86/86/86 85/85/85
f 88/88/88 87/87/87 85/85/85
f 85/85/85 86/86/86 89/89/89
f 90/90/90 87/87/87 88/88/88
f 91/91/91 90/90/90 88/88/88
f 89/89/89 92/92/92 91/91/91
f 86/86/86 92/92/92 89/89/89
f 92/92/92 90/90/90 91/91/91
f 87/87/87 93/93/93 86/86/86
f 90/90/90 94/94/94 87/87/87
f 94/94/94 93/93/93 87/87/87
f 92/92/92 95/95/95 90/90/90
f 95/95/95 94/94/94 90/90/90
f 86/86/86 96/96/96 92/92/92
f 93/93/93 96/96/96 86/86/86
f 96/96/96 95/95/95 92/92/92
f 94/94/94 97/97/97 93/93/93
f 95/95/95 97/97/97 94/94/94
f 93/93/93 97/97/97 96/96/96
f 96/96/96 97/97/97 95/95/95
f 100/100/100 99/99/99 98/98/98
f 101/101/101 100/100/100 98/98/98
f 98/98/98 99/99/99 102/102/102
f 103/103/103 100/100/100 101/101/101
f 104/104/104 103/103/103 101/101/101
f 102/102/102 105/105/105 104/104/104
f 99/99/99 105/105/105 102/102/102
f 105/105/105 103/103/103 104/104/104
f 99/99/99 100/100/100 106/106/106
f 100/100/100 103/103/103 107/107/107
f 106/106/106 100/100/100 107/107/107
f 105/105/105 99/99/99 108/108/108
f 108/108/108 99/99/99 106/106/106
f 103/103/103 105/105/105 109/109/109
f 107/107/107 103/103/103 109/109/109
f 109/109/109 105/105/105 108/108/108
f 106/106/106 110/110/110 108/108/108
f 107/107/107 110/110/110 106/106/106
f 108/108/108 110/110/110 109/109/109
f 109/109/109 110/110/110 107/107/107
