g valley_tree07
v -0.6206371 0.8970995 0.4557263
v -0.7801368 0.1651839 -0.01241268
v -0.7703696 1.001596 -0.03982112
v -0.5887629 -0.1610824 -0.4146665
v -0.7472985 1.725156 -0.1532411
v -0.5159962 0.4365652 0.5445173
v -0.5298301 -0.2284246 0.2880806
v -0.5368348 2.039805 0.4377779
v -0.2971205 1.631627 0.6560815
v 0.1174723 -0.3633509 0.4938993
v -0.1428495 -0.5731592 -0.003731162
v 0.05736791 0.7494723 0.7623249
v 0.1943095 1.449686 0.7042332
v -0.03216434 2.581079 0.6028827
v 0.4563762 0.22057 0.5713717
v 0.5551889 -0.3516234 -0.02269736
v 0.6851833 0.2950753 0.3314249
v 0.7372862 1.318233 0.2533733
v -0.1231586 -0.3877208 -0.4827923
v 0.3862062 2.32005 0.5032115
v 0.3424461 4.028912 0.4513991
v 0.5623121 3.305979 0.1840509
v 0.482764 4.515968 -0.0317723
v 0.4842691 4.685142 0.1529704
v 0.5686262 3.50326 -0.0397836
v 0.4958921 3.270391 -0.332577
v 0.5394087 3.496846 -0.1142696
v 0.6266429 2.066885 0.2161974
v 0.632808 2.048049 -0.241223
v 0.3449765 5.19905 0.3667126
v 0.4519926 4.793836 0.02608323
v -0.1034627 5.077472 0.5301337
v 0.6600818 4.891101 -0.0738432
v 0.4506555 4.779695 -0.09898567
v 0.4495511 4.85696 -0.07809591
v 0.5560627 3.485486 -0.1031077
v 0.561981 3.256325 -0.1114633
v -0.1262217 3.886569 0.550132
v -0.5285348 4.46512 0.1870032
v -0.2772619 6.005283 0.3325883
v -0.391831 2.996856 0.4530426
v -0.5895019 2.924137 0.07279474
v -0.1262578 6.103273 0.4301232
v -0.0513602 6.482616 0.4269837
v -0.3736607 6.505779 0.6915359
v -0.542981 6.03683 0.7716957
v -0.3552344 2.609541 -0.5132161
v -0.4586519 3.628649 -0.1717933
v -0.3752605 1.368826 -0.6715753
v -0.06788962 0.3616405 -0.8301069
v 0.2665552 -0.125984 -0.6451812
v 0.1785605 1.481605 -0.7381628
v 0.6844525 0.06265451 -0.3440052
v 0.1704641 2.442809 -0.6501629
v -0.0453558 3.564101 -0.5587884
v -0.4269549 4.317004 -0.3688734
v 0.7089571 0.8335274 -0.3536557
v 0.4691317 1.255572 -0.6128467
v -0.4800254 5.439941 -0.1207894
v 0.293502 4.430311 -0.3782197
v -0.2016633 5.172081 -0.4495665
v -0.2854472 6.045193 -0.2686054
v -0.3835234 6.410789 0.03020789
v 0.04094572 5.821594 -0.4342656
v 0.467667 5.565369 -0.08976083
v 0.2866347 6.092204 -0.3009389
v -0.2693532 6.353121 0.2315348
v -0.6595135 6.28703 0.4755425
v -0.2351787 7.116215 -0.2028318
v -0.01627293 6.866508 -0.3135076
v 0.2433907 6.809099 -0.1808178
v -0.3275362 6.942875 0.1919488
v 0.2956352 6.646789 0.2091569
v -0.04568388 7.085239 0.1728702
v 0.4531724 4.85696 0.01429832
v 0.3672031 4.787065 -0.04023715
v -0.2855022 6.471247 0.4023689
v -0.2855022 6.449091 0.4023689
v -0.5166538 6.474491 0.5172709
v -0.7560363 6.371431 0.7556568
v -0.5450858 6.45655 0.8590962
v 1.111462 4.879168 -0.1938585
v 0.8423996 4.549025 -0.07244122
v 1.108554 4.776892 -0.01094912
vn -0.8517336 0.02881867 0.523182
vn -0.9866564 -0.1621032 0.01522075
vn -0.9990602 0.01416666 -0.04096311
vn -0.7281395 -0.3413445 -0.5943877
vn -0.964075 0.0826489 -0.2524452
vn -0.4983073 -0.1753622 0.8490806
vn -0.6392361 -0.5475084 0.5400109
vn -0.8270504 0.0992469 0.553297
vn -0.3386047 0.07216516 0.9381573
vn 0.110397 -0.6095131 0.7850518
vn -0.153691 -0.987654 0.03030809
vn -0.04950633 -0.08357731 0.9952708
vn 0.3980327 0.06610594 0.9149863
vn 0.006931169 0.06232037 0.9980322
vn 0.5016704 -0.1693549 0.8483193
vn 0.704057 -0.7036424 0.09587014
vn 0.9307421 -0.1546305 0.3313738
vn 0.9208044 0.05025568 0.3867734
vn -0.07916057 -0.7527897 -0.6534839
vn 0.5538722 0.07871503 0.8288725
vn 0.5710656 0.0675186 0.818123
vn 0.9129651 0.05929454 0.4037066
vn 0.975812 -0.03236579 -0.2162024
vn 0.8551222 0.01740696 0.5181342
vn 0.9888221 0.0760365 -0.1282542
vn 0.6540816 0.09716829 -0.7501571
vn 0.9782073 0.02950035 0.2055242
vn 0.9599707 0.1017304 0.2609736
vn 0.9073197 0.1035365 -0.4074937
vn 0.6591778 0.07005815 0.7487166
vn 0.7981579 0.5279226 0.2902441
vn -0.2405827 0.05925163 0.9688185
vn -0.1710078 0.8602015 -0.4804267
vn 0.8152401 -0.02822503 -0.5784348
vn 0.9839023 0.06929762 0.1647245
vn 0.9349677 -0.1056272 -0.338642
vn 0.9899486 0.07053779 -0.1225811
vn -0.2314555 0.05786999 0.9711227
vn -0.922078 0.03379042 0.385526
vn -0.8992018 -0.1038717 0.4250255
vn -0.680076 0.04052136 0.732021
vn -0.9961094 0.08783192 0.007176987
vn 0.2207197 -0.09031811 0.9711465
vn 0.3244566 0.1659352 0.9312322
vn 0.6119889 0.2668431 0.7444894
vn -0.02753677 -0.7796997 0.6255478
vn -0.6224181 0.1274824 -0.7722331
vn -0.8655553 0.03376839 -0.4996737
vn -0.5971352 0.05509203 -0.8002464
vn -0.1683436 -0.08339839 -0.9821941
vn 0.4493819 -0.3294359 -0.8303782
vn 0.1329849 0.06541946 -0.9889567
vn 0.8475204 -0.1590328 -0.5063773
vn 0.272867 0.09631181 -0.9572187
vn -0.0609263 0.08021923 -0.9949135
vn -0.7762723 -0.002632717 -0.6303922
vn 0.9646764 -0.00261148 -0.2634247
vn 0.6198722 0.02211926 -0.784391
vn -0.9873393 0.1093696 -0.1148894
vn 0.5124972 0.08690822 -0.8542795
vn -0.2583617 0.05930942 -0.9642259
vn -0.5659576 0.1180244 -0.8159425
vn -0.9941804 0.07195783 -0.0801715
vn 0.2405186 0.132397 -0.9615725
vn 0.9647964 0.08156745 -0.250029
vn 0.6607184 0.1331569 -0.7387289
vn -0.978284 0.1205621 0.1685977
vn -0.786046 -0.2903979 -0.5457112
vn -0.5181808 0.6338619 -0.5742019
vn -0.0313291 0.1676623 -0.9853466
vn 0.8415004 0.4009945 -0.3620503
vn -0.8127946 0.3848182 0.4373554
vn 0.8193947 0.2472832 0.5171493
vn 0.3331212 0.8131464 0.4773083
vn 0.9257311 0.3158839 0.2079403
vn 0.8923018 0.4512205 0.0140522
vn 0.01063871 0.9187889 -0.3946058
vn -0.3085712 0.8558585 -0.4150783
vn -0.3928041 0.8270777 -0.4020541
vn -0.9370275 0.08099064 0.3397351
vn 0.1320718 0.3620346 0.9227611
vn 0.3110297 0.4859756 -0.8167546
vn 0.2923068 -0.9556884 -0.03487821
vn 0.6515282 0.1395271 0.7456831
g valley_tree07_0
f 3/3/3 2/2/2 1/1/1
f 3/3/3 4/4/4 2/2/2
f 3/3/3 1/1/1 5/5/5
f 4/4/4 3/3/3 5/5/5
f 2/2/2 6/6/6 1/1/1
f 7/7/7 2/2/2 4/4/4
f 7/7/7 6/6/6 2/2/2
f 8/8/8 5/5/5 1/1/1
f 9/9/9 1/1/1 6/6/6
f 1/1/1 9/9/9 8/8/8
f 10/10/10 6/6/6 7/7/7
f 7/7/7 4/4/4 11/11/11
f 11/11/11 10/10/10 7/7/7
f 9/9/9 6/6/6 12/12/12
f 6/6/6 10/10/10 12/12/12
f 13/13/13 9/9/9 12/12/12
f 14/14/14 8/8/8 9/9/9
f 9/9/9 13/13/13 14/14/14
f 12/12/12 10/10/10 15/15/15
f 15/15/15 13/13/13 12/12/12
f 16/16/16 10/10/10 11/11/11
f 17/17/17 15/15/15 10/10/10
f 10/10/10 16/16/16 17/17/17
f 13/13/13 15/15/15 18/18/18
f 17/17/17 18/18/18 15/15/15
f 4/4/4 19/19/19 11/11/11
f 11/11/11 19/19/19 16/16/16
f 13/13/13 20/20/20 14/14/14
f 13/13/13 18/18/18 20/20/20
f 20/20/20 21/21/21 14/14/14
f 20/20/20 22/22/22 21/21/21
f 22/22/22 23/23/23 21/21/21
f 21/21/21 23/23/23 24/24/24
f 25/25/25 23/23/23 22/22/22
f 26/26/26 23/23/23 25/25/25
f 25/25/25 27/27/27 26/26/26
f 28/28/28 20/20/20 18/18/18
f 22/22/22 20/20/20 28/28/28
f 18/18/18 29/29/29 28/28/28
f 28/28/28 29/29/29 22/22/22
f 30/30/30 21/21/21 24/24/24
f 24/24/24 31/31/31 30/30/30
f 21/21/21 30/30/30 32/32/32
f 33/33/33 31/31/31 24/24/24
f 34/34/34 33/33/33 23/23/23
f 35/35/35 34/34/34 31/31/31
f 35/35/35 33/33/33 34/34/34
f 25/25/25 36/36/36 27/27/27
f 25/25/25 22/22/22 36/36/36
f 22/22/22 27/27/27 36/36/36
f 22/22/22 37/37/37 27/27/27
f 29/29/29 37/37/37 22/22/22
f 27/27/27 37/37/37 36/36/36
f 36/36/36 26/26/26 27/27/27
f 37/37/37 26/26/26 36/36/36
f 29/29/29 26/26/26 37/37/37
f 38/38/38 21/21/21 32/32/32
f 32/32/32 39/39/39 38/38/38
f 40/40/40 39/39/39 32/32/32
f 21/21/21 38/38/38 14/14/14
f 14/14/14 38/38/38 41/41/41
f 38/38/38 39/39/39 41/41/41
f 41/41/41 8/8/8 14/14/14
f 41/41/41 42/42/42 8/8/8
f 41/41/41 39/39/39 42/42/42
f 8/8/8 42/42/42 5/5/5
f 43/43/43 40/40/40 32/32/32
f 43/43/43 32/32/32 30/30/30
f 43/43/43 30/30/30 44/44/44
f 45/45/45 43/43/43 44/44/44
f 43/43/43 46/46/46 40/40/40
f 45/45/45 46/46/46 43/43/43
f 42/42/42 47/47/47 5/5/5
f 48/48/48 42/42/42 39/39/39
f 42/42/42 48/48/48 47/47/47
f 5/5/5 47/47/47 49/49/49
f 4/4/4 5/5/5 49/49/49
f 50/50/50 4/4/4 49/49/49
f 4/4/4 50/50/50 19/19/19
f 51/51/51 19/19/19 50/50/50
f 16/16/16 19/19/19 51/51/51
f 50/50/50 49/49/49 52/52/52
f 51/51/51 50/50/50 52/52/52
f 16/16/16 51/51/51 53/53/53
f 53/53/53 51/51/51 52/52/52
f 17/17/17 16/16/16 53/53/53
f 54/54/54 49/49/49 47/47/47
f 52/52/52 49/49/49 54/54/54
f 48/48/48 55/55/55 47/47/47
f 55/55/55 54/54/54 47/47/47
f 48/48/48 39/39/39 56/56/56
f 48/48/48 56/56/56 55/55/55
f 57/57/57 17/17/17 53/53/53
f 17/17/17 57/57/57 18/18/18
f 18/18/18 57/57/57 29/29/29
f 58/58/58 53/53/53 52/52/52
f 58/58/58 57/57/57 53/53/53
f 58/58/58 29/29/29 57/57/57
f 52/52/52 54/54/54 58/58/58
f 29/29/29 58/58/58 54/54/54
f 29/29/29 54/54/54 26/26/26
f 54/54/54 55/55/55 26/26/26
f 59/59/59 56/56/56 39/39/39
f 59/59/59 39/39/39 40/40/40
f 26/26/26 55/55/55 60/60/60
f 60/60/60 23/23/23 26/26/26
f 55/55/55 56/56/56 61/61/61
f 59/59/59 61/61/61 56/56/56
f 60/60/60 55/55/55 61/61/61
f 61/61/61 59/59/59 62/62/62
f 59/59/59 40/40/40 63/63/63
f 63/63/63 62/62/62 59/59/59
f 60/60/60 61/61/61 64/64/64
f 61/61/61 62/62/62 64/64/64
f 64/64/64 65/65/65 60/60/60
f 34/34/34 23/23/23 60/60/60
f 34/34/34 60/60/60 65/65/65
f 66/66/66 64/64/64 62/62/62
f 65/65/65 64/64/64 66/66/66
f 40/40/40 67/67/67 63/63/63
f 68/68/68 67/67/67 40/40/40
f 40/40/40 46/46/46 68/68/68
f 63/63/63 69/69/69 62/62/62
f 70/70/70 66/66/66 62/62/62
f 69/69/69 70/70/70 62/62/62
f 71/71/71 66/66/66 70/70/70
f 69/69/69 71/71/71 70/70/70
f 63/63/63 72/72/72 69/69/69
f 67/67/67 72/72/72 63/63/63
f 66/66/66 71/71/71 73/73/73
f 66/66/66 73/73/73 65/65/65
f 71/71/71 69/69/69 74/74/74
f 74/74/74 69/69/69 72/72/72
f 71/71/71 74/74/74 73/73/73
f 72/72/72 44/44/44 74/74/74
f 74/74/74 44/44/44 73/73/73
f 72/72/72 67/67/67 44/44/44
f 73/73/73 30/30/30 65/65/65
f 44/44/44 30/30/30 73/73/73
f 35/35/35 65/65/65 30/30/30
f 35/35/35 34/34/34 65/65/65
f 75/75/75 35/35/35 30/30/30
f 31/31/31 75/75/75 30/30/30
f 75/75/75 35/35/35 31/31/31
f 31/31/31 34/34/34 76/76/76
f 35/35/35 76/76/76 34/34/34
f 75/75/75 76/76/76 35/35/35
f 75/75/75 31/31/31 76/76/76
f 75/75/75 33/33/33 35/35/35
f 75/75/75 31/31/31 33/33/33
f 44/44/44 67/67/67 77/77/77
f 77/77/77 67/67/67 78/78/78
f 77/77/77 78/78/78 44/44/44
f 67/67/67 68/68/68 78/78/78
f 78/78/78 45/45/45 44/44/44
f 78/78/78 77/77/77 45/45/45
f 77/77/77 78/78/78 79/79/79
f 78/78/78 68/68/68 79/79/79
f 77/77/77 79/79/79 45/45/45
f 80/80/80 79/79/79 68/68/68
f 80/80/80 68/68/68 46/46/46
f 81/81/81 46/46/46 45/45/45
f 45/45/45 79/79/79 81/81/81
f 79/79/79 80/80/80 81/81/81
f 81/81/81 80/80/80 46/46/46
f 33/33/33 82/82/82 23/23/23
f 82/82/82 83/83/83 23/23/23
f 24/24/24 23/23/23 83/83/83
f 82/82/82 33/33/33 84/84/84
f 82/82/82 84/84/84 83/83/83
f 83/83/83 84/84/84 24/24/24
f 84/84/84 33/33/33 24/24/24
