g valley_rockLip01
v 2.260937 -3.380244 2.05636
v 3.737199 -3.39216 1.441676
v 3.751767 -3.488056 1.286238
v 4.987673 -2.19178 1.429827
v 2.157168 -3.530184 1.872443
v 0.4242125 -3.551214 2.04248
v 1.051948 -4.024661 -0.2730898
v 0.57671 -1.138291 4.1213
v -3.664451 -2.72994 0.2693578
v -1.591809 -0.9823257 4.207102
v -2.419383 -2.646788 2.089714
v -3.524192 -2.544735 1.496996
v 3.922637 -2.14785 2.379936
v -2.518832 -1.724591 3.281769
v 3.876105 -1.236438 2.885925
v 5.92406 -0.7498065 1.203491
v 3.900283 -1.150723 2.942123
v 4.953572 -3.151655 0.2849503
v 5.646497 -2.265548 -0.409139
v 3.823436 -3.767694 -0.1263115
v 4.634357 -3.293996 -0.5956381
v 3.465947 -3.376608 -1.57791
v 4.674813 -3.217913 -0.7114124
v 5.80605 -1.207984 0.3926544
v 3.907417 -3.252675 -1.542291
v 5.600525 -1.204346 -1.287862
v 4.739217 -2.210733 -2.041871
v 4.342702 -1.229143 -2.951278
v 4.523377 -2.279518 -2.224058
v 5.952184 -0.7192312 -1.391948
v 5.356614 -0.7065282 -2.416542
v 0.3314468 -3.493972 -1.907233
v -1.780426 -3.025947 -1.855176
v 2.110506 -2.264128 -3.13821
v 1.88873 -2.692399 -2.380091
v -1.42944 -2.278677 -2.67611
v 0.8826923 -3.269586 -2.230777
v 0.9323699 -3.454456 -2.093112
v 0.1770082 -3.323187 -2.219863
v -1.755952 -2.853623 -2.021287
v -3.596877 -2.564467 -0.9334573
v -3.677445 -2.413352 -1.075766
v -3.350324 -1.858252 -2.112202
v -4.38188 -1.826258 -0.5429708
v -3.979453 -2.508646 0.05510922
v -0.9108137 -1.898271 -3.26341
v -3.891743 -2.553992 0.4418706
v -4.594559 -1.852729 0.2851599
v -4.490247 -1.271576 1.942665
v 2.363631 -1.144568 -3.71814
v -5.221271 -0.7710314 -0.3792209
v -3.89694 -0.6821116 3.469801
v -0.8153459 -1.053499 -3.646247
v -3.669776 -1.190525 -2.300048
v 3.674715 -0.7392185 -3.961171
v 2.850424 -0.6542971 -4.288709
v 4.57796 -0.6471782 -3.272917
v 4.607834 -0.3970712 -3.370648
v 5.410003 -0.3945144 -2.434652
v 5.963873 -0.6084552 -1.388789
v 3.698184 -0.592918 -4.022875
v 5.011369 1.173021 -1.85891
v 5.992425 -0.6616492 1.117218
v 5.60794 0.9939896 0.317421
v 2.91798 -0.536808 -4.310923
v 3.496811 0.4552312 -3.911543
v 1.056956 -0.5796883 -4.550005
v 1.276776 -0.3563595 -4.621345
v 3.823812 1.002002 -3.457695
v -0.6263596 -0.6151595 -4.413504
v 1.308505 0.8808882 -4.289612
v -3.70608 -1.077696 -2.352039
v 3.36025 2.158572 -2.152122
v 4.627389 1.654661 -1.001152
v 4.757714 1.699964 0.9131114
v 1.665902 1.516575 -3.312696
v 3.716407 2.626956 -0.8554276
v -4.836202 -0.690287 -1.520042
v -4.40811 -0.7400333 -2.132759
v -4.302749 -1.563302 -1.47761
v -0.7113796 -0.4732867 -4.460379
v -4.491663 -0.6357266 -2.083
v -4.403749 0.4332903 -1.66701
v -4.972871 -0.5560533 -1.399452
v -0.495858 0.6433588 -4.325311
v -0.2118062 -0.3567045 -4.582706
v -0.02844673 0.5325179 -4.470618
v -0.3811111 0.7851371 -4.220661
v 0.02415606 1.037287 -3.594173
v 0.1210661 2.018369 -2.832176
v -4.966838 -0.6691945 -1.351181
v -1.563985 0.7502096 -3.231667
v 1.841205 2.309879 -2.726318
v 2.198062 2.764736 -1.661232
v 0.4741716 2.727555 -1.748383
v 1.129047 2.815865 2.18132
v -3.225217 1.825446 -0.4464798
v -4.472284 -1.489314 -1.232719
v -4.234318 -1.679426 -1.332941
v -3.724337 -1.81426 -1.786204
v -4.321621 -1.821591 -0.7514542
v -5.241361 -0.5967772 -0.3916469
v -5.118484 -0.5986262 1.779793
v -4.749686 -0.5837609 2.694419
v -5.142373 -0.4964326 1.761864
v -5.093695 0.5206369 0.5816727
v -4.802976 -0.3532843 2.710355
v -4.66571 -0.4188877 2.949266
v -4.708551 0.5985485 2.039452
v -3.833538 1.45546 1.610703
v -4.330727 1.087661 0.2090378
v -3.612773 0.9684293 -1.47315
v -3.939741 -0.472166 3.56454
v -4.159791 0.1570953 3.449334
v -4.209659 0.3337358 3.322991
v -3.373345 0.5624214 4.017025
v -4.029341 0.7369991 3.085951
v -3.708537 -0.6265478 3.66915
v -3.082803 -0.5806119 4.197046
v -3.168262 -0.4494862 4.223273
v -1.673135 -0.6116213 4.906097
v -0.01499367 -0.6289661 5.106064
v 1.737278 -0.564187 4.800491
v -1.678137 -0.5208549 4.952843
v -1.506628 -0.5327436 5.001717
v -0.9634406 0.009246106 5.229121
v -0.09859848 -0.5466369 5.172661
v 1.745645 -0.4776549 4.834507
v -0.7679631 -0.05724983 5.264426
v 1.863543 0.8822669 4.484451
v -0.3540148 0.735828 4.969441
v -0.5403264 0.8056787 4.903002
v -0.300063 0.8478432 4.883235
v 0.3859177 1.8604 3.956379
v 0.4640865 1.806111 4.011055
v -0.9679708 1.8549 3.102707
v -0.9962463 2.286281 2.43541
v 0.8635116 1.381413 4.094063
v 1.687093 2.133792 3.408855
v 1.645244 2.216733 3.359138
v 1.853198 0.9698075 4.423397
v 2.30277 2.814733 1.252518
v 2.680899 2.809956 1.045151
v 3.615687 2.28941 2.037567
v 3.971693 2.635412 0.7418823
v 4.062303 2.581439 0.7245026
v 3.689939 2.216794 2.078232
v 3.812138 1.491237 2.551865
v 1.887243 1.6617 3.360474
v 3.865118 1.412881 2.60878
v 1.936649 1.571805 3.401081
v 4.785046 1.066825 2.593468
v 2.993636 1.066293 3.83688
v 5.706576 -0.001809265 1.818901
v 4.797357 0.9831333 2.661835
v 3.024311 0.9754252 3.880341
v 3.746727 0.5915185 3.502107
v 5.671579 -0.5619793 1.890831
v 4.471669 -0.4809389 3.258072
v 5.591169 -0.652267 1.923904
v 2.165398 0.9050928 4.319839
v 4.439972 -0.5805069 3.244339
v 3.315401 -0.1727646 4.14043
v 2.835732 -0.6623992 4.190735
v 3.28191 -0.2803048 4.152637
v 2.060969 -0.5262283 4.686871
v 2.754658 0.4104825 4.311996
v 2.175577 0.8103104 4.363937
v 2.76187 0.5058323 4.249809
v 2.76187 0.621605 4.068359
v 3.286271 0.5812182 3.81189
v 2.770086 0.7119725 4.01263
v -3.398689 1.020168 -1.571815
v -1.402883 0.8924735 -2.892656
v -3.43182 0.9471401 -1.641663
v -1.481513 0.8257147 -2.960469
vn 0.200558 -0.6118044 0.7651614
vn 0.3623959 -0.4981448 0.7877314
vn 0.2417072 -0.9286341 0.2814539
vn 0.6784704 -0.4580333 0.5743547
vn 0.07955472 -0.9666293 0.2435136
vn -0.1366974 -0.8873544 0.4403589
vn -0.1055949 -0.9937989 -0.03483545
vn 0.07731308 -0.7167975 0.692982
vn -0.2882993 -0.9570448 0.03079983
vn -0.1414843 -0.7374939 0.6603673
vn -0.2526538 -0.778237 0.5749026
vn -0.4394502 -0.8317698 0.3391793
vn 0.3695435 -0.5664805 0.7365714
vn -0.3132794 -0.6947146 0.6474779
vn 0.4260509 -0.4299383 0.7960111
vn 0.7907838 -0.4371293 0.428461
vn 0.3646781 -0.749808 0.552085
vn 0.6883186 -0.6786082 0.2563363
vn 0.9020617 -0.4206536 -0.09661977
vn 0.186091 -0.9821193 -0.0284922
vn 0.4896805 -0.8481825 -0.2019889
vn 0.1460541 -0.8486283 -0.5084273
vn 0.5959385 -0.6353659 -0.4910879
vn 0.9339185 -0.3377747 0.1170666
vn 0.5091365 -0.7275494 -0.4598389
vn 0.8401158 -0.3969825 -0.3696083
vn 0.7115125 -0.4867069 -0.5068198
vn 0.4416239 -0.5425601 -0.7145606
vn 0.2999123 -0.5961516 -0.7447521
vn 0.858709 -0.4550267 -0.2357319
vn 0.680409 -0.5260113 -0.5102508
vn -0.07335658 -0.9514623 -0.2988952
vn -0.2861671 -0.9381847 -0.1947246
vn 0.08653488 -0.666306 -0.7406403
vn 0.09009025 -0.7002541 -0.7081863
vn -0.2318138 -0.6622027 -0.7125657
vn 0.08258763 -0.4315425 -0.8983041
vn 0.09447909 -0.8901618 -0.4457418
vn -0.03944917 -0.4983512 -0.8660773
vn -0.3629216 -0.6540219 -0.6637343
vn -0.4100571 -0.874559 -0.2588429
vn -0.5817543 -0.6478719 -0.491756
vn -0.415784 -0.6218362 -0.6636591
vn -0.7578589 -0.5963242 -0.2646646
vn -0.6816587 -0.7141742 -0.1590489
vn -0.1793018 -0.5520441 -0.8143084
vn -0.6706994 -0.7119803 0.2079575
vn -0.830133 -0.5425662 0.128457
vn -0.6594476 -0.6487645 0.3797811
vn 0.07805817 -0.6097741 -0.788722
vn -0.8834758 -0.4665514 -0.04243015
vn -0.4680853 -0.6842073 0.5592464
vn -0.1805639 -0.6293041 -0.7558922
vn -0.4727235 -0.430254 -0.7690344
vn 0.2774042 -0.7419947 -0.6103202
vn 0.07510766 -0.7002088 -0.7099764
vn 0.6232188 -0.4425599 -0.6447784
vn 0.7061601 0.2239206 -0.6717123
vn 0.80313 0.267101 -0.5325779
vn 0.9453827 0.2620031 -0.1939228
vn 0.4950567 0.02396793 -0.86853
vn 0.7420635 0.5664571 -0.3584244
vn 0.9892519 0.1377984 0.04891082
vn 0.8746781 0.4847041 -0.0005310434
vn 0.2342949 0.111738 -0.9657228
vn 0.3446428 0.3483548 -0.8717054
vn 0.01352444 -0.7981724 -0.6022771
vn 0.1323726 0.09372364 -0.986759
vn 0.4486774 0.6249635 -0.6388342
vn -0.2091751 -0.7234257 -0.6579521
vn 0.09351864 0.5741325 -0.8134041
vn -0.4417204 -0.4940855 -0.7488409
vn 0.3631482 0.7838365 -0.5037099
vn 0.6497817 0.7434555 -0.158296
vn 0.697271 0.702737 0.1413288
vn 0.0784379 0.7404968 -0.6674669
vn 0.3949182 0.9038252 -0.1647412
vn -0.7040749 -0.4665855 -0.5353283
vn -0.5132295 -0.4731895 -0.7160218
vn -0.636903 -0.4817846 -0.6018623
vn -0.5236511 0.1238064 -0.8428888
vn -0.5632542 0.2622959 -0.7835467
vn -0.6122038 0.5105335 -0.6037899
vn -0.8788597 0.3295471 -0.3449698
vn -0.505358 0.2974055 -0.810039
vn -0.1185423 -0.0447539 -0.99194
vn -0.08112799 0.2951199 -0.9520097
vn -0.2229465 0.8806751 -0.4179786
vn -0.206076 0.7880465 -0.5800995
vn -0.2895253 0.7604569 -0.5812747
vn -0.8299165 -0.4726488 -0.2963812
vn -0.2410063 0.9279082 -0.2844329
vn 0.1124145 0.7616649 -0.6381454
vn 0.06396922 0.986487 -0.1508358
vn -0.2006867 0.9721746 -0.1208366
vn -0.1319171 0.9849927 0.111298
vn -0.3474259 0.9279159 -0.1351567
vn -0.7923694 -0.5491729 -0.2656311
vn -0.5548207 -0.7684122 -0.3189308
vn -0.3799444 -0.8797659 -0.2857521
vn -0.4441563 -0.8748977 -0.1930781
vn -0.9576238 0.2313107 -0.171616
vn -0.8200331 -0.5515485 0.1527741
vn -0.6460874 -0.6145239 0.4526935
vn -0.9754122 0.1352881 0.1739769
vn -0.8834482 0.4665921 -0.04255661
vn -0.889614 0.2461979 0.3846733
vn -0.7359719 -0.170565 0.6551741
vn -0.7773291 0.576219 0.2524505
vn -0.3908827 0.8990061 0.1974809
vn -0.6079191 0.7822673 -0.1359859
vn -0.4380234 0.7731748 -0.4586243
vn -0.6312373 -0.1711466 0.756471
vn -0.6723689 0.05499184 0.7381707
vn -0.760595 0.4252329 0.4905836
vn -0.385874 0.7072014 0.592425
vn -0.4895337 0.7797123 0.3903916
vn -0.3878629 -0.7323244 0.5596994
vn -0.325594 -0.7869028 0.5241873
vn -0.4956824 0.004374626 0.8684928
vn -0.1836042 -0.826202 0.532616
vn 0.01659915 -0.8439246 0.5362049
vn 0.1597775 -0.8492714 0.5031989
vn -0.4283708 -0.004513162 0.9035918
vn -0.1571837 -0.448084 0.8800647
vn -0.3129713 0.3637427 0.8773483
vn 0.09528965 -0.1785741 0.9793015
vn 0.2310207 0.1644138 0.9589565
vn 0.07470624 0.09831347 0.9923474
vn 0.2213377 0.2766727 0.9351267
vn 0.1496853 0.312729 0.9379738
vn -0.253763 0.6892748 0.678605
vn 0.08839381 0.6495104 0.7551972
vn -0.2130061 0.8447061 0.4910194
vn 0.2087888 0.562556 0.7999613
vn -0.2895937 0.8515505 0.4370323
vn -0.2667148 0.9470043 0.1790139
vn 0.2100693 0.6671443 0.7146953
vn 0.4205601 0.4106222 0.8090233
vn 0.13158 0.8888435 0.4389122
vn 0.1686566 0.7758144 0.6080024
vn 0.07914918 0.9885706 0.1283106
vn 0.1156954 0.9903529 0.07626038
vn 0.2433413 0.8985462 0.3652394
vn 0.2052887 0.9728392 0.1069597
vn 0.756532 0.650482 0.06732281
vn 0.6000045 0.5590839 0.5722061
vn 0.5339348 0.5343646 0.655262
vn 0.4363703 0.2061809 0.8758255
vn 0.3259608 0.8389866 0.4357189
vn 0.2401858 0.8132924 0.5299681
vn 0.591087 0.7219113 0.3598059
vn 0.2783726 0.817458 0.504253
vn 0.866442 0.3117511 0.3899868
vn 0.6688298 0.2174186 0.7109119
vn 0.4807957 0.3081729 0.8208929
vn 0.5760427 0.2394595 0.7815587
vn 0.8138589 -0.06710497 0.5771747
vn 0.6704018 0.09055784 0.7364514
vn 0.5348554 -0.7331811 0.4199705
vn 0.4063952 0.4468456 0.7969767
vn 0.5051559 -0.6326942 0.5869545
vn 0.5418697 0.1678163 0.8235381
vn 0.3244019 -0.7043554 0.6313848
vn 0.4765771 -0.3340051 0.8132126
vn 0.4084072 -0.2402356 0.8806193
vn 0.3982639 0.2157435 0.8915384
vn 0.4394923 0.4830579 0.7572989
vn 0.4440422 0.6017193 0.6638979
vn 0.4392578 0.6421497 0.6282486
vn 0.4469616 0.5685164 0.6906622
vn 0.475821 0.212875 0.8533925
vn -0.396072 0.7637205 -0.5097627
vn -0.4044899 0.6201254 -0.6721848
vn -0.3729177 0.7566227 -0.5370797
vn -0.2101297 0.9159254 -0.3419448
g valley_rockLip01_0
f 3/3/3 2/2/2 1/1/1
f 4/4/4 1/1/1 2/2/2
f 3/3/3 4/4/4 2/2/2
f 5/5/5 3/3/3 1/1/1
f 1/1/1 6/6/6 5/5/5
f 3/3/3 5/5/5 7/7/7
f 6/6/6 7/7/7 5/5/5
f 1/1/1 8/8/8 6/6/6
f 6/6/6 9/9/9 7/7/7
f 6/6/6 8/8/8 10/10/10
f 11/11/11 6/6/6 10/10/10
f 12/12/12 6/6/6 11/11/11
f 6/6/6 12/12/12 9/9/9
f 4/4/4 13/13/13 1/1/1
f 8/8/8 1/1/1 13/13/13
f 14/14/14 11/11/11 10/10/10
f 11/11/11 14/14/14 12/12/12
f 4/4/4 15/15/15 13/13/13
f 8/8/8 13/13/13 15/15/15
f 15/15/15 4/4/4 16/16/16
f 17/17/17 8/8/8 15/15/15
f 17/17/17 15/15/15 16/16/16
f 18/18/18 4/4/4 3/3/3
f 4/4/4 18/18/18 19/19/19
f 20/20/20 18/18/18 3/3/3
f 3/3/3 7/7/7 20/20/20
f 20/20/20 21/21/21 18/18/18
f 19/19/19 18/18/18 21/21/21
f 22/22/22 21/21/21 20/20/20
f 7/7/7 22/22/22 20/20/20
f 23/23/23 21/21/21 22/22/22
f 23/23/23 19/19/19 21/21/21
f 4/4/4 24/24/24 16/16/16
f 19/19/19 24/24/24 4/4/4
f 25/25/25 23/23/23 22/22/22
f 19/19/19 23/23/23 25/25/25
f 24/24/24 19/19/19 26/26/26
f 27/27/27 19/19/19 25/25/25
f 19/19/19 27/27/27 26/26/26
f 28/28/28 26/26/26 27/27/27
f 29/29/29 27/27/27 25/25/25
f 22/22/22 29/29/29 25/25/25
f 29/29/29 28/28/28 27/27/27
f 26/26/26 30/30/30 24/24/24
f 16/16/16 24/24/24 30/30/30
f 28/28/28 31/31/31 26/26/26
f 30/30/30 26/26/26 31/31/31
f 22/22/22 7/7/7 32/32/32
f 32/32/32 7/7/7 33/33/33
f 7/7/7 9/9/9 33/33/33
f 34/34/34 28/28/28 29/29/29
f 29/29/29 22/22/22 35/35/35
f 29/29/29 35/35/35 34/34/34
f 36/36/36 34/34/34 35/35/35
f 37/37/37 35/35/35 22/22/22
f 35/35/35 37/37/37 36/36/36
f 38/38/38 22/22/22 32/32/32
f 38/38/38 37/37/37 22/22/22
f 37/37/37 38/38/38 32/32/32
f 39/39/39 37/37/37 32/32/32
f 39/39/39 32/32/32 33/33/33
f 37/37/37 39/39/39 36/36/36
f 40/40/40 39/39/39 33/33/33
f 40/40/40 36/36/36 39/39/39
f 40/40/40 33/33/33 41/41/41
f 41/41/41 33/33/33 9/9/9
f 42/42/42 40/40/40 41/41/41
f 42/42/42 36/36/36 40/40/40
f 41/41/41 9/9/9 42/42/42
f 36/36/36 42/42/42 43/43/43
f 44/44/44 43/43/43 42/42/42
f 42/42/42 45/45/45 44/44/44
f 9/9/9 45/45/45 42/42/42
f 34/34/34 36/36/36 46/46/46
f 46/46/46 36/36/36 43/43/43
f 45/45/45 9/9/9 47/47/47
f 9/9/9 12/12/12 47/47/47
f 47/47/47 48/48/48 45/45/45
f 12/12/12 48/48/48 47/47/47
f 48/48/48 44/44/44 45/45/45
f 12/12/12 49/49/49 48/48/48
f 49/49/49 12/12/12 14/14/14
f 46/46/46 50/50/50 34/34/34
f 28/28/28 34/34/34 50/50/50
f 48/48/48 51/51/51 44/44/44
f 48/48/48 49/49/49 51/51/51
f 52/52/52 49/49/49 14/14/14
f 10/10/10 52/52/52 14/14/14
f 53/53/53 50/50/50 46/46/46
f 54/54/54 53/53/53 46/46/46
f 43/43/43 54/54/54 46/46/46
f 55/55/55 28/28/28 50/50/50
f 56/56/56 50/50/50 53/53/53
f 50/50/50 56/56/56 55/55/55
f 28/28/28 55/55/55 57/57/57
f 31/31/31 28/28/28 57/57/57
f 58/58/58 57/57/57 55/55/55
f 59/59/59 31/31/31 57/57/57
f 58/58/58 59/59/59 57/57/57
f 59/59/59 60/60/60 31/31/31
f 60/60/60 30/30/30 31/31/31
f 55/55/55 56/56/56 61/61/61
f 61/61/61 58/58/58 55/55/55
f 58/58/58 62/62/62 59/59/59
f 62/62/62 60/60/60 59/59/59
f 30/30/30 60/60/60 63/63/63
f 16/16/16 30/30/30 63/63/63
f 62/62/62 64/64/64 60/60/60
f 64/64/64 63/63/63 60/60/60
f 56/56/56 65/65/65 61/61/61
f 61/61/61 66/66/66 58/58/58
f 65/65/65 66/66/66 61/61/61
f 65/65/65 56/56/56 67/67/67
f 53/53/53 67/67/67 56/56/56
f 68/68/68 65/65/65 67/67/67
f 65/65/65 68/68/68 66/66/66
f 69/69/69 58/58/58 66/66/66
f 58/58/58 69/69/69 62/62/62
f 67/67/67 53/53/53 70/70/70
f 68/68/68 67/67/67 70/70/70
f 69/69/69 66/66/66 71/71/71
f 66/66/66 68/68/68 71/71/71
f 70/70/70 53/53/53 72/72/72
f 72/72/72 53/53/53 54/54/54
f 69/69/69 73/73/73 62/62/62
f 62/62/62 74/74/74 64/64/64
f 74/74/74 62/62/62 73/73/73
f 75/75/75 64/64/64 74/74/74
f 71/71/71 76/76/76 69/69/69
f 73/73/73 69/69/69 76/76/76
f 73/73/73 77/77/77 74/74/74
f 74/74/74 77/77/77 75/75/75
f 72/72/72 54/54/54 78/78/78
f 70/70/70 72/72/72 79/79/79
f 79/79/79 72/72/72 78/78/78
f 78/78/78 54/54/54 80/80/80
f 80/80/80 54/54/54 43/43/43
f 81/81/81 70/70/70 79/79/79
f 82/82/82 79/79/79 78/78/78
f 82/82/82 81/81/81 79/79/79
f 82/82/82 83/83/83 81/81/81
f 82/82/82 84/84/84 83/83/83
f 84/84/84 82/82/82 78/78/78
f 85/85/85 81/81/81 83/83/83
f 70/70/70 81/81/81 86/86/86
f 86/86/86 81/81/81 85/85/85
f 86/86/86 68/68/68 70/70/70
f 87/87/87 68/68/68 86/86/86
f 87/87/87 86/86/86 85/85/85
f 71/71/71 68/68/68 87/87/87
f 88/88/88 87/87/87 85/85/85
f 88/88/88 71/71/71 87/87/87
f 85/85/85 83/83/83 88/88/88
f 71/71/71 88/88/88 89/89/89
f 76/76/76 71/71/71 89/89/89
f 90/90/90 76/76/76 89/89/89
f 78/78/78 91/91/91 84/84/84
f 78/78/78 80/80/80 91/91/91
f 83/83/83 92/92/92 88/88/88
f 92/92/92 89/89/89 88/88/88
f 76/76/76 90/90/90 93/93/93
f 73/73/73 76/76/76 93/93/93
f 94/94/94 73/73/73 93/93/93
f 73/73/73 94/94/94 77/77/77
f 93/93/93 90/90/90 95/95/95
f 94/94/94 93/93/93 95/95/95
f 96/96/96 94/94/94 95/95/95
f 95/95/95 90/90/90 97/97/97
f 95/95/95 97/97/97 96/96/96
f 80/80/80 98/98/98 91/91/91
f 98/98/98 80/80/80 99/99/99
f 80/80/80 43/43/43 99/99/99
f 43/43/43 100/100/100 99/99/99
f 100/100/100 43/43/43 44/44/44
f 98/98/98 44/44/44 91/91/91
f 99/99/99 101/101/101 98/98/98
f 100/100/100 101/101/101 99/99/99
f 101/101/101 44/44/44 98/98/98
f 101/101/101 100/100/100 44/44/44
f 91/91/91 44/44/44 51/51/51
f 84/84/84 91/91/91 51/51/51
f 102/102/102 84/84/84 51/51/51
f 84/84/84 102/102/102 83/83/83
f 51/51/51 103/103/103 102/102/102
f 51/51/51 49/49/49 103/103/103
f 103/103/103 49/49/49 104/104/104
f 52/52/52 104/104/104 49/49/49
f 103/103/103 105/105/105 102/102/102
f 103/103/103 104/104/104 105/105/105
f 102/102/102 106/106/106 83/83/83
f 102/102/102 105/105/105 106/106/106
f 104/104/104 107/107/107 105/105/105
f 104/104/104 52/52/52 108/108/108
f 104/104/104 108/108/108 107/107/107
f 109/109/109 106/106/106 105/105/105
f 107/107/107 109/109/109 105/105/105
f 109/109/109 110/110/110 106/106/106
f 106/106/106 111/111/111 83/83/83
f 111/111/111 106/106/106 110/110/110
f 112/112/112 83/83/83 111/111/111
f 92/92/92 83/83/83 112/112/112
f 111/111/111 110/110/110 97/97/97
f 97/97/97 112/112/112 111/111/111
f 52/52/52 113/113/113 108/108/108
f 107/107/107 108/108/108 114/114/114
f 114/114/114 108/108/108 113/113/113
f 107/107/107 115/115/115 109/109/109
f 115/115/115 107/107/107 114/114/114
f 114/114/114 116/116/116 115/115/115
f 114/114/114 113/113/113 116/116/116
f 116/116/116 117/117/117 115/115/115
f 115/115/115 117/117/117 109/109/109
f 110/110/110 109/109/109 117/117/117
f 110/110/110 117/117/117 116/116/116
f 118/118/118 113/113/113 52/52/52
f 52/52/52 10/10/10 118/118/118
f 113/113/113 118/118/118 119/119/119
f 10/10/10 119/119/119 118/118/118
f 120/120/120 113/113/113 119/119/119
f 116/116/116 113/113/113 120/120/120
f 119/119/119 10/10/10 121/121/121
f 119/119/119 121/121/121 120/120/120
f 10/10/10 122/122/122 121/121/121
f 10/10/10 8/8/8 122/122/122
f 122/122/122 8/8/8 123/123/123
f 17/17/17 123/123/123 8/8/8
f 121/121/121 124/124/124 120/120/120
f 121/121/121 122/122/122 125/125/125
f 124/124/124 121/121/121 125/125/125
f 124/124/124 126/126/126 120/120/120
f 116/116/116 120/120/120 126/126/126
f 122/122/122 127/127/127 125/125/125
f 127/127/127 122/122/122 123/123/123
f 128/128/128 127/127/127 123/123/123
f 124/124/124 125/125/125 129/129/129
f 125/125/125 127/127/127 129/129/129
f 126/126/126 124/124/124 129/129/129
f 128/128/128 129/129/129 127/127/127
f 129/129/129 128/128/128 130/130/130
f 126/126/126 129/129/129 131/131/131
f 131/131/131 129/129/129 130/130/130
f 132/132/132 126/126/126 131/131/131
f 116/116/116 126/126/126 132/132/132
f 131/131/131 130/130/130 133/133/133
f 132/132/132 131/131/131 133/133/133
f 116/116/116 132/132/132 134/134/134
f 133/133/133 135/135/135 132/132/132
f 135/135/135 134/134/134 132/132/132
f 134/134/134 136/136/136 116/116/116
f 116/116/116 136/136/136 110/110/110
f 136/136/136 137/137/137 110/110/110
f 137/137/137 97/97/97 110/110/110
f 137/137/137 136/136/136 96/96/96
f 96/96/96 97/97/97 137/137/137
f 136/136/136 134/134/134 96/96/96
f 138/138/138 135/135/135 133/133/133
f 135/135/135 139/139/139 134/134/134
f 135/135/135 138/138/138 139/139/139
f 134/134/134 140/140/140 96/96/96
f 139/139/139 140/140/140 134/134/134
f 130/130/130 141/141/141 133/133/133
f 133/133/133 141/141/141 138/138/138
f 96/96/96 140/140/140 142/142/142
f 94/94/94 96/96/96 142/142/142
f 143/143/143 94/94/94 142/142/142
f 77/77/77 94/94/94 143/143/143
f 144/144/144 142/142/142 140/140/140
f 142/142/142 144/144/144 143/143/143
f 145/145/145 77/77/77 143/143/143
f 145/145/145 143/143/143 144/144/144
f 145/145/145 146/146/146 77/77/77
f 146/146/146 145/145/145 144/144/144
f 146/146/146 75/75/75 77/77/77
f 147/147/147 144/144/144 140/140/140
f 147/147/147 146/146/146 144/144/144
f 139/139/139 147/147/147 140/140/140
f 147/147/147 75/75/75 146/146/146
f 148/148/148 147/147/147 139/139/139
f 148/148/148 75/75/75 147/147/147
f 149/149/149 139/139/139 138/138/138
f 149/149/149 148/148/148 139/139/139
f 150/150/150 75/75/75 148/148/148
f 148/148/148 149/149/149 150/150/150
f 149/149/149 138/138/138 151/151/151
f 149/149/149 151/151/151 150/150/150
f 138/138/138 141/141/141 151/151/151
f 150/150/150 152/152/152 75/75/75
f 75/75/75 152/152/152 64/64/64
f 150/150/150 151/151/151 153/153/153
f 153/153/153 151/151/151 141/141/141
f 152/152/152 150/150/150 153/153/153
f 154/154/154 64/64/64 152/152/152
f 154/154/154 63/63/63 64/64/64
f 152/152/152 153/153/153 155/155/155
f 152/152/152 155/155/155 154/154/154
f 156/156/156 153/153/153 141/141/141
f 153/153/153 156/156/156 155/155/155
f 157/157/157 155/155/155 156/156/156
f 154/154/154 158/158/158 63/63/63
f 63/63/63 158/158/158 16/16/16
f 154/154/154 155/155/155 159/159/159
f 159/159/159 158/158/158 154/154/154
f 155/155/155 157/157/157 159/159/159
f 158/158/158 160/160/160 16/16/16
f 158/158/158 159/159/159 160/160/160
f 16/16/16 160/160/160 17/17/17
f 161/161/161 156/156/156 141/141/141
f 161/161/161 141/141/141 130/130/130
f 159/159/159 162/162/162 160/160/160
f 162/162/162 17/17/17 160/160/160
f 159/159/159 157/157/157 163/163/163
f 162/162/162 159/159/159 163/163/163
f 162/162/162 164/164/164 17/17/17
f 123/123/123 17/17/17 164/164/164
f 165/165/165 164/164/164 162/162/162
f 165/165/165 162/162/162 163/163/163
f 123/123/123 164/164/164 166/166/166
f 166/166/166 164/164/164 165/165/165
f 128/128/128 123/123/123 166/166/166
f 166/166/166 165/165/165 128/128/128
f 165/165/165 163/163/163 128/128/128
f 163/163/163 167/167/167 128/128/128
f 130/130/130 128/128/128 167/167/167
f 167/167/167 163/163/163 157/157/157
f 130/130/130 167/167/167 168/168/168
f 168/168/168 161/161/161 130/130/130
f 167/167/167 169/169/169 168/168/168
f 167/167/167 157/157/157 169/169/169
f 168/168/168 170/170/170 161/161/161
f 170/170/170 168/168/168 169/169/169
f 157/157/157 171/171/171 169/169/169
f 171/171/171 170/170/170 169/169/169
f 170/170/170 172/172/172 161/161/161
f 170/170/170 171/171/171 172/172/172
f 171/171/171 157/157/157 172/172/172
f 161/161/161 172/172/172 156/156/156
f 157/157/157 156/156/156 172/172/172
f 112/112/112 97/97/97 90/90/90
f 173/173/173 112/112/112 90/90/90
f 173/173/173 90/90/90 174/174/174
f 174/174/174 90/90/90 89/89/89
f 112/112/112 173/173/173 175/175/175
f 173/173/173 174/174/174 175/175/175
f 175/175/175 92/92/92 112/112/112
f 174/174/174 89/89/89 176/176/176
f 89/89/89 92/92/92 176/176/176
f 174/174/174 176/176/176 175/175/175
f 176/176/176 92/92/92 175/175/175
