g valley_flag
v -1.085929E-10 -0.4105893 -0.05762391
v -1.085929E-10 -0.4344579 0
v 0.04074626 -0.4105893 -0.04074626
v -0.04074626 -0.4105893 -0.04074626
v 0.05762392 -0.4105893 0
v -0.0576239 -0.4105893 0
v 0.04074626 -0.4105893 0.04074626
v -0.04074626 -0.4105893 0.04074626
v -1.085929E-10 -0.4105893 0.05762391
v 0.04527875 -0.3287122 -0.04527875
v 0 -0.3021885 0
v 0 -0.3287122 -0.06403381
v 0.06403382 -0.3287122 0
v -0.04527875 -0.3287122 -0.04527875
v 0.04527875 -0.3287122 0.04527875
v -0.06403381 -0.3287122 0
v 0 -0.3287122 0.06403381
v -0.04527875 -0.3287122 0.04527875
v 0.06956938 -0.3287122 -0.0695693
v 0.1136209 -0.3041157 -0.04706326
v 0.09089676 -0.3287122 -0.03765061
v 0.08696172 -0.3041157 -0.08696163
v 0.1363451 -0.3287122 -0.05647591
v 0.08696172 -0.3533087 -0.08696163
v 0.1136209 -0.3533087 -0.04706326
v 0.1043541 -0.3287122 -0.104354
v 0.0376507 -0.3287122 -0.0908967
v 0.04706338 -0.3041157 -0.1136209
v 0.05647606 -0.3287122 -0.1363451
v 0.04706338 -0.3533087 -0.1136209
v 4.984619E-08 -0.3287122 -0.09838591
v 6.230774E-08 -0.3041157 -0.1229824
v 7.476928E-08 -0.3287122 -0.1475789
v 6.230774E-08 -0.3533087 -0.1229824
v -0.03765061 -0.3287122 -0.09089674
v -0.04706327 -0.3041157 -0.1136209
v -0.05647593 -0.3287122 -0.1363451
v -0.04706327 -0.3533087 -0.1136209
v -0.06956932 -0.3287122 -0.06956937
v -0.08696165 -0.3041157 -0.08696172
v -0.104354 -0.3287122 -0.1043541
v -0.08696165 -0.3533087 -0.08696172
v -0.09089672 -0.3287122 -0.03765069
v -0.1136209 -0.3041157 -0.04706337
v -0.1136209 -0.3533087 -0.04706337
v -0.1363451 -0.3287122 -0.05647605
v -0.09089674 -0.3287122 0.03765063
v -0.1136209 -0.3041157 0.04706329
v -0.1229824 -0.2890328 -4.398193E-08
v -0.07329375 -0.3287122 -3.518555E-08
v -0.1136209 -0.3533087 0.04706329
v -0.1651427 -0.3287122 -5.277833E-08
v -0.1363451 -0.3287122 0.05647595
v -0.1229824 -0.3683917 -4.398193E-08
v -0.1136209 -0.3041157 -0.04706337
v -0.09089672 -0.3287122 -0.03765069
v -0.1363451 -0.3287122 -0.05647605
v -0.1136209 -0.3533087 -0.04706337
v 0.09089673 -0.3287122 0.03765066
v 0.1136209 -0.3041157 0.04706333
v 0.08696168 -0.3041157 0.08696169
v 0.06956934 -0.3287122 0.06956935
v 0.1136209 -0.3533087 0.04706333
v 0.104354 -0.3287122 0.104354
v 0.1363451 -0.3287122 0.05647599
v 0.08696168 -0.3533087 0.08696169
v 0.04706331 -0.3041157 0.1136209
v 0.03765065 -0.3287122 0.09089673
v 0.05647597 -0.3287122 0.1363451
v 0.04706331 -0.3533087 0.1136209
v -1.83258E-08 -0.3041157 0.1229824
v -1.466064E-08 -0.3287122 0.09838592
v -2.199097E-08 -0.3287122 0.1475789
v -1.83258E-08 -0.3533087 0.1229824
v -0.04706335 -0.3041157 0.1136209
v -0.03765067 -0.3287122 0.09089673
v -0.05647602 -0.3287122 0.1363451
v -0.04706335 -0.3533087 0.1136209
v -0.08696171 -0.3041157 0.08696166
v -0.06956936 -0.3287122 0.06956933
v -0.1043541 -0.3287122 0.104354
v -0.08696171 -0.3533087 0.08696166
v -0.1136209 -0.3041157 0.04706329
v -0.09089674 -0.3287122 0.03765063
v -0.1363451 -0.3287122 0.05647595
v -0.1136209 -0.3533087 0.04706329
v 0.06403381 -0.392746 -0.06403381
v 0.04527875 -0.3287122 -0.04527875
v 0 -0.3287122 -0.06403381
v 0 -0.392746 -0.09055749
v -0.04527875 -0.3287122 -0.04527875
v 0.0905575 -0.392746 0
v 0.06403382 -0.3287122 0
v -0.06403381 -0.392746 -0.06403381
v -0.06403381 -0.3287122 0
v 0.06403382 -0.392746 0.06403382
v 0.04527875 -0.3287122 0.04527875
v -0.09055749 -0.392746 0
v -0.04527875 -0.3287122 0.04527875
v 0 -0.392746 0.09055749
v 0 -0.3287122 0.06403381
v -0.06403381 -0.392746 0.06403381
v 0.05538687 -0.4222686 -0.05538687
v 0.07832886 -0.4222686 0
v 0 -0.4222686 -0.07832886
v 0.05538687 -0.4222686 0.05538687
v -0.05538687 -0.4222686 -0.05538687
v -0.07832886 -0.4222686 0
v -0.05538687 -0.4222686 0.05538687
v 0 -0.4222686 0.07832886
v 0.04074626 -0.4105893 -0.04074626
v -1.085929E-10 -0.4105893 -0.05762391
v 0.05762392 -0.4105893 0
v -0.04074626 -0.4105893 -0.04074626
v 0.04074626 -0.4105893 0.04074626
v -0.0576239 -0.4105893 0
v -1.085929E-10 -0.4105893 0.05762391
v -0.04074626 -0.4105893 0.04074626
v 0.07329386 -0.3287122 8.738425E-15
v 0.1229824 -0.2890328 8.738425E-15
v 0.1136209 -0.3041157 0.04706333
v 0.09089673 -0.3287122 0.03765066
v 0.1363451 -0.3287122 0.05647599
v 0.1229824 -0.3683916 8.738425E-15
v 0.1136209 -0.3533087 0.04706333
v 0.1651426 -0.3287122 8.738425E-15
v 0.09089676 -0.3287122 -0.03765061
v 0.1136209 -0.3041157 -0.04706326
v 0.1136209 -0.3533087 -0.04706326
v 0.1363451 -0.3287122 -0.05647591
v -0.06162207 0.1303234 -0.0269959
v -0.05797745 0.1303234 0.02542841
v -0.1082592 0.08924797 0.02542841
v -0.107532 0.09281931 -0.0269959
v 0.06162207 0.1303234 -0.0269959
v -0.06565242 0.08840517 -0.06412038
v -0.1303234 -0.0191161 -0.02542841
v -0.0879764 -0.02123453 -0.06412038
v 0 -0.02123453 -0.03029322
v 0.06565242 0.08840517 -0.06412038
v -0.06200708 -0.2777406 -0.06412038
v -0.1303234 -0.0191161 0.02542841
v -0.06565242 0.08840517 0.06412038
v -0.104118 -0.2779538 -0.02542841
v 0.06162207 0.1303234 0.0269959
v 0.107532 0.09281931 -0.0269959
v 0.06565242 0.08840517 0.06412038
v 0.1082592 0.08924797 0.02542841
v 0.06200708 -0.2777406 -0.06412038
v 0.0879764 -0.02123453 -0.06412038
v 0.1303234 -0.0191161 -0.02542841
v 0.1303234 -0.0191161 0.02542841
v 0.0879764 -0.02123453 0.06412038
v 0 -0.02123453 0.0302932
v 0.104118 -0.2779538 -0.02542841
v -0.05797745 -0.3196589 -0.02542841
v 0.06200708 -0.2777406 0.06412038
v 0.104118 -0.2779538 0.02542841
v 0.05994143 -0.3196589 -0.02627309
v 0.05797745 -0.3196589 0.02542841
v -0.0879764 -0.02123453 0.06412038
v -0.06200708 -0.2777406 0.06412038
v -0.05994143 -0.3196589 0.02627309
v -0.104118 -0.2779538 0.02542841
vt 0.5 0.5
vt 0.5 0.5
vt 0.5 0.5
vt 0.5 0.5
vt 0.5 0.5
vt 0.5 0.5
vt 0.5 0.5
vt 0.5 0.5
vt 0.5 0.5
vt 0.25 0.65
vt 0.25 0.65
vt 0.25 0.65
vt 0.25 0.65
vt 0.25 0.65
vt 0.25 0.65
vt 0.25 0.65
vt 0.25 0.65
vt 0.25 0.65
vt 0.25 0.35
vt 0.25 0.35
vt 0.25 0.35
vt 0.25 0.35
vt 0.25 0.35
vt 0.25 0.35
vt 0.25 0.35
vt 0.25 0.35
vt 0.25 0.35
vt 0.25 0.35
vt 0.25 0.35
vt 0.25 0.35
vt 0.25 0.35
vt 0.25 0.35
vt 0.25 0.35
vt 0.25 0.35
vt 0.25 0.35
vt 0.25 0.35
vt 0.25 0.35
vt 0.25 0.35
vt 0.25 0.35
vt 0.25 0.35
vt 0.25 0.35
vt 0.25 0.35
vt 0.25 0.35
vt 0.25 0.35
vt 0.25 0.35
vt 0.25 0.35
vt 0.25 0.65
vt 0.25 0.65
vt 0.25 0.65
vt 0.25 0.65
vt 0.25 0.65
vt 0.25 0.65
vt 0.25 0.65
vt 0.25 0.65
vt 0.25 0.65
vt 0.25 0.65
vt 0.25 0.65
vt 0.25 0.65
vt 0.25 0.35
vt 0.25 0.35
vt 0.25 0.35
vt 0.25 0.35
vt 0.25 0.35
vt 0.25 0.35
vt 0.25 0.35
vt 0.25 0.35
vt 0.25 0.35
vt 0.25 0.35
vt 0.25 0.35
vt 0.25 0.35
vt 0.25 0.35
vt 0.25 0.35
vt 0.25 0.35
vt 0.25 0.35
vt 0.25 0.35
vt 0.25 0.35
vt 0.25 0.35
vt 0.25 0.35
vt 0.25 0.35
vt 0.25 0.35
vt 0.25 0.35
vt 0.25 0.35
vt 0.25 0.35
vt 0.25 0.35
vt 0.25 0.35
vt 0.25 0.35
vt 0.25 0.65
vt 0.25 0.65
vt 0.25 0.65
vt 0.25 0.65
vt 0.25 0.65
vt 0.25 0.65
vt 0.25 0.65
vt 0.25 0.65
vt 0.25 0.65
vt 0.25 0.65
vt 0.25 0.65
vt 0.25 0.65
vt 0.25 0.65
vt 0.25 0.65
vt 0.25 0.65
vt 0.25 0.65
vt 0.25 0.65
vt 0.25 0.65
vt 0.25 0.65
vt 0.25 0.65
vt 0.25 0.65
vt 0.25 0.65
vt 0.25 0.65
vt 0.25 0.65
vt 0.25 0.65
vt 0.25 0.65
vt 0.25 0.65
vt 0.25 0.65
vt 0.25 0.65
vt 0.25 0.65
vt 0.25 0.65
vt 0.25 0.65
vt 0.25 0.65
vt 0.25 0.65
vt 0.25 0.65
vt 0.25 0.65
vt 0.25 0.65
vt 0.25 0.65
vt 0.25 0.65
vt 0.25 0.65
vt 0.25 0.65
vt 0.25 0.65
vt 0.25 0.65
vt 0.25 0.65
vt 0.25 0.65
vt 0.25 0.65
vt 0.25 0.65
vt 0.25 0.65
vt 0.25 0.65
vt 0.25 0.65
vt 0.25 0.65
vt 0.25 0.65
vt 0.25 0.65
vt 0.25 0.65
vt 0.25 0.65
vt 0.25 0.65
vt 0.25 0.65
vt 0.25 0.65
vt 0.25 0.65
vt 0.25 0.65
vt 0.25 0.65
vt 0.25 0.65
vt 0.25 0.65
vt 0.25 0.65
vt 0.25 0.65
vt 0.25 0.65
vt 0.25 0.65
vt 0.25 0.65
vt 0.25 0.65
vt 0.25 0.65
vt 0.25 0.65
vt 0.25 0.65
vt 0.25 0.65
vt 0.25 0.65
vt 0.25 0.65
vt 0.25 0.65
vt 0.25 0.65
vt 0.25 0.65
vn 0 -0.9238799 -0.3826826
vn 0 -1 0
vn 0.2705979 -0.9238797 -0.2705975
vn -0.2705979 -0.9238797 -0.2705976
vn 0.3826832 -0.9238796 0
vn -0.3826833 -0.9238795 0
vn 0.2705979 -0.9238797 0.2705975
vn -0.2705979 -0.9238797 0.2705976
vn 0 -0.9238799 0.3826826
vn 0.2705984 0.9238794 -0.2705983
vn 0 1 0
vn 0 0.9238793 -0.3826841
vn 0.3826839 0.9238793 0
vn -0.2705984 0.9238794 -0.2705983
vn 0.2705984 0.9238794 0.2705983
vn -0.3826839 0.9238793 0
vn 0 0.9238793 0.3826841
vn -0.2705984 0.9238794 0.2705983
vn -0.7071071 0 0.7071064
vn 0.1552918 0.9824041 -0.1037625
vn -0.8314699 0 0.5555698
vn 0.1296131 0.9830568 -0.129613
vn 0.83147 0 -0.5555696
vn 0.1296131 -0.983057 -0.1296124
vn 0.1552917 -0.9824042 -0.1037623
vn 0.7071074 0 -0.7071062
vn -0.3826839 0 0.9238794
vn 0.07014608 0.9830568 -0.1693476
vn 0.3826839 0 -0.9238793
vn 0.07014611 -0.983057 -0.169347
vn 0 0 1
vn 0 0.9830568 -0.183301
vn 0 0 -1
vn 0 -0.983057 -0.1833
vn 0.3826829 0 0.9238798
vn -0.07014594 0.9830568 -0.1693479
vn -0.3826829 0 -0.9238797
vn -0.07014593 -0.983057 -0.1693472
vn 0.7071064 0 0.7071071
vn -0.1296131 0.9830568 -0.129613
vn -0.7071064 0 -0.7071071
vn -0.129613 -0.9830568 -0.1296132
vn 0.8314695 0 0.5555704
vn -0.1552917 0.9824041 -0.1037628
vn -0.1552915 -0.9824041 -0.1037628
vn -0.8314694 0 -0.5555707
vn 0.9603513 0 0.2787929
vn -0.1286489 0.9230165 0.3626155
vn -0.1579591 0.9874456 0
vn 1 0 0
vn -0.1286488 -0.9230164 0.3626158
vn -1 0 0
vn -0.8847275 0 0.4661086
vn -0.157959 -0.9874456 0
vn -0.1286487 0.9230167 -0.3626152
vn 0.9603516 0 -0.2787917
vn -0.8847274 0 -0.4661089
vn -0.1286487 -0.9230165 -0.3626156
vn -0.8314693 0 -0.5555707
vn 0.1552916 0.9824041 0.1037629
vn 0.1296131 0.9830568 0.1296132
vn -0.7071066 0 -0.7071069
vn 0.1552918 -0.9824042 0.103762
vn 0.7071065 0 0.7071069
vn 0.8314695 0 0.5555704
vn 0.129613 -0.983057 0.129613
vn 0.07014609 0.9830568 0.1693476
vn -0.3826835 0 -0.9238795
vn 0.3826833 0 0.9238795
vn 0.07014592 -0.9830568 0.1693476
vn 0 0.983057 0.1833002
vn 0 0 -1
vn 0 0 1
vn 0 -0.983057 0.1833004
vn -0.07014618 0.983057 0.1693469
vn 0.3826836 0 -0.9238794
vn -0.3826839 0 0.9238794
vn -0.07014609 -0.983057 0.1693475
vn -0.1296132 0.983057 0.1296126
vn 0.7071068 0 -0.7071068
vn -0.707107 0 0.7071065
vn -0.129613 -0.983057 0.129613
vn -0.1552915 0.9824042 0.1037622
vn 0.8314695 0 -0.5555702
vn -0.8314697 0 0.5555701
vn -0.1552914 -0.9824042 0.1037624
vn 0.7005893 0.1354599 -0.7005892
vn 0.6532815 0.3826835 -0.6532815
vn 0 0.3826834 -0.9238795
vn 0 0.1354598 -0.9907828
vn -0.6532815 0.3826835 -0.6532815
vn 0.9907828 0.1354599 0
vn 0.9238794 0.3826837 0
vn -0.7005893 0.1354599 -0.7005892
vn -0.9238795 0.3826835 0
vn 0.7005894 0.1354599 0.7005892
vn 0.6532815 0.3826836 0.6532815
vn -0.9907828 0.1354598 0
vn -0.6532815 0.3826835 0.6532815
vn 0 0.1354598 0.9907828
vn 0 0.3826835 0.9238795
vn -0.7005893 0.1354598 0.7005892
vn 0.4850126 -0.7276853 -0.4850122
vn 0.6859112 -0.7276853 0
vn 0 -0.7276853 -0.6859112
vn 0.4850126 -0.7276853 0.4850122
vn -0.4850126 -0.7276853 -0.4850124
vn -0.6859112 -0.7276853 0
vn -0.4850126 -0.7276853 0.4850122
vn 0 -0.7276853 0.6859111
vn -0.347407 -0.870986 0.3474072
vn 0 -0.8709863 0.4913073
vn -0.4913078 -0.8709861 0
vn 0.347407 -0.8709862 0.3474068
vn -0.347407 -0.8709861 -0.3474069
vn 0.4913076 -0.8709861 0
vn 0 -0.8709863 -0.4913073
vn 0.347407 -0.8709861 -0.3474068
vn -1 0 0
vn 0.1579588 0.9874457 0
vn 0.128649 0.923017 0.3626143
vn -0.9603519 0 0.2787902
vn 0.8847278 0 0.466108
vn 0.1579588 -0.9874457 0
vn 0.1286491 -0.9230171 0.3626141
vn 1 0 0
vn -0.9603517 0 -0.2787914
vn 0.1286491 0.9230168 -0.3626148
vn 0.1286489 -0.9230168 -0.3626147
vn 0.8847277 0 -0.4661083
vn -0.1643454 0.9092384 -0.3824606
vn -0.1528471 0.9093663 0.3868986
vn -0.8591713 0.3423162 0.3803211
vn -0.8570041 0.354244 -0.3742394
vn 0.1603567 0.9093739 -0.3838291
vn -0.1959989 0.2308317 -0.9530484
vn -0.9114158 -0.009772089 -0.4113706
vn -0.2872858 -0.003647545 -0.957838
vn 0 -0.01702269 -0.9998552
vn 0.1959989 0.2308317 -0.9530484
vn -0.27259 -0.1240022 -0.9541059
vn -0.9118288 -0.008960614 0.4104728
vn -0.200621 0.2358723 0.9508499
vn -0.8952497 -0.1798416 -0.4076581
vn 0.1598918 0.9072012 0.3891281
vn 0.8571594 0.3491476 -0.3786471
vn 0.1940936 0.2382734 0.9516057
vn 0.8634042 0.3368155 0.3756177
vn 0.2705339 -0.1250937 -0.9545487
vn 0.2872858 -0.00364754 -0.957838
vn 0.9114158 -0.009772089 -0.4113706
vn 0.9118288 -0.00896061 0.4104728
vn 0.288425 -0.002462802 0.9574994
vn 0 -0.0170227 0.9998552
vn 0.8964717 -0.179476 -0.4051257
vn -0.1713299 -0.9076382 -0.3831958
vn 0.27259 -0.1240022 0.9541059
vn 0.8952497 -0.1798416 0.4076581
vn 0.1779916 -0.9062186 -0.3835191
vn 0.1713299 -0.9076382 0.3831958
vn -0.288425 -0.002462809 0.9574994
vn -0.2705338 -0.1250937 0.9545487
vn -0.1779916 -0.9062186 0.383519
vn -0.8964717 -0.179476 0.4051257
g valley_flag_0
f 3/3/3 2/2/2 1/1/1
f 1/1/1 2/2/2 4/4/4
f 5/5/5 2/2/2 3/3/3
f 4/4/4 2/2/2 6/6/6
f 7/7/7 2/2/2 5/5/5
f 6/6/6 2/2/2 8/8/8
f 9/9/9 2/2/2 7/7/7
f 8/8/8 2/2/2 9/9/9
f 12/12/12 11/11/11 10/10/10
f 10/10/10 11/11/11 13/13/13
f 14/14/14 11/11/11 12/12/12
f 13/13/13 11/11/11 15/15/15
f 16/16/16 11/11/11 14/14/14
f 15/15/15 11/11/11 17/17/17
f 18/18/18 11/11/11 16/16/16
f 17/17/17 11/11/11 18/18/18
f 21/21/21 20/20/20 19/19/19
f 20/20/20 22/22/22 19/19/19
f 20/20/20 23/23/23 22/22/22
f 21/21/21 19/19/19 24/24/24
f 25/25/25 21/21/21 24/24/24
f 23/23/23 25/25/25 26/26/26
f 23/23/23 26/26/26 22/22/22
f 25/25/25 24/24/24 26/26/26
f 19/19/19 22/22/22 27/27/27
f 22/22/22 26/26/26 28/28/28
f 22/22/22 28/28/28 27/27/27
f 26/26/26 24/24/24 29/29/29
f 26/26/26 29/29/29 28/28/28
f 24/24/24 19/19/19 30/30/30
f 19/19/19 27/27/27 30/30/30
f 24/24/24 30/30/30 29/29/29
f 27/27/27 28/28/28 31/31/31
f 28/28/28 29/29/29 32/32/32
f 28/28/28 32/32/32 31/31/31
f 29/29/29 30/30/30 33/33/33
f 29/29/29 33/33/33 32/32/32
f 30/30/30 27/27/27 34/34/34
f 27/27/27 31/31/31 34/34/34
f 30/30/30 34/34/34 33/33/33
f 31/31/31 32/32/32 35/35/35
f 32/32/32 33/33/33 36/36/36
f 32/32/32 36/36/36 35/35/35
f 33/33/33 34/34/34 37/37/37
f 33/33/33 37/37/37 36/36/36
f 34/34/34 31/31/31 38/38/38
f 31/31/31 35/35/35 38/38/38
f 34/34/34 38/38/38 37/37/37
f 35/35/35 36/36/36 39/39/39
f 36/36/36 37/37/37 40/40/40
f 36/36/36 40/40/40 39/39/39
f 37/37/37 38/38/38 41/41/41
f 37/37/37 41/41/41 40/40/40
f 38/38/38 35/35/35 42/42/42
f 35/35/35 39/39/39 42/42/42
f 38/38/38 42/42/42 41/41/41
f 39/39/39 40/40/40 43/43/43
f 40/40/40 44/44/44 43/43/43
f 40/40/40 41/41/41 44/44/44
f 39/39/39 43/43/43 45/45/45
f 42/42/42 39/39/39 45/45/45
f 41/41/41 46/46/46 44/44/44
f 42/42/42 45/45/45 46/46/46
f 41/41/41 42/42/42 46/46/46
f 49/49/49 48/48/48 47/47/47
f 50/50/50 49/49/49 47/47/47
f 50/50/50 47/47/47 51/51/51
f 49/49/49 52/52/52 48/48/48
f 52/52/52 53/53/53 48/48/48
f 54/54/54 51/51/51 53/53/53
f 54/54/54 50/50/50 51/51/51
f 52/52/52 54/54/54 53/53/53
f 55/55/55 49/49/49 50/50/50
f 56/56/56 55/55/55 50/50/50
f 56/56/56 50/50/50 54/54/54
f 55/55/55 57/57/57 49/49/49
f 57/57/57 52/52/52 49/49/49
f 58/58/58 56/56/56 54/54/54
f 58/58/58 54/54/54 52/52/52
f 57/57/57 58/58/58 52/52/52
f 61/61/61 60/60/60 59/59/59
f 62/62/62 61/61/61 59/59/59
f 62/62/62 59/59/59 63/63/63
f 61/61/61 64/64/64 60/60/60
f 64/64/64 65/65/65 60/60/60
f 66/66/66 63/63/63 65/65/65
f 66/66/66 62/62/62 63/63/63
f 64/64/64 66/66/66 65/65/65
f 67/67/67 61/61/61 62/62/62
f 68/68/68 62/62/62 66/66/66
f 68/68/68 67/67/67 62/62/62
f 69/69/69 64/64/64 61/61/61
f 67/67/67 69/69/69 61/61/61
f 70/70/70 66/66/66 64/64/64
f 70/70/70 68/68/68 66/66/66
f 69/69/69 70/70/70 64/64/64
f 71/71/71 67/67/67 68/68/68
f 72/72/72 68/68/68 70/70/70
f 72/72/72 71/71/71 68/68/68
f 73/73/73 69/69/69 67/67/67
f 71/71/71 73/73/73 67/67/67
f 74/74/74 70/70/70 69/69/69
f 74/74/74 72/72/72 70/70/70
f 73/73/73 74/74/74 69/69/69
f 75/75/75 71/71/71 72/72/72
f 76/76/76 72/72/72 74/74/74
f 76/76/76 75/75/75 72/72/72
f 77/77/77 73/73/73 71/71/71
f 75/75/75 77/77/77 71/71/71
f 78/78/78 74/74/74 73/73/73
f 78/78/78 76/76/76 74/74/74
f 77/77/77 78/78/78 73/73/73
f 79/79/79 75/75/75 76/76/76
f 80/80/80 76/76/76 78/78/78
f 80/80/80 79/79/79 76/76/76
f 81/81/81 77/77/77 75/75/75
f 79/79/79 81/81/81 75/75/75
f 82/82/82 78/78/78 77/77/77
f 82/82/82 80/80/80 78/78/78
f 81/81/81 82/82/82 77/77/77
f 83/83/83 79/79/79 80/80/80
f 84/84/84 83/83/83 80/80/80
f 84/84/84 80/80/80 82/82/82
f 83/83/83 85/85/85 79/79/79
f 85/85/85 81/81/81 79/79/79
f 86/86/86 84/84/84 82/82/82
f 86/86/86 82/82/82 81/81/81
f 85/85/85 86/86/86 81/81/81
f 89/89/89 88/88/88 87/87/87
f 90/90/90 89/89/89 87/87/87
f 91/91/91 89/89/89 90/90/90
f 87/87/87 88/88/88 92/92/92
f 88/88/88 93/93/93 92/92/92
f 94/94/94 91/91/91 90/90/90
f 95/95/95 91/91/91 94/94/94
f 92/92/92 93/93/93 96/96/96
f 93/93/93 97/97/97 96/96/96
f 98/98/98 95/95/95 94/94/94
f 99/99/99 95/95/95 98/98/98
f 96/96/96 97/97/97 100/100/100
f 97/97/97 101/101/101 100/100/100
f 101/101/101 99/99/99 102/102/102
f 102/102/102 99/99/99 98/98/98
f 100/100/100 101/101/101 102/102/102
f 90/90/90 87/87/87 103/103/103
f 87/87/87 92/92/92 104/104/104
f 103/103/103 87/87/87 104/104/104
f 94/94/94 90/90/90 105/105/105
f 105/105/105 90/90/90 103/103/103
f 92/92/92 96/96/96 106/106/106
f 104/104/104 92/92/92 106/106/106
f 98/98/98 94/94/94 107/107/107
f 107/107/107 94/94/94 105/105/105
f 102/102/102 98/98/98 108/108/108
f 108/108/108 98/98/98 107/107/107
f 100/100/100 102/102/102 109/109/109
f 109/109/109 102/102/102 108/108/108
f 96/96/96 100/100/100 110/110/110
f 106/106/106 96/96/96 110/110/110
f 110/110/110 100/100/100 109/109/109
f 105/105/105 103/103/103 111/111/111
f 112/112/112 105/105/105 111/111/111
f 107/107/107 105/105/105 112/112/112
f 111/111/111 103/103/103 113/113/113
f 103/103/103 104/104/104 113/113/113
f 114/114/114 107/107/107 112/112/112
f 108/108/108 107/107/107 114/114/114
f 113/113/113 104/104/104 115/115/115
f 104/104/104 106/106/106 115/115/115
f 116/116/116 108/108/108 114/114/114
f 109/109/109 108/108/108 116/116/116
f 115/115/115 106/106/106 117/117/117
f 106/106/106 110/110/110 117/117/117
f 118/118/118 109/109/109 116/116/116
f 117/117/117 110/110/110 118/118/118
f 110/110/110 109/109/109 118/118/118
f 121/121/121 120/120/120 119/119/119
f 122/122/122 121/121/121 119/119/119
f 121/121/121 123/123/123 120/120/120
f 122/122/122 119/119/119 124/124/124
f 125/125/125 122/122/122 124/124/124
f 123/123/123 125/125/125 126/126/126
f 123/123/123 126/126/126 120/120/120
f 125/125/125 124/124/124 126/126/126
f 119/119/119 120/120/120 127/127/127
f 120/120/120 128/128/128 127/127/127
f 120/120/120 126/126/126 128/128/128
f 119/119/119 127/127/127 129/129/129
f 124/124/124 119/119/119 129/129/129
f 126/126/126 130/130/130 128/128/128
f 124/124/124 129/129/129 130/130/130
f 126/126/126 124/124/124 130/130/130
f 133/133/133 132/132/132 131/131/131
f 134/134/134 133/133/133 131/131/131
f 135/135/135 131/131/131 132/132/132
f 136/136/136 134/134/134 131/131/131
f 131/131/131 135/135/135 136/136/136
f 134/134/134 137/137/137 133/133/133
f 136/136/136 138/138/138 134/134/134
f 138/138/138 137/137/137 134/134/134
f 139/139/139 138/138/138 136/136/136
f 135/135/135 140/140/140 136/136/136
f 140/140/140 139/139/139 136/136/136
f 137/137/137 138/138/138 141/141/141
f 139/139/139 141/141/141 138/138/138
f 137/137/137 142/142/142 133/133/133
f 132/132/132 133/133/133 143/143/143
f 133/133/133 142/142/142 143/143/143
f 144/144/144 137/137/137 141/141/141
f 137/137/137 144/144/144 142/142/142
f 145/145/145 135/135/135 132/132/132
f 140/140/140 135/135/135 146/146/146
f 135/135/135 145/145/145 146/146/146
f 147/147/147 145/145/145 132/132/132
f 143/143/143 147/147/147 132/132/132
f 145/145/145 148/148/148 146/146/146
f 145/145/145 147/147/147 148/148/148
f 139/139/139 149/149/149 141/141/141
f 140/140/140 150/150/150 139/139/139
f 139/139/139 150/150/150 149/149/149
f 146/146/146 151/151/151 140/140/140
f 151/151/151 150/150/150 140/140/140
f 148/148/148 152/152/152 146/146/146
f 152/152/152 151/151/151 146/146/146
f 147/147/147 153/153/153 148/148/148
f 153/153/153 152/152/152 148/148/148
f 154/154/154 147/147/147 143/143/143
f 154/154/154 153/153/153 147/147/147
f 150/150/150 151/151/151 155/155/155
f 149/149/149 150/150/150 155/155/155
f 141/141/141 149/149/149 156/156/156
f 156/156/156 144/144/144 141/141/141
f 152/152/152 153/153/153 157/157/157
f 157/157/157 153/153/153 154/154/154
f 152/152/152 158/158/158 151/151/151
f 158/158/158 155/155/155 151/151/151
f 158/158/158 152/152/152 157/157/157
f 159/159/159 149/149/149 155/155/155
f 155/155/155 158/158/158 159/159/159
f 149/149/149 159/159/159 156/156/156
f 158/158/158 160/160/160 159/159/159
f 160/160/160 158/158/158 157/157/157
f 159/159/159 160/160/160 156/156/156
f 154/154/154 143/143/143 161/161/161
f 142/142/142 161/161/161 143/143/143
f 157/157/157 154/154/154 162/162/162
f 160/160/160 157/157/157 162/162/162
f 154/154/154 161/161/161 162/162/162
f 160/160/160 163/163/163 156/156/156
f 163/163/163 160/160/160 162/162/162
f 156/156/156 163/163/163 144/144/144
f 161/161/161 142/142/142 164/164/164
f 162/162/162 161/161/161 164/164/164
f 144/144/144 164/164/164 142/142/142
f 163/163/163 164/164/164 144/144/144
f 163/163/163 162/162/162 164/164/164
