g valley_tree04_COL
v -0.897423 0 0.8974235
v 2.072114 11.10918 0.3711348
v 0.897423 0 0.8974235
v 0.7614744 11.10918 0.3711348
v 2.507169 20.94207 1.205289
v 1.63038 20.94207 1.205289
v 0.3569461 30.25168 0.9314398
v -0.1165457 30.25168 0.9314398
v -0.1165457 30.25168 0.9314398
v -0.1165457 30.25168 0.4579487
v 0.3569461 30.25168 0.4579487
v 0.3569461 30.25168 0.9314398
v -0.1165457 30.25168 0.4579487
v 2.507169 20.94207 0.3284996
v 0.3569461 30.25168 0.4579487
v 1.63038 20.94207 0.3284996
v 2.072114 11.10918 -0.9395047
v 0.7614744 11.10918 -0.9395047
v 0.897423 0 -0.8974235
v -0.897423 0 -0.8974235
v -0.897423 0 -0.8974235
v -0.897423 0 0.8974235
v 0.897423 0 0.8974235
v 0.897423 0 -0.8974235
v 0.897423 0 0.8974235
v 2.072114 11.10918 -0.9395047
v 0.897423 0 -0.8974235
v 2.072114 11.10918 0.3711348
v 2.507169 20.94207 0.3284996
v 2.507169 20.94207 1.205289
v 0.3569461 30.25168 0.4579487
v 0.3569461 30.25168 0.9314398
v -0.897423 0 -0.8974235
v 0.7614744 11.10918 0.3711348
v -0.897423 0 0.8974235
v 0.7614744 11.10918 -0.9395047
v 1.63038 20.94207 1.205289
v 1.63038 20.94207 0.3284996
v -0.1165457 30.25168 0.9314398
v -0.1165457 30.25168 0.4579487
vt 0.375 0
vt 0.625 0.09161187
vt 0.625 0
vt 0.375 0.09161187
vt 0.625 0.1736961
vt 0.375 0.1736961
vt 0.625 0.25
vt 0.375 0.25
vt 0.375 0.25
vt 0.375 0.5
vt 0.625 0.5
vt 0.625 0.25
vt 0.375 0.5
vt 0.625 0.5763039
vt 0.625 0.5
vt 0.375 0.5763039
vt 0.625 0.6583881
vt 0.375 0.6583881
vt 0.625 0.75
vt 0.375 0.75
vt 0.375 0.75
vt 0.375 1
vt 0.625 1
vt 0.625 0.75
vt 0.625 0
vt 0.875 0.09161187
vt 0.875 0
vt 0.625 0.09161187
vt 0.875 0.1736961
vt 0.625 0.1736961
vt 0.875 0.25
vt 0.625 0.25
vt 0.125 0
vt 0.375 0.09161187
vt 0.375 0
vt 0.125 0.09161187
vt 0.375 0.1736961
vt 0.125 0.1736961
vt 0.375 0.25
vt 0.125 0.25
vn 0 0.04732114 0.9988797
vn 0 -0.006462837 0.9999791
vn 0 0.04732114 0.9988797
vn 0 0.001133501 0.9999994
vn 0 -0.04597466 0.9989427
vn 0 -0.04112446 0.9991541
vn 0 0.02940304 0.9995676
vn 0 0.02940304 0.9995676
vn 0 1 0
vn 0 1 0
vn 0 1 0
vn 0 1 0
vn 0 0.01390354 -0.9999033
vn 0 0.08951735 -0.9959853
vn 0 0.01390354 -0.9999033
vn 0 0.0846625 -0.9964097
vn 0 0.05020262 -0.9987391
vn 0 0.04260693 -0.9990919
vn 0 -0.003787945 -0.9999928
vn 0 -0.003787944 -0.9999928
vn 0 -1 0
vn 0 -1 0
vn 0 -1 0
vn 0 -1 0
vn 0.994456 -0.1051543 0
vn 0.9965473 -0.08302746 0
vn 0.994456 -0.1051543 0
vn 0.9966718 -0.08151827 0
vn 0.9986632 0.05168932 0
vn 0.9982259 0.05954158 0
vn 0.9743488 0.2250434 0
vn 0.9743488 0.2250434 0
vn -0.9890338 0.1476891 0
vn -0.9922063 0.1246066 0
vn -0.9890338 0.1476891 0
vn -0.9920202 0.1260792 0
vn -0.9998751 -0.01580459 0
vn -0.9999686 -0.007924443 0
vn -0.982846 -0.1844285 0
vn -0.982846 -0.1844285 0
g valley_tree04_COL_0
f 3/3/3 2/2/2 1/1/1
f 2/2/2 4/4/4 1/1/1
f 2/2/2 5/5/5 4/4/4
f 5/5/5 6/6/6 4/4/4
f 5/5/5 7/7/7 6/6/6
f 7/7/7 8/8/8 6/6/6
f 11/11/11 10/10/10 9/9/9
f 12/12/12 11/11/11 9/9/9
f 15/15/15 14/14/14 13/13/13
f 14/14/14 16/16/16 13/13/13
f 14/14/14 17/17/17 16/16/16
f 17/17/17 18/18/18 16/16/16
f 17/17/17 19/19/19 18/18/18
f 19/19/19 20/20/20 18/18/18
f 23/23/23 22/22/22 21/21/21
f 24/24/24 23/23/23 21/21/21
f 27/27/27 26/26/26 25/25/25
f 26/26/26 28/28/28 25/25/25
f 26/26/26 29/29/29 28/28/28
f 29/29/29 30/30/30 28/28/28
f 29/29/29 31/31/31 30/30/30
f 31/31/31 32/32/32 30/30/30
f 35/35/35 34/34/34 33/33/33
f 34/34/34 36/36/36 33/33/33
f 34/34/34 37/37/37 36/36/36
f 37/37/37 38/38/38 36/36/36
f 37/37/37 39/39/39 38/38/38
f 39/39/39 40/40/40 38/38/38
