g vine02
v 3.975403 0.4102679 -0.2023726
v 3.947034 -3.364541E-16 0.2023727
v 3.552356 -0.0006199958 -0.2023726
v 4.341738 -4.263256E-16 -0.2023726
v 4.126197 -2.425887 -0.2023726
v 3.749353 -2.340759 0.2023727
v 3.372121 -2.267847 -0.2023726
v 3.497123 -4.222763 -0.2023726
v 3.174724 -4.021235 0.2023727
v 2.850837 -3.825416 -0.2023726
v 2.510713 -5.790868 -0.2023726
v 2.27318 -5.458356 0.2023727
v 2.034841 -5.12246 -0.2023726
v 1.267748 -6.724645 -0.2023726
v 1.140545 -6.288202 0.2023727
v 1.01289 -5.851498 -0.2023726
v -0.1082333 -6.877562 -0.2023726
v -0.1103564 -6.432515 0.2023727
v -0.1123371 -5.986664 -0.2023726
v -1.46146 -6.312666 -0.2023726
v -1.340289 -5.928692 0.2023727
v -1.218929 -5.544535 -0.2023726
v -2.641212 -5.183855 -0.2023726
v -2.413396 -4.871652 0.2023727
v -2.185529 -4.567398 -0.2023726
v -3.555297 -3.767156 -0.2023726
v -3.24206 -3.537083 0.2023727
v -2.929429 -3.319045 -0.2023726
v -4.138731 -2.280698 -0.2023726
v -3.767384 -2.144503 0.2023727
v -3.397363 -2.017577 -0.2023726
v -4.341738 -6.790587E-10 -0.2023726
v -3.947034 6.790579E-10 0.2023727
v -3.552331 -5.432467E-09 -0.2023726
v -3.975403 0.410268 -0.2023726
v 3.975403 0.4102679 0.2023726
v 3.552356 -0.0006199958 0.2023726
v 3.947034 -3.364541E-16 -0.2023727
v 4.341738 -4.263256E-16 0.2023726
v 4.126197 -2.425887 0.2023726
v 3.749353 -2.340759 -0.2023727
v 3.372121 -2.267847 0.2023726
v 3.497123 -4.222763 0.2023726
v 3.174724 -4.021235 -0.2023727
v 2.850837 -3.825416 0.2023726
v 2.510713 -5.790868 0.2023726
v 2.27318 -5.458356 -0.2023727
v 2.034841 -5.12246 0.2023726
v 1.267748 -6.724645 0.2023726
v 1.140545 -6.288202 -0.2023727
v 1.01289 -5.851498 0.2023726
v -0.1082333 -6.877562 0.2023726
v -0.1103564 -6.432515 -0.2023727
v -0.1123371 -5.986664 0.2023726
v -1.46146 -6.312666 0.2023726
v -1.340289 -5.928692 -0.2023727
v -1.218929 -5.544535 0.2023726
v -2.641212 -5.183855 0.2023726
v -2.413396 -4.871652 -0.2023727
v -2.185529 -4.567398 0.2023726
v -3.555297 -3.767156 0.2023726
v -3.24206 -3.537083 -0.2023727
v -2.929429 -3.319045 0.2023726
v -4.138731 -2.280698 0.2023726
v -3.767384 -2.144503 -0.2023727
v -3.397363 -2.017577 0.2023726
v -4.341738 -6.790587E-10 0.2023726
v -3.947034 6.790579E-10 -0.2023727
v -3.552331 -5.432467E-09 0.2023726
v -3.975403 0.410268 0.2023726
vt 0.5 0.5
vt 0.5 0.5
vt 0.5 0.5
vt 0.5 0.5
vt 0.5 0.5
vt 0.5 0.5
vt 0.5 0.5
vt 0.5 0.5
vt 0.5 0.5
vt 0.5 0.5
vt 0.5 0.5
vt 0.5 0.5
vt 0.5 0.5
vt 0.5 0.5
vt 0.5 0.5
vt 0.5 0.5
vt 0.5 0.5
vt 0.5 0.5
vt 0.5 0.5
vt 0.5 0.5
vt 0.5 0.5
vt 0.5 0.5
vt 0.5 0.5
vt 0.5 0.5
vt 0.5 0.5
vt 0.5 0.5
vt 0.5 0.5
vt 0.5 0.5
vt 0.5 0.5
vt 0.5 0.5
vt 0.5 0.5
vt 0.5 0.5
vt 0.5 0.5
vt 0.5 0.5
vt 0.5 0.5
vt 0.5 0.5
vt 0.5 0.5
vt 0.5 0.5
vt 0.5 0.5
vt 0.5 0.5
vt 0.5 0.5
vt 0.5 0.5
vt 0.5 0.5
vt 0.5 0.5
vt 0.5 0.5
vt 0.5 0.5
vt 0.5 0.5
vt 0.5 0.5
vt 0.5 0.5
vt 0.5 0.5
vt 0.5 0.5
vt 0.5 0.5
vt 0.5 0.5
vt 0.5 0.5
vt 0.5 0.5
vt 0.5 0.5
vt 0.5 0.5
vt 0.5 0.5
vt 0.5 0.5
vt 0.5 0.5
vt 0.5 0.5
vt 0.5 0.5
vt 0.5 0.5
vt 0.5 0.5
vt 0.5 0.5
vt 0.5 0.5
vt 0.5 0.5
vt 0.5 0.5
vt 0.5 0.5
vt 0.5 0.5
vn 0.01310918 0.7017791 0.7122739
vn 0.05132104 0.04818059 0.9975193
vn -0.7175093 0.09568236 0.6899459
vn 0.7201445 -0.02123799 0.693499
vn 0.7098801 -0.1396259 0.6903439
vn 0.08033708 -0.01966745 0.9965738
vn -0.711951 0.1341108 0.689304
vn 0.6556808 -0.3173186 0.6851215
vn 0.09035412 -0.03935435 0.9951319
vn -0.6612532 0.3075505 0.6842199
vn 0.5177277 -0.4807621 0.7076905
vn 0.1184109 -0.08066893 0.9896825
vn -0.5332395 0.4661594 0.7059399
vn 0.2473846 -0.6243185 0.7409638
vn 0.07038014 -0.1397741 0.9876791
vn -0.258364 0.6202205 0.7406583
vn -0.08573833 -0.6712176 0.7362852
vn -0.04008297 -0.1496662 0.9879238
vn 0.1045748 0.67015 0.7348219
vn -0.383551 -0.6022617 0.7001211
vn -0.09795021 -0.1063455 0.989493
vn 0.4181532 0.5851684 0.6947847
vn -0.5639061 -0.4692249 0.6795867
vn -0.08230455 -0.05832575 0.9948991
vn 0.5877137 0.447373 0.674129
vn -0.6474457 -0.3338105 0.6851165
vn -0.07285102 -0.03749505 0.9966377
vn 0.6615992 0.3161452 0.679955
vn -0.7041436 -0.1495369 0.694133
vn -0.1052131 -0.01879756 0.994272
vn 0.7102871 0.1327679 0.6912777
vn -0.7206275 -0.01812064 0.6930856
vn -0.06371377 0.05126499 0.9966506
vn 0.7184616 0.09852979 0.6885527
vn -0.01349056 0.701762 0.7122837
vn 0.01310918 0.7017791 -0.712274
vn -0.7175093 0.09568235 -0.6899459
vn 0.05132114 0.04818056 -0.9975193
vn 0.7201444 -0.02123801 -0.693499
vn 0.7098801 -0.1396259 -0.6903439
vn 0.08033714 -0.01966746 -0.9965737
vn -0.711951 0.1341108 -0.689304
vn 0.6556808 -0.3173186 -0.6851215
vn 0.09035415 -0.03935434 -0.9951319
vn -0.6612531 0.3075505 -0.68422
vn 0.5177277 -0.4807621 -0.7076905
vn 0.1184109 -0.08066898 -0.9896825
vn -0.5332392 0.4661593 -0.7059401
vn 0.2473847 -0.6243184 -0.7409638
vn 0.07038024 -0.1397741 -0.9876791
vn -0.258364 0.6202204 -0.7406584
vn -0.0857384 -0.6712176 -0.7362852
vn -0.04008298 -0.1496661 -0.9879238
vn 0.1045749 0.6701502 -0.7348216
vn -0.3835508 -0.6022616 -0.7001212
vn -0.09795007 -0.1063453 -0.989493
vn 0.4181533 0.5851685 -0.6947846
vn -0.5639061 -0.4692247 -0.6795867
vn -0.08230468 -0.05832573 -0.994899
vn 0.5877136 0.447373 -0.6741291
vn -0.6474459 -0.3338105 -0.6851163
vn -0.07285129 -0.03749519 -0.9966377
vn 0.661599 0.316145 -0.6799552
vn -0.7041436 -0.1495369 -0.694133
vn -0.1052131 -0.01879756 -0.994272
vn 0.710287 0.1327679 -0.6912777
vn -0.7206274 -0.0181206 -0.6930856
vn -0.06371377 0.05126503 -0.9966506
vn 0.7184616 0.0985298 -0.6885527
vn -0.01349045 0.7017623 -0.7122834
g vine02_0
f 3/3/3 2/2/2 1/1/1
f 2/2/2 4/4/4 1/1/1
f 5/5/5 4/4/4 2/2/2
f 6/6/6 2/2/2 3/3/3
f 6/6/6 5/5/5 2/2/2
f 7/7/7 6/6/6 3/3/3
f 8/8/8 5/5/5 6/6/6
f 9/9/9 6/6/6 7/7/7
f 9/9/9 8/8/8 6/6/6
f 10/10/10 9/9/9 7/7/7
f 11/11/11 8/8/8 9/9/9
f 12/12/12 9/9/9 10/10/10
f 12/12/12 11/11/11 9/9/9
f 13/13/13 12/12/12 10/10/10
f 14/14/14 11/11/11 12/12/12
f 15/15/15 12/12/12 13/13/13
f 15/15/15 14/14/14 12/12/12
f 16/16/16 15/15/15 13/13/13
f 17/17/17 14/14/14 15/15/15
f 18/18/18 15/15/15 16/16/16
f 18/18/18 17/17/17 15/15/15
f 19/19/19 18/18/18 16/16/16
f 20/20/20 17/17/17 18/18/18
f 21/21/21 18/18/18 19/19/19
f 21/21/21 20/20/20 18/18/18
f 22/22/22 21/21/21 19/19/19
f 23/23/23 20/20/20 21/21/21
f 24/24/24 21/21/21 22/22/22
f 24/24/24 23/23/23 21/21/21
f 25/25/25 24/24/24 22/22/22
f 26/26/26 23/23/23 24/24/24
f 27/27/27 24/24/24 25/25/25
f 27/27/27 26/26/26 24/24/24
f 28/28/28 27/27/27 25/25/25
f 29/29/29 26/26/26 27/27/27
f 30/30/30 27/27/27 28/28/28
f 30/30/30 29/29/29 27/27/27
f 31/31/31 30/30/30 28/28/28
f 32/32/32 29/29/29 30/30/30
f 33/33/33 30/30/30 31/31/31
f 33/33/33 32/32/32 30/30/30
f 34/34/34 33/33/33 31/31/31
f 35/35/35 32/32/32 33/33/33
f 35/35/35 33/33/33 34/34/34
f 38/38/38 37/37/37 36/36/36
f 39/39/39 38/38/38 36/36/36
f 39/39/39 40/40/40 38/38/38
f 38/38/38 41/41/41 37/37/37
f 40/40/40 41/41/41 38/38/38
f 41/41/41 42/42/42 37/37/37
f 40/40/40 43/43/43 41/41/41
f 41/41/41 44/44/44 42/42/42
f 43/43/43 44/44/44 41/41/41
f 44/44/44 45/45/45 42/42/42
f 43/43/43 46/46/46 44/44/44
f 44/44/44 47/47/47 45/45/45
f 46/46/46 47/47/47 44/44/44
f 47/47/47 48/48/48 45/45/45
f 46/46/46 49/49/49 47/47/47
f 47/47/47 50/50/50 48/48/48
f 49/49/49 50/50/50 47/47/47
f 50/50/50 51/51/51 48/48/48
f 49/49/49 52/52/52 50/50/50
f 50/50/50 53/53/53 51/51/51
f 52/52/52 53/53/53 50/50/50
f 53/53/53 54/54/54 51/51/51
f 52/52/52 55/55/55 53/53/53
f 53/53/53 56/56/56 54/54/54
f 55/55/55 56/56/56 53/53/53
f 56/56/56 57/57/57 54/54/54
f 55/55/55 58/58/58 56/56/56
f 56/56/56 59/59/59 57/57/57
f 58/58/58 59/59/59 56/56/56
f 59/59/59 60/60/60 57/57/57
f 58/58/58 61/61/61 59/59/59
f 59/59/59 62/62/62 60/60/60
f 61/61/61 62/62/62 59/59/59
f 62/62/62 63/63/63 60/60/60
f 61/61/61 64/64/64 62/62/62
f 62/62/62 65/65/65 63/63/63
f 64/64/64 65/65/65 62/62/62
f 65/65/65 66/66/66 63/63/63
f 64/64/64 67/67/67 65/65/65
f 65/65/65 68/68/68 66/66/66
f 67/67/67 68/68/68 65/65/65
f 68/68/68 69/69/69 66/66/66
f 67/67/67 70/70/70 68/68/68
f 68/68/68 70/70/70 69/69/69
