g voxCliff02_COL
v 0.3357149 -0.310054 3.182445
v 2.227704 -0.310054 3.182445
v 2.208426 -0.310054 2.207326
v 0.4272415 -0.310054 1.834674
v -2.227704 -0.310054 2.206629
v -2.227704 -0.310054 3.182445
v -2.227704 -0.310054 1.242551
v 0.4808933 -0.310054 1.044626
v 2.208426 -0.310054 1.268734
v -2.227704 -0.310054 -0.4474136
v 0.5749412 -0.310054 -0.3402734
v 2.208426 -0.310054 -0.3765545
v -1.924597 -0.310054 -3.173846
v 0.7679518 -0.310054 -3.182445
v 2.227704 -0.310054 -3.182445
v 2.170899 1.841047 -3.15131
v -1.869581 4.148729 -3.128016
v 0.6308922 1.841047 -3.15131
v 1.778566 4.153583 -3.158543
v 0.4575932 4.560911 -3.111943
v -0.09081657 4.560911 -3.111943
v 0.8679297 4.560911 -3.111943
v 1.828913 4.453958 -2.281023
v 0.6564288 4.739861 -0.4834879
v 1.828913 4.453958 -2.281023
v 1.828913 4.453958 -0.4959434
v 0.8032176 4.758533 1.240131
v 1.807973 4.710178 1.189824
v -0.2539391 4.697663 -0.4787969
v 0.8869568 4.769185 2.223409
v 1.796028 4.692015 2.193575
v 1.679228 4.560911 3.134852
v 0.3765211 4.716234 3.142231
v -1.010191 4.732053 2.167243
v -0.9955841 4.719561 1.272901
v 2.106693 1.130334 3.15131
v 1.796028 4.692015 2.193575
v -1.953686 4.560911 -0.4635944
v -1.953686 4.560911 -1.395084
v -1.869581 4.148729 -3.128016
v -1.953686 4.560911 0.8768946
v -1.953686 4.560911 1.641607
v -1.953686 4.560911 2.238212
v -1.030737 4.606603 3.111943
v -2.063851 1.130334 3.129194
v 0.380579 1.182608 3.15131
v -1.919316 4.196152 3.121583
v -1.953686 4.560911 2.238212
v -1.953686 4.560911 1.641607
v -2.254104 1.110321 2.107778
v -1.953686 4.560911 0.8768946
v -2.243662 1.110321 1.167204
v -1.953686 4.560911 -0.4635944
v -2.227704 -0.310054 3.182445
v -2.227704 -0.310054 2.206629
v 0.3357149 -0.310054 3.182445
v -2.227704 -0.310054 1.242551
v 2.227704 -0.310054 3.182445
v -2.225357 1.110321 -0.4815591
v -2.227704 -0.310054 -0.4474136
v -1.924597 -0.310054 -3.173846
v -1.953686 4.560911 -1.395084
v 2.208425 1.12488 2.217985
v 2.208426 -0.310054 2.207326
v 2.208426 -0.310054 1.268734
v 2.217775 1.031 1.198962
v 1.807973 4.710178 1.189824
v 2.27263 1.836615 -0.4959917
v 2.208426 -0.310054 -0.3765545
v 1.828913 4.453958 -0.4959434
v 2.170899 1.841047 -3.15131
v 2.227704 -0.310054 -3.182445
v 1.778566 4.153583 -3.158543
vt 0.5188375 1
vt 0.625 1
vt 0.625 0.9462427
vt 0.5239732 0.9470623
vt 0.375 0.9482709
vt 0.375 1
vt 0.375 0.9152718
vt 0.5269837 0.9160308
vt 0.625 0.9164104
vt 0.375 0.8574265
vt 0.5322609 0.8616347
vt 0.625 0.8641165
vt 0.375 0.75
vt 0.543091 0.75
vt 0.625 0.75
vt 0.625 0.6395957
vt 0.375 0.6339206
vt 0.5369908 0.6395957
vt 0.625 0.568725
vt 0.5292776 0.5
vt 0.4817972 0.5
vt 0.5555316 0.5
vt 0.8416237 0.25
vt 0.5287294 0.3944207
vt 0.625 0.4666237
vt 0.625 0.3949209
vt 0.5284317 0.337061
vt 0.625 0.3353451
vt 0.4924788 0.3942322
vt 0.5282618 0.3043389
vt 0.625 0.3013588
vt 0.625 0.25
vt 0.5279795 0.25
vt 0.4939961 0.3053944
vt 0.4934449 0.3376647
vt 0.625 0.1104043
vt 0.6763588 0.25
vt 0.375 0.3936216
vt 0.375 0.4310375
vt 0.125 0.1160795
vt 0.375 0.3397771
vt 0.375 0.3090602
vt 0.375 0.2850959
vt 0.4340518 0.25
vt 0.375 0.1104043
vt 0.5228748 0.1104043
vt 0.375 0.2158163
vt 0.3399041 0.25
vt 0.3159398 0.25
vt 0.3200334 0.1104043
vt 0.2852229 0.25
vt 0.2880421 0.1104043
vt 0.2313784 0.25
vt 0.375 0
vt 0.3232709 0
vt 0.5188375 0
vt 0.2902718 0
vt 0.625 0
vt 0.2319636 0.1104043
vt 0.2324265 0
vt 0.125 0
vt 0.1939625 0.25
vt 0.6776981 0.1104043
vt 0.6787573 0
vt 0.7085896 0
vt 0.7093649 0.1104043
vt 0.7103451 0.25
vt 0.7648746 0.1104043
vt 0.7608836 0
vt 0.7699209 0.25
vt 0.875 0.1104043
vt 0.875 0
vt 0.875 0.1812751
vn -0.002081189 -0.6219802 0.7830302
vn 0.3834873 -0.5677685 0.7284068
vn 0.5919955 -0.8058161 0.01420847
vn 0 -1 0
vn -0.4604475 -0.8874094 0.02219883
vn -0.2968166 -0.5990917 0.7436323
vn -0.492258 -0.8704452 -0.002698816
vn 0 -1 0
vn 0.7183436 -0.6956565 0.006670475
vn -0.6661251 -0.7433919 -0.0603813
vn 0 -1 0
vn 0.7753478 -0.6315177 -0.004603416
vn -0.5370762 -0.5487758 -0.6406203
vn -0.0004840229 -0.712593 -0.7015775
vn 0.7322696 -0.5432655 -0.4106627
vn 0.8777264 0.0780649 -0.4727603
vn -0.6854581 0.1752075 -0.7067174
vn -0.002966898 0.01154978 -0.999929
vn 0.8243765 0.1678884 -0.5405709
vn 0.04039486 0.5635492 -0.8250942
vn -0.03778374 0.5564181 -0.830043
vn 0.08843567 0.5891247 -0.8031881
vn 0.8958982 0.4416926 -0.04768577
vn 0.06841034 0.9966021 -0.04587237
vn 0.8958982 0.4416926 -0.04768577
vn 0.896858 0.4419854 -0.0171651
vn 0.03523069 0.9988644 -0.03207428
vn 0.9133272 0.4071596 0.007376624
vn -0.05187227 0.998014 -0.03574009
vn 0.0361445 0.9984295 0.04280172
vn 0.9290641 0.363073 0.07083762
vn 0.4738777 0.1993082 0.857739
vn -0.005759968 0.164019 0.9864404
vn -0.09022179 0.9946852 0.04961248
vn -0.072619 0.9971728 -0.01930765
vn 0.5032565 0.05744533 0.8622257
vn 0.9290641 0.363073 0.07083762
vn -0.8658364 0.4990419 -0.03584045
vn -0.8396399 0.5388295 -0.06832002
vn -0.6854581 0.1752075 -0.7067174
vn -0.9097101 0.4149716 -0.01503186
vn -0.9429868 0.3279335 0.05688054
vn -0.9315435 0.3417835 0.1241403
vn -0.03483083 0.1633781 0.9859484
vn -0.4242977 0.03929136 0.9046699
vn -0.004171788 0.01127876 0.9999278
vn -0.437649 0.06276426 0.8969526
vn -0.9315435 0.3417835 0.1241403
vn -0.9429868 0.3279335 0.05688054
vn -0.9967463 0.05979888 0.05404541
vn -0.9097101 0.4149716 -0.01503186
vn -0.9985594 0.0533317 -0.005909765
vn -0.8658364 0.4990419 -0.03584045
vn -0.2968166 -0.5990917 0.7436323
vn -0.4604475 -0.8874094 0.02219883
vn -0.002081189 -0.6219802 0.7830302
vn -0.492258 -0.8704452 -0.002698816
vn 0.3834873 -0.5677685 0.7284068
vn -0.9969683 0.0307027 -0.07149412
vn -0.6661251 -0.7433919 -0.0603813
vn -0.5370762 -0.5487758 -0.6406203
vn -0.8396399 0.5388295 -0.06832002
vn 0.9946498 0.090147 0.05044944
vn 0.5919955 -0.8058161 0.01420847
vn 0.7183436 -0.6956565 0.006670475
vn 0.9976025 0.06642933 0.01940088
vn 0.9133272 0.4071596 0.007376624
vn 0.9960417 0.08888492 -0.0007263128
vn 0.7753478 -0.6315177 -0.004603416
vn 0.896858 0.4419854 -0.0171651
vn 0.8777264 0.0780649 -0.4727603
vn 0.7322696 -0.5432655 -0.4106627
vn 0.8243765 0.1678884 -0.5405709
g voxCliff02_COL_0
f 3/3/3 2/2/2 1/1/1
f 4/4/4 3/3/3 1/1/1
f 4/4/4 1/1/1 5/5/5
f 1/1/1 6/6/6 5/5/5
f 4/4/4 5/5/5 7/7/7
f 4/4/4 8/8/8 3/3/3
f 8/8/8 4/4/4 7/7/7
f 8/8/8 9/9/9 3/3/3
f 8/8/8 7/7/7 10/10/10
f 8/8/8 11/11/11 9/9/9
f 11/11/11 8/8/8 10/10/10
f 11/11/11 12/12/12 9/9/9
f 11/11/11 10/10/10 13/13/13
f 11/11/11 14/14/14 12/12/12
f 14/14/14 11/11/11 13/13/13
f 14/14/14 15/15/15 12/12/12
f 16/16/16 15/15/15 14/14/14
f 14/14/14 13/13/13 17/17/17
f 18/18/18 16/16/16 14/14/14
f 18/18/18 14/14/14 17/17/17
f 19/19/19 16/16/16 18/18/18
f 20/20/20 18/18/18 17/17/17
f 21/21/21 20/20/20 17/17/17
f 18/18/18 22/22/22 19/19/19
f 18/18/18 20/20/20 22/22/22
f 22/22/22 23/23/23 19/19/19
f 22/22/22 20/20/20 24/24/24
f 24/24/24 20/20/20 21/21/21
f 24/24/24 25/25/25 22/22/22
f 24/24/24 26/26/26 25/25/25
f 24/24/24 27/27/27 26/26/26
f 27/27/27 28/28/28 26/26/26
f 29/29/29 24/24/24 21/21/21
f 27/27/27 24/24/24 29/29/29
f 27/27/27 30/30/30 28/28/28
f 30/30/30 31/31/31 28/28/28
f 32/32/32 31/31/31 30/30/30
f 33/33/33 32/32/32 30/30/30
f 34/34/34 30/30/30 27/27/27
f 33/33/33 30/30/30 34/34/34
f 35/35/35 27/27/27 29/29/29
f 35/35/35 34/34/34 27/27/27
f 36/36/36 32/32/32 33/33/33
f 37/37/37 32/32/32 36/36/36
f 29/29/29 21/21/21 38/38/38
f 21/21/21 39/39/39 38/38/38
f 39/39/39 21/21/21 40/40/40
f 29/29/29 38/38/38 41/41/41
f 35/35/35 29/29/29 41/41/41
f 35/35/35 41/41/41 42/42/42
f 34/34/34 35/35/35 42/42/42
f 34/34/34 42/42/42 43/43/43
f 43/43/43 33/33/33 34/34/34
f 43/43/43 44/44/44 33/33/33
f 33/33/33 44/44/44 45/45/45
f 46/46/46 36/36/36 33/33/33
f 45/45/45 46/46/46 33/33/33
f 44/44/44 47/47/47 45/45/45
f 47/47/47 44/44/44 48/48/48
f 47/47/47 48/48/48 49/49/49
f 45/45/45 47/47/47 49/49/49
f 49/49/49 50/50/50 45/45/45
f 50/50/50 49/49/49 51/51/51
f 52/52/52 50/50/50 51/51/51
f 52/52/52 51/51/51 53/53/53
f 46/46/46 45/45/45 54/54/54
f 55/55/55 54/54/54 45/45/45
f 50/50/50 55/55/55 45/45/45
f 56/56/56 46/46/46 54/54/54
f 46/46/46 56/56/56 36/36/36
f 57/57/57 55/55/55 50/50/50
f 52/52/52 57/57/57 50/50/50
f 56/56/56 58/58/58 36/36/36
f 52/52/52 59/59/59 57/57/57
f 59/59/59 52/52/52 53/53/53
f 59/59/59 60/60/60 57/57/57
f 60/60/60 59/59/59 61/61/61
f 59/59/59 40/40/40 61/61/61
f 59/59/59 53/53/53 40/40/40
f 53/53/53 62/62/62 40/40/40
f 63/63/63 36/36/36 58/58/58
f 64/64/64 63/63/63 58/58/58
f 63/63/63 37/37/37 36/36/36
f 63/63/63 64/64/64 65/65/65
f 63/63/63 66/66/66 37/37/37
f 66/66/66 63/63/63 65/65/65
f 66/66/66 67/67/67 37/37/37
f 66/66/66 65/65/65 68/68/68
f 66/66/66 68/68/68 67/67/67
f 65/65/65 69/69/69 68/68/68
f 68/68/68 70/70/70 67/67/67
f 68/68/68 69/69/69 71/71/71
f 70/70/70 68/68/68 71/71/71
f 69/69/69 72/72/72 71/71/71
f 71/71/71 73/73/73 70/70/70
f 73/73/73 23/23/23 70/70/70
