g voxPlatform02_COL
v 2.68919 0.1101413 -1.043725
v 2.68919 0.1101413 -2.981666
v 2.68919 -2.055435 -2.981666
v 2.68919 -2.064951 -1.043724
v 2.68919 0.1101413 1.017147
v 2.68919 -2.064951 1.017147
v 2.68919 -1.400245 3.182445
v 2.68919 0.1101413 3.182445
v 0.02687723 0.1101413 3.182445
v 0.02687723 -1.400245 3.182445
v 0.02687723 0.1101413 1.017147
v 2.68919 0.1101413 1.017147
v -0.9796053 0.1101413 3.182445
v -0.9796053 -1.400244 3.182445
v -0.9796053 0.1101413 1.017148
v 0.02687662 0.1101413 -1.043725
v 2.68919 0.1101413 -1.043725
v -2.012501 0.1101413 3.182445
v -2.012501 -1.400245 3.182445
v -2.867909 -1.400245 2.964902
v -2.012501 0.1101413 1.017147
v -0.9796059 0.1101413 -1.043725
v 0.02687723 0.1101413 -2.993557
v 2.68919 0.1101413 -2.981666
v -2.867909 0.1101413 2.964902
v -2.970282 0.1101413 1.017147
v -2.970282 -2.165781 1.017147
v -2.970282 0.1101413 -1.043725
v -2.970282 -2.165781 -1.043724
v -2.970282 -2.055435 -2.35463
v -2.970282 0.1101413 -2.35463
v -2.970282 0.1101413 1.017147
v -2.012501 0.1101413 -1.043725
v -2.970282 0.1101413 -1.043725
v -2.012501 0.1101413 -2.981666
v -2.970282 0.1101413 -2.35463
v -0.9796053 0.1101413 -3.608702
v -2.012501 -2.055435 -2.981666
v -2.970282 -2.055435 -2.35463
v -0.9796053 -2.055435 -3.307679
v -2.012501 -2.401691 -1.043724
v -2.970282 -2.165781 -1.043724
v 0.02687723 -2.055436 -2.993557
v 2.68919 -2.055435 -2.981666
v -2.012501 -2.401691 1.017147
v -2.970282 -2.165781 1.017147
v -0.9796053 -2.734451 -1.043724
v 0.02687723 -2.734451 -1.043725
v 2.68919 -2.064951 -1.043724
v -2.012501 -1.400245 3.182445
v -2.867909 -1.400245 2.964902
v -0.9796059 -2.734451 1.017147
v -0.9796053 -1.400244 3.182445
v 0.02687662 -2.734451 1.017147
v 2.68919 -2.064951 1.017147
v 0.02687723 -1.400245 3.182445
v 2.68919 -1.400245 3.182445
vt 0.7964022 0.25
vt 0.875 0.25
vt 0.875 0
vt 0.7964022 0
vt 0.7128187 0.25
vt 0.7128187 0
vt 0.625 0
vt 0.625 0.25
vt 0.5073957 0.25
vt 0.5073957 0
vt 0.5073957 0.3378187
vt 0.625 0.3378187
vt 0.4629356 0.25
vt 0.4629356 0
vt 0.4629356 0.3378187
vt 0.5073957 0.4214023
vt 0.625 0.4214023
vt 0.4173087 0.25
vt 0.4173087 0
vt 0.375 0
vt 0.4173087 0.3378187
vt 0.4629356 0.4214023
vt 0.5073957 0.5
vt 0.625 0.5
vt 0.375 0.25
vt 0.2871813 0.25
vt 0.2871812 0
vt 0.2035977 0.25
vt 0.2035977 0
vt 0.125 0
vt 0.125 0.25
vt 0.375 0.3378187
vt 0.4173087 0.4214023
vt 0.375 0.4214023
vt 0.4173087 0.5
vt 0.375 0.5
vt 0.4629356 0.5
vt 0.4173087 0.75
vt 0.375 0.75
vt 0.4629356 0.75
vt 0.4173087 0.8285977
vt 0.375 0.8285977
vt 0.5073957 0.75
vt 0.625 0.75
vt 0.4173087 0.9121813
vt 0.375 0.9121813
vt 0.4629356 0.8285977
vt 0.5073957 0.8285977
vt 0.625 0.8285977
vt 0.4173087 1
vt 0.375 1
vt 0.4629356 0.9121813
vt 0.4629356 1
vt 0.5073957 0.9121813
vt 0.625 0.9121813
vt 0.5073957 1
vt 0.625 1
vn 0.6317198 0.7751967 0
vn 0.4788932 0.587332 -0.6524588
vn 0.501034 -0.5307363 -0.6835817
vn 0.7072124 -0.7044012 -0.06057699
vn 0.6015495 0.7988355 0
vn 0.6395085 -0.7472783 0.1805658
vn 0.5269395 -0.5551764 0.6435168
vn 0.4936876 0.713259 0.4975281
vn 0 0.820178 0.5721085
vn 0.05826883 -0.6386151 0.7673171
vn 0 1 0
vn 0.6015495 0.7988355 0
vn 0 0.820178 0.5721083
vn -0.05028971 -0.6164185 0.7858112
vn 0 1 0
vn 0 1 0
vn 0.6317198 0.7751967 0
vn -0.06898273 0.797938 0.598779
vn -0.1584359 -0.6196509 0.7687202
vn -0.8477981 -0.3508334 0.3976862
vn 0 1 0
vn 0 1 0
vn 0.09072203 0.7098614 -0.6984743
vn 0.4788932 0.587332 -0.6524588
vn -0.8329628 0.4595669 0.3081741
vn -0.9116947 0.4103265 0.02109074
vn -0.9014927 -0.4197396 0.1054963
vn -0.9069906 0.4211507 0
vn -0.9174036 -0.3971858 -0.02478
vn -0.8322453 -0.3700936 -0.4127932
vn -0.8206142 0.4094293 -0.398698
vn -0.9116947 0.4103265 0.02109074
vn 0 1 0
vn -0.9069906 0.4211507 0
vn -0.3779931 0.6262609 -0.6818494
vn -0.8206142 0.4094293 -0.398698
vn -0.004954144 0.5398733 -0.8417318
vn -0.4381989 -0.5321785 -0.7244086
vn -0.8322453 -0.3700936 -0.4127932
vn -0.04351377 -0.5675443 -0.8221922
vn -0.2311092 -0.968407 -0.09368258
vn -0.9174036 -0.3971858 -0.02478
vn 0.1439852 -0.6223062 -0.7694175
vn 0.501034 -0.5307363 -0.6835817
vn -0.2154462 -0.9474934 0.2363035
vn -0.9014927 -0.4197396 0.1054963
vn -0.1160579 -0.9834688 -0.1389957
vn 0.1420444 -0.9843007 -0.1047636
vn 0.7072124 -0.7044012 -0.06057699
vn -0.1584359 -0.6196509 0.7687202
vn -0.8477981 -0.3508334 0.3976862
vn -0.1147838 -0.9543151 0.2758756
vn -0.05028971 -0.6164185 0.7858112
vn 0.1307963 -0.9613874 0.2421291
vn 0.6395085 -0.7472783 0.1805658
vn 0.05826883 -0.6386151 0.7673171
vn 0.5269395 -0.5551764 0.6435168
g voxPlatform02_COL_0
f 3/3/3 2/2/2 1/1/1
f 4/4/4 3/3/3 1/1/1
f 4/4/4 1/1/1 5/5/5
f 6/6/6 4/4/4 5/5/5
f 6/6/6 5/5/5 7/7/7
f 5/5/5 8/8/8 7/7/7
f 7/7/7 8/8/8 9/9/9
f 10/10/10 7/7/7 9/9/9
f 9/9/9 8/8/8 11/11/11
f 8/8/8 12/12/12 11/11/11
f 10/10/10 9/9/9 13/13/13
f 14/14/14 10/10/10 13/13/13
f 9/9/9 11/11/11 15/15/15
f 13/13/13 9/9/9 15/15/15
f 11/11/11 12/12/12 16/16/16
f 12/12/12 17/17/17 16/16/16
f 14/14/14 13/13/13 18/18/18
f 19/19/19 14/14/14 18/18/18
f 19/19/19 18/18/18 20/20/20
f 18/18/18 13/13/13 21/21/21
f 13/13/13 15/15/15 21/21/21
f 15/15/15 11/11/11 22/22/22
f 11/11/11 16/16/16 22/22/22
f 16/16/16 17/17/17 23/23/23
f 17/17/17 24/24/24 23/23/23
f 18/18/18 25/25/25 20/20/20
f 18/18/18 21/21/21 25/25/25
f 20/20/20 25/25/25 26/26/26
f 27/27/27 20/20/20 26/26/26
f 27/27/27 26/26/26 28/28/28
f 29/29/29 27/27/27 28/28/28
f 29/29/29 28/28/28 30/30/30
f 28/28/28 31/31/31 30/30/30
f 21/21/21 32/32/32 25/25/25
f 21/21/21 33/33/33 32/32/32
f 21/21/21 15/15/15 33/33/33
f 33/33/33 34/34/34 32/32/32
f 15/15/15 22/22/22 33/33/33
f 33/33/33 35/35/35 34/34/34
f 33/33/33 22/22/22 35/35/35
f 35/35/35 36/36/36 34/34/34
f 22/22/22 37/37/37 35/35/35
f 22/22/22 16/16/16 37/37/37
f 16/16/16 23/23/23 37/37/37
f 35/35/35 38/38/38 36/36/36
f 35/35/35 37/37/37 38/38/38
f 38/38/38 39/39/39 36/36/36
f 37/37/37 23/23/23 40/40/40
f 37/37/37 40/40/40 38/38/38
f 38/38/38 41/41/41 39/39/39
f 38/38/38 40/40/40 41/41/41
f 41/41/41 42/42/42 39/39/39
f 23/23/23 43/43/43 40/40/40
f 23/23/23 24/24/24 43/43/43
f 24/24/24 44/44/44 43/43/43
f 41/41/41 45/45/45 42/42/42
f 45/45/45 46/46/46 42/42/42
f 40/40/40 47/47/47 41/41/41
f 40/40/40 43/43/43 47/47/47
f 41/41/41 47/47/47 45/45/45
f 43/43/43 44/44/44 48/48/48
f 43/43/43 48/48/48 47/47/47
f 44/44/44 49/49/49 48/48/48
f 45/45/45 50/50/50 46/46/46
f 50/50/50 51/51/51 46/46/46
f 47/47/47 52/52/52 45/45/45
f 45/45/45 52/52/52 50/50/50
f 47/47/47 48/48/48 52/52/52
f 52/52/52 53/53/53 50/50/50
f 48/48/48 49/49/49 54/54/54
f 48/48/48 54/54/54 52/52/52
f 52/52/52 54/54/54 53/53/53
f 49/49/49 55/55/55 54/54/54
f 54/54/54 56/56/56 53/53/53
f 54/54/54 55/55/55 56/56/56
f 55/55/55 57/57/57 56/56/56
