g voxPlatform01_COL
v 1.01019 -2.048803 1.6973
v 1.697299 -1.633964 1.6973
v 1.697299 -2.048803 0.3857127
v 1.01019 -2.048803 0.3857127
v -1.025304 -2.048803 1.6973
v 1.01019 -2.048803 -1.002633
v 1.697299 -2.048803 -1.002633
v 1.01019 -2.048803 -1.6973
v 1.389959 -2.048803 -1.359731
v 1.389959 0.1308826 -1.359731
v 1.01019 0.1308826 -1.6973
v 1.697299 0.1308826 -1.002633
v -0.4569515 -1.978842 -1.6973
v -0.4569515 -2.048803 -1.002633
v -1.025304 -2.048803 0.9975916
v -1.697299 -2.048803 0.9975916
v -1.440343 -1.794769 1.425229
v -1.697299 -2.048803 -1.002633
v -1.031694 -1.682369 -1.687456
v -1.445381 -0.009383735 -1.425229
v -1.025304 -0.009383735 -1.6973
v -1.697299 -0.009383735 -1.002633
v 1.01019 0.1308826 -1.002633
v -1.025304 -0.009383735 -1.002633
v -1.697299 0.1308826 0.9975916
v -1.025304 0.1308826 0.9975916
v -1.440343 0.1308826 1.425229
v 1.01019 0.1308826 0.9975916
v 1.697299 0.1308826 0.9975916
v -1.025304 0.1308826 1.6973
v 1.01019 0.1308826 1.6973
v 1.697299 0.1308826 1.6973
v 1.697299 -1.633964 1.6973
v 1.697299 0.1308826 0.9975916
v 1.01019 -2.048803 1.6973
v 1.697299 -2.048803 0.3857127
v -1.025304 -2.048803 1.6973
v 1.697299 -2.048803 -1.002633
v 1.697299 0.1308826 -1.002633
v 1.389959 -2.048803 -1.359731
v 1.389959 0.1308826 -1.359731
v -1.440343 -1.794769 1.425229
v -1.697299 0.1308826 0.9975916
v -1.697299 -2.048803 0.9975916
v -1.697299 -0.009383735 -1.002633
v -1.697299 -2.048803 -1.002633
v -1.031694 -1.682369 -1.687456
v -1.445381 -0.009383735 -1.425229
vt 0.5743968 1
vt 0.625 1
vt 0.625 0.948469
vt 0.5743968 0.948469
vt 0.42449 1
vt 0.5743968 0.8011597
vt 0.625 0.8011597
vt 0.5743968 0.75
vt 0.625 0.75
vt 0.625 0.5
vt 0.5743968 0.5
vt 0.625 0.4488402
vt 0.42449 0.7499999
vt 0.42449 0.8011597
vt 0.42449 0.948469
vt 0.375 0.948469
vt 0.375 1
vt 0.375 0.8011597
vt 0.375 0.75
vt 0.375 0.5
vt 0.42449 0.5
vt 0.375 0.4488402
vt 0.5743968 0.4488402
vt 0.42449 0.4488403
vt 0.375 0.301531
vt 0.42449 0.301531
vt 0.375 0.25
vt 0.5743968 0.301531
vt 0.625 0.301531
vt 0.42449 0.25
vt 0.5743968 0.25
vt 0.625 0.25
vt 0.625 0
vt 0.676531 0.25
vt 0.5743968 0
vt 0.676531 0
vt 0.42449 0
vt 0.8238403 0
vt 0.8238403 0.25
vt 0.875 0
vt 0.875 0.25
vt 0.375 0
vt 0.323469 0.25
vt 0.323469 0
vt 0.1761598 0.25
vt 0.1761598 0
vt 0.125 0
vt 0.125 0.25
vn 0.0437646 -0.474277 0.8792872
vn 0.7685319 -0.2455773 0.5908051
vn 0.9525014 -0.3036397 0.02332679
vn 0.03917678 -0.9990215 0.02052376
vn -0.08069928 -0.4018212 0.9121553
vn -0.004756913 -0.9999382 -0.01004663
vn 0.9612551 -0.2350493 -0.1440158
vn 0.1541399 -0.2504371 -0.9557835
vn 0.6930369 -0.2231493 -0.6854957
vn 0.6930369 0.2231494 -0.6854957
vn 0.13799 0.3352298 -0.9319763
vn 0.937795 0.3174903 -0.140501
vn -0.04670537 -0.3060917 -0.9508556
vn -0.01929267 -0.9987938 -0.04515234
vn -0.01306142 -0.999836 0.01254412
vn -0.9151415 -0.3950872 0.08013816
vn -0.7141619 -0.1390535 0.6860299
vn -0.9016289 -0.4074578 -0.1450642
vn -0.5194168 -0.2818286 -0.8067086
vn -0.6252883 0.187852 -0.7574472
vn -0.08371711 0.3600089 -0.9291851
vn -0.950929 0.2576349 -0.1713423
vn -0.03338866 0.9992414 -0.02005051
vn -0.03336063 0.9988899 -0.03326021
vn -0.9511477 0.2971098 0.08392725
vn -0.01966375 0.9992545 -0.03322292
vn -0.6999369 0.2412825 0.6722136
vn -0.01907673 0.9996295 -0.0194131
vn 0.9439287 0.3301497 0
vn -0.1005276 0.2891643 0.9519865
vn 0 0.312446 0.9499356
vn 0.8004087 0.2004311 0.5649542
vn 0.7685319 -0.2455773 0.5908051
vn 0.9439287 0.3301497 0
vn 0.0437646 -0.474277 0.8792872
vn 0.9525014 -0.3036397 0.02332679
vn -0.08069928 -0.4018212 0.9121553
vn 0.9612551 -0.2350493 -0.1440158
vn 0.937795 0.3174903 -0.140501
vn 0.6930369 -0.2231493 -0.6854957
vn 0.6930369 0.2231494 -0.6854957
vn -0.7141619 -0.1390535 0.6860299
vn -0.9511477 0.2971098 0.08392725
vn -0.9151415 -0.3950872 0.08013816
vn -0.950929 0.2576349 -0.1713423
vn -0.9016289 -0.4074578 -0.1450642
vn -0.5194168 -0.2818286 -0.8067086
vn -0.6252883 0.187852 -0.7574472
g voxPlatform01_COL_0
f 3/3/3 2/2/2 1/1/1
f 4/4/4 3/3/3 1/1/1
f 4/4/4 1/1/1 5/5/5
f 4/4/4 6/6/6 3/3/3
f 6/6/6 7/7/7 3/3/3
f 6/6/6 8/8/8 7/7/7
f 8/8/8 9/9/9 7/7/7
f 10/10/10 9/9/9 8/8/8
f 11/11/11 10/10/10 8/8/8
f 12/12/12 10/10/10 11/11/11
f 13/13/13 8/8/8 6/6/6
f 11/11/11 8/8/8 13/13/13
f 14/14/14 6/6/6 4/4/4
f 14/14/14 13/13/13 6/6/6
f 15/15/15 4/4/4 5/5/5
f 15/15/15 14/14/14 4/4/4
f 15/15/15 5/5/5 16/16/16
f 5/5/5 17/17/17 16/16/16
f 15/15/15 16/16/16 18/18/18
f 14/14/14 15/15/15 18/18/18
f 14/14/14 18/18/18 19/19/19
f 13/13/13 14/14/14 19/19/19
f 13/13/13 19/19/19 20/20/20
f 21/21/21 13/13/13 20/20/20
f 21/21/21 11/11/11 13/13/13
f 21/21/21 20/20/20 22/22/22
f 23/23/23 12/12/12 11/11/11
f 23/23/23 11/11/11 21/21/21
f 24/24/24 21/21/21 22/22/22
f 24/24/24 23/23/23 21/21/21
f 24/24/24 22/22/22 25/25/25
f 26/26/26 24/24/24 25/25/25
f 24/24/24 26/26/26 23/23/23
f 26/26/26 25/25/25 27/27/27
f 23/23/23 28/28/28 12/12/12
f 26/26/26 28/28/28 23/23/23
f 28/28/28 29/29/29 12/12/12
f 30/30/30 26/26/26 27/27/27
f 26/26/26 30/30/30 28/28/28
f 28/28/28 31/31/31 29/29/29
f 30/30/30 31/31/31 28/28/28
f 31/31/31 32/32/32 29/29/29
f 33/33/33 32/32/32 31/31/31
f 34/34/34 32/32/32 33/33/33
f 35/35/35 33/33/33 31/31/31
f 35/35/35 31/31/31 30/30/30
f 36/36/36 34/34/34 33/33/33
f 37/37/37 35/35/35 30/30/30
f 36/36/36 38/38/38 34/34/34
f 38/38/38 39/39/39 34/34/34
f 38/38/38 40/40/40 39/39/39
f 40/40/40 41/41/41 39/39/39
f 37/37/37 30/30/30 42/42/42
f 30/30/30 27/27/27 42/42/42
f 42/42/42 27/27/27 43/43/43
f 44/44/44 42/42/42 43/43/43
f 44/44/44 43/43/43 45/45/45
f 46/46/46 44/44/44 45/45/45
f 46/46/46 45/45/45 47/47/47
f 45/45/45 48/48/48 47/47/47
