g voxRamp01_COL
v -2.930122 -2.243264 0.003079224
v -2.930122 2.80694 9.067992
v 3.010428 2.80694 9.067992
v 3.010428 -2.243264 0.003079224
v -3.275262 -0.8591357 -0.5745094
v 3.355568 -0.8591357 -0.5745094
v -2.930122 0.02983215 0.003079224
v 3.010428 0.02983215 0.003079224
v -2.930122 5.080031 9.067992
v 3.010428 5.080031 9.067992
v -3.275262 4.48768 9.787966
v -3.275262 -0.8591357 -0.5745094
v -2.930122 0.02983215 0.003079224
v -2.930122 -2.243264 0.003079224
v -2.930122 2.80694 9.067992
v 3.355568 4.48768 9.787966
v 3.010428 0.02983215 0.003079224
v 3.010428 2.80694 9.067992
v 3.355568 -0.8591357 -0.5745094
v 3.010428 -2.243264 0.003079224
vt 0.375 0.75
vt 0.375 1
vt 0.625 1
vt 0.625 0.75
vt 0.375 0.6306483
vt 0.625 0.6306483
vt 0.375 0.5
vt 0.625 0.5
vt 0.375 0.25
vt 0.625 0.25
vt 0.375 0.1193518
vt 0.125 0.1193517
vt 0.125 0.25
vt 0.125 0
vt 0.375 0
vt 0.625 0.1193518
vt 0.875 0.25
vt 0.625 0
vt 0.875 0.1193517
vt 0.875 0
vn -0.2037344 -0.9225272 0.327774
vn -0.2794361 -0.7882394 0.5482647
vn 0.2794362 -0.7882393 0.5482647
vn 0.2037345 -0.9225272 0.327774
vn -0.8551144 -0.1154564 -0.5054199
vn 0.8551144 -0.1154563 -0.5054199
vn -0.1627265 0.8376668 -0.5213775
vn 0.1627265 0.8376668 -0.5213775
vn -0.1323873 0.908874 -0.3955018
vn 0.1323873 0.908874 -0.3955019
vn -0.7259383 0.03200397 0.6870148
vn -0.8551144 -0.1154564 -0.5054199
vn -0.1627265 0.8376668 -0.5213775
vn -0.2037344 -0.9225272 0.327774
vn -0.2794361 -0.7882394 0.5482647
vn 0.7259383 0.03200388 0.6870148
vn 0.1627265 0.8376668 -0.5213775
vn 0.2794362 -0.7882393 0.5482647
vn 0.8551144 -0.1154563 -0.5054199
vn 0.2037345 -0.9225272 0.327774
g voxRamp01_COL_0
f 3/3/3 2/2/2 1/1/1
f 4/4/4 3/3/3 1/1/1
f 4/4/4 1/1/1 5/5/5
f 6/6/6 4/4/4 5/5/5
f 6/6/6 5/5/5 7/7/7
f 8/8/8 6/6/6 7/7/7
f 8/8/8 7/7/7 9/9/9
f 10/10/10 8/8/8 9/9/9
f 10/10/10 9/9/9 11/11/11
f 11/11/11 9/9/9 12/12/12
f 9/9/9 13/13/13 12/12/12
f 11/11/11 12/12/12 14/14/14
f 15/15/15 11/11/11 14/14/14
f 16/16/16 10/10/10 11/11/11
f 16/16/16 11/11/11 15/15/15
f 17/17/17 10/10/10 16/16/16
f 18/18/18 16/16/16 15/15/15
f 19/19/19 17/17/17 16/16/16
f 19/19/19 16/16/16 18/18/18
f 20/20/20 19/19/19 18/18/18
