g voxTree04_leaves01_COL
v -2.416145 -0.3667228 2.61335
v -2.430727 0.09077835 2.627992
v -1.716679 0.4932578 2.930577
v -2.59466 0.3983675 1.820172
v -1.970814 0.8184701 2.162011
v -1.61438 1.090264 1.859716
v -1.194715 1.001199 2.48336
v -0.5701467 1.0759 2.599828
v -2.344577 0.9378641 1.449883
v -2.527601 1.032655 0.8556047
v -1.648753 1.511476 0.8377613
v -0.5633785 1.346994 1.938849
v -2.952776 0.285374 0.8099765
v -2.563267 -0.5226269 1.826954
v -2.707016 1.153332 -0.2606182
v -1.745736 -0.575241 2.93232
v -1.5713 -0.8073256 1.776064
v -2.648989 -0.6020621 0.7679303
v -3.084941 0.2426849 -0.293435
v -1.547447 -0.861637 0.7318582
v 0.5829664 1.090842 2.653082
v -0.5836383 0.8661758 3.14751
v -0.559642 1.692932 1.10818
v 0.5712044 1.392272 1.938791
v -0.493072 -0.8260069 1.750016
v -0.477697 -0.8232234 0.7216619
v -1.546821 -0.8651183 -0.2971174
v -0.4761458 -0.8202369 -0.2893419
v -2.610439 -0.6208035 -0.3057678
v 1.333004 0.9969143 2.558359
v 0.6114511 0.8935456 3.201666
v 0.576156 1.724062 1.122325
v 1.72001 1.122195 1.923795
v 0.530361 -0.8209919 0.7270699
v 0.5234066 -0.8144233 -0.2892591
v -2.918708 0.2307664 -1.40126
v -2.643538 1.097622 -1.405784
v -1.982675 1.661955 -0.2391682
v 2.202344 0.3053697 2.304121
v 1.689727 0.4550668 2.942832
v 1.840164 -0.6344538 1.942541
v 2.58989 0.2754762 1.736902
v 2.456024 0.9273086 1.543405
v 1.699005 1.541568 0.8150372
v 1.458219 0.1480007 3.650371
v 1.658039 -0.5130261 2.89325
v 0.6278788 0.3178613 3.957643
v -0.5751799 0.2915314 4.001788
v 1.44884 -0.3665502 3.618944
v 0.6152974 -0.49776 3.893467
v -0.5439774 -0.5201806 3.942513
v 0.5735983 -0.7647216 2.808519
v -1.464149 0.1217584 3.722932
v -1.458418 -0.386609 3.703097
v -0.5117034 -0.7934377 2.81108
v 0.5536513 -0.8182824 1.754328
v 1.601369 -0.8179529 0.7442604
v 1.591738 -0.8254485 -0.2938485
v 2.585363 -0.5591666 0.7789868
v 2.504224 -0.4525898 1.671481
v 2.635823 -0.5764705 -0.2951268
v 2.873889 0.2617773 0.7964802
v 2.574663 1.01969 0.8142638
v 2.999038 0.2588991 -0.2948811
v 2.585073 -0.5359353 -1.375615
v 1.607764 -0.7952051 -1.331269
v 0.5380293 -0.8273792 -1.307662
v -0.491898 -0.8382277 -1.308815
v -1.568969 -0.8280759 -1.335437
v -2.527411 -0.5731426 -1.380742
v -1.74547 -0.6330856 -2.488393
v -0.5116321 -0.8285367 -2.37512
v 0.5574973 -0.8175343 -2.376294
v 1.781876 -0.6005499 -2.515813
v 2.469149 -0.4158523 -2.207823
v 1.862597 0.4137723 -2.892385
v 1.478995 -0.4259797 -3.27231
v 0.6025353 -0.5489968 -3.442028
v 0.7252722 0.41561 -3.580893
v 1.504467 0.1130126 -3.326416
v 2.849322 0.2656112 -1.393615
v -0.5264807 -0.5670379 -3.487077
v 2.525377 0.2843406 -2.258808
v 2.646953 1.053748 -0.2970277
v -0.5239109 0.2867815 -3.823928
v 2.554893 0.9765429 -1.409166
v 1.7537 1.490738 -1.434749
v 1.97507 1.546783 -0.29162
v 1.27917 1.872852 0.4304053
v 1.370269 1.904808 -0.2783765
v 0.5718338 1.930055 0.5576999
v 0.574749 2.064915 -0.2625796
v 0.6166007 1.969535 -1.416822
v 1.342101 1.885839 -1.043397
v -0.5396219 1.9256 0.5482764
v -0.5247057 2.088405 -0.2518811
v -0.5151653 2.040742 -1.373259
v -1.22726 1.867489 0.4385431
v -1.373803 1.937505 -0.2422612
v -1.327386 1.917817 -1.383737
v -1.940781 1.618377 -1.399541
v -1.155628 1.831867 -2.026543
v -2.47705 0.9453385 -2.205623
v -0.5096169 1.859851 -2.071043
v -1.671839 1.29726 -2.503324
v -2.560174 0.2376278 -2.308082
v -2.425146 -0.4610297 -2.16518
v -2.167154 0.2518055 -2.883003
v -0.5084141 1.502869 -2.648656
v -1.375093 0.9681525 -3.270966
v -1.573595 0.2695742 -3.436343
v -1.44621 -0.4741947 -3.324922
v -0.5149835 1.028638 -3.389319
v 0.717209 1.361923 -2.602403
v 0.2448996 1.855651 -2.077214
v 0.3914432 0.9832878 -3.337901
v 1.185383 0.8628982 -3.125723
v 1.037256 1.717408 -1.842607
v 1.78164 1.081901 -2.352128
v 2.420191 0.8863493 -2.106292
vn -0.4994057 0.09431148 0.8612197
vn -0.4994057 0.09431148 0.8612197
vn -0.9078106 0.08973002 0.4096686
vn -0.9723354 -0.09534709 0.2132436
vn -0.6367333 0.6153477 0.4646699
vn -0.2843706 0.8532482 0.437151
vn -0.2557983 0.8853531 0.3882228
vn -0.2557983 0.8853531 0.3882228
vn -0.4520249 0.805312 0.3835961
vn -0.4520249 0.805312 0.3835961
vn -0.2425945 0.822928 0.5137483
vn -0.2843706 0.8532482 0.437151
vn -0.9723354 -0.09534709 0.2132436
vn -0.9723354 -0.09534709 0.2132436
vn -0.6464599 0.7599778 -0.06725544
vn -0.9078106 0.08973002 0.4096686
vn 0.01726308 -0.999453 0.0282085
vn -0.9723354 -0.09534709 0.2132436
vn -0.9188506 -0.3763787 -0.1185436
vn 0.01726308 -0.999453 0.0282085
vn 0.2136629 0.8881088 0.4069532
vn -0.3697004 0.7662127 0.525585
vn -0.2425945 0.822928 0.5137483
vn 0.2637931 0.8724666 0.4113578
vn 0.01726308 -0.999453 0.0282085
vn 0.01726308 -0.999453 0.0282085
vn 0.02571899 -0.9996248 -0.009414369
vn 0.02571899 -0.9996248 -0.009414369
vn -0.9188506 -0.3763787 -0.1185436
vn 0.2136629 0.8881088 0.4069532
vn 0.4217933 0.7230559 0.5470654
vn 0.2392406 0.843745 0.4804772
vn 0.2637931 0.8724666 0.4113578
vn 0.06076359 -0.9960685 0.06446257
vn 0.007342619 -0.9999365 -0.008559919
vn -0.9188506 -0.3763787 -0.1185436
vn -0.6464599 0.7599778 -0.06725544
vn -0.5004026 0.8644559 -0.04809658
vn 0.666665 -0.2621962 0.6977184
vn 0.950683 0.01680637 0.3097088
vn 0.06076359 -0.9960685 0.06446257
vn 0.9681653 -0.1400816 0.2074443
vn 0.4738848 0.8268251 0.3029742
vn 0.2392406 0.843745 0.4804772
vn 0.950683 0.01680637 0.3097088
vn 0.950683 0.01680637 0.3097088
vn 0.3316667 1.536988E-07 0.9433966
vn -0.2840661 1.562091E-07 0.9588047
vn 0.950683 0.01680637 0.3097088
vn 0.3316667 1.536988E-07 0.9433966
vn -0.2840661 1.562091E-07 0.9588047
vn 0.1726524 -0.9686497 0.1786307
vn -0.9078106 0.08973002 0.4096686
vn -0.9078106 0.08973002 0.4096686
vn -0.1367606 -0.9734854 0.1833654
vn 0.06076359 -0.9960685 0.06446257
vn 0.06076359 -0.9960685 0.06446257
vn 0.007342619 -0.9999365 -0.008559919
vn 0.9681653 -0.1400816 0.2074443
vn 0.9681653 -0.1400816 0.2074443
vn 0.9602243 -0.2610884 -0.09900594
vn 0.9681653 -0.1400816 0.2074443
vn 0.4738848 0.8268251 0.3029742
vn 0.9602243 -0.2610884 -0.09900594
vn 0.9602243 -0.2610884 -0.09900594
vn 0.007342619 -0.9999365 -0.008559919
vn 0.007342619 -0.9999365 -0.008559919
vn 0.02571899 -0.9996248 -0.009414369
vn 0.02571899 -0.9996248 -0.009414369
vn -0.9188506 -0.3763787 -0.1185436
vn -0.7629334 -0.3343861 -0.5532799
vn -0.1322423 -0.9723085 -0.1926871
vn 0.1412446 -0.9694762 -0.2004141
vn 0.8466024 -0.1037463 -0.5220163
vn 0.6059453 -0.1454616 -0.7820941
vn 0.8466024 -0.1037463 -0.5220163
vn 0.8466024 -0.1037463 -0.5220163
vn 0.2502382 -0.05039006 -0.966872
vn 0.2502382 -0.05039006 -0.966872
vn 0.8466024 -0.1037463 -0.5220163
vn 0.9602243 -0.2610884 -0.09900594
vn -0.2791568 -0.1917379 -0.9409081
vn 0.6059453 -0.1454616 -0.7820941
vn 0.6238984 0.76848 -0.1420882
vn -0.2791568 -0.1917379 -0.9409081
vn 0.6238984 0.76848 -0.1420882
vn 0.6533673 0.7472794 -0.1211806
vn 0.6533673 0.7472794 -0.1211806
vn 0.2392406 0.843745 0.4804772
vn 0.6533673 0.7472794 -0.1211806
vn 0.2392406 0.843745 0.4804772
vn 0.192105 0.9792256 -0.06490556
vn 0.4267818 0.8190799 -0.3833608
vn 0.6533673 0.7472794 -0.1211806
vn -0.2425945 0.822928 0.5137483
vn -0.1919456 0.9805899 -0.04000549
vn -0.1919456 0.9805899 -0.04000549
vn -0.2425945 0.822928 0.5137483
vn -0.5004026 0.8644559 -0.04809658
vn -0.5004026 0.8644559 -0.04809658
vn -0.5004026 0.8644559 -0.04809658
vn -0.169622 0.7238796 -0.6687502
vn -0.5636562 0.7480277 -0.3503516
vn -0.169622 0.7238796 -0.6687502
vn -0.169622 0.7238796 -0.6687502
vn -0.6625685 -0.3532101 -0.6604889
vn -0.6625685 -0.3532101 -0.6604889
vn -0.7629334 -0.3343861 -0.5532799
vn -0.169622 0.7238796 -0.6687502
vn -0.1852705 0.8156527 -0.5480743
vn -0.7629334 -0.3343861 -0.5532799
vn -0.7629334 -0.3343861 -0.5532799
vn -0.1852705 0.8156527 -0.5480743
vn 0.3258853 0.8076299 -0.4914598
vn 0.3258853 0.8076299 -0.4914598
vn 0.1158748 0.807381 -0.5785404
vn 0.4894746 0.3586113 -0.7948664
vn 0.4267818 0.8190799 -0.3833608
vn 0.439238 0.7498443 -0.4947764
vn 0.5034385 0.8006022 -0.3249397
g voxTree04_leaves01_COL_0
f 3/3/3 2/2/2 1/1/1
f 4/4/4 2/2/2 3/3/3
f 2/2/2 4/4/4 1/1/1
f 5/5/5 4/4/4 3/3/3
f 6/6/6 5/5/5 3/3/3
f 5/5/5 6/6/6 4/4/4
f 7/7/7 6/6/6 3/3/3
f 8/8/8 7/7/7 3/3/3
f 6/6/6 7/7/7 8/8/8
f 6/6/6 9/9/9 4/4/4
f 9/9/9 10/10/10 4/4/4
f 10/10/10 9/9/9 6/6/6
f 11/11/11 10/10/10 6/6/6
f 11/11/11 6/6/6 12/12/12
f 12/12/12 6/6/6 8/8/8
f 10/10/10 13/13/13 4/4/4
f 4/4/4 14/14/14 1/1/1
f 4/4/4 13/13/13 14/14/14
f 15/15/15 10/10/10 11/11/11
f 10/10/10 15/15/15 13/13/13
f 16/16/16 3/3/3 1/1/1
f 14/14/14 17/17/17 1/1/1
f 17/17/17 16/16/16 1/1/1
f 13/13/13 18/18/18 14/14/14
f 15/15/15 19/19/19 13/13/13
f 13/13/13 19/19/19 18/18/18
f 20/20/20 17/17/17 14/14/14
f 18/18/18 20/20/20 14/14/14
f 12/12/12 8/8/8 21/21/21
f 22/22/22 8/8/8 3/3/3
f 21/21/21 8/8/8 22/22/22
f 23/23/23 11/11/11 12/12/12
f 24/24/24 12/12/12 21/21/21
f 23/23/23 12/12/12 24/24/24
f 17/17/17 25/25/25 16/16/16
f 20/20/20 26/26/26 17/17/17
f 26/26/26 25/25/25 17/17/17
f 27/27/27 20/20/20 18/18/18
f 28/28/28 26/26/26 20/20/20
f 27/27/27 28/28/28 20/20/20
f 29/29/29 27/27/27 18/18/18
f 19/19/19 29/29/29 18/18/18
f 24/24/24 21/21/21 30/30/30
f 30/30/30 21/21/21 31/31/31
f 31/31/31 21/21/21 22/22/22
f 32/32/32 23/23/23 24/24/24
f 33/33/33 24/24/24 30/30/30
f 32/32/32 24/24/24 33/33/33
f 26/26/26 34/34/34 25/25/25
f 28/28/28 35/35/35 26/26/26
f 35/35/35 34/34/34 26/26/26
f 19/19/19 36/36/36 29/29/29
f 37/37/37 36/36/36 19/19/19
f 15/15/15 37/37/37 19/19/19
f 37/37/37 15/15/15 38/38/38
f 38/38/38 15/15/15 11/11/11
f 33/33/33 30/30/30 39/39/39
f 30/30/30 40/40/40 39/39/39
f 39/39/39 40/40/40 41/41/41
f 42/42/42 39/39/39 41/41/41
f 40/40/40 30/30/30 31/31/31
f 43/43/43 33/33/33 39/39/39
f 42/42/42 43/43/43 39/39/39
f 44/44/44 33/33/33 43/43/43
f 44/44/44 32/32/32 33/33/33
f 40/40/40 31/31/31 45/45/45
f 40/40/40 46/46/46 41/41/41
f 40/40/40 45/45/45 46/46/46
f 31/31/31 47/47/47 45/45/45
f 31/31/31 22/22/22 47/47/47
f 22/22/22 48/48/48 47/47/47
f 22/22/22 3/3/3 48/48/48
f 45/45/45 49/49/49 46/46/46
f 49/49/49 45/45/45 50/50/50
f 45/45/45 47/47/47 50/50/50
f 46/46/46 49/49/49 50/50/50
f 50/50/50 47/47/47 51/51/51
f 47/47/47 48/48/48 51/51/51
f 52/52/52 46/46/46 50/50/50
f 41/41/41 46/46/46 52/52/52
f 52/52/52 50/50/50 51/51/51
f 3/3/3 53/53/53 48/48/48
f 48/48/48 53/53/53 54/54/54
f 53/53/53 3/3/3 54/54/54
f 51/51/51 48/48/48 54/54/54
f 3/3/3 16/16/16 54/54/54
f 55/55/55 51/51/51 54/54/54
f 16/16/16 55/55/55 54/54/54
f 55/55/55 52/52/52 51/51/51
f 25/25/25 55/55/55 16/16/16
f 56/56/56 52/52/52 55/55/55
f 25/25/25 56/56/56 55/55/55
f 56/56/56 41/41/41 52/52/52
f 34/34/34 56/56/56 25/25/25
f 34/34/34 57/57/57 56/56/56
f 57/57/57 41/41/41 56/56/56
f 58/58/58 57/57/57 34/34/34
f 35/35/35 58/58/58 34/34/34
f 57/57/57 59/59/59 41/41/41
f 59/59/59 60/60/60 41/41/41
f 60/60/60 42/42/42 41/41/41
f 42/42/42 60/60/60 59/59/59
f 61/61/61 59/59/59 57/57/57
f 58/58/58 61/61/61 57/57/57
f 62/62/62 42/42/42 59/59/59
f 62/62/62 59/59/59 61/61/61
f 43/43/43 42/42/42 62/62/62
f 63/63/63 43/43/43 62/62/62
f 63/63/63 44/44/44 43/43/43
f 64/64/64 62/62/62 61/61/61
f 63/63/63 62/62/62 64/64/64
f 65/65/65 61/61/61 58/58/58
f 64/64/64 61/61/61 65/65/65
f 66/66/66 58/58/58 35/35/35
f 66/66/66 65/65/65 58/58/58
f 67/67/67 66/66/66 35/35/35
f 67/67/67 35/35/35 28/28/28
f 68/68/68 67/67/67 28/28/28
f 68/68/68 28/28/28 27/27/27
f 69/69/69 68/68/68 27/27/27
f 69/69/69 27/27/27 29/29/29
f 70/70/70 69/69/69 29/29/29
f 71/71/71 69/69/69 70/70/70
f 71/71/71 72/72/72 69/69/69
f 72/72/72 68/68/68 69/69/69
f 36/36/36 70/70/70 29/29/29
f 73/73/73 67/67/67 68/68/68
f 72/72/72 73/73/73 68/68/68
f 74/74/74 66/66/66 67/67/67
f 73/73/73 74/74/74 67/67/67
f 75/75/75 65/65/65 66/66/66
f 74/74/74 75/75/75 66/66/66
f 75/75/75 74/74/74 76/76/76
f 76/76/76 74/74/74 77/77/77
f 77/77/77 74/74/74 73/73/73
f 78/78/78 73/73/73 72/72/72
f 78/78/78 77/77/77 73/73/73
f 77/77/77 78/78/78 79/79/79
f 80/80/80 77/77/77 79/79/79
f 80/80/80 76/76/76 77/77/77
f 80/80/80 79/79/79 76/76/76
f 81/81/81 65/65/65 75/75/75
f 81/81/81 64/64/64 65/65/65
f 82/82/82 78/78/78 72/72/72
f 82/82/82 72/72/72 71/71/71
f 83/83/83 75/75/75 76/76/76
f 83/83/83 81/81/81 75/75/75
f 84/84/84 64/64/64 81/81/81
f 84/84/84 63/63/63 64/64/64
f 79/79/79 78/78/78 85/85/85
f 78/78/78 82/82/82 85/85/85
f 86/86/86 81/81/81 83/83/83
f 86/86/86 84/84/84 81/81/81
f 86/86/86 87/87/87 84/84/84
f 87/87/87 88/88/88 84/84/84
f 84/84/84 88/88/88 63/63/63
f 88/88/88 44/44/44 63/63/63
f 89/89/89 44/44/44 88/88/88
f 44/44/44 89/89/89 32/32/32
f 90/90/90 88/88/88 87/87/87
f 90/90/90 89/89/89 88/88/88
f 89/89/89 91/91/91 32/32/32
f 32/32/32 91/91/91 23/23/23
f 90/90/90 92/92/92 89/89/89
f 92/92/92 91/91/91 89/89/89
f 93/93/93 92/92/92 90/90/90
f 94/94/94 93/93/93 90/90/90
f 94/94/94 90/90/90 87/87/87
f 94/94/94 87/87/87 93/93/93
f 91/91/91 95/95/95 23/23/23
f 23/23/23 95/95/95 11/11/11
f 92/92/92 96/96/96 91/91/91
f 96/96/96 95/95/95 91/91/91
f 93/93/93 97/97/97 92/92/92
f 97/97/97 96/96/96 92/92/92
f 95/95/95 98/98/98 11/11/11
f 98/98/98 99/99/99 11/11/11
f 99/99/99 98/98/98 95/95/95
f 96/96/96 99/99/99 95/95/95
f 99/99/99 38/38/38 11/11/11
f 100/100/100 99/99/99 96/96/96
f 99/99/99 100/100/100 38/38/38
f 97/97/97 100/100/100 96/96/96
f 100/100/100 101/101/101 38/38/38
f 101/101/101 37/37/37 38/38/38
f 102/102/102 100/100/100 97/97/97
f 100/100/100 102/102/102 101/101/101
f 103/103/103 37/37/37 101/101/101
f 37/37/37 103/103/103 36/36/36
f 104/104/104 97/97/97 93/93/93
f 104/104/104 102/102/102 97/97/97
f 102/102/102 105/105/105 101/101/101
f 105/105/105 103/103/103 101/101/101
f 103/103/103 106/106/106 36/36/36
f 36/36/36 106/106/106 70/70/70
f 106/106/106 107/107/107 70/70/70
f 107/107/107 71/71/71 70/70/70
f 71/71/71 107/107/107 106/106/106
f 108/108/108 106/106/106 103/103/103
f 105/105/105 108/108/108 103/103/103
f 108/108/108 71/71/71 106/106/106
f 109/109/109 105/105/105 102/102/102
f 104/104/104 109/109/109 102/102/102
f 105/105/105 110/110/110 108/108/108
f 110/110/110 105/105/105 109/109/109
f 108/108/108 111/111/111 71/71/71
f 110/110/110 111/111/111 108/108/108
f 111/111/111 112/112/112 71/71/71
f 112/112/112 82/82/82 71/71/71
f 82/82/82 112/112/112 111/111/111
f 85/85/85 82/82/82 111/111/111
f 85/85/85 111/111/111 110/110/110
f 113/113/113 85/85/85 110/110/110
f 113/113/113 110/110/110 109/109/109
f 79/79/79 85/85/85 113/113/113
f 114/114/114 109/109/109 104/104/104
f 113/113/113 109/109/109 114/114/114
f 115/115/115 114/114/114 104/104/104
f 116/116/116 113/113/113 114/114/114
f 116/116/116 114/114/114 79/79/79
f 116/116/116 79/79/79 113/113/113
f 115/115/115 104/104/104 93/93/93
f 115/115/115 93/93/93 114/114/114
f 114/114/114 117/117/117 79/79/79
f 79/79/79 117/117/117 76/76/76
f 76/76/76 117/117/117 114/114/114
f 93/93/93 118/118/118 114/114/114
f 87/87/87 118/118/118 93/93/93
f 114/114/114 118/118/118 87/87/87
f 119/119/119 76/76/76 114/114/114
f 119/119/119 114/114/114 87/87/87
f 83/83/83 76/76/76 119/119/119
f 119/119/119 87/87/87 86/86/86
f 120/120/120 86/86/86 83/83/83
f 120/120/120 119/119/119 86/86/86
f 120/120/120 83/83/83 119/119/119
