g voxTree01_COL
v -1.319559 1.684238 0.9198495
v -1.341509 2.328666 0.3445905
v -1.282574 2.242082 0.8702774
v -0.9191702 2.421442 1.099825
v -0.9625534 1.672137 1.271309
v -1.156328 2.676368 0.3776346
v -0.6550177 1.675188 1.41003
v -1.439185 1.690123 0.3189691
v -1.291233 2.346213 -0.1983081
v -1.318117 1.60069 -0.2381998
v -1.244861 1.170627 0.3237268
v -1.213779 1.202819 0.8000183
v -0.749414 1.128931 1.006585
v -0.5338718 1.287998 1.334073
v -0.7852185 0.9477736 0.3406409
v -0.8843463 1.069926 -0.2434528
v -0.3113562 0.8455523 -0.3277597
v -0.3057901 0.8057434 0.4238647
v -1.206336 1.219949 -0.05482696
v -0.1972977 0.9602668 0.9633105
v 0.470892 0.7828411 0.4330139
v 0.5145511 1.041587 1.053996
v 1.077686 1.053721 0.4157324
v 0.9300824 1.175744 0.910444
v -0.1987518 1.21176 1.400745
v -0.2956522 0.6092083 0.3575314
v 1.006382 1.727216 1.07063
v -0.1931061 1.691551 1.582906
v -0.2160269 2.337412 1.488263
v -0.6843854 2.135971 1.416021
v 0.3453345 1.20747 1.418617
v 0.5095862 1.728391 1.500429
v 0.3789435 2.325552 1.47147
v 0.8121265 1.721732 1.316029
v 0.981131 2.337635 0.9289346
v 0.7360544 2.341253 1.228633
v 0.2507428 2.709812 1.353225
v 1.309526 1.686272 0.648537
v 0.8664941 2.763441 0.8097265
v 0.4733289 2.894823 1.010383
v -0.2269321 2.920929 1.051783
v -0.2796912 3.25018 0.4754599
v 0.4870651 3.221881 0.4680731
v -0.01399719 2.71664 1.356504
v 1.270742 2.400585 0.4751388
v -0.4511429 2.588745 1.293553
v 0.9790808 2.882373 0.4111362
v -0.7257587 2.82267 0.8680356
v -0.8436956 2.939175 0.399451
v -0.8658096 2.980329 -0.1694876
v -1.169405 2.644826 -0.2019434
v -1.24729 2.187991 -0.7435727
v -0.7511792 2.864533 -0.7515231
v -0.5267972 3.280972 -0.1995917
v -0.9580145 2.415583 -0.9709457
v -1.152274 1.64124 -0.9599054
v -1.251861 1.835153 -0.8250265
v -1.178375 1.294907 -0.4257883
v -0.5196075 2.618005 -1.186883
v -0.2980664 3.012782 -0.9117078
v -0.7379358 2.189036 -1.31203
v -0.7762344 1.105742 -0.8246283
v -0.8544794 1.727059 -1.316084
v -0.1953305 0.9538585 -0.8125107
v -0.2515945 2.365561 -1.387763
v -0.07167206 2.739533 -1.259297
v 0.4545614 2.334848 -1.370438
v 0.2574667 2.739275 -1.255194
v 0.4640207 2.980997 -0.8880841
v -0.06675445 3.309657 -0.6212216
v 0.7000793 2.566009 -1.138555
v -0.1871939 1.695012 -1.522132
v 1.09424 2.381737 -0.9175412
v 0.8639709 2.132432 -1.291733
v 0.8729056 1.690872 -1.304741
v 0.9184182 2.807801 -0.7191235
v 0.4186188 1.69255 -1.480442
v -0.2320319 3.349446 -0.1901654
v 1.028349 2.90955 -0.2382895
v -0.1854135 1.152938 -1.304076
v 0.4127194 1.195128 -1.286423
v 0.7902035 1.276289 -1.229311
v -0.6572571 1.204299 -1.233158
v 0.3954462 0.967197 -0.8327078
v 1.180889 1.696694 -1.061329
v 0.9919274 1.114758 -0.8757477
v 0.4602872 0.796558 -0.3246246
v 1.423571 1.226623 -0.6716925
v 1.497749 1.702768 -0.7346917
v 0.994053 0.8896366 -0.2258386
v 0.4068619 0.6092033 -0.2980325
v -0.2945254 0.6237382 -0.2961008
v 1.462535 1.164089 -0.2087186
v 0.4077536 0.5943894 0.358627
v 1.64486 1.700494 -0.2077942
v 0.3868677 0.05507622 -0.3180868
v -0.3562253 0.05098444 0.3805624
v -0.3559393 0.04665433 -0.3175424
v 0.4110901 0.1218749 0.3550711
v 0.2960782 -0.2290056 -0.2032767
v -0.22341 -0.2307108 0.2950696
v -0.2204236 -0.2350926 -0.1992798
v 0.2989798 -0.2243019 0.2990079
v 1.538892 2.290609 -0.2206201
v 1.458893 2.189571 -0.6827447
v 1.314628 2.620669 -0.2306949
v 1.502889 2.218873 0.2972113
v 1.522622 1.687503 0.3352029
v 1.426777 1.224054 0.2290793
v 0.6552289 3.208162 -0.2435696
v 0.2709082 3.349938 0.2823792
v 0.3073029 3.352446 -0.2294846
v -0.08834229 3.351125 0.2881735
v 0.2166489 3.307136 -0.619942
vn -0.9835666 0.1215624 0.1334892
vn -0.9835666 0.1215624 0.1334892
vn -0.9835666 0.1215624 0.1334892
vn -0.6195267 0.1753875 0.7651312
vn -0.6195267 0.1753875 0.7651312
vn -0.7111004 0.6179774 0.3353211
vn -0.265449 0.06559698 0.9618908
vn -0.9835666 0.1215624 0.1334892
vn -0.9963463 0.02849273 -0.08051205
vn -0.9963463 0.02849273 -0.08051205
vn -0.2744465 -0.9459125 0.1729993
vn -0.2744465 -0.9459125 0.1729993
vn -0.2753952 -0.9185255 0.2836698
vn -0.240231 -0.8496425 0.4694643
vn -0.2753952 -0.9185255 0.2836698
vn -0.3154948 -0.9294201 -0.1914192
vn -0.3154948 -0.9294201 -0.1914192
vn -0.2753952 -0.9185255 0.2836698
vn -0.4049865 -0.9035546 -0.1399111
vn -0.2753952 -0.9185255 0.2836698
vn 0.3681066 -0.8773704 0.3077639
vn 0.3681066 -0.8773704 0.3077639
vn 0.3681066 -0.8773704 0.3077639
vn 0.3681066 -0.8773704 0.3077639
vn -0.240231 -0.8496425 0.4694643
vn -0.01162962 -0.3947823 0.9187011
vn 0.8082006 0.1815439 0.5602265
vn -0.265449 0.06559698 0.9618908
vn -0.265449 0.06559698 0.9618908
vn -0.265449 0.06559698 0.9618908
vn -0.005203413 -0.91369 0.4063784
vn 0.5382566 0.1875083 0.8216571
vn 0.5382566 0.1875083 0.8216571
vn 0.7732645 0.1958047 0.6030942
vn 0.8082006 0.1815439 0.5602265
vn 0.7732645 0.1958047 0.6030942
vn 0.5658175 0.4684791 0.6785116
vn 0.8082006 0.1815439 0.5602265
vn 0.5168382 0.7449028 0.4218982
vn 0.5168382 0.7449028 0.4218982
vn -0.4164884 0.8094711 0.4138766
vn -0.4164884 0.8094711 0.4138766
vn 0.5168382 0.7449028 0.4218982
vn -0.292233 0.5750104 0.7641746
vn 0.8082006 0.1815439 0.5602265
vn -0.3972527 0.4357297 0.8076694
vn 0.5168382 0.7449028 0.4218982
vn -0.4164884 0.8094711 0.4138766
vn -0.4164884 0.8094711 0.4138766
vn -0.5396974 0.7562875 -0.3698052
vn -0.8038518 0.5130161 -0.3010595
vn -0.9963463 0.02849273 -0.08051205
vn -0.5396974 0.7562875 -0.3698052
vn -0.3943777 0.8406184 -0.3712504
vn -0.6646268 0.1985849 -0.7203022
vn -0.6646268 0.1985849 -0.7203022
vn -0.9963463 0.02849273 -0.08051205
vn -0.9371573 -0.2790555 -0.2094375
vn -0.4270609 0.4549572 -0.7814301
vn -0.3943777 0.8406184 -0.3712504
vn -0.2281688 0.1417246 -0.9632513
vn -0.3154948 -0.9294201 -0.1914192
vn -0.2281688 0.1417246 -0.9632513
vn -0.3154948 -0.9294201 -0.1914192
vn -0.2281688 0.1417246 -0.9632513
vn -0.2868385 0.5567231 -0.7796045
vn 0.2884341 0.1016639 -0.9520873
vn 0.4268288 0.5445545 -0.7219957
vn 0.4998094 0.7937265 -0.3466825
vn -0.3943777 0.8406184 -0.3712504
vn 0.4988928 0.4640426 -0.7319635
vn -0.2281688 0.1417246 -0.9632513
vn 0.6386191 0.1966794 -0.7439643
vn 0.2884341 0.1016639 -0.9520873
vn 0.2884341 0.1016639 -0.9520873
vn 0.5198458 0.770201 -0.3695278
vn 0.2884341 0.1016639 -0.9520873
vn -0.3943777 0.8406184 -0.3712504
vn 0.5198458 0.770201 -0.3695278
vn -0.176928 -0.9478739 -0.2650126
vn 0.1810101 -0.8918952 -0.4144373
vn 0.1810101 -0.8918952 -0.4144373
vn -0.176928 -0.9478739 -0.2650126
vn 0.1885468 -0.9273335 -0.3232689
vn 0.6386191 0.1966794 -0.7439643
vn 0.1885468 -0.9273335 -0.3232689
vn 0.1885468 -0.9273335 -0.3232689
vn 0.3700871 -0.9001684 -0.2296352
vn 0.9652659 0.1369589 -0.2224945
vn 0.1885468 -0.9273335 -0.3232689
vn -0.01325505 -0.2928977 -0.9560519
vn -0.01325505 -0.2928977 -0.9560519
vn 0.3700871 -0.9001684 -0.2296352
vn -0.01162962 -0.3947823 0.9187011
vn 0.9652659 0.1369589 -0.2224945
vn 0 -0.1607351 -0.9869976
vn 0 -0.07936105 0.9968459
vn 0 -0.1607351 -0.9869976
vn 0 -0.07936105 0.9968459
vn 0 -0.1607351 -0.9869976
vn 0 -0.07936105 0.9968459
vn 0 -0.1607351 -0.9869976
vn 0 -0.07936105 0.9968459
vn 0.9652659 0.1369589 -0.2224945
vn 0.9652659 0.1369589 -0.2224945
vn 0.6792321 0.6308263 -0.3751027
vn 0.7479195 0.1371789 0.64946
vn 0.7479195 0.1371789 0.64946
vn 0.4562808 -0.8759494 0.1565904
vn 0.4998094 0.7937265 -0.3466825
vn 0.02157863 0.8498815 0.5265319
vn 0.4998094 0.7937265 -0.3466825
vn 0.02157863 0.8498815 0.5265319
vn 0.4998094 0.7937265 -0.3466825
g voxTree01_COL_0
f 3/3/3 2/2/2 1/1/1
f 4/4/4 3/3/3 1/1/1
f 2/2/2 3/3/3 4/4/4
f 5/5/5 4/4/4 1/1/1
f 6/6/6 2/2/2 4/4/4
f 4/4/4 5/5/5 7/7/7
f 2/2/2 8/8/8 1/1/1
f 9/9/9 2/2/2 6/6/6
f 2/2/2 9/9/9 8/8/8
f 9/9/9 10/10/10 8/8/8
f 8/8/8 10/10/10 11/11/11
f 1/1/1 8/8/8 12/12/12
f 5/5/5 1/1/1 12/12/12
f 8/8/8 11/11/11 12/12/12
f 13/13/13 5/5/5 12/12/12
f 7/7/7 5/5/5 14/14/14
f 5/5/5 13/13/13 14/14/14
f 11/11/11 15/15/15 12/12/12
f 15/15/15 13/13/13 12/12/12
f 16/16/16 15/15/15 11/11/11
f 16/16/16 17/17/17 15/15/15
f 17/17/17 18/18/18 15/15/15
f 15/15/15 18/18/18 13/13/13
f 10/10/10 19/19/19 11/11/11
f 19/19/19 16/16/16 11/11/11
f 16/16/16 19/19/19 10/10/10
f 13/13/13 20/20/20 14/14/14
f 18/18/18 20/20/20 13/13/13
f 18/18/18 21/21/21 20/20/20
f 21/21/21 22/22/22 20/20/20
f 21/21/21 23/23/23 22/22/22
f 23/23/23 24/24/24 22/22/22
f 20/20/20 25/25/25 14/14/14
f 20/20/20 22/22/22 25/25/25
f 18/18/18 17/17/17 26/26/26
f 21/21/21 18/18/18 26/26/26
f 27/27/27 24/24/24 23/23/23
f 24/24/24 27/27/27 22/22/22
f 25/25/25 28/28/28 14/14/14
f 28/28/28 7/7/7 14/14/14
f 28/28/28 29/29/29 7/7/7
f 29/29/29 30/30/30 7/7/7
f 30/30/30 4/4/4 7/7/7
f 4/4/4 30/30/30 29/29/29
f 22/22/22 31/31/31 25/25/25
f 31/31/31 32/32/32 25/25/25
f 32/32/32 28/28/28 25/25/25
f 32/32/32 31/31/31 22/22/22
f 32/32/32 33/33/33 28/28/28
f 33/33/33 29/29/29 28/28/28
f 34/34/34 32/32/32 22/22/22
f 27/27/27 34/34/34 22/22/22
f 33/33/33 32/32/32 34/34/34
f 27/27/27 35/35/35 34/34/34
f 36/36/36 33/33/33 34/34/34
f 35/35/35 36/36/36 34/34/34
f 33/33/33 37/37/37 29/29/29
f 37/37/37 33/33/33 36/36/36
f 35/35/35 27/27/27 38/38/38
f 38/38/38 27/27/27 23/23/23
f 35/35/35 39/39/39 36/36/36
f 40/40/40 37/37/37 36/36/36
f 39/39/39 40/40/40 36/36/36
f 40/40/40 41/41/41 37/37/37
f 42/42/42 41/41/41 40/40/40
f 43/43/43 42/42/42 40/40/40
f 43/43/43 40/40/40 39/39/39
f 37/37/37 44/44/44 29/29/29
f 41/41/41 44/44/44 37/37/37
f 44/44/44 41/41/41 29/29/29
f 39/39/39 35/35/35 45/45/45
f 45/45/45 35/35/35 38/38/38
f 41/41/41 46/46/46 29/29/29
f 46/46/46 4/4/4 29/29/29
f 46/46/46 41/41/41 4/4/4
f 47/47/47 43/43/43 39/39/39
f 47/47/47 39/39/39 45/45/45
f 41/41/41 48/48/48 4/4/4
f 48/48/48 49/49/49 4/4/4
f 49/49/49 48/48/48 41/41/41
f 42/42/42 49/49/49 41/41/41
f 49/49/49 6/6/6 4/4/4
f 49/49/49 50/50/50 6/6/6
f 50/50/50 49/49/49 42/42/42
f 50/50/50 51/51/51 6/6/6
f 51/51/51 9/9/9 6/6/6
f 52/52/52 9/9/9 51/51/51
f 9/9/9 52/52/52 10/10/10
f 50/50/50 53/53/53 51/51/51
f 54/54/54 50/50/50 42/42/42
f 53/53/53 50/50/50 54/54/54
f 55/55/55 52/52/52 51/51/51
f 53/53/53 55/55/55 51/51/51
f 55/55/55 56/56/56 52/52/52
f 56/56/56 57/57/57 52/52/52
f 52/52/52 57/57/57 10/10/10
f 57/57/57 56/56/56 10/10/10
f 56/56/56 58/58/58 10/10/10
f 58/58/58 16/16/16 10/10/10
f 58/58/58 56/56/56 16/16/16
f 59/59/59 55/55/55 53/53/53
f 60/60/60 53/53/53 54/54/54
f 60/60/60 59/59/59 53/53/53
f 55/55/55 61/61/61 56/56/56
f 61/61/61 55/55/55 59/59/59
f 56/56/56 62/62/62 16/16/16
f 61/61/61 63/63/63 56/56/56
f 56/56/56 63/63/63 62/62/62
f 62/62/62 64/64/64 16/16/16
f 64/64/64 17/17/17 16/16/16
f 65/65/65 61/61/61 59/59/59
f 60/60/60 66/66/66 59/59/59
f 66/66/66 65/65/65 59/59/59
f 67/67/67 65/65/65 66/66/66
f 68/68/68 67/67/67 66/66/66
f 68/68/68 66/66/66 69/69/69
f 66/66/66 60/60/60 69/69/69
f 68/68/68 69/69/69 67/67/67
f 69/69/69 60/60/60 70/70/70
f 69/69/69 71/71/71 67/67/67
f 70/70/70 60/60/60 54/54/54
f 65/65/65 72/72/72 61/61/61
f 72/72/72 63/63/63 61/61/61
f 67/67/67 71/71/71 73/73/73
f 73/73/73 71/71/71 69/69/69
f 74/74/74 67/67/67 73/73/73
f 74/74/74 73/73/73 75/75/75
f 74/74/74 75/75/75 67/67/67
f 76/76/76 73/73/73 69/69/69
f 67/67/67 77/77/77 65/65/65
f 77/77/77 72/72/72 65/65/65
f 75/75/75 77/77/77 67/67/67
f 78/78/78 70/70/70 54/54/54
f 78/78/78 54/54/54 42/42/42
f 76/76/76 69/69/69 79/79/79
f 76/76/76 79/79/79 73/73/73
f 72/72/72 80/80/80 63/63/63
f 77/77/77 81/81/81 72/72/72
f 81/81/81 80/80/80 72/72/72
f 75/75/75 82/82/82 77/77/77
f 82/82/82 81/81/81 77/77/77
f 80/80/80 83/83/83 63/63/63
f 63/63/63 83/83/83 62/62/62
f 83/83/83 80/80/80 62/62/62
f 80/80/80 64/64/64 62/62/62
f 80/80/80 81/81/81 64/64/64
f 81/81/81 84/84/84 64/64/64
f 81/81/81 82/82/82 84/84/84
f 64/64/64 84/84/84 17/17/17
f 75/75/75 85/85/85 82/82/82
f 73/73/73 85/85/85 75/75/75
f 82/82/82 86/86/86 84/84/84
f 85/85/85 86/86/86 82/82/82
f 84/84/84 87/87/87 17/17/17
f 84/84/84 86/86/86 87/87/87
f 88/88/88 86/86/86 85/85/85
f 89/89/89 85/85/85 73/73/73
f 89/89/89 88/88/88 85/85/85
f 86/86/86 90/90/90 87/87/87
f 86/86/86 88/88/88 90/90/90
f 87/87/87 91/91/91 17/17/17
f 87/87/87 90/90/90 21/21/21
f 87/87/87 21/21/21 91/91/91
f 91/91/91 92/92/92 17/17/17
f 17/17/17 92/92/92 26/26/26
f 88/88/88 93/93/93 90/90/90
f 90/90/90 23/23/23 21/21/21
f 90/90/90 93/93/93 23/23/23
f 21/21/21 94/94/94 91/91/91
f 94/94/94 21/21/21 26/26/26
f 89/89/89 95/95/95 88/88/88
f 95/95/95 93/93/93 88/88/88
f 91/91/91 96/96/96 92/92/92
f 91/91/91 94/94/94 96/96/96
f 94/94/94 26/26/26 97/97/97
f 26/26/26 92/92/92 97/97/97
f 96/96/96 98/98/98 92/92/92
f 92/92/92 98/98/98 97/97/97
f 99/99/99 94/94/94 97/97/97
f 94/94/94 99/99/99 96/96/96
f 96/96/96 100/100/100 98/98/98
f 96/96/96 99/99/99 100/100/100
f 99/99/99 97/97/97 101/101/101
f 97/97/97 98/98/98 101/101/101
f 100/100/100 102/102/102 98/98/98
f 98/98/98 102/102/102 101/101/101
f 102/102/102 100/100/100 101/101/101
f 103/103/103 99/99/99 101/101/101
f 99/99/99 103/103/103 100/100/100
f 100/100/100 103/103/103 101/101/101
f 104/104/104 95/95/95 89/89/89
f 105/105/105 104/104/104 89/89/89
f 105/105/105 89/89/89 73/73/73
f 105/105/105 73/73/73 104/104/104
f 73/73/73 106/106/106 104/104/104
f 79/79/79 106/106/106 73/73/73
f 104/104/104 107/107/107 95/95/95
f 104/104/104 106/106/106 107/107/107
f 107/107/107 108/108/108 95/95/95
f 95/95/95 108/108/108 93/93/93
f 108/108/108 109/109/109 93/93/93
f 93/93/93 109/109/109 23/23/23
f 109/109/109 108/108/108 23/23/23
f 108/108/108 38/38/38 23/23/23
f 108/108/108 107/107/107 38/38/38
f 107/107/107 45/45/45 38/38/38
f 106/106/106 45/45/45 107/107/107
f 47/47/47 45/45/45 106/106/106
f 79/79/79 47/47/47 106/106/106
f 79/79/79 110/110/110 47/47/47
f 110/110/110 43/43/43 47/47/47
f 69/69/69 110/110/110 79/79/79
f 111/111/111 43/43/43 110/110/110
f 43/43/43 111/111/111 42/42/42
f 112/112/112 110/110/110 69/69/69
f 112/112/112 111/111/111 110/110/110
f 111/111/111 113/113/113 42/42/42
f 113/113/113 78/78/78 42/42/42
f 78/78/78 113/113/113 111/111/111
f 112/112/112 78/78/78 111/111/111
f 70/70/70 78/78/78 112/112/112
f 114/114/114 112/112/112 69/69/69
f 114/114/114 69/69/69 70/70/70
f 114/114/114 70/70/70 112/112/112
