g voxTree04_trunk_COL
v -1.37449 -0.1821688 1.699368
v -1.60769 0.7383922 1.089357
v -1.387052 0.3889166 1.729091
v -0.413781 0.7375355 1.892979
v -0.8076852 1.09823 1.592691
v -0.373092 1.87095 1.572719
v -0.0100128 1.665792 1.732778
v 0.7569278 1.710381 1.776253
v -0.4032036 -0.3582764 1.838445
v 0.6782205 0.7600047 2.299698
v -1.576254 -0.4479344 0.9285715
v -0.3907951 -0.9684179 0.9220377
v 1.001038 2.093264 1.117582
v 1.505888 1.511556 1.668634
v 0.7125773 -0.4378042 2.063159
v 0.7788849 -1.084104 0.9278938
v 1.780812 0.8107871 2.041111
v 1.803826 -0.3229497 2.036799
v 2.027118 -0.5254731 0.9278127
v 2.030631 0.7761809 0.8682891
v 2.125277 -0.5575658 -0.263462
v 0.7923893 -1.127146 -0.2557201
v 1.596918 1.560287 0.8838728
v 2.139465 0.7790602 -0.2013348
v -0.3913695 -1.105585 -0.2453008
v 1.847958 -0.3125332 -1.313132
v 0.7962702 -0.5730277 -1.518567
v 1.417614 2.027062 -0.2022977
v 1.645126 1.585729 -0.1994859
v 0.9426943 1.779033 -1.300862
v 1.561696 1.506414 -1.063264
v 1.848545 0.7712932 -1.376519
v 0.7791592 0.7115896 -1.807192
v 0.8350245 2.699016 1.011808
v 1.20989 2.712125 -0.1956933
v -0.4117903 -0.6396073 -1.596777
v -0.358075 0.6911178 -1.792413
v -0.3283345 1.714133 -1.548606
v -1.615203 -0.5851955 -0.2522135
v -1.753841 0.6878474 -0.2015892
v -1.519528 -0.4457204 -1.470547
v -1.42557 0.6865395 -1.380284
v -1.268462 1.6859 -1.179776
v -1.556146 1.677338 -0.1851404
v -1.255569 2.611855 -1.176199
v -0.295617 2.629202 -1.539879
v -1.310565 1.700481 0.9123307
v -1.577215 2.601883 -0.1844249
v -0.3131722 2.649306 1.515045
v 0.7586932 2.676162 -1.209947
v -1.254346 3.578267 -1.176703
v -1.322803 2.611252 0.925474
v 0.7518407 3.626365 0.9260931
v 1.013493 3.635505 -0.1901336
v -0.2729838 3.598851 -1.495538
v -1.608653 3.564448 -0.1879627
v -0.2788901 3.602118 1.45404
v 0.6843647 3.624927 -1.158334
v -1.252764 4.554681 -1.172528
v -1.329005 3.577799 0.9470727
v 0.688994 4.57997 0.8595524
v 0.8593189 4.575817 -0.1896815
v -0.2568854 4.571612 -1.392803
v -1.723491 4.534001 -0.1991073
v -0.2610646 4.57551 1.365082
v 0.6133172 4.581577 -1.071791
v -1.218568 5.529761 -1.142192
v -1.371345 4.553851 0.9674067
v 0.6469814 5.525846 0.7914994
v 0.7779629 5.508426 -0.1881069
v -0.2629366 5.519113 -1.277134
v -1.765494 5.517972 -0.220309
v -0.2568698 5.536975 1.216065
v 0.5703843 5.512039 -1.024082
v -1.187172 6.496402 -1.129554
v -1.434625 5.532443 0.9404269
v 0.6332461 6.478032 0.7601575
v 0.7770135 6.462684 -0.1865012
v -0.285003 6.471931 -1.248715
v -1.772848 6.504857 -0.2497487
v -0.2614712 6.488236 1.110168
v 0.5648229 6.464068 -1.078417
v 0.7136372 7.437584 -0.3031564
v 0.6203036 7.451557 0.7161943
v -0.1355499 7.450909 -1.162111
v 0.5459864 7.107653 -1.070884
v -1.181218 7.442384 -1.163596
v -1.417692 6.503897 0.8880307
v -0.2509426 7.452397 1.027784
v -1.713304 7.440654 -0.2669297
v 0.6049703 8.193311 0.6409785
v -1.371286 7.451515 0.8673804
v -1.124594 8.381789 -1.145411
v 0.05079174 8.486753 0.991877
v 0.6359793 8.643624 -0.3926332
v 0.7534922 8.428101 0.03979273
v -1.638026 8.377772 -0.2869115
v 0.4758013 7.803457 -0.8612089
v -1.364886 8.362472 0.8342986
v -0.2574491 8.442781 -1.215981
v 0.4463586 9.699826 -0.6619101
v 0.1887359 9.502687 1.264231
v -1.076849 9.101674 -1.141581
v -0.414188 9.393198 -1.286754
v -1.465525 9.405603 -0.5463101
v -1.406269 9.314139 0.9242653
v -1.40042 10.36446 -0.5178776
v 0.07961254 10.24907 1.327018
v 0.502017 10.32472 -0.8051935
v -1.320448 10.33911 0.8649405
v -1.332384 11.34846 -0.4297786
v 0.08221321 11.29626 1.036184
v 0.6168084 11.37852 -0.6316292
v -0.02489084 12.03076 0.9964176
v -1.213729 11.30206 0.7425492
v -1.172553 12.27774 -0.1763201
v -1.162173 12.23834 0.7432687
v -0.5890114 13.3478 1.00356
v -1.150629 12.96166 0.605908
v -1.140126 12.97622 0.05894842
v 0.271587 11.90396 -0.7131381
v -0.5036013 13.30437 -0.1794759
v 0.9950663 11.86503 -0.1531162
v 0.6967533 12.17508 0.8116858
v 0.7947511 13.24415 0.9690648
v 0.6681372 13.24719 -0.1716713
v 0.632291 14.28519 0.7945384
v -0.3298385 14.34975 -0.0684264
v -0.3450778 14.36632 0.7919121
v 0.6025261 14.27333 -0.07567398
vn -0.9861889 -0.01079175 0.1652719
vn -0.9861889 -0.01079175 0.1652719
vn -0.9861889 -0.01079175 0.1652719
vn -0.1876171 -0.004769199 0.9822306
vn -0.516253 0.4776931 0.710839
vn -0.5530283 0.03289888 0.8325126
vn -0.3886199 0.2424823 0.8889189
vn 0.5630998 0.7493505 0.348414
vn -0.1876171 -0.004769199 0.9822306
vn 0.2061713 -0.1081631 0.9725195
vn -0.9861889 -0.01079175 0.1652719
vn -0.3401177 -0.8300244 0.4420173
vn 0.5630998 0.7493505 0.348414
vn 0.5630998 0.7493505 0.348414
vn 0.2061713 -0.1081631 0.9725195
vn 0.3321283 -0.8814245 0.3358299
vn 0.9686651 -0.04028962 0.245081
vn 0.9686651 -0.04028962 0.245081
vn 0.9686651 -0.04028962 0.245081
vn 0.9686651 -0.04028962 0.245081
vn 0.9703411 -0.07419629 -0.2300717
vn 0.3484191 -0.8799322 -0.3229913
vn 0.5630998 0.7493505 0.348414
vn 0.9703411 -0.07419629 -0.2300717
vn -0.3912625 -0.8657388 -0.3121057
vn 0.9703411 -0.07419629 -0.2300717
vn 0.2872277 -0.1939024 -0.938031
vn 0.8791816 0.2616207 -0.398239
vn 0.7134027 0.6426214 -0.2794534
vn 0.8791816 0.2616207 -0.398239
vn 0.7134027 0.6426214 -0.2794534
vn 0.9703411 -0.07419629 -0.2300717
vn 0.2872277 -0.1939024 -0.938031
vn 0.3230111 0.190206 0.9270844
vn 0.8791816 0.2616207 -0.398239
vn -0.3086867 -0.1678328 -0.9362397
vn -0.3086867 -0.1678328 -0.9362397
vn -0.3275192 0.01492761 -0.9447266
vn -0.9690139 -0.1389038 -0.2042491
vn -0.9690139 -0.1389038 -0.2042491
vn -0.9690139 -0.1389038 -0.2042491
vn -0.9690139 -0.1389038 -0.2042491
vn -0.9672956 -0.005697669 -0.2535878
vn -0.9672956 -0.005697669 -0.2535878
vn -0.9672956 -0.005697669 -0.2535878
vn -0.3275192 0.01492761 -0.9447266
vn -0.5530283 0.03289888 0.8325126
vn -0.9672956 -0.005697669 -0.2535878
vn -0.5530283 0.03289888 0.8325126
vn 0.8791816 0.2616207 -0.398239
vn -0.9518605 -0.01083324 -0.3063399
vn -0.5530283 0.03289888 0.8325126
vn 0.4602929 0.08418735 0.8837664
vn 0.9609032 0.1292126 -0.2448859
vn -0.2258609 0.06271798 -0.9721386
vn -0.9518605 -0.01083324 -0.3063399
vn -0.4078299 0.06114988 0.9110079
vn 0.9609032 0.1292126 -0.2448859
vn -0.9518605 -0.01083324 -0.3063399
vn -0.4078299 0.06114988 0.9110079
vn 0.4602929 0.08418735 0.8837664
vn 0.9609032 0.1292126 -0.2448859
vn -0.2258609 0.06271798 -0.9721386
vn -0.9518605 -0.01083324 -0.3063399
vn -0.4078299 0.06114988 0.9110079
vn 0.9609032 0.1292126 -0.2448859
vn -0.9160788 0.09588179 -0.3893666
vn -0.4078299 0.06114988 0.9110079
vn 0.348 0.0733822 0.9346181
vn 0.9902354 -0.00542804 -0.1392996
vn -0.1413834 0.05705574 -0.9883094
vn -0.9160788 0.09588179 -0.3893666
vn -0.259809 0.08995505 0.9614611
vn 0.9902354 -0.00542804 -0.1392996
vn -0.9160788 0.09588179 -0.3893666
vn -0.259809 0.08995505 0.9614611
vn 0.348 0.0733822 0.9346181
vn 0.9902354 -0.00542804 -0.1392996
vn -0.1413834 0.05705574 -0.9883094
vn -0.9160788 0.09588179 -0.3893666
vn -0.259809 0.08995505 0.9614611
vn 0.9902354 -0.00542804 -0.1392996
vn 0.9311708 0.1554684 -0.3297734
vn 0.2592895 0.1138288 0.9590683
vn 0.4973393 0.2523711 -0.8300376
vn 0.6705711 0.3378526 -0.6604469
vn -0.9380912 0.0157578 -0.3460295
vn -0.259809 0.08995505 0.9614611
vn -0.0934802 0.06821565 0.9932815
vn -0.9380912 0.0157578 -0.3460295
vn 0.2592895 0.1138288 0.9590683
vn -0.0934802 0.06821565 0.9932815
vn -0.9380912 0.0157578 -0.3460295
vn -0.0934802 0.06821565 0.9932815
vn 0.4973393 0.2523711 -0.8300376
vn 0.9311708 0.1554684 -0.3297734
vn -0.9380912 0.0157578 -0.3460295
vn 0.4973393 0.2523711 -0.8300376
vn -0.0934802 0.06821565 0.9932815
vn 0.4973393 0.2523711 -0.8300376
vn -0.07482249 0.09131148 -0.9930074
vn -0.1687082 -0.02496554 0.9853498
vn -0.2694087 0.7880734 -0.5534975
vn -0.2694087 0.7880734 -0.5534975
vn -0.07482249 0.09131148 -0.9930074
vn -0.1687082 -0.02496554 0.9853498
vn -0.07482249 0.09131148 -0.9930074
vn -0.1687082 -0.02496554 0.9853498
vn -0.07482249 0.09131148 -0.9930074
vn -0.1687082 -0.02496554 0.9853498
vn -0.0008167312 0.148045 -0.9889803
vn -0.02936085 -0.01502435 0.999456
vn -0.0008167312 0.148045 -0.9889803
vn -0.02936085 -0.01502435 0.999456
vn -0.02936085 -0.01502435 0.999456
vn -0.0008167312 0.148045 -0.9889803
vn -0.02936085 -0.01502435 0.999456
vn -0.1198299 0.0137009 0.9926999
vn -0.1198299 0.0137009 0.9926999
vn -0.1115163 0.1014215 -0.9885737
vn -0.0008167312 0.148045 -0.9889803
vn -0.1115163 0.1014215 -0.9885737
vn 0.06573929 0.03249783 -0.9973075
vn 0.08323698 -0.03690605 0.9958461
vn 0.01308538 0.07464971 0.9971239
vn -0.007129657 0.1277241 -0.9917841
vn 0.01308538 0.07464971 0.9971239
vn -0.007129657 0.1277241 -0.9917841
vn 0.01308538 0.07464971 0.9971239
vn -0.007129657 0.1277241 -0.9917841
g voxTree04_trunk_COL_0
f 3/3/3 2/2/2 1/1/1
f 2/2/2 3/3/3 4/4/4
f 4/4/4 3/3/3 1/1/1
f 5/5/5 2/2/2 4/4/4
f 6/6/6 5/5/5 4/4/4
f 5/5/5 6/6/6 2/2/2
f 7/7/7 6/6/6 4/4/4
f 8/8/8 7/7/7 4/4/4
f 6/6/6 7/7/7 8/8/8
f 9/9/9 4/4/4 1/1/1
f 10/10/10 8/8/8 4/4/4
f 10/10/10 4/4/4 9/9/9
f 2/2/2 11/11/11 1/1/1
f 12/12/12 9/9/9 1/1/1
f 11/11/11 12/12/12 1/1/1
f 13/13/13 6/6/6 8/8/8
f 14/14/14 8/8/8 10/10/10
f 13/13/13 8/8/8 14/14/14
f 15/15/15 10/10/10 9/9/9
f 12/12/12 16/16/16 9/9/9
f 16/16/16 15/15/15 9/9/9
f 17/17/17 14/14/14 10/10/10
f 17/17/17 10/10/10 15/15/15
f 18/18/18 17/17/17 15/15/15
f 19/19/19 18/18/18 15/15/15
f 17/17/17 18/18/18 19/19/19
f 16/16/16 19/19/19 15/15/15
f 14/14/14 17/17/17 20/20/20
f 20/20/20 17/17/17 19/19/19
f 21/21/21 19/19/19 16/16/16
f 20/20/20 19/19/19 21/21/21
f 22/22/22 16/16/16 12/12/12
f 22/22/22 21/21/21 16/16/16
f 23/23/23 14/14/14 20/20/20
f 23/23/23 13/13/13 14/14/14
f 24/24/24 20/20/20 21/21/21
f 23/23/23 20/20/20 24/24/24
f 25/25/25 22/22/22 12/12/12
f 25/25/25 12/12/12 11/11/11
f 26/26/26 21/21/21 22/22/22
f 24/24/24 21/21/21 26/26/26
f 27/27/27 22/22/22 25/25/25
f 27/27/27 26/26/26 22/22/22
f 28/28/28 13/13/13 23/23/23
f 29/29/29 23/23/23 24/24/24
f 29/29/29 28/28/28 23/23/23
f 30/30/30 28/28/28 29/29/29
f 31/31/31 30/30/30 29/29/29
f 29/29/29 24/24/24 32/32/32
f 31/31/31 29/29/29 32/32/32
f 32/32/32 24/24/24 26/26/26
f 31/31/31 32/32/32 30/30/30
f 32/32/32 26/26/26 33/33/33
f 26/26/26 27/27/27 33/33/33
f 32/32/32 33/33/33 30/30/30
f 34/34/34 13/13/13 28/28/28
f 13/13/13 34/34/34 6/6/6
f 35/35/35 28/28/28 30/30/30
f 35/35/35 34/34/34 28/28/28
f 36/36/36 27/27/27 25/25/25
f 33/33/33 27/27/27 37/37/37
f 27/27/27 36/36/36 37/37/37
f 30/30/30 33/33/33 38/38/38
f 33/33/33 37/37/37 38/38/38
f 36/36/36 25/25/25 39/39/39
f 39/39/39 25/25/25 11/11/11
f 40/40/40 39/39/39 11/11/11
f 2/2/2 40/40/40 11/11/11
f 41/41/41 36/36/36 39/39/39
f 42/42/42 41/41/41 39/39/39
f 36/36/36 41/41/41 42/42/42
f 37/37/37 36/36/36 42/42/42
f 40/40/40 42/42/42 39/39/39
f 37/37/37 42/42/42 43/43/43
f 43/43/43 42/42/42 40/40/40
f 38/38/38 37/37/37 43/43/43
f 44/44/44 40/40/40 2/2/2
f 44/44/44 43/43/43 40/40/40
f 38/38/38 43/43/43 45/45/45
f 45/45/45 43/43/43 44/44/44
f 30/30/30 38/38/38 46/46/46
f 46/46/46 38/38/38 45/45/45
f 47/47/47 44/44/44 2/2/2
f 6/6/6 47/47/47 2/2/2
f 48/48/48 45/45/45 44/44/44
f 48/48/48 44/44/44 47/47/47
f 6/6/6 49/49/49 47/47/47
f 34/34/34 49/49/49 6/6/6
f 50/50/50 30/30/30 46/46/46
f 50/50/50 35/35/35 30/30/30
f 46/46/46 45/45/45 51/51/51
f 51/51/51 45/45/45 48/48/48
f 52/52/52 48/48/48 47/47/47
f 49/49/49 52/52/52 47/47/47
f 34/34/34 53/53/53 49/49/49
f 53/53/53 34/34/34 35/35/35
f 54/54/54 35/35/35 50/50/50
f 54/54/54 53/53/53 35/35/35
f 50/50/50 46/46/46 55/55/55
f 55/55/55 46/46/46 51/51/51
f 56/56/56 51/51/51 48/48/48
f 56/56/56 48/48/48 52/52/52
f 49/49/49 57/57/57 52/52/52
f 53/53/53 57/57/57 49/49/49
f 58/58/58 54/54/54 50/50/50
f 58/58/58 50/50/50 55/55/55
f 55/55/55 51/51/51 59/59/59
f 59/59/59 51/51/51 56/56/56
f 60/60/60 56/56/56 52/52/52
f 57/57/57 60/60/60 52/52/52
f 53/53/53 61/61/61 57/57/57
f 61/61/61 53/53/53 54/54/54
f 62/62/62 54/54/54 58/58/58
f 62/62/62 61/61/61 54/54/54
f 58/58/58 55/55/55 63/63/63
f 63/63/63 55/55/55 59/59/59
f 64/64/64 59/59/59 56/56/56
f 64/64/64 56/56/56 60/60/60
f 57/57/57 65/65/65 60/60/60
f 61/61/61 65/65/65 57/57/57
f 66/66/66 62/62/62 58/58/58
f 66/66/66 58/58/58 63/63/63
f 63/63/63 59/59/59 67/67/67
f 67/67/67 59/59/59 64/64/64
f 68/68/68 64/64/64 60/60/60
f 65/65/65 68/68/68 60/60/60
f 61/61/61 69/69/69 65/65/65
f 69/69/69 61/61/61 62/62/62
f 70/70/70 62/62/62 66/66/66
f 70/70/70 69/69/69 62/62/62
f 66/66/66 63/63/63 71/71/71
f 71/71/71 63/63/63 67/67/67
f 72/72/72 67/67/67 64/64/64
f 72/72/72 64/64/64 68/68/68
f 65/65/65 73/73/73 68/68/68
f 69/69/69 73/73/73 65/65/65
f 74/74/74 70/70/70 66/66/66
f 74/74/74 66/66/66 71/71/71
f 71/71/71 67/67/67 75/75/75
f 75/75/75 67/67/67 72/72/72
f 76/76/76 72/72/72 68/68/68
f 73/73/73 76/76/76 68/68/68
f 69/69/69 77/77/77 73/73/73
f 77/77/77 69/69/69 70/70/70
f 78/78/78 70/70/70 74/74/74
f 78/78/78 77/77/77 70/70/70
f 74/74/74 71/71/71 79/79/79
f 79/79/79 71/71/71 75/75/75
f 80/80/80 75/75/75 72/72/72
f 80/80/80 72/72/72 76/76/76
f 73/73/73 81/81/81 76/76/76
f 77/77/77 81/81/81 73/73/73
f 82/82/82 78/78/78 74/74/74
f 82/82/82 74/74/74 79/79/79
f 83/83/83 78/78/78 82/82/82
f 83/83/83 84/84/84 78/78/78
f 84/84/84 77/77/77 78/78/78
f 77/77/77 84/84/84 81/81/81
f 82/82/82 79/79/79 85/85/85
f 86/86/86 82/82/82 85/85/85
f 86/86/86 83/83/83 82/82/82
f 86/86/86 85/85/85 83/83/83
f 79/79/79 75/75/75 87/87/87
f 87/87/87 75/75/75 80/80/80
f 85/85/85 79/79/79 87/87/87
f 81/81/81 88/88/88 76/76/76
f 88/88/88 80/80/80 76/76/76
f 84/84/84 89/89/89 81/81/81
f 81/81/81 89/89/89 88/88/88
f 90/90/90 87/87/87 80/80/80
f 90/90/90 80/80/80 88/88/88
f 91/91/91 84/84/84 83/83/83
f 84/84/84 91/91/91 89/89/89
f 89/89/89 92/92/92 88/88/88
f 92/92/92 90/90/90 88/88/88
f 93/93/93 87/87/87 90/90/90
f 85/85/85 87/87/87 93/93/93
f 91/91/91 94/94/94 89/89/89
f 89/89/89 94/94/94 92/92/92
f 95/95/95 94/94/94 91/91/91
f 96/96/96 95/95/95 91/91/91
f 96/96/96 91/91/91 83/83/83
f 96/96/96 83/83/83 95/95/95
f 97/97/97 90/90/90 92/92/92
f 97/97/97 93/93/93 90/90/90
f 85/85/85 98/98/98 83/83/83
f 83/83/83 98/98/98 95/95/95
f 95/95/95 98/98/98 85/85/85
f 94/94/94 99/99/99 92/92/92
f 99/99/99 97/97/97 92/92/92
f 100/100/100 85/85/85 93/93/93
f 100/100/100 95/95/95 85/85/85
f 101/101/101 95/95/95 100/100/100
f 101/101/101 102/102/102 95/95/95
f 102/102/102 94/94/94 95/95/95
f 94/94/94 102/102/102 99/99/99
f 103/103/103 93/93/93 97/97/97
f 100/100/100 93/93/93 103/103/103
f 104/104/104 101/101/101 100/100/100
f 104/104/104 100/100/100 103/103/103
f 104/104/104 103/103/103 101/101/101
f 105/105/105 103/103/103 97/97/97
f 105/105/105 97/97/97 99/99/99
f 103/103/103 105/105/105 101/101/101
f 102/102/102 106/106/106 99/99/99
f 106/106/106 105/105/105 99/99/99
f 101/101/101 105/105/105 107/107/107
f 107/107/107 105/105/105 106/106/106
f 102/102/102 108/108/108 106/106/106
f 108/108/108 102/102/102 101/101/101
f 109/109/109 101/101/101 107/107/107
f 109/109/109 108/108/108 101/101/101
f 108/108/108 110/110/110 106/106/106
f 110/110/110 107/107/107 106/106/106
f 109/109/109 107/107/107 111/111/111
f 111/111/111 107/107/107 110/110/110
f 108/108/108 112/112/112 110/110/110
f 112/112/112 108/108/108 109/109/109
f 113/113/113 109/109/109 111/111/111
f 113/113/113 112/112/112 109/109/109
f 114/114/114 112/112/112 113/113/113
f 112/112/112 114/114/114 115/115/115
f 112/112/112 115/115/115 110/110/110
f 115/115/115 111/111/111 110/110/110
f 113/113/113 111/111/111 116/116/116
f 116/116/116 111/111/111 115/115/115
f 114/114/114 117/117/117 115/115/115
f 117/117/117 116/116/116 115/115/115
f 114/114/114 118/118/118 117/117/117
f 118/118/118 119/119/119 117/117/117
f 119/119/119 120/120/120 117/117/117
f 120/120/120 116/116/116 117/117/117
f 120/120/120 119/119/119 118/118/118
f 121/121/121 113/113/113 116/116/116
f 121/121/121 116/116/116 120/120/120
f 121/121/121 114/114/114 113/113/113
f 122/122/122 121/121/121 120/120/120
f 122/122/122 120/120/120 118/118/118
f 121/121/121 123/123/123 114/114/114
f 123/123/123 121/121/121 122/122/122
f 123/123/123 124/124/124 114/114/114
f 124/124/124 125/125/125 114/114/114
f 125/125/125 124/124/124 123/123/123
f 125/125/125 118/118/118 114/114/114
f 126/126/126 123/123/123 122/122/122
f 126/126/126 125/125/125 123/123/123
f 125/125/125 127/127/127 118/118/118
f 127/127/127 125/125/125 126/126/126
f 126/126/126 122/122/122 128/128/128
f 128/128/128 122/122/122 118/118/118
f 127/127/127 129/129/129 118/118/118
f 129/129/129 128/128/128 118/118/118
f 128/128/128 129/129/129 127/127/127
f 130/130/130 126/126/126 128/128/128
f 130/130/130 127/127/127 126/126/126
f 130/130/130 128/128/128 127/127/127
