g vr_mainfloor_pipesBack
v 0.7132924 -0.277697 -0.2317628
v 0.875 -0.3650767 1.110223E-16
v 0.75 -0.277697 1.110223E-16
v 0.8321745 -0.3650767 -0.2703899
v 0.6067628 -0.277697 -0.440839
v 1 -0.277697 1.110223E-16
v 0.7078899 -0.3650767 -0.5143121
v 0.9510565 -0.277697 -0.309017
v 0.809017 -0.277697 -0.5877853
v 0.4408391 -0.277697 -0.6067628
v 0.7078899 -0.3650767 -0.5143121
v 0.6067628 -0.277697 -0.440839
v 0.5143121 -0.3650767 -0.7078899
v 0.809017 -0.277697 -0.5877853
v 0.2317628 -0.277697 -0.7132925
v 0.5877852 -0.277697 -0.8090171
v 0.2703899 -0.3650767 -0.8321745
v 5.960464E-08 -0.277697 -0.7500002
v 0.309017 -0.277697 -0.9510566
v 1.490116E-08 -0.3650767 -0.8750001
v -0.2317628 -0.277697 -0.7132926
v -2.980232E-08 -0.277697 -1
v -0.2703899 -0.3650767 -0.8321747
v -0.440839 -0.277697 -0.6067629
v -0.3090171 -0.277697 -0.9510567
v -0.5143122 -0.3650767 -0.70789
v -0.6067629 -0.277697 -0.4408391
v -0.5877854 -0.277697 -0.8090171
v -0.70789 -0.3650767 -0.5143123
v -0.8090172 -0.277697 -0.5877854
v -0.7132926 -0.277697 -0.2317629
v -0.70789 -0.3650767 -0.5143123
v -0.6067629 -0.277697 -0.4408391
v -0.8321747 -0.3650767 -0.27039
v -0.7500002 -0.277697 -5.960464E-08
v -0.8090172 -0.277697 -0.5877854
v -0.8750002 -0.3650767 -2.980232E-08
v -0.9510568 -0.277697 -0.3090171
v -1 -0.277697 1.110223E-16
vt -0.9526156 0.2428753
vt -1.355795 0.09790534
vt -1.355795 0.2428753
vt -0.9526156 0.09790534
vt -0.5494354 0.2428753
vt -1.355795 -0.04706448
vt -0.5494354 0.09790534
vt -0.9526156 -0.04706448
vt -0.5494354 -0.04706448
vt -0.1462554 1.035833
vt -0.5494354 0.7374189
vt -0.5494354 1.035833
vt -0.1462554 0.7374189
vt -0.5494354 0.4390049
vt 0.256924 1.035833
vt -0.1462554 0.4390049
vt 0.256924 0.7374189
vt 0.6601037 1.035833
vt 0.256924 0.4390049
vt 0.6601037 0.7374189
vt 1.063283 1.035833
vt 0.6601037 0.4390049
vt 1.063283 0.7374189
vt 1.466463 1.035833
vt 1.063283 0.4390049
vt 1.466463 0.7374189
vt 1.869643 1.035833
vt 1.466463 0.4390049
vt 1.869643 0.7374189
vt 1.869643 0.4390049
vt 2.272823 0.548261
vt 1.869643 0.4032911
vt 1.869643 0.548261
vt 2.272823 0.4032911
vt 2.676003 0.548261
vt 1.869643 0.2583212
vt 2.676003 0.4032911
vt 2.272823 0.2583212
vt 2.676003 0.2583212
vn 0.5448912 0.8196025 -0.1770459
vn -0.1059095 0.9942343 0.01677448
vn 0.570588 0.8162488 -0.09037219
vn -0.1007402 0.9943742 0.03273247
vn 0.4635123 0.8196024 -0.3367613
vn -0.5705882 0.8162487 0.09037232
vn -0.08569484 0.9943742 0.06226091
vn -0.5448913 0.8196024 0.1770459
vn -0.4635124 0.8196024 0.3367613
vn 0.3367614 0.8196025 -0.4635122
vn -0.08569484 0.9943742 0.06226091
vn 0.4635123 0.8196024 -0.3367613
vn -0.06226094 0.9943742 0.08569486
vn -0.4635124 0.8196024 0.3367613
vn 0.177046 0.8196025 -0.5448912
vn -0.3367614 0.8196024 0.4635122
vn -0.03273251 0.9943742 0.1007403
vn 0 0.8196025 -0.5729326
vn -0.1770459 0.8196025 0.5448913
vn 0 0.9943742 0.1059245
vn -0.1770458 0.8196025 -0.5448912
vn 0 0.8196025 0.5729326
vn 0.03273247 0.9943742 0.1007403
vn -0.3367612 0.8196025 -0.4635122
vn 0.1770459 0.8196024 0.5448914
vn 0.06226079 0.9943742 0.08569478
vn -0.463512 0.8196025 -0.3367614
vn 0.3367612 0.8196025 0.4635123
vn 0.08569479 0.9943742 0.06226096
vn 0.4635122 0.8196025 0.3367614
vn -0.5448912 0.8196025 -0.1770459
vn 0.08569479 0.9943742 0.06226096
vn -0.463512 0.8196025 -0.3367614
vn 0.1007402 0.9943742 0.03273251
vn -0.5705882 0.8162487 -0.09037229
vn 0.4635122 0.8196025 0.3367614
vn 0.1059098 0.9942343 0.0167744
vn 0.5448913 0.8196025 0.1770459
vn 0.5705884 0.8162486 0.09037222
g vr_mainfloor_pipesBack_0
f 3/3/3 2/2/2 1/1/1
f 2/2/2 4/4/4 1/1/1
f 1/1/1 4/4/4 5/5/5
f 2/2/2 6/6/6 4/4/4
f 4/4/4 7/7/7 5/5/5
f 6/6/6 8/8/8 4/4/4
f 4/4/4 8/8/8 7/7/7
f 8/8/8 9/9/9 7/7/7
f 12/12/12 11/11/11 10/10/10
f 11/11/11 13/13/13 10/10/10
f 11/11/11 14/14/14 13/13/13
f 10/10/10 13/13/13 15/15/15
f 14/14/14 16/16/16 13/13/13
f 13/13/13 17/17/17 15/15/15
f 13/13/13 16/16/16 17/17/17
f 15/15/15 17/17/17 18/18/18
f 16/16/16 19/19/19 17/17/17
f 17/17/17 20/20/20 18/18/18
f 17/17/17 19/19/19 20/20/20
f 18/18/18 20/20/20 21/21/21
f 19/19/19 22/22/22 20/20/20
f 20/20/20 23/23/23 21/21/21
f 20/20/20 22/22/22 23/23/23
f 21/21/21 23/23/23 24/24/24
f 22/22/22 25/25/25 23/23/23
f 23/23/23 26/26/26 24/24/24
f 23/23/23 25/25/25 26/26/26
f 24/24/24 26/26/26 27/27/27
f 25/25/25 28/28/28 26/26/26
f 26/26/26 29/29/29 27/27/27
f 26/26/26 28/28/28 29/29/29
f 28/28/28 30/30/30 29/29/29
f 33/33/33 32/32/32 31/31/31
f 32/32/32 34/34/34 31/31/31
f 31/31/31 34/34/34 35/35/35
f 32/32/32 36/36/36 34/34/34
f 34/34/34 37/37/37 35/35/35
f 36/36/36 38/38/38 34/34/34
f 34/34/34 38/38/38 37/37/37
f 38/38/38 39/39/39 37/37/37
