g vr_terminal_walkwayConnect
v 2.166716 0.04922068 -0.1915455
v 2.016483 -0.03992508 -0.1915455
v 2.016483 -0.9384679 -0.1915455
v 2.166716 -0.9384657 -0.1915455
v 2.266854 -0.938466 -0.09140682
v 2.266854 -1.134397 -0.2351198
v 2.166716 -1.134396 -0.3352585
v 2.266854 -1.409089 -0.3187022
v 2.166716 -1.409089 -0.4188409
v 2.266854 -3.000026 -0.3187022
v 2.166716 -3.000024 -0.4188409
v 2.30604 -3.000026 0.3809223
v 2.30604 -1.409089 0.3809223
v 2.266854 -1.409089 0.8105345
v 2.266854 -3.000026 0.8105354
v 2.266854 -1.173778 0.8105345
v 2.30604 -1.154087 0.3809228
v 2.266854 -0.938466 0.8105345
v 2.30604 -0.938466 0.3809237
v 2.266854 0.04922068 0.8105354
v 2.166716 -0.521005 0.9106741
v 2.30604 0.08589448 0.3809242
v 2.266854 0.04922068 -0.09140682
v 2.166716 0.04922068 0.9106741
v 2.166716 0.1493592 0.8105354
v 2.171909 0.1860329 0.3809242
v 1.319791 0.04922068 0.9106741
v 1.319791 -0.521005 0.9106741
v 1.319791 0.1493592 0.8105354
v 0 0.1493592 0.8105354
v 0 0.04922068 0.9106741
v 0 -0.521005 0.9106741
v -1.319791 -0.521005 0.9106741
v -1.319791 0.04922068 0.9106741
v -2.166716 -0.521005 0.9106741
v 2.166716 0.1493592 -0.09140682
v 1.319791 0.1860329 0.3809242
v 1.319791 0.1493592 -0.09140682
v 1.319791 0.04922068 -0.1915455
v 1.31979 -0.03992508 -0.1915455
v 2.016483 -0.03992508 -0.1915455
v -2.166716 0.04922068 0.9106741
v -1.319791 0.1493592 0.8105354
v -2.266854 0.04922068 0.8105354
v -2.266854 -0.938466 0.8105345
v -2.166716 0.1493592 0.8105354
v 0 0.1493592 -0.09140682
v 0 0.04922068 -0.1915455
v 0 0.1860329 0.3809242
v -1.319791 0.1860329 0.3809242
v -2.171909 0.1860329 0.3809242
v -1.319791 0.1493592 -0.09140682
v -2.30604 0.08589448 0.3809242
v -2.30604 -0.938466 0.3809237
v 0 -0.03992508 -0.1915455
v -1.319791 0.04922068 -0.1915455
v -2.166716 0.1493592 -0.09140682
v -2.166716 0.04922068 -0.1915455
v -2.266854 0.04922068 -0.09140682
v -2.266854 -0.938466 -0.09140682
v -2.30604 -1.154087 0.3809228
v -2.266854 -1.173778 0.8105345
v -1.31979 -0.03992508 -0.1915455
v -2.30604 -1.409089 0.3809223
v -2.266854 -1.409089 0.8105345
v -2.266854 -1.134397 -0.2351198
v -2.30604 -3.000026 0.3809223
v -2.266854 -3.000026 0.8105354
v -2.266854 -1.409089 -0.3187022
v -2.266854 -3.000026 -0.3187022
v -2.166716 -1.409089 -0.4188409
v -2.166716 -3.000024 -0.4188409
v -2.166716 -1.134396 -0.3352585
v -2.166716 -0.9384657 -0.1915455
v -2.016483 -0.9384679 -0.1915455
v -2.016483 -0.03992508 -0.1915455
v -2.016483 -1.40909 -0.4188409
v -2.166716 -1.409089 -0.4188409
v -2.016483 -3.000021 -0.4188409
v -1.948239 -1.409091 -0.3043199
v -1.948239 -3.000021 -0.3043199
v -1.94824 -1.134398 -0.2207375
v -2.016483 -1.134398 -0.3352585
v -2.166716 -1.409089 -0.4188409
v -2.166716 -1.134396 -0.3352585
v -1.94824 -0.9384685 -0.07702446
v -2.016483 -0.9384679 -0.1915455
v -2.166716 -0.9384657 -0.1915455
v -2.016483 -0.03992508 -0.1915455
v -1.948239 -0.08102473 -0.07702446
v -1.31979 -0.08102473 -0.07702446
v 0 -0.08102473 -0.07702446
v 1.31979 -0.08102473 -0.07702446
v 1.948239 -0.08102473 -0.07702446
v 1.94824 -0.9384685 -0.07702446
v 2.016483 -0.9384679 -0.1915455
v 2.016483 -1.134398 -0.3352585
v 1.94824 -1.134398 -0.2207375
v 2.166716 -1.134396 -0.3352585
v 2.166716 -0.9384657 -0.1915455
v 2.166716 -1.409089 -0.4188409
v 2.016483 -1.40909 -0.4188409
v 1.948239 -1.409091 -0.3043199
v 2.016483 -3.000021 -0.4188409
v 1.948239 -3.000021 -0.3043199
v 2.166716 -1.409089 -0.4188409
v 0 -0.9384685 -0.07702446
v 1.31979 -0.08102473 -0.07702446
v 0 -0.08102473 -0.07702446
v 1.31979 -0.9384685 -0.07702446
v 1.948239 -0.08102473 -0.07702446
v 1.94824 -0.9384685 -0.07702446
v 0 -1.134398 -0.2207375
v 1.31979 -0.9384685 -0.07702446
v 0 -0.9384685 -0.07702446
v 1.31979 -1.134398 -0.2207375
v 1.94824 -0.9384685 -0.07702446
v 0 -1.409091 -0.3043199
v 1.94824 -1.134398 -0.2207375
v 1.31979 -1.409091 -0.3043199
v 0 -3.000021 -0.3043199
v 1.948239 -1.409091 -0.3043199
v 1.31979 -3.000021 -0.3043199
v 1.948239 -3.000021 -0.3043199
v 0 -0.9384685 -0.07702446
v 0 -0.08102473 -0.07702446
v -1.31979 -0.08102473 -0.07702446
v -1.31979 -0.9384685 -0.07702446
v -1.948239 -0.08102473 -0.07702446
v -1.94824 -0.9384685 -0.07702446
v 0 -1.134398 -0.2207375
v 0 -0.9384685 -0.07702446
v -1.31979 -0.9384685 -0.07702446
v -1.31979 -1.134398 -0.2207375
v -1.94824 -0.9384685 -0.07702446
v 0 -1.409091 -0.3043199
v -1.94824 -1.134398 -0.2207375
v -1.31979 -1.409091 -0.3043199
v 0 -3.000021 -0.3043199
v -1.948239 -1.409091 -0.3043199
v -1.31979 -3.000021 -0.3043199
v -1.948239 -3.000021 -0.3043199
vt 0.540264 0.3250363
vt 0.540264 0.3276947
vt 0.540264 0.3420408
vt 0.540264 0.3420407
vt 0.5513677 0.3420407
vt 0.5354326 0.3478835
vt 0.5243289 0.3478835
vt 0.5261649 0.356075
vt 0.5150611 0.356075
vt 0.5261647 0.4159666
vt 0.5150611 0.4159665
vt 0.6037406 0.4159666
vt 0.6037406 0.356075
vt 0.6513773 0.356075
vt 0.6513773 0.4159666
vt 0.6513773 0.3490579
vt 0.6037408 0.3484707
vt 0.6513773 0.3420407
vt 0.6037408 0.3420407
vt 0.6513773 0.3250363
vt 0.6624808 0.3420407
vt 0.6037408 0.3239427
vt 0.5513677 0.3250363
vt 0.6624806 0.3250363
vt 0.6513773 0.3220501
vt 0.6037408 0.3209565
vt 0.6624806 0.3250363
vt 0.6624808 0.3420407
vt 0.6513773 0.3220501
vt 0.6513773 0.3220501
vt 0.6624806 0.3250363
vt 0.6624808 0.3420407
vt 0.6624808 0.3420407
vt 0.6624806 0.3250363
vt 0.6624808 0.3420407
vt 0.5513677 0.3220501
vt 0.6037408 0.3209565
vt 0.5513677 0.3220501
vt 0.540264 0.3250363
vt 0.540264 0.3276947
vt 0.540264 0.3276947
vt 0.6624806 0.3250363
vt 0.6513773 0.3220501
vt 0.6513773 0.3250363
vt 0.6513773 0.3420407
vt 0.6513773 0.3220501
vt 0.5513677 0.3220501
vt 0.540264 0.3250363
vt 0.6037408 0.3209565
vt 0.6037408 0.3209565
vt 0.6037408 0.3209565
vt 0.5513677 0.3220501
vt 0.6037408 0.3239427
vt 0.6037408 0.3420407
vt 0.540264 0.3276947
vt 0.540264 0.3250363
vt 0.5513677 0.3220501
vt 0.540264 0.3250363
vt 0.5513677 0.3250363
vt 0.5513677 0.3420407
vt 0.6037408 0.3484707
vt 0.6513773 0.3490579
vt 0.540264 0.3276947
vt 0.6037406 0.356075
vt 0.6513773 0.356075
vt 0.5354326 0.3478835
vt 0.6037406 0.4159666
vt 0.6513773 0.4159666
vt 0.5261649 0.356075
vt 0.5261647 0.4159666
vt 0.5150611 0.356075
vt 0.5150611 0.4159665
vt 0.5243289 0.3478835
vt 0.540264 0.3420407
vt 0.540264 0.3420408
vt 0.540264 0.3276947
vt 0.5150611 0.356075
vt 0.5150611 0.356075
vt 0.5150611 0.4159665
vt 0.5277593 0.356075
vt 0.5277593 0.4159665
vt 0.5370271 0.3478836
vt 0.5243289 0.3478835
vt 0.5150611 0.356075
vt 0.5243289 0.3478835
vt 0.5529625 0.3420408
vt 0.540264 0.3420408
vt 0.540264 0.3420407
vt 0.540264 0.3276947
vt 0.5529625 0.3289203
vt 0.5529625 0.3289203
vt 0.5529625 0.3289203
vt 0.5529625 0.3289203
vt 0.5529625 0.3289203
vt 0.5529625 0.3420408
vt 0.540264 0.3420408
vt 0.5243289 0.3478835
vt 0.5370271 0.3478836
vt 0.5243289 0.3478835
vt 0.540264 0.3420407
vt 0.5150611 0.356075
vt 0.5150611 0.356075
vt 0.5277593 0.356075
vt 0.5150611 0.4159665
vt 0.5277593 0.4159665
vt 0.5150611 0.356075
vt 0.7937419 0.4066488
vt 0.8010255 0.4042848
vt 0.7937419 0.4042848
vt 0.8010255 0.4066488
vt 0.8044938 0.4042848
vt 0.8044938 0.4066488
vt 0.7937419 0.4078827
vt 0.8010255 0.4066488
vt 0.7937419 0.4066488
vt 0.8010255 0.4078827
vt 0.8044938 0.4066488
vt 0.7937419 0.4094639
vt 0.8044938 0.4078827
vt 0.8010255 0.4094639
vt 0.7937419 0.4202549
vt 0.8044938 0.4094639
vt 0.8010255 0.4202549
vt 0.8044938 0.4202549
vt 0.7937419 0.4066488
vt 0.7937419 0.4042848
vt 0.8010255 0.4042848
vt 0.8010255 0.4066488
vt 0.8044938 0.4042848
vt 0.8044938 0.4066488
vt 0.7937419 0.4078827
vt 0.7937419 0.4066488
vt 0.8010255 0.4066488
vt 0.8010255 0.4078827
vt 0.8044938 0.4066488
vt 0.7937419 0.4094639
vt 0.8044938 0.4078827
vt 0.8010255 0.4094639
vt 0.7937419 0.4202549
vt 0.8044938 0.4094639
vt 0.8010255 0.4202549
vt 0.8044938 0.4202549
vn 0.3074824 0.2650939 -0.9138817
vn -0.2123943 -0.1335484 -0.9680153
vn -0.4610639 0.1225922 -0.878858
vn 0.3842491 0.1238334 -0.9148868
vn 0.976557 0.01882357 -0.2144347
vn 0.9758438 0.08856311 -0.1997134
vn 0.3339761 0.3979583 -0.8544526
vn 0.9840308 0.007355988 -0.1778461
vn 0.3672976 0.03974327 -0.929254
vn 0.985163 0 -0.1716209
vn 0.3713633 0 -0.9284876
vn 1 0 0
vn 0.9999996 0.0007886516 -0.0003715871
vn 0.9958661 0 0.09083419
vn 0.9958661 0 0.09083418
vn 0.9958661 0 0.0908344
vn 0.9999592 0.009029696 -0.0001415316
vn 0.9930776 0 0.1174597
vn 0.9999967 0.002520838 0.0006908307
vn 0.97202 0.09015518 0.2169081
vn 0.2190014 0 0.9757245
vn 0.9940305 0.1091023 -0.0002076295
vn 0.9704252 0.08803125 -0.2247785
vn 0.123236 0.1335472 0.9833504
vn 0.09091308 0.9664351 0.2402873
vn 0.1014387 0.9948418 -4.246637E-05
vn 0 0.1477402 0.9890262
vn 0 0 1
vn 0 0.9682712 0.2499015
vn 0 0.968232 0.2500539
vn 0 0.1477402 0.9890262
vn 0 0 1
vn 0 0 1
vn 0 0.1477402 0.9890262
vn -0.2190018 0 0.9757245
vn 0.09198689 0.9704526 -0.2230699
vn 0 1 0
vn 0 0.9726457 -0.2322937
vn 0 0.473662 -0.8807068
vn 0 -0.6464571 -0.7629503
vn -0.2123943 -0.1335484 -0.9680153
vn -0.1232362 0.1335473 0.9833504
vn 0 0.9682712 0.2499015
vn -0.9720201 0.09015524 0.2169079
vn -0.9930776 0 0.1174597
vn -0.09091309 0.9664351 0.2402874
vn 0 0.9726106 -0.2324403
vn 0 0.4676301 -0.8839243
vn 0 1 0
vn 0 1 0
vn -0.1014387 0.9948418 -4.245954E-05
vn 0 0.9726457 -0.2322937
vn -0.9940304 0.1091023 -0.0002076419
vn -0.9999967 0.002520827 0.0006908229
vn 0 -0.6603192 -0.750985
vn 0 0.473662 -0.8807068
vn -0.09198689 0.9704526 -0.2230699
vn -0.3074826 0.2650939 -0.9138816
vn -0.9704252 0.08803133 -0.2247785
vn -0.976557 0.0188235 -0.2144347
vn -0.9999592 0.009029537 -0.0001415304
vn -0.9958661 0 0.09083442
vn 0 -0.6464571 -0.7629503
vn -0.9999996 0.000788639 -0.0003715917
vn -0.9958661 0 0.0908342
vn -0.9758438 0.08856302 -0.1997134
vn -1 0 0
vn -0.9958661 0 0.09083418
vn -0.9840308 0.007355987 -0.1778461
vn -0.985163 0 -0.1716208
vn -0.3672978 0.03974326 -0.9292539
vn -0.3713638 0 -0.9284874
vn -0.3339759 0.3979584 -0.8544526
vn -0.3842496 0.1238334 -0.9148866
vn 0.4610632 0.1225922 -0.8788583
vn 0.2123935 -0.1335485 -0.9680154
vn 0.4579217 0.03807313 -0.8881769
vn -0.3672978 0.03974326 -0.9292539
vn 0.4642611 0 -0.8856984
vn 0.8587515 0.02599912 -0.5117324
vn 0.8590417 0 -0.5119056
vn 0.8287725 0.2631212 -0.4938656
vn 0.417423 0.3841189 -0.8235354
vn -0.3672978 0.03974326 -0.9292539
vn -0.3339759 0.3979584 -0.8544526
vn 0.8580452 0.04819156 -0.5113083
vn 0.4610632 0.1225922 -0.8788583
vn -0.3842496 0.1238334 -0.9148866
vn 0.2123935 -0.1335485 -0.9680154
vn 0.6310161 -0.5302061 -0.5663038
vn 0 -0.941222 -0.3377887
vn 0 -0.941222 -0.3377886
vn 0 -0.941222 -0.3377887
vn -0.6310164 -0.5302058 -0.5663038
vn -0.8580452 0.04819159 -0.5113084
vn -0.4610639 0.1225922 -0.878858
vn -0.4174229 0.3841188 -0.8235356
vn -0.8287721 0.2631215 -0.4938661
vn 0.3339761 0.3979583 -0.8544526
vn 0.3842491 0.1238334 -0.9148868
vn 0.3672976 0.03974327 -0.929254
vn -0.4579214 0.03807311 -0.888177
vn -0.8587511 0.02599909 -0.5117329
vn -0.4642609 0 -0.8856985
vn -0.8590414 0 -0.5119061
vn 0.3672976 0.03974327 -0.929254
vn 0 0 -1
vn 0 0 -1
vn 0 0 -1
vn 0 0 -1
vn 0 0 -1
vn 0 0 -1
vn 0 0.4349018 -0.9004778
vn 0 0.5914466 -0.8063442
vn 0 0.5914466 -0.8063442
vn 0 0.4349019 -0.9004778
vn 0 0.5914466 -0.8063442
vn 0 0.04475644 -0.998998
vn 0 0.4349019 -0.9004778
vn 0 0.04475644 -0.998998
vn 0 0 -1
vn 0 0.04475646 -0.998998
vn 0 0 -1
vn 0 0 -1
vn 0 0 -1
vn 0 0 -1
vn 0 0 -1
vn 0 0 -1
vn 0 0 -1
vn 0 0 -1
vn 0 0.4349018 -0.9004778
vn 0 0.5914466 -0.8063442
vn 0 0.5914466 -0.8063442
vn 0 0.4349019 -0.9004778
vn 0 0.5914466 -0.8063442
vn 0 0.04475644 -0.998998
vn 0 0.4349019 -0.9004778
vn 0 0.04475644 -0.998998
vn 0 0 -1
vn 0 0.04475646 -0.998998
vn 0 0 -1
vn 0 0 -1
g vr_terminal_walkwayConnect_0
f 3/3/3 2/2/2 1/1/1
f 4/4/4 3/3/3 1/1/1
f 5/5/5 4/4/4 1/1/1
f 5/5/5 6/6/6 4/4/4
f 6/6/6 7/7/7 4/4/4
f 6/6/6 8/8/8 7/7/7
f 8/8/8 9/9/9 7/7/7
f 8/8/8 10/10/10 9/9/9
f 10/10/10 11/11/11 9/9/9
f 12/12/12 10/10/10 8/8/8
f 13/13/13 8/8/8 6/6/6
f 13/13/13 12/12/12 8/8/8
f 13/13/13 14/14/14 12/12/12
f 14/14/14 15/15/15 12/12/12
f 16/16/16 14/14/14 13/13/13
f 17/17/17 13/13/13 6/6/6
f 17/17/17 16/16/16 13/13/13
f 17/17/17 6/6/6 5/5/5
f 18/18/18 16/16/16 17/17/17
f 19/19/19 18/18/18 17/17/17
f 19/19/19 17/17/17 5/5/5
f 18/18/18 19/19/19 20/20/20
f 21/21/21 18/18/18 20/20/20
f 19/19/19 5/5/5 22/22/22
f 19/19/19 22/22/22 20/20/20
f 5/5/5 23/23/23 22/22/22
f 23/23/23 5/5/5 1/1/1
f 24/24/24 21/21/21 20/20/20
f 20/20/20 22/22/22 25/25/25
f 24/24/24 20/20/20 25/25/25
f 22/22/22 23/23/23 26/26/26
f 22/22/22 26/26/26 25/25/25
f 21/21/21 24/24/24 27/27/27
f 28/28/28 21/21/21 27/27/27
f 24/24/24 25/25/25 29/29/29
f 29/29/29 25/25/25 26/26/26
f 27/27/27 24/24/24 29/29/29
f 27/27/27 29/29/29 30/30/30
f 28/28/28 27/27/27 31/31/31
f 31/31/31 27/27/27 30/30/30
f 32/32/32 28/28/28 31/31/31
f 33/33/33 32/32/32 31/31/31
f 34/34/34 33/33/33 31/31/31
f 34/34/34 31/31/31 30/30/30
f 35/35/35 33/33/33 34/34/34
f 23/23/23 36/36/36 26/26/26
f 23/23/23 1/1/1 36/36/36
f 37/37/37 29/29/29 26/26/26
f 30/30/30 29/29/29 37/37/37
f 26/26/26 36/36/36 38/38/38
f 37/37/37 26/26/26 38/38/38
f 36/36/36 1/1/1 39/39/39
f 38/38/38 36/36/36 39/39/39
f 39/39/39 1/1/1 40/40/40
f 1/1/1 41/41/41 40/40/40
f 42/42/42 35/35/35 34/34/34
f 43/43/43 34/34/34 30/30/30
f 42/42/42 34/34/34 43/43/43
f 35/35/35 42/42/42 44/44/44
f 45/45/45 35/35/35 44/44/44
f 46/46/46 42/42/42 43/43/43
f 44/44/44 42/42/42 46/46/46
f 37/37/37 38/38/38 47/47/47
f 38/38/38 39/39/39 48/48/48
f 47/47/47 38/38/38 48/48/48
f 49/49/49 30/30/30 37/37/37
f 49/49/49 37/37/37 47/47/47
f 30/30/30 49/49/49 50/50/50
f 43/43/43 30/30/30 50/50/50
f 50/50/50 49/49/49 47/47/47
f 46/46/46 43/43/43 51/51/51
f 43/43/43 50/50/50 51/51/51
f 52/52/52 50/50/50 47/47/47
f 52/52/52 47/47/47 48/48/48
f 51/51/51 50/50/50 52/52/52
f 53/53/53 44/44/44 46/46/46
f 51/51/51 53/53/53 46/46/46
f 54/54/54 45/45/45 44/44/44
f 53/53/53 54/54/54 44/44/44
f 48/48/48 39/39/39 55/55/55
f 39/39/39 40/40/40 55/55/55
f 56/56/56 52/52/52 48/48/48
f 56/56/56 48/48/48 55/55/55
f 57/57/57 51/51/51 52/52/52
f 57/57/57 52/52/52 56/56/56
f 58/58/58 57/57/57 56/56/56
f 57/57/57 59/59/59 51/51/51
f 59/59/59 53/53/53 51/51/51
f 58/58/58 59/59/59 57/57/57
f 59/59/59 60/60/60 53/53/53
f 60/60/60 54/54/54 53/53/53
f 60/60/60 59/59/59 58/58/58
f 45/45/45 54/54/54 61/61/61
f 61/61/61 54/54/54 60/60/60
f 62/62/62 45/45/45 61/61/61
f 63/63/63 56/56/56 55/55/55
f 58/58/58 56/56/56 63/63/63
f 62/62/62 61/61/61 64/64/64
f 65/65/65 62/62/62 64/64/64
f 66/66/66 61/61/61 60/60/60
f 64/64/64 61/61/61 66/66/66
f 65/65/65 64/64/64 67/67/67
f 68/68/68 65/65/65 67/67/67
f 67/67/67 64/64/64 69/69/69
f 69/69/69 64/64/64 66/66/66
f 70/70/70 67/67/67 69/69/69
f 70/70/70 69/69/69 71/71/71
f 72/72/72 70/70/70 71/71/71
f 71/71/71 69/69/69 73/73/73
f 69/69/69 66/66/66 73/73/73
f 73/73/73 66/66/66 74/74/74
f 66/66/66 60/60/60 74/74/74
f 74/74/74 60/60/60 58/58/58
f 75/75/75 74/74/74 58/58/58
f 76/76/76 75/75/75 58/58/58
f 72/72/72 78/78/78 77/77/77
f 79/79/79 72/72/72 77/77/77
f 79/79/79 77/77/77 80/80/80
f 81/81/81 79/79/79 80/80/80
f 80/80/80 77/77/77 82/82/82
f 77/77/77 83/83/83 82/82/82
f 77/77/77 84/84/84 83/83/83
f 84/84/84 85/85/85 83/83/83
f 82/82/82 83/83/83 86/86/86
f 83/83/83 85/85/85 87/87/87
f 83/83/83 87/87/87 86/86/86
f 85/85/85 88/88/88 87/87/87
f 86/86/86 87/87/87 89/89/89
f 90/90/90 86/86/86 89/89/89
f 90/90/90 89/89/89 91/91/91
f 89/89/89 63/63/63 91/91/91
f 89/89/89 58/58/58 63/63/63
f 91/91/91 63/63/63 92/92/92
f 63/63/63 55/55/55 92/92/92
f 55/55/55 40/40/40 92/92/92
f 40/40/40 93/93/93 92/92/92
f 40/40/40 41/41/41 93/93/93
f 41/41/41 94/94/94 93/93/93
f 95/95/95 94/94/94 41/41/41
f 96/96/96 95/95/95 41/41/41
f 96/96/96 97/97/97 95/95/95
f 97/97/97 98/98/98 95/95/95
f 99/99/99 97/97/97 96/96/96
f 100/100/100 99/99/99 96/96/96
f 99/99/99 101/101/101 97/97/97
f 101/101/101 102/102/102 97/97/97
f 97/97/97 102/102/102 98/98/98
f 102/102/102 103/103/103 98/98/98
f 102/102/102 104/104/104 103/103/103
f 104/104/104 105/105/105 103/103/103
f 11/11/11 104/104/104 102/102/102
f 106/106/106 11/11/11 102/102/102
f 109/109/109 108/108/108 107/107/107
f 108/108/108 110/110/110 107/107/107
f 108/108/108 111/111/111 110/110/110
f 111/111/111 112/112/112 110/110/110
f 115/115/115 114/114/114 113/113/113
f 114/114/114 116/116/116 113/113/113
f 114/114/114 117/117/117 116/116/116
f 113/113/113 116/116/116 118/118/118
f 117/117/117 119/119/119 116/116/116
f 116/116/116 120/120/120 118/118/118
f 116/116/116 119/119/119 120/120/120
f 118/118/118 120/120/120 121/121/121
f 119/119/119 122/122/122 120/120/120
f 120/120/120 123/123/123 121/121/121
f 120/120/120 122/122/122 123/123/123
f 122/122/122 124/124/124 123/123/123
f 127/127/127 126/126/126 125/125/125
f 128/128/128 127/127/127 125/125/125
f 129/129/129 127/127/127 128/128/128
f 130/130/130 129/129/129 128/128/128
f 133/133/133 132/132/132 131/131/131
f 134/134/134 133/133/133 131/131/131
f 135/135/135 133/133/133 134/134/134
f 134/134/134 131/131/131 136/136/136
f 137/137/137 135/135/135 134/134/134
f 138/138/138 134/134/134 136/136/136
f 137/137/137 134/134/134 138/138/138
f 138/138/138 136/136/136 139/139/139
f 140/140/140 137/137/137 138/138/138
f 141/141/141 138/138/138 139/139/139
f 140/140/140 138/138/138 141/141/141
f 142/142/142 140/140/140 141/141/141
