g wall_y16_bend45_COL
v -4.862495 14.18022 24.44745
v -0.1142349 14.18022 24.99346
v -0.1142349 -1.533782E-07 24.99345
v -4.862488 -1.327589E-07 24.44745
v -9.568848 14.18022 23.10337
v -9.568855 -4.05947E-07 23.10337
v -13.84731 14.18023 20.72612
v -13.84728 -3.479054E-07 20.72613
v -17.59107 14.18023 17.7549
v -17.59108 0 17.7549
v -4.704178 16.35117 23.65155
v -0.107048 16.34911 24.18095
v -0.1142349 14.18022 24.99346
v -4.862495 14.18022 24.44745
v -9.257042 16.35315 22.35054
v -9.568848 14.18022 23.10337
v -13.39652 16.35117 20.05135
v -13.84731 14.18023 20.72612
v -17.02168 16.34911 17.17525
v -17.59107 14.18023 17.7549
v -4.666756 14 23.46337
v 0 0 24
v 0 14 24
v -4.666756 0 23.46337
v -9.183678 14 22.17339
v -9.183678 0 22.17339
v -13.28991 14 19.89183
v -13.2899 0 19.89183
v -16.96943 14 16.9716
v -16.96943 0 16.9716
v -4.52092 16 22.73014
v 0 14 24
v 0 16 23.25
v -4.666756 14 23.46337
v -8.896683 16 21.48047
v -9.183678 14 22.17339
v -12.87459 16 19.27021
v -13.28991 14 19.89183
v -16.43913 16 16.44124
v -16.96943 14 16.9716
v 0 14 24
v 0 0 24
v -0.1142349 -1.533782E-07 24.99345
v -0.1142349 14.18022 24.99346
v 0 0 24
v -4.862488 -1.327589E-07 24.44745
v -0.1142349 -1.533782E-07 24.99345
v -4.666756 0 23.46337
v -9.568855 -4.05947E-07 23.10337
v -9.183678 0 22.17339
v -13.84728 -3.479054E-07 20.72613
v -13.2899 0 19.89183
v -17.59108 0 17.7549
v -16.96943 0 16.9716
v -4.52092 16 22.73014
v 0 16 23.25
v -0.107048 16.34911 24.18095
v -4.704178 16.35117 23.65155
v -8.896683 16 21.48047
v -9.257042 16.35315 22.35054
v -12.87459 16 19.27021
v -13.39652 16.35117 20.05135
v -16.43913 16 16.44124
v -17.02168 16.34911 17.17525
v 0 16 23.25
v 0 14 24
v -0.1142349 14.18022 24.99346
v -0.107048 16.34911 24.18095
v -16.96943 0 16.9716
v -16.96943 14 16.9716
v -17.59107 14.18023 17.7549
v -17.59108 0 17.7549
v -16.96943 14 16.9716
v -16.43913 16 16.44124
v -17.02168 16.34911 17.17525
v -17.59107 14.18023 17.7549
vt 0.04940115 0.239213
vt 0.003518709 0.239213
vt 0.3259565 0.1219002
vt 0.4037745 0.1219002
vt 0.09528359 0.239213
vt 0.4815925 0.1219001
vt 0.141166 0.239213
vt 0.5594106 0.1219001
vt 0.1870485 0.239213
vt 0.6372285 0.1219
vt 0.25 0.3673688
vt 0 0.3673688
vt 0 0.2482896
vt 0.25 0.2482895
vt 0.4999999 0.3673688
vt 0.5000001 0.2482893
vt 0.7499998 0.3673688
vt 0.7500002 0.2482891
vt 0.9999999 0.3673688
vt 1 0.248289
vt 0.04940115 0.239213
vt 0.3259565 0.1219002
vt 0.003518709 0.239213
vt 0.4037745 0.1219002
vt 0.09528359 0.239213
vt 0.4815925 0.1219001
vt 0.141166 0.239213
vt 0.5594106 0.1219001
vt 0.1870485 0.239213
vt 0.6372285 0.1219
vt 0.25 0.3673688
vt 0 0.2482896
vt 0 0.3673688
vt 0.25 0.2482895
vt 0.4999999 0.3673688
vt 0.5000001 0.2482893
vt 0.7499998 0.3673688
vt 0.7500002 0.2482891
vt 0.9999999 0.3673688
vt 1 0.248289
vt 0.003518709 0.239213
vt 0.3259565 0.1219002
vt 0.3259565 0.1219002
vt 0.003518709 0.239213
vt 0.3259565 0.1219002
vt 0.4037745 0.1219002
vt 0.3259565 0.1219002
vt 0.4037745 0.1219002
vt 0.4815925 0.1219001
vt 0.4815925 0.1219001
vt 0.5594106 0.1219001
vt 0.5594106 0.1219001
vt 0.6372285 0.1219
vt 0.6372285 0.1219
vt 0.25 0.3673688
vt 0 0.3673688
vt 0 0.3673688
vt 0.25 0.3673688
vt 0.4999999 0.3673688
vt 0.4999999 0.3673688
vt 0.7499998 0.3673688
vt 0.7499998 0.3673688
vt 0.9999999 0.3673688
vt 0.9999999 0.3673688
vt 0 0.3673688
vt 0 0.2482896
vt 0 0.2482896
vt 0 0.3673688
vt 0.6372285 0.1219
vt 0.1870485 0.239213
vt 0.1870485 0.239213
vt 0.6372285 0.1219
vt 1 0.248289
vt 0.9999999 0.3673688
vt 0.9999999 0.3673688
vt 1 0.248289
vn -0.1960323 0 0.9805974
vn -0.1142377 0 0.9934535
vn -0.1142377 0 0.9934535
vn -0.1960323 0 0.9805974
vn -0.3826571 0 0.9238905
vn -0.3826571 0 0.9238905
vn -0.5547234 0 0.8320349
vn -0.5547233 0 0.8320349
vn -0.6216539 0 0.7832921
vn -0.6216539 0 0.7832921
vn -0.1836654 0.3501352 0.9185164
vn -0.1070502 0.349106 0.9309486
vn -0.1070502 0.349106 0.9309486
vn -0.1836443 0.3501352 0.9185206
vn -0.3582927 0.3511243 0.8650653
vn -0.3582924 0.3511243 0.8650655
vn -0.5195736 0.3501344 0.7793903
vn -0.5195909 0.3501345 0.7793788
vn -0.5825431 0.3491043 0.7340093
vn -0.5825431 0.3491044 0.7340093
vn 0.1950762 0 -0.9807881
vn 0.1142376 0 -0.9934535
vn 0.1142376 0 -0.9934535
vn 0.1950762 0 -0.9807881
vn 0.3826569 0 -0.9238905
vn 0.3826569 0 -0.9238905
vn 0.5555344 0 -0.8314935
vn 0.5555344 0 -0.8314936
vn 0.6216543 0 -0.7832918
vn 0.6216543 0 -0.7832918
vn 0.1827278 -0.3501354 -0.9187033
vn 0.1070499 -0.3491062 -0.9309486
vn 0.1070499 -0.3491062 -0.9309486
vn 0.1827277 -0.3501354 -0.9187033
vn 0.3582926 -0.3511247 -0.8650652
vn 0.3582927 -0.3511247 -0.8650652
vn 0.5203682 -0.3501361 -0.7788592
vn 0.5203683 -0.3501361 -0.7788591
vn 0.5825416 -0.3491065 -0.7340094
vn 0.5825416 -0.3491065 -0.7340094
vn 0.9935987 0.00508594 0.1128527
vn 0.9934537 0 0.114235
vn 0.9934537 0 0.114235
vn 0.9935987 0.005086659 0.1128525
vn 0 -1 0
vn 0 -1 0
vn 0 -1 0
vn 0 -1 0
vn 0 -1 0
vn 0 -1 0
vn 0 -1 0
vn 0 -1 0
vn 0 -1 0
vn 0 -1 0
vn 0.06877375 0.9367062 -0.3432953
vn 0.04023542 0.9367025 -0.3478068
vn 0.04023542 0.9367025 -0.3478068
vn 0.06877346 0.9367062 -0.3432954
vn 0.1339903 0.9366913 -0.323506
vn 0.1339901 0.9366913 -0.3235061
vn 0.1940996 0.9367057 -0.2913894
vn 0.1941006 0.9367057 -0.2913887
vn 0.2174708 0.9367015 -0.2744025
vn 0.2174708 0.9367015 -0.2744025
vn 0.9938753 0.03727734 0.10403
vn 0.9935987 0.00508594 0.1128527
vn 0.9935987 0.005086659 0.1128525
vn 0.9938753 0.03727734 0.10403
vn -0.7832965 0 -0.6216483
vn -0.7824215 0.005085889 -0.6227286
vn -0.7824212 0.005086714 -0.6227287
vn -0.7832965 0 -0.6216483
vn -0.7824215 0.005085889 -0.6227286
vn -0.7763772 0.03727562 -0.6291654
vn -0.7763773 0.03727562 -0.6291653
vn -0.7824212 0.005086714 -0.6227287
g wall_y16_bend45_COL_0
f 3/3/3 2/2/2 1/1/1
f 4/4/4 3/3/3 1/1/1
f 4/4/4 1/1/1 5/5/5
f 6/6/6 4/4/4 5/5/5
f 6/6/6 5/5/5 7/7/7
f 8/8/8 6/6/6 7/7/7
f 8/8/8 7/7/7 9/9/9
f 10/10/10 8/8/8 9/9/9
f 13/13/13 12/12/12 11/11/11
f 14/14/14 13/13/13 11/11/11
f 14/14/14 11/11/11 15/15/15
f 16/16/16 14/14/14 15/15/15
f 16/16/16 15/15/15 17/17/17
f 18/18/18 16/16/16 17/17/17
f 18/18/18 17/17/17 19/19/19
f 20/20/20 18/18/18 19/19/19
f 23/23/23 22/22/22 21/21/21
f 22/22/22 24/24/24 21/21/21
f 21/21/21 24/24/24 25/25/25
f 24/24/24 26/26/26 25/25/25
f 25/25/25 26/26/26 27/27/27
f 26/26/26 28/28/28 27/27/27
f 27/27/27 28/28/28 29/29/29
f 28/28/28 30/30/30 29/29/29
f 33/33/33 32/32/32 31/31/31
f 32/32/32 34/34/34 31/31/31
f 31/31/31 34/34/34 35/35/35
f 34/34/34 36/36/36 35/35/35
f 35/35/35 36/36/36 37/37/37
f 36/36/36 38/38/38 37/37/37
f 37/37/37 38/38/38 39/39/39
f 38/38/38 40/40/40 39/39/39
f 43/43/43 42/42/42 41/41/41
f 44/44/44 43/43/43 41/41/41
f 47/47/47 46/46/46 45/45/45
f 46/46/46 48/48/48 45/45/45
f 46/46/46 49/49/49 48/48/48
f 49/49/49 50/50/50 48/48/48
f 49/49/49 51/51/51 50/50/50
f 51/51/51 52/52/52 50/50/50
f 51/51/51 53/53/53 52/52/52
f 53/53/53 54/54/54 52/52/52
f 57/57/57 56/56/56 55/55/55
f 58/58/58 57/57/57 55/55/55
f 58/58/58 55/55/55 59/59/59
f 60/60/60 58/58/58 59/59/59
f 60/60/60 59/59/59 61/61/61
f 62/62/62 60/60/60 61/61/61
f 62/62/62 61/61/61 63/63/63
f 64/64/64 62/62/62 63/63/63
f 67/67/67 66/66/66 65/65/65
f 68/68/68 67/67/67 65/65/65
f 71/71/71 70/70/70 69/69/69
f 72/72/72 71/71/71 69/69/69
f 75/75/75 74/74/74 73/73/73
f 76/76/76 75/75/75 73/73/73
