g wall_y22_x16_drop_COL
v 0 20.18134 1
v 0 15 1
v -16 15 1
v -16 20.18134 1.000004
v 0 22.35112 0.1863289
v 0 20.18134 1
v -16 20.18134 1.000004
v -16 22.35112 0.1863289
v 0 20 0
v -16 20 3.814697E-06
v -16 15 0
v 0 15 0
v 0 22 -0.75
v -16 22 -0.75
v -16 20 3.814697E-06
v 0 20 0
v 0 20 0
v 0 15 0
v 0 15 1
v 0 20.18134 1
v 0 15 0
v -16 15 0
v -16 15 1
v 0 15 1
v -16 15 0
v -16 20 3.814697E-06
v -16 20.18134 1.000004
v -16 15 1
v 0 22 -0.75
v 0 20 0
v 0 20.18134 1
v 0 22.35112 0.1863289
v -16 20 3.814697E-06
v -16 22 -0.75
v -16 22.35112 0.1863289
v -16 20.18134 1.000004
v -16 22 -0.75
v 0 22 -0.75
v 0 22.35112 0.1863289
v -16 22.35112 0.1863289
vt 0.003518709 0.239213
vt 0.6044948 0.1219002
vt 0.6721592 0.1219002
vt 0.04940115 0.239213
vt 0 0.3673688
vt 0 0.2482896
vt 0.25 0.2482895
vt 0.25 0.3673688
vt 0.003518709 0.239213
vt 0.04940115 0.239213
vt 0.6721592 0.1219002
vt 0.6044948 0.1219002
vt 0 0.3673688
vt 0.25 0.3673688
vt 0.25 0.2482895
vt 0 0.2482896
vt 0.003518709 0.239213
vt 0.6044948 0.1219002
vt 0.6044948 0.1219002
vt 0.003518709 0.239213
vt 0.6044948 0.1219002
vt 0.6721592 0.1219002
vt 0.6721592 0.1219002
vt 0.6044948 0.1219002
vt 0.6721592 0.1219002
vt 0.04940115 0.239213
vt 0.04940115 0.239213
vt 0.6721592 0.1219002
vt 0 0.3673688
vt 0 0.2482896
vt 0 0.2482896
vt 0 0.3673688
vt 0.25 0.2482895
vt 0.25 0.3673688
vt 0.25 0.3673688
vt 0.25 0.2482895
vt 0.25 0.3673688
vt 0 0.3673688
vt 0 0.3673688
vt 0.25 0.3673688
vn 0 0 1
vn 0 0 1
vn 0 0 1
vn 0 0 1
vn 0 0.3511243 0.9363288
vn 0 0.3511243 0.9363288
vn 0 0.3511243 0.9363288
vn 0 0.3511243 0.9363288
vn 0 0 -1
vn 0 0 -1
vn 0 0 -1
vn 0 0 -1
vn 0 -0.3511242 -0.9363289
vn 0 -0.3511242 -0.9363289
vn 0 -0.3511242 -0.9363289
vn 0 -0.3511242 -0.9363289
vn 1 0 0
vn 1 0 0
vn 1 0 0
vn 1 0 0
vn 0 -1 0
vn 0 -1 0
vn 0 -1 0
vn 0 -1 0
vn -1 0 0
vn -1 0 0
vn -1 0 0
vn -1 0 0
vn 1 0 0
vn 1 0 0
vn 1 0 0
vn 1 0 0
vn -1 0 0
vn -1 0 0
vn -1 0 0
vn -1 0 0
vn 0 0.936329 -0.3511238
vn 0 0.936329 -0.3511238
vn 0 0.936329 -0.3511238
vn 0 0.936329 -0.3511238
g wall_y22_x16_drop_COL_0
f 3/3/3 2/2/2 1/1/1
f 4/4/4 3/3/3 1/1/1
f 7/7/7 6/6/6 5/5/5
f 8/8/8 7/7/7 5/5/5
f 11/11/11 10/10/10 9/9/9
f 12/12/12 11/11/11 9/9/9
f 15/15/15 14/14/14 13/13/13
f 16/16/16 15/15/15 13/13/13
f 19/19/19 18/18/18 17/17/17
f 20/20/20 19/19/19 17/17/17
f 23/23/23 22/22/22 21/21/21
f 24/24/24 23/23/23 21/21/21
f 27/27/27 26/26/26 25/25/25
f 28/28/28 27/27/27 25/25/25
f 31/31/31 30/30/30 29/29/29
f 32/32/32 31/31/31 29/29/29
f 35/35/35 34/34/34 33/33/33
f 36/36/36 35/35/35 33/33/33
f 39/39/39 38/38/38 37/37/37
f 40/40/40 39/39/39 37/37/37
