g wall_y6_A_angled2
v -0.25 6 0.749999
v 0 6.09728 0.6813717
v 0 6 0.75
v -0.25 6.097281 0.6813717
v -0.5 6 0.6998377
v 0 6.121195 0.3822756
v -0.5 6.09728 0.6312103
v -7.5 6 -5.189435
v -0.25 6.121196 0.3822746
v 0 6.09728 0.08318138
v -7.5 6.09728 -5.258064
v -7.75 6 -5.25
v -0.25 6.097281 0.08318138
v 0 6 0.02295303
v -0.25 6 0.02295303
v -0.5 6.121196 0.3321133
v -0.5 6.09728 0.03302002
v -0.5 6 -0.02720833
v -7.5 6 -5.916483
v -7.5 6.121196 -5.557158
v -7.75 6.09728 -5.318628
v -7.5 6.09728 -5.856251
v -8 6.09728 -5.318628
v -8 6 -5.25
v -8 6.121195 -5.617722
v -7.75 6.121195 -5.617722
v -8 6.09728 -5.916816
v -7.75 6.09728 -5.916816
v -7.75 6 -5.977047
v -8 6 -5.977047
v -8 0.25 -6.250004
v -8 3.552714E-15 -6.000004
v -7.749281 3.552714E-15 -6.000004
v -7.751625 0.25 -6.250004
v -7.500441 3.552714E-15 -5.948733
v -7.504108 0.25 -6.200829
v -0.4958916 0.25 -0.2991753
v -0.4995594 0 -0.05127144
v -0.2507191 0 0
v -0.2483749 0.25 -0.25
v 0.001522064 0.25 -0.25
v -0.0006752014 0 0
v -8 0.75 -6.250004
v -8 0.25 -6.250004
v -7.751625 0.25 -6.250004
v -7.750896 0.75 -6.250004
v -8 1.036695 -6.176613
v -7.504108 0.25 -6.200829
v -7.751194 1.036695 -6.176613
v -8 1.25 -6.000004
v -7.751469 1.25 -6.000004
v -7.504742 0.75 -6.20119
v -7.503826 1.036695 -6.127276
v -7.504246 1.25 -5.950907
v -0.4957542 1.25 -0.04909706
v -0.4952583 0.75 -0.2988138
v -0.4958916 0.25 -0.2991753
v -0.2483749 0.25 -0.25
v -0.4961739 1.036695 -0.2259464
v -0.2491055 0.75 -0.25
v -0.248806 1.036695 -0.176609
v -0.2485332 1.25 0
v 0.001375198 1.25 0
v 0.001119614 1.036695 -0.176609
v 0.0008382797 0.75 -0.25
v 0.001522064 0.25 -0.25
v -8 2.388159 -6.000003
v -8 1.25 -6.000004
v -7.751469 1.25 -6.000004
v -7.750795 2.388159 -6.000003
v -7.504246 1.25 -5.950907
v -7.504829 2.388159 -5.951239
v -0.4951706 2.388159 -0.04876423
v -0.4957542 1.25 -0.04909706
v -0.2485332 1.25 0
v -0.2492046 2.388159 0
v 0.0007448196 2.388159 0
v 0.001375198 1.25 0
v -8 5.780672 -6.000003
v -8 2.388159 -6.000003
v -7.750795 2.388159 -6.000003
v -7.750795 5.780672 -6.000003
v -7.504829 2.388159 -5.951239
v -7.504829 5.780672 -5.951239
v -0.4951706 2.388159 -0.04876423
v -0.4951706 5.780672 -0.04876423
v -0.2492046 2.388159 0
v -0.2492046 5.780672 0
v 0.0007448196 5.780671 0
v 0.0007448196 2.388159 0
v -8 6 -6.000003
v -8 5.780672 -6.000003
v -7.750795 5.780672 -6.000003
v -7.752499 6 -6.000003
v -8 6.09728 -5.750004
v -7.504829 5.780672 -5.951239
v -7.747501 6.09728 -5.750004
v -7.503349 6 -5.950394
v -0.4951706 5.780672 -0.04876423
v -7.495171 6.09728 -5.695722
v -0.4966507 6 -0.04960918
v -0.5048294 6.09728 0.1957169
v -0.2492046 5.780672 0
v -0.2475014 6 0
v -0.2524986 6.09728 0.25
v -0.002342224 6.09728 0.25
v 0.002343178 6 0
v 0.0007448196 5.780671 0
v -6 6 0
v -8 6 0
v -8 6 -2
v -6 6 -2
v -4 6 0
v -8 6 -4
v -4 6 -2
v -2 6 0
v -6 6 -4
v -8 6 -6
v -5.833332 6 -4.142857
v -3.666668 6 -2.285714
v -2 6 -0.8571415
v -1 6 0
vt -0.02515779 0.3772391
vt 0 0.3673688
vt 0 0.3772391
vt -0.02515782 0.3673688
vt -0.04969954 0.3772391
vt 0 0.3131313
vt -0.04969957 0.3673688
vt -0.9503003 0.3772391
vt -0.02515779 0.3131313
vt 0 0.259866
vt -0.9503005 0.3673688
vt -0.974842 0.3772391
vt -0.02515779 0.259866
vt 0 0.2467506
vt -0.02515781 0.2467509
vt -0.04969954 0.3131313
vt -0.04969954 0.259866
vt -0.04969956 0.2467509
vt -0.9503003 0.2467514
vt -0.9503003 0.3131313
vt -0.9748422 0.3673688
vt -0.9503003 0.259866
vt -1 0.3673688
vt -0.9999999 0.3772391
vt -0.9999999 0.3131313
vt -0.9748421 0.3131313
vt -0.9999999 0.259866
vt -0.9748421 0.259866
vt -0.9748421 0.2467515
vt -0.9999999 0.2467517
vt -1 0.3673688
vt -0.9999999 0.4
vt -0.7741929 0.4
vt -0.7747792 0.3673688
vt -0.7467954 0.4
vt -0.7469276 0.3673688
vt -0.5030735 0.3673688
vt -0.5032044 0.4
vt -0.4939517 0.4
vt -0.4938049 0.3673688
vt -0.4785933 0.3673687
vt -0.4787308 0.4
vt -0.9999999 0.2872726
vt -1 0.3673688
vt -0.7747792 0.3673688
vt -0.7745966 0.2872726
vt -0.9999999 0.2712465
vt -0.7469276 0.3673688
vt -0.7746714 0.2712465
vt -0.9999999 0.2458763
vt -0.7747397 0.2458761
vt -0.746949 0.2872726
vt -0.7469162 0.2712465
vt -0.7469312 0.245876
vt -0.5030686 0.2458757
vt -0.5030508 0.2872726
vt -0.5030735 0.3673688
vt -0.4938049 0.3673688
vt -0.5030835 0.2712465
vt -0.4938503 0.2872726
vt -0.493832 0.2712465
vt -0.493815 0.2458757
vt -0.4786028 0.2458757
vt -0.4786186 0.2712465
vt -0.4786358 0.2872726
vt -0.4785933 0.3673687
vt 1.037183 0.3745475
vt 1.037183 0.3984279
vt 1.107301 0.3984279
vt 1.107353 0.3745474
vt 1.115957 0.398428
vt 1.11595 0.3745474
vt 1.191871 0.3745473
vt 1.191864 0.3984277
vt 1.194745 0.3984278
vt 1.194732 0.3745473
vt 1.199468 0.3745473
vt 1.19948 0.3984279
vt 1.037183 0.3544879
vt 1.037183 0.3745475
vt 1.107353 0.3745474
vt 1.107353 0.3544879
vt 1.11595 0.3745474
vt 1.11595 0.3544879
vt 1.191871 0.3745473
vt 1.191871 0.3544878
vt 1.194732 0.3745473
vt 1.194732 0.3544878
vt 1.199468 0.3544878
vt 1.199468 0.3745473
vt 0.915904 0.3717333
vt 0.915904 0.3652269
vt 0.8457345 0.3652272
vt 0.845867 0.3717335
vt 0.915904 0.3814927
vt 0.8371373 0.3652272
vt 0.8454782 0.3814928
vt 0.8371209 0.3717335
vt 0.7421607 0.3652274
vt 0.8370298 0.3814928
vt 0.7421775 0.3717336
vt 0.7422681 0.381493
vt 0.7392999 0.3652273
vt 0.7392664 0.3717336
vt 0.739364 0.381493
vt 0.734624 0.381493
vt 0.7345326 0.3717336
vt 0.7345639 0.3652274
vt 0.2510288 0
vt 0.001028828 0
vt 0.001028828 0.25
vt 0.2510288 0.25
vt 0.5010288 0
vt 0.001028828 0.5
vt 0.5010288 0.25
vt 0.7510288 0
vt 0.2510288 0.5
vt 0.001028828 0.75
vt 0.2718622 0.5178571
vt 0.5426954 0.2857142
vt 0.7510288 0.1071427
vt 0.8760288 0
vn -0.0786554 0.5746685 0.8145978
vn 0 0.9497464 0.3130208
vn 0 0.5764566 0.8171278
vn -0.03371707 0.9431401 0.3306811
vn -0.5521728 0.4806056 0.6812661
vn 0 1 0
vn -0.3546013 0.8295399 0.4314179
vn -0.5594421 0.4778041 0.6772944
vn -0.001007064 0.9999869 0.00502336
vn 0 0.9475523 -0.319601
vn -0.1784601 0.9594202 0.2183229
vn -0.1025451 0.5734223 0.8128169
vn 0.02992759 0.9526379 -0.3026308
vn 0 0.5264013 -0.8502363
vn 0.08768774 0.5243726 -0.8469618
vn -0.02871377 0.9990138 0.03386554
vn 0.183038 0.9572057 -0.2241748
vn 0.5739155 0.4310855 -0.696266
vn 0.568669 0.4330086 -0.6993706
vn 0.02868273 0.9990171 -0.03379655
vn -0.03477469 0.9554688 0.293036
vn 0.3622359 0.8216001 -0.4401799
vn 0 0.949746 0.3130215
vn 0 1 0
vn 0 1 0
vn 0.001460383 0.9999808 -0.006029895
vn 0 0.9475535 -0.3195971
vn 0.04201761 0.939042 -0.341225
vn 0.09826741 0.5238733 -0.8461089
vn 0 0.5264212 -0.850224
vn 0 -0.7071054 -0.7071081
vn 0 -0.7071054 -0.7071081
vn 0.07451557 -0.7054656 -0.7048159
vn 0.06756139 -0.7057854 -0.7051967
vn 0.5047872 -0.6104184 -0.6103928
vn 0.4961929 -0.6139475 -0.6138901
vn 0.5046002 -0.6104696 -0.6104961
vn 0.4966657 -0.6136997 -0.6137555
vn 0.06805939 -0.7051718 -0.7057624
vn 0.07384975 -0.7048555 -0.7054962
vn 0 -0.7071054 -0.7071081
vn 0 -0.7071054 -0.7071081
vn 0 0.09293786 -0.995672
vn 0 0 -1
vn 0.09829453 -0.0001887397 -0.9951573
vn 0.09754954 0.0915671 -0.9910094
vn 0 0.4470991 -0.8944844
vn 0.6341829 -1.000767E-05 -0.773183
vn 0.08781955 0.4400863 -0.8936508
vn 0 0.6377421 -0.77025
vn 0.07906868 0.6356892 -0.767885
vn 0.632214 0.06730901 -0.7718647
vn 0.5986013 0.3271426 -0.7312005
vn 0.5368088 0.5380641 -0.6498641
vn 0.5294077 0.5410451 -0.6534507
vn 0.6327595 0.07614386 -0.7705955
vn 0.634183 0 -0.773183
vn 0.09806187 0.0001877766 -0.9951804
vn 0.5848103 0.389239 -0.7116811
vn 0.09841047 0.09330283 -0.9907623
vn 0.08853453 0.4508721 -0.8881869
vn 0.07283356 0.6360984 -0.7681628
vn 0 0.6377404 -0.7702515
vn 0 0.4473247 -0.8943717
vn 0 0.09287423 -0.9956779
vn 0 0 -1
vn 0 0 -1
vn 0 0 -1
vn 0.09824283 -7.557451E-05 -0.9951625
vn 0.09808378 -1.900822E-05 -0.9951781
vn 0.6341774 0 -0.7731876
vn 0.6341782 0 -0.7731869
vn 0.6341783 0 -0.7731869
vn 0.6341776 0 -0.7731875
vn 0.09803679 7.628041E-05 -0.9951828
vn 0.09792271 1.919461E-05 -0.995194
vn 0 0 -1
vn 0 0 -1
vn 0 0 -1
vn 0 0 -1
vn 0.09808378 -1.900822E-05 -0.9951781
vn 0.09807732 6.158435E-05 -0.9951788
vn 0.6341782 0 -0.7731869
vn 0.6341755 0 -0.7731891
vn 0.6341783 0 -0.7731869
vn 0.6341755 0 -0.7731891
vn 0.09792271 1.919461E-05 -0.995194
vn 0.09792184 -6.148581E-05 -0.995194
vn 0 0 -1
vn 0 0 -1
vn 0 0.6214598 -0.7834461
vn 0 0 -1
vn 0.09807732 6.158435E-05 -0.9951788
vn 0.07755135 0.6054471 -0.7920982
vn 0 0.9319318 -0.3626334
vn 0.6341755 0 -0.7731891
vn 0.04015146 0.9314342 -0.3616878
vn 0.5847541 0.3804889 -0.7164432
vn 0.6341755 0 -0.7731891
vn 0.2879257 0.8924765 -0.3472526
vn 0.5088724 0.5991383 -0.6181279
vn 0.2798728 0.8946612 -0.3482136
vn 0.09792184 -6.148581E-05 -0.995194
vn 0.0782086 0.6331736 -0.7700485
vn 0.03561071 0.9311145 -0.3629844
vn 0 0.9319313 -0.362635
vn 0 0.6180937 -0.7861044
vn 0 0 -1
vn 0 1 0
vn 0 1 0
vn 0 1 0
vn 0 1 0
vn 0 1 0
vn 0 1 0
vn 0 1 0
vn 0 1 0
vn 0 1 0
vn 0 1 0
vn 0 1 0
vn 0 1 0
vn 0 1 0
vn 0 1 0
g wall_y6_A_angled2_0
f 3/3/3 2/2/2 1/1/1
f 2/2/2 4/4/4 1/1/1
f 1/1/1 4/4/4 5/5/5
f 2/2/2 6/6/6 4/4/4
f 4/4/4 7/7/7 5/5/5
f 8/8/8 5/5/5 7/7/7
f 6/6/6 9/9/9 4/4/4
f 4/4/4 9/9/9 7/7/7
f 6/6/6 10/10/10 9/9/9
f 11/11/11 8/8/8 7/7/7
f 8/8/8 11/11/11 12/12/12
f 10/10/10 13/13/13 9/9/9
f 10/10/10 14/14/14 13/13/13
f 14/14/14 15/15/15 13/13/13
f 9/9/9 16/16/16 7/7/7
f 9/9/9 13/13/13 16/16/16
f 11/11/11 7/7/7 16/16/16
f 13/13/13 15/15/15 17/17/17
f 13/13/13 17/17/17 16/16/16
f 15/15/15 18/18/18 17/17/17
f 17/17/17 18/18/18 19/19/19
f 20/20/20 11/11/11 16/16/16
f 20/20/20 16/16/16 17/17/17
f 11/11/11 21/21/21 12/12/12
f 11/11/11 20/20/20 21/21/21
f 22/22/22 17/17/17 19/19/19
f 22/22/22 20/20/20 17/17/17
f 12/12/12 21/21/21 23/23/23
f 24/24/24 12/12/12 23/23/23
f 23/23/23 21/21/21 25/25/25
f 20/20/20 26/26/26 21/21/21
f 21/21/21 26/26/26 25/25/25
f 20/20/20 22/22/22 26/26/26
f 25/25/25 26/26/26 27/27/27
f 22/22/22 19/19/19 28/28/28
f 22/22/22 28/28/28 26/26/26
f 26/26/26 28/28/28 27/27/27
f 19/19/19 29/29/29 28/28/28
f 27/27/27 28/28/28 30/30/30
f 28/28/28 29/29/29 30/30/30
f 33/33/33 32/32/32 31/31/31
f 34/34/34 33/33/33 31/31/31
f 33/33/33 34/34/34 35/35/35
f 34/34/34 36/36/36 35/35/35
f 36/36/36 37/37/37 35/35/35
f 37/37/37 38/38/38 35/35/35
f 38/38/38 37/37/37 39/39/39
f 37/37/37 40/40/40 39/39/39
f 40/40/40 41/41/41 39/39/39
f 41/41/41 42/42/42 39/39/39
f 45/45/45 44/44/44 43/43/43
f 46/46/46 45/45/45 43/43/43
f 46/46/46 43/43/43 47/47/47
f 45/45/45 46/46/46 48/48/48
f 49/49/49 46/46/46 47/47/47
f 49/49/49 47/47/47 50/50/50
f 51/51/51 49/49/49 50/50/50
f 46/46/46 52/52/52 48/48/48
f 46/46/46 49/49/49 52/52/52
f 49/49/49 51/51/51 53/53/53
f 49/49/49 53/53/53 52/52/52
f 51/51/51 54/54/54 53/53/53
f 54/54/54 55/55/55 53/53/53
f 52/52/52 56/56/56 48/48/48
f 56/56/56 57/57/57 48/48/48
f 57/57/57 56/56/56 58/58/58
f 53/53/53 59/59/59 52/52/52
f 55/55/55 59/59/59 53/53/53
f 59/59/59 56/56/56 52/52/52
f 56/56/56 60/60/60 58/58/58
f 56/56/56 59/59/59 60/60/60
f 59/59/59 55/55/55 61/61/61
f 59/59/59 61/61/61 60/60/60
f 55/55/55 62/62/62 61/61/61
f 62/62/62 63/63/63 61/61/61
f 63/63/63 64/64/64 61/61/61
f 61/61/61 64/64/64 60/60/60
f 64/64/64 65/65/65 60/60/60
f 60/60/60 65/65/65 58/58/58
f 65/65/65 66/66/66 58/58/58
f 69/69/69 68/68/68 67/67/67
f 70/70/70 69/69/69 67/67/67
f 69/69/69 70/70/70 71/71/71
f 70/70/70 72/72/72 71/71/71
f 72/72/72 73/73/73 71/71/71
f 73/73/73 74/74/74 71/71/71
f 74/74/74 73/73/73 75/75/75
f 73/73/73 76/76/76 75/75/75
f 76/76/76 77/77/77 75/75/75
f 77/77/77 78/78/78 75/75/75
f 81/81/81 80/80/80 79/79/79
f 82/82/82 81/81/81 79/79/79
f 81/81/81 82/82/82 83/83/83
f 82/82/82 84/84/84 83/83/83
f 83/83/83 84/84/84 85/85/85
f 84/84/84 86/86/86 85/85/85
f 85/85/85 86/86/86 87/87/87
f 86/86/86 88/88/88 87/87/87
f 87/87/87 88/88/88 89/89/89
f 90/90/90 87/87/87 89/89/89
f 93/93/93 92/92/92 91/91/91
f 94/94/94 93/93/93 91/91/91
f 94/94/94 91/91/91 95/95/95
f 93/93/93 94/94/94 96/96/96
f 97/97/97 94/94/94 95/95/95
f 94/94/94 98/98/98 96/96/96
f 94/94/94 97/97/97 98/98/98
f 96/96/96 98/98/98 99/99/99
f 97/97/97 100/100/100 98/98/98
f 98/98/98 101/101/101 99/99/99
f 98/98/98 100/100/100 101/101/101
f 100/100/100 102/102/102 101/101/101
f 99/99/99 101/101/101 103/103/103
f 101/101/101 102/102/102 104/104/104
f 101/101/101 104/104/104 103/103/103
f 102/102/102 105/105/105 104/104/104
f 104/104/104 105/105/105 106/106/106
f 107/107/107 104/104/104 106/106/106
f 103/103/103 104/104/104 107/107/107
f 108/108/108 103/103/103 107/107/107
g wall_y6_A_angled2_1
f 111/111/111 110/110/110 109/109/109
f 112/112/112 111/111/111 109/109/109
f 112/112/112 109/109/109 113/113/113
f 114/114/114 111/111/111 112/112/112
f 115/115/115 112/112/112 113/113/113
f 115/115/115 113/113/113 116/116/116
f 117/117/117 114/114/114 112/112/112
f 117/117/117 112/112/112 115/115/115
f 118/118/118 114/114/114 117/117/117
f 119/119/119 118/118/118 117/117/117
f 119/119/119 117/117/117 115/115/115
f 120/120/120 119/119/119 115/115/115
f 120/120/120 115/115/115 116/116/116
f 121/121/121 120/120/120 116/116/116
f 116/116/116 122/122/122 121/121/121
