g wall_y16_B_x16
v -4 0 -1.192093E-07
v 0 0 -2.384186E-07
v 0 0.25 -0.2500001
v -4 0.25 -0.25
v -8 0 0
v 0 0.75 -0.2500004
v -8 0.25 -0.2499999
v -12 0 1.192093E-07
v -4 0.75 -0.2500002
v 0 1.036695 -0.1766098
v -4 1.036695 -0.1766096
v 0 1.25 -2.384186E-07
v -4 1.25 -1.192093E-07
v -8 0.75 -0.2500001
v -8 1.036695 -0.1766095
v -8 1.25 0
v -12 0.25 -0.2499998
v -12 0.75 -0.25
v -12 1.036695 -0.1766094
v -12 1.25 1.192093E-07
v -16 1.25 2.384186E-07
v -16 1.036695 -0.1766093
v -16 0.75 -0.2499999
v -16 0.25 -0.2499997
v -16 0 2.384186E-07
v -4 1.25 -1.192093E-07
v 0 1.25 -2.384186E-07
v 0 6 1.907349E-06
v -4 6 2.026558E-06
v -8 1.25 0
v -8 6 2.145767E-06
v -12 1.25 1.192093E-07
v -12 6 2.264977E-06
v -16 6 2.384186E-06
v -16 1.25 2.384186E-07
v 0 6 1.907349E-06
v 0 14 1.907349E-06
v -4 14 2.026558E-06
v -4 6 2.026558E-06
v -8 6 2.145767E-06
v -8 14 2.145767E-06
v -12 6 2.264977E-06
v -12 14 2.264977E-06
v -16 6 2.384186E-06
v -16 14 2.384186E-06
v 0 16 -0.5
v 0 16 0
v -4 16 3.72529E-09
v -4 16 -0.5
v 0 15.75 -0.7500002
v -8 16 -0.5
v -8 16 7.450581E-09
v -4 15.75 -0.7500001
v 0 14.5 -0.5000002
v -12 16 -0.5
v -12 16 1.117587E-08
v -8 15.75 -0.75
v -16 16 -0.5
v -16 16 1.490116E-08
v -16 15.75 -0.7499998
v -12 15.75 -0.7499999
v -16 14.5 -0.4999998
v -12 14.5 -0.4999999
v -16 14.18829 -0.311711
v -8 14.5 -0.5
v -12 14.18829 -0.311711
v -16 14 2.384186E-06
v -12 14 2.264977E-06
v -8 14.18829 -0.311711
v -8 14 2.145767E-06
v -4 14.5 -0.5000001
v -4 14.18829 -0.311711
v -4 14 2.026558E-06
v 0 14.18829 -0.311711
v 0 14 1.907349E-06
vt -0.25 0.4
vt 0 0.4
vt 0 0.3673688
vt -0.25 0.3673688
vt -0.4999999 0.4
vt 0 0.2872726
vt -0.5 0.3673688
vt -0.7499999 0.4
vt -0.25 0.2872726
vt 0 0.2712465
vt -0.25 0.2712465
vt 0 0.2458752
vt -0.25 0.2458755
vt -0.4999999 0.2872726
vt -0.4999999 0.2712465
vt -0.5 0.2458757
vt -0.75 0.3673688
vt -0.7499999 0.2872726
vt -0.7499999 0.2712465
vt -0.7499999 0.245876
vt -0.9999999 0.2458763
vt -0.9999999 0.2712465
vt -0.9999999 0.2872726
vt -1 0.3673688
vt -0.9999999 0.4
vt 1.535596 0.2196151
vt 1.610351 0.2196149
vt 1.610351 0.1240294
vt 1.535596 0.1240294
vt 1.460841 0.2196152
vt 1.460841 0.1240294
vt 1.386085 0.2196152
vt 1.386085 0.1240294
vt 1.31133 0.1240294
vt 1.31133 0.2196152
vt 0.8218394 0.1240817
vt 0.8218394 0.2185307
vt 0.8951917 0.2185307
vt 0.8951917 0.1240817
vt 0.9685439 0.1240817
vt 0.9685441 0.2185307
vt 1.041896 0.1240817
vt 1.041896 0.2185307
vt 1.115249 0.1240817
vt 1.115249 0.2185307
vt 0 0.381358
vt 0 0.4
vt 0.25 0.4
vt 0.25 0.3813579
vt 0 0.3673688
vt 0.4999999 0.3813578
vt 0.4999999 0.4
vt 0.25 0.3673688
vt 0 0.2872726
vt 0.7499999 0.3813578
vt 0.7499999 0.4
vt 0.4999999 0.3673688
vt 0.9999999 0.3813577
vt 0.9999999 0.4
vt 0.9999999 0.3673688
vt 0.7499999 0.3673688
vt 1 0.2872726
vt 0.7500001 0.2872726
vt 1 0.2712465
vt 0.5000001 0.2872726
vt 0.7500001 0.2712465
vt 1 0.248289
vt 0.7500001 0.2482891
vt 0.5000001 0.2712465
vt 0.5000001 0.2482893
vt 0.25 0.2872726
vt 0.25 0.2712465
vt 0.25 0.2482895
vt 0 0.2712465
vt 0 0.2482896
vn 0 -0.7071066 -0.7071069
vn 0 -0.7071066 -0.7071069
vn 0 -0.3162279 -0.9486833
vn 0 -0.3162279 -0.9486833
vn 0 -0.7071066 -0.7071069
vn 0 0.09288615 -0.9956768
vn 0 -0.3162279 -0.9486833
vn 0 -0.7071066 -0.7071069
vn 0 0.09288615 -0.9956768
vn 0 0.4472137 -0.8944271
vn 0 0.4472137 -0.8944271
vn 0 0.6377422 -0.7702498
vn 0 0.6377422 -0.7702498
vn 0 0.09288615 -0.9956768
vn 0 0.4472137 -0.8944271
vn 0 0.6377422 -0.7702498
vn 0 -0.3162279 -0.9486833
vn 0 0.09288616 -0.9956768
vn 0 0.4472137 -0.8944271
vn 0 0.6377422 -0.7702498
vn 0 0.6377422 -0.7702498
vn 0 0.4472137 -0.8944271
vn 0 0.09288617 -0.9956768
vn 0 -0.3162279 -0.9486833
vn 0 0 -1
vn 0 0 -1
vn 0 0 -1
vn 0 0 -1
vn 0 0 -1
vn 0 0 -1
vn 0 0 -1
vn 0 0 -1
vn 0 0 -1
vn 0 0 -1
vn 0 0 -1
vn 0 0 -1
vn 0 0 -1
vn 0 0 -1
vn 0 0 -1
vn 0 0 -1
vn 0 0 -1
vn 0 0 -1
vn 0 0 -1
vn 0 0 -1
vn 0 0 -1
vn 0 0.9486833 -0.3162277
vn 0 1 0
vn 0 1 0
vn 0 0.9486833 -0.3162278
vn 0 0 -1
vn 0 0.9486833 -0.3162278
vn 0 1 0
vn 0 0 -1
vn 0 -0.2702073 -0.9628021
vn 0 0.9486833 -0.3162279
vn 0 1 0
vn 0 0 -1
vn 0 0.9486833 -0.3162278
vn 0 1 0
vn 0 0 -1
vn 0 0 -1
vn 0 -0.2702071 -0.9628022
vn 0 -0.2702072 -0.9628022
vn 0 -0.7071083 -0.7071052
vn 0 -0.2702072 -0.9628022
vn 0 -0.7071083 -0.7071052
vn 0 -0.8559618 -0.517039
vn 0 -0.8559618 -0.5170391
vn 0 -0.7071083 -0.7071052
vn 0 -0.8559616 -0.5170392
vn 0 -0.2702073 -0.9628022
vn 0 -0.7071083 -0.7071052
vn 0 -0.8559616 -0.5170394
vn 0 -0.7071083 -0.7071052
vn 0 -0.8559616 -0.5170394
g wall_y16_B_x16_0
f 3/3/3 2/2/2 1/1/1
f 4/4/4 3/3/3 1/1/1
f 4/4/4 1/1/1 5/5/5
f 6/6/6 3/3/3 4/4/4
f 7/7/7 4/4/4 5/5/5
f 7/7/7 5/5/5 8/8/8
f 9/9/9 6/6/6 4/4/4
f 9/9/9 4/4/4 7/7/7
f 10/10/10 6/6/6 9/9/9
f 11/11/11 10/10/10 9/9/9
f 12/12/12 10/10/10 11/11/11
f 13/13/13 12/12/12 11/11/11
f 14/14/14 9/9/9 7/7/7
f 11/11/11 9/9/9 14/14/14
f 13/13/13 11/11/11 15/15/15
f 15/15/15 11/11/11 14/14/14
f 16/16/16 13/13/13 15/15/15
f 17/17/17 7/7/7 8/8/8
f 14/14/14 7/7/7 17/17/17
f 15/15/15 14/14/14 18/18/18
f 18/18/18 14/14/14 17/17/17
f 16/16/16 15/15/15 19/19/19
f 19/19/19 15/15/15 18/18/18
f 20/20/20 16/16/16 19/19/19
f 20/20/20 19/19/19 21/21/21
f 19/19/19 22/22/22 21/21/21
f 19/19/19 18/18/18 22/22/22
f 18/18/18 23/23/23 22/22/22
f 18/18/18 17/17/17 23/23/23
f 17/17/17 24/24/24 23/23/23
f 17/17/17 8/8/8 24/24/24
f 8/8/8 25/25/25 24/24/24
f 28/28/28 27/27/27 26/26/26
f 29/29/29 28/28/28 26/26/26
f 29/29/29 26/26/26 30/30/30
f 31/31/31 29/29/29 30/30/30
f 31/31/31 30/30/30 32/32/32
f 33/33/33 31/31/31 32/32/32
f 33/33/33 32/32/32 34/34/34
f 32/32/32 35/35/35 34/34/34
f 38/38/38 37/37/37 36/36/36
f 39/39/39 38/38/38 36/36/36
f 39/39/39 40/40/40 38/38/38
f 40/40/40 41/41/41 38/38/38
f 40/40/40 42/42/42 41/41/41
f 42/42/42 43/43/43 41/41/41
f 42/42/42 44/44/44 43/43/43
f 44/44/44 45/45/45 43/43/43
f 48/48/48 47/47/47 46/46/46
f 49/49/49 48/48/48 46/46/46
f 49/49/49 46/46/46 50/50/50
f 49/49/49 51/51/51 48/48/48
f 51/51/51 52/52/52 48/48/48
f 53/53/53 49/49/49 50/50/50
f 53/53/53 50/50/50 54/54/54
f 51/51/51 55/55/55 52/52/52
f 55/55/55 56/56/56 52/52/52
f 57/57/57 51/51/51 49/49/49
f 53/53/53 57/57/57 49/49/49
f 55/55/55 58/58/58 56/56/56
f 58/58/58 59/59/59 56/56/56
f 60/60/60 58/58/58 55/55/55
f 61/61/61 55/55/55 51/51/51
f 61/61/61 60/60/60 55/55/55
f 57/57/57 61/61/61 51/51/51
f 62/62/62 60/60/60 61/61/61
f 63/63/63 62/62/62 61/61/61
f 63/63/63 61/61/61 57/57/57
f 62/62/62 63/63/63 64/64/64
f 65/65/65 57/57/57 53/53/53
f 65/65/65 63/63/63 57/57/57
f 63/63/63 66/66/66 64/64/64
f 63/63/63 65/65/65 66/66/66
f 67/67/67 64/64/64 66/66/66
f 68/68/68 67/67/67 66/66/66
f 68/68/68 66/66/66 69/69/69
f 65/65/65 69/69/69 66/66/66
f 70/70/70 68/68/68 69/69/69
f 71/71/71 65/65/65 53/53/53
f 65/65/65 71/71/71 69/69/69
f 71/71/71 53/53/53 54/54/54
f 70/70/70 69/69/69 72/72/72
f 71/71/71 72/72/72 69/69/69
f 71/71/71 54/54/54 72/72/72
f 73/73/73 70/70/70 72/72/72
f 54/54/54 74/74/74 72/72/72
f 73/73/73 72/72/72 75/75/75
f 72/72/72 74/74/74 75/75/75
