g wall_deco_pillarCap_A
v 0 -7.181581 0
v 1.400002 -7.181581 0
v 1.400002 -7.201859 -0.3052788
v 0 -7.201859 -0.3052788
v -1.400002 -7.181581 0
v -1.400002 -7.201859 -0.3052788
v 0 -6.756871 -1.325043
v 1.400002 -6.756871 -1.325043
v -1.400002 -6.756871 -1.325043
v -1.400002 -7.201859 -0.3052788
v 0 -7.201859 -0.3052788
v 0 -6.756871 -1.325043
v -1.400002 -7.071666 -1.483482
v 0 -7.071666 -1.483482
v 1.400002 -6.756871 -1.325043
v 1.400002 -7.071666 -1.483482
v 1.400002 -7.639838 -0.3052788
v 1.400002 -7.181581 0
v 1.400002 -7.619561 0
v 1.400002 -7.201859 -0.3052788
v 1.400002 -7.071666 -1.483482
v 1.400002 -6.756871 -1.325043
v -1.400002 -7.619561 0
v -1.400002 -7.181581 0
v -1.400002 -7.201859 -0.3052788
v -1.400002 -7.639838 -0.3052788
v -1.400002 -6.756871 -1.325043
v -1.400002 -7.071666 -1.483482
v -1.945858 -7.619561 0
v -2.02832 -7.592815 -0.3052788
v -2.028088 -7.573173 0
v -1.945194 -7.639838 -0.3052788
v -1.400002 -7.619561 0
v -1.400002 -7.639838 -0.3052788
v -1.946423 -7.071666 -1.483482
v -1.400002 -7.071666 -1.483482
v -2.029522 -7.03202 -1.462765
v -2.02832 -7.592815 -0.3052788
v -2.029659 -6.631253 -2.172943
v -1.946392 -6.667998 -2.198692
v -1.400002 -6.667998 -2.198692
v 0 -7.071666 -1.483482
v 0 -6.667998 -2.198696
v 1.400002 -7.071666 -1.483482
v -1.400002 -6.165161 -2.693325
v 0 -6.165161 -2.693325
v 1.400002 -6.667998 -2.198692
v 1.400002 -6.165161 -2.693325
v -1.946251 -6.165161 -2.693325
v -2.029984 -6.134551 -2.660862
v -2.029659 -6.631253 -2.172943
v 0 -5.855018 -2.838661
v 1.400002 -5.855018 -2.838661
v -1.400002 -5.855018 -2.838661
v 1.946522 -5.855018 -2.838661
v 1.946251 -6.165161 -2.693325
v 1.400002 0.04974174 -4.276459
v 2.029984 -6.134551 -2.660862
v 2.030884 -5.827641 -2.803272
v 1.940006 0.04974174 -4.276459
v 2.030884 -5.827641 -2.803272
v 2.023613 0.01282501 -4.23547
v 1.941082 0.2368298 -4.114502
v 2.023613 0.01282501 -4.23547
v 2.023186 0.1986923 -4.075878
v 1.946392 -6.667998 -2.198692
v 2.029659 -6.631253 -2.172943
v 2.029984 -6.134551 -2.660862
v 1.946423 -7.071666 -1.483482
v 2.029522 -7.03202 -1.462765
v 2.029659 -6.631253 -2.172943
v 2.028042 -7.592805 -0.2963219
v 1.945839 -7.639838 -0.3052788
v 1.400002 -7.639838 -0.3052788
v 1.400002 -7.619561 0
v 1.945858 -7.619561 0
v 2.028088 -7.573173 0
v 2.028042 -7.592805 -0.2963219
v -1.946522 -5.855018 -2.838661
v -2.023613 0.01282692 -4.23547
v -2.030884 -5.827641 -2.803272
v -1.940006 0.04974365 -4.276459
v -2.030884 -5.827641 -2.803272
v -2.029984 -6.134551 -2.660862
v -1.400002 0.04974365 -4.276459
v 0 0.04974174 -4.276459
v 1.400002 0.2368298 -4.114502
v 0 0.2368298 -4.114502
v 1.945808 0.2729511 0
v 2.023186 0.1986923 -4.075878
v 2.027962 0.2265263 0
v 1.400002 0.2729511 0
v 0 0.2729511 0
v -1.400002 0.2368298 -4.114502
v -1.400002 0.2729511 0
v -1.941082 0.2368298 -4.114502
v -1.945808 0.2729511 0
v -2.027962 0.2265263 0
v -2.023186 0.1986923 -4.075878
v -2.023186 0.1986923 -4.075878
v -2.023613 0.01282692 -4.23547
v -2.02832 -7.592815 -0.3052788
v -2.466579 -6.848978 0
v -2.028088 -7.573173 0
v -2.466579 -6.865153 -0.3052788
v -2.029522 -7.03202 -1.462765
v -2.466579 -6.411934 -1.223068
v -2.029659 -6.631253 -2.172943
v -2.466579 -6.089939 -1.793575
v -2.029984 -6.134551 -2.660862
v -2.466579 -5.688837 -2.188133
v -2.030884 -5.827641 -2.803272
v -2.466579 -5.441443 -2.304066
v -2.023613 0.01282692 -4.23547
v -2.466579 -0.679781 -3.466488
v -2.023186 0.1986923 -4.075878
v -2.466579 -0.530549 -3.337299
v -2.027962 0.2265263 0
v -2.466579 -0.5017338 0
v 2.028088 -7.573173 0
v 2.466579 -6.848978 0
v 2.466579 -6.865153 -0.3052788
v 2.028042 -7.592805 -0.2963219
v 2.466579 -6.411934 -1.223068
v 2.029522 -7.03202 -1.462765
v 2.466579 -6.089939 -1.793575
v 2.029659 -6.631253 -2.172943
v 2.466579 -5.688837 -2.188133
v 2.029984 -6.134551 -2.660862
v 2.466579 -5.441443 -2.304066
v 2.030884 -5.827641 -2.803272
v 2.466579 -0.6797848 -3.466488
v 2.023613 0.01282501 -4.23547
v 2.466579 -0.530549 -3.337299
v 2.023186 0.1986923 -4.075878
v 2.466579 -0.5017338 0
v 2.027962 0.2265263 0
vt 0.000682354 0.3887114
vt 0.09624386 0.3887115
vt 0.09624386 0.3887115
vt 0.000682354 0.3887114
vt -0.09552002 0.3887115
vt -0.09552002 0.3887115
vt 0.000682354 0.3887114
vt 0.09624386 0.3887115
vt -0.09552002 0.3887115
vt -0.09552002 0.3887115
vt 0.000682354 0.3887114
vt 0.000682354 0.3887114
vt -0.114229 0.3675141
vt 0.0006825924 0.367514
vt 0.09624386 0.3887115
vt 0.114229 0.367514
vt 0.0006825924 0.367514
vt -0.02282858 0.3887115
vt -0.02282858 0.3675141
vt 0.000682354 0.3887114
vt 0.114229 0.367514
vt 0.09624386 0.3887115
vt 0.02344394 0.3675141
vt 0.02344394 0.3887114
vt 0.000682354 0.3887115
vt 0.0006825924 0.367514
vt -0.09552002 0.3887115
vt -0.114229 0.3675141
vt 0.9966162 0.248289
vt 1 0.2636379
vt 1 0.248289
vt 0.9965748 0.2637886
vt 0.9625001 0.248289
vt 0.9625001 0.2637886
vt 0.9966516 0.2675176
vt 0.9625001 0.2675176
vt 1 0.2675137
vt 0.9994492 0.2638434
vt 1 0.2693726
vt 0.9966496 0.269382
vt 0.9625001 0.269382
vt 0.8750001 0.2675176
vt 0.8750001 0.269382
vt 0.7875001 0.2675176
vt 0.9625001 0.2712465
vt 0.8750001 0.2712465
vt 0.7875001 0.2693821
vt 0.7875001 0.2712465
vt 0.9966407 0.2712465
vt 0.9999523 0.2712441
vt 1 0.2694025
vt 0.8750001 0.2872726
vt 0.7875001 0.2872726
vt 0.9625001 0.2872726
vt 0.7533428 0.2872726
vt 0.7533596 0.2712465
vt 0.7874999 0.3673688
vt 0.7500001 0.2726306
vt 0.7500001 0.2872726
vt 0.7537495 0.3673688
vt 0.7500001 0.2875006
vt 0.7502685 0.3667951
vt 0.7536823 0.3813578
vt 0.7499999 0.3673688
vt 0.7499999 0.3811643
vt 0.7533507 0.2693821
vt 0.7504078 0.2694023
vt 0.7500001 0.2712441
vt 0.7533486 0.2675176
vt 0.7500395 0.2675137
vt 0.7501891 0.2693727
vt 0.7500001 0.2638224
vt 0.7533851 0.2637887
vt 0.7875001 0.2637887
vt 0.7875001 0.2482891
vt 0.7533839 0.2482891
vt 0.7500001 0.2482891
vt 0.7500002 0.2632052
vt 0.9966574 0.2872726
vt 0.9999999 0.366791
vt 0.9998937 0.2875
vt 0.9962502 0.3673688
vt 1 0.2872726
vt 1 0.2718678
vt 0.9624999 0.3673688
vt 0.8749999 0.3673688
vt 0.7874999 0.3813578
vt 0.8749999 0.3813577
vt 0.7533869 0.4
vt 0.7503329 0.3815233
vt 0.7499999 0.3999983
vt 0.7874999 0.4
vt 0.8749999 0.4
vt 0.9624999 0.3813577
vt 0.9624999 0.4
vt 0.9963174 0.3813577
vt 0.9966128 0.4
vt 0.9999963 0.3999983
vt 0.9999999 0.3815247
vt 0.9999999 0.3806437
vt 0.9999999 0.3673688
vt 0.5866174 1.3576
vt 0.6000124 1.421214
vt 0.6000124 1.357566
vt 0.5862759 1.421214
vt 0.5380734 1.357774
vt 0.5378907 1.421214
vt 0.4943746 1.357794
vt 0.4941789 1.421214
vt 0.454443 1.357841
vt 0.454443 1.421214
vt 0.4358416 1.357972
vt 0.4358416 1.421214
vt -0.0410191 1.356916
vt -0.04134536 1.421214
vt -0.05194264 1.392425
vt -0.05170923 1.421214
vt -0.2490525 1.392735
vt -0.2490525 1.421214
vt 0.6000124 1.357566
vt 0.6000124 1.421214
vt 0.5862759 1.421214
vt 0.5870099 1.357552
vt 0.5378906 1.421214
vt 0.5380734 1.357774
vt 0.4941789 1.421214
vt 0.4943746 1.357794
vt 0.454443 1.421214
vt 0.454443 1.357841
vt 0.4358416 1.421214
vt 0.4358416 1.357972
vt -0.04134524 1.421214
vt -0.04101909 1.356916
vt -0.05170923 1.421214
vt -0.05194264 1.392425
vt -0.2490525 1.421214
vt -0.2490525 1.392735
vn 0 -0.9978014 0.06627566
vn -0.2864462 -0.9559898 0.06349847
vn -0.3432822 -0.894411 -0.2866817
vn 0 -0.9522787 -0.3052298
vn 0.2864462 -0.9559898 0.06349847
vn 0.3432823 -0.894411 -0.2866817
vn 0 -0.9939501 -0.1098326
vn -0.2722895 -0.9563941 -0.1056826
vn 0.2722895 -0.9563941 -0.1056826
vn 0.3432823 -0.894411 -0.2866817
vn 0 -0.9522787 -0.3052298
vn 0 -0.9939501 -0.1098326
vn 0.6729542 -0.3325459 0.6607163
vn 0 -0.4495781 0.8932409
vn -0.2722895 -0.9563941 -0.1056826
vn -0.6729541 -0.3325459 0.6607164
vn -1 0 0
vn -0.2864462 -0.9559898 0.06349847
vn -1 0 0
vn -0.3432822 -0.894411 -0.2866817
vn -0.6729541 -0.3325459 0.6607164
vn -0.2722895 -0.9563941 -0.1056826
vn 1 0 0
vn 0.2864462 -0.9559898 0.06349847
vn 0.3432823 -0.894411 -0.2866817
vn 1 0 0
vn 0.2722895 -0.9563941 -0.1056826
vn 0.6729542 -0.3325459 0.6607163
vn -0.07546958 -0.9949685 0.06589456
vn -0.8026501 -0.5634296 -0.1957032
vn -0.8299613 -0.5568143 0.0334985
vn -0.06384765 -0.9365645 -0.3446307
vn 0 -0.9978014 0.0662743
vn 0 -0.938052 -0.3464947
vn -0.06881931 -0.8875158 -0.455609
vn 0 -0.880479 -0.4740851
vn -0.7997578 -0.5338211 -0.2746318
vn -0.8026501 -0.5634296 -0.1957032
vn -0.7981781 -0.4830784 -0.3599263
vn -0.06841318 -0.7985437 -0.5980365
vn 0 -0.8002803 -0.5996259
vn 0 -0.8708667 -0.4915195
vn 0 -0.8002784 -0.5996287
vn 0 -0.8804829 -0.4740778
vn 0 -0.6185347 -0.7857575
vn 0 -0.6185364 -0.7857562
vn 0 -0.8002803 -0.5996259
vn 0 -0.6185347 -0.7857575
vn -0.06792833 -0.6176711 -0.7834975
vn -0.79315 -0.380973 -0.4751554
vn -0.7981781 -0.4830784 -0.3599263
vn 0 -0.2468489 -0.969054
vn 0 -0.2468644 -0.9690499
vn 0 -0.2468644 -0.9690499
vn 0.05211251 -0.2468373 -0.9676546
vn 0.06792834 -0.617671 -0.7834975
vn 0 -0.2050301 -0.9787557
vn 0.79315 -0.380973 -0.4751556
vn 0.7473385 -0.1659258 -0.6433924
vn 0.0440691 -0.2036526 -0.9780508
vn 0.7473385 -0.1659258 -0.6433924
vn 0.7329704 -0.1253244 -0.6686167
vn 0.05494123 0.9970789 -0.05305828
vn 0.7329704 -0.1253244 -0.6686167
vn 0.8113924 0.5830559 -0.04108753
vn 0.06841318 -0.7985437 -0.5980363
vn 0.7981781 -0.4830785 -0.3599263
vn 0.79315 -0.380973 -0.4751556
vn 0.07079725 -0.8874485 -0.4554371
vn 0.7999902 -0.5338659 -0.2738668
vn 0.7981781 -0.4830785 -0.3599263
vn 0.804347 -0.5617884 -0.193442
vn 0.06811018 -0.9358639 -0.3457166
vn 0 -0.938052 -0.3464945
vn 0 -0.9978015 0.0662736
vn 0.07390863 -0.9950737 0.06607369
vn 0.8301595 -0.5565108 0.03363096
vn 0.804347 -0.5617884 -0.193442
vn -0.0521125 -0.2468373 -0.9676546
vn -0.7329702 -0.1253246 -0.6686168
vn -0.7473385 -0.1659258 -0.6433924
vn -0.04406908 -0.2036526 -0.9780508
vn -0.7473385 -0.1659258 -0.6433924
vn -0.79315 -0.380973 -0.4751554
vn 0 -0.20503 -0.9787557
vn 0 -0.2049868 -0.9787648
vn 0 0.9986439 -0.05206161
vn 0 0.9986406 -0.05212361
vn 0.0673178 0.9976935 -0.008710262
vn 0.8113924 0.5830559 -0.04108753
vn 0.8257222 0.5640559 -0.004883952
vn 0 0.9999615 -0.008778589
vn 0 0.9999615 -0.008778623
vn 0 0.9986439 -0.05206129
vn 0 0.9999615 -0.008778589
vn -0.05494131 0.9970789 -0.05305799
vn -0.06731795 0.9976935 -0.008710255
vn -0.8257222 0.564056 -0.004883947
vn -0.8113921 0.5830563 -0.04108704
vn -0.8113921 0.5830563 -0.04108704
vn -0.7329702 -0.1253246 -0.6686168
vn -0.8026501 -0.5634296 -0.1957032
vn -0.8556212 -0.5166948 0.03063937
vn -0.8299613 -0.5568143 0.0334985
vn -0.8419727 -0.5042116 -0.1919702
vn -0.7997578 -0.5338211 -0.2746318
vn -0.8329411 -0.4911377 -0.2549368
vn -0.7981781 -0.4830784 -0.3599263
vn -0.8340586 -0.4406415 -0.3319356
vn -0.79315 -0.380973 -0.4751554
vn -0.8287131 -0.3413671 -0.4435124
vn -0.7473385 -0.1659258 -0.6433924
vn -0.7980313 -0.1472325 -0.5843533
vn -0.7329702 -0.1253246 -0.6686168
vn -0.8055961 -0.1282434 -0.578419
vn -0.8113921 0.5830563 -0.04108704
vn -0.8633097 0.5042697 -0.02020917
vn -0.8257222 0.564056 -0.004883947
vn -0.8565406 0.5160602 -0.00449514
vn 0.8301595 -0.5565108 0.03363096
vn 0.8556295 -0.5166782 0.03068869
vn 0.8411951 -0.5052212 -0.1927233
vn 0.804347 -0.5617884 -0.193442
vn 0.832537 -0.4919699 -0.2546523
vn 0.7999902 -0.5338659 -0.2738668
vn 0.8340585 -0.4406416 -0.3319356
vn 0.7981781 -0.4830785 -0.3599263
vn 0.8287129 -0.3413672 -0.4435126
vn 0.79315 -0.380973 -0.4751556
vn 0.7980313 -0.1472325 -0.5843532
vn 0.7473385 -0.1659258 -0.6433924
vn 0.8055961 -0.1282436 -0.578419
vn 0.7329704 -0.1253244 -0.6686167
vn 0.8633099 0.5042693 -0.02020958
vn 0.8113924 0.5830559 -0.04108753
vn 0.8565406 0.5160601 -0.00449514
vn 0.8257222 0.5640559 -0.004883952
g wall_deco_pillarCap_A_0
f 3/3/3 2/2/2 1/1/1
f 4/4/4 3/3/3 1/1/1
f 4/4/4 1/1/1 5/5/5
f 6/6/6 4/4/4 5/5/5
f 3/3/3 4/4/4 7/7/7
f 8/8/8 3/3/3 7/7/7
f 11/11/11 10/10/10 9/9/9
f 12/12/12 11/11/11 9/9/9
f 12/12/12 9/9/9 13/13/13
f 14/14/14 12/12/12 13/13/13
f 15/15/15 12/12/12 14/14/14
f 16/16/16 15/15/15 14/14/14
f 19/19/19 18/18/18 17/17/17
f 18/18/18 20/20/20 17/17/17
f 17/17/17 20/20/20 21/21/21
f 20/20/20 22/22/22 21/21/21
f 25/25/25 24/24/24 23/23/23
f 26/26/26 25/25/25 23/23/23
f 27/27/27 25/25/25 26/26/26
f 28/28/28 27/27/27 26/26/26
f 31/31/31 30/30/30 29/29/29
f 30/30/30 32/32/32 29/29/29
f 33/33/33 29/29/29 32/32/32
f 34/34/34 33/33/33 32/32/32
f 34/34/34 32/32/32 35/35/35
f 36/36/36 34/34/34 35/35/35
f 37/37/37 35/35/35 32/32/32
f 38/38/38 37/37/37 32/32/32
f 37/37/37 39/39/39 35/35/35
f 39/39/39 40/40/40 35/35/35
f 36/36/36 35/35/35 40/40/40
f 41/41/41 36/36/36 40/40/40
f 42/42/42 36/36/36 41/41/41
f 43/43/43 42/42/42 41/41/41
f 44/44/44 42/42/42 43/43/43
f 41/41/41 40/40/40 45/45/45
f 43/43/43 41/41/41 46/46/46
f 41/41/41 45/45/45 46/46/46
f 47/47/47 44/44/44 43/43/43
f 43/43/43 46/46/46 48/48/48
f 47/47/47 43/43/43 48/48/48
f 40/40/40 49/49/49 45/45/45
f 49/49/49 40/40/40 50/50/50
f 40/40/40 51/51/51 50/50/50
f 52/52/52 46/46/46 45/45/45
f 53/53/53 48/48/48 46/46/46
f 52/52/52 53/53/53 46/46/46
f 54/54/54 45/45/45 49/49/49
f 54/54/54 52/52/52 45/45/45
f 53/53/53 55/55/55 48/48/48
f 47/47/47 48/48/48 56/56/56
f 55/55/55 56/56/56 48/48/48
f 53/53/53 52/52/52 57/57/57
f 53/53/53 57/57/57 55/55/55
f 56/56/56 55/55/55 58/58/58
f 55/55/55 59/59/59 58/58/58
f 57/57/57 60/60/60 55/55/55
f 55/55/55 60/60/60 61/61/61
f 60/60/60 62/62/62 61/61/61
f 60/60/60 57/57/57 63/63/63
f 60/60/60 63/63/63 64/64/64
f 63/63/63 65/65/65 64/64/64
f 66/66/66 47/47/47 56/56/56
f 67/67/67 66/66/66 56/56/56
f 68/68/68 67/67/67 56/56/56
f 66/66/66 69/69/69 47/47/47
f 69/69/69 44/44/44 47/47/47
f 69/69/69 66/66/66 70/70/70
f 66/66/66 71/71/71 70/70/70
f 69/69/69 70/70/70 72/72/72
f 73/73/73 69/69/69 72/72/72
f 69/69/69 73/73/73 44/44/44
f 73/73/73 74/74/74 44/44/44
f 74/74/74 73/73/73 75/75/75
f 73/73/73 76/76/76 75/75/75
f 76/76/76 73/73/73 77/77/77
f 73/73/73 78/78/78 77/77/77
f 81/81/81 80/80/80 79/79/79
f 80/80/80 82/82/82 79/79/79
f 79/79/79 82/82/82 54/54/54
f 79/79/79 54/54/54 49/49/49
f 79/79/79 49/49/49 83/83/83
f 49/49/49 84/84/84 83/83/83
f 82/82/82 85/85/85 54/54/54
f 54/54/54 85/85/85 52/52/52
f 85/85/85 86/86/86 52/52/52
f 52/52/52 86/86/86 57/57/57
f 57/57/57 86/86/86 87/87/87
f 57/57/57 87/87/87 63/63/63
f 86/86/86 85/85/85 88/88/88
f 86/86/86 88/88/88 87/87/87
f 63/63/63 87/87/87 89/89/89
f 63/63/63 89/89/89 90/90/90
f 89/89/89 91/91/91 90/90/90
f 87/87/87 92/92/92 89/89/89
f 87/87/87 88/88/88 92/92/92
f 88/88/88 93/93/93 92/92/92
f 85/85/85 94/94/94 88/88/88
f 88/88/88 94/94/94 93/93/93
f 85/85/85 82/82/82 94/94/94
f 94/94/94 95/95/95 93/93/93
f 94/94/94 96/96/96 95/95/95
f 82/82/82 96/96/96 94/94/94
f 96/96/96 97/97/97 95/95/95
f 98/98/98 97/97/97 96/96/96
f 99/99/99 98/98/98 96/96/96
f 100/100/100 96/96/96 82/82/82
f 101/101/101 100/100/100 82/82/82
f 104/104/104 103/103/103 102/102/102
f 103/103/103 105/105/105 102/102/102
f 102/102/102 105/105/105 106/106/106
f 105/105/105 107/107/107 106/106/106
f 106/106/106 107/107/107 108/108/108
f 107/107/107 109/109/109 108/108/108
f 108/108/108 109/109/109 110/110/110
f 109/109/109 111/111/111 110/110/110
f 110/110/110 111/111/111 112/112/112
f 111/111/111 113/113/113 112/112/112
f 114/114/114 112/112/112 113/113/113
f 115/115/115 114/114/114 113/113/113
f 114/114/114 115/115/115 116/116/116
f 115/115/115 117/117/117 116/116/116
f 116/116/116 117/117/117 118/118/118
f 117/117/117 119/119/119 118/118/118
f 122/122/122 121/121/121 120/120/120
f 123/123/123 122/122/122 120/120/120
f 124/124/124 122/122/122 123/123/123
f 125/125/125 124/124/124 123/123/123
f 126/126/126 124/124/124 125/125/125
f 127/127/127 126/126/126 125/125/125
f 128/128/128 126/126/126 127/127/127
f 129/129/129 128/128/128 127/127/127
f 130/130/130 128/128/128 129/129/129
f 131/131/131 130/130/130 129/129/129
f 130/130/130 131/131/131 132/132/132
f 131/131/131 133/133/133 132/132/132
f 134/134/134 132/132/132 133/133/133
f 135/135/135 134/134/134 133/133/133
f 136/136/136 134/134/134 135/135/135
f 137/137/137 136/136/136 135/135/135
