g wall_deco_B
v -0.75 -4.924621 -2.768097
v -0.9444885 -5.002892 -2.749027
v -0.8622894 -5.110278 -2.842518
v -0.75 -5.065088 -2.853527
v -0.75 -5.229448 -2.857273
v -0.5555115 -5.002892 -2.749027
v -0.6377106 -5.110278 -2.842518
v -0.75 -5.229448 -2.857273
v -0.4749451 -5.191854 -2.702984
v -0.5912018 -5.219376 -2.815937
v -0.5555115 -5.380816 -2.65694
v -0.6377106 -5.328473 -2.789352
v -0.75 -5.459086 -2.637871
v -0.75 -5.229448 -2.857273
v -0.75 -5.373663 -2.778343
v -0.9444885 -5.380816 -2.65694
v -0.8622894 -5.328473 -2.789352
v -1.025055 -5.191854 -2.702984
v -0.9087982 -5.219376 -2.815937
v -0.9444885 -5.002892 -2.749027
v -0.8622894 -5.110278 -2.842518
v -0.75 -5.229448 -2.857273
v -0.75 -0.406909 -3.868881
v -0.9444885 -0.4851799 -3.849812
v -0.8622894 -0.5925665 -3.943302
v -0.75 -0.5473766 -3.954311
v -0.75 -0.7117367 -3.958057
v -0.5555115 -0.4851799 -3.849812
v -0.6377106 -0.5925665 -3.943302
v -0.75 -0.7117367 -3.958057
v -0.4749451 -0.6741419 -3.803768
v -0.5912018 -0.701664 -3.916721
v -0.5555115 -0.8631039 -3.757725
v -0.6377106 -0.8107615 -3.890137
v -0.75 -0.9413748 -3.738655
v -0.75 -0.7117367 -3.958057
v -0.75 -0.8559513 -3.879128
v -0.9444885 -0.8631039 -3.757725
v -0.8622894 -0.8107615 -3.890137
v -1.025055 -0.6741419 -3.803768
v -0.9087982 -0.701664 -3.916721
v -0.9444885 -0.4851799 -3.849812
v -0.8622894 -0.5925665 -3.943302
v -0.75 -0.7117367 -3.958057
v -7.25 -0.406909 -3.868881
v -7.444489 -0.4851799 -3.849812
v -7.362289 -0.5925665 -3.943302
v -7.25 -0.5473766 -3.954311
v -7.25 -0.7117367 -3.958057
v -7.055511 -0.4851799 -3.849812
v -7.137711 -0.5925665 -3.943302
v -7.25 -0.7117367 -3.958057
v -6.974949 -0.6741419 -3.803768
v -7.091202 -0.701664 -3.916721
v -7.055511 -0.8631039 -3.757725
v -7.137711 -0.8107615 -3.890137
v -7.25 -0.9413748 -3.738655
v -7.25 -0.7117367 -3.958057
v -7.25 -0.8559513 -3.879128
v -7.444489 -0.8631039 -3.757725
v -7.362289 -0.8107615 -3.890137
v -7.525051 -0.6741419 -3.803768
v -7.408798 -0.701664 -3.916721
v -7.444489 -0.4851799 -3.849812
v -7.362289 -0.5925665 -3.943302
v -7.25 -0.7117367 -3.958057
v -7.25 -4.924621 -2.768097
v -7.444489 -5.002892 -2.749027
v -7.362289 -5.110278 -2.842518
v -7.25 -5.065088 -2.853527
v -7.25 -5.229448 -2.857273
v -7.055511 -5.002892 -2.749027
v -7.137711 -5.110278 -2.842518
v -7.25 -5.229448 -2.857273
v -6.974949 -5.191854 -2.702984
v -7.091202 -5.219376 -2.815937
v -7.055511 -5.380816 -2.65694
v -7.137711 -5.328473 -2.789352
v -7.25 -5.459086 -2.637871
v -7.25 -5.229448 -2.857273
v -7.25 -5.373663 -2.778343
v -7.444489 -5.380816 -2.65694
v -7.362289 -5.328473 -2.789352
v -7.525051 -5.191854 -2.702984
v -7.408798 -5.219376 -2.815937
v -7.444489 -5.002892 -2.749027
v -7.362289 -5.110278 -2.842518
v -7.25 -5.229448 -2.857273
v 0 -7 7.629395E-06
v -3.800018 -6.921479 -0.196125
v -3.800018 -7 7.629395E-06
v 0 -6.921479 -0.196125
v -3.800018 -5.817223 -2.472462
v 0 -5.817223 -2.472462
v 0 -5.71128 -2.57534
v -3.800018 -5.71128 -2.57534
v -3.800018 -0.2565365 -3.904156
v 0 -0.2565393 -3.904156
v -3.800018 0 -3.738621
v 0 -2.861023E-06 -3.738621
v -4 -0.05342674 -3.705326
v -4 -0.2796087 -3.855194
v -4 -0.05342674 0
v -3.800018 0 0
v 0 -2.861023E-06 0
v -8 -6.921479 -0.196125
v -8 -7 7.629395E-06
v -4.199982 -7 7.629395E-06
v -4.199982 -6.921479 -0.196125
v -4.199982 -5.817223 -2.472462
v -8 -5.817223 -2.472462
v -4.199982 -5.71128 -2.57534
v -8 -5.71128 -2.57534
v -4.199982 -0.2565365 -3.904156
v -8 -0.2565365 -3.904152
v -4.199982 0 -3.738621
v -4 -0.2796087 -3.855194
v -8 0 -3.738621
v -4 -0.05342674 -3.705326
v -4.199982 0 0
v -8 0 0
v -4 -0.05342674 0
v -3.800018 -7 7.629395E-06
v -4 -6.869251 -0.196125
v -4 -6.946573 7.629395E-06
v -3.800018 -6.921479 -0.196125
v -4 -5.788536 -2.441776
v -3.800018 -5.817223 -2.472462
v -4 -5.684211 -2.543083
v -3.800018 -5.71128 -2.57534
v -4 -0.2796087 -3.855194
v -3.800018 -0.2565365 -3.904156
v -4 -6.946573 7.629395E-06
v -4.199982 -6.921479 -0.196125
v -4.199982 -7 7.629395E-06
v -4 -6.869251 -0.196125
v -4.199982 -5.817223 -2.472462
v -4 -5.788536 -2.441776
v -4.199982 -5.71128 -2.57534
v -4 -5.684211 -2.543083
v -4.199982 -0.2565365 -3.904156
v -4 -0.2796087 -3.855194
vt 0.5289057 0.3821129
vt 0.5065815 0.3821129
vt 0.5065815 0.3201275
vt 0.5289057 0.3201275
vt 0.5958781 0.2476555
vt 0.5512298 0.3821129
vt 0.5512298 0.3201275
vt 0.5958781 0.2476554
vt 0.573554 0.3821129
vt 0.573554 0.3201275
vt 0.5958782 0.3821129
vt 0.5958782 0.3201275
vt 0.6182023 0.3821129
vt 0.5958781 0.2476555
vt 0.6182023 0.3201275
vt 0.6405265 0.3821129
vt 0.6405265 0.3201275
vt 0.6628506 0.3821129
vt 0.6628506 0.3201275
vt 0.6851748 0.3821128
vt 0.6851748 0.3201275
vt 0.5958781 0.2476554
vt 0.5289057 0.3821129
vt 0.5065815 0.3821129
vt 0.5065815 0.3201275
vt 0.5289057 0.3201275
vt 0.5958781 0.2476555
vt 0.5512298 0.3821129
vt 0.5512298 0.3201275
vt 0.5958781 0.2476554
vt 0.573554 0.3821129
vt 0.573554 0.3201275
vt 0.5958782 0.3821129
vt 0.5958782 0.3201275
vt 0.6182023 0.3821129
vt 0.5958781 0.2476555
vt 0.6182023 0.3201275
vt 0.6405265 0.3821129
vt 0.6405265 0.3201275
vt 0.6628506 0.3821129
vt 0.6628506 0.3201275
vt 0.6851748 0.3821128
vt 0.6851748 0.3201275
vt 0.5958781 0.2476554
vt 0.5289057 0.3821129
vt 0.5065815 0.3821129
vt 0.5065815 0.3201275
vt 0.5289057 0.3201275
vt 0.5958781 0.2476555
vt 0.5512298 0.3821129
vt 0.5512298 0.3201275
vt 0.5958781 0.2476554
vt 0.573554 0.3821129
vt 0.573554 0.3201275
vt 0.5958782 0.3821129
vt 0.5958782 0.3201275
vt 0.6182023 0.3821129
vt 0.5958781 0.2476555
vt 0.6182023 0.3201275
vt 0.6405265 0.3821129
vt 0.6405265 0.3201275
vt 0.6628506 0.3821129
vt 0.6628506 0.3201275
vt 0.6851748 0.3821128
vt 0.6851748 0.3201275
vt 0.5958781 0.2476554
vt 0.5289057 0.3821129
vt 0.5065815 0.3821129
vt 0.5065815 0.3201275
vt 0.5289057 0.3201275
vt 0.5958781 0.2476555
vt 0.5512298 0.3821129
vt 0.5512298 0.3201275
vt 0.5958781 0.2476554
vt 0.573554 0.3821129
vt 0.573554 0.3201275
vt 0.5958782 0.3821129
vt 0.5958782 0.3201275
vt 0.6182023 0.3821129
vt 0.5958781 0.2476555
vt 0.6182023 0.3201275
vt 0.6405265 0.3821129
vt 0.6405265 0.3201275
vt 0.6628506 0.3821129
vt 0.6628506 0.3201275
vt 0.6851748 0.3821128
vt 0.6851748 0.3201275
vt 0.5958781 0.2476554
vt 0 0.2482896
vt 0.2375013 0.2637888
vt 0.2375013 0.2482895
vt 0 0.2637889
vt 0.2375044 0.2712465
vt 0 0.2712465
vt 0 0.2872726
vt 0.2375013 0.2872726
vt 0.2375012 0.3673688
vt 0 0.3673688
vt 0.2375012 0.3813579
vt 0 0.381358
vt 0.25 0.3813579
vt 0.25 0.3813579
vt 0.25 0.4
vt 0.2375012 0.4
vt 0 0.4
vt 0.5000001 0.2637888
vt 0.5000001 0.2482893
vt 0.2624988 0.2482895
vt 0.2624988 0.2637888
vt 0.2624988 0.2712465
vt 0.5000001 0.2712465
vt 0.2624988 0.2872726
vt 0.5000001 0.2872726
vt 0.2624987 0.3673688
vt 0.4999999 0.3673688
vt 0.2625 0.3813579
vt 0.25 0.3813579
vt 0.4999999 0.3813578
vt 0.25 0.3813579
vt 0.2624987 0.4
vt 0.4999999 0.4
vt 0.25 0.4
vt 2.12261 0.3669704
vt 2.117622 0.3811553
vt 2.123837 0.3811553
vt 2.116446 0.3669704
vt 1.990708 0.3811552
vt 1.988859 0.3669704
vt 1.980653 0.3811552
vt 1.978745 0.3669704
vt 1.567003 0.3811552
vt 1.568414 0.3669704
vt 1.88483 0.3811553
vt 1.877439 0.3669704
vt 1.883604 0.3669704
vt 1.878615 0.3811553
vt 1.749852 0.3669704
vt 1.751701 0.3811552
vt 1.739738 0.3669704
vt 1.741647 0.3811552
vt 1.329408 0.3669704
vt 1.327996 0.3811552
vn 0 0.5196354 -0.8543881
vn -0.5000094 0.3184095 -0.8053609
vn -0.448773 0.253073 -0.8570629
vn 0 0.4336785 -0.9010677
vn 0 -0.236729 -0.9715757
vn 0.5000087 0.3184094 -0.8053613
vn 0.4487723 0.2530727 -0.8570634
vn 0 -0.236729 -0.9715757
vn 0.707117 -0.1673961 -0.6869963
vn 0.634654 -0.1829482 -0.750829
vn 0.5000152 -0.6531918 -0.5686169
vn 0.4487786 -0.6189626 -0.6445798
vn 0 -0.8544222 -0.5195795
vn 0 -0.236729 -0.9715757
vn 0 -0.7995701 -0.6005729
vn -0.500016 -0.6531919 -0.5686161
vn -0.4487793 -0.6189627 -0.6445791
vn -0.7071182 -0.1673972 -0.6869949
vn -0.6346554 -0.1829491 -0.7508276
vn -0.5000094 0.3184095 -0.8053609
vn -0.448773 0.253073 -0.8570629
vn 0 -0.236729 -0.9715757
vn 0 0.5196311 -0.8543906
vn -0.500006 0.3184086 -0.8053632
vn -0.4487699 0.2530723 -0.8570648
vn 0 0.4336753 -0.9010692
vn 0 -0.2367291 -0.9715757
vn 0.5000076 0.3184088 -0.8053622
vn 0.4487711 0.2530722 -0.8570641
vn 0 -0.2367291 -0.9715757
vn 0.7071187 -0.1673968 -0.6869944
vn 0.6346553 -0.1829486 -0.750828
vn 0.5000161 -0.653192 -0.5686159
vn 0.44878 -0.6189629 -0.6445784
vn 0 -0.8544222 -0.5195795
vn 0 -0.2367291 -0.9715757
vn 0 -0.7995714 -0.6005712
vn -0.5000162 -0.653192 -0.568616
vn -0.4487799 -0.6189626 -0.6445788
vn -0.7071176 -0.1673975 -0.6869954
vn -0.6346542 -0.1829494 -0.7508286
vn -0.500006 0.3184086 -0.8053632
vn -0.4487699 0.2530723 -0.8570648
vn 0 -0.2367291 -0.9715757
vn 0 0.51963 -0.8543914
vn -0.5000087 0.3184086 -0.8053616
vn -0.4487727 0.2530713 -0.8570635
vn 0 0.4336742 -0.9010698
vn 0 -0.2367291 -0.9715757
vn 0.5000103 0.3184085 -0.8053606
vn 0.4487741 0.253071 -0.857063
vn 0 -0.2367291 -0.9715757
vn 0.7071248 -0.1673949 -0.6869887
vn 0.6346602 -0.1829472 -0.7508241
vn 0.5000181 -0.653192 -0.5686143
vn 0.4487821 -0.618962 -0.6445778
vn 0 -0.854422 -0.5195795
vn 0 -0.2367291 -0.9715757
vn 0 -0.7995712 -0.6005713
vn -0.5000186 -0.6531912 -0.5686148
vn -0.4487824 -0.6189612 -0.6445785
vn -0.7071238 -0.1673946 -0.6869898
vn -0.6346591 -0.1829472 -0.7508249
vn -0.5000087 0.3184086 -0.8053616
vn -0.4487727 0.2530713 -0.8570635
vn 0 -0.2367291 -0.9715757
vn 0 0.5196342 -0.8543888
vn -0.500012 0.3184094 -0.8053592
vn -0.4487759 0.253072 -0.8570617
vn 0 0.4336775 -0.9010682
vn 0 -0.2367289 -0.9715757
vn 0.500011 0.3184095 -0.8053598
vn 0.4487749 0.2530718 -0.8570623
vn 0 -0.2367289 -0.9715757
vn 0.7071242 -0.167395 -0.6869892
vn 0.6346596 -0.1829476 -0.7508244
vn 0.5000178 -0.6531927 -0.5686136
vn 0.4487813 -0.6189624 -0.644578
vn 0 -0.8544222 -0.5195795
vn 0 -0.2367289 -0.9715757
vn 0 -0.7995701 -0.6005728
vn -0.500019 -0.653192 -0.5686132
vn -0.4487824 -0.618962 -0.6445776
vn -0.7071255 -0.1673945 -0.686988
vn -0.6346613 -0.1829472 -0.7508231
vn -0.500012 0.3184094 -0.8053592
vn -0.4487759 0.253072 -0.8570617
vn 0 -0.2367289 -0.9715757
vn 0 -0.9283655 -0.3716685
vn -0.01021323 -0.9020938 -0.4314192
vn -0.01154596 -0.9283497 -0.3715287
vn 0 -0.9020927 -0.4315422
vn -0.01026389 -0.891285 -0.4533274
vn 0 -0.8913202 -0.4533742
vn 0 -0.2493356 -0.9684171
vn -0.009443593 -0.2493354 -0.9683712
vn -0.009285552 -0.1994896 -0.979856
vn 0 -0.1995834 -0.9798809
vn -0.0124168 0.9977776 -0.0654646
vn 0 0.9978482 -0.06556711
vn -0.2662034 0.9621272 -0.05871101
vn -0.2018099 -0.1991918 -0.9589554
vn -0.2581059 0.9661166 0
vn -0.01329828 0.9999115 0
vn 0 1 0
vn 0 -0.9020927 -0.4315422
vn 0 -0.9283655 -0.3716685
vn 0.01154596 -0.9283497 -0.3715287
vn 0.01021323 -0.9020938 -0.4314192
vn 0.01026389 -0.891285 -0.4533274
vn 0 -0.8913202 -0.4533742
vn 0.00944301 -0.2493351 -0.9683713
vn 0 -0.2493353 -0.9684172
vn 0.009284971 -0.1994896 -0.979856
vn 0 -0.1995833 -0.9798809
vn 0.01241749 0.9977776 -0.06546466
vn 0.2018098 -0.1991918 -0.9589554
vn 0 0.9978482 -0.06556712
vn 0.2662033 0.9621273 -0.05871106
vn 0.01329899 0.9999115 0
vn 0 1 0
vn 0.2581059 0.9661166 0
vn -0.01154596 -0.9283497 -0.3715287
vn -0.2126537 -0.8818985 -0.4207533
vn -0.2384163 -0.902542 -0.3585744
vn -0.01021323 -0.9020938 -0.4314192
vn -0.2110341 -0.8722775 -0.4411309
vn -0.01026389 -0.891285 -0.4533274
vn -0.1966724 -0.2435099 -0.9497488
vn -0.009443593 -0.2493354 -0.9683712
vn -0.2018099 -0.1991918 -0.9589554
vn -0.009285552 -0.1994896 -0.979856
vn 0.2384163 -0.902542 -0.3585744
vn 0.01021323 -0.9020938 -0.4314192
vn 0.01154596 -0.9283497 -0.3715287
vn 0.2126537 -0.8818985 -0.4207533
vn 0.01026389 -0.891285 -0.4533274
vn 0.2110341 -0.8722775 -0.441131
vn 0.00944301 -0.2493351 -0.9683713
vn 0.1966724 -0.2435099 -0.9497488
vn 0.009284971 -0.1994896 -0.979856
vn 0.2018098 -0.1991918 -0.9589554
g wall_deco_B_0
f 3/3/3 2/2/2 1/1/1
f 4/4/4 3/3/3 1/1/1
f 5/5/5 3/3/3 4/4/4
f 4/4/4 1/1/1 6/6/6
f 7/7/7 4/4/4 6/6/6
f 8/8/8 4/4/4 7/7/7
f 7/7/7 6/6/6 9/9/9
f 8/8/8 7/7/7 10/10/10
f 10/10/10 7/7/7 9/9/9
f 10/10/10 9/9/9 11/11/11
f 12/12/12 10/10/10 11/11/11
f 12/12/12 11/11/11 13/13/13
f 14/14/14 10/10/10 12/12/12
f 15/15/15 12/12/12 13/13/13
f 14/14/14 12/12/12 15/15/15
f 15/15/15 13/13/13 16/16/16
f 14/14/14 15/15/15 17/17/17
f 17/17/17 15/15/15 16/16/16
f 17/17/17 16/16/16 18/18/18
f 14/14/14 17/17/17 19/19/19
f 19/19/19 17/17/17 18/18/18
f 19/19/19 18/18/18 20/20/20
f 21/21/21 19/19/19 20/20/20
f 22/22/22 19/19/19 21/21/21
f 25/25/25 24/24/24 23/23/23
f 26/26/26 25/25/25 23/23/23
f 27/27/27 25/25/25 26/26/26
f 26/26/26 23/23/23 28/28/28
f 29/29/29 26/26/26 28/28/28
f 30/30/30 26/26/26 29/29/29
f 29/29/29 28/28/28 31/31/31
f 30/30/30 29/29/29 32/32/32
f 32/32/32 29/29/29 31/31/31
f 32/32/32 31/31/31 33/33/33
f 34/34/34 32/32/32 33/33/33
f 34/34/34 33/33/33 35/35/35
f 36/36/36 32/32/32 34/34/34
f 37/37/37 34/34/34 35/35/35
f 36/36/36 34/34/34 37/37/37
f 37/37/37 35/35/35 38/38/38
f 36/36/36 37/37/37 39/39/39
f 39/39/39 37/37/37 38/38/38
f 39/39/39 38/38/38 40/40/40
f 36/36/36 39/39/39 41/41/41
f 41/41/41 39/39/39 40/40/40
f 41/41/41 40/40/40 42/42/42
f 43/43/43 41/41/41 42/42/42
f 44/44/44 41/41/41 43/43/43
f 47/47/47 46/46/46 45/45/45
f 48/48/48 47/47/47 45/45/45
f 49/49/49 47/47/47 48/48/48
f 48/48/48 45/45/45 50/50/50
f 51/51/51 48/48/48 50/50/50
f 52/52/52 48/48/48 51/51/51
f 51/51/51 50/50/50 53/53/53
f 52/52/52 51/51/51 54/54/54
f 54/54/54 51/51/51 53/53/53
f 54/54/54 53/53/53 55/55/55
f 56/56/56 54/54/54 55/55/55
f 56/56/56 55/55/55 57/57/57
f 58/58/58 54/54/54 56/56/56
f 59/59/59 56/56/56 57/57/57
f 58/58/58 56/56/56 59/59/59
f 59/59/59 57/57/57 60/60/60
f 58/58/58 59/59/59 61/61/61
f 61/61/61 59/59/59 60/60/60
f 61/61/61 60/60/60 62/62/62
f 58/58/58 61/61/61 63/63/63
f 63/63/63 61/61/61 62/62/62
f 63/63/63 62/62/62 64/64/64
f 65/65/65 63/63/63 64/64/64
f 66/66/66 63/63/63 65/65/65
f 69/69/69 68/68/68 67/67/67
f 70/70/70 69/69/69 67/67/67
f 71/71/71 69/69/69 70/70/70
f 70/70/70 67/67/67 72/72/72
f 73/73/73 70/70/70 72/72/72
f 74/74/74 70/70/70 73/73/73
f 73/73/73 72/72/72 75/75/75
f 74/74/74 73/73/73 76/76/76
f 76/76/76 73/73/73 75/75/75
f 76/76/76 75/75/75 77/77/77
f 78/78/78 76/76/76 77/77/77
f 78/78/78 77/77/77 79/79/79
f 80/80/80 76/76/76 78/78/78
f 81/81/81 78/78/78 79/79/79
f 80/80/80 78/78/78 81/81/81
f 81/81/81 79/79/79 82/82/82
f 80/80/80 81/81/81 83/83/83
f 83/83/83 81/81/81 82/82/82
f 83/83/83 82/82/82 84/84/84
f 80/80/80 83/83/83 85/85/85
f 85/85/85 83/83/83 84/84/84
f 85/85/85 84/84/84 86/86/86
f 87/87/87 85/85/85 86/86/86
f 88/88/88 85/85/85 87/87/87
f 91/91/91 90/90/90 89/89/89
f 90/90/90 92/92/92 89/89/89
f 90/90/90 93/93/93 92/92/92
f 93/93/93 94/94/94 92/92/92
f 95/95/95 94/94/94 93/93/93
f 96/96/96 95/95/95 93/93/93
f 96/96/96 97/97/97 95/95/95
f 97/97/97 98/98/98 95/95/95
f 97/97/97 99/99/99 98/98/98
f 99/99/99 100/100/100 98/98/98
f 101/101/101 99/99/99 97/97/97
f 102/102/102 101/101/101 97/97/97
f 101/101/101 103/103/103 99/99/99
f 103/103/103 104/104/104 99/99/99
f 99/99/99 104/104/104 100/100/100
f 104/104/104 105/105/105 100/100/100
f 108/108/108 107/107/107 106/106/106
f 109/109/109 108/108/108 106/106/106
f 109/109/109 106/106/106 110/110/110
f 106/106/106 111/111/111 110/110/110
f 112/112/112 110/110/110 111/111/111
f 113/113/113 112/112/112 111/111/111
f 112/112/112 113/113/113 114/114/114
f 113/113/113 115/115/115 114/114/114
f 114/114/114 115/115/115 116/116/116
f 114/114/114 116/116/116 117/117/117
f 115/115/115 118/118/118 116/116/116
f 116/116/116 119/119/119 117/117/117
f 116/116/116 118/118/118 120/120/120
f 116/116/116 120/120/120 119/119/119
f 118/118/118 121/121/121 120/120/120
f 120/120/120 122/122/122 119/119/119
f 125/125/125 124/124/124 123/123/123
f 124/124/124 126/126/126 123/123/123
f 124/124/124 127/127/127 126/126/126
f 127/127/127 128/128/128 126/126/126
f 127/127/127 129/129/129 128/128/128
f 129/129/129 130/130/130 128/128/128
f 129/129/129 131/131/131 130/130/130
f 131/131/131 132/132/132 130/130/130
f 135/135/135 134/134/134 133/133/133
f 134/134/134 136/136/136 133/133/133
f 134/134/134 137/137/137 136/136/136
f 137/137/137 138/138/138 136/136/136
f 137/137/137 139/139/139 138/138/138
f 139/139/139 140/140/140 138/138/138
f 139/139/139 141/141/141 140/140/140
f 141/141/141 142/142/142 140/140/140
