g wall_y16_cIN_COL
v -4.911951 -1.509111E-07 -2.047737
v -4.999031 -1.62732E-07 -3.114986
v -4.998957 -1.62732E-07 -3.954414
v -4.998957 -1.62732E-07 -3.954414
v -4.999039 14.18097 -3.95615
v -4.999112 14.18096 -3.116722
v -4.912724 14.18133 -2.049126
v -4.499168 -1.233892E-07 -1.061932
v -3.856828 14.18134 -0.1427765
v -4.499169 14.18134 -1.061932
v -3.856823 -1.335656E-07 -0.1427765
v -2.937555 14.18134 0.4994202
v -2.937554 -1.233891E-07 0.4994202
v -1.951748 -6.507752E-08 0.9120026
v -1.950166 14.18321 0.9120789
v -0.8845711 0 0.9989624
v -0.8828382 14.18097 0.9990425
v -0.04556942 0 0.9989586
v -0.04384041 14.18097 0.9990387
v -0.8783274 16.35045 0.1857529
v -0.03932667 16.35045 0.1857529
v -0.04384041 14.18097 0.9990387
v -0.8828382 14.18097 0.9990425
v -1.762584 16.36782 0.1128273
v -1.950166 14.18321 0.9120789
v -2.543429 16.35112 -0.212429
v -2.937555 14.18134 0.4994202
v -3.272763 16.37626 -0.7269287
v -3.856828 14.18134 -0.1427765
v -4.499169 14.18134 -1.061932
v -3.787387 16.35112 -1.456181
v -4.112801 16.36783 -2.237034
v -4.912724 14.18133 -2.049126
v -4.185822 16.35046 -3.121235
v -4.185751 16.35046 -3.960667
v -4.999039 14.18097 -3.95615
v -4.999112 14.18096 -3.116722
v -0.8389988 0 0
v 9.536743E-07 0 -3.814697E-06
v -9.536743E-07 14 0
v -0.8389988 14 0
v -1.672241 0 -0.07628632
v -1.672242 14 -0.07628632
v -2.453174 0 -0.3754387
v -2.453175 14 -0.3754349
v -3.121194 0 -0.8785248
v -3.121195 14 -0.8785248
v -3.923674 14 -2.327343
v -3.624391 14 -1.546455
v -3.62439 0 -1.546455
v -3.923671 0 -2.327343
v -4.000003 14 -4.000004
v -4.000072 14 -3.160572
v -4.00007 0 -3.160572
v -3.999997 0 -4
v -9.536743E-07 14 0
v 9.536743E-07 16 -0.7500038
v -0.8389978 16 -0.75
v -0.8389988 14 0
v -1.504185 16 -0.8072166
v -1.672242 14 -0.07628632
v -2.08989 16 -1.031582
v -2.453175 14 -0.3754349
v -2.590907 16 -1.408901
v -3.121195 14 -0.8785248
v -3.192771 16 -2.495518
v -2.968308 16 -1.909855
v -3.624391 14 -1.546455
v -3.923674 14 -2.327343
v -3.249999 16 -4.000004
v -3.25007 16 -3.160572
v -4.000072 14 -3.160572
v -4.000003 14 -4.000004
v -9.536743E-07 14 0
v 9.536743E-07 0 -3.814697E-06
v -0.04556942 0 0.9989586
v -0.04384041 14.18097 0.9990387
v 9.536743E-07 0 -3.814697E-06
v -0.8845711 0 0.9989624
v -0.04556942 0 0.9989586
v -0.8389988 0 0
v -1.951748 -6.507752E-08 0.9120026
v -1.672241 0 -0.07628632
v -2.937554 -1.233891E-07 0.4994202
v -2.453174 0 -0.3754387
v -3.856823 -1.335656E-07 -0.1427765
v -3.121194 0 -0.8785248
v -4.499168 -1.233892E-07 -1.061932
v -3.62439 0 -1.546455
v -4.911951 -1.509111E-07 -2.047737
v -3.923671 0 -2.327343
v -4.999031 -1.62732E-07 -3.114986
v -4.00007 0 -3.160572
v -4.998957 -1.62732E-07 -3.954414
v -3.999997 0 -4
v -0.8389978 16 -0.75
v 9.536743E-07 16 -0.7500038
v -0.03932667 16.35045 0.1857529
v -0.8783274 16.35045 0.1857529
v -1.504185 16 -0.8072166
v -1.762584 16.36782 0.1128273
v -2.08989 16 -1.031582
v -2.543429 16.35112 -0.212429
v -2.590907 16 -1.408901
v -3.272763 16.37626 -0.7269287
v -2.968308 16 -1.909855
v -3.787387 16.35112 -1.456181
v -3.192771 16 -2.495518
v -4.112801 16.36783 -2.237034
v -3.25007 16 -3.160572
v -4.185822 16.35046 -3.121235
v -3.249999 16 -4.000004
v -4.185751 16.35046 -3.960667
v 9.536743E-07 16 -0.7500038
v -9.536743E-07 14 0
v -0.04384041 14.18097 0.9990387
v -0.03932667 16.35045 0.1857529
v -3.999997 0 -4
v -4.000003 14 -4.000004
v -4.999039 14.18097 -3.95615
v -4.998957 -1.62732E-07 -3.954414
v -4.000003 14 -4.000004
v -3.249999 16 -4.000004
v -4.185751 16.35046 -3.960667
v -4.999039 14.18097 -3.95615
vt 0.5983195 0.1219
vt 0.617774 0.1219
vt 0.6372285 0.1219
vt 0.6372285 0.1219
vt 0.1870485 0.239213
vt 0.1755778 0.239213
vt 0.1641072 0.239213
vt 0.5788651 0.1219
vt 0.141166 0.239213
vt 0.1526366 0.239213
vt 0.5594106 0.1219001
vt 0.1296954 0.239213
vt 0.5399561 0.1219001
vt 0.5205016 0.1219001
vt 0.1182248 0.239213
vt 0.501047 0.1219001
vt 0.1067542 0.239213
vt 0.4815925 0.1219001
vt 0.09528359 0.239213
vt 0.5624999 0.3673688
vt 0.4999999 0.3673688
vt 0.5000001 0.2482893
vt 0.5625001 0.2482892
vt 0.6249999 0.3673688
vt 0.6250001 0.2482892
vt 0.6874999 0.3673688
vt 0.6875001 0.2482892
vt 0.7499999 0.3673688
vt 0.7500001 0.2482891
vt 0.8125001 0.2482891
vt 0.8124999 0.3673688
vt 0.8749999 0.3673688
vt 0.8750001 0.248289
vt 0.9374999 0.3673688
vt 0.9999999 0.3673688
vt 1 0.248289
vt 0.9375001 0.248289
vt 0.501047 0.1219001
vt 0.4815925 0.1219001
vt 0.09528359 0.239213
vt 0.1067542 0.239213
vt 0.5205016 0.1219001
vt 0.1182248 0.239213
vt 0.5399561 0.1219001
vt 0.1296954 0.239213
vt 0.5594106 0.1219001
vt 0.141166 0.239213
vt 0.1641072 0.239213
vt 0.1526366 0.239213
vt 0.5788651 0.1219
vt 0.5983195 0.1219
vt 0.1870485 0.239213
vt 0.1755778 0.239213
vt 0.617774 0.1219
vt 0.6372285 0.1219
vt 0.5000001 0.2482893
vt 0.4999999 0.3673688
vt 0.5624999 0.3673688
vt 0.5625001 0.2482892
vt 0.6249999 0.3673688
vt 0.6250001 0.2482892
vt 0.6874999 0.3673688
vt 0.6875001 0.2482892
vt 0.7499999 0.3673688
vt 0.7500001 0.2482891
vt 0.8749999 0.3673688
vt 0.8124999 0.3673688
vt 0.8125001 0.2482891
vt 0.8750001 0.248289
vt 0.9999999 0.3673688
vt 0.9374999 0.3673688
vt 0.9375001 0.248289
vt 1 0.248289
vt 0.09528359 0.239213
vt 0.4815925 0.1219001
vt 0.4815925 0.1219001
vt 0.09528359 0.239213
vt 0.4815925 0.1219001
vt 0.501047 0.1219001
vt 0.4815925 0.1219001
vt 0.501047 0.1219001
vt 0.5205016 0.1219001
vt 0.5205016 0.1219001
vt 0.5399561 0.1219001
vt 0.5399561 0.1219001
vt 0.5594106 0.1219001
vt 0.5594106 0.1219001
vt 0.5788651 0.1219
vt 0.5788651 0.1219
vt 0.5983195 0.1219
vt 0.5983195 0.1219
vt 0.617774 0.1219
vt 0.617774 0.1219
vt 0.6372285 0.1219
vt 0.6372285 0.1219
vt 0.5624999 0.3673688
vt 0.4999999 0.3673688
vt 0.4999999 0.3673688
vt 0.5624999 0.3673688
vt 0.6249999 0.3673688
vt 0.6249999 0.3673688
vt 0.6874999 0.3673688
vt 0.6874999 0.3673688
vt 0.7499999 0.3673688
vt 0.7499999 0.3673688
vt 0.8124999 0.3673688
vt 0.8124999 0.3673688
vt 0.8749999 0.3673688
vt 0.8749999 0.3673688
vt 0.9374999 0.3673688
vt 0.9374999 0.3673688
vt 0.9999999 0.3673688
vt 0.9999999 0.3673688
vt 0.4999999 0.3673688
vt 0.5000001 0.2482893
vt 0.5000001 0.2482893
vt 0.4999999 0.3673688
vt 0.6372285 0.1219
vt 0.1870485 0.239213
vt 0.1870485 0.239213
vt 0.6372285 0.1219
vt 1 0.248289
vt 0.9999999 0.3673688
vt 0.9999999 0.3673688
vt 1 0.248289
vn -0.9579302 0 0.2870012
vn -0.9989688 -1.435668E-05 0.04540027
vn -0.9989688 -1.435668E-05 0.04540027
vn -0.9989688 -1.435668E-05 0.04540027
vn -0.9989688 -1.435668E-05 0.04540026
vn -0.9989688 -1.435668E-05 0.04540026
vn -0.9579319 0 0.2869955
vn -0.8747773 0 0.4845253
vn -0.7069938 0 0.7072197
vn -0.8747773 0 0.4845253
vn -0.7069938 0 0.7072198
vn -0.4842364 0 0.8749372
vn -0.4842364 0 0.8749371
vn -0.2869347 0 0.9579502
vn -0.286928 0 0.9579521
vn -0.04557145 0 0.9989611
vn -0.04557145 0 0.9989611
vn -0.04557145 0 0.9989611
vn -0.04557145 0 0.9989611
vn -0.03940528 0.3502733 0.9358183
vn -0.03940528 0.3502732 0.9358183
vn -0.03940528 0.3502732 0.9358183
vn -0.03940528 0.3502733 0.9358183
vn -0.2609362 0.3585588 0.8962967
vn -0.2601696 0.3585616 0.8965185
vn -0.4538409 0.3500718 0.8194377
vn -0.4538409 0.3500718 0.8194377
vn -0.6590205 0.362385 0.6590669
vn -0.6590211 0.362385 0.6590661
vn -0.8193712 0.3500738 0.4539595
vn -0.8193712 0.3500738 0.4539595
vn -0.8962811 0.3585649 0.2609819
vn -0.8965015 0.3585677 0.2602196
vn -0.9358175 0.3502736 0.0394211
vn -0.9358175 0.3502736 0.0394211
vn -0.9358175 0.3502737 0.03942111
vn -0.9358175 0.3502736 0.0394211
vn 0.04557066 0 -0.9989611
vn 0.04557066 0 -0.9989611
vn 0.04557065 0 -0.9989611
vn 0.04557066 0 -0.9989611
vn 0.2709419 0 -0.9625958
vn 0.2709419 0 -0.9625958
vn 0.4843804 0 -0.8748575
vn 0.4843804 0 -0.8748575
vn 0.7070481 0 -0.7071655
vn 0.7070481 0 -0.7071655
vn 0.9625794 0 -0.271
vn 0.8747771 0 -0.4845254
vn 0.8747771 0 -0.4845254
vn 0.9625794 0 -0.271
vn 0.9989605 0 -0.04558518
vn 0.9989605 0 -0.04558519
vn 0.9989605 0 -0.04558519
vn 0.9989605 0 -0.04558517
vn 0.03932792 -0.3504558 -0.9357532
vn 0.03932791 -0.3504559 -0.9357532
vn 0.03932792 -0.3504559 -0.9357532
vn 0.03932792 -0.3504559 -0.9357532
vn 0.2425515 -0.3591684 -0.901203
vn 0.2424352 -0.3591678 -0.9012345
vn 0.4535397 -0.3511245 -0.8191541
vn 0.4535397 -0.3511245 -0.819154
vn 0.6586887 -0.3634738 -0.6587989
vn 0.6586886 -0.3634738 -0.6587991
vn 0.901187 -0.3591745 -0.2426019
vn 0.8190785 -0.3511241 -0.4536764
vn 0.8190785 -0.3511242 -0.4536764
vn 0.9012184 -0.3591739 -0.2424863
vn 0.9357525 -0.3504568 -0.0393361
vn 0.9357525 -0.3504567 -0.0393361
vn 0.9357525 -0.3504568 -0.03933611
vn 0.9357525 -0.3504567 -0.0393361
vn 0.9990317 0.001805544 0.04396001
vn 0.999 -6.135809E-05 0.04471045
vn 0.999 -6.135809E-05 0.04471045
vn 0.9990317 0.001804788 0.04396032
vn 0 -1 0
vn 0 -1 0
vn 0 -1 0
vn 0 -1 0
vn 0 -1 0
vn 0 -1 0
vn 0 -1 0
vn 0 -1 0
vn 0 -1 0
vn 0 -1 0
vn 0 -1 0
vn 0 -1 0
vn 0 -1 0
vn 0 -1 0
vn 0 -1 0
vn 0 -1 0
vn 0 -1 0
vn 0 -1 0
vn 0.01943128 0.9354696 -0.3528727
vn 0 0.9364784 -0.3507254
vn 0 0.9364784 -0.3507254
vn 0.01947639 0.9354667 -0.3528775
vn 0.07981638 0.934803 -0.3460819
vn 0.08187675 0.9348034 -0.3455993
vn 0.1748435 0.9348186 -0.3091017
vn 0.1749302 0.9348176 -0.309056
vn 0.2534575 0.9335403 -0.2534989
vn 0.2534574 0.9335403 -0.253499
vn 0.3090767 0.9348179 -0.174892
vn 0.309031 0.9348167 -0.1749785
vn 0.3460742 0.934801 -0.07987282
vn 0.3455918 0.9348015 -0.08193034
vn 0.3528743 0.9354689 -0.01943536
vn 0.3528791 0.9354661 -0.01948027
vn 0.350729 0.936477 2.956147E-05
vn 0.350729 0.936477 2.956146E-05
vn 0.9991382 0.01361819 0.0392075
vn 0.9990317 0.001805544 0.04396001
vn 0.9990317 0.001804788 0.04396032
vn 0.9991382 0.01361819 0.0392075
vn -0.04472527 -6.180345E-05 -0.9989993
vn -0.04397435 0.001805707 -0.9990311
vn -0.04397466 0.001804959 -0.9990309
vn -0.04472527 -6.180345E-05 -0.9989993
vn -0.04397435 0.001805707 -0.9990311
vn -0.03921884 0.01362223 -0.9991378
vn -0.03921883 0.01362223 -0.9991378
vn -0.04397466 0.001804959 -0.9990309
g wall_y16_cIN_COL_0
f 3/3/3 2/2/2 1/1/1
f 1/1/1 5/5/5 4/4/4
f 1/1/1 6/6/6 5/5/5
f 6/6/6 1/1/1 7/7/7
f 1/1/1 8/8/8 7/7/7
f 9/9/9 7/7/7 8/8/8
f 9/9/9 10/10/10 7/7/7
f 8/8/8 11/11/11 9/9/9
f 12/12/12 9/9/9 11/11/11
f 12/12/12 11/11/11 13/13/13
f 12/12/12 13/13/13 14/14/14
f 14/14/14 15/15/15 12/12/12
f 15/15/15 14/14/14 16/16/16
f 17/17/17 15/15/15 16/16/16
f 17/17/17 16/16/16 18/18/18
f 18/18/18 19/19/19 17/17/17
f 22/22/22 21/21/21 20/20/20
f 20/20/20 23/23/23 22/22/22
f 20/20/20 24/24/24 23/23/23
f 24/24/24 25/25/25 23/23/23
f 25/25/25 24/24/24 26/26/26
f 26/26/26 27/27/27 25/25/25
f 26/26/26 28/28/28 27/27/27
f 28/28/28 29/29/29 27/27/27
f 30/30/30 29/29/29 28/28/28
f 28/28/28 31/31/31 30/30/30
f 30/30/30 31/31/31 32/32/32
f 32/32/32 33/33/33 30/30/30
f 34/34/34 33/33/33 32/32/32
f 33/33/33 34/34/34 35/35/35
f 33/33/33 35/35/35 36/36/36
f 36/36/36 37/37/37 33/33/33
f 40/40/40 39/39/39 38/38/38
f 38/38/38 41/41/41 40/40/40
f 38/38/38 42/42/42 41/41/41
f 42/42/42 43/43/43 41/41/41
f 43/43/43 42/42/42 44/44/44
f 44/44/44 45/45/45 43/43/43
f 44/44/44 46/46/46 45/45/45
f 46/46/46 47/47/47 45/45/45
f 48/48/48 47/47/47 46/46/46
f 48/48/48 49/49/49 47/47/47
f 48/48/48 46/46/46 50/50/50
f 50/50/50 51/51/51 48/48/48
f 52/52/52 48/48/48 51/51/51
f 52/52/52 53/53/53 48/48/48
f 52/52/52 51/51/51 54/54/54
f 54/54/54 55/55/55 52/52/52
f 58/58/58 57/57/57 56/56/56
f 56/56/56 59/59/59 58/58/58
f 59/59/59 60/60/60 58/58/58
f 59/59/59 61/61/61 60/60/60
f 62/62/62 60/60/60 61/61/61
f 61/61/61 63/63/63 62/62/62
f 63/63/63 64/64/64 62/62/62
f 63/63/63 65/65/65 64/64/64
f 66/66/66 64/64/64 65/65/65
f 66/66/66 67/67/67 64/64/64
f 66/66/66 65/65/65 68/68/68
f 68/68/68 69/69/69 66/66/66
f 70/70/70 66/66/66 69/69/69
f 70/70/70 71/71/71 66/66/66
f 70/70/70 69/69/69 72/72/72
f 72/72/72 73/73/73 70/70/70
f 76/76/76 75/75/75 74/74/74
f 77/77/77 76/76/76 74/74/74
f 80/80/80 79/79/79 78/78/78
f 79/79/79 81/81/81 78/78/78
f 79/79/79 82/82/82 81/81/81
f 82/82/82 83/83/83 81/81/81
f 82/82/82 84/84/84 83/83/83
f 84/84/84 85/85/85 83/83/83
f 84/84/84 86/86/86 85/85/85
f 86/86/86 87/87/87 85/85/85
f 86/86/86 88/88/88 87/87/87
f 88/88/88 89/89/89 87/87/87
f 88/88/88 90/90/90 89/89/89
f 90/90/90 91/91/91 89/89/89
f 90/90/90 92/92/92 91/91/91
f 92/92/92 93/93/93 91/91/91
f 92/92/92 94/94/94 93/93/93
f 94/94/94 95/95/95 93/93/93
f 98/98/98 97/97/97 96/96/96
f 99/99/99 98/98/98 96/96/96
f 99/99/99 96/96/96 100/100/100
f 101/101/101 99/99/99 100/100/100
f 101/101/101 100/100/100 102/102/102
f 103/103/103 101/101/101 102/102/102
f 103/103/103 102/102/102 104/104/104
f 105/105/105 103/103/103 104/104/104
f 105/105/105 104/104/104 106/106/106
f 107/107/107 105/105/105 106/106/106
f 107/107/107 106/106/106 108/108/108
f 109/109/109 107/107/107 108/108/108
f 109/109/109 108/108/108 110/110/110
f 111/111/111 109/109/109 110/110/110
f 111/111/111 110/110/110 112/112/112
f 113/113/113 111/111/111 112/112/112
f 116/116/116 115/115/115 114/114/114
f 117/117/117 116/116/116 114/114/114
f 120/120/120 119/119/119 118/118/118
f 121/121/121 120/120/120 118/118/118
f 124/124/124 123/123/123 122/122/122
f 125/125/125 124/124/124 122/122/122
