g wall_y16_B_x8
v -4 0 1.192093E-07
v 0 0 0
v 0 0.25 -0.2499999
v -4 0.25 -0.2499998
v 0 0.75 -0.2500001
v -8 0.25 -0.2499997
v -8 0 2.384186E-07
v -8 0.75 -0.2499999
v -4 0.75 -0.25
v 0 1.036695 -0.1766095
v -8 1.036695 -0.1766093
v -4 1.036695 -0.1766094
v 0 1.25 0
v -8 1.25 2.384186E-07
v -4 1.25 1.192093E-07
v -4 1.25 1.192093E-07
v 0 1.25 0
v 0 6 2.145767E-06
v -4 6 2.264977E-06
v -8 6 2.384186E-06
v -8 1.25 2.384186E-07
v 0 14 2.145767E-06
v -4 14 2.264977E-06
v -4 6 2.264977E-06
v 0 6 2.145767E-06
v 0 14.18829 -0.311711
v -4 14 2.264977E-06
v 0 14 2.145767E-06
v -4 14.18829 -0.311711
v -8 14 2.384186E-06
v 0 14.5 -0.5
v -8 14.18829 -0.311711
v -4 14.5 -0.4999999
v 0 15.75 -0.75
v -8 14.5 -0.4999998
v -4 15.75 -0.7499999
v 0 16 -0.5
v -8 15.75 -0.7499998
v -4 16 -0.5
v 0 16 7.450581E-09
v -8 16 -0.5
v -4 16 1.117587E-08
v -8 16 1.490116E-08
v -4 14 2.264977E-06
v -8 14 2.384186E-06
v -8 6 2.384186E-06
v -4 6 2.264977E-06
vt -0.7499999 0.4
vt -0.4999999 0.4
vt -0.5 0.3673688
vt -0.75 0.3673688
vt -0.4999999 0.2872726
vt -1 0.3673688
vt -0.9999999 0.4
vt -0.9999999 0.2872726
vt -0.7499999 0.2872726
vt -0.4999999 0.2712465
vt -0.9999999 0.2712465
vt -0.7499999 0.2712465
vt -0.5 0.2458757
vt -0.9999999 0.2458763
vt -0.7499999 0.245876
vt 1.386085 0.2196152
vt 1.460841 0.2196152
vt 1.460841 0.1240294
vt 1.386085 0.1240294
vt 1.31133 0.1240294
vt 1.31133 0.2196152
vt 0.9685441 0.2185307
vt 1.041896 0.2185307
vt 1.041896 0.1240817
vt 0.9685439 0.1240817
vt 0.5000001 0.2712465
vt 0.7500001 0.2482891
vt 0.5000001 0.2482893
vt 0.7500001 0.2712465
vt 1 0.248289
vt 0.5000001 0.2872726
vt 1 0.2712465
vt 0.7500001 0.2872726
vt 0.4999999 0.3673688
vt 1 0.2872726
vt 0.7499999 0.3673688
vt 0.4999999 0.3813578
vt 0.9999999 0.3673688
vt 0.7499999 0.3813578
vt 0.4999999 0.4
vt 0.9999999 0.3813577
vt 0.7499999 0.4
vt 0.9999999 0.4
vt 1.041896 0.2185307
vt 1.115249 0.2185307
vt 1.115249 0.1240817
vt 1.041896 0.1240817
vn 0 -0.7071066 -0.7071069
vn 0 -0.7071066 -0.7071069
vn 0 -0.3162279 -0.9486833
vn 0 -0.3162279 -0.9486833
vn 0 0.09288615 -0.9956768
vn 0 -0.3162279 -0.9486833
vn 0 0 -1
vn 0 0.09288615 -0.9956768
vn 0 0.09288615 -0.9956768
vn 0 0.4472137 -0.8944271
vn 0 0.4472137 -0.8944271
vn 0 0.4472137 -0.8944271
vn 0 0.6377422 -0.7702498
vn 0 0.6377422 -0.7702498
vn 0 0.6377422 -0.7702498
vn 0 0 -1
vn 0 0 -1
vn 0 0 -1
vn 0 0 -1
vn 0 0 -1
vn 0 0 -1
vn 0 0 -1
vn 0 0 -1
vn 0 0 -1
vn 0 0 -1
vn 0 -0.7071083 -0.7071052
vn 0 -0.8559618 -0.5170391
vn 0 -0.8559617 -0.5170392
vn 0 -0.7071083 -0.7071052
vn 0 -0.8559618 -0.517039
vn 0 -0.2702072 -0.9628022
vn 0 -0.7071083 -0.7071052
vn 0 -0.2702072 -0.9628022
vn 0 0 -1
vn 0 -0.2702071 -0.9628022
vn 0 0 -1
vn 0 0.9486833 -0.3162279
vn 0 0 -1
vn 0 0.9486833 -0.3162279
vn 0 1 0
vn 0 0.9486833 -0.3162278
vn 0 1 0
vn 0 1 0
vn 0 0 -1
vn 0 0 -1
vn 0 0 -1
vn 0 0 -1
g wall_y16_B_x8_0
f 3/3/3 2/2/2 1/1/1
f 4/4/4 3/3/3 1/1/1
f 5/5/5 3/3/3 4/4/4
f 4/4/4 1/1/1 6/6/6
f 1/1/1 7/7/7 6/6/6
f 4/4/4 6/6/6 8/8/8
f 9/9/9 5/5/5 4/4/4
f 9/9/9 4/4/4 8/8/8
f 10/10/10 5/5/5 9/9/9
f 9/9/9 8/8/8 11/11/11
f 12/12/12 10/10/10 9/9/9
f 12/12/12 9/9/9 11/11/11
f 13/13/13 10/10/10 12/12/12
f 12/12/12 11/11/11 14/14/14
f 15/15/15 13/13/13 12/12/12
f 15/15/15 12/12/12 14/14/14
f 18/18/18 17/17/17 16/16/16
f 19/19/19 18/18/18 16/16/16
f 19/19/19 16/16/16 20/20/20
f 16/16/16 21/21/21 20/20/20
f 24/24/24 23/23/23 22/22/22
f 25/25/25 24/24/24 22/22/22
f 28/28/28 27/27/27 26/26/26
f 27/27/27 29/29/29 26/26/26
f 27/27/27 30/30/30 29/29/29
f 31/31/31 26/26/26 29/29/29
f 30/30/30 32/32/32 29/29/29
f 33/33/33 31/31/31 29/29/29
f 33/33/33 29/29/29 32/32/32
f 31/31/31 33/33/33 34/34/34
f 35/35/35 33/33/33 32/32/32
f 33/33/33 36/36/36 34/34/34
f 33/33/33 35/35/35 36/36/36
f 34/34/34 36/36/36 37/37/37
f 35/35/35 38/38/38 36/36/36
f 36/36/36 39/39/39 37/37/37
f 36/36/36 38/38/38 39/39/39
f 37/37/37 39/39/39 40/40/40
f 38/38/38 41/41/41 39/39/39
f 39/39/39 42/42/42 40/40/40
f 39/39/39 41/41/41 42/42/42
f 41/41/41 43/43/43 42/42/42
f 46/46/46 45/45/45 44/44/44
f 47/47/47 46/46/46 44/44/44
