g wall_y6_A_x16
v -2 6.09386 0.6573296
v -2.194489 6.09981 0.5767689
v -2.112289 6.184176 0.494566
v -2 6.180008 0.5410786
v -2 6.229989 0.3822784
v -1.805511 6.09981 0.5767689
v -1.887711 6.184176 0.494566
v -2 6.229989 0.3822784
v -1.724953 6.118007 0.3822784
v -1.841202 6.196016 0.3822784
v -1.805511 6.099811 0.187788
v -1.887711 6.184176 0.269989
v -2 6.09386 0.1072273
v -2 6.229989 0.3822784
v -2 6.180008 0.2234764
v -2.194489 6.099811 0.187788
v -2.112289 6.184176 0.269989
v -2.275047 6.118007 0.3822784
v -2.158798 6.196016 0.3822784
v -2.194489 6.09981 0.5767689
v -2.112289 6.184176 0.494566
v -2 6.229989 0.3822784
v -14 6.09386 0.6573296
v -14.19449 6.09981 0.5767689
v -14.11229 6.184176 0.494566
v -14 6.180008 0.5410786
v -14 6.229989 0.3822784
v -13.80551 6.09981 0.5767689
v -13.88771 6.184176 0.494566
v -14 6.229989 0.3822784
v -13.72495 6.118007 0.3822784
v -13.8412 6.196016 0.3822784
v -13.80551 6.099811 0.187788
v -13.88771 6.184176 0.269989
v -14 6.09386 0.1072273
v -14 6.229989 0.3822784
v -14 6.180008 0.2234764
v -14.19449 6.099811 0.187788
v -14.11229 6.184176 0.269989
v -14.27505 6.118007 0.3822784
v -14.1588 6.196016 0.3822784
v -14.19449 6.09981 0.5767689
v -14.11229 6.184176 0.494566
v -14 6.229989 0.3822784
v -10 6.09386 0.6573296
v -10.19449 6.09981 0.5767689
v -10.11229 6.184176 0.494566
v -10 6.180008 0.5410786
v -10 6.229989 0.3822784
v -9.805511 6.09981 0.5767689
v -9.887711 6.184176 0.494566
v -10 6.229989 0.3822784
v -9.724953 6.118007 0.3822784
v -9.841202 6.196016 0.3822784
v -9.805511 6.099811 0.187788
v -9.887711 6.184176 0.269989
v -10 6.09386 0.1072273
v -10 6.229989 0.3822784
v -10 6.180008 0.2234764
v -10.19449 6.099811 0.187788
v -10.11229 6.184176 0.269989
v -10.27505 6.118007 0.3822784
v -10.1588 6.196016 0.3822784
v -10.19449 6.09981 0.5767689
v -10.11229 6.184176 0.494566
v -10 6.229989 0.3822784
v -6 6.09386 0.6573296
v -6.194489 6.09981 0.5767689
v -6.112289 6.184176 0.494566
v -6 6.180008 0.5410786
v -6 6.229989 0.3822784
v -5.805511 6.09981 0.5767689
v -5.887711 6.184176 0.494566
v -6 6.229989 0.3822784
v -5.724953 6.118007 0.3822784
v -5.841202 6.196016 0.3822784
v -5.805511 6.099811 0.187788
v -5.887711 6.184176 0.269989
v -6 6.09386 0.1072273
v -6 6.229989 0.3822784
v -6 6.180008 0.2234764
v -6.194489 6.099811 0.187788
v -6.112289 6.184176 0.269989
v -6.275047 6.118007 0.3822784
v -6.158798 6.196016 0.3822784
v -6.194489 6.09981 0.5767689
v -6.112289 6.184176 0.494566
v -6 6.229989 0.3822784
v -12 6 0.75
v -16 6 0.75
v -16 6.09728 0.6813717
v -12 6.09728 0.6813717
v -8 6 0.75
v -16 6.121196 0.3822784
v -8 6.09728 0.6813717
v -4 6 0.75
v -12 6.121196 0.3822784
v -16 6.09728 0.08318329
v -12 6.09728 0.08318329
v -16 6 0.02295303
v -12 6 0.02295303
v -8 6.121196 0.3822784
v -8 6.09728 0.08318329
v -8 6 0.02295303
v -4 6.09728 0.6813717
v -4 6.121196 0.3822784
v -4 6.09728 0.08318329
v -4 6 0.02295303
v 0 6 0.02295303
v 0 6.09728 0.08318329
v 0 6.121195 0.3822784
v 0 6.09728 0.6813717
v 0 6 0.75
v -4 0 0
v 0 0 0
v 0 0.25 -0.25
v -4 0.25 -0.25
v -8 0 0
v 0 0.75 -0.25
v -8 0.25 -0.25
v -12 0 0
v -4 0.75 -0.25
v 0 1.036695 -0.176609
v -4 1.036695 -0.176609
v 0 1.25 0
v -4 1.25 0
v -8 0.75 -0.25
v -8 1.036695 -0.176609
v -8 1.25 0
v -12 0.25 -0.25
v -12 0.75 -0.25
v -12 1.036695 -0.176609
v -12 1.25 0
v -16 1.25 0
v -16 1.036695 -0.176609
v -16 0.75 -0.25
v -16 0.25 -0.25
v -16 0 0
v -4 1.25 0
v 0 1.25 0
v 0 2.388159 0
v -4 2.388159 0
v -8 1.25 0
v -8 2.388159 0
v -12 1.25 0
v -12 2.388159 0
v -16 2.388159 0
v -16 1.25 0
v -16 5.780672 1.907349E-06
v -16 2.388159 0
v -12 2.388159 0
v -12 5.780672 1.907349E-06
v -8 2.388159 0
v -8 5.780672 0
v -4 2.388159 0
v -4 5.780672 0
v 0 2.388159 0
v 0 5.780672 0
v 0 6 0
v 0 6.097281 0.25
v -4 6.097281 0.25
v -4 6 0
v 0 5.780672 0
v -8 6.097281 0.25
v -4 5.780672 0
v -8 6 1.907349E-06
v -12 6.097281 0.25
v -8 5.780672 0
v -12 6 1.907349E-06
v -16 6.097281 0.25
v -12 5.780672 1.907349E-06
v -16 6 1.907349E-06
v -16 5.780672 1.907349E-06
vt 0.5289057 0.3821129
vt 0.5065815 0.3821129
vt 0.5065815 0.3566545
vt 0.5289057 0.3566545
vt 0.5958781 0.3192839
vt 0.5512298 0.3821129
vt 0.5512298 0.3566545
vt 0.5958781 0.3192838
vt 0.573554 0.3821129
vt 0.573554 0.3566545
vt 0.5958782 0.3821129
vt 0.5958782 0.3566545
vt 0.6182023 0.3821129
vt 0.5958781 0.3192839
vt 0.6182023 0.3566545
vt 0.6405265 0.3821129
vt 0.6405265 0.3566545
vt 0.6628506 0.3821129
vt 0.6628506 0.3566545
vt 0.6851748 0.3821128
vt 0.6851748 0.3566545
vt 0.5958781 0.3192838
vt 0.5289057 0.3821129
vt 0.5065815 0.3821129
vt 0.5065815 0.3488145
vt 0.5289057 0.3488145
vt 0.5958781 0.2476555
vt 0.5512298 0.3821129
vt 0.5512298 0.3488145
vt 0.5958781 0.2476554
vt 0.573554 0.3821129
vt 0.573554 0.3488145
vt 0.5958782 0.3821129
vt 0.5958782 0.3488145
vt 0.6182023 0.3821129
vt 0.5958781 0.2476555
vt 0.6182023 0.3488145
vt 0.6405265 0.3821129
vt 0.6405265 0.3488145
vt 0.6628506 0.3821129
vt 0.6628506 0.3488145
vt 0.6851748 0.3821128
vt 0.6851748 0.3488145
vt 0.5958781 0.2476554
vt 0.5289057 0.3821129
vt 0.5065815 0.3821129
vt 0.5065815 0.3566545
vt 0.5289057 0.3566545
vt 0.5958781 0.3192839
vt 0.5512298 0.3821129
vt 0.5512298 0.3566545
vt 0.5958781 0.3192838
vt 0.573554 0.3821129
vt 0.573554 0.3566545
vt 0.5958782 0.3821129
vt 0.5958782 0.3566545
vt 0.6182023 0.3821129
vt 0.5958781 0.3192839
vt 0.6182023 0.3566545
vt 0.6405265 0.3821129
vt 0.6405265 0.3566545
vt 0.6628506 0.3821129
vt 0.6628506 0.3566545
vt 0.6851748 0.3821128
vt 0.6851748 0.3566545
vt 0.5958781 0.3192838
vt 0.5289057 0.3821129
vt 0.5065815 0.3821129
vt 0.5065815 0.3566545
vt 0.5289057 0.3566545
vt 0.5958781 0.3192839
vt 0.5512298 0.3821129
vt 0.5512298 0.3566545
vt 0.5958781 0.3192838
vt 0.573554 0.3821129
vt 0.573554 0.3566545
vt 0.5958782 0.3821129
vt 0.5958782 0.3566545
vt 0.6182023 0.3821129
vt 0.5958781 0.3192839
vt 0.6182023 0.3566545
vt 0.6405265 0.3821129
vt 0.6405265 0.3566545
vt 0.6628506 0.3821129
vt 0.6628506 0.3566545
vt 0.6851748 0.3821128
vt 0.6851748 0.3566545
vt 0.5958781 0.3192838
vt -0.25 0.3772391
vt 0 0.3772391
vt 0 0.3673688
vt -0.25 0.3673688
vt -0.4999999 0.3772391
vt 0 0.3131313
vt -0.5 0.3673688
vt -0.7499999 0.3772391
vt -0.25 0.3131313
vt 0 0.259866
vt -0.25 0.259866
vt 0 0.2467506
vt -0.25 0.2467509
vt -0.4999999 0.3131313
vt -0.4999999 0.259866
vt -0.5 0.2467512
vt -0.75 0.3673688
vt -0.7499999 0.3131313
vt -0.7499999 0.259866
vt -0.7499999 0.2467514
vt -0.9999999 0.2467517
vt -0.9999999 0.259866
vt -0.9999999 0.3131313
vt -1 0.3673688
vt -0.9999999 0.3772391
vt -0.25 0.4
vt 0 0.4
vt 0 0.3673688
vt -0.25 0.3673688
vt -0.4999999 0.4
vt 0 0.2872726
vt -0.5 0.3673688
vt -0.7499999 0.4
vt -0.25 0.2872726
vt 0 0.2712465
vt -0.25 0.2712465
vt 0 0.2458752
vt -0.25 0.2458755
vt -0.4999999 0.2872726
vt -0.4999999 0.2712465
vt -0.5 0.2458757
vt -0.75 0.3673688
vt -0.7499999 0.2872726
vt -0.7499999 0.2712465
vt -0.7499999 0.245876
vt -0.9999999 0.2458763
vt -0.9999999 0.2712465
vt -0.9999999 0.2872726
vt -1 0.3673688
vt -0.9999999 0.4
vt 1.121662 0.3982561
vt 1.19948 0.3982561
vt 1.19948 0.3743757
vt 1.121662 0.3743758
vt 1.043844 0.3982561
vt 1.043844 0.3743757
vt 0.9660256 0.3982562
vt 0.9660256 0.3743758
vt 0.8882076 0.3743758
vt 0.8882076 0.3982562
vt 0.8882076 0.3543163
vt 0.8882076 0.3743758
vt 0.9660256 0.3743758
vt 0.9660255 0.3543162
vt 1.043844 0.3743757
vt 1.043844 0.3543161
vt 1.121662 0.3743758
vt 1.121662 0.354316
vt 1.19948 0.3743757
vt 1.19948 0.354316
vt 0.604632 0.3717932
vt 0.604632 0.3815527
vt 0.6824501 0.3815525
vt 0.6824501 0.371793
vt 0.604632 0.3652869
vt 0.760268 0.3815523
vt 0.6824501 0.3652868
vt 0.760268 0.371793
vt 0.838086 0.3815522
vt 0.760268 0.3652868
vt 0.838086 0.3717928
vt 0.915904 0.381552
vt 0.838086 0.3652865
vt 0.915904 0.3717926
vt 0.915904 0.3652864
vn 0 0.8019001 0.5974581
vn -0.374827 0.8074415 0.4555686
vn -0.336931 0.8475235 0.4100993
vn 0 0.8411738 0.5407649
vn 0 1 0
vn 0.3748269 0.8074412 0.4555695
vn 0.3369309 0.8475233 0.4100999
vn 0 1 0
vn 0.5530342 0.8331585 0
vn 0.4834163 0.8753906 0
vn 0.3748296 0.8074397 -0.4555699
vn 0.336931 0.8475229 -0.4101005
vn 0 0.8018954 -0.5974643
vn 0 1 0
vn 0 0.8411715 -0.5407686
vn -0.3748294 0.8074393 -0.4555708
vn -0.3369308 0.8475227 -0.4101012
vn -0.5530342 0.8331586 0
vn -0.4834162 0.8753906 0
vn -0.374827 0.8074415 0.4555686
vn -0.336931 0.8475235 0.4100993
vn 0 1 0
vn 0 0.8019008 0.5974572
vn -0.3748279 0.8074409 0.455569
vn -0.3369316 0.8475233 0.4100993
vn 0 0.8411747 0.5407634
vn 0 1 0
vn 0.3748277 0.8074407 0.4555697
vn 0.3369311 0.8475233 0.4100997
vn 0 1 0
vn 0.5530372 0.8331566 0
vn 0.4834183 0.8753895 0
vn 0.3748302 0.8074393 -0.4555702
vn 0.3369314 0.8475227 -0.4101005
vn 0 0.8018969 -0.5974624
vn 0 1 0
vn 0 0.8411727 -0.5407665
vn -0.3748293 0.8074391 -0.4555714
vn -0.3369308 0.8475225 -0.4101016
vn -0.553037 0.8331566 0
vn -0.4834183 0.8753895 0
vn -0.3748279 0.8074409 0.455569
vn -0.3369316 0.8475233 0.4100993
vn 0 1 0
vn 0 0.8019008 0.5974572
vn -0.3748268 0.8074419 0.4555684
vn -0.3369308 0.8475237 0.4100989
vn 0 0.8411744 0.540764
vn 0 1 0
vn 0.3748266 0.8074415 0.4555689
vn 0.3369306 0.8475236 0.4100994
vn 0 1 0
vn 0.5530345 0.8331583 0
vn 0.4834166 0.8753904 0
vn 0.3748298 0.8074397 -0.4555697
vn 0.3369313 0.8475229 -0.4101004
vn 0 0.8018955 -0.5974643
vn 0 1 0
vn 0 0.8411717 -0.5407682
vn -0.3748298 0.8074389 -0.455571
vn -0.3369312 0.8475225 -0.4101013
vn -0.5530345 0.8331583 0
vn -0.4834165 0.8753905 0
vn -0.3748268 0.8074419 0.4555684
vn -0.3369308 0.8475237 0.4100989
vn 0 1 0
vn 0 0.8019008 0.5974572
vn -0.3748271 0.8074419 0.4555682
vn -0.3369312 0.8475235 0.410099
vn 0 0.8411741 0.5407644
vn 0 1 0
vn 0.3748267 0.8074415 0.4555689
vn 0.3369308 0.8475235 0.4100995
vn 0 1 0
vn 0.5530345 0.8331583 0
vn 0.4834162 0.8753906 0
vn 0.3748294 0.8074399 -0.4555697
vn 0.3369308 0.8475231 -0.4101002
vn 0 0.801896 -0.5974637
vn 0 1 0
vn 0 0.8411717 -0.5407681
vn -0.3748297 0.8074392 -0.4555706
vn -0.336931 0.8475227 -0.410101
vn -0.5530345 0.8331583 0
vn -0.4834162 0.8753906 0
vn -0.3748271 0.8074419 0.4555682
vn -0.3369312 0.8475235 0.410099
vn 0 1 0
vn 0 0.5764602 0.8171253
vn 0 0.5764593 0.8171259
vn 0 0.9497456 0.3130226
vn 0 0.9497456 0.3130226
vn 0 0.5764611 0.8171245
vn 0 1 0
vn 0 0.9497457 0.3130226
vn 0 0.5764611 0.8171245
vn 0 1 0
vn 0 0.9475534 -0.3195975
vn 0 0.9475534 -0.3195975
vn 0 0.5264133 -0.8502288
vn 0 0.5264142 -0.8502283
vn 0 1 0
vn 0 0.9475534 -0.3195975
vn 0 0.5264152 -0.8502277
vn 0 0.9497457 0.3130226
vn 0 1 0
vn 0 0.9475534 -0.3195975
vn 0 0.5264152 -0.8502277
vn 0 0.5264152 -0.8502277
vn 0 0.9475534 -0.3195975
vn 0 1 0
vn 0 0.9497457 0.3130226
vn 0 1 0
vn 0 -0.7071068 -0.7071068
vn 0 -0.7071068 -0.7071068
vn 0 -0.3162278 -0.9486833
vn 0 -0.3162278 -0.9486833
vn 0 -0.7071068 -0.7071068
vn 0 0.09288686 -0.9956767
vn 0 -0.3162278 -0.9486833
vn 0 -0.7071068 -0.7071068
vn 0 0.09288686 -0.9956767
vn 0 0.4472136 -0.8944272
vn 0 0.4472136 -0.8944272
vn 0 0.6377416 -0.7702503
vn 0 0.6377416 -0.7702503
vn 0 0.09288686 -0.9956767
vn 0 0.4472136 -0.8944272
vn 0 0.6377416 -0.7702503
vn 0 -0.3162278 -0.9486833
vn 0 0.09288686 -0.9956767
vn 0 0.4472136 -0.8944272
vn 0 0.6377416 -0.7702503
vn 0 0.6377416 -0.7702503
vn 0 0.4472136 -0.8944272
vn 0 0.09288686 -0.9956767
vn 0 -0.3162278 -0.9486833
vn 0 0 -1
vn 0 0 -1
vn 0 0 -1
vn 0 0 -1
vn 0 0 -1
vn 0 0 -1
vn 0 0 -1
vn 0 0 -1
vn 0 0 -1
vn 0 0 -1
vn 0 0 -1
vn 0 0 -1
vn 0 0 -1
vn 0 0 -1
vn 0 0 -1
vn 0 0 -1
vn 0 0 -1
vn 0 0 -1
vn 0 0 -1
vn 0 0 -1
vn 0 0 -1
vn 0 0.6197139 -0.7848278
vn 0 0.9319313 -0.362635
vn 0 0.931931 -0.3626355
vn 0 0.6197138 -0.7848278
vn 0 0 -1
vn 0 0.9319305 -0.3626368
vn 0 0 -1
vn 0 0.6197132 -0.7848284
vn 0 0.9319304 -0.3626374
vn 0 0 -1
vn 0 0.6197117 -0.7848295
vn 0 0.9319304 -0.3626374
vn 0 0 -1
vn 0 0.619711 -0.7848301
vn 0 0 -1
g wall_y6_A_x16_0
f 3/3/3 2/2/2 1/1/1
f 4/4/4 3/3/3 1/1/1
f 5/5/5 3/3/3 4/4/4
f 4/4/4 1/1/1 6/6/6
f 7/7/7 4/4/4 6/6/6
f 8/8/8 4/4/4 7/7/7
f 7/7/7 6/6/6 9/9/9
f 8/8/8 7/7/7 10/10/10
f 10/10/10 7/7/7 9/9/9
f 10/10/10 9/9/9 11/11/11
f 12/12/12 10/10/10 11/11/11
f 12/12/12 11/11/11 13/13/13
f 14/14/14 10/10/10 12/12/12
f 15/15/15 12/12/12 13/13/13
f 14/14/14 12/12/12 15/15/15
f 15/15/15 13/13/13 16/16/16
f 14/14/14 15/15/15 17/17/17
f 17/17/17 15/15/15 16/16/16
f 17/17/17 16/16/16 18/18/18
f 14/14/14 17/17/17 19/19/19
f 19/19/19 17/17/17 18/18/18
f 19/19/19 18/18/18 20/20/20
f 21/21/21 19/19/19 20/20/20
f 22/22/22 19/19/19 21/21/21
f 25/25/25 24/24/24 23/23/23
f 26/26/26 25/25/25 23/23/23
f 27/27/27 25/25/25 26/26/26
f 26/26/26 23/23/23 28/28/28
f 29/29/29 26/26/26 28/28/28
f 30/30/30 26/26/26 29/29/29
f 29/29/29 28/28/28 31/31/31
f 30/30/30 29/29/29 32/32/32
f 32/32/32 29/29/29 31/31/31
f 32/32/32 31/31/31 33/33/33
f 34/34/34 32/32/32 33/33/33
f 34/34/34 33/33/33 35/35/35
f 36/36/36 32/32/32 34/34/34
f 37/37/37 34/34/34 35/35/35
f 36/36/36 34/34/34 37/37/37
f 37/37/37 35/35/35 38/38/38
f 36/36/36 37/37/37 39/39/39
f 39/39/39 37/37/37 38/38/38
f 39/39/39 38/38/38 40/40/40
f 36/36/36 39/39/39 41/41/41
f 41/41/41 39/39/39 40/40/40
f 41/41/41 40/40/40 42/42/42
f 43/43/43 41/41/41 42/42/42
f 44/44/44 41/41/41 43/43/43
f 47/47/47 46/46/46 45/45/45
f 48/48/48 47/47/47 45/45/45
f 49/49/49 47/47/47 48/48/48
f 48/48/48 45/45/45 50/50/50
f 51/51/51 48/48/48 50/50/50
f 52/52/52 48/48/48 51/51/51
f 51/51/51 50/50/50 53/53/53
f 52/52/52 51/51/51 54/54/54
f 54/54/54 51/51/51 53/53/53
f 54/54/54 53/53/53 55/55/55
f 56/56/56 54/54/54 55/55/55
f 56/56/56 55/55/55 57/57/57
f 58/58/58 54/54/54 56/56/56
f 59/59/59 56/56/56 57/57/57
f 58/58/58 56/56/56 59/59/59
f 59/59/59 57/57/57 60/60/60
f 58/58/58 59/59/59 61/61/61
f 61/61/61 59/59/59 60/60/60
f 61/61/61 60/60/60 62/62/62
f 58/58/58 61/61/61 63/63/63
f 63/63/63 61/61/61 62/62/62
f 63/63/63 62/62/62 64/64/64
f 65/65/65 63/63/63 64/64/64
f 66/66/66 63/63/63 65/65/65
f 69/69/69 68/68/68 67/67/67
f 70/70/70 69/69/69 67/67/67
f 71/71/71 69/69/69 70/70/70
f 70/70/70 67/67/67 72/72/72
f 73/73/73 70/70/70 72/72/72
f 74/74/74 70/70/70 73/73/73
f 73/73/73 72/72/72 75/75/75
f 74/74/74 73/73/73 76/76/76
f 76/76/76 73/73/73 75/75/75
f 76/76/76 75/75/75 77/77/77
f 78/78/78 76/76/76 77/77/77
f 78/78/78 77/77/77 79/79/79
f 80/80/80 76/76/76 78/78/78
f 81/81/81 78/78/78 79/79/79
f 80/80/80 78/78/78 81/81/81
f 81/81/81 79/79/79 82/82/82
f 80/80/80 81/81/81 83/83/83
f 83/83/83 81/81/81 82/82/82
f 83/83/83 82/82/82 84/84/84
f 80/80/80 83/83/83 85/85/85
f 85/85/85 83/83/83 84/84/84
f 85/85/85 84/84/84 86/86/86
f 87/87/87 85/85/85 86/86/86
f 88/88/88 85/85/85 87/87/87
f 91/91/91 90/90/90 89/89/89
f 92/92/92 91/91/91 89/89/89
f 92/92/92 89/89/89 93/93/93
f 94/94/94 91/91/91 92/92/92
f 95/95/95 92/92/92 93/93/93
f 95/95/95 93/93/93 96/96/96
f 97/97/97 94/94/94 92/92/92
f 97/97/97 92/92/92 95/95/95
f 98/98/98 94/94/94 97/97/97
f 99/99/99 98/98/98 97/97/97
f 100/100/100 98/98/98 99/99/99
f 101/101/101 100/100/100 99/99/99
f 102/102/102 97/97/97 95/95/95
f 99/99/99 97/97/97 102/102/102
f 101/101/101 99/99/99 103/103/103
f 103/103/103 99/99/99 102/102/102
f 104/104/104 101/101/101 103/103/103
f 105/105/105 95/95/95 96/96/96
f 102/102/102 95/95/95 105/105/105
f 103/103/103 102/102/102 106/106/106
f 106/106/106 102/102/102 105/105/105
f 104/104/104 103/103/103 107/107/107
f 107/107/107 103/103/103 106/106/106
f 108/108/108 104/104/104 107/107/107
f 108/108/108 107/107/107 109/109/109
f 107/107/107 110/110/110 109/109/109
f 107/107/107 106/106/106 110/110/110
f 106/106/106 111/111/111 110/110/110
f 106/106/106 105/105/105 111/111/111
f 105/105/105 112/112/112 111/111/111
f 105/105/105 96/96/96 112/112/112
f 96/96/96 113/113/113 112/112/112
f 116/116/116 115/115/115 114/114/114
f 117/117/117 116/116/116 114/114/114
f 117/117/117 114/114/114 118/118/118
f 119/119/119 116/116/116 117/117/117
f 120/120/120 117/117/117 118/118/118
f 120/120/120 118/118/118 121/121/121
f 122/122/122 119/119/119 117/117/117
f 122/122/122 117/117/117 120/120/120
f 123/123/123 119/119/119 122/122/122
f 124/124/124 123/123/123 122/122/122
f 125/125/125 123/123/123 124/124/124
f 126/126/126 125/125/125 124/124/124
f 127/127/127 122/122/122 120/120/120
f 124/124/124 122/122/122 127/127/127
f 126/126/126 124/124/124 128/128/128
f 128/128/128 124/124/124 127/127/127
f 129/129/129 126/126/126 128/128/128
f 130/130/130 120/120/120 121/121/121
f 127/127/127 120/120/120 130/130/130
f 128/128/128 127/127/127 131/131/131
f 131/131/131 127/127/127 130/130/130
f 129/129/129 128/128/128 132/132/132
f 132/132/132 128/128/128 131/131/131
f 133/133/133 129/129/129 132/132/132
f 133/133/133 132/132/132 134/134/134
f 132/132/132 135/135/135 134/134/134
f 132/132/132 131/131/131 135/135/135
f 131/131/131 136/136/136 135/135/135
f 131/131/131 130/130/130 136/136/136
f 130/130/130 137/137/137 136/136/136
f 130/130/130 121/121/121 137/137/137
f 121/121/121 138/138/138 137/137/137
f 141/141/141 140/140/140 139/139/139
f 142/142/142 141/141/141 139/139/139
f 142/142/142 139/139/139 143/143/143
f 144/144/144 142/142/142 143/143/143
f 144/144/144 143/143/143 145/145/145
f 146/146/146 144/144/144 145/145/145
f 146/146/146 145/145/145 147/147/147
f 145/145/145 148/148/148 147/147/147
f 151/151/151 150/150/150 149/149/149
f 152/152/152 151/151/151 149/149/149
f 151/151/151 152/152/152 153/153/153
f 152/152/152 154/154/154 153/153/153
f 153/153/153 154/154/154 155/155/155
f 154/154/154 156/156/156 155/155/155
f 155/155/155 156/156/156 157/157/157
f 156/156/156 158/158/158 157/157/157
f 161/161/161 160/160/160 159/159/159
f 162/162/162 161/161/161 159/159/159
f 162/162/162 159/159/159 163/163/163
f 164/164/164 161/161/161 162/162/162
f 165/165/165 162/162/162 163/163/163
f 166/166/166 164/164/164 162/162/162
f 166/166/166 162/162/162 165/165/165
f 167/167/167 164/164/164 166/166/166
f 168/168/168 166/166/166 165/165/165
f 169/169/169 167/167/167 166/166/166
f 169/169/169 166/166/166 168/168/168
f 167/167/167 169/169/169 170/170/170
f 171/171/171 169/169/169 168/168/168
f 169/169/169 172/172/172 170/170/170
f 169/169/169 171/171/171 172/172/172
f 171/171/171 173/173/173 172/172/172
