g wall_round1
v -17.50267 5.730291 -4.202018
v -17.35479 10.27532 -4.068884
v -17.50267 10.27532 -4.202022
v -17.35478 5.730291 -4.068882
v -17.75652 10.27532 -1.397468
v -17.35479 1.185257 -4.06888
v -17.50266 1.185257 -4.202015
v -17.75675 1.185257 -1.397488
v -17.75664 5.730291 -1.397478
v -17.75664 5.730291 1.397477
v -17.75652 10.27532 1.39747
v -17.75675 1.185257 1.397485
v -17.35479 5.730291 4.068882
v -17.35479 10.27532 4.068884
v -17.35479 1.185257 4.06888
v -17.50267 5.730291 4.202018
v -17.50267 10.27532 4.202021
v -17.50266 1.185257 4.202015
v -17.04489 11.09699 -3.996229
v -17.50267 11.09699 -4.202022
v -17.50267 10.27532 -4.202022
v -17.35479 10.27532 -4.068884
v -17.43954 11.09699 -1.372522
v -17.75652 10.27532 -1.397468
v -17.75652 10.27532 1.39747
v -17.43954 11.09699 1.372524
v -17.35479 10.27532 4.068884
v -17.0449 11.09699 3.996229
v -17.50267 10.27532 4.202021
v -17.50267 11.09699 4.202021
v -17.50266 12.61445 -4.202022
v -18.06055 12.61124 -4.383292
v -18.06055 11.93169 -4.383292
v -17.50267 11.93453 -4.202022
v -18.06055 11.09463 -4.383291
v -17.50267 11.09699 -4.202022
v -18.06055 10.27342 -4.383291
v -17.50267 10.27532 -4.202022
v -18.06055 5.730949 -4.383288
v -17.50267 5.730291 -4.202018
v -18.06055 1.188474 -4.383285
v -17.50266 1.185257 -4.202015
v -18.06055 12.61124 -4.383292
v -18.29352 12.48901 -4.459312
v -18.29352 11.82401 -4.459312
v -18.06055 11.93169 -4.383292
v -18.29352 11.00486 -4.459311
v -18.06055 11.09463 -4.383291
v -18.29352 10.20123 -4.459311
v -18.06055 10.27342 -4.383291
v -18.06055 5.730949 -4.383288
v -18.29352 5.755964 -4.459308
v -18.29352 1.310699 -4.459306
v -18.06055 1.188474 -4.383285
v -17.50266 12.61445 4.202022
v -18.06055 11.93169 4.383292
v -18.06055 12.61124 4.383292
v -17.50267 11.93453 4.202022
v -18.06055 11.09463 4.383291
v -17.50267 11.09699 4.202021
v -18.06055 10.27342 4.383291
v -17.50267 10.27532 4.202021
v -18.06055 5.730949 4.383288
v -17.50267 5.730291 4.202018
v -18.06055 1.188474 4.383285
v -17.50266 1.185257 4.202015
v -18.06055 12.61124 4.383292
v -18.29352 11.82401 4.459312
v -18.29352 12.48901 4.459312
v -18.06055 11.93169 4.383292
v -18.29352 11.00486 4.459311
v -18.06055 11.09463 4.383291
v -18.29352 10.20123 4.459311
v -18.06055 10.27342 4.383291
v -18.06055 5.730949 4.383288
v -18.29352 5.755964 4.459308
v -18.29352 1.310699 4.459305
v -18.06055 1.188474 4.383285
v -17.50266 12.61445 -4.202022
v -17.50267 11.93453 -4.202022
v -17.0449 11.93453 -3.996231
v -17.35478 12.61445 -4.068885
v -17.50267 11.09699 -4.202022
v -17.04489 11.09699 -3.996229
v -17.75676 12.61445 -1.397487
v -17.43962 11.93453 -1.372528
v -17.43954 11.09699 -1.372522
v -17.43954 11.09699 1.372524
v -17.43962 11.93453 1.372531
v -17.75676 12.61445 1.397491
v -17.0449 11.09699 3.996229
v -17.0449 11.93453 3.99623
v -17.35478 12.61445 4.068885
v -17.50267 11.09699 4.202021
v -17.50266 12.61445 4.202022
v -17.50267 11.93453 4.202022
vt 0.7016098 -0.7785164
vt 0.6993169 -0.7495719
vt 0.7016097 -0.7495719
vt 0.6993169 -0.7785164
vt 0.6185436 -0.7495719
vt 0.699317 -0.879364
vt 0.7016098 -0.879364
vt 0.6185436 -0.879364
vt 0.6185436 -0.7785164
vt 0.5338123 -0.7785164
vt 0.5338123 -0.7495719
vt 0.5338123 -0.879364
vt 0.4530828 -0.7785164
vt 0.4530829 -0.7495719
vt 0.4530828 -0.879364
vt 0.45079 -0.7785164
vt 0.45079 -0.7495719
vt 0.45079 -0.879364
vt 0.7550715 -0.6574261
vt 0.7574475 -0.6574261
vt 0.7574475 -0.6238673
vt 0.7550715 -0.6238673
vt 0.6713674 -0.6574261
vt 0.6713674 -0.6238673
vt 0.5835618 -0.6238673
vt 0.5835618 -0.6574261
vt 0.4999032 -0.6238673
vt 0.4999032 -0.6574261
vt 0.4975272 -0.6238673
vt 0.4975272 -0.6574261
vt 0.458942 1.38328
vt 0.4589423 1.317242
vt 0.5374924 1.317242
vt 0.537492 1.38328
vt 0.6342514 1.317242
vt 0.6342511 1.38328
vt 0.7291765 1.317242
vt 0.7291762 1.38328
vt 1.254253 1.317242
vt 1.254254 1.38328
vt 1.779331 1.317242
vt 1.779331 1.38328
vt 0.4512793 1.317242
vt 0.4512793 1.38328
vt 0.3735917 1.38328
vt 0.3735917 1.317242
vt 0.2778949 1.38328
vt 0.2778949 1.317242
vt 0.1840121 1.38328
vt 0.184012 1.317242
vt -0.3353008 1.317242
vt -0.3353006 1.38328
vt -0.8546137 1.38328
vt -0.8546137 1.317242
vt 0.458942 1.38328
vt 0.5374924 1.317242
vt 0.4589423 1.317242
vt 0.537492 1.38328
vt 0.6342514 1.317242
vt 0.6342511 1.38328
vt 0.7291765 1.317242
vt 0.7291762 1.38328
vt 1.254253 1.317242
vt 1.254254 1.38328
vt 1.779331 1.317242
vt 1.779331 1.38328
vt 0.4512793 1.317242
vt 0.3735917 1.38328
vt 0.4512793 1.38328
vt 0.3735917 1.317242
vt 0.2778949 1.38328
vt 0.2778949 1.317242
vt 0.1840121 1.38328
vt 0.184012 1.317242
vt -0.3353008 1.317242
vt -0.3353006 1.38328
vt -0.8546137 1.38328
vt -0.8546137 1.317242
vt 0.7574475 -0.6237559
vt 0.7574475 -0.6388423
vt 0.7550715 -0.6388423
vt 0.7550715 -0.6237559
vt 0.7574475 -0.6574261
vt 0.7550715 -0.6574261
vt 0.6713674 -0.6237559
vt 0.6713674 -0.6388423
vt 0.6713674 -0.6574261
vt 0.5835618 -0.6574261
vt 0.5835618 -0.6388423
vt 0.5835618 -0.6237559
vt 0.4999032 -0.6574261
vt 0.4999032 -0.6388423
vt 0.4999032 -0.6237559
vt 0.4975272 -0.6574261
vt 0.4975272 -0.6237559
vt 0.4975272 -0.6388423
vn 0.4069488 0 -0.9134509
vn 0.9953803 -0.05635238 0.07773366
vn 0.4017904 -0.003573769 -0.9157246
vn 0.9959248 -1.247323E-05 0.09018794
vn 0.9956378 -0.05786397 0.07319187
vn 0.9959228 -1.298724E-05 0.09020912
vn 0.4072025 0 -0.9133379
vn 0.997308 -1.967715E-05 0.07332645
vn 0.9973089 -1.963311E-05 0.07331575
vn 0.9973089 -1.964658E-05 -0.07331555
vn 0.9956378 -0.0578641 -0.07319175
vn 0.997308 -1.944722E-05 -0.07332623
vn 0.9959248 -1.248891E-05 -0.09018791
vn 0.9953803 -0.05635265 -0.07773367
vn 0.9959228 -1.253669E-05 -0.09020909
vn 0.4069493 0 0.9134507
vn 0.4017908 -0.003573705 0.9157245
vn 0.4072029 0 0.9133378
vn 0.9828224 -0.1836098 0.01864352
vn 0.3658235 -0.009115936 -0.9306396
vn 0.4017904 -0.003573769 -0.9157246
vn 0.9953803 -0.05635238 0.07773366
vn 0.9790344 -0.1905706 0.07193353
vn 0.9956378 -0.05786397 0.07319187
vn 0.9956378 -0.0578641 -0.07319175
vn 0.9790344 -0.1905709 -0.07193357
vn 0.9953803 -0.05635265 -0.07773367
vn 0.9828222 -0.1836106 -0.01864302
vn 0.4017908 -0.003573705 0.9157245
vn 0.3658237 -0.009116069 0.9306396
vn 0.3774142 0.02419247 -0.9257285
vn 0.3092877 0 -0.9509686
vn 0.3093613 0 -0.9509447
vn 0.3648434 0.009895057 -0.9310163
vn 0.3093684 0 -0.9509423
vn 0.3658235 -0.009115936 -0.9306396
vn 0.3093356 0 -0.9509529
vn 0.4017904 -0.003573769 -0.9157246
vn 0.3093681 0 -0.9509424
vn 0.4069488 0 -0.9134509
vn 0.3092872 0 -0.9509687
vn 0.4072025 0 -0.9133379
vn 0.3092877 0 -0.9509686
vn 0.310215 0 -0.9506665
vn 0.3102132 0 -0.950667
vn 0.3093613 0 -0.9509447
vn 0.3102127 0 -0.9506671
vn 0.3093684 0 -0.9509423
vn 0.3102135 0 -0.9506669
vn 0.3093356 0 -0.9509529
vn 0.3093681 0 -0.9509424
vn 0.3102134 0 -0.9506669
vn 0.3102131 0 -0.950667
vn 0.3092872 0 -0.9509687
vn 0.3774141 0.02419172 0.9257286
vn 0.3093618 0 0.9509444
vn 0.3092883 0 0.9509684
vn 0.3648437 0.009894782 0.9310162
vn 0.3093689 0 0.9509422
vn 0.3658237 -0.009116069 0.9306396
vn 0.3093358 0 0.9509528
vn 0.4017908 -0.003573705 0.9157245
vn 0.3093685 0 0.9509423
vn 0.4069493 0 0.9134507
vn 0.3092878 0 0.9509685
vn 0.4072029 0 0.9133378
vn 0.3092883 0 0.9509684
vn 0.3102147 0 0.9506665
vn 0.3102165 0 0.9506658
vn 0.3093618 0 0.9509444
vn 0.3102134 0 0.9506669
vn 0.3093689 0 0.9509422
vn 0.3102121 0 0.9506674
vn 0.3093358 0 0.9509528
vn 0.3093685 0 0.9509423
vn 0.3102127 0 0.9506671
vn 0.3102136 0 0.9506668
vn 0.3092878 0 0.9509685
vn 0.3774142 0.02419247 -0.9257285
vn 0.3648434 0.009895057 -0.9310163
vn 0.9795237 0.200614 0.01694916
vn 0.9131458 0.4076096 0.004383626
vn 0.3658235 -0.009115936 -0.9306396
vn 0.9828224 -0.1836098 0.01864352
vn 0.903331 0.4237591 0.0664929
vn 0.9754242 0.2083497 0.07168017
vn 0.9790344 -0.1905706 0.07193353
vn 0.9790344 -0.1905709 -0.07193357
vn 0.9754242 0.2083497 -0.07168025
vn 0.9033306 0.4237601 -0.06649308
vn 0.9828222 -0.1836106 -0.01864302
vn 0.9795237 0.2006138 -0.01694931
vn 0.9131449 0.4076113 -0.004383704
vn 0.3658237 -0.009116069 0.9306396
vn 0.3774141 0.02419172 0.9257286
vn 0.3648437 0.009894782 0.9310162
g wall_round1_0
f 3/3/3 2/2/2 1/1/1
f 2/2/2 4/4/4 1/1/1
f 2/2/2 5/5/5 4/4/4
f 1/1/1 4/4/4 6/6/6
f 7/7/7 1/1/1 6/6/6
f 6/6/6 4/4/4 8/8/8
f 5/5/5 9/9/9 4/4/4
f 4/4/4 9/9/9 8/8/8
f 9/9/9 5/5/5 10/10/10
f 9/9/9 10/10/10 8/8/8
f 5/5/5 11/11/11 10/10/10
f 10/10/10 12/12/12 8/8/8
f 10/10/10 11/11/11 13/13/13
f 10/10/10 13/13/13 12/12/12
f 11/11/11 14/14/14 13/13/13
f 13/13/13 15/15/15 12/12/12
f 13/13/13 14/14/14 16/16/16
f 13/13/13 16/16/16 15/15/15
f 14/14/14 17/17/17 16/16/16
f 16/16/16 18/18/18 15/15/15
f 21/21/21 20/20/20 19/19/19
f 22/22/22 21/21/21 19/19/19
f 22/22/22 19/19/19 23/23/23
f 24/24/24 22/22/22 23/23/23
f 25/25/25 24/24/24 23/23/23
f 26/26/26 25/25/25 23/23/23
f 27/27/27 25/25/25 26/26/26
f 28/28/28 27/27/27 26/26/26
f 29/29/29 27/27/27 28/28/28
f 30/30/30 29/29/29 28/28/28
f 33/33/33 32/32/32 31/31/31
f 34/34/34 33/33/33 31/31/31
f 35/35/35 33/33/33 34/34/34
f 36/36/36 35/35/35 34/34/34
f 37/37/37 35/35/35 36/36/36
f 38/38/38 37/37/37 36/36/36
f 37/37/37 38/38/38 39/39/39
f 38/38/38 40/40/40 39/39/39
f 39/39/39 40/40/40 41/41/41
f 40/40/40 42/42/42 41/41/41
f 45/45/45 44/44/44 43/43/43
f 46/46/46 45/45/45 43/43/43
f 47/47/47 45/45/45 46/46/46
f 48/48/48 47/47/47 46/46/46
f 49/49/49 47/47/47 48/48/48
f 50/50/50 49/49/49 48/48/48
f 50/50/50 51/51/51 49/49/49
f 51/51/51 52/52/52 49/49/49
f 53/53/53 52/52/52 51/51/51
f 54/54/54 53/53/53 51/51/51
f 57/57/57 56/56/56 55/55/55
f 56/56/56 58/58/58 55/55/55
f 56/56/56 59/59/59 58/58/58
f 59/59/59 60/60/60 58/58/58
f 59/59/59 61/61/61 60/60/60
f 61/61/61 62/62/62 60/60/60
f 62/62/62 61/61/61 63/63/63
f 64/64/64 62/62/62 63/63/63
f 64/64/64 63/63/63 65/65/65
f 66/66/66 64/64/64 65/65/65
f 69/69/69 68/68/68 67/67/67
f 68/68/68 70/70/70 67/67/67
f 68/68/68 71/71/71 70/70/70
f 71/71/71 72/72/72 70/70/70
f 71/71/71 73/73/73 72/72/72
f 73/73/73 74/74/74 72/72/72
f 75/75/75 74/74/74 73/73/73
f 76/76/76 75/75/75 73/73/73
f 76/76/76 77/77/77 75/75/75
f 77/77/77 78/78/78 75/75/75
f 81/81/81 80/80/80 79/79/79
f 82/82/82 81/81/81 79/79/79
f 83/83/83 80/80/80 81/81/81
f 84/84/84 83/83/83 81/81/81
f 81/81/81 82/82/82 85/85/85
f 84/84/84 81/81/81 86/86/86
f 86/86/86 81/81/81 85/85/85
f 87/87/87 84/84/84 86/86/86
f 88/88/88 87/87/87 86/86/86
f 89/89/89 86/86/86 85/85/85
f 89/89/89 88/88/88 86/86/86
f 90/90/90 89/89/89 85/85/85
f 91/91/91 88/88/88 89/89/89
f 92/92/92 89/89/89 90/90/90
f 92/92/92 91/91/91 89/89/89
f 93/93/93 92/92/92 90/90/90
f 94/94/94 91/91/91 92/92/92
f 92/92/92 93/93/93 95/95/95
f 96/96/96 94/94/94 92/92/92
f 96/96/96 92/92/92 95/95/95
