g wall_deco_cap
v -0.6377754 0 3.738621
v -0.9388542 -0.09597111 0
v -0.6377754 0 0
v -0.9388542 -0.09597111 3.686329
v -1.063564 -0.3276653 0
v -1.063564 -0.3217506 3.556274
v -0.9388542 -0.2739029 3.801144
v 0 0 0
v -0.6377754 0 3.738621
v -0.6377754 0 0
v 0 0 3.738621
v -0.6377754 -0.2565336 3.904152
v -0.9388542 -0.09597111 3.686329
v 0 -0.2565336 3.904152
v -0.9388542 -0.2739029 3.801144
v -0.6377754 -5.71128 2.57534
v 0 -5.71128 2.57534
v -0.9388542 -5.663172 2.488281
v -0.6377754 -5.817223 2.472462
v 0 -5.817223 2.472462
v -0.9388542 -5.738247 2.415379
v -0.6377754 -6.921479 0.1961212
v 0 -6.921479 0.1961212
v 0 -7 0
v -0.9388542 -6.833647 0.1572952
v -0.6377754 -7 0
v -0.9388542 -6.896624 0
v -1.063564 -6.647051 0
v -1.063564 -0.3276653 0
v -1.063564 -0.3217506 3.556274
v -1.063564 -5.547306 2.277836
v -0.9388542 -6.833647 0.1572952
v -0.9388542 -6.896624 0
v -0.9388542 -5.738247 2.415379
v -0.9388542 -5.663172 2.488281
v -0.9388542 -0.2739029 3.801144
v -0.6377754 0 -3.738621
v -0.6377754 0 0
v -0.9388542 -0.09597111 0
v -0.9388542 -0.09597111 -3.686329
v -1.063564 -0.3276653 0
v -1.063564 -0.3217506 -3.556274
v -0.9388542 -0.2739029 -3.801144
v 0 0 0
v -0.6377754 0 0
v -0.6377754 0 -3.738621
v 0 0 -3.738621
v -0.6377754 -0.2565336 -3.904152
v -0.9388542 -0.09597111 -3.686329
v 0 -0.2565336 -3.904152
v -0.9388542 -0.2739029 -3.801144
v -0.6377754 -5.71128 -2.57534
v 0 -5.71128 -2.57534
v -0.9388542 -5.663172 -2.488281
v -0.6377754 -5.817223 -2.472462
v 0 -5.817223 -2.472462
v -0.9388542 -5.738247 -2.415379
v -0.6377754 -6.921479 -0.1961212
v 0 -6.921479 -0.1961212
v 0 -7 0
v -0.9388542 -6.833647 -0.1572952
v -0.6377754 -7 0
v -0.9388542 -6.896624 0
v -1.063564 -6.647051 0
v -1.063564 -0.3217506 -3.556274
v -1.063564 -0.3276653 0
v -1.063564 -5.547306 -2.277836
v -0.9388542 -6.833647 -0.1572952
v -0.9388542 -6.896624 0
v -0.9388542 -5.738247 -2.415379
v -0.9388542 -5.663172 -2.488281
v -0.9388542 -0.2739029 -3.801144
vt 1.215656 0.387271
vt 1.001194 0.3814604
vt 1.001194 0.3872709
vt 1.212491 0.3814606
vt 1.001194 0.3674328
vt 1.204617 0.367791
vt 1.219442 0.3680877
vt 0.9674193 0.4
vt 0.9795208 0.3813577
vt 0.9795208 0.4
vt 0.9674193 0.3813577
vt 0.9795207 0.3673688
vt 0.9999999 0.3813577
vt 0.9674192 0.3673688
vt 0.9999999 0.3673688
vt 0.979521 0.2872726
vt 0.9674195 0.2872726
vt 1 0.2872726
vt 0.979521 0.2712465
vt 0.9674194 0.2712465
vt 1 0.2712465
vt 0.979521 0.2637886
vt 0.9674195 0.2637886
vt 0.9674195 0.248289
vt 1 0.2637886
vt 0.979521 0.2521491
vt 1 0.2521491
vt 0.9602511 0.2598901
vt 0.9602511 0.3589951
vt 0.9052874 0.3584214
vt 0.9250462 0.2767102
vt 0.9575461 0.2570317
vt 0.9599773 0.2560737
vt 0.9226465 0.2737874
vt 0.9215199 0.2749511
vt 0.901229 0.3592233
vt 1.215656 0.387271
vt 1.001194 0.3872709
vt 1.001194 0.3814604
vt 1.212491 0.3814606
vt 1.001194 0.3674328
vt 1.204617 0.367791
vt 1.219442 0.3680877
vt 0.9674193 0.4
vt 0.9795208 0.4
vt 0.9795208 0.3813577
vt 0.9674193 0.3813577
vt 0.9795207 0.3673688
vt 0.9999999 0.3813577
vt 0.9674192 0.3673688
vt 0.9999999 0.3673688
vt 0.979521 0.2872726
vt 0.9674195 0.2872726
vt 1 0.2872726
vt 0.979521 0.2712465
vt 0.9674194 0.2712465
vt 1 0.2712465
vt 0.979521 0.2637886
vt 0.9674195 0.2637886
vt 0.9674195 0.248289
vt 1 0.2637886
vt 0.979521 0.2521491
vt 1 0.2521491
vt 0.9602511 0.2598901
vt 0.9052874 0.3584214
vt 0.9602511 0.3589951
vt 0.9250462 0.2767102
vt 0.9575461 0.2570317
vt 0.9599773 0.2560737
vt 0.9226465 0.2737874
vt 0.9215199 0.2749511
vt 0.901229 0.3592233
vn -0.09608425 0.9934061 0.06254832
vn -0.602407 0.7981891 0
vn -0.1012124 0.9948649 0
vn -0.5364805 0.8428629 0.04208158
vn -0.9996612 0.02602641 0
vn -0.998482 0.0233821 0.04987007
vn -0.5479981 -0.1747322 0.8180262
vn 0 1 0
vn -0.09608425 0.9934061 0.06254832
vn -0.1012124 0.9948649 0
vn 0 0.9978483 0.06556638
vn -0.09638695 -0.2002477 0.9749925
vn -0.5364805 0.8428629 0.04208158
vn 0 -0.1995834 0.9798809
vn -0.5479981 -0.1747322 0.8180262
vn -0.0977125 -0.2476097 0.96392
vn 0 -0.2493349 0.9684173
vn -0.5691031 -0.2024262 0.7969601
vn -0.09883381 -0.8873158 0.450447
vn 0 -0.8913203 0.4533739
vn -0.5874009 -0.7232577 0.3631233
vn -0.1004634 -0.8974625 0.4294975
vn 0 -0.9020922 0.4315433
vn 0 -0.9283592 0.3716842
vn -0.6247281 -0.7039797 0.3378275
vn -0.09634494 -0.995348 0
vn -0.4748485 -0.8800676 0
vn -0.9997984 -0.02008191 0
vn -0.9996612 0.02602641 0
vn -0.998482 0.0233821 0.04987007
vn -0.9991918 -0.01924843 0.03528683
vn -0.6247281 -0.7039797 0.3378275
vn -0.4748485 -0.8800676 0
vn -0.5874009 -0.7232577 0.3631233
vn -0.5691031 -0.2024262 0.7969601
vn -0.5479981 -0.1747322 0.8180262
vn -0.09608422 0.9934061 -0.06254832
vn -0.1012124 0.9948649 0
vn -0.602407 0.7981891 0
vn -0.5364805 0.8428629 -0.04208159
vn -0.9996612 0.02602641 0
vn -0.998482 0.02338211 -0.04987006
vn -0.5479977 -0.1747322 -0.8180263
vn 0 1 0
vn -0.1012124 0.9948649 0
vn -0.09608422 0.9934061 -0.06254832
vn 0 0.9978483 -0.06556638
vn -0.09638681 -0.2002477 -0.9749926
vn -0.5364805 0.8428629 -0.04208159
vn 0 -0.1995834 -0.9798809
vn -0.5479977 -0.1747322 -0.8180263
vn -0.09771237 -0.2476097 -0.96392
vn 0 -0.2493349 -0.9684173
vn -0.5691029 -0.2024262 -0.7969601
vn -0.09883382 -0.8873158 -0.450447
vn 0 -0.8913203 -0.4533739
vn -0.5874009 -0.7232577 -0.3631232
vn -0.1004634 -0.8974625 -0.4294975
vn 0 -0.9020922 -0.4315433
vn 0 -0.9283592 -0.3716842
vn -0.624728 -0.7039797 -0.3378275
vn -0.09634494 -0.995348 0
vn -0.4748485 -0.8800676 0
vn -0.9997984 -0.02008191 0
vn -0.998482 0.02338211 -0.04987006
vn -0.9996612 0.02602641 0
vn -0.9991918 -0.01924843 -0.03528682
vn -0.624728 -0.7039797 -0.3378275
vn -0.4748485 -0.8800676 0
vn -0.5874009 -0.7232577 -0.3631232
vn -0.5691029 -0.2024262 -0.7969601
vn -0.5479977 -0.1747322 -0.8180263
g wall_deco_cap_0
f 3/3/3 2/2/2 1/1/1
f 2/2/2 4/4/4 1/1/1
f 2/2/2 5/5/5 4/4/4
f 5/5/5 6/6/6 4/4/4
f 4/4/4 6/6/6 7/7/7
f 10/10/10 9/9/9 8/8/8
f 9/9/9 11/11/11 8/8/8
f 9/9/9 12/12/12 11/11/11
f 9/9/9 13/13/13 12/12/12
f 12/12/12 14/14/14 11/11/11
f 13/13/13 15/15/15 12/12/12
f 12/12/12 16/16/16 14/14/14
f 12/12/12 15/15/15 16/16/16
f 16/16/16 17/17/17 14/14/14
f 15/15/15 18/18/18 16/16/16
f 17/17/17 16/16/16 19/19/19
f 19/19/19 16/16/16 18/18/18
f 20/20/20 17/17/17 19/19/19
f 21/21/21 19/19/19 18/18/18
f 19/19/19 22/22/22 20/20/20
f 19/19/19 21/21/21 22/22/22
f 22/22/22 23/23/23 20/20/20
f 24/24/24 23/23/23 22/22/22
f 21/21/21 25/25/25 22/22/22
f 26/26/26 24/24/24 22/22/22
f 22/22/22 25/25/25 26/26/26
f 25/25/25 27/27/27 26/26/26
f 30/30/30 29/29/29 28/28/28
f 31/31/31 30/30/30 28/28/28
f 31/31/31 28/28/28 32/32/32
f 32/32/32 28/28/28 33/33/33
f 34/34/34 31/31/31 32/32/32
f 34/34/34 35/35/35 31/31/31
f 30/30/30 31/31/31 35/35/35
f 36/36/36 30/30/30 35/35/35
f 39/39/39 38/38/38 37/37/37
f 40/40/40 39/39/39 37/37/37
f 41/41/41 39/39/39 40/40/40
f 42/42/42 41/41/41 40/40/40
f 42/42/42 40/40/40 43/43/43
f 46/46/46 45/45/45 44/44/44
f 47/47/47 46/46/46 44/44/44
f 48/48/48 46/46/46 47/47/47
f 49/49/49 46/46/46 48/48/48
f 50/50/50 48/48/48 47/47/47
f 51/51/51 49/49/49 48/48/48
f 52/52/52 48/48/48 50/50/50
f 51/51/51 48/48/48 52/52/52
f 53/53/53 52/52/52 50/50/50
f 54/54/54 51/51/51 52/52/52
f 52/52/52 53/53/53 55/55/55
f 52/52/52 55/55/55 54/54/54
f 53/53/53 56/56/56 55/55/55
f 55/55/55 57/57/57 54/54/54
f 58/58/58 55/55/55 56/56/56
f 57/57/57 55/55/55 58/58/58
f 59/59/59 58/58/58 56/56/56
f 59/59/59 60/60/60 58/58/58
f 61/61/61 57/57/57 58/58/58
f 60/60/60 62/62/62 58/58/58
f 61/61/61 58/58/58 62/62/62
f 63/63/63 61/61/61 62/62/62
f 66/66/66 65/65/65 64/64/64
f 65/65/65 67/67/67 64/64/64
f 64/64/64 67/67/67 68/68/68
f 64/64/64 68/68/68 69/69/69
f 67/67/67 70/70/70 68/68/68
f 71/71/71 70/70/70 67/67/67
f 67/67/67 65/65/65 71/71/71
f 65/65/65 72/72/72 71/71/71
