g wall_deco_A
v -8 -6.921479 -0.1961212
v -8 -7 7.629395E-06
v -4 -7 7.629395E-06
v -4 -6.921479 -0.1961212
v 0 -7 7.629395E-06
v 0 -6.921479 -0.196125
v 0 -5.817223 -2.472462
v -4 -5.817223 -2.472462
v -8 -5.817223 -2.472462
v 0 -5.71128 -2.57534
v -4 -5.71128 -2.57534
v -8 -5.71128 -2.57534
v 0 -0.2565365 -3.904152
v -4 -0.2565365 -3.904152
v -8 -0.2565336 -3.904152
v 0 0 -3.738621
v -4 0 -3.738621
v 0 0 0
v -8 0 -3.738621
v -4 0 0
v -8 0 0
vt 1 0.2637886
vt 1 0.248289
vt 0.7500001 0.2482891
vt 0.7500001 0.2637887
vt 0.5000001 0.2482893
vt 0.5000001 0.2637888
vt 0.5000001 0.2712465
vt 0.7500001 0.2712465
vt 1 0.2712465
vt 0.5000001 0.2872726
vt 0.7500001 0.2872726
vt 1 0.2872726
vt 0.4999999 0.3673688
vt 0.7499999 0.3673688
vt 0.9999999 0.3673688
vt 0.4999999 0.3813578
vt 0.7499999 0.3813578
vt 0.4999999 0.4
vt 0.9999999 0.3813577
vt 0.7499999 0.4
vt 0.9999999 0.4
vn 0 -0.9020927 -0.4315422
vn 0 -0.9283636 -0.3716732
vn 0 -0.9283642 -0.3716717
vn 0 -0.9020927 -0.4315422
vn 0 -0.9283649 -0.3716701
vn 0 -0.9020927 -0.4315422
vn 0 -0.8913203 -0.4533741
vn 0 -0.8913205 -0.4533739
vn 0 -0.8913205 -0.4533738
vn 0 -0.249335 -0.9684173
vn 0 -0.2493349 -0.9684173
vn 0 -0.2493349 -0.9684173
vn 0 -0.1995833 -0.9798809
vn 0 -0.1995833 -0.9798809
vn 0 -0.1995833 -0.9798809
vn 0 0.9978482 -0.06556723
vn 0 0.9978482 -0.06556699
vn 0 1 0
vn 0 0.9978483 -0.06556676
vn 0 1 0
vn 0 1 0
g wall_deco_A_0
f 3/3/3 2/2/2 1/1/1
f 4/4/4 3/3/3 1/1/1
f 5/5/5 3/3/3 4/4/4
f 6/6/6 5/5/5 4/4/4
f 6/6/6 4/4/4 7/7/7
f 4/4/4 1/1/1 8/8/8
f 4/4/4 8/8/8 7/7/7
f 1/1/1 9/9/9 8/8/8
f 10/10/10 7/7/7 8/8/8
f 11/11/11 8/8/8 9/9/9
f 11/11/11 10/10/10 8/8/8
f 12/12/12 11/11/11 9/9/9
f 10/10/10 11/11/11 13/13/13
f 11/11/11 12/12/12 14/14/14
f 11/11/11 14/14/14 13/13/13
f 12/12/12 15/15/15 14/14/14
f 13/13/13 14/14/14 16/16/16
f 14/14/14 15/15/15 17/17/17
f 14/14/14 17/17/17 16/16/16
f 16/16/16 17/17/17 18/18/18
f 15/15/15 19/19/19 17/17/17
f 17/17/17 20/20/20 18/18/18
f 17/17/17 19/19/19 20/20/20
f 19/19/19 21/21/21 20/20/20
