g watermeter_glass
v -0.08558634 0.4868183 -0.2634077
v -0.1627949 1.073182 -0.2240679
v -0.1627949 0.4868183 -0.2240679
v -0.08558634 1.073182 -0.2634077
v -7.152517E-09 0.4868183 -0.2769633
v -7.152517E-09 1.073182 -0.2769633
v 0.08558633 0.4868183 -0.2634077
v 0.08558633 1.073182 -0.2634077
v 0.1627949 0.4868183 -0.224068
v 0.1627949 1.073182 -0.224068
v 0.224068 0.4868183 -0.1627949
v 0.224068 1.073182 -0.1627949
v 0.2634077 0.4868183 -0.08558635
v 0.2634077 1.073182 -0.08558635
v 0.2769631 0.4868183 -7.152532E-09
v 0.2769631 1.073182 -7.152532E-09
v 0.2634075 0.4868183 0.0855863
v 0.2634075 1.073182 0.0855863
v 0.2240678 0.4868183 0.1627948
v 0.2240678 1.073182 0.1627948
v -0.2240679 0.4868183 -0.1627949
v -0.2240679 1.073182 -0.1627949
v -0.2634076 1.073182 -0.08558632
v -0.2634076 0.4868183 -0.08558632
v -0.2769632 1.073182 -7.152532E-09
v -0.2769632 0.4868183 -7.152532E-09
v -0.2634076 1.073182 0.0855863
v -0.2634076 0.4868183 0.0855863
v -0.2240679 1.073182 0.1627948
v -0.2240679 0.4868183 0.1627948
v -0.1627949 1.073182 0.2240678
v -0.1627949 0.4868183 0.2240679
v -0.08558632 1.073182 0.2634076
v -0.08558632 0.4868183 0.2634076
v -1.540666E-08 1.073182 0.2769631
v -1.540666E-08 0.4868183 0.2769631
v 0.0855863 1.073182 0.2634076
v 0.0855863 0.4868183 0.2634076
v 0.1627948 1.073182 0.2240678
v 0.1627948 0.4868183 0.2240678
vt 0.8857584 0.00591135
vt 0.9959751 0.9940895
vt 0.9959751 0.005910665
vt 0.8857584 0.9940895
vt 0.7755419 0.005910665
vt 0.775542 0.9940895
vt 0.6653252 0.005910665
vt 0.6653248 0.9940895
vt 0.5551087 0.00591135
vt 0.5551087 0.9940895
vt 0.444892 0.00591135
vt 0.4448917 0.9940895
vt 0.3346753 0.005910844
vt 0.3346753 0.9940892
vt 0.2244588 0.005910516
vt 0.2244582 0.9940892
vt 0.1142421 0.005910516
vt 0.1142421 0.9940892
vt 0.0040254 0.005910516
vt 0.004024863 0.9940892
vt 0.004025131 0.005910754
vt 0.004025131 0.9940895
vt 0.1142417 0.9940895
vt 0.1142417 0.005910754
vt 0.2244584 0.9940895
vt 0.2244584 0.005910754
vt 0.334675 0.9940895
vt 0.334675 0.005911261
vt 0.4448917 0.9940895
vt 0.4448917 0.005910754
vt 0.5551087 0.9940895
vt 0.5551087 0.005910605
vt 0.6653248 0.9940895
vt 0.6653248 0.00591141
vt 0.775542 0.9940895
vt 0.775542 0.005911261
vt 0.885758 0.9940895
vt 0.885758 0.005911261
vt 0.9959751 0.9940895
vt 0.9959751 0.005910754
vn -0.3090174 0 -0.9510565
vn -0.4539906 0 -0.8910064
vn -0.4539906 0 -0.8910064
vn -0.3090174 0 -0.9510565
vn 0 0 -1
vn 0 0 -1
vn 0.3090168 0 -0.9510565
vn 0.3090168 0 -0.9510565
vn 0.5877848 0 -0.8090173
vn 0.5877848 0 -0.8090173
vn 0.8090171 0 -0.5877852
vn 0.8090171 0 -0.5877852
vn 0.9510569 0 -0.3090158
vn 0.9510569 0 -0.3090158
vn 1 0 0
vn 1 0 0
vn 0.9510565 0 0.309017
vn 0.9510565 0 0.309017
vn 0.8910065 0 0.4539906
vn 0.8910065 0 0.4539906
vn -0.8910064 0 -0.4539907
vn -0.8910064 0 -0.4539907
vn -0.9510565 0 -0.3090171
vn -0.9510565 0 -0.3090171
vn -1 0 0
vn -1 0 0
vn -0.9510565 0 0.3090173
vn -0.9510565 0 0.3090173
vn -0.8090168 0 0.5877855
vn -0.8090168 0 0.5877855
vn -0.5877854 0 0.809017
vn -0.5877854 0 0.8090169
vn -0.3090173 0 0.9510565
vn -0.3090173 0 0.9510565
vn 0 0 1
vn 0 0 1
vn 0.3090173 0 0.9510565
vn 0.3090173 0 0.9510565
vn 0.4539906 0 0.8910064
vn 0.4539906 0 0.8910064
g watermeter_glass_0
f 3/3/3 2/2/2 1/1/1
f 2/2/2 4/4/4 1/1/1
f 1/1/1 4/4/4 5/5/5
f 4/4/4 6/6/6 5/5/5
f 5/5/5 6/6/6 7/7/7
f 6/6/6 8/8/8 7/7/7
f 7/7/7 8/8/8 9/9/9
f 8/8/8 10/10/10 9/9/9
f 9/9/9 10/10/10 11/11/11
f 10/10/10 12/12/12 11/11/11
f 11/11/11 12/12/12 13/13/13
f 12/12/12 14/14/14 13/13/13
f 13/13/13 14/14/14 15/15/15
f 14/14/14 16/16/16 15/15/15
f 15/15/15 16/16/16 17/17/17
f 16/16/16 18/18/18 17/17/17
f 17/17/17 18/18/18 19/19/19
f 18/18/18 20/20/20 19/19/19
f 23/23/23 22/22/22 21/21/21
f 24/24/24 23/23/23 21/21/21
f 25/25/25 23/23/23 24/24/24
f 26/26/26 25/25/25 24/24/24
f 27/27/27 25/25/25 26/26/26
f 28/28/28 27/27/27 26/26/26
f 29/29/29 27/27/27 28/28/28
f 30/30/30 29/29/29 28/28/28
f 31/31/31 29/29/29 30/30/30
f 32/32/32 31/31/31 30/30/30
f 33/33/33 31/31/31 32/32/32
f 34/34/34 33/33/33 32/32/32
f 35/35/35 33/33/33 34/34/34
f 36/36/36 35/35/35 34/34/34
f 37/37/37 35/35/35 36/36/36
f 38/38/38 37/37/37 36/36/36
f 39/39/39 37/37/37 38/38/38
f 40/40/40 39/39/39 38/38/38
