g waxLump_ld
v 0.2068291 0.4529344 -0.05506439
v 0.2177021 0.4101076 -0.1182976
v 0.3085333 0.2884386 -0.04134636
v 0.1576361 0.5050518 -0.06279372
v 0.2379847 0.263285 -0.2119846
v 0.2913643 0.1885998 -0.152211
v 0.1754368 0.4316373 -0.175589
v 0.1049546 0.5210397 -0.1234669
v 0.06002766 0.5535785 0.00693798
v 0.2477423 0.1515907 -0.2452514
v 0.2716867 0.08842177 -0.2186897
v 0.3051375 0.1146144 -0.1065245
v 0.2713232 0.04129207 -0.1842555
v 0.2761172 0.0486548 -0.08546876
v 0.192661 -0.04943782 -0.175244
v 0.2174031 -0.01046743 -0.0664158
v 0.1233299 -0.04615726 -0.06156535
v 0.1470612 0.3988884 -0.2321548
v 0.1828674 0.2154064 -0.2922798
v 0.1930195 0.08682518 -0.3122309
v 0.2029778 0.01898174 -0.2763651
v 0.165349 -0.04005418 -0.2541412
v 0.09124846 -0.08165273 -0.1838601
v 0.07805707 0.4613994 -0.2320999
v 0.1026438 0.3612694 -0.2844406
v 0.1309112 0.05188694 -0.3366777
v 0.07401294 0.2051425 -0.360381
v 0.001012802 -0.06717349 -0.1306397
v -0.04497742 -0.05646716 -0.009862375
v 0.02082331 0.4020813 -0.2918873
v 0.02740745 0.5030914 -0.198008
v 0.05406854 -0.06786808 -0.2459533
v 0.0416517 -0.0161828 -0.3213896
v 0.02438621 0.5479528 -0.1096727
v 0.008068227 0.1355561 -0.3791325
v 0.01935439 0.2165588 -0.3672706
v -0.05849304 0.2179687 -0.3596317
v -0.09358864 0.4230697 -0.2556324
v -0.06421165 0.5198163 -0.1554634
v -0.04553289 0.08425598 -0.3738218
v -0.08899383 0.1243328 -0.3692848
v -0.1449257 0.03439636 -0.3276947
v -0.03393574 0.5557355 -0.04837532
v -0.15401 0.2387878 -0.3178459
v -0.1114354 -0.01224861 -0.3039316
v -0.1520824 0.5067381 -0.0927967
v -0.1678722 0.4437698 -0.186319
v -0.2135875 0.3441261 -0.2309738
v -0.09456002 0.546526 0.03200483
v -0.2425695 0.4225133 -0.113887
v -0.2087242 0.06190824 -0.3049988
v -0.204352 -0.007789564 -0.2626419
v -0.1953323 0.1574238 -0.3188393
v -0.2715133 0.1763062 -0.2612011
v -0.3087656 0.2227444 -0.1813465
v -0.2746101 0.0529521 -0.2390716
v -0.1170295 -0.04851794 -0.2444984
v -0.1621531 -0.05507999 -0.1935433
v -0.3282122 0.1047798 -0.1767711
v -0.27918 -0.01144363 -0.1552317
v -0.1476638 -0.05918647 -0.05689501
v -0.2355338 -0.04405067 -0.08487882
v -0.3253413 0.03471594 -0.1268137
v -0.1303702 -0.09551219 0.1061477
v -0.3434716 0.1941593 -0.09401893
v -0.3651598 0.08485363 0.02815647
v -0.3380017 -0.0003077567 0.0491611
v -0.2859616 -0.05296712 0.07677047
v -0.216676 -0.08653355 0.1239431
v -0.2769709 -0.03409853 0.1773188
v -0.3449202 0.05761385 0.1570141
v -0.3188367 0.3108802 -0.05198707
v -0.3647423 0.1474064 0.1138787
v -0.2655988 0.4310312 0.01140747
v -0.3385545 0.279805 0.040978
v -0.1953473 0.4926947 0.02686443
v -0.1762813 -0.0309886 0.2649313
v -0.2693424 0.03614702 0.2437923
v -0.1135007 -0.08350603 0.1934801
v 0.04120304 -0.05835657 0.1302017
v 0.1589445 -0.04031589 -0.01651111
v 0.1233299 -0.04615726 -0.06156535
v 0.2174031 -0.01046743 -0.0664158
v -0.2533141 0.416486 0.1033047
v -0.1446224 0.4959274 0.1146606
v -0.2925617 0.3488731 0.1059929
v -0.2662136 0.2667915 0.2427166
v -0.3233604 0.2537418 0.1630989
v -0.3370874 0.155765 0.194965
v -0.2997848 0.129064 0.2436973
v -0.2197929 0.0828598 0.2985947
v -0.1961311 0.1641323 0.3151394
v -0.1809208 0.349118 0.2507366
v -0.1522247 0.07423324 0.323426
v -0.135672 0.2760063 0.3207802
v -0.09268741 0.4060341 0.2486641
v -0.07460289 -0.01499176 0.2897527
v -0.07136421 0.2072692 0.3554635
v -0.065102 0.5189392 0.1236111
v 0.03517356 -0.03823414 0.2123777
v -0.03947983 0.09198303 0.3447824
v 0.03455901 0.5230138 0.1138367
v 0.06684723 0.03070478 0.2992381
v 0.1363282 0.5031658 0.06839218
v 0.1576361 0.5050518 -0.06279372
v 0.2010656 0.4639221 0.02080593
v 0.2068291 0.4529344 -0.05506439
v 0.1541816 -0.04891598 0.2009092
v 0.1747916 -0.008543014 0.2592705
v 0.2033369 -0.06203602 0.1078344
v 0.2555381 -0.02718573 0.1902311
v 0.251019 -0.03966794 0.0475605
v 0.3202625 0.02156238 0.0209198
v 0.2761172 0.0486548 -0.08546876
v 0.3051375 0.1146144 -0.1065245
v 0.2813622 -0.03424996 0.1044985
v 0.3409974 0.02516606 0.1261896
v 0.2852986 0.02710419 0.2304216
v 0.1781686 0.04529571 0.2976236
v 0.1970381 0.09663791 0.3105294
v 0.3090271 0.1171251 0.2559242
v 0.3557579 0.1160776 0.1989755
v 0.3504697 0.2021172 0.1890427
v 0.3786735 0.11946 0.1188672
v 0.3573129 0.05311807 0.08880801
v 0.3679882 0.1072695 0.02643156
v 0.3664203 0.1578767 0.01730575
v 0.2913643 0.1885998 -0.152211
v 0.3729985 0.1886596 0.07417316
v 0.3333286 0.2573061 0.02215919
v 0.3085333 0.2884386 -0.04134636
v 0.3337663 0.2701246 0.1075996
v 0.201638 0.4372513 0.09377746
v 0.3145852 0.2750828 0.1652779
v 0.1498442 0.4306732 0.187072
v 0.07656784 0.4149925 0.2409851
v 0.2157036 0.3128025 0.2557491
v 0.2644936 0.1891771 0.2834885
v 0.1762848 0.2786796 0.2975326
v 0.1345322 0.2198627 0.3287452
v 0.005004358 0.4855568 0.1711803
v -0.01013478 0.4821401 0.1762819
v -0.01687832 0.4061966 0.2596687
v 0.01055775 0.3148773 0.3270069
v -0.006477355 0.2382351 0.355618
v 0.005940628 0.1656921 0.3571804
vt 0.3375662 0.015625
vt 0.3576185 0.03844237
vt 0.4262052 0.04110786
vt 0.2921585 0.01667441
vt 0.4072772 0.09554935
vt 0.4454398 0.1100962
vt 0.3423448 0.04984481
vt 0.2855402 0.03751126
vt 0.1910403 0.05158746
vt 0.4268039 0.1389984
vt 0.4409738 0.1629385
vt 0.4713696 0.1559177
vt 0.4481465 0.1856885
vt 0.4728355 0.1989664
vt 0.428921 0.2337063
vt 0.4568981 0.2426038
vt 0.4162035 0.2886971
vt 0.3500703 0.07053905
vt 0.4004072 0.1240288
vt 0.4136565 0.1678314
vt 0.4210464 0.1925067
vt 0.4150875 0.2199616
vt 0.3963291 0.257958
vt 0.3193333 0.06725741
vt 0.3527094 0.09170543
vt 0.4023632 0.1844727
vt 0.3781043 0.1407325
vt 0.3589054 0.286606
vt 0.2935615 0.3286847
vt 0.3305906 0.09295362
vt 0.2939987 0.06450672
vt 0.3878329 0.2446776
vt 0.3867616 0.2153751
vt 0.2576819 0.05347837
vt 0.3723841 0.1672847
vt 0.366115 0.1437167
vt 0.3520511 0.1506072
vt 0.3057484 0.1020187
vt 0.2704539 0.07614165
vt 0.3666966 0.1865342
vt 0.3563933 0.1787332
vt 0.3497447 0.210036
vt 0.2312822 0.06611799
vt 0.3312362 0.1548394
vt 0.3559723 0.2239775
vt 0.254832 0.0945719
vt 0.2834842 0.1082468
vt 0.3001557 0.1360516
vt 0.2155498 0.08677983
vt 0.2696394 0.124312
vt 0.3371053 0.2074542
vt 0.3371239 0.2312253
vt 0.3338512 0.1800968
vt 0.3171988 0.1824348
vt 0.2986024 0.1758442
vt 0.3225537 0.2175238
vt 0.3502517 0.2443519
vt 0.3358815 0.2589966
vt 0.3060714 0.2080318
vt 0.3144526 0.244813
vt 0.3056671 0.293052
vt 0.3068074 0.2662948
vt 0.3039919 0.2297014
vt 0.2620975 0.303058
vt 0.2853799 0.1881379
vt 0.2730735 0.2211901
vt 0.2737519 0.244148
vt 0.2712304 0.2634281
vt 0.2599655 0.2823159
vt 0.2512217 0.2598082
vt 0.2517381 0.2323239
vt 0.2679477 0.1599238
vt 0.2539922 0.2090809
vt 0.2441572 0.1315576
vt 0.254731 0.1730547
vt 0.2309868 0.111842
vt 0.2262321 0.2663543
vt 0.2342181 0.2434171
vt 0.2366875 0.2919192
vt 0.2151528 0.3201718
vt 0.1653747 0.3559894
vt 0.1842337 0.3678319
vt 0.1184796 0.35476
vt 0.2271576 0.1402538
vt 0.2067997 0.1141124
vt 0.2351592 0.158204
vt 0.2165389 0.1865435
vt 0.2354374 0.1858038
vt 0.2385005 0.2106279
vt 0.2298359 0.2196847
vt 0.2172847 0.2352912
vt 0.2059831 0.2164216
vt 0.1990205 0.1651951
vt 0.2060988 0.2416295
vt 0.1892255 0.189156
vt 0.1820307 0.1482767
vt 0.2070034 0.2715592
vt 0.1808814 0.2103621
vt 0.1904778 0.1031445
vt 0.1990731 0.2981007
vt 0.1858109 0.2432889
vt 0.1690599 0.08961434
vt 0.1756773 0.2674071
vt 0.1371021 0.089176
vt 0.1053474 0.06700792
vt 0.09819856 0.1038292
vt 0.07543658 0.09831896
vt 0.1690662 0.3013612
vt 0.1585089 0.2825783
vt 0.1538684 0.3205242
vt 0.139325 0.2944004
vt 0.1313418 0.3265409
vt 0.09509212 0.3085344
vt 0.07229739 0.3239281
vt 0.04181187 0.2924911
vt 0.1273951 0.3093508
vt 0.1079384 0.2868534
vt 0.1295167 0.2748508
vt 0.1521559 0.2645445
vt 0.1438819 0.2499065
vt 0.1175515 0.248419
vt 0.1037081 0.2530058
vt 0.09348761 0.2272973
vt 0.08802481 0.2589098
vt 0.09561816 0.2833596
vt 0.07410819 0.2727745
vt 0.06377286 0.2551267
vt 0.015625 0.2638216
vt 0.07137199 0.2387298
vt 0.05345183 0.2094356
vt 0.04048037 0.1953706
vt 0.07448012 0.2051841
vt 0.1088493 0.1228911
vt 0.08921982 0.2017524
vt 0.1287256 0.1337743
vt 0.1458083 0.1433411
vt 0.119453 0.1846252
vt 0.121123 0.2259244
vt 0.1313441 0.1948708
vt 0.1438237 0.2117506
vt 0.1698364 0.1133075
vt 0.1727491 0.1159856
vt 0.1659819 0.1476566
vt 0.161406 0.1796235
vt 0.1681481 0.2027281
vt 0.1711855 0.2235285
vn 0.8104315 0.5739179 -0.1175541
vn 0.8180484 0.4608415 -0.3441251
vn 0.8861052 0.3725151 -0.2757719
vn 0.5699099 0.8136573 -0.1147366
vn 0.7849897 0.3315324 -0.523333
vn 0.9011784 0.1795241 -0.3945233
vn 0.6811979 0.5542853 -0.4782648
vn 0.4311224 0.8387007 -0.3327382
vn 0.2240118 0.9657386 0.1310261
vn 0.7808263 0.1593761 -0.6040775
vn 0.8760796 -0.1021381 -0.4712242
vn 0.9151902 -0.2072468 -0.3456523
vn 0.8362626 -0.5129237 -0.1938406
vn 0.7648526 -0.6061434 -0.218153
vn 0.5329277 -0.8457007 -0.02790028
vn 0.521873 -0.8478075 -0.09418588
vn 0.1694763 -0.9745163 0.1469548
vn 0.6090298 0.4311613 -0.6657196
vn 0.5854603 0.2635085 -0.7666808
vn 0.5786729 -0.01793392 -0.8153625
vn 0.6438702 -0.4609311 -0.6107156
vn 0.4269533 -0.7436368 -0.5145049
vn 0.1048672 -0.9940091 0.03080193
vn 0.3454626 0.6685854 -0.6585205
vn 0.4188815 0.386955 -0.8214647
vn 0.305688 -0.2974176 -0.9044875
vn 0.3713177 0.2048837 -0.905619
vn -0.01820491 -0.998111 0.05867658
vn 0.1093613 -0.9922273 -0.05937245
vn -0.02036474 0.4992135 -0.8662397
vn 0.01642536 0.7891512 -0.6139792
vn -0.005230684 -0.9399797 -0.3411904
vn 0.06677961 -0.6270142 -0.7761402
vn 0.09242678 0.9590347 -0.2677864
vn 0.1346539 -0.05838908 -0.9891708
vn 0.03114384 0.3130983 -0.94921
vn -0.2156617 0.3212672 -0.9221048
vn -0.2895752 0.5469695 -0.7854748
vn -0.2572173 0.8424675 -0.4733791
vn -0.05519214 -0.3768644 -0.9246226
vn -0.3080659 0.02663443 -0.9509921
vn -0.2879682 -0.4277571 -0.8567953
vn -0.1525681 0.9834719 -0.09749926
vn -0.414873 0.3398249 -0.8440375
vn -0.1612687 -0.7196663 -0.6753318
vn -0.4900294 0.8370401 -0.2433824
vn -0.5163722 0.6557144 -0.5508161
vn -0.6244489 0.4265249 -0.6543241
vn -0.2614454 0.9588844 0.1103953
vn -0.7591342 0.5603096 -0.331313
vn -0.560598 -0.2067737 -0.8018569
vn -0.488559 -0.6988317 -0.5224407
vn -0.4937677 0.09262376 -0.8646469
vn -0.7108179 0.1805737 -0.6798021
vn -0.8477197 0.3096249 -0.4307015
vn -0.7401521 -0.3152429 -0.593967
vn -0.1611699 -0.9021823 -0.4001144
vn -0.2009833 -0.9693347 -0.1414069
vn -0.9285897 -0.07152108 -0.3641509
vn -0.5989035 -0.7491835 -0.2829112
vn -0.048705 -0.9940227 -0.09770772
vn -0.2862993 -0.946532 -0.1486938
vn -0.8831989 -0.40417 -0.2379208
vn 0.06311226 -0.9939932 -0.08941045
vn -0.9746026 0.1338857 -0.1795117
vn -0.9915855 -0.1078838 -0.07155024
vn -0.8353907 -0.5490239 -0.02636133
vn -0.5487844 -0.8345744 -0.048178
vn -0.2741131 -0.9589857 0.07216791
vn -0.6097263 -0.6706884 0.4223872
vn -0.8820169 -0.3306766 0.3357069
vn -0.900125 0.3818838 -0.2096181
vn -0.9907022 0.09938479 0.09290796
vn -0.7945029 0.6059345 -0.04010551
vn -0.9559235 0.2930179 0.01873078
vn -0.5751396 0.815302 0.06706033
vn -0.2787089 -0.6842151 0.6739221
vn -0.6333132 -0.3870298 0.6701659
vn 0.04220931 -0.9347476 0.3527964
vn 0.1001051 -0.9949667 0.004499867
vn 0.09765732 -0.9866665 -0.1302004
vn 0.1694763 -0.9745163 0.1469548
vn 0.521873 -0.8478075 -0.09418588
vn -0.6463499 0.6243535 0.4386507
vn -0.4485794 0.7516239 0.483568
vn -0.8403021 0.4626805 0.282523
vn -0.6373312 0.3760711 0.6725917
vn -0.8649192 0.3630755 0.3465412
vn -0.8672388 0.1050678 0.4866802
vn -0.6962502 -0.008568482 0.717748
vn -0.4919172 -0.2189465 0.8426624
vn -0.4616491 0.09162678 0.8823178
vn -0.4949988 0.5752459 0.6512053
vn -0.2292266 -0.2718759 0.9346329
vn -0.3374197 0.3714044 0.8649895
vn -0.2580228 0.6493932 0.715341
vn 0.05968995 -0.6725432 0.7376468
vn -0.2082514 0.06001426 0.9762324
vn -0.1570767 0.8585787 0.4880262
vn 0.1248547 -0.885321 0.447904
vn 0.006598595 -0.3169394 0.9484228
vn 0.1706757 0.8935836 0.4151844
vn 0.1059637 -0.594507 0.7970778
vn 0.4643349 0.8332204 0.3002281
vn 0.5699099 0.8136573 -0.1147366
vn 0.7514982 0.6546716 0.08158132
vn 0.8104315 0.5739179 -0.1175541
vn 0.05949071 -0.9403038 0.3350967
vn 0.1578815 -0.7242889 0.6711774
vn 0.08585466 -0.9961243 -0.01911161
vn 0.4383768 -0.8087621 0.3920839
vn 0.3905742 -0.8804953 -0.2686633
vn 0.717867 -0.6103728 -0.3348314
vn 0.7648526 -0.6061434 -0.218153
vn 0.9151902 -0.2072468 -0.3456523
vn 0.5658632 -0.823918 0.0309497
vn 0.7896443 -0.5783091 0.2049888
vn 0.5884727 -0.5085571 0.6285456
vn 0.2580438 -0.4380355 0.8611262
vn 0.2969448 -0.1645854 0.9406037
vn 0.6263251 -0.124117 0.769618
vn 0.8704484 -0.1964664 0.4513543
vn 0.821619 0.3294808 0.4651718
vn 0.9872243 -0.08461767 0.1350106
vn 0.8936291 -0.439127 -0.09270688
vn 0.9077647 -0.2738646 -0.3177445
vn 0.9319285 0.1597123 -0.3255784
vn 0.9011784 0.1795241 -0.3945233
vn 0.9627244 0.2697905 -0.01935504
vn 0.8889269 0.4212724 -0.1798292
vn 0.8861052 0.3725151 -0.2757719
vn 0.8468202 0.5279158 0.06481296
vn 0.6836745 0.6552056 0.3213953
vn 0.7171283 0.5820741 0.3832973
vn 0.4855103 0.7012471 0.5220462
vn 0.2400645 0.648703 0.7221866
vn 0.5625131 0.5552718 0.6125784
vn 0.5476196 0.2061034 0.8109465
vn 0.3321632 0.4177823 0.845651
vn 0.2624443 0.1177205 0.9577394
vn 0.1139705 0.7933968 0.59794
vn -0.05137071 0.7479133 0.6618057
vn -0.01793001 0.67036 0.7418194
vn 0.06755196 0.4779908 0.8757634
vn 0.05348131 0.2414735 0.9689325
vn 0.1259586 -0.116771 0.9851391
g waxLump_ld_0
f 3/3/3 2/2/2 1/1/1
f 4/4/4 1/1/1 2/2/2
f 3/3/3 5/5/5 2/2/2
f 6/6/6 5/5/5 3/3/3
f 2/2/2 7/7/7 4/4/4
f 2/2/2 5/5/5 7/7/7
f 7/7/7 8/8/8 4/4/4
f 8/8/8 9/9/9 4/4/4
f 6/6/6 10/10/10 5/5/5
f 10/10/10 6/6/6 11/11/11
f 6/6/6 12/12/12 11/11/11
f 11/11/11 12/12/12 13/13/13
f 14/14/14 13/13/13 12/12/12
f 14/14/14 15/15/15 13/13/13
f 15/15/15 14/14/14 16/16/16
f 16/16/16 17/17/17 15/15/15
f 7/7/7 5/5/5 18/18/18
f 10/10/10 19/19/19 5/5/5
f 18/18/18 5/5/5 19/19/19
f 20/20/20 10/10/10 11/11/11
f 20/20/20 19/19/19 10/10/10
f 11/11/11 13/13/13 21/21/21
f 11/11/11 21/21/21 20/20/20
f 15/15/15 22/22/22 13/13/13
f 13/13/13 22/22/22 21/21/21
f 15/15/15 17/17/17 23/23/23
f 23/23/23 22/22/22 15/15/15
f 24/24/24 7/7/7 18/18/18
f 24/24/24 8/8/8 7/7/7
f 19/19/19 25/25/25 18/18/18
f 25/25/25 24/24/24 18/18/18
f 20/20/20 21/21/21 26/26/26
f 26/26/26 21/21/21 22/22/22
f 19/19/19 20/20/20 27/27/27
f 27/27/27 25/25/25 19/19/19
f 20/20/20 26/26/26 27/27/27
f 28/28/28 23/23/23 17/17/17
f 28/28/28 17/17/17 29/29/29
f 30/30/30 24/24/24 25/25/25
f 30/30/30 25/25/25 27/27/27
f 31/31/31 8/8/8 24/24/24
f 31/31/31 24/24/24 30/30/30
f 23/23/23 32/32/32 22/22/22
f 32/32/32 23/23/23 28/28/28
f 26/26/26 22/22/22 33/33/33
f 33/33/33 22/22/22 32/32/32
f 31/31/31 34/34/34 8/8/8
f 34/34/34 9/9/9 8/8/8
f 27/27/27 26/26/26 35/35/35
f 30/30/30 27/27/27 36/36/36
f 36/36/36 27/27/27 35/35/35
f 30/30/30 36/36/36 37/37/37
f 37/37/37 36/36/36 35/35/35
f 30/30/30 38/38/38 31/31/31
f 38/38/38 30/30/30 37/37/37
f 39/39/39 34/34/34 31/31/31
f 39/39/39 31/31/31 38/38/38
f 35/35/35 26/26/26 40/40/40
f 40/40/40 26/26/26 33/33/33
f 35/35/35 41/41/41 37/37/37
f 35/35/35 40/40/40 41/41/41
f 40/40/40 33/33/33 42/42/42
f 42/42/42 41/41/41 40/40/40
f 9/9/9 34/34/34 43/43/43
f 43/43/43 34/34/34 39/39/39
f 37/37/37 44/44/44 38/38/38
f 37/37/37 41/41/41 44/44/44
f 42/42/42 33/33/33 45/45/45
f 45/45/45 33/33/33 32/32/32
f 43/43/43 39/39/39 46/46/46
f 47/47/47 39/39/39 38/38/38
f 46/46/46 39/39/39 47/47/47
f 38/38/38 48/48/48 47/47/47
f 48/48/48 38/38/38 44/44/44
f 43/43/43 49/49/49 9/9/9
f 49/49/49 43/43/43 46/46/46
f 47/47/47 48/48/48 50/50/50
f 50/50/50 46/46/46 47/47/47
f 42/42/42 51/51/51 41/41/41
f 52/52/52 42/42/42 45/45/45
f 51/51/51 42/42/42 52/52/52
f 53/53/53 44/44/44 41/41/41
f 41/41/41 51/51/51 53/53/53
f 54/54/54 44/44/44 53/53/53
f 54/54/54 48/48/48 44/44/44
f 54/54/54 53/53/53 51/51/51
f 48/48/48 55/55/55 50/50/50
f 48/48/48 54/54/54 55/55/55
f 56/56/56 54/54/54 51/51/51
f 56/56/56 51/51/51 52/52/52
f 52/52/52 45/45/45 57/57/57
f 45/45/45 32/32/32 57/57/57
f 58/58/58 57/57/57 32/32/32
f 58/58/58 52/52/52 57/57/57
f 58/58/58 32/32/32 28/28/28
f 55/55/55 54/54/54 59/59/59
f 59/59/59 54/54/54 56/56/56
f 56/56/56 52/52/52 60/60/60
f 52/52/52 58/58/58 60/60/60
f 61/61/61 58/58/58 28/28/28
f 28/28/28 29/29/29 61/61/61
f 62/62/62 58/58/58 61/61/61
f 62/62/62 60/60/60 58/58/58
f 56/56/56 63/63/63 59/59/59
f 60/60/60 63/63/63 56/56/56
f 29/29/29 64/64/64 61/61/61
f 64/64/64 62/62/62 61/61/61
f 55/55/55 59/59/59 65/65/65
f 59/59/59 63/63/63 66/66/66
f 66/66/66 65/65/65 59/59/59
f 60/60/60 67/67/67 63/63/63
f 67/67/67 66/66/66 63/63/63
f 68/68/68 60/60/60 62/62/62
f 68/68/68 67/67/67 60/60/60
f 68/68/68 62/62/62 69/69/69
f 62/62/62 64/64/64 69/69/69
f 70/70/70 67/67/67 68/68/68
f 69/69/69 70/70/70 68/68/68
f 67/67/67 71/71/71 66/66/66
f 67/67/67 70/70/70 71/71/71
f 55/55/55 65/65/65 72/72/72
f 72/72/72 50/50/50 55/55/55
f 73/73/73 65/65/65 66/66/66
f 71/71/71 73/73/73 66/66/66
f 74/74/74 50/50/50 72/72/72
f 50/50/50 74/74/74 46/46/46
f 75/75/75 72/72/72 65/65/65
f 73/73/73 75/75/75 65/65/65
f 75/75/75 74/74/74 72/72/72
f 76/76/76 46/46/46 74/74/74
f 76/76/76 49/49/49 46/46/46
f 69/69/69 77/77/77 70/70/70
f 78/78/78 71/71/71 70/70/70
f 77/77/77 78/78/78 70/70/70
f 79/79/79 77/77/77 69/69/69
f 79/79/79 69/69/69 64/64/64
f 80/80/80 79/79/79 64/64/64
f 80/80/80 64/64/64 29/29/29
f 80/80/80 29/29/29 81/81/81
f 81/81/81 29/29/29 82/82/82
f 82/82/82 83/83/83 81/81/81
f 84/84/84 76/76/76 74/74/74
f 76/76/76 85/85/85 49/49/49
f 85/85/85 76/76/76 84/84/84
f 84/84/84 74/74/74 86/86/86
f 87/87/87 84/84/84 86/86/86
f 86/86/86 74/74/74 75/75/75
f 75/75/75 88/88/88 86/86/86
f 87/87/87 86/86/86 88/88/88
f 75/75/75 73/73/73 88/88/88
f 88/88/88 73/73/73 89/89/89
f 88/88/88 89/89/89 87/87/87
f 73/73/73 71/71/71 89/89/89
f 89/89/89 71/71/71 90/90/90
f 90/90/90 87/87/87 89/89/89
f 90/90/90 71/71/71 78/78/78
f 90/90/90 78/78/78 91/91/91
f 77/77/77 91/91/91 78/78/78
f 92/92/92 90/90/90 91/91/91
f 92/92/92 87/87/87 90/90/90
f 93/93/93 84/84/84 87/87/87
f 84/84/84 93/93/93 85/85/85
f 94/94/94 91/91/91 77/77/77
f 92/92/92 91/91/91 94/94/94
f 93/93/93 87/87/87 95/95/95
f 95/95/95 87/87/87 92/92/92
f 96/96/96 85/85/85 93/93/93
f 95/95/95 96/96/96 93/93/93
f 77/77/77 97/97/97 94/94/94
f 97/97/97 77/77/77 79/79/79
f 94/94/94 98/98/98 92/92/92
f 92/92/92 98/98/98 95/95/95
f 96/96/96 99/99/99 85/85/85
f 99/99/99 49/49/49 85/85/85
f 97/97/97 79/79/79 100/100/100
f 100/100/100 79/79/79 80/80/80
f 94/94/94 97/97/97 101/101/101
f 94/94/94 101/101/101 98/98/98
f 102/102/102 49/49/49 99/99/99
f 102/102/102 9/9/9 49/49/49
f 97/97/97 100/100/100 103/103/103
f 97/97/97 103/103/103 101/101/101
f 102/102/102 104/104/104 9/9/9
f 104/104/104 105/105/105 9/9/9
f 106/106/106 105/105/105 104/104/104
f 106/106/106 107/107/107 105/105/105
f 100/100/100 80/80/80 108/108/108
f 109/109/109 103/103/103 100/100/100
f 109/109/109 100/100/100 108/108/108
f 110/110/110 108/108/108 80/80/80
f 110/110/110 80/80/80 81/81/81
f 111/111/111 109/109/109 108/108/108
f 111/111/111 108/108/108 110/110/110
f 110/110/110 81/81/81 112/112/112
f 112/112/112 81/81/81 83/83/83
f 83/83/83 113/113/113 112/112/112
f 113/113/113 83/83/83 114/114/114
f 115/115/115 113/113/113 114/114/114
f 110/110/110 112/112/112 116/116/116
f 110/110/110 116/116/116 111/111/111
f 112/112/112 113/113/113 116/116/116
f 111/111/111 116/116/116 117/117/117
f 117/117/117 116/116/116 113/113/113
f 109/109/109 111/111/111 118/118/118
f 118/118/118 111/111/111 117/117/117
f 109/109/109 119/119/119 103/103/103
f 109/109/109 118/118/118 119/119/119
f 120/120/120 103/103/103 119/119/119
f 103/103/103 120/120/120 101/101/101
f 121/121/121 119/119/119 118/118/118
f 120/120/120 119/119/119 121/121/121
f 122/122/122 118/118/118 117/117/117
f 121/121/121 118/118/118 122/122/122
f 123/123/123 121/121/121 122/122/122
f 124/124/124 122/122/122 117/117/117
f 123/123/123 122/122/122 124/124/124
f 125/125/125 117/117/117 113/113/113
f 125/125/125 124/124/124 117/117/117
f 113/113/113 126/126/126 125/125/125
f 124/124/124 125/125/125 126/126/126
f 115/115/115 126/126/126 113/113/113
f 115/115/115 127/127/127 126/126/126
f 126/126/126 127/127/127 124/124/124
f 115/115/115 128/128/128 127/127/127
f 124/124/124 127/127/127 129/129/129
f 123/123/123 124/124/124 129/129/129
f 128/128/128 130/130/130 127/127/127
f 129/129/129 127/127/127 130/130/130
f 128/128/128 131/131/131 130/130/130
f 107/107/107 130/130/130 131/131/131
f 129/129/129 130/130/130 132/132/132
f 132/132/132 130/130/130 107/107/107
f 132/132/132 123/123/123 129/129/129
f 106/106/106 132/132/132 107/107/107
f 132/132/132 106/106/106 133/133/133
f 104/104/104 133/133/133 106/106/106
f 133/133/133 134/134/134 132/132/132
f 132/132/132 134/134/134 123/123/123
f 135/135/135 133/133/133 104/104/104
f 134/134/134 133/133/133 135/135/135
f 135/135/135 104/104/104 102/102/102
f 102/102/102 136/136/136 135/135/135
f 135/135/135 137/137/137 134/134/134
f 137/137/137 123/123/123 134/134/134
f 137/137/137 135/135/135 136/136/136
f 123/123/123 137/137/137 138/138/138
f 123/123/123 138/138/138 121/121/121
f 121/121/121 138/138/138 120/120/120
f 137/137/137 139/139/139 138/138/138
f 137/137/137 136/136/136 139/139/139
f 138/138/138 140/140/140 120/120/120
f 138/138/138 139/139/139 140/140/140
f 141/141/141 136/136/136 102/102/102
f 141/141/141 102/102/102 99/99/99
f 141/141/141 99/99/99 142/142/142
f 141/141/141 142/142/142 136/136/136
f 142/142/142 99/99/99 143/143/143
f 142/142/142 143/143/143 136/136/136
f 96/96/96 143/143/143 99/99/99
f 144/144/144 139/139/139 136/136/136
f 144/144/144 136/136/136 143/143/143
f 143/143/143 96/96/96 144/144/144
f 140/140/140 139/139/139 144/144/144
f 144/144/144 96/96/96 95/95/95
f 144/144/144 95/95/95 145/145/145
f 144/144/144 145/145/145 140/140/140
f 145/145/145 95/95/95 98/98/98
f 120/120/120 140/140/140 146/146/146
f 140/140/140 145/145/145 146/146/146
f 146/146/146 145/145/145 98/98/98
f 101/101/101 120/120/120 146/146/146
f 98/98/98 101/101/101 146/146/146
