g Wiring_box
v 0.09046631 0.6510559 -0.1814783
v 0.09046631 0.6510559 0.10651
v -0.1908276 0.6510559 0.10651
v -0.1908276 0.6510559 -0.1814783
v 0.09046631 0.5853348 -0.3951636
v -0.1908276 0.5853348 -0.3951636
v -0.1908276 0.2839597 -0.3951636
v 0.09046631 0.2839597 -0.3951636
v -0.1908276 0.229035 -0.3293579
v 0.1561865 0.229035 -0.3293579
v 0.09046631 0.2839597 -0.3951636
v -0.1908276 0.2839597 -0.3951636
v 0.1561865 0.5853348 -0.3294421
v 0.09046631 0.5853348 -0.3951636
v 0.09046631 0.2839597 -0.3951636
v 0.1561865 0.229035 -0.3293579
v 0.1908276 0.5506949 -0.2948022
v 0.1561865 0.229035 -0.3293579
v 0.1908276 0.2279813 -0.2948022
v 0.1908276 -0.2271768 -0.2948022
v 0.1561865 -0.2253184 -0.3293579
v 0.1908276 -0.5506949 -0.2948022
v 0.1561865 -0.5853348 -0.3294421
v 0.1561865 -0.2253184 -0.3293579
v 0.09046631 -0.2839597 -0.3951636
v 0.09046631 -0.5853348 -0.3951636
v 0.1561865 0.5853348 -0.276366
v 0.1561865 0.5853348 -0.3294421
v 0.1908276 0.5506949 -0.2948022
v 0.1908276 0.5506949 0.219834
v 0.1561865 0.5853348 0.2013977
v 0.1561865 0.5853348 0.2544739
v -0.1908276 0.6135144 -0.2184839
v 0.09046631 0.6510559 -0.1814783
v -0.1908276 0.6510559 -0.1814783
v 0.09830566 0.6135144 -0.2184839
v -0.1908276 0.5853348 -0.276366
v 0.1561865 0.5853348 -0.276366
v -0.1908276 0.5853348 -0.3294421
v 0.1561865 0.5853348 -0.3294421
v 0.09046631 0.5853348 -0.3951636
v -0.1908276 0.5853348 -0.3951636
v 0.06705566 0.5561267 0.3951636
v 0.06705566 0.3884473 0.3951636
v -0.1908264 0.3884473 0.3951636
v -0.1908264 0.5561267 0.3951636
v 0.1561865 0.5853348 0.2544739
v 0.09046631 0.5853348 0.3201953
v -0.1908276 0.5853348 0.3201953
v -0.1908276 0.5853348 0.2544739
v 0.1561865 0.5853348 0.2013977
v -0.1908276 0.5853348 0.2013977
v 0.09830566 0.6135144 0.1435156
v -0.1908276 0.6135144 0.1435156
v 0.09046631 0.6510559 0.10651
v -0.1908276 0.6510559 0.10651
v 0.1561865 0.5853348 0.2544739
v 0.09046631 0.3500934 0.3201953
v 0.09046631 0.5853348 0.3201953
v 0.1561865 0.2271768 0.2544739
v 0.1908276 0.5506949 0.219834
v 0.1908276 0.2279813 0.219834
v 0.09046631 -0.3492657 0.3201953
v 0.1561865 -0.2271768 0.2544739
v 0.1908276 -0.2271768 0.219834
v 0.1561865 -0.5853348 0.2544739
v 0.09046631 -0.5853348 0.3201953
v 0.1908276 -0.5506949 0.219834
v 0.1561865 0.5853348 0.2013977
v 0.09830566 0.6135144 -0.2184839
v 0.1561865 0.5853348 -0.276366
v 0.09830566 0.6135144 0.1435156
v 0.09046631 0.6510559 0.10651
v 0.09046631 0.6510559 -0.1814783
v 0.1561865 0.229035 -0.3293579
v -0.1908276 0.229035 -0.3293579
v -0.1908276 -0.2253184 -0.3293579
v 0.1561865 -0.2253184 -0.3293579
v 0.09046631 -0.5853348 -0.3951636
v 0.09046631 -0.2839597 -0.3951636
v -0.1908276 -0.2839597 -0.3951636
v -0.1908276 -0.5853348 -0.3951636
v -0.1908276 -0.2253184 -0.3293579
v -0.1908276 -0.2839597 -0.3951636
v 0.09046631 -0.2839597 -0.3951636
v 0.1561865 -0.2253184 -0.3293579
v -0.1908276 -0.6135144 -0.2184839
v -0.1908276 -0.6510559 -0.1814783
v 0.09046631 -0.6510559 -0.1814783
v 0.09830566 -0.6135144 -0.2184839
v -0.1908276 -0.5853348 -0.276366
v 0.1561865 -0.5853348 -0.276366
v -0.1908276 -0.5853348 -0.3294421
v 0.1561865 -0.5853348 -0.3294421
v 0.09046631 -0.5853348 -0.3951636
v -0.1908276 -0.5853348 -0.3951636
v 0.09046631 -0.6510559 0.10651
v 0.09046631 -0.6510559 -0.1814783
v -0.1908276 -0.6510559 -0.1814783
v -0.1908276 -0.6510559 0.10651
v 0.06705322 -0.5560529 0.3951636
v -0.1908264 -0.5560529 0.3951636
v -0.1908264 -0.3877164 0.3951636
v 0.06705322 -0.3877164 0.3951636
v 0.1561865 -0.5853348 0.2013977
v 0.1561865 -0.5853348 0.2544739
v 0.1908276 -0.5506949 0.219834
v 0.1908276 -0.5506949 -0.2948022
v 0.1561865 -0.5853348 -0.276366
v 0.1561865 -0.5853348 -0.3294421
v 0.1908276 0.5506949 0.219834
v 0.1908276 0.5506949 -0.2948022
v 0.1908276 0.2279813 -0.2948022
v 0.1908276 0.2279813 0.219834
v 0.1908276 -0.2271768 0.219834
v 0.1908276 -0.2271768 -0.2948022
v 0.1908276 -0.5506949 0.219834
v 0.1908276 -0.5506949 -0.2948022
v 0.1561865 -0.5853348 0.2544739
v -0.1908276 -0.5853348 0.3201953
v 0.09046631 -0.5853348 0.3201953
v -0.1908276 -0.5853348 0.2544739
v 0.1561865 -0.5853348 0.2013977
v -0.1908276 -0.5853348 0.2013977
v 0.09830566 -0.6135144 0.1435156
v -0.1908276 -0.6135144 0.1435156
v 0.09046631 -0.6510559 0.10651
v -0.1908276 -0.6510559 0.10651
v 0.1561865 -0.5853348 -0.276366
v 0.09830566 -0.6135144 0.1435156
v 0.1561865 -0.5853348 0.2013977
v 0.09830566 -0.6135144 -0.2184839
v 0.09046631 -0.6510559 0.10651
v 0.09046631 -0.6510559 -0.1814783
v 0.02484863 0.2279813 0.1701111
v 0.02484863 -0.2308955 0.1701111
v -0.1446265 -0.2308955 0.1701111
v -0.1446265 0.2279813 0.1701111
v 0.03985596 0.2429883 0.3201953
v 0.03985596 -0.2459024 0.3201953
v 0.02484863 -0.2308955 0.305188
v 0.02484863 0.2279813 0.305188
v 0.02484863 0.2279813 0.305188
v -0.1446265 0.2279813 0.305188
v -0.1596338 0.2429883 0.3201953
v 0.03985596 0.2429883 0.3201953
v -0.1446265 0.2279813 0.305188
v -0.1446265 -0.2308955 0.305188
v -0.1596338 -0.2459024 0.3201953
v -0.1596338 0.2429883 0.3201953
v -0.1446265 -0.2308955 0.305188
v 0.02484863 -0.2308955 0.305188
v 0.03985596 -0.2459024 0.3201953
v -0.1596338 -0.2459024 0.3201953
v 0.02484863 0.2279813 0.305188
v 0.02484863 0.2279813 0.1701111
v -0.1446265 0.2279813 0.1701111
v -0.1446265 0.2279813 0.305188
v -0.1446265 0.2279813 0.305188
v -0.1446265 0.2279813 0.1701111
v -0.1446265 -0.2308955 0.1701111
v -0.1446265 -0.2308955 0.305188
v -0.1446265 -0.2308955 0.305188
v -0.1446265 -0.2308955 0.1701111
v 0.02484863 -0.2308955 0.1701111
v 0.02484863 -0.2308955 0.305188
v 0.02484863 -0.2308955 0.305188
v 0.02484863 -0.2308955 0.1701111
v 0.02484863 0.2279813 0.1701111
v 0.02484863 0.2279813 0.305188
v 0.09046631 0.5853348 0.3201953
v 0.06705566 0.5561267 0.3951636
v -0.1908264 0.5561267 0.3951636
v -0.1908276 0.5853348 0.3201953
v -0.1908276 0.3500934 0.3201953
v -0.1908264 0.3884473 0.3951636
v 0.06705566 0.3884473 0.3951636
v 0.09046631 0.3500934 0.3201953
v 0.09046631 0.3500934 0.3201953
v 0.06705566 0.3884473 0.3951636
v 0.06705566 0.5561267 0.3951636
v 0.09046631 0.5853348 0.3201953
v 0.09046631 -0.5853348 0.3201953
v 0.06705322 -0.5560529 0.3951636
v 0.06705322 -0.3877164 0.3951636
v 0.09046631 -0.3492657 0.3201953
v 0.09046631 -0.3492657 0.3201953
v 0.06705322 -0.3877164 0.3951636
v -0.1908264 -0.3877164 0.3951636
v -0.1908276 -0.3492657 0.3201953
v -0.1908276 -0.5853348 0.3201953
v -0.1908264 -0.5560529 0.3951636
v 0.06705322 -0.5560529 0.3951636
v 0.09046631 -0.5853348 0.3201953
v 0.09046631 0.3500934 0.3201953
v -0.1596338 0.2429883 0.3201953
v -0.1908276 0.3500934 0.3201953
v 0.03985596 0.2429883 0.3201953
v -0.1596338 -0.2459024 0.3201953
v 0.09046631 -0.3492657 0.3201953
v -0.1908276 -0.3492657 0.3201953
v 0.03985596 -0.2459024 0.3201953
vt 0.4792766 0.2458429
vt 0.4504341 0.2461358
vt 0.447377 0.275509
vt 0.4818539 0.2763572
vt 0.5063437 0.2356933
vt 0.5372368 0.2372675
vt 0.5379732 0.2041089
vt 0.5084005 0.2040727
vt 0.5375991 0.1948107
vt 0.4996595 0.1956606
vt 0.5084005 0.2040727
vt 0.5379732 0.2041089
vt 0.4963686 0.2346331
vt 0.5063437 0.2356933
vt 0.5084005 0.2040727
vt 0.4996595 0.1956606
vt 0.4918967 0.2300613
vt 0.4996595 0.1956606
vt 0.4941982 0.1953118
vt 0.4971106 0.1449423
vt 0.5025972 0.1450062
vt 0.4954446 0.1099762
vt 0.5000322 0.1055116
vt 0.5025972 0.1450062
vt 0.5115923 0.1364742
vt 0.5101154 0.1046678
vt 0.4904301 0.235366
vt 0.4963686 0.2346331
vt 0.4918967 0.2300613
vt 0.4381035 0.2300097
vt 0.4394874 0.235352
vt 0.4335457 0.2344208
vt 0.4879986 0.2753898
vt 0.4792766 0.2458429
vt 0.4818539 0.2763572
vt 0.4841575 0.2423497
vt 0.4951444 0.2742378
vt 0.4904301 0.235366
vt 0.5010383 0.2733654
vt 0.4963686 0.2346331
vt 0.5044597 0.2409667
vt 0.5082996 0.272315
vt 0.4158636 0.2339405
vt 0.4146276 0.2168942
vt 0.3884998 0.2158334
vt 0.3879466 0.2343627
vt 0.4335457 0.2344208
vt 0.4254296 0.2405446
vt 0.4210576 0.2713749
vt 0.4283027 0.272507
vt 0.4394874 0.235352
vt 0.4341674 0.2734217
vt 0.4456419 0.2424092
vt 0.4412712 0.2745764
vt 0.4504341 0.2461358
vt 0.447377 0.275509
vt 0.4335457 0.2344208
vt 0.4207879 0.2091127
vt 0.4244344 0.2357188
vt 0.4308001 0.1948622
vt 0.4381035 0.2300097
vt 0.4362999 0.1947504
vt 0.4212126 0.1301555
vt 0.4312115 0.1444293
vt 0.4366944 0.1446887
vt 0.4342978 0.1047924
vt 0.4251407 0.1034297
vt 0.4388231 0.1092993
vt 0.4394874 0.235352
vt 0.4841575 0.2423497
vt 0.4904301 0.235366
vt 0.4456419 0.2424092
vt 0.4504341 0.2461358
vt 0.4792766 0.2458429
vt 0.4996595 0.1956606
vt 0.5375991 0.1948107
vt 0.5384527 0.1467005
vt 0.5025972 0.1450062
vt 0.5101154 0.1046678
vt 0.5115923 0.1364742
vt 0.5389044 0.1370713
vt 0.538698 0.1037213
vt 0.5384527 0.1467005
vt 0.5389044 0.1370713
vt 0.5115923 0.1364742
vt 0.5025972 0.1450062
vt 0.4901056 0.06541906
vt 0.4840329 0.06443571
vt 0.4832027 0.09382831
vt 0.4879879 0.09745918
vt 0.4971726 0.0666367
vt 0.4940899 0.1045883
vt 0.503009 0.06760551
vt 0.5000322 0.1055116
vt 0.5082229 0.09952058
vt 0.510199 0.06880264
vt 0.4542269 0.09346585
vt 0.4832027 0.09382831
vt 0.4840329 0.06443571
vt 0.4494026 0.06283186
vt 0.4165152 0.1051641
vt 0.3885694 0.1045371
vt 0.3890063 0.1231728
vt 0.4151221 0.1223044
vt 0.440312 0.1040205
vt 0.4342978 0.1047924
vt 0.4388231 0.1092993
vt 0.4954446 0.1099762
vt 0.4940899 0.1045883
vt 0.5000322 0.1055116
vt 0.4381035 0.2300097
vt 0.4918967 0.2300613
vt 0.4941982 0.1953118
vt 0.4362999 0.1947504
vt 0.4366944 0.1446887
vt 0.4971106 0.1449423
vt 0.4388231 0.1092993
vt 0.4954446 0.1099762
vt 0.4342978 0.1047924
vt 0.4225984 0.06675108
vt 0.4262535 0.09829102
vt 0.4299676 0.06572254
vt 0.440312 0.1040205
vt 0.4359336 0.06488101
vt 0.4467025 0.09707965
vt 0.4431731 0.06376658
vt 0.4542269 0.09346585
vt 0.4494026 0.06283186
vt 0.4940899 0.1045883
vt 0.4467025 0.09707965
vt 0.440312 0.1040205
vt 0.4879879 0.09745918
vt 0.4542269 0.09346585
vt 0.4832027 0.09382831
vt 0.3623982 0.2869462
vt 0.3624017 0.3412862
vt 0.3824708 0.3412852
vt 0.3824672 0.2869452
vt 0.3446248 0.2851703
vt 0.3446293 0.3430645
vt 0.3464065 0.3412874
vt 0.3464024 0.2869474
vt 0.3623982 0.2709501
vt 0.3824672 0.2709501
vt 0.3842444 0.2691729
vt 0.360621 0.2691729
vt 0.3984633 0.2869443
vt 0.3984663 0.3412845
vt 0.4002435 0.3430612
vt 0.4002406 0.285167
vt 0.3824717 0.3572808
vt 0.362403 0.3572819
vt 0.3606258 0.3590592
vt 0.3842492 0.3590578
vt 0.3623982 0.2709501
vt 0.3623982 0.2869462
vt 0.3824672 0.2869452
vt 0.3824672 0.2709501
vt 0.3984633 0.2869443
vt 0.3824672 0.2869452
vt 0.3824708 0.3412852
vt 0.3984663 0.3412845
vt 0.3824717 0.3572808
vt 0.3824708 0.3412852
vt 0.3624017 0.3412862
vt 0.362403 0.3572819
vt 0.3464065 0.3412874
vt 0.3624017 0.3412862
vt 0.3623982 0.2869462
vt 0.3464024 0.2869474
vt 0.4254296 0.2405446
vt 0.4163062 0.2417573
vt 0.4122413 0.2700014
vt 0.4210576 0.2713749
vt 0.3895277 0.20671
vt 0.3884998 0.2158334
vt 0.4146276 0.2168942
vt 0.4207879 0.2091127
vt 0.4207879 0.2091127
vt 0.4146276 0.2168942
vt 0.4158636 0.2339405
vt 0.4244344 0.2357188
vt 0.4251407 0.1034297
vt 0.4165152 0.1051641
vt 0.4151221 0.1223044
vt 0.4212126 0.1301555
vt 0.4212126 0.1301555
vt 0.4151221 0.1223044
vt 0.3890063 0.1231728
vt 0.3900008 0.1323146
vt 0.4225984 0.06675108
vt 0.4136373 0.06796111
vt 0.4170566 0.09681545
vt 0.4262535 0.09829102
vt 0.4207879 0.2091127
vt 0.3930448 0.1955563
vt 0.3895277 0.20671
vt 0.4153132 0.1966991
vt 0.3933747 0.1431279
vt 0.4212126 0.1301555
vt 0.3900008 0.1323146
vt 0.4155197 0.1421742
vn 0 1 0
vn 0 1 0
vn 0 1 0
vn 0 1 0
vn 0 0 -1
vn 0 0 -1
vn 0 0 -1
vn 0 0 -1
vn 0 -0.7677249 -0.6407796
vn 0 -0.7677249 -0.6407795
vn 0 -0.7677249 -0.6407796
vn 0 -0.7677249 -0.6407796
vn 0.7073207 -9.051299E-05 -0.7068927
vn 0.7073207 -9.051298E-05 -0.7068927
vn 0.7073207 -9.051299E-05 -0.7068927
vn 0.7073207 -9.051299E-05 -0.7068927
vn 0.7066418 -8.776234E-05 -0.7075716
vn 0.7064104 -3.811865E-05 -0.7078025
vn 0.7064049 -3.693853E-05 -0.7078079
vn 0.706414 3.845581E-05 -0.707799
vn 0.7064043 3.639332E-05 -0.7078086
vn 0.7066434 8.7182E-05 -0.7075698
vn 0.7073196 9.000433E-05 -0.7068938
vn 0.7073196 9.000433E-05 -0.7068938
vn 0.7073196 9.000432E-05 -0.7068938
vn 0.7073196 9.000432E-05 -0.7068938
vn 0.7070941 0.7071194 0
vn 0.7070944 0.7071191 0
vn 0.7070942 0.7071193 0
vn 0.7070941 0.7071194 0
vn 0.7070941 0.7071194 0
vn 0.7070943 0.7071192 0
vn 0 0.827269 -0.5618059
vn 0 0.7020056 -0.7121714
vn 0 0.7020056 -0.7121714
vn 0 0.848049 -0.5299179
vn 0 0.9716383 -0.2364721
vn 0 0.9859552 -0.1670104
vn 0 1 0
vn 0 1 0
vn 0 1 0
vn 0 1 0
vn 0 0 1
vn 0 0 1
vn 0 0 1
vn 0 0 1
vn 0 1 0
vn 0 1 0
vn 0 1 0
vn 0 1 0
vn 0 0.9859553 0.16701
vn 0 0.9716384 0.2364715
vn 0 0.8480494 0.5299172
vn 0 0.8272694 0.5618055
vn 0 0.7020055 0.7121715
vn 0 0.7020056 0.7121714
vn 0.7070944 0 0.7071191
vn 0.7071135 0 0.7071
vn 0.7071136 0 0.7071
vn 0.7070943 0 0.7071192
vn 0.7070944 0 0.7071191
vn 0.7070943 0 0.7071192
vn 0.7071133 0 0.7071003
vn 0.7071133 0 0.7071003
vn 0.7070943 0 0.7071192
vn 0.7071133 0 0.7071003
vn 0.7071133 0 0.7071003
vn 0.7070945 0 0.707119
vn 0.4377342 0.8991045 0
vn 0.5382146 0.8428079 0
vn 0.4377342 0.8991045 0
vn 0.5382146 0.8428079 0
vn 0.9788855 0.2044092 0
vn 0.9788855 0.2044092 0
vn 0 0 -1
vn 0 0 -1
vn 0 0 -1
vn 0 0 -1
vn 0 0 -1
vn 0 0 -1
vn 0 0 -1
vn 0 0 -1
vn 0 0.7465789 -0.6652968
vn 0 0.7465789 -0.6652968
vn 0 0.7465789 -0.6652968
vn 0 0.7465789 -0.6652968
vn 0 -0.8272696 -0.5618052
vn 0 -0.7020056 -0.7121714
vn 0 -0.7020055 -0.7121715
vn 0 -0.8480495 -0.529917
vn 0 -0.9716385 -0.2364713
vn 0 -0.9859553 -0.1670098
vn 0 -1 0
vn 0 -1 0
vn 0 -1 0
vn 0 -1 0
vn 0 -1 0
vn 0 -1 0
vn 0 -1 0
vn 0 -1 0
vn 0 0 1
vn 0 0 1
vn 0 0 1
vn 0 0 1
vn 0.7070941 -0.7071194 0
vn 0.7070944 -0.7071191 0
vn 0.7070942 -0.7071193 0
vn 0.7070941 -0.7071194 0
vn 0.7070941 -0.7071194 0
vn 0.7070943 -0.7071192 0
vn 1 0 0
vn 1 0 0
vn 1 0 0
vn 1 0 0
vn 1 0 0
vn 1 0 0
vn 1 0 0
vn 1 0 0
vn 0 -1 0
vn 0 -1 0
vn 0 -1 0
vn 0 -1 0
vn 0 -0.9859553 0.1670098
vn 0 -0.9716385 0.2364713
vn 0 -0.8480495 0.529917
vn 0 -0.8272696 0.5618052
vn 0 -0.7020055 0.7121715
vn 0 -0.7020056 0.7121714
vn 0.4377342 -0.8991045 0
vn 0.5382145 -0.8428079 0
vn 0.4377342 -0.8991045 0
vn 0.5382145 -0.8428079 0
vn 0.9788855 -0.2044093 0
vn 0.9788855 -0.2044093 0
vn 0 0 1
vn 0 0 1
vn 0 0 1
vn 0 0 1
vn -0.7071069 0 0.7071066
vn -0.7071069 0 0.7071066
vn -0.7071069 0 0.7071066
vn -0.7071069 0 0.7071066
vn 0 -0.7071141 0.7070994
vn 0 -0.7071141 0.7070994
vn 0 -0.707114 0.7070994
vn 0 -0.707114 0.7070994
vn 0.7071069 0 0.7071066
vn 0.7071069 0 0.7071066
vn 0.7071069 0 0.7071066
vn 0.7071069 0 0.7071066
vn 0 0.7071171 0.7070963
vn 0 0.7071171 0.7070963
vn 0 0.7071172 0.7070963
vn 0 0.7071172 0.7070963
vn 0 -1 0
vn 0 -1 0
vn 0 -1 0
vn 0 -1 0
vn 1 0 0
vn 1 0 0
vn 1 0 0
vn 1 0 0
vn 0 1 0
vn 0 1 0
vn 0 1 0
vn 0 1 0
vn -1 0 0
vn -1 0 0
vn -1 0 0
vn -1 0 0
vn 0 0.9317789 0.3630262
vn 0 0.9317789 0.3630262
vn 0 0.9317789 0.3630262
vn 0 0.9317789 0.3630262
vn 0 -0.8902577 0.4554572
vn 0 -0.8902577 0.4554573
vn 0 -0.8902577 0.4554572
vn 0 -0.8902577 0.4554572
vn 0.9545414 0 0.2980786
vn 0.9545414 0 0.2980786
vn 0.9545414 0 0.2980786
vn 0.9545414 0 0.2980786
vn 0.9545325 0 0.2981068
vn 0.9545325 0 0.2981068
vn 0.9545325 0 0.2981068
vn 0.9545325 0 0.2981069
vn 0 0.8897917 0.4563669
vn 0 0.8897917 0.456367
vn 0 0.8897917 0.456367
vn 0 0.8897917 0.456367
vn 0 -0.9314681 0.363823
vn 0 -0.9314681 0.363823
vn 0 -0.9314681 0.363823
vn 0 -0.9314681 0.363823
vn 0 0 1
vn 0 0 1
vn 0 0 1
vn 0 0 1
vn 0 0 1
vn 0 0 1
vn 0 0 1
vn 0 0 1
g Wiring_box_0
f 3/3/3 2/2/2 1/1/1
f 4/4/4 3/3/3 1/1/1
f 7/7/7 6/6/6 5/5/5
f 8/8/8 7/7/7 5/5/5
f 11/11/11 10/10/10 9/9/9
f 12/12/12 11/11/11 9/9/9
f 15/15/15 14/14/14 13/13/13
f 16/16/16 15/15/15 13/13/13
f 18/18/18 13/13/13 17/17/17
f 19/19/19 18/18/18 17/17/17
f 19/19/19 20/20/20 18/18/18
f 20/20/20 21/21/21 18/18/18
f 20/20/20 22/22/22 21/21/21
f 22/22/22 23/23/23 21/21/21
f 25/25/25 24/24/24 23/23/23
f 26/26/26 25/25/25 23/23/23
f 29/29/29 28/28/28 27/27/27
f 29/29/29 27/27/27 30/30/30
f 27/27/27 31/31/31 30/30/30
f 31/31/31 32/32/32 30/30/30
f 35/35/35 34/34/34 33/33/33
f 34/34/34 36/36/36 33/33/33
f 33/33/33 36/36/36 37/37/37
f 36/36/36 38/38/38 37/37/37
f 39/39/39 37/37/37 38/38/38
f 40/40/40 39/39/39 38/38/38
f 40/40/40 41/41/41 39/39/39
f 41/41/41 42/42/42 39/39/39
f 45/45/45 44/44/44 43/43/43
f 46/46/46 45/45/45 43/43/43
f 49/49/49 48/48/48 47/47/47
f 50/50/50 49/49/49 47/47/47
f 50/50/50 47/47/47 51/51/51
f 52/52/52 50/50/50 51/51/51
f 51/51/51 53/53/53 52/52/52
f 53/53/53 54/54/54 52/52/52
f 53/53/53 55/55/55 54/54/54
f 55/55/55 56/56/56 54/54/54
f 59/59/59 58/58/58 57/57/57
f 58/58/58 60/60/60 57/57/57
f 57/57/57 60/60/60 61/61/61
f 60/60/60 62/62/62 61/61/61
f 58/58/58 63/63/63 60/60/60
f 60/60/60 64/64/64 62/62/62
f 63/63/63 64/64/64 60/60/60
f 64/64/64 65/65/65 62/62/62
f 64/64/64 63/63/63 66/66/66
f 64/64/64 66/66/66 65/65/65
f 63/63/63 67/67/67 66/66/66
f 66/66/66 68/68/68 65/65/65
f 71/71/71 70/70/70 69/69/69
f 70/70/70 72/72/72 69/69/69
f 73/73/73 72/72/72 70/70/70
f 74/74/74 73/73/73 70/70/70
f 77/77/77 76/76/76 75/75/75
f 78/78/78 77/77/77 75/75/75
f 81/81/81 80/80/80 79/79/79
f 82/82/82 81/81/81 79/79/79
f 85/85/85 84/84/84 83/83/83
f 86/86/86 85/85/85 83/83/83
f 89/89/89 88/88/88 87/87/87
f 90/90/90 89/89/89 87/87/87
f 90/90/90 87/87/87 91/91/91
f 92/92/92 90/90/90 91/91/91
f 91/91/91 93/93/93 92/92/92
f 93/93/93 94/94/94 92/92/92
f 95/95/95 94/94/94 93/93/93
f 96/96/96 95/95/95 93/93/93
f 99/99/99 98/98/98 97/97/97
f 100/100/100 99/99/99 97/97/97
f 103/103/103 102/102/102 101/101/101
f 104/104/104 103/103/103 101/101/101
f 107/107/107 106/106/106 105/105/105
f 107/107/107 105/105/105 108/108/108
f 105/105/105 109/109/109 108/108/108
f 109/109/109 110/110/110 108/108/108
f 113/113/113 112/112/112 111/111/111
f 114/114/114 113/113/113 111/111/111
f 114/114/114 115/115/115 113/113/113
f 115/115/115 116/116/116 113/113/113
f 115/115/115 117/117/117 116/116/116
f 117/117/117 118/118/118 116/116/116
f 121/121/121 120/120/120 119/119/119
f 120/120/120 122/122/122 119/119/119
f 119/119/119 122/122/122 123/123/123
f 122/122/122 124/124/124 123/123/123
f 125/125/125 123/123/123 124/124/124
f 126/126/126 125/125/125 124/124/124
f 127/127/127 125/125/125 126/126/126
f 128/128/128 127/127/127 126/126/126
f 131/131/131 130/130/130 129/129/129
f 130/130/130 132/132/132 129/129/129
f 130/130/130 133/133/133 132/132/132
f 133/133/133 134/134/134 132/132/132
f 137/137/137 136/136/136 135/135/135
f 138/138/138 137/137/137 135/135/135
f 141/141/141 140/140/140 139/139/139
f 142/142/142 141/141/141 139/139/139
f 145/145/145 144/144/144 143/143/143
f 146/146/146 145/145/145 143/143/143
f 149/149/149 148/148/148 147/147/147
f 150/150/150 149/149/149 147/147/147
f 153/153/153 152/152/152 151/151/151
f 154/154/154 153/153/153 151/151/151
f 157/157/157 156/156/156 155/155/155
f 158/158/158 157/157/157 155/155/155
f 161/161/161 160/160/160 159/159/159
f 162/162/162 161/161/161 159/159/159
f 165/165/165 164/164/164 163/163/163
f 166/166/166 165/165/165 163/163/163
f 169/169/169 168/168/168 167/167/167
f 170/170/170 169/169/169 167/167/167
f 173/173/173 172/172/172 171/171/171
f 174/174/174 173/173/173 171/171/171
f 177/177/177 176/176/176 175/175/175
f 178/178/178 177/177/177 175/175/175
f 181/181/181 180/180/180 179/179/179
f 182/182/182 181/181/181 179/179/179
f 185/185/185 184/184/184 183/183/183
f 186/186/186 185/185/185 183/183/183
f 189/189/189 188/188/188 187/187/187
f 190/190/190 189/189/189 187/187/187
f 193/193/193 192/192/192 191/191/191
f 194/194/194 193/193/193 191/191/191
f 197/197/197 196/196/196 195/195/195
f 196/196/196 198/198/198 195/195/195
f 199/199/199 196/196/196 197/197/197
f 195/195/195 198/198/198 200/200/200
f 201/201/201 199/199/199 197/197/197
f 198/198/198 202/202/202 200/200/200
f 202/202/202 199/199/199 201/201/201
f 200/200/200 202/202/202 201/201/201
