g housekit_roof_flat_corner
v 0.000982666 0.35 1.705904
v 0.0009815979 0.35 -7.637024E-05
v 0.04507767 0.3059039 -0.04417191
v 0.04507767 0.3059039 1.750001
v -1.002704 0 1.380105
v 0.0009815979 0 -7.637024E-05
v -1.206257 0 1.206256
v -0.7744626 0 1.519973
v -0.5271522 0 1.622411
v -0.2668611 0 1.684903
v 0.000982666 0 1.705904
v -1.028625 0.04409607 1.415779
v -1.206257 0 1.206256
v -1.237437 0.04409607 1.237437
v -1.002704 0 1.380105
v -0.7944834 0.04409607 1.559262
v -0.7744626 0 1.519973
v -0.5407804 0.04409607 1.664349
v -0.5271522 0 1.622411
v -0.2737601 0.04409607 1.728456
v -0.2668611 0 1.684903
v 0.000982666 0 1.705904
v 0.04507767 0.04409607 1.75
v 0.04507767 0.3059039 1.750001
v 0.04507767 0.3059039 -0.04417191
v 0.04507767 0.04409607 -0.04417191
v 0.04507767 0.04409607 1.75
v -1.002704 0.35 1.380105
v -1.237437 0.305905 1.237437
v -1.206257 0.35 1.206256
v -1.028625 0.3059045 1.415779
v -0.7744626 0.35 1.519973
v -0.7944834 0.3059045 1.559262
v -0.5271522 0.35 1.622411
v -0.5407804 0.3059045 1.664349
v -0.2668611 0.35 1.684903
v -0.2737601 0.3059045 1.728456
v 0.04507767 0.3059039 1.750001
v 0.000982666 0.35 1.705904
v -1.028625 0.3059045 1.415779
v -1.237437 0.04409607 1.237437
v -1.237437 0.305905 1.237437
v -1.028625 0.04409607 1.415779
v -0.7944834 0.3059045 1.559262
v -0.7944834 0.04409607 1.559262
v -0.5407804 0.3059045 1.664349
v -0.5407804 0.04409607 1.664349
v -0.2737601 0.3059045 1.728456
v -0.2737601 0.04409607 1.728456
v 0.04507767 0.04409607 1.75
v 0.04507767 0.3059039 1.750001
v 0.04507767 0.04409607 1.75
v 0.04507767 0.04409607 -0.04417191
v 0.0009815979 0 -7.637024E-05
v 0.000982666 0 1.705904
v -1.206257 0.35 1.206256
v 0.0009815979 0.35 -7.637024E-05
v -1.002704 0.35 1.380105
v -0.7744626 0.35 1.519973
v -0.5271522 0.35 1.622411
v -0.2668611 0.35 1.684903
v 0.000982666 0.35 1.705904
v -1.705904 0.35 -7.69043E-05
v -1.750001 0.3059039 -0.04417191
v 0.04507767 0.3059039 -0.04417191
v 0.0009815979 0.35 -7.637024E-05
v -1.380105 0 1.002704
v -1.206257 0 1.206256
v 0.0009815979 0 -7.637024E-05
v -1.519973 0 0.7744626
v -1.622411 0 0.5271522
v -1.684903 0 0.2668611
v -1.705904 0 -7.69043E-05
v -1.415779 0.04409607 1.028625
v -1.237437 0.04409607 1.237437
v -1.206257 0 1.206256
v -1.380105 0 1.002704
v -1.559262 0.04409607 0.7944834
v -1.519973 0 0.7744626
v -1.664349 0.04409607 0.5407804
v -1.622411 0 0.5271522
v -1.728456 0.04409607 0.2737601
v -1.684903 0 0.2668611
v -1.705904 0 -7.69043E-05
v -1.75 0.04409607 -0.04417191
v -1.750001 0.3059039 -0.04417191
v -1.75 0.04409607 -0.04417191
v 0.04507767 0.04409607 -0.04417191
v 0.04507767 0.3059039 -0.04417191
v -1.380105 0.35 1.002704
v -1.206257 0.35 1.206256
v -1.237437 0.305905 1.237437
v -1.415779 0.3059045 1.028625
v -1.519973 0.35 0.7744626
v -1.559262 0.3059045 0.7944834
v -1.622411 0.35 0.5271522
v -1.664349 0.3059045 0.5407804
v -1.684903 0.35 0.2668611
v -1.728456 0.3059045 0.2737601
v -1.750001 0.3059039 -0.04417191
v -1.705904 0.35 -7.69043E-05
v -1.415779 0.3059045 1.028625
v -1.237437 0.305905 1.237437
v -1.237437 0.04409607 1.237437
v -1.415779 0.04409607 1.028625
v -1.559262 0.3059045 0.7944834
v -1.559262 0.04409607 0.7944834
v -1.664349 0.3059045 0.5407804
v -1.664349 0.04409607 0.5407804
v -1.728456 0.3059045 0.2737601
v -1.728456 0.04409607 0.2737601
v -1.75 0.04409607 -0.04417191
v -1.750001 0.3059039 -0.04417191
v -1.75 0.04409607 -0.04417191
v -1.705904 0 -7.69043E-05
v 0.0009815979 0 -7.637024E-05
v 0.04507767 0.04409607 -0.04417191
v -1.206257 0.35 1.206256
v -1.380105 0.35 1.002704
v 0.0009815979 0.35 -7.637024E-05
v -1.519973 0.35 0.7744626
v -1.622411 0.35 0.5271522
v -1.684903 0.35 0.2668611
v -1.705904 0.35 -7.69043E-05
vt 0.5092022 0.8144273
vt 0.5092022 0.987211
vt 0.5223669 0.9917959
vt 0.5223669 0.8098422
vt 0.6456597 0.9607769
vt 0.5265816 0.805505
vt 0.6755855 0.9582314
vt 0.6145862 0.9620497
vt 0.5831307 0.9633224
vt 0.5520672 0.9645952
vt 0.5269459 0.9645952
vt 0.522367 0.9494487
vt 0.5092022 0.9750519
vt 0.5223669 0.9767392
vt 0.5092022 0.9484485
vt 0.5223669 0.9211811
vt 0.5092022 0.9208935
vt 0.5223669 0.8926328
vt 0.5092022 0.8930647
vt 0.5223668 0.8645066
vt 0.5092021 0.8656472
vt 0.5092021 0.8435241
vt 0.5223668 0.8374953
vt 0.5079693 0.8054873
vt 0.5079693 0.9011409
vt 0.5235479 0.9011409
vt 0.5235479 0.8054873
vt 0.5092022 0.8634995
vt 0.5223669 0.835209
vt 0.5092022 0.8368967
vt 0.5223669 0.8624995
vt 0.5092022 0.8910547
vt 0.5223669 0.8907671
vt 0.5092022 0.9188833
vt 0.522367 0.9193151
vt 0.5092022 0.9463011
vt 0.522367 0.9474416
vt 0.522367 0.9744531
vt 0.5092022 0.9684244
vt 0.5225587 0.8858395
vt 0.5083904 0.9017525
vt 0.5225587 0.9017538
vt 0.5083904 0.8858395
vt 0.5225587 0.8679956
vt 0.5083904 0.8679956
vt 0.5225587 0.8486608
vt 0.5083904 0.8486608
vt 0.5225587 0.8283113
vt 0.5083904 0.8283113
vt 0.5083904 0.807448
vt 0.5225586 0.807448
vt 0.5223669 0.9924672
vt 0.5223669 0.8105137
vt 0.5092021 0.8150986
vt 0.5092021 0.9878824
vt 0.6755855 0.9582314
vt 0.5265816 0.805505
vt 0.6456597 0.9607769
vt 0.6145862 0.9620497
vt 0.5831307 0.9633224
vt 0.5520672 0.9645952
vt 0.5269459 0.9645952
vt 0.5092022 0.9878823
vt 0.5223669 0.9924673
vt 0.5223669 0.8105136
vt 0.5092022 0.8150985
vt 0.6456597 0.9607769
vt 0.6755855 0.9582314
vt 0.5265816 0.805505
vt 0.6145862 0.9620497
vt 0.5831307 0.9633224
vt 0.5520672 0.9645952
vt 0.5269459 0.9645952
vt 0.522367 0.8528608
vt 0.5223669 0.8255703
vt 0.5092022 0.8272576
vt 0.5092022 0.853861
vt 0.5223669 0.8811284
vt 0.5092022 0.881416
vt 0.5223669 0.9096767
vt 0.5092022 0.9092448
vt 0.5223668 0.9378029
vt 0.5092021 0.9366623
vt 0.5092021 0.9587854
vt 0.5223668 0.9648142
vt 0.5079693 0.9968222
vt 0.5235479 0.9968222
vt 0.5235479 0.9011686
vt 0.5079693 0.9011686
vt 0.5092022 0.93881
vt 0.5092022 0.9654129
vt 0.5223669 0.9671005
vt 0.5223669 0.93981
vt 0.5092022 0.9112548
vt 0.5223669 0.9115424
vt 0.5092022 0.8834262
vt 0.522367 0.8829944
vt 0.5092022 0.8560084
vt 0.522367 0.8548679
vt 0.522367 0.8278564
vt 0.5092022 0.8338851
vt 0.5225559 0.917668
vt 0.5225587 0.9017538
vt 0.5083904 0.9017525
vt 0.5083876 0.9176655
vt 0.5225527 0.9355119
vt 0.5083845 0.9355094
vt 0.5225493 0.9548467
vt 0.5083811 0.9548442
vt 0.5225457 0.9751962
vt 0.5083774 0.9751937
vt 0.5083737 0.996057
vt 0.5225419 0.9960595
vt 0.5223669 0.8098423
vt 0.5092021 0.8144271
vt 0.5092021 0.9872109
vt 0.5223669 0.9917958
vt 0.6755855 0.9582314
vt 0.6456597 0.9607769
vt 0.5265816 0.805505
vt 0.6145862 0.9620497
vt 0.5831307 0.9633224
vt 0.5520672 0.9645952
vt 0.5269459 0.9645952
vn 0.7071126 0.7071009 -3.425452E-07
vn 0.7071126 0.7071009 -3.425452E-07
vn 0.7071126 0.7071009 -3.425452E-07
vn 0.7071126 0.7071009 -3.425452E-07
vn 0 -1 0
vn 0 -1 -2.623284E-07
vn 0 -1 0
vn 0 -1 -6.565391E-07
vn 0 -1 -6.570426E-07
vn 0 -1 0
vn 0 -1 0
vn -0.4156247 -0.7071101 0.5720589
vn -0.4599321 -0.7060159 0.5385202
vn -0.4599321 -0.706016 0.5385201
vn -0.415623 -0.7071101 0.5720601
vn -0.3210199 -0.7071115 0.6300313
vn -0.3210185 -0.7071115 0.6300321
vn -0.218509 -0.7071097 0.672495
vn -0.2185072 -0.7071097 0.6724955
vn -0.1072879 -0.7004378 0.7056033
vn -0.1071371 -0.7004201 0.705644
vn -0.05215738 -0.6928049 0.7192364
vn -0.05215738 -0.6928049 0.7192364
vn 1 -1.273384E-06 0
vn 1 -1.273384E-06 0
vn 1 -1.273384E-06 0
vn 1 -1.273384E-06 0
vn -0.4156206 0.7071175 0.5720527
vn -0.4599295 0.7060255 0.5385098
vn -0.4599295 0.7060255 0.5385098
vn -0.4156224 0.7071175 0.5720514
vn -0.3210173 0.7071171 0.6300263
vn -0.3210188 0.7071171 0.6300255
vn -0.2185059 0.7071142 0.6724914
vn -0.2185078 0.7071142 0.6724909
vn -0.107136 0.7004211 0.7056431
vn -0.1072867 0.7004389 0.7056026
vn -0.0521571 0.6928047 0.7192365
vn -0.0521571 0.6928047 0.7192365
vn -0.5877855 0 0.8090168
vn -0.6494464 0 0.7604073
vn -0.6494464 0 0.7604074
vn -0.5877855 0 0.8090168
vn -0.453991 0 0.8910062
vn -0.453991 0 0.8910062
vn -0.3090175 0 0.9510564
vn -0.3090175 0 0.9510564
vn -0.144661 -1.085253E-06 0.9894812
vn -0.1446609 -1.085254E-06 0.9894812
vn -0.06741818 -2.010749E-06 0.9977248
vn -0.06741819 -2.010749E-06 0.9977248
vn 0.7071126 -0.7071009 -3.425452E-07
vn 0.7071126 -0.707101 -3.425453E-07
vn 0.7071125 -0.707101 -3.425452E-07
vn 0.7071125 -0.707101 -3.425452E-07
vn 0 1 0
vn 0 1 6.562835E-07
vn 0 1 1.313024E-06
vn 0 1 1.313942E-06
vn 0 1 0
vn 0 1 3.276824E-07
vn 0 1 6.545171E-07
vn 3.423662E-07 0.7070962 -0.7071174
vn 3.423662E-07 0.7070961 -0.7071174
vn 3.423662E-07 0.7070961 -0.7071174
vn 3.423662E-07 0.7070961 -0.7071174
vn 0 -1 -6.570286E-07
vn 0 -1 1.31329E-06
vn 0 -1 -5.254233E-07
vn 0 -1 -1.969712E-06
vn 0 -1 1.313412E-06
vn 0 -1 0
vn 0 -1 -3.938335E-06
vn -0.5720573 -0.7071115 0.4156245
vn -0.5385154 -0.7060192 0.4599328
vn -0.5385154 -0.7060192 0.4599328
vn -0.5720586 -0.7071114 0.4156227
vn -0.6300329 -0.7071097 0.3210208
vn -0.6300337 -0.7071097 0.3210192
vn -0.6724954 -0.7071097 0.218508
vn -0.672496 -0.7071097 0.2185062
vn -0.7055891 -0.7004265 0.1074557
vn -0.7056282 -0.7004094 0.1073109
vn -0.7192611 -0.6927668 0.05232127
vn -0.7192611 -0.6927668 0.05232127
vn 0 0 -1
vn 0 0 -1
vn 0 0 -1
vn 0 0 -1
vn -0.5720543 0.707117 0.4156193
vn -0.5385113 0.7060254 0.459928
vn -0.5385113 0.7060253 0.459928
vn -0.572053 0.707117 0.4156211
vn -0.6300299 0.7071142 0.3210169
vn -0.6300291 0.7071142 0.3210184
vn -0.672492 0.7071137 0.2185053
vn -0.6724914 0.7071138 0.2185071
vn -0.7056231 0.7004142 0.1073121
vn -0.7055841 0.7004314 0.1074569
vn -0.7192556 0.6927724 0.05232327
vn -0.7192556 0.6927724 0.05232327
vn -0.8090165 0 0.5877859
vn -0.7604067 0 0.6494472
vn -0.7604067 0 0.6494472
vn -0.8090166 0 0.5877859
vn -0.8910061 0 0.4539914
vn -0.8910061 0 0.4539914
vn -0.9510561 0 0.3090181
vn -0.9510561 0 0.3090181
vn -0.9894491 -9.661301E-07 0.1448803
vn -0.9894493 -9.661306E-07 0.1448802
vn -0.9977119 -1.792396E-06 0.06760916
vn -0.9977119 -1.792395E-06 0.06760915
vn 3.423701E-07 -0.7071038 -0.7071097
vn 3.423701E-07 -0.7071038 -0.7071097
vn 3.423701E-07 -0.7071038 -0.7071097
vn 3.423701E-07 -0.7071038 -0.7071097
vn 0 1 6.56645E-07
vn 0 1 9.850091E-07
vn 0 1 5.253336E-07
vn 0 1 -3.285479E-07
vn 0 1 -6.564661E-07
vn 0 1 1.312982E-06
vn 0 1 1.969167E-06
g housekit_roof_flat_corner_0
f 3/3/3 2/2/2 1/1/1
f 4/4/4 3/3/3 1/1/1
f 7/7/7 6/6/6 5/5/5
f 5/5/5 6/6/6 8/8/8
f 8/8/8 6/6/6 9/9/9
f 9/9/9 6/6/6 10/10/10
f 10/10/10 6/6/6 11/11/11
f 14/14/14 13/13/13 12/12/12
f 13/13/13 15/15/15 12/12/12
f 12/12/12 15/15/15 16/16/16
f 15/15/15 17/17/17 16/16/16
f 16/16/16 17/17/17 18/18/18
f 17/17/17 19/19/19 18/18/18
f 18/18/18 19/19/19 20/20/20
f 19/19/19 21/21/21 20/20/20
f 20/20/20 21/21/21 22/22/22
f 23/23/23 20/20/20 22/22/22
f 26/26/26 25/25/25 24/24/24
f 27/27/27 26/26/26 24/24/24
f 30/30/30 29/29/29 28/28/28
f 29/29/29 31/31/31 28/28/28
f 28/28/28 31/31/31 32/32/32
f 31/31/31 33/33/33 32/32/32
f 32/32/32 33/33/33 34/34/34
f 33/33/33 35/35/35 34/34/34
f 34/34/34 35/35/35 36/36/36
f 35/35/35 37/37/37 36/36/36
f 36/36/36 37/37/37 38/38/38
f 39/39/39 36/36/36 38/38/38
f 42/42/42 41/41/41 40/40/40
f 41/41/41 43/43/43 40/40/40
f 40/40/40 43/43/43 44/44/44
f 43/43/43 45/45/45 44/44/44
f 44/44/44 45/45/45 46/46/46
f 45/45/45 47/47/47 46/46/46
f 46/46/46 47/47/47 48/48/48
f 47/47/47 49/49/49 48/48/48
f 48/48/48 49/49/49 50/50/50
f 51/51/51 48/48/48 50/50/50
f 54/54/54 53/53/53 52/52/52
f 55/55/55 54/54/54 52/52/52
f 58/58/58 57/57/57 56/56/56
f 59/59/59 57/57/57 58/58/58
f 60/60/60 57/57/57 59/59/59
f 61/61/61 57/57/57 60/60/60
f 62/62/62 57/57/57 61/61/61
f 65/65/65 64/64/64 63/63/63
f 66/66/66 65/65/65 63/63/63
f 69/69/69 68/68/68 67/67/67
f 69/69/69 67/67/67 70/70/70
f 69/69/69 70/70/70 71/71/71
f 69/69/69 71/71/71 72/72/72
f 69/69/69 72/72/72 73/73/73
f 76/76/76 75/75/75 74/74/74
f 77/77/77 76/76/76 74/74/74
f 77/77/77 74/74/74 78/78/78
f 79/79/79 77/77/77 78/78/78
f 79/79/79 78/78/78 80/80/80
f 81/81/81 79/79/79 80/80/80
f 81/81/81 80/80/80 82/82/82
f 83/83/83 81/81/81 82/82/82
f 83/83/83 82/82/82 84/84/84
f 82/82/82 85/85/85 84/84/84
f 88/88/88 87/87/87 86/86/86
f 89/89/89 88/88/88 86/86/86
f 92/92/92 91/91/91 90/90/90
f 93/93/93 92/92/92 90/90/90
f 93/93/93 90/90/90 94/94/94
f 95/95/95 93/93/93 94/94/94
f 95/95/95 94/94/94 96/96/96
f 97/97/97 95/95/95 96/96/96
f 97/97/97 96/96/96 98/98/98
f 99/99/99 97/97/97 98/98/98
f 99/99/99 98/98/98 100/100/100
f 98/98/98 101/101/101 100/100/100
f 104/104/104 103/103/103 102/102/102
f 105/105/105 104/104/104 102/102/102
f 105/105/105 102/102/102 106/106/106
f 107/107/107 105/105/105 106/106/106
f 107/107/107 106/106/106 108/108/108
f 109/109/109 107/107/107 108/108/108
f 109/109/109 108/108/108 110/110/110
f 111/111/111 109/109/109 110/110/110
f 111/111/111 110/110/110 112/112/112
f 110/110/110 113/113/113 112/112/112
f 116/116/116 115/115/115 114/114/114
f 117/117/117 116/116/116 114/114/114
f 120/120/120 119/119/119 118/118/118
f 120/120/120 121/121/121 119/119/119
f 120/120/120 122/122/122 121/121/121
f 120/120/120 123/123/123 122/122/122
f 120/120/120 124/124/124 123/123/123
