g houseWindow01
v -6.325747 6.411645 -0.2181984
v -6.390193 6.33161 -0.1921931
v -6.390193 6.243268 -0.3655732
v -6.325747 6.311351 -0.4150382
v -6.390193 6.105672 -0.5031683
v -6.325747 6.155138 -0.5712511
v -6.390193 6.105672 -0.5031683
v -6.390193 5.932292 -0.5915098
v -6.325747 5.958298 -0.6715459
v -6.390193 5.7401 -0.6219501
v -6.325747 5.7401 -0.7061051
v -6.390193 5.547906 -0.5915098
v -6.325747 5.521902 -0.6715459
v -6.390193 5.374526 -0.5031682
v -6.325747 5.325061 -0.5712509
v -6.390193 5.374526 -0.5031682
v -6.390193 5.236931 -0.3655731
v -6.325747 5.168849 -0.415038
v -6.390193 5.14859 -0.1921931
v -6.325747 5.068553 -0.2181984
v -6.390193 5.118149 8.988597E-08
v -6.325747 5.033994 7.901557E-08
v -6.390193 5.14859 0.1921933
v -6.325747 5.068553 0.2181985
v -6.390193 5.236931 0.3655732
v -6.325747 5.168849 0.4150381
v -6.390193 5.374526 0.5031683
v -6.325747 5.325062 0.571251
v -6.390193 5.374526 0.5031683
v -6.390193 5.547906 0.5915098
v -6.325747 5.521902 0.6715458
v -6.390193 5.7401 0.6219501
v -6.325747 5.7401 0.7061051
v -6.390193 5.932292 0.5915098
v -6.325747 5.958298 0.6715457
v -6.390193 6.105672 0.5031682
v -6.325747 6.155138 0.5712509
v -6.390193 6.105672 0.5031682
v -6.390193 6.243268 0.3655731
v -6.325747 6.31135 0.4150381
v -6.390193 6.331609 0.1921932
v -6.325747 6.411645 0.2181985
v -6.390193 6.36205 8.988597E-08
v -6.325747 6.446205 7.901557E-08
v -6.390193 6.33161 -0.1921931
v -6.400956 6.061518 0.05105864
v -6.370798 6.34566 7.183026E-08
v -6.331119 6.2708 0.05105864
v -6.458974 6.098865 7.183026E-08
v -6.436005 5.7401 0.05105864
v -6.503238 5.7401 7.183026E-08
v -6.400956 5.41868 0.05105864
v -6.458974 5.381334 7.183026E-08
v -6.331119 5.209399 0.05105864
v -6.370798 5.134539 7.183026E-08
v -6.458974 6.098865 7.183026E-08
v -6.331119 6.2708 -0.05105849
v -6.370798 6.34566 7.183026E-08
v -6.400956 6.061518 -0.05105849
v -6.503238 5.7401 7.183026E-08
v -6.436005 5.7401 -0.05105849
v -6.458974 5.381334 7.183026E-08
v -6.400956 5.41868 -0.05105849
v -6.370798 5.134539 7.183026E-08
v -6.331119 5.209399 -0.05105849
v -6.400956 5.791158 -0.321419
v -6.370798 5.7401 -0.6055611
v -6.331119 5.791158 -0.5307002
v -6.458974 5.7401 -0.3587654
v -6.436005 5.791158 1.088876E-07
v -6.503238 5.7401 1.143918E-07
v -6.400956 5.791158 0.3214192
v -6.458974 5.7401 0.3587656
v -6.331119 5.791158 0.5307004
v -6.370798 5.7401 0.6055613
v -6.458974 5.7401 -0.3587654
v -6.331119 5.689042 -0.5307001
v -6.370798 5.7401 -0.6055611
v -6.400956 5.689042 -0.321419
v -6.503238 5.7401 1.143918E-07
v -6.436005 5.689042 1.088876E-07
v -6.458974 5.7401 0.3587656
v -6.400956 5.689042 0.3214192
v -6.370798 5.7401 0.6055613
v -6.331119 5.689042 0.5307003
v -6.181738 6.396374 -0.4768113
v -6.325747 6.155138 -0.5712511
v -6.181738 6.216911 -0.6562745
v -6.325747 6.311351 -0.4150382
v -6.390193 6.105672 -0.5031683
v -6.181738 6.511597 -0.2506745
v -6.325747 6.411645 -0.2181984
v -6.390193 6.243268 -0.3655732
v -6.181738 5.489425 -0.7714968
v -6.325747 5.325061 -0.5712509
v -6.181738 5.263288 -0.6562743
v -6.325747 5.521902 -0.6715459
v -6.390193 5.374526 -0.5031682
v -6.181738 5.7401 -0.8111997
v -6.325747 5.7401 -0.7061051
v -6.390193 5.547906 -0.5915098
v -6.181738 5.990774 -0.7714968
v -6.325747 5.958298 -0.6715459
v -6.390193 5.7401 -0.6219501
v -6.181738 6.216911 -0.6562745
v -6.325747 6.155138 -0.5712511
v -6.390193 5.932292 -0.5915098
v -6.181738 5.083825 0.4768112
v -6.325747 5.325062 0.571251
v -6.181738 5.263288 0.6562743
v -6.325747 5.168849 0.4150381
v -6.390193 5.374526 0.5031683
v -6.181738 4.968603 0.2506746
v -6.325747 5.068553 0.2181985
v -6.390193 5.236931 0.3655732
v -6.181738 4.9289 9.546412E-08
v -6.325747 5.033994 7.901557E-08
v -6.390193 5.14859 0.1921933
v -6.181738 4.968603 -0.2506744
v -6.325747 5.068553 -0.2181984
v -6.390193 5.118149 8.988597E-08
v -6.181738 5.083825 -0.4768111
v -6.325747 5.168849 -0.415038
v -6.390193 5.14859 -0.1921931
v -6.181738 5.263288 -0.6562743
v -6.325747 5.325061 -0.5712509
v -6.390193 5.236931 -0.3655731
v -6.181738 5.990774 0.7714967
v -6.325747 6.155138 0.5712509
v -6.181738 6.21691 0.6562743
v -6.325747 5.958298 0.6715457
v -6.390193 6.105672 0.5031682
v -6.181738 5.7401 0.8111996
v -6.325747 5.7401 0.7061051
v -6.390193 5.932292 0.5915098
v -6.181738 5.489425 0.7714968
v -6.325747 5.521902 0.6715458
v -6.390193 5.7401 0.6219501
v -6.181738 5.263288 0.6562743
v -6.325747 5.325062 0.571251
v -6.390193 5.547906 0.5915098
v -6.181738 6.551299 9.546412E-08
v -6.325747 6.411645 -0.2181984
v -6.181738 6.511597 -0.2506745
v -6.325747 6.446205 7.901557E-08
v -6.390193 6.33161 -0.1921931
v -6.181738 6.511597 0.2506745
v -6.325747 6.411645 0.2181985
v -6.390193 6.36205 8.988597E-08
v -6.181738 6.396374 0.4768112
v -6.325747 6.31135 0.4150381
v -6.390193 6.331609 0.1921932
v -6.181738 6.21691 0.6562743
v -6.325747 6.155138 0.5712509
v -6.390193 6.243268 0.3655731
v -6.390193 6.33161 -0.1921931
v -6.331516 6.254245 -0.167056
v -6.331516 6.177458 -0.3177595
v -6.390193 6.243268 -0.3655732
v -6.331516 6.057859 -0.4373585
v -6.390193 6.105672 -0.5031683
v -6.390193 6.105672 -0.5031683
v -6.331516 6.057859 -0.4373585
v -6.331516 5.907156 -0.5141459
v -6.390193 5.932292 -0.5915098
v -6.331516 5.7401 -0.5406048
v -6.390193 5.7401 -0.6219501
v -6.331516 5.573043 -0.5141459
v -6.390193 5.547906 -0.5915098
v -6.331516 5.42234 -0.4373585
v -6.390193 5.374526 -0.5031682
v -6.390193 5.374526 -0.5031682
v -6.331516 5.42234 -0.4373585
v -6.331516 5.302742 -0.3177593
v -6.390193 5.236931 -0.3655731
v -6.331516 5.225953 -0.1670559
v -6.390193 5.14859 -0.1921931
v -6.331516 5.199494 1.174575E-07
v -6.390193 5.118149 8.988597E-08
v -6.331516 5.225953 0.1670562
v -6.390193 5.14859 0.1921933
v -6.331516 5.302742 0.3177597
v -6.390193 5.236931 0.3655732
v -6.331516 5.42234 0.4373586
v -6.390193 5.374526 0.5031683
v -6.390193 5.374526 0.5031683
v -6.331516 5.42234 0.4373586
v -6.331516 5.573043 0.5141459
v -6.390193 5.547906 0.5915098
v -6.331516 5.7401 0.5406049
v -6.390193 5.7401 0.6219501
v -6.331516 5.907156 0.5141459
v -6.390193 5.932292 0.5915098
v -6.331516 6.057859 0.4373586
v -6.390193 6.105672 0.5031682
v -6.390193 6.105672 0.5031682
v -6.331516 6.057859 0.4373586
v -6.331516 6.177458 0.3177596
v -6.390193 6.243268 0.3655731
v -6.331516 6.254245 0.1670561
v -6.390193 6.331609 0.1921932
v -6.331516 6.280704 1.174575E-07
v -6.390193 6.36205 8.988597E-08
v -6.331516 6.254245 -0.167056
v -6.390193 6.33161 -0.1921931
vt 1 0.4540425
vt 0 0.4352079
vt 0.05000001 0.4352079
vt 0.9500001 0.4540425
vt 0.09999999 0.4352079
vt 0.9000001 0.4540425
vt 0.09999999 0.4352079
vt 0.15 0.4352079
vt 0.8500001 0.4540425
vt 0.2 0.4352079
vt 0.8000001 0.4540425
vt 0.25 0.4352079
vt 0.7500001 0.4540425
vt 0.3 0.4352079
vt 0.7000001 0.4540425
vt 0.3 0.4352079
vt 0.35 0.4352079
vt 0.6500001 0.4540425
vt 0.4 0.4352079
vt 0.6000001 0.4540425
vt 0.45 0.4352079
vt 0.5500001 0.4540425
vt 0.5000001 0.4352079
vt 0.5000001 0.4540425
vt 0.5500001 0.4352079
vt 0.45 0.4540425
vt 0.6000001 0.4352079
vt 0.4 0.4540425
vt 0.6000001 0.4352079
vt 0.6500001 0.4352079
vt 0.35 0.4540425
vt 0.7000001 0.4352079
vt 0.3 0.4540425
vt 0.7500001 0.4352079
vt 0.25 0.4540425
vt 0.8000001 0.4352079
vt 0.2 0.4540425
vt 0.8000001 0.4352079
vt 0.8500001 0.4352079
vt 0.15 0.4540425
vt 0.9000002 0.4352079
vt 0.09999996 0.4540425
vt 0.9500002 0.4352079
vt 0.04999995 0.4540425
vt 1 0.4352079
vt 1.11771 0.4690363
vt 1.002347 0.4354488
vt 1.002347 0.4690363
vt 1.11771 0.4354488
vt 1.233074 0.4690363
vt 1.233074 0.4354488
vt 1.348437 0.4690363
vt 1.348437 0.4354488
vt 1.463801 0.4690363
vt 1.463801 0.4354488
vt 1.11771 0.4354488
vt 1.002347 0.4692722
vt 1.002347 0.4354488
vt 1.11771 0.4692722
vt 1.233074 0.4354488
vt 1.233074 0.4692722
vt 1.348437 0.4354488
vt 1.348437 0.4692722
vt 1.463801 0.4354488
vt 1.463801 0.4692722
vt 1.11771 0.4690363
vt 1.002347 0.4354488
vt 1.002347 0.4690363
vt 1.11771 0.4354488
vt 1.233074 0.4690363
vt 1.233074 0.4354488
vt 1.348437 0.4690363
vt 1.348437 0.4354488
vt 1.463801 0.4690363
vt 1.463801 0.4354488
vt 1.11771 0.4354488
vt 1.002347 0.4692722
vt 1.002347 0.4354488
vt 1.11771 0.4692722
vt 1.233074 0.4354488
vt 1.233074 0.4692722
vt 1.348437 0.4354488
vt 1.348437 0.4692722
vt 1.463801 0.4354488
vt 1.463801 0.4692722
vt 0.9500001 0.4879441
vt 0.9000001 0.4540425
vt 0.9000001 0.4879441
vt 0.9500001 0.4540425
vt 0.09999999 0.4352079
vt 1 0.4879441
vt 1 0.4540425
vt 0.05000001 0.4352079
vt 0.7500001 0.4879441
vt 0.7000001 0.4540425
vt 0.7000001 0.4879441
vt 0.7500001 0.4540425
vt 0.3 0.4352079
vt 0.8000001 0.4879441
vt 0.8000001 0.4540425
vt 0.25 0.4352079
vt 0.8500001 0.4879441
vt 0.8500001 0.4540425
vt 0.2 0.4352079
vt 0.9000001 0.4879441
vt 0.9000001 0.4540425
vt 0.15 0.4352079
vt 0.45 0.4879441
vt 0.4 0.4540425
vt 0.4 0.4879441
vt 0.45 0.4540425
vt 0.6000001 0.4352079
vt 0.5000001 0.4879441
vt 0.5000001 0.4540425
vt 0.5500001 0.4352079
vt 0.5500001 0.4879441
vt 0.5500001 0.4540425
vt 0.5000001 0.4352079
vt 0.6000001 0.4879441
vt 0.6000001 0.4540425
vt 0.45 0.4352079
vt 0.6500001 0.4879441
vt 0.6500001 0.4540425
vt 0.4 0.4352079
vt 0.7000001 0.4879441
vt 0.7000001 0.4540425
vt 0.35 0.4352079
vt 0.25 0.4879441
vt 0.2 0.4540425
vt 0.2 0.4879441
vt 0.25 0.4540425
vt 0.8000001 0.4352079
vt 0.3 0.4879441
vt 0.3 0.4540425
vt 0.7500001 0.4352079
vt 0.35 0.4879441
vt 0.35 0.4540425
vt 0.7000001 0.4352079
vt 0.4 0.4879441
vt 0.4 0.4540425
vt 0.6500001 0.4352079
vt 0.04999995 0.4879441
vt 0 0.4540425
vt 0 0.4879441
vt 0.04999995 0.4540425
vt 1 0.4352079
vt 0.09999996 0.4879441
vt 0.09999996 0.4540425
vt 0.9500002 0.4352079
vt 0.15 0.4879441
vt 0.15 0.4540425
vt 0.9000002 0.4352079
vt 0.2 0.4879441
vt 0.2 0.4540425
vt 0.8500001 0.4352079
vt 0 0.4352079
vt 0 0.4691095
vt 0.05000001 0.4691095
vt 0.05000001 0.4352079
vt 0.09999999 0.4691095
vt 0.09999999 0.4352079
vt 0.09999999 0.4352079
vt 0.09999999 0.4691095
vt 0.15 0.4691095
vt 0.15 0.4352079
vt 0.2 0.4691095
vt 0.2 0.4352079
vt 0.25 0.4691095
vt 0.25 0.4352079
vt 0.3 0.4691095
vt 0.3 0.4352079
vt 0.3 0.4352079
vt 0.3 0.4691095
vt 0.35 0.4691095
vt 0.35 0.4352079
vt 0.4 0.4691095
vt 0.4 0.4352079
vt 0.45 0.4691095
vt 0.45 0.4352079
vt 0.5000001 0.4691095
vt 0.5000001 0.4352079
vt 0.5500001 0.4691095
vt 0.5500001 0.4352079
vt 0.6000001 0.4691095
vt 0.6000001 0.4352079
vt 0.6000001 0.4352079
vt 0.6000001 0.4691095
vt 0.6500001 0.4691095
vt 0.6500001 0.4352079
vt 0.7000001 0.4691095
vt 0.7000001 0.4352079
vt 0.7500001 0.4691095
vt 0.7500001 0.4352079
vt 0.8000001 0.4691095
vt 0.8000001 0.4352079
vt 0.8000001 0.4352079
vt 0.8000001 0.4691095
vt 0.8500001 0.4691095
vt 0.8500001 0.4352079
vt 0.9000002 0.4691095
vt 0.9000002 0.4352079
vt 0.9500002 0.4691095
vt 0.9500002 0.4352079
vt 1 0.4691095
vt 1 0.4352079
vn -0.6589901 0.715339 -0.2324266
vn -0.7939392 0.5782398 -0.1878812
vn -0.7939403 0.4918777 -0.3573726
vn -0.6589901 0.6085031 -0.4421039
vn -0.7939394 0.3573711 -0.4918802
vn -0.6589901 0.4421037 -0.6085032
vn -0.7939394 0.3573711 -0.4918802
vn -0.7939386 0.1878829 -0.5782399
vn -0.6589898 0.2324285 -0.7153387
vn -0.793939 0 -0.6079974
vn -0.6589895 -4.011791E-07 -0.7521521
vn -0.793938 -0.1878832 -0.5782406
vn -0.6589897 -0.232427 -0.7153393
vn -0.7939379 -0.3573729 -0.4918813
vn -0.6589897 -0.442104 -0.6085036
vn -0.7939379 -0.3573729 -0.4918813
vn -0.7939376 -0.4918828 -0.3573717
vn -0.6589888 -0.608505 -0.4421034
vn -0.7939379 -0.5782412 -0.187882
vn -0.658989 -0.7153394 -0.2324286
vn -0.7939398 -0.6079963 0
vn -0.6589894 -0.7521521 0
vn -0.7939389 -0.5782397 0.1878823
vn -0.6589891 -0.7153393 0.2324286
vn -0.7939374 -0.4918817 0.3573734
vn -0.6589893 -0.6085035 0.4421047
vn -0.7939371 -0.3573726 0.4918829
vn -0.6589897 -0.4421037 0.6085039
vn -0.7939371 -0.3573726 0.4918829
vn -0.7939376 -0.1878826 0.5782414
vn -0.6589896 -0.2324274 0.7153392
vn -0.7939386 1.132825E-06 0.607998
vn -0.6589894 7.423241E-07 0.7521521
vn -0.7939383 0.1878829 0.5782403
vn -0.6589891 0.2324294 0.715339
vn -0.7939383 0.3573732 0.4918804
vn -0.6589894 0.4421046 0.6085035
vn -0.7939383 0.3573732 0.4918804
vn -0.7939377 0.4918825 0.3573714
vn -0.6589907 0.6085025 0.4421041
vn -0.7939392 0.5782397 0.1878817
vn -0.6589908 0.7153382 0.2324273
vn -0.7939389 0.6079976 1.360421E-06
vn -0.6589896 0.752152 4.002261E-07
vn -0.7939392 0.5782398 -0.1878812
vn -0.6082034 0.1158867 0.7852763
vn -0.5863391 0.203144 0.7841805
vn -0.5863392 0.203144 0.7841804
vn -0.6030273 0.138517 0.7856025
vn -0.6188823 0 0.7854837
vn -0.6188823 0 0.7854837
vn -0.6082036 -0.1158865 0.7852761
vn -0.6030276 -0.1385168 0.7856022
vn -0.5863397 -0.2031442 0.7841799
vn -0.5863397 -0.2031442 0.78418
vn -0.6030277 0.1385174 -0.785602
vn -0.5863397 0.2031442 -0.78418
vn -0.5863396 0.2031442 -0.78418
vn -0.6082038 0.1158874 -0.7852759
vn -0.6188823 0 -0.7854837
vn -0.6188823 0 -0.7854837
vn -0.6030275 -0.1385171 -0.7856023
vn -0.6082034 -0.115887 -0.7852763
vn -0.5863397 -0.2031442 -0.7841801
vn -0.5863397 -0.2031442 -0.78418
vn -0.6082065 0.7852738 -0.1158867
vn -0.5863413 0.7841789 -0.2031443
vn -0.5863412 0.7841789 -0.2031443
vn -0.60303 0.7856003 -0.1385172
vn -0.6188853 0.7854815 -5.16849E-07
vn -0.6188853 0.7854815 -5.053021E-07
vn -0.6082052 0.785275 0.1158862
vn -0.6030287 0.7856014 0.1385171
vn -0.5863398 0.7841796 0.2031451
vn -0.5863398 0.7841796 0.2031451
vn -0.6030295 -0.7856007 -0.1385168
vn -0.5863401 -0.7841798 -0.2031439
vn -0.5863401 -0.7841797 -0.2031438
vn -0.6082062 -0.7852741 -0.1158864
vn -0.6188844 -0.7854821 0
vn -0.6188844 -0.785482 0
vn -0.6030262 -0.7856034 0.138516
vn -0.6082029 -0.7852768 0.1158857
vn -0.5863366 -0.7841827 0.2031427
vn -0.5863366 -0.7841827 0.2031427
vn -0.5894952 0.6535012 -0.4747965
vn -0.6589901 0.4421037 -0.6085032
vn -0.5894955 0.4747969 -0.6535006
vn -0.6589901 0.6085031 -0.4421039
vn -0.7939394 0.3573711 -0.4918802
vn -0.5894955 0.7682369 -0.2496138
vn -0.6589901 0.715339 -0.2324266
vn -0.7939403 0.4918777 -0.3573726
vn -0.5894954 -0.2496145 -0.7682367
vn -0.6589897 -0.442104 -0.6085036
vn -0.5894958 -0.4747957 -0.6535012
vn -0.6589897 -0.232427 -0.7153393
vn -0.7939379 -0.3573729 -0.4918813
vn -0.5894948 -5.988258E-07 -0.8077722
vn -0.6589895 -4.011791E-07 -0.7521521
vn -0.793938 -0.1878832 -0.5782406
vn -0.5894955 0.2496152 -0.7682365
vn -0.6589898 0.2324285 -0.7153387
vn -0.793939 0 -0.6079974
vn -0.5894955 0.4747969 -0.6535006
vn -0.6589901 0.4421037 -0.6085032
vn -0.7939386 0.1878829 -0.5782399
vn -0.5894958 -0.6535003 0.4747969
vn -0.6589897 -0.4421037 0.6085039
vn -0.5894964 -0.4747966 0.6534999
vn -0.6589893 -0.6085035 0.4421047
vn -0.7939371 -0.3573726 0.4918829
vn -0.5894942 -0.7682371 0.2496162
vn -0.6589891 -0.7153393 0.2324286
vn -0.7939374 -0.4918817 0.3573734
vn -0.5894943 -0.8077725 0
vn -0.6589894 -0.7521521 0
vn -0.7939389 -0.5782397 0.1878823
vn -0.5894946 -0.7682368 -0.2496164
vn -0.658989 -0.7153394 -0.2324286
vn -0.7939398 -0.6079963 0
vn -0.5894945 -0.6535022 -0.4747959
vn -0.6589888 -0.608505 -0.4421034
vn -0.7939379 -0.5782412 -0.187882
vn -0.5894958 -0.4747957 -0.6535012
vn -0.6589897 -0.442104 -0.6085036
vn -0.7939376 -0.4918828 -0.3573717
vn -0.5894946 0.2496164 0.7682368
vn -0.6589894 0.4421046 0.6085035
vn -0.5894952 0.4747965 0.6535012
vn -0.6589891 0.2324294 0.715339
vn -0.7939383 0.3573732 0.4918804
vn -0.5894952 5.370911E-07 0.8077719
vn -0.6589894 7.423241E-07 0.7521521
vn -0.7939383 0.1878829 0.5782403
vn -0.5894961 -0.2496152 0.768236
vn -0.6589896 -0.2324274 0.7153392
vn -0.7939386 1.132825E-06 0.607998
vn -0.5894964 -0.4747966 0.6534999
vn -0.6589897 -0.4421037 0.6085039
vn -0.7939376 -0.1878826 0.5782414
vn -0.5894948 0.8077722 0
vn -0.6589901 0.715339 -0.2324266
vn -0.5894955 0.7682369 -0.2496138
vn -0.6589896 0.752152 4.002261E-07
vn -0.7939392 0.5782398 -0.1878812
vn -0.5894966 0.7682357 0.2496147
vn -0.6589908 0.7153382 0.2324273
vn -0.7939389 0.6079976 1.360421E-06
vn -0.5894973 0.6534991 0.4747966
vn -0.6589907 0.6085025 0.4421041
vn -0.7939392 0.5782397 0.1878817
vn -0.5894952 0.4747965 0.6535012
vn -0.6589894 0.4421046 0.6085035
vn -0.7939377 0.4918825 0.3573714
vn -0.8110228 -0.5563823 0.1807781
vn -0.8110228 -0.5563823 0.1807781
vn -0.811022 -0.4732881 0.3438629
vn -0.811022 -0.473288 0.3438632
vn -0.8110222 -0.3438647 0.4732866
vn -0.8110222 -0.3438649 0.4732864
vn -0.8110222 -0.3438649 0.4732864
vn -0.8110222 -0.3438647 0.4732866
vn -0.8110228 -0.1807804 0.5563815
vn -0.8110228 -0.18078 0.5563816
vn -0.8110226 0 0.5850148
vn -0.8110226 0 0.5850148
vn -0.8110226 0.1807785 0.5563825
vn -0.8110226 0.1807781 0.5563827
vn -0.8110235 0.343863 0.4732854
vn -0.8110235 0.343863 0.4732853
vn -0.8110235 0.343863 0.4732853
vn -0.8110235 0.343863 0.4732854
vn -0.8110233 0.4732866 0.3438619
vn -0.8110233 0.4732868 0.3438616
vn -0.8110222 0.5563826 0.1807798
vn -0.8110222 0.5563825 0.18078
vn -0.8110232 0.585014 0
vn -0.8110232 0.585014 0
vn -0.8110234 0.5563807 -0.1807803
vn -0.8110235 0.5563806 -0.1807804
vn -0.811023 0.4732869 -0.3438621
vn -0.811023 0.4732873 -0.3438616
vn -0.8110232 0.3438632 -0.4732857
vn -0.8110232 0.3438633 -0.4732857
vn -0.8110232 0.3438633 -0.4732857
vn -0.8110232 0.3438632 -0.4732857
vn -0.8110223 0.1807785 -0.5563829
vn -0.8110223 0.1807782 -0.556383
vn -0.8110223 0 -0.5850153
vn -0.8110223 0 -0.5850153
vn -0.8110226 -0.1807793 -0.5563823
vn -0.8110225 -0.1807789 -0.5563824
vn -0.8110218 -0.3438646 -0.4732872
vn -0.8110217 -0.3438648 -0.4732871
vn -0.8110217 -0.3438648 -0.4732871
vn -0.8110218 -0.3438646 -0.4732872
vn -0.8110206 -0.4732904 -0.343863
vn -0.8110206 -0.4732902 -0.3438632
vn -0.8110215 -0.5563838 -0.1807792
vn -0.8110216 -0.5563837 -0.1807795
vn -0.8110232 -0.585014 -1.268791E-06
vn -0.8110232 -0.585014 -1.074389E-06
vn -0.8110228 -0.5563823 0.1807781
vn -0.8110228 -0.5563823 0.1807781
g houseWindow01_0
f 3/3/3 2/2/2 1/1/1
f 5/5/5 3/3/3 4/4/4
f 8/8/8 7/7/7 6/6/6
f 10/10/10 8/8/8 9/9/9
f 12/12/12 10/10/10 11/11/11
f 14/14/14 12/12/12 13/13/13
f 17/17/17 16/16/16 15/15/15
f 19/19/19 17/17/17 18/18/18
f 21/21/21 19/19/19 20/20/20
f 23/23/23 21/21/21 22/22/22
f 25/25/25 23/23/23 24/24/24
f 27/27/27 25/25/25 26/26/26
f 30/30/30 29/29/29 28/28/28
f 32/32/32 30/30/30 31/31/31
f 34/34/34 32/32/32 33/33/33
f 36/36/36 34/34/34 35/35/35
f 39/39/39 38/38/38 37/37/37
f 41/41/41 39/39/39 40/40/40
f 43/43/43 41/41/41 42/42/42
f 45/45/45 43/43/43 44/44/44
f 48/48/48 47/47/47 46/46/46
f 47/47/47 49/49/49 46/46/46
f 46/46/46 49/49/49 50/50/50
f 49/49/49 51/51/51 50/50/50
f 50/50/50 51/51/51 52/52/52
f 51/51/51 53/53/53 52/52/52
f 52/52/52 53/53/53 54/54/54
f 53/53/53 55/55/55 54/54/54
f 58/58/58 57/57/57 56/56/56
f 57/57/57 59/59/59 56/56/56
f 56/56/56 59/59/59 60/60/60
f 59/59/59 61/61/61 60/60/60
f 60/60/60 61/61/61 62/62/62
f 61/61/61 63/63/63 62/62/62
f 62/62/62 63/63/63 64/64/64
f 63/63/63 65/65/65 64/64/64
f 68/68/68 67/67/67 66/66/66
f 67/67/67 69/69/69 66/66/66
f 66/66/66 69/69/69 70/70/70
f 69/69/69 71/71/71 70/70/70
f 70/70/70 71/71/71 72/72/72
f 71/71/71 73/73/73 72/72/72
f 72/72/72 73/73/73 74/74/74
f 73/73/73 75/75/75 74/74/74
f 78/78/78 77/77/77 76/76/76
f 77/77/77 79/79/79 76/76/76
f 76/76/76 79/79/79 80/80/80
f 79/79/79 81/81/81 80/80/80
f 80/80/80 81/81/81 82/82/82
f 81/81/81 83/83/83 82/82/82
f 82/82/82 83/83/83 84/84/84
f 83/83/83 85/85/85 84/84/84
f 88/88/88 87/87/87 86/86/86
f 87/87/87 89/89/89 86/86/86
f 87/87/87 90/90/90 89/89/89
f 86/86/86 89/89/89 91/91/91
f 89/89/89 92/92/92 91/91/91
f 89/89/89 93/93/93 92/92/92
f 96/96/96 95/95/95 94/94/94
f 95/95/95 97/97/97 94/94/94
f 95/95/95 98/98/98 97/97/97
f 94/94/94 97/97/97 99/99/99
f 97/97/97 100/100/100 99/99/99
f 97/97/97 101/101/101 100/100/100
f 99/99/99 100/100/100 102/102/102
f 100/100/100 103/103/103 102/102/102
f 100/100/100 104/104/104 103/103/103
f 102/102/102 103/103/103 105/105/105
f 103/103/103 106/106/106 105/105/105
f 103/103/103 107/107/107 106/106/106
f 110/110/110 109/109/109 108/108/108
f 109/109/109 111/111/111 108/108/108
f 109/109/109 112/112/112 111/111/111
f 108/108/108 111/111/111 113/113/113
f 111/111/111 114/114/114 113/113/113
f 111/111/111 115/115/115 114/114/114
f 113/113/113 114/114/114 116/116/116
f 114/114/114 117/117/117 116/116/116
f 114/114/114 118/118/118 117/117/117
f 116/116/116 117/117/117 119/119/119
f 117/117/117 120/120/120 119/119/119
f 117/117/117 121/121/121 120/120/120
f 119/119/119 120/120/120 122/122/122
f 120/120/120 123/123/123 122/122/122
f 120/120/120 124/124/124 123/123/123
f 122/122/122 123/123/123 125/125/125
f 123/123/123 126/126/126 125/125/125
f 123/123/123 127/127/127 126/126/126
f 130/130/130 129/129/129 128/128/128
f 129/129/129 131/131/131 128/128/128
f 129/129/129 132/132/132 131/131/131
f 128/128/128 131/131/131 133/133/133
f 131/131/131 134/134/134 133/133/133
f 131/131/131 135/135/135 134/134/134
f 133/133/133 134/134/134 136/136/136
f 134/134/134 137/137/137 136/136/136
f 134/134/134 138/138/138 137/137/137
f 136/136/136 137/137/137 139/139/139
f 137/137/137 140/140/140 139/139/139
f 137/137/137 141/141/141 140/140/140
f 144/144/144 143/143/143 142/142/142
f 143/143/143 145/145/145 142/142/142
f 143/143/143 146/146/146 145/145/145
f 142/142/142 145/145/145 147/147/147
f 145/145/145 148/148/148 147/147/147
f 145/145/145 149/149/149 148/148/148
f 147/147/147 148/148/148 150/150/150
f 148/148/148 151/151/151 150/150/150
f 148/148/148 152/152/152 151/151/151
f 150/150/150 151/151/151 153/153/153
f 151/151/151 154/154/154 153/153/153
f 151/151/151 155/155/155 154/154/154
f 158/158/158 157/157/157 156/156/156
f 159/159/159 158/158/158 156/156/156
f 160/160/160 158/158/158 159/159/159
f 161/161/161 160/160/160 159/159/159
f 164/164/164 163/163/163 162/162/162
f 165/165/165 164/164/164 162/162/162
f 166/166/166 164/164/164 165/165/165
f 167/167/167 166/166/166 165/165/165
f 168/168/168 166/166/166 167/167/167
f 169/169/169 168/168/168 167/167/167
f 170/170/170 168/168/168 169/169/169
f 171/171/171 170/170/170 169/169/169
f 174/174/174 173/173/173 172/172/172
f 175/175/175 174/174/174 172/172/172
f 176/176/176 174/174/174 175/175/175
f 177/177/177 176/176/176 175/175/175
f 178/178/178 176/176/176 177/177/177
f 179/179/179 178/178/178 177/177/177
f 180/180/180 178/178/178 179/179/179
f 181/181/181 180/180/180 179/179/179
f 182/182/182 180/180/180 181/181/181
f 183/183/183 182/182/182 181/181/181
f 184/184/184 182/182/182 183/183/183
f 185/185/185 184/184/184 183/183/183
f 188/188/188 187/187/187 186/186/186
f 189/189/189 188/188/188 186/186/186
f 190/190/190 188/188/188 189/189/189
f 191/191/191 190/190/190 189/189/189
f 192/192/192 190/190/190 191/191/191
f 193/193/193 192/192/192 191/191/191
f 194/194/194 192/192/192 193/193/193
f 195/195/195 194/194/194 193/193/193
f 198/198/198 197/197/197 196/196/196
f 199/199/199 198/198/198 196/196/196
f 200/200/200 198/198/198 199/199/199
f 201/201/201 200/200/200 199/199/199
f 202/202/202 200/200/200 201/201/201
f 203/203/203 202/202/202 201/201/201
f 204/204/204 202/202/202 203/203/203
f 205/205/205 204/204/204 203/203/203
