g bridge_x2_COL
v -1.730555 0 3.5
v -1.730555 0.3734665 3.5
v 1.730555 0.3734665 3.5
v 1.730555 0 3.5
v -1.730555 0.3734665 3.5
v -1.730555 0.3734665 -2.670288E-07
v 1.730555 0.3734665 -2.670288E-07
v 1.730555 0.3734665 3.5
v -1.730555 0 2.670288E-07
v -1.730555 0 3.5
v 1.730555 0 3.5
v 1.730555 0 2.670288E-07
v 1.730555 0 3.5
v 1.730555 0.3734665 3.5
v 1.730555 0.3734665 -2.670288E-07
v 1.730555 0 2.670288E-07
v -1.730555 0 2.670288E-07
v -1.730555 0.3734665 -2.670288E-07
v -1.730555 0.3734665 3.5
v -1.730555 0 3.5
v 1.730555 0 2.670288E-07
v 1.730555 0.3734665 -2.670288E-07
v -1.730555 0.3734665 -2.670288E-07
v -1.730555 0 2.670288E-07
vt 0.375 0
vt 0.375 0.25
vt 0.625 0.25
vt 0.625 0
vt 0.375 0.25
vt 0.375 0.3333333
vt 0.625 0.3333333
vt 0.625 0.25
vt 0.375 0.9166666
vt 0.375 0.9999999
vt 0.625 0.9999999
vt 0.625 0.9166666
vt 0.625 0
vt 0.625 0.25
vt 0.7083334 0.25
vt 0.7083334 0
vt 0.2916667 0
vt 0.2916667 0.25
vt 0.375 0.25
vt 0.375 0
vt 0 0.1079037
vt 0 0
vt 0.9999999 0
vt 0.9999999 0.1079037
vn 0 0 1
vn 0 0 1
vn 0 0 1
vn 0 0 1
vn 0 1 0
vn 0 1 0
vn 0 1 0
vn 0 1 0
vn 0 -1 0
vn 0 -1 0
vn 0 -1 0
vn 0 -1 0
vn 1 4.576005E-07 0
vn 1 4.576005E-07 0
vn 1 4.576005E-07 0
vn 1 4.576005E-07 0
vn -1 2.494557E-07 0
vn -1 2.494557E-07 0
vn -1 2.494557E-07 0
vn -1 2.494557E-07 0
vn 0 -1.430001E-06 -1
vn 0 -1.430001E-06 -1
vn 0 -1.430001E-06 -1
vn 0 -1.430001E-06 -1
g bridge_x2_COL_0
f 3/3/3 2/2/2 1/1/1
f 4/4/4 3/3/3 1/1/1
f 7/7/7 6/6/6 5/5/5
f 8/8/8 7/7/7 5/5/5
f 11/11/11 10/10/10 9/9/9
f 12/12/12 11/11/11 9/9/9
f 15/15/15 14/14/14 13/13/13
f 16/16/16 15/15/15 13/13/13
f 19/19/19 18/18/18 17/17/17
f 20/20/20 19/19/19 17/17/17
f 23/23/23 22/22/22 21/21/21
f 24/24/24 23/23/23 21/21/21
