g col_stalagmite2
v -0.5141449 2.105385 0.516834
v -1.044395 0.6658467 0.7672924
v -1.236328 1.097907 -0.09507528
v 1.111933 0.3331314 -1.124482
v 0.9980097 1.391476 -0.205133
v -0.02029306 0.8077535 -1.010481
v 1.564985 0.1126663 -0.1690837
v 0.9980097 1.391476 -0.205133
v 1.111933 0.3331314 -1.124482
v 0.9980097 1.391476 -0.205133
v -0.3101091 2.434978 -0.6789773
v -0.02029306 0.8077535 -1.010481
v 1.564985 0.1126663 -0.1690837
v -0.6782824 -0.006973442 1.299475
v 1.085225 0.3832268 1.052642
v -1.236328 1.097907 -0.09507528
v -1.044395 0.6658467 0.7672924
v -1.330827 0.2672159 -0.3630405
v -0.5141449 2.105385 0.516834
v -1.236328 1.097907 -0.09507528
v -0.3101091 2.434978 -0.6789773
v 1.085225 0.3832268 1.052642
v -0.5141449 2.105385 0.516834
v 0.9980097 1.391476 -0.205133
v -0.02029306 0.8077535 -1.010481
v -0.3101091 2.434978 -0.6789773
v -1.236328 1.097907 -0.09507528
v 0.01249824 0.2728334 -1.584239
v 0.3831097 -0.1956215 -1.22752
v 1.111933 0.3331314 -1.124482
v 0.3831097 -0.1956215 -1.22752
v 1.564985 0.1126663 -0.1690837
v 1.111933 0.3331314 -1.124482
v -1.086889 -0.1579343 -0.8163275
v -1.330827 0.2672159 -0.3630405
v -0.6782824 -0.006973442 1.299475
v -1.086889 -0.1579343 -0.8163275
v 0.01249824 0.2728334 -1.584239
v -1.330827 0.2672159 -0.3630405
v 0.3831097 -0.1956215 -1.22752
v -1.086889 -0.1579343 -0.8163275
v -0.6782824 -0.006973442 1.299475
v 0.01249824 0.2728334 -1.584239
v -0.02029306 0.8077535 -1.010481
v -1.236328 1.097907 -0.09507528
v -1.330827 0.2672159 -0.3630405
v -1.044395 0.6658467 0.7672924
v -0.6782824 -0.006973442 1.299475
v 0.3831097 -0.1956215 -1.22752
v 0.01249824 0.2728334 -1.584239
v -1.086889 -0.1579343 -0.8163275
v 0.9980097 1.391476 -0.205133
v 1.564985 0.1126663 -0.1690837
v 1.085225 0.3832268 1.052642
v 1.111933 0.3331314 -1.124482
v -0.02029306 0.8077535 -1.010481
v 0.01249824 0.2728334 -1.584239
v -0.6782824 -0.006973442 1.299475
v -1.044395 0.6658467 0.7672924
v 1.085225 0.3832268 1.052642
v -1.044395 0.6658467 0.7672924
v -0.5141449 2.105385 0.516834
v 1.085225 0.3832268 1.052642
v 0.01249824 0.2728334 -1.584239
v -1.236328 1.097907 -0.09507528
v -1.330827 0.2672159 -0.3630405
v -0.6782824 -0.006973442 1.299475
v 1.564985 0.1126663 -0.1690837
v 0.3831097 -0.1956215 -1.22752
v 0.9980097 1.391476 -0.205133
v 0.4308801 3.806382 0.1329938
v -0.05431386 5.129759 0.02419202
v 0.4308801 3.806382 0.1329938
v -0.5141449 2.105385 0.516834
v -0.05431386 5.129759 0.02419202
v -0.3101091 2.434978 -0.6789773
v -0.05431386 5.129759 0.02419202
v -0.5141449 2.105385 0.516834
v -0.3101091 2.434978 -0.6789773
v 0.9980097 1.391476 -0.205133
v -0.05431386 5.129759 0.02419202
v 0.9980097 1.391476 -0.205133
v -0.5141449 2.105385 0.516834
v 0.4308801 3.806382 0.1329938
vt 0 0
vt 0 0
vt 0 0
vt 0 0
vt 0 0
vt 0 0
vt 0 0
vt 0 0
vt 0 0
vt 0 0
vt 0 0
vt 0 0
vt 0 0
vt 0 0
vt 0 0
vt 0 0
vt 0 0
vt 0 0
vt 0 0
vt 0 0
vt 0 0
vt 0 0
vt 0 0
vt 0 0
vt 0 0
vt 0 0
vt 0 0
vt 0 0
vt 0 0
vt 0 0
vt 0 0
vt 0 0
vt 0 0
vt 0 0
vt 0 0
vt 0 0
vt 0 0
vt 0 0
vt 0 0
vt 0 0
vt 0 0
vt 0 0
vt 0 0
vt 0 0
vt 0 0
vt 0 0
vt 0 0
vt 0 0
vt 0 0
vt 0 0
vt 0 0
vt 0 0
vt 0 0
vt 0 0
vt 0 0
vt 0 0
vt 0 0
vt 0 0
vt 0 0
vt 0 0
vt 0 0
vt 0 0
vt 0 0
vt 0 0
vt 0 0
vt 0 0
vt 0 0
vt 0 0
vt 0 0
vt 0 0
vt 0 0
vt 0 0
vt 0 0
vt 0 0
vt 0 0
vt 0 0
vt 0 0
vt 0 0
vt 0 0
vt 0 0
vt 0 0
vt 0 0
vt 0 0
vt 0 0
vn -0.8458278 0.3771907 0.37723
vn -0.8458278 0.3771907 0.37723
vn -0.8458278 0.3771907 0.37723
vn 0.2010518 0.6546466 -0.7287085
vn 0.2010518 0.6546466 -0.7287085
vn 0.2010518 0.6546466 -0.7287085
vn 0.8679441 0.3756542 -0.3248956
vn 0.8679441 0.3756542 -0.3248956
vn 0.8679441 0.3756542 -0.3248956
vn 0.5041571 0.2577143 -0.8242627
vn 0.5041571 0.2577143 -0.8242627
vn 0.5041571 0.2577143 -0.8242627
vn 0.2459695 -0.9214688 0.3006561
vn 0.2459695 -0.9214688 0.3006561
vn 0.2459695 -0.9214688 0.3006561
vn -0.9716414 0.03510125 0.2338394
vn -0.9716414 0.03510125 0.2338394
vn -0.9716414 0.03510125 0.2338394
vn -0.8180076 0.5748974 0.01888184
vn -0.8180076 0.5748974 0.01888184
vn -0.8180076 0.5748974 0.01888184
vn 0.5530381 0.6683689 0.4974253
vn 0.5530381 0.6683689 0.4974253
vn 0.5530381 0.6683689 0.4974253
vn -0.5914431 0.05850014 -0.8042217
vn -0.5914431 0.05850014 -0.8042217
vn -0.5914431 0.05850014 -0.8042217
vn 0.3773463 -0.3533135 -0.8560253
vn 0.3773463 -0.3533135 -0.8560253
vn 0.3773463 -0.3533135 -0.8560253
vn 0.5689446 -0.7001633 -0.4313623
vn 0.5689446 -0.7001633 -0.4313623
vn 0.5689446 -0.7001633 -0.4313623
vn -0.7503154 -0.6331645 0.1900777
vn -0.7503154 -0.6331645 0.1900777
vn -0.7503154 -0.6331645 0.1900777
vn -0.6250809 0.3726188 -0.6858782
vn -0.6250809 0.3726188 -0.6858782
vn -0.6250809 0.3726188 -0.6858782
vn -0.005374314 -0.9973757 0.07219989
vn -0.005374314 -0.9973757 0.07219989
vn -0.005374314 -0.9973757 0.07219989
vn -0.3296663 0.681069 -0.6538082
vn -0.3296663 0.681069 -0.6538082
vn -0.3296663 0.681069 -0.6538082
vn -0.9153711 -0.2460005 0.3187155
vn -0.9153711 -0.2460005 0.3187155
vn -0.9153711 -0.2460005 0.3187155
vn -0.2107968 -0.6922955 -0.6901389
vn -0.2107968 -0.6922955 -0.6901389
vn -0.2107968 -0.6922955 -0.6901389
vn 0.8805829 0.3976818 0.2577265
vn 0.8805829 0.3976818 0.2577265
vn 0.8805829 0.3976818 0.2577265
vn 0.2348137 0.7176355 -0.6556385
vn 0.2348137 0.7176355 -0.6556385
vn 0.2348137 0.7176355 -0.6556385
vn -0.02472959 0.6118662 0.7905746
vn -0.02472959 0.6118662 0.7905746
vn -0.02472959 0.6118662 0.7905746
vn -0.1028659 0.2071579 0.9728845
vn -0.1028659 0.2071579 0.9728845
vn -0.1028659 0.2071579 0.9728845
vn -0.642265 0.3005197 -0.7051125
vn -0.642265 0.3005197 -0.7051125
vn -0.642265 0.3005197 -0.7051125
vn 0.1383752 -0.9816241 0.1314018
vn 0.1383752 -0.9816241 0.1314018
vn 0.1383752 -0.9816241 0.1314018
vn 0.8296776 0.2637362 -0.4920145
vn 0.8296776 0.2637362 -0.4920145
vn 0.8296776 0.2637362 -0.4920145
vn 0.1522589 0.1363033 0.9788967
vn 0.1522589 0.1363033 0.9788967
vn 0.1522589 0.1363033 0.9788967
vn -0.9829055 0.1278652 -0.1324661
vn -0.9829055 0.1278652 -0.1324661
vn -0.9829055 0.1278652 -0.1324661
vn 0.460552 0.182928 -0.8685788
vn 0.460552 0.182928 -0.8685788
vn 0.460552 0.182928 -0.8685788
vn 0.4197066 -0.0284587 0.9072136
vn 0.4197066 -0.0284587 0.9072136
vn 0.4197066 -0.0284587 0.9072136
g col_stalagmite2_0
f 3/3/3 2/2/2 1/1/1
f 6/6/6 5/5/5 4/4/4
f 9/9/9 8/8/8 7/7/7
f 12/12/12 11/11/11 10/10/10
f 15/15/15 14/14/14 13/13/13
f 18/18/18 17/17/17 16/16/16
f 21/21/21 20/20/20 19/19/19
f 24/24/24 23/23/23 22/22/22
f 27/27/27 26/26/26 25/25/25
f 30/30/30 29/29/29 28/28/28
f 33/33/33 32/32/32 31/31/31
f 36/36/36 35/35/35 34/34/34
f 39/39/39 38/38/38 37/37/37
f 42/42/42 41/41/41 40/40/40
f 45/45/45 44/44/44 43/43/43
f 48/48/48 47/47/47 46/46/46
f 51/51/51 50/50/50 49/49/49
f 54/54/54 53/53/53 52/52/52
f 57/57/57 56/56/56 55/55/55
f 60/60/60 59/59/59 58/58/58
f 63/63/63 62/62/62 61/61/61
f 66/66/66 65/65/65 64/64/64
f 69/69/69 68/68/68 67/67/67
f 72/72/72 71/71/71 70/70/70
f 75/75/75 74/74/74 73/73/73
f 78/78/78 77/77/77 76/76/76
f 81/81/81 80/80/80 79/79/79
f 84/84/84 83/83/83 82/82/82
