g col_stalagmite4
v -2.301437 0.3636379 -1.42827
v -1.272654 -0.1790816 -1.40106
v -1.428428 0.4683911 -1.137418
v 0.09379702 -0.03422013 0.7027757
v 0.2368957 0.464629 0.06820321
v 1.906686 0.4462111 1.381489
v 0.1969557 0.04397947 -0.7379372
v -1.272654 -0.1790816 -1.40106
v 0.4620825 -0.2507971 -0.1496705
v 2.378724 -0.2391602 1.090918
v 0.09379702 -0.03422013 0.7027757
v 1.906686 0.4462111 1.381489
v 0.4620825 -0.2507971 -0.1496705
v 1.568873 0.357729 -1.092039
v 0.1969557 0.04397947 -0.7379372
v -2.038612 0.2049864 0.6857874
v -1.607166 0.6947662 0.5603563
v -1.926593 0.1851314 1.256596
v -3.159582 0.3276783 0.654147
v -2.038612 0.2049864 0.6857874
v -1.926593 0.1851314 1.256596
v -3.642578 -0.053238 -0.1241561
v -3.069238 -0.2845691 -0.8892183
v -2.301437 0.3636379 -1.42827
v 1.070037 0.582819 -0.7028984
v 0.2368957 0.464629 0.06820321
v 0.1969557 0.04397947 -0.7379372
v -1.428428 0.4683911 -1.137418
v -1.272654 -0.1790816 -1.40106
v 0.1969557 0.04397947 -0.7379372
v 2.683179 0.4322034 -0.7947625
v 1.070037 0.582819 -0.7028984
v 1.568873 0.357729 -1.092039
v -0.9887773 1.236555 -0.1076501
v -0.4937087 0.626082 -0.382042
v -1.607166 0.6947662 0.5603563
v 2.928633 0.8975686 -0.3455721
v 1.070037 0.582819 -0.7028984
v 2.683179 0.4322034 -0.7947625
v -0.4937087 0.626082 -0.382042
v 0.2368957 0.464629 0.06820321
v -1.607166 0.6947662 0.5603563
v -2.822395 -0.2063838 1.005497
v -1.926593 0.1851314 1.256596
v 0.09379702 -0.03422013 0.7027757
v -2.301437 0.3636379 -1.42827
v -3.069238 -0.2845691 -0.8892183
v -1.272654 -0.1790816 -1.40106
v 1.568873 0.357729 -1.092039
v 2.050523 -0.227493 -0.7811717
v 2.978313 -0.0366557 -0.846071
v 0.1969557 0.04397947 -0.7379372
v 1.568873 0.357729 -1.092039
v 1.070037 0.582819 -0.7028984
v 0.2368957 0.464629 0.06820321
v -0.4937087 0.626082 -0.382042
v 0.1969557 0.04397947 -0.7379372
v 2.683179 0.4322034 -0.7947625
v 1.568873 0.357729 -1.092039
v 2.978313 -0.0366557 -0.846071
v -1.956241 1.147929 -0.6170626
v -0.9887773 1.236555 -0.1076501
v -1.94349 1.84696 -0.1667046
v 2.683179 0.4322034 -0.7947625
v 2.978313 -0.0366557 -0.846071
v 2.928633 0.8975686 -0.3455721
v 1.568873 0.357729 -1.092039
v 0.4620825 -0.2507971 -0.1496705
v 2.050523 -0.227493 -0.7811717
v -1.94349 1.84696 -0.1667046
v -2.990492 0.9933434 -0.1800581
v -1.956241 1.147929 -0.6170626
v -2.822395 -0.2063838 1.005497
v 0.09379702 -0.03422013 0.7027757
v -3.069238 -0.2845691 -0.8892183
v 2.378724 -0.2391602 1.090918
v 2.050523 -0.227493 -0.7811717
v 0.4620825 -0.2507971 -0.1496705
v 0.4620825 -0.2507971 -0.1496705
v -1.272654 -0.1790816 -1.40106
v -3.069238 -0.2845691 -0.8892183
v 2.378724 -0.2391602 1.090918
v 0.4620825 -0.2507971 -0.1496705
v 0.09379702 -0.03422013 0.7027757
v 1.036536 1.109521 0.01118807
v 0.2368957 0.464629 0.06820321
v 1.070037 0.582819 -0.7028984
v 0.4620825 -0.2507971 -0.1496705
v -3.069238 -0.2845691 -0.8892183
v 0.09379702 -0.03422013 0.7027757
v -2.822395 -0.2063838 1.005497
v -3.069238 -0.2845691 -0.8892183
v -3.642578 -0.053238 -0.1241561
v -2.822395 -0.2063838 1.005497
v -3.642578 -0.053238 -0.1241561
v -3.159582 0.3276783 0.654147
v -2.822395 -0.2063838 1.005497
v -3.159582 0.3276783 0.654147
v -1.926593 0.1851314 1.256596
v 2.151339 1.07314 0.7322767
v 1.906686 0.4462111 1.381489
v 0.2368957 0.464629 0.06820321
v 2.151339 1.07314 0.7322767
v 2.066973 2.263477 -0.1257572
v 2.967795 1.301656 0.1821216
v 2.151339 1.07314 0.7322767
v 2.967795 1.301656 0.1821216
v 1.906686 0.4462111 1.381489
v 3.481312 0.04318798 0.2457074
v 1.906686 0.4462111 1.381489
v 2.967795 1.301656 0.1821216
v 2.967795 1.301656 0.1821216
v 2.928633 0.8975686 -0.3455721
v 3.481312 0.04318798 0.2457074
v 2.066973 2.263477 -0.1257572
v 2.928633 0.8975686 -0.3455721
v 2.967795 1.301656 0.1821216
v 1.32217 1.996606 -0.1257796
v 2.066973 2.263477 -0.1257572
v 2.151339 1.07314 0.7322767
v 1.906686 0.4462111 1.381489
v 3.481312 0.04318798 0.2457074
v 2.378724 -0.2391602 1.090918
v 3.481312 0.04318798 0.2457074
v 2.928633 0.8975686 -0.3455721
v 2.978313 -0.0366557 -0.846071
v 2.066973 2.263477 -0.1257572
v 1.32217 1.996606 -0.1257796
v 2.928633 0.8975686 -0.3455721
v 2.151339 1.07314 0.7322767
v 1.036536 1.109521 0.01118807
v 1.32217 1.996606 -0.1257796
v 2.928633 0.8975686 -0.3455721
v 1.32217 1.996606 -0.1257796
v 1.070037 0.582819 -0.7028984
v 0.2368957 0.464629 0.06820321
v 1.036536 1.109521 0.01118807
v 2.151339 1.07314 0.7322767
v 1.32217 1.996606 -0.1257796
v 1.036536 1.109521 0.01118807
v 1.070037 0.582819 -0.7028984
v -1.428428 0.4683911 -1.137418
v -1.956241 1.147929 -0.6170626
v -2.990492 0.9933434 -0.1800581
v -2.990492 0.9933434 -0.1800581
v -3.159582 0.3276783 0.654147
v -3.642578 -0.053238 -0.1241561
v -1.428428 0.4683911 -1.137418
v -2.990492 0.9933434 -0.1800581
v -2.301437 0.3636379 -1.42827
v -2.990492 0.9933434 -0.1800581
v -3.642578 -0.053238 -0.1241561
v -2.301437 0.3636379 -1.42827
v -2.990492 0.9933434 -0.1800581
v -1.94349 1.84696 -0.1667046
v -3.159582 0.3276783 0.654147
v -1.94349 1.84696 -0.1667046
v -1.607166 0.6947662 0.5603563
v -3.159582 0.3276783 0.654147
v -1.607166 0.6947662 0.5603563
v -2.038612 0.2049864 0.6857874
v -3.159582 0.3276783 0.654147
v -0.9887773 1.236555 -0.1076501
v -1.607166 0.6947662 0.5603563
v -1.94349 1.84696 -0.1667046
v -0.4937087 0.626082 -0.382042
v -0.9887773 1.236555 -0.1076501
v -1.956241 1.147929 -0.6170626
v -1.607166 0.6947662 0.5603563
v 0.2368957 0.464629 0.06820321
v 0.09379702 -0.03422013 0.7027757
v -1.926593 0.1851314 1.256596
v 2.050523 -0.227493 -0.7811717
v 3.481312 0.04318798 0.2457074
v 2.978313 -0.0366557 -0.846071
v 2.378724 -0.2391602 1.090918
v -1.428428 0.4683911 -1.137418
v 0.1969557 0.04397947 -0.7379372
v -0.4937087 0.626082 -0.382042
v -1.956241 1.147929 -0.6170626
vt 0 0
vt 0 0
vt 0 0
vt 0 0
vt 0 0
vt 0 0
vt 0 0
vt 0 0
vt 0 0
vt 0 0
vt 0 0
vt 0 0
vt 0 0
vt 0 0
vt 0 0
vt 0 0
vt 0 0
vt 0 0
vt 0 0
vt 0 0
vt 0 0
vt 0 0
vt 0 0
vt 0 0
vt 0 0
vt 0 0
vt 0 0
vt 0 0
vt 0 0
vt 0 0
vt 0 0
vt 0 0
vt 0 0
vt 0 0
vt 0 0
vt 0 0
vt 0 0
vt 0 0
vt 0 0
vt 0 0
vt 0 0
vt 0 0
vt 0 0
vt 0 0
vt 0 0
vt 0 0
vt 0 0
vt 0 0
vt 0 0
vt 0 0
vt 0 0
vt 0 0
vt 0 0
vt 0 0
vt 0 0
vt 0 0
vt 0 0
vt 0 0
vt 0 0
vt 0 0
vt 0 0
vt 0 0
vt 0 0
vt 0 0
vt 0 0
vt 0 0
vt 0 0
vt 0 0
vt 0 0
vt 0 0
vt 0 0
vt 0 0
vt 0 0
vt 0 0
vt 0 0
vt 0 0
vt 0 0
vt 0 0
vt 0 0
vt 0 0
vt 0 0
vt 0 0
vt 0 0
vt 0 0
vt 0 0
vt 0 0
vt 0 0
vt 0 0
vt 0 0
vt 0 0
vt 0 0
vt 0 0
vt 0 0
vt 0 0
vt 0 0
vt 0 0
vt 0 0
vt 0 0
vt 0 0
vt 0 0
vt 0 0
vt 0 0
vt 0 0
vt 0 0
vt 0 0
vt 0 0
vt 0 0
vt 0 0
vt 0 0
vt 0 0
vt 0 0
vt 0 0
vt 0 0
vt 0 0
vt 0 0
vt 0 0
vt 0 0
vt 0 0
vt 0 0
vt 0 0
vt 0 0
vt 0 0
vt 0 0
vt 0 0
vt 0 0
vt 0 0
vt 0 0
vt 0 0
vt 0 0
vt 0 0
vt 0 0
vt 0 0
vt 0 0
vt 0 0
vt 0 0
vt 0 0
vt 0 0
vt 0 0
vt 0 0
vt 0 0
vt 0 0
vt 0 0
vt 0 0
vt 0 0
vt 0 0
vt 0 0
vt 0 0
vt 0 0
vt 0 0
vt 0 0
vt 0 0
vt 0 0
vt 0 0
vt 0 0
vt 0 0
vt 0 0
vt 0 0
vt 0 0
vt 0 0
vt 0 0
vt 0 0
vt 0 0
vt 0 0
vt 0 0
vt 0 0
vt 0 0
vt 0 0
vt 0 0
vt 0 0
vt 0 0
vt 0 0
vt 0 0
vt 0 0
vt 0 0
vt 0 0
vt 0 0
vt 0 0
vt 0 0
vt 0 0
vt 0 0
vn 0.2422862 0.4153189 -0.8768167
vn 0.2422862 0.4153189 -0.8768167
vn 0.2422862 0.4153189 -0.8768167
vn -0.3938847 0.7636778 0.5115185
vn -0.3938847 0.7636778 0.5115185
vn -0.3938847 0.7636778 0.5115185
vn 0.3600138 -0.7589566 -0.5425633
vn 0.3600138 -0.7589566 -0.5425633
vn 0.3600138 -0.7589566 -0.5425633
vn -0.1885208 -0.4905388 0.8507829
vn -0.1885208 -0.4905388 0.8507829
vn -0.1885208 -0.4905388 0.8507829
vn 0.07803746 -0.8767791 -0.4745193
vn 0.07803746 -0.8767791 -0.4745193
vn 0.07803746 -0.8767791 -0.4745193
vn -0.7188634 0.6753908 0.164568
vn -0.7188634 0.6753908 0.164568
vn -0.7188634 0.6753908 0.164568
vn 0.1084213 0.9940161 0.01329834
vn 0.1084213 0.9940161 0.01329834
vn 0.1084213 0.9940161 0.01329834
vn -0.7098765 0.3183895 -0.6282543
vn -0.7098765 0.3183895 -0.6282543
vn -0.7098765 0.3183895 -0.6282543
vn -0.4724213 0.7907731 -0.389225
vn -0.4724213 0.7907731 -0.389225
vn -0.4724213 0.7907731 -0.389225
vn 0.3188106 0.4222302 -0.8485761
vn 0.3188106 0.4222302 -0.8485761
vn 0.3188106 0.4222302 -0.8485761
vn 0.05832469 0.8947344 -0.4427738
vn 0.05832469 0.8947344 -0.4427738
vn 0.05832469 0.8947344 -0.4427738
vn 0.6414574 0.1856241 0.7443629
vn 0.6414574 0.1856241 0.7443629
vn 0.6414574 0.1856241 0.7443629
vn 0.02293363 0.6880214 -0.725328
vn 0.02293363 0.6880214 -0.725328
vn 0.02293363 0.6880214 -0.725328
vn 0.1512032 0.9826916 0.1070279
vn 0.1512032 0.9826916 0.1070279
vn 0.1512032 0.9826916 0.1070279
vn 0.1141406 -0.7080809 0.6968453
vn 0.1141406 -0.7080809 0.6968453
vn 0.1141406 -0.7080809 0.6968453
vn -0.2186527 -0.4576892 -0.8618072
vn -0.2186527 -0.4576892 -0.8618072
vn -0.2186527 -0.4576892 -0.8618072
vn 0.03001456 -0.4495285 -0.8927615
vn 0.03001456 -0.4495285 -0.8927615
vn 0.03001456 -0.4495285 -0.8927615
vn -0.3252884 0.5758377 -0.7500656
vn -0.3252884 0.5758377 -0.7500656
vn -0.3252884 0.5758377 -0.7500656
vn 0.4403519 0.7868434 -0.4323976
vn 0.4403519 0.7868434 -0.4323976
vn 0.4403519 0.7868434 -0.4323976
vn 0.2339384 0.250074 -0.9395403
vn 0.2339384 0.250074 -0.9395403
vn 0.2339384 0.250074 -0.9395403
vn 0.3675469 0.4989367 -0.7848385
vn 0.3675469 0.4989367 -0.7848385
vn 0.3675469 0.4989367 -0.7848385
vn 0.5398053 0.4196489 -0.7297295
vn 0.5398053 0.4196489 -0.7297295
vn 0.5398053 0.4196489 -0.7297295
vn -0.2818001 -0.6206173 -0.731726
vn -0.2818001 -0.6206173 -0.731726
vn -0.2818001 -0.6206173 -0.731726
vn -0.3992399 0.501692 -0.7674063
vn -0.3992399 0.501692 -0.7674063
vn -0.3992399 0.501692 -0.7674063
vn 0.06232021 -0.9975091 0.03304301
vn 0.06232021 -0.9975091 0.03304301
vn 0.06232021 -0.9975091 0.03304301
vn 0.01139779 -0.9999012 -0.008229746
vn 0.01139779 -0.9999012 -0.008229746
vn 0.01139779 -0.9999012 -0.008229746
vn 0.03022443 -0.9946383 -0.09890004
vn 0.03022443 -0.9946383 -0.09890004
vn 0.03022443 -0.9946383 -0.09890004
vn -0.1204661 -0.9733282 0.1952435
vn -0.1204661 -0.9733282 0.1952435
vn -0.1204661 -0.9733282 0.1952435
vn -0.5624805 0.6525663 -0.5077134
vn -0.5624805 0.6525663 -0.5077134
vn -0.5624805 0.6525663 -0.5077134
vn -0.03891663 -0.972358 0.2302292
vn -0.03891663 -0.972358 0.2302292
vn -0.03891663 -0.972358 0.2302292
vn -0.2837146 -0.95586 0.07640588
vn -0.2837146 -0.95586 0.07640588
vn -0.2837146 -0.95586 0.07640588
vn -0.8103269 -0.1367505 0.5697979
vn -0.8103269 -0.1367505 0.5697979
vn -0.8103269 -0.1367505 0.5697979
vn -0.384435 0.3255816 0.8638324
vn -0.384435 0.3255816 0.8638324
vn -0.384435 0.3255816 0.8638324
vn -0.4196291 0.7268173 0.5437353
vn -0.4196291 0.7268173 0.5437353
vn -0.4196291 0.7268173 0.5437353
vn 0.3467382 0.5645215 0.7490582
vn 0.3467382 0.5645215 0.7490582
vn 0.3467382 0.5645215 0.7490582
vn 0.3096524 0.6230077 0.7183152
vn 0.3096524 0.6230077 0.7183152
vn 0.3096524 0.6230077 0.7183152
vn 0.6076458 0.2853976 0.7411578
vn 0.6076458 0.2853976 0.7411578
vn 0.6076458 0.2853976 0.7411578
vn 0.8804172 0.3426935 -0.32776
vn 0.8804172 0.3426935 -0.32776
vn 0.8804172 0.3426935 -0.32776
vn 0.7176872 0.5261515 -0.4561686
vn 0.7176872 0.5261515 -0.4561686
vn 0.7176872 0.5261515 -0.4561686
vn -0.2018462 0.5632589 0.8012475
vn -0.2018462 0.5632589 0.8012475
vn -0.2018462 0.5632589 0.8012475
vn 0.5953829 0.07075595 0.8003204
vn 0.5953829 0.07075595 0.8003204
vn 0.5953829 0.07075595 0.8003204
vn 0.8666831 0.2706077 -0.4190845
vn 0.8666831 0.2706077 -0.4190845
vn 0.8666831 0.2706077 -0.4190845
vn -0.04655711 0.1300178 -0.990418
vn -0.04655711 0.1300178 -0.990418
vn -0.04655711 0.1300178 -0.990418
vn -0.5130958 0.2899504 0.8078747
vn -0.5130958 0.2899504 0.8078747
vn -0.5130958 0.2899504 0.8078747
vn 0.1176384 0.3572535 -0.9265695
vn 0.1176384 0.3572535 -0.9265695
vn 0.1176384 0.3572535 -0.9265695
vn -0.4255176 0.5884104 0.6875376
vn -0.4255176 0.5884104 0.6875376
vn -0.4255176 0.5884104 0.6875376
vn -0.9345226 0.2640663 -0.2386139
vn -0.9345226 0.2640663 -0.2386139
vn -0.9345226 0.2640663 -0.2386139
vn -0.4087975 0.3331056 -0.8496619
vn -0.4087975 0.3331056 -0.8496619
vn -0.4087975 0.3331056 -0.8496619
vn -0.8155275 0.5215242 0.2508534
vn -0.8155275 0.5215242 0.2508534
vn -0.8155275 0.5215242 0.2508534
vn 0.03656063 0.9001937 -0.4339522
vn 0.03656063 0.9001937 -0.4339522
vn 0.03656063 0.9001937 -0.4339522
vn -0.6991481 0.4041089 -0.5898201
vn -0.6991481 0.4041089 -0.5898201
vn -0.6991481 0.4041089 -0.5898201
vn -0.5714156 0.6940175 0.4379771
vn -0.5714156 0.6940175 0.4379771
vn -0.5714156 0.6940175 0.4379771
vn -0.07083528 0.5174463 0.8527787
vn -0.07083528 0.5174463 0.8527787
vn -0.07083528 0.5174463 0.8527787
vn -0.0001729304 0.2482335 0.9687002
vn -0.0001729304 0.2482335 0.9687002
vn -0.0001729304 0.2482335 0.9687002
vn 0.3179882 0.5706062 0.7571605
vn 0.3179882 0.5706062 0.7571605
vn 0.3179882 0.5706062 0.7571605
vn 0.3304133 0.5966601 -0.7313164
vn 0.3304133 0.5966601 -0.7313164
vn 0.3304133 0.5966601 -0.7313164
vn 0.2598401 0.729827 0.6323255
vn 0.2598401 0.729827 0.6323255
vn 0.2598401 0.729827 0.6323255
vn 0.2549415 0.7207889 0.6445683
vn 0.2000519 -0.9795702 -0.02052942
vn 0.2000519 -0.9795702 -0.02052942
vn 0.2000519 -0.9795702 -0.02052942
vn 0.2160765 -0.9753863 -0.04395974
vn 0.335972 0.7483231 -0.5719575
vn 0.335972 0.7483231 -0.5719575
vn 0.335972 0.7483231 -0.5719575
vn 0.3538343 0.7261955 -0.5894416
g col_stalagmite4_0
f 3/3/3 2/2/2 1/1/1
f 6/6/6 5/5/5 4/4/4
f 9/9/9 8/8/8 7/7/7
f 12/12/12 11/11/11 10/10/10
f 15/15/15 14/14/14 13/13/13
f 18/18/18 17/17/17 16/16/16
f 21/21/21 20/20/20 19/19/19
f 24/24/24 23/23/23 22/22/22
f 27/27/27 26/26/26 25/25/25
f 30/30/30 29/29/29 28/28/28
f 33/33/33 32/32/32 31/31/31
f 36/36/36 35/35/35 34/34/34
f 39/39/39 38/38/38 37/37/37
f 42/42/42 41/41/41 40/40/40
f 45/45/45 44/44/44 43/43/43
f 48/48/48 47/47/47 46/46/46
f 51/51/51 50/50/50 49/49/49
f 54/54/54 53/53/53 52/52/52
f 57/57/57 56/56/56 55/55/55
f 60/60/60 59/59/59 58/58/58
f 63/63/63 62/62/62 61/61/61
f 66/66/66 65/65/65 64/64/64
f 69/69/69 68/68/68 67/67/67
f 72/72/72 71/71/71 70/70/70
f 75/75/75 74/74/74 73/73/73
f 78/78/78 77/77/77 76/76/76
f 81/81/81 80/80/80 79/79/79
f 84/84/84 83/83/83 82/82/82
f 87/87/87 86/86/86 85/85/85
f 90/90/90 89/89/89 88/88/88
f 93/93/93 92/92/92 91/91/91
f 96/96/96 95/95/95 94/94/94
f 99/99/99 98/98/98 97/97/97
f 102/102/102 101/101/101 100/100/100
f 105/105/105 104/104/104 103/103/103
f 108/108/108 107/107/107 106/106/106
f 111/111/111 110/110/110 109/109/109
f 114/114/114 113/113/113 112/112/112
f 117/117/117 116/116/116 115/115/115
f 120/120/120 119/119/119 118/118/118
f 123/123/123 122/122/122 121/121/121
f 126/126/126 125/125/125 124/124/124
f 129/129/129 128/128/128 127/127/127
f 132/132/132 131/131/131 130/130/130
f 135/135/135 134/134/134 133/133/133
f 138/138/138 137/137/137 136/136/136
f 141/141/141 140/140/140 139/139/139
f 144/144/144 143/143/143 142/142/142
f 147/147/147 146/146/146 145/145/145
f 150/150/150 149/149/149 148/148/148
f 153/153/153 152/152/152 151/151/151
f 156/156/156 155/155/155 154/154/154
f 159/159/159 158/158/158 157/157/157
f 162/162/162 161/161/161 160/160/160
f 165/165/165 164/164/164 163/163/163
f 168/168/168 167/167/167 166/166/166
f 171/171/171 170/170/170 169/169/169
f 171/171/171 169/169/169 172/172/172
f 175/175/175 174/174/174 173/173/173
f 174/174/174 176/176/176 173/173/173
f 179/179/179 178/178/178 177/177/177
f 179/179/179 177/177/177 180/180/180
