g col_stalagmite3
v 2.020656 -0.1747919 0.008750333
v 1.924669 0.4012584 0.8110709
v 0.9095267 1.04839 -0.1907843
v 0.9095267 1.04839 -0.1907843
v 0.1687903 1.085757 -0.5455285
v -0.2087238 0.5599236 -1.138811
v 1.073764 2.372457 0.5504323
v 1.576374 0.6695262 1.210462
v 0.5558494 1.392641 0.5111464
v 1.073764 2.372457 0.5504323
v 0.5558494 1.392641 0.5111464
v 0.9095267 1.04839 -0.1907843
v 0.05503412 0.08263782 1.322246
v -1.2501 0.8432429 -0.02921192
v 0.1519339 0.4106983 0.4494179
v 1.924669 0.4012584 0.8110709
v 1.576374 0.6695262 1.210462
v 0.9095267 1.04839 -0.1907843
v 1.073764 2.372457 0.5504323
v 0.9095267 1.04839 -0.1907843
v 1.576374 0.6695262 1.210462
v 1.86757 -0.1326907 1.773847
v 1.924669 0.4012584 0.8110709
v 2.020656 -0.1747919 0.008750333
v 1.576374 0.6695262 1.210462
v 1.924669 0.4012584 0.8110709
v 1.86757 -0.1326907 1.773847
v 0.5558494 1.392641 0.5111464
v 0.05503412 0.08263782 1.322246
v 0.1519339 0.4106983 0.4494179
v 2.020656 -0.1747919 0.008750333
v 0.05503412 0.08263782 1.322246
v 1.86757 -0.1326907 1.773847
v -0.02009355 3.913543 0.01316956
v 0.9095267 1.04839 -0.1907843
v -0.5126154 1.467784 0.1010387
v 0.5558494 1.392641 0.5111464
v 0.1519339 0.4106983 0.4494179
v 0.9095267 1.04839 -0.1907843
v -1.2501 0.8432429 -0.02921192
v 0.05503412 0.08263782 1.322246
v -1.790314 -0.1310881 0.4399246
v 0.9095267 1.04839 -0.1907843
v -0.02009355 3.913543 0.01316956
v 0.1687903 1.085757 -0.5455285
v -0.5126154 1.467784 0.1010387
v 0.1519339 0.4106983 0.4494179
v -1.2501 0.8432429 -0.02921192
v 1.035178 -0.04369523 -1.313201
v 2.020656 -0.1747919 0.008750333
v 0.9095267 1.04839 -0.1907843
v 0.1687903 1.085757 -0.5455285
v -0.02009355 3.913543 0.01316956
v -0.5126154 1.467784 0.1010387
v -1.790314 -0.1310881 0.4399246
v 0.05503412 0.08263782 1.322246
v 2.020656 -0.1747919 0.008750333
v -0.5126154 1.467784 0.1010387
v 0.9095267 1.04839 -0.1907843
v 0.1519339 0.4106983 0.4494179
v -0.5126154 1.467784 0.1010387
v -1.2501 0.8432429 -0.02921192
v 0.1687903 1.085757 -0.5455285
v 2.020656 -0.1747919 0.008750333
v -0.8724475 -0.2243626 -1.169215
v -1.790314 -0.1310881 0.4399246
v 1.035178 -0.04369523 -1.313201
v 0.9095267 1.04839 -0.1907843
v -0.2087238 0.5599236 -1.138811
v -1.2501 0.8432429 -0.02921192
v -0.2087238 0.5599236 -1.138811
v 0.1687903 1.085757 -0.5455285
v 1.035178 -0.04369523 -1.313201
v -0.8724475 -0.2243626 -1.169215
v 2.020656 -0.1747919 0.008750333
v -0.2087238 0.5599236 -1.138811
v -1.2501 0.8432429 -0.02921192
v -1.790314 -0.1310881 0.4399246
v -0.8724475 -0.2243626 -1.169215
v 1.035178 -0.04369523 -1.313201
v -0.2087238 0.5599236 -1.138811
v -1.790314 -0.1310881 0.4399246
v -0.8724475 -0.2243626 -1.169215
v -0.2087238 0.5599236 -1.138811
v 1.576374 0.6695262 1.210462
v 0.05503412 0.08263782 1.322246
v 0.5558494 1.392641 0.5111464
v 1.86757 -0.1326907 1.773847
vt 0 0
vt 0 0
vt 0 0
vt 0 0
vt 0 0
vt 0 0
vt 0 0
vt 0 0
vt 0 0
vt 0 0
vt 0 0
vt 0 0
vt 0 0
vt 0 0
vt 0 0
vt 0 0
vt 0 0
vt 0 0
vt 0 0
vt 0 0
vt 0 0
vt 0 0
vt 0 0
vt 0 0
vt 0 0
vt 0 0
vt 0 0
vt 0 0
vt 0 0
vt 0 0
vt 0 0
vt 0 0
vt 0 0
vt 0 0
vt 0 0
vt 0 0
vt 0 0
vt 0 0
vt 0 0
vt 0 0
vt 0 0
vt 0 0
vt 0 0
vt 0 0
vt 0 0
vt 0 0
vt 0 0
vt 0 0
vt 0 0
vt 0 0
vt 0 0
vt 0 0
vt 0 0
vt 0 0
vt 0 0
vt 0 0
vt 0 0
vt 0 0
vt 0 0
vt 0 0
vt 0 0
vt 0 0
vt 0 0
vt 0 0
vt 0 0
vt 0 0
vt 0 0
vt 0 0
vt 0 0
vt 0 0
vt 0 0
vt 0 0
vt 0 0
vt 0 0
vt 0 0
vt 0 0
vt 0 0
vt 0 0
vt 0 0
vt 0 0
vt 0 0
vt 0 0
vt 0 0
vt 0 0
vt 0 0
vt 0 0
vt 0 0
vt 0 0
vn 0.7222123 0.5998867 -0.3443042
vn 0.7222123 0.5998867 -0.3443042
vn 0.7222123 0.5998867 -0.3443042
vn 0.381159 0.5580155 -0.7371136
vn 0.381159 0.5580155 -0.7371136
vn 0.381159 0.5580155 -0.7371136
vn -0.4511398 0.2036259 0.8689128
vn -0.4511398 0.2036259 0.8689128
vn -0.4511398 0.2036259 0.8689128
vn -0.7218223 0.4040718 -0.5618706
vn -0.7218223 0.4040718 -0.5618706
vn -0.7218223 0.4040718 -0.5618706
vn 0.1594072 0.9181367 0.3627872
vn 0.1594072 0.9181367 0.3627872
vn 0.1594072 0.9181367 0.3627872
vn 0.5721043 0.8185979 -0.05093269
vn 0.5721043 0.8185979 -0.05093269
vn 0.5721043 0.8185979 -0.05093269
vn 0.9086916 0.1123614 -0.4020627
vn 0.9086916 0.1123614 -0.4020627
vn 0.9086916 0.1123614 -0.4020627
vn 0.9952468 0.04718217 0.08519165
vn 0.9952468 0.04718217 0.08519165
vn 0.9952468 0.04718217 0.08519165
vn 0.7853087 0.5204886 0.3352338
vn 0.7853087 0.5204886 0.3352338
vn 0.7853087 0.5204886 0.3352338
vn -0.9249662 0.3780029 0.03938762
vn -0.9249662 0.3780029 0.03938762
vn -0.9249662 0.3780029 0.03938762
vn -0.1211932 -0.9925417 0.01316317
vn -0.1211932 -0.9925417 0.01316317
vn -0.1211932 -0.9925417 0.01316317
vn 0.1995963 -0.004990515 0.9798655
vn 0.1995963 -0.004990515 0.9798655
vn 0.1995963 -0.004990515 0.9798655
vn -0.7583156 0.3466343 -0.552089
vn -0.7583156 0.3466343 -0.552089
vn -0.7583156 0.3466343 -0.552089
vn -0.4073139 0.5695804 0.7139142
vn -0.4073139 0.5695804 0.7139142
vn -0.4073139 0.5695804 0.7139142
vn 0.4312716 0.2025145 -0.8792
vn 0.4312716 0.2025145 -0.8792
vn 0.4312716 0.2025145 -0.8792
vn -0.2824214 0.1354351 0.9496818
vn -0.2824214 0.1354351 0.9496818
vn -0.2824214 0.1354351 0.9496818
vn 0.6928207 0.5540645 -0.4615323
vn 0.6928207 0.5540645 -0.4615323
vn 0.6928207 0.5540645 -0.4615323
vn -0.6530704 0.1045671 -0.7500432
vn -0.6530704 0.1045671 -0.7500432
vn -0.6530704 0.1045671 -0.7500432
vn 0.01259878 -0.9775261 0.2104375
vn 0.01259878 -0.9775261 0.2104375
vn 0.01259878 -0.9775261 0.2104375
vn 0.3077759 0.4667349 0.8291156
vn 0.3077759 0.4667349 0.8291156
vn 0.3077759 0.4667349 0.8291156
vn -0.3641061 0.5816533 -0.7273969
vn -0.3641061 0.5816533 -0.7273969
vn -0.3641061 0.5816533 -0.7273969
vn -0.005240411 -0.9984788 0.05488807
vn -0.005240411 -0.9984788 0.05488807
vn -0.005240411 -0.9984788 0.05488807
vn 0.2508202 0.7076979 -0.6604944
vn 0.2508202 0.7076979 -0.6604944
vn 0.2508202 0.7076979 -0.6604944
vn -0.320875 0.8008583 -0.5056335
vn -0.320875 0.8008583 -0.5056335
vn -0.320875 0.8008583 -0.5056335
vn 0.08126037 -0.9840631 -0.1581659
vn 0.08126037 -0.9840631 -0.1581659
vn 0.08126037 -0.9840631 -0.1581659
vn -0.7191703 0.06567924 -0.6917226
vn -0.7191703 0.06567924 -0.6917226
vn -0.7191703 0.06567924 -0.6917226
vn -0.08520568 0.1104956 -0.9902175
vn -0.08520568 0.1104956 -0.9902175
vn -0.08520568 0.1104956 -0.9902175
vn -0.6831124 0.5945445 -0.4241158
vn -0.6831124 0.5945445 -0.4241158
vn -0.6831124 0.5945445 -0.4241158
vn -0.1574295 0.5626668 0.8115553
vn -0.1574295 0.5626668 0.8115553
vn -0.1574295 0.5626668 0.8115553
vn -0.1443839 0.5330611 0.8336661
g col_stalagmite3_0
f 3/3/3 2/2/2 1/1/1
f 6/6/6 5/5/5 4/4/4
f 9/9/9 8/8/8 7/7/7
f 12/12/12 11/11/11 10/10/10
f 15/15/15 14/14/14 13/13/13
f 18/18/18 17/17/17 16/16/16
f 21/21/21 20/20/20 19/19/19
f 24/24/24 23/23/23 22/22/22
f 27/27/27 26/26/26 25/25/25
f 30/30/30 29/29/29 28/28/28
f 33/33/33 32/32/32 31/31/31
f 36/36/36 35/35/35 34/34/34
f 39/39/39 38/38/38 37/37/37
f 42/42/42 41/41/41 40/40/40
f 45/45/45 44/44/44 43/43/43
f 48/48/48 47/47/47 46/46/46
f 51/51/51 50/50/50 49/49/49
f 54/54/54 53/53/53 52/52/52
f 57/57/57 56/56/56 55/55/55
f 60/60/60 59/59/59 58/58/58
f 63/63/63 62/62/62 61/61/61
f 66/66/66 65/65/65 64/64/64
f 69/69/69 68/68/68 67/67/67
f 72/72/72 71/71/71 70/70/70
f 75/75/75 74/74/74 73/73/73
f 78/78/78 77/77/77 76/76/76
f 81/81/81 80/80/80 79/79/79
f 84/84/84 83/83/83 82/82/82
f 87/87/87 86/86/86 85/85/85
f 85/85/85 86/86/86 88/88/88
