g stalagmite1
v -1.032255 0.5904279 0.4661696
v -0.9070988 0.7464066 0.3817426
v -0.7166977 0.5165202 0.5114217
v -1.295359 0.5717968 0.0465314
v -0.9335195 0.977613 0.1545466
v -0.5828304 1.183425 0.2698413
v -0.3384565 0.5502807 0.5933684
v 0.05524206 0.9910884 0.5028727
v 0.1562076 0.7180331 0.5198166
v 0.2734052 1.165963 0.4782179
v 0.2821303 0.966229 0.4040829
v 0.4878147 0.961199 0.2033018
v 0.6784618 1.275909 0.262269
v 0.8158987 0.8833191 0.1006952
v 0.3684039 0.569064 0.5523691
v 0.1562076 0.7180331 0.5198166
v -0.01619267 0.3366098 0.6418956
v -0.3384565 0.5502807 0.5933684
v -0.4771864 0.4221283 0.7173166
v -0.7166977 0.5165202 0.5114217
v 0.723592 0.3574327 0.8070229
v 0.3006179 0.2764556 0.7192004
v 0.5285958 0.2602253 0.974337
v 1.068643 0.2327417 0.8417646
v 1.317019 0.3117722 0.7048673
v 0.9413246 0.2005666 1.090807
v 0.5285958 0.2602253 0.974337
v 0.8055739 0.5312091 0.5081905
v -1.227596 0.5404615 0.5792704
v -1.032255 0.5904279 0.4661696
v 1.255038 0.5065641 0.1942712
v -1.333736 0.4584389 0.3188194
v -0.824295 0.4344078 0.8179964
v -0.07888842 0.2724403 0.9778844
v -0.01619267 0.3366098 0.6418956
v 0.3006179 0.2764556 0.7192004
v -1.209404 0.3165932 0.6131939
v 0.2445901 0.2242845 1.23718
v -0.7891628 0.3011149 0.9229216
v -0.7244667 0.2015163 1.108352
v -0.4172119 0.0958156 1.292975
v -0.989628 0.08566599 1.082593
v -1.438452 0.1953743 0.1676344
v -1.416756 0.1180091 0.6504786
v -1.74139 0.03692167 -0.04148975
v -1.474818 0.2393403 -0.1009509
v -1.143859 -0.1531371 0.9109566
v -0.6662028 -0.07086376 1.239092
v -0.4458058 -0.1131003 1.135467
v -0.04220295 -0.05849308 1.08732
v -1.424297 -0.123707 0.6147741
v -0.9605384 -0.1923897 0.3742572
v -1.581816 -0.167509 0.2617815
v -1.384827 -0.2167107 -0.1953964
v -1.668997 -0.147053 -0.01895997
v -1.570893 0.02803182 -0.5051487
v -1.353836 0.2091328 -0.6608577
v -1.266724 -0.06671704 -0.8073892
v -1.327993 0.3213128 -0.3065974
v 0.2566795 -0.2706999 0.406065
v -0.2294676 -0.3089179 -0.1096079
v 0.5025007 -0.1546496 0.9259243
v 1.378226 -0.2762486 0.1483659
v 1.431123 -0.283237 -0.1659736
v -0.5318946 -0.3057454 -0.5880082
v 1.326383 0.08603165 0.9533513
v 1.727823 -0.08862442 0.3726282
v 1.703087 0.1378599 0.3450879
v -1.095747 -0.2623658 -0.5955691
v 2.064955 -0.09570016 -0.05187842
v 1.505915 0.3182588 0.4590068
v -0.9678601 -0.1676078 -1.028482
v 1.808624 0.1403482 0.02819178
v 2.026396 0.02393889 -0.03574813
v 1.897418 0.05650836 -0.354784
v 1.456154 -0.2221276 -0.6927497
v 1.549464 0.3609109 0.0928902
v 1.323274 0.7141943 -0.2085416
v 1.628958 0.3607635 -0.2269836
v 1.329338 0.4590267 -0.6635056
v 1.661983 0.1753417 -0.4056498
v 0.9579605 0.8404755 0.03352461
v 0.9560422 1.17829 -0.02652241
v 0.9989666 0.9251518 -0.2166035
v 0.8009691 1.377505 -0.09406887
v 1.585916 0.1260208 -0.7635171
v 1.242074 0.2162344 -0.8756483
v 1.535202 0.06036064 -0.8736644
v 1.255408 0.1016068 -1.105689
v 0.9974223 -0.2331791 -1.017393
v 0.9241748 0.3371521 -1.159892
v 0.8356638 0.0658321 -1.351598
v -0.05905652 0.4319359 -1.384839
v 0.3439616 0.4642605 -1.251894
v 0.2289752 0.5030589 -1.027733
v -0.1311618 0.4855884 -0.8774545
v -0.5377171 0.5267832 -0.8877411
v 0.5766964 -0.2463228 -1.151735
v 0.7436621 -0.03142283 -1.35027
v 0.1327957 0.06061312 -1.499636
v 0.06058592 -0.2690731 -1.158218
v -0.148024 -0.1912142 -1.252788
v -0.4634621 0.1253559 -1.405548
v -1.011647 -0.03669446 -1.111487
v -0.4529271 0.3611342 -1.327538
v -0.9597619 0.2757627 -1.039342
v -0.9904464 0.3382495 -0.7934651
v -0.8853207 0.4805015 -0.8450218
v -1.334745 0.4692964 -0.2896107
v -0.5671216 0.6670299 -0.636911
v -0.1311618 0.4855884 -0.8774545
v -0.1911535 0.7604941 -0.7784466
v 0.2289752 0.5030589 -1.027733
v -1.14568 0.6971197 -0.3468412
v -1.31206 0.7146177 -0.1025485
v -1.190576 1.011545 -0.09422765
v -0.8367376 1.107613 -0.01776212
v -0.8099235 0.7241321 -0.4192369
v -0.6089625 0.8584492 -0.5949973
v -0.7953042 1.094772 -0.3332536
v -0.5082818 1.246957 -0.1637362
v -0.4260699 1.371315 0.2556033
v -0.4675346 1.311679 -0.4072951
v -0.6458754 1.108442 -0.5172043
v -0.3191857 1.19652 -0.6011952
v 0.02824938 1.372339 -0.6120911
v 0.1231441 0.9618987 -0.688127
v 0.35972 0.6882704 -0.8703232
v 0.9430396 0.5091583 -0.7229927
v 0.831665 0.7068707 -0.6571764
v 1.17318 0.6479902 -0.5768266
v 0.8760417 0.9380785 -0.379934
v 0.5531713 0.9232581 -0.4380927
v 0.6933954 1.195606 -0.3618127
v 0.697767 1.683043 -0.2148226
v 0.3206495 1.655703 -0.4864271
v 0.5714035 1.912187 -0.1732839
v 0.3522155 2.167747 -0.2125259
v 0.3569641 1.917161 0.04548351
v 0.1238176 1.827699 0.2144474
v 0.02028537 1.812838 -0.4305728
v -0.4974401 1.636657 -0.1713773
v -0.4675346 1.311679 -0.4072951
v -0.5082818 1.246957 -0.1637362
v -0.4208503 1.523755 0.2873507
v -0.3029467 1.66256 0.3082769
v -0.5416784 1.84185 -0.04878879
v 0.1490239 1.984631 -0.3731957
v 0.016725 3.119093 -0.1777913
v -0.2879827 2.281803 -0.2435771
v -0.2269412 1.959152 0.2366698
v 0.2414818 2.504539 -0.1561887
v -0.3817162 2.297038 -0.03755774
v -0.09825378 2.209921 0.3022337
v -0.2412132 3.110978 0.0308736
v -0.1376492 3.64893 -0.02306854
v 0.1652578 2.40642 0.1469425
v 0.09487518 2.187551 0.3284703
v -0.01019382 2.960484 0.2741386
v 0.04259607 2.498822 0.2766403
v 0.1151494 2.925643 0.2351176
v 0.08180308 3.646083 0.04160726
v 0.1968182 3.056926 0.004338601
v -0.03108479 4.201544 -0.01022415
vt 0 0
vt 0 0
vt 0 0
vt 0 0
vt 0 0
vt 0 0
vt 0 0
vt 0 0
vt 0 0
vt 0 0
vt 0 0
vt 0 0
vt 0 0
vt 0 0
vt 0 0
vt 0 0
vt 0 0
vt 0 0
vt 0 0
vt 0 0
vt 0 0
vt 0 0
vt 0 0
vt 0 0
vt 0 0
vt 0 0
vt 0 0
vt 0 0
vt 0 0
vt 0 0
vt 0 0
vt 0 0
vt 0 0
vt 0 0
vt 0 0
vt 0 0
vt 0 0
vt 0 0
vt 0 0
vt 0 0
vt 0 0
vt 0 0
vt 0 0
vt 0 0
vt 0 0
vt 0 0
vt 0 0
vt 0 0
vt 0 0
vt 0 0
vt 0 0
vt 0 0
vt 0 0
vt 0 0
vt 0 0
vt 0 0
vt 0 0
vt 0 0
vt 0 0
vt 0 0
vt 0 0
vt 0 0
vt 0 0
vt 0 0
vt 0 0
vt 0 0
vt 0 0
vt 0 0
vt 0 0
vt 0 0
vt 0 0
vt 0 0
vt 0 0
vt 0 0
vt 0 0
vt 0 0
vt 0 0
vt 0 0
vt 0 0
vt 0 0
vt 0 0
vt 0 0
vt 0 0
vt 0 0
vt 0 0
vt 0 0
vt 0 0
vt 0 0
vt 0 0
vt 0 0
vt 0 0
vt 0 0
vt 0 0
vt 0 0
vt 0 0
vt 0 0
vt 0 0
vt 0 0
vt 0 0
vt 0 0
vt 0 0
vt 0 0
vt 0 0
vt 0 0
vt 0 0
vt 0 0
vt 0 0
vt 0 0
vt 0 0
vt 0 0
vt 0 0
vt 0 0
vt 0 0
vt 0 0
vt 0 0
vt 0 0
vt 0 0
vt 0 0
vt 0 0
vt 0 0
vt 0 0
vt 0 0
vt 0 0
vt 0 0
vt 0 0
vt 0 0
vt 0 0
vt 0 0
vt 0 0
vt 0 0
vt 0 0
vt 0 0
vt 0 0
vt 0 0
vt 0 0
vt 0 0
vt 0 0
vt 0 0
vt 0 0
vt 0 0
vt 0 0
vt 0 0
vt 0 0
vt 0 0
vt 0 0
vt 0 0
vt 0 0
vt 0 0
vt 0 0
vt 0 0
vt 0 0
vt 0 0
vt 0 0
vt 0 0
vt 0 0
vt 0 0
vt 0 0
vt 0 0
vt 0 0
vt 0 0
vt 0 0
vt 0 0
vt 0 0
vt 0 0
vn -0.4600738 0.6788896 0.5722246
vn -0.3977421 0.4870315 0.7775614
vn -0.1926819 0.3561888 0.9143322
vn -0.8202189 0.4932212 0.2897821
vn -0.5834489 0.5769931 0.5715473
vn -0.3615724 0.5370881 0.7621036
vn -0.1825731 0.3531909 0.9175639
vn -0.1047087 0.3139453 0.9436495
vn 0.2311677 0.1107889 0.9665854
vn 0.2221493 0.2424883 0.9443776
vn 0.601297 -0.08610893 0.7943723
vn 0.4447877 0.1098244 0.8888771
vn 0.5356069 0.2343986 0.8112844
vn 0.4400403 0.4441889 0.7804235
vn 0.05266133 0.6363097 0.7696341
vn 0.1487171 0.4118254 0.8990456
vn -0.0107457 0.4054424 0.9140574
vn 0.07307284 0.500393 0.8627092
vn 0.1030863 0.9038728 0.4151953
vn 0.05287294 0.924364 0.3778301
vn 0.06602997 0.8002785 0.595982
vn -0.2593694 0.4028264 0.8777575
vn -0.1229962 0.9136412 0.3874683
vn 0.02789706 0.9073666 0.4194134
vn 0.4354377 0.77311 0.4611886
vn 0.2244577 -0.04575389 0.9734091
vn 0.05672102 0.9845531 0.1656441
vn 0.2341286 0.8067849 0.5424776
vn -0.5393909 0.6582093 0.5251837
vn -0.1701685 0.9270087 0.3342121
vn 0.4356197 0.7969548 0.4184477
vn -0.8248274 0.4913719 0.2796665
vn -0.09937079 0.8187283 0.565517
vn 0.03123778 0.9692202 0.2442059
vn 0.1761487 0.9603105 0.2162763
vn 0.0509057 0.9946291 0.09012044
vn -0.6484788 0.5160828 0.5595835
vn 0.1073182 0.6183433 0.7785463
vn -0.2174843 0.7371878 0.6397303
vn -0.1588811 0.7925169 0.5887902
vn -0.008152897 0.2084159 0.9780064
vn -0.5511439 0.2903028 0.7822816
vn -0.7202584 0.6624368 0.2059256
vn -0.7856082 0.3871578 0.4826267
vn -0.9180837 0.3962646 -0.00983312
vn -0.7132378 0.6941797 -0.0969875
vn -0.2366632 -0.9148763 0.3270962
vn -0.2252431 -0.5493452 0.8046648
vn 0.1168265 -0.9737486 0.1953593
vn 0.03484328 -0.8892868 0.4560207
vn -0.8091224 -0.3034083 0.5032538
vn -0.05196872 -0.9908771 0.1243453
vn -0.340323 -0.9225222 0.1820247
vn -0.1954776 -0.980293 -0.02853329
vn -0.6301404 -0.7647151 -0.134662
vn -0.8395585 -0.2673921 -0.472909
vn -0.6375529 0.5996754 -0.4836485
vn -0.7144343 -0.4075784 -0.5687385
vn -0.7695377 0.5478205 -0.3281832
vn -0.01891452 -0.9859154 0.1661718
vn -0.02769548 -0.9982852 0.05157022
vn 0.08435891 -0.8870677 0.453866
vn 0.1375037 -0.9713655 0.1937576
vn 0.122163 -0.9924494 -0.0109754
vn -0.03256401 -0.9978929 -0.05611927
vn 0.4132743 -0.6344272 0.6532277
vn 0.4461664 -0.7674797 0.4603372
vn 0.7924008 0.3789391 0.478023
vn -0.2329323 -0.9615452 -0.1455104
vn 0.5329425 -0.8451395 0.0413701
vn 0.5586127 0.7614481 0.3288594
vn -0.2022198 -0.887763 -0.4135021
vn 0.6112071 0.7888283 0.06461961
vn 0.7637973 0.6289454 0.1450561
vn 0.8344419 0.04942031 -0.5488755
vn 0.3909727 -0.8557469 -0.3388767
vn 0.6274146 0.7442659 0.2289524
vn 0.6519141 0.7582496 0.00809719
vn 0.7790542 0.607353 -0.1555539
vn 0.6127417 0.5906618 -0.5250393
vn 0.6516278 0.6886951 -0.3179315
vn 0.6215799 0.5934248 0.5113565
vn 0.8937293 0.3270618 0.3070481
vn 0.7511727 0.6443574 -0.1433285
vn 0.8896906 0.453026 -0.05672769
vn 0.4793287 0.8104739 -0.3367137
vn 0.6182914 0.5739442 -0.5369392
vn 0.6420779 -0.4143279 -0.6450335
vn 0.6125369 -0.05442035 -0.7885664
vn 0.2249059 -0.9090575 -0.3507589
vn 0.3261183 0.7005382 -0.6347386
vn 0.3496886 0.2230965 -0.9099153
vn -0.007363987 0.7383502 -0.6743773
vn 0.1228467 0.9276806 -0.3525867
vn 0.0182388 0.986716 -0.1614272
vn 0.08778136 0.994635 0.05473153
vn -0.07256616 0.9329822 -0.3525313
vn 0.06802572 -0.9547811 -0.2894231
vn 0.2045672 -0.5991801 -0.7740385
vn 0.05699712 -0.1104038 -0.9922511
vn 0.009850194 -0.9876168 -0.1565754
vn -0.1610955 -0.8175979 -0.5527945
vn -0.3018688 -0.2521482 -0.9194
vn -0.5906593 -0.04852782 -0.8054605
vn -0.3404367 0.6523798 -0.6771289
vn -0.5454968 0.5588613 -0.6245858
vn -0.589316 0.6611187 -0.4643582
vn -0.4422915 0.6889091 -0.5742669
vn -0.8755468 0.2499759 -0.4134369
vn -0.2700635 0.6731204 -0.6884582
vn -0.3212644 0.3703089 -0.8715851
vn -0.2090831 0.3552257 -0.9110976
vn 0.04407215 0.5600676 -0.8272737
vn -0.5560306 0.5391012 -0.6326135
vn -0.9346628 0.3224412 -0.14979
vn -0.7186978 0.6897195 -0.08809367
vn -0.3830666 0.9180256 0.1024161
vn -0.3065836 0.1501196 -0.9399311
vn -0.475493 0.235909 -0.8474982
vn -0.5461539 0.6930171 -0.4705774
vn -0.4906754 0.8704566 0.03927964
vn -0.649229 0.1917009 0.7360384
vn -0.4697326 0.7834669 -0.4068549
vn -0.5121121 0.4035118 -0.7582344
vn -0.2400592 0.4073091 -0.8811758
vn -0.0153824 0.2751593 -0.9612756
vn 0.2033287 0.4524587 -0.8682963
vn 0.2081875 0.5960815 -0.7754642
vn 0.2587869 0.6749995 -0.6909451
vn 0.2860177 0.6613407 -0.6934136
vn 0.4524278 0.7060968 -0.5447351
vn 0.3910668 0.6841323 -0.6156539
vn 0.3539619 0.516747 -0.7795407
vn 0.5195793 0.20816 -0.8286778
vn 0.8175227 0.3948131 -0.4192604
vn 0.3797111 0.2504603 -0.8905556
vn 0.7269513 0.5453809 0.4172547
vn 0.8079108 0.451684 -0.3784994
vn 0.6429846 0.4066344 0.6490139
vn 0.260009 0.282293 0.9234208
vn -0.3249917 0.2253957 -0.9184646
vn -0.7871736 0.1565405 -0.596534
vn -0.5736397 0.4459779 -0.6870525
vn -0.9977491 0.0289443 0.06048782
vn -0.6348997 0.03468455 0.7718156
vn -0.2180621 0.3081949 0.925994
vn -0.9777734 0.1824672 0.1032713
vn 0.2530577 0.2787813 -0.926414
vn 0.05088978 0.2173476 -0.9747668
vn -0.4920662 0.1759224 -0.8525972
vn -0.4613529 0.1705665 0.8706668
vn 0.8883606 0.2091927 -0.4087223
vn -0.9300193 0.1892759 0.315022
vn -0.5802274 0.0420317 0.8133692
vn -0.934811 0.1740962 0.3095462
vn -0.9232401 0.3542143 -0.1488619
vn 0.8983212 0.1554279 0.4109271
vn 0.4842973 0.01553583 0.8747656
vn -0.4401885 0.1710625 0.88146
vn 0.4230779 0.03788892 0.9053009
vn 0.79703 0.09147213 0.5969723
vn 0.8537419 0.399233 0.3342719
vn 0.9791555 0.1691111 -0.1124992
vn 0.3475651 0.5811151 -0.7358694
g stalagmite1_0
f 3/3/3 2/2/2 1/1/1
f 1/1/1 2/2/2 4/4/4
f 5/5/5 4/4/4 2/2/2
f 5/5/5 2/2/2 6/6/6
f 3/3/3 7/7/7 2/2/2
f 7/7/7 6/6/6 2/2/2
f 6/6/6 7/7/7 8/8/8
f 8/8/8 7/7/7 9/9/9
f 6/6/6 8/8/8 10/10/10
f 10/10/10 8/8/8 11/11/11
f 9/9/9 11/11/11 8/8/8
f 11/11/11 9/9/9 12/12/12
f 11/11/11 12/12/12 10/10/10
f 10/10/10 12/12/12 13/13/13
f 12/12/12 14/14/14 13/13/13
f 12/12/12 15/15/15 14/14/14
f 15/15/15 12/12/12 16/16/16
f 17/17/17 15/15/15 16/16/16
f 18/18/18 17/17/17 16/16/16
f 19/19/19 17/17/17 18/18/18
f 18/18/18 20/20/20 19/19/19
f 21/21/21 15/15/15 17/17/17
f 22/22/22 21/21/21 17/17/17
f 23/23/23 21/21/21 22/22/22
f 21/21/21 23/23/23 24/24/24
f 24/24/24 25/25/25 21/21/21
f 24/24/24 26/26/26 25/25/25
f 26/26/26 24/24/24 27/27/27
f 15/15/15 21/21/21 28/28/28
f 28/28/28 14/14/14 15/15/15
f 28/28/28 21/21/21 25/25/25
f 20/20/20 29/29/29 19/19/19
f 29/29/29 20/20/20 30/30/30
f 14/14/14 28/28/28 31/31/31
f 31/31/31 28/28/28 25/25/25
f 29/29/29 30/30/30 32/32/32
f 30/30/30 4/4/4 32/32/32
f 19/19/19 29/29/29 33/33/33
f 34/34/34 19/19/19 33/33/33
f 35/35/35 19/19/19 34/34/34
f 34/34/34 36/36/36 35/35/35
f 27/27/27 36/36/36 34/34/34
f 33/33/33 29/29/29 37/37/37
f 29/29/29 32/32/32 37/37/37
f 27/27/27 34/34/34 38/38/38
f 38/38/38 26/26/26 27/27/27
f 33/33/33 39/39/39 34/34/34
f 33/33/33 37/37/37 39/39/39
f 40/40/40 38/38/38 34/34/34
f 40/40/40 34/34/34 39/39/39
f 38/38/38 40/40/40 41/41/41
f 26/26/26 38/38/38 41/41/41
f 42/42/42 40/40/40 39/39/39
f 39/39/39 37/37/37 42/42/42
f 42/42/42 41/41/41 40/40/40
f 43/43/43 37/37/37 32/32/32
f 37/37/37 44/44/44 42/42/42
f 43/43/43 44/44/44 37/37/37
f 45/45/45 44/44/44 43/43/43
f 43/43/43 32/32/32 46/46/46
f 43/43/43 46/46/46 45/45/45
f 32/32/32 4/4/4 46/46/46
f 42/42/42 44/44/44 47/47/47
f 42/42/42 48/48/48 41/41/41
f 48/48/48 42/42/42 47/47/47
f 49/49/49 41/41/41 48/48/48
f 48/48/48 47/47/47 49/49/49
f 50/50/50 41/41/41 49/49/49
f 50/50/50 26/26/26 41/41/41
f 45/45/45 51/51/51 44/44/44
f 51/51/51 47/47/47 44/44/44
f 52/52/52 49/49/49 47/47/47
f 49/49/49 52/52/52 50/50/50
f 51/51/51 53/53/53 47/47/47
f 53/53/53 51/51/51 45/45/45
f 53/53/53 52/52/52 47/47/47
f 53/53/53 54/54/54 52/52/52
f 55/55/55 53/53/53 45/45/45
f 54/54/54 53/53/53 55/55/55
f 45/45/45 56/56/56 55/55/55
f 55/55/55 56/56/56 54/54/54
f 57/57/57 56/56/56 45/45/45
f 45/45/45 46/46/46 57/57/57
f 54/54/54 56/56/56 58/58/58
f 57/57/57 58/58/58 56/56/56
f 59/59/59 57/57/57 46/46/46
f 46/46/46 4/4/4 59/59/59
f 60/60/60 50/50/50 52/52/52
f 52/52/52 54/54/54 61/61/61
f 61/61/61 60/60/60 52/52/52
f 60/60/60 62/62/62 50/50/50
f 26/26/26 50/50/50 62/62/62
f 61/61/61 63/63/63 60/60/60
f 62/62/62 60/60/60 63/63/63
f 63/63/63 61/61/61 64/64/64
f 61/61/61 65/65/65 64/64/64
f 54/54/54 65/65/65 61/61/61
f 66/66/66 26/26/26 62/62/62
f 66/66/66 25/25/25 26/26/26
f 67/67/67 62/62/62 63/63/63
f 67/67/67 66/66/66 62/62/62
f 64/64/64 67/67/67 63/63/63
f 25/25/25 66/66/66 68/68/68
f 67/67/67 68/68/68 66/66/66
f 65/65/65 54/54/54 69/69/69
f 54/54/54 58/58/58 69/69/69
f 70/70/70 67/67/67 64/64/64
f 68/68/68 67/67/67 70/70/70
f 25/25/25 68/68/68 71/71/71
f 25/25/25 71/71/71 31/31/31
f 72/72/72 65/65/65 69/69/69
f 72/72/72 69/69/69 58/58/58
f 71/71/71 68/68/68 73/73/73
f 70/70/70 74/74/74 68/68/68
f 74/74/74 73/73/73 68/68/68
f 70/70/70 75/75/75 74/74/74
f 75/75/75 73/73/73 74/74/74
f 76/76/76 70/70/70 64/64/64
f 70/70/70 76/76/76 75/75/75
f 31/31/31 71/71/71 77/77/77
f 73/73/73 77/77/77 71/71/71
f 78/78/78 31/31/31 77/77/77
f 73/73/73 79/79/79 77/77/77
f 77/77/77 79/79/79 78/78/78
f 78/78/78 79/79/79 80/80/80
f 79/79/79 81/81/81 80/80/80
f 79/79/79 73/73/73 81/81/81
f 75/75/75 81/81/81 73/73/73
f 31/31/31 78/78/78 82/82/82
f 82/82/82 14/14/14 31/31/31
f 83/83/83 14/14/14 82/82/82
f 14/14/14 83/83/83 13/13/13
f 84/84/84 83/83/83 82/82/82
f 84/84/84 82/82/82 78/78/78
f 83/83/83 85/85/85 13/13/13
f 85/85/85 83/83/83 84/84/84
f 81/81/81 75/75/75 86/86/86
f 80/80/80 81/81/81 87/87/87
f 81/81/81 86/86/86 87/87/87
f 75/75/75 88/88/88 86/86/86
f 75/75/75 76/76/76 88/88/88
f 87/87/87 86/86/86 89/89/89
f 88/88/88 89/89/89 86/86/86
f 76/76/76 90/90/90 88/88/88
f 88/88/88 90/90/90 89/89/89
f 64/64/64 90/90/90 76/76/76
f 89/89/89 91/91/91 87/87/87
f 80/80/80 87/87/87 91/91/91
f 90/90/90 92/92/92 89/89/89
f 91/91/91 89/89/89 92/92/92
f 91/91/91 92/92/92 93/93/93
f 91/91/91 94/94/94 80/80/80
f 91/91/91 93/93/93 94/94/94
f 94/94/94 95/95/95 80/80/80
f 94/94/94 96/96/96 95/95/95
f 97/97/97 96/96/96 94/94/94
f 94/94/94 93/93/93 97/97/97
f 64/64/64 98/98/98 90/90/90
f 90/90/90 99/99/99 92/92/92
f 99/99/99 90/90/90 98/98/98
f 92/92/92 99/99/99 100/100/100
f 99/99/99 98/98/98 100/100/100
f 93/93/93 92/92/92 100/100/100
f 64/64/64 101/101/101 98/98/98
f 98/98/98 101/101/101 100/100/100
f 65/65/65 101/101/101 64/64/64
f 65/65/65 102/102/102 101/101/101
f 102/102/102 100/100/100 101/101/101
f 65/65/65 72/72/72 102/102/102
f 103/103/103 100/100/100 102/102/102
f 72/72/72 103/103/103 102/102/102
f 93/93/93 100/100/100 103/103/103
f 104/104/104 103/103/103 72/72/72
f 58/58/58 104/104/104 72/72/72
f 103/103/103 105/105/105 93/93/93
f 105/105/105 103/103/103 104/104/104
f 58/58/58 106/106/106 104/104/104
f 104/104/104 106/106/106 105/105/105
f 58/58/58 57/57/57 106/106/106
f 107/107/107 106/106/106 57/57/57
f 106/106/106 107/107/107 105/105/105
f 57/57/57 59/59/59 107/107/107
f 105/105/105 108/108/108 93/93/93
f 105/105/105 107/107/107 108/108/108
f 93/93/93 108/108/108 97/97/97
f 107/107/107 59/59/59 109/109/109
f 109/109/109 108/108/108 107/107/107
f 59/59/59 4/4/4 109/109/109
f 108/108/108 110/110/110 97/97/97
f 110/110/110 111/111/111 97/97/97
f 112/112/112 111/111/111 110/110/110
f 113/113/113 111/111/111 112/112/112
f 109/109/109 114/114/114 108/108/108
f 110/110/110 108/108/108 114/114/114
f 115/115/115 109/109/109 4/4/4
f 114/114/114 109/109/109 115/115/115
f 116/116/116 115/115/115 4/4/4
f 115/115/115 116/116/116 114/114/114
f 4/4/4 5/5/5 116/116/116
f 117/117/117 116/116/116 5/5/5
f 6/6/6 117/117/117 5/5/5
f 114/114/114 118/118/118 110/110/110
f 119/119/119 110/110/110 118/118/118
f 119/119/119 118/118/118 114/114/114
f 116/116/116 119/119/119 114/114/114
f 110/110/110 119/119/119 112/112/112
f 117/117/117 120/120/120 116/116/116
f 119/119/119 116/116/116 120/120/120
f 117/117/117 6/6/6 121/121/121
f 121/121/121 120/120/120 117/117/117
f 122/122/122 121/121/121 6/6/6
f 123/123/123 120/120/120 121/121/121
f 6/6/6 10/10/10 122/122/122
f 124/124/124 119/119/119 120/120/120
f 123/123/123 124/124/124 120/120/120
f 112/112/112 119/119/119 124/124/124
f 123/123/123 125/125/125 124/124/124
f 125/125/125 112/112/112 124/124/124
f 126/126/126 125/125/125 123/123/123
f 127/127/127 112/112/112 125/125/125
f 125/125/125 126/126/126 127/127/127
f 127/127/127 128/128/128 112/112/112
f 113/113/113 112/112/112 128/128/128
f 128/128/128 129/129/129 113/113/113
f 129/129/129 80/80/80 113/113/113
f 128/128/128 127/127/127 130/130/130
f 128/128/128 130/130/130 129/129/129
f 131/131/131 80/80/80 129/129/129
f 131/131/131 129/129/129 130/130/130
f 131/131/131 78/78/78 80/80/80
f 78/78/78 131/131/131 132/132/132
f 131/131/131 130/130/130 132/132/132
f 84/84/84 78/78/78 132/132/132
f 133/133/133 130/130/130 127/127/127
f 130/130/130 133/133/133 132/132/132
f 126/126/126 133/133/133 127/127/127
f 134/134/134 84/84/84 132/132/132
f 132/132/132 133/133/133 134/134/134
f 133/133/133 126/126/126 134/134/134
f 85/85/85 84/84/84 134/134/134
f 135/135/135 85/85/85 134/134/134
f 13/13/13 85/85/85 135/135/135
f 126/126/126 136/136/136 134/134/134
f 134/134/134 136/136/136 135/135/135
f 13/13/13 135/135/135 137/137/137
f 137/137/137 135/135/135 138/138/138
f 136/136/136 138/138/138 135/135/135
f 137/137/137 139/139/139 13/13/13
f 137/137/137 138/138/138 139/139/139
f 140/140/140 13/13/13 139/139/139
f 140/140/140 10/10/10 13/13/13
f 141/141/141 136/136/136 126/126/126
f 142/142/142 141/141/141 126/126/126
f 126/126/126 143/143/143 142/142/142
f 142/142/142 143/143/143 144/144/144
f 142/142/142 144/144/144 122/122/122
f 122/122/122 10/10/10 145/145/145
f 142/142/142 122/122/122 145/145/145
f 146/146/146 145/145/145 10/10/10
f 10/10/10 140/140/140 146/146/146
f 145/145/145 147/147/147 142/142/142
f 147/147/147 145/145/145 146/146/146
f 138/138/138 136/136/136 148/148/148
f 136/136/136 141/141/141 148/148/148
f 141/141/141 149/149/149 148/148/148
f 142/142/142 150/150/150 141/141/141
f 142/142/142 147/147/147 150/150/150
f 150/150/150 149/149/149 141/141/141
f 146/146/146 151/151/151 147/147/147
f 140/140/140 151/151/151 146/146/146
f 152/152/152 138/138/138 148/148/148
f 148/148/148 149/149/149 152/152/152
f 153/153/153 147/147/147 151/151/151
f 153/153/153 150/150/150 147/147/147
f 140/140/140 154/154/154 151/151/151
f 153/153/153 151/151/151 154/154/154
f 155/155/155 150/150/150 153/153/153
f 153/153/153 154/154/154 155/155/155
f 155/155/155 156/156/156 150/150/150
f 156/156/156 149/149/149 150/150/150
f 157/157/157 138/138/138 152/152/152
f 139/139/139 138/138/138 157/157/157
f 140/140/140 139/139/139 158/158/158
f 140/140/140 158/158/158 154/154/154
f 157/157/157 158/158/158 139/139/139
f 159/159/159 155/155/155 154/154/154
f 156/156/156 155/155/155 159/159/159
f 154/154/154 158/158/158 160/160/160
f 160/160/160 158/158/158 157/157/157
f 154/154/154 160/160/160 159/159/159
f 161/161/161 160/160/160 157/157/157
f 157/157/157 152/152/152 161/161/161
f 161/161/161 159/159/159 160/160/160
f 162/162/162 156/156/156 159/159/159
f 159/159/159 161/161/161 162/162/162
f 161/161/161 152/152/152 163/163/163
f 152/152/152 149/149/149 163/163/163
f 161/161/161 163/163/163 162/162/162
f 149/149/149 162/162/162 163/163/163
f 164/164/164 156/156/156 162/162/162
f 164/164/164 162/162/162 149/149/149
f 156/156/156 164/164/164 149/149/149
