g housekit_wall_corner_x2_COL
v -1.674587 3.5 2.900126
v -2.59862 3.5 2.598619
v -2.351131 3.5 2.351131
v -1.8375 3.5 3.182645
v -0.8670362 3.5 3.234625
v -0.9511609 3.5 3.549779
v 0 3.5 3.325
v 0 3.5 3.675
v -3.234563 3.5 0.8671889
v -3.675 3.5 -2.670288E-07
v -3.325 3.5 -2.670288E-07
v -3.549781 3.5 0.9511609
v -2.90029 3.5 1.673341
v -3.18236 3.5 1.837335
v -2.351131 3.5 2.351131
v -2.59862 3.5 2.598619
v -1.674587 1.335144E-07 2.900126
v -2.351131 1.335144E-07 2.351131
v -2.59862 1.335144E-07 2.598619
v -1.8375 1.335144E-07 3.182645
v -0.8670362 1.335144E-07 3.234625
v -0.9511609 1.335144E-07 3.549779
v 0 1.335144E-07 3.325
v 0 1.335144E-07 3.675
v -3.234563 1.335144E-07 0.8671883
v -3.325 1.335144E-07 -5.340576E-07
v -3.675 1.335144E-07 -5.340576E-07
v -3.549781 -1.335144E-07 0.9511604
v -2.90029 1.335144E-07 1.67334
v -3.18236 -1.335144E-07 1.837334
v -2.351131 1.335144E-07 2.351131
v -2.59862 1.335144E-07 2.598619
v -1.674587 1.335144E-07 2.900126
v -2.351131 3.5 2.351131
v -2.351131 1.335144E-07 2.351131
v -1.674587 3.5 2.900126
v -0.8670362 1.335144E-07 3.234625
v -0.8670362 3.5 3.234625
v 0 1.335144E-07 3.325
v 0 3.5 3.325
v -2.59862 1.335144E-07 2.598619
v -2.59862 3.5 2.598619
v -1.8375 3.5 3.182645
v -1.8375 1.335144E-07 3.182645
v -0.9511609 3.5 3.549779
v -0.9511609 1.335144E-07 3.549779
v 0 3.5 3.675
v 0 1.335144E-07 3.675
v -3.234563 1.335144E-07 0.8671883
v -3.325 3.5 -2.670288E-07
v -3.325 1.335144E-07 -5.340576E-07
v -3.234563 3.5 0.8671889
v -2.90029 1.335144E-07 1.67334
v -2.90029 3.5 1.673341
v -2.351131 1.335144E-07 2.351131
v -2.351131 3.5 2.351131
v -3.325 1.335144E-07 -5.340576E-07
v -3.325 3.5 -2.670288E-07
v -3.675 3.5 -2.670288E-07
v -3.675 1.335144E-07 -5.340576E-07
v -3.675 1.335144E-07 -5.340576E-07
v -3.675 3.5 -2.670288E-07
v -3.549781 3.5 0.9511609
v -3.549781 -1.335144E-07 0.9511604
v -3.18236 3.5 1.837335
v -3.18236 -1.335144E-07 1.837334
v -2.59862 3.5 2.598619
v -2.59862 1.335144E-07 2.598619
v 0 1.335144E-07 3.675
v 0 3.5 3.675
v 0 3.5 3.325
v 0 1.335144E-07 3.325
vt 0.1756341 0.8319701
vt 0.1268828 0.9820098
vt 0.1756341 0.9820098
vt 0.1268828 0.8318985
vt 0.175634 0.6897957
vt 0.1268828 0.6898863
vt 0.1756339 0.5407587
vt 0.1268828 0.5407587
vt 0.04940983 0.8297797
vt 0.004927404 0.9820098
vt 0.04940985 0.9820098
vt 0.004927404 0.8300191
vt 0.04940981 0.6898804
vt 0.004927404 0.6898555
vt 0.04940978 0.5407587
vt 0.004927404 0.5407587
vt 0.1756341 0.8319701
vt 0.1756341 0.9820098
vt 0.1268828 0.9820098
vt 0.1268828 0.8318985
vt 0.175634 0.6897957
vt 0.1268828 0.6898863
vt 0.1756339 0.5407587
vt 0.1268828 0.5407587
vt 0.04940983 0.8297797
vt 0.04940985 0.9820098
vt 0.004927404 0.9820098
vt 0.004927404 0.8300191
vt 0.04940981 0.6898804
vt 0.004927404 0.6898555
vt 0.04940978 0.5407587
vt 0.004927404 0.5407587
vt 0.1756341 0.8319701
vt 0.1756341 0.9820098
vt 0.1756341 0.9820098
vt 0.1756341 0.8319701
vt 0.175634 0.6897957
vt 0.175634 0.6897957
vt 0.1756339 0.5407587
vt 0.1756339 0.5407587
vt 0.1268828 0.9820098
vt 0.1268828 0.9820098
vt 0.1268828 0.8318985
vt 0.1268828 0.8318985
vt 0.1268828 0.6898863
vt 0.1268828 0.6898863
vt 0.1268828 0.5407587
vt 0.1268828 0.5407587
vt 0.04940983 0.8297797
vt 0.04940985 0.9820098
vt 0.04940985 0.9820098
vt 0.04940983 0.8297797
vt 0.04940981 0.6898804
vt 0.04940981 0.6898804
vt 0.04940978 0.5407587
vt 0.04940978 0.5407587
vt 0.04940985 0.9820098
vt 0.04940985 0.9820098
vt 0.004927404 0.9820098
vt 0.004927404 0.9820098
vt 0.004927404 0.9820098
vt 0.004927404 0.9820098
vt 0.004927404 0.8300191
vt 0.004927404 0.8300191
vt 0.004927404 0.6898555
vt 0.004927404 0.6898555
vt 0.004927404 0.5407587
vt 0.004927404 0.5407587
vt 0.1268828 0.5407587
vt 0.1268828 0.5407587
vt 0.1756339 0.5407587
vt 0.1756339 0.5407587
vn 0 1 0
vn 0 1 0
vn 0 1 0
vn 0 1 0
vn 0 1 0
vn 0 1 0
vn 0 1 0
vn 0 1 0
vn -5.65268E-07 1 2.461907E-07
vn -3.7723E-07 1 0
vn -3.7723E-07 1 0
vn -5.663827E-07 1 2.476501E-07
vn -5.782408E-07 1 2.463524E-07
vn -5.789526E-07 1 2.473492E-07
vn -4.023251E-07 1 0
vn -4.023251E-07 1 0
vn 0 -1 0
vn 0 -1 0
vn 0 -1 0
vn 0 -1 0
vn 0 -1 0
vn 0 -1 0
vn 0 -1 0
vn 0 -1 0
vn 5.652683E-07 -1 -2.524031E-07
vn 3.772303E-07 -1 -1.915918E-07
vn 3.772304E-07 -1 -1.915919E-07
vn 5.66383E-07 -1 -2.527635E-07
vn 5.782408E-07 -1 -2.215057E-07
vn 5.789527E-07 -1 -2.218712E-07
vn 4.023253E-07 -1 0
vn 4.023253E-07 -1 0
vn 0.5115282 0 -0.8592666
vn 0.707419 0 -0.7067944
vn 0.707419 0 -0.7067944
vn 0.5115282 0 -0.8592666
vn 0.2459264 0 -0.9692885
vn 0.2459264 0 -0.9692885
vn 0.103673 0 -0.9946115
vn 0.103673 0 -0.9946115
vn -0.7072252 0 0.7069883
vn -0.7072252 0 0.7069885
vn -0.4999998 0 0.8660255
vn -0.4999998 0 0.8660255
vn -0.2588184 0 0.9659259
vn -0.2588184 0 0.9659259
vn -0.1305245 0 0.9914451
vn -0.1305245 0 0.9914451
vn 0.9692674 0 -0.2460096
vn 0.994606 0 -0.1037254
vn 0.994606 0 -0.1037254
vn 0.9692674 0 -0.2460096
vn 0.8592592 0 -0.5115404
vn 0.8592592 0 -0.5115404
vn 0.707419 0 -0.7067944
vn 0.707419 0 -0.7067944
vn 0 0 -1
vn 0 0 -1
vn 0 0 -1
vn 0 0 -1
vn -0.9914453 0 0.1305228
vn -0.9914453 0 0.1305228
vn -0.9658827 0 0.2589799
vn -0.9658827 0 0.2589799
vn -0.8660253 0 0.5000002
vn -0.8660253 0 0.5000002
vn -0.7072252 0 0.7069885
vn -0.7072252 0 0.7069883
vn 1 0 0
vn 1 0 0
vn 1 0 0
vn 1 0 0
g housekit_wall_corner_x2_COL_0
f 3/3/3 2/2/2 1/1/1
f 2/2/2 4/4/4 1/1/1
f 1/1/1 4/4/4 5/5/5
f 4/4/4 6/6/6 5/5/5
f 5/5/5 6/6/6 7/7/7
f 6/6/6 8/8/8 7/7/7
f 11/11/11 10/10/10 9/9/9
f 10/10/10 12/12/12 9/9/9
f 9/9/9 12/12/12 13/13/13
f 12/12/12 14/14/14 13/13/13
f 13/13/13 14/14/14 15/15/15
f 14/14/14 16/16/16 15/15/15
f 19/19/19 18/18/18 17/17/17
f 20/20/20 19/19/19 17/17/17
f 20/20/20 17/17/17 21/21/21
f 22/22/22 20/20/20 21/21/21
f 22/22/22 21/21/21 23/23/23
f 24/24/24 22/22/22 23/23/23
f 27/27/27 26/26/26 25/25/25
f 28/28/28 27/27/27 25/25/25
f 28/28/28 25/25/25 29/29/29
f 30/30/30 28/28/28 29/29/29
f 30/30/30 29/29/29 31/31/31
f 32/32/32 30/30/30 31/31/31
f 35/35/35 34/34/34 33/33/33
f 34/34/34 36/36/36 33/33/33
f 33/33/33 36/36/36 37/37/37
f 36/36/36 38/38/38 37/37/37
f 37/37/37 38/38/38 39/39/39
f 38/38/38 40/40/40 39/39/39
f 43/43/43 42/42/42 41/41/41
f 44/44/44 43/43/43 41/41/41
f 45/45/45 43/43/43 44/44/44
f 46/46/46 45/45/45 44/44/44
f 47/47/47 45/45/45 46/46/46
f 48/48/48 47/47/47 46/46/46
f 51/51/51 50/50/50 49/49/49
f 50/50/50 52/52/52 49/49/49
f 49/49/49 52/52/52 53/53/53
f 52/52/52 54/54/54 53/53/53
f 53/53/53 54/54/54 55/55/55
f 54/54/54 56/56/56 55/55/55
f 59/59/59 58/58/58 57/57/57
f 60/60/60 59/59/59 57/57/57
f 63/63/63 62/62/62 61/61/61
f 64/64/64 63/63/63 61/61/61
f 65/65/65 63/63/63 64/64/64
f 66/66/66 65/65/65 64/64/64
f 67/67/67 65/65/65 66/66/66
f 68/68/68 67/67/67 66/66/66
f 71/71/71 70/70/70 69/69/69
f 72/72/72 71/71/71 69/69/69
