g houseGlassWindow02
v 6.119765 7.26605 -2.119125
v 5.969062 7.189262 -2.119125
v 6.286821 6.751904 -2.204309
v 6.286821 7.292509 -2.119125
v 5.849463 7.069663 -2.119125
v 6.453877 7.26605 -2.119125
v 5.772675 6.91896 -2.119125
v 6.60458 7.189262 -2.119125
v 5.746216 6.751904 -2.119125
v 6.72418 7.069663 -2.119125
v 5.772675 6.584847 -2.119125
v 6.800967 6.91896 -2.119125
v 5.849463 6.434144 -2.119125
v 6.827426 6.751904 -2.119125
v 5.969062 6.314546 -2.119125
v 6.800967 6.584847 -2.119125
v 6.119765 6.237757 -2.119125
v 6.72418 6.434144 -2.119125
v 6.286821 6.211298 -2.119125
v 6.60458 6.314546 -2.119125
v 6.453877 6.237757 -2.119125
v 6.119765 7.26605 2.119125
v 6.286821 6.751904 2.204309
v 5.969062 7.189262 2.119125
v 6.286821 7.292509 2.119125
v 5.849463 7.069663 2.119125
v 6.453877 7.26605 2.119125
v 5.772675 6.91896 2.119125
v 6.60458 7.189262 2.119125
v 5.746216 6.751904 2.119125
v 6.72418 7.069663 2.119125
v 5.772675 6.584847 2.119125
v 6.800967 6.91896 2.119125
v 5.849463 6.434144 2.119125
v 6.827426 6.751904 2.119125
v 5.969062 6.314546 2.119125
v 6.800967 6.584847 2.119125
v 6.119765 6.237757 2.119125
v 6.72418 6.434144 2.119125
v 6.286821 6.211298 2.119125
v 6.60458 6.314546 2.119125
v 6.453877 6.237757 2.119125
vt 0.5395132 0.3194374
vt 0.5744874 0.3013815
vt 0.5000001 0.2
vt 0.5006711 0.3258018
vt 0.6021704 0.2734016
vt 0.4617633 0.3198521
vt 0.6198522 0.2382367
vt 0.4265984 0.3021703
vt 0.625802 0.1993291
vt 0.3986186 0.2744872
vt 0.6194376 0.1604868
vt 0.3805628 0.239513
vt 0.6013816 0.1255125
vt 0.3741982 0.200671
vt 0.5734018 0.09782976
vt 0.3801481 0.161763
vt 0.538237 0.0801478
vt 0.3978298 0.1265982
vt 0.4993292 0.07419807
vt 0.4255128 0.09861857
vt 0.4604871 0.08056241
vt 0.4604871 0.3194374
vt 0.5000001 0.2
vt 0.4255128 0.3013815
vt 0.4993292 0.3258018
vt 0.3978298 0.2734016
vt 0.5382369 0.3198521
vt 0.380148 0.2382367
vt 0.5734018 0.3021703
vt 0.3741982 0.1993291
vt 0.6013816 0.2744872
vt 0.3805627 0.1604868
vt 0.6194375 0.239513
vt 0.3986186 0.1255125
vt 0.625802 0.200671
vt 0.4265984 0.09782976
vt 0.6198522 0.161763
vt 0.4617633 0.0801478
vt 0.6021704 0.1265982
vt 0.5006711 0.07419807
vt 0.5744874 0.09861857
vt 0.5395131 0.08056241
vn -0.04809804 0.1480324 -0.9878122
vn -0.09148967 0.1259242 -0.9878121
vn 0 0 -1
vn 0 0.1556503 -0.9878122
vn -0.1259247 0.0914897 -0.9878121
vn 0.04809806 0.1480324 -0.9878122
vn -0.1480323 0.04809871 -0.9878122
vn 0.09148972 0.1259242 -0.9878121
vn -0.1556505 0 -0.9878122
vn 0.1259247 0.09148915 -0.9878121
vn -0.1480325 -0.04809869 -0.9878122
vn 0.1480322 0.0480993 -0.9878122
vn -0.1259245 -0.09148988 -0.9878121
vn 0.1556505 0 -0.9878122
vn -0.09148975 -0.1259243 -0.9878121
vn 0.1480325 -0.04809928 -0.9878122
vn -0.04809837 -0.1480319 -0.9878122
vn 0.1259245 -0.09148929 -0.9878121
vn 0 -0.1556501 -0.9878122
vn 0.09148974 -0.1259242 -0.9878121
vn 0.04809833 -0.1480318 -0.9878123
vn -0.04809777 0.1480324 0.9878122
vn 0 0 1
vn -0.09149008 0.1259241 0.9878121
vn 0 0.1556503 0.9878122
vn -0.1259245 0.09148947 0.9878121
vn 0.04809787 0.1480325 0.9878122
vn -0.1480317 0.04809861 0.9878123
vn 0.09148991 0.1259245 0.9878121
vn -0.1556501 0 0.9878122
vn 0.1259247 0.09148934 0.9878121
vn -0.1480321 -0.04809855 0.9878122
vn 0.1480322 0.04809934 0.9878122
vn -0.1259245 -0.09148972 0.9878121
vn 0.1556502 0 0.9878122
vn -0.09148968 -0.1259242 0.9878121
vn 0.1480321 -0.04809928 0.9878122
vn -0.04809864 -0.1480319 0.9878122
vn 0.125924 -0.0914893 0.9878122
vn 0 -0.1556501 0.9878122
vn 0.09148916 -0.1259242 0.9878122
vn 0.0480986 -0.1480318 0.9878122
g houseGlassWindow02_0
f 3/3/3 2/2/2 1/1/1
f 3/3/3 1/1/1 4/4/4
f 3/3/3 5/5/5 2/2/2
f 3/3/3 4/4/4 6/6/6
f 3/3/3 7/7/7 5/5/5
f 3/3/3 6/6/6 8/8/8
f 3/3/3 9/9/9 7/7/7
f 3/3/3 8/8/8 10/10/10
f 3/3/3 11/11/11 9/9/9
f 3/3/3 10/10/10 12/12/12
f 3/3/3 13/13/13 11/11/11
f 3/3/3 12/12/12 14/14/14
f 3/3/3 15/15/15 13/13/13
f 3/3/3 14/14/14 16/16/16
f 3/3/3 17/17/17 15/15/15
f 3/3/3 16/16/16 18/18/18
f 3/3/3 19/19/19 17/17/17
f 3/3/3 18/18/18 20/20/20
f 3/3/3 21/21/21 19/19/19
f 3/3/3 20/20/20 21/21/21
f 24/24/24 23/23/23 22/22/22
f 22/22/22 23/23/23 25/25/25
f 26/26/26 23/23/23 24/24/24
f 25/25/25 23/23/23 27/27/27
f 28/28/28 23/23/23 26/26/26
f 27/27/27 23/23/23 29/29/29
f 30/30/30 23/23/23 28/28/28
f 29/29/29 23/23/23 31/31/31
f 32/32/32 23/23/23 30/30/30
f 31/31/31 23/23/23 33/33/33
f 34/34/34 23/23/23 32/32/32
f 33/33/33 23/23/23 35/35/35
f 36/36/36 23/23/23 34/34/34
f 35/35/35 23/23/23 37/37/37
f 38/38/38 23/23/23 36/36/36
f 37/37/37 23/23/23 39/39/39
f 40/40/40 23/23/23 38/38/38
f 39/39/39 23/23/23 41/41/41
f 42/42/42 23/23/23 40/40/40
f 41/41/41 23/23/23 42/42/42
