g housekit_understructure_wall_x1
v 0.04078336 1.443162 0.175
v 0.04078336 1.443162 0.2666093
v 1.062797 1.489351 0.2349916
v 1.062797 1.489351 0.175
v 1.743184 1.443162 0.175
v 1.743184 1.443162 0.2666093
v 0.003142201 1.793162 0.2666093
v 0.003142201 1.793162 0.175
v 1.062797 1.77216 0.175
v 1.062797 1.77216 0.2349916
v 1.721926 1.793162 0.2666093
v 1.721926 1.793162 0.175
v 1.743184 1.443162 0.175
v 1.743184 1.443162 0.2666093
v 1.721926 1.793162 0.2666093
v 1.721926 1.793162 0.175
v 0.003142201 1.793162 0.175
v 0.003142201 1.793162 0.2666093
v 0.006238932 1.693617 0.2666094
v 0.00608534 1.698555 0.175
v 0.0340846 1.658495 0.175
v 0.03416655 1.655861 0.2666093
v 0.04078336 1.443162 0.175
v 0.04078336 1.443162 0.2666093
v 1.062797 1.489351 0.2349916
v 1.721926 1.793162 0.2666093
v 1.743184 1.443162 0.2666093
v 1.062797 1.77216 0.2349916
v 0.2078254 1.676675 0.2666093
v 0.04078336 1.443162 0.2666093
v 0.03416655 1.655861 0.2666093
v 0.006238932 1.693617 0.2666094
v 0.003142201 1.793162 0.2666093
v 1.062797 1.489351 0.175
v 1.743184 1.443162 0.175
v 1.721926 1.793162 0.175
v 1.062797 1.77216 0.175
v 0.2118457 1.679284 0.175
v 0.003142201 1.793162 0.175
v 0.00608534 1.698555 0.175
v 0.0340846 1.658495 0.175
v 0.04078336 1.443162 0.175
v 1.61467 0 -0.175
v 1.575 0 -0.1353303
v 1.575 0 0.1353303
v 1.61467 0 0.175
v 1.75 0 0.175
v 1.75 0 -0.175
v 1.75 0 0.175
v 1.75 1.75 0.175
v 1.75 1.75 -0.175
v 1.75 0 -0.175
v 0 0 0.175
v 0.144828 0.3524877 0.1749999
v 0.1353303 0 0.175
v 0.0875 0.4014237 0.175
v 0 1.75 0.175
v 0.1382537 0.4220672 0.1749999
v 0.1789549 1.61467 0.175
v 0 0 -0.175
v 0 0 0.175
v 0.1353303 0 0.175
v 0.1353303 0 -0.175
v 0.175 0 -0.1353303
v 0.175 0 0.1353303
v 0 0 -0.175
v 0 1.75 -0.175
v 0 1.75 0.175
v 0 0 0.175
v 0 1.75 -0.175
v 1.75 1.75 -0.175
v 1.75 1.75 0.175
v 0 1.75 0.175
v 0.0875 0.4014237 0.175
v 0.175 0.3772442 -0.035
v 0.175 0.3360097 0.1364302
v 0.144828 0.3524877 0.1749999
v 0.175 0.4261541 0.1368455
v 0.175 0.3772442 -0.035
v 0.0875 0.4014237 0.175
v 0.1382537 0.4220672 0.1749999
v 1.61467 0 -0.175
v 1.586181 1.61467 -0.175
v 1.546511 1.575 -0.1353303
v 1.575 0 -0.1353303
v 1.586181 1.61467 -0.175
v 0.1789549 1.61467 -0.175
v 0.2186245 1.575 -0.1353303
v 1.546511 1.575 -0.1353303
v 1.546511 1.575 0.1353303
v 0.2186245 1.575 0.1353303
v 0.1789549 1.61467 0.175
v 1.586181 1.61467 0.175
v 1.586181 1.61467 0.175
v 1.61467 0 0.175
v 1.575 0 0.1353303
v 1.546511 1.575 0.1353303
v 0.1353303 0 0.175
v 0.144828 0.3524877 0.1749999
v 0.175 0.3360097 0.1364302
v 0.175 0 0.1353303
v 0.2186245 1.575 0.1353303
v 0.175 0.4261541 0.1368455
v 0.1382537 0.4220672 0.1749999
v 0.1789549 1.61467 0.175
v 0.1789549 1.61467 -0.175
v 0.1353303 0 -0.175
v 0.175 0 -0.1353303
v 0.2186245 1.575 -0.1353303
v 1.75 0 -0.175
v 1.75 1.75 -0.175
v 1.586181 1.61467 -0.175
v 1.61467 0 -0.175
v 1.75 1.75 0.175
v 1.75 0 0.175
v 1.61467 0 0.175
v 1.586181 1.61467 0.175
v 1.546511 1.575 -0.1353303
v 1.546511 1.575 0.1353303
v 1.575 0 0.1353303
v 1.575 0 -0.1353303
v 0.1789549 1.61467 -0.175
v 0 1.75 -0.175
v 0 0 -0.175
v 0.1353303 0 -0.175
v 0.2186245 1.575 -0.1353303
v 0.175 0.4261541 0.1368455
v 0.2186245 1.575 0.1353303
v 0.175 0.3772442 -0.035
v 0.175 0 -0.1353303
v 0.175 0.3360097 0.1364302
v 0.175 0 0.1353303
v 0.2186245 1.575 0.1353303
v 1.546511 1.575 0.1353303
v 1.546511 1.575 -0.1353303
v 0.2186245 1.575 -0.1353303
v 0 1.75 0.175
v 1.75 1.75 0.175
v 1.586181 1.61467 0.175
v 0.1789549 1.61467 0.175
v 1.586181 1.61467 -0.175
v 1.75 1.75 -0.175
v 0 1.75 -0.175
v 0.1789549 1.61467 -0.175
v 1.696631 1.534981 0.2711292
v 1.650522 1.534981 0.2865059
v 1.683126 1.567584 0.2711292
v 1.683126 1.502377 0.2711292
v 1.650522 1.581089 0.2711292
v 1.650522 1.488872 0.2711292
v 1.617918 1.567584 0.2711292
v 1.617918 1.502377 0.2711292
v 1.604413 1.534981 0.2711292
v 0.1255667 1.704894 0.2711292
v 0.09296303 1.672291 0.2865059
v 0.09296303 1.718399 0.2711292
v 0.1390716 1.672291 0.2711292
v 0.06035932 1.704894 0.2711292
v 0.1255667 1.639687 0.2711292
v 0.04685442 1.672291 0.2711292
v 0.09296303 1.626182 0.2711292
v 0.06035932 1.639687 0.2711292
v 1.669822 1.734199 0.2711292
v 1.637218 1.701596 0.2865059
v 1.637218 1.747704 0.2711292
v 1.683327 1.701596 0.2711292
v 1.604615 1.734199 0.2711292
v 1.669822 1.668992 0.2711292
v 1.59111 1.701596 0.2711292
v 1.637218 1.655487 0.2711292
v 1.604615 1.668992 0.2711292
vt 0.0513543 0.9811837
vt 0.06423613 0.9811837
vt 0.06423613 0.7119343
vt 0.0513543 0.7119343
vt 0.0513543 0.5404196
vt 0.06423613 0.5404196
vt 0.1129799 0.9811837
vt 0.1217716 0.9811837
vt 0.1217716 0.7119343
vt 0.1129799 0.7119343
vt 0.1129799 0.5404196
vt 0.1217716 0.5404196
vt 0.06423613 0.5242877
vt 0.06423613 0.5404196
vt 0.1129799 0.5404196
vt 0.1129799 0.5242877
vt 0.1129799 0.9940656
vt 0.1129799 0.9811837
vt 0.09911652 0.9811838
vt 0.0998041 0.9940656
vt 0.09422508 0.9940656
vt 0.09385824 0.9811837
vt 0.06423613 0.9940656
vt 0.06423613 0.9811837
vt 0.06423613 0.7119343
vt 0.1129799 0.5404196
vt 0.06423613 0.5404196
vt 0.1129799 0.7119343
vt 0.09728045 0.9329962
vt 0.06423613 0.9811837
vt 0.09385824 0.9811837
vt 0.09911652 0.9811838
vt 0.1129799 0.9811837
vt 0.0513543 0.7119343
vt 0.0513543 0.5404196
vt 0.0005653948 0.5404196
vt 0.0005653948 0.7119343
vt 0.01653305 0.9319394
vt 0.0005653948 0.9811837
vt 0.01429403 0.9811838
vt 0.02010714 0.9811838
vt 0.0513543 0.9811837
vt 0.2347531 0.527852
vt 0.2293622 0.5238118
vt 0.1925812 0.5238122
vt 0.1871904 0.5278524
vt 0.1871906 0.5416351
vt 0.2347533 0.5416349
vt 0.1871906 0.5416351
vt 0.1871908 0.9812639
vt 0.2347533 0.9812639
vt 0.2347533 0.5416349
vt 0.07344092 0.541635
vt 0.09446954 0.6236947
vt 0.09309047 0.541635
vt 0.08614564 0.6306371
vt 0.07344055 0.9286655
vt 0.09351497 0.6353941
vt 0.09309061 0.9002777
vt 0.06222444 0.541635
vt 0.1118655 0.541635
vt 0.1118656 0.5286672
vt 0.06222449 0.5286669
vt 0.06785093 0.5248655
vt 0.1062392 0.5248658
vt 0.06222444 0.541635
vt 0.06222444 0.9286655
vt 0.1118654 0.9286655
vt 0.1118655 0.541635
vt 0.3099306 0.5403417
vt 0.3099306 0.9819809
vt 0.3561693 0.9819807
vt 0.3561693 0.5403418
vt 0.08470134 0.5286634
vt 0.07951069 0.5552167
vt 0.08691356 0.5416775
vt 0.08724196 0.5351942
vt 0.07678851 0.5397319
vt 0.07951069 0.5552167
vt 0.08470134 0.5286634
vt 0.07976099 0.5330894
vt 0.2347533 0.541635
vt 0.2347533 0.9651308
vt 0.2479436 0.9604017
vt 0.2479436 0.541635
vt 0.3088235 0.9414946
vt 0.3088235 0.580828
vt 0.297254 0.580828
vt 0.2972539 0.9414946
vt 0.3700907 0.9414947
vt 0.3700909 0.580828
vt 0.3575996 0.580828
vt 0.3575996 0.9414946
vt 0.1871906 0.9452815
vt 0.1871906 0.541635
vt 0.1742114 0.541635
vt 0.1742114 0.9347342
vt 0.003660864 0.5419626
vt 0.003660864 0.6240153
vt 0.01063883 0.6209005
vt 0.01077878 0.5417861
vt 0.01077907 0.8919564
vt 0.01058552 0.6364229
vt 0.003660864 0.6388383
vt 0.003660864 0.8919564
vt 0.06148652 0.9002777
vt 0.06148662 0.541635
vt 0.05070787 0.541635
vt 0.0507078 0.8919564
vt 0.1987714 0.5416349
vt 0.1987714 0.9812639
vt 0.2184124 0.9651308
vt 0.2184124 0.541635
vt 0.1624357 0.9812639
vt 0.1624355 0.5416351
vt 0.1445779 0.541635
vt 0.1445778 0.9452815
vt 0.1331534 0.9347343
vt 0.1699343 0.9347342
vt 0.1699343 0.541635
vt 0.1331534 0.541635
vt 0.02081808 0.9002777
vt 0.03884886 0.9286655
vt 0.03884886 0.541635
vt 0.02081825 0.541635
vt 0.0507078 0.8919564
vt 0.01058552 0.6364229
vt 0.01077907 0.8919564
vt 0.03253318 0.6255441
vt 0.05070787 0.541635
vt 0.01063883 0.6209005
vt 0.01077878 0.5417861
vt 0.2538543 0.580828
vt 0.2538543 0.9414947
vt 0.2972539 0.9414946
vt 0.297254 0.580828
vt 0.3201874 0.5403418
vt 0.3201874 0.9819807
vt 0.3396379 0.9506721
vt 0.339638 0.5716507
vt 0.265725 0.9506722
vt 0.2851755 0.9819809
vt 0.2851756 0.5403417
vt 0.2657251 0.5716504
vt 0.6071256 0.4865362
vt 0.5952303 0.4739679
vt 0.5952303 0.4914634
vt 0.6120529 0.4746408
vt 0.5833349 0.4865362
vt 0.6071256 0.4627454
vt 0.5784077 0.4746408
vt 0.5952303 0.4578182
vt 0.5833349 0.4627454
vt 0.6071256 0.4865362
vt 0.5952303 0.4739679
vt 0.5952303 0.4914634
vt 0.6120529 0.4746408
vt 0.5833349 0.4865362
vt 0.6071256 0.4627454
vt 0.5784077 0.4746408
vt 0.5952303 0.4578182
vt 0.5833349 0.4627454
vt 0.5358844 0.4865362
vt 0.5239891 0.4739679
vt 0.5239891 0.4914634
vt 0.5408117 0.4746408
vt 0.5120937 0.4865362
vt 0.5358844 0.4627454
vt 0.5071665 0.4746408
vt 0.5239891 0.4578182
vt 0.5120937 0.4627454
vn 0.0451474 -0.9989803 0
vn 0.0451474 -0.9989803 0
vn -0.0002604487 -1 0
vn 0 -1 0
vn -0.06772953 -0.9977037 0
vn -0.06772953 -0.9977037 0
vn 0.01981572 0.9998037 0
vn 0.01981572 0.9998037 0
vn 0 1 0
vn -0.0001374624 1 0
vn -0.03184699 0.9994928 0
vn -0.03184699 0.9994928 0
vn 0.9981607 0.06062421 0
vn 0.9981607 0.06062421 0
vn 0.9981607 0.06062421 0
vn 0.9981607 0.06062421 0
vn -0.9995165 -0.03109384 0
vn -0.9995165 -0.03109384 0
vn -0.9730633 -0.2303893 -0.008270066
vn -0.9767925 -0.2140536 -0.007590185
vn -0.9903408 -0.1385831 -0.004453933
vn -0.9911405 -0.1327506 -0.004211874
vn -0.9995165 -0.03109378 0
vn -0.9995165 -0.03109378 0
vn -0.0171648 -0.002270177 0.99985
vn -0.04718484 -0.001585055 0.998885
vn -0.04718484 -0.001585055 0.998885
vn -0.01764522 -0.0002174914 0.9998443
vn 0.02774891 0.003408262 0.9996092
vn 0.02753215 -0.01969479 0.9994268
vn 0.02664006 -0.01905672 0.9994635
vn 0.02576583 0.04527327 0.9986423
vn 0.02643042 0.04644118 0.9985713
vn 0 0 -1
vn 0 0 -1
vn 0 0 -1
vn 0 0 -1
vn 0 0 -1
vn 2.754938E-07 0 -1
vn 2.67718E-07 0 -1
vn 0 0 -1
vn 0 0 -1
vn 0 -1 0
vn 0 -1 0
vn 0 -1 0
vn 0 -1 0
vn 0 -1 0
vn 0 -1 0
vn 1 0 0
vn 1 0 0
vn 1 0 0
vn 1 0 0
vn 1.506977E-06 0 1
vn 0.1805461 0.2115057 0.9605563
vn 1.993895E-06 0 1
vn 0.01995245 0.0233742 0.9995277
vn -3.600566E-07 0 1
vn -7.756515E-07 0 1
vn -2.88648E-07 0 1
vn 0 -1 0
vn 0 -1 0
vn 0 -1 0
vn 0 -1 0
vn 0 -1 0
vn 0 -1 0
vn -1 0 0
vn -1 0 0
vn -1 0 0
vn -1 0 0
vn 0 1 0
vn 0 1 0
vn 0 1 0
vn 0 1 0
vn 0.01995245 0.0233742 0.9995277
vn 0.638644 0.7481638 0.1799576
vn 0.638644 0.7481638 0.1799576
vn 0.1805461 0.2115057 0.9605563
vn 0.3643188 -0.8957019 0.2549312
vn 0.3643188 -0.8957019 0.2549312
vn 0.3643188 -0.8957019 0.2549312
vn 0.3643188 -0.8957019 0.2549312
vn -0.7039008 -0.012574 -0.7101871
vn -0.7039009 -0.012574 -0.710187
vn -0.7039009 -0.012574 -0.710187
vn -0.7039009 -0.012574 -0.710187
vn 0 -0.7071066 -0.7071069
vn 0 -0.7071066 -0.7071069
vn 0 -0.7071066 -0.7071069
vn 0 -0.7071066 -0.7071069
vn 0 -0.7071057 0.7071078
vn 0 -0.7071057 0.7071078
vn 0 -0.7071057 0.7071078
vn 0 -0.7071057 0.7071078
vn -0.7039008 -0.012574 0.710187
vn -0.7039008 -0.012574 0.710187
vn -0.7039009 -0.012574 0.710187
vn -0.7039009 -0.012574 0.710187
vn 0.7447727 -0.01133974 0.6672218
vn 0.7447727 -0.01133974 0.6672218
vn 0.7447727 -0.01133974 0.6672219
vn 0.7447727 -0.01133974 0.6672219
vn 0.7075673 -0.02502545 0.7062026
vn 0.7075673 -0.02502545 0.7062026
vn 0.7075673 -0.02502544 0.7062026
vn 0.7075673 -0.02502545 0.7062026
vn 0.702159 -0.01920656 -0.7117611
vn 0.702159 -0.01920656 -0.7117611
vn 0.702159 -0.01920656 -0.7117611
vn 0.702159 -0.01920656 -0.7117611
vn 0 0 -1
vn 0 0 -1
vn 0 0 -1
vn 0 0 -1
vn 0 0 1
vn 0 0 1
vn 0 0 1
vn 0 0 1
vn -0.9998364 -0.01808525 0
vn -0.9998364 -0.01808525 0
vn -0.9998364 -0.01808525 0
vn -0.9998364 -0.01808525 0
vn 0 0 -1
vn 0 0 -1
vn 2.109372E-07 0 -1
vn 2.109372E-07 0 -1
vn 0.9993052 -0.03682144 0.005768272
vn 0.9993078 -0.03697788 0.004087152
vn 0.9993078 -0.03697788 0.004087152
vn 0.9990265 -0.0274095 0.03456255
vn 0.9998424 -0.004562261 0.01715419
vn 1 0 0
vn 1 0 0
vn 0 -1 0
vn 0 -1 0
vn 0 -1 0
vn 0 -1 0
vn -3.600566E-07 0 1
vn 0 0 1
vn 0 0 1
vn -2.88648E-07 0 1
vn 0 0 -1
vn 0 0 -1
vn 0 0 -1
vn 0 0 -1
vn 0.3163624 5.042538E-07 0.9486385
vn 0 0 1
vn 0.2237041 0.2237011 0.948638
vn 0.2237023 -0.2237013 0.9486385
vn -2.545268E-07 0.3163627 0.9486384
vn 0 -0.3163603 0.9486391
vn -0.2237027 0.2237013 0.9486385
vn -0.2237029 -0.2236997 0.9486388
vn -0.3163596 -1.229406E-06 0.9486393
vn 0.2237035 0.2237009 0.9486384
vn -2.246996E-07 0 1
vn 0 0.316362 0.9486386
vn 0.3163613 0 0.9486388
vn -0.2237041 0.2237015 0.948638
vn 0.2237026 -0.2237005 0.9486386
vn -0.3163623 -4.370177E-07 0.9486385
vn 0 -0.3163584 0.9486398
vn -0.2237029 -0.2237002 0.9486386
vn 0.2237025 0.2237001 0.9486388
vn 0 0 1
vn 0 0.31636 0.9486392
vn 0.3163604 -4.418196E-07 0.948639
vn -0.2237036 0.2237003 0.9486385
vn 0.2237033 -0.2237007 0.9486385
vn -0.3163605 0 0.948639
vn 0 -0.3163582 0.9486398
vn -0.2237015 -0.2236986 0.9486393
g housekit_understructure_wall_x1_0
f 3/3/3 2/2/2 1/1/1
f 4/4/4 3/3/3 1/1/1
f 4/4/4 5/5/5 3/3/3
f 5/5/5 6/6/6 3/3/3
f 9/9/9 8/8/8 7/7/7
f 10/10/10 9/9/9 7/7/7
f 10/10/10 11/11/11 9/9/9
f 11/11/11 12/12/12 9/9/9
f 15/15/15 14/14/14 13/13/13
f 16/16/16 15/15/15 13/13/13
f 19/19/19 18/18/18 17/17/17
f 20/20/20 19/19/19 17/17/17
f 20/20/20 21/21/21 19/19/19
f 21/21/21 22/22/22 19/19/19
f 21/21/21 23/23/23 22/22/22
f 23/23/23 24/24/24 22/22/22
f 27/27/27 26/26/26 25/25/25
f 26/26/26 28/28/28 25/25/25
f 25/25/25 28/28/28 29/29/29
f 25/25/25 29/29/29 30/30/30
f 29/29/29 31/31/31 30/30/30
f 29/29/29 32/32/32 31/31/31
f 29/29/29 28/28/28 32/32/32
f 28/28/28 33/33/33 32/32/32
f 36/36/36 35/35/35 34/34/34
f 37/37/37 36/36/36 34/34/34
f 38/38/38 37/37/37 34/34/34
f 37/37/37 38/38/38 39/39/39
f 38/38/38 40/40/40 39/39/39
f 38/38/38 41/41/41 40/40/40
f 38/38/38 34/34/34 41/41/41
f 34/34/34 42/42/42 41/41/41
f 45/45/45 44/44/44 43/43/43
f 46/46/46 45/45/45 43/43/43
f 46/46/46 43/43/43 47/47/47
f 43/43/43 48/48/48 47/47/47
f 51/51/51 50/50/50 49/49/49
f 52/52/52 51/51/51 49/49/49
f 55/55/55 54/54/54 53/53/53
f 54/54/54 56/56/56 53/53/53
f 56/56/56 57/57/57 53/53/53
f 56/56/56 58/58/58 57/57/57
f 58/58/58 59/59/59 57/57/57
f 62/62/62 61/61/61 60/60/60
f 63/63/63 62/62/62 60/60/60
f 63/63/63 64/64/64 62/62/62
f 64/64/64 65/65/65 62/62/62
f 68/68/68 67/67/67 66/66/66
f 69/69/69 68/68/68 66/66/66
f 72/72/72 71/71/71 70/70/70
f 73/73/73 72/72/72 70/70/70
f 76/76/76 75/75/75 74/74/74
f 77/77/77 76/76/76 74/74/74
f 80/80/80 79/79/79 78/78/78
f 81/81/81 80/80/80 78/78/78
f 84/84/84 83/83/83 82/82/82
f 85/85/85 84/84/84 82/82/82
f 88/88/88 87/87/87 86/86/86
f 89/89/89 88/88/88 86/86/86
f 92/92/92 91/91/91 90/90/90
f 93/93/93 92/92/92 90/90/90
f 96/96/96 95/95/95 94/94/94
f 97/97/97 96/96/96 94/94/94
f 100/100/100 99/99/99 98/98/98
f 101/101/101 100/100/100 98/98/98
f 104/104/104 103/103/103 102/102/102
f 105/105/105 104/104/104 102/102/102
f 108/108/108 107/107/107 106/106/106
f 109/109/109 108/108/108 106/106/106
f 112/112/112 111/111/111 110/110/110
f 113/113/113 112/112/112 110/110/110
f 116/116/116 115/115/115 114/114/114
f 117/117/117 116/116/116 114/114/114
f 120/120/120 119/119/119 118/118/118
f 121/121/121 120/120/120 118/118/118
f 124/124/124 123/123/123 122/122/122
f 125/125/125 124/124/124 122/122/122
f 128/128/128 127/127/127 126/126/126
f 127/127/127 129/129/129 126/126/126
f 129/129/129 130/130/130 126/126/126
f 129/129/129 131/131/131 130/130/130
f 131/131/131 132/132/132 130/130/130
f 135/135/135 134/134/134 133/133/133
f 136/136/136 135/135/135 133/133/133
f 139/139/139 138/138/138 137/137/137
f 140/140/140 139/139/139 137/137/137
f 143/143/143 142/142/142 141/141/141
f 144/144/144 143/143/143 141/141/141
f 147/147/147 146/146/146 145/145/145
f 145/145/145 146/146/146 148/148/148
f 149/149/149 146/146/146 147/147/147
f 148/148/148 146/146/146 150/150/150
f 151/151/151 146/146/146 149/149/149
f 150/150/150 146/146/146 152/152/152
f 153/153/153 146/146/146 151/151/151
f 152/152/152 146/146/146 153/153/153
f 156/156/156 155/155/155 154/154/154
f 154/154/154 155/155/155 157/157/157
f 158/158/158 155/155/155 156/156/156
f 157/157/157 155/155/155 159/159/159
f 160/160/160 155/155/155 158/158/158
f 159/159/159 155/155/155 161/161/161
f 162/162/162 155/155/155 160/160/160
f 161/161/161 155/155/155 162/162/162
f 165/165/165 164/164/164 163/163/163
f 163/163/163 164/164/164 166/166/166
f 167/167/167 164/164/164 165/165/165
f 166/166/166 164/164/164 168/168/168
f 169/169/169 164/164/164 167/167/167
f 168/168/168 164/164/164 170/170/170
f 171/171/171 164/164/164 169/169/169
f 170/170/170 164/164/164 171/171/171
