g housekit_roof_flat_corner1
v -0.7780346 0.327952 1.52698
v -0.02204804 0.327952 0.02204804
v -0.0220475 0.327952 1.727952
v -0.02204804 0.02204804 0.02204804
v -1.727952 0.02204804 0.0220475
v -1.52698 0.02204804 0.7780344
v -0.0220475 0.327952 1.727952
v -0.02204804 0.327952 0.02204804
v -0.02204804 0.02204804 0.02204804
v -0.0220475 0.02204804 1.727952
v -0.7780346 0.327952 1.52698
v -1.52698 0.327952 0.7780344
v -0.02204804 0.327952 0.02204804
v -1.727952 0.327952 0.0220475
v -0.7780346 0.02204804 1.52698
v -0.0220475 0.327952 1.727952
v -0.0220475 0.02204804 1.727952
v -0.7780346 0.327952 1.52698
v -1.52698 0.02204804 0.7780344
v -1.52698 0.327952 0.7780344
v -1.727952 0.327952 0.0220475
v -1.727952 0.02204804 0.0220475
v -0.02204804 0.02204804 0.02204804
v -0.7780346 0.02204804 1.52698
v -0.0220475 0.02204804 1.727952
v -1.52698 0.02204804 0.7780344
v -1.727952 0.327952 0.0220475
v -1.727952 0.02204804 0.0220475
v -0.02204804 0.02204804 0.02204804
v -0.02204804 0.327952 0.02204804
vt 0.5988585 0.9626861
vt 0.5265816 0.805505
vt 0.5269459 0.9645952
vt 0.5265816 0.805505
vt 0.5269459 0.9645952
vt 0.6144589 0.9620497
vt 0.5079693 0.8054873
vt 0.5079693 0.9011409
vt 0.5235479 0.9011409
vt 0.5235479 0.8054873
vt 0.6456597 0.9607769
vt 0.6144589 0.9620497
vt 0.5265816 0.805505
vt 0.5269459 0.9645952
vt 0.5083904 0.8674986
vt 0.5225586 0.807448
vt 0.5083904 0.807448
vt 0.5225587 0.8674986
vt 0.5083844 0.9360064
vt 0.5225527 0.9360089
vt 0.5225419 0.9960595
vt 0.5083737 0.996057
vt 0.5265816 0.805505
vt 0.6144589 0.9620497
vt 0.5269459 0.9645952
vt 0.6144589 0.9620497
vt 0.5079693 0.9968222
vt 0.5235479 0.9968222
vt 0.5235479 0.9011686
vt 0.5079693 0.9011686
vn 0 1 -4.210368E-07
vn 0 1 -2.438227E-07
vn 0 1 -9.276154E-07
vn 0 -1 3.350857E-07
vn 0 -1 0
vn 0 -1 3.858156E-07
vn 1 1.146216E-06 -3.130643E-07
vn 1 1.146216E-06 -3.130644E-07
vn 1 1.146216E-06 -3.130644E-07
vn 1 1.146216E-06 -3.130643E-07
vn 0 1 -4.210368E-07
vn 0 1 0
vn 0 1 -2.438227E-07
vn 0 1 0
vn -0.533766 -2.746793E-07 0.8456322
vn -0.2569169 -6.249118E-07 0.9664335
vn -0.2569169 -6.249117E-07 0.9664335
vn -0.533766 -2.746793E-07 0.8456322
vn -0.845633 -5.493585E-07 0.5337648
vn -0.845633 -5.493585E-07 0.5337648
vn -0.9664334 -1.249823E-06 0.2569174
vn -0.9664334 -1.249824E-06 0.2569174
vn 0 -1 3.350857E-07
vn 0 -1 3.858157E-07
vn 0 -1 0
vn 0 -1 3.858156E-07
vn 5.731087E-07 0 -1
vn 5.731087E-07 0 -1
vn 5.731087E-07 0 -1
vn 5.731087E-07 0 -1
g housekit_roof_flat_corner1_0
f 3/3/3 2/2/2 1/1/1
f 6/6/6 5/5/5 4/4/4
f 9/9/9 8/8/8 7/7/7
f 10/10/10 9/9/9 7/7/7
f 13/13/13 12/12/12 11/11/11
f 13/13/13 14/14/14 12/12/12
f 17/17/17 16/16/16 15/15/15
f 16/16/16 18/18/18 15/15/15
f 19/19/19 15/15/15 18/18/18
f 20/20/20 19/19/19 18/18/18
f 20/20/20 21/21/21 19/19/19
f 21/21/21 22/22/22 19/19/19
f 25/25/25 24/24/24 23/23/23
f 26/26/26 23/23/23 24/24/24
f 29/29/29 28/28/28 27/27/27
f 30/30/30 29/29/29 27/27/27
