g housekit_roof_x2_COL
v 0.02204777 1.552952 -0.5029525
v 3.477952 1.552952 -0.5029525
v 3.477952 1.902952 0.0220475
v 0.02204763 1.902952 0.0220475
v 3.477952 1.247048 -0.5029525
v 0.02204777 1.247048 -0.5029525
v 0.02204787 1.110001 1.110001
v 3.477952 1.110001 1.110001
v 0.02204763 1.744006 0.7223909
v 0.02204763 1.902952 0.0220475
v 3.477952 1.902952 0.0220475
v 3.477952 1.744006 0.7223909
v 0.02204777 1.346322 1.346322
v 3.477952 1.346322 1.346322
v 0.0220479 0.7223909 1.744006
v 3.477952 0.7223909 1.744006
v 0.02204777 0.0220475 1.902952
v 3.477952 0.0220475 1.902952
v 0.02204787 1.110001 1.110001
v 0.02204763 1.744006 0.7223909
v 0.02204777 1.346322 1.346322
v 0.02204777 1.247048 -0.5029525
v 0.02204763 1.902952 0.0220475
v 0.02204777 1.552952 -0.5029525
v 3.477952 1.552952 -0.5029525
v 3.477952 1.247048 -0.5029525
v 3.477952 1.902952 0.0220475
v 3.477952 1.744006 0.7223909
v 3.477952 1.110001 1.110001
v 3.477952 1.346322 1.346322
v 3.477952 0.7223909 1.744006
v 3.477952 -0.5029525 1.247048
v 3.477952 0.0220475 1.902952
v 3.477952 -0.5029525 1.552952
v 0.02204777 1.552952 -0.5029525
v 0.02204777 1.247048 -0.5029525
v 3.477952 1.247048 -0.5029525
v 3.477952 1.552952 -0.5029525
v 3.477952 -0.5029525 1.552952
v 0.02204783 -0.5029525 1.552952
v 0.02204777 0.0220475 1.902952
v 3.477952 0.0220475 1.902952
v 0.02204783 -0.5029525 1.247048
v 3.477952 -0.5029525 1.247048
v 3.477952 1.110001 1.110001
v 0.02204787 1.110001 1.110001
v 0.02204787 1.110001 1.110001
v 0.02204777 1.346322 1.346322
v 0.0220479 0.7223909 1.744006
v 0.02204783 -0.5029525 1.247048
v 0.02204777 0.0220475 1.902952
v 0.02204783 -0.5029525 1.552952
v 3.477952 -0.5029525 1.552952
v 3.477952 -0.5029525 1.247048
v 0.02204783 -0.5029525 1.247048
v 0.02204783 -0.5029525 1.552952
vt 0.8542866 0.6762953
vt 0.6578324 0.6762953
vt 0.6149813 0.7043093
vt 0.8114356 0.7043093
vt 0.9710354 0.6762953
vt 0.7749013 0.6762953
vt 0.6481037 0.8659971
vt 0.532904 0.8659975
vt 0.5955946 0.9031583
vt 0.5955946 0.963384
vt 0.8417881 0.9633842
vt 0.8417872 0.9031586
vt 0.5955946 0.8392305
vt 0.8417861 0.8392307
vt 0.5955946 0.7753033
vt 0.8417867 0.7753035
vt 0.5955946 0.707559
vt 0.8417875 0.7075591
vt 0.6053093 0.8942115
vt 0.5927595 0.9150957
vt 0.6217102 0.8966431
vt 0.534608 0.8937168
vt 0.5592401 0.9224219
vt 0.534608 0.9060005
vt 0.5346079 0.9060004
vt 0.5346079 0.8937168
vt 0.5592401 0.9224219
vt 0.5927595 0.915096
vt 0.6119875 0.8869203
vt 0.6217102 0.8966431
vt 0.6401632 0.8676923
vt 0.6187841 0.8095408
vt 0.6474893 0.834173
vt 0.6310677 0.8095409
vt 0.9853479 0.7043093
vt 0.9853479 0.6762953
vt 0.7888933 0.6762953
vt 0.7888933 0.7043093
vt 0.6149815 0.7043093
vt 0.8114358 0.7043093
vt 0.8114358 0.6762953
vt 0.6149815 0.6762953
vt 0.9776204 0.6762953
vt 0.7811658 0.6762953
vt 0.532904 0.8659975
vt 0.6481037 0.8659971
vt 0.6253439 0.8723381
vt 0.6217102 0.8966431
vt 0.640163 0.8676923
vt 0.618784 0.8095407
vt 0.6474891 0.834173
vt 0.6310676 0.8095408
vt 0.5183636 0.6762953
vt 0.5183636 0.7043092
vt 0.7148182 0.7043092
vt 0.7148179 0.6762953
vn 0 0.8320504 -0.5546998
vn 0 0.8320504 -0.5546998
vn 0 0.8320504 -0.5546998
vn 0 0.8320504 -0.5546998
vn 0 -0.9964097 -0.08466167
vn 0 -0.9964097 -0.08466166
vn 0 -0.9964097 -0.08466167
vn 0 -0.9964097 -0.08466166
vn 0 0.9218742 0.3874893
vn 0 0.9752001 0.2213251
vn 0 0.9752001 0.2213251
vn 0 0.9218742 0.3874893
vn 0 0.7071065 0.707107
vn 0 0.7071065 0.707107
vn 0 0.3874895 0.9218742
vn 0 0.3874895 0.9218741
vn 0 0.2213261 0.9751999
vn 0 0.2213261 0.9751999
vn -1 0 0
vn -1 -2.888676E-07 0
vn -1 -3.435618E-07 0
vn -1 -2.66353E-07 0
vn -1 -2.812785E-07 0
vn -1 0 -2.543131E-07
vn 1 0 0
vn 1 7.371501E-07 0
vn 1 7.784574E-07 0
vn 1 8.23102E-07 0
vn 1 4.943105E-07 0
vn 1 9.290683E-07 3.035914E-07
vn 1 0 0
vn 1 0 -1.790144E-07
vn 1 0 -1.890457E-07
vn 1 -9.3111E-07 0
vn 0 0 -1
vn 0 0 -1
vn 0 0 -1
vn 0 0 -1
vn 0 -0.5546999 0.8320504
vn 0 -0.5546998 0.8320504
vn 0 -0.5546999 0.8320504
vn 0 -0.5546998 0.8320504
vn 0 -0.08466108 -0.9964098
vn 0 -0.08466107 -0.9964098
vn 0 -0.08466109 -0.9964098
vn 0 -0.08466108 -0.9964098
vn -1 0 0
vn -1 -3.435618E-07 0
vn -1 0 0
vn -1 0 0
vn -1 0 0
vn -1 0 0
vn 0 -1 0
vn 0 -1 0
vn 0 -1 0
vn 0 -1 0
g housekit_roof_x2_COL_0
f 3/3/3 2/2/2 1/1/1
f 4/4/4 3/3/3 1/1/1
f 7/7/7 6/6/6 5/5/5
f 8/8/8 7/7/7 5/5/5
f 11/11/11 10/10/10 9/9/9
f 12/12/12 11/11/11 9/9/9
f 12/12/12 9/9/9 13/13/13
f 14/14/14 12/12/12 13/13/13
f 13/13/13 15/15/15 14/14/14
f 15/15/15 16/16/16 14/14/14
f 15/15/15 17/17/17 16/16/16
f 17/17/17 18/18/18 16/16/16
f 21/21/21 20/20/20 19/19/19
f 19/19/19 20/20/20 22/22/22
f 20/20/20 23/23/23 22/22/22
f 23/23/23 24/24/24 22/22/22
f 27/27/27 26/26/26 25/25/25
f 27/27/27 28/28/28 26/26/26
f 28/28/28 29/29/29 26/26/26
f 28/28/28 30/30/30 29/29/29
f 30/30/30 31/31/31 29/29/29
f 29/29/29 31/31/31 32/32/32
f 31/31/31 33/33/33 32/32/32
f 33/33/33 34/34/34 32/32/32
f 37/37/37 36/36/36 35/35/35
f 38/38/38 37/37/37 35/35/35
f 41/41/41 40/40/40 39/39/39
f 42/42/42 41/41/41 39/39/39
f 45/45/45 44/44/44 43/43/43
f 46/46/46 45/45/45 43/43/43
f 49/49/49 48/48/48 47/47/47
f 49/49/49 47/47/47 50/50/50
f 51/51/51 49/49/49 50/50/50
f 51/51/51 50/50/50 52/52/52
f 55/55/55 54/54/54 53/53/53
f 56/56/56 55/55/55 53/53/53
