g housekit_wall_corner_x1a
v 0.04654259 0 1.619096
v 0.002447052 1.75 1.575
v 0.002447052 0.04409563 1.575
v 0.04654259 1.75 1.619096
v 0.002447052 3.455904 1.575
v 0.04654259 3.5 1.619096
v 0.04654259 3.5 1.880904
v 0.002447586 1.75 1.925
v 0.002447586 3.455905 1.925
v 0.04654259 1.75 1.880904
v 0.002447586 0.04409553 1.925
v 0.04654259 0 1.880904
v 0.04654259 1.75 1.880904
v 0.04654259 1.75 1.619096
v 0.04654259 0 1.619096
v 0.04654259 0 1.880904
v 0.04654259 1.75 1.619096
v 0.04654259 1.75 1.880904
v 0.04654259 3.5 1.880904
v 0.04654259 3.5 1.619096
v -1.619096 0 -0.04117211
v -1.575 0.04409563 0.002923431
v -1.575 1.75 0.002923431
v -1.619096 1.75 -0.04117211
v -1.575 3.455904 0.002923431
v -1.619096 3.5 -0.04117211
v -1.880904 3.5 -0.04117211
v -1.925 3.455905 0.002923431
v -1.925 1.75 0.002923431
v -1.880904 1.75 -0.04117211
v -1.924999 0.04409553 0.002923431
v -1.880904 0 -0.04117211
v -1.880904 1.75 -0.04117211
v -1.880904 0 -0.04117211
v -1.619096 0 -0.04117211
v -1.619096 1.75 -0.04117211
v -1.619096 1.75 -0.04117211
v -1.619096 3.5 -0.04117211
v -1.880904 3.5 -0.04117211
v -1.880904 1.75 -0.04117211
v -1.575 0.04409563 0.002923431
v -1.531635 1.75 0.4104001
v -1.575 1.75 0.002923431
v -1.531635 0.04409567 0.4104001
v -1.373226 1.75 0.7928323
v -1.373226 0.04409567 0.7928323
v -1.121234 1.75 1.121234
v -1.121234 0.04409567 1.121234
v -0.7928326 1.75 1.373226
v -0.7928326 0.04409567 1.373226
v -0.4104003 1.75 1.531635
v -0.4104003 0.04409567 1.531635
v 0.002447052 1.75 1.575
v 0.002447052 0.04409563 1.575
v -0.4982266 0.04409553 1.859407
v 0.002447586 1.75 1.925
v 0.002447586 0.04409553 1.925
v -0.4982266 1.75 1.859407
v 0.002447586 3.455905 1.925
v -0.9625 0.04409553 1.667099
v -0.4982266 3.455905 1.859407
v -0.9625 1.75 1.667099
v -1.36118 0.04409553 1.36118
v -0.9625 3.455905 1.667099
v -1.36118 1.75 1.36118
v -1.667098 0.04409553 0.9624997
v -1.36118 3.455905 1.36118
v -1.667098 1.75 0.9624997
v -1.859407 0.04409553 0.4982263
v -1.667098 3.455905 0.9624997
v -1.859407 1.75 0.4982263
v -1.924999 0.04409553 0.002923431
v -1.859407 3.455905 0.4982263
v -1.925 1.75 0.002923431
v -1.925 3.455905 0.002923431
v -1.531635 1.75 0.4104001
v -1.575 3.455904 0.002923431
v -1.575 1.75 0.002923431
v -1.531635 3.455904 0.4104001
v -1.373226 1.75 0.7928323
v -1.373226 3.455904 0.7928323
v -1.121234 1.75 1.121234
v -1.121234 3.455904 1.121234
v -0.7928326 1.75 1.373226
v -0.7928326 3.455904 1.373226
v -0.4104003 1.75 1.531635
v -0.4104003 3.455904 1.531635
v 0.002447052 1.75 1.575
v 0.002447052 3.455904 1.575
v -1.818814 3.5 0.4873495
v -1.925 3.455905 0.002923431
v -1.880904 3.5 -0.04117211
v -1.859407 3.455905 0.4982263
v -1.630704 3.5 0.9414875
v -1.667098 3.455905 0.9624997
v -1.331464 3.5 1.331464
v -1.36118 3.455905 1.36118
v -0.9414875 3.5 1.630704
v -1.36118 3.455905 1.36118
v -1.331464 3.5 1.331464
v -0.9625 3.455905 1.667099
v -0.48735 3.5 1.818814
v -0.4982266 3.455905 1.859407
v 0.04654259 3.5 1.880904
v 0.002447586 3.455905 1.925
v 0.002447052 3.455904 1.575
v 0.04654259 3.5 1.619096
v -0.4210649 3.5 1.571435
v -0.4104003 3.455904 1.531635
v -0.8134349 3.5 1.40891
v -0.7928326 3.455904 1.373226
v -1.15037 3.5 1.15037
v -1.121234 3.455904 1.121234
v -1.121234 3.455904 1.121234
v -1.15037 3.5 1.15037
v -1.40891 3.5 0.8134347
v -1.373226 3.455904 0.7928323
v -1.571435 3.5 0.4210646
v -1.531635 3.455904 0.4104001
v -1.619096 3.5 -0.04117211
v -1.575 3.455904 0.002923431
v 0.04654259 3.5 1.619096
v 0.04654259 3.5 1.880904
v -0.48735 3.5 1.818814
v -0.4210649 3.5 1.571435
v -0.4210649 3.5 1.571435
v -0.48735 3.5 1.818814
v -0.9414875 3.5 1.630704
v -0.8134349 3.5 1.40891
v -0.8134349 3.5 1.40891
v -0.9414875 3.5 1.630704
v -1.331464 3.5 1.331464
v -1.15037 3.5 1.15037
v -1.15037 3.5 1.15037
v -1.331464 3.5 1.331464
v -1.630704 3.5 0.9414875
v -1.40891 3.5 0.8134347
v -1.40891 3.5 0.8134347
v -1.630704 3.5 0.9414875
v -1.818814 3.5 0.4873495
v -1.571435 3.5 0.4210646
v -1.571435 3.5 0.4210646
v -1.818814 3.5 0.4873495
v -1.880904 3.5 -0.04117211
v -1.619096 3.5 -0.04117211
v -1.818814 2.670288E-07 0.4873495
v -1.880904 0 -0.04117211
v -1.924999 0.04409553 0.002923431
v -1.859407 0.04409553 0.4982263
v -1.630704 2.670288E-07 0.9414875
v -1.667098 0.04409553 0.9624997
v -1.331464 2.670288E-07 1.331464
v -1.36118 0.04409553 1.36118
v -0.9414875 2.670288E-07 1.630704
v -1.331464 2.670288E-07 1.331464
v -1.36118 0.04409553 1.36118
v -0.9625 0.04409553 1.667099
v -0.48735 2.670288E-07 1.818814
v -0.4982266 0.04409553 1.859407
v 0.04654259 0 1.880904
v 0.002447586 0.04409553 1.925
v 0.002447052 0.04409563 1.575
v -0.4210649 2.670288E-07 1.571435
v 0.04654259 0 1.619096
v -0.4104003 0.04409567 1.531635
v -0.8134349 2.670288E-07 1.40891
v -0.7928326 0.04409567 1.373226
v -1.15037 2.670288E-07 1.15037
v -1.121234 0.04409567 1.121234
v -1.121234 0.04409567 1.121234
v -1.40891 2.670288E-07 0.8134347
v -1.15037 2.670288E-07 1.15037
v -1.373226 0.04409567 0.7928323
v -1.571435 2.670288E-07 0.4210646
v -1.531635 0.04409567 0.4104001
v -1.619096 0 -0.04117211
v -1.575 0.04409563 0.002923431
v 0.04654259 0 1.619096
v -0.4210649 2.670288E-07 1.571435
v -0.48735 2.670288E-07 1.818814
v 0.04654259 0 1.880904
v -0.4210649 2.670288E-07 1.571435
v -0.8134349 2.670288E-07 1.40891
v -0.9414875 2.670288E-07 1.630704
v -0.48735 2.670288E-07 1.818814
v -0.8134349 2.670288E-07 1.40891
v -1.331464 2.670288E-07 1.331464
v -0.9414875 2.670288E-07 1.630704
v -1.15037 2.670288E-07 1.15037
v -1.630704 2.670288E-07 0.9414875
v -1.40891 2.670288E-07 0.8134347
v -1.40891 2.670288E-07 0.8134347
v -1.571435 2.670288E-07 0.4210646
v -1.818814 2.670288E-07 0.4873495
v -1.630704 2.670288E-07 0.9414875
v -1.571435 2.670288E-07 0.4210646
v -1.619096 0 -0.04117211
v -1.880904 0 -0.04117211
v -1.818814 2.670288E-07 0.4873495
vt 0.534172 0.4993841
vt 0.6944492 0.4913523
vt 0.5382106 0.4913523
vt 0.6944493 0.4993841
vt 0.850688 0.4913523
vt 0.8547266 0.4993841
vt 0.7456354 0.4913523
vt 0.5853581 0.4993841
vt 0.7415968 0.4993841
vt 0.5853581 0.4913523
vt 0.4291194 0.4993841
vt 0.4250808 0.4913523
vt 0.6181476 0.02470937
vt 0.6181476 0.00492771
vt 0.4859215 0.004927715
vt 0.4859215 0.02470937
vt 0.6181476 0.00492771
vt 0.6181476 0.02470937
vt 0.7503736 0.02470937
vt 0.7503735 0.004927725
vt 0.7456354 0.4993841
vt 0.7415968 0.4913523
vt 0.5853581 0.4913523
vt 0.5853581 0.4993841
vt 0.4291194 0.4913523
vt 0.4250808 0.4993841
vt 0.5914001 0.4913523
vt 0.5954387 0.4993841
vt 0.7516774 0.4993841
vt 0.7516774 0.4913523
vt 0.9079161 0.4993841
vt 0.9119546 0.4913523
vt 0.3488943 0.02438861
vt 0.4811203 0.02438861
vt 0.4811203 0.004606962
vt 0.3488943 0.004606947
vt 0.3488943 0.004606947
vt 0.2166682 0.004606949
vt 0.2166682 0.02438861
vt 0.3488943 0.02438861
vt 0.9954574 0.03336382
vt 0.960708 0.2562881
vt 0.995412 0.2562882
vt 0.9606793 0.03326929
vt 0.9217538 0.2562882
vt 0.9216672 0.03323823
vt 0.8828167 0.2562883
vt 0.8827608 0.03327537
vt 0.8438797 0.2562883
vt 0.8438908 0.03330255
vt 0.8049482 0.2562883
vt 0.804948 0.03334898
vt 0.7702345 0.2564275
vt 0.7702178 0.03341705
vt 0.9612233 0.03274295
vt 0.9970219 0.2563016
vt 0.9970274 0.0327442
vt 0.9612209 0.2563117
vt 0.9970272 0.4798792
vt 0.9220089 0.03274366
vt 0.9612232 0.4798801
vt 0.9220089 0.2563117
vt 0.8827947 0.03274637
vt 0.9220086 0.4798795
vt 0.8827965 0.2563116
vt 0.8435828 0.03274684
vt 0.8827947 0.4798769
vt 0.8435844 0.2563116
vt 0.8043706 0.03274378
vt 0.8435825 0.4798766
vt 0.8043721 0.2563116
vt 0.7685666 0.03274097
vt 0.8043704 0.4798795
vt 0.7685678 0.2563114
vt 0.7685664 0.479882
vt 0.5761963 0.2549838
vt 0.5414472 0.03205991
vt 0.5414923 0.2549836
vt 0.5762249 0.03196496
vt 0.6151506 0.2549837
vt 0.615237 0.03193349
vt 0.6540877 0.2549835
vt 0.6541435 0.0319711
vt 0.6930246 0.2549836
vt 0.6930135 0.03199798
vt 0.7319561 0.2549836
vt 0.7319564 0.03204441
vt 0.7666698 0.2551227
vt 0.7666867 0.03211227
vt 0.6963226 0.4993841
vt 0.6557263 0.4913523
vt 0.6516876 0.4993841
vt 0.6973187 0.4913523
vt 0.7379158 0.4993841
vt 0.7398401 0.4913523
vt 0.7736325 0.4993841
vt 0.7763541 0.4913523
vt 0.8087884 0.4989329
vt 0.7492912 0.4908714
vt 0.7535038 0.4989329
vt 0.8058096 0.4908714
vt 0.8731687 0.4989329
vt 0.8716269 0.4908714
vt 0.9422574 0.4989329
vt 0.9360063 0.4908714
vt 0.6378411 0.4993841
vt 0.6418797 0.4913523
vt 0.6033156 0.4913523
vt 0.6042923 0.4993841
vt 0.5673796 0.4913523
vt 0.5692665 0.4993841
vt 0.5365207 0.4913523
vt 0.5391892 0.4993841
vt 0.435198 0.4913523
vt 0.4325295 0.4993841
vt 0.4633885 0.4993841
vt 0.4652754 0.4913523
vt 0.4993245 0.4993841
vt 0.5003012 0.4913523
vt 0.5378885 0.4993841
vt 0.53385 0.4913523
vt 0.5893743 0.02556841
vt 0.5909702 0.004448843
vt 0.5589319 0.004448843
vt 0.558085 0.02556841
vt 0.558085 0.02556841
vt 0.5589319 0.004448843
vt 0.521482 0.004448843
vt 0.5210436 0.02556841
vt 0.5210436 0.02556841
vt 0.521482 0.004448843
vt 0.4812931 0.004448843
vt 0.4812932 0.02556841
vt 0.4812932 0.02556841
vt 0.4812931 0.004448843
vt 0.4411044 0.004448843
vt 0.4415428 0.02556841
vt 0.4415428 0.02556841
vt 0.4411044 0.004448843
vt 0.4036544 0.004448843
vt 0.4045013 0.02556841
vt 0.4045013 0.02556841
vt 0.4036544 0.004448843
vt 0.3716161 0.004448843
vt 0.373212 0.02556841
vt 0.6911026 0.4913523
vt 0.6464677 0.4913523
vt 0.6505063 0.4993841
vt 0.6920987 0.4993841
vt 0.7326958 0.4913523
vt 0.7346201 0.4993841
vt 0.7684125 0.4913523
vt 0.7711341 0.4993841
vt 0.8454797 0.4913523
vt 0.8097628 0.4913523
vt 0.8070413 0.4993841
vt 0.8435552 0.4993841
vt 0.8870727 0.4913523
vt 0.8860766 0.4993841
vt 0.9317077 0.4913523
vt 0.9276692 0.4993841
vt 0.643061 0.4913523
vt 0.6085355 0.4993841
vt 0.6470996 0.4993841
vt 0.6095122 0.4913523
vt 0.5725995 0.4993841
vt 0.5744864 0.4913523
vt 0.5417407 0.4993841
vt 0.5444091 0.4913523
vt 0.4299781 0.4993841
vt 0.4581685 0.4913523
vt 0.4273096 0.4913523
vt 0.4600554 0.4993841
vt 0.4941045 0.4913523
vt 0.4950813 0.4993841
vt 0.5326687 0.4913523
vt 0.52863 0.4993841
vt 0.5967085 0.02556841
vt 0.6284377 0.02556841
vt 0.6286699 0.004448843
vt 0.5966316 0.004448843
vt 0.6284377 0.02556841
vt 0.6659996 0.02556841
vt 0.6661199 0.004448843
vt 0.6286699 0.004448843
vt 0.6659996 0.02556841
vt 0.7063087 0.004448843
vt 0.6661199 0.004448843
vt 0.7063087 0.02556841
vt 0.7464975 0.004448843
vt 0.7466177 0.02556841
vt 0.7466177 0.02556841
vt 0.7841797 0.02556841
vt 0.7839474 0.004448843
vt 0.7464975 0.004448843
vt 0.7841797 0.02556841
vt 0.8159087 0.02556841
vt 0.8159857 0.004448843
vt 0.7839474 0.004448843
vn 0.7071066 0 -0.7071069
vn 0.7071065 0 -0.7071069
vn 0.7071065 0 -0.7071069
vn 0.7071065 0 -0.7071069
vn 0.7071065 0 -0.707107
vn 0.7071066 0 -0.7071069
vn 0.7071095 0 0.7071041
vn 0.7071095 0 0.7071041
vn 0.7071094 0 0.7071041
vn 0.7071095 0 0.7071041
vn 0.7071095 0 0.707104
vn 0.7071095 0 0.707104
vn 1 0 0
vn 1 0 0
vn 1 0 0
vn 1 0 0
vn 1 0 0
vn 1 0 0
vn 1 0 0
vn 1 0 0
vn 0.7071083 0 -0.7071053
vn 0.7071083 0 -0.7071052
vn 0.7071078 0 -0.7071056
vn 0.7071078 0 -0.7071056
vn 0.7071075 0 -0.707106
vn 0.7071075 0 -0.707106
vn -0.7071072 0 -0.7071063
vn -0.7071072 0 -0.7071063
vn -0.7071084 0 -0.707105
vn -0.7071084 0 -0.707105
vn -0.7071097 0 -0.7071038
vn -0.7071097 0 -0.7071038
vn 0 0 -1
vn 0 0 -1
vn 0 0 -1
vn 0 0 -1
vn 0 0 -1
vn 0 0 -1
vn 0 0 -1
vn 0 0 -1
vn 0.9943845 0 -0.1058268
vn 0.9688895 0 -0.2474933
vn 0.9943845 0 -0.1058268
vn 0.9688895 0 -0.2474933
vn 0.8660253 0 -0.5000002
vn 0.8660253 0 -0.5000001
vn 0.7071071 0 -0.7071065
vn 0.7071069 0 -0.7071065
vn 0.5000002 0 -0.8660253
vn 0.5000002 0 -0.8660253
vn 0.2459231 0 -0.9692894
vn 0.2459232 0 -0.9692892
vn 0.1044653 0 -0.9945285
vn 0.1044654 0 -0.9945285
vn -0.2582065 0 0.9660898
vn -0.1298988 0 0.9915273
vn -0.1298988 0 0.9915273
vn -0.2582065 0 0.9660898
vn -0.1298987 0 0.9915273
vn -0.5000002 0 0.8660253
vn -0.2582065 0 0.9660898
vn -0.5000003 0 0.8660253
vn -0.7071069 0 0.7071065
vn -0.5000003 0 0.8660253
vn -0.707107 0 0.7071065
vn -0.8660254 0 0.5
vn -0.707107 0 0.7071065
vn -0.8660254 0 0.5
vn -0.9657283 0 0.2595549
vn -0.8660254 0 0.5000001
vn -0.9657283 0 0.2595551
vn -0.9913449 0 0.1312832
vn -0.9657282 0 0.2595552
vn -0.9913449 0 0.1312835
vn -0.9913448 0 0.1312838
vn 0.9688895 0 -0.2474933
vn 0.9943845 0 -0.1058268
vn 0.9943845 0 -0.1058268
vn 0.9688895 0 -0.2474933
vn 0.8660253 0 -0.5000002
vn 0.8660253 0 -0.5000002
vn 0.7071071 0 -0.7071065
vn 0.7071071 0 -0.7071064
vn 0.5000002 0 -0.8660253
vn 0.5000003 0 -0.8660253
vn 0.2459231 0 -0.9692894
vn 0.245923 0 -0.9692894
vn 0.1044653 0 -0.9945285
vn 0.1044652 0 -0.9945285
vn -0.6850557 0.7061746 0.1789306
vn -0.691206 0.7174981 0.08620164
vn -0.691206 0.7174981 0.08620165
vn -0.6850298 0.7061337 0.1791905
vn -0.6269166 0.6899046 0.3619493
vn -0.6269164 0.6899046 0.3619496
vn -0.5118746 0.6899039 0.511876
vn -0.5118749 0.6899039 0.5118757
vn -0.3619488 0.6899076 0.6269134
vn -0.5118749 0.6899039 0.5118757
vn -0.5118746 0.6899039 0.511876
vn -0.3619491 0.6899076 0.6269133
vn -0.177987 0.7061672 0.6853091
vn -0.1783022 0.7061185 0.6852774
vn -0.08534761 0.7172772 0.6915412
vn -0.08534762 0.7172772 0.6915413
vn 0.07616166 0.6719336 -0.7366849
vn 0.07616166 0.6719336 -0.7366849
vn 0.1778758 0.6795791 -0.7117109
vn 0.1766308 0.6795304 -0.7120673
vn 0.3653272 0.6827481 -0.6327646
vn 0.3653273 0.6827481 -0.6327645
vn 0.5166488 0.6827502 -0.5166489
vn 0.5166488 0.6827502 -0.5166489
vn 0.5166488 0.6827502 -0.5166489
vn 0.5166488 0.6827502 -0.5166489
vn 0.6327642 0.6827484 -0.3653274
vn 0.632764 0.6827484 -0.3653277
vn 0.7115664 0.6794446 -0.1789647
vn 0.7119081 0.6793972 -0.1777816
vn 0.736806 0.6716919 -0.07711586
vn 0.7368061 0.6716918 -0.07711586
vn 0 1 0
vn 0 1 0
vn 0 1 0
vn 0 1 0
vn 0 1 0
vn 0 1 0
vn 0 1 0
vn 0 1 0
vn 0 1 -6.427512E-07
vn 0 1 -6.427512E-07
vn 0 1 -6.427512E-07
vn 0 1 -6.427512E-07
vn 0 1 -6.427512E-07
vn 0 1 -6.427512E-07
vn 0 1 -6.427512E-07
vn 0 1 -6.427512E-07
vn 0 1 6.4275E-07
vn 0 1 6.427499E-07
vn 0 1 6.427499E-07
vn 0 1 6.427499E-07
vn 0 1 0
vn 0 1 0
vn 0 1 0
vn 0 1 0
vn -0.6850577 -0.7061725 0.1789311
vn -0.6912087 -0.7174955 0.08620213
vn -0.6912087 -0.7174955 0.08620213
vn -0.6850318 -0.7061318 0.1791911
vn -0.6269171 -0.6899036 0.3619503
vn -0.6269169 -0.6899036 0.3619506
vn -0.5118754 -0.6899036 0.5118755
vn -0.5118756 -0.6899037 0.5118753
vn -0.3619488 -0.6899076 0.6269135
vn -0.5118754 -0.6899036 0.5118755
vn -0.5118756 -0.6899037 0.5118753
vn -0.3619491 -0.6899076 0.6269134
vn -0.1779864 -0.7061657 0.6853107
vn -0.1783016 -0.706117 0.685279
vn -0.085348 -0.7172753 0.6915432
vn -0.085348 -0.7172753 0.6915432
vn 0.07616174 -0.6719361 -0.7366827
vn 0.1778751 -0.679581 -0.7117093
vn 0.07616173 -0.671936 -0.7366827
vn 0.1766302 -0.6795323 -0.7120658
vn 0.3653261 -0.6827499 -0.6327631
vn 0.3653261 -0.6827499 -0.6327631
vn 0.5166482 -0.6827517 -0.5166476
vn 0.5166483 -0.6827517 -0.5166475
vn 0.5166483 -0.6827517 -0.5166475
vn 0.6327646 -0.6827484 -0.3653268
vn 0.5166482 -0.6827517 -0.5166476
vn 0.6327644 -0.6827483 -0.3653271
vn 0.7115657 -0.6794454 -0.178964
vn 0.7119074 -0.6793982 -0.1777809
vn 0.7368037 -0.6716946 -0.07711503
vn 0.7368037 -0.6716946 -0.07711503
vn -5.257569E-07 -1 0
vn -5.257569E-07 -1 0
vn -5.257569E-07 -1 0
vn -5.257569E-07 -1 0
vn 0 -1 0
vn 0 -1 0
vn 0 -1 0
vn 0 -1 0
vn 0 -1 0
vn 0 -1 0
vn 0 -1 0
vn 0 -1 0
vn 0 -1 0
vn 0 -1 0
vn 0 -1 0
vn 0 -1 0
vn 0 -1 0
vn 0 -1 0
vn 0 -1 5.313776E-07
vn 0 -1 5.313777E-07
vn 0 -1 5.313776E-07
vn 0 -1 5.313777E-07
g housekit_wall_corner_x1a_0
f 3/3/3 2/2/2 1/1/1
f 2/2/2 4/4/4 1/1/1
f 4/4/4 2/2/2 5/5/5
f 6/6/6 4/4/4 5/5/5
f 9/9/9 8/8/8 7/7/7
f 8/8/8 10/10/10 7/7/7
f 10/10/10 8/8/8 11/11/11
f 12/12/12 10/10/10 11/11/11
f 15/15/15 14/14/14 13/13/13
f 16/16/16 15/15/15 13/13/13
f 19/19/19 18/18/18 17/17/17
f 20/20/20 19/19/19 17/17/17
f 23/23/23 22/22/22 21/21/21
f 24/24/24 23/23/23 21/21/21
f 23/23/23 24/24/24 25/25/25
f 24/24/24 26/26/26 25/25/25
f 29/29/29 28/28/28 27/27/27
f 30/30/30 29/29/29 27/27/27
f 29/29/29 30/30/30 31/31/31
f 30/30/30 32/32/32 31/31/31
f 35/35/35 34/34/34 33/33/33
f 36/36/36 35/35/35 33/33/33
f 39/39/39 38/38/38 37/37/37
f 40/40/40 39/39/39 37/37/37
f 43/43/43 42/42/42 41/41/41
f 42/42/42 44/44/44 41/41/41
f 42/42/42 45/45/45 44/44/44
f 45/45/45 46/46/46 44/44/44
f 45/45/45 47/47/47 46/46/46
f 47/47/47 48/48/48 46/46/46
f 47/47/47 49/49/49 48/48/48
f 49/49/49 50/50/50 48/48/48
f 49/49/49 51/51/51 50/50/50
f 51/51/51 52/52/52 50/50/50
f 51/51/51 53/53/53 52/52/52
f 53/53/53 54/54/54 52/52/52
f 57/57/57 56/56/56 55/55/55
f 56/56/56 58/58/58 55/55/55
f 56/56/56 59/59/59 58/58/58
f 55/55/55 58/58/58 60/60/60
f 59/59/59 61/61/61 58/58/58
f 58/58/58 62/62/62 60/60/60
f 58/58/58 61/61/61 62/62/62
f 60/60/60 62/62/62 63/63/63
f 61/61/61 64/64/64 62/62/62
f 62/62/62 65/65/65 63/63/63
f 62/62/62 64/64/64 65/65/65
f 63/63/63 65/65/65 66/66/66
f 64/64/64 67/67/67 65/65/65
f 65/65/65 68/68/68 66/66/66
f 65/65/65 67/67/67 68/68/68
f 66/66/66 68/68/68 69/69/69
f 67/67/67 70/70/70 68/68/68
f 68/68/68 71/71/71 69/69/69
f 68/68/68 70/70/70 71/71/71
f 69/69/69 71/71/71 72/72/72
f 70/70/70 73/73/73 71/71/71
f 71/71/71 74/74/74 72/72/72
f 71/71/71 73/73/73 74/74/74
f 73/73/73 75/75/75 74/74/74
f 78/78/78 77/77/77 76/76/76
f 77/77/77 79/79/79 76/76/76
f 76/76/76 79/79/79 80/80/80
f 79/79/79 81/81/81 80/80/80
f 80/80/80 81/81/81 82/82/82
f 81/81/81 83/83/83 82/82/82
f 82/82/82 83/83/83 84/84/84
f 83/83/83 85/85/85 84/84/84
f 84/84/84 85/85/85 86/86/86
f 85/85/85 87/87/87 86/86/86
f 86/86/86 87/87/87 88/88/88
f 87/87/87 89/89/89 88/88/88
f 92/92/92 91/91/91 90/90/90
f 91/91/91 93/93/93 90/90/90
f 90/90/90 93/93/93 94/94/94
f 93/93/93 95/95/95 94/94/94
f 94/94/94 95/95/95 96/96/96
f 95/95/95 97/97/97 96/96/96
f 100/100/100 99/99/99 98/98/98
f 99/99/99 101/101/101 98/98/98
f 98/98/98 101/101/101 102/102/102
f 101/101/101 103/103/103 102/102/102
f 102/102/102 103/103/103 104/104/104
f 103/103/103 105/105/105 104/104/104
f 108/108/108 107/107/107 106/106/106
f 109/109/109 108/108/108 106/106/106
f 110/110/110 108/108/108 109/109/109
f 111/111/111 110/110/110 109/109/109
f 112/112/112 110/110/110 111/111/111
f 113/113/113 112/112/112 111/111/111
f 116/116/116 115/115/115 114/114/114
f 117/117/117 116/116/116 114/114/114
f 118/118/118 116/116/116 117/117/117
f 119/119/119 118/118/118 117/117/117
f 120/120/120 118/118/118 119/119/119
f 121/121/121 120/120/120 119/119/119
f 124/124/124 123/123/123 122/122/122
f 125/125/125 124/124/124 122/122/122
f 128/128/128 127/127/127 126/126/126
f 129/129/129 128/128/128 126/126/126
f 132/132/132 131/131/131 130/130/130
f 133/133/133 132/132/132 130/130/130
f 136/136/136 135/135/135 134/134/134
f 137/137/137 136/136/136 134/134/134
f 140/140/140 139/139/139 138/138/138
f 141/141/141 140/140/140 138/138/138
f 144/144/144 143/143/143 142/142/142
f 145/145/145 144/144/144 142/142/142
f 148/148/148 147/147/147 146/146/146
f 149/149/149 148/148/148 146/146/146
f 149/149/149 146/146/146 150/150/150
f 151/151/151 149/149/149 150/150/150
f 151/151/151 150/150/150 152/152/152
f 153/153/153 151/151/151 152/152/152
f 156/156/156 155/155/155 154/154/154
f 157/157/157 156/156/156 154/154/154
f 157/157/157 154/154/154 158/158/158
f 159/159/159 157/157/157 158/158/158
f 159/159/159 158/158/158 160/160/160
f 161/161/161 159/159/159 160/160/160
f 164/164/164 163/163/163 162/162/162
f 163/163/163 165/165/165 162/162/162
f 163/163/163 166/166/166 165/165/165
f 166/166/166 167/167/167 165/165/165
f 166/166/166 168/168/168 167/167/167
f 168/168/168 169/169/169 167/167/167
f 172/172/172 171/171/171 170/170/170
f 171/171/171 173/173/173 170/170/170
f 171/171/171 174/174/174 173/173/173
f 174/174/174 175/175/175 173/173/173
f 174/174/174 176/176/176 175/175/175
f 176/176/176 177/177/177 175/175/175
f 180/180/180 179/179/179 178/178/178
f 181/181/181 180/180/180 178/178/178
f 184/184/184 183/183/183 182/182/182
f 185/185/185 184/184/184 182/182/182
f 188/188/188 187/187/187 186/186/186
f 187/187/187 189/189/189 186/186/186
f 187/187/187 190/190/190 189/189/189
f 190/190/190 191/191/191 189/189/189
f 194/194/194 193/193/193 192/192/192
f 195/195/195 194/194/194 192/192/192
f 198/198/198 197/197/197 196/196/196
f 199/199/199 198/198/198 196/196/196
