g housekit_understructure_corner_x2_COL
v 1.068115E-06 0.3500002 1.335144E-07
v -1.749888 0.3500001 3.030897
v -2.474717 0.3500001 2.474717
v -0.9058098 0.3500001 3.380526
v 0 0.3500001 3.499776
v 1.068115E-06 0.3500002 1.335144E-07
v -3.380527 0.3499999 0.9058095
v -3.499777 0.3500001 -2.670288E-07
v -3.030625 0.3499999 1.749731
v -2.474717 0.3500001 2.474717
v 1.068115E-06 1.271485E-07 -1.335144E-07
v -2.474717 1.271485E-07 2.474717
v -1.749888 1.271485E-07 3.030897
v -0.9058098 1.271485E-07 3.380526
v 0 1.271485E-07 3.499776
v 1.068115E-06 1.271485E-07 -1.335144E-07
v -3.499777 1.271485E-07 -5.340576E-07
v -3.380527 -1.271485E-07 0.9058093
v -3.030625 -1.271485E-07 1.749731
v -2.474717 1.271485E-07 2.474717
v -2.474717 1.271485E-07 2.474717
v -2.474717 0.3500001 2.474717
v -1.749888 0.3500001 3.030897
v -1.749888 1.271485E-07 3.030897
v -0.9058098 0.3500001 3.380526
v -0.9058098 1.271485E-07 3.380526
v 0 0.3500001 3.499776
v 0 1.271485E-07 3.499776
v 1.068115E-06 1.271485E-07 -1.335144E-07
v 1.068115E-06 0.3500002 1.335144E-07
v -3.499777 0.3500001 -2.670288E-07
v -3.499777 1.271485E-07 -5.340576E-07
v -3.499777 1.271485E-07 -5.340576E-07
v -3.499777 0.3500001 -2.670288E-07
v -3.380527 0.3499999 0.9058095
v -3.380527 -1.271485E-07 0.9058093
v -3.030625 0.3499999 1.749731
v -3.030625 -1.271485E-07 1.749731
v -2.474717 0.3500001 2.474717
v -2.474717 1.271485E-07 2.474717
v 0 1.271485E-07 3.499776
v 0 0.3500001 3.499776
v 1.068115E-06 0.3500002 1.335144E-07
v 1.068115E-06 1.271485E-07 -1.335144E-07
vt 0.175634 0.7611336
vt 0.1268828 0.8318985
vt 0.1268828 0.9820098
vt 0.1268828 0.6898863
vt 0.1268828 0.5407587
vt 0.04940981 0.7606071
vt 0.004927404 0.8300191
vt 0.004927404 0.9820098
vt 0.004927404 0.6898555
vt 0.004927404 0.5407587
vt 0.175634 0.7611336
vt 0.1268828 0.9820098
vt 0.1268828 0.8318985
vt 0.1268828 0.6898863
vt 0.1268828 0.5407587
vt 0.04940981 0.7606071
vt 0.004927404 0.9820098
vt 0.004927404 0.8300191
vt 0.004927404 0.6898555
vt 0.004927404 0.5407587
vt 0.1268828 0.9820098
vt 0.1268828 0.9820098
vt 0.1268828 0.8318985
vt 0.1268828 0.8318985
vt 0.1268828 0.6898863
vt 0.1268828 0.6898863
vt 0.1268828 0.5407587
vt 0.1268828 0.5407587
vt 0.04940985 0.9820098
vt 0.04940981 0.7606071
vt 0.004927404 0.9820098
vt 0.004927404 0.9820098
vt 0.004927404 0.9820098
vt 0.004927404 0.9820098
vt 0.004927404 0.8300191
vt 0.004927404 0.8300191
vt 0.004927404 0.6898555
vt 0.004927404 0.6898555
vt 0.004927404 0.5407587
vt 0.004927404 0.5407587
vt 0.1268828 0.5407587
vt 0.1268828 0.5407587
vt 0.175634 0.7611336
vt 0.1756339 0.5407587
vn 0 1 0
vn 0 1 0
vn 0 1 0
vn 0 1 0
vn 0 1 0
vn 0 1 0
vn 0 1 0
vn 0 1 2.830219E-07
vn 0 1 0
vn -2.161047E-07 1 -1.886981E-07
vn 0 -1 0
vn 0 -1 0
vn 0 -1 0
vn 0 -1 0
vn 0 -1 0
vn 0 -1 0
vn 0 -1 -2.807399E-07
vn 0 -1 0
vn 0 -1 0
vn 1.98531E-07 -1 1.985312E-07
vn -0.707225 0 0.7069886
vn -0.707225 0 0.7069886
vn -0.5 0 0.8660254
vn -0.5 0 0.8660254
vn -0.2588183 0 0.9659261
vn -0.2588183 0 0.9659261
vn -0.1305243 0 0.9914451
vn -0.1305243 0 0.9914451
vn 0 7.629395E-07 -1
vn 0 7.629395E-07 -1
vn 0 7.629395E-07 -1
vn 0 7.629395E-07 -1
vn -0.9914452 -5.843611E-07 0.1305236
vn -0.9914452 -5.843611E-07 0.1305236
vn -0.9658827 -5.392077E-07 0.2589799
vn -0.9658827 -5.392077E-07 0.2589799
vn -0.8660253 -3.416062E-07 0.5000003
vn -0.8660253 -3.416063E-07 0.5000002
vn -0.707225 0 0.7069886
vn -0.707225 0 0.7069886
vn 1 -3.9065E-06 3.051953E-07
vn 1 -3.9065E-06 3.051953E-07
vn 1 -3.9065E-06 3.051953E-07
vn 1 -3.9065E-06 3.051953E-07
g housekit_understructure_corner_x2_COL_0
f 3/3/3 2/2/2 1/1/1
f 2/2/2 4/4/4 1/1/1
f 4/4/4 5/5/5 1/1/1
f 8/8/8 7/7/7 6/6/6
f 7/7/7 9/9/9 6/6/6
f 9/9/9 10/10/10 6/6/6
f 13/13/13 12/12/12 11/11/11
f 14/14/14 13/13/13 11/11/11
f 15/15/15 14/14/14 11/11/11
f 18/18/18 17/17/17 16/16/16
f 19/19/19 18/18/18 16/16/16
f 20/20/20 19/19/19 16/16/16
f 23/23/23 22/22/22 21/21/21
f 24/24/24 23/23/23 21/21/21
f 25/25/25 23/23/23 24/24/24
f 26/26/26 25/25/25 24/24/24
f 27/27/27 25/25/25 26/26/26
f 28/28/28 27/27/27 26/26/26
f 31/31/31 30/30/30 29/29/29
f 32/32/32 31/31/31 29/29/29
f 35/35/35 34/34/34 33/33/33
f 36/36/36 35/35/35 33/33/33
f 37/37/37 35/35/35 36/36/36
f 38/38/38 37/37/37 36/36/36
f 39/39/39 37/37/37 38/38/38
f 40/40/40 39/39/39 38/38/38
f 43/43/43 42/42/42 41/41/41
f 44/44/44 43/43/43 41/41/41
