g houseDoormat
v 0.3344215 0.01637986 -0.790565
v 0.3376925 -0.03275642 -0.7906157
v 1.023906 -0.03275642 -0.8139274
v -1.023541 0.04426466 0.795901
v -1.023906 0.02829581 0.813932
v -1.03993 0.02816671 0.7964759
v 1.059853 0.01654647 0.7640382
v 1.044281 0.01654827 0.7819813
v 1.043453 0.03291904 0.7639644
v -1.044281 0.01637986 -0.7819811
v -1.043453 0.03275643 -0.7639641
v -1.059853 0.01637986 -0.7640343
v -0.3867845 0.02728103 0.3028364
v 0.3867844 0.02728103 -0.3028331
v 0.3943629 0.02728103 0.2907673
v -0.3943629 0.02728103 -0.290764
v 0.3347895 0.03255454 -0.772556
v 1.023539 0.03831977 -0.7958952
v 1.01362 0.03261694 -0.2777758
v -0.3543792 0.03255454 -0.7619096
v -1.020312 0.03261694 -0.2463536
v -1.043453 0.03275643 -0.7639641
v -1.03993 0.02816671 0.7964759
v -1.013701 0.0326181 0.2819526
v -1.023541 0.04426466 0.795901
v -1.029998 0.01637986 0.2777143
v -1.020312 0.03261694 -0.2463536
v -1.036682 0.01637986 -0.2457842
v -1.043453 0.03275643 -0.7639641
v -1.059853 0.01637986 -0.7640343
v -1.023906 0.02829581 0.813932
v -1.020635 -0.03275642 0.8138813
v -1.036659 -0.03275642 0.7964253
v -1.03993 0.02816671 0.7964759
v -0.3432012 0.0325563 0.772845
v 0.3543792 0.03255454 0.7619106
v 0.3544719 0.01637986 0.7799233
v -0.3344216 0.01637986 0.7905653
v -1.023541 0.04426466 0.795901
v -1.023906 0.02829581 0.813932
v -1.020635 -0.03275642 0.8138813
v -0.3311505 -0.03275642 0.7905159
v 0.3543792 0.03255454 0.7619106
v 1.043453 0.03291904 0.7639644
v 1.044281 0.01654827 0.7819813
v 0.3544719 0.01637986 0.7799233
v 1.059853 0.01654647 0.7640382
v 1.059853 -0.03275642 0.7640382
v 1.044281 -0.03275642 0.7819813
v 1.044281 0.01654827 0.7819813
v -1.059853 0.01637986 -0.7640343
v -1.056582 -0.03275642 -0.7640861
v -1.04101 -0.03275642 -0.7820317
v -1.044281 0.01637986 -0.7819811
v -1.044281 0.01637986 -0.7819811
v -0.3543792 0.03255454 -0.7619096
v -1.043453 0.03275643 -0.7639641
v -0.3544719 0.01637986 -0.7799223
v -1.04101 -0.03275642 -0.7820317
v -0.3512008 -0.03275642 -0.779973
v -0.3544719 0.01637986 -0.7799223
v 0.3347895 0.03255454 -0.772556
v -0.3543792 0.03255454 -0.7619096
v 0.3344215 0.01637986 -0.790565
v 1.023539 0.03831977 -0.7958952
v 1.023906 0.02214098 -0.8139274
v 1.023906 -0.03275642 -0.8139274
v 0.3376925 -0.03275642 -0.7906157
v -0.3512008 -0.03275642 -0.779973
v 1.023906 0.02214098 -0.8139274
v 1.023906 -0.03275642 -0.8139274
v 1.03993 -0.03275642 -0.7964745
v 1.03993 0.02207922 -0.7964745
v 1.023539 0.03831977 -0.7958952
v 1.03993 0.02207922 -0.7964745
v 1.01362 0.03261694 -0.2777758
v 1.023539 0.03831977 -0.7958952
v 1.029998 0.01637986 -0.2777111
v 1.020311 0.03261694 0.2463569
v 1.029998 -0.03275642 -0.2777111
v 1.03993 -0.03275642 -0.7964745
v 1.036682 -0.03275642 0.245785
v 1.036682 0.01637986 0.245785
v 1.043453 0.03291904 0.7639644
v 1.059853 -0.03275642 0.7640382
v 1.059853 0.01654647 0.7640382
v -0.3311505 -0.03275642 0.7905159
v -0.3344216 0.01637986 0.7905653
v 0.3544719 0.01637986 0.7799233
v 0.3544719 -0.03275642 0.7799233
v 0.3544719 -0.03275642 0.7799233
v 0.3544719 0.01637986 0.7799233
v 1.044281 0.01654827 0.7819813
v 1.044281 -0.03275642 0.7819813
v -1.013701 0.0326181 0.2819526
v -0.3432012 0.0325563 0.772845
v -1.023541 0.04426466 0.795901
v -0.3867845 0.02728103 0.3028364
v -0.3943629 0.02728103 -0.290764
v -1.020312 0.03261694 -0.2463536
v 0.3943629 0.02728103 0.2907673
v 0.3543792 0.03255454 0.7619106
v 1.020311 0.03261694 0.2463569
v 1.043453 0.03291904 0.7639644
v 1.01362 0.03261694 -0.2777758
v 0.3867844 0.02728103 -0.3028331
v -1.036682 0.01637986 -0.2457842
v -1.056582 -0.03275642 -0.7640861
v -1.059853 0.01637986 -0.7640343
v -1.033411 -0.03275642 -0.2458336
v -1.029998 0.01637986 0.2777143
v -1.026727 -0.03275642 0.2776625
v -1.03993 0.02816671 0.7964759
v -1.036659 -0.03275642 0.7964253
vt 0.3667507 0.8880689
vt 0.3674517 0.8880752
vt 0.5136696 0.8905364
vt 0.07320583 0.5849486
vt 0.07308042 0.5814604
vt 0.06971502 0.5848884
vt 0.5170307 0.5848895
vt 0.5136652 0.5814617
vt 0.5135366 0.5849507
vt 0.07308169 0.8905309
vt 0.07320751 0.8870378
vt 0.06971626 0.8871027
vt 0.210169 0.6785157
vt 0.3765761 0.7934738
vt 0.3765761 0.6785159
vt 0.2101691 0.793474
vt 0.3667787 0.8845787
vt 0.5135366 0.8870367
vt 0.5100152 0.7867463
vt 0.2199659 0.8845786
vt 0.07672879 0.7867464
vt 0.07320751 0.8870378
vt 0.06971502 0.5848884
vt 0.07670021 0.6844339
vt 0.07320583 0.5849486
vt 0.07324189 0.6853053
vt 0.07672879 0.7867464
vt 0.07324201 0.7866874
vt 0.07320751 0.8870378
vt 0.06971626 0.8871027
vt 0.07308042 0.5814604
vt 0.07378232 0.5814685
vt 0.07041687 0.5848961
vt 0.06971502 0.5848884
vt 0.218173 0.5873793
vt 0.3667783 0.5874096
vt 0.3667505 0.5839238
vt 0.2199962 0.5839241
vt 0.07320583 0.5849486
vt 0.07308042 0.5814604
vt 0.07378232 0.5814685
vt 0.2206972 0.5839301
vt 0.3667783 0.5874096
vt 0.5135366 0.5849507
vt 0.5136652 0.5814617
vt 0.3667505 0.5839238
vt 0.5170307 0.5848895
vt 0.5170348 0.5848958
vt 0.5136694 0.581468
vt 0.5136652 0.5814617
vt 0.06971626 0.8871027
vt 0.07041718 0.8871091
vt 0.07378261 0.8905373
vt 0.07308169 0.8905309
vt 0.07308169 0.8905309
vt 0.2199659 0.8845786
vt 0.07320751 0.8870378
vt 0.2199966 0.888069
vt 0.07378261 0.8905373
vt 0.2206974 0.8880753
vt 0.2199966 0.888069
vt 0.3667787 0.8845787
vt 0.2199659 0.8845786
vt 0.3667507 0.8880689
vt 0.5135366 0.8870367
vt 0.5136651 0.8905293
vt 0.5136696 0.8905364
vt 0.3674517 0.8880752
vt 0.2206974 0.8880753
vt 0.5136651 0.8905293
vt 0.5136696 0.8905364
vt 0.5170351 0.8871089
vt 0.5170305 0.8871017
vt 0.5135366 0.8870367
vt 0.5170305 0.8871017
vt 0.5100152 0.7867463
vt 0.5135366 0.8870367
vt 0.5135049 0.7866868
vt 0.5100152 0.6852415
vt 0.5135089 0.7866931
vt 0.5170351 0.8871089
vt 0.5135089 0.6853119
vt 0.5135049 0.6853054
vt 0.5135366 0.5849507
vt 0.5170348 0.5848958
vt 0.5170307 0.5848895
vt 0.2206972 0.5839301
vt 0.2199962 0.5839241
vt 0.3667505 0.5839238
vt 0.3667546 0.58393
vt 0.3667546 0.58393
vt 0.3667505 0.5839238
vt 0.5136652 0.5814617
vt 0.5136694 0.581468
vt 0.07670021 0.6844339
vt 0.218173 0.5873793
vt 0.07320583 0.5849486
vt 0.210169 0.6785157
vt 0.2101691 0.793474
vt 0.07672879 0.7867464
vt 0.3765761 0.6785159
vt 0.3667783 0.5874096
vt 0.5100152 0.6852415
vt 0.5135366 0.5849507
vt 0.5100152 0.7867463
vt 0.3765761 0.7934738
vt 0.07324201 0.7866874
vt 0.07041718 0.8871091
vt 0.06971626 0.8871027
vt 0.07394296 0.7866936
vt 0.07324189 0.6853053
vt 0.07394278 0.6853116
vt 0.06971502 0.5848884
vt 0.07041687 0.5848961
vn -0.02483385 0.2606841 -0.9651047
vn -0.02532621 -0.0003089101 -0.9996792
vn -0.006994372 -0.0005658516 -0.9999754
vn -0.0117645 0.999798 0.01629629
vn 0.0126502 0.2456535 0.9692751
vn -0.9843135 0.1763635 0.004776205
vn 0.9717889 0.2351356 -0.01837132
vn 0.01772968 0.2581455 0.9659433
vn 0.0215755 0.9993799 0.027827
vn -0.01891907 0.2656736 -0.9638773
vn -0.02170914 0.9993722 -0.02799948
vn -0.9818643 0.1886165 0.01913752
vn 0.004969513 0.9999655 -0.006660469
vn -0.003935837 0.9999785 0.005236668
vn -0.003059174 0.9999881 -0.003809327
vn 0.003036602 0.9999883 0.003756278
vn -0.004568131 0.9997732 -0.02080169
vn 0.01649909 0.9996058 -0.02271469
vn 0.01579935 0.9998599 0.005522512
vn 0.001825697 0.9997233 -0.02345216
vn -0.01762372 0.9998397 0.003162559
vn -0.02170914 0.9993722 -0.02799948
vn -0.9843135 0.1763635 0.004776205
vn -0.01373208 0.9998692 -0.00854544
vn -0.0117645 0.999798 0.01629629
vn -0.9823184 0.1871392 -0.005432679
vn -0.01762372 0.9998397 0.003162559
vn -0.9798735 0.1976352 0.02807604
vn -0.02170914 0.9993722 -0.02799948
vn -0.9818643 0.1886165 0.01913752
vn 0.0126502 0.2456535 0.9692751
vn 0.007220236 -0.0003293522 0.9999739
vn -0.9981241 -0.05913062 0.01587144
vn -0.9843135 0.1763635 0.004776205
vn 0.006878941 0.9998154 0.01794139
vn -0.001877873 0.9997253 0.02336361
vn 0.005951994 0.2665392 0.9638057
vn 0.02582624 0.2541054 0.9668316
vn -0.0117645 0.999798 0.01629629
vn 0.0126502 0.2456535 0.9692751
vn 0.007220236 -0.0003293522 0.9999739
vn 0.0248154 0.0005664143 0.9996918
vn -0.001877873 0.9997253 0.02336361
vn 0.0215755 0.9993799 0.027827
vn 0.01772968 0.2581455 0.9659433
vn 0.005951994 0.2665392 0.9638057
vn 0.9717889 0.2351356 -0.01837132
vn 0.9999003 0 -0.0141202
vn 0.02255586 0 0.9997455
vn 0.01772968 0.2581455 0.9659433
vn -0.9818643 0.1886165 0.01913752
vn -0.9977017 -0.06643131 0.01334534
vn -0.02082844 -0.0003555304 -0.999783
vn -0.01891907 0.2656736 -0.9638773
vn -0.01891907 0.2656736 -0.9638773
vn 0.001825697 0.9997233 -0.02345216
vn -0.02170914 0.9993722 -0.02799948
vn -0.005693697 0.2668999 -0.9637073
vn -0.02082844 -0.0003555304 -0.999783
vn -0.006615952 0.0005905298 -0.9999779
vn -0.005693697 0.2668999 -0.9637073
vn -0.004568131 0.9997732 -0.02080169
vn 0.001825697 0.9997233 -0.02345216
vn -0.02483385 0.2606841 -0.9651047
vn 0.01649909 0.9996058 -0.02271469
vn -0.01289281 0.2492962 -0.9683414
vn -0.006994372 -0.0005658516 -0.9999754
vn -0.02532621 -0.0003089101 -0.9996792
vn -0.006615952 0.0005905298 -0.9999779
vn -0.01289281 0.2492962 -0.9683414
vn -0.006994372 -0.0005658516 -0.9999754
vn 0.9999156 0 -0.01299283
vn 0.973793 0.2273668 -0.005617524
vn 0.01649909 0.9996058 -0.02271469
vn 0.973793 0.2273668 -0.005617524
vn 0.01579935 0.9998599 0.005522512
vn 0.01649909 0.9996058 -0.02271469
vn 0.9711672 0.2383532 0.004685776
vn 0.01757214 0.9998403 -0.003250298
vn 0.9999937 0 0.003566123
vn 0.9999156 0 -0.01299283
vn 0.9995893 0 -0.02866002
vn 0.9693768 0.2439949 -0.02784099
vn 0.0215755 0.9993799 0.027827
vn 0.9999003 0 -0.0141202
vn 0.9717889 0.2351356 -0.01837132
vn 0.0248154 0.0005664143 0.9996918
vn 0.02582624 0.2541054 0.9668316
vn 0.005951994 0.2665392 0.9638057
vn 0.006207761 5.566298E-06 0.9999808
vn 0.006207761 5.566298E-06 0.9999808
vn 0.005951994 0.2665392 0.9638057
vn 0.01772968 0.2581455 0.9659433
vn 0.02255586 0 0.9997455
vn -0.01373208 0.9998692 -0.00854544
vn 0.006878941 0.9998154 0.01794139
vn -0.0117645 0.999798 0.01629629
vn 0.004969513 0.9999655 -0.006660469
vn 0.003036602 0.9999883 0.003756278
vn -0.01762372 0.9998397 0.003162559
vn -0.003059174 0.9999881 -0.003809327
vn -0.001877873 0.9997253 0.02336361
vn 0.01757214 0.9998403 -0.003250298
vn 0.0215755 0.9993799 0.027827
vn 0.01579935 0.9998599 0.005522512
vn -0.003935837 0.9999785 0.005236668
vn -0.9798735 0.1976352 0.02807604
vn -0.9977017 -0.06643131 0.01334534
vn -0.9818643 0.1886165 0.01913752
vn -0.997382 -0.0664273 0.0285739
vn -0.9823184 0.1871392 -0.005432679
vn -0.9980259 -0.06269885 -0.003644155
vn -0.9843135 0.1763635 0.004776205
vn -0.9981241 -0.05913062 0.01587144
g houseDoormat_0
f 3/3/3 2/2/2 1/1/1
f 6/6/6 5/5/5 4/4/4
f 9/9/9 8/8/8 7/7/7
f 12/12/12 11/11/11 10/10/10
f 15/15/15 14/14/14 13/13/13
f 14/14/14 16/16/16 13/13/13
f 14/14/14 17/17/17 16/16/16
f 18/18/18 17/17/17 14/14/14
f 19/19/19 18/18/18 14/14/14
f 17/17/17 20/20/20 16/16/16
f 16/16/16 20/20/20 21/21/21
f 20/20/20 22/22/22 21/21/21
f 25/25/25 24/24/24 23/23/23
f 24/24/24 26/26/26 23/23/23
f 24/24/24 27/27/27 26/26/26
f 27/27/27 28/28/28 26/26/26
f 28/28/28 27/27/27 29/29/29
f 30/30/30 28/28/28 29/29/29
f 33/33/33 32/32/32 31/31/31
f 34/34/34 33/33/33 31/31/31
f 37/37/37 36/36/36 35/35/35
f 38/38/38 37/37/37 35/35/35
f 38/38/38 35/35/35 39/39/39
f 40/40/40 38/38/38 39/39/39
f 40/40/40 41/41/41 38/38/38
f 41/41/41 42/42/42 38/38/38
f 45/45/45 44/44/44 43/43/43
f 46/46/46 45/45/45 43/43/43
f 49/49/49 48/48/48 47/47/47
f 50/50/50 49/49/49 47/47/47
f 53/53/53 52/52/52 51/51/51
f 54/54/54 53/53/53 51/51/51
f 57/57/57 56/56/56 55/55/55
f 56/56/56 58/58/58 55/55/55
f 55/55/55 58/58/58 59/59/59
f 58/58/58 60/60/60 59/59/59
f 63/63/63 62/62/62 61/61/61
f 62/62/62 64/64/64 61/61/61
f 62/62/62 65/65/65 64/64/64
f 65/65/65 66/66/66 64/64/64
f 66/66/66 67/67/67 64/64/64
f 64/64/64 68/68/68 61/61/61
f 68/68/68 69/69/69 61/61/61
f 72/72/72 71/71/71 70/70/70
f 73/73/73 72/72/72 70/70/70
f 70/70/70 74/74/74 73/73/73
f 77/77/77 76/76/76 75/75/75
f 76/76/76 78/78/78 75/75/75
f 78/78/78 76/76/76 79/79/79
f 75/75/75 78/78/78 80/80/80
f 81/81/81 75/75/75 80/80/80
f 80/80/80 78/78/78 82/82/82
f 83/83/83 78/78/78 79/79/79
f 78/78/78 83/83/83 82/82/82
f 83/83/83 79/79/79 84/84/84
f 85/85/85 82/82/82 83/83/83
f 86/86/86 83/83/83 84/84/84
f 86/86/86 85/85/85 83/83/83
f 89/89/89 88/88/88 87/87/87
f 90/90/90 89/89/89 87/87/87
f 93/93/93 92/92/92 91/91/91
f 94/94/94 93/93/93 91/91/91
f 97/97/97 96/96/96 95/95/95
f 96/96/96 98/98/98 95/95/95
f 98/98/98 99/99/99 95/95/95
f 99/99/99 100/100/100 95/95/95
f 101/101/101 98/98/98 96/96/96
f 102/102/102 101/101/101 96/96/96
f 103/103/103 101/101/101 102/102/102
f 104/104/104 103/103/103 102/102/102
f 103/103/103 105/105/105 101/101/101
f 105/105/105 106/106/106 101/101/101
f 109/109/109 108/108/108 107/107/107
f 108/108/108 110/110/110 107/107/107
f 111/111/111 107/107/107 110/110/110
f 112/112/112 111/111/111 110/110/110
f 113/113/113 111/111/111 112/112/112
f 114/114/114 113/113/113 112/112/112
