g housekit_wood_wall_glass
v -2.4879 1.252076 2.263329
v -2.368155 2.247923 2.36791
v -2.4879 2.247923 2.263329
v -2.479353 2.308689 2.271876
v -2.455014 2.360204 2.296215
v -2.418587 2.394624 2.332641
v -2.37562 2.406711 2.375609
v -2.332653 2.394624 2.418576
v -2.296226 2.360203 2.455003
v -2.271886 2.308689 2.479342
v -2.263339 2.247923 2.487889
v -2.263339 1.252076 2.487889
v -2.368155 1.252076 2.36791
v -2.479353 1.191311 2.271876
v -2.271886 1.191311 2.479342
v -2.455014 1.139796 2.296215
v -2.296226 1.139796 2.455003
v -2.418587 1.105376 2.332641
v -2.332653 1.105376 2.418576
v -2.37562 1.093289 2.375609
v -2.501814 1.252076 2.725621
v -2.62156 2.247923 2.621039
v -2.501814 2.247923 2.725621
v -2.510361 2.308689 2.717073
v -2.5347 2.360204 2.692734
v -2.571127 2.394624 2.656308
v -2.614094 2.406711 2.61334
v -2.657063 2.394624 2.570373
v -2.693489 2.360203 2.533946
v -2.717828 2.308689 2.509607
v -2.726375 2.247923 2.50106
v -2.726375 1.252076 2.50106
v -2.62156 1.252076 2.621039
v -2.510361 1.191311 2.717073
v -2.717828 1.191311 2.509607
v -2.5347 1.139796 2.692734
v -2.693489 1.139796 2.533947
v -2.571127 1.105376 2.656308
v -2.657063 1.105376 2.570373
v -2.614094 1.093289 2.61334
vt 0.5460311 0.3513905
vt 0.4969396 0.6486095
vt 0.546031 0.6486093
vt 0.5425271 0.6667454
vt 0.5325488 0.6821204
vt 0.5176152 0.6923935
vt 0.5 0.6960011
vt 0.4823847 0.6923936
vt 0.467451 0.6821203
vt 0.4574728 0.6667454
vt 0.4539689 0.6486093
vt 0.4539689 0.3513905
vt 0.4969396 0.3513905
vt 0.5425272 0.3332545
vt 0.4574729 0.3332545
vt 0.5325488 0.3178796
vt 0.4674512 0.3178796
vt 0.5176152 0.3076064
vt 0.4823847 0.3076064
vt 0.5 0.3039989
vt 0.5460311 0.3513904
vt 0.5031562 0.6486095
vt 0.5460311 0.6486095
vt 0.5425271 0.6667454
vt 0.5325488 0.6821204
vt 0.5176153 0.6923935
vt 0.4999999 0.6960011
vt 0.4823847 0.6923935
vt 0.4674511 0.6821203
vt 0.4574729 0.6667454
vt 0.453969 0.6486095
vt 0.453969 0.3513904
vt 0.5031562 0.3513904
vt 0.5425271 0.3332545
vt 0.4574729 0.3332545
vt 0.5325488 0.3178796
vt 0.4674512 0.3178795
vt 0.5176153 0.3076064
vt 0.4823847 0.3076064
vt 0.4999999 0.3039989
vn 0.657806 -0.0003495061 -0.7531872
vn 0.7071043 0.00130326 -0.7071081
vn 0.657806 0.0003494557 -0.7531873
vn 0.66144 0.02581987 -0.7495535
vn 0.6717876 0.04767621 -0.7392079
vn 0.6872674 0.06226919 -0.7237307
vn 0.705512 0.067375 -0.7054881
vn 0.7237319 0.06222029 -0.6872705
vn 0.7391673 0.04758484 -0.6718389
vn 0.7494758 0.02576348 -0.6615302
vn 0.7530932 0.0003495365 -0.6579137
vn 0.7530932 -0.0003495365 -0.6579139
vn 0.7071043 -0.001303298 -0.707108
vn 0.6614408 -0.02582097 -0.7495528
vn 0.7494763 -0.02576338 -0.6615297
vn 0.6717884 -0.04767645 -0.7392071
vn 0.7391667 -0.04758877 -0.6718392
vn 0.687268 -0.06226941 -0.72373
vn 0.7237297 -0.06222461 -0.6872725
vn 0.7055116 -0.06737515 -0.7054886
vn -0.6578065 -0.0003483982 0.7531868
vn -0.7071044 0.001303081 0.7071078
vn -0.6578065 0.0003482471 0.7531869
vn -0.6614406 0.0258044 0.7495536
vn -0.6717863 0.04768401 0.7392087
vn -0.6872668 0.06227211 0.723731
vn -0.7055082 0.06737357 0.705492
vn -0.7237297 0.06220875 0.687274
vn -0.7391682 0.04760827 0.6718362
vn -0.7494757 0.02576346 0.6615304
vn -0.7530932 0.0003479287 0.6579138
vn -0.7530932 -0.0003479286 0.6579139
vn -0.7071046 -0.001303019 0.7071077
vn -0.6614414 -0.02580743 0.7495527
vn -0.7494762 -0.02574796 0.6615305
vn -0.6717877 -0.04768421 0.7392074
vn -0.7391688 -0.04759671 0.6718363
vn -0.6872674 -0.06227235 0.7237304
vn -0.7237287 -0.06221293 0.6872746
vn -0.7055077 -0.06737372 0.7054925
g housekit_wood_wall_glass_0
f 3/3/3 2/2/2 1/1/1
f 3/3/3 4/4/4 2/2/2
f 4/4/4 5/5/5 2/2/2
f 5/5/5 6/6/6 2/2/2
f 6/6/6 7/7/7 2/2/2
f 7/7/7 8/8/8 2/2/2
f 8/8/8 9/9/9 2/2/2
f 9/9/9 10/10/10 2/2/2
f 10/10/10 11/11/11 2/2/2
f 11/11/11 12/12/12 2/2/2
f 2/2/2 13/13/13 1/1/1
f 12/12/12 13/13/13 2/2/2
f 13/13/13 14/14/14 1/1/1
f 15/15/15 13/13/13 12/12/12
f 14/14/14 13/13/13 16/16/16
f 17/17/17 13/13/13 15/15/15
f 16/16/16 13/13/13 18/18/18
f 17/17/17 19/19/19 13/13/13
f 18/18/18 13/13/13 20/20/20
f 20/20/20 13/13/13 19/19/19
g housekit_wood_wall_glass_1
f 23/23/23 22/22/22 21/21/21
f 23/23/23 24/24/24 22/22/22
f 24/24/24 25/25/25 22/22/22
f 25/25/25 26/26/26 22/22/22
f 26/26/26 27/27/27 22/22/22
f 27/27/27 28/28/28 22/22/22
f 28/28/28 29/29/29 22/22/22
f 29/29/29 30/30/30 22/22/22
f 30/30/30 31/31/31 22/22/22
f 31/31/31 32/32/32 22/22/22
f 22/22/22 33/33/33 21/21/21
f 32/32/32 33/33/33 22/22/22
f 33/33/33 34/34/34 21/21/21
f 35/35/35 33/33/33 32/32/32
f 34/34/34 33/33/33 36/36/36
f 37/37/37 33/33/33 35/35/35
f 36/36/36 33/33/33 38/38/38
f 37/37/37 39/39/39 33/33/33
f 38/38/38 33/33/33 40/40/40
f 40/40/40 33/33/33 39/39/39
