g houseGlassDoor
v -0.988233 2.727791 0.3408521
v -0.8984909 2.451593 0.4260358
v -1.069191 2.68654 0.3408521
v -0.8984909 2.742004 0.3408521
v -1.133439 2.622295 0.3408521
v -0.8087487 2.727791 0.3408521
v -1.174689 2.541335 0.3408521
v -0.7277911 2.68654 0.3408521
v -1.188903 2.451593 0.3408521
v -0.6635429 2.622295 0.3408521
v -1.174689 2.36185 0.3408521
v -0.622293 2.541335 0.3408521
v -1.133439 2.28089 0.3408521
v -0.6080791 2.451593 0.3408521
v -1.069191 2.216645 0.3408521
v -0.622293 2.36185 0.3408521
v -0.988233 2.175394 0.3408521
v -0.6635429 2.28089 0.3408521
v -0.8984909 2.161181 0.3408521
v -0.7277911 2.216645 0.3408521
v -0.8087487 2.175394 0.3408521
vt 0.4390865 0.8899153
vt 0.4999999 0.7024424
vt 0.3841356 0.8619157
vt 0.4999999 0.8995625
vt 0.3405264 0.8183087
vt 0.5609135 0.8899153
vt 0.3125274 0.7633562
vt 0.6158644 0.8619153
vt 0.3028797 0.7024424
vt 0.6594735 0.8183087
vt 0.3125274 0.641529
vt 0.6874724 0.7633562
vt 0.3405264 0.5865762
vt 0.6971201 0.7024424
vt 0.3841357 0.5429695
vt 0.6874724 0.641529
vt 0.4390865 0.5149695
vt 0.6594735 0.5865762
vt 0.4999999 0.5053223
vt 0.6158644 0.5429695
vt 0.5609135 0.5149695
vn -0.08697727 0.2676863 0.9595723
vn 0 0 1
vn -0.1654381 0.2277099 0.959572
vn 0 0.2814626 0.9595722
vn -0.2277063 0.1654392 0.9595726
vn 0.08697735 0.2676855 0.9595726
vn -0.2676865 0.08697569 0.9595723
vn 0.165438 0.2277097 0.9595721
vn -0.2814623 0 0.9595723
vn 0.2277063 0.1654393 0.9595726
vn -0.2676865 -0.0869756 0.9595724
vn 0.2676865 0.08697554 0.9595724
vn -0.2277059 -0.1654395 0.9595727
vn 0.2814623 0 0.9595723
vn -0.1654381 -0.2277099 0.959572
vn 0.2676869 -0.08697555 0.9595722
vn -0.0869774 -0.2676854 0.9595726
vn 0.2277059 -0.165439 0.9595727
vn 0 -0.2814621 0.9595723
vn 0.165438 -0.2277097 0.9595721
vn 0.0869775 -0.2676859 0.9595724
g houseGlassDoor_0
f 3/3/3 2/2/2 1/1/1
f 1/1/1 2/2/2 4/4/4
f 5/5/5 2/2/2 3/3/3
f 4/4/4 2/2/2 6/6/6
f 7/7/7 2/2/2 5/5/5
f 6/6/6 2/2/2 8/8/8
f 9/9/9 2/2/2 7/7/7
f 8/8/8 2/2/2 10/10/10
f 11/11/11 2/2/2 9/9/9
f 10/10/10 2/2/2 12/12/12
f 13/13/13 2/2/2 11/11/11
f 12/12/12 2/2/2 14/14/14
f 15/15/15 2/2/2 13/13/13
f 14/14/14 2/2/2 16/16/16
f 17/17/17 2/2/2 15/15/15
f 16/16/16 2/2/2 18/18/18
f 19/19/19 2/2/2 17/17/17
f 18/18/18 2/2/2 20/20/20
f 21/21/21 2/2/2 19/19/19
f 20/20/20 2/2/2 21/21/21
