g housekit_door_COL
v 0 3.74436 0.525
v 0.4953195 3.635136 0.525
v -0.4953195 3.635136 0.525
v 0.4953195 3.635136 0.525
v 0 3.74436 0.525
v 0 4.186996 0.006118965
v 0.6581441 4.025485 0.006118965
v 0.9699832 3.244215 0.525
v 1.29168 3.444354 0.006118965
v 1.101503 2.83824 0.525
v 1.467757 2.840652 0.006118698
v 1.101503 0.001999101 0.525
v 1.467757 0.001999101 0.006118698
v 1.593601 2.840652 -0.6018461
v 1.593601 0.001999101 -0.6018461
v 1.467757 0.001999101 0.006118698
v 1.467757 2.840652 0.006118698
v 1.29168 3.444354 0.006118965
v 1.402428 3.555224 -0.6018461
v 0.6581441 4.025485 0.006118965
v 0.7145728 4.24308 -0.6018458
v 0 4.186996 0.006118965
v 0 4.434253 -0.6018458
v -0.7145728 4.24308 -0.6018458
v -0.6581441 4.025485 0.006118965
v -1.402428 3.555224 -0.6018461
v -0.4953195 3.635136 0.525
v 0 3.74436 0.525
v -0.9699832 3.244215 0.525
v -1.29168 3.444354 0.006118965
v -1.101503 2.83824 0.525
v -1.593601 2.840652 -0.6018461
v -1.467757 2.840652 0.006118698
v -1.101503 0.001999101 0.525
v -1.467757 0.001999101 0.006118698
v -1.593601 0.001999101 -0.6018461
v 1.266176 -0.3506379 0.006118965
v 1.101503 0.001999101 0.525
v 1.467757 0.001999101 0.006118698
v 1.021373 -0.1463731 0.525
v 0.875 -0.4968212 0.006118698
v 0.875 -0.2265032 0.525
v -0.875 -0.4968212 0.006118698
v -0.875 -0.2265032 0.525
v 1.266176 -0.3506379 0.006118965
v 1.467757 0.001999101 0.006118698
v 1.593601 0.001999101 -0.6018461
v 1.35029 -0.3837365 -0.6018461
v 0.875 -0.525 -0.6018461
v 0.875 -0.4968212 0.006118698
v -0.875 -0.525 -0.6018461
v -0.875 -0.4968212 0.006118698
v -1.266176 -0.3506379 0.006118965
v -1.35029 -0.3837365 -0.6018461
v -1.593601 0.001999101 -0.6018461
v -1.467757 0.001999101 0.006118698
v -1.101503 0.001999101 0.525
v -1.021373 -0.1463731 0.525
v -0.875 -0.2265032 0.525
v -1.101503 2.83824 0.525
v 1.101503 2.83824 0.525
v 1.101503 0.001999101 0.525
v -1.101503 0.001999101 0.525
v -0.9699832 3.244215 0.525
v 0.9699832 3.244215 0.525
v 1.101503 2.83824 0.525
v -1.101503 2.83824 0.525
v -0.4953195 3.635136 0.525
v 0.4953195 3.635136 0.525
v 0.9699832 3.244215 0.525
v -0.9699832 3.244215 0.525
v -1.101503 0.001999101 0.525
v 1.101503 0.001999101 0.525
v 1.021373 -0.1463731 0.525
v -1.021373 -0.1463731 0.525
v -1.021373 -0.1463731 0.525
v 1.021373 -0.1463731 0.525
v 0.875 -0.2265032 0.525
v -0.875 -0.2265032 0.525
vt 0.4756871 0
vt 0 0.2205125
vt 1 0
vt 0.7383354 0.008735001
vt 0.8189974 0.00873512
vt 0.6019983 0.08812977
vt 0.6759753 0.08812968
vt 0.6334447 0.00873509
vt 0.7584651 0.08812957
vt 0.5577047 0.008734941
vt 0.8324419 0.08812946
vt 0.3032858 0.008735031
vt 0.9864612 0.08812921
vt 0.8324421 0.1575542
vt 0.9864612 0.157554
vt 0.9864612 0.08812921
vt 0.8324419 0.08812946
vt 0.7584651 0.08812957
vt 0.7584652 0.1575543
vt 0.6759753 0.08812968
vt 0.6759754 0.1575544
vt 0.6019983 0.08812977
vt 0.6019984 0.1575545
vt 0.5280215 0.1575546
vt 0.5280213 0.0881298
vt 0.4455316 0.1575546
vt 0.7383354 0.008735001
vt 0.8189974 0.00873512
vt 0.6334447 0.00873509
vt 0.4455316 0.08812983
vt 0.5577047 0.008734941
vt 0.3715547 0.1575546
vt 0.3715547 0.08812985
vt 0.3032858 0.008735031
vt 0.2175356 0.08812986
vt 0.2175356 0.1575546
vt 0.118994 0.7241877
vt 0.2862041 0.7628855
vt 0.118994 0.7863373
vt 0.2862041 0.7889977
vt 0.118994 0.6518394
vt 0.2862041 0.8151113
vt 0.1430996 0.6518394
vt 0.2862041 0.6884766
vt 0.118994 0.7241877
vt 0.118994 0.7863373
vt 0.2542474 0.7863373
vt 0.2542474 0.7241877
vt 0.2542474 0.6518394
vt 0.118994 0.6518394
vt 0.007846193 0.6518394
vt 0.1430996 0.6518394
vt 0.1430996 0.7241877
vt 0.007846193 0.7241877
vt 0.007846193 0.7863373
vt 0.1430996 0.7863373
vt 0.2862041 0.7407025
vt 0.2862041 0.7145903
vt 0.2862041 0.6884766
vt 0 1.753659E-16
vt 1.753659E-16 0.7767346
vt 0.9999999 0.7767346
vt 0.9999999 0
vt 0.28528 0
vt 0 0.8805995
vt 0.1649415 1
vt 0.4889026 0
vt 0.5893656 0
vt 0.07871813 0.4205567
vt 0 0.8235754
vt 1 0
vt 0 0
vt 0.5400606 1
vt 0.5877669 0.927254
vt 0.08699352 0
vt 0 6.939579E-17
vt 1 0.5474368
vt 0.9498189 0.4689834
vt 0.09312918 0
vn 0 0 1
vn 0 0 1
vn 0 0 1
vn 0.3805916 0.6842596 0.6220442
vn 0 0.7658932 0.6429678
vn 0 0.8713338 0.4906908
vn 0.451264 0.7683204 0.4539214
vn 0.6507941 0.468628 0.5973733
vn 0.7610874 0.5074772 0.4039963
vn 0.8152481 0.04092119 0.5776643
vn 0.9175814 0.04472424 0.3950242
vn 0.8164467 -0.04320345 0.5758022
vn 0.9181151 -0.05273451 0.3927895
vn 0.9775564 0.04992075 0.2046741
vn 0.9776317 -0.06362221 0.2004706
vn 0.9181151 -0.05273451 0.3927895
vn 0.9175814 0.04472424 0.3950242
vn 0.7610874 0.5074772 0.4039963
vn 0.8031176 0.5369201 0.2583001
vn 0.451264 0.7683204 0.4539214
vn 0.4748507 0.8177168 0.3253554
vn 0 0.8713338 0.4906908
vn 0 0.9303175 0.366755
vn -0.4748509 0.8177167 0.3253554
vn -0.4512641 0.7683203 0.4539213
vn -0.8031176 0.53692 0.2583
vn -0.3805916 0.6842595 0.6220442
vn 0 0.7658932 0.6429678
vn -0.650794 0.4686279 0.5973734
vn -0.7610874 0.5074772 0.4039963
vn -0.8152479 0.04092122 0.5776646
vn -0.9775564 0.04992084 0.2046741
vn -0.9175813 0.04472431 0.3950244
vn -0.8164465 -0.04320347 0.5758024
vn -0.9181151 -0.05273448 0.3927898
vn -0.9776317 -0.06362212 0.2004706
vn 0.6068511 -0.749117 0.2656226
vn 0.8164467 -0.04320345 0.5758022
vn 0.9181151 -0.05273451 0.3927895
vn 0.5656887 -0.6486123 0.5092136
vn 0.0576366 -0.9665045 0.2500944
vn 0.0555263 -0.8835636 0.4650078
vn -0.05763664 -0.9665045 0.2500944
vn -0.05552641 -0.8835636 0.4650078
vn 0.6068511 -0.749117 0.2656226
vn 0.9181151 -0.05273451 0.3927895
vn 0.9776317 -0.06362221 0.2004706
vn 0.6249292 -0.7708682 0.1233921
vn 0.06516079 -0.9965454 0.0514916
vn 0.0576366 -0.9665045 0.2500944
vn -0.06516079 -0.9965454 0.0514916
vn -0.05763664 -0.9665045 0.2500944
vn -0.6068512 -0.7491169 0.2656228
vn -0.6249293 -0.7708683 0.123392
vn -0.9776317 -0.06362212 0.2004706
vn -0.9181151 -0.05273448 0.3927898
vn -0.8164465 -0.04320347 0.5758024
vn -0.5656886 -0.6486121 0.5092137
vn -0.05552641 -0.8835636 0.4650078
vn 0 0 1
vn 0 0 1
vn 0 0 1
vn 0 0 1
vn 0 0 1
vn 0 0 1
vn 0 0 1
vn 0 0 1
vn 0 0 1
vn 0 0 1
vn 0 0 1
vn 0 0 1
vn 0 0 1
vn 0 0 1
vn 0 0 1
vn 0 0 1
vn 0 0 1
vn 0 0 1
vn 0 0 1
vn 0 0 1
g housekit_door_COL_0
f 3/3/3 2/2/2 1/1/1
f 6/6/6 5/5/5 4/4/4
f 7/7/7 6/6/6 4/4/4
f 7/7/7 4/4/4 8/8/8
f 9/9/9 7/7/7 8/8/8
f 9/9/9 8/8/8 10/10/10
f 11/11/11 9/9/9 10/10/10
f 11/11/11 10/10/10 12/12/12
f 13/13/13 11/11/11 12/12/12
f 16/16/16 15/15/15 14/14/14
f 17/17/17 16/16/16 14/14/14
f 18/18/18 17/17/17 14/14/14
f 19/19/19 18/18/18 14/14/14
f 20/20/20 18/18/18 19/19/19
f 21/21/21 20/20/20 19/19/19
f 22/22/22 20/20/20 21/21/21
f 23/23/23 22/22/22 21/21/21
f 22/22/22 23/23/23 24/24/24
f 25/25/25 22/22/22 24/24/24
f 25/25/25 24/24/24 26/26/26
f 22/22/22 25/25/25 27/27/27
f 28/28/28 22/22/22 27/27/27
f 27/27/27 25/25/25 29/29/29
f 30/30/30 25/25/25 26/26/26
f 25/25/25 30/30/30 29/29/29
f 29/29/29 30/30/30 31/31/31
f 30/30/30 26/26/26 32/32/32
f 30/30/30 33/33/33 31/31/31
f 33/33/33 30/30/30 32/32/32
f 31/31/31 33/33/33 34/34/34
f 33/33/33 35/35/35 34/34/34
f 35/35/35 33/33/33 32/32/32
f 36/36/36 35/35/35 32/32/32
f 39/39/39 38/38/38 37/37/37
f 38/38/38 40/40/40 37/37/37
f 37/37/37 40/40/40 41/41/41
f 40/40/40 42/42/42 41/41/41
f 43/43/43 41/41/41 42/42/42
f 44/44/44 43/43/43 42/42/42
f 47/47/47 46/46/46 45/45/45
f 48/48/48 47/47/47 45/45/45
f 48/48/48 45/45/45 49/49/49
f 45/45/45 50/50/50 49/49/49
f 51/51/51 49/49/49 50/50/50
f 52/52/52 51/51/51 50/50/50
f 52/52/52 53/53/53 51/51/51
f 53/53/53 54/54/54 51/51/51
f 55/55/55 54/54/54 53/53/53
f 56/56/56 55/55/55 53/53/53
f 57/57/57 56/56/56 53/53/53
f 58/58/58 57/57/57 53/53/53
f 58/58/58 53/53/53 52/52/52
f 59/59/59 58/58/58 52/52/52
f 62/62/62 61/61/61 60/60/60
f 63/63/63 62/62/62 60/60/60
f 66/66/66 65/65/65 64/64/64
f 67/67/67 66/66/66 64/64/64
f 70/70/70 69/69/69 68/68/68
f 71/71/71 70/70/70 68/68/68
f 74/74/74 73/73/73 72/72/72
f 75/75/75 74/74/74 72/72/72
f 78/78/78 77/77/77 76/76/76
f 79/79/79 78/78/78 76/76/76
