g houseGlassSide
v 7.836181 1.363418 -3.690077
v 7.865746 1.227369 -3.668755
v 7.946527 1.127775 -3.6105
v 8.056876 1.091321 -3.530922
v 8.056876 2.95868 -3.530922
v 7.836181 2.686588 -3.690077
v 7.865746 2.822636 -3.668754
v 7.946527 2.922229 -3.610499
v 8.392395 2.958672 -3.288963
v 8.392395 1.091321 -3.288963
v 9.011444 1.091321 -2.601415
v 9.011444 2.958672 -2.601415
v 9.474067 1.091321 -1.800131
v 9.474067 2.958672 -1.800131
v 9.759981 1.091321 -0.920174
v 9.759981 2.958672 -0.920174
v 9.856691 1.091321 -5.543232E-07
v 9.856691 2.958672 -5.543232E-07
v 9.759979 1.091321 0.9201734
v 9.759979 2.958672 0.9201734
v 9.474062 1.091321 1.800131
v 9.474062 2.958672 1.800131
v 9.011442 1.091321 2.601413
v 9.011442 2.958672 2.601413
v 8.392394 1.091321 3.28896
v 8.392394 2.958672 3.28896
v 8.011949 2.95868 3.56347
v 8.011949 1.091321 3.56347
v 7.791296 2.686588 3.722683
v 7.901623 2.922229 3.643077
v 7.820856 2.822636 3.701352
v 7.791296 1.363418 3.722683
v 7.901623 1.127775 3.643077
v 7.820855 1.227369 3.701352
vt 0.9858266 0.4284271
vt 0.9818149 0.413709
vt 0.9708369 0.4029344
vt 0.9558291 0.3989906
vt 0.9558291 0.6010094
vt 0.9858266 0.5715733
vt 0.9818149 0.5862915
vt 0.9708369 0.5970657
vt 0.9103726 0.6010086
vt 0.9103726 0.3989906
vt 0.8086281 0.3989906
vt 0.8086281 0.6010086
vt 0.706807 0.3989906
vt 0.706807 0.6010086
vt 0.6049402 0.3989906
vt 0.6049402 0.6010086
vt 0.5030489 0.3989906
vt 0.5030489 0.6010086
vt 0.4011576 0.3989906
vt 0.4011576 0.6010086
vt 0.2992918 0.3989906
vt 0.2992918 0.6010086
vt 0.1974707 0.3989906
vt 0.1974707 0.6010086
vt 0.09572631 0.3989906
vt 0.09572631 0.6010086
vt 0.04414842 0.6010094
vt 0.04414842 0.3989906
vt 0.01417342 0.5715733
vt 0.02914533 0.5970662
vt 0.01818079 0.5862915
vt 0.01417342 0.4284271
vt 0.02914533 0.4029344
vt 0.01818079 0.413709
vn 0.5849195 0 -0.8110914
vn 0.5849069 -6.595018E-06 -0.8111004
vn 0.5849069 -6.595018E-06 -0.8111004
vn 0.5849195 0 -0.8110914
vn 0.5849195 0 -0.8110914
vn 0.5849195 0 -0.8110914
vn 0.5849117 1.055202E-05 -0.811097
vn 0.5849117 1.055202E-05 -0.811097
vn 0.6818297 0 -0.731511
vn 0.6818301 0 -0.7315105
vn 0.8090242 0 -0.5877753
vn 0.8090242 0 -0.5877753
vn 0.9135454 0 -0.4067368
vn 0.9135454 0 -0.4067368
vn 0.9781481 0 -0.207909
vn 0.9781481 0 -0.207909
vn 1 0 6.693547E-07
vn 1 0 6.693547E-07
vn 0.9781477 0 0.2079112
vn 0.9781477 0 0.2079112
vn 0.9135453 0 0.4067373
vn 0.9135453 0 0.4067373
vn 0.8090245 0 0.5877749
vn 0.8090245 0 0.5877749
vn 0.6787671 0 0.7343536
vn 0.6787667 0 0.734354
vn 0.585133 0 0.8109373
vn 0.585133 0 0.8109373
vn 0.585133 0 0.8109373
vn 0.5851277 6.595069E-07 0.8109412
vn 0.5851276 6.595069E-07 0.8109412
vn 0.585133 0 0.8109374
vn 0.5851217 -5.276072E-06 0.8109455
vn 0.5851216 -5.276072E-06 0.8109455
g houseGlassSide_0
f 3/3/3 2/2/2 1/1/1
f 4/4/4 3/3/3 1/1/1
f 4/4/4 1/1/1 5/5/5
f 1/1/1 6/6/6 5/5/5
f 6/6/6 7/7/7 5/5/5
f 7/7/7 8/8/8 5/5/5
f 4/4/4 5/5/5 9/9/9
f 9/9/9 10/10/10 4/4/4
f 11/11/11 10/10/10 9/9/9
f 12/12/12 11/11/11 9/9/9
f 11/11/11 12/12/12 13/13/13
f 12/12/12 14/14/14 13/13/13
f 13/13/13 14/14/14 15/15/15
f 14/14/14 16/16/16 15/15/15
f 15/15/15 16/16/16 17/17/17
f 16/16/16 18/18/18 17/17/17
f 17/17/17 18/18/18 19/19/19
f 18/18/18 20/20/20 19/19/19
f 21/21/21 19/19/19 20/20/20
f 22/22/22 21/21/21 20/20/20
f 21/21/21 22/22/22 23/23/23
f 22/22/22 24/24/24 23/23/23
f 23/23/23 24/24/24 25/25/25
f 24/24/24 26/26/26 25/25/25
f 25/25/25 26/26/26 27/27/27
f 27/27/27 28/28/28 25/25/25
f 27/27/27 29/29/29 28/28/28
f 27/27/27 30/30/30 29/29/29
f 30/30/30 31/31/31 29/29/29
f 29/29/29 32/32/32 28/28/28
f 33/33/33 28/28/28 32/32/32
f 34/34/34 33/33/33 32/32/32
