g houseContainerPlanks
v -0.1584797 0.5586941 -0.0579716
v 0.1151528 0.9260265 -0.01558632
v 0.01898816 0.5247881 0.02575825
v -0.06231515 0.9599324 -0.09931615
v 0.2121047 1.326889 -0.05875207
v 0.03463684 1.360795 -0.1424819
v 0.3108274 1.728017 -0.09521356
v 0.1256037 1.763405 -0.1826026
v 0.1256037 1.763405 -0.1826026
v 0.1510462 1.751243 -0.2414536
v 0.3362704 1.715855 -0.1540644
v 0.3108274 1.728017 -0.09521356
v 0.1510462 1.751243 -0.2414536
v 0.2349076 1.315989 -0.1114962
v 0.3362704 1.715855 -0.1540644
v 0.05743991 1.349894 -0.1952266
v 0.1395305 0.9143735 -0.07197332
v -0.03793738 0.9482796 -0.1557032
v 0.04336572 0.5131353 -0.03062952
v -0.1341024 0.5470413 -0.1143588
v -0.1341024 0.5470413 -0.1143588
v -0.1584797 0.5586941 -0.0579716
v 0.01898816 0.5247881 0.02575825
v 0.04336572 0.5131353 -0.03062952
v 0.01898816 0.5247881 0.02575825
v 0.1395305 0.9143735 -0.07197332
v 0.04336572 0.5131353 -0.03062952
v 0.1151528 0.9260265 -0.01558632
v 0.2349076 1.315989 -0.1114962
v 0.2121047 1.326889 -0.05875207
v 0.3362704 1.715855 -0.1540644
v 0.3108274 1.728017 -0.09521356
v -0.1341024 0.5470413 -0.1143588
v -0.06231515 0.9599324 -0.09931615
v -0.1584797 0.5586941 -0.0579716
v -0.03793738 0.9482796 -0.1557032
v 0.03463684 1.360795 -0.1424819
v 0.05743991 1.349894 -0.1952266
v 0.1256037 1.763405 -0.1826026
v 0.1510462 1.751243 -0.2414536
v -0.1662234 0.4713988 0.05162272
v 0.04602862 0.8785594 0.07943848
v 0.0009678028 0.474249 0.1597622
v -0.1211626 0.8757091 -0.02870097
v 0.09216432 1.282422 -0.002535267
v -0.07502687 1.279572 -0.1106747
v 0.1276174 1.682597 -0.05988233
v -0.04688049 1.679622 -0.1727477
v -0.04688049 1.679622 -0.1727477
v -0.01144118 1.679818 -0.2275446
v 0.1630571 1.682793 -0.1146789
v 0.1276174 1.682597 -0.05988233
v -0.01144118 1.679818 -0.2275446
v 0.1232945 1.269459 -0.05032219
v 0.1630571 1.682793 -0.1146789
v -0.04389637 1.266609 -0.1584621
v 0.07930885 0.8647007 0.02835109
v -0.08788233 0.8618505 -0.07978839
v 0.03424796 0.4603903 0.108674
v -0.1329436 0.4575401 0.000535059
v -0.1329436 0.4575401 0.000535059
v -0.1662234 0.4713988 0.05162272
v 0.0009678028 0.474249 0.1597622
v 0.03424796 0.4603903 0.108674
v 0.0009678028 0.474249 0.1597622
v 0.07930885 0.8647007 0.02835109
v 0.03424796 0.4603903 0.108674
v 0.04602862 0.8785594 0.07943848
v 0.1232945 1.269459 -0.05032219
v 0.09216432 1.282422 -0.002535267
v 0.1630571 1.682793 -0.1146789
v 0.1276174 1.682597 -0.05988233
v -0.1329436 0.4575401 0.000535059
v -0.1211626 0.8757091 -0.02870097
v -0.1662234 0.4713988 0.05162272
v -0.08788233 0.8618505 -0.07978839
v -0.07502687 1.279572 -0.1106747
v -0.04389637 1.266609 -0.1584621
v -0.04688049 1.679622 -0.1727477
v -0.01144118 1.679818 -0.2275446
vt 0.2876595 0.6713306
vt 0.3079765 0.6185043
vt 0.3076413 0.6715352
vt 0.2879947 0.6182997
vt 0.3083117 0.5654734
vt 0.28833 0.5652688
vt 0.3086469 0.5124425
vt 0.2886651 0.5122379
vt 0.2886651 0.5122379
vt 0.2886946 0.5122706
vt 0.3086764 0.5124752
vt 0.3086469 0.5124425
vt 0.2886946 0.5122706
vt 0.3083412 0.5655062
vt 0.3086764 0.5124752
vt 0.2883594 0.5653015
vt 0.308006 0.618537
vt 0.2880242 0.6183324
vt 0.3076707 0.6715679
vt 0.287689 0.6713632
vt 0.287689 0.6713632
vt 0.2876595 0.6713306
vt 0.3076413 0.6715352
vt 0.3076707 0.6715679
vt 0.3076413 0.6715352
vt 0.308006 0.618537
vt 0.3076707 0.6715679
vt 0.3079765 0.6185043
vt 0.3083412 0.5655062
vt 0.3083117 0.5654734
vt 0.3086764 0.5124752
vt 0.3086469 0.5124425
vt 0.287689 0.6713632
vt 0.2879947 0.6182997
vt 0.2876595 0.6713306
vt 0.2880242 0.6183324
vt 0.28833 0.5652688
vt 0.2883594 0.5653015
vt 0.2886651 0.5122379
vt 0.2886946 0.5122706
vt 0.1915059 0.7046263
vt 0.242896 0.6518
vt 0.242048 0.7048309
vt 0.1923537 0.6515954
vt 0.2437438 0.5987691
vt 0.1932017 0.5985644
vt 0.2445917 0.5457382
vt 0.1940495 0.5455336
vt 0.1940495 0.5455336
vt 0.194124 0.5455663
vt 0.2446661 0.5457709
vt 0.2445917 0.5457382
vt 0.194124 0.5455663
vt 0.2438183 0.5988019
vt 0.2446661 0.5457709
vt 0.1932762 0.5985972
vt 0.2429705 0.6518327
vt 0.1924282 0.6516281
vt 0.2421225 0.7048636
vt 0.1915804 0.7046589
vt 0.1915804 0.7046589
vt 0.1915059 0.7046263
vt 0.242048 0.7048309
vt 0.2421225 0.7048636
vt 0.242048 0.7048309
vt 0.2429705 0.6518327
vt 0.2421225 0.7048636
vt 0.242896 0.6518
vt 0.2438183 0.5988019
vt 0.2437438 0.5987691
vt 0.2446661 0.5457709
vt 0.2445917 0.5457382
vt 0.1915804 0.7046589
vt 0.1923537 0.6515954
vt 0.1915059 0.7046263
vt 0.1924282 0.6516281
vt 0.1932017 0.5985644
vt 0.1932762 0.5985972
vt 0.1940495 0.5455336
vt 0.194124 0.5455663
vn -0.3898722 0.1863655 0.9018135
vn -0.3893062 0.1887211 0.901568
vn -0.3898722 0.1863655 0.9018135
vn -0.3893062 0.1887211 0.901568
vn -0.390275 0.1846819 0.9019855
vn -0.390275 0.1846819 0.9019856
vn -0.3917527 0.1784589 0.9025975
vn -0.3917527 0.1784589 0.9025975
vn 0.2319077 0.9676145 -0.09970494
vn 0.2319076 0.9676145 -0.09970494
vn 0.2319076 0.9676145 -0.09970494
vn 0.2319077 0.9676145 -0.09970494
vn 0.387967 -0.1942591 -0.9009689
vn 0.3894696 -0.188048 -0.9016382
vn 0.387967 -0.1942591 -0.9009689
vn 0.3894696 -0.188048 -0.9016382
vn 0.3904359 -0.1840081 -0.9020537
vn 0.3904358 -0.1840081 -0.9020537
vn 0.3898709 -0.1863645 -0.9018143
vn 0.3898709 -0.1863645 -0.9018143
vn -0.2319081 -0.9676144 0.0997056
vn -0.2319081 -0.9676144 0.09970558
vn -0.2319081 -0.9676144 0.09970558
vn -0.2319081 -0.9676144 0.09970559
vn 0.8911878 -0.170265 0.4204688
vn 0.891187 -0.1702643 0.4204709
vn 0.8911878 -0.1702651 0.4204689
vn 0.891187 -0.1702643 0.4204708
vn 0.8899419 -0.1754003 0.4209966
vn 0.8899419 -0.1754003 0.4209966
vn 0.8887035 -0.180408 0.4214962
vn 0.8887035 -0.180408 0.4214962
vn -0.8911877 0.1702651 -0.4204691
vn -0.891187 0.1702643 -0.4204709
vn -0.8911877 0.1702651 -0.4204691
vn -0.891187 0.1702644 -0.4204709
vn -0.8924062 0.1651229 -0.4199354
vn -0.8924062 0.1651229 -0.4199354
vn -0.8935723 0.1601019 -0.4193997
vn -0.8935723 0.1601019 -0.4193997
vn -0.5322518 0.2216435 0.8170571
vn -0.5319856 0.224017 0.8165829
vn -0.5322518 0.2216435 0.8170571
vn -0.5319856 0.224017 0.8165829
vn -0.534896 0.1962332 0.8218144
vn -0.534896 0.1962332 0.8218143
vn -0.5375497 0.1660956 0.8267118
vn -0.5375497 0.1660956 0.8267118
vn -0.01364646 0.9998931 -0.005256038
vn -0.01364646 0.9998931 -0.005256039
vn -0.01364646 0.9998931 -0.005256039
vn -0.01364646 0.9998931 -0.005256038
vn 0.5363923 -0.1799843 -0.8245537
vn 0.5347164 -0.1980914 -0.8214853
vn 0.5363923 -0.1799843 -0.8245538
vn 0.5347164 -0.1980915 -0.8214853
vn 0.532515 -0.2192679 -0.8175263
vn 0.532515 -0.2192679 -0.8175263
vn 0.5322508 -0.2216427 -0.8170578
vn 0.5322508 -0.2216427 -0.8170578
vn -0.1086678 -0.9750225 0.193707
vn -0.1086678 -0.9750225 0.193707
vn -0.1086678 -0.9750225 0.193707
vn -0.1086678 -0.9750225 0.193707
vn 0.8395807 0.01431341 0.5430465
vn 0.8395796 0.01431416 0.543048
vn 0.8395806 0.01431341 0.5430465
vn 0.8395796 0.01431416 0.5430481
vn 0.8393348 0.009117724 0.5435383
vn 0.8393267 0.00895262 0.5435537
vn 0.8390623 0.003809336 0.5440221
vn 0.8390623 0.003809336 0.5440221
vn -0.8395806 -0.01431346 -0.5430465
vn -0.8395795 -0.0143142 -0.5430481
vn -0.8395806 -0.01431346 -0.5430466
vn -0.8395796 -0.0143142 -0.5430481
vn -0.839807 -0.01967576 -0.5425284
vn -0.8398003 -0.01951071 -0.5425447
vn -0.8400033 -0.02481682 -0.5420135
vn -0.8400033 -0.02481682 -0.5420135
g houseContainerPlanks_0
f 3/3/3 2/2/2 1/1/1
f 2/2/2 4/4/4 1/1/1
f 2/2/2 5/5/5 4/4/4
f 5/5/5 6/6/6 4/4/4
f 5/5/5 7/7/7 6/6/6
f 7/7/7 8/8/8 6/6/6
f 11/11/11 10/10/10 9/9/9
f 12/12/12 11/11/11 9/9/9
f 15/15/15 14/14/14 13/13/13
f 14/14/14 16/16/16 13/13/13
f 14/14/14 17/17/17 16/16/16
f 17/17/17 18/18/18 16/16/16
f 17/17/17 19/19/19 18/18/18
f 19/19/19 20/20/20 18/18/18
f 23/23/23 22/22/22 21/21/21
f 24/24/24 23/23/23 21/21/21
f 27/27/27 26/26/26 25/25/25
f 26/26/26 28/28/28 25/25/25
f 26/26/26 29/29/29 28/28/28
f 29/29/29 30/30/30 28/28/28
f 29/29/29 31/31/31 30/30/30
f 31/31/31 32/32/32 30/30/30
f 35/35/35 34/34/34 33/33/33
f 34/34/34 36/36/36 33/33/33
f 34/34/34 37/37/37 36/36/36
f 37/37/37 38/38/38 36/36/36
f 37/37/37 39/39/39 38/38/38
f 39/39/39 40/40/40 38/38/38
f 43/43/43 42/42/42 41/41/41
f 42/42/42 44/44/44 41/41/41
f 42/42/42 45/45/45 44/44/44
f 45/45/45 46/46/46 44/44/44
f 45/45/45 47/47/47 46/46/46
f 47/47/47 48/48/48 46/46/46
f 51/51/51 50/50/50 49/49/49
f 52/52/52 51/51/51 49/49/49
f 55/55/55 54/54/54 53/53/53
f 54/54/54 56/56/56 53/53/53
f 54/54/54 57/57/57 56/56/56
f 57/57/57 58/58/58 56/56/56
f 57/57/57 59/59/59 58/58/58
f 59/59/59 60/60/60 58/58/58
f 63/63/63 62/62/62 61/61/61
f 64/64/64 63/63/63 61/61/61
f 67/67/67 66/66/66 65/65/65
f 66/66/66 68/68/68 65/65/65
f 66/66/66 69/69/69 68/68/68
f 69/69/69 70/70/70 68/68/68
f 69/69/69 71/71/71 70/70/70
f 71/71/71 72/72/72 70/70/70
f 75/75/75 74/74/74 73/73/73
f 74/74/74 76/76/76 73/73/73
f 74/74/74 77/77/77 76/76/76
f 77/77/77 78/78/78 76/76/76
f 77/77/77 79/79/79 78/78/78
f 79/79/79 80/80/80 78/78/78
