g housekit_understructure_wall_corner_x1a
v -0.04445656 1.793162 1.925
v -0.04445602 1.793162 2.016609
v -0.5191873 1.778579 1.93598
v -0.4990149 1.778808 1.862202
v -0.9627451 1.763059 1.667472
v -0.9960458 1.762867 1.724453
v -1.357877 1.768359 1.357877
v -1.400297 1.768359 1.400297
v -1.663053 1.772942 0.9601635
v -1.719625 1.772894 0.9933723
v -1.854894 1.777317 0.4970173
v -1.92686 1.777266 0.5171601
v -1.925 1.760819 0.003142395
v -2.016609 1.760819 0.003142395
v -0.04445602 1.793162 2.016609
v -0.03783905 1.580464 2.016609
v -0.09742332 1.561586 2.016609
v -0.5191873 1.778579 1.93598
v -0.5170532 1.450131 1.928174
v -0.9960458 1.762867 1.724453
v -0.006815644 1.443162 2.016608
v -0.009912109 1.542707 2.01661
v -0.9933861 1.457093 1.7199
v -1.400297 1.768359 1.400297
v -1.400297 1.472906 1.400297
v -1.722095 1.477925 0.9948223
v -1.719625 1.772894 0.9933723
v -1.92686 1.777266 0.5171601
v -1.932303 1.450468 0.5186837
v -2.016609 1.760819 0.003142395
v -2.016609 1.443163 0.02439976
v -0.006815644 1.443162 2.016608
v -0.006815644 1.443162 1.924999
v -0.4970175 1.450042 1.854894
v -0.5170532 1.450131 1.928174
v -0.9933861 1.457093 1.7199
v -0.9601635 1.457014 1.663053
v -1.400297 1.472906 1.400297
v -1.357877 1.472906 1.357877
v -1.722095 1.477925 0.9948223
v -1.665447 1.477848 0.9615691
v -1.932303 1.450468 0.5186837
v -1.860121 1.450382 0.49848
v -2.016609 1.443163 0.02439976
v -1.925 1.443163 0.02439976
v -0.006815644 1.443162 1.924999
v -0.009758301 1.53777 1.924999
v -0.09730636 1.5578 1.925
v -0.4970175 1.450042 1.854894
v -0.4990149 1.778808 1.862202
v -0.9601635 1.457014 1.663053
v -0.04445656 1.793162 1.925
v -0.03775787 1.57783 1.925
v -0.9627451 1.763059 1.667472
v -1.357877 1.768359 1.357877
v -1.357877 1.472906 1.357877
v -1.665447 1.477848 0.9615691
v -1.663053 1.772942 0.9601635
v -1.860121 1.450382 0.49848
v -1.854894 1.777317 0.4970173
v -1.925 1.443163 0.02439976
v -1.925 1.760819 0.003142395
v -1.925 1.760819 0.003142395
v -2.016609 1.760819 0.003142395
v -2.016609 1.443163 0.02439976
v -1.925 1.443163 0.02439976
v -0.006815644 1.443162 1.924999
v -0.006815644 1.443162 2.016608
v -0.009912109 1.542707 2.01661
v -0.009758301 1.53777 1.924999
v -0.03783905 1.580464 2.016609
v -0.04445602 1.793162 2.016609
v -0.04445656 1.793162 1.925
v -0.03775787 1.57783 1.925
v -0.09742332 1.561586 2.016609
v -0.03783905 1.580464 2.016609
v -0.03775787 1.57783 1.925
v -0.09730636 1.5578 1.925
v -0.1353302 1.98952E-15 1.555959
v -0.175 1.98952E-15 1.591584
v -0.175 1.98952E-15 1.862244
v -0.1353297 1.98952E-15 1.905959
v 5.340576E-07 1.98952E-15 1.925
v 0 1.98952E-15 1.575
v 5.340576E-07 1.98952E-15 1.925
v 5.340576E-07 1.75 1.925
v 0 1.75 1.575
v 0 1.98952E-15 1.575
v -1.925 1.75 0
v -1.899867 1.61467 0.178955
v -1.904437 0 0.1353305
v -1.925 0 0
v -1.575 0 0
v -1.925 0 0
v -1.904437 0 0.1353305
v -1.554437 0 0.1353305
v -1.589537 0 0.175
v -1.860197 0 0.175
v -1.575 0 0
v -1.575 1.75 0
v -1.925 1.75 0
v -1.925 0 0
v -0.1353302 1.98952E-15 1.555959
v -0.163819 1.61467 1.551914
v -0.2034888 1.575 1.587261
v -0.175 1.98952E-15 1.591584
v -0.4166985 1.575 1.555138
v -0.2034888 1.575 1.587261
v -0.163819 1.61467 1.551914
v -0.4064312 1.61467 1.51682
v -0.7851641 1.61467 1.359944
v -0.8049995 1.575 1.394299
v -1.13844 1.575 1.13844
v -1.110389 1.61467 1.110389
v -1.394298 1.575 0.8049984
v -1.359944 1.61467 0.7851638
v -1.555138 1.575 0.4166979
v -1.51682 1.61467 0.4064309
v -1.585108 1.575 0.2186245
v -1.549867 1.61467 0.178955
v -0.1638184 1.61467 1.901914
v -0.1353297 1.98952E-15 1.905959
v -0.175 1.98952E-15 1.862244
v -0.2034888 1.575 1.857921
v -1.860197 0 0.175
v -1.904437 0 0.1353305
v -1.899867 1.61467 0.178955
v -1.855768 1.575 0.2186245
v -1.549867 1.61467 0.178955
v -1.554437 0 0.1353305
v -1.589537 0 0.175
v -1.585108 1.575 0.2186245
v 0 1.98952E-15 1.575
v 0 1.75 1.575
v -0.163819 1.61467 1.551914
v -0.1353302 1.98952E-15 1.555959
v 5.340576E-07 1.75 1.925
v 5.340576E-07 1.98952E-15 1.925
v -0.1353297 1.98952E-15 1.905959
v -0.1638184 1.61467 1.901914
v -0.2034888 1.575 1.587261
v -0.2034888 1.575 1.857921
v -0.175 1.98952E-15 1.862244
v -0.175 1.98952E-15 1.591584
v -1.549867 1.61467 0.178955
v -1.575 1.75 0
v -1.575 0 0
v -1.554437 0 0.1353305
v -1.589537 0 0.175
v -1.860197 0 0.175
v -1.855768 1.575 0.2186245
v -1.585108 1.575 0.2186245
v -0.009912109 1.542707 2.01661
v -0.09742332 1.561586 2.016609
v -0.09730636 1.5578 1.925
v -0.009758301 1.53777 1.924999
v -1.855768 1.575 0.2186245
v -1.555138 1.575 0.4166979
v -1.585108 1.575 0.2186245
v -1.816576 1.575 0.48675
v -1.394298 1.575 0.8049984
v -1.628697 1.575 0.9403289
v -1.13844 1.575 1.13844
v -1.329826 1.575 1.329826
v -0.8049995 1.575 1.394299
v -0.9403297 1.575 1.628697
v -0.4166985 1.575 1.555138
v -0.4867503 1.575 1.816576
v -0.2034888 1.575 1.587261
v -0.2034888 1.575 1.857921
v -1.575 1.75 0
v -1.854894 1.75 0.4970173
v -1.925 1.75 0
v -1.51682 1.75 0.4064307
v -1.663053 1.75 0.9601638
v -1.359944 1.75 0.7851638
v -1.357877 1.75 1.357877
v -1.110389 1.75 1.110389
v -0.9601635 1.75 1.663053
v -0.7851641 1.75 1.359944
v -0.4970175 1.75 1.854894
v -0.4064312 1.75 1.51682
v 5.340576E-07 1.75 1.925
v 0 1.75 1.575
v -1.925 1.75 0
v -1.854894 1.61467 0.4970173
v -1.899867 1.61467 0.178955
v -1.854894 1.75 0.4970173
v -1.663053 1.61467 0.9601638
v -1.663053 1.75 0.9601638
v -1.357877 1.61467 1.357877
v -1.357877 1.75 1.357877
v -0.9601635 1.61467 1.663053
v -0.9601635 1.75 1.663053
v -0.4970175 1.61467 1.854894
v -0.4970175 1.75 1.854894
v -0.1638184 1.61467 1.901914
v 5.340576E-07 1.75 1.925
v -0.163819 1.61467 1.551914
v 0 1.75 1.575
v -0.4064312 1.75 1.51682
v -0.4064312 1.61467 1.51682
v -0.7851641 1.61467 1.359944
v -0.7851641 1.75 1.359944
v -1.110389 1.61467 1.110389
v -1.110389 1.75 1.110389
v -1.359944 1.61467 0.7851638
v -1.359944 1.75 0.7851638
v -1.51682 1.61467 0.4064309
v -1.51682 1.75 0.4064307
v -1.549867 1.61467 0.178955
v -1.575 1.75 0
v -0.2034888 1.575 1.857921
v -0.4970175 1.61467 1.854894
v -0.1638184 1.61467 1.901914
v -0.4867503 1.575 1.816576
v -0.9601635 1.61467 1.663053
v -0.9403297 1.575 1.628697
v -1.357877 1.61467 1.357877
v -1.329826 1.575 1.329826
v -1.663053 1.61467 0.9601638
v -1.628697 1.575 0.9403289
v -1.854894 1.61467 0.4970173
v -1.816576 1.575 0.48675
v -1.899867 1.61467 0.178955
v -1.855768 1.575 0.2186245
vt 0.0513543 0.9773387
vt 0.06423613 0.9773387
vt 0.06423613 0.9097419
vt 0.0513543 0.9108012
vt 0.0513543 0.8378017
vt 0.06423613 0.8369089
vt 0.0513543 0.7632401
vt 0.06423613 0.7632401
vt 0.0513543 0.6894754
vt 0.06423613 0.6902461
vt 0.0513543 0.6190699
vt 0.06423613 0.6198944
vt 0.0513543 0.5404196
vt 0.06423613 0.5404196
vt 0.06423613 0.9773387
vt 0.09385824 0.9773387
vt 0.09688392 0.97193
vt 0.06423613 0.9097419
vt 0.1129799 0.9088628
vt 0.06423613 0.8369089
vt 0.1129799 0.9811837
vt 0.09911652 0.9811838
vt 0.1129799 0.8366224
vt 0.06423613 0.7632401
vt 0.1129799 0.7632402
vt 0.1129799 0.6893532
vt 0.06423613 0.6902461
vt 0.06423613 0.6198944
vt 0.1129799 0.6179266
vt 0.06423613 0.5404196
vt 0.1129799 0.5404196
vt 0.1129799 0.9811837
vt 0.1217716 0.9811837
vt 0.1217716 0.9097881
vt 0.1129799 0.9088628
vt 0.1129799 0.8366224
vt 0.1217716 0.8374426
vt 0.1129799 0.7632402
vt 0.1217716 0.7632401
vt 0.1129799 0.6893532
vt 0.1217716 0.6885345
vt 0.1129799 0.6179266
vt 0.1217716 0.6170162
vt 0.1129799 0.5404196
vt 0.1217716 0.5404196
vt 0.0005653948 0.9811837
vt 0.01429403 0.9811838
vt 0.01686682 0.9752466
vt 0.0005653948 0.9097881
vt 0.0513543 0.9108012
vt 0.0005653948 0.8374426
vt 0.0513543 0.9773387
vt 0.02010714 0.9773387
vt 0.0513543 0.8378017
vt 0.0513543 0.7632401
vt 0.0005653948 0.7632401
vt 0.0005653948 0.6885345
vt 0.0513543 0.6894754
vt 0.0005653948 0.6170162
vt 0.0513543 0.6190699
vt 0.0005653948 0.5404196
vt 0.0513543 0.5404196
vt 0.06423613 0.5242877
vt 0.06423613 0.5404196
vt 0.1129799 0.5404196
vt 0.1129799 0.5242877
vt 0.1129799 0.9940656
vt 0.1129799 0.9811837
vt 0.09911652 0.9811838
vt 0.0998041 0.9940656
vt 0.09385824 0.9773387
vt 0.06423613 0.9773387
vt 0.06423613 0.9902205
vt 0.09422508 0.9902205
vt 0.09688392 0.97193
vt 0.09385824 0.9773387
vt 0.09422508 0.9902205
vt 0.09701459 0.9940656
vt 0.2347531 0.527852
vt 0.2293622 0.5238118
vt 0.1925812 0.5238122
vt 0.1871904 0.5278524
vt 0.1871906 0.5416351
vt 0.2347533 0.5416349
vt 0.1871906 0.5416351
vt 0.1871908 0.9812639
vt 0.2347533 0.9812639
vt 0.2347533 0.5416349
vt 0.07344055 0.9286655
vt 0.09309061 0.9002777
vt 0.09309047 0.541635
vt 0.07344092 0.541635
vt 0.06222444 0.541635
vt 0.1118655 0.541635
vt 0.1118656 0.5286672
vt 0.06222449 0.5286669
vt 0.06785093 0.5248655
vt 0.1062392 0.5248658
vt 0.06222444 0.541635
vt 0.06222444 0.9286655
vt 0.1118654 0.9286655
vt 0.1118655 0.541635
vt 0.2347533 0.541635
vt 0.2347533 0.9651308
vt 0.2479436 0.9604017
vt 0.2479436 0.541635
vt 0.297254 0.9249635
vt 0.2972539 0.9414946
vt 0.3088235 0.9414946
vt 0.3088235 0.9153603
vt 0.3088235 0.8382608
vt 0.297254 0.8430624
vt 0.297254 0.7611613
vt 0.3088235 0.7611613
vt 0.297254 0.6914115
vt 0.3088235 0.695344
vt 0.297254 0.6085017
vt 0.3088235 0.6171086
vt 0.297254 0.580828
vt 0.3088235 0.580828
vt 0.1871906 0.9452815
vt 0.1871906 0.541635
vt 0.1742114 0.541635
vt 0.1742114 0.9347342
vt 0.01077878 0.5417861
vt 0.003660864 0.5419626
vt 0.003660864 0.8919564
vt 0.01077907 0.8919564
vt 0.06148652 0.9002777
vt 0.06148662 0.541635
vt 0.05070787 0.541635
vt 0.0507078 0.8919564
vt 0.1987714 0.5416349
vt 0.1987714 0.9812639
vt 0.2184124 0.9651308
vt 0.2184124 0.541635
vt 0.1624357 0.9812639
vt 0.1624355 0.5416351
vt 0.1445779 0.541635
vt 0.1445778 0.9452815
vt 0.1331534 0.9347343
vt 0.1699343 0.9347342
vt 0.1699343 0.541635
vt 0.1331534 0.541635
vt 0.02081808 0.9002777
vt 0.03884886 0.9286655
vt 0.03884886 0.541635
vt 0.02081825 0.541635
vt 0.05070787 0.541635
vt 0.01077878 0.5417861
vt 0.01077907 0.8919564
vt 0.0507078 0.8919564
vt 0.09911652 0.9811838
vt 0.09688392 0.97193
vt 0.09701459 0.9940656
vt 0.0998041 0.9940656
vt 0.2538543 0.580828
vt 0.297254 0.6085017
vt 0.297254 0.580828
vt 0.2538543 0.6085017
vt 0.297254 0.6914115
vt 0.2538543 0.6914115
vt 0.297254 0.7611613
vt 0.2538543 0.7611613
vt 0.297254 0.8430624
vt 0.2538543 0.8429661
vt 0.297254 0.9249635
vt 0.2538543 0.924771
vt 0.2972539 0.9414946
vt 0.2538543 0.9414947
vt 0.3099306 0.5403417
vt 0.3561693 0.6212279
vt 0.3561693 0.5403418
vt 0.3099306 0.6212279
vt 0.3561693 0.6982633
vt 0.3099306 0.6982633
vt 0.3561693 0.7611613
vt 0.3099306 0.7611613
vt 0.3561693 0.8494891
vt 0.3099306 0.8494892
vt 0.3561693 0.9157349
vt 0.3099306 0.915735
vt 0.3561693 0.9819807
vt 0.3099306 0.9819809
vt 0.3201874 0.5403418
vt 0.339638 0.6097777
vt 0.339638 0.5716507
vt 0.3201874 0.6212279
vt 0.339638 0.6919945
vt 0.3201874 0.6982633
vt 0.3396379 0.7611614
vt 0.3201874 0.7611613
vt 0.3396379 0.8425542
vt 0.3201874 0.8494891
vt 0.3396379 0.923947
vt 0.3201874 0.9157349
vt 0.3396379 0.9506721
vt 0.3201874 0.9819807
vt 0.265725 0.9506722
vt 0.2851755 0.9819809
vt 0.2851755 0.915735
vt 0.265725 0.9232079
vt 0.2657251 0.8421846
vt 0.2851755 0.8494892
vt 0.2657251 0.7611613
vt 0.2851755 0.7611613
vt 0.2657251 0.6919944
vt 0.2851755 0.6982633
vt 0.2657251 0.6097775
vt 0.2851756 0.6212279
vt 0.2657251 0.5716504
vt 0.2851756 0.5403417
vt 0.3700907 0.9414947
vt 0.3575996 0.9160637
vt 0.3575996 0.9414946
vt 0.3700907 0.924771
vt 0.3575996 0.8386126
vt 0.3700908 0.8429661
vt 0.3575996 0.7611613
vt 0.3700908 0.7611613
vt 0.3575996 0.695344
vt 0.3700908 0.6914115
vt 0.3575996 0.6171086
vt 0.3700909 0.6085017
vt 0.3575996 0.580828
vt 0.3700909 0.580828
vn -0.03075852 0.999524 -0.00236758
vn -0.03075852 0.999524 -0.00236758
vn -0.03021051 0.9995288 -0.005438495
vn -0.03019998 0.9995288 -0.005497464
vn -0.01222658 0.9999247 -0.001146405
vn -0.01247813 0.9999213 -0.001258429
vn 0.006293464 0.9999522 0.00748456
vn 0.006301139 0.9999522 0.007485447
vn 0.003803036 0.9999624 0.007797481
vn 0.003802204 0.9999624 0.007797762
vn -0.001115511 0.9999059 -0.01366654
vn -0.001147552 0.9999034 -0.01385367
vn -0.004253995 0.999479 -0.03199441
vn -0.004253995 0.999479 -0.03199441
vn -0.1648303 0.0377012 0.9856011
vn 1.168397E-05 0 1
vn -0.1696547 -0.03240059 0.9849707
vn -0.3427273 -0.01719419 0.9392775
vn -0.3466438 -0.02448481 0.9376773
vn -0.512555 -0.01512097 0.8585212
vn -0.1563513 -0.1196308 0.9804299
vn -8.640847E-06 -1.099356E-05 1
vn -0.511715 -0.01516754 0.8590214
vn -0.7078541 -0.001973093 0.7063559
vn -0.7062998 -0.002101325 0.7079098
vn -0.860167 0.009448576 0.5099248
vn -0.8596383 0.009412935 0.5108163
vn -0.9577522 0.01405278 0.2872511
vn -0.9587789 0.01406386 0.2838049
vn -0.9853812 0.01432479 0.1697609
vn -0.9853812 0.01432479 0.1697609
vn -0.01366411 -0.9999061 -0.001118718
vn -0.01366411 -0.9999061 -0.001118718
vn -0.01340276 -0.9999071 -0.002476613
vn -0.01340769 -0.9999071 -0.002451004
vn -0.01870991 -0.9997674 -0.01072995
vn -0.01873285 -0.9997666 -0.01075719
vn -0.01576564 -0.999793 -0.01286425
vn -0.01579668 -0.9997923 -0.01288245
vn 0.007404788 -0.9997024 0.02324273
vn 0.007306227 -0.9997081 0.0230244
vn 0.009712437 -0.9994697 0.03108225
vn 0.009800822 -0.9994635 0.03125336
vn 0.001301978 -0.9998897 0.01479738
vn 0.001301978 -0.9998897 0.01479738
vn 0.1290735 0.1018916 -0.9863864
vn -9.091694E-06 -1.910982E-07 -1
vn 0.1403213 0.02853197 -0.9896948
vn 0.3254089 0.02282364 -0.945298
vn 0.3210406 0.01637946 -0.9469237
vn 0.4983465 0.01449476 -0.8668568
vn 0.1346736 -0.03023975 -0.9904284
vn 0 0 -1
vn 0.4992781 0.01444848 -0.8663214
vn 0.7076932 0.001920956 -0.7065173
vn 0.705942 0.002049043 -0.7082666
vn 0.8673604 -0.009121079 -0.4975971
vn 0.8668202 -0.009086192 -0.4985381
vn 0.9655049 -0.0130914 -0.2600557
vn 0.9644833 -0.01309442 -0.2638192
vn 0.9903768 -0.01288983 -0.1377963
vn 0.9903768 -0.01288983 -0.1377963
vn 0 -0.06676981 -0.9977684
vn 0 -0.06676981 -0.9977684
vn 0 -0.06676981 -0.9977684
vn 0 -0.06676981 -0.9977684
vn 0.9995165 0.03109243 1.34585E-06
vn 0.9995165 0.03109242 1.34585E-06
vn 0.9995165 0.03109243 1.34585E-06
vn 0.9995165 0.03109242 1.34585E-06
vn 0.9995165 0.03109231 -7.087442E-06
vn 0.9995165 0.03109231 -7.087442E-06
vn 0.9995165 0.03109231 -7.087441E-06
vn 0.9995165 0.03109231 -7.087441E-06
vn 0.3102761 -0.9500515 0.03362683
vn 0.3102761 -0.9500515 0.03362683
vn 0.3102761 -0.9500516 0.03362683
vn 0.3102761 -0.9500516 0.03362683
vn 0 -1 0
vn 0 -1 0
vn 0 -1 0
vn 0 -1 0
vn 0 -1 0
vn 0 -1 0
vn 1 0 -1.525879E-06
vn 1 0 -1.525879E-06
vn 1 0 -1.525879E-06
vn 1 0 -1.525879E-06
vn -0.9896969 -0.0003916227 0.1431788
vn -0.9897336 -0.0003247866 0.142924
vn -0.9896264 -0.0005188108 0.1436637
vn -0.9896264 -0.0005188108 0.1436637
vn 0 -1 0
vn 0 -1 0
vn 0 -1 0
vn 0 -1 0
vn 0 -1 0
vn 0 -1 0
vn 0 0 -1
vn 0 0 -1
vn 0 0 -1
vn 0 0 -1
vn -0.662802 -0.01380371 -0.7486675
vn -0.662802 -0.01380371 -0.7486675
vn -0.662802 -0.01380371 -0.7486675
vn -0.662802 -0.01380371 -0.7486675
vn 0.2114201 -0.7089506 -0.6728229
vn 0.102624 -0.7107441 -0.6959246
vn 0.102624 -0.7107441 -0.6959246
vn 0.2119745 -0.7089185 -0.6726822
vn 0.3535528 -0.7071068 -0.6123727
vn 0.3535537 -0.7071068 -0.6123722
vn 0.4999992 -0.707108 -0.499999
vn 0.4999993 -0.707108 -0.499999
vn 0.6123746 -0.7071038 -0.3535555
vn 0.6123744 -0.7071038 -0.3535557
vn 0.6722403 -0.7086574 -0.2142372
vn 0.672095 -0.7086249 -0.2148
vn 0.6962225 -0.7103835 -0.1030996
vn 0.6962225 -0.7103835 -0.1030996
vn -0.7389636 -0.01143288 0.6736482
vn -0.7389637 -0.01143288 0.6736482
vn -0.7389637 -0.01143288 0.6736482
vn -0.7389637 -0.01143288 0.6736482
vn -0.6726261 -0.01833728 0.7397553
vn -0.6726262 -0.01833728 0.7397552
vn -0.6726262 -0.01833728 0.7397552
vn -0.6726261 -0.01833728 0.7397553
vn 0.7530882 -0.02011315 0.657612
vn 0.7530882 -0.02011315 0.657612
vn 0.7530882 -0.02011315 0.657612
vn 0.7530882 -0.02011315 0.657612
vn 0.1394517 -9.525867E-06 -0.9902289
vn 0.139784 -0.0002068209 -0.990182
vn 0.1399002 -0.0002758051 -0.9901655
vn 0.1394517 -9.525867E-06 -0.9902289
vn -0.1394875 2.193897E-05 0.9902238
vn -0.1394517 9.599143E-06 0.9902289
vn -0.1394517 9.599145E-06 0.9902289
vn -0.1394995 2.606925E-05 0.9902221
vn -0.9998364 -0.01808525 0
vn -0.9998364 -0.01808525 0
vn -0.9998364 -0.01808525 0
vn -0.9998364 -0.01808525 0
vn 0.9896541 8.412984E-05 -0.1434741
vn 0.9896443 0.000237959 -0.1435413
vn 0.9896264 0.0005182541 -0.1436637
vn 0.9896264 0.0005182541 -0.1436637
vn 0 -0.02768744 0.9996166
vn 0 -0.02768745 0.9996166
vn 0 -0.02768744 0.9996166
vn 0 -0.02768745 0.9996166
vn 0.2167319 0.9751417 -0.04610734
vn 0.2167318 0.9751417 -0.04610733
vn 0.2167319 0.9751417 -0.04610734
vn 0.2167319 0.9751417 -0.04610734
vn 0 -1 2.95632E-07
vn 0 -1 2.011757E-07
vn 0 -1 2.95632E-07
vn 0 -1 2.018565E-07
vn 0 -1 2.293236E-07
vn 0 -1 2.293236E-07
vn 0 -1 0
vn 0 -1 0
vn 0 -1 0
vn 0 -1 0
vn 0 -1 0
vn 0 -1 0
vn 0 -1 0
vn 0 -1 0
vn 0 1 0
vn 0 1 0
vn 0 1 0
vn 0 1 0
vn 0 1 0
vn 0 1 0
vn 0 1 0
vn 0 1 0
vn 0 1 0
vn 0 1 0
vn 0 1 0
vn 0 1 0
vn 0 1 0
vn 0 1 0
vn -0.9896969 -0.0003916227 0.1431788
vn -0.9613449 0.0002244845 0.2753471
vn -0.9897336 -0.0003247866 0.142924
vn -0.9613449 0.0002244845 0.2753471
vn -0.8660257 0 0.4999995
vn -0.8660257 0 0.4999995
vn -0.7071069 0 0.7071066
vn -0.7071069 0 0.7071066
vn -0.5000004 0 0.8660253
vn -0.5000004 0 0.8660253
vn -0.2741892 4.295249E-05 0.9616758
vn -0.2741892 4.295249E-05 0.9616758
vn -0.1394995 2.606925E-05 0.9902221
vn -0.1394875 2.193897E-05 0.9902238
vn 0.1399002 -0.0002758051 -0.9901655
vn 0.139784 -0.0002068209 -0.990182
vn 0.2779819 -0.0007484235 -0.960586
vn 0.2779819 -0.0007484235 -0.960586
vn 0.5000005 0 -0.8660251
vn 0.5000004 0 -0.8660253
vn 0.7071074 0 -0.7071061
vn 0.7071074 0 -0.7071061
vn 0.8660255 -2.718721E-06 -0.4999999
vn 0.8660255 -2.718721E-06 -0.4999999
vn 0.9601545 -0.001006519 -0.2794677
vn 0.9601547 -0.001006522 -0.2794674
vn 0.9896541 8.412984E-05 -0.1434741
vn 0.9896443 0.000237959 -0.1435413
vn -0.1016272 -0.6978715 0.7089762
vn -0.2071002 -0.704336 0.6789848
vn -0.1016272 -0.6978716 0.7089762
vn -0.2075177 -0.7043447 0.6788481
vn -0.3535526 -0.7071059 0.6123738
vn -0.3535546 -0.7071059 0.6123726
vn -0.5 -0.7071062 0.5000008
vn -0.4999999 -0.7071062 0.5000009
vn -0.6123708 -0.7071083 0.3535531
vn -0.6123707 -0.7071082 0.3535535
vn -0.6781626 -0.7045307 0.2091217
vn -0.6780255 -0.7045379 0.2095418
vn -0.7085378 -0.6983012 0.1017326
vn -0.7085378 -0.6983012 0.1017326
g housekit_understructure_wall_corner_x1a_0
f 3/3/3 2/2/2 1/1/1
f 4/4/4 3/3/3 1/1/1
f 4/4/4 5/5/5 3/3/3
f 5/5/5 6/6/6 3/3/3
f 5/5/5 7/7/7 6/6/6
f 7/7/7 8/8/8 6/6/6
f 7/7/7 9/9/9 8/8/8
f 9/9/9 10/10/10 8/8/8
f 9/9/9 11/11/11 10/10/10
f 11/11/11 12/12/12 10/10/10
f 11/11/11 13/13/13 12/12/12
f 13/13/13 14/14/14 12/12/12
f 17/17/17 16/16/16 15/15/15
f 18/18/18 17/17/17 15/15/15
f 18/18/18 19/19/19 17/17/17
f 18/18/18 20/20/20 19/19/19
f 17/17/17 19/19/19 21/21/21
f 17/17/17 21/21/21 22/22/22
f 20/20/20 23/23/23 19/19/19
f 20/20/20 24/24/24 23/23/23
f 24/24/24 25/25/25 23/23/23
f 26/26/26 25/25/25 24/24/24
f 27/27/27 26/26/26 24/24/24
f 27/27/27 28/28/28 26/26/26
f 28/28/28 29/29/29 26/26/26
f 28/28/28 30/30/30 29/29/29
f 30/30/30 31/31/31 29/29/29
f 34/34/34 33/33/33 32/32/32
f 35/35/35 34/34/34 32/32/32
f 35/35/35 36/36/36 34/34/34
f 36/36/36 37/37/37 34/34/34
f 36/36/36 38/38/38 37/37/37
f 38/38/38 39/39/39 37/37/37
f 38/38/38 40/40/40 39/39/39
f 40/40/40 41/41/41 39/39/39
f 40/40/40 42/42/42 41/41/41
f 42/42/42 43/43/43 41/41/41
f 42/42/42 44/44/44 43/43/43
f 44/44/44 45/45/45 43/43/43
f 48/48/48 47/47/47 46/46/46
f 49/49/49 48/48/48 46/46/46
f 49/49/49 50/50/50 48/48/48
f 49/49/49 51/51/51 50/50/50
f 48/48/48 50/50/50 52/52/52
f 48/48/48 52/52/52 53/53/53
f 51/51/51 54/54/54 50/50/50
f 55/55/55 54/54/54 51/51/51
f 56/56/56 55/55/55 51/51/51
f 56/56/56 57/57/57 55/55/55
f 57/57/57 58/58/58 55/55/55
f 57/57/57 59/59/59 58/58/58
f 59/59/59 60/60/60 58/58/58
f 59/59/59 61/61/61 60/60/60
f 61/61/61 62/62/62 60/60/60
f 65/65/65 64/64/64 63/63/63
f 66/66/66 65/65/65 63/63/63
f 69/69/69 68/68/68 67/67/67
f 70/70/70 69/69/69 67/67/67
f 73/73/73 72/72/72 71/71/71
f 74/74/74 73/73/73 71/71/71
f 77/77/77 76/76/76 75/75/75
f 78/78/78 77/77/77 75/75/75
f 81/81/81 80/80/80 79/79/79
f 82/82/82 81/81/81 79/79/79
f 82/82/82 79/79/79 83/83/83
f 79/79/79 84/84/84 83/83/83
f 87/87/87 86/86/86 85/85/85
f 88/88/88 87/87/87 85/85/85
f 91/91/91 90/90/90 89/89/89
f 92/92/92 91/91/91 89/89/89
f 95/95/95 94/94/94 93/93/93
f 96/96/96 95/95/95 93/93/93
f 96/96/96 97/97/97 95/95/95
f 97/97/97 98/98/98 95/95/95
f 101/101/101 100/100/100 99/99/99
f 102/102/102 101/101/101 99/99/99
f 105/105/105 104/104/104 103/103/103
f 106/106/106 105/105/105 103/103/103
f 109/109/109 108/108/108 107/107/107
f 110/110/110 109/109/109 107/107/107
f 111/111/111 110/110/110 107/107/107
f 112/112/112 111/111/111 107/107/107
f 112/112/112 113/113/113 111/111/111
f 113/113/113 114/114/114 111/111/111
f 113/113/113 115/115/115 114/114/114
f 115/115/115 116/116/116 114/114/114
f 115/115/115 117/117/117 116/116/116
f 117/117/117 118/118/118 116/116/116
f 117/117/117 119/119/119 118/118/118
f 119/119/119 120/120/120 118/118/118
f 123/123/123 122/122/122 121/121/121
f 124/124/124 123/123/123 121/121/121
f 127/127/127 126/126/126 125/125/125
f 128/128/128 127/127/127 125/125/125
f 131/131/131 130/130/130 129/129/129
f 132/132/132 131/131/131 129/129/129
f 135/135/135 134/134/134 133/133/133
f 136/136/136 135/135/135 133/133/133
f 139/139/139 138/138/138 137/137/137
f 140/140/140 139/139/139 137/137/137
f 143/143/143 142/142/142 141/141/141
f 144/144/144 143/143/143 141/141/141
f 147/147/147 146/146/146 145/145/145
f 148/148/148 147/147/147 145/145/145
f 151/151/151 150/150/150 149/149/149
f 152/152/152 151/151/151 149/149/149
f 155/155/155 154/154/154 153/153/153
f 156/156/156 155/155/155 153/153/153
f 159/159/159 158/158/158 157/157/157
f 158/158/158 160/160/160 157/157/157
f 158/158/158 161/161/161 160/160/160
f 161/161/161 162/162/162 160/160/160
f 161/161/161 163/163/163 162/162/162
f 163/163/163 164/164/164 162/162/162
f 163/163/163 165/165/165 164/164/164
f 165/165/165 166/166/166 164/164/164
f 165/165/165 167/167/167 166/166/166
f 167/167/167 168/168/168 166/166/166
f 167/167/167 169/169/169 168/168/168
f 169/169/169 170/170/170 168/168/168
f 173/173/173 172/172/172 171/171/171
f 172/172/172 174/174/174 171/171/171
f 172/172/172 175/175/175 174/174/174
f 175/175/175 176/176/176 174/174/174
f 175/175/175 177/177/177 176/176/176
f 177/177/177 178/178/178 176/176/176
f 177/177/177 179/179/179 178/178/178
f 179/179/179 180/180/180 178/178/178
f 179/179/179 181/181/181 180/180/180
f 181/181/181 182/182/182 180/180/180
f 181/181/181 183/183/183 182/182/182
f 183/183/183 184/184/184 182/182/182
f 187/187/187 186/186/186 185/185/185
f 186/186/186 188/188/188 185/185/185
f 186/186/186 189/189/189 188/188/188
f 189/189/189 190/190/190 188/188/188
f 189/189/189 191/191/191 190/190/190
f 191/191/191 192/192/192 190/190/190
f 191/191/191 193/193/193 192/192/192
f 193/193/193 194/194/194 192/192/192
f 193/193/193 195/195/195 194/194/194
f 195/195/195 196/196/196 194/194/194
f 195/195/195 197/197/197 196/196/196
f 197/197/197 198/198/198 196/196/196
f 201/201/201 200/200/200 199/199/199
f 202/202/202 201/201/201 199/199/199
f 202/202/202 203/203/203 201/201/201
f 203/203/203 204/204/204 201/201/201
f 203/203/203 205/205/205 204/204/204
f 205/205/205 206/206/206 204/204/204
f 205/205/205 207/207/207 206/206/206
f 207/207/207 208/208/208 206/206/206
f 207/207/207 209/209/209 208/208/208
f 209/209/209 210/210/210 208/208/208
f 209/209/209 211/211/211 210/210/210
f 211/211/211 212/212/212 210/210/210
f 215/215/215 214/214/214 213/213/213
f 214/214/214 216/216/216 213/213/213
f 214/214/214 217/217/217 216/216/216
f 217/217/217 218/218/218 216/216/216
f 217/217/217 219/219/219 218/218/218
f 219/219/219 220/220/220 218/218/218
f 219/219/219 221/221/221 220/220/220
f 221/221/221 222/222/222 220/220/220
f 221/221/221 223/223/223 222/222/222
f 223/223/223 224/224/224 222/222/222
f 223/223/223 225/225/225 224/224/224
f 225/225/225 226/226/226 224/224/224
