g houseGlassMain
v -3.250259 1.369206 7.790155
v -3.198278 2.002864 7.675867
v -3.03608 1.403925 7.871419
v -2.879901 1.49147 7.91732
v -2.75094 1.627187 7.941607
v -2.66182 1.797794 7.941904
v -2.620502 2.003515 7.913984
v -2.625243 2.20925 7.850227
v -2.683567 2.375752 7.775395
v -2.788109 2.507521 7.691994
v -2.928634 2.591655 7.608182
v -3.843901 1.366059 7.541859
v -3.132761 2.624519 7.513628
v -3.787141 2.002812 7.432682
v -3.705855 2.626694 7.272627
v -4.410699 1.366352 7.197606
v -4.253043 2.627102 6.940336
v -4.344279 2.002445 7.089219
v -4.903242 2.002812 6.748734
v -4.797535 2.626694 6.603645
v -4.974751 1.366059 6.848873
v -5.272448 2.624519 6.202427
v -5.387259 2.002864 6.334458
v -5.465492 1.369206 6.432659
v -5.449369 2.591655 6.063474
v -5.635134 1.403925 6.278717
v -5.587842 2.507521 5.976315
v -5.746936 1.49147 6.160398
v -5.709614 2.375752 5.921031
v -5.827124 1.627187 6.05652
v -5.802768 2.20925 5.903037
v -5.867846 1.797794 5.977248
v -5.861728 2.003515 5.927759
v 5.465492 1.369206 6.432659
v 5.387259 2.002864 6.334458
v 5.635134 1.403925 6.278717
v 5.746936 1.49147 6.160398
v 5.827124 1.627187 6.05652
v 5.867846 1.797794 5.977248
v 5.861728 2.003515 5.927759
v 5.802768 2.20925 5.903037
v 5.709614 2.375752 5.921031
v 5.587842 2.507521 5.976315
v 5.449369 2.591655 6.063474
v 4.974751 1.366059 6.848873
v 5.272448 2.624519 6.202427
v 4.903242 2.002812 6.748734
v 4.797535 2.626694 6.603645
v 4.410699 1.366352 7.197606
v 4.253043 2.627102 6.940336
v 4.344279 2.002445 7.089219
v 3.787141 2.002812 7.432682
v 3.705855 2.626694 7.272627
v 3.843901 1.366059 7.541859
v 3.132761 2.624519 7.513628
v 3.198278 2.002864 7.675867
v 3.250259 1.369206 7.790155
v 2.928634 2.591655 7.608182
v 3.03608 1.403925 7.871419
v 2.788109 2.507521 7.691994
v 2.879901 1.49147 7.91732
v 2.683567 2.375752 7.775395
v 2.75094 1.627187 7.941607
v 2.625243 2.20925 7.850227
v 2.66182 1.797794 7.941904
v 2.620502 2.003515 7.913984
vt 0.7553267 0.1589317
vt 0.7561744 0.2440691
vt 0.8001564 0.1635967
vt 0.8319663 0.1753588
vt 0.8574213 0.1935937
vt 0.8740538 0.2165162
vt 0.8800721 0.2441564
vt 0.8752012 0.2717986
vt 0.8593543 0.2941696
vt 0.8339363 0.3118739
vt 0.8014044 0.323178
vt 0.6296237 0.158509
vt 0.755873 0.3275935
vt 0.6298898 0.2440619
vt 0.629948 0.3278857
vt 0.5000691 0.1585483
vt 0.5002707 0.3279406
vt 0.5001528 0.2440127
vt 0.3703443 0.2440619
vt 0.3705294 0.3278857
vt 0.3704507 0.158509
vt 0.2445357 0.3275935
vt 0.2439974 0.2440691
vt 0.2446839 0.1589317
vt 0.1989352 0.323178
vt 0.1998096 0.1635967
vt 0.1663212 0.3118739
vt 0.1679748 0.1753588
vt 0.140808 0.2941696
vt 0.1425103 0.1935937
vt 0.1248709 0.2717986
vt 0.1258907 0.2165162
vt 0.1199142 0.2441564
vt 0.7553165 0.1589317
vt 0.7560031 0.2440691
vt 0.8001909 0.1635967
vt 0.8320252 0.1753588
vt 0.8574888 0.1935937
vt 0.8741097 0.2165162
vt 0.8800858 0.2441564
vt 0.8751296 0.2717986
vt 0.8591911 0.2941696
vt 0.8336792 0.3118739
vt 0.8010647 0.323178
vt 0.6295497 0.158509
vt 0.7554648 0.3275935
vt 0.6296548 0.2440619
vt 0.6294706 0.3278857
vt 0.499932 0.1585483
vt 0.4997292 0.3279406
vt 0.4998479 0.2440127
vt 0.3701106 0.2440619
vt 0.3700524 0.3278857
vt 0.3703763 0.158509
vt 0.2441274 0.3275935
vt 0.2438262 0.2440691
vt 0.2446744 0.1589317
vt 0.1985954 0.323178
vt 0.1998443 0.1635967
vt 0.166063 0.3118739
vt 0.1680341 0.1753588
vt 0.1406457 0.2941696
vt 0.1425799 0.1935937
vt 0.1248002 0.2717986
vt 0.1259466 0.2165162
vt 0.1199279 0.2441564
vn -0.3768817 0.1920211 0.9061391
vn -0.3734377 0.2324684 0.8980549
vn -0.3753146 0.19427 0.9063101
vn -0.3752367 0.1943107 0.9063337
vn -0.375185 0.1943645 0.9063435
vn -0.3744182 0.1962225 0.9062603
vn -0.3707524 0.233246 0.8989655
vn -0.3677804 0.2691637 0.8901058
vn -0.3681809 0.2708104 0.8894405
vn -0.3682293 0.2708621 0.8894048
vn -0.3683003 0.2709053 0.8893623
vn -0.4471307 0.1927126 0.873462
vn -0.3693946 0.2730214 0.8882606
vn -0.4429611 0.2325702 0.8658502
vn -0.4382013 0.2736632 0.8562056
vn -0.512713 0.1926323 0.836671
vn -0.5027297 0.2724678 0.8203804
vn -0.5081922 0.2324044 0.8292941
vn -0.5703781 0.2325697 0.7877691
vn -0.5639454 0.2736625 0.7791498
vn -0.5752674 0.1927122 0.7949399
vn -0.623744 0.2730207 0.7323956
vn -0.6306353 0.2324678 0.7404444
vn -0.6362749 0.1920207 0.747183
vn -0.6252232 0.2709045 0.7319201
vn -0.6371377 0.194269 0.7458653
vn -0.6252944 0.2708615 0.7318749
vn -0.6371925 0.1943084 0.7458082
vn -0.6253473 0.2708101 0.7318488
vn -0.6372274 0.1943647 0.7457637
vn -0.6261216 0.269165 0.7317935
vn -0.6375036 0.1962234 0.7450407
vn -0.6326666 0.2332485 0.7384633
vn 0.636275 0.1920206 0.7471828
vn 0.6306354 0.2324677 0.7404444
vn 0.6371365 0.1942697 0.7458661
vn 0.6371922 0.1943094 0.7458082
vn 0.6372277 0.1943653 0.7457634
vn 0.6375028 0.1962234 0.7450413
vn 0.6326662 0.2332485 0.7384636
vn 0.6261211 0.2691652 0.731794
vn 0.6253469 0.2708103 0.731849
vn 0.6252934 0.2708627 0.7318754
vn 0.625222 0.2709051 0.7319207
vn 0.5752675 0.1927122 0.7949398
vn 0.6237438 0.2730204 0.7323956
vn 0.5703781 0.2325697 0.7877691
vn 0.5639452 0.2736625 0.7791499
vn 0.5127132 0.1926322 0.8366708
vn 0.5027296 0.2724678 0.8203807
vn 0.5081922 0.2324043 0.8292941
vn 0.4429613 0.2325701 0.8658502
vn 0.4382013 0.2736631 0.8562057
vn 0.447131 0.1927124 0.873462
vn 0.3693949 0.2730213 0.8882605
vn 0.3734381 0.2324683 0.8980548
vn 0.376882 0.192021 0.906139
vn 0.3683002 0.270905 0.8893623
vn 0.3753151 0.1942699 0.9063099
vn 0.3682292 0.270862 0.8894049
vn 0.3752378 0.1943105 0.9063332
vn 0.3681809 0.2708102 0.8894406
vn 0.3751862 0.1943642 0.9063431
vn 0.3677805 0.2691636 0.8901059
vn 0.3744181 0.1962224 0.9062605
vn 0.3707524 0.233246 0.8989655
g houseGlassMain_0
f 3/3/3 2/2/2 1/1/1
f 3/3/3 4/4/4 2/2/2
f 4/4/4 5/5/5 2/2/2
f 5/5/5 6/6/6 2/2/2
f 6/6/6 7/7/7 2/2/2
f 7/7/7 8/8/8 2/2/2
f 8/8/8 9/9/9 2/2/2
f 9/9/9 10/10/10 2/2/2
f 10/10/10 11/11/11 2/2/2
f 1/1/1 2/2/2 12/12/12
f 11/11/11 13/13/13 2/2/2
f 2/2/2 14/14/14 12/12/12
f 2/2/2 13/13/13 14/14/14
f 13/13/13 15/15/15 14/14/14
f 12/12/12 14/14/14 16/16/16
f 14/14/14 15/15/15 17/17/17
f 14/14/14 18/18/18 16/16/16
f 18/18/18 14/14/14 17/17/17
f 18/18/18 19/19/19 16/16/16
f 19/19/19 18/18/18 17/17/17
f 20/20/20 19/19/19 17/17/17
f 19/19/19 21/21/21 16/16/16
f 20/20/20 22/22/22 19/19/19
f 19/19/19 23/23/23 21/21/21
f 22/22/22 23/23/23 19/19/19
f 23/23/23 24/24/24 21/21/21
f 22/22/22 25/25/25 23/23/23
f 23/23/23 26/26/26 24/24/24
f 25/25/25 27/27/27 23/23/23
f 28/28/28 26/26/26 23/23/23
f 27/27/27 29/29/29 23/23/23
f 30/30/30 28/28/28 23/23/23
f 29/29/29 31/31/31 23/23/23
f 32/32/32 30/30/30 23/23/23
f 31/31/31 33/33/33 23/23/23
f 33/33/33 32/32/32 23/23/23
f 36/36/36 35/35/35 34/34/34
f 36/36/36 37/37/37 35/35/35
f 37/37/37 38/38/38 35/35/35
f 38/38/38 39/39/39 35/35/35
f 39/39/39 40/40/40 35/35/35
f 40/40/40 41/41/41 35/35/35
f 41/41/41 42/42/42 35/35/35
f 42/42/42 43/43/43 35/35/35
f 43/43/43 44/44/44 35/35/35
f 34/34/34 35/35/35 45/45/45
f 44/44/44 46/46/46 35/35/35
f 35/35/35 47/47/47 45/45/45
f 35/35/35 46/46/46 47/47/47
f 46/46/46 48/48/48 47/47/47
f 45/45/45 47/47/47 49/49/49
f 47/47/47 48/48/48 50/50/50
f 47/47/47 51/51/51 49/49/49
f 51/51/51 47/47/47 50/50/50
f 51/51/51 52/52/52 49/49/49
f 52/52/52 51/51/51 50/50/50
f 53/53/53 52/52/52 50/50/50
f 52/52/52 54/54/54 49/49/49
f 53/53/53 55/55/55 52/52/52
f 52/52/52 56/56/56 54/54/54
f 55/55/55 56/56/56 52/52/52
f 56/56/56 57/57/57 54/54/54
f 55/55/55 58/58/58 56/56/56
f 56/56/56 59/59/59 57/57/57
f 58/58/58 60/60/60 56/56/56
f 61/61/61 59/59/59 56/56/56
f 60/60/60 62/62/62 56/56/56
f 63/63/63 61/61/61 56/56/56
f 62/62/62 64/64/64 56/56/56
f 65/65/65 63/63/63 56/56/56
f 64/64/64 66/66/66 56/56/56
f 66/66/66 65/65/65 56/56/56
