g houseBenchPlank
v -1.279121 1.100868 -0.8573462
v -1.073835 1.105646 -0.4457164
v -1.401255 1.106464 -0.7001637
v -0.9516987 1.100049 -0.602899
v -0.7464513 1.102809 -0.1912257
v -0.6243153 1.097212 -0.3484087
v -0.4216361 1.105497 0.06658558
v -0.2941614 1.099656 -0.09746639
v -0.2941614 1.099656 -0.09746639
v -0.2953879 1.034423 -0.0960972
v -0.4228634 1.040264 0.06795494
v -0.4216361 1.105497 0.06658558
v -0.2953879 1.034423 -0.0960972
v -0.7475515 1.044345 -0.1899984
v -0.4228634 1.040264 0.06795494
v -0.6254148 1.038748 -0.3471811
v -1.075011 1.043144 -0.4444043
v -0.9528747 1.037548 -0.6015867
v -1.402432 1.043962 -0.6988521
v -1.280296 1.038366 -0.8560344
v -1.280296 1.038366 -0.8560344
v -1.279121 1.100868 -0.8573462
v -1.401255 1.106464 -0.7001637
v -1.402432 1.043962 -0.6988521
v -1.401255 1.106464 -0.7001637
v -1.075011 1.043144 -0.4444043
v -1.402432 1.043962 -0.6988521
v -1.073835 1.105646 -0.4457164
v -0.7475515 1.044345 -0.1899984
v -0.7464513 1.102809 -0.1912257
v -0.4228634 1.040264 0.06795494
v -0.4216361 1.105497 0.06658558
v -1.280296 1.038366 -0.8560344
v -0.9516987 1.100049 -0.602899
v -1.279121 1.100868 -0.8573462
v -0.9528747 1.037548 -0.6015867
v -0.6243153 1.097212 -0.3484087
v -0.6254148 1.038748 -0.3471811
v -0.2941614 1.099656 -0.09746639
v -0.2953879 1.034423 -0.0960972
vt 0.2876595 0.6713306
vt 0.3079765 0.6185043
vt 0.3076413 0.6715352
vt 0.2879947 0.6182997
vt 0.3083117 0.5654734
vt 0.28833 0.5652688
vt 0.3086469 0.5124425
vt 0.2886651 0.5122379
vt 0.2886651 0.5122379
vt 0.2886946 0.5122706
vt 0.3086764 0.5124752
vt 0.3086469 0.5124425
vt 0.2886946 0.5122706
vt 0.3083412 0.5655062
vt 0.3086764 0.5124752
vt 0.2883594 0.5653015
vt 0.308006 0.618537
vt 0.2880242 0.6183324
vt 0.3076707 0.6715679
vt 0.287689 0.6713632
vt 0.287689 0.6713632
vt 0.2876595 0.6713306
vt 0.3076413 0.6715352
vt 0.3076707 0.6715679
vt 0.3076413 0.6715352
vt 0.308006 0.618537
vt 0.3076707 0.6715679
vt 0.3079765 0.6185043
vt 0.3083412 0.5655062
vt 0.3083117 0.5654734
vt 0.3086764 0.5124752
vt 0.3086469 0.5124425
vt 0.287689 0.6713632
vt 0.2879947 0.6182997
vt 0.2876595 0.6713306
vt 0.2880242 0.6183324
vt 0.28833 0.5652688
vt 0.2883594 0.5653015
vt 0.2886651 0.5122379
vt 0.2886946 0.5122706
vn 0.01880255 0.9996031 -0.02097857
vn 0.02072504 0.9995953 -0.01948479
vn 0.01880255 0.9996031 -0.02097857
vn 0.02072504 0.9995953 -0.0194848
vn 0.01742876 0.999605 -0.02204691
vn 0.01742879 0.999605 -0.02204688
vn 0.01235505 0.9995859 -0.02598879
vn 0.01235505 0.9995859 -0.02598879
vn 0.7895985 -0.001971134 0.6136206
vn 0.7895985 -0.001971134 0.6136206
vn 0.7895985 -0.001971134 0.6136206
vn 0.7895986 -0.001971134 0.6136205
vn -0.02524884 -0.9995536 0.01597052
vn -0.02017632 -0.9995981 0.01991406
vn -0.02524884 -0.9995536 0.01597052
vn -0.02017632 -0.9995981 0.01991407
vn -0.01687966 -0.9996049 0.02247476
vn -0.01687966 -0.9996049 0.02247476
vn -0.01880191 -0.9996031 0.02097944
vn -0.01880191 -0.9996031 0.02097944
vn -0.7896029 0.001975126 -0.613615
vn -0.7896029 0.001975126 -0.613615
vn -0.7896029 0.001975126 -0.613615
vn -0.7896029 0.001975126 -0.613615
vn -0.6133349 0.02811028 0.7893225
vn -0.6133344 0.02811138 0.789323
vn -0.6133349 0.02811029 0.7893225
vn -0.6133344 0.02811138 0.7893229
vn -0.6175191 0.02812168 0.786053
vn -0.6175191 0.02812168 0.7860531
vn -0.6215864 0.02812986 0.7828404
vn -0.6215864 0.02812986 0.7828404
vn 0.6133338 -0.02810552 -0.7893236
vn 0.6133334 -0.02810839 -0.7893238
vn 0.6133339 -0.02810552 -0.7893236
vn 0.6133334 -0.02810839 -0.7893238
vn 0.6091316 -0.02809695 -0.7925713
vn 0.6091316 -0.02809695 -0.7925713
vn 0.6050153 -0.02808212 -0.7957184
vn 0.6050153 -0.02808212 -0.7957184
g houseBenchPlank_0
f 3/3/3 2/2/2 1/1/1
f 2/2/2 4/4/4 1/1/1
f 2/2/2 5/5/5 4/4/4
f 5/5/5 6/6/6 4/4/4
f 5/5/5 7/7/7 6/6/6
f 7/7/7 8/8/8 6/6/6
f 11/11/11 10/10/10 9/9/9
f 12/12/12 11/11/11 9/9/9
f 15/15/15 14/14/14 13/13/13
f 14/14/14 16/16/16 13/13/13
f 14/14/14 17/17/17 16/16/16
f 17/17/17 18/18/18 16/16/16
f 17/17/17 19/19/19 18/18/18
f 19/19/19 20/20/20 18/18/18
f 23/23/23 22/22/22 21/21/21
f 24/24/24 23/23/23 21/21/21
f 27/27/27 26/26/26 25/25/25
f 26/26/26 28/28/28 25/25/25
f 26/26/26 29/29/29 28/28/28
f 29/29/29 30/30/30 28/28/28
f 29/29/29 31/31/31 30/30/30
f 31/31/31 32/32/32 30/30/30
f 35/35/35 34/34/34 33/33/33
f 34/34/34 36/36/36 33/33/33
f 34/34/34 37/37/37 36/36/36
f 37/37/37 38/38/38 36/36/36
f 37/37/37 39/39/39 38/38/38
f 39/39/39 40/40/40 38/38/38
