g fruitCuberry
v -0.1687549 -0.265747 -0.1687553
v -0.1687549 -0.265747 0.1687553
v 0.1687549 -0.265747 0.1687553
v 0.1687549 -0.265747 -0.1687553
v 0.1687549 0.1561307 0.1687553
v -0.1687549 0.1561307 0.1687553
v -0.1687549 0.1561307 -0.1687553
v 0.1687549 0.1561307 -0.1687553
v -0.1687549 -0.265747 0.1687553
v -0.1687549 -0.265747 -0.1687553
v -0.2109399 -0.2235635 -0.1687553
v -0.2109399 -0.2235635 0.1687553
v -0.1687549 -0.2235635 0.2109389
v -0.1687549 0.1139471 0.2109389
v -0.2109399 0.1139471 0.1687553
v -0.2109399 0.1139471 -0.1687553
v -0.1687549 0.1561307 0.1687553
v -0.1687549 0.1561307 -0.1687553
v -0.1687549 -0.2235635 0.2109389
v 0.1687549 -0.265747 0.1687553
v -0.1687549 -0.265747 0.1687553
v 0.1687549 -0.2235635 0.2109389
v 0.2109399 -0.2235635 0.1687553
v -0.1687549 0.1139471 0.2109389
v 0.2109399 0.1139471 0.1687553
v 0.1687549 0.1139471 0.2109389
v -0.1687549 0.1561307 0.1687553
v 0.1687549 0.1561307 0.1687553
v 0.2109399 -0.2235635 0.1687553
v 0.1687549 -0.265747 -0.1687553
v 0.1687549 -0.265747 0.1687553
v 0.2109399 -0.2235635 -0.1687553
v 0.1687549 -0.2235635 -0.2109389
v 0.2109399 0.1139471 0.1687553
v 0.1687549 0.1139471 -0.2109389
v 0.2109399 0.1139471 -0.1687553
v 0.1687549 0.1561307 0.1687553
v 0.1687549 0.1561307 -0.1687553
v -0.1687549 -0.265747 -0.1687553
v 0.1687549 -0.265747 -0.1687553
v 0.1687549 -0.2235635 -0.2109389
v -0.1687549 -0.2235635 -0.2109389
v -0.2109399 -0.2235635 -0.1687553
v 0.1687549 0.1139471 -0.2109389
v -0.2109399 0.1139471 -0.1687553
v -0.1687549 0.1139471 -0.2109389
v 0.1687549 0.1561307 -0.1687553
v -0.1687549 0.1561307 -0.1687553
v -0.01338135 0.1518649 0.01338187
v -0.02598389 0.265747 0.02598361
v 0.01338135 0.1518649 0.01338187
v 0.02598389 0.265747 0.02598361
v -0.02598389 0.265747 0.02598361
v -0.02598389 0.265747 -0.02598361
v 0.02598389 0.265747 0.02598361
v 0.02598389 0.265747 -0.02598361
v -0.02598389 0.265747 -0.02598361
v -0.01338135 0.1518649 -0.01338187
v 0.02598389 0.265747 -0.02598361
v 0.01338135 0.1518649 -0.01338187
v 0.01338135 0.1518649 0.01338187
v 0.02598389 0.265747 0.02598361
v 0.01338135 0.1518649 -0.01338187
v 0.02598389 0.265747 -0.02598361
v -0.01338135 0.1518649 -0.01338187
v -0.02598389 0.265747 -0.02598361
v -0.01338135 0.1518649 0.01338187
v -0.02598389 0.265747 0.02598361
v 0.04695801 0.1553836 0.04695797
v 0.06640869 0.1553836 8.750892E-09
v 0.1098364 0.2058588 0.1098366
v 0.155332 0.2058588 -6.122534E-09
v 0.04695801 0.1553836 -0.04695792
v 0.1098364 0.2058588 -0.1098366
v 0.04695801 0.1553836 -0.04695792
v 0 0.1553836 -0.0664084
v 0.1098364 0.2058588 -0.1098366
v 0 0.2058588 -0.1553324
v -0.04695801 0.1553836 -0.04695792
v -0.1098364 0.2058588 -0.1098366
v -0.04695801 0.1553836 -0.04695792
v -0.06640869 0.1553836 8.750892E-09
v -0.1098364 0.2058588 -0.1098366
v -0.155332 0.2058588 -6.122534E-09
v -0.04695801 0.1553836 0.04695796
v -0.1098364 0.2058588 0.1098366
v -0.04695801 0.1553836 0.04695796
v 0 0.1553836 0.06640846
v -0.1098364 0.2058588 0.1098366
v 0 0.2058588 0.1553324
v 0.04695801 0.1553836 0.04695797
v 0.1098364 0.2058588 0.1098366
v 0.04695801 0.1553836 0.04695797
v 0.1098364 0.2058588 0.1098366
v 0.06640869 0.1553836 8.750892E-09
v 0.155332 0.2058588 -6.122534E-09
v 0.04695801 0.1553836 -0.04695792
v 0.1098364 0.2058588 -0.1098366
v 0.04695801 0.1553836 -0.04695792
v 0.1098364 0.2058588 -0.1098366
v 0 0.1553836 -0.0664084
v 0 0.2058588 -0.1553324
v -0.04695801 0.1553836 -0.04695792
v -0.1098364 0.2058588 -0.1098366
v -0.04695801 0.1553836 -0.04695792
v -0.1098364 0.2058588 -0.1098366
v -0.06640869 0.1553836 8.750892E-09
v -0.155332 0.2058588 -6.122534E-09
v -0.04695801 0.1553836 0.04695796
v -0.1098364 0.2058588 0.1098366
v -0.04695801 0.1553836 0.04695796
v -0.1098364 0.2058588 0.1098366
v 0 0.1553836 0.06640846
v 0 0.2058588 0.1553324
v 0.04695801 0.1553836 0.04695797
v 0.1098364 0.2058588 0.1098366
v 0.04105224 0.1540741 -0.02081604
v 0.01430908 0.1540741 -0.04374603
v 0.09601806 0.2104191 -0.04868957
v 0.0334668 0.2104191 -0.1023239
v -0.02081543 0.1540741 -0.04105042
v -0.04868896 0.2104191 -0.09601867
v -0.02081543 0.1540741 -0.04105042
v -0.04374512 0.1540741 -0.01430786
v -0.04868896 0.2104191 -0.09601867
v -0.1023242 0.2104191 -0.0334668
v -0.0410498 0.1540741 0.02081604
v -0.09601806 0.2104191 0.04868957
v -0.0410498 0.1540741 0.02081604
v -0.01430664 0.1540741 0.04374603
v -0.09601806 0.2104191 0.04868957
v -0.0334668 0.2104191 0.1023239
v 0.02081787 0.1540741 0.04105042
v 0.04868896 0.2104191 0.09601867
v 0.02081787 0.1540741 0.04105042
v 0.04374756 0.1540741 0.01430786
v 0.04868896 0.2104191 0.09601867
v 0.1023242 0.2104191 0.0334668
v 0.04105224 0.1540741 -0.02081604
v 0.09601806 0.2104191 -0.04868957
v 0.04105224 0.1540741 -0.02081604
v 0.09601806 0.2104191 -0.04868957
v 0.01430908 0.1540741 -0.04374603
v 0.0334668 0.2104191 -0.1023239
v -0.02081543 0.1540741 -0.04105042
v -0.04868896 0.2104191 -0.09601867
v -0.02081543 0.1540741 -0.04105042
v -0.04868896 0.2104191 -0.09601867
v -0.04374512 0.1540741 -0.01430786
v -0.1023242 0.2104191 -0.0334668
v -0.0410498 0.1540741 0.02081604
v -0.09601806 0.2104191 0.04868957
v -0.0410498 0.1540741 0.02081604
v -0.09601806 0.2104191 0.04868957
v -0.01430664 0.1540741 0.04374603
v -0.0334668 0.2104191 0.1023239
v 0.02081787 0.1540741 0.04105042
v 0.04868896 0.2104191 0.09601867
v 0.02081787 0.1540741 0.04105042
v 0.04868896 0.2104191 0.09601867
v 0.04374756 0.1540741 0.01430786
v 0.1023242 0.2104191 0.0334668
v 0.04105224 0.1540741 -0.02081604
v 0.09601806 0.2104191 -0.04868957
vt 0.6098366 0.4129447
vt 0.6098366 0.7935058
vt 0.9903969 0.7935058
vt 0.9903969 0.4129447
vt 0.9931759 0.0188836
vt 0.6073406 0.0188836
vt 0.6073406 0.4047195
vt 0.9931759 0.4047195
vt 0.4894983 0.01145417
vt 0.01030193 0.01145417
vt 0.01030194 0.1019604
vt 0.4894983 0.1019604
vt 0.5826037 0.1019604
vt 0.5826037 0.6824704
vt 0.4894983 0.6824704
vt 0.01030194 0.6824704
vt 0.4894983 0.7729749
vt 0.01030193 0.7729749
vt 0.01030194 0.1019604
vt 0.4894972 0.01145417
vt 0.01030193 0.01145417
vt 0.4894972 0.1019604
vt 0.5826027 0.1019604
vt 0.01030194 0.6824704
vt 0.5826027 0.6824704
vt 0.4894972 0.6824704
vt 0.01030193 0.7729749
vt 0.4894972 0.7729749
vt 0.01030194 0.1019604
vt 0.4894983 0.01145417
vt 0.01030193 0.01145417
vt 0.4894983 0.1019604
vt 0.5826037 0.1019604
vt 0.01030194 0.6824704
vt 0.5826037 0.6824704
vt 0.4894983 0.6824704
vt 0.01030193 0.7729749
vt 0.4894983 0.7729749
vt 0.4896195 0.01147753
vt 0.01042427 0.01147753
vt 0.01042427 0.101982
vt 0.4896195 0.101982
vt 0.5827259 0.101982
vt 0.01042427 0.6824921
vt 0.5827258 0.6824921
vt 0.4896194 0.6824921
vt 0.01042427 0.7729983
vt 0.4896193 0.7729983
vt 0.01609221 0.9796458
vt 0.2440677 0.9796458
vt 0.01609218 0.8135481
vt 0.2440678 0.8135484
vt 0.2442366 0.9797066
vt 0.3448821 0.9797068
vt 0.2442367 0.8136091
vt 0.3448821 0.8136094
vt 0.2440676 0.8135479
vt 0.01609224 0.8135481
vt 0.2440677 0.9796457
vt 0.01609236 0.9796458
vt 0.01609236 0.9796455
vt 0.2440677 0.9796458
vt 0.01609236 0.8135478
vt 0.2440676 0.8135481
vt 0.01609221 0.9796458
vt 0.2440677 0.9796457
vt 0.01609218 0.8135483
vt 0.2440678 0.8135482
vt 0.402172 0.8144277
vt 0.6931075 0.8144277
vt 0.403108 0.9860488
vt 0.6931075 0.9860488
vt 0.9840429 0.8144277
vt 0.9831071 0.9860488
vt 0.402172 0.8144277
vt 0.6931075 0.8144277
vt 0.403108 0.9860488
vt 0.6931075 0.9860488
vt 0.9840429 0.8144277
vt 0.9831071 0.9860488
vt 0.402172 0.8144277
vt 0.6931075 0.8144277
vt 0.403108 0.9860488
vt 0.6931075 0.9860488
vt 0.9840429 0.8144277
vt 0.9831071 0.9860488
vt 0.402172 0.8144277
vt 0.6931075 0.8144277
vt 0.403108 0.9860488
vt 0.6931075 0.9860488
vt 0.9840429 0.8144277
vt 0.9831071 0.9860488
vt 0.402172 0.8144277
vt 0.403108 0.9860488
vt 0.6931075 0.8144277
vt 0.6931075 0.9860488
vt 0.9840429 0.8144277
vt 0.9831071 0.9860488
vt 0.402172 0.8144277
vt 0.403108 0.9860488
vt 0.6931075 0.8144277
vt 0.6931075 0.9860488
vt 0.9840429 0.8144277
vt 0.9831071 0.9860488
vt 0.402172 0.8144277
vt 0.403108 0.9860488
vt 0.6931075 0.8144277
vt 0.6931075 0.9860488
vt 0.9840429 0.8144277
vt 0.9831071 0.9860488
vt 0.402172 0.8144277
vt 0.403108 0.9860488
vt 0.6931075 0.8144277
vt 0.6931075 0.9860488
vt 0.9840429 0.8144277
vt 0.9831071 0.9860488
vt 0.402172 0.8144277
vt 0.6931075 0.8144277
vt 0.403108 0.9860488
vt 0.6931075 0.9860488
vt 0.9840429 0.8144277
vt 0.9831071 0.9860488
vt 0.402172 0.8144277
vt 0.6931075 0.8144277
vt 0.403108 0.9860488
vt 0.6931075 0.9860488
vt 0.9840429 0.8144277
vt 0.9831071 0.9860488
vt 0.402172 0.8144277
vt 0.6931075 0.8144277
vt 0.403108 0.9860488
vt 0.6931075 0.9860488
vt 0.9840429 0.8144277
vt 0.9831071 0.9860488
vt 0.402172 0.8144277
vt 0.6931075 0.8144277
vt 0.403108 0.9860488
vt 0.6931075 0.9860488
vt 0.9840429 0.8144277
vt 0.9831071 0.9860488
vt 0.402172 0.8144277
vt 0.403108 0.9860488
vt 0.6931075 0.8144277
vt 0.6931075 0.9860488
vt 0.9840429 0.8144277
vt 0.9831071 0.9860488
vt 0.402172 0.8144277
vt 0.403108 0.9860488
vt 0.6931075 0.8144277
vt 0.6931075 0.9860488
vt 0.9840429 0.8144277
vt 0.9831071 0.9860488
vt 0.402172 0.8144277
vt 0.403108 0.9860488
vt 0.6931075 0.8144277
vt 0.6931075 0.9860488
vt 0.9840429 0.8144277
vt 0.9831071 0.9860488
vt 0.402172 0.8144277
vt 0.403108 0.9860488
vt 0.6931075 0.8144277
vt 0.6931075 0.9860488
vt 0.9840429 0.8144277
vt 0.9831071 0.9860488
vn -0.1026255 -0.989412 -0.1026254
vn -0.1026255 -0.989412 0.1026254
vn 0.1026255 -0.989412 0.1026254
vn 0.1026255 -0.989412 -0.1026254
vn 0.1026255 0.989412 0.1026254
vn -0.1026255 0.989412 0.1026254
vn -0.1026255 0.989412 -0.1026254
vn 0.1026255 0.989412 -0.1026254
vn -0.1026255 -0.989412 0.1026254
vn -0.1026255 -0.989412 -0.1026254
vn -0.9894109 -0.1026314 -0.1026289
vn -0.9894109 -0.1026314 0.1026289
vn -0.1026253 -0.1026248 0.989412
vn -0.1026253 0.1026248 0.989412
vn -0.9894109 0.1026314 0.1026289
vn -0.9894109 0.1026314 -0.1026289
vn -0.1026255 0.989412 0.1026254
vn -0.1026255 0.989412 -0.1026254
vn -0.1026253 -0.1026248 0.989412
vn 0.1026255 -0.989412 0.1026254
vn -0.1026255 -0.989412 0.1026254
vn 0.1026253 -0.1026248 0.989412
vn 0.9894109 -0.1026314 0.1026289
vn -0.1026253 0.1026248 0.989412
vn 0.9894109 0.1026314 0.1026289
vn 0.1026253 0.1026248 0.989412
vn -0.1026255 0.989412 0.1026254
vn 0.1026255 0.989412 0.1026254
vn 0.9894109 -0.1026314 0.1026289
vn 0.1026255 -0.989412 -0.1026254
vn 0.1026255 -0.989412 0.1026254
vn 0.9894109 -0.1026314 -0.1026289
vn 0.1026253 -0.1026248 -0.989412
vn 0.9894109 0.1026314 0.1026289
vn 0.1026253 0.1026248 -0.989412
vn 0.9894109 0.1026314 -0.1026289
vn 0.1026255 0.989412 0.1026254
vn 0.1026255 0.989412 -0.1026254
vn -0.1026255 -0.989412 -0.1026254
vn 0.1026255 -0.989412 -0.1026254
vn 0.1026253 -0.1026248 -0.989412
vn -0.1026253 -0.1026248 -0.989412
vn -0.9894109 -0.1026314 -0.1026289
vn 0.1026253 0.1026248 -0.989412
vn -0.9894109 0.1026314 -0.1026289
vn -0.1026253 0.1026248 -0.989412
vn 0.1026255 0.989412 -0.1026254
vn -0.1026255 0.989412 -0.1026254
vn 0 -0.1099845 0.9939333
vn 0 -0.1099844 0.9939333
vn 0 -0.1099845 0.9939333
vn 0 -0.1099844 0.9939333
vn 0 1 0
vn 0 1 0
vn 0 1 0
vn 0 1 0
vn 0 -0.1099844 -0.9939333
vn 0 -0.1099845 -0.9939333
vn 0 -0.1099844 -0.9939333
vn 0 -0.1099845 -0.9939333
vn 0.9939337 -0.1099802 0
vn 0.99393 -0.1100148 0
vn 0.9939321 -0.1099956 0
vn 0.9939296 -0.110018 0
vn -0.993932 -0.109996 0
vn -0.993933 -0.1099864 0
vn -0.9939324 -0.1099917 0
vn -0.9939331 -0.1099856 0
vn -0.3093788 0.8683417 -0.3876436
vn -0.4928703 0.8683411 -0.05533998
vn -0.3348821 0.8694955 -0.3630862
vn -0.4935333 0.8694983 -0.01994225
vn -0.3876562 0.8683321 0.3093897
vn -0.3630831 0.8694963 0.3348833
vn -0.3876562 0.8683321 0.3093897
vn -0.05534178 0.8683299 0.49289
vn -0.3630831 0.8694963 0.3348833
vn -0.01994383 0.8694945 0.49354
vn 0.3093856 0.8683348 0.3876536
vn 0.334877 0.8694996 0.363081
vn 0.3093856 0.8683348 0.3876536
vn 0.4928687 0.868342 0.05533976
vn 0.334877 0.8694996 0.363081
vn 0.4935251 0.869503 0.01993942
vn 0.3876578 0.8683319 -0.3093882
vn 0.3630852 0.8694962 -0.3348812
vn 0.3876578 0.8683319 -0.3093882
vn 0.05534425 0.8683334 -0.4928835
vn 0.3630852 0.8694962 -0.3348812
vn 0.01994441 0.8694936 -0.4935415
vn -0.3093788 0.8683417 -0.3876436
vn -0.3348821 0.8694955 -0.3630862
vn 0.3093788 -0.8683417 0.3876435
vn 0.334885 -0.8694942 0.3630865
vn 0.4928716 -0.8683403 0.05534232
vn 0.4935391 -0.8694949 0.01994255
vn 0.3876605 -0.8683295 -0.3093918
vn 0.363088 -0.8694953 -0.3348807
vn 0.3876605 -0.8683295 -0.3093918
vn 0.363088 -0.8694953 -0.3348807
vn 0.05534211 -0.8683351 -0.4928808
vn 0.01994121 -0.8694975 -0.4935345
vn -0.3093844 -0.8683365 -0.3876507
vn -0.33488 -0.8694984 -0.3630812
vn -0.3093844 -0.8683365 -0.3876507
vn -0.33488 -0.8694984 -0.3630812
vn -0.4928703 -0.868341 -0.05534209
vn -0.4935253 -0.8695027 -0.01994449
vn -0.3876539 -0.8683335 0.3093889
vn -0.36308 -0.8695 0.3348772
vn -0.3876539 -0.8683335 0.3093889
vn -0.36308 -0.8695 0.3348772
vn -0.0553421 -0.8683351 0.4928808
vn -0.01994129 -0.869496 0.4935373
vn 0.3093788 -0.8683417 0.3876435
vn 0.334885 -0.8694942 0.3630865
vn -0.6317453 0.7362642 0.2425138
vn -0.2752262 0.736272 0.6181862
vn -0.6122206 0.737846 0.2841991
vn -0.2319468 0.7378484 0.6338615
vn 0.242498 0.7362865 0.6317254
vn 0.2841952 0.737846 0.6122226
vn 0.242498 0.7362865 0.6317254
vn 0.618181 0.7362731 0.2752346
vn 0.2841952 0.737846 0.6122226
vn 0.6338581 0.7378502 0.2319501
vn 0.6317343 0.7362735 -0.2425142
vn 0.6122066 0.7378618 -0.2841882
vn 0.6317343 0.7362735 -0.2425142
vn 0.2752264 0.7362612 -0.6181988
vn 0.6122066 0.7378618 -0.2841882
vn 0.2319526 0.7378483 -0.6338596
vn -0.2425059 0.7362735 -0.6317374
vn -0.2841964 0.7378328 -0.6122379
vn -0.2425059 0.7362735 -0.6317374
vn -0.6182018 0.736255 -0.2752365
vn -0.2841964 0.7378328 -0.6122379
vn -0.6338758 0.7378322 -0.2319593
vn -0.6317453 0.7362642 0.2425138
vn -0.6122206 0.737846 0.2841991
vn 0.6317404 -0.7362702 -0.2425085
vn 0.6122199 -0.737847 -0.2841983
vn 0.2752241 -0.7362782 -0.6181797
vn 0.2319478 -0.7378511 -0.6338581
vn -0.2425035 -0.7362844 -0.6317256
vn -0.2841932 -0.7378506 -0.612218
vn -0.2425035 -0.7362844 -0.6317256
vn -0.2841932 -0.7378506 -0.612218
vn -0.6181813 -0.7362731 -0.2752338
vn -0.6338516 -0.7378568 -0.2319472
vn -0.6317255 -0.7362826 0.2425094
vn -0.6122008 -0.7378667 0.2841882
vn -0.6317255 -0.7362826 0.2425094
vn -0.6122008 -0.7378667 0.2841882
vn -0.2752243 -0.7362688 0.6181907
vn -0.2319532 -0.7378502 0.633857
vn 0.2425006 -0.7362834 0.631728
vn 0.2841924 -0.7378384 0.612233
vn 0.2425006 -0.7362834 0.631728
vn 0.2841924 -0.7378384 0.612233
vn 0.6181967 -0.7362613 0.2752311
vn 0.6338728 -0.7378361 0.2319551
vn 0.6317404 -0.7362702 -0.2425085
vn 0.6122199 -0.737847 -0.2841983
g fruitCuberry_0
f 3/3/3 2/2/2 1/1/1
f 4/4/4 3/3/3 1/1/1
f 7/7/7 6/6/6 5/5/5
f 8/8/8 7/7/7 5/5/5
f 11/11/11 10/10/10 9/9/9
f 12/12/12 11/11/11 9/9/9
f 9/9/9 13/13/13 12/12/12
f 13/13/13 14/14/14 12/12/12
f 11/11/11 12/12/12 15/15/15
f 14/14/14 15/15/15 12/12/12
f 16/16/16 11/11/11 15/15/15
f 15/15/15 14/14/14 17/17/17
f 18/18/18 16/16/16 15/15/15
f 17/17/17 18/18/18 15/15/15
f 21/21/21 20/20/20 19/19/19
f 20/20/20 22/22/22 19/19/19
f 23/23/23 22/22/22 20/20/20
f 24/24/24 19/19/19 22/22/22
f 23/23/23 25/25/25 22/22/22
f 26/26/26 24/24/24 22/22/22
f 25/25/25 26/26/26 22/22/22
f 24/24/24 26/26/26 27/27/27
f 28/28/28 26/26/26 25/25/25
f 26/26/26 28/28/28 27/27/27
f 31/31/31 30/30/30 29/29/29
f 30/30/30 32/32/32 29/29/29
f 30/30/30 33/33/33 32/32/32
f 34/34/34 29/29/29 32/32/32
f 32/32/32 33/33/33 35/35/35
f 36/36/36 34/34/34 32/32/32
f 36/36/36 32/32/32 35/35/35
f 34/34/34 36/36/36 37/37/37
f 35/35/35 38/38/38 36/36/36
f 36/36/36 38/38/38 37/37/37
f 41/41/41 40/40/40 39/39/39
f 42/42/42 41/41/41 39/39/39
f 43/43/43 42/42/42 39/39/39
f 41/41/41 42/42/42 44/44/44
f 42/42/42 43/43/43 45/45/45
f 42/42/42 46/46/46 44/44/44
f 46/46/46 42/42/42 45/45/45
f 47/47/47 44/44/44 46/46/46
f 45/45/45 48/48/48 46/46/46
f 48/48/48 47/47/47 46/46/46
f 51/51/51 50/50/50 49/49/49
f 51/51/51 52/52/52 50/50/50
f 55/55/55 54/54/54 53/53/53
f 55/55/55 56/56/56 54/54/54
f 59/59/59 58/58/58 57/57/57
f 59/59/59 60/60/60 58/58/58
f 63/63/63 62/62/62 61/61/61
f 63/63/63 64/64/64 62/62/62
f 67/67/67 66/66/66 65/65/65
f 67/67/67 68/68/68 66/66/66
f 71/71/71 70/70/70 69/69/69
f 71/71/71 72/72/72 70/70/70
f 72/72/72 73/73/73 70/70/70
f 72/72/72 74/74/74 73/73/73
f 77/77/77 76/76/76 75/75/75
f 77/77/77 78/78/78 76/76/76
f 78/78/78 79/79/79 76/76/76
f 78/78/78 80/80/80 79/79/79
f 83/83/83 82/82/82 81/81/81
f 83/83/83 84/84/84 82/82/82
f 84/84/84 85/85/85 82/82/82
f 84/84/84 86/86/86 85/85/85
f 89/89/89 88/88/88 87/87/87
f 89/89/89 90/90/90 88/88/88
f 90/90/90 91/91/91 88/88/88
f 90/90/90 92/92/92 91/91/91
f 95/95/95 94/94/94 93/93/93
f 95/95/95 96/96/96 94/94/94
f 97/97/97 96/96/96 95/95/95
f 97/97/97 98/98/98 96/96/96
f 101/101/101 100/100/100 99/99/99
f 101/101/101 102/102/102 100/100/100
f 103/103/103 102/102/102 101/101/101
f 103/103/103 104/104/104 102/102/102
f 107/107/107 106/106/106 105/105/105
f 107/107/107 108/108/108 106/106/106
f 109/109/109 108/108/108 107/107/107
f 109/109/109 110/110/110 108/108/108
f 113/113/113 112/112/112 111/111/111
f 113/113/113 114/114/114 112/112/112
f 115/115/115 114/114/114 113/113/113
f 115/115/115 116/116/116 114/114/114
f 119/119/119 118/118/118 117/117/117
f 119/119/119 120/120/120 118/118/118
f 120/120/120 121/121/121 118/118/118
f 120/120/120 122/122/122 121/121/121
f 125/125/125 124/124/124 123/123/123
f 125/125/125 126/126/126 124/124/124
f 126/126/126 127/127/127 124/124/124
f 126/126/126 128/128/128 127/127/127
f 131/131/131 130/130/130 129/129/129
f 131/131/131 132/132/132 130/130/130
f 132/132/132 133/133/133 130/130/130
f 132/132/132 134/134/134 133/133/133
f 137/137/137 136/136/136 135/135/135
f 137/137/137 138/138/138 136/136/136
f 138/138/138 139/139/139 136/136/136
f 138/138/138 140/140/140 139/139/139
f 143/143/143 142/142/142 141/141/141
f 143/143/143 144/144/144 142/142/142
f 145/145/145 144/144/144 143/143/143
f 145/145/145 146/146/146 144/144/144
f 149/149/149 148/148/148 147/147/147
f 149/149/149 150/150/150 148/148/148
f 151/151/151 150/150/150 149/149/149
f 151/151/151 152/152/152 150/150/150
f 155/155/155 154/154/154 153/153/153
f 155/155/155 156/156/156 154/154/154
f 157/157/157 156/156/156 155/155/155
f 157/157/157 158/158/158 156/156/156
f 161/161/161 160/160/160 159/159/159
f 161/161/161 162/162/162 160/160/160
f 163/163/163 162/162/162 161/161/161
f 163/163/163 164/164/164 162/162/162
