g leaves_cube_COL
v -2.367377 1.705281 1.807519
v -2.398369 4.393666 1.584445
v -0.7460838 1.915807 1.564463
v -0.7519547 3.183007 1.4581
v 1.711703 4.393666 1.013422
v 1.724844 3.253697 1.108013
v 1.724844 3.253697 1.108013
v 1.711703 4.393666 1.013422
v 1.61666 3.369182 0.3293341
v 1.480893 2.660553 -0.647881
v 1.602773 2.701287 0.2293794
v 1.060549 3.997259 -3.673409
v 1.378696 2.626398 -1.383467
v 1.38246 1.921432 -1.356377
v 1.108219 -0.1378055 -3.330293
v 1.389928 0.5226207 -1.302626
v 1.552983 0.3066106 -0.1289991
v 1.656579 0.1960229 0.6166586
v 1.558647 0.5790081 -0.0882331
v -3.049523 3.997259 -3.102386
v 1.060549 3.997259 -3.673409
v -2.398369 4.393666 1.584445
v 1.711703 4.393666 1.013422
v -2.367377 1.705281 1.807519
v -2.633357 1.770798 -0.1069306
v -2.398369 4.393666 1.584445
v -3.049523 3.997259 -3.102386
v -2.673074 1.78058 -0.3928024
v -3.001853 -0.1378055 -2.759271
v -2.684223 0.05556025 -0.4730507
v 1.060549 3.997259 -3.673409
v -3.049523 3.997259 -3.102386
v 1.108219 -0.1378055 -3.330293
v -3.001853 -0.1378055 -2.759271
v -2.684223 0.05556025 -0.4730507
v -0.7252066 0.07231256 -0.5433287
v -3.001853 -0.1378055 -2.759271
v 1.108219 -0.1378055 -3.330293
v -0.4931687 0.07429682 -0.5516529
v 1.656579 0.1960229 0.6166586
v -0.4699343 0.1596832 0.4741515
v -0.4658588 0.1746603 0.6540841
v -0.7577299 1.863427 2.559779
v -0.7455603 -0.09825445 2.467619
v -3.389592 1.53777 2.640021
v -3.070012 -1.207564 2.500071
v -0.3757241 -0.09353552 2.454425
v -0.2861405 -0.8630979 2.415195
v -3.184218 -1.067545 -0.5074242
v -3.503799 1.67779 -0.3674746
v -3.070012 -1.207564 2.500071
v -3.389592 1.53777 2.640021
v -0.2861405 -0.8630979 2.415195
v -0.4003474 -0.7230787 -0.592301
v -3.070012 -1.207564 2.500071
v -3.184218 -1.067545 -0.5074242
v -2.673074 1.78058 -0.3928024
v -3.503799 1.67779 -0.3674746
v -2.684223 0.05556025 -0.4730507
v -3.184218 -1.067545 -0.5074242
v -0.4003474 -0.7230787 -0.592301
v -0.7252066 0.07231256 -0.5433287
v -0.4931687 0.07429682 -0.5516529
v -0.7460838 1.915807 1.564463
v -0.7577299 1.863427 2.559779
v -2.367377 1.705281 1.807519
v -3.389592 1.53777 2.640021
v -3.503799 1.67779 -0.3674746
v -2.633357 1.770798 -0.1069306
v -2.673074 1.78058 -0.3928024
v -0.4658588 0.1746603 0.6540841
v -0.2861405 -0.8630979 2.415195
v -0.3757241 -0.09353552 2.454425
v -0.4699343 0.1596832 0.4741515
v -0.4003474 -0.7230787 -0.592301
v -0.4931687 0.07429682 -0.5516529
v 1.552983 0.3066106 -0.1289991
v 1.656579 0.1960229 0.6166586
v 2.514504 0.3120336 -0.1174629
v 2.477318 -0.186084 3.216113
v -0.7534774 -0.2043058 3.177351
v -0.3757241 -0.09353552 2.454425
v -0.4658588 0.1746603 0.6540841
v -0.7455603 -0.09825445 2.467619
v -0.7519547 3.183007 1.4581
v -0.776234 2.857778 3.634647
v -0.7460838 1.915807 1.564463
v -0.7577299 1.863427 2.559779
v -0.7534774 -0.2043058 3.177351
v -0.7455603 -0.09825445 2.467619
v 1.558647 0.5790081 -0.0882331
v 1.552983 0.3066106 -0.1289991
v 2.51286 0.533236 -0.08442824
v 2.514504 0.3120336 -0.1174629
v -0.776234 2.857778 3.634647
v 2.454561 2.876 3.67341
v -0.7534774 -0.2043058 3.177351
v 2.477318 -0.186084 3.216113
v 1.61666 3.369182 0.3293341
v 2.491747 3.374117 0.3398332
v 1.724844 3.253697 1.108013
v 2.454561 2.876 3.67341
v -0.776234 2.857778 3.634647
v -0.7519547 3.183007 1.4581
v 2.499201 0.5928863 1.025981
v 3.402777 0.5362865 0.7800547
v 2.51286 0.533236 -0.08442824
v 2.730512 0.4386468 -1.667492
v 1.389928 0.5226207 -1.302626
v 1.558647 0.5790081 -0.0882331
v 2.497066 2.658389 0.2329453
v 2.488307 2.696642 0.945048
v 2.491747 3.374117 0.3398332
v 2.454561 2.876 3.67341
v 2.477318 -0.186084 3.216113
v 2.499201 0.5928863 1.025981
v 2.51286 0.533236 -0.08442824
v 2.514504 0.3120336 -0.1174629
v 1.61666 3.369182 0.3293341
v 1.602773 2.701287 0.2293794
v 2.491747 3.374117 0.3398332
v 2.497066 2.658389 0.2329453
v 1.378696 2.626398 -1.383467
v 1.38246 1.921432 -1.356377
v 2.831534 2.535393 -1.778885
v 2.730512 0.4386468 -1.667492
v 1.389928 0.5226207 -1.302626
v 3.402777 0.5362865 0.7800547
v 3.503799 2.633033 0.6686617
v 2.730512 0.4386468 -1.667492
v 2.831534 2.535393 -1.778885
v 3.402777 0.5362865 0.7800547
v 2.499201 0.5928863 1.025981
v 3.503799 2.633033 0.6686617
v 2.488307 2.696642 0.945048
v 2.488307 2.696642 0.945048
v 2.497066 2.658389 0.2329453
v 3.503799 2.633033 0.6686617
v 2.831534 2.535393 -1.778885
v 1.378696 2.626398 -1.383467
v 1.480893 2.660553 -0.647881
v 1.602773 2.701287 0.2293794
vt 0.375 0.08746416
vt 0.375 0.25
vt 0.4737647 0.1001922
vt 0.4742962 0.1768054
vt 0.625 0.25
vt 0.625 0.1810791
vt 0.625 0.1810791
vt 0.625 0.25
vt 0.6657385 0.1919666
vt 0.7206153 0.1543847
vt 0.6739685 0.1523756
vt 0.875 0.25
vt 0.7597288 0.1560693
vt 0.7613924 0.1136076
vt 0.875 0
vt 0.7646933 0.02935389
vt 0.7034767 0.01042574
vt 0.6644658 0
vt 0.7001201 0.02657271
vt 0.375 0.5
vt 0.625 0.5
vt 0.375 0.25
vt 0.625 0.25
vt 0.375 0.08746416
vt 0.2738811 0.1011189
vt 0.375 0.25
vt 0.125 0.25
vt 0.2587817 0.1031579
vt 0.125 0
vt 0.2469491 0
vt 0.625 0.5
vt 0.375 0.5
vt 0.625 0.75
vt 0.375 0.75
vt 0.375 0.8719491
vt 0.4924856 0.8825144
vt 0.375 0.75
vt 0.625 0.75
vt 0.5064014 0.8837658
vt 0.625 0.9605341
vt 0.4992832 0.9376159
vt 0.4980347 0.9470615
vt 0.6113492 0.25
vt 0.5922105 0.07376358
vt 0.375 0.25
vt 0.375 0
vt 0.625 0.07007912
vt 0.625 0
vt 0.125 0
vt 0.125 0.25
vt 0.375 0
vt 0.375 0.25
vt 0.625 1
vt 0.625 0.75
vt 0.375 1
vt 0.375 0.75
vt 0.4496017 0.5
vt 0.375 0.5
vt 0.4308376 0.6547322
vt 0.375 0.75
vt 0.625 0.75
vt 0.6044378 0.6749889
vt 0.625 0.6773881
vt 0.615784 0.3326111
vt 0.6113492 0.25
vt 0.4695275 0.3165345
vt 0.375 0.25
vt 0.375 0.5
vt 0.4521905 0.4761637
vt 0.4496017 0.5
vt 0.775434 0.08682948
vt 0.625 0
vt 0.625 0.07007912
vt 0.7902922 0.08470778
vt 0.875 0
vt 0.875 0.07261188
vt 0.5505972 0.75
vt 0.559256 0.8058196
vt 0.625 0.75
vt 0.625 1
vt 0.375 1
vt 0.4036028 0.9454519
vt 0.3950753 0.8105353
vt 0.375 0.946774
vt 0.2117709 0.25
vt 0.375 0.25
vt 0.233456 0.1500686
vt 0.3070437 0.1577628
vt 0.375 0
vt 0.321774 -1.089426E-18
vt 0.5511921 0.727764
vt 0.5505972 0.75
vt 0.625 0.7319402
vt 0.625 0.75
vt 0.375 0.25
vt 0.625 0.25
vt 0.375 0
vt 0.625 0
vt 0.5572855 0.5
vt 0.625 0.5
vt 0.5663278 0.4417084
vt 0.625 0.25
vt 0.375 0.25
vt 0.375 0.4132291
vt 0.5077294 1
vt 0.625 1
vt 0.5462092 0.8948219
vt 0.625 0.75
vt 0.4510122 0.75
vt 0.4311069 0.869778
vt 0.875 0.1915653
vt 0.823181 0.203118
vt 0.875 0.25
vt 0.625 0.25
vt 0.625 0
vt 0.7941967 0.03607438
vt 0.875 0.01805979
vt 0.875 0
vt 0.5572855 0.5
vt 0.5558269 0.5545207
vt 0.625 0.5
vt 0.625 0.5584347
vt 0.4364434 0.5
vt 0.4413253 0.5837738
vt 0.625 0.5
vt 0.625 0.75
vt 0.4510122 0.75
vt 0.625 0
vt 0.625 0.25
vt 0.875 0
vt 0.875 0.25
vt 0.625 0
vt 0.5077294 -4.20951E-18
vt 0.625 0.25
vt 0.4932044 0.25
vt 0.4932044 0.25
vt 0.5178814 0.3174505
vt 0.625 0.25
vt 0.625 0.5
vt 0.4364434 0.5
vt 0.4243864 0.4274477
vt 0.410007 0.3409217
vn 0.1371306 0.08348174 0.9870288
vn 0.1371305 0.08348173 0.9870288
vn 0.1371305 0.0834817 0.9870288
vn 0.1371304 0.08348169 0.987029
vn 0.1371304 0.08348168 0.987029
vn 0.1371303 0.08348162 0.987029
vn 0.9904863 0 -0.1376108
vn 0.9904863 0 -0.1376109
vn 0.9904863 4.455665E-07 -0.137611
vn 0.9904863 0 -0.1376108
vn 0.9904864 3.324837E-07 -0.1376104
vn 0.9904863 0 -0.1376108
vn 0.9904863 1.346069E-07 -0.137611
vn 0.9904863 0 -0.1376109
vn 0.9904863 0 -0.1376109
vn 0.9904863 -2.49017E-07 -0.137611
vn 0.9904864 0 -0.1376106
vn 0.9904864 5.644956E-07 -0.1376105
vn 0.9904864 -1.177809E-06 -0.1376105
vn -0.01148799 0.9965093 -0.08268734
vn -0.01148798 0.9965093 -0.0826874
vn -0.01148798 0.9965093 -0.08268742
vn -0.01148798 0.9965093 -0.08268748
vn -0.9904863 0 0.1376109
vn -0.9904863 -1.541343E-07 0.1376109
vn -0.9904863 -2.016701E-07 0.1376108
vn -0.9904863 -1.272838E-07 0.1376109
vn -0.9904863 2.410208E-07 0.1376109
vn -0.9904863 0 0.1376109
vn -0.9904863 0 0.1376108
vn -0.1371307 -0.0834818 -0.9870288
vn -0.1371306 -0.08348175 -0.9870288
vn -0.1371306 -0.08348175 -0.9870288
vn -0.1371305 -0.0834817 -0.9870288
vn 0.01148789 -0.9965093 0.0826876
vn 0.01148796 -0.9965093 0.08268736
vn 0.01148796 -0.9965093 0.08268733
vn 0.011488 -0.9965093 0.08268725
vn 0.01148803 -0.9965093 0.08268733
vn 0.008701006 -0.9970925 -0.07570257
vn 0.01148796 -0.9965093 0.08268781
vn 0.007748524 -0.9919038 -0.1267549
vn 0.03621078 -0.04667311 0.9982536
vn 0.03621056 -0.04667309 0.9982536
vn 0.03621062 -0.04667306 0.9982536
vn 0.03621053 -0.04667302 0.9982536
vn 0.03621056 -0.04667289 0.9982536
vn 0.03621062 -0.04667287 0.9982536
vn -0.9925862 -0.1171891 0.03223657
vn -0.9925863 -0.117189 0.03223659
vn -0.9925863 -0.117189 0.0322366
vn -0.9925863 -0.117189 0.03223663
vn 0.1211175 -0.9913399 -0.05075264
vn 0.1211174 -0.9913399 -0.05075288
vn 0.1211174 -0.9913399 -0.05075286
vn 0.1211174 -0.9913399 -0.05075309
vn -0.03621066 0.04667298 -0.9982536
vn -0.03621065 0.04667301 -0.9982536
vn -0.03621064 0.04667304 -0.9982536
vn -0.03621064 0.04667304 -0.9982536
vn -0.03621064 0.04667303 -0.9982536
vn -0.03621064 0.04667302 -0.9982536
vn -0.03621052 0.046673 -0.9982536
vn -0.1211175 0.9913399 0.05075377
vn -0.1211174 0.9913399 0.05075275
vn -0.1211173 0.9913399 0.05075227
vn -0.1211173 0.9913399 0.05075232
vn -0.1211173 0.9913399 0.05075315
vn -0.1211173 0.9913399 0.05075331
vn -0.121117 0.9913399 0.05075385
vn 0.9925862 0.1171892 -0.03223631
vn 0.9925863 0.1171888 -0.03223663
vn 0.9925863 0.1171888 -0.03223659
vn 0.9925863 0.1171889 -0.03223666
vn 0.9925863 0.1171889 -0.03223666
vn 0.9925863 0.1171888 -0.03223661
vn 0.007350067 -0.989005 -0.1476989
vn 0.008701006 -0.9970925 -0.07570257
vn 0.007350078 -0.989005 -0.1476992
vn 0.007350089 -0.989005 -0.1476993
vn 0.007350086 -0.989005 -0.1476994
vn 0.007350055 -0.9890049 -0.1476999
vn 0.007748524 -0.9919038 -0.1267549
vn 0.007349702 -0.9890049 -0.1477
vn -0.9999121 -0.005639448 -0.01199666
vn -0.9999121 -0.005639493 -0.01199666
vn -0.9999121 -0.005639481 -0.01199667
vn -0.9999121 -0.005639547 -0.01199667
vn -0.9999121 -0.005639463 -0.01199664
vn -0.9999121 -0.005639439 -0.01199664
vn 0.01103192 0.1477745 -0.9889596
vn 0.01103191 0.1477744 -0.9889596
vn 0.01103186 0.147774 -0.9889597
vn 0.01103185 0.1477738 -0.9889597
vn -0.01103195 -0.1477747 0.9889596
vn -0.01103191 -0.1477747 0.9889596
vn -0.01103191 -0.1477747 0.9889596
vn -0.01103187 -0.1477747 0.9889596
vn -0.007349842 0.9890049 0.1476999
vn -0.007349968 0.9890049 0.1476995
vn -0.007350008 0.9890049 0.1476995
vn -0.007349973 0.9890049 0.1476999
vn -0.007350035 0.989005 0.1476995
vn -0.007350142 0.9890051 0.1476986
vn -0.04805681 -0.997438 0.05299071
vn -0.0480568 -0.997438 0.05299059
vn -0.04805685 -0.997438 0.05299038
vn -0.04805693 -0.997438 0.05298996
vn -0.04805693 -0.997438 0.05299008
vn -0.04805683 -0.997438 0.05299092
vn 0.9999121 0.00563965 0.01199659
vn 0.9999121 0.005639417 0.01199668
vn 0.9999121 0.005639289 0.01199665
vn 0.9999121 0.005639448 0.01199668
vn 0.9999121 0.005639502 0.01199668
vn 0.9999121 0.005639319 0.01199667
vn 0.9999121 0.005640784 0.01199669
vn 0.9999121 0.005641374 0.0119967
vn 0.01103198 0.1477744 -0.9889596
vn 0.01103195 0.1477746 -0.9889596
vn 0.01103194 0.1477746 -0.9889596
vn 0.01103191 0.1477748 -0.9889596
vn -0.2646639 -0.0384399 -0.9635743
vn -0.2646639 -0.03843992 -0.9635743
vn -0.2646638 -0.03843991 -0.9635743
vn -0.2646639 -0.03843992 -0.9635743
vn -0.264664 -0.03843992 -0.9635743
vn 0.9631425 -0.06033098 -0.2621385
vn 0.9631425 -0.06033093 -0.2621386
vn 0.9631425 -0.06033093 -0.2621386
vn 0.9631425 -0.06033088 -0.2621386
vn 0.2646637 0.03843993 0.9635743
vn 0.2646637 0.03843993 0.9635743
vn 0.2646638 0.0384399 0.9635743
vn 0.2646638 0.03843989 0.9635743
vn 0.04805647 0.9974381 -0.0529897
vn 0.04805672 0.997438 -0.05299048
vn 0.04805664 0.997438 -0.05299036
vn 0.04805677 0.997438 -0.05299069
vn 0.0480568 0.997438 -0.05299063
vn 0.04805695 0.9974381 -0.05298968
vn 0.048057 0.997438 -0.05299058
g leaves_cube_COL_0
f 3/3/3 2/2/2 1/1/1
f 4/4/4 2/2/2 3/3/3
f 4/4/4 5/5/5 2/2/2
f 5/5/5 4/4/4 6/6/6
f 9/9/9 8/8/8 7/7/7
f 9/9/9 10/10/10 8/8/8
f 9/9/9 11/11/11 10/10/10
f 10/10/10 12/12/12 8/8/8
f 13/13/13 12/12/12 10/10/10
f 14/14/14 12/12/12 13/13/13
f 12/12/12 14/14/14 15/15/15
f 16/16/16 15/15/15 14/14/14
f 16/16/16 17/17/17 15/15/15
f 15/15/15 17/17/17 18/18/18
f 17/17/17 16/16/16 19/19/19
f 22/22/22 21/21/21 20/20/20
f 22/22/22 23/23/23 21/21/21
f 26/26/26 25/25/25 24/24/24
f 26/26/26 27/27/27 25/25/25
f 27/27/27 28/28/28 25/25/25
f 29/29/29 28/28/28 27/27/27
f 30/30/30 28/28/28 29/29/29
f 33/33/33 32/32/32 31/31/31
f 33/33/33 34/34/34 32/32/32
f 37/37/37 36/36/36 35/35/35
f 37/37/37 38/38/38 36/36/36
f 38/38/38 39/39/39 36/36/36
f 40/40/40 39/39/39 38/38/38
f 39/39/39 40/40/40 41/41/41
f 41/41/41 40/40/40 42/42/42
f 45/45/45 44/44/44 43/43/43
f 46/46/46 44/44/44 45/45/45
f 47/47/47 44/44/44 46/46/46
f 47/47/47 46/46/46 48/48/48
f 51/51/51 50/50/50 49/49/49
f 51/51/51 52/52/52 50/50/50
f 55/55/55 54/54/54 53/53/53
f 55/55/55 56/56/56 54/54/54
f 59/59/59 58/58/58 57/57/57
f 59/59/59 60/60/60 58/58/58
f 59/59/59 61/61/61 60/60/60
f 62/62/62 61/61/61 59/59/59
f 61/61/61 62/62/62 63/63/63
f 66/66/66 65/65/65 64/64/64
f 66/66/66 67/67/67 65/65/65
f 66/66/66 68/68/68 67/67/67
f 69/69/69 68/68/68 66/66/66
f 68/68/68 69/69/69 70/70/70
f 73/73/73 72/72/72 71/71/71
f 71/71/71 72/72/72 74/74/74
f 74/74/74 72/72/72 75/75/75
f 75/75/75 76/76/76 74/74/74
f 79/79/79 78/78/78 77/77/77
f 80/80/80 78/78/78 79/79/79
f 81/81/81 78/78/78 80/80/80
f 81/81/81 82/82/82 78/78/78
f 78/78/78 82/82/82 83/83/83
f 84/84/84 82/82/82 81/81/81
f 87/87/87 86/86/86 85/85/85
f 88/88/88 86/86/86 87/87/87
f 88/88/88 89/89/89 86/86/86
f 90/90/90 89/89/89 88/88/88
f 93/93/93 92/92/92 91/91/91
f 93/93/93 94/94/94 92/92/92
f 97/97/97 96/96/96 95/95/95
f 97/97/97 98/98/98 96/96/96
f 101/101/101 100/100/100 99/99/99
f 101/101/101 102/102/102 100/100/100
f 101/101/101 103/103/103 102/102/102
f 101/101/101 104/104/104 103/103/103
f 107/107/107 106/106/106 105/105/105
f 107/107/107 108/108/108 106/106/106
f 107/107/107 109/109/109 108/108/108
f 107/107/107 110/110/110 109/109/109
f 113/113/113 112/112/112 111/111/111
f 114/114/114 112/112/112 113/113/113
f 115/115/115 112/112/112 114/114/114
f 115/115/115 116/116/116 112/112/112
f 117/117/117 116/116/116 115/115/115
f 117/117/117 115/115/115 118/118/118
f 121/121/121 120/120/120 119/119/119
f 121/121/121 122/122/122 120/120/120
f 125/125/125 124/124/124 123/123/123
f 126/126/126 124/124/124 125/125/125
f 127/127/127 124/124/124 126/126/126
f 130/130/130 129/129/129 128/128/128
f 130/130/130 131/131/131 129/129/129
f 134/134/134 133/133/133 132/132/132
f 134/134/134 135/135/135 133/133/133
f 138/138/138 137/137/137 136/136/136
f 139/139/139 137/137/137 138/138/138
f 140/140/140 137/137/137 139/139/139
f 141/141/141 137/137/137 140/140/140
f 142/142/142 137/137/137 141/141/141
