g crest_hen
v 0 0.4535921 0.4846648
v 0.05154313 0.3720018 0.4419331
v 0.04649756 0.3316202 0.4488325
v 0 0.2909783 0.3548314
v 0.0538925 0.2911978 0.4691203
v 0 0.3294349 0.5331817
v 0 0.3864386 0.5006748
v 0 0.4535921 0.4846648
v -0.04649756 0.3316202 0.4488325
v -0.05154313 0.3720018 0.4419331
v 0 0.4535921 0.4846648
v -0.0538925 0.2911978 0.4691203
v 0 0.2555444 0.5293653
v 0 0.2465401 0.3689364
v 0 0.2157051 0.4799594
v 0 0.2159979 0.4151742
v 0 1.019731 0.4008693
v -0.04521562 0.9790566 0.3831013
v 0 0.9838552 0.3104005
v 0 1.007252 0.4991372
v -0.04519436 0.9796216 0.4807467
v 0 0.969817 0.5677687
v -0.06884106 0.9217064 0.4211003
v -0.03184734 0.8678485 0.3552424
v 0 0.7888795 0.5022568
v -0.04111434 0.9307024 0.528025
v 0 0.969817 0.5677687
v 0 0.9230228 0.2698456
v 0 0.9838552 0.3104005
v 0.04521562 0.9790566 0.3831013
v 0.03184734 0.8678485 0.3552424
v 0 1.019731 0.4008693
v 0 1.007252 0.4991372
v 0.04519436 0.9796216 0.4807467
v 0.06884106 0.9217064 0.4211003
v 0.04111434 0.9307024 0.528025
v 0 0.9152238 0.5989648
v 0 0.8372335 0.5693285
v 0 0.7709844 0.4279692
v -0.05286599 0.8066855 0.3399677
v -0.05052023 0.8255461 0.2885073
v 0.05286599 0.8066855 0.3399677
v 0.05052023 0.8255461 0.2885073
v 0 0.8664083 0.2558908
vt 0.4778019 0.8082627
vt 0.510788 0.7594351
vt 0.5054621 0.7352687
vt 0.5780245 0.7109466
vt 0.4898013 0.711078
vt 0.4403502 0.7339609
vt 0.4654434 0.7680748
vt 0.4778019 0.8082627
vt 0.5054621 0.7352687
vt 0.510788 0.7594351
vt 0.4778019 0.8082627
vt 0.4898013 0.711078
vt 0.4432962 0.6897411
vt 0.5671364 0.6843525
vt 0.4814342 0.6658994
vt 0.531444 0.6660746
vt 0.5655549 0.9784907
vt 0.5792707 0.9541492
vt 0.6353906 0.9570211
vt 0.4896988 0.9710229
vt 0.503895 0.9544873
vt 0.43672 0.9486198
vt 0.549938 0.9198279
vt 0.6007757 0.8875965
vt 0.4872907 0.8403376
vt 0.4673994 0.9252116
vt 0.43672 0.9486198
vt 0.6666964 0.9206157
vt 0.6353906 0.9570211
vt 0.5792707 0.9541492
vt 0.6007757 0.8875965
vt 0.5655549 0.9784907
vt 0.4896988 0.9710229
vt 0.503895 0.9544873
vt 0.549938 0.9198279
vt 0.4673994 0.9252116
vt 0.4126387 0.9159483
vt 0.435516 0.8692752
vt 0.5446357 0.8296284
vt 0.6125667 0.8509938
vt 0.6522907 0.8622809
vt 0.6125667 0.8509938
vt 0.6522907 0.8622809
vt 0.6774684 0.8867348
vn 0 0.1555813 0.987823
vn 0.8645169 0.05471604 0.4996165
vn 0.9925928 0.08063602 0.0908711
vn 0 -0.2304097 -0.9730937
vn 0.9925635 -0.06775933 0.1011253
vn 0 0.3724672 0.9280453
vn 0 0.3179161 0.9481189
vn 0 0.1555813 0.987823
vn -0.9925928 0.08063601 0.09087116
vn -0.8645172 0.05471598 0.4996162
vn 0 0.1555813 0.987823
vn -0.9925635 -0.06775936 0.1011254
vn 0 -0.4393004 0.8983403
vn 0 -0.4387366 -0.8986157
vn 0 -0.9579799 0.2868354
vn 0 -0.9446674 -0.3280295
vn 0 0.9992962 -0.03751238
vn -0.8490027 0.4750115 -0.2314274
vn 0 0.7004432 -0.7137082
vn 0 0.9414958 0.3370246
vn -0.7804834 0.5918294 0.201454
vn 0 0.7092956 0.7049111
vn -0.9775721 -0.2091652 -0.02454837
vn -0.9863911 -0.1060032 -0.125682
vn 0 -0.937289 0.3485531
vn -0.9307094 -0.001756974 0.3657551
vn 0 0.7092956 0.7049111
vn 0 0.1744801 -0.9846607
vn 0 0.7004432 -0.7137082
vn 0.8490025 0.4750115 -0.2314275
vn 0.9863909 -0.1060033 -0.1256823
vn 0 0.9992962 -0.03751238
vn 0 0.9414958 0.3370246
vn 0.7804834 0.5918294 0.201454
vn 0.9775721 -0.2091653 -0.02454871
vn 0.9307095 -0.001756938 0.365755
vn 0 -0.07975401 0.9968145
vn 0 -0.6874912 0.7261927
vn 0 -0.7720852 0.6355191
vn -0.889597 0.2036033 0.4088555
vn -0.7925313 0.5904501 -0.1525213
vn 0.8895971 0.2036033 0.4088553
vn 0.7925314 0.59045 -0.1525216
vn 0 0.752076 -0.6590765
g crest_hen_0
f 3/3/3 2/2/2 1/1/1
f 3/3/3 4/4/4 2/2/2
f 3/3/3 5/5/5 4/4/4
f 6/6/6 5/5/5 3/3/3
f 7/7/7 6/6/6 3/3/3
f 7/7/7 3/3/3 8/8/8
f 9/9/9 7/7/7 8/8/8
f 6/6/6 7/7/7 9/9/9
f 4/4/4 9/9/9 10/10/10
f 10/10/10 9/9/9 11/11/11
f 12/12/12 6/6/6 9/9/9
f 12/12/12 9/9/9 4/4/4
f 6/6/6 13/13/13 5/5/5
f 13/13/13 6/6/6 12/12/12
f 5/5/5 14/14/14 4/4/4
f 14/14/14 12/12/12 4/4/4
f 13/13/13 15/15/15 5/5/5
f 15/15/15 13/13/13 12/12/12
f 5/5/5 16/16/16 14/14/14
f 16/16/16 12/12/12 14/14/14
f 5/5/5 15/15/15 16/16/16
f 15/15/15 12/12/12 16/16/16
f 19/19/19 18/18/18 17/17/17
f 17/17/17 18/18/18 20/20/20
f 18/18/18 21/21/21 20/20/20
f 20/20/20 21/21/21 22/22/22
f 23/23/23 21/21/21 18/18/18
f 18/18/18 24/24/24 23/23/23
f 23/23/23 24/24/24 25/25/25
f 23/23/23 26/26/26 21/21/21
f 25/25/25 26/26/26 23/23/23
f 21/21/21 26/26/26 27/27/27
f 28/28/28 24/24/24 18/18/18
f 29/29/29 28/28/28 18/18/18
f 28/28/28 29/29/29 30/30/30
f 31/31/31 28/28/28 30/30/30
f 30/30/30 29/29/29 32/32/32
f 30/30/30 32/32/32 33/33/33
f 34/34/34 30/30/30 33/33/33
f 34/34/34 33/33/33 27/27/27
f 34/34/34 35/35/35 30/30/30
f 31/31/31 30/30/30 35/35/35
f 31/31/31 35/35/35 25/25/25
f 36/36/36 35/35/35 34/34/34
f 36/36/36 34/34/34 27/27/27
f 36/36/36 25/25/25 35/35/35
f 27/27/27 26/26/26 37/37/37
f 36/36/36 27/27/27 37/37/37
f 37/37/37 26/26/26 38/38/38
f 36/36/36 37/37/37 38/38/38
f 36/36/36 38/38/38 25/25/25
f 38/38/38 26/26/26 25/25/25
f 25/25/25 24/24/24 39/39/39
f 31/31/31 25/25/25 39/39/39
f 39/39/39 24/24/24 40/40/40
f 40/40/40 24/24/24 41/41/41
f 31/31/31 39/39/39 42/42/42
f 31/31/31 42/42/42 43/43/43
f 41/41/41 24/24/24 44/44/44
f 31/31/31 43/43/43 44/44/44
f 24/24/24 28/28/28 44/44/44
f 28/28/28 31/31/31 44/44/44
