g crest_roost
v 0 0.1916032 0.30645
v 0 0.09274427 0.2524412
v 0.04917014 0.2156505 0.3678721
v 0.09570274 0.303727 0.3205924
v 0 0.1916032 0.30645
v 0.0599365 0.265718 0.4030653
v 0.07974774 0.374715 0.4213688
v 0.05154312 0.3720018 0.4419331
v 0 0.1840028 0.398501
v 0.04657258 0.2288362 0.448266
v 0 0.12387 0.3294221
v 0 0.09274427 0.2524412
v -0.04917014 0.2156505 0.3678721
v -0.09570274 0.303727 0.3205924
v -0.0599365 0.265718 0.4030653
v -0.07974774 0.374715 0.4213688
v -0.04657258 0.2288362 0.448266
v -0.05154312 0.3720018 0.4419331
v 0.03592038 0.2269654 0.4833681
v 0 0.1576464 0.4617565
v -0.03592038 0.2269654 0.4833681
v 0 0.2324986 0.5123608
v 0 0.3073509 0.4881129
v 0 0.3843117 0.4786246
v 0 0.4517841 0.4870586
v 0.0316548 0.1507434 0.4936163
v 0 0.143941 0.5250119
v 0 0.1576464 0.4617565
v 0 0.02902698 0.463865
v 0 0.0754143 0.504981
v 0 0.02902698 0.463865
v -0.0316548 0.1507434 0.4936163
v 0 0.143941 0.5250119
v 0 0.2324986 0.5123608
v -0.03854328 0.1702158 0.4305848
v 0 0.0816796 0.4169154
v 0 0.1576464 0.4617565
v 0 0.02902698 0.463865
v 0 0.3073509 0.4881129
v 0 0.3843117 0.4786246
v 0 0.4517841 0.4870586
v 0 0.0816796 0.4169154
v 0.03854328 0.1702158 0.4305848
v 0 0.1840028 0.398501
v -0.03854328 0.1702158 0.4305848
v 0 0.03105516 0.3465111
v 0 0.03105516 0.3465111
v 0 0.0816796 0.4169154
v 0.03854328 0.1702158 0.4305848
v 0 0.1840028 0.398501
v 0 0.03105516 0.3465111
v 0 1.223639 0.2939956
v 0 1.09251 0.2908209
v 0.02943432 1.089722 0.3176608
v 0.02943432 1.089722 0.3176608
v 0 1.076146 0.2662067
v 0.04698693 1.06302 0.3218578
v 0.05198696 1.016904 0.2739719
v 0.07043476 1.000101 0.3613487
v 0 0.9521813 0.2838473
v 0.0377331 0.8869601 0.3882338
v 0 0.9827977 0.2304748
v 0.04429463 1.014919 0.2043223
v 0 1.047623 0.177696
v 0.02588996 1.015701 0.1334412
v 0 0.9827977 0.2304748
v 0 1.036171 0.1300881
v 0 1.033605 0.0399771
v 0.08555073 0.9306481 0.4263204
v 0.04700707 1.006335 0.4255664
v 0 1.050986 0.3728738
v 0.07043476 1.000101 0.3613487
v 0.02943432 1.089722 0.3176608
v 0 1.086949 0.3443492
v 0 1.223639 0.2939956
v 0.04781694 0.8402229 0.4453917
v 0.0474412 0.9081588 0.4850453
v 0.05635397 0.7533988 0.414594
v 0.05286599 0.8066855 0.3399677
v 0.05052022 0.8255459 0.2885072
v 0 0.9025477 0.2888094
v 0 0.8664083 0.2558908
v -0.05052022 0.8255459 0.2885072
v -0.0377331 0.8869601 0.3882338
v -0.05286599 0.8066855 0.3399677
v -0.05635397 0.7533988 0.414594
v 0.06103279 0.7772197 0.4556759
v 0 0.799871 0.4947408
v 0.04282252 0.7513359 0.4861364
v 0 0.7045134 0.4778357
v 0 0.7162485 0.5258352
v -0.04282252 0.7513359 0.4861364
v 0 0.760833 0.5439816
v 0 0.799871 0.4947408
v 0 0.799871 0.4947408
v 0 0.8566108 0.4918329
v -0.04781694 0.8402229 0.4453917
v -0.06103279 0.7772197 0.4556759
v 0 0.799871 0.4947408
v 0.02943432 0.9300644 0.5236629
v 0 0.9037224 0.5377349
v 0 0.9969364 0.5797161
v 0 0.9619348 0.4779642
v -0.08555073 0.9306481 0.4263204
v -0.07043476 1.000101 0.3613487
v -0.05198696 1.016904 0.2739719
v 0 0.9827977 0.2304748
v -0.04429463 1.014919 0.2043223
v -0.0474412 0.9081588 0.4850453
v -0.04700707 1.006335 0.4255664
v 0 0.8566108 0.4918329
v -0.02943432 0.9300644 0.5236629
v 0 0.9037224 0.5377349
v 0 0.9969364 0.5797161
v 0 0.9604703 0.5074199
v 0 0.9619348 0.4779642
v 0 0.9619348 0.4779642
v 0 1.050986 0.3728738
v -0.08555073 0.9306481 0.4263204
v 0 0.9619348 0.4779642
v -0.02980949 1.048427 0.4319689
v 0 1.050986 0.3728738
v 0 1.04196 0.4534864
v 0 1.179876 0.4543456
v 0 1.05697 0.4035486
v 0 1.179876 0.4543456
v 0 1.05697 0.4035486
v 0.02980949 1.048427 0.4319689
v 0 1.04196 0.4534864
v 0 1.179876 0.4543456
v 0 0.9619348 0.4779642
v 0 1.050986 0.3728738
v 0.08555073 0.9306481 0.4263204
v -0.07043476 1.000101 0.3613487
v -0.04698693 1.06302 0.3218578
v -0.02943432 1.089722 0.3176608
v 0 1.086949 0.3443492
v 0 1.223639 0.2939956
v 0 1.076146 0.2662067
v -0.02943432 1.089722 0.3176608
v 0 1.09251 0.2908209
v 0 1.223639 0.2939956
v -0.02943432 1.089722 0.3176608
v -0.03830857 1.061685 0.2213313
v -0.02895697 1.085848 0.198083
v 0 1.076146 0.2662067
v -0.02895697 1.085848 0.198083
v 0 1.098932 0.2214707
v 0 1.174394 0.1434594
v 0 1.076928 0.1821388
v 0.02895697 1.085848 0.198083
v 0 1.047623 0.177696
v 0 1.047623 0.177696
v -0.02588996 1.015701 0.1334412
v 0 0.9827977 0.2304748
v 0 1.036171 0.1300881
v 0 1.033605 0.0399771
v 0 1.033605 0.0399771
v 0 0.9961021 0.1366517
v 0 0.9827977 0.2304748
v 0.02895697 1.085848 0.198083
v 0.03830857 1.061685 0.2213313
v 0 1.076146 0.2662067
v 0.02895697 1.085848 0.198083
v 0 1.098932 0.2214707
v 0 1.174394 0.1434594
v -0.02895697 1.085848 0.198083
v 0 1.076928 0.1821388
v 0 1.047623 0.177696
v 0 0.1916032 0.30645
v 0 0.09274427 0.2524412
v 0 1.033605 0.0399771
v 0 0.9961021 0.1366517
v 0 0.9827977 0.2304748
vt 0.9277716 0.2073519
vt 0.9765834 0.1142527
vt 0.8722598 0.2299981
vt 0.9149904 0.3129429
vt 0.9277716 0.2073519
vt 0.8404525 0.2771484
vt 0.8239109 0.3797951
vt 0.8053262 0.3772399
vt 0.8445782 0.2001942
vt 0.7996019 0.2424155
vt 0.9070101 0.1435649
vt 0.9765834 0.1142527
vt 0.8722598 0.2299981
vt 0.9149904 0.3129429
vt 0.8404525 0.2771484
vt 0.8239109 0.3797951
vt 0.7996019 0.2424155
vt 0.8053262 0.3772399
vt 0.7678778 0.2406538
vt 0.7874098 0.1753734
vt 0.7678778 0.2406538
vt 0.7416748 0.2458646
vt 0.7635896 0.3163557
vt 0.7721648 0.3888325
vt 0.764542 0.4523739
vt 0.7586158 0.1688726
vt 0.7302411 0.1624665
vt 0.7874098 0.1753734
vt 0.785504 0.05424765
vt 0.7483444 0.0979324
vt 0.785504 0.05424765
vt 0.7586158 0.1688726
vt 0.7302411 0.1624665
vt 0.7416748 0.2458646
vt 0.8155815 0.1872105
vt 0.8279361 0.1038327
vt 0.7874098 0.1753734
vt 0.785504 0.05424765
vt 0.7635896 0.3163557
vt 0.7721648 0.3888325
vt 0.764542 0.4523739
vt 0.8279361 0.1038327
vt 0.8155815 0.1872105
vt 0.8445782 0.2001942
vt 0.8155815 0.1872105
vt 0.8915654 0.05615777
vt 0.8915654 0.05615777
vt 0.8279361 0.1038327
vt 0.8155815 0.1872105
vt 0.8445782 0.2001942
vt 0.8915654 0.05615777
vt 0.7045089 0.9327878
vt 0.7805641 0.8438199
vt 0.7643226 0.8273658
vt 0.7643226 0.8273658
vt 0.8061281 0.8458244
vt 0.7765951 0.8066279
vt 0.834383 0.800651
vt 0.7858669 0.7417423
vt 0.864328 0.7505455
vt 0.8318274 0.6489457
vt 0.8824862 0.8006043
vt 0.8817285 0.8369726
vt 0.8809578 0.8739999
vt 0.9283316 0.8758743
vt 0.8824862 0.8006043
vt 0.9190136 0.8918458
vt 0.9802681 0.9388389
vt 0.7819116 0.6585468
vt 0.7397295 0.7112989
vt 0.749522 0.7706955
vt 0.7858669 0.7417423
vt 0.7643226 0.8273658
vt 0.7481731 0.8110047
vt 0.7045089 0.9327878
vt 0.8202479 0.5856892
vt 0.7556184 0.6112119
vt 0.8896518 0.5423114
vt 0.9091309 0.6195509
vt 0.9326495 0.660445
vt 0.8890249 0.7135341
vt 0.931253 0.7063565
vt 0.9326495 0.660445
vt 0.8318274 0.6489457
vt 0.9091309 0.6195509
vt 0.8896518 0.5423114
vt 0.8489524 0.5365518
vt 0.810251 0.5310751
vt 0.8433322 0.5021658
vt 0.8752462 0.4742765
vt 0.836771 0.4564153
vt 0.8433322 0.5021658
vt 0.7995846 0.477428
vt 0.810251 0.5310751
vt 0.810251 0.5310751
vt 0.7801833 0.5718889
vt 0.8202479 0.5856892
vt 0.8489524 0.5365518
vt 0.810251 0.5310751
vt 0.717635 0.6054616
vt 0.7231502 0.5796279
vt 0.642721 0.6213731
vt 0.7299923 0.6522347
vt 0.7819116 0.6585468
vt 0.7858669 0.7417423
vt 0.834383 0.800651
vt 0.8824862 0.8006043
vt 0.8817285 0.8369726
vt 0.7556184 0.6112119
vt 0.7397295 0.7112989
vt 0.7801833 0.5718889
vt 0.717635 0.6054616
vt 0.7231502 0.5796279
vt 0.642721 0.6213731
vt 0.7112681 0.6352805
vt 0.7299923 0.6522347
vt 0.7299923 0.6522347
vt 0.749522 0.7706955
vt 0.7819116 0.6585468
vt 0.7299923 0.6522347
vt 0.7117435 0.7369438
vt 0.749522 0.7706955
vt 0.7011093 0.7208261
vt 0.6227638 0.8157413
vt 0.7257891 0.758233
vt 0.6227638 0.8157413
vt 0.7257891 0.758233
vt 0.7117435 0.7369438
vt 0.7011093 0.7208261
vt 0.6227638 0.8157413
vt 0.7299923 0.6522347
vt 0.749522 0.7706955
vt 0.7819116 0.6585468
vt 0.7858669 0.7417423
vt 0.7765951 0.8066279
vt 0.7643226 0.8273658
vt 0.7481731 0.8110047
vt 0.7045089 0.9327878
vt 0.8061281 0.8458244
vt 0.7643226 0.8273658
vt 0.7805641 0.8438199
vt 0.7045089 0.9327878
vt 0.7643226 0.8273658
vt 0.8440675 0.8601096
vt 0.8458714 0.8894025
vt 0.8061281 0.8458244
vt 0.8458714 0.8894025
vt 0.8229699 0.8857937
vt 0.8321908 0.9802017
vt 0.8614836 0.8918625
vt 0.8458714 0.8894025
vt 0.8809578 0.8739999
vt 0.8809578 0.8739999
vt 0.9283316 0.8758743
vt 0.8824862 0.8006043
vt 0.9190136 0.8918458
vt 0.9802681 0.9388389
vt 0.9802681 0.9388389
vt 0.937254 0.8605828
vt 0.8824862 0.8006043
vt 0.8458714 0.8894025
vt 0.8440675 0.8601096
vt 0.8061281 0.8458244
vt 0.8458714 0.8894025
vt 0.8229699 0.8857937
vt 0.8321908 0.9802017
vt 0.8458714 0.8894025
vt 0.8614836 0.8918625
vt 0.8809578 0.8739999
vt 0.9277716 0.2073519
vt 0.9765834 0.1142527
vt 0.9802681 0.9388389
vt 0.937254 0.8605828
vt 0.8824862 0.8006043
vn 0 0.1216539 -0.9925725
vn 0 -0.6625037 -0.7490587
vn 0.858079 -0.5132025 0.01799079
vn 0.9250665 -0.3603072 0.1201284
vn 0 0.1216539 -0.9925725
vn 0.9307026 -0.2586189 0.2586677
vn 0.8290551 -0.235828 0.5070038
vn 0.6692926 0.005064227 0.7429817
vn 0 -0.6422925 -0.7664596
vn 0.9614074 -0.2544532 0.1046402
vn 0 -0.894936 0.4461945
vn 0 -0.6625037 -0.7490587
vn -0.858079 -0.5132025 0.01799077
vn -0.9250665 -0.3603071 0.1201283
vn -0.9307026 -0.2586188 0.2586677
vn -0.8290551 -0.235828 0.5070038
vn -0.9614074 -0.2544531 0.1046403
vn -0.6692926 0.005064191 0.7429816
vn 0.7545466 0.05816877 0.6536635
vn 0 -0.8900525 -0.4558581
vn -0.7545466 0.05816875 0.6536634
vn 0 0.1942691 0.9809483
vn 0 0.2289763 0.9734321
vn 0 -0.007237782 0.9999739
vn 0 -0.1240348 0.9922779
vn 0.9814377 -0.03148224 0.1891796
vn 0 -0.01055526 0.9999443
vn 0 -0.8900525 -0.4558581
vn 0 -0.7461273 -0.6658033
vn 0 -0.5846183 0.8113084
vn 0 -0.7461273 -0.6658033
vn -0.9814377 -0.03148221 0.1891797
vn 0 -0.01055526 0.9999443
vn 0 0.1942691 0.9809483
vn -0.9810365 -0.06731262 -0.181759
vn 0 -0.762243 0.6472911
vn 0 -0.8900525 -0.4558581
vn 0 -0.7461273 -0.6658033
vn 0 0.2289763 0.9734321
vn 0 -0.007237782 0.9999739
vn 0 -0.1240348 0.9922779
vn 0 -0.762243 0.6472911
vn 0.9810365 -0.06731266 -0.1817588
vn 0 -0.6422925 -0.7664596
vn -0.9810365 -0.06731262 -0.181759
vn 0 -0.5444072 -0.8388211
vn 0 -0.5444072 -0.8388211
vn 0 -0.762243 0.6472911
vn 0.9810365 -0.06731266 -0.1817588
vn 0 -0.6422925 -0.7664596
vn 0 -0.5444072 -0.8388211
vn 0 0.9998367 -0.01807366
vn 0 0.3328159 -0.9429918
vn 0.8805313 0.4498475 0.1493378
vn 0.8805313 0.4498475 0.1493378
vn 0 0.9988937 -0.04702623
vn 0.8192267 0.5605688 0.1209553
vn 0.9456615 -0.1842796 -0.2678905
vn 0.9794381 0.01084883 -0.2014531
vn 0 -0.7074844 -0.7067289
vn 0.9308597 -0.08694778 -0.3548805
vn 0 -0.9719193 -0.2353145
vn 0.9419611 -0.2832929 -0.1801512
vn 0 0.8278227 -0.5609899
vn 0.9429258 -0.2140482 -0.2550968
vn 0 -0.9719193 -0.2353145
vn 0 0.9891355 -0.1470066
vn 0 -0.01121187 -0.9999372
vn 0.9956412 -0.04473268 0.08183776
vn 0.7333333 0.446912 0.5123397
vn 0 0.9091978 0.4163644
vn 0.9794381 0.01084883 -0.2014531
vn 0.8805313 0.4498475 0.1493378
vn 0 0.4943891 0.8692408
vn 0 0.9998367 -0.01807366
vn 0.9634432 -0.06412871 0.2601247
vn 0.8114197 -0.03082921 0.5836502
vn 0.9975604 -0.0673746 0.01827583
vn 0.9862558 0.1590788 0.04464652
vn 0.8770685 0.4383372 -0.1964983
vn 0 0.6970198 -0.717052
vn 0 0.6733962 -0.7392818
vn -0.8770683 0.4383372 -0.1964984
vn -0.9308598 -0.08694784 -0.3548804
vn -0.9862558 0.1590788 0.04464667
vn -0.9975604 -0.06737453 0.01827597
vn 0.9157151 0.1243626 0.3820991
vn 0 0.4360921 0.899902
vn 0.8726174 -0.2364852 0.4273331
vn 0 -0.9791174 0.2032956
vn 0 -0.7334352 0.6797593
vn -0.8726175 -0.2364853 0.427333
vn 0 0.3029933 0.9529927
vn 0 0.4360921 0.899902
vn 0 0.4360921 0.899902
vn 0 -0.4333475 0.901227
vn -0.9634432 -0.06412867 0.2601247
vn -0.9157151 0.1243625 0.3820993
vn 0 0.4360921 0.899902
vn 0.9058501 -0.003317781 0.4235855
vn 0 -0.6030248 0.7977225
vn 0 0.6865346 0.727097
vn 0 0.638303 0.7697851
vn -0.9956412 -0.04473265 0.08183755
vn -0.9794381 0.01084873 -0.201453
vn -0.9456615 -0.1842797 -0.2678902
vn 0 -0.9719193 -0.2353145
vn -0.941961 -0.2832929 -0.1801514
vn -0.8114199 -0.03082921 0.5836499
vn -0.7333334 0.4469121 0.5123394
vn 0 -0.4333475 0.901227
vn -0.9058501 -0.003317705 0.4235852
vn 0 -0.6030248 0.7977225
vn 0 0.6865346 0.727097
vn 0 0.9817218 -0.1903215
vn 0 0.638303 0.7697851
vn 0 0.638303 0.7697851
vn 0 0.9091978 0.4163644
vn -0.9956412 -0.04473265 0.08183755
vn 0 0.638303 0.7697851
vn -0.8919135 0.3350703 0.3036745
vn 0 0.9091978 0.4163644
vn 0 0.1590292 0.9872738
vn 0 0.9987992 -0.04899244
vn 0 0.6324683 -0.7745862
vn 0 0.9987992 -0.04899244
vn 0 0.6324683 -0.7745862
vn 0.8919136 0.3350703 0.3036743
vn 0 0.1590292 0.9872738
vn 0 0.9987992 -0.04899244
vn 0 0.638303 0.7697851
vn 0 0.9091978 0.4163644
vn 0.9956412 -0.04473268 0.08183776
vn -0.9794381 0.01084873 -0.201453
vn -0.8192268 0.5605687 0.1209558
vn -0.8805314 0.4498473 0.1493379
vn 0 0.4943891 0.8692408
vn 0 0.9998367 -0.01807366
vn 0 0.9988937 -0.04702623
vn -0.8805314 0.4498473 0.1493379
vn 0 0.3328159 -0.9429918
vn 0 0.9998367 -0.01807366
vn -0.8805314 0.4498473 0.1493379
vn -0.9558551 0.2773877 -0.09693888
vn -0.9291917 0.3441217 -0.1348444
vn 0 0.9988937 -0.04702623
vn -0.9291917 0.3441217 -0.1348444
vn 0 0.8146414 0.5799649
vn 0 0.9745795 -0.2240424
vn 0 -0.286823 -0.9579836
vn 0.9291917 0.3441219 -0.1348445
vn 0 0.8278227 -0.5609899
vn 0 0.8278227 -0.5609899
vn -0.9429258 -0.2140482 -0.2550968
vn 0 -0.9719193 -0.2353145
vn 0 0.9891355 -0.1470066
vn 0 -0.01121187 -0.9999372
vn 0 -0.01121187 -0.9999372
vn 0 -0.9781768 -0.207774
vn 0 -0.9719193 -0.2353145
vn 0.9291917 0.3441219 -0.1348445
vn 0.955855 0.277388 -0.09693975
vn 0 0.9988937 -0.04702623
vn 0.9291917 0.3441219 -0.1348445
vn 0 0.8146414 0.5799649
vn 0 0.9745795 -0.2240424
vn -0.9291917 0.3441217 -0.1348444
vn 0 -0.286823 -0.9579836
vn 0 0.8278227 -0.5609899
vn 0 0.1216539 -0.9925725
vn 0 -0.6625037 -0.7490587
vn 0 -0.01121187 -0.9999372
vn 0 -0.9781768 -0.207774
vn 0 -0.9719193 -0.2353145
g crest_roost_0
f 3/3/3 2/2/2 1/1/1
f 3/3/3 5/5/5 4/4/4
f 6/6/6 3/3/3 4/4/4
f 6/6/6 4/4/4 7/7/7
f 6/6/6 7/7/7 8/8/8
f 9/9/9 3/3/3 6/6/6
f 10/10/10 6/6/6 8/8/8
f 10/10/10 9/9/9 6/6/6
f 3/3/3 9/9/9 11/11/11
f 3/3/3 11/11/11 12/12/12
f 11/11/11 13/13/13 12/12/12
f 9/9/9 13/13/13 11/11/11
f 5/5/5 13/13/13 14/14/14
f 13/13/13 9/9/9 15/15/15
f 13/13/13 15/15/15 14/14/14
f 14/14/14 15/15/15 16/16/16
f 9/9/9 17/17/17 15/15/15
f 16/16/16 15/15/15 18/18/18
f 15/15/15 17/17/17 18/18/18
f 19/19/19 10/10/10 8/8/8
f 10/10/10 19/19/19 20/20/20
f 21/21/21 17/17/17 20/20/20
f 17/17/17 21/21/21 18/18/18
f 22/22/22 19/19/19 8/8/8
f 23/23/23 22/22/22 8/8/8
f 24/24/24 23/23/23 8/8/8
f 24/24/24 8/8/8 25/25/25
f 19/19/19 22/22/22 26/26/26
f 22/22/22 27/27/27 26/26/26
f 19/19/19 26/26/26 28/28/28
f 26/26/26 29/29/29 28/28/28
f 26/26/26 27/27/27 30/30/30
f 26/26/26 30/30/30 31/31/31
f 30/30/30 32/32/32 31/31/31
f 33/33/33 32/32/32 30/30/30
f 33/33/33 34/34/34 32/32/32
f 28/28/28 17/17/17 35/35/35
f 28/28/28 35/35/35 36/36/36
f 34/34/34 21/21/21 32/32/32
f 32/32/32 21/21/21 37/37/37
f 38/38/38 32/32/32 37/37/37
f 21/21/21 34/34/34 18/18/18
f 34/34/34 39/39/39 18/18/18
f 39/39/39 40/40/40 18/18/18
f 18/18/18 40/40/40 41/41/41
f 43/43/43 37/37/37 42/42/42
f 10/10/10 37/37/37 43/43/43
f 45/45/45 17/17/17 44/44/44
f 46/46/46 45/45/45 44/44/44
f 48/48/48 45/45/45 47/47/47
f 49/49/49 48/48/48 47/47/47
f 10/10/10 49/49/49 50/50/50
f 49/49/49 51/51/51 50/50/50
f 54/54/54 53/53/53 52/52/52
f 56/56/56 53/53/53 55/55/55
f 57/57/57 56/56/56 55/55/55
f 58/58/58 56/56/56 57/57/57
f 58/58/58 57/57/57 59/59/59
f 60/60/60 58/58/58 59/59/59
f 61/61/61 60/60/60 59/59/59
f 60/60/60 62/62/62 58/58/58
f 62/62/62 63/63/63 58/58/58
f 63/63/63 64/64/64 58/58/58
f 63/63/63 65/65/65 64/64/64
f 63/63/63 66/66/66 65/65/65
f 65/65/65 67/67/67 64/64/64
f 65/65/65 68/68/68 67/67/67
f 61/61/61 59/59/59 69/69/69
f 59/59/59 70/70/70 69/69/69
f 59/59/59 71/71/71 70/70/70
f 57/57/57 71/71/71 72/72/72
f 57/57/57 73/73/73 71/71/71
f 73/73/73 74/74/74 71/71/71
f 73/73/73 75/75/75 74/74/74
f 76/76/76 61/61/61 69/69/69
f 76/76/76 69/69/69 77/77/77
f 78/78/78 61/61/61 76/76/76
f 78/78/78 79/79/79 61/61/61
f 79/79/79 80/80/80 61/61/61
f 80/80/80 81/81/81 61/61/61
f 80/80/80 82/82/82 81/81/81
f 82/82/82 83/83/83 81/81/81
f 81/81/81 83/83/83 84/84/84
f 61/61/61 81/81/81 60/60/60
f 81/81/81 84/84/84 60/60/60
f 83/83/83 85/85/85 84/84/84
f 85/85/85 86/86/86 84/84/84
f 87/87/87 78/78/78 76/76/76
f 87/87/87 76/76/76 88/88/88
f 87/87/87 88/88/88 89/89/89
f 78/78/78 87/87/87 89/89/89
f 78/78/78 89/89/89 90/90/90
f 89/89/89 91/91/91 90/90/90
f 91/91/91 92/92/92 90/90/90
f 92/92/92 86/86/86 90/90/90
f 89/89/89 93/93/93 91/91/91
f 93/93/93 92/92/92 91/91/91
f 89/89/89 94/94/94 93/93/93
f 95/95/95 92/92/92 93/93/93
f 76/76/76 96/96/96 94/94/94
f 96/96/96 97/97/97 95/95/95
f 84/84/84 86/86/86 97/97/97
f 76/76/76 77/77/77 96/96/96
f 98/98/98 86/86/86 92/92/92
f 86/86/86 98/98/98 97/97/97
f 99/99/99 98/98/98 92/92/92
f 97/97/97 98/98/98 99/99/99
f 77/77/77 100/100/100 96/96/96
f 100/100/100 101/101/101 96/96/96
f 100/100/100 102/102/102 101/101/101
f 77/77/77 103/103/103 100/100/100
f 84/84/84 97/97/97 104/104/104
f 105/105/105 84/84/84 104/104/104
f 60/60/60 84/84/84 105/105/105
f 106/106/106 60/60/60 105/105/105
f 107/107/107 60/60/60 106/106/106
f 108/108/108 107/107/107 106/106/106
f 104/104/104 97/97/97 109/109/109
f 110/110/110 105/105/105 104/104/104
f 109/109/109 97/97/97 111/111/111
f 103/103/103 109/109/109 112/112/112
f 112/112/112 109/109/109 111/111/111
f 113/113/113 112/112/112 111/111/111
f 114/114/114 112/112/112 113/113/113
f 115/115/115 112/112/112 114/114/114
f 115/115/115 116/116/116 112/112/112
f 100/100/100 115/115/115 114/114/114
f 117/117/117 115/115/115 100/100/100
f 118/118/118 105/105/105 110/110/110
f 120/120/120 119/119/119 109/109/109
f 120/120/120 110/110/110 119/119/119
f 121/121/121 110/110/110 120/120/120
f 122/122/122 110/110/110 121/121/121
f 123/123/123 121/121/121 120/120/120
f 124/124/124 121/121/121 123/123/123
f 125/125/125 118/118/118 121/121/121
f 125/125/125 121/121/121 126/126/126
f 128/128/128 127/127/127 126/126/126
f 71/71/71 127/127/127 128/128/128
f 128/128/128 130/130/130 129/129/129
f 128/128/128 129/129/129 131/131/131
f 70/70/70 128/128/128 131/131/131
f 70/70/70 132/132/132 128/128/128
f 70/70/70 131/131/131 133/133/133
f 133/133/133 131/131/131 77/77/77
f 118/118/118 135/135/135 134/134/134
f 136/136/136 135/135/135 118/118/118
f 137/137/137 136/136/136 118/118/118
f 138/138/138 136/136/136 137/137/137
f 135/135/135 106/106/106 105/105/105
f 139/139/139 106/106/106 135/135/135
f 139/139/139 135/135/135 140/140/140
f 141/141/141 139/139/139 140/140/140
f 141/141/141 143/143/143 142/142/142
f 144/144/144 64/64/64 106/106/106
f 64/64/64 144/144/144 145/145/145
f 144/144/144 106/106/106 146/146/146
f 147/147/147 144/144/144 146/146/146
f 148/148/148 147/147/147 146/146/146
f 149/149/149 147/147/147 148/148/148
f 151/151/151 150/150/150 149/149/149
f 152/152/152 150/150/150 151/151/151
f 153/153/153 108/108/108 106/106/106
f 154/154/154 108/108/108 153/153/153
f 155/155/155 108/108/108 154/154/154
f 156/156/156 154/154/154 153/153/153
f 157/157/157 154/154/154 156/156/156
f 159/159/159 154/154/154 158/158/158
f 159/159/159 160/160/160 154/154/154
f 162/162/162 153/153/153 161/161/161
f 153/153/153 162/162/162 58/58/58
f 58/58/58 162/162/162 163/163/163
f 162/162/162 164/164/164 163/163/163
f 164/164/164 165/165/165 163/163/163
f 164/164/164 166/166/166 165/165/165
f 168/168/168 167/167/167 166/166/166
f 168/168/168 169/169/169 167/167/167
f 171/171/171 13/13/13 170/170/170
f 65/65/65 173/173/173 172/172/172
f 174/174/174 173/173/173 65/65/65
