g areaBlockStratum01
v 1.57189 -1.596173 0.0004980469
v 0.000703125 -1.253431 -1.571465
v 0.000703125 -1.296519 0.0004980469
v 1.57189 -1.42846 -1.571465
v 3.188755 -1.410545 0.0002783203
v 0.0007324219 -1.243734 -3.068579
v 3.188154 -1.303272 -1.583721
v 1.58397 -1.394869 -3.058769
v 2.936016 -1.413587 -2.987026
v 3.219263 -0.2585508 9.094947E-15
v 3.188154 -1.303272 -1.583721
v 3.188755 -1.410545 0.0002783203
v 3.218677 -0.1130454 -1.599141
v 1.599126 0.02531153 -1.599141
v 1.599126 -0.08196875 9.094947E-15
v 0.0007470703 -9.698664E-07 9.094947E-15
v 0.0007470703 0.107272 -1.599141
v 1.599126 -0.1354722 -3.088325
v 0.0007470703 -0.1115342 -3.098218
v 2.964131 -0.2990879 -3.015893
v 2.936016 -1.413587 -2.987026
v 1.599126 -0.1354722 -3.088325
v 1.58397 -1.394869 -3.058769
v 0.0007324219 -1.243734 -3.068579
v 0.0007470703 -0.1115342 -3.098218
v 0.000703125 -1.220423 1.572446
v 1.57189 -1.596173 0.0004980469
v 0.000703125 -1.296519 0.0004980469
v 1.57189 -1.53891 1.572446
v 0.0007324219 -1.287508 3.128682
v 3.188755 -1.410545 0.0002783203
v 1.58397 -1.438648 3.128682
v 3.213618 -1.334854 1.584277
v 2.936016 -1.457357 2.987598
v 3.219263 -0.2585508 9.094947E-15
v 3.188755 -1.410545 0.0002783203
v 3.213618 -1.334854 1.584277
v 3.24437 -0.09140722 1.599141
v 1.599126 0.04694727 1.599141
v 1.599126 -0.08196875 9.094947E-15
v 0.0007470703 -9.698664E-07 9.094947E-15
v 0.0007470703 0.1289102 1.599141
v 2.964131 -0.3428623 3.015893
v 2.936016 -1.457357 2.987598
v 1.58397 -1.438648 3.128682
v 1.599126 -0.1792466 3.206816
v 0.0007470703 -0.1381553 3.185161
v 1.599126 -0.1792466 3.206816
v 0.0007324219 -1.287508 3.128682
v 0.0007470703 -0.1381553 3.185161
v 0.000703125 -1.253431 -1.571465
v -1.571977 -1.531415 0.0004980469
v 0.000703125 -1.296519 0.0004980469
v -1.571977 -1.495443 -1.571465
v 0.0007324219 -1.243734 -3.068579
v -3.217808 -1.206988 0.0002783203
v -1.583999 -1.409366 -3.16772
v -3.048862 -1.228734 -1.583721
v -2.936055 -1.21003 -2.987026
v -3.248579 -0.05220068 9.094947E-15
v -3.217808 -1.206988 0.0002783203
v -3.048862 -1.228734 -1.583721
v -3.078003 -0.1053696 -1.599141
v -1.599126 -0.01931738 -1.599141
v -1.599126 0.02193506 9.094947E-15
v 0.0007470703 -9.698664E-07 9.094947E-15
v 0.0007470703 0.107272 -1.599141
v -2.964131 -0.0955332 -3.015893
v -2.936055 -1.21003 -2.987026
v -1.583999 -1.409366 -3.16772
v -1.599126 -0.1801011 -3.198296
v 0.0007470703 -0.1115342 -3.098218
v -1.599126 -0.1801011 -3.198296
v 0.0007324219 -1.243734 -3.068579
v 0.0007470703 -0.1115342 -3.098218
v -1.571977 -1.531415 0.0004980469
v 0.000703125 -1.220423 1.572446
v 0.000703125 -1.296519 0.0004980469
v -1.571977 -1.557716 1.572446
v -3.217808 -1.206988 0.0002783203
v 0.0007324219 -1.287508 3.128682
v -3.058887 -1.131297 1.584277
v -1.583999 -1.453145 3.226401
v -2.936055 -1.253802 2.987598
v -3.248579 -0.05220068 9.094947E-15
v -3.058887 -1.131297 1.584277
v -3.217808 -1.206988 0.0002783203
v -3.08812 0.1121523 1.599141
v -1.599126 0.002318366 1.599141
v -1.599126 0.02193506 9.094947E-15
v 0.0007470703 -9.698664E-07 9.094947E-15
v 0.0007470703 0.1289102 1.599141
v -1.599126 -0.2621104 3.256978
v 0.0007470703 -0.1381553 3.185161
v -2.964131 -0.1393076 3.015893
v -2.936055 -1.253802 2.987598
v -1.599126 -0.2621104 3.256978
v -1.583999 -1.453145 3.226401
v 0.0007324219 -1.287508 3.128682
v 0.0007470703 -0.1381553 3.185161
vt 0.5 0.9375
vt 0.5625 0.875
vt 0.5 0.875
vt 0.5625 0.9375
vt 0.5 1
vt 0.625 0.875
vt 0.5625 1
vt 0.625 0.9375
vt 0.625 1
vt 0.5000015 0.2305705
vt 0.5625 0
vt 0.5 0
vt 0.5636162 0.2309538
vt 0.5625 0.3125
vt 0.5 0.3125
vt 0.5 0.375
vt 0.5625 0.375
vt 0.625 0.3125
vt 0.625 0.375
vt 0.625 0.25
vt 0.625 0
vt 0.6875 0.25
vt 0.6875 0
vt 0.75 0
vt 0.75 0.25
vt 0.5625 0.875
vt 0.5 0.9375
vt 0.5 0.875
vt 0.5625 0.9375
vt 0.625 0.875
vt 0.5 1
vt 0.625 0.9375
vt 0.5625 1
vt 0.625 1
vt 0.5000015 0.2305705
vt 0.5 0
vt 0.5625 0
vt 0.5636162 0.2309538
vt 0.5625 0.3125
vt 0.5 0.3125
vt 0.5 0.375
vt 0.5625 0.375
vt 0.625 0.25
vt 0.625 0
vt 0.6875 0
vt 0.625 0.3125
vt 0.625 0.375
vt 0.6875 0.25
vt 0.75 0
vt 0.75 0.25
vt 0.5625 0.875
vt 0.5 0.9375
vt 0.5 0.875
vt 0.5625 0.9375
vt 0.625 0.875
vt 0.5 1
vt 0.625 0.9375
vt 0.5625 1
vt 0.625 1
vt 0.5000015 0.2305705
vt 0.5 0
vt 0.5625 0
vt 0.5636162 0.2309538
vt 0.5625 0.3125
vt 0.5 0.3125
vt 0.5 0.375
vt 0.5625 0.375
vt 0.625 0.25
vt 0.625 0
vt 0.6875 0
vt 0.625 0.3125
vt 0.625 0.375
vt 0.6875 0.25
vt 0.75 0
vt 0.75 0.25
vt 0.5 0.9375
vt 0.5625 0.875
vt 0.5 0.875
vt 0.5625 0.9375
vt 0.5 1
vt 0.625 0.875
vt 0.5625 1
vt 0.625 0.9375
vt 0.625 1
vt 0.5000015 0.2305705
vt 0.5625 0
vt 0.5 0
vt 0.5636162 0.2309538
vt 0.5625 0.3125
vt 0.5 0.3125
vt 0.5 0.375
vt 0.5625 0.375
vt 0.625 0.3125
vt 0.625 0.375
vt 0.625 0.25
vt 0.625 0
vt 0.6875 0.25
vt 0.6875 0
vt 0.75 0
vt 0.75 0.25
vn -0.06353439 -0.9890787 0.1329908
vn 0.1069082 -0.9940997 0.01834086
vn -0.08267034 -0.9865667 0.1408967
vn -0.05146511 -0.998114 -0.03346392
vn 0.9991525 0.04069164 -0.006206882
vn 0.1105841 -0.6751365 -0.7293572
vn 0.6568242 -0.7282765 -0.1954365
vn -0.009678606 -0.7527441 -0.658242
vn 0.685195 0.05003627 -0.726639
vn 0.7601071 0.6447046 -0.08119924
vn 0.6568242 -0.7282765 -0.1954365
vn 0.9991525 0.04069164 -0.006206882
vn 0.9989976 0.04475231 0.0009564343
vn -0.03664289 0.9985532 0.03935502
vn 0.01936689 0.9966456 -0.07951348
vn 0.107379 0.9881543 -0.1096389
vn 0.106651 0.9925019 0.05971237
vn -0.007363355 0.05277815 -0.9985791
vn 0.01555741 0.04664002 -0.9987907
vn 0.5862945 0.5185508 -0.6223855
vn 0.685195 0.05003627 -0.726639
vn -0.007363355 0.05277815 -0.9985791
vn -0.009678606 -0.7527441 -0.658242
vn 0.1105841 -0.6751365 -0.7293572
vn 0.01555741 0.04664002 -0.9987907
vn -0.1081465 -0.9874431 -0.115154
vn -0.06353439 -0.9890787 0.1329908
vn -0.08267034 -0.9865667 0.1408967
vn 0.01996974 -0.998948 -0.04127949
vn 0.03630941 -0.03033191 0.9988802
vn 0.9991525 0.04069164 -0.006206882
vn -0.002402554 0.01065643 0.9999404
vn 0.9996228 0.02746102 0.0002911232
vn 0.4740917 -0.7218265 0.504186
vn 0.7601071 0.6447046 -0.08119924
vn 0.9991525 0.04069164 -0.006206882
vn 0.9996228 0.02746102 0.0002911232
vn 0.7124926 0.6422458 0.2826207
vn 0.05116951 0.9967028 0.06296883
vn 0.01936689 0.9966456 -0.07951348
vn 0.107379 0.9881543 -0.1096389
vn 0.0347797 0.995538 0.08771827
vn 0.6844962 0.0482593 0.7274173
vn 0.4740917 -0.7218265 0.504186
vn -0.002402554 0.01065643 0.9999404
vn 0.004651098 0.6182082 0.7860005
vn 0.1115146 0.6388175 0.7612337
vn 0.004651098 0.6182082 0.7860005
vn 0.03630941 -0.03033191 0.9988802
vn 0.1115146 0.6388175 0.7612337
vn 0.1069082 -0.9940997 0.01834086
vn -0.008623871 -0.9998765 0.01314281
vn -0.08267034 -0.9865667 0.1408967
vn 0.02946976 -0.9994217 -0.01696379
vn 0.1105841 -0.6751365 -0.7293572
vn -0.7959496 -0.5950006 0.1115276
vn 0.003160313 0.04115548 -0.9991478
vn -0.998872 0.03967319 -0.02609051
vn -0.4732934 -0.7231954 -0.5029729
vn -0.9997162 0.02381986 4.445893E-05
vn -0.7959496 -0.5950006 0.1115276
vn -0.998872 0.03967319 -0.02609051
vn -0.7085289 0.6298239 -0.31829
vn -0.05722287 0.997533 0.0406646
vn 0.009202829 0.9979844 -0.0627896
vn 0.107379 0.9881543 -0.1096389
vn 0.106651 0.9925019 0.05971237
vn -0.684497 0.04826003 -0.7274165
vn -0.4732934 -0.7231954 -0.5029729
vn 0.003160313 0.04115548 -0.9991478
vn 0.01861762 0.6446326 -0.7642658
vn 0.01555741 0.04664002 -0.9987907
vn 0.01861762 0.6446326 -0.7642658
vn 0.1105841 -0.6751365 -0.7293572
vn 0.01555741 0.04664002 -0.9987907
vn -0.008623871 -0.9998765 0.01314281
vn -0.1081465 -0.9874431 -0.115154
vn -0.08267034 -0.9865667 0.1408967
vn -0.02815512 -0.9970061 -0.07201435
vn -0.7959496 -0.5950006 0.1115276
vn 0.03630941 -0.03033191 0.9988802
vn -0.600959 -0.7718394 0.207635
vn -0.02786468 -0.7397956 0.6722544
vn -0.6851959 0.05003645 0.7266381
vn -0.9997162 0.02381986 4.445893E-05
vn -0.600959 -0.7718394 0.207635
vn -0.7959496 -0.5950006 0.1115276
vn -0.9980106 0.05287574 0.03433678
vn 0.001525292 0.9929734 0.1183281
vn 0.009202829 0.9979844 -0.0627896
vn 0.107379 0.9881543 -0.1096389
vn 0.0347797 0.995538 0.08771827
vn -0.03632659 0.01480526 0.9992303
vn 0.1115146 0.6388175 0.7612337
vn -0.5863011 0.5185605 0.6223712
vn -0.6851959 0.05003645 0.7266381
vn -0.03632659 0.01480526 0.9992303
vn -0.02786468 -0.7397956 0.6722544
vn 0.03630941 -0.03033191 0.9988802
vn 0.1115146 0.6388175 0.7612337
g areaBlockStratum01_0
f 3/3/3 2/2/2 1/1/1
f 2/2/2 4/4/4 1/1/1
f 1/1/1 4/4/4 5/5/5
f 4/4/4 2/2/2 6/6/6
f 4/4/4 7/7/7 5/5/5
f 8/8/8 4/4/4 6/6/6
f 7/7/7 4/4/4 9/9/9
f 4/4/4 8/8/8 9/9/9
f 12/12/12 11/11/11 10/10/10
f 11/11/11 13/13/13 10/10/10
f 13/13/13 14/14/14 10/10/10
f 14/14/14 15/15/15 10/10/10
f 15/15/15 14/14/14 16/16/16
f 14/14/14 17/17/17 16/16/16
f 17/17/17 14/14/14 18/18/18
f 14/14/14 13/13/13 18/18/18
f 19/19/19 17/17/17 18/18/18
f 13/13/13 20/20/20 18/18/18
f 13/13/13 11/11/11 20/20/20
f 11/11/11 21/21/21 20/20/20
f 20/20/20 21/21/21 22/22/22
f 21/21/21 23/23/23 22/22/22
f 22/22/22 23/23/23 24/24/24
f 25/25/25 22/22/22 24/24/24
f 28/28/28 27/27/27 26/26/26
f 27/27/27 29/29/29 26/26/26
f 26/26/26 29/29/29 30/30/30
f 29/29/29 27/27/27 31/31/31
f 29/29/29 32/32/32 30/30/30
f 33/33/33 29/29/29 31/31/31
f 32/32/32 29/29/29 34/34/34
f 29/29/29 33/33/33 34/34/34
f 37/37/37 36/36/36 35/35/35
f 38/38/38 37/37/37 35/35/35
f 39/39/39 38/38/38 35/35/35
f 40/40/40 39/39/39 35/35/35
f 40/40/40 41/41/41 39/39/39
f 41/41/41 42/42/42 39/39/39
f 37/37/37 38/38/38 43/43/43
f 38/38/38 39/39/39 43/43/43
f 44/44/44 37/37/37 43/43/43
f 44/44/44 43/43/43 45/45/45
f 39/39/39 42/42/42 46/46/46
f 39/39/39 46/46/46 43/43/43
f 42/42/42 47/47/47 46/46/46
f 43/43/43 48/48/48 45/45/45
f 45/45/45 48/48/48 49/49/49
f 48/48/48 50/50/50 49/49/49
f 53/53/53 52/52/52 51/51/51
f 52/52/52 54/54/54 51/51/51
f 51/51/51 54/54/54 55/55/55
f 54/54/54 52/52/52 56/56/56
f 54/54/54 57/57/57 55/55/55
f 58/58/58 54/54/54 56/56/56
f 57/57/57 54/54/54 59/59/59
f 54/54/54 58/58/58 59/59/59
f 62/62/62 61/61/61 60/60/60
f 63/63/63 62/62/62 60/60/60
f 64/64/64 63/63/63 60/60/60
f 65/65/65 64/64/64 60/60/60
f 65/65/65 66/66/66 64/64/64
f 66/66/66 67/67/67 64/64/64
f 62/62/62 63/63/63 68/68/68
f 63/63/63 64/64/64 68/68/68
f 69/69/69 62/62/62 68/68/68
f 69/69/69 68/68/68 70/70/70
f 64/64/64 67/67/67 71/71/71
f 64/64/64 71/71/71 68/68/68
f 67/67/67 72/72/72 71/71/71
f 68/68/68 73/73/73 70/70/70
f 70/70/70 73/73/73 74/74/74
f 73/73/73 75/75/75 74/74/74
f 78/78/78 77/77/77 76/76/76
f 77/77/77 79/79/79 76/76/76
f 76/76/76 79/79/79 80/80/80
f 79/79/79 77/77/77 81/81/81
f 79/79/79 82/82/82 80/80/80
f 83/83/83 79/79/79 81/81/81
f 82/82/82 79/79/79 84/84/84
f 79/79/79 83/83/83 84/84/84
f 87/87/87 86/86/86 85/85/85
f 86/86/86 88/88/88 85/85/85
f 88/88/88 89/89/89 85/85/85
f 89/89/89 90/90/90 85/85/85
f 90/90/90 89/89/89 91/91/91
f 89/89/89 92/92/92 91/91/91
f 92/92/92 89/89/89 93/93/93
f 89/89/89 88/88/88 93/93/93
f 94/94/94 92/92/92 93/93/93
f 88/88/88 95/95/95 93/93/93
f 88/88/88 86/86/86 95/95/95
f 86/86/86 96/96/96 95/95/95
f 95/95/95 96/96/96 97/97/97
f 96/96/96 98/98/98 97/97/97
f 97/97/97 98/98/98 99/99/99
f 100/100/100 97/97/97 99/99/99
