g slime_face_LOD3
v -9.677349E-08 0.04541018 0.3827679
v 0.3505335 0.2940679 0.3629881
v 0.2839637 0.06249043 0.2953991
v -6.98999E-08 0.3080502 0.5079044
v -0.2839638 0.06249069 0.295399
v 0.2633612 0.7116617 0.2776317
v -0.3505334 0.294068 0.3629878
v -4.458663E-08 0.7893796 0.3242295
v -0.2633611 0.7116617 0.2776317
vt 0.4906484 0.05429772
vt 0.64079 0.1914257
vt 0.6398617 0.07155358
vt 0.4904163 0.1899131
vt 0.3413771 0.07104275
vt 0.633436 0.3339713
vt 0.3400384 0.190911
vt 0.4901565 0.3416933
vt 0.3469045 0.3334809
vn 0 -0.4024024 0.9154629
vn 0.3419334 0.04392193 0.9386972
vn 0.3194462 -0.3813183 0.8674966
vn 0 0.06345663 0.9979846
vn -0.3194472 -0.3813181 0.8674963
vn 0.3246425 0.2999431 0.8970181
vn -0.3419342 0.0439219 0.9386969
vn 0 0.3171192 0.9483857
vn -0.3246432 0.2999428 0.8970179
g slime_face_LOD3_0
f 3/3/3 2/2/2 1/1/1
f 2/2/2 4/4/4 1/1/1
f 1/1/1 4/4/4 5/5/5
f 2/2/2 6/6/6 4/4/4
f 4/4/4 7/7/7 5/5/5
f 6/6/6 8/8/8 4/4/4
f 4/4/4 8/8/8 7/7/7
f 8/8/8 9/9/9 7/7/7
