g slime_face_LOD1
v -0.3596832 0.5900611 0.2333204
v -0.2903675 0.7530637 0.2146094
v -0.2705313 0.714433 0.2727512
v -0.3066795 0.5704922 0.3071027
v -0.4008043 0.4703459 0.2485467
v -0.2094107 0.7536809 0.2954253
v -0.2903675 0.7530637 0.2146094
v -0.2049509 0.8391963 0.214902
v -0.3326132 0.4632567 0.3326045
v -0.433918 0.2991292 0.2655657
v -0.1127378 0.7818968 0.3130901
v -0.1055283 0.8824463 0.2175555
v -0.2306872 0.5905684 0.3617577
v -0.3586903 0.2950572 0.3586904
v -0.4067881 0.1536774 0.2518198
v -4.888247E-08 0.7958011 0.3216993
v -4.997711E-08 0.897764 0.2184238
v -0.2464477 0.4704898 0.4022962
v -0.125806 0.6170109 0.4009211
v -0.3372368 0.1563488 0.3372369
v -0.3552607 0.06144919 0.2300753
v -0.3020929 0.0679483 0.302093
v 0.1127377 0.7818968 0.3130902
v 0.1055283 0.8824465 0.2175556
v -0.263393 0.2990568 0.435481
v -0.2497374 0.153423 0.4081616
v -0.2281256 0.06100163 0.3563522
v -0.1340493 0.4813311 0.4540735
v -5.31108E-08 0.6275918 0.4154323
v 0.2094107 0.7536811 0.2954254
v 0.2049508 0.8391965 0.2149021
v -0.1360028 0.1479376 0.4612201
v -0.1252813 0.05054856 0.3968103
v -0.1423501 0.306105 0.4919573
v -6.730008E-08 0.4863559 0.4746319
v 0.125806 0.617011 0.4009212
v 0.2705315 0.714433 0.2727512
v 0.2903675 0.7530639 0.2146095
v -9.77567E-08 0.1451254 0.4825833
v -1.043293E-07 0.04580645 0.4122974
v -8.723798E-08 0.3091383 0.508688
v 0.1340493 0.4813311 0.4540738
v 0.2306872 0.5905685 0.3617578
v 0.1360027 0.1479376 0.4612204
v 0.1252811 0.05054843 0.3968104
v 0.1423501 0.306105 0.4919576
v 0.3066796 0.5704922 0.3071028
v 0.2903675 0.7530639 0.2146095
v 0.3596833 0.5900612 0.2333205
v 0.2464478 0.4704898 0.4022965
v 0.3326133 0.4632568 0.3326046
v 0.4008044 0.4703459 0.2485469
v 0.2633931 0.2990568 0.4354813
v 0.2497374 0.153423 0.4081619
v 0.2281255 0.06100146 0.3563523
v 0.3586904 0.2950571 0.3586906
v 0.4339182 0.2991292 0.2655658
v 0.3372368 0.1563486 0.3372371
v 0.302093 0.06794818 0.3020932
v 0.4067883 0.1536773 0.2518199
v 0.3552607 0.06144905 0.2300754
vt 0.1412184 0.589298
vt 0.1618793 0.6716015
vt 0.2189422 0.6427224
vt 0.2186256 0.5785466
vt 0.1333693 0.4818824
vt 0.2762502 0.6710008
vt 0.1618793 0.6716015
vt 0.2197723 0.7331081
vt 0.2183603 0.4782786
vt 0.1312774 0.364456
vt 0.3730779 0.7011001
vt 0.3303118 0.7820615
vt 0.2959384 0.5886993
vt 0.2182474 0.3643264
vt 0.1333727 0.2616487
vt 0.4992033 0.7146531
vt 0.4992035 0.8044636
vt 0.3031691 0.481661
vt 0.3901396 0.6039091
vt 0.2183617 0.2639688
vt 0.1412243 0.2084805
vt 0.2186318 0.2127789
vt 0.6253533 0.7011005
vt 0.6681198 0.7820643
vt 0.3050244 0.3647089
vt 0.3031687 0.2622005
vt 0.2959406 0.2089307
vt 0.3968704 0.487591
vt 0.4992032 0.6109428
vt 0.7221734 0.6710159
vt 0.7786508 0.7331297
vt 0.39687 0.2589715
vt 0.3901383 0.2032589
vt 0.3986615 0.3652802
vt 0.4992034 0.4905324
vt 0.6082932 0.6039091
vt 0.779475 0.6427547
vt 0.8365364 0.6716418
vt 0.4992032 0.2574891
vt 0.4992032 0.2006574
vt 0.4992032 0.3650057
vt 0.6015612 0.4875911
vt 0.7024878 0.5887094
vt 0.6015612 0.2589716
vt 0.6082932 0.2032595
vt 0.5997702 0.3652801
vt 0.779793 0.578577
vt 0.8365364 0.6716418
vt 0.8571984 0.58934
vt 0.6952566 0.4816688
vt 0.7800596 0.478308
vt 0.8650495 0.4819248
vt 0.6934007 0.3647166
vt 0.6952566 0.2622075
vt 0.7024878 0.2089437
vt 0.7801732 0.3643554
vt 0.8671428 0.3644976
vt 0.7800596 0.2639979
vt 0.7797928 0.2128303
vt 0.8650495 0.2616883
vt 0.8571984 0.208544
vn -0.7348202 0.3397224 0.5870502
vn -0.6642255 0.4740596 0.5779896
vn -0.6473517 0.4031476 0.6468447
vn -0.6651404 0.3371225 0.6662858
vn -0.7433745 0.2529649 0.6191955
vn -0.4285367 0.5031105 0.7504907
vn -0.6642255 0.4740596 0.5779896
vn -0.3855955 0.645465 0.659311
vn -0.6832422 0.2512407 0.685608
vn -0.7734697 0.02487628 0.633345
vn -0.2217776 0.5580698 0.7996079
vn -0.1960755 0.6874744 0.6992377
vn -0.471684 0.368611 0.8010243
vn -0.7056859 0.0158894 0.7083467
vn -0.7364343 -0.3144593 0.5989825
vn 0 0.5809947 0.8139074
vn 0 0.7028159 0.7113717
vn -0.5122333 0.2614318 0.8180896
vn -0.2496926 0.4163637 0.8742395
vn -0.6692657 -0.3174262 0.6718066
vn -0.6707773 -0.4956271 0.551735
vn -0.6122026 -0.4974838 0.6145874
vn 0.2217767 0.5580699 0.7996081
vn 0.1960744 0.6874745 0.6992379
vn -0.5258762 0.01896103 0.8503498
vn -0.4926378 -0.3263008 0.806744
vn -0.4512329 -0.5178261 0.7268046
vn -0.2725007 0.2759815 0.9217254
vn 0 0.4366104 0.8996506
vn 0.4285363 0.5031106 0.7504907
vn 0.3855951 0.6454651 0.6593111
vn -0.2597457 -0.3368797 0.9050106
vn -0.24109 -0.55332 0.7973158
vn -0.2766433 0.02335243 0.9606889
vn 0 0.2812793 0.9596259
vn 0.2496917 0.4163643 0.8742396
vn 0.6473515 0.4031478 0.6468446
vn 0.6642255 0.4740603 0.5779891
vn 0 -0.3390486 0.9407688
vn 0 -0.5698887 0.8217219
vn 0 0.02443706 0.9997013
vn 0.2724996 0.2759818 0.9217256
vn 0.4716838 0.3686115 0.8010243
vn 0.2597443 -0.3368802 0.9050108
vn 0.2410888 -0.5533205 0.7973158
vn 0.276642 0.0233523 0.9606892
vn 0.66514 0.3371227 0.6662859
vn 0.6642255 0.4740603 0.5779891
vn 0.73482 0.3397226 0.5870503
vn 0.5122334 0.2614321 0.8180894
vn 0.6832421 0.251241 0.6856079
vn 0.7433742 0.2529652 0.6191958
vn 0.5258762 0.01896098 0.8503498
vn 0.4926374 -0.3263013 0.806744
vn 0.4512321 -0.5178269 0.7268046
vn 0.7056859 0.01588946 0.7083466
vn 0.7734695 0.02487629 0.6333452
vn 0.6692655 -0.3174269 0.6718064
vn 0.6122026 -0.4974843 0.614587
vn 0.7364343 -0.3144597 0.5989823
vn 0.6707776 -0.4956275 0.5517343
g slime_face_LOD1_0
f 3/3/3 2/2/2 1/1/1
f 4/4/4 3/3/3 1/1/1
f 4/4/4 1/1/1 5/5/5
f 6/6/6 3/3/3 4/4/4
f 3/3/3 6/6/6 7/7/7
f 6/6/6 8/8/8 7/7/7
f 9/9/9 4/4/4 5/5/5
f 9/9/9 5/5/5 10/10/10
f 6/6/6 11/11/11 8/8/8
f 11/11/11 12/12/12 8/8/8
f 13/13/13 6/6/6 4/4/4
f 13/13/13 4/4/4 9/9/9
f 11/11/11 6/6/6 13/13/13
f 14/14/14 9/9/9 10/10/10
f 14/14/14 10/10/10 15/15/15
f 11/11/11 16/16/16 12/12/12
f 16/16/16 17/17/17 12/12/12
f 18/18/18 13/13/13 9/9/9
f 18/18/18 9/9/9 14/14/14
f 19/19/19 11/11/11 13/13/13
f 16/16/16 11/11/11 19/19/19
f 19/19/19 13/13/13 18/18/18
f 20/20/20 14/14/14 15/15/15
f 20/20/20 15/15/15 21/21/21
f 22/22/22 20/20/20 21/21/21
f 16/16/16 23/23/23 17/17/17
f 23/23/23 24/24/24 17/17/17
f 25/25/25 18/18/18 14/14/14
f 25/25/25 14/14/14 20/20/20
f 26/26/26 20/20/20 22/22/22
f 26/26/26 25/25/25 20/20/20
f 27/27/27 26/26/26 22/22/22
f 28/28/28 19/19/19 18/18/18
f 28/28/28 18/18/18 25/25/25
f 29/29/29 16/16/16 19/19/19
f 23/23/23 16/16/16 29/29/29
f 29/29/29 19/19/19 28/28/28
f 23/23/23 30/30/30 24/24/24
f 30/30/30 31/31/31 24/24/24
f 32/32/32 26/26/26 27/27/27
f 33/33/33 32/32/32 27/27/27
f 34/34/34 25/25/25 26/26/26
f 34/34/34 28/28/28 25/25/25
f 32/32/32 34/34/34 26/26/26
f 35/35/35 29/29/29 28/28/28
f 35/35/35 28/28/28 34/34/34
f 36/36/36 23/23/23 29/29/29
f 30/30/30 23/23/23 36/36/36
f 36/36/36 29/29/29 35/35/35
f 30/30/30 37/37/37 31/31/31
f 37/37/37 38/38/38 31/31/31
f 39/39/39 32/32/32 33/33/33
f 40/40/40 39/39/39 33/33/33
f 41/41/41 34/34/34 32/32/32
f 41/41/41 35/35/35 34/34/34
f 39/39/39 41/41/41 32/32/32
f 42/42/42 36/36/36 35/35/35
f 42/42/42 35/35/35 41/41/41
f 43/43/43 30/30/30 36/36/36
f 37/37/37 30/30/30 43/43/43
f 43/43/43 36/36/36 42/42/42
f 44/44/44 39/39/39 40/40/40
f 45/45/45 44/44/44 40/40/40
f 46/46/46 41/41/41 39/39/39
f 46/46/46 42/42/42 41/41/41
f 44/44/44 46/46/46 39/39/39
f 47/47/47 37/37/37 43/43/43
f 37/37/37 47/47/47 48/48/48
f 47/47/47 49/49/49 48/48/48
f 50/50/50 43/43/43 42/42/42
f 50/50/50 42/42/42 46/46/46
f 47/47/47 43/43/43 50/50/50
f 47/47/47 51/51/51 49/49/49
f 51/51/51 47/47/47 50/50/50
f 51/51/51 52/52/52 49/49/49
f 53/53/53 50/50/50 46/46/46
f 53/53/53 46/46/46 44/44/44
f 51/51/51 50/50/50 53/53/53
f 54/54/54 44/44/44 45/45/45
f 54/54/54 53/53/53 44/44/44
f 55/55/55 54/54/54 45/45/45
f 51/51/51 56/56/56 52/52/52
f 56/56/56 51/51/51 53/53/53
f 56/56/56 53/53/53 54/54/54
f 56/56/56 57/57/57 52/52/52
f 58/58/58 54/54/54 55/55/55
f 58/58/58 56/56/56 54/54/54
f 56/56/56 58/58/58 57/57/57
f 59/59/59 58/58/58 55/55/55
f 58/58/58 60/60/60 57/57/57
f 58/58/58 59/59/59 60/60/60
f 59/59/59 61/61/61 60/60/60
