g slime_saber_LOD2
v 0.1343176 0.7596921 -0.2953965
v 0.1475836 0.8952541 -0.1004754
v -4.184787E-08 0.92337 -0.1180781
v -0.1343176 0.835681 0.1840597
v -0.1475837 0.8952541 -0.1004754
v -0.3048035 0.6802905 0.2250336
v -0.3612466 0.7205418 -0.03418427
v -0.1343177 0.759692 -0.2953964
v -0.128548 0.7453066 0.29886
v -1.454194E-08 0.7606605 0.3096398
v 0 0.6608199 0.4094472
v -4.242969E-08 0.8606099 0.1833334
v -4.184787E-08 0.92337 -0.1180781
v -0.1305809 0.6504139 0.39344
v -0.113929 0.5276671 0.4791897
v -0.1904732 0.5410631 0.4518055
v -0.3975171 0.4825116 0.2773076
v -0.5214226 0.4250112 -0.02758041
v -0.4351765 0.2518846 0.2596331
v -0.3636473 0.4056861 0.3750896
v 0.128548 0.7453066 0.29886
v -0.2555389 0.4530412 0.4656237
v -0.2363763 0.396161 0.4834344
v -0.3048031 0.6411237 -0.2708674
v -0.3454683 0.3369572 0.3864249
v -0.2941688 0.3348729 0.4102724
v -0.2353728 0.3703086 0.4735937
v -0.1416567 0.4207093 0.5082332
v 0 0.5009738 0.4930197
v -0.1323391 0.4055274 0.4766892
v -1.674983E-08 0.4847767 0.4820644
v 0.1322778 0.4043632 0.4769675
v 0.1418628 0.4243729 0.5072869
v 0.1139398 0.5278337 0.4791379
v 0 0.5330908 0.4991794
v 0.2353888 0.3708912 0.4734276
v 0 0.5843933 0.4682967
v 0.2364542 0.3972268 0.4831687
v 0.2941865 0.3350244 0.4102474
v 0.1305809 0.6504139 0.39344
v 0.3454638 0.3369446 0.3864388
v 0.1975401 0.2465059 0.4241481
v 0.2556053 0.4536539 0.4654471
v 0.1904732 0.5410631 0.4518055
v 0.3636681 0.405829 0.3750525
v 0.4351766 0.2518845 0.2596332
v 0.3357818 0.259688 0.3312772
v 0.1975401 0.2465059 0.4241481
v 0.3048036 0.6882933 0.2250337
v 0.3975172 0.4825116 0.2773077
v 0.5214228 0.4250112 -0.02758041
v 0.1343176 0.8356812 0.1840598
v 0.1475836 0.8952541 -0.1004754
v 0.3612466 0.7205418 -0.03418427
v 0.1475836 0.8952541 -0.1004754
v -4.184787E-08 0.92337 -0.1180781
v 0.3048031 0.6411237 -0.2708675
v 0.1343176 0.7596921 -0.2953965
v 0.4074641 0.463263 -0.2504648
v 0.128548 0.6706054 -0.3547879
v 0.3376736 0.4514001 -0.3358458
v -4.362586E-08 0.6816312 -0.36876
v -4.242971E-08 0.7778431 -0.3098165
v -4.184787E-08 0.92337 -0.1180781
v -5.026178E-08 0.4517118 -0.4636101
v 0.1344927 0.4467047 -0.4464728
v -7.694171E-08 0.1936661 -0.4858247
v 0.1340705 0.2030542 -0.4638008
v -9.14313E-08 0.03771272 -0.3631943
v 0.3360761 0.2278395 -0.3402716
v 0.1244142 0.04681897 -0.3491667
v -7.67802E-08 0.01915469 -0.2582542
v 0.4504389 0.2341382 -0.2272486
v 0.2962983 0.07735536 -0.2618067
v 0.3499503 0.04530476 -0.003598888
v -1.038197E-07 0.0262751 -0.001173583
v 0.5983925 0.257504 -0.06409355
v 0.4795412 0.1204287 -0.03205796
v 0.3499503 0.04530476 -0.003598888
v 0.5291667 0.2424977 0.0987753
v 0.2972944 0.09989452 0.2521346
v -7.346882E-08 0.03009439 0.2497356
v -1.038197E-07 0.0262751 -0.001173583
v 0.1261903 0.09517708 0.3707724
v -7.346882E-08 0.03009439 0.2497356
v 0.1340705 0.2397833 0.4522582
v 0.1322778 0.4043632 0.4769675
v -9.143123E-08 0.05492293 0.3492467
v -6.269913E-08 0.350562 0.4878389
v -1.674983E-08 0.4847767 0.4820644
v -0.1323391 0.4055274 0.4766892
v -0.1261904 0.09517723 0.3707722
v -0.2972944 0.09989465 0.2521344
v -7.694162E-08 0.2221178 0.4735232
v -0.1340705 0.2397834 0.4522579
v -0.197521 0.2461606 0.4241676
v -0.3357817 0.2596882 0.331277
v -0.2941688 0.3348729 0.4102724
v -0.3499505 0.04530488 -0.00359889
v -7.346882E-08 0.03009439 0.2497356
v -1.038197E-07 0.0262751 -0.001173583
v -0.5291665 0.2424978 0.09877526
v -0.4795414 0.1204289 -0.03205798
v -0.5983915 0.257504 -0.06409352
v -0.4504388 0.2341383 -0.2272485
v -0.3499505 0.04530488 -0.00359889
v -0.4074641 0.463263 -0.2504647
v -0.3376736 0.4514001 -0.3358458
v -0.2962984 0.07735543 -0.2618066
v -0.3360761 0.2278396 -0.3402716
v -0.1344927 0.4467047 -0.4464728
v -7.67802E-08 0.01915469 -0.2582542
v -1.038197E-07 0.0262751 -0.001173583
v -0.1340707 0.2030542 -0.4638008
v -0.1244144 0.04681913 -0.3491667
v -9.14313E-08 0.03771272 -0.3631943
v -7.694171E-08 0.1936661 -0.4858247
v -5.026178E-08 0.4517118 -0.4636101
v -4.362586E-08 0.6816312 -0.36876
v -0.1285481 0.6706054 -0.3547878
v -4.242971E-08 0.7778431 -0.3098165
v -0.1475837 0.8952541 -0.1004754
v -4.184787E-08 0.92337 -0.1180781
v 0.2941865 0.3350244 0.4102474
v 0.1975401 0.2465059 0.4241481
v 0.2693425 0.2594593 0.4339823
v 0.1881502 0.1476375 0.4552221
v 0.2451644 0.1568808 0.4603304
v 0.1862136 0.05986873 0.473646
v 0.1539193 0.1684289 0.4934503
v 0.1881502 0.1476375 0.4552221
v 0.1436359 0.2932234 0.4852385
v 0.1975401 0.2465059 0.4241481
v 0.1322778 0.4043632 0.4769675
v -0.2941688 0.3348729 0.4102724
v -0.2683997 0.2482816 0.4348871
v -0.197521 0.2461606 0.4241676
v -0.1881502 0.1476375 0.4552221
v -0.2451644 0.1568808 0.4603304
v -0.1862136 0.05986873 0.473646
v -0.1539193 0.1684289 0.4934503
v -0.1881502 0.1476375 0.4552221
v -0.1436359 0.2932234 0.4852385
v -0.197521 0.2461606 0.4241676
v -0.1323391 0.4055274 0.4766892
v -0.2260171 0.2890272 0.4977389
v -0.1539193 0.1684289 0.4934503
v -0.2108287 0.1596558 0.5019692
v -0.1436359 0.2932234 0.4852385
v -0.1323391 0.4055274 0.4766892
v -0.2353728 0.3703086 0.4735937
v -0.2941688 0.3348729 0.4102724
v -0.2683997 0.2482816 0.4348871
v -0.2108287 0.1596558 0.5019692
v -0.1862136 0.05986873 0.473646
v -0.2451644 0.1568808 0.4603304
v 0.2108287 0.1596558 0.5019692
v 0.1862136 0.05986873 0.473646
v 0.1539193 0.1684289 0.4934503
v 0.2451644 0.1568808 0.4603304
v 0.2693425 0.2594593 0.4339823
v 0.2260171 0.2890272 0.4977389
v 0.1436359 0.2932234 0.4852385
v 0.2941865 0.3350244 0.4102474
v 0.1322778 0.4043632 0.4769675
v 0.2353888 0.3708912 0.4734276
vt 1.363998 0.7900046
vt 0.9812102 0.8815013
vt 0.5 0.9943965
vt 0.3303118 0.7820615
vt 0.02205467 0.8814915
vt 0.2001784 0.6494714
vt 0.01218534 0.7178484
vt -0.3607099 0.7897767
vt 0.3692852 0.6986574
vt 0.5022317 0.7101933
vt 0.5019754 0.6196283
vt 0.5 0.8044636
vt 0.5 0.9943965
vt 0.3844172 0.607312
vt 0.4160152 0.5008585
vt 0.3551736 0.5138243
vt 0.1762825 0.4670829
vt 0.01044339 0.4278235
vt 0.1333727 0.2616487
vt 0.2092064 0.3778203
vt 0.632388 0.6991508
vt 0.312109 0.4339032
vt 0.3086305 0.3799555
vt -0.2057318 0.6611449
vt 0.2309657 0.3234487
vt 0.277258 0.3371838
vt 0.3353582 0.3357524
vt 0.3966341 0.4016925
vt 0.5008587 0.4181283
vt 0.4000593 0.2777209
vt 0.5004905 0.2193256
vt 0.6011372 0.2773484
vt 0.6050217 0.4013065
vt 0.5860082 0.5005436
vt 0.5010248 0.5077804
vt 0.6574305 0.3313243
vt 0.5011254 0.5620196
vt 0.6923279 0.3795441
vt 0.7230039 0.336676
vt 0.6186203 0.6076949
vt 0.7680819 0.3229764
vt 0.6724888 0.2614212
vt 0.6893727 0.4336358
vt 0.6470251 0.5139441
vt 0.7902822 0.3772811
vt 0.8650495 0.2616883
vt 0.7800596 0.2639979
vt 0.6724888 0.2614212
vt 0.8010918 0.6488777
vt 0.8237077 0.4663287
vt 0.9928041 0.4278897
vt 0.6681198 0.7820643
vt 0.9812102 0.8815013
vt 0.9910672 0.7178947
vt 0.9812102 0.8815013
vt 0.5 0.9943965
vt 1.210734 0.6613066
vt 1.363998 0.7900046
vt 1.149467 0.4827509
vt 1.413698 0.7074861
vt 1.243203 0.4793672
vt 1.500002 0.7212515
vt 1.500002 0.8118594
vt 0.5 0.9943965
vt 1.500002 0.4923359
vt 1.441309 0.4892534
vt 1.500002 0.2536809
vt 1.441309 0.255146
vt 1.500002 0.1494018
vt 1.243203 0.2617395
vt 1.413697 0.1546453
vt 1.432 0.1105103
vt 1.09775 0.2580251
vt 1.210734 0.1750275
vt 0.9910672 0.1515137
vt 0.5010878 0.04475119
vt 0.9923807 0.2591935
vt 0.9921571 0.1986035
vt 0.9910672 0.1515137
vt 0.9400311 0.2579104
vt 0.8080055 0.1774666
vt 0.4994774 0.116472
vt 0.5010878 0.04475119
vt 0.6168233 0.1813267
vt 0.4994774 0.116472
vt 0.6015612 0.2589716
vt 0.600539 0.4177845
vt 0.5 0.1539686
vt 0.5 0.3650057
vt 0.5 0.4905324
vt 0.3978927 0.4177846
vt 0.3816085 0.1813262
vt 0.1904193 0.1774107
vt 0.5 0.2574891
vt 0.39687 0.2589715
vt 0.325938 0.2614158
vt 0.2183617 0.2639688
vt 0.277258 0.3371838
vt 0.01217568 0.1512889
vt 0.4994774 0.116472
vt 0.5010878 0.04475119
vt 0.06080234 0.2578612
vt 0.01108658 0.1983692
vt 0.01090984 0.2590268
vt -0.09148083 0.2580553
vt 0.01217568 0.1512889
vt -0.1437765 0.4826873
vt -0.2385588 0.4793025
vt -0.2057187 0.1749443
vt -0.2385528 0.261679
vt -0.4388776 0.4891861
vt -0.4303444 0.1106186
vt 0.5010878 0.04475119
vt -0.438866 0.2552481
vt -0.4109457 0.1546805
vt -0.4999979 0.1496457
vt -0.4999992 0.253822
vt -0.5000027 0.4922673
vt -0.5000034 0.7211872
vt -0.4109615 0.7073376
vt -0.5000041 0.8118
vt 0.02205467 0.8814915
vt 0.5 0.9943965
vt 1.008667 0.2524581
vt 1.0145 0.359665
vt 1.00929 0.4023443
vt 1.01094 0.4680801
vt 1.007801 0.4851917
vt 1.000178 0.5731701
vt 0.9926424 0.4860639
vt 0.9892448 0.4683701
vt 0.9910066 0.403498
vt 0.9855003 0.359665
vt 0.9915582 0.2524581
vt -0.008666635 0.2524581
vt -0.009289503 0.4023443
vt -0.01449966 0.359665
vt -0.01093978 0.4680801
vt -0.007801056 0.4851917
vt -0.0001783967 0.5731701
vt 0.007357597 0.4860639
vt 0.01075533 0.4683701
vt 0.008993387 0.403498
vt 0.01449966 0.359665
vt 0.008441806 0.2524581
vt -5.692244E-05 0.4153406
vt 0.007357597 0.4860639
vt 0.00374186 0.4719189
vt 0.008993387 0.403498
vt 0.008441806 0.2524581
vt -0.0002174973 0.2524581
vt -0.008666635 0.2524581
vt -0.009289503 0.4023443
vt -0.001006603 0.4971981
vt -0.0001783967 0.5731701
vt -0.007801056 0.4851917
vt 1.000057 0.4968405
vt 1.000178 0.5731701
vt 0.9926424 0.4860639
vt 1.007801 0.4851917
vt 1.00929 0.4023443
vt 1.000057 0.4153406
vt 0.9910066 0.403498
vt 1.008667 0.2524581
vt 0.9915582 0.2524581
vt 1.000217 0.2524581
vn 0.4430277 0.6985823 -0.5618802
vn 0.4693336 0.8733829 -0.1301089
vn 0 0.9835818 -0.180463
vn -0.4288485 0.8515687 0.301529
vn -0.4727128 0.8721972 -0.1257561
vn -0.7244307 0.5944752 0.3489978
vn -0.7777468 0.628137 -0.02353524
vn -0.4430278 0.6985822 -0.5618801
vn -0.287033 0.7150037 0.6374809
vn 0 0.7492377 0.6623012
vn -4.463444E-05 0.6675862 0.7445325
vn 0 0.9403766 0.3401349
vn 0 0.9835818 -0.180463
vn -0.4418853 0.5864446 0.6788372
vn -0.1607849 0.3757039 0.9126856
vn -0.561876 0.5117607 0.6499203
vn -0.8223645 0.4149023 0.3893234
vn -0.91071 0.4126937 -0.01706752
vn -0.8256066 -0.321366 0.4637862
vn -0.754599 0.3141862 0.5760795
vn 0.2757097 0.7173786 0.6398063
vn -0.6022591 0.4243795 0.6761553
vn -0.3515597 -0.1071925 0.9300084
vn -0.6698126 0.5116321 -0.5381299
vn -0.6360165 -0.2898885 0.7151557
vn -0.400169 -0.4219967 0.8135008
vn -0.1697652 -0.5966233 0.7843598
vn -0.0321336 -0.1219008 0.9920219
vn 0.0007020394 -0.02251349 0.9997463
vn 0.2957909 -0.6966705 0.6535732
vn 0.008334213 -0.7269586 0.6866308
vn -0.2647795 -0.6508021 0.7115815
vn 0.03259427 -0.1167774 0.9926231
vn 0.1611918 0.3772815 0.9119627
vn -0.000508013 0.2803635 0.9598938
vn 0.1745116 -0.5565584 0.8122736
vn -0.0002692709 0.5861599 0.8101954
vn 0.3470296 -0.1058961 0.9318565
vn 0.3993396 -0.4191158 0.8153955
vn 0.4416837 0.5796407 0.6847862
vn 0.6355968 -0.2896446 0.7156276
vn 0.4965893 -0.4565366 0.7382233
vn 0.6027543 0.4258081 0.6748146
vn 0.5608228 0.5047044 0.6563164
vn 0.7549018 0.3142728 0.5756351
vn 0.825599 -0.3213857 0.4637861
vn 0.5012974 -0.4984591 0.7072762
vn 0.4965893 -0.4565366 0.7382233
vn 0.7249306 0.5949702 0.3471114
vn 0.8242419 0.4111042 0.3893821
vn 0.9117393 0.4103885 -0.01768473
vn 0.4225124 0.8565574 0.2962981
vn 0.4693336 0.8733829 -0.1301089
vn 0.7791276 0.6262726 -0.02725651
vn 0.4693336 0.8733829 -0.1301089
vn 0 0.9835818 -0.180463
vn 0.6698125 0.5116321 -0.5381299
vn 0.4430277 0.6985823 -0.5618802
vn 0.8319808 0.3069749 -0.4621411
vn 0.3068373 0.4035028 -0.8619956
vn 0.5597867 0.1665597 -0.8117246
vn 0 0.431614 -0.9020584
vn 0 0.7368228 -0.676086
vn 0 0.9835818 -0.180463
vn 0 0.2299419 -0.9732044
vn 0.348277 0.1984061 -0.916154
vn 0 -0.2353289 -0.9719158
vn 0.3699194 -0.2122406 -0.9044963
vn 0 -0.711917 -0.7022636
vn 0.5800941 -0.1712972 -0.7963341
vn 0.3355898 -0.7052624 -0.6244873
vn 0 -0.9986178 -0.05256023
vn 0.7923024 -0.2205348 -0.5688772
vn 0.4588626 -0.7828307 -0.4202633
vn 0.3744766 -0.9234895 0.08327322
vn 0 -0.9997687 0.02150747
vn 0.9604586 -0.04741924 -0.2743551
vn 0.6034454 -0.7932491 0.08129896
vn 0.3744766 -0.9234895 0.08327322
vn 0.7881578 -0.3924667 0.4741068
vn 0.457275 -0.777721 0.4313345
vn 0 -0.9896459 0.1435302
vn 0 -0.9997687 0.02150747
vn 0.3080317 -0.6740126 0.6714339
vn 0 -0.9896459 0.1435302
vn 0.2058071 -0.3983556 0.8938435
vn 0.1414078 -0.08011418 0.9867045
vn 0 -0.7090998 0.7051081
vn -0.001063676 -0.07116612 0.9974639
vn -0.001076479 0.04298497 0.9990752
vn -0.1430394 -0.07838064 0.9866085
vn -0.3080057 -0.674219 0.6712385
vn -0.4572941 -0.7778458 0.4310892
vn 0 -0.4526277 0.8916996
vn -0.205809 -0.3972026 0.894356
vn -0.4965968 -0.4566102 0.7381727
vn -0.5015632 -0.4986764 0.7069344
vn -0.400169 -0.4219967 0.8135008
vn -0.374477 -0.9234893 0.08327334
vn 0 -0.9896459 0.1435302
vn 0 -0.9997687 0.02150747
vn -0.7881582 -0.3924662 0.4741065
vn -0.6034465 -0.7932482 0.08129916
vn -0.9604587 -0.04741911 -0.2743547
vn -0.792303 -0.2205346 -0.5688765
vn -0.374477 -0.9234893 0.08327334
vn -0.831981 0.3069747 -0.4621408
vn -0.559787 0.1665598 -0.8117244
vn -0.4588629 -0.7828307 -0.4202631
vn -0.5800945 -0.171297 -0.7963338
vn -0.3482771 0.1984062 -0.9161538
vn 0 -0.9986178 -0.05256023
vn 0 -0.9997687 0.02150747
vn -0.3699195 -0.2122406 -0.9044963
vn -0.3355901 -0.7052622 -0.6244873
vn 0 -0.711917 -0.7022636
vn 0 -0.2353289 -0.9719158
vn 0 0.2299419 -0.9732044
vn 0 0.431614 -0.9020584
vn -0.3068376 0.4035029 -0.8619955
vn 0 0.7368228 -0.676086
vn -0.4727128 0.8721972 -0.1257561
vn 0 0.9835818 -0.180463
vn 0.8497929 -0.0280652 0.5263691
vn -0.4328581 -0.2383902 -0.8693699
vn 0.9483442 -0.1643296 0.2713651
vn -0.3984225 -0.2024728 -0.8945749
vn 0.9448704 -0.2509819 0.2103051
vn -0.03403687 -0.9630609 0.267124
vn -0.5527704 -0.05198216 0.8317108
vn -0.3984225 -0.2024728 -0.8945749
vn -0.5527133 0.06604714 0.8307501
vn -0.4328581 -0.2383902 -0.8693699
vn -0.195924 0.1577508 0.9678473
vn -0.8566726 -0.03083158 0.5149382
vn -0.9553981 -0.1726286 0.2396116
vn 0.4413383 -0.2330893 -0.866539
vn 0.4077927 -0.2037064 -0.8900612
vn -0.9377593 -0.252731 0.2381902
vn 0.03403819 -0.9630608 0.2671243
vn 0.5527706 -0.05198215 0.8317106
vn 0.4077927 -0.2037064 -0.8900612
vn 0.555723 0.0657786 0.8287613
vn 0.4413383 -0.2330893 -0.866539
vn 0.1998186 0.1576477 0.9670675
vn -0.3560207 0.0626887 0.932373
vn 0.5527706 -0.05198215 0.8317106
vn -0.3250496 -0.08352628 0.942001
vn 0.555723 0.0657786 0.8287613
vn 0.1998186 0.1576477 0.9670675
vn -0.3581826 0.1147667 0.926571
vn -0.8566726 -0.03083158 0.5149382
vn -0.9553981 -0.1726286 0.2396116
vn -0.3250496 -0.08352628 0.942001
vn 0.03403819 -0.9630608 0.2671243
vn -0.9377593 -0.252731 0.2381902
vn 0.3347396 -0.08291842 0.9386554
vn -0.03403687 -0.9630609 0.267124
vn -0.5527704 -0.05198216 0.8317108
vn 0.9448704 -0.2509819 0.2103051
vn 0.9483442 -0.1643296 0.2713651
vn 0.3516643 0.06193919 0.9340748
vn -0.5527133 0.06604714 0.8307501
vn 0.8497929 -0.0280652 0.5263691
vn -0.195924 0.1577508 0.9678473
vn 0.3436396 0.1185982 0.9315827
g slime_saber_LOD2_0
f 3/3/3 2/2/2 1/1/1
f 5/5/5 4/4/4 3/3/3
f 6/6/6 4/4/4 5/5/5
f 7/7/7 6/6/6 5/5/5
f 7/7/7 5/5/5 8/8/8
f 4/4/4 6/6/6 9/9/9
f 9/9/9 10/10/10 4/4/4
f 11/11/11 10/10/10 9/9/9
f 10/10/10 12/12/12 4/4/4
f 4/4/4 12/12/12 13/13/13
f 14/14/14 9/9/9 6/6/6
f 14/14/14 11/11/11 9/9/9
f 15/15/15 11/11/11 14/14/14
f 16/16/16 15/15/15 14/14/14
f 16/16/16 14/14/14 6/6/6
f 17/17/17 6/6/6 7/7/7
f 17/17/17 16/16/16 6/6/6
f 18/18/18 17/17/17 7/7/7
f 19/19/19 17/17/17 18/18/18
f 17/17/17 20/20/20 16/16/16
f 17/17/17 19/19/19 20/20/20
f 10/10/10 11/11/11 21/21/21
f 10/10/10 21/21/21 12/12/12
f 15/15/15 16/16/16 22/22/22
f 20/20/20 22/22/22 16/16/16
f 20/20/20 23/23/23 22/22/22
f 23/23/23 15/15/15 22/22/22
f 18/18/18 7/7/7 24/24/24
f 24/24/24 7/7/7 8/8/8
f 19/19/19 25/25/25 20/20/20
f 25/25/25 23/23/23 20/20/20
f 26/26/26 23/23/23 25/25/25
f 27/27/27 23/23/23 26/26/26
f 28/28/28 23/23/23 27/27/27
f 28/28/28 15/15/15 23/23/23
f 28/28/28 29/29/29 15/15/15
f 30/30/30 28/28/28 27/27/27
f 28/28/28 30/30/30 29/29/29
f 30/30/30 31/31/31 29/29/29
f 31/31/31 32/32/32 29/29/29
f 32/32/32 33/33/33 29/29/29
f 29/29/29 33/33/33 34/34/34
f 35/35/35 29/29/29 34/34/34
f 29/29/29 35/35/35 15/15/15
f 33/33/33 32/32/32 36/36/36
f 35/35/35 37/37/37 15/15/15
f 37/37/37 35/35/35 34/34/34
f 11/11/11 15/15/15 37/37/37
f 34/34/34 11/11/11 37/37/37
f 38/38/38 33/33/33 36/36/36
f 34/34/34 33/33/33 38/38/38
f 38/38/38 36/36/36 39/39/39
f 11/11/11 34/34/34 40/40/40
f 11/11/11 40/40/40 21/21/21
f 38/38/38 39/39/39 41/41/41
f 42/42/42 41/41/41 39/39/39
f 34/34/34 38/38/38 43/43/43
f 34/34/34 44/44/44 40/40/40
f 44/44/44 34/34/34 43/43/43
f 38/38/38 45/45/45 43/43/43
f 38/38/38 41/41/41 45/45/45
f 43/43/43 45/45/45 44/44/44
f 45/45/45 41/41/41 46/46/46
f 41/41/41 47/47/47 46/46/46
f 47/47/47 41/41/41 48/48/48
f 21/21/21 40/40/40 49/49/49
f 40/40/40 44/44/44 49/49/49
f 45/45/45 50/50/50 44/44/44
f 46/46/46 50/50/50 45/45/45
f 44/44/44 50/50/50 49/49/49
f 50/50/50 46/46/46 51/51/51
f 49/49/49 50/50/50 51/51/51
f 49/49/49 52/52/52 21/21/21
f 21/21/21 52/52/52 12/12/12
f 12/12/12 52/52/52 53/53/53
f 52/52/52 49/49/49 54/54/54
f 54/54/54 49/49/49 51/51/51
f 55/55/55 52/52/52 54/54/54
f 56/56/56 12/12/12 55/55/55
f 55/55/55 54/54/54 57/57/57
f 58/58/58 55/55/55 57/57/57
f 54/54/54 51/51/51 59/59/59
f 57/57/57 54/54/54 59/59/59
f 57/57/57 60/60/60 58/58/58
f 59/59/59 61/61/61 57/57/57
f 57/57/57 61/61/61 60/60/60
f 58/58/58 60/60/60 62/62/62
f 63/63/63 58/58/58 62/62/62
f 63/63/63 64/64/64 58/58/58
f 62/62/62 60/60/60 65/65/65
f 60/60/60 66/66/66 65/65/65
f 61/61/61 66/66/66 60/60/60
f 65/65/65 66/66/66 67/67/67
f 66/66/66 68/68/68 67/67/67
f 68/68/68 66/66/66 61/61/61
f 67/67/67 68/68/68 69/69/69
f 70/70/70 61/61/61 59/59/59
f 70/70/70 68/68/68 61/61/61
f 68/68/68 71/71/71 69/69/69
f 71/71/71 68/68/68 70/70/70
f 72/72/72 69/69/69 71/71/71
f 73/73/73 70/70/70 59/59/59
f 59/59/59 51/51/51 73/73/73
f 74/74/74 71/71/71 70/70/70
f 72/72/72 71/71/71 74/74/74
f 74/74/74 70/70/70 73/73/73
f 72/72/72 74/74/74 75/75/75
f 73/73/73 75/75/75 74/74/74
f 72/72/72 75/75/75 76/76/76
f 51/51/51 77/77/77 73/73/73
f 77/77/77 78/78/78 73/73/73
f 73/73/73 78/78/78 79/79/79
f 80/80/80 77/77/77 51/51/51
f 80/80/80 78/78/78 77/77/77
f 51/51/51 46/46/46 80/80/80
f 78/78/78 80/80/80 46/46/46
f 75/75/75 78/78/78 46/46/46
f 46/46/46 81/81/81 75/75/75
f 81/81/81 46/46/46 47/47/47
f 81/81/81 47/47/47 48/48/48
f 75/75/75 81/81/81 82/82/82
f 83/83/83 75/75/75 82/82/82
f 84/84/84 81/81/81 48/48/48
f 84/84/84 85/85/85 81/81/81
f 48/48/48 86/86/86 84/84/84
f 48/48/48 87/87/87 86/86/86
f 84/84/84 88/88/88 85/85/85
f 84/84/84 86/86/86 88/88/88
f 86/86/86 87/87/87 89/89/89
f 89/89/89 87/87/87 90/90/90
f 90/90/90 91/91/91 89/89/89
f 88/88/88 92/92/92 85/85/85
f 93/93/93 85/85/85 92/92/92
f 86/86/86 94/94/94 88/88/88
f 94/94/94 86/86/86 89/89/89
f 88/88/88 94/94/94 92/92/92
f 89/89/89 91/91/91 95/95/95
f 94/94/94 89/89/89 95/95/95
f 94/94/94 95/95/95 92/92/92
f 96/96/96 95/95/95 91/91/91
f 92/92/92 95/95/95 96/96/96
f 93/93/93 92/92/92 96/96/96
f 97/97/97 93/93/93 96/96/96
f 96/96/96 25/25/25 97/97/97
f 98/98/98 25/25/25 96/96/96
f 19/19/19 97/97/97 25/25/25
f 97/97/97 19/19/19 93/93/93
f 99/99/99 93/93/93 19/19/19
f 99/99/99 100/100/100 93/93/93
f 99/99/99 101/101/101 100/100/100
f 99/99/99 19/19/19 102/102/102
f 102/102/102 19/19/19 18/18/18
f 103/103/103 99/99/99 102/102/102
f 102/102/102 104/104/104 103/103/103
f 102/102/102 18/18/18 104/104/104
f 103/103/103 104/104/104 105/105/105
f 104/104/104 18/18/18 105/105/105
f 106/106/106 103/103/103 105/105/105
f 105/105/105 18/18/18 107/107/107
f 107/107/107 18/18/18 24/24/24
f 107/107/107 108/108/108 105/105/105
f 24/24/24 108/108/108 107/107/107
f 105/105/105 109/109/109 99/99/99
f 108/108/108 110/110/110 105/105/105
f 105/105/105 110/110/110 109/109/109
f 111/111/111 108/108/108 24/24/24
f 110/110/110 108/108/108 111/111/111
f 109/109/109 112/112/112 99/99/99
f 112/112/112 113/113/113 99/99/99
f 109/109/109 110/110/110 114/114/114
f 114/114/114 110/110/110 111/111/111
f 109/109/109 115/115/115 112/112/112
f 115/115/115 109/109/109 114/114/114
f 112/112/112 115/115/115 116/116/116
f 117/117/117 116/116/116 115/115/115
f 114/114/114 117/117/117 115/115/115
f 118/118/118 117/117/117 114/114/114
f 111/111/111 118/118/118 114/114/114
f 119/119/119 118/118/118 111/111/111
f 120/120/120 111/111/111 24/24/24
f 120/120/120 119/119/119 111/111/111
f 8/8/8 120/120/120 24/24/24
f 121/121/121 119/119/119 120/120/120
f 8/8/8 121/121/121 120/120/120
f 8/8/8 122/122/122 121/121/121
f 5/5/5 123/123/123 121/121/121
f 126/126/126 125/125/125 124/124/124
f 127/127/127 125/125/125 126/126/126
f 127/127/127 126/126/126 128/128/128
f 128/128/128 129/129/129 127/127/127
f 131/131/131 129/129/129 130/130/130
f 131/131/131 130/130/130 132/132/132
f 131/131/131 132/132/132 133/133/133
f 133/133/133 132/132/132 134/134/134
f 137/137/137 136/136/136 135/135/135
f 137/137/137 138/138/138 136/136/136
f 136/136/136 138/138/138 139/139/139
f 140/140/140 139/139/139 138/138/138
f 140/140/140 142/142/142 141/141/141
f 141/141/141 142/142/142 143/143/143
f 143/143/143 142/142/142 144/144/144
f 143/143/143 144/144/144 145/145/145
f 148/148/148 147/147/147 146/146/146
f 147/147/147 149/149/149 146/146/146
f 149/149/149 150/150/150 146/146/146
f 150/150/150 151/151/151 146/146/146
f 146/146/146 151/151/151 152/152/152
f 153/153/153 146/146/146 152/152/152
f 146/146/146 153/153/153 154/154/154
f 155/155/155 147/147/147 154/154/154
f 153/153/153 156/156/156 154/154/154
f 156/156/156 155/155/155 154/154/154
f 159/159/159 158/158/158 157/157/157
f 158/158/158 160/160/160 157/157/157
f 160/160/160 161/161/161 157/157/157
f 159/159/159 157/157/157 162/162/162
f 161/161/161 162/162/162 157/157/157
f 163/163/163 159/159/159 162/162/162
f 162/162/162 161/161/161 164/164/164
f 165/165/165 163/163/163 162/162/162
f 166/166/166 162/162/162 164/164/164
f 166/166/166 165/165/165 162/162/162
