g slime_DLC_default_LOD3
v -3.870181E-08 0.9210134 -0.09805507
v -3.82444E-08 0.782625 0.3042495
v -0.2564413 0.705281 0.2587577
v -3.870181E-08 0.9210134 -0.09805507
v -0.2910076 0.7692319 -0.1095505
v -0.2564415 0.7052811 -0.2587576
v -3.870181E-08 0.9210134 -0.09805507
v -3.824443E-08 0.7826253 -0.3042494
v -6.234604E-08 0.3087651 -0.4868253
v -0.3432294 0.2950985 -0.343229
v -0.2771683 0.07063165 -0.277168
v -8.791423E-08 0.05400982 -0.3635101
v -0.3432291 0.2950985 0.3432291
v -3.82444E-08 0.782625 0.3042495
v -0.2910076 0.7692319 -0.1095505
v -6.234604E-08 0.3087651 0.4868257
v 0.2564415 0.705281 0.2587578
v -0.471 0.3058101 -0.1361213
v -0.3432294 0.2950985 -0.343229
v -0.2564415 0.7052811 -0.2587576
v -0.2771683 0.07063165 -0.277168
v -0.349655 0.05817845 -0.1190801
v -0.2771681 0.07063185 0.2771681
v -8.791415E-08 0.05400998 0.36351
v 0.3432292 0.2950984 0.3432294
v 0.277168 0.07063159 0.2771683
v 0.349655 0.05817828 -0.1190801
v 0.4710002 0.30581 -0.1361214
v 0.2910077 0.7692319 -0.1095506
v 0.2564415 0.7052811 -0.2587576
v 0.3432294 0.2950984 -0.3432291
v 0.2771682 0.07063154 -0.277168
v 0.2910077 0.7692319 -0.1095506
v -3.82444E-08 0.782625 0.3042495
v -3.870181E-08 0.9210134 -0.09805507
v -3.824443E-08 0.7826253 -0.3042494
v 0.2564415 0.7052811 -0.2587576
v 0.3432294 0.2950984 -0.3432291
v -6.234604E-08 0.3087651 -0.4868253
v -8.791423E-08 0.05400982 -0.3635101
v 0.2771682 0.07063154 -0.277168
v 0.2771682 0.07063154 -0.277168
v -8.791423E-08 0.05400982 -0.3635101
v -9.946428E-08 0.02647667 -0.1368506
v 0.349655 0.05817828 -0.1190801
v -9.946428E-08 0.02647667 -0.1368506
v 0.277168 0.07063159 0.2771683
v -9.946428E-08 0.02647667 -0.1368506
v -8.791415E-08 0.05400998 0.36351
v -0.2771681 0.07063185 0.2771681
v -9.946428E-08 0.02647667 -0.1368506
v -9.946428E-08 0.02647667 -0.1368506
v -0.349655 0.05817845 -0.1190801
v -8.791423E-08 0.05400982 -0.3635101
v -0.2771683 0.07063165 -0.277168
v -9.946428E-08 0.02647667 -0.1368506
vt -0.4999997 0.8826321
vt 0.4992033 0.7146531
vt 0.2189422 0.6427224
vt -0.4999997 0.8826321
vt -0.06473753 0.7054749
vt -0.2378955 0.6466913
vt -0.4999997 0.8826321
vt -0.5000034 0.7211872
vt -0.5000008 0.3636284
vt -0.2386864 0.3633466
vt -0.238065 0.1960011
vt -0.4999979 0.1733125
vt 0.2182474 0.3643264
vt 0.4992033 0.7146531
vt -0.06473753 0.7054749
vt 0.4992032 0.3650057
vt 0.779475 0.6427547
vt -0.03733279 0.3643219
vt -0.2386864 0.3633466
vt -0.2378955 0.6466913
vt -0.238065 0.1960011
vt -0.05552907 0.1781262
vt 0.2187918 0.1980718
vt 0.4992033 0.177313
vt 0.7801732 0.3643554
vt 0.7796338 0.1981234
vt 1.06219 0.1780521
vt 1.044196 0.3643427
vt 1.071299 0.7054023
vt 1.242543 0.6468874
vt 1.243332 0.36341
vt 1.242723 0.1960969
vt 1.071299 0.7054023
vt 0.4992033 0.7146531
vt 1.500002 0.8826449
vt 1.500002 0.7212515
vt 1.242543 0.6468874
vt 1.243332 0.36341
vt 1.500002 0.3636655
vt 1.500002 0.1731261
vt 1.242723 0.1960969
vt 1.242723 0.1960969
vt 1.500002 0.1731261
vt 1.499998 0.0590567
vt 1.06219 0.1780521
vt 1.499998 0.0590567
vt 0.7796338 0.1981234
vt 1.499998 0.0590567
vt 0.4992033 0.177313
vt 0.2187918 0.1980718
vt -0.4999959 0.05902004
vt -0.4999959 0.05902004
vt -0.05552907 0.1781262
vt -0.4999979 0.1733125
vt -0.238065 0.1960011
vt -0.4999959 0.05902004
vn 0 0.999713 0.02395729
vn 0 0.6997948 0.7143438
vn -0.6939211 0.505689 0.5125935
vn 0 0.999713 0.02395729
vn -0.7967829 0.6040841 0.01481602
vn -0.5355636 0.4274697 -0.728314
vn 0 0.999713 0.02395729
vn 0 0.519883 -0.8542375
vn 0 0.0658067 -0.9978324
vn -0.5899385 0.0487088 -0.8059776
vn -0.419976 -0.6979305 -0.5800977
vn 0 -0.7010553 -0.7131069
vn -0.7986631 0.05733407 0.599041
vn 0 0.6997948 0.7143438
vn -0.7967829 0.6040841 0.01481602
vn 0 0.06580674 0.9978324
vn 0.693921 0.5056893 0.5125934
vn -0.9978467 0.06558844 -0.0004319663
vn -0.5899385 0.0487088 -0.8059776
vn -0.5355636 0.4274697 -0.728314
vn -0.419976 -0.6979305 -0.5800977
vn -0.5819111 -0.8132141 0.007897492
vn -0.4896629 -0.794578 0.3589934
vn 0 -0.8698512 0.4933142
vn 0.798663 0.0573339 0.5990411
vn 0.4896624 -0.7945781 0.3589933
vn 0.5819108 -0.8132143 0.007897348
vn 0.9978467 0.06558817 -0.0004321718
vn 0.7967828 0.6040842 0.01481588
vn 0.5355634 0.4274698 -0.7283141
vn 0.5899384 0.04870867 -0.8059779
vn 0.4199756 -0.6979306 -0.5800979
vn 0.7967828 0.6040842 0.01481588
vn 0 0.6997948 0.7143438
vn 0 0.999713 0.02395729
vn 0 0.519883 -0.8542375
vn 0.5355634 0.4274698 -0.7283141
vn 0.5899384 0.04870867 -0.8059779
vn 0 0.0658067 -0.9978324
vn 0 -0.7010553 -0.7131069
vn 0.4199756 -0.6979306 -0.5800979
vn 0.4199756 -0.6979306 -0.5800979
vn 0 -0.7010553 -0.7131069
vn 0 -0.9999976 -0.002218483
vn 0.5819108 -0.8132143 0.007897348
vn 0 -0.9999976 -0.002218483
vn 0.4896624 -0.7945781 0.3589933
vn 0 -0.9999976 -0.002218483
vn 0 -0.8698512 0.4933142
vn -0.4896629 -0.794578 0.3589934
vn 0 -0.9999976 -0.002218483
vn 0 -0.9999976 -0.002218483
vn -0.5819111 -0.8132141 0.007897492
vn 0 -0.7010553 -0.7131069
vn -0.419976 -0.6979305 -0.5800977
vn 0 -0.9999976 -0.002218483
g slime_DLC_default_LOD3_0
f 3/3/3 2/2/2 1/1/1
f 5/5/5 3/3/3 4/4/4
f 5/5/5 7/7/7 6/6/6
f 7/7/7 8/8/8 6/6/6
f 8/8/8 9/9/9 6/6/6
f 9/9/9 10/10/10 6/6/6
f 11/11/11 10/10/10 9/9/9
f 12/12/12 11/11/11 9/9/9
f 14/14/14 3/3/3 13/13/13
f 13/13/13 3/3/3 15/15/15
f 16/16/16 14/14/14 13/13/13
f 17/17/17 14/14/14 16/16/16
f 18/18/18 13/13/13 15/15/15
f 18/18/18 15/15/15 19/19/19
f 15/15/15 20/20/20 19/19/19
f 18/18/18 19/19/19 21/21/21
f 22/22/22 18/18/18 21/21/21
f 22/22/22 23/23/23 18/18/18
f 23/23/23 13/13/13 18/18/18
f 16/16/16 13/13/13 23/23/23
f 24/24/24 16/16/16 23/23/23
f 25/25/25 16/16/16 24/24/24
f 25/25/25 17/17/17 16/16/16
f 26/26/26 25/25/25 24/24/24
f 25/25/25 26/26/26 27/27/27
f 17/17/17 25/25/25 28/28/28
f 28/28/28 25/25/25 27/27/27
f 29/29/29 17/17/17 28/28/28
f 29/29/29 28/28/28 30/30/30
f 28/28/28 31/31/31 30/30/30
f 28/28/28 27/27/27 31/31/31
f 27/27/27 32/32/32 31/31/31
f 34/34/34 17/17/17 33/33/33
f 35/35/35 34/34/34 33/33/33
f 35/35/35 33/33/33 36/36/36
f 33/33/33 37/37/37 36/36/36
f 37/37/37 38/38/38 36/36/36
f 38/38/38 39/39/39 36/36/36
f 40/40/40 39/39/39 38/38/38
f 41/41/41 40/40/40 38/38/38
f 44/44/44 43/43/43 42/42/42
f 45/45/45 44/44/44 42/42/42
f 45/45/45 47/47/47 46/46/46
f 47/47/47 49/49/49 48/48/48
f 51/51/51 49/49/49 50/50/50
f 53/53/53 52/52/52 50/50/50
f 53/53/53 55/55/55 54/54/54
f 56/56/56 53/53/53 54/54/54
