g slime_DLC_gold_face
v -0.3156242 0.1844485 0.2290396
v -0.3699912 0.2633777 0.2380522
v -0.3138354 0.2737157 0.3138355
v -0.2878511 0.2123227 0.2878512
v -0.2366071 0.1302546 0.2376399
v -0.2281217 0.1840461 0.3159657
v -0.1300661 0.08812292 0.2528368
v -0.3393658 0.3745731 0.3393659
v -0.4092924 0.3708436 0.2514975
v -0.2371328 0.2631284 0.3705086
v -0.1267237 0.1574826 0.3424884
v -1.00703E-07 0.07111728 0.2601492
v -0.3515063 0.5000001 0.3515064
v -0.4259454 0.5000001 0.2585781
v -0.2505806 0.3707492 0.4099133
v -0.1303803 0.2476977 0.4131093
v -9.841735E-08 0.1441832 0.3557955
v 0.130066 0.08812283 0.2528369
v -0.3393658 0.6254271 0.3393659
v -0.4092923 0.6291565 0.2514975
v -0.2576443 0.5000001 0.4266035
v -0.1360501 0.3640994 0.4617741
v -9.676732E-08 0.2407988 0.4295244
v 0.1267236 0.1574824 0.3424885
v 0.236607 0.1302545 0.23764
v -0.3138354 0.7262846 0.3138355
v -0.369991 0.7366226 0.2380521
v -0.1390695 0.5000001 0.4812026
v -8.705556E-08 0.360715 0.4824745
v 0.1303801 0.2476976 0.4131095
v 0.2281216 0.1840459 0.3159657
v 0.3156242 0.1844483 0.2290397
v -0.287851 0.7876776 0.2878512
v -0.3156242 0.8155517 0.2290396
v -0.2281217 0.8159541 0.3159656
v -0.2366071 0.8697454 0.2376398
v -0.2371328 0.736872 0.3705086
v -0.1267237 0.8425174 0.3424884
v -0.1300661 0.9118772 0.2528367
v -0.2505806 0.6292508 0.4099132
v -4.718882E-08 0.855817 0.3557955
v -4.540569E-08 0.9288827 0.2601493
v -0.1303802 0.7523026 0.4131093
v -0.13605 0.6359007 0.4617741
v 0.1267236 0.8425175 0.3424885
v 0.130066 0.9118773 0.2528369
v -5.1398E-08 0.7592013 0.4295243
v -5.938702E-08 0.6392851 0.4824745
v 0.2281217 0.8159543 0.3159657
v 0.236607 0.8697456 0.2376399
v 0.1303802 0.7523027 0.4131094
v -7.319992E-08 0.5000001 0.4971286
v 0.2878512 0.7876776 0.2878512
v 0.3156243 0.8155519 0.2290397
v 0.13605 0.6359008 0.4617744
v 0.2371328 0.7368721 0.3705087
v 0.3138355 0.7262846 0.3138356
v 0.3699912 0.7366228 0.2380523
v 0.1390695 0.5000001 0.481203
v 0.2505807 0.6292508 0.4099136
v 0.339366 0.6254272 0.339366
v 0.4092924 0.6291565 0.2514976
v 0.13605 0.3640993 0.4617744
v 0.2576443 0.5000001 0.4266038
v 0.3515065 0.5000001 0.3515066
v 0.4259457 0.5000001 0.2585782
v 0.2505807 0.3707491 0.4099136
v 0.3393658 0.3745729 0.3393661
v 0.4092925 0.3708434 0.2514977
v 0.2371328 0.2631281 0.3705087
v 0.3138354 0.2737155 0.3138357
v 0.3699912 0.2633774 0.2380523
v 0.2878511 0.2123225 0.2878513
vt 0.1618867 0.1714566
vt 0.1412243 0.2084805
vt 0.2186318 0.2127789
vt 0.2189518 0.1833648
vt 0.219777 0.1418581
vt 0.2762575 0.1717828
vt 0.3303121 0.1193985
vt 0.2183617 0.2639688
vt 0.1333727 0.2616487
vt 0.2959406 0.2089307
vt 0.3730788 0.1593936
vt 0.4992034 0.1106181
vt 0.2182474 0.3643264
vt 0.1312774 0.364456
vt 0.3031687 0.2622005
vt 0.3901383 0.2032589
vt 0.4992033 0.1539686
vt 0.6681198 0.1193992
vt 0.2183603 0.4782786
vt 0.1333693 0.4818824
vt 0.3050244 0.3647089
vt 0.39687 0.2589715
vt 0.4992032 0.2006574
vt 0.6253533 0.1593939
vt 0.7786508 0.1418879
vt 0.2186256 0.5785466
vt 0.1412184 0.589298
vt 0.3986615 0.3652802
vt 0.4992032 0.2574891
vt 0.6082932 0.2032595
vt 0.722173 0.1718035
vt 0.8365362 0.1715166
vt 0.2189422 0.6427224
vt 0.1618793 0.6716015
vt 0.2762502 0.6710008
vt 0.2197723 0.7331081
vt 0.2959384 0.5886993
vt 0.3730779 0.7011001
vt 0.3303118 0.7820615
vt 0.3031691 0.481661
vt 0.4992033 0.7146531
vt 0.4992035 0.8044636
vt 0.3901396 0.6039091
vt 0.3968704 0.487591
vt 0.6253533 0.7011005
vt 0.6681198 0.7820643
vt 0.4992032 0.6109428
vt 0.4992034 0.4905324
vt 0.7221734 0.6710159
vt 0.7786508 0.7331297
vt 0.6082932 0.6039091
vt 0.4992032 0.3650057
vt 0.779475 0.6427547
vt 0.8365364 0.6716418
vt 0.6015612 0.4875911
vt 0.7024878 0.5887094
vt 0.779793 0.578577
vt 0.8571984 0.58934
vt 0.5997702 0.3652801
vt 0.6952566 0.4816688
vt 0.7800596 0.478308
vt 0.8650495 0.4819248
vt 0.6015612 0.2589716
vt 0.6934007 0.3647166
vt 0.7801732 0.3643554
vt 0.8671428 0.3644976
vt 0.6952566 0.2622075
vt 0.7800596 0.2639979
vt 0.8650495 0.2616883
vt 0.7024878 0.2089437
vt 0.7797928 0.2128303
vt 0.8571984 0.208544
vt 0.7794748 0.1834165
vn -0.5961558 -0.5887102 0.5459107
vn -0.7082345 -0.3997968 0.5818647
vn -0.648038 -0.3980809 0.6492907
vn -0.5831671 -0.5645504 0.5841225
vn -0.41904 -0.7158131 0.5585849
vn -0.4225418 -0.6403064 0.6414563
vn -0.2335408 -0.7704183 0.5932236
vn -0.6888685 -0.2218462 0.6901047
vn -0.7595138 -0.2212619 0.6117041
vn -0.4637995 -0.4377369 0.7702444
vn -0.2341582 -0.6882072 0.6866881
vn 0 -0.7916104 0.611026
vn -0.706495 0 0.707718
vn -0.7800769 0 0.6256837
vn -0.5029907 -0.234328 0.8319198
vn -0.2481549 -0.4836055 0.8393717
vn 0 -0.7075217 0.7066916
vn 0.23354 -0.7704189 0.5932233
vn -0.6888684 0.2218466 0.6901046
vn -0.759514 0.2212622 0.6117038
vn -0.5175033 0 0.8556812
vn -0.2648395 -0.2502101 0.9312652
vn 0 -0.5016346 0.8650796
vn 0.2341574 -0.6882076 0.6866881
vn 0.4190397 -0.7158135 0.5585846
vn -0.6480381 0.3980808 0.6492906
vn -0.708235 0.3997971 0.5818639
vn -0.2692386 0 0.9630735
vn 0 -0.2551106 0.9669119
vn 0.2481538 -0.4836059 0.8393717
vn 0.4225414 -0.6403068 0.6414561
vn 0.5961554 -0.5887107 0.5459105
vn -0.5831668 0.5645509 0.5841222
vn -0.5961561 0.5887106 0.54591
vn -0.4225414 0.6403071 0.6414558
vn -0.4190397 0.7158137 0.5585843
vn -0.4637994 0.4377367 0.7702445
vn -0.2341582 0.6882077 0.6866878
vn -0.2335408 0.7704187 0.5932232
vn -0.5029907 0.2343281 0.8319199
vn 0 0.7075219 0.7066914
vn 0 0.7916105 0.611026
vn -0.2481547 0.4836054 0.8393718
vn -0.2648395 0.2502102 0.9312652
vn 0.2341573 0.6882079 0.6866879
vn 0.23354 0.7704189 0.5932233
vn 0 0.5016345 0.8650796
vn 0 0.2551107 0.9669119
vn 0.4225412 0.6403075 0.6414555
vn 0.4190393 0.7158139 0.5585843
vn 0.2481538 0.4836062 0.8393716
vn 0 0 1
vn 0.5831666 0.5645509 0.5841224
vn 0.5961553 0.5887108 0.5459107
vn 0.2648384 0.2502106 0.9312654
vn 0.4637992 0.4377375 0.7702442
vn 0.648038 0.3980811 0.6492906
vn 0.7082345 0.3997972 0.5818642
vn 0.2692373 0 0.9630739
vn 0.5029907 0.2343284 0.8319198
vn 0.6888685 0.2218468 0.6901044
vn 0.759514 0.2212623 0.6117037
vn 0.2648383 -0.2502105 0.9312654
vn 0.5175031 0 0.8556814
vn 0.7064952 0 0.7077178
vn 0.7800769 0 0.6256835
vn 0.5029905 -0.2343285 0.8319198
vn 0.6888683 -0.2218467 0.6901046
vn 0.7595137 -0.2212624 0.6117043
vn 0.4637991 -0.4377378 0.7702441
vn 0.6480377 -0.3980816 0.6492905
vn 0.7082342 -0.3997976 0.5818645
vn 0.5831664 -0.5645511 0.5841225
g slime_DLC_gold_face_0
f 3/3/3 2/2/2 1/1/1
f 4/4/4 3/3/3 1/1/1
f 4/4/4 1/1/1 5/5/5
f 6/6/6 4/4/4 5/5/5
f 6/6/6 5/5/5 7/7/7
f 3/3/3 8/8/8 2/2/2
f 8/8/8 9/9/9 2/2/2
f 10/10/10 3/3/3 4/4/4
f 6/6/6 10/10/10 4/4/4
f 11/11/11 6/6/6 7/7/7
f 11/11/11 7/7/7 12/12/12
f 8/8/8 13/13/13 9/9/9
f 13/13/13 14/14/14 9/9/9
f 15/15/15 8/8/8 3/3/3
f 10/10/10 15/15/15 3/3/3
f 16/16/16 10/10/10 6/6/6
f 11/11/11 16/16/16 6/6/6
f 17/17/17 11/11/11 12/12/12
f 17/17/17 12/12/12 18/18/18
f 13/13/13 19/19/19 14/14/14
f 19/19/19 20/20/20 14/14/14
f 21/21/21 13/13/13 8/8/8
f 15/15/15 21/21/21 8/8/8
f 22/22/22 15/15/15 10/10/10
f 16/16/16 22/22/22 10/10/10
f 23/23/23 16/16/16 11/11/11
f 17/17/17 23/23/23 11/11/11
f 24/24/24 17/17/17 18/18/18
f 24/24/24 18/18/18 25/25/25
f 19/19/19 26/26/26 20/20/20
f 26/26/26 27/27/27 20/20/20
f 28/28/28 21/21/21 15/15/15
f 22/22/22 28/28/28 15/15/15
f 29/29/29 22/22/22 16/16/16
f 23/23/23 29/29/29 16/16/16
f 30/30/30 23/23/23 17/17/17
f 24/24/24 30/30/30 17/17/17
f 31/31/31 24/24/24 25/25/25
f 31/31/31 25/25/25 32/32/32
f 26/26/26 33/33/33 27/27/27
f 33/33/33 34/34/34 27/27/27
f 33/33/33 35/35/35 34/34/34
f 35/35/35 33/33/33 26/26/26
f 35/35/35 36/36/36 34/34/34
f 37/37/37 35/35/35 26/26/26
f 37/37/37 26/26/26 19/19/19
f 35/35/35 38/38/38 36/36/36
f 38/38/38 35/35/35 37/37/37
f 38/38/38 39/39/39 36/36/36
f 40/40/40 37/37/37 19/19/19
f 40/40/40 19/19/19 13/13/13
f 21/21/21 40/40/40 13/13/13
f 38/38/38 41/41/41 39/39/39
f 41/41/41 42/42/42 39/39/39
f 43/43/43 38/38/38 37/37/37
f 43/43/43 37/37/37 40/40/40
f 41/41/41 38/38/38 43/43/43
f 44/44/44 40/40/40 21/21/21
f 44/44/44 43/43/43 40/40/40
f 28/28/28 44/44/44 21/21/21
f 41/41/41 45/45/45 42/42/42
f 45/45/45 46/46/46 42/42/42
f 47/47/47 41/41/41 43/43/43
f 47/47/47 43/43/43 44/44/44
f 45/45/45 41/41/41 47/47/47
f 48/48/48 44/44/44 28/28/28
f 48/48/48 47/47/47 44/44/44
f 45/45/45 49/49/49 46/46/46
f 49/49/49 50/50/50 46/46/46
f 51/51/51 45/45/45 47/47/47
f 51/51/51 47/47/47 48/48/48
f 49/49/49 45/45/45 51/51/51
f 52/52/52 48/48/48 28/28/28
f 52/52/52 28/28/28 22/22/22
f 29/29/29 52/52/52 22/22/22
f 49/49/49 53/53/53 50/50/50
f 53/53/53 54/54/54 50/50/50
f 55/55/55 51/51/51 48/48/48
f 55/55/55 48/48/48 52/52/52
f 56/56/56 49/49/49 51/51/51
f 53/53/53 49/49/49 56/56/56
f 56/56/56 51/51/51 55/55/55
f 53/53/53 57/57/57 54/54/54
f 57/57/57 53/53/53 56/56/56
f 57/57/57 58/58/58 54/54/54
f 59/59/59 52/52/52 29/29/29
f 59/59/59 55/55/55 52/52/52
f 60/60/60 56/56/56 55/55/55
f 57/57/57 56/56/56 60/60/60
f 60/60/60 55/55/55 59/59/59
f 57/57/57 61/61/61 58/58/58
f 61/61/61 57/57/57 60/60/60
f 61/61/61 62/62/62 58/58/58
f 63/63/63 59/59/59 29/29/29
f 63/63/63 29/29/29 23/23/23
f 30/30/30 63/63/63 23/23/23
f 64/64/64 60/60/60 59/59/59
f 61/61/61 60/60/60 64/64/64
f 64/64/64 59/59/59 63/63/63
f 61/61/61 65/65/65 62/62/62
f 65/65/65 61/61/61 64/64/64
f 65/65/65 66/66/66 62/62/62
f 67/67/67 64/64/64 63/63/63
f 67/67/67 63/63/63 30/30/30
f 65/65/65 64/64/64 67/67/67
f 65/65/65 68/68/68 66/66/66
f 68/68/68 65/65/65 67/67/67
f 68/68/68 69/69/69 66/66/66
f 70/70/70 67/67/67 30/30/30
f 68/68/68 67/67/67 70/70/70
f 70/70/70 30/30/30 24/24/24
f 31/31/31 70/70/70 24/24/24
f 68/68/68 71/71/71 69/69/69
f 71/71/71 68/68/68 70/70/70
f 71/71/71 70/70/70 31/31/31
f 71/71/71 72/72/72 69/69/69
f 73/73/73 71/71/71 31/31/31
f 71/71/71 73/73/73 72/72/72
f 73/73/73 31/31/31 32/32/32
f 73/73/73 32/32/32 72/72/72
