g Base
v -0.004665375 0.4604833 -0.188694
v -0.004665375 0.1735508 -0.188695
v 0.1277866 0.1735511 -0.1338301
v 0.1277866 0.4604831 -0.133831
v 0.182653 0.1735511 -0.001377106
v 0.1826534 0.4604831 -0.001379013
v 0.127787 0.1735511 0.1310768
v 0.1277868 0.4604831 0.1310787
v -0.004665852 0.1735508 0.1859417
v -0.004665852 0.4604833 0.1859398
v -0.1371203 0.1735506 0.1310778
v -0.1371183 0.4604836 0.1310768
v -0.1919842 0.1735506 -0.001378059
v -0.1919842 0.4604836 -0.001377106
v -0.1371202 0.1735506 -0.1338301
v -0.1371183 0.4604836 -0.1338291
v -0.004665375 0.1735508 -0.188695
v -0.004665375 0.4604833 -0.188694
v 0.5592413 0.0007152557 -0.0006413236
v 0.4654174 0.1760731 -0.0006408691
v 0.2300587 0.176074 -0.4082928
v 0.2769699 0.0007162094 -0.4895483
v 0.2769699 0.0007162094 -0.4895483
v 0.2300587 0.176074 -0.4082928
v -0.2406578 0.176074 -0.4082928
v -0.2875671 0.0007171631 -0.489548
v -0.2875671 0.0007171631 -0.489548
v -0.2406578 0.176074 -0.4082928
v -0.4760146 0.1760731 -0.0006408691
v -0.5698366 0.0007171631 -0.0006413125
v -0.5698366 0.0007171631 -0.0006413125
v -0.4760146 0.1760731 -0.0006408691
v -0.2406578 0.176074 0.4070101
v -0.287569 0.0007171631 0.4882615
v -0.287569 0.0007171631 0.4882615
v -0.2406578 0.176074 0.4070101
v 0.2300596 0.176074 0.407011
v 0.2769718 0.0007162094 0.4882612
v 0.2769718 0.0007162094 0.4882612
v 0.2300596 0.176074 0.407011
v 0.4654174 0.1760731 -0.0006408691
v 0.5592413 0.0007152557 -0.0006413236
v -0.4760146 0.1760731 -0.0006408691
v 0.4654174 0.1760731 -0.0006408691
v 0.2300596 0.176074 0.407011
v -0.2406578 0.176074 0.4070101
v 0.2300587 0.176074 -0.4082928
v 0.4654174 0.1760731 -0.0006408691
v -0.4760146 0.1760731 -0.0006408691
v -0.2406578 0.176074 -0.4082928
vt 0.0569 0.0117
vt 0.0078 0.0117
vt 0.0078 0.0383
vt 0.0569 0.0383
vt 0.0078 0.0649
vt 0.0569 0.0649
vt 0.0078 0.0915
vt 0.0569 0.0915
vt 0.0078 0.1181
vt 0.0569 0.1181
vt 0.0078 0.1447
vt 0.0569 0.1447
vt 0.0078 0.1713
vt 0.0569 0.1713
vt 0.0078 0.1979
vt 0.0569 0.1979
vt 0.0078 0.2245
vt 0.0569 0.2245
vt 0.65 0.974
vt 0.6082 0.9863
vt 0.5566 0.8969
vt 0.5881 0.8668
vt 0.5668 0.8545
vt 0.5566 0.8969
vt 0.4533 0.8969
vt 0.4431 0.8545
vt 0.4218 0.8668
vt 0.4533 0.8969
vt 0.4017 0.9863
vt 0.3599 0.974
vt 0.3591 0.9735
vt 0.4009 0.9858
vt 0.4526 0.8964
vt 0.421 0.8663
vt 0.4423 0.854
vt 0.4526 0.8964
vt 0.5558 0.8964
vt 0.5661 0.854
vt 0.5873 0.8663
vt 0.5558 0.8964
vt 0.6074 0.9858
vt 0.6492 0.9735
vt 0.4009 0.9858
vt 0.6074 0.9858
vt 0.5558 0.8964
vt 0.4526 0.8964
vt 0.5566 0.8969
vt 0.6082 0.9863
vt 0.4017 0.9863
vt 0.4533 0.8969
vn 0 0 -1
vn 0 0 -1
vn 0.7071028 0 -0.7071106
vn 0.7071021 0 -0.7071114
vn 1 0 0
vn 1 0 0
vn 0.707107 0 0.7071065
vn 0.7071052 0 0.7071084
vn 0 0 1
vn 0 0 1
vn -0.7071075 0 0.707106
vn -0.7071066 0 0.7071069
vn -1 0 0
vn -1 0 0
vn -0.7071038 0 -0.7071097
vn -0.707103 0 -0.7071105
vn 0 0 -1
vn 0 0 -1
vn 0.7857696 0.4204215 -0.4536648
vn 0.7857696 0.4204215 -0.4536648
vn 0.7857696 0.4204215 -0.4536649
vn 0.7857696 0.4204215 -0.4536648
vn 0 0.4204278 -0.907326
vn 0 0.4204277 -0.907326
vn 0 0.4204278 -0.9073261
vn 0 0.4204277 -0.907326
vn -0.7857727 0.420417 -0.4536639
vn -0.7857727 0.420417 -0.4536639
vn -0.7857727 0.420417 -0.4536639
vn -0.7857727 0.420417 -0.4536639
vn -0.785773 0.4204155 0.4536648
vn -0.785773 0.4204155 0.4536647
vn -0.7857729 0.4204155 0.4536647
vn -0.785773 0.4204155 0.4536647
vn 0 0.4204085 0.907335
vn 0 0.4204084 0.907335
vn 0 0.4204084 0.907335
vn 0 0.4204085 0.907335
vn 0.7857718 0.4204165 0.4536659
vn 0.7857718 0.4204165 0.4536659
vn 0.7857718 0.4204165 0.4536659
vn 0.7857718 0.4204165 0.4536658
vn 0 1 0
vn 0 1 0
vn 0 1 0
vn 0 1 0
vn 0 1 0
vn 0 1 0
vn 0 1 0
vn 0 1 0
g Base_0
f 3/3/3 2/2/2 1/1/1
f 4/4/4 3/3/3 1/1/1
f 5/5/5 3/3/3 4/4/4
f 6/6/6 5/5/5 4/4/4
f 7/7/7 5/5/5 6/6/6
f 8/8/8 7/7/7 6/6/6
f 9/9/9 7/7/7 8/8/8
f 10/10/10 9/9/9 8/8/8
f 11/11/11 9/9/9 10/10/10
f 12/12/12 11/11/11 10/10/10
f 13/13/13 11/11/11 12/12/12
f 14/14/14 13/13/13 12/12/12
f 15/15/15 13/13/13 14/14/14
f 16/16/16 15/15/15 14/14/14
f 17/17/17 15/15/15 16/16/16
f 18/18/18 17/17/17 16/16/16
f 21/21/21 20/20/20 19/19/19
f 22/22/22 21/21/21 19/19/19
f 25/25/25 24/24/24 23/23/23
f 26/26/26 25/25/25 23/23/23
f 29/29/29 28/28/28 27/27/27
f 30/30/30 29/29/29 27/27/27
f 33/33/33 32/32/32 31/31/31
f 34/34/34 33/33/33 31/31/31
f 37/37/37 36/36/36 35/35/35
f 38/38/38 37/37/37 35/35/35
f 41/41/41 40/40/40 39/39/39
f 42/42/42 41/41/41 39/39/39
f 45/45/45 44/44/44 43/43/43
f 46/46/46 45/45/45 43/43/43
f 49/49/49 48/48/48 47/47/47
f 50/50/50 49/49/49 47/47/47
