g indigonium_ld
v 0.1295542 0.3242032 -0.09871237
v 0.1272468 0.2572985 -0.1645986
v 0.1062683 0.2687052 0.05561549
v 0.01563898 0.2974385 0.06511687
v 0.2006389 0.2704394 -0.02382692
v 0.1146051 0.2455079 0.1581122
v 0.1883726 0.1490173 -0.1572078
v 0.1291358 0.04471957 -0.1830722
v 0.2094404 0.1676974 0.09889869
v 0.2094876 -0.1877575 0.1512363
v 0.192211 -0.05450333 -0.1383
v 0.1644293 -0.1012988 -0.1894967
v 0.1954255 -0.2778556 -0.1667899
v 0.1289802 -0.4374965 -0.1880513
v 0.1895943 -0.2227208 -0.1142368
v 0.1862365 -0.4381643 -0.1024985
v 0.1588388 -0.2885052 0.08263199
v -0.0411899 -0.4371706 0.05337456
v -0.08499602 -0.4401626 -0.0585287
v 0.03580226 -0.4425683 0.07357034
v 0.1027162 -0.3083505 0.09144472
v -0.1129348 -0.3201659 0.05520032
v 0.1008871 -0.05831008 0.1637862
v 0.02746005 0.1076267 0.1693747
v 0.07992194 -0.04111429 0.2013916
v 0.1007361 -0.1805384 0.1633875
v 0.04686577 -0.3139702 0.1998091
v -0.06901465 -0.3181207 0.1993253
v 0.00205632 0.1036481 0.2014533
v -0.05672648 0.2196418 0.170473
v -0.1921426 0.1778439 0.1363192
v -0.1299361 0.08120903 0.1934205
v -0.1235985 -0.1105037 0.2019438
v -0.1376493 -0.3068176 0.1411711
v -0.1866633 -0.2607446 0.1086457
v -0.1844436 -0.0944059 0.1675917
v -0.1029723 -0.2699955 -0.01320092
v -0.09793526 0.3152906 -0.05781255
v 0.1295542 0.3242032 -0.09871237
v -0.05548366 -0.3412614 -0.1971295
v 0.001558766 -0.4306371 -0.2045313
v 0.1289802 -0.4374965 -0.1880513
v 0.1644293 -0.1012988 -0.1894967
v -0.06460246 -0.2673997 -0.1674649
v -0.2059254 -0.2480445 -0.1229368
v -0.1482825 -0.09929684 -0.161247
v -0.04258616 -0.1114903 -0.2008939
v -0.2204334 -0.04099509 -0.0469215
v -0.1983657 -0.02759303 -0.01059994
v -0.2196359 0.09848801 -0.01184855
v -0.2067634 0.2138007 -0.07638205
v -0.2190165 0.1726772 -0.1174559
v -0.2098155 -0.04547622 -0.1218052
v -0.2177202 -0.01686694 -0.1616163
v -0.1510096 0.1805657 -0.1580489
v -0.1421545 0.3173451 -0.1736852
v -0.1357809 0.1263889 -0.2476692
v 0.0780522 0.3147614 -0.2499289
v 0.1272468 0.2572985 -0.1645986
v -0.04868193 0.3057787 -0.2574103
v 0.1269449 0.2057233 -0.2462588
v 0.1291358 0.04471957 -0.1830722
v 0.1017245 -0.02640703 -0.2570533
v 0.02729743 -0.1068816 -0.259399
v -0.1148882 -0.07638695 -0.2588593
vt 0.4889462 0.6626842
vt 0.4885606 0.6095843
vt 0.4253729 0.7356289
vt 0.4127509 0.8041347
vt 0.4339806 0.6653703
vt 0.3979992 0.7352948
vt 0.4374033 0.580354
vt 0.4224189 0.5316614
vt 0.3913223 0.6798302
vt 0.2979321 0.633152
vt 0.3683896 0.5442644
vt 0.3525393 0.5080793
vt 0.2729335 0.5255773
vt 0.1823414 0.517257
vt 0.2987044 0.5461365
vt 0.2180459 0.5484015
vt 0.261035 0.6166127
vt 0.1639084 0.6652569
vt 0.1134121 0.6713585
vt 0.1927691 0.6426003
vt 0.240721 0.6323926
vt 0.1749175 0.7021687
vt 0.3244668 0.6799518
vt 0.3542772 0.7278669
vt 0.3176309 0.6898706
vt 0.2858246 0.6597291
vt 0.2558864 0.6673334
vt 0.2336777 0.6913522
vt 0.3393647 0.7272563
vt 0.3611447 0.7685431
vt 0.3198058 0.7891655
vt 0.3150142 0.7558677
vt 0.2704374 0.7274512
vt 0.2112792 0.7073341
vt 0.207681 0.7269714
vt 0.2618167 0.7421624
vt 0.1517195 0.7199561
vt 0.3365308 0.8634298
vt 0.3525372 0.9581568
vt 0.09252334 0.7812035
vt 0.0622777 0.7759022
vt 0.01291788 0.8000607
vt 0.08544528 0.9325473
vt 0.1140322 0.7903132
vt 0.159626 0.781865
vt 0.1699854 0.8295352
vt 0.1334981 0.8543276
vt 0.2233889 0.7996951
vt 0.2364778 0.7917485
vt 0.2670181 0.812255
vt 0.2829034 0.8446343
vt 0.2616911 0.845835
vt 0.2031355 0.8173708
vt 0.2047998 0.8293937
vt 0.2564961 0.8670375
vt 0.2856487 0.8877956
vt 0.2226246 0.8836484
vt 0.2650555 0.9628767
vt 0.2892044 0.9877821
vt 0.2571899 0.9258165
vt 0.2305047 0.9714724
vt 0.1602203 0.9878584
vt 0.1466361 0.9406429
vt 0.1381123 0.9031677
vt 0.1668709 0.866576
vn 0.4166431 0.9071382 0.05923447
vn 0.874409 0.3656127 -0.3189612
vn 0.2711006 0.9383364 0.2145441
vn -0.1093068 0.9250982 0.3636555
vn 0.7963277 0.6023865 -0.05470588
vn 0.3640492 0.4116817 0.8354558
vn 0.9503825 0.05395179 -0.3063696
vn 0.8146595 -0.009467951 -0.5798622
vn 0.9593119 0.07947506 0.2709324
vn 0.9355088 -0.130135 0.3284633
vn 0.9867837 0.02003074 -0.1607999
vn 0.424841 -0.03465889 -0.9046043
vn 0.7934555 -0.06276806 -0.6053828
vn 0.2455345 -0.5884984 -0.7703131
vn 0.9980704 -0.05021805 0.03652
vn 0.739635 -0.6618001 0.1223139
vn 0.8562755 -0.4075071 0.3173801
vn -0.3088978 -0.890506 0.3340375
vn -0.6268623 -0.7725933 -0.1007134
vn 0.2343635 -0.6585664 0.7150972
vn 0.2322154 -0.5650759 0.791685
vn -0.6579359 -0.6880541 0.3061079
vn 0.3980399 0.210323 0.8929325
vn 0.2937319 0.110901 0.9494327
vn 0.2336757 0.06274214 0.9702882
vn 0.4448316 -0.2695022 0.8541038
vn 0.2482792 -0.3666399 0.8966228
vn -0.1694409 -0.6599672 0.731938
vn 0.04381671 0.1767336 0.9832829
vn -0.1560123 0.5537603 0.81793
vn -0.7958192 0.4271187 0.4292336
vn -0.2894839 0.1112233 0.9506989
vn -0.1371601 -0.0337687 0.9899732
vn -0.6827182 -0.55037 0.4806128
vn -0.9304302 -0.3187258 0.1808686
vn -0.8782184 -0.05721493 0.4748251
vn -0.6790843 -0.7143285 -0.1690542
vn -0.3543386 0.9150162 0.1928461
vn 0.4166431 0.9071382 0.05923447
vn -0.4393962 -0.05892288 -0.8963588
vn -0.1191499 -0.435943 -0.8920521
vn 0.2455345 -0.5884984 -0.7703131
vn 0.424841 -0.03465889 -0.9046043
vn -0.7174494 -0.3253379 -0.615972
vn -0.8380753 -0.4521962 -0.3052023
vn -0.5756211 -0.1601396 -0.8018824
vn -0.09635542 -0.3236647 -0.9412528
vn -0.9955515 -0.02729468 0.09017777
vn -0.9869215 -0.0101844 0.1608793
vn -0.9909603 0.0009730438 0.1341517
vn -0.7991495 0.5989007 -0.05175039
vn -0.883043 0.212893 -0.4182244
vn -0.9138446 -0.1606505 -0.3729335
vn -0.6584508 -0.02538888 -0.7521954
vn -0.8922172 0.1942596 -0.4076907
vn -0.6006706 0.7773443 -0.1868975
vn -0.4924313 0.01824342 -0.8701601
vn 0.1846255 0.867799 -0.4613439
vn 0.874409 0.3656127 -0.3189612
vn -0.1862037 0.314877 -0.9306883
vn 0.4739622 0.06247159 -0.8783263
vn 0.8146595 -0.009467951 -0.5798622
vn 0.3020393 -0.02169223 -0.9530486
vn 0.04125056 -0.3640936 -0.9304484
vn -0.4585128 -0.1955977 -0.8668954
g indigonium_ld_0
f 3/3/3 2/2/2 1/1/1
f 3/3/3 1/1/1 4/4/4
f 5/5/5 2/2/2 3/3/3
f 4/4/4 6/6/6 3/3/3
f 3/3/3 6/6/6 5/5/5
f 5/5/5 7/7/7 2/2/2
f 7/7/7 8/8/8 2/2/2
f 6/6/6 9/9/9 5/5/5
f 7/7/7 5/5/5 9/9/9
f 9/9/9 10/10/10 7/7/7
f 7/7/7 10/10/10 11/11/11
f 7/7/7 11/11/11 8/8/8
f 11/11/11 12/12/12 8/8/8
f 11/11/11 13/13/13 12/12/12
f 12/12/12 13/13/13 14/14/14
f 13/13/13 11/11/11 15/15/15
f 10/10/10 15/15/15 11/11/11
f 14/14/14 13/13/13 16/16/16
f 16/16/16 13/13/13 15/15/15
f 15/15/15 10/10/10 17/17/17
f 15/15/15 17/17/17 16/16/16
f 14/14/14 16/16/16 18/18/18
f 14/14/14 18/18/18 19/19/19
f 17/17/17 20/20/20 16/16/16
f 20/20/20 18/18/18 16/16/16
f 21/21/21 20/20/20 17/17/17
f 21/21/21 17/17/17 10/10/10
f 20/20/20 22/22/22 18/18/18
f 22/22/22 19/19/19 18/18/18
f 21/21/21 22/22/22 20/20/20
f 10/10/10 9/9/9 23/23/23
f 24/24/24 23/23/23 9/9/9
f 6/6/6 24/24/24 9/9/9
f 10/10/10 23/23/23 25/25/25
f 23/23/23 24/24/24 25/25/25
f 10/10/10 26/26/26 21/21/21
f 10/10/10 25/25/25 26/26/26
f 21/21/21 26/26/26 27/27/27
f 25/25/25 27/27/27 26/26/26
f 21/21/21 28/28/28 22/22/22
f 21/21/21 27/27/27 28/28/28
f 27/27/27 25/25/25 29/29/29
f 29/29/29 25/25/25 24/24/24
f 30/30/30 24/24/24 6/6/6
f 6/6/6 4/4/4 30/30/30
f 30/30/30 4/4/4 31/31/31
f 30/30/30 31/31/31 32/32/32
f 30/30/30 32/32/32 24/24/24
f 32/32/32 29/29/29 24/24/24
f 33/33/33 27/27/27 29/29/29
f 28/28/28 27/27/27 33/33/33
f 29/29/29 32/32/32 33/33/33
f 22/22/22 28/28/28 34/34/34
f 33/33/33 34/34/34 28/28/28
f 35/35/35 34/34/34 33/33/33
f 36/36/36 33/33/33 32/32/32
f 32/32/32 31/31/31 36/36/36
f 36/36/36 35/35/35 33/33/33
f 35/35/35 36/36/36 31/31/31
f 37/37/37 22/22/22 34/34/34
f 37/37/37 34/34/34 35/35/35
f 22/22/22 37/37/37 19/19/19
f 4/4/4 38/38/38 31/31/31
f 38/38/38 4/4/4 39/39/39
f 37/37/37 40/40/40 19/19/19
f 41/41/41 19/19/19 40/40/40
f 41/41/41 42/42/42 19/19/19
f 41/41/41 43/43/43 42/42/42
f 43/43/43 41/41/41 40/40/40
f 44/44/44 40/40/40 37/37/37
f 37/37/37 35/35/35 45/45/45
f 45/45/45 44/44/44 37/37/37
f 44/44/44 45/45/45 46/46/46
f 47/47/47 40/40/40 44/44/44
f 40/40/40 47/47/47 43/43/43
f 46/46/46 47/47/47 44/44/44
f 45/45/45 35/35/35 48/48/48
f 31/31/31 49/49/49 35/35/35
f 49/49/49 48/48/48 35/35/35
f 31/31/31 50/50/50 49/49/49
f 50/50/50 48/48/48 49/49/49
f 51/51/51 50/50/50 31/31/31
f 38/38/38 51/51/51 31/31/31
f 51/51/51 52/52/52 50/50/50
f 48/48/48 50/50/50 52/52/52
f 48/48/48 53/53/53 45/45/45
f 46/46/46 45/45/45 53/53/53
f 54/54/54 53/53/53 48/48/48
f 48/48/48 52/52/52 54/54/54
f 54/54/54 46/46/46 53/53/53
f 51/51/51 55/55/55 52/52/52
f 52/52/52 55/55/55 54/54/54
f 51/51/51 38/38/38 55/55/55
f 55/55/55 46/46/46 54/54/54
f 38/38/38 56/56/56 55/55/55
f 39/39/39 56/56/56 38/38/38
f 57/57/57 46/46/46 55/55/55
f 57/57/57 55/55/55 56/56/56
f 39/39/39 58/58/58 56/56/56
f 58/58/58 39/39/39 59/59/59
f 56/56/56 58/58/58 60/60/60
f 57/57/57 56/56/56 60/60/60
f 58/58/58 59/59/59 61/61/61
f 60/60/60 58/58/58 61/61/61
f 62/62/62 61/61/61 59/59/59
f 62/62/62 63/63/63 61/61/61
f 60/60/60 61/61/61 63/63/63
f 62/62/62 43/43/43 63/63/63
f 63/63/63 64/64/64 60/60/60
f 43/43/43 64/64/64 63/63/63
f 60/60/60 64/64/64 57/57/57
f 47/47/47 64/64/64 43/43/43
f 65/65/65 47/47/47 46/46/46
f 57/57/57 65/65/65 46/46/46
f 65/65/65 57/57/57 64/64/64
f 65/65/65 64/64/64 47/47/47
