g Stone_Small_K
v 0.3075952 0.5572302 -0.2839286
v 0.2915942 0.5542334 -0.1864824
v 0.2130981 0.5995691 -0.2541728
v 0.2457202 0.001466064 0.05551471
v 0.3043433 0.001466675 -0.2843388
v 0.07236084 0.001465454 -0.2828398
v -0.1978979 0.001466064 -0.2642948
v -0.2101099 0.001466675 -0.07649212
v 0.1219946 0.001466064 -0.0561601
v 0.07236084 0.001465454 -0.2828398
v 0.2457202 0.001466064 0.05551471
v 0.2238647 0.001466675 0.0629317
v -0.2101099 0.001466675 -0.07649212
v -0.188313 0.001466064 -0.06294721
v 0.1219946 0.001466064 -0.0561601
v -0.2180102 0.001466064 -0.03719525
v 0.1944311 0.001466064 0.2672335
v -0.207102 0.001466064 0.284338
v 0.2280981 0.001466064 0.08352252
v 0.2238647 0.001466675 0.0629317
v 0.3043433 0.001466675 -0.2843388
v 0.3075952 0.5572302 -0.2839286
v 0.2130981 0.5995691 -0.2541728
v 0.07236084 0.001465454 -0.2828398
v 0.06053955 0.5918274 -0.2426152
v -0.1978979 0.001466064 -0.2642948
v -0.09562744 0.5850915 -0.2325615
v -0.296897 0 -0.2573564
v -0.2072876 0.5677673 -0.2295488
v -0.187644 0.2930548 0.2632198
v 0.2089624 0.30453 0.2424385
v 0.1944311 0.001466064 0.2672335
v -0.207102 0.001466064 0.284338
v 0.2356274 0.3743072 0.0606026
v 0.2509546 0.3944556 0.07959674
v -0.1385864 0.4497143 -0.02045697
v -0.1114624 0.4233667 -0.03860639
v 0.2631714 0.4081579 0.04988971
v 0.2356274 0.3743072 0.0606026
v -0.1114624 0.4233667 -0.03860639
v -0.1261597 0.4740954 -0.04857221
v -0.1261597 0.4740954 -0.04857221
v -0.1114624 0.4233667 -0.03860639
v -0.188313 0.001466064 -0.06294721
v -0.2101099 0.001466675 -0.07649212
v -0.3075903 6.103515E-07 -0.09279583
v -0.2340356 0.4705115 -0.06833295
v -0.1114624 0.4233667 -0.03860639
v -0.1385864 0.4497143 -0.02045697
v -0.2180102 0.001466064 -0.03719525
v -0.188313 0.001466064 -0.06294721
v 0.2280981 0.001466064 0.08352252
v 0.2509546 0.3944556 0.07959674
v 0.2356274 0.3743072 0.0606026
v 0.2238647 0.001466675 0.0629317
v 0.2356274 0.3743072 0.0606026
v 0.2631714 0.4081579 0.04988971
v 0.2457202 0.001466064 0.05551471
v 0.2238647 0.001466675 0.0629317
v 0.2089624 0.30453 0.2424385
v 0.2509546 0.3944556 0.07959674
v 0.2280981 0.001466064 0.08352252
v 0.1944311 0.001466064 0.2672335
v 0.06053955 0.5918274 -0.2426152
v 0.2130981 0.5995691 -0.2541728
v 0.2915942 0.5542334 -0.1864824
v -0.09562744 0.5850915 -0.2325615
v -0.1261597 0.4740954 -0.04857221
v 0.2631714 0.4081579 0.04988971
v -0.2340356 0.4705115 -0.06833295
v -0.2072876 0.5677673 -0.2295488
v -0.2072876 0.5677673 -0.2295488
v -0.2340356 0.4705115 -0.06833295
v -0.3075903 6.103515E-07 -0.09279583
v -0.296897 0 -0.2573564
v -0.1385864 0.4497143 -0.02045697
v 0.2509546 0.3944556 0.07959674
v 0.2089624 0.30453 0.2424385
v -0.187644 0.2930548 0.2632198
v 0.3043433 0.001466675 -0.2843388
v 0.2457202 0.001466064 0.05551471
v 0.2631714 0.4081579 0.04988971
v 0.3075952 0.5572302 -0.2839286
v 0.2915942 0.5542334 -0.1864824
v -0.1385864 0.4497143 -0.02045697
v -0.187644 0.2930548 0.2632198
v -0.207102 0.001466064 0.284338
v -0.2180102 0.001466064 -0.03719525
v -0.2101099 0.001466675 -0.07649212
v -0.1978979 0.001466064 -0.2642948
v -0.296897 0 -0.2573564
v -0.3075903 6.103515E-07 -0.09279583
vt 0.8911678 0.9841562
vt 0.756137 0.9841562
vt 0.8499366 0.9841562
vt 0.4307849 0.03068365
vt 0.8545197 0.03068437
vt 0.852648 0.03068294
vt 0.8295276 0.03068365
vt 0.5953702 0.03068437
vt 0.5700157 0.03068365
vt 0.852648 0.03068294
vt 0.4307849 0.03068365
vt 0.4215346 0.03068437
vt 0.5953702 0.03068437
vt 0.5784816 0.03068365
vt 0.5700157 0.03068365
vt 0.5463706 0.03068365
vt 0.1668047 0.03068365
vt 0.1454802 0.03068365
vt 0.3958609 0.03068365
vt 0.4215346 0.03068437
vt 0.8545197 0.03068437
vt 0.8540058 0.6879202
vt 0.8169072 0.7379894
vt 0.852648 0.03068294
vt 0.8024962 0.7288343
vt 0.8295276 0.03068365
vt 0.7899569 0.7208686
vt 0.8208724 0.02894993
vt 0.786208 0.7003812
vt 0.1718085 0.3755112
vt 0.1977202 0.3890816
vt 0.1668047 0.03068365
vt 0.1454802 0.03068365
vt 0.4244395 0.4715989
vt 0.4007565 0.4954259
vt 0.525506 0.5607738
vt 0.5481341 0.5296156
vt 0.4377957 0.51163
vt 0.4244395 0.4715989
vt 0.5481341 0.5296156
vt 0.5605598 0.5896065
vt 0.5605598 0.5896065
vt 0.5481341 0.5296156
vt 0.5784816 0.03068365
vt 0.5953702 0.03068437
vt 0.6156993 0.02895062
vt 0.5852003 0.5853681
vt 0.5481341 0.5296156
vt 0.525506 0.5607738
vt 0.5463706 0.03068365
vt 0.5784816 0.03068365
vt 0.3958609 0.03068365
vt 0.4007565 0.4954259
vt 0.4244395 0.4715989
vt 0.4215346 0.03068437
vt 0.4244395 0.4715989
vt 0.4377957 0.51163
vt 0.4307849 0.03068365
vt 0.4215346 0.03068437
vt 0.1977202 0.3890816
vt 0.4007565 0.4954259
vt 0.3958609 0.03068365
vt 0.1668047 0.03068365
vt 0.8339196 0.9841562
vt 0.8499366 0.9841562
vt 0.756137 0.9841562
vt 0.8199908 0.9841562
vt 0.5650381 0.9841562
vt 0.4286018 0.9841562
vt 0.5924214 0.9841562
vt 0.8158145 0.9841562
vt 0.786208 0.7003812
vt 0.5852003 0.5853681
vt 0.6156993 0.02895062
vt 0.8208724 0.02894993
vt 0.5260803 0.9841562
vt 0.3874401 0.9841562
vt 0.1617911 0.9841562
vt 0.1329964 0.9841562
vt 0.8545197 0.03068437
vt 0.4307849 0.03068365
vt 0.4377957 0.51163
vt 0.8540058 0.6879202
vt 0.7325075 0.6843762
vt 0.525506 0.5607738
vt 0.1718085 0.3755112
vt 0.1454802 0.03068365
vt 0.5463706 0.03068365
vt 0.5953702 0.03068437
vt 0.8295276 0.03068365
vt 0.8208724 0.02894993
vt 0.6156993 0.02895062
vn 0.4325757 0.8961908 0.09859145
vn 0.01642686 0.8539664 0.5200689
vn 0.01545975 0.8535207 0.5208296
vn 2.653798E-06 -1 7.839892E-07
vn 2.653798E-06 -1 7.839893E-07
vn -1.410011E-07 -1 1.252181E-06
vn 0.00275115 -0.9999962 0.0001808481
vn 0.002395937 -0.9999971 0.0001577148
vn 4.86346E-07 -1 4.944121E-07
vn -1.410011E-07 -1 1.252181E-06
vn 2.653798E-06 -1 7.839892E-07
vn 2.816758E-06 -1 0
vn 0.002395937 -0.9999971 0.0001577148
vn -6.973703E-07 -1 5.565844E-07
vn 4.86346E-07 -1 4.944121E-07
vn 0 -1 0
vn 0 -1 0
vn 0 -1 0
vn 3.305954E-06 -1 -2.514684E-06
vn 2.816758E-06 -1 0
vn -0.08677659 0.04593638 -0.9951682
vn -0.08677658 0.04593637 -0.9951682
vn -0.08677659 0.04593637 -0.9951682
vn -0.07800007 0.05534518 -0.9954159
vn -0.07799666 0.05534881 -0.9954159
vn -0.06207336 0.06401815 -0.9960163
vn -0.06397466 0.06475557 -0.9958483
vn -0.05246756 0.06028997 -0.996801
vn -0.05246756 0.06028997 -0.996801
vn 0.04621623 0.07427221 0.9961665
vn 0.04621622 0.0742722 0.9961665
vn 0.04621622 0.07427219 0.9961665
vn 0.04621623 0.07427221 0.9961665
vn 0.2836584 0.6414147 -0.7128289
vn 0.2836584 0.6414148 -0.7128289
vn 0.2836584 0.6414148 -0.7128289
vn 0.2836584 0.6414148 -0.7128289
vn -0.0033851 0.7892118 0.6141118
vn 0.02398068 0.1582378 0.9871098
vn -0.3554901 0.1595019 0.9209701
vn -0.07360572 0.6879945 0.7219734
vn -0.07360572 0.6879945 0.7219734
vn -0.3554901 0.1595019 0.9209701
vn -0.5015867 0.03967718 0.8641971
vn -0.2267174 -0.01559768 0.9738357
vn -0.1722988 -0.02591786 0.9847037
vn -0.1722988 -0.02591786 0.9847037
vn -0.5640106 0.1397176 -0.8138618
vn -0.5640107 0.1397176 -0.8138618
vn -0.5640106 0.1397176 -0.8138618
vn -0.5640107 0.1397176 -0.8138618
vn 0.9905249 -0.04518791 0.1296856
vn 0.9888586 -0.04504119 0.1418803
vn 0.9044136 -0.04435124 -0.4243454
vn 0.9044136 -0.04435123 -0.4243454
vn 0.02398068 0.1582378 0.9871098
vn -0.0033851 0.7892118 0.6141118
vn 0.3466115 -0.003418018 0.9380026
vn 0.3466115 -0.003418018 0.9380026
vn 0.9783618 -0.04421133 0.2021229
vn 0.9888586 -0.04504119 0.1418803
vn 0.9905249 -0.04518791 0.1296856
vn 0.9783618 -0.04421133 0.2021229
vn 0.007905325 0.8499897 0.52674
vn 0.01545975 0.8535207 0.5208296
vn 0.01642686 0.8539664 0.5200689
vn -0.008622121 0.8519493 0.5235533
vn -0.07360572 0.6879945 0.7219734
vn -0.0033851 0.7892118 0.6141118
vn -0.1197923 0.8587559 0.4981847
vn -0.1197924 0.8587559 0.4981847
vn -0.9852061 0.158148 -0.06601743
vn -0.9852061 0.158148 -0.06601742
vn -0.9852061 0.158148 -0.06601742
vn -0.9852061 0.158148 -0.06601743
vn 5.249764E-06 0.8753863 0.4834242
vn 5.249764E-06 0.8753862 0.4834242
vn 5.249764E-06 0.8753862 0.4834242
vn 5.249764E-06 0.8753862 0.4834242
vn 0.9889277 -0.01668786 0.1474569
vn 0.9889277 -0.01668786 0.1474569
vn 0.9889277 -0.01668786 0.1474569
vn 0.9889277 -0.01668786 0.1474569
vn 0.9889277 -0.01668786 0.1474569
vn -0.9908134 0.1322587 -0.02822059
vn -0.9908134 0.1322587 -0.02822059
vn -0.9908134 0.1322587 -0.02822058
vn -0.9908134 0.1322587 -0.02822059
vn 0.002395937 -0.9999971 0.0001577148
vn 0.00275115 -0.9999962 0.0001808481
vn 0.01487534 -0.9998889 0.0009704343
vn 0.01487535 -0.9998889 0.0009704342
g Stone_Small_K_0
f 3/3/3 2/2/2 1/1/1
f 6/6/6 5/5/5 4/4/4
f 9/9/9 8/8/8 7/7/7
f 7/7/7 10/10/10 9/9/9
f 11/11/11 9/9/9 10/10/10
f 11/11/11 12/12/12 9/9/9
f 15/15/15 14/14/14 13/13/13
f 16/16/16 14/14/14 15/15/15
f 15/15/15 17/17/17 16/16/16
f 17/17/17 18/18/18 16/16/16
f 19/19/19 17/17/17 15/15/15
f 20/20/20 19/19/19 15/15/15
f 23/23/23 22/22/22 21/21/21
f 21/21/21 24/24/24 23/23/23
f 24/24/24 25/25/25 23/23/23
f 25/25/25 24/24/24 26/26/26
f 27/27/27 25/25/25 26/26/26
f 26/26/26 28/28/28 27/27/27
f 28/28/28 29/29/29 27/27/27
f 32/32/32 31/31/31 30/30/30
f 33/33/33 32/32/32 30/30/30
f 36/36/36 35/35/35 34/34/34
f 37/37/37 36/36/36 34/34/34
f 40/40/40 39/39/39 38/38/38
f 41/41/41 40/40/40 38/38/38
f 44/44/44 43/43/43 42/42/42
f 45/45/45 44/44/44 42/42/42
f 46/46/46 45/45/45 42/42/42
f 47/47/47 46/46/46 42/42/42
f 50/50/50 49/49/49 48/48/48
f 51/51/51 50/50/50 48/48/48
f 54/54/54 53/53/53 52/52/52
f 55/55/55 54/54/54 52/52/52
f 58/58/58 57/57/57 56/56/56
f 59/59/59 58/58/58 56/56/56
f 62/62/62 61/61/61 60/60/60
f 63/63/63 62/62/62 60/60/60
f 66/66/66 65/65/65 64/64/64
f 64/64/64 67/67/67 66/66/66
f 67/67/67 68/68/68 66/66/66
f 68/68/68 69/69/69 66/66/66
f 70/70/70 68/68/68 67/67/67
f 71/71/71 70/70/70 67/67/67
f 74/74/74 73/73/73 72/72/72
f 75/75/75 74/74/74 72/72/72
f 78/78/78 77/77/77 76/76/76
f 79/79/79 78/78/78 76/76/76
f 82/82/82 81/81/81 80/80/80
f 80/80/80 83/83/83 82/82/82
f 83/83/83 84/84/84 82/82/82
f 87/87/87 86/86/86 85/85/85
f 88/88/88 87/87/87 85/85/85
f 91/91/91 90/90/90 89/89/89
f 92/92/92 91/91/91 89/89/89
