g Stone_Small_G
v 0.1334766 0.05953918 -0.1176074
v 0.2945313 0.05953918 -0.3224805
v 0.2945117 0.4109552 -0.3224805
v 0.1029102 0.4917364 -0.03175781
v 0.08330078 0.05953918 0.3110352
v 0.08021484 0.4232135 0.2705371
v 0.1334766 0.05953918 -0.1176074
v 0.08330078 0.05953918 0.3110352
v 0.3322656 0.0595404 0.3224805
v 0.4718164 0.0595404 0.1076465
v 0.2945313 0.05953918 -0.3224805
v 0.5010156 0.05953918 -0.1385937
v 0.08330078 0.05953918 0.3110352
v 0.08021484 0.4232135 0.2705371
v 0.3517578 0.2946905 0.2995703
v 0.3322656 0.0595404 0.3224805
v 0.08021484 0.4232135 0.2705371
v 0.5014355 0.3212421 0.0922168
v 0.3517578 0.2946905 0.2995703
v 0.1029102 0.4917364 -0.03175781
v 0.5108203 0.2809845 -0.150918
v 0.2945117 0.4109552 -0.3224805
v 0.2945117 0.4109552 -0.3224805
v 0.2945313 0.05953918 -0.3224805
v 0.5010156 0.05953918 -0.1385937
v 0.5108203 0.2809845 -0.150918
v 0.5014355 0.3212421 0.0922168
v 0.5108203 0.2809845 -0.150918
v 0.5010156 0.05953918 -0.1385937
v 0.4718164 0.0595404 0.1076465
v 0.3517578 0.2946905 0.2995703
v 0.3322656 0.0595404 0.3224805
v -0.002380371 0.2856299 0.2292969
v 0.1567212 0.2689038 0.2545019
v 0.1582642 0.05479858 0.274751
v -0.0297876 0.05479858 0.2520556
v -0.2963941 0.05479858 0.2078174
v -0.2955981 0.3165326 0.2013965
v 0.05334228 0.05479858 -0.2510254
v 0.1882886 0 0.01760254
v 0.2738403 0.05479858 -0.07365234
v 0.1669507 0.05479858 -0.2747461
v 0.05334228 0.05479858 -0.2510254
v -0.07505615 0.05479858 -0.2241504
v -0.04637451 0.07815856 0.09928711
v 0.1882886 0 0.01760254
v -0.0297876 0.05479858 0.2520556
v 0.1582642 0.05479858 0.274751
v -0.2963941 0.05479858 0.2078174
v -0.2644604 0.05479858 -0.1917822
v -0.4031616 0.05479858 -0.098208
v -0.04637451 0.07815856 0.09928711
v -0.0297876 0.05479858 0.2520556
v -0.07505615 0.05479858 -0.2241504
v -0.2120679 0.3533624 -0.2163965
v -0.3966626 0.3522119 -0.1217529
v -0.4031616 0.05479858 -0.098208
v -0.2644604 0.05479858 -0.1917822
v -0.07505615 0.05479858 -0.2241504
v -0.0305835 0.3443787 -0.246792
v 0.1669556 0.3082098 -0.274751
v 0.05334228 0.05479858 -0.2510254
v 0.1669507 0.05479858 -0.2747461
v -0.2955981 0.3165326 0.2013965
v -0.2963941 0.05479858 0.2078174
v -0.4031616 0.05479858 -0.098208
v -0.3487329 0.3338544 0.04265137
v -0.3966626 0.3522119 -0.1217529
v 0.1882886 0 0.01760254
v 0.2738306 0.2627746 -0.07365722
v 0.2738403 0.05479858 -0.07365234
v 0.1729956 0.3031647 0.06052734
v 0.1582642 0.05479858 0.274751
v 0.1567212 0.2689038 0.2545019
v -0.0305835 0.3443787 -0.246792
v 0.1669556 0.3082098 -0.274751
v 0.2738306 0.2627746 -0.07365722
v 0.1113501 0.3450744 -0.06197266
v -0.2120679 0.3533624 -0.2163965
v 0.1729956 0.3031647 0.06052734
v -0.1307007 0.3748193 -0.07091308
v -0.3966626 0.3522119 -0.1217529
v -0.3487329 0.3338544 0.04265137
v -0.01365967 0.3856103 0.003706055
v -0.03341064 0.3433911 0.1358887
v 0.1567212 0.2689038 0.2545019
v -0.002380371 0.2856299 0.2292969
v -0.2955981 0.3165326 0.2013965
v -0.1941186 0.3657678 0.04927734
v 0.2738306 0.2627746 -0.07365722
v 0.1669556 0.3082098 -0.274751
v 0.1669507 0.05479858 -0.2747461
v 0.2738403 0.05479858 -0.07365234
vt 0.4841841 0.1576851
vt 0.6360893 0.1576851
vt 0.6360893 0.52899
vt 0.4205287 0.6143432
vt 0.1663609 0.1576851
vt 0.1963889 0.5419421
vt 0.4841841 0.1576851
vt 0.1663609 0.1576851
vt 0.1578748 0.1576865
vt 0.3171656 0.1576865
vt 0.6360893 0.1576851
vt 0.4997452 0.1576851
vt 0.1663609 0.1576851
vt 0.1963889 0.5419421
vt 0.1748595 0.4061452
vt 0.1578748 0.1576865
vt 0.1828195 0.9841562
vt 0.3229943 0.9841562
vt 0.1599976 0.9841562
vt 0.4204457 0.9841562
vt 0.5141199 0.9841562
vt 0.6489812 0.9841562
vt 0.6360893 0.52899
vt 0.6360893 0.1576851
vt 0.4997452 0.1576851
vt 0.5088841 0.3916635
vt 0.3286048 0.4341995
vt 0.5088841 0.3916635
vt 0.4997452 0.1576851
vt 0.3171656 0.1576865
vt 0.1748595 0.4061452
vt 0.1578748 0.1576865
vt 0.1519127 0.6354583
vt 0.1145364 0.600113
vt 0.08450851 0.1476673
vt 0.1181609 0.1476673
vt 0.1837622 0.1476673
vt 0.1932866 0.7007617
vt 0.8641956 0.1476673
vt 0.4658379 0.03186743
vt 0.6011624 0.1476673
vt 0.8993711 0.1476673
vt 0.8641956 0.1476673
vt 0.8243449 0.1476673
vt 0.3447067 0.1970316
vt 0.4658379 0.03186743
vt 0.1181609 0.1476673
vt 0.08450851 0.1476673
vt 0.1837622 0.1476673
vt 0.7763438 0.1476673
vt 0.6375876 0.1476673
vt 0.3447067 0.1970316
vt 0.1181609 0.1476673
vt 0.8243449 0.1476673
vt 0.8128436 0.7785903
vt 0.6724958 0.776159
vt 0.6375876 0.1476673
vt 0.7763438 0.1476673
vt 0.8243449 0.1476673
vt 0.8579165 0.7596058
vt 0.8993773 0.6831741
vt 0.8641956 0.1476673
vt 0.8993711 0.1476673
vt 0.1932866 0.7007617
vt 0.1837622 0.1476673
vt 0.6375876 0.1476673
vt 0.4286916 0.737366
vt 0.6724958 0.776159
vt 0.4658379 0.03186743
vt 0.6011748 0.5871609
vt 0.6011624 0.1476673
vt 0.4021887 0.6725127
vt 0.08450851 0.1476673
vt 0.1145364 0.600113
vt 0.8841569 0.9841562
vt 0.9281183 0.9841562
vt 0.6119648 0.9841562
vt 0.5935931 0.9841562
vt 0.836374 0.9841562
vt 0.4010011 0.9841562
vt 0.607648 0.9841562
vt 0.6875783 0.9841562
vt 0.4291046 0.9841562
vt 0.4903331 0.9841562
vt 0.2825245 0.9841562
vt 0.09604579 0.9841562
vt 0.1356713 0.9841562
vt 0.1795311 0.9841562
vt 0.4186935 0.9841562
vt 0.6011748 0.5871609
vt 0.8993773 0.6831741
vt 0.8993711 0.1476673
vt 0.6011624 0.1476673
vn -0.9334458 -0.001530732 -0.3587152
vn -0.8118683 0.03217414 -0.5829535
vn -0.8118683 0.03217414 -0.5829535
vn -0.9570543 -0.01122651 -0.2896909
vn -0.9940746 -0.03619382 -0.1024976
vn -0.9940746 -0.03619381 -0.1024976
vn 1.903614E-06 -1 1.949734E-06
vn 3.715456E-06 -1 1.090751E-06
vn 3.715456E-06 -1 1.090751E-06
vn 2.478932E-06 -1 1.676979E-06
vn 1.583226E-07 -1 2.777165E-06
vn 1.583226E-07 -1 2.777165E-06
vn -0.05091524 0.1065425 0.9930037
vn -0.05091525 0.1065425 0.9930037
vn -0.05091524 0.1065425 0.9930037
vn -0.05091524 0.1065425 0.9930037
vn 0.336696 0.8985506 0.2815004
vn 0.403056 0.9076746 0.1169303
vn 0.336696 0.8985506 0.2815004
vn 0.40016 0.9078918 0.124918
vn 0.4513184 0.8917791 -0.03227557
vn 0.4513184 0.8917791 -0.03227557
vn 0.6383128 -0.02745426 -0.7692873
vn 0.6383128 -0.02745426 -0.7692873
vn 0.6383129 -0.02745426 -0.7692873
vn 0.6383128 -0.02745426 -0.7692873
vn 0.941556 -0.05938192 0.3315812
vn 0.9934965 -0.0762063 0.0845999
vn 0.9934965 -0.07620628 0.0845999
vn 0.9327933 -0.05743438 0.3558062
vn 0.8254928 -0.03814872 0.563122
vn 0.8254928 -0.03814872 0.5631221
vn -0.1265471 0.07915656 0.9887972
vn -0.1310878 0.1029309 0.9860128
vn -0.1310878 0.1029309 0.9860128
vn -0.1263334 0.07804594 0.9889129
vn -0.1239578 0.06575184 0.9901066
vn -0.1239578 0.06575184 0.9901066
vn -0.1106289 -0.9926173 -0.04972078
vn -0.119938 -0.9925761 -0.02018717
vn 0.1551985 -0.9688606 -0.1929315
vn 0.1551985 -0.9688606 -0.1929316
vn -0.1106289 -0.9926173 -0.04972078
vn -0.1397441 -0.9898318 0.02654511
vn -0.07607693 -0.9970282 0.01213537
vn -0.119938 -0.9925761 -0.02018717
vn -0.1235245 -0.9922449 0.01384746
vn -0.171955 -0.9826341 0.06972603
vn 0.05912029 -0.9981996 -0.0101119
vn 0.05146969 -0.9984828 0.01957279
vn 0.06257559 -0.9980276 0.005000664
vn -0.07607693 -0.9970282 0.01213537
vn -0.1235245 -0.9922449 0.01384746
vn -0.1397441 -0.9898318 0.02654511
vn -0.3226195 -0.0380722 -0.9457628
vn -0.5029726 -0.02012445 -0.864068
vn -0.5029726 -0.02012445 -0.864068
vn -0.3612084 -0.03446116 -0.931848
vn -0.1685377 -0.04471275 -0.9846806
vn -0.1686527 -0.04358999 -0.9847112
vn -0.1728239 -0.03149709 -0.984449
vn -0.174916 -0.02942271 -0.9841436
vn -0.2043809 -1.66023E-05 -0.9788914
vn -0.9489856 0.02317655 0.3144665
vn -0.9489856 0.02317655 0.3144665
vn -0.9489856 0.02317655 0.3144665
vn -0.9489856 0.02317655 0.3144665
vn -0.9489856 0.02317655 0.3144665
vn 0.9433744 0.004516989 0.3316992
vn 0.7713022 -0.03029003 0.635748
vn 0.7713022 -0.03029003 0.635748
vn 0.9571804 0.008983081 0.289353
vn 0.9945142 0.02796273 0.100795
vn 0.9945142 0.02796273 0.100795
vn 0.158695 0.9770801 -0.1418815
vn 0.3029504 0.949183 -0.08528002
vn 0.3317508 0.9416716 -0.0565332
vn 0.2438547 0.9693972 0.02835335
vn -0.02575736 0.9977497 -0.0619036
vn 0.2728397 0.9279887 0.2537625
vn -0.008820899 0.998667 -0.05085725
vn -0.1125401 0.9935272 0.01544376
vn -0.09105435 0.9856377 0.1422232
vn 0.1417923 0.9857661 0.0903341
vn 0.1064647 0.9500475 0.2933855
vn 0.2529679 0.9286506 0.2713213
vn 0.1548676 0.9421161 0.2973771
vn -0.05327985 0.9384328 0.3413284
vn -0.07876994 0.9778996 0.1936694
vn 0.8830221 1.487063E-05 -0.4693316
vn 0.883022 1.487063E-05 -0.4693316
vn 0.8830221 1.487063E-05 -0.4693316
vn 0.883022 1.487063E-05 -0.4693316
g Stone_Small_G_0
f 3/3/3 2/2/2 1/1/1
f 4/4/4 3/3/3 1/1/1
f 1/1/1 5/5/5 4/4/4
f 5/5/5 6/6/6 4/4/4
f 9/9/9 8/8/8 7/7/7
f 10/10/10 9/9/9 7/7/7
f 10/10/10 7/7/7 11/11/11
f 12/12/12 10/10/10 11/11/11
f 15/15/15 14/14/14 13/13/13
f 16/16/16 15/15/15 13/13/13
f 19/19/19 18/18/18 17/17/17
f 18/18/18 20/20/20 17/17/17
f 18/18/18 21/21/21 20/20/20
f 21/21/21 22/22/22 20/20/20
f 25/25/25 24/24/24 23/23/23
f 26/26/26 25/25/25 23/23/23
f 29/29/29 28/28/28 27/27/27
f 30/30/30 29/29/29 27/27/27
f 27/27/27 31/31/31 30/30/30
f 31/31/31 32/32/32 30/30/30
f 35/35/35 34/34/34 33/33/33
f 36/36/36 35/35/35 33/33/33
f 37/37/37 36/36/36 33/33/33
f 38/38/38 37/37/37 33/33/33
f 41/41/41 40/40/40 39/39/39
f 42/42/42 41/41/41 39/39/39
f 45/45/45 44/44/44 43/43/43
f 46/46/46 45/45/45 43/43/43
f 47/47/47 45/45/45 46/46/46
f 48/48/48 47/47/47 46/46/46
f 51/51/51 50/50/50 49/49/49
f 50/50/50 52/52/52 49/49/49
f 53/53/53 49/49/49 52/52/52
f 50/50/50 54/54/54 52/52/52
f 57/57/57 56/56/56 55/55/55
f 58/58/58 57/57/57 55/55/55
f 58/58/58 55/55/55 59/59/59
f 55/55/55 60/60/60 59/59/59
f 59/59/59 60/60/60 61/61/61
f 62/62/62 59/59/59 61/61/61
f 63/63/63 62/62/62 61/61/61
f 66/66/66 65/65/65 64/64/64
f 64/64/64 67/67/67 66/66/66
f 67/67/67 68/68/68 66/66/66
f 71/71/71 70/70/70 69/69/69
f 70/70/70 72/72/72 69/69/69
f 73/73/73 69/69/69 72/72/72
f 74/74/74 73/73/73 72/72/72
f 77/77/77 76/76/76 75/75/75
f 78/78/78 77/77/77 75/75/75
f 78/78/78 75/75/75 79/79/79
f 77/77/77 78/78/78 80/80/80
f 79/79/79 81/81/81 78/78/78
f 81/81/81 79/79/79 82/82/82
f 82/82/82 83/83/83 81/81/81
f 80/80/80 78/78/78 84/84/84
f 81/81/81 84/84/84 78/78/78
f 84/84/84 85/85/85 80/80/80
f 84/84/84 81/81/81 85/85/85
f 85/85/85 86/86/86 80/80/80
f 85/85/85 87/87/87 86/86/86
f 88/88/88 87/87/87 85/85/85
f 89/89/89 83/83/83 88/88/88
f 83/83/83 89/89/89 81/81/81
f 81/81/81 89/89/89 85/85/85
f 88/88/88 85/85/85 89/89/89
f 92/92/92 91/91/91 90/90/90
f 93/93/93 92/92/92 90/90/90
