g Stone_Small_D
v 0.06856201 0.2010699 0.151042
v 0.2671704 0.196795 0.1043331
v 0.2685083 0.04535278 0.1157149
v 0.04479736 0.04748291 0.1924825
v -0.1917065 0.04535278 0.2335909
v -0.1906226 0.2113165 0.2216426
v 0.1939575 0 -0.2335917
v 0.2996118 0.197608 -0.08642377
v 0.2051587 0.2094147 -0.212996
v 0.3008374 0 -0.07699506
v 0.2685083 0.04535278 0.1157149
v 0.2671704 0.196795 0.1043331
v -0.2989673 0.2165161 -0.01487592
v -0.2325854 0.2291241 -0.2137138
v -0.004665527 0.2194702 -0.210579
v 0.07895752 0.209245 -0.04455365
v 0.2051587 0.2094147 -0.212996
v 0.2996118 0.197608 -0.08642377
v 0.2671704 0.196795 0.1043331
v 0.06856201 0.2010699 0.151042
v -0.1906226 0.2113165 0.2216426
v 0.1939575 0 -0.2335917
v 0.0910083 6.103515E-07 -0.006155213
v 0.3008374 0 -0.07699506
v -0.05010498 0 -0.2142021
v -0.3008325 0.04535278 -0.003132752
v -0.2382202 0.04535278 -0.2193339
v -0.1917065 0.04535278 0.2335909
v 0.04479736 0.04748291 0.1924825
v 0.2051587 0.2094147 -0.212996
v -0.004665527 0.2194702 -0.210579
v -0.05010498 0 -0.2142021
v 0.1939575 0 -0.2335917
v -0.004665527 0.2194702 -0.210579
v -0.2325854 0.2291241 -0.2137138
v -0.2382202 0.04535278 -0.2193339
v -0.05010498 0 -0.2142021
v -0.2325854 0.2291241 -0.2137138
v -0.3008325 0.04535278 -0.003132752
v -0.2382202 0.04535278 -0.2193339
v -0.2989673 0.2165161 -0.01487592
v -0.1906226 0.2113165 0.2216426
v -0.1917065 0.04535278 0.2335909
v 0.3008374 0 -0.07699506
v 0.0910083 6.103515E-07 -0.006155213
v 0.04479736 0.04748291 0.1924825
v 0.2685083 0.04535278 0.1157149
vt 0.2545893 0.6769046
vt 0.3263287 0.6635175
vt 0.3088441 0.1892682
vt 0.1909463 0.1959389
vt 0.1278069 0.1892682
vt 0.1461564 0.7089922
vt 0.8453209 0.04724368
vt 0.6192967 0.6660634
vt 0.813691 0.7030365
vt 0.6048176 0.04724368
vt 0.3088441 0.1892682
vt 0.3263287 0.6635175
vt 0.5390874 0.9841562
vt 0.8241092 0.9841562
vt 0.8196147 0.9841562
vt 0.5816283 0.9841562
vt 0.8230808 0.9841562
vt 0.6416475 0.9841562
vt 0.3682094 0.9841562
vt 0.3012533 0.9841562
vt 0.2000549 0.9841562
vt 0.8453209 0.04724368
vt 0.4960179 0.04724559
vt 0.6048176 0.04724368
vt 0.8155468 0.04724368
vt 0.4913757 0.1892682
vt 0.8234296 0.1892682
vt 0.1278069 0.1892682
vt 0.1909463 0.1959389
vt 0.813691 0.7030365
vt 0.8099795 0.7345259
vt 0.8155468 0.04724368
vt 0.8453209 0.04724368
vt 0.8099795 0.7345259
vt 0.8147914 0.7647578
vt 0.8234296 0.1892682
vt 0.8155468 0.04724368
vt 0.8147914 0.7647578
vt 0.4913757 0.1892682
vt 0.8234296 0.1892682
vt 0.5094078 0.725275
vt 0.1461564 0.7089922
vt 0.1278069 0.1892682
vt 0.6048176 0.04724368
vt 0.4960179 0.04724559
vt 0.1909463 0.1959389
vt 0.3088441 0.1892682
vn 0.2504458 0.1440293 0.957357
vn 0.2797194 0.1438172 0.9492491
vn 0.2797194 0.1438172 0.949249
vn 0.2431192 0.1440614 0.9592389
vn 0.2197959 0.1441089 0.9648432
vn 0.2197959 0.1441089 0.9648432
vn 0.8149101 -0.004071902 -0.5795731
vn 0.9675927 0.006226434 -0.2524391
vn 0.81491 -0.004071902 -0.5795731
vn 0.968032 0.006275089 -0.2507485
vn 0.9862134 0.01705645 0.1645974
vn 0.9862134 0.01705645 0.1645974
vn 0.03094026 0.9987305 0.03975048
vn 0.03054334 0.9976708 0.06099121
vn 0.03648379 0.9977481 0.05628081
vn 0.03887628 0.9985721 0.03663931
vn 0.05458226 0.9976298 0.04189962
vn 0.04853614 0.9982381 0.03413046
vn 0.04383586 0.9986437 0.0280926
vn 0.03469219 0.9990849 0.02501526
vn 0.03122804 0.9992278 0.02384906
vn -8.914447E-07 -1 2.273977E-06
vn -0.02539715 -0.9942595 0.1039372
vn 0.03355992 -0.9939561 0.1045231
vn -0.1134366 -0.9933234 0.0209914
vn -0.1074288 -0.9915355 0.07291343
vn -0.1545597 -0.9875694 0.02860043
vn -0.05998953 -0.9913433 0.1167891
vn -0.0274832 -0.9886929 0.1474148
vn -0.0465132 0.06244069 -0.9969642
vn -0.01784736 0.04486666 -0.9988336
vn -0.0123644 0.04150086 -0.999062
vn -0.0465132 0.06244069 -0.9969642
vn -0.01784736 0.04486666 -0.9988336
vn 0.02250933 0.02006023 -0.9995453
vn 0.02250933 0.02006024 -0.9995453
vn -0.0123644 0.04150086 -0.999062
vn -0.9549621 0.01506729 -0.296345
vn -0.9940399 0.02926157 0.1050164
vn -0.9549621 0.01506729 -0.2963451
vn -0.9974865 0.02803943 0.06507242
vn -0.9078638 0.03728821 0.4176038
vn -0.9078638 0.03728821 0.4176038
vn 0.03355992 -0.9939561 0.1045231
vn -0.02539715 -0.9942595 0.1039372
vn -0.0274832 -0.9886929 0.1474148
vn 0.07867195 -0.9663212 0.2450186
g Stone_Small_D_0
f 3/3/3 2/2/2 1/1/1
f 4/4/4 3/3/3 1/1/1
f 5/5/5 4/4/4 1/1/1
f 6/6/6 5/5/5 1/1/1
f 9/9/9 8/8/8 7/7/7
f 8/8/8 10/10/10 7/7/7
f 11/11/11 10/10/10 8/8/8
f 12/12/12 11/11/11 8/8/8
f 15/15/15 14/14/14 13/13/13
f 16/16/16 15/15/15 13/13/13
f 17/17/17 15/15/15 16/16/16
f 18/18/18 17/17/17 16/16/16
f 19/19/19 18/18/18 16/16/16
f 20/20/20 19/19/19 16/16/16
f 20/20/20 16/16/16 13/13/13
f 21/21/21 20/20/20 13/13/13
f 24/24/24 23/23/23 22/22/22
f 23/23/23 25/25/25 22/22/22
f 25/25/25 23/23/23 26/26/26
f 27/27/27 25/25/25 26/26/26
f 28/28/28 26/26/26 23/23/23
f 29/29/29 28/28/28 23/23/23
f 32/32/32 31/31/31 30/30/30
f 33/33/33 32/32/32 30/30/30
f 36/36/36 35/35/35 34/34/34
f 37/37/37 36/36/36 34/34/34
f 40/40/40 39/39/39 38/38/38
f 39/39/39 41/41/41 38/38/38
f 42/42/42 41/41/41 39/39/39
f 43/43/43 42/42/42 39/39/39
f 46/46/46 45/45/45 44/44/44
f 47/47/47 46/46/46 44/44/44
