g sprout_ocaoca
v -0.009988753 0 -0.01946557
v 0.085937 0.448657 0.1451835
v -0.2141227 0.4289114 0.1094165
v 0.085937 0.448657 0.1451835
v -0.01732002 1.52104 0.220932
v -0.2000909 1.535242 0.2269336
v 0.1657686 2.58774 0.07080719
v -0.009988753 0 -0.01946557
v -0.09941968 0.3995829 -0.227253
v 0.1728281 0.4074744 -0.01293939
v 0.09835779 1.083906 -0.340677
v 0.46399 1.098184 -0.03239563
v 1.129367 2.101344 -0.4468489
v -0.009988753 0 -0.01946557
v -0.266496 0.4207268 -0.00455646
v -0.09935325 0.426216 -0.2097928
v -0.5268467 1.441401 -0.03458302
v -0.2620138 1.470669 -0.2580297
v -0.3680553 2.698549 -0.4963574
vt 0.1514248 0.02064212
vt 0.1310288 0.3584474
vt 0.168563 0.3584679
vt 0.1310288 0.3584474
vt 0.1332564 0.6611445
vt 0.1692016 0.6611443
vt 0.1527023 0.9810393
vt 0.25594 0.0208496
vt 0.2353035 0.2223425
vt 0.2755544 0.2222203
vt 0.2351312 0.4876589
vt 0.2766693 0.4878252
vt 0.2565092 0.9808721
vt 0.411763 0.0204953
vt 0.3971718 0.2230885
vt 0.4297286 0.2234083
vt 0.3972209 0.4886287
vt 0.4291894 0.4886757
vt 0.4127992 0.9809902
vn 0.09072112 0.3259432 -0.9410264
vn 0.06599817 0.1334517 -0.9888553
vn 0.06609905 0.1342077 -0.9887462
vn 0.06599817 0.1334517 -0.9888553
vn 0.03318084 0.03192148 -0.9989395
vn 0.03493811 0.03572995 -0.9987506
vn -0.04277814 -0.1320331 -0.9903218
vn -0.6021969 0.2580808 0.7554821
vn -0.6110303 0.2838998 0.7389472
vn -0.6113158 0.2847611 0.7383794
vn -0.5897368 0.4122998 0.6944202
vn -0.5721974 0.4789018 0.6657652
vn -0.5295754 0.5992858 0.6003385
vn 0.7026482 0.4077237 0.5831353
vn 0.6921787 0.1978715 0.6940718
vn 0.6929476 0.2034822 0.691678
vn 0.6642985 0.1793448 0.7256328
vn 0.6591739 0.1818527 0.7296708
vn 0.6186577 0.2008551 0.7595524
g sprout_ocaoca_0
f 3/3/3 2/2/2 1/1/1
f 5/5/5 4/4/4 3/3/3
f 6/6/6 5/5/5 3/3/3
f 7/7/7 5/5/5 6/6/6
f 10/10/10 9/9/9 8/8/8
f 11/11/11 9/9/9 10/10/10
f 12/12/12 11/11/11 10/10/10
f 13/13/13 11/11/11 12/12/12
f 16/16/16 15/15/15 14/14/14
f 17/17/17 15/15/15 16/16/16
f 18/18/18 17/17/17 16/16/16
f 19/19/19 17/17/17 18/18/18
