g leaves_pogo_COL
v 0.2859758 -0.2912946 -2.416186
v 0.2216967 -0.2048362 -0.1658883
v 1.679622 -0.1603574 -1.783483
v -1.410307 -0.04049781 -1.46019
v 0.2216967 -0.2048362 -0.1658883
v 0.2859758 -0.2912946 -2.416186
v -2.000034 -0.1184431 -0.06030211
v 0.2216967 -0.2048362 -0.1658883
v -1.410307 -0.04049781 -1.46019
v -1.576383 -0.1861015 1.158689
v 0.2216967 -0.2048362 -0.1658883
v 0.1798378 0.0876394 2.033818
v 0.2216967 -0.2048362 -0.1658883
v -1.576383 -0.1861015 1.158689
v 1.60024 0.0876748 1.423464
v 0.2216967 -0.2048362 -0.1658883
v 2.10633 -0.1177286 -0.3825343
v 0.2216967 -0.2048362 -0.1658883
v 1.679622 -0.1603574 -1.783483
v 0.2216967 -0.2048362 -0.1658883
v 2.10633 -0.1177286 -0.3825343
v 1.357924 3.915592 -1.549752
v 0.09748827 4.750711 -0.05822121
v 0.06453706 4.012773 -2.079773
v 0.06453706 4.012773 -2.079773
v 0.09748827 4.750711 -0.05822121
v -1.048451 4.040232 -1.557388
v -1.048451 4.040232 -1.557388
v 0.09748827 4.750711 -0.05822121
v -1.830049 3.988091 -0.2620127
v -1.830049 3.988091 -0.2620127
v 0.09748827 4.750711 -0.05822121
v -1.112707 3.976342 1.035817
v -1.112707 3.976342 1.035817
v 0.09748827 4.750711 -0.05822121
v 0.04994335 4.03669 1.508615
v 0.04994335 4.03669 1.508615
v 0.09748827 4.750711 -0.05822121
v 1.366877 3.99942 0.9399117
v 1.366877 3.99942 0.9399117
v 0.09748827 4.750711 -0.05822121
v 1.813515 4.04996 -0.2326512
v 1.813515 4.04996 -0.2326512
v 0.09748827 4.750711 -0.05822121
v 1.357924 3.915592 -1.549752
v 1.679622 -0.1603574 -1.783483
v 2.235332 1.130918 -2.601734
v 0.2322186 0.9916832 -3.375923
v 0.2859758 -0.2912946 -2.416186
v 0.2859758 -0.2912946 -2.416186
v 0.2322186 0.9916832 -3.375923
v -1.939568 0.8699837 -2.006673
v -1.410307 -0.04049781 -1.46019
v -1.410307 -0.04049781 -1.46019
v -1.939568 0.8699837 -2.006673
v -3.002404 1.193934 -0.07679704
v -2.000034 -0.1184431 -0.06030211
v -2.000034 -0.1184431 -0.06030211
v -3.002404 1.193934 -0.07679704
v -2.092594 0.9271636 1.775
v -1.576383 -0.1861015 1.158689
v -1.576383 -0.1861015 1.158689
v -2.092594 0.9271636 1.775
v 0.2443917 1.25118 3.127637
v 0.1798378 0.0876394 2.033818
v 0.1798378 0.0876394 2.033818
v 0.2443917 1.25118 3.127637
v 2.161641 1.144789 2.034408
v 1.60024 0.0876748 1.423464
v 1.60024 0.0876748 1.423464
v 2.161641 1.144789 2.034408
v 2.782647 0.8136614 -0.3671369
v 2.10633 -0.1177286 -0.3825343
v 2.10633 -0.1177286 -0.3825343
v 2.782647 0.8136614 -0.3671369
v 2.235332 1.130918 -2.601734
v 1.679622 -0.1603574 -1.783483
v 2.235332 1.130918 -2.601734
v 1.920048 2.810947 -2.230223
v 0.2553464 2.837052 -2.932334
v 0.2322186 0.9916832 -3.375923
v 0.2322186 0.9916832 -3.375923
v 0.2553464 2.837052 -2.932334
v -1.742572 2.78033 -2.087997
v -1.939568 0.8699837 -2.006673
v -1.939568 0.8699837 -2.006673
v -1.742572 2.78033 -2.087997
v -2.594965 2.890465 -0.2984338
v -3.002404 1.193934 -0.07679704
v -3.002404 1.193934 -0.07679704
v -2.594965 2.890465 -0.2984338
v -1.680755 3.004826 1.554846
v -2.092594 0.9271636 1.775
v -2.092594 0.9271636 1.775
v -1.680755 3.004826 1.554846
v 0.20315 2.560314 2.71572
v 0.2443917 1.25118 3.127637
v 0.2443917 1.25118 3.127637
v 0.20315 2.560314 2.71572
v 1.934124 2.687835 1.816756
v 2.161641 1.144789 2.034408
v 2.161641 1.144789 2.034408
v 1.934124 2.687835 1.816756
v 2.919641 2.654193 -0.283211
v 2.782647 0.8136614 -0.3671369
v 2.782647 0.8136614 -0.3671369
v 2.919641 2.654193 -0.283211
v 1.920048 2.810947 -2.230223
v 2.235332 1.130918 -2.601734
v 1.920048 2.810947 -2.230223
v 1.357924 3.915592 -1.549752
v 0.06453706 4.012773 -2.079773
v 0.2553464 2.837052 -2.932334
v 0.2553464 2.837052 -2.932334
v 0.06453706 4.012773 -2.079773
v -1.048451 4.040232 -1.557388
v -1.742572 2.78033 -2.087997
v -1.742572 2.78033 -2.087997
v -1.048451 4.040232 -1.557388
v -1.830049 3.988091 -0.2620127
v -2.594965 2.890465 -0.2984338
v -2.594965 2.890465 -0.2984338
v -1.830049 3.988091 -0.2620127
v -1.112707 3.976342 1.035817
v -1.680755 3.004826 1.554846
v -1.680755 3.004826 1.554846
v -1.112707 3.976342 1.035817
v 0.04994335 4.03669 1.508615
v 0.20315 2.560314 2.71572
v 0.20315 2.560314 2.71572
v 0.04994335 4.03669 1.508615
v 1.366877 3.99942 0.9399117
v 1.934124 2.687835 1.816756
v 1.934124 2.687835 1.816756
v 1.366877 3.99942 0.9399117
v 1.813515 4.04996 -0.2326512
v 2.919641 2.654193 -0.283211
v 2.919641 2.654193 -0.283211
v 1.813515 4.04996 -0.2326512
v 1.357924 3.915592 -1.549752
v 1.920048 2.810947 -2.230223
vt 0.125 0.2
vt 0.0625 0
vt 0 0.2
vt 0.25 0.2
vt 0.1875 0
vt 0.125 0.2
vt 0.375 0.2
vt 0.3125 0
vt 0.25 0.2
vt 0.5 0.2
vt 0.4375 0
vt 0.625 0.2
vt 0.5625 0
vt 0.5 0.2
vt 0.75 0.2
vt 0.6875 0
vt 0.875 0.2
vt 0.8125 0
vt 1 0.2
vt 0.9375 0
vt 0.875 0.2
vt 0 0.8
vt 0.0625 1
vt 0.125 0.8
vt 0.125 0.8
vt 0.1875 1
vt 0.25 0.8
vt 0.25 0.8
vt 0.3125 1
vt 0.375 0.8
vt 0.375 0.8
vt 0.4375 1
vt 0.5 0.8
vt 0.5 0.8
vt 0.5625 1
vt 0.625 0.8
vt 0.625 0.8
vt 0.6875 1
vt 0.75 0.8
vt 0.75 0.8
vt 0.8125 1
vt 0.875 0.8
vt 0.875 0.8
vt 0.9375 1
vt 1 0.8
vt 0 0.2
vt 0 0.4
vt 0.125 0.4
vt 0.125 0.2
vt 0.125 0.2
vt 0.125 0.4
vt 0.25 0.4
vt 0.25 0.2
vt 0.25 0.2
vt 0.25 0.4
vt 0.375 0.4
vt 0.375 0.2
vt 0.375 0.2
vt 0.375 0.4
vt 0.5 0.4
vt 0.5 0.2
vt 0.5 0.2
vt 0.5 0.4
vt 0.625 0.4
vt 0.625 0.2
vt 0.625 0.2
vt 0.625 0.4
vt 0.75 0.4
vt 0.75 0.2
vt 0.75 0.2
vt 0.75 0.4
vt 0.875 0.4
vt 0.875 0.2
vt 0.875 0.2
vt 0.875 0.4
vt 1 0.4
vt 1 0.2
vt 0 0.4
vt 0 0.6
vt 0.125 0.6
vt 0.125 0.4
vt 0.125 0.4
vt 0.125 0.6
vt 0.25 0.6
vt 0.25 0.4
vt 0.25 0.4
vt 0.25 0.6
vt 0.375 0.6
vt 0.375 0.4
vt 0.375 0.4
vt 0.375 0.6
vt 0.5 0.6
vt 0.5 0.4
vt 0.5 0.4
vt 0.5 0.6
vt 0.625 0.6
vt 0.625 0.4
vt 0.625 0.4
vt 0.625 0.6
vt 0.75 0.6
vt 0.75 0.4
vt 0.75 0.4
vt 0.75 0.6
vt 0.875 0.6
vt 0.875 0.4
vt 0.875 0.4
vt 0.875 0.6
vt 1 0.6
vt 1 0.4
vt 0 0.6
vt 0 0.8
vt 0.125 0.8
vt 0.125 0.6
vt 0.125 0.6
vt 0.125 0.8
vt 0.25 0.8
vt 0.25 0.6
vt 0.25 0.6
vt 0.25 0.8
vt 0.375 0.8
vt 0.375 0.6
vt 0.375 0.6
vt 0.375 0.8
vt 0.5 0.8
vt 0.5 0.6
vt 0.5 0.6
vt 0.5 0.8
vt 0.625 0.8
vt 0.625 0.6
vt 0.625 0.6
vt 0.625 0.8
vt 0.75 0.8
vt 0.75 0.6
vt 0.75 0.6
vt 0.75 0.8
vt 0.875 0.8
vt 0.875 0.6
vt 0.875 0.6
vt 0.875 0.8
vt 1 0.8
vt 1 0.6
vn 0.07525461 -0.9963444 0.04043016
vn 0.07525462 -0.9963444 0.04043016
vn 0.07525462 -0.9963444 0.04043016
vn -0.1271446 -0.9912856 0.03445417
vn -0.1271446 -0.9912856 0.03445416
vn -0.1271446 -0.9912856 0.03445416
vn -0.0422283 -0.9964178 -0.07326914
vn -0.04222829 -0.9964178 -0.07326914
vn -0.04222829 -0.9964178 -0.07326913
vn -0.04077984 -0.9983169 -0.04123736
vn -0.04077984 -0.9983169 -0.04123735
vn 0.08764012 -0.9872427 0.1329327
vn 0.08764012 -0.9872427 0.1329327
vn 0.08764012 -0.9872427 0.1329327
vn 0.0570264 -0.9895207 0.1326528
vn 0.05702641 -0.9895207 0.1326528
vn 0.06063763 -0.9897162 0.1295568
vn 0.06063764 -0.9897162 0.1295568
vn 0.04797458 -0.9987239 0.0157777
vn 0.04797459 -0.9987239 0.0157777
vn 0.04797458 -0.9987239 0.0157777
vn 0.2076406 0.9178023 -0.3384147
vn 0.2076406 0.9178023 -0.3384147
vn 0.2076406 0.9178023 -0.3384147
vn -0.1355629 0.9314086 -0.3377878
vn -0.1355629 0.9314086 -0.3377878
vn -0.1355629 0.9314086 -0.3377878
vn -0.3466319 0.9220904 -0.1720342
vn -0.346632 0.9220904 -0.1720342
vn -0.3466319 0.9220904 -0.1720342
vn -0.3788873 0.8995059 0.2175631
vn -0.3788872 0.8995059 0.2175631
vn -0.3788872 0.8995059 0.2175631
vn -0.2090772 0.8922344 0.4002553
vn -0.2090772 0.8922344 0.4002553
vn -0.2090772 0.8922344 0.4002553
vn 0.2027059 0.8887404 0.4111579
vn 0.2027059 0.8887404 0.4111579
vn 0.202706 0.8887404 0.4111579
vn 0.387607 0.9027507 0.1865525
vn 0.387607 0.9027507 0.1865526
vn 0.387607 0.9027507 0.1865526
vn 0.350526 0.911715 -0.2142595
vn 0.350526 0.911715 -0.2142595
vn 0.350526 0.911715 -0.2142595
vn 0.3511859 -0.5775042 -0.7369921
vn 0.3511859 -0.5775043 -0.7369921
vn 0.3511859 -0.5775042 -0.7369921
vn 0.3511859 -0.5775042 -0.7369921
vn -0.4318458 -0.5857539 -0.6858582
vn -0.4318459 -0.585754 -0.6858582
vn -0.4318459 -0.585754 -0.6858582
vn -0.4318459 -0.5857539 -0.6858582
vn -0.7390626 -0.5910792 -0.3231281
vn -0.7390626 -0.5910792 -0.3231281
vn -0.7390626 -0.5910792 -0.3231281
vn -0.7390626 -0.5910793 -0.3231281
vn -0.7815498 -0.558182 0.2785908
vn -0.7815498 -0.5581819 0.2785908
vn -0.7815498 -0.558182 0.2785908
vn -0.7815498 -0.5581819 0.2785908
vn -0.3083965 -0.6096506 0.7302177
vn -0.3083965 -0.6096506 0.7302177
vn -0.3083965 -0.6096505 0.7302177
vn -0.3083965 -0.6096505 0.7302177
vn 0.3365315 -0.631274 0.6987415
vn 0.3365315 -0.631274 0.6987415
vn 0.3365315 -0.631274 0.6987415
vn 0.3365315 -0.631274 0.6987415
vn 0.7730938 -0.5692985 0.2796876
vn 0.7730938 -0.5692985 0.2796876
vn 0.7730938 -0.5692985 0.2796876
vn 0.7730938 -0.5692985 0.2796876
vn 0.8033633 -0.5377232 -0.2558538
vn 0.8033633 -0.5377232 -0.2558538
vn 0.8033633 -0.5377232 -0.2558538
vn 0.8033633 -0.5377232 -0.2558538
vn 0.3562861 0.2384108 -0.9034492
vn 0.356286 0.2384109 -0.9034492
vn 0.3562861 0.2384108 -0.9034492
vn 0.3562861 0.2384109 -0.9034492
vn -0.4696806 0.1119957 -0.8757038
vn -0.4696807 0.1119957 -0.8757038
vn -0.4696806 0.1119957 -0.8757038
vn -0.4696807 0.1119957 -0.8757037
vn -0.8786444 0.108179 -0.4650606
vn -0.8786444 0.108179 -0.4650605
vn -0.8786444 0.108179 -0.4650605
vn -0.8786444 0.108179 -0.4650605
vn -0.8671547 0.2393605 0.4367486
vn -0.8671547 0.2393605 0.4367486
vn -0.8671547 0.2393605 0.4367486
vn -0.8671547 0.2393605 0.4367486
vn -0.4956135 0.2114498 0.8424109
vn -0.4956136 0.2114498 0.842411
vn -0.4956136 0.2114498 0.842411
vn -0.4956136 0.2114498 0.842411
vn 0.4651131 0.2323787 0.8542072
vn 0.4651131 0.2323787 0.8542072
vn 0.4651131 0.2323787 0.8542072
vn 0.4651131 0.2323787 0.8542072
vn 0.9421054 0.03837014 0.3331144
vn 0.9421054 0.03837015 0.3331144
vn 0.9421054 0.03837014 0.3331144
vn 0.9421054 0.03837015 0.3331144
vn 0.9373045 0.09098908 -0.3364244
vn 0.9373045 0.09098908 -0.3364244
vn 0.9373045 0.09098909 -0.3364243
vn 0.9373045 0.09098908 -0.3364244
vn 0.3289728 0.5992679 -0.7298321
vn 0.3289728 0.5992679 -0.7298321
vn 0.3289728 0.5992679 -0.7298321
vn 0.3289728 0.5992679 -0.7298321
vn -0.3485407 0.5162797 -0.7822881
vn -0.3485407 0.5162797 -0.7822881
vn -0.3485407 0.5162797 -0.7822881
vn -0.3485407 0.5162797 -0.7822881
vn -0.7336935 0.5500273 -0.3989534
vn -0.7336935 0.5500273 -0.3989534
vn -0.7336935 0.5500273 -0.3989534
vn -0.7336935 0.5500273 -0.3989534
vn -0.7413522 0.5628415 0.365522
vn -0.7413522 0.5628415 0.365522
vn -0.7413522 0.5628415 0.365522
vn -0.7413522 0.5628415 0.365522
vn -0.3265053 0.5810338 0.7455159
vn -0.3265053 0.5810339 0.7455159
vn -0.3265053 0.5810339 0.7455158
vn -0.3265053 0.5810339 0.7455158
vn 0.3259339 0.6186067 0.7149075
vn 0.325934 0.6186067 0.7149075
vn 0.325934 0.6186067 0.7149075
vn 0.325934 0.6186067 0.7149075
vn 0.7534148 0.5671976 0.3326455
vn 0.7534148 0.5671977 0.3326455
vn 0.7534148 0.5671976 0.3326455
vn 0.7534148 0.5671976 0.3326455
vn 0.7397424 0.5887859 -0.3257489
vn 0.7397423 0.5887859 -0.3257489
vn 0.7397423 0.5887859 -0.3257489
vn 0.7397424 0.5887859 -0.3257489
g leaves_pogo_COL_0
f 3/3/3 2/2/2 1/1/1
f 6/6/6 5/5/5 4/4/4
f 9/9/9 8/8/8 7/7/7
f 7/7/7 11/11/11 10/10/10
f 14/14/14 13/13/13 12/12/12
f 12/12/12 16/16/16 15/15/15
f 15/15/15 18/18/18 17/17/17
f 21/21/21 20/20/20 19/19/19
f 24/24/24 23/23/23 22/22/22
f 27/27/27 26/26/26 25/25/25
f 30/30/30 29/29/29 28/28/28
f 33/33/33 32/32/32 31/31/31
f 36/36/36 35/35/35 34/34/34
f 39/39/39 38/38/38 37/37/37
f 42/42/42 41/41/41 40/40/40
f 45/45/45 44/44/44 43/43/43
f 48/48/48 47/47/47 46/46/46
f 49/49/49 48/48/48 46/46/46
f 52/52/52 51/51/51 50/50/50
f 53/53/53 52/52/52 50/50/50
f 56/56/56 55/55/55 54/54/54
f 57/57/57 56/56/56 54/54/54
f 60/60/60 59/59/59 58/58/58
f 61/61/61 60/60/60 58/58/58
f 64/64/64 63/63/63 62/62/62
f 65/65/65 64/64/64 62/62/62
f 68/68/68 67/67/67 66/66/66
f 69/69/69 68/68/68 66/66/66
f 72/72/72 71/71/71 70/70/70
f 73/73/73 72/72/72 70/70/70
f 76/76/76 75/75/75 74/74/74
f 77/77/77 76/76/76 74/74/74
f 80/80/80 79/79/79 78/78/78
f 81/81/81 80/80/80 78/78/78
f 84/84/84 83/83/83 82/82/82
f 85/85/85 84/84/84 82/82/82
f 88/88/88 87/87/87 86/86/86
f 89/89/89 88/88/88 86/86/86
f 92/92/92 91/91/91 90/90/90
f 93/93/93 92/92/92 90/90/90
f 96/96/96 95/95/95 94/94/94
f 97/97/97 96/96/96 94/94/94
f 100/100/100 99/99/99 98/98/98
f 101/101/101 100/100/100 98/98/98
f 104/104/104 103/103/103 102/102/102
f 105/105/105 104/104/104 102/102/102
f 108/108/108 107/107/107 106/106/106
f 109/109/109 108/108/108 106/106/106
f 112/112/112 111/111/111 110/110/110
f 113/113/113 112/112/112 110/110/110
f 116/116/116 115/115/115 114/114/114
f 117/117/117 116/116/116 114/114/114
f 120/120/120 119/119/119 118/118/118
f 121/121/121 120/120/120 118/118/118
f 124/124/124 123/123/123 122/122/122
f 125/125/125 124/124/124 122/122/122
f 128/128/128 127/127/127 126/126/126
f 129/129/129 128/128/128 126/126/126
f 132/132/132 131/131/131 130/130/130
f 133/133/133 132/132/132 130/130/130
f 136/136/136 135/135/135 134/134/134
f 137/137/137 136/136/136 134/134/134
f 140/140/140 139/139/139 138/138/138
f 141/141/141 140/140/140 138/138/138
