g tree_pogo_COL
v -0.02762396 -0.2239702 -1.870577
v 0.02236143 1.008029 -1.311956
v -0.9575995 0.9560151 -1.012992
v -0.02762396 -0.2239702 -1.870577
v -0.8501596 0.2202074 -0.9206405
v -1.793997 -0.1433321 -0.2739237
v -1.392654 0.7861199 -0.2531371
v -0.9084923 0.9199814 0.8961929
v -1.793997 -0.1433321 -0.2739237
v -0.7178751 0.1853831 0.8072135
v 0.04192442 -0.1315595 1.66674
v -0.07291938 1.038559 1.215216
v 0.8660785 0.9512722 0.8503895
v 0.04192442 -0.1315595 1.66674
v 0.7271423 0.1110078 0.7630964
v 1.516497 -0.1812552 -0.08971406
v 1.27167 1.05949 0.01609444
v 0.9385867 1.103135 -0.9819607
v 1.516497 -0.1812552 -0.08971406
v 0.8187524 0.030812 -0.7843419
v 0.05314336 1.736039 1.02266
v 0.5497249 2.999205 1.018612
v 0.6656994 3.119294 1.039275
v 0.6656994 3.119294 1.039275
v 0.8148426 1.619408 0.7946418
v -0.02762396 -0.2239702 -1.870577
v -0.01109721 -0.05763481 -0.0577744
v 0.8187524 0.030812 -0.7843419
v -0.8501596 0.2202074 -0.9206405
v -0.01109721 -0.05763481 -0.0577744
v -0.02762396 -0.2239702 -1.870577
v -1.793997 -0.1433321 -0.2739237
v -0.01109721 -0.05763481 -0.0577744
v -0.8501596 0.2202074 -0.9206405
v -0.7178751 0.1853831 0.8072135
v -0.01109721 -0.05763481 -0.0577744
v -1.793997 -0.1433321 -0.2739237
v 0.04192442 -0.1315595 1.66674
v -0.01109721 -0.05763481 -0.0577744
v -0.7178751 0.1853831 0.8072135
v 0.7271423 0.1110078 0.7630964
v -0.01109721 -0.05763481 -0.0577744
v 0.04192442 -0.1315595 1.66674
v 1.516497 -0.1812552 -0.08971406
v -0.01109721 -0.05763481 -0.0577744
v 0.7271423 0.1110078 0.7630964
v 0.8187524 0.030812 -0.7843419
v -0.01109721 -0.05763481 -0.0577744
v 1.516497 -0.1812552 -0.08971406
v 0.677074 3.064839 -1.327083
v -0.02150504 2.745029 0.0041466
v -1.358248 3.044169 -0.5941811
v -1.358248 3.044169 -0.5941811
v -0.02150504 2.745029 0.0041466
v -1.348416 3.152465 -0.2901895
v -1.348416 3.152465 -0.2901895
v -0.02150504 2.745029 0.0041466
v -0.7505658 2.071007 0.5622779
v -0.7505658 2.071007 0.5622779
v -0.02150504 2.745029 0.0041466
v 0.5497249 2.999205 1.018612
v 0.5497249 2.999205 1.018612
v -0.02150504 2.745029 0.0041466
v 0.6656994 3.119294 1.039275
v 0.6656994 3.119294 1.039275
v -0.02150504 2.745029 0.0041466
v 0.6643654 2.67979 0.4415959
v 0.8187524 0.030812 -0.7843419
v 0.9385867 1.103135 -0.9819607
v 0.02236143 1.008029 -1.311956
v -0.02762396 -0.2239702 -1.870577
v -0.8501596 0.2202074 -0.9206405
v -0.9575995 0.9560151 -1.012992
v -1.392654 0.7861199 -0.2531371
v -1.793997 -0.1433321 -0.2739237
v -0.7178751 0.1853831 0.8072135
v -0.9084923 0.9199814 0.8961929
v -0.07291938 1.038559 1.215216
v 0.04192442 -0.1315595 1.66674
v 0.7271423 0.1110078 0.7630964
v 0.8660785 0.9512722 0.8503895
v 1.27167 1.05949 0.01609444
v 1.516497 -0.1812552 -0.08971406
v 0.9385867 1.103135 -0.9819607
v 0.8785542 1.726367 -0.8605878
v -0.03018194 1.743777 -1.235069
v 0.02236143 1.008029 -1.311956
v 0.02236143 1.008029 -1.311956
v -0.9074019 1.699398 -0.8897998
v -0.9575995 0.9560151 -1.012992
v -0.03018194 1.743777 -1.235069
v -1.358248 3.044169 -0.5941811
v 0.677074 3.064839 -1.327083
v -0.9575995 0.9560151 -1.012992
v -0.9074019 1.699398 -0.8897998
v -1.315482 1.678792 -0.1115742
v -1.392654 0.7861199 -0.2531371
v -1.392654 0.7861199 -0.2531371
v -1.315482 1.678792 -0.1115742
v -0.9047338 1.793907 0.7170474
v -0.9084923 0.9199814 0.8961929
v -0.9084923 0.9199814 0.8961929
v -0.9047338 1.793907 0.7170474
v 0.05314336 1.736039 1.02266
v -0.07291938 1.038559 1.215216
v -0.07291938 1.038559 1.215216
v 0.05314336 1.736039 1.02266
v 0.8148426 1.619408 0.7946418
v 0.8660785 0.9512722 0.8503895
v 0.8660785 0.9512722 0.8503895
v 0.8148426 1.619408 0.7946418
v 1.134782 1.729086 -0.1473979
v 1.27167 1.05949 0.01609444
v 1.27167 1.05949 0.01609444
v 1.134782 1.729086 -0.1473979
v 0.8785542 1.726367 -0.8605878
v 0.9385867 1.103135 -0.9819607
v 0.8785542 1.726367 -0.8605878
v 0.9790207 3.079982 -1.32892
v 0.677074 3.064839 -1.327083
v -0.03018194 1.743777 -1.235069
v -0.9074019 1.699398 -0.8897998
v -1.358248 3.044169 -0.5941811
v -1.348416 3.152465 -0.2901895
v -1.315482 1.678792 -0.1115742
v -1.315482 1.678792 -0.1115742
v -1.348416 3.152465 -0.2901895
v -0.7505658 2.071007 0.5622779
v -0.9047338 1.793907 0.7170474
v -0.9047338 1.793907 0.7170474
v -0.7505658 2.071007 0.5622779
v 0.5497249 2.999205 1.018612
v 0.05314336 1.736039 1.02266
v 0.8148426 1.619408 0.7946418
v 0.6656994 3.119294 1.039275
v 0.6643654 2.67979 0.4415959
v 1.134782 1.729086 -0.1473979
v 1.134782 1.729086 -0.1473979
v 0.6643654 2.67979 0.4415959
v 0.9790207 3.079982 -1.32892
v 0.8785542 1.726367 -0.8605878
v 0.9790207 3.079982 -1.32892
v -0.02150504 2.745029 0.0041466
v 0.677074 3.064839 -1.327083
v 0.6643654 2.67979 0.4415959
vt 0.40625 0.3125
vt 0.40625 0.4378133
vt 0.4375 0.4378133
vt 0.40625 0.3125
vt 0.4375 0.3125
vt 0.46875 0.3125
vt 0.46875 0.4378133
vt 0.5 0.4378133
vt 0.46875 0.3125
vt 0.5 0.3125
vt 0.53125 0.3125
vt 0.53125 0.4378133
vt 0.5625 0.4378133
vt 0.53125 0.3125
vt 0.5625 0.3125
vt 0.59375 0.3125
vt 0.59375 0.4378133
vt 0.625 0.4378133
vt 0.59375 0.3125
vt 0.625 0.3125
vt 0.53125 0.5631266
vt 0.53125 0.6884398
vt 0.5625 0.6884398
vt 0.5625 0.6884398
vt 0.5625 0.5631266
vt 0.5 1.490116E-08
vt 0.5 0.15
vt 0.6104854 0.04576458
vt 0.3895146 0.04576458
vt 0.5 0.15
vt 0.5 1.490116E-08
vt 0.34375 0.15625
vt 0.5 0.15
vt 0.3895146 0.04576458
vt 0.3895146 0.2667354
vt 0.5 0.15
vt 0.34375 0.15625
vt 0.5 0.3125
vt 0.5 0.15
vt 0.3895146 0.2667354
vt 0.6104854 0.2667354
vt 0.5 0.15
vt 0.5 0.3125
vt 0.65625 0.15625
vt 0.5 0.15
vt 0.6104854 0.2667354
vt 0.6104854 0.04576458
vt 0.5 0.15
vt 0.65625 0.15625
vt 0.5 1
vt 0.5 0.8375
vt 0.3895146 0.9542354
vt 0.3895146 0.9542354
vt 0.5 0.8375
vt 0.34375 0.84375
vt 0.34375 0.84375
vt 0.5 0.8375
vt 0.3895146 0.7332646
vt 0.3895146 0.7332646
vt 0.5 0.8375
vt 0.5 0.6875
vt 0.5 0.6875
vt 0.5 0.8375
vt 0.6104854 0.7332646
vt 0.6104854 0.7332646
vt 0.5 0.8375
vt 0.65625 0.84375
vt 0.375 0.3125
vt 0.375 0.4378133
vt 0.40625 0.4378133
vt 0.40625 0.3125
vt 0.4375 0.3125
vt 0.4375 0.4378133
vt 0.46875 0.4378133
vt 0.46875 0.3125
vt 0.5 0.3125
vt 0.5 0.4378133
vt 0.53125 0.4378133
vt 0.53125 0.3125
vt 0.5625 0.3125
vt 0.5625 0.4378133
vt 0.59375 0.4378133
vt 0.59375 0.3125
vt 0.375 0.4378133
vt 0.375 0.5631266
vt 0.40625 0.5631266
vt 0.40625 0.4378133
vt 0.40625 0.4378133
vt 0.4375 0.5631266
vt 0.4375 0.4378133
vt 0.40625 0.5631266
vt 0.4375 0.6884398
vt 0.40625 0.6884398
vt 0.4375 0.4378133
vt 0.4375 0.5631266
vt 0.46875 0.5631266
vt 0.46875 0.4378133
vt 0.46875 0.4378133
vt 0.46875 0.5631266
vt 0.5 0.5631266
vt 0.5 0.4378133
vt 0.5 0.4378133
vt 0.5 0.5631266
vt 0.53125 0.5631266
vt 0.53125 0.4378133
vt 0.53125 0.4378133
vt 0.53125 0.5631266
vt 0.5625 0.5631266
vt 0.5625 0.4378133
vt 0.5625 0.4378133
vt 0.5625 0.5631266
vt 0.59375 0.5631266
vt 0.59375 0.4378133
vt 0.59375 0.4378133
vt 0.59375 0.5631266
vt 0.625 0.5631266
vt 0.625 0.4378133
vt 0.375 0.5631266
vt 0.375 0.6884398
vt 0.40625 0.6884398
vt 0.40625 0.5631266
vt 0.4375 0.5631266
vt 0.4375 0.6884398
vt 0.46875 0.6884398
vt 0.46875 0.5631266
vt 0.46875 0.5631266
vt 0.46875 0.6884398
vt 0.5 0.6884398
vt 0.5 0.5631266
vt 0.5 0.5631266
vt 0.5 0.6884398
vt 0.53125 0.6884398
vt 0.53125 0.5631266
vt 0.5625 0.5631266
vt 0.5625 0.6884398
vt 0.59375 0.6884398
vt 0.59375 0.5631266
vt 0.59375 0.5631266
vt 0.59375 0.6884398
vt 0.625 0.6884398
vt 0.625 0.5631266
vt 0.6104854 0.9542354
vt 0.5 0.8375
vt 0.5 1
vt 0.65625 0.84375
vn -0.5333986 0.1802489 -0.8264358
vn -0.5333986 0.1802489 -0.8264358
vn -0.5333986 0.1802489 -0.8264358
vn -0.5333986 0.1802489 -0.8264358
vn -0.5333986 0.1802489 -0.8264358
vn -0.824054 0.06724887 0.5625055
vn -0.824054 0.06724887 0.5625055
vn -0.824054 0.06724887 0.5625055
vn -0.824054 0.06724887 0.5625055
vn -0.824054 0.06724887 0.5625055
vn 0.6017687 0.1353932 0.7871106
vn 0.6017687 0.1353932 0.7871106
vn 0.6017687 0.1353931 0.7871106
vn 0.6017687 0.1353932 0.7871106
vn 0.6017687 0.1353932 0.7871106
vn 0.8555249 0.02570497 -0.5171232
vn 0.8555249 0.02570497 -0.5171232
vn 0.8555249 0.02570497 -0.5171232
vn 0.8555249 0.02570497 -0.5171232
vn 0.8555249 0.02570497 -0.5171232
vn 0.228875 -0.112968 0.9668787
vn 0.228875 -0.112968 0.9668787
vn 0.228875 -0.112968 0.9668787
vn 0.228875 -0.112968 0.9668787
vn 0.2288749 -0.112968 0.9668787
vn 0.1816185 -0.9794048 0.08821044
vn 0.1816185 -0.9794047 0.08821043
vn 0.1816185 -0.9794048 0.08821044
vn -0.3931395 -0.9152995 0.08756827
vn -0.3931395 -0.9152995 0.08756827
vn -0.3931395 -0.9152995 0.08756827
vn 0.09072939 -0.9188278 -0.3840882
vn 0.0907294 -0.9188278 -0.3840883
vn 0.09072939 -0.9188278 -0.3840882
vn 0.01223344 -0.9600068 0.2797093
vn 0.01223344 -0.9600068 0.2797093
vn 0.01223344 -0.9600068 0.2797092
vn -0.3566424 -0.9337888 -0.02906344
vn -0.3566423 -0.9337888 -0.02906343
vn -0.3566423 -0.9337888 -0.02906343
vn 0.2745277 -0.9602988 -0.04960568
vn 0.2745277 -0.9602988 -0.04960568
vn 0.2745277 -0.9602988 -0.04960567
vn -0.07236786 -0.9621463 0.2627499
vn -0.07236788 -0.9621463 0.2627499
vn -0.07236787 -0.9621463 0.2627499
vn -0.08323566 -0.9733778 -0.2135593
vn -0.08323566 -0.9733778 -0.2135593
vn -0.08323566 -0.9733778 -0.2135593
vn 0.09005653 0.9566191 0.2770734
vn 0.09005654 0.9566191 0.2770734
vn 0.09005655 0.9566191 0.2770734
vn 0.3427461 0.8813909 -0.3250771
vn 0.342746 0.8813909 -0.3250771
vn 0.3427461 0.8813909 -0.3250771
vn 0.01899707 0.6254001 0.7800729
vn 0.01899707 0.6254001 0.7800729
vn 0.01899707 0.6254001 0.7800729
vn -0.6083639 0.7798964 0.1471561
vn -0.6083639 0.7798964 0.1471561
vn -0.6083639 0.7798964 0.1471561
vn -0.7185013 0.6523939 0.2411186
vn -0.7185013 0.6523939 0.2411186
vn -0.7185013 0.6523939 0.2411186
vn 0.4140324 0.7328923 -0.5398574
vn 0.4140324 0.7328923 -0.5398574
vn 0.4140324 0.7328923 -0.5398574
vn 0.6150574 0.07759884 -0.7846546
vn 0.6150574 0.07759883 -0.7846546
vn 0.6150574 0.07759883 -0.7846545
vn 0.6150574 0.07759884 -0.7846546
vn -0.7291685 0.09959528 -0.677048
vn -0.7291686 0.09959526 -0.677048
vn -0.7291686 0.09959529 -0.677048
vn -0.7291685 0.09959528 -0.677048
vn -0.5883756 0.0591366 0.8064224
vn -0.5883756 0.0591366 0.8064224
vn -0.5883756 0.0591366 0.8064224
vn -0.5883756 0.0591366 0.8064224
vn 0.815354 -0.01222234 0.5788336
vn 0.815354 -0.01222234 0.5788338
vn 0.815354 -0.01222234 0.5788336
vn 0.815354 -0.01222234 0.5788336
vn 0.3492077 0.1635345 -0.9226649
vn 0.3492076 0.1635345 -0.9226649
vn 0.3492076 0.1635345 -0.9226649
vn 0.3492076 0.1635344 -0.9226649
vn -0.330949 0.1259783 -0.9352017
vn -0.330949 0.1259783 -0.9352017
vn -0.330949 0.1259783 -0.9352017
vn -0.330949 0.1259783 -0.9352017
vn -0.3473088 0.1045802 -0.931901
vn -0.3473088 0.1045802 -0.931901
vn -0.8752446 0.1429161 -0.4620845
vn -0.8752444 0.1429161 -0.4620845
vn -0.8752444 0.142916 -0.4620844
vn -0.8752446 0.1429161 -0.4620845
vn -0.9122963 0.05043947 0.4064128
vn -0.9122964 0.05043947 0.4064128
vn -0.9122964 0.05043947 0.4064127
vn -0.9122964 0.05043948 0.4064128
vn -0.326374 0.2430347 0.9134628
vn -0.3263739 0.2430347 0.9134628
vn -0.326374 0.2430347 0.9134628
vn -0.3263739 0.2430347 0.9134628
vn 0.3414277 0.1500012 0.9278613
vn 0.3414277 0.1500012 0.9278613
vn 0.3414277 0.1500012 0.9278613
vn 0.3414277 0.1500012 0.9278613
vn 0.9003541 0.1907195 0.3911375
vn 0.9003541 0.1907194 0.3911376
vn 0.9003541 0.1907195 0.3911375
vn 0.9003541 0.1907194 0.3911375
vn 0.9381427 0.1324737 -0.3199048
vn 0.9381427 0.1324737 -0.3199048
vn 0.9381427 0.1324737 -0.3199048
vn 0.9381427 0.1324737 -0.3199048
vn 0.2821405 -0.2775946 -0.9183344
vn 0.2821405 -0.2775946 -0.9183344
vn 0.2821405 -0.2775946 -0.9183344
vn 0.2821405 -0.2775946 -0.9183344
vn -0.932164 -0.1462558 -0.3311789
vn -0.932164 -0.1462558 -0.3311788
vn -0.932164 -0.1462558 -0.3311789
vn -0.932164 -0.1462558 -0.3311789
vn -0.8010086 0.1650449 0.5754523
vn -0.8010086 0.1650449 0.5754523
vn -0.8010086 0.1650449 0.5754523
vn -0.8010086 0.1650449 0.5754523
vn -0.3968003 0.2584608 0.8807653
vn -0.3968003 0.2584608 0.8807653
vn -0.3968003 0.2584609 0.8807653
vn -0.3968004 0.2584609 0.8807653
vn 0.9686084 0.1905915 0.1596016
vn 0.9686083 0.1905916 0.1596016
vn 0.9686083 0.1905916 0.1596015
vn 0.9686083 0.1905916 0.1596015
vn 0.9866024 0.1558738 0.04815416
vn 0.9866024 0.1558738 0.04815416
vn 0.9866024 0.1558738 0.04815415
vn 0.9866024 0.1558738 0.04815415
vn -0.04770216 0.9766254 0.2095883
vn -0.04770217 0.9766254 0.2095884
vn -0.04770216 0.9766254 0.2095884
vn -0.04299993 0.9761079 0.212989
g tree_pogo_COL_0
f 3/3/3 2/2/2 1/1/1
f 5/5/5 3/3/3 4/4/4
f 8/8/8 7/7/7 6/6/6
f 10/10/10 8/8/8 9/9/9
f 13/13/13 12/12/12 11/11/11
f 15/15/15 13/13/13 14/14/14
f 18/18/18 17/17/17 16/16/16
f 20/20/20 18/18/18 19/19/19
f 23/23/23 22/22/22 21/21/21
f 25/25/25 24/24/24 21/21/21
f 28/28/28 27/27/27 26/26/26
f 31/31/31 30/30/30 29/29/29
f 34/34/34 33/33/33 32/32/32
f 37/37/37 36/36/36 35/35/35
f 40/40/40 39/39/39 38/38/38
f 43/43/43 42/42/42 41/41/41
f 46/46/46 45/45/45 44/44/44
f 49/49/49 48/48/48 47/47/47
f 52/52/52 51/51/51 50/50/50
f 55/55/55 54/54/54 53/53/53
f 58/58/58 57/57/57 56/56/56
f 61/61/61 60/60/60 59/59/59
f 64/64/64 63/63/63 62/62/62
f 67/67/67 66/66/66 65/65/65
f 70/70/70 69/69/69 68/68/68
f 71/71/71 70/70/70 68/68/68
f 74/74/74 73/73/73 72/72/72
f 75/75/75 74/74/74 72/72/72
f 78/78/78 77/77/77 76/76/76
f 79/79/79 78/78/78 76/76/76
f 82/82/82 81/81/81 80/80/80
f 83/83/83 82/82/82 80/80/80
f 86/86/86 85/85/85 84/84/84
f 87/87/87 86/86/86 84/84/84
f 90/90/90 89/89/89 88/88/88
f 89/89/89 91/91/91 88/88/88
f 89/89/89 92/92/92 91/91/91
f 92/92/92 93/93/93 91/91/91
f 96/96/96 95/95/95 94/94/94
f 97/97/97 96/96/96 94/94/94
f 100/100/100 99/99/99 98/98/98
f 101/101/101 100/100/100 98/98/98
f 104/104/104 103/103/103 102/102/102
f 105/105/105 104/104/104 102/102/102
f 108/108/108 107/107/107 106/106/106
f 109/109/109 108/108/108 106/106/106
f 112/112/112 111/111/111 110/110/110
f 113/113/113 112/112/112 110/110/110
f 116/116/116 115/115/115 114/114/114
f 117/117/117 116/116/116 114/114/114
f 120/120/120 119/119/119 118/118/118
f 121/121/121 120/120/120 118/118/118
f 124/124/124 123/123/123 122/122/122
f 125/125/125 124/124/124 122/122/122
f 128/128/128 127/127/127 126/126/126
f 129/129/129 128/128/128 126/126/126
f 132/132/132 131/131/131 130/130/130
f 133/133/133 132/132/132 130/130/130
f 136/136/136 135/135/135 134/134/134
f 137/137/137 136/136/136 134/134/134
f 140/140/140 139/139/139 138/138/138
f 141/141/141 140/140/140 138/138/138
f 144/144/144 143/143/143 142/142/142
f 142/142/142 143/143/143 145/145/145
