g mesh_key
v 0.09750511 0.4510672 0.3314961
v -0.09750511 0.4510672 0.3314961
v -0.09750511 0.5000055 0.4821126
v 0.09750511 0.5000055 0.4821126
v -0.09750511 0.5000055 0.5612963
v 0.09750511 0.5000055 0.5612963
v 0.07309992 0.5000055 0.623091
v -0.07309992 0.5000055 0.623091
v 0 0.5000055 0.6489793
v 0.09750511 0.3579813 0.2033745
v -0.09750511 0.4510672 0.3314961
v 0.09750511 0.4510672 0.3314961
v -0.09750511 0.3579813 0.2033745
v 0.09750511 0.2298593 0.1102883
v -0.09750511 0.2298593 0.1102883
v 0.09750511 0.07924301 0.06135027
v -0.09750511 0.07924301 0.06135027
v 0.09750511 -0.07912429 0.06135027
v -0.09750511 -0.07912429 0.06135027
v 0.09750511 -0.2297406 0.1102883
v -0.09750511 -0.2297406 0.1102883
v 0.09750511 -0.3578625 0.2033745
v -0.09750511 -0.3578625 0.2033745
v 0.09750511 -0.4509486 0.3314961
v -0.09750511 -0.4509486 0.3314961
v 0.09750511 -0.4998868 0.4821126
v -0.09750511 -0.4998868 0.4821126
v 0.09750511 -0.4998868 0.5612963
v -0.09750511 -0.4998868 0.5612963
v -0.07309992 -0.4998868 0.623091
v 0.07309992 -0.4998868 0.623091
v 0 -0.4998868 0.6489793
v -0.09750511 0.5000055 0.4821126
v -0.09750511 0.5347264 0.5612963
v -0.09750511 0.5000055 0.5612963
v -0.07309992 0.5000055 0.623091
v -0.09750511 0.534726 0.4766133
v -0.09750511 0.4510672 0.3314961
v -0.07309992 0.5347264 0.623091
v 0 0.5000055 0.6489793
v -0.09750511 0.4823892 0.315537
v -0.09750511 0.3579813 0.2033745
v 0 0.5347263 0.6489796
v 0.07309992 0.5000055 0.623091
v -0.09750511 0.3828384 0.1785173
v -0.09750511 0.2298593 0.1102883
v 0.07309992 0.5347264 0.623091
v 0.09750511 0.5000055 0.5612963
v -0.09750511 0.2458186 0.07896654
v -0.09750511 0.07924301 0.06135027
v -0.09750511 0.08474228 0.02662951
v -0.09750511 -0.07912429 0.06135027
v -0.09750511 -0.08462356 0.02662951
v -0.09750511 -0.2297406 0.1102883
v -0.09750511 -0.2456999 0.07896654
v -0.09750511 -0.3578625 0.2033745
v -0.09750511 -0.3827197 0.178517
v -0.09750511 -0.4509486 0.3314961
v -0.09750511 -0.4822705 0.315537
v -0.09750511 -0.4998868 0.4821126
v -0.09750511 -0.5346074 0.4766133
v -0.09750511 -0.4998868 0.5612963
v -0.07667604 0.2553928 0.06017626
v -0.07667604 0.08804122 0.00580065
v -0.07667604 -0.08792251 0.00580065
v -0.07667604 -0.255274 0.06017626
v -0.07667604 -0.3976317 0.1636052
v -0.07667604 -0.5010606 0.305963
v -0.07667604 -0.5554364 0.4733144
v -0.07667604 0.3977504 0.1636052
v -0.07667604 0.5011793 0.305963
v -0.07667604 0.5555549 0.4733144
v -0.07667603 0.5555554 0.557332
v -0.05720956 0.5555554 0.6066219
v 0.07667603 0.5555554 0.557332
v 0.07667604 0.5555549 0.4733144
v 0.07667604 0.5011793 0.305963
v 0.07667604 0.3977504 0.1636052
v 2.530775E-18 0.5555554 0.6268828
v 0.05720956 0.5555554 0.6066219
v 0.09750511 0.5347264 0.5612963
v 0.09750511 0.534726 0.4766133
v 0.09750511 0.5000055 0.4821126
v 0.09750511 0.4823892 0.315537
v 0.09750511 0.4510672 0.3314961
v 0.09750511 0.3828384 0.1785173
v 0.09750511 0.3579813 0.2033745
v 0.09750511 0.2458186 0.07896654
v 0.09750511 0.2298593 0.1102883
v 0.07667604 0.2553928 0.06017626
v 0.09750511 0.08474228 0.02662951
v 0.09750511 0.07924301 0.06135027
v 0.07667604 0.08804122 0.00580065
v 0.09750511 -0.08462356 0.02662951
v 0.09750511 -0.07912429 0.06135027
v 0.07667604 -0.08792251 0.00580065
v 0.09750511 -0.2456999 0.07896654
v 0.09750511 -0.2297406 0.1102883
v 0.07667604 -0.255274 0.06017626
v 0.09750511 -0.3827197 0.178517
v 0.09750511 -0.3578625 0.2033745
v 0.07667604 -0.3976317 0.1636052
v 0.09750511 -0.4822705 0.315537
v 0.09750511 -0.4509486 0.3314961
v 0.07667604 -0.5010606 0.305963
v 0.09750511 -0.5346074 0.4766133
v 0.09750511 -0.4998868 0.4821126
v 0.07667604 -0.5554364 0.4733144
v 0.09750511 -0.5346075 0.5612963
v 0.09750511 -0.4998868 0.5612963
v 0.07309992 -0.4998868 0.623091
v -0.07667603 -0.5554366 0.557332
v 0.07667603 -0.5554366 0.557332
v 0.07309992 -0.5346075 0.623091
v 0 -0.4998868 0.6489793
v 0.05720956 -0.5554366 0.6066219
v 0 -0.5346074 0.6489796
v -0.07309992 -0.4998868 0.623091
v -0.09750511 -0.5346075 0.5612963
v -0.07309992 -0.5346075 0.623091
v -0.05720956 -0.5554366 0.6066219
v -2.530775E-18 -0.5554366 0.6268828
vt 0.2298713 0.807628
vt 0.1610681 0.807628
vt 0.1610681 0.8950716
vt 0.2298713 0.8950716
vt 0.1610681 0.9387934
vt 0.2298713 0.9387934
vt 0.2212607 0.9729137
vt 0.1696787 0.9729137
vt 0.1954697 0.9872082
vt 0.2298713 0.7201844
vt 0.1610681 0.807628
vt 0.2298713 0.807628
vt 0.1610681 0.7201844
vt 0.2298713 0.6327407
vt 0.1610681 0.6327407
vt 0.2298713 0.5452972
vt 0.1610681 0.5452972
vt 0.2298713 0.4578537
vt 0.1610681 0.4578537
vt 0.2298713 0.3704101
vt 0.1610681 0.3704101
vt 0.2298713 0.2829664
vt 0.1610681 0.2829664
vt 0.2298713 0.195523
vt 0.1610681 0.195523
vt 0.2298713 0.1080793
vt 0.1610681 0.1080793
vt 0.2298713 0.06435752
vt 0.1610681 0.06435752
vt 0.1696787 0.03023711
vt 0.2212607 0.03023711
vt 0.1954697 0.01594272
vt 0.1473407 0.8958399
vt 0.1272448 0.9395301
vt 0.1443495 0.9456012
vt 0.1204103 0.9834993
vt 0.1297713 0.894883
vt 0.1478921 0.8071784
vt 0.1107587 0.9699013
vt 0.07252595 0.9990234
vt 0.1301695 0.8068354
vt 0.1474404 0.7190585
vt 0.07366362 0.9823067
vt 0.02673769 0.9802257
vt 0.1297006 0.718937
vt 0.1470207 0.6312799
vt 0.03774948 0.9680395
vt 0.006802551 0.9431939
vt 0.1292859 0.6312171
vt 0.1466774 0.5436096
vt 0.1289453 0.5435592
vt 0.1463745 0.4559694
vt 0.128642 0.4559217
vt 0.146114 0.368341
vt 0.1283766 0.3683019
vt 0.1459453 0.2807108
vt 0.1281931 0.280722
vt 0.1459074 0.1929759
vt 0.1281278 0.1932123
vt 0.1453242 0.1050671
vt 0.1276428 0.1056769
vt 0.142057 0.05679934
vt 0.1142101 0.631287
vt 0.1138768 0.543636
vt 0.1135735 0.4559996
vt 0.1133013 0.3683857
vt 0.1130973 0.2808448
vt 0.1129896 0.1935259
vt 0.1125475 0.1063689
vt 0.1146019 0.7189634
vt 0.115029 0.8066583
vt 0.1147279 0.8941557
vt 0.1131904 0.9347982
vt 0.1017795 0.9582508
vt 0.03697217 0.9342284
vt 0.03631706 0.8936289
vt 0.03587854 0.8064735
vt 0.03577156 0.7191554
vt 0.07438137 0.9674722
vt 0.0477161 0.9572002
vt 0.02244527 0.9381803
vt 0.02122153 0.8943194
vt 0.003539975 0.8949276
vt 0.02074018 0.8067862
vt 0.002960372 0.8070211
vt 0.02067569 0.7192777
vt 0.002923486 0.7192875
vt 0.02049221 0.631698
vt 0.002754876 0.6316577
vt 0.03556751 0.6316149
vt 0.02022681 0.5440783
vt 0.002494289 0.5440294
vt 0.03529529 0.5440011
vt 0.01992346 0.4564408
vt 0.002191331 0.4563892
vt 0.03499196 0.4563648
vt 0.01958291 0.3687829
vt 0.001848114 0.368719
vt 0.03465873 0.3687138
vt 0.01916838 0.2810633
vt 0.001428452 0.2809408
vt 0.03426705 0.2810378
vt 0.01869916 0.1931658
vt 0.0009765625 0.1928222
vt 0.03383956 0.1933439
vt 0.01909418 0.1051212
vt 0.001524731 0.1041645
vt 0.03413761 0.1058475
vt 0.021617 0.06047535
vt 0.004511965 0.05440545
vt 0.02844545 0.01650613
vt 0.1118887 0.06576855
vt 0.03567189 0.06520576
vt 0.03809904 0.03010288
vt 0.07632706 0.0009765625
vt 0.04707967 0.04175213
vt 0.07519186 0.01769342
vt 0.1221175 0.01976909
vt 0.1264151 0.06181483
vt 0.1111075 0.03195674
vt 0.1011423 0.04279747
vt 0.07447618 0.03252804
vn 0 -0.9510565 0.3090173
vn 0 -0.9510565 0.3090173
vn 0 -0.9780673 0.2082895
vn 0 -0.9780673 0.2082895
vn 0 -1 0
vn 0 -1 0
vn 0 -1 0
vn 0 -1 0
vn 0 -1 0
vn 0 -0.7071068 0.7071068
vn 0 -0.8090166 0.5877857
vn 0 -0.8090166 0.5877857
vn 0 -0.7071068 0.7071068
vn 0 -0.4539905 0.8910065
vn 0 -0.4539905 0.8910065
vn 0 -0.1564338 0.9876885
vn 0 -0.1564338 0.9876885
vn 0 0.1564338 0.9876885
vn 0 0.1564338 0.9876885
vn 0 0.4539905 0.8910065
vn 0 0.4539905 0.8910065
vn 0 0.7071065 0.707107
vn 0 0.7071065 0.707107
vn 0 0.8910064 0.4539907
vn 0 0.8910064 0.4539907
vn 0 0.9780673 0.2082888
vn 0 0.9780673 0.2082888
vn 0 1 -1.236696E-07
vn 0 1 -1.236696E-07
vn 0 1 -3.508305E-07
vn 0 1 -3.508305E-07
vn 0 1 0
vn -1 2.458406E-07 0
vn -0.9301258 0.3335178 0.1537272
vn -0.9858881 1.318848E-07 0.1674057
vn -0.6686643 -2.450679E-06 0.7435645
vn -0.9210666 0.380732 -0.08172774
vn -1 9.218989E-08 0
vn -0.6353127 0.3137065 0.7056671
vn 0 -4.396211E-06 1
vn -0.9206585 0.3478211 -0.1772237
vn -1 -5.028569E-08 0
vn 0 0.313224 0.9496793
vn 0.6686643 -2.450679E-06 0.7435645
vn -0.9206589 0.2760319 -0.2760318
vn -1 0 0
vn 0.6353127 0.3137065 0.7056671
vn 0.9858881 1.318848E-07 0.1674057
vn -0.9206588 0.1772235 -0.3478205
vn -1 0 0
vn -0.9206586 0.06106711 -0.3855624
vn -1 -5.028544E-08 0
vn -0.9206588 -0.06106711 -0.3855624
vn -1 -8.380932E-08 0
vn -0.9206589 -0.1772233 -0.3478205
vn -1 9.21907E-08 0
vn -0.9206586 -0.2760321 -0.2760323
vn -1 5.0286E-08 0
vn -0.9206585 -0.3478211 -0.1772237
vn -1 -1.899678E-07 0
vn -0.9210665 -0.3807324 -0.08172762
vn -0.9858882 -1.507258E-07 0.1674052
vn -0.1108602 0.4511918 -0.8855145
vn -0.1108595 0.1554697 -0.9816004
vn -0.1108595 -0.1554697 -0.9816004
vn -0.1108598 -0.4511919 -0.8855146
vn -0.1108597 -0.7027484 -0.702748
vn -0.1108596 -0.8855144 -0.4511922
vn -0.1114163 -0.9713449 -0.2099414
vn -0.1108603 0.7027483 -0.7027481
vn -0.1108598 0.8855146 -0.4511919
vn -0.1114164 0.9713448 -0.2099421
vn -0.1477534 0.9887528 0.0231645
vn -0.1633935 0.9698144 0.1810046
vn 0.1477534 0.9887528 0.0231645
vn 0.1114164 0.9713448 -0.2099421
vn 0.1108598 0.8855146 -0.4511919
vn 0.1108603 0.7027483 -0.7027481
vn 0 0.8537263 0.5207219
vn 0.1633935 0.9698144 0.1810046
vn 0.9301258 0.3335178 0.1537272
vn 0.9210666 0.380732 -0.08172773
vn 1 2.458406E-07 0
vn 0.9206585 0.3478211 -0.1772237
vn 1 9.218989E-08 0
vn 0.9206589 0.2760319 -0.2760318
vn 1 -5.028569E-08 0
vn 0.9206588 0.1772235 -0.3478205
vn 1 0 0
vn 0.1108602 0.4511918 -0.8855145
vn 0.9206586 0.06106711 -0.3855624
vn 1 0 0
vn 0.1108595 0.1554697 -0.9816004
vn 0.9206588 -0.06106709 -0.3855624
vn 1 0 0
vn 0.1108595 -0.1554697 -0.9816004
vn 0.9206588 -0.1772234 -0.3478206
vn 1 -5.028555E-08 0
vn 0.1108598 -0.4511918 -0.8855146
vn 0.9206588 -0.2760321 -0.2760324
vn 1 0 0
vn 0.1108598 -0.7027484 -0.702748
vn 0.9206586 -0.347821 -0.1772237
vn 1 0 0
vn 0.1108596 -0.8855144 -0.4511922
vn 0.9210665 -0.3807324 -0.08172759
vn 1 -1.899678E-07 0
vn 0.1114163 -0.9713449 -0.2099414
vn 0.9301257 -0.3335178 0.1537275
vn 0.9858882 -1.507258E-07 0.1674052
vn 0.6686645 2.450691E-06 0.7435642
vn -0.1477535 -0.9887528 0.0231675
vn 0.1477535 -0.9887528 0.02316751
vn 0.6353126 -0.3137074 0.7056668
vn 0 4.396233E-06 1
vn 0.1633934 -0.9698142 0.1810051
vn 0 -0.313225 0.949679
vn -0.6686645 2.450691E-06 0.7435642
vn -0.9301257 -0.3335178 0.1537274
vn -0.6353126 -0.3137074 0.7056668
vn -0.1633935 -0.9698142 0.1810051
vn 0 -0.8537263 0.5207219
g mesh_key_0
f 3/3/3 2/2/2 1/1/1
f 4/4/4 3/3/3 1/1/1
f 5/5/5 3/3/3 4/4/4
f 6/6/6 5/5/5 4/4/4
f 6/6/6 7/7/7 5/5/5
f 7/7/7 8/8/8 5/5/5
f 7/7/7 9/9/9 8/8/8
f 12/12/12 11/11/11 10/10/10
f 11/11/11 13/13/13 10/10/10
f 10/10/10 13/13/13 14/14/14
f 13/13/13 15/15/15 14/14/14
f 14/14/14 15/15/15 16/16/16
f 15/15/15 17/17/17 16/16/16
f 16/16/16 17/17/17 18/18/18
f 17/17/17 19/19/19 18/18/18
f 18/18/18 19/19/19 20/20/20
f 19/19/19 21/21/21 20/20/20
f 20/20/20 21/21/21 22/22/22
f 21/21/21 23/23/23 22/22/22
f 22/22/22 23/23/23 24/24/24
f 23/23/23 25/25/25 24/24/24
f 24/24/24 25/25/25 26/26/26
f 25/25/25 27/27/27 26/26/26
f 26/26/26 27/27/27 28/28/28
f 27/27/27 29/29/29 28/28/28
f 29/29/29 30/30/30 28/28/28
f 30/30/30 31/31/31 28/28/28
f 30/30/30 32/32/32 31/31/31
f 35/35/35 34/34/34 33/33/33
f 35/35/35 36/36/36 34/34/34
f 34/34/34 37/37/37 33/33/33
f 33/33/33 37/37/37 38/38/38
f 36/36/36 39/39/39 34/34/34
f 36/36/36 40/40/40 39/39/39
f 37/37/37 41/41/41 38/38/38
f 38/38/38 41/41/41 42/42/42
f 40/40/40 43/43/43 39/39/39
f 43/43/43 40/40/40 44/44/44
f 41/41/41 45/45/45 42/42/42
f 42/42/42 45/45/45 46/46/46
f 47/47/47 43/43/43 44/44/44
f 47/47/47 44/44/44 48/48/48
f 45/45/45 49/49/49 46/46/46
f 46/46/46 49/49/49 50/50/50
f 49/49/49 51/51/51 50/50/50
f 50/50/50 51/51/51 52/52/52
f 51/51/51 53/53/53 52/52/52
f 52/52/52 53/53/53 54/54/54
f 53/53/53 55/55/55 54/54/54
f 54/54/54 55/55/55 56/56/56
f 55/55/55 57/57/57 56/56/56
f 56/56/56 57/57/57 58/58/58
f 57/57/57 59/59/59 58/58/58
f 58/58/58 59/59/59 60/60/60
f 59/59/59 61/61/61 60/60/60
f 60/60/60 61/61/61 62/62/62
f 63/63/63 49/49/49 45/45/45
f 64/64/64 51/51/51 49/49/49
f 63/63/63 64/64/64 49/49/49
f 65/65/65 53/53/53 51/51/51
f 64/64/64 65/65/65 51/51/51
f 66/66/66 55/55/55 53/53/53
f 65/65/65 66/66/66 53/53/53
f 67/67/67 57/57/57 55/55/55
f 66/66/66 67/67/67 55/55/55
f 68/68/68 59/59/59 57/57/57
f 67/67/67 68/68/68 57/57/57
f 69/69/69 61/61/61 59/59/59
f 68/68/68 69/69/69 59/59/59
f 70/70/70 63/63/63 45/45/45
f 70/70/70 45/45/45 41/41/41
f 71/71/71 70/70/70 41/41/41
f 71/71/71 41/41/41 37/37/37
f 72/72/72 71/71/71 37/37/37
f 37/37/37 34/34/34 72/72/72
f 34/34/34 73/73/73 72/72/72
f 34/34/34 39/39/39 73/73/73
f 39/39/39 74/74/74 73/73/73
f 39/39/39 43/43/43 74/74/74
f 73/73/73 75/75/75 72/72/72
f 73/73/73 74/74/74 75/75/75
f 72/72/72 76/76/76 71/71/71
f 75/75/75 76/76/76 72/72/72
f 71/71/71 77/77/77 70/70/70
f 76/76/76 77/77/77 71/71/71
f 70/70/70 78/78/78 63/63/63
f 77/77/77 78/78/78 70/70/70
f 43/43/43 79/79/79 74/74/74
f 79/79/79 43/43/43 47/47/47
f 74/74/74 79/79/79 80/80/80
f 80/80/80 79/79/79 47/47/47
f 74/74/74 80/80/80 75/75/75
f 80/80/80 47/47/47 81/81/81
f 75/75/75 80/80/80 81/81/81
f 81/81/81 47/47/47 48/48/48
f 75/75/75 81/81/81 82/82/82
f 81/81/81 48/48/48 82/82/82
f 76/76/76 75/75/75 82/82/82
f 48/48/48 83/83/83 82/82/82
f 82/82/82 84/84/84 76/76/76
f 82/82/82 83/83/83 84/84/84
f 84/84/84 77/77/77 76/76/76
f 83/83/83 85/85/85 84/84/84
f 84/84/84 86/86/86 77/77/77
f 84/84/84 85/85/85 86/86/86
f 86/86/86 78/78/78 77/77/77
f 85/85/85 87/87/87 86/86/86
f 86/86/86 87/87/87 88/88/88
f 86/86/86 88/88/88 78/78/78
f 87/87/87 89/89/89 88/88/88
f 88/88/88 90/90/90 78/78/78
f 78/78/78 90/90/90 63/63/63
f 63/63/63 90/90/90 64/64/64
f 88/88/88 89/89/89 91/91/91
f 88/88/88 91/91/91 90/90/90
f 89/89/89 92/92/92 91/91/91
f 90/90/90 93/93/93 64/64/64
f 91/91/91 93/93/93 90/90/90
f 64/64/64 93/93/93 65/65/65
f 91/91/91 92/92/92 94/94/94
f 91/91/91 94/94/94 93/93/93
f 92/92/92 95/95/95 94/94/94
f 93/93/93 96/96/96 65/65/65
f 94/94/94 96/96/96 93/93/93
f 65/65/65 96/96/96 66/66/66
f 94/94/94 95/95/95 97/97/97
f 94/94/94 97/97/97 96/96/96
f 95/95/95 98/98/98 97/97/97
f 96/96/96 99/99/99 66/66/66
f 97/97/97 99/99/99 96/96/96
f 66/66/66 99/99/99 67/67/67
f 97/97/97 98/98/98 100/100/100
f 97/97/97 100/100/100 99/99/99
f 98/98/98 101/101/101 100/100/100
f 99/99/99 102/102/102 67/67/67
f 100/100/100 102/102/102 99/99/99
f 67/67/67 102/102/102 68/68/68
f 100/100/100 101/101/101 103/103/103
f 100/100/100 103/103/103 102/102/102
f 101/101/101 104/104/104 103/103/103
f 102/102/102 105/105/105 68/68/68
f 103/103/103 105/105/105 102/102/102
f 68/68/68 105/105/105 69/69/69
f 103/103/103 104/104/104 106/106/106
f 103/103/103 106/106/106 105/105/105
f 104/104/104 107/107/107 106/106/106
f 105/105/105 108/108/108 69/69/69
f 106/106/106 108/108/108 105/105/105
f 106/106/106 107/107/107 109/109/109
f 106/106/106 109/109/109 108/108/108
f 107/107/107 110/110/110 109/109/109
f 110/110/110 111/111/111 109/109/109
f 69/69/69 108/108/108 112/112/112
f 69/69/69 112/112/112 61/61/61
f 109/109/109 113/113/113 108/108/108
f 108/108/108 113/113/113 112/112/112
f 111/111/111 114/114/114 109/109/109
f 109/109/109 114/114/114 113/113/113
f 111/111/111 115/115/115 114/114/114
f 114/114/114 116/116/116 113/113/113
f 113/113/113 116/116/116 112/112/112
f 115/115/115 117/117/117 114/114/114
f 114/114/114 117/117/117 116/116/116
f 117/117/117 115/115/115 118/118/118
f 112/112/112 119/119/119 61/61/61
f 61/61/61 119/119/119 62/62/62
f 120/120/120 118/118/118 62/62/62
f 120/120/120 117/117/117 118/118/118
f 119/119/119 120/120/120 62/62/62
f 112/112/112 121/121/121 119/119/119
f 116/116/116 121/121/121 112/112/112
f 121/121/121 120/120/120 119/119/119
f 122/122/122 117/117/117 120/120/120
f 117/117/117 122/122/122 116/116/116
f 121/121/121 122/122/122 120/120/120
f 116/116/116 122/122/122 121/121/121
