g mesh_eyes_big
v 0.1769532 0.6087961 0.3189782
v 0.182791 0.6245605 0.3552444
v 0.1806657 0.6538195 0.351682
v 0.1576599 0.5748721 0.3520962
v 0.171652 0.6049744 0.3743651
v 0.1683517 0.6424187 0.3879618
v 0.1266942 0.5775741 0.392762
v 0.1806657 0.6538195 0.351682
v 0.1595814 0.6594741 0.3127888
v 0.1665213 0.6756117 0.3657647
v 0.1806657 0.6538195 0.351682
v 0.1448901 0.6972195 0.3371944
v 0.1537739 0.6065345 0.3978435
v 0.1021953 0.6153196 0.4171539
v 0.1396295 0.6283268 0.4119262
v 0.1396295 0.6283268 0.4119262
v 0.09851431 0.6659974 0.4109835
v 0.1375042 0.6575858 0.4083637
v 0.1396295 0.6283268 0.4119262
v 0.1178075 0.6999215 0.3778655
v 0.1486432 0.6771718 0.389243
v -0.1778109 0.6087957 0.3191831
v -0.1815235 0.653819 0.3518869
v -0.1836487 0.6245602 0.3554493
v -0.1585177 0.5748717 0.3523011
v -0.1725097 0.604974 0.37457
v -0.1692094 0.6424184 0.3881668
v -0.1275519 0.5775738 0.3929669
v -0.1815235 0.653819 0.3518869
v -0.1604392 0.6594736 0.3130318
v -0.167379 0.6756114 0.3659696
v -0.1815235 0.653819 0.3518869
v -0.1457478 0.6972191 0.3374101
v -0.1546317 0.6065341 0.3980484
v -0.103053 0.6153191 0.4173588
v -0.1404872 0.6283264 0.4121311
v -0.1404872 0.6283264 0.4121311
v -0.09937205 0.665997 0.4111884
v -0.138362 0.6575854 0.4085686
v -0.1404872 0.6283264 0.4121311
v -0.1186653 0.6999211 0.3780704
v -0.149501 0.6771714 0.389448
vt 0.9814597 0.3864016
vt 0.9303104 0.4075883
vt 0.9303104 0.4138719
vt 0.947054 0.3519959
vt 0.9258673 0.4031451
vt 0.9227254 0.4107301
vt 0.8983969 0.3519959
vt 0.9303104 0.4138719
vt 0.9814597 0.4350587
vt 0.9258673 0.418315
vt 0.9303104 0.4138719
vt 0.947054 0.4694644
vt 0.9195836 0.4031451
vt 0.8639911 0.3864017
vt 0.9151405 0.4075883
vt 0.9151405 0.4075883
vt 0.8639912 0.4350586
vt 0.9151405 0.4138719
vt 0.9151405 0.4075883
vt 0.8983969 0.4694645
vt 0.9195837 0.418315
vt 0.9814597 0.3864016
vt 0.9303104 0.4138719
vt 0.9303104 0.4075883
vt 0.947054 0.3519959
vt 0.9258673 0.4031451
vt 0.9227254 0.4107301
vt 0.8983969 0.3519959
vt 0.9303104 0.4138719
vt 0.9814597 0.4350587
vt 0.9258673 0.418315
vt 0.9303104 0.4138719
vt 0.947054 0.4694644
vt 0.9195836 0.4031451
vt 0.8639911 0.3864017
vt 0.9151405 0.4075883
vt 0.9151405 0.4075883
vt 0.8639912 0.4350586
vt 0.9151405 0.4138719
vt 0.9151405 0.4075883
vt 0.8983969 0.4694645
vt 0.9195837 0.418315
vn 0.9764198 -0.1286271 -0.173377
vn 0.9920089 -0.1096517 -0.06240866
vn 0.9156353 0.3490986 -0.1993547
vn 0.7714135 -0.5691277 0.2846311
vn 0.8019191 -0.4928376 0.3376933
vn 0.7929867 0.1300663 0.5951932
vn 0.4440008 -0.540557 0.7146057
vn 0.9156353 0.3490986 -0.1993547
vn 0.8659434 0.3867466 -0.3171264
vn 0.7291115 0.6788524 0.08692424
vn 0.9156353 0.3490986 -0.1993547
vn 0.6804292 0.7328093 -0.002564914
vn 0.508058 -0.4671946 0.7236064
vn 0.1849638 -0.1414595 0.9725109
vn 0.2755658 -0.1089941 0.9550831
vn 0.2755658 -0.1089941 0.9550831
vn 0.1460434 0.3943766 0.9072698
vn 0.2406332 0.3719333 0.8965273
vn 0.2755658 -0.1089941 0.9550831
vn 0.353962 0.7650044 0.5380328
vn 0.4250024 0.702494 0.5708548
vn -0.9764073 -0.1287263 -0.1733734
vn -0.9156141 0.349101 -0.1994477
vn -0.9920071 -0.1096584 -0.06242435
vn -0.7714139 -0.5691277 0.2846299
vn -0.8019196 -0.4928375 0.3376923
vn -0.7929866 0.1300662 0.5951933
vn -0.4440011 -0.5405576 0.7146051
vn -0.9156141 0.349101 -0.1994477
vn -0.8658634 0.3867832 -0.3173001
vn -0.729112 0.6788509 0.08693221
vn -0.9156141 0.349101 -0.1994477
vn -0.6803365 0.7328957 -0.002465028
vn -0.5080585 -0.4671952 0.7236057
vn -0.1849649 -0.1414596 0.9725107
vn -0.2755664 -0.1089941 0.955083
vn -0.2755664 -0.1089941 0.955083
vn -0.146043 0.3943769 0.9072698
vn -0.2406331 0.3719341 0.8965271
vn -0.2755664 -0.1089941 0.955083
vn -0.3539386 0.7649755 0.5380892
vn -0.4249927 0.702468 0.5708938
g mesh_eyes_big_0
f 3/3/3 2/2/2 1/1/1
f 1/1/1 2/2/2 4/4/4
f 2/2/2 5/5/5 4/4/4
f 2/2/2 6/6/6 5/5/5
f 4/4/4 5/5/5 7/7/7
f 8/8/8 6/6/6 2/2/2
f 9/9/9 8/8/8 1/1/1
f 10/10/10 6/6/6 8/8/8
f 10/10/10 11/11/11 9/9/9
f 12/12/12 10/10/10 9/9/9
f 5/5/5 13/13/13 7/7/7
f 5/5/5 6/6/6 13/13/13
f 7/7/7 13/13/13 14/14/14
f 13/13/13 15/15/15 14/14/14
f 13/13/13 6/6/6 16/16/16
f 14/14/14 16/16/16 17/17/17
f 16/16/16 6/6/6 18/18/18
f 19/19/19 18/18/18 17/17/17
f 17/17/17 18/18/18 20/20/20
f 21/21/21 10/10/10 12/12/12
f 21/21/21 6/6/6 10/10/10
f 20/20/20 21/21/21 12/12/12
f 18/18/18 21/21/21 20/20/20
f 18/18/18 6/6/6 21/21/21
f 24/24/24 23/23/23 22/22/22
f 24/24/24 22/22/22 25/25/25
f 26/26/26 24/24/24 25/25/25
f 27/27/27 24/24/24 26/26/26
f 26/26/26 25/25/25 28/28/28
f 27/27/27 29/29/29 24/24/24
f 29/29/29 30/30/30 22/22/22
f 27/27/27 31/31/31 29/29/29
f 32/32/32 31/31/31 30/30/30
f 31/31/31 33/33/33 30/30/30
f 34/34/34 26/26/26 28/28/28
f 27/27/27 26/26/26 34/34/34
f 34/34/34 28/28/28 35/35/35
f 36/36/36 34/34/34 35/35/35
f 27/27/27 34/34/34 37/37/37
f 37/37/37 35/35/35 38/38/38
f 27/27/27 37/37/37 39/39/39
f 39/39/39 40/40/40 38/38/38
f 39/39/39 38/38/38 41/41/41
f 42/42/42 41/41/41 33/33/33
f 31/31/31 42/42/42 33/33/33
f 27/27/27 42/42/42 31/31/31
f 42/42/42 39/39/39 41/41/41
f 27/27/27 39/39/39 42/42/42
