g mesh_eyes
v 0.1663884 0.6127802 0.3385696
v 0.1702556 0.6232231 0.3625936
v 0.1688478 0.6426052 0.3602338
v 0.1606905 0.635053 0.3842668
v 0.16395 0.646351 0.3344821
v 0.1536079 0.5903077 0.3605081
v 0.159478 0.6570412 0.3695626
v 0.1477211 0.6713549 0.3506402
v 0.1628768 0.6102485 0.3752598
v 0.1330951 0.5920976 0.3874466
v 0.1476349 0.6580746 0.3851155
v 0.1272083 0.6731449 0.3775786
v 0.1510337 0.6112819 0.3908128
v 0.1168662 0.6171015 0.4036047
v 0.1402561 0.6451002 0.3977817
v 0.1144277 0.6506723 0.3995172
v 0.1416639 0.625718 0.4001417
v -0.1663884 0.6127802 0.3385696
v -0.16395 0.646351 0.3344821
v -0.1688478 0.6426052 0.3602338
v -0.1702556 0.6232231 0.3625936
v -0.1606905 0.635053 0.3842668
v -0.1536079 0.5903077 0.3605081
v -0.159478 0.6570412 0.3695626
v -0.1477211 0.6713549 0.3506402
v -0.1628768 0.6102485 0.3752598
v -0.1330951 0.5920976 0.3874466
v -0.1476349 0.6580746 0.3851155
v -0.1272083 0.6731449 0.3775786
v -0.1510337 0.6112819 0.3908128
v -0.1168662 0.6171015 0.4036047
v -0.1402561 0.6451002 0.3977817
v -0.1144277 0.6506723 0.3995172
v -0.1416639 0.625718 0.4001417
vt 0.9814597 0.3864016
vt 0.9566357 0.3966841
vt 0.9566357 0.4247762
vt 0.9227254 0.4107301
vt 0.9814597 0.4350587
vt 0.947054 0.3519959
vt 0.9367715 0.4446403
vt 0.947054 0.4694644
vt 0.9367716 0.3768198
vt 0.8983969 0.3519959
vt 0.9086794 0.4446403
vt 0.8983969 0.4694645
vt 0.9086794 0.3768198
vt 0.8639911 0.3864017
vt 0.8888153 0.4247763
vt 0.8639912 0.4350586
vt 0.8888152 0.396684
vt 0.9814597 0.3864016
vt 0.9814597 0.4350587
vt 0.9566357 0.4247762
vt 0.9566357 0.3966841
vt 0.9227254 0.4107301
vt 0.947054 0.3519959
vt 0.9367715 0.4446403
vt 0.947054 0.4694644
vt 0.9367716 0.3768198
vt 0.8983969 0.3519959
vt 0.9086794 0.4446403
vt 0.8983969 0.4694645
vt 0.9086794 0.3768198
vt 0.8639911 0.3864017
vt 0.8888153 0.4247763
vt 0.8639912 0.4350586
vt 0.8888152 0.396684
vn 0.9754084 -0.2104351 -0.06553876
vn 0.9850101 -0.1709014 0.02340656
vn 0.9500779 0.3100266 -0.03514931
vn 0.7929863 0.1300663 0.5951937
vn 0.9364879 0.3254028 -0.1307801
vn 0.7714136 -0.5691274 0.2846313
vn 0.7175858 0.6682259 0.1963282
vn 0.6774516 0.7244987 0.1271262
vn 0.8019194 -0.4928372 0.3376932
vn 0.4440017 -0.5405572 0.714605
vn 0.4237244 0.6938682 0.5822408
vn 0.3500394 0.7530687 0.5570998
vn 0.5080585 -0.4671947 0.723606
vn 0.1849654 -0.1414599 0.9725106
vn 0.2406339 0.3719339 0.8965269
vn 0.1460444 0.3943768 0.9072695
vn 0.2755663 -0.1089946 0.955083
vn -0.9754084 -0.2104352 -0.06553891
vn -0.9364878 0.3254029 -0.1307805
vn -0.9500779 0.3100268 -0.03514972
vn -0.9850101 -0.1709015 0.02340633
vn -0.7929866 0.1300663 0.5951933
vn -0.7714136 -0.5691276 0.2846314
vn -0.7175859 0.6682259 0.1963279
vn -0.6774517 0.7244986 0.1271258
vn -0.8019194 -0.4928373 0.3376931
vn -0.4440016 -0.5405571 0.7146051
vn -0.4237248 0.6938682 0.5822408
vn -0.3500395 0.7530687 0.5570997
vn -0.5080585 -0.4671946 0.723606
vn -0.1849657 -0.1414598 0.9725106
vn -0.2406342 0.3719338 0.8965268
vn -0.1460446 0.3943766 0.9072695
vn -0.2755666 -0.1089946 0.9550828
g mesh_eyes_0
f 3/3/3 2/2/2 1/1/1
f 3/3/3 4/4/4 2/2/2
f 5/5/5 3/3/3 1/1/1
f 1/1/1 2/2/2 6/6/6
f 7/7/7 3/3/3 5/5/5
f 7/7/7 4/4/4 3/3/3
f 8/8/8 7/7/7 5/5/5
f 2/2/2 9/9/9 6/6/6
f 2/2/2 4/4/4 9/9/9
f 6/6/6 9/9/9 10/10/10
f 11/11/11 7/7/7 8/8/8
f 11/11/11 4/4/4 7/7/7
f 12/12/12 11/11/11 8/8/8
f 9/9/9 13/13/13 10/10/10
f 9/9/9 4/4/4 13/13/13
f 10/10/10 13/13/13 14/14/14
f 15/15/15 11/11/11 12/12/12
f 15/15/15 4/4/4 11/11/11
f 16/16/16 15/15/15 12/12/12
f 14/14/14 17/17/17 16/16/16
f 13/13/13 17/17/17 14/14/14
f 13/13/13 4/4/4 17/17/17
f 17/17/17 15/15/15 16/16/16
f 17/17/17 4/4/4 15/15/15
f 20/20/20 19/19/19 18/18/18
f 21/21/21 20/20/20 18/18/18
f 22/22/22 20/20/20 21/21/21
f 21/21/21 18/18/18 23/23/23
f 20/20/20 24/24/24 19/19/19
f 22/22/22 24/24/24 20/20/20
f 24/24/24 25/25/25 19/19/19
f 26/26/26 21/21/21 23/23/23
f 22/22/22 21/21/21 26/26/26
f 26/26/26 23/23/23 27/27/27
f 24/24/24 28/28/28 25/25/25
f 22/22/22 28/28/28 24/24/24
f 28/28/28 29/29/29 25/25/25
f 30/30/30 26/26/26 27/27/27
f 22/22/22 26/26/26 30/30/30
f 30/30/30 27/27/27 31/31/31
f 28/28/28 32/32/32 29/29/29
f 22/22/22 32/32/32 28/28/28
f 32/32/32 33/33/33 29/29/29
f 34/34/34 31/31/31 33/33/33
f 34/34/34 30/30/30 31/31/31
f 22/22/22 30/30/30 34/34/34
f 32/32/32 34/34/34 33/33/33
f 22/22/22 34/34/34 32/32/32
