g plortCollector_funnel
v 0.2494714 1.525879E-07 0
v 0.3443309 0.1138145 0.6291126
v 0.2372612 0.07709106 0
v 0.3620507 0.002370873 0.6291131
v 0.2372612 -0.07709084 0
v 0.6239008 0.2316403 1.366541
v 0.3443307 -0.109073 0.629113
v 0.2018265 -0.1466355 0
v 0.6560076 0.08169141 1.366541
v 1.248472 0.4962886 2.254335
v 1.31272 0.2771636 2.254334
v 0.6239003 -0.06825714 1.366541
v 1.248471 0.05803856 2.254333
v 0.2929051 -0.2096075 0.6291131
v 0.1466355 -0.2018265 0
v 0.5307214 -0.2035276 1.36654
v 1.062013 -0.1396365 2.254333
v 0.212808 -0.2893921 0.6291131
v 0.07709093 -0.2372617 0
v 0.3855916 -0.3108803 1.36654
v 0.7715977 -0.2965137 2.254333
v 0.1118797 -0.3406169 0.629113
v -9.332599E-08 -0.2494714 0
v 0.2027175 -0.3798041 1.36654
v 0.4056529 -0.3972357 2.254333
v -8.379746E-08 -0.3582679 0.6291129
v -0.07709108 -0.2372617 0
v -5.891735E-08 -0.4035532 1.36654
v -3.334101E-09 -0.4319406 2.254333
v -0.1118799 -0.340617 0.629113
v -0.1466357 -0.2018265 0
v -0.2027177 -0.3798041 1.36654
v -0.4056529 -0.397236 2.254334
v -0.2128081 -0.2893922 0.6291131
v -0.2018267 -0.1466356 0
v -0.3855918 -0.3108803 1.36654
v -0.7715977 -0.296514 2.254334
v -0.2929053 -0.2096075 0.6291131
v -0.2372614 -0.07709084 0
v -0.5307215 -0.2035276 1.36654
v -1.062013 -0.1396365 2.254333
v -0.3443308 -0.109073 0.629113
v -0.2494716 1.525879E-07 0
v -0.6239005 -0.06825714 1.366541
v -1.248471 0.05803856 2.254333
v -0.3620509 0.002370873 0.6291131
v -0.2372614 0.07709106 0
v -0.6560079 0.08169141 1.366541
v -1.312721 0.2771636 2.254334
v -0.3443308 0.1138144 0.6291126
v -0.2018267 0.1466357 0
v -0.6239005 0.2316402 1.366541
v -1.248471 0.4962886 2.254335
v -0.2929054 0.2143491 0.6291126
v -0.1466357 0.2018267 0
v -0.5307215 0.3669109 1.366541
v -1.062013 0.6939633 2.254333
v -0.2128083 0.2941332 0.6291139
v -0.07709112 0.237262 0
v -0.3855919 0.4742624 1.366541
v -0.7715979 0.8508394 2.254333
v -0.11188 0.3453588 0.6291131
v -8.589119E-08 0.2494717 0
v -0.2027177 0.5431863 1.366541
v -0.405653 0.9515601 2.254333
v -7.300752E-08 0.36301 0.6291134
v 0.07709093 0.237262 0
v -3.93668E-08 0.5669358 1.366541
v 3.578799E-08 0.9862661 2.254332
v 0.1118798 0.3453589 0.6291132
v 0.1466357 0.2018267 0
v 0.2027176 0.5431863 1.366541
v 0.4056531 0.9515603 2.254333
v 0.2128083 0.2941333 0.629114
v 0.2018265 0.1466357 0
v 0.3855919 0.4742625 1.366541
v 0.771598 0.8508394 2.254333
v 0.2929052 0.2143491 0.6291127
v 0.2372612 0.07709106 0
v 0.3443309 0.1138145 0.6291126
v 0.5307217 0.3669109 1.36654
v 1.062014 0.6939635 2.254333
v 0.6239008 0.2316403 1.366541
v 1.248472 0.4962886 2.254335
vt 0.9493519 0.005147249
vt 1 0.3353624
vt 1 0.005147249
vt 0.9493519 0.3353624
vt 0.8994239 0.005147249
vt 1 0.6655775
vt 0.8994239 0.3353624
vt 0.8494959 0.005147249
vt 0.9493519 0.6655775
vt 1 0.9957926
vt 0.9493519 0.9957926
vt 0.8994239 0.6655775
vt 0.8994239 0.9957926
vt 0.8494959 0.3353624
vt 0.7995679 0.005147249
vt 0.8494959 0.6655775
vt 0.8494959 0.9957926
vt 0.7995679 0.3353624
vt 0.7496399 0.005147249
vt 0.7995679 0.6655775
vt 0.7995679 0.9957926
vt 0.7496399 0.3353624
vt 0.6997119 0.005147249
vt 0.7496399 0.6655775
vt 0.7496399 0.9957926
vt 0.6997119 0.3353624
vt 0.6497838 0.005147249
vt 0.6997119 0.6655775
vt 0.6997119 0.9957926
vt 0.6497838 0.3353624
vt 0.5998559 0.005147249
vt 0.6497838 0.6655775
vt 0.6497838 0.9957926
vt 0.5998559 0.3353624
vt 0.5499279 0.005147249
vt 0.5998559 0.6655775
vt 0.5998559 0.9957926
vt 0.5499279 0.3353624
vt 0.4999999 0.005147249
vt 0.5499279 0.6655775
vt 0.5499279 0.9957926
vt 0.4999999 0.3353624
vt 0.4500719 0.005147249
vt 0.4999999 0.6655775
vt 0.4999999 0.9957926
vt 0.4500719 0.3353624
vt 0.4001439 0.005147249
vt 0.4500719 0.6655775
vt 0.4500719 0.9957926
vt 0.4001439 0.3353624
vt 0.3502159 0.005147249
vt 0.4001439 0.6655775
vt 0.4001439 0.9957926
vt 0.3502159 0.3353624
vt 0.3002879 0.005147249
vt 0.3502159 0.6655775
vt 0.3502159 0.9957926
vt 0.3002879 0.3353624
vt 0.2503599 0.005147249
vt 0.3002879 0.6655775
vt 0.3002879 0.9957926
vt 0.2503599 0.3353624
vt 0.2004319 0.005147249
vt 0.2503599 0.6655775
vt 0.2503599 0.9957926
vt 0.2004319 0.3353624
vt 0.1505039 0.005147249
vt 0.2004319 0.6655775
vt 0.2004319 0.9957926
vt 0.1505039 0.3353624
vt 0.1005759 0.005147249
vt 0.1505039 0.6655775
vt 0.1505039 0.9957926
vt 0.1005759 0.3353624
vt 0.05064785 0.005147249
vt 0.1005759 0.6655775
vt 0.1005759 0.9957926
vt 0.05064785 0.3353624
vt 0 0.005147249
vt 0 0.3353624
vt 0.05064785 0.6655775
vt 0.05064785 0.9957926
vt 0 0.6655775
vt 0 0.9957926
vn 0.9843709 -0.00035894 -0.1761072
vn 0.8935192 0.3257337 -0.309065
vn 0.935915 0.3045086 -0.1770242
vn 0.9540737 -0.006817129 -0.2994945
vn 0.9360824 -0.3052801 -0.1747964
vn 0.7570429 0.368177 -0.5397516
vn 0.9022532 -0.3425133 -0.2619614
vn 0.7959112 -0.5800865 -0.1732772
vn 0.8524881 -0.01129989 -0.5226246
vn 0.7072672 0.3686301 -0.6032287
vn 0.8040537 0.02551014 -0.5940093
vn 0.807263 -0.4146495 -0.4199908
vn 0.7867609 -0.3621888 -0.4998266
vn 0.7488636 -0.6296422 -0.2067702
vn 0.5779132 -0.7978004 -0.1718453
vn 0.6377496 -0.7200158 -0.2735923
vn 0.6390497 -0.6918689 -0.336055
vn 0.5266718 -0.8363162 -0.1522894
vn 0.3036743 -0.9373377 -0.1708214
vn 0.42163 -0.8946536 -0.1477261
vn 0.4245013 -0.8881981 -0.1757915
vn 0.2696493 -0.9561619 -0.1142093
vn 1.82093E-07 -0.9853665 -0.1704496
vn 0.2065163 -0.9758922 -0.07060637
vn 0.2067915 -0.9757547 -0.07169494
vn 1.517521E-07 -0.9949101 -0.100767
vn -0.3036741 -0.9373378 -0.1708214
vn 1.960103E-07 -0.9989738 -0.04529009
vn 2.124527E-07 -0.9993241 -0.03676165
vn -0.2696491 -0.9561619 -0.1142093
vn -0.577913 -0.7978005 -0.1718454
vn -0.2065161 -0.9758924 -0.07060647
vn -0.2067913 -0.9757547 -0.07169513
vn -0.5266718 -0.8363162 -0.1522894
vn -0.7959114 -0.5800862 -0.1732771
vn -0.4216301 -0.8946536 -0.1477263
vn -0.4245014 -0.8881981 -0.1757917
vn -0.7488639 -0.629642 -0.2067702
vn -0.9360825 -0.30528 -0.1747962
vn -0.6377496 -0.7200158 -0.2735922
vn -0.6390495 -0.6918691 -0.3360548
vn -0.9022532 -0.3425135 -0.2619613
vn -0.9843709 -0.000358536 -0.176107
vn -0.8072628 -0.4146499 -0.4199907
vn -0.7867608 -0.3621891 -0.4998266
vn -0.9540736 -0.006816256 -0.2994946
vn -0.9359151 0.3045086 -0.1770239
vn -0.8524878 -0.0112985 -0.5226249
vn -0.8040533 0.02551174 -0.5940095
vn -0.893519 0.3257341 -0.3090647
vn -0.795642 0.5791746 -0.1775124
vn -0.7570425 0.3681783 -0.5397514
vn -0.7072665 0.3686317 -0.6032286
vn -0.7378745 0.6072586 -0.2945817
vn -0.5776471 0.7967163 -0.177671
vn -0.5836868 0.6412026 -0.4981657
vn -0.5464157 0.6248404 -0.5576778
vn -0.5188962 0.8112068 -0.2696111
vn -0.3035135 0.9361163 -0.1776671
vn -0.3880804 0.8081672 -0.4430119
vn -0.3638185 0.7884181 -0.4960172
vn -0.266168 0.9313638 -0.2484272
vn -1.580258E-07 0.9840943 -0.1776467
vn -0.1923644 0.8951803 -0.4020551
vn -0.1803948 0.8755233 -0.4482375
vn -1.620618E-07 0.9706871 -0.2403468
vn 0.3035131 0.9361165 -0.1776672
vn -2.145865E-07 0.9219332 -0.3873489
vn -2.559104E-07 0.9025273 -0.4306327
vn 0.2661677 0.9313639 -0.2484272
vn 0.5776473 0.7967162 -0.1776711
vn 0.1923643 0.8951803 -0.4020552
vn 0.1803948 0.8755231 -0.4482377
vn 0.518896 0.8112068 -0.2696112
vn 0.7956421 0.5791743 -0.1775125
vn 0.3880801 0.8081672 -0.443012
vn 0.3638182 0.7884181 -0.4960173
vn 0.7378742 0.6072586 -0.2945819
vn 0.935915 0.3045086 -0.1770242
vn 0.8935192 0.3257337 -0.309065
vn 0.5836865 0.6412026 -0.4981658
vn 0.5464156 0.6248402 -0.5576779
vn 0.7570429 0.368177 -0.5397516
vn 0.7072672 0.3686301 -0.6032287
g plortCollector_funnel_0
f 3/3/3 2/2/2 1/1/1
f 2/2/2 4/4/4 1/1/1
f 1/1/1 4/4/4 5/5/5
f 2/2/2 6/6/6 4/4/4
f 4/4/4 7/7/7 5/5/5
f 5/5/5 7/7/7 8/8/8
f 6/6/6 9/9/9 4/4/4
f 4/4/4 9/9/9 7/7/7
f 6/6/6 10/10/10 9/9/9
f 10/10/10 11/11/11 9/9/9
f 9/9/9 11/11/11 12/12/12
f 9/9/9 12/12/12 7/7/7
f 11/11/11 13/13/13 12/12/12
f 7/7/7 14/14/14 8/8/8
f 7/7/7 12/12/12 14/14/14
f 8/8/8 14/14/14 15/15/15
f 12/12/12 13/13/13 16/16/16
f 12/12/12 16/16/16 14/14/14
f 13/13/13 17/17/17 16/16/16
f 14/14/14 18/18/18 15/15/15
f 14/14/14 16/16/16 18/18/18
f 15/15/15 18/18/18 19/19/19
f 16/16/16 17/17/17 20/20/20
f 16/16/16 20/20/20 18/18/18
f 17/17/17 21/21/21 20/20/20
f 18/18/18 22/22/22 19/19/19
f 18/18/18 20/20/20 22/22/22
f 19/19/19 22/22/22 23/23/23
f 20/20/20 21/21/21 24/24/24
f 20/20/20 24/24/24 22/22/22
f 21/21/21 25/25/25 24/24/24
f 22/22/22 26/26/26 23/23/23
f 22/22/22 24/24/24 26/26/26
f 23/23/23 26/26/26 27/27/27
f 24/24/24 25/25/25 28/28/28
f 24/24/24 28/28/28 26/26/26
f 25/25/25 29/29/29 28/28/28
f 26/26/26 30/30/30 27/27/27
f 26/26/26 28/28/28 30/30/30
f 27/27/27 30/30/30 31/31/31
f 28/28/28 29/29/29 32/32/32
f 28/28/28 32/32/32 30/30/30
f 29/29/29 33/33/33 32/32/32
f 30/30/30 34/34/34 31/31/31
f 30/30/30 32/32/32 34/34/34
f 31/31/31 34/34/34 35/35/35
f 32/32/32 33/33/33 36/36/36
f 32/32/32 36/36/36 34/34/34
f 33/33/33 37/37/37 36/36/36
f 34/34/34 38/38/38 35/35/35
f 34/34/34 36/36/36 38/38/38
f 35/35/35 38/38/38 39/39/39
f 36/36/36 37/37/37 40/40/40
f 36/36/36 40/40/40 38/38/38
f 37/37/37 41/41/41 40/40/40
f 38/38/38 42/42/42 39/39/39
f 38/38/38 40/40/40 42/42/42
f 39/39/39 42/42/42 43/43/43
f 40/40/40 41/41/41 44/44/44
f 40/40/40 44/44/44 42/42/42
f 41/41/41 45/45/45 44/44/44
f 42/42/42 46/46/46 43/43/43
f 42/42/42 44/44/44 46/46/46
f 43/43/43 46/46/46 47/47/47
f 44/44/44 45/45/45 48/48/48
f 44/44/44 48/48/48 46/46/46
f 45/45/45 49/49/49 48/48/48
f 46/46/46 50/50/50 47/47/47
f 46/46/46 48/48/48 50/50/50
f 47/47/47 50/50/50 51/51/51
f 48/48/48 49/49/49 52/52/52
f 48/48/48 52/52/52 50/50/50
f 49/49/49 53/53/53 52/52/52
f 50/50/50 54/54/54 51/51/51
f 50/50/50 52/52/52 54/54/54
f 51/51/51 54/54/54 55/55/55
f 52/52/52 53/53/53 56/56/56
f 52/52/52 56/56/56 54/54/54
f 53/53/53 57/57/57 56/56/56
f 54/54/54 58/58/58 55/55/55
f 54/54/54 56/56/56 58/58/58
f 55/55/55 58/58/58 59/59/59
f 56/56/56 57/57/57 60/60/60
f 56/56/56 60/60/60 58/58/58
f 57/57/57 61/61/61 60/60/60
f 58/58/58 62/62/62 59/59/59
f 58/58/58 60/60/60 62/62/62
f 59/59/59 62/62/62 63/63/63
f 60/60/60 61/61/61 64/64/64
f 60/60/60 64/64/64 62/62/62
f 61/61/61 65/65/65 64/64/64
f 62/62/62 66/66/66 63/63/63
f 62/62/62 64/64/64 66/66/66
f 63/63/63 66/66/66 67/67/67
f 64/64/64 65/65/65 68/68/68
f 64/64/64 68/68/68 66/66/66
f 65/65/65 69/69/69 68/68/68
f 66/66/66 70/70/70 67/67/67
f 66/66/66 68/68/68 70/70/70
f 67/67/67 70/70/70 71/71/71
f 68/68/68 69/69/69 72/72/72
f 68/68/68 72/72/72 70/70/70
f 69/69/69 73/73/73 72/72/72
f 70/70/70 74/74/74 71/71/71
f 70/70/70 72/72/72 74/74/74
f 71/71/71 74/74/74 75/75/75
f 72/72/72 73/73/73 76/76/76
f 72/72/72 76/76/76 74/74/74
f 73/73/73 77/77/77 76/76/76
f 74/74/74 78/78/78 75/75/75
f 74/74/74 76/76/76 78/78/78
f 75/75/75 78/78/78 79/79/79
f 78/78/78 80/80/80 79/79/79
f 76/76/76 77/77/77 81/81/81
f 76/76/76 81/81/81 78/78/78
f 78/78/78 81/81/81 80/80/80
f 77/77/77 82/82/82 81/81/81
f 81/81/81 83/83/83 80/80/80
f 81/81/81 82/82/82 83/83/83
f 82/82/82 84/84/84 83/83/83
