g slimehoop_COL
v -0.3733091 0.3687066 -0.3830592
v 0.01385501 0.3687066 -3.815377E-17
v 0.01385501 0.6190207 -0.8955812
v -0.1843975 1.619605 -0.3830593
v 0.01385501 0.6190207 -0.8955812
v 0.01385536 2.152061 -0.8955812
v -0.1843975 1.619605 -0.3830593
v 0.01385536 2.152061 -0.8955812
v 0.01385536 2.45559 -3.815377E-17
v -0.1843975 1.619605 0.3830593
v 0.01385536 2.152061 0.8955812
v 0.01385501 0.6190207 0.8955812
v -0.1843975 1.619605 0.3830593
v 0.01385536 2.45559 -3.815377E-17
v 0.01385536 2.152061 0.8955812
v -0.3733091 0.3687066 0.3830592
v 0.01385501 0.6190207 0.8955812
v 0.01385501 0.3687066 -3.815377E-17
v -0.1843975 1.619605 -0.3830593
v -0.3733091 0.3687066 -0.3830592
v 0.01385501 0.6190207 -0.8955812
v -0.2680629 1.697484 -3.815377E-17
v -0.1843975 1.619605 -0.3830593
v 0.01385536 2.45559 -3.815377E-17
v -0.1843975 1.619605 0.3830593
v -0.2680629 1.697484 -3.815377E-17
v 0.01385536 2.45559 -3.815377E-17
v -0.3733091 0.3687066 0.3830592
v -0.1843975 1.619605 0.3830593
v 0.01385501 0.6190207 0.8955812
v -0.3733091 0.3687066 0.3830592
v 0.01385501 0.3687066 -3.815377E-17
v -0.3733091 0.3687066 -0.3830592
v -0.518943 0.5445123 -4.417422E-17
v -0.3733091 0.3687066 0.3830592
v -0.3733091 0.3687066 -0.3830592
v 0.01385536 2.152061 0.8955812
v 0.1767708 2.207069 0.9354001
v 0.1767708 0.6190207 0.9354001
v 0.01385501 0.6190207 0.8955812
v 0.01385536 2.152061 -0.8955812
v 0.1767708 2.207069 -0.9354001
v 0.1767708 2.510599 -3.815377E-17
v 0.01385536 2.45559 -3.815377E-17
v 0.01385501 0.6190207 -0.8955812
v 0.1767708 0.6190207 -0.9354001
v 0.1767708 2.207069 -0.9354001
v 0.01385536 2.152061 -0.8955812
v 0.1767708 0.4406779 -3.815377E-17
v 0.1767708 0.6190207 -0.9354001
v 0.01385501 0.6190207 -0.8955812
v 0.01385501 0.3687066 -3.815377E-17
v 0.1767708 2.510599 -3.815377E-17
v 0.1767708 2.207069 -0.9354001
v 0.1767708 0.6190207 -0.9354001
v 0.1767708 0.4406779 -3.815377E-17
v -0.3733091 0.3687066 -0.3830592
v -0.1843975 1.619605 -0.3830593
v -0.2680629 1.697484 -3.815377E-17
v -0.518943 0.5445123 -4.417422E-17
v 0.1767708 2.510599 -3.815377E-17
v 0.1767708 2.207069 0.9354001
v 0.01385536 2.152061 0.8955812
v 0.01385536 2.45559 -3.815377E-17
v 0.1767708 0.6190207 0.9354001
v 0.1767708 2.207069 0.9354001
v 0.1767708 2.510599 -3.815377E-17
v 0.1767708 0.4406779 -3.815377E-17
v 0.01385501 0.6190207 0.8955812
v 0.1767708 0.6190207 0.9354001
v 0.1767708 0.4406779 -3.815377E-17
v 0.01385501 0.3687066 -3.815377E-17
v -0.2680629 1.697484 -3.815377E-17
v -0.1843975 1.619605 0.3830593
v -0.3733091 0.3687066 0.3830592
v -0.518943 0.5445123 -4.417422E-17
vt 0.375 0.75
vt 0.5431257 0.874767
vt 0.5431257 0.75
vt 0.375 0.5
vt 0.5431257 0.75
vt 0.5431257 0.5
vt 0.375 0.5
vt 0.5431257 0.5
vt 0.5431257 0.375233
vt 0.375 0.25
vt 0.5431257 0.25
vt 0.5431257 0
vt 0.375 0.25
vt 0.5431257 0.375233
vt 0.5431257 0.25
vt 0.375 1
vt 0.5431257 1
vt 0.5431257 0.874767
vt 0.375 0.5
vt 0.375 0.75
vt 0.5431257 0.75
vt 0.375 0.375233
vt 0.375 0.5
vt 0.5431257 0.375233
vt 0.375 0.25
vt 0.375 0.375233
vt 0.5431257 0.375233
vt 0.375 0
vt 0.375 0.25
vt 0.5431257 0
vt 0.375 1
vt 0.5431257 0.874767
vt 0.375 0.75
vt 0.375 0.8747669
vt 0.375 1
vt 0.375 0.75
vt 0.5431257 0.25
vt 0.625 0.25
vt 0.625 0
vt 0.5431257 0
vt 0.5431257 0.5
vt 0.625 0.5
vt 0.625 0.375233
vt 0.5431257 0.375233
vt 0.5431257 0.75
vt 0.625 0.75
vt 0.625 0.5
vt 0.5431257 0.5
vt 0.625 0.8747669
vt 0.625 0.75
vt 0.5431257 0.75
vt 0.5431257 0.874767
vt 0.750233 0.25
vt 0.875 0.25
vt 0.875 0
vt 0.7502329 0
vt 0.125 0
vt 0.125 0.25
vt 0.249767 0.25
vt 0.249767 0
vt 0.625 0.375233
vt 0.625 0.25
vt 0.5431257 0.25
vt 0.5431257 0.375233
vt 0.625 0
vt 0.625 0.25
vt 0.750233 0.25
vt 0.7502329 0
vt 0.5431257 1
vt 0.625 1
vt 0.625 0.8747669
vt 0.5431257 0.874767
vt 0.249767 0.25
vt 0.375 0.25
vt 0.375 0
vt 0.249767 0
vn 0.2573575 -0.9306487 -0.2601153
vn 0.2573575 -0.9306487 -0.2601153
vn 0.2573574 -0.9306487 -0.2601153
vn -0.9326556 2.028586E-07 -0.3607678
vn -0.9326556 2.028586E-07 -0.3607678
vn -0.9326556 2.028586E-07 -0.3607678
vn -0.958762 0.2691706 -0.09122717
vn -0.958762 0.2691706 -0.09122717
vn -0.958762 0.2691705 -0.09122717
vn -0.9326556 2.028586E-07 0.3607678
vn -0.9326556 2.028586E-07 0.3607678
vn -0.9326556 2.028586E-07 0.3607678
vn -0.958762 0.2691706 0.09122717
vn -0.958762 0.2691705 0.09122717
vn -0.958762 0.2691706 0.09122717
vn 0.2573575 -0.9306487 0.2601153
vn 0.2573574 -0.9306487 0.2601153
vn 0.2573575 -0.9306487 0.2601153
vn -0.8199322 0.1238267 -0.558908
vn -0.8199322 0.1238267 -0.558908
vn -0.8199322 0.1238267 -0.558908
vn -0.9036057 0.3360252 -0.2656763
vn -0.9036057 0.3360252 -0.2656763
vn -0.9036057 0.3360252 -0.2656763
vn -0.9036057 0.3360252 0.2656763
vn -0.9036057 0.3360252 0.2656763
vn -0.9036057 0.3360252 0.2656763
vn -0.8199321 0.1238267 0.558908
vn -0.8199322 0.1238267 0.558908
vn -0.8199322 0.1238267 0.558908
vn 0 -1 0
vn 0 -1 0
vn 0 -1 0
vn -0.7700939 -0.6379306 0
vn -0.7700939 -0.6379305 0
vn -0.7700939 -0.6379305 0
vn -0.237425 0 0.9714059
vn -0.237425 0 0.9714059
vn -0.237425 0 0.9714059
vn -0.237425 0 0.9714059
vn -0.3378499 0.893378 -0.2961984
vn -0.3378499 0.893378 -0.2961984
vn -0.3378498 0.8933778 -0.2961984
vn -0.3378498 0.8933778 -0.2961984
vn -0.2374251 0 -0.9714058
vn -0.2374251 0 -0.9714058
vn -0.2374251 0 -0.9714058
vn -0.2374251 0 -0.9714058
vn 0.1840157 -0.9570458 -0.2240572
vn 0.1840157 -0.9570458 -0.2240572
vn 0.1840157 -0.9570458 -0.2240572
vn 0.1840157 -0.9570458 -0.2240572
vn 1 0 0
vn 1 0 0
vn 1 0 0
vn 1 0 0
vn -0.9272841 0.1696481 -0.3337119
vn -0.9272841 0.1696481 -0.333712
vn -0.9272841 0.1696481 -0.333712
vn -0.9272841 0.1696481 -0.333712
vn -0.3378498 0.8933778 0.2961984
vn -0.3378499 0.893378 0.2961984
vn -0.3378499 0.893378 0.2961984
vn -0.3378498 0.8933778 0.2961984
vn 1 0 0
vn 1 0 0
vn 1 0 0
vn 1 0 0
vn 0.1840157 -0.9570458 0.2240572
vn 0.1840157 -0.9570458 0.2240572
vn 0.1840157 -0.9570458 0.2240572
vn 0.1840157 -0.9570458 0.2240572
vn -0.9272841 0.1696481 0.333712
vn -0.9272841 0.1696481 0.333712
vn -0.9272841 0.1696481 0.3337119
vn -0.9272841 0.1696481 0.3337119
g slimehoop_COL_0
f 3/3/3 2/2/2 1/1/1
f 6/6/6 5/5/5 4/4/4
f 9/9/9 8/8/8 7/7/7
f 12/12/12 11/11/11 10/10/10
f 15/15/15 14/14/14 13/13/13
f 18/18/18 17/17/17 16/16/16
f 21/21/21 20/20/20 19/19/19
f 24/24/24 23/23/23 22/22/22
f 27/27/27 26/26/26 25/25/25
f 30/30/30 29/29/29 28/28/28
f 33/33/33 32/32/32 31/31/31
f 36/36/36 35/35/35 34/34/34
f 39/39/39 38/38/38 37/37/37
f 40/40/40 39/39/39 37/37/37
f 43/43/43 42/42/42 41/41/41
f 44/44/44 43/43/43 41/41/41
f 47/47/47 46/46/46 45/45/45
f 48/48/48 47/47/47 45/45/45
f 51/51/51 50/50/50 49/49/49
f 52/52/52 51/51/51 49/49/49
f 55/55/55 54/54/54 53/53/53
f 56/56/56 55/55/55 53/53/53
f 59/59/59 58/58/58 57/57/57
f 60/60/60 59/59/59 57/57/57
f 63/63/63 62/62/62 61/61/61
f 64/64/64 63/63/63 61/61/61
f 67/67/67 66/66/66 65/65/65
f 68/68/68 67/67/67 65/65/65
f 71/71/71 70/70/70 69/69/69
f 72/72/72 71/71/71 69/69/69
f 75/75/75 74/74/74 73/73/73
f 76/76/76 75/75/75 73/73/73
