g slimehoop1_COL
v 1.024263 0.7252098 -0.4789249
v 1.06727 0.7252098 -0.5381179
v 1.239314 0.7252098 -0.182933
v 1.3089 0.7252098 -0.2055427
v 1.239314 0.7252098 -0.182933
v 1.239314 0.7252098 0.182933
v 1.3089 0.7252098 0.2055428
v 0.6763042 0.7252098 -0.5919837
v 0.6763042 0.5823065 -0.628567
v 0.1737862 0.7252098 -0.5618501
v 0.6763042 0.5823065 -0.628567
v 0.173787 0.5823065 -0.6289866
v 0.1737862 0.7252098 -0.5618501
v 0.6763042 0.7252098 0.5919838
v 0.1737862 0.7252098 0.5534301
v 0.6763042 0.5823067 0.6285671
v 0.1737862 0.7252098 0.5534301
v 0.173787 0.5823067 0.6223267
v 0.6763042 0.5823067 0.6285671
v 0.6763042 0.7252098 -0.6651503
v 0.1737863 0.7252098 -0.696123
v 0.6763042 0.5823065 -0.628567
v 0.1737863 0.7252098 -0.696123
v 0.173787 0.5823065 -0.6289866
v 0.6763042 0.5823065 -0.628567
v 0.6763041 0.7252098 0.6651503
v 0.6763042 0.5823067 0.6285671
v 0.1737863 0.7252098 0.6912231
v 0.6763042 0.5823067 0.6285671
v 0.173787 0.5823067 0.6223267
v 0.1737863 0.7252098 0.6912231
v 1.045767 0.5823065 0.5085215
v 1.024263 0.7252098 0.4789249
v 0.6763042 0.5823067 0.6285671
v 0.6763042 0.7252098 0.5919838
v 1.274107 0.5823065 0.1942379
v 1.239314 0.7252098 0.182933
v 1.045767 0.5823065 0.5085215
v 1.024263 0.7252098 0.4789249
v 1.274107 0.5823065 -0.1942379
v 1.239314 0.7252098 -0.182933
v 1.274107 0.5823065 0.1942379
v 1.239314 0.7252098 0.182933
v 1.045767 0.5823065 -0.5085214
v 1.024263 0.7252098 -0.4789249
v 1.274107 0.5823065 -0.1942379
v 1.239314 0.7252098 -0.182933
v 0.6763042 0.5823065 -0.628567
v 0.6763042 0.7252098 -0.5919837
v 1.045767 0.5823065 -0.5085214
v 1.024263 0.7252098 -0.4789249
v 1.024263 0.7252098 0.4789249
v 1.06727 0.7252098 0.538118
v 0.6763042 0.7252098 0.5919838
v 0.6763041 0.7252098 0.6651503
v 1.239314 0.7252098 0.182933
v 1.3089 0.7252098 0.2055428
v 1.024263 0.7252098 0.4789249
v 1.06727 0.7252098 0.538118
v 0.6763042 0.7252098 -0.5919837
v 0.6763042 0.7252098 -0.6651503
v 1.024263 0.7252098 -0.4789249
v 1.06727 0.7252098 -0.5381179
v 1.06727 0.7252098 0.538118
v 1.045767 0.5823065 0.5085215
v 0.6763041 0.7252098 0.6651503
v 0.6763042 0.5823067 0.6285671
v 1.3089 0.7252098 0.2055428
v 1.274107 0.5823065 0.1942379
v 1.06727 0.7252098 0.538118
v 1.045767 0.5823065 0.5085215
v 1.3089 0.7252098 -0.2055427
v 1.274107 0.5823065 -0.1942379
v 1.3089 0.7252098 0.2055428
v 1.274107 0.5823065 0.1942379
v 1.06727 0.7252098 -0.5381179
v 1.045767 0.5823065 -0.5085214
v 1.3089 0.7252098 -0.2055427
v 1.274107 0.5823065 -0.1942379
v 0.6763042 0.7252098 -0.6651503
v 0.6763042 0.5823065 -0.628567
v 1.06727 0.7252098 -0.5381179
v 1.045767 0.5823065 -0.5085214
v 0.6763042 0.7252098 -0.6651503
v 0.6763042 0.7252098 -0.5919837
v 0.1737863 0.7252098 -0.696123
v 0.1737862 0.7252098 -0.5618501
v 0.6763041 0.7252098 0.6651503
v 0.1737863 0.7252098 0.6912231
v 0.6763042 0.7252098 0.5919838
v 0.1737862 0.7252098 0.5534301
vt 0.9000001 0.75
vt 0.9000001 0.5
vt 0.8000001 0.75
vt 0.8000001 0.5
vt 0.8000001 0.75
vt 0.7 0.75
vt 0.7 0.5
vt 1 0
vt 0 0
vt 1 1
vt 0 0
vt 0 1
vt 1 1
vt 0 0
vt 0 1
vt 1 0
vt 0 1
vt 1 1
vt 1 0
vt 0 0
vt 0 1
vt 1 0
vt 0 1
vt 1 1
vt 1 0
vt 1 0
vt 0 0
vt 1 1
vt 0 0
vt 0 1
vt 1 1
vt 0.6 1
vt 0.6 0.75
vt 0.5 1
vt 0.5 0.75
vt 0.7 1
vt 0.7 0.75
vt 0.6 1
vt 0.6 0.75
vt 0.8000001 1
vt 0.8000001 0.75
vt 0.7 1
vt 0.7 0.75
vt 0.9000001 1
vt 0.9000001 0.75
vt 0.8000001 1
vt 0.8000001 0.75
vt 1 1
vt 1 0.75
vt 0.9000001 1
vt 0.9000001 0.75
vt 0.6 0.75
vt 0.6 0.5
vt 0.5 0.75
vt 0.5 0.5
vt 0.7 0.75
vt 0.7 0.5
vt 0.6 0.75
vt 0.6 0.5
vt 1 0.75
vt 1 0.5
vt 0.9000001 0.75
vt 0.9000001 0.5
vt 0.6 0.5
vt 0.6 0.125
vt 0.5 0.5
vt 0.5 0.125
vt 0.7 0.5
vt 0.7 0.125
vt 0.6 0.5
vt 0.6 0.125
vt 0.8000001 0.5
vt 0.8000001 0.125
vt 0.7 0.5
vt 0.7 0.125
vt 0.9000001 0.5
vt 0.9000001 0.125
vt 0.8000001 0.5
vt 0.8000001 0.125
vt 1 0.5
vt 1 0.125
vt 0.9000001 0.5
vt 0.9000001 0.125
vt 1 0
vt 0 0
vt 1 1
vt 0 1
vt 0 0
vt 0 1
vt 1 0
vt 1 1
vn 0 1 9.589527E-07
vn 0 1 9.589526E-07
vn 0 1 9.589526E-07
vn 0 1 0
vn 0 1 0
vn 0 1 0
vn 0 1 0
vn 0.05799418 -0.2475851 0.9671289
vn 0.05799419 -0.2475851 0.9671289
vn 0.05799419 -0.2475851 0.9671289
vn -0.0007558864 -0.4252157 0.9050918
vn -0.0007558863 -0.4252157 0.9050918
vn -0.0007558864 -0.4252157 0.9050917
vn 0.07411972 -0.247321 -0.9660945
vn 0.07411973 -0.247321 -0.9660945
vn 0.07411972 -0.247321 -0.9660945
vn 0.0111854 -0.4342558 -0.9007202
vn 0.0111854 -0.4342558 -0.9007202
vn 0.0111854 -0.4342558 -0.9007202
vn 0.05960343 -0.2475614 -0.9670371
vn 0.05960343 -0.2475614 -0.9670371
vn 0.05960343 -0.2475614 -0.9670371
vn 0.0007557314 -0.4252146 -0.9050922
vn 0.0007557314 -0.4252146 -0.9050922
vn 0.0007557314 -0.4252146 -0.9050922
vn 0.05019987 -0.2476906 0.9675378
vn 0.05019987 -0.2476906 0.9675378
vn 0.05019987 -0.2476906 0.9675378
vn -0.01118539 -0.4342552 0.9007205
vn -0.01118539 -0.4342552 0.9007205
vn -0.01118539 -0.4342552 0.9007205
vn -0.3002467 -0.2365614 -0.924062
vn -0.3002467 -0.2365614 -0.924062
vn -0.3002467 -0.2365614 -0.924062
vn -0.3002453 -0.2365602 -0.9240628
vn -0.7860544 -0.2365604 -0.5711022
vn -0.7860544 -0.2365604 -0.5711021
vn -0.7860544 -0.2365604 -0.5711022
vn -0.7860546 -0.236561 -0.5711017
vn -0.9716168 -0.2365605 0
vn -0.9716168 -0.2365605 0
vn -0.9716168 -0.2365605 0
vn -0.9716168 -0.2365602 0
vn -0.786055 -0.23656 0.5711014
vn -0.786055 -0.23656 0.5711014
vn -0.786055 -0.23656 0.5711015
vn -0.7860544 -0.2365611 0.5711018
vn -0.3002467 -0.2365608 0.9240622
vn -0.3002467 -0.2365608 0.9240622
vn -0.3002467 -0.2365608 0.9240622
vn -0.3002452 -0.2365599 0.9240629
vn 0 1 7.671641E-06
vn 0 1 7.671641E-06
vn 0 1 7.671641E-06
vn 0 1 0
vn 0 1 0
vn 0 1 0
vn 0 1 0
vn 0 1 0
vn 0 1 0
vn 0 1 0
vn 0 1 0
vn 0 1 -6.827759E-06
vn 0.3002455 -0.2365607 0.9240626
vn 0.3002455 -0.2365607 0.9240626
vn 0.3002455 -0.2365607 0.9240626
vn 0.3002475 -0.236561 0.9240619
vn 0.7860541 -0.2365595 0.5711029
vn 0.7860541 -0.2365595 0.5711029
vn 0.7860541 -0.2365595 0.5711029
vn 0.7860547 -0.2365605 0.5711017
vn 0.9716167 -0.236561 0
vn 0.9716167 -0.236561 0
vn 0.9716167 -0.236561 0
vn 0.9716166 -0.2365613 0
vn 0.7860537 -0.2365613 -0.5711029
vn 0.7860537 -0.2365613 -0.5711028
vn 0.7860537 -0.2365612 -0.5711028
vn 0.7860555 -0.2365607 -0.5711005
vn 0.3002457 -0.2365602 -0.9240627
vn 0.3002456 -0.2365602 -0.9240627
vn 0.3002456 -0.2365602 -0.9240627
vn 0.3002469 -0.236561 -0.9240621
vn 0 1 0
vn 0 1 0
vn 0 1 0
vn 0 1 0
vn 0 1 0
vn 0 1 0
vn 0 1 0
vn 0 1 -2.230808E-06
g slimehoop1_COL_0
f 3/3/3 2/2/2 1/1/1
f 5/5/5 4/4/4 2/2/2
f 6/6/6 4/4/4 5/5/5
f 6/6/6 7/7/7 4/4/4
f 10/10/10 9/9/9 8/8/8
f 13/13/13 12/12/12 11/11/11
f 16/16/16 15/15/15 14/14/14
f 19/19/19 18/18/18 17/17/17
f 22/22/22 21/21/21 20/20/20
f 25/25/25 24/24/24 23/23/23
f 28/28/28 27/27/27 26/26/26
f 31/31/31 30/30/30 29/29/29
f 34/34/34 33/33/33 32/32/32
f 34/34/34 35/35/35 33/33/33
f 38/38/38 37/37/37 36/36/36
f 38/38/38 39/39/39 37/37/37
f 42/42/42 41/41/41 40/40/40
f 42/42/42 43/43/43 41/41/41
f 46/46/46 45/45/45 44/44/44
f 46/46/46 47/47/47 45/45/45
f 50/50/50 49/49/49 48/48/48
f 50/50/50 51/51/51 49/49/49
f 54/54/54 53/53/53 52/52/52
f 54/54/54 55/55/55 53/53/53
f 58/58/58 57/57/57 56/56/56
f 58/58/58 59/59/59 57/57/57
f 62/62/62 61/61/61 60/60/60
f 62/62/62 63/63/63 61/61/61
f 66/66/66 65/65/65 64/64/64
f 66/66/66 67/67/67 65/65/65
f 70/70/70 69/69/69 68/68/68
f 70/70/70 71/71/71 69/69/69
f 74/74/74 73/73/73 72/72/72
f 74/74/74 75/75/75 73/73/73
f 78/78/78 77/77/77 76/76/76
f 78/78/78 79/79/79 77/77/77
f 82/82/82 81/81/81 80/80/80
f 82/82/82 83/83/83 81/81/81
f 86/86/86 85/85/85 84/84/84
f 86/86/86 87/87/87 85/85/85
f 90/90/90 89/89/89 88/88/88
f 90/90/90 91/91/91 89/89/89
