g veggieDirtClod01
v 0.8784598 -0.3178203 -0.2058635
v -0.1019113 -0.4963969 -0.4861076
v 0.3750321 -0.4517047 0.71451
v 0.5144266 -0.4156378 -0.7544792
v 0.6083915 -0.2074745 -0.8829485
v 1.030418 0.1147524 -0.4753117
v 1.141004 0.05821797 0.1110164
v 1.008933 0.2679189 0.2995296
v 0.6666337 0.4412051 -0.04872968
v 0.2758377 0.29906 -0.8758342
v 0.6666337 0.4412051 -0.04872968
v 0.2658719 -0.08340224 -0.966613
v 0.5144266 -0.4156378 -0.7544792
v -0.5187521 -0.1727011 -0.8803801
v -0.1019113 -0.4963969 -0.4861076
v -0.2025021 0.357403 -0.847321
v -0.03268763 0.5048272 0.08253252
v 0.6666337 0.4412051 -0.04872968
v -0.8486983 -0.2870705 -0.5232219
v -0.8612081 0.1312188 -0.7589396
v -0.9670577 -0.3609524 0.1367977
v -0.3658615 -0.5048272 0.6033674
v -1.141003 -0.08312167 -0.1163542
v -0.7913058 0.3543249 -0.5462736
v -0.03268763 0.5048272 0.08253252
v -0.9969405 0.2844161 0.1896028
v 0.6666337 0.4412051 -0.04872968
v 0.06554479 0.3493901 0.8738045
v -0.03268763 0.5048272 0.08253252
v 0.6480985 0.3602377 0.6792146
v 0.6666337 0.4412051 -0.04872968
v 0.1956424 0.06050477 0.966612
v -0.3601632 0.2602337 0.8732576
v -0.7525851 0.3123446 0.5467952
v -0.03268763 0.5048272 0.08253252
v 0.809163 0.05114293 0.8613582
v 0.2462675 -0.2724799 0.9487166
v -0.7356905 -0.2830006 0.7004182
v 1.008933 0.2679189 0.2995296
v 0.6666337 0.4412051 -0.04872968
v 1.141004 0.05821797 0.1110164
v 0.8804374 -0.16314 0.5696834
v 0.8784598 -0.3178203 -0.2058635
v 0.3750321 -0.4517047 0.71451
v -0.3658615 -0.5048272 0.6033674
v 0.3750321 -0.4517047 0.71451
v -0.9969405 0.2844161 0.1896028
v -0.03268763 0.5048272 0.08253252
v -0.7913058 0.3543249 -0.5462736
v -1.141003 -0.08312167 -0.1163542
v -0.9670577 -0.3609524 0.1367977
v -0.3658615 -0.5048272 0.6033674
v 0.5144266 -0.4156378 -0.7544792
v -0.1019113 -0.4963969 -0.4861076
v -0.3658615 -0.5048272 0.6033674
vt 0.8849497 0.1852187
vt 0.4553413 0.008349657
vt 0.6643429 0.05261451
vt 0.7254267 0.08833653
vt 0.7666035 0.2945094
vt 0.95154 0.6136551
vt 1 0.5576613
vt 0.9421253 0.765357
vt 0.7921257 0.9369862
vt 0.6208744 0.7962004
vt 0.7921257 0.9369862
vt 0.6165075 0.4173952
vt 0.7254267 0.08833653
vt 0.2726765 0.3289502
vt 0.4553413 0.008349657
vt 0.4112606 0.8539853
vt 0.4856758 1
vt 0.7921257 0.9369862
vt 0.1280909 0.2156744
vt 0.1226091 0.6299641
vt 0.07622433 0.142499
vt 0.3396749 -2.980232E-08
vt 0 0.4176731
vt 0.1532412 0.8509368
vt 0.4856758 1
vt 0.06312943 0.7816966
vt 0.7921257 0.9369862
vt 0.5287218 0.8460492
vt 0.4856758 1
vt 0.7840033 0.856793
vt 0.7921257 0.9369862
vt 0.5857325 0.5599262
vt 0.3421726 0.7577453
vt 0.1702089 0.8093579
vt 0.4856758 1
vt 0.8545837 0.5506539
vt 0.6079168 0.2301255
vt 0.1776123 0.2197055
vt 0.9421253 0.765357
vt 0.7921257 0.9369862
vt 1 0.5576613
vt 0.8858166 0.3384199
vt 0.8849497 0.1852187
vt 0.6643429 0.05261451
vt 0.3396749 -2.980232E-08
vt 0.6643429 0.05261451
vt 0.06312943 0.7816966
vt 0.4856758 1
vt 0.1532412 0.8509368
vt 0 0.4176731
vt 0.07622433 0.142499
vt 0.3396749 -2.980232E-08
vt 0.7254267 0.08833653
vt 0.4553413 0.008349657
vt 0.3396749 -2.980232E-08
vn 0.5808383 -0.8100973 -0.07980728
vn -0.07214614 -0.969456 -0.2344139
vn 0.2503466 -0.8824847 0.3981802
vn 0.3459333 -0.8686331 -0.3546923
vn 0.5242336 -0.3282068 -0.7857859
vn 0.8448317 0.1883338 -0.500789
vn 0.9966659 -0.05884105 0.05652158
vn 0.7793511 0.6195194 0.09384807
vn 0.302596 0.9456925 -0.1187495
vn 0.1908053 0.6587238 -0.7277886
vn 0.302596 0.9456925 -0.1187495
vn 0.07089674 -0.11515 -0.9908149
vn 0.3459333 -0.8686331 -0.3546923
vn -0.2825198 -0.4178742 -0.8634602
vn -0.07214614 -0.969456 -0.2344139
vn -0.08008262 0.760083 -0.6448725
vn -0.02893182 0.9995517 -0.007690737
vn 0.302596 0.9456925 -0.1187495
vn -0.5450716 -0.7168638 -0.434745
vn -0.6618975 0.2170821 -0.7174727
vn -0.7017933 -0.695018 0.1563203
vn -0.1656269 -0.925429 0.3408062
vn -0.9979271 -0.06289879 -0.01361129
vn -0.4367031 0.870629 -0.226485
vn -0.02893182 0.9995517 -0.007690737
vn -0.7874063 0.562202 0.2528246
vn 0.302596 0.9456925 -0.1187495
vn 0.0140083 0.76655 0.6420318
vn -0.02893182 0.9995517 -0.007690737
vn 0.2797712 0.8560382 0.434657
vn 0.302596 0.9456925 -0.1187495
vn 0.02642987 0.1303181 0.9911199
vn -0.3583503 0.3319211 0.8725901
vn -0.6156365 0.5866737 0.5261232
vn -0.02893182 0.9995517 -0.007690737
vn 0.6338788 0.01126149 0.7733504
vn 0.06314328 -0.5046273 0.8610252
vn -0.6268323 -0.4023336 0.6672397
vn 0.7793511 0.6195194 0.09384807
vn 0.302596 0.9456925 -0.1187495
vn 0.9966659 -0.05884105 0.05652158
vn 0.6932089 -0.5932897 0.4092295
vn 0.5808383 -0.8100973 -0.07980728
vn 0.2503466 -0.8824847 0.3981802
vn -0.1656269 -0.925429 0.3408062
vn 0.2503466 -0.8824847 0.3981802
vn -0.7874063 0.562202 0.2528246
vn -0.02893182 0.9995517 -0.007690737
vn -0.4367031 0.870629 -0.226485
vn -0.9979271 -0.06289879 -0.01361129
vn -0.7017933 -0.695018 0.1563203
vn -0.1656269 -0.925429 0.3408062
vn 0.3459333 -0.8686331 -0.3546923
vn -0.07214614 -0.969456 -0.2344139
vn -0.1656269 -0.925429 0.3408062
g veggieDirtClod01_0
f 3/3/3 2/2/2 1/1/1
f 5/5/5 1/1/1 4/4/4
f 5/5/5 6/6/6 1/1/1
f 7/7/7 1/1/1 6/6/6
f 8/8/8 7/7/7 6/6/6
f 9/9/9 8/8/8 6/6/6
f 10/10/10 6/6/6 5/5/5
f 6/6/6 10/10/10 11/11/11
f 10/10/10 5/5/5 12/12/12
f 12/12/12 5/5/5 13/13/13
f 14/14/14 12/12/12 13/13/13
f 12/12/12 14/14/14 10/10/10
f 13/13/13 15/15/15 14/14/14
f 10/10/10 14/14/14 16/16/16
f 16/16/16 17/17/17 10/10/10
f 17/17/17 18/18/18 10/10/10
f 19/19/19 14/14/14 15/15/15
f 14/14/14 20/20/20 16/16/16
f 14/14/14 19/19/19 20/20/20
f 21/21/21 19/19/19 15/15/15
f 15/15/15 22/22/22 21/21/21
f 23/23/23 19/19/19 21/21/21
f 20/20/20 19/19/19 23/23/23
f 24/24/24 16/16/16 20/20/20
f 23/23/23 24/24/24 20/20/20
f 16/16/16 24/24/24 25/25/25
f 26/26/26 24/24/24 23/23/23
f 29/29/29 28/28/28 27/27/27
f 31/31/31 28/28/28 30/30/30
f 30/30/30 28/28/28 32/32/32
f 33/33/33 32/32/32 28/28/28
f 28/28/28 34/34/34 33/33/33
f 28/28/28 35/35/35 34/34/34
f 32/32/32 36/36/36 30/30/30
f 33/33/33 37/37/37 32/32/32
f 37/37/37 36/36/36 32/32/32
f 33/33/33 34/34/34 38/38/38
f 33/33/33 38/38/38 37/37/37
f 39/39/39 30/30/30 36/36/36
f 39/39/39 40/40/40 30/30/30
f 36/36/36 41/41/41 39/39/39
f 36/36/36 42/42/42 41/41/41
f 42/42/42 36/36/36 37/37/37
f 42/42/42 43/43/43 41/41/41
f 43/43/43 42/42/42 44/44/44
f 37/37/37 44/44/44 42/42/42
f 45/45/45 37/37/37 38/38/38
f 37/37/37 45/45/45 46/46/46
f 34/34/34 47/47/47 38/38/38
f 34/34/34 48/48/48 47/47/47
f 47/47/47 48/48/48 49/49/49
f 47/47/47 50/50/50 38/38/38
f 38/38/38 50/50/50 51/51/51
f 52/52/52 38/38/38 51/51/51
f 43/43/43 54/54/54 53/53/53
f 54/54/54 44/44/44 55/55/55
