g voxBush03_COL
v -1.332454 0.5997406 1.308473
v -1.803724 0.3242084 1.076213
v -1.897247 0.4537858 0.5008047
v -1.803193 -0.3224094 1.079321
v -1.702749 0.921123 0.5342944
v -1.250084 1.378968 0.5425388
v -1.089165 1.100526 1.16004
v -0.4104724 1.334581 1.265424
v -0.409768 0.5216495 1.695087
v -1.276544 -0.3132458 1.50696
v -1.979694 -0.3166341 0.4834405
v -1.880991 0.3808552 -0.3468173
v -1.764437 -0.8549609 1.013005
v -0.7183228 1.630251 0.8566412
v -0.276615 2.27491 0.3880243
v -0.7271118 -0.2949686 1.823479
v -1.334036 -1.164109 1.277679
v -1.869554 -0.985881 0.5062765
v -1.977208 -0.3087718 -0.3226178
v -1.656238 -1.447262 0.5199738
v -0.1100964 1.802732 1.098216
v 0.1371667 1.800772 1.098567
v 0.4388257 1.321275 1.26199
v -0.5026087 -1.224908 1.670684
v -1.044019 -1.756921 1.134083
v -1.618807 -1.435449 -0.3614603
v -1.883263 -0.9734607 -0.3421921
v -1.185614 -1.897463 0.521456
v 0.2942578 2.270952 0.3894556
v 0.7507007 1.602603 0.8619656
v -0.2591479 -0.926154 1.962641
v -0.2761572 -0.2848922 1.972519
v -0.3970935 -1.811328 1.192387
v -0.4008521 -2.215579 0.5379556
v 0.4182446 -1.403447 1.564144
v 1.070814 1.065366 1.150854
v 0.474989 0.5319932 1.69283
v -0.1097632 0.2177078 1.907194
v 0.1962 0.2198773 1.90723
v 0.4597912 -0.3326007 1.959078
v 0.8020581 -0.07791596 1.833626
v 0.4145715 -0.9231007 1.940166
v 1.227803 0.5700415 1.305392
v 0.911521 -0.6596583 1.86762
v 1.333678 -0.2839969 1.488618
v 0.8940088 -0.791264 1.858993
v 1.249486 -1.183664 1.386442
v 0.413905 -1.78512 1.14383
v 0.421759 -2.198624 0.54772
v 1.695333 0.6024653 0.6310202
v 1.763032 0.08859298 0.9756436
v 1.813464 -0.4848788 1.110687
v 1.238698 1.342229 0.5549719
v 1.00827 1.83439 0.2434824
v 1.30147 1.418652 -0.4058517
v 1.733785 0.8000078 -0.3317218
v 0.33406 2.279599 -0.2240359
v 1.014034 1.838717 -0.1250363
v 1.874192 0.3234971 0.3557822
v 1.925203 -0.2366303 0.5878543
v -0.3232556 2.285824 -0.2285062
v 1.892329 0.3690562 -0.3127328
v 1.355637 0.5351498 -1.283804
v 1.16649 1.179265 -1.074275
v 0.5246399 1.41647 -1.227415
v 1.829835 0.2663943 -0.8939529
v 0.9012768 1.73997 -0.7825516
v 2.011768 -0.2945079 -0.2948016
v 1.879231 -0.2972908 -0.9825311
v 0.2569726 1.902221 -0.9457126
v -0.2436413 1.902476 -0.9473913
v 1.914348 -1.016346 -0.3216339
v 1.844271 -0.8973438 -0.9333826
v 1.496088 -0.2978803 -1.457383
v 1.895751 -1.048948 0.5054581
v 1.80411 -0.9308497 1.097975
v 1.629233 -1.54079 0.5347577
v 1.663566 -1.496119 -0.345061
v 1.347817 -1.208694 -1.279586
v 1.162692 -1.870235 0.5426318
v 1.202393 -1.927678 -0.329032
v 1.005713 -1.732121 1.075714
v 1.078108 -1.805376 -0.9961444
v 0.4239941 -2.254037 -0.3188959
v -0.4212073 -2.248238 -0.327731
v 0.4259118 -1.918118 -1.145684
v 0.4337012 -1.524496 -1.613623
v -1.164789 -1.90402 -0.3474661
v -0.4387207 -1.898626 -1.127854
v -1.295271 -1.154899 -1.222945
v -1.036906 -1.773484 -0.9760397
v -0.452605 -1.497397 -1.590166
v 0.9997571 -0.8963988 -1.748828
v 0.414303 -1.043127 -1.825695
v 1.035337 -0.296409 -1.769493
v -0.4277844 -1.020372 -1.811067
v 0.3973511 -0.2980473 -1.919205
v -0.4020947 -0.3007656 -1.903645
v 0.9626074 0.2399845 -1.727283
v 0.4191723 0.3759251 -1.808843
v -0.4210547 0.3675731 -1.804947
v 0.4413879 0.808876 -1.651227
v -0.5140759 1.410642 -1.225137
v -0.4406702 0.801011 -1.64662
v -0.9416223 0.2154406 -1.717663
v -0.9776562 -0.3067371 -1.743129
v -0.8836035 1.734895 -0.7921481
v -1.16678 1.169396 -1.075209
v -0.9538611 -0.862143 -1.721573
v -1.34444 0.5069535 -1.258866
v -1.425092 -0.3129385 -1.343616
v -1.000708 1.848201 -0.1359329
v -1.294268 1.425487 -0.4248187
v -0.9927307 1.84741 0.2364001
v -1.739946 0.8299404 -0.3659231
v -1.799724 0.2293525 -0.8615887
v -1.819047 -0.3101554 -0.8963439
v -1.79306 -0.8372135 -0.8693573
vn -0.6577105 0.5719492 0.4901949
vn -0.7312083 0.5323024 0.4266012
vn -0.7312083 0.5323024 0.4266012
vn -0.9657847 -0.1273343 0.2259332
vn -0.6577105 0.5719492 0.4901949
vn -0.6577105 0.5719492 0.4901949
vn -0.6577105 0.5719492 0.4901949
vn -0.2816456 0.429573 0.8579876
vn -0.2816456 0.429573 0.8579876
vn -0.4559089 -0.2187144 0.8627347
vn -0.9657847 -0.1273343 0.2259332
vn -0.8018032 0.4267015 -0.418375
vn -0.9657847 -0.1273343 0.2259332
vn -0.4569346 0.6819599 0.5710881
vn -0.4440179 0.6483397 0.6184689
vn -0.4559089 -0.2187144 0.8627347
vn -0.4559089 -0.2187144 0.8627347
vn -0.9657847 -0.1273343 0.2259332
vn -0.9748237 -0.08696061 -0.2053209
vn -0.7636986 -0.4902584 0.4200133
vn -0.4440179 0.6483397 0.6184689
vn 0.4583901 0.6347522 0.6220677
vn 0.3461087 0.4335822 0.8319947
vn -0.4559089 -0.2187144 0.8627347
vn -0.1772554 -0.923778 0.339433
vn -0.73003 -0.562784 -0.3877247
vn -0.9748237 -0.08696061 -0.2053209
vn -0.1772554 -0.923778 0.339433
vn 0.4583901 0.6347522 0.6220677
vn 0.4971314 0.6421263 0.5835531
vn -0.4992833 -0.1498022 0.8533905
vn -0.4992833 -0.1498022 0.8533905
vn -0.1772554 -0.923778 0.339433
vn -0.1772554 -0.923778 0.339433
vn 0.2997694 -0.6226324 0.7228189
vn 0.7499348 0.463912 0.4715755
vn 0.3461087 0.4335822 0.8319947
vn -0.003558675 0.5724288 0.8199468
vn -0.003558675 0.5724288 0.8199468
vn 0.1503145 -0.005070444 0.9886253
vn 0.4720431 0.142024 0.8700601
vn 0.1503145 -0.005070444 0.9886253
vn 0.7499348 0.463912 0.4715755
vn 0.1503145 -0.005070444 0.9886253
vn 0.5187701 -0.08833863 0.8503374
vn 0.1503145 -0.005070444 0.9886253
vn 0.5187701 -0.08833863 0.8503374
vn 0.1929917 -0.9055136 0.3778881
vn 0.1929917 -0.9055136 0.3778881
vn 0.7499348 0.463912 0.4715755
vn 0.8032339 0.2112518 0.5569452
vn 0.9932753 -0.02307126 0.1134551
vn 0.7499348 0.463912 0.4715755
vn 0.5510204 0.6599993 0.5106637
vn 0.8085337 0.4437895 -0.3864249
vn 0.8085337 0.4437895 -0.3864249
vn 0.3288815 0.7271091 -0.6026187
vn 0.6399356 0.7427772 -0.196887
vn 0.9188702 0.3836393 0.09218635
vn 0.9932753 -0.02307126 0.1134551
vn -0.3312114 0.7209157 -0.6087524
vn 0.7865617 0.5091167 -0.3494579
vn 0.8085337 0.4437895 -0.3864249
vn 0.8085337 0.4437895 -0.3864249
vn 0.4017433 0.440083 -0.8030749
vn 0.7865617 0.5091167 -0.3494579
vn 0.5931642 0.567943 -0.5706111
vn 0.9864644 -0.09306026 -0.1350105
vn 0.9864644 -0.09306026 -0.1350105
vn 0.3288815 0.7271091 -0.6026187
vn -0.3312114 0.7209157 -0.6087524
vn 0.9864644 -0.09306026 -0.1350105
vn 0.9864644 -0.09306026 -0.1350105
vn 0.6872168 -0.1875791 -0.701817
vn 0.9932753 -0.02307126 0.1134551
vn 0.9932753 -0.02307126 0.1134551
vn 0.6632286 -0.6175414 0.4228125
vn 0.7457553 -0.5758274 -0.33507
vn 0.6872168 -0.1875791 -0.701817
vn 0.1929917 -0.9055136 0.3778881
vn 0.2776555 -0.9200418 -0.2764607
vn 0.1929917 -0.9055136 0.3778881
vn 0.2776555 -0.9200418 -0.2764607
vn 0.2776555 -0.9200418 -0.2764607
vn -0.3050164 -0.9056875 -0.2944404
vn 0.2776555 -0.9200418 -0.2764607
vn 0.373437 -0.5115889 -0.7738357
vn -0.3050164 -0.9056875 -0.2944404
vn -0.3050164 -0.9056875 -0.2944404
vn -0.6751975 -0.1441077 -0.7234234
vn -0.3050164 -0.9056875 -0.2944404
vn -0.4422344 -0.5113497 -0.7368516
vn 0.1699876 -0.07721465 -0.9824165
vn 0.1699876 -0.07721465 -0.9824165
vn 0.1699876 -0.07721465 -0.9824165
vn -0.2018346 -0.07721075 -0.9763715
vn 0.1699876 -0.07721465 -0.9824165
vn -0.2018346 -0.07721075 -0.9763715
vn 0.3776923 0.4542776 -0.8068336
vn 0.3776923 0.4542776 -0.8068336
vn -0.4071674 0.4491121 -0.7953069
vn 0.4017433 0.440083 -0.8030749
vn -0.4132948 0.4194656 -0.8082302
vn -0.4132948 0.4194656 -0.8082302
vn -0.4071674 0.4491121 -0.7953069
vn -0.2018346 -0.07721075 -0.9763715
vn -0.5781908 0.5743203 -0.5795271
vn -0.7937089 0.4338461 -0.4263846
vn -0.2018346 -0.07721075 -0.9763715
vn -0.7937089 0.4338461 -0.4263846
vn -0.6751975 -0.1441077 -0.7234234
vn -0.6294774 0.7471822 -0.2132532
vn -0.7937089 0.4338461 -0.4263846
vn -0.5247169 0.6874779 0.5020421
vn -0.7937089 0.4338461 -0.4263846
vn -0.8018032 0.4267015 -0.418375
vn -0.9748237 -0.08696061 -0.2053209
vn -0.9748237 -0.08696061 -0.2053209
g voxBush03_COL_0
f 3/3/3 2/2/2 1/1/1
f 1/1/1 2/2/2 4/4/4
f 2/2/2 3/3/3 4/4/4
f 5/5/5 3/3/3 1/1/1
f 6/6/6 5/5/5 1/1/1
f 7/7/7 6/6/6 1/1/1
f 8/8/8 7/7/7 1/1/1
f 6/6/6 7/7/7 8/8/8
f 9/9/9 8/8/8 1/1/1
f 9/9/9 1/1/1 10/10/10
f 10/10/10 1/1/1 4/4/4
f 3/3/3 11/11/11 4/4/4
f 12/12/12 3/3/3 5/5/5
f 3/3/3 12/12/12 11/11/11
f 10/10/10 4/4/4 13/13/13
f 4/4/4 11/11/11 13/13/13
f 14/14/14 6/6/6 8/8/8
f 15/15/15 14/14/14 8/8/8
f 14/14/14 15/15/15 6/6/6
f 16/16/16 9/9/9 10/10/10
f 17/17/17 10/10/10 13/13/13
f 16/16/16 10/10/10 17/17/17
f 11/11/11 18/18/18 13/13/13
f 12/12/12 19/19/19 11/11/11
f 11/11/11 19/19/19 18/18/18
f 20/20/20 17/17/17 13/13/13
f 18/18/18 20/20/20 13/13/13
f 21/21/21 15/15/15 8/8/8
f 22/22/22 21/21/21 8/8/8
f 15/15/15 21/21/21 22/22/22
f 23/23/23 8/8/8 9/9/9
f 23/23/23 22/22/22 8/8/8
f 24/24/24 16/16/16 17/17/17
f 17/17/17 20/20/20 25/25/25
f 24/24/24 17/17/17 25/25/25
f 26/26/26 20/20/20 18/18/18
f 19/19/19 27/27/27 18/18/18
f 27/27/27 26/26/26 18/18/18
f 20/20/20 28/28/28 25/25/25
f 20/20/20 26/26/26 28/28/28
f 29/29/29 15/15/15 22/22/22
f 22/22/22 23/23/23 30/30/30
f 29/29/29 22/22/22 30/30/30
f 16/16/16 24/24/24 31/31/31
f 32/32/32 16/16/16 31/31/31
f 9/9/9 16/16/16 32/32/32
f 33/33/33 24/24/24 25/25/25
f 28/28/28 34/34/34 25/25/25
f 34/34/34 33/33/33 25/25/25
f 24/24/24 35/35/35 31/31/31
f 35/35/35 24/24/24 33/33/33
f 30/30/30 23/23/23 36/36/36
f 37/37/37 23/23/23 9/9/9
f 36/36/36 23/23/23 37/37/37
f 38/38/38 9/9/9 32/32/32
f 9/9/9 38/38/38 39/39/39
f 39/39/39 38/38/38 32/32/32
f 37/37/37 9/9/9 39/39/39
f 40/40/40 32/32/32 31/31/31
f 40/40/40 39/39/39 32/32/32
f 37/37/37 39/39/39 41/41/41
f 39/39/39 40/40/40 41/41/41
f 42/42/42 40/40/40 31/31/31
f 35/35/35 42/42/42 31/31/31
f 43/43/43 36/36/36 37/37/37
f 43/43/43 37/37/37 41/41/41
f 41/41/41 40/40/40 44/44/44
f 44/44/44 40/40/40 42/42/42
f 45/45/45 43/43/43 41/41/41
f 45/45/45 41/41/41 44/44/44
f 46/46/46 44/44/44 42/42/42
f 47/47/47 46/46/46 42/42/42
f 44/44/44 46/46/46 47/47/47
f 35/35/35 47/47/47 42/42/42
f 45/45/45 44/44/44 47/47/47
f 47/47/47 35/35/35 48/48/48
f 48/48/48 35/35/35 33/33/33
f 49/49/49 48/48/48 33/33/33
f 34/34/34 49/49/49 33/33/33
f 36/36/36 43/43/43 50/50/50
f 43/43/43 45/45/45 51/51/51
f 50/50/50 43/43/43 51/51/51
f 52/52/52 45/45/45 47/47/47
f 51/51/51 45/45/45 52/52/52
f 53/53/53 36/36/36 50/50/50
f 53/53/53 30/30/30 36/36/36
f 53/53/53 54/54/54 30/30/30
f 54/54/54 53/53/53 55/55/55
f 55/55/55 53/53/53 56/56/56
f 53/53/53 50/50/50 56/56/56
f 54/54/54 29/29/29 30/30/30
f 57/57/57 29/29/29 54/54/54
f 58/58/58 57/57/57 54/54/54
f 58/58/58 54/54/54 55/55/55
f 58/58/58 55/55/55 57/57/57
f 59/59/59 50/50/50 51/51/51
f 56/56/56 50/50/50 59/59/59
f 60/60/60 51/51/51 52/52/52
f 60/60/60 59/59/59 51/51/51
f 57/57/57 61/61/61 29/29/29
f 61/61/61 15/15/15 29/29/29
f 62/62/62 56/56/56 59/59/59
f 55/55/55 56/56/56 63/63/63
f 63/63/63 56/56/56 62/62/62
f 64/64/64 55/55/55 63/63/63
f 64/64/64 63/63/63 65/65/65
f 64/64/64 65/65/65 55/55/55
f 66/66/66 63/63/63 62/62/62
f 55/55/55 67/67/67 57/57/57
f 65/65/65 67/67/67 55/55/55
f 57/57/57 67/67/67 65/65/65
f 62/62/62 59/59/59 68/68/68
f 59/59/59 60/60/60 68/68/68
f 66/66/66 62/62/62 69/69/69
f 66/66/66 69/69/69 63/63/63
f 62/62/62 68/68/68 69/69/69
f 70/70/70 57/57/57 65/65/65
f 70/70/70 71/71/71 57/57/57
f 71/71/71 61/61/61 57/57/57
f 70/70/70 65/65/65 71/71/71
f 68/68/68 60/60/60 72/72/72
f 69/69/69 68/68/68 73/73/73
f 68/68/68 72/72/72 73/73/73
f 69/69/69 74/74/74 63/63/63
f 69/69/69 73/73/73 74/74/74
f 60/60/60 75/75/75 72/72/72
f 60/60/60 52/52/52 75/75/75
f 52/52/52 76/76/76 75/75/75
f 76/76/76 52/52/52 47/47/47
f 75/75/75 76/76/76 47/47/47
f 72/72/72 75/75/75 77/77/77
f 77/77/77 75/75/75 47/47/47
f 73/73/73 72/72/72 78/78/78
f 78/78/78 72/72/72 77/77/77
f 73/73/73 79/79/79 74/74/74
f 79/79/79 73/73/73 78/78/78
f 77/77/77 47/47/47 80/80/80
f 78/78/78 77/77/77 81/81/81
f 77/77/77 80/80/80 81/81/81
f 47/47/47 82/82/82 80/80/80
f 82/82/82 47/47/47 48/48/48
f 80/80/80 82/82/82 48/48/48
f 49/49/49 80/80/80 48/48/48
f 81/81/81 80/80/80 49/49/49
f 78/78/78 81/81/81 83/83/83
f 79/79/79 78/78/78 83/83/83
f 84/84/84 81/81/81 49/49/49
f 83/83/83 81/81/81 84/84/84
f 84/84/84 49/49/49 34/34/34
f 85/85/85 84/84/84 34/34/34
f 85/85/85 34/34/34 28/28/28
f 86/86/86 83/83/83 84/84/84
f 86/86/86 84/84/84 85/85/85
f 79/79/79 83/83/83 87/87/87
f 83/83/83 86/86/86 87/87/87
f 88/88/88 85/85/85 28/28/28
f 26/26/26 88/88/88 28/28/28
f 89/89/89 86/86/86 85/85/85
f 89/89/89 85/85/85 88/88/88
f 26/26/26 90/90/90 88/88/88
f 90/90/90 26/26/26 27/27/27
f 90/90/90 91/91/91 88/88/88
f 91/91/91 89/89/89 88/88/88
f 89/89/89 91/91/91 90/90/90
f 92/92/92 89/89/89 90/90/90
f 86/86/86 89/89/89 92/92/92
f 87/87/87 86/86/86 92/92/92
f 93/93/93 79/79/79 87/87/87
f 74/74/74 79/79/79 93/93/93
f 94/94/94 87/87/87 92/92/92
f 94/94/94 93/93/93 87/87/87
f 95/95/95 74/74/74 93/93/93
f 63/63/63 74/74/74 95/95/95
f 96/96/96 92/92/92 90/90/90
f 96/96/96 94/94/94 92/92/92
f 93/93/93 94/94/94 97/97/97
f 95/95/95 93/93/93 97/97/97
f 94/94/94 96/96/96 98/98/98
f 97/97/97 94/94/94 98/98/98
f 99/99/99 63/63/63 95/95/95
f 99/99/99 95/95/95 100/100/100
f 95/95/95 97/97/97 100/100/100
f 99/99/99 100/100/100 63/63/63
f 100/100/100 97/97/97 101/101/101
f 97/97/97 98/98/98 101/101/101
f 100/100/100 102/102/102 63/63/63
f 100/100/100 101/101/101 102/102/102
f 63/63/63 102/102/102 65/65/65
f 65/65/65 102/102/102 103/103/103
f 65/65/65 103/103/103 71/71/71
f 101/101/101 104/104/104 102/102/102
f 102/102/102 104/104/104 103/103/103
f 101/101/101 98/98/98 105/105/105
f 101/101/101 105/105/105 104/104/104
f 98/98/98 96/96/96 106/106/106
f 98/98/98 106/106/106 105/105/105
f 71/71/71 103/103/103 107/107/107
f 61/61/61 71/71/71 107/107/107
f 103/103/103 104/104/104 108/108/108
f 103/103/103 108/108/108 107/107/107
f 96/96/96 109/109/109 106/106/106
f 109/109/109 96/96/96 90/90/90
f 106/106/106 109/109/109 90/90/90
f 105/105/105 110/110/110 104/104/104
f 104/104/104 110/110/110 108/108/108
f 105/105/105 106/106/106 111/111/111
f 111/111/111 106/106/106 90/90/90
f 110/110/110 105/105/105 111/111/111
f 61/61/61 107/107/107 112/112/112
f 61/61/61 112/112/112 15/15/15
f 108/108/108 113/113/113 107/107/107
f 107/107/107 113/113/113 112/112/112
f 112/112/112 114/114/114 15/15/15
f 15/15/15 114/114/114 6/6/6
f 114/114/114 112/112/112 6/6/6
f 112/112/112 113/113/113 6/6/6
f 6/6/6 113/113/113 5/5/5
f 113/113/113 108/108/108 115/115/115
f 113/113/113 115/115/115 5/5/5
f 108/108/108 110/110/110 115/115/115
f 115/115/115 12/12/12 5/5/5
f 110/110/110 116/116/116 115/115/115
f 116/116/116 12/12/12 115/115/115
f 110/110/110 111/111/111 116/116/116
f 12/12/12 116/116/116 19/19/19
f 111/111/111 117/117/117 116/116/116
f 116/116/116 117/117/117 19/19/19
f 111/111/111 90/90/90 117/117/117
f 19/19/19 117/117/117 27/27/27
f 90/90/90 118/118/118 117/117/117
f 117/117/117 118/118/118 27/27/27
f 118/118/118 90/90/90 27/27/27
