g voxCliff01_COL
v 2.195246 3.946239 -3.861657
v 2.157232 3.946239 -4.970603
v 2.110735 1.392846 -5.13149
v 2.427975 1.392846 -4.598772
v 2.110735 -0.3750375 -5.13149
v 2.427975 -0.3750375 -4.598771
v 2.427975 1.392846 -2.854259
v 2.427975 -0.3750375 -2.854259
v 2.196726 3.946239 -2.85426
v 2.427975 1.392846 2.818595
v 2.427975 -0.3750375 2.818594
v 2.427975 -0.3750375 5.584122
v 2.164406 3.946239 1.230036
v 2.207326 4.699373 -2.854261
v 2.207327 4.699373 -3.803114
v 1.798776 4.611788 0.6248382
v 2.157232 3.946239 -4.970603
v 2.150723 3.946239 2.779759
v 1.907703 4.786543 2.217421
v 2.374592 1.392846 5.453538
v 1.307132 1.392846 5.584122
v 1.307132 -0.3750375 5.584122
v 1.897671 3.946239 5.418695
v 1.897671 5.039034 5.418695
v -1.215139 1.392846 5.584122
v -1.215139 -0.3750375 5.584122
v -2.046354 -0.3750375 5.535411
v -1.674097 3.946239 5.370543
v -2.046354 1.392846 5.535411
v -1.63184 5.011161 5.370543
v 1.553079 4.987968 2.235729
v 1.798776 4.611788 0.6248382
v 2.207326 4.699373 -2.854261
v -1.172881 5.02508 2.818595
v -2.046354 3.946239 5.194889
v -2.354023 1.392846 3.553223
v -2.354023 -0.3750375 3.553223
v 1.307132 5.039034 -2.854257
v -2.051494 4.947424 4.946975
v -2.115365 4.932835 2.818595
v -2.115365 4.932835 2.818595
v -2.289241 3.946239 2.818595
v -2.107215 4.72418 -2.705633
v -1.215139 5.039034 -2.854259
v -2.107215 4.72418 -2.705633
v -2.289241 2.336367 -2.854259
v -2.107215 4.72418 -3.842781
v -2.289241 2.336367 -3.991407
v -1.215139 5.039034 -3.991407
v -2.107215 4.72418 -3.842781
v -2.354023 1.392846 -3.588887
v -2.354023 -0.3750375 -3.588887
v -2.325441 1.392846 -4.568038
v -2.325441 -0.3750375 -4.568038
v -2.289241 -0.3750375 -4.970603
v -2.289241 1.392846 -4.970603
v -2.289241 2.407764 -4.970603
v -1.215139 4.906412 -4.884784
v -1.215139 3.946239 -4.970603
v 1.307132 5.039034 -3.803114
v 2.207327 4.699373 -3.803114
v 1.307132 4.906412 -4.884784
v 1.307132 3.946239 -4.970603
v -1.215139 1.392846 -4.970603
v -2.289241 2.407764 -4.970603
v -2.289241 1.392846 -4.970603
v 0.4236811 1.392846 -5.171805
v 2.110735 1.392846 -5.13149
v -1.215139 -0.3750375 -4.970603
v -2.289241 -0.3750375 -4.970603
v 0.4236813 -0.3750375 -5.171805
v 2.110735 -0.3750375 -5.13149
v -1.215139 -0.3750375 -3.991407
v -2.325441 -0.3750375 -4.568038
v 1.307132 -0.3750375 -3.991407
v 2.427975 -0.3750375 -4.598771
v 2.427975 -0.3750375 -2.854259
v -1.215139 -0.3750375 -2.854259
v -2.354023 -0.3750375 -3.588887
v 1.307132 -0.3750375 -2.854259
v -1.215139 -0.3750375 2.818594
v -2.354023 -0.3750375 3.553223
v 1.307132 -0.3750375 2.818594
v 2.427975 -0.3750375 2.818594
v -1.215139 -0.3750375 5.584122
v -2.046354 -0.3750375 5.535411
v 1.307132 -0.3750375 5.584122
v 2.427975 -0.3750375 5.584122
vt 0.8518066 0.1995391
vt 0.875 0.1995391
vt 0.875 0.08163375
vt 0.8518067 0.08163375
vt 0.875 0
vt 0.8518066 0
vt 0.8185465 0.08163375
vt 0.8185465 0
vt 0.8185465 0.1995391
vt 0.6905046 0.08163375
vt 0.6905046 0
vt 0.625 0
vt 0.6905046 0.1995391
vt 0.8185465 0.25
vt 0.8518067 0.25
vt 0.6905046 0.25
vt 0.625 0.5504609
vt 0.625 0.1995391
vt 0.625 0.25
vt 0.625 0.08163375
vt 0.5713736 0.08163375
vt 0.5713736 0
vt 0.5713736 0.1995391
vt 0.5713736 0.25
vt 0.4336495 0.08163375
vt 0.4336495 0
vt 0.375 0
vt 0.4336495 0.1995391
vt 0.375 0.08163375
vt 0.4336495 0.25
vt 0.5713736 0.3155045
vt 0.625 0.3155045
vt 0.625 0.4435465
vt 0.4336495 0.3155045
vt 0.375 0.1995391
vt 0.3094955 0.08163375
vt 0.3094955 0
vt 0.5713736 0.4435465
vt 0.375 0.25
vt 0.375 0.3155045
vt 0.3094955 0.25
vt 0.3094955 0.1995391
vt 0.1814535 0.25
vt 0.4336495 0.4435465
vt 0.375 0.4435465
vt 0.1814535 0.1995391
vt 0.1481933 0.25
vt 0.1481933 0.1995391
vt 0.4336495 0.4768067
vt 0.375 0.4768067
vt 0.1814535 0.08163375
vt 0.1814535 0
vt 0.1481933 0.08163374
vt 0.1481933 0
vt 0.125 0
vt 0.125 0.08163375
vt 0.125 0.1995391
vt 0.4336495 0.5
vt 0.4336495 0.5504609
vt 0.5713736 0.4768067
vt 0.625 0.4768067
vt 0.5713736 0.5
vt 0.5713736 0.5504609
vt 0.4336495 0.6683663
vt 0.375 0.5504609
vt 0.375 0.6683663
vt 0.5713736 0.6683663
vt 0.625 0.6683663
vt 0.4336495 0.75
vt 0.375 0.75
vt 0.5713736 0.75
vt 0.625 0.75
vt 0.4336495 0.7731932
vt 0.375 0.7731932
vt 0.5713736 0.7731932
vt 0.625 0.7731932
vt 0.625 0.8064535
vt 0.4336495 0.8064535
vt 0.375 0.8064535
vt 0.5713736 0.8064535
vt 0.4336495 0.9344955
vt 0.375 0.9344955
vt 0.5713736 0.9344956
vt 0.625 0.9344955
vt 0.4336495 1
vt 0.375 1
vt 0.5713736 1
vt 0.625 1
vn 0.9960287 0.06948885 -0.05566301
vn 0.5480565 0.1494973 -0.822973
vn 0.3898167 0.04725419 -0.9196793
vn 0.9922842 0.04689761 -0.1147719
vn 0.2453227 -0.4511599 -0.8580627
vn 0.8490235 -0.5149462 -0.1182772
vn 0.9986014 0.05285402 0.001351952
vn 0.8544452 -0.5195416 0
vn 0.9931762 0.1161587 0.01040126
vn 0.9988106 0.04844507 0.005510432
vn 0.8445767 -0.5354279 0.002692334
vn 0.7966174 -0.5052742 0.331811
vn 0.9912295 0.1321092 0.003346515
vn 0.8049211 0.5923453 0.03505949
vn 0.7757422 0.6213651 -0.1101343
vn 0.7912865 0.6105477 0.03312246
vn 0.5480565 0.1494973 -0.822973
vn 0.9879798 0.1512592 0.0318834
vn 0.9227064 0.384961 -0.02044001
vn 0.927079 0.07491072 0.3673047
vn 0.01135299 0.0472258 0.9988196
vn 0.009723284 -0.842531 0.5385601
vn 0.4755951 0.118459 0.8716517
vn 0.2730863 0.878971 0.3909399
vn -0.02553814 0.04815473 0.9985134
vn -0.00782146 -0.8426158 0.5384585
vn -0.7281379 -0.5505333 0.4083239
vn -0.05834337 0.05684434 0.9966769
vn -0.9051923 0.0344794 0.4236012
vn -0.04432973 0.9043198 0.4245476
vn 0.03492969 0.9993893 -0.001040407
vn 0.7912865 0.6105477 0.03312246
vn 0.8049211 0.5923453 0.03505949
vn -0.03981302 0.9992017 -0.00330648
vn -0.94777 0.06750186 0.31173
vn -0.99896 0.01873339 0.04156759
vn -0.902801 -0.4289796 0.03044214
vn 0.09636858 0.9953181 0.007409747
vn -0.7442302 0.6555936 0.1277432
vn -0.8489313 0.5284495 -0.007529557
vn -0.8489313 0.5284495 -0.007529557
vn -0.9975656 0.06776159 0.01646952
vn -0.8761894 0.4816706 -0.01690376
vn -0.05869574 0.9982759 0.000203882
vn -0.8761894 0.4816706 -0.01690376
vn -0.9982206 0.05911847 -0.007787506
vn -0.9023136 0.3928008 -0.177588
vn -0.9976436 0.06847925 -0.004211825
vn -0.07250499 0.9953281 -0.06375714
vn -0.9023136 0.3928008 -0.177588
vn -0.9998803 0.0148036 -0.004485164
vn -0.9168763 -0.3991583 -0.00322684
vn -0.999208 0.01611093 -0.03638445
vn -0.8038349 -0.5936574 -0.03768761
vn -0.3181321 -0.3590302 -0.8774333
vn -0.337823 0.00428124 -0.9411999
vn -0.4925827 0.07182223 -0.8672969
vn -0.2121544 0.6580297 -0.7224869
vn -0.03891142 0.05834071 -0.9975381
vn 0.07904733 0.9951775 -0.0580794
vn 0.7757422 0.6213651 -0.1101343
vn 0.09963 0.712959 -0.6940917
vn -0.01278336 0.06563836 -0.9977616
vn -0.05086498 0.0210694 -0.9984832
vn -0.4925827 0.07182223 -0.8672969
vn -0.337823 0.00428124 -0.9411999
vn -0.03726364 0.03226436 -0.9987845
vn 0.3898167 0.04725419 -0.9196793
vn -0.06140513 -0.5574188 -0.8279576
vn -0.3181321 -0.3590302 -0.8774333
vn -0.04046791 -0.5463874 -0.8365542
vn 0.2453227 -0.4511599 -0.8580627
vn 0 -1 0
vn -0.8038349 -0.5936574 -0.03768761
vn 0 -1 0
vn 0.8490235 -0.5149462 -0.1182772
vn 0.8544452 -0.5195416 0
vn 0 -1 0
vn -0.9168763 -0.3991583 -0.00322684
vn 0 -1 0
vn 0 -1 0
vn -0.902801 -0.4289796 0.03044214
vn 0 -1 0
vn 0.8445767 -0.5354279 0.002692334
vn -0.00782146 -0.8426158 0.5384585
vn -0.7281379 -0.5505333 0.4083239
vn 0.009723284 -0.842531 0.5385601
vn 0.7966174 -0.5052742 0.331811
g voxCliff01_COL_0
f 3/3/3 2/2/2 1/1/1
f 4/4/4 3/3/3 1/1/1
f 5/5/5 3/3/3 4/4/4
f 6/6/6 5/5/5 4/4/4
f 6/6/6 4/4/4 7/7/7
f 8/8/8 6/6/6 7/7/7
f 4/4/4 1/1/1 9/9/9
f 7/7/7 4/4/4 9/9/9
f 8/8/8 7/7/7 10/10/10
f 11/11/11 8/8/8 10/10/10
f 11/11/11 10/10/10 12/12/12
f 7/7/7 9/9/9 13/13/13
f 10/10/10 7/7/7 13/13/13
f 9/9/9 1/1/1 14/14/14
f 1/1/1 15/15/15 14/14/14
f 9/9/9 14/14/14 16/16/16
f 13/13/13 9/9/9 16/16/16
f 15/15/15 1/1/1 17/17/17
f 13/13/13 16/16/16 18/18/18
f 10/10/10 13/13/13 18/18/18
f 16/16/16 19/19/19 18/18/18
f 10/10/10 20/20/20 12/12/12
f 10/10/10 18/18/18 20/20/20
f 12/12/12 20/20/20 21/21/21
f 22/22/22 12/12/12 21/21/21
f 20/20/20 18/18/18 23/23/23
f 21/21/21 20/20/20 23/23/23
f 18/18/18 19/19/19 24/24/24
f 23/23/23 18/18/18 24/24/24
f 22/22/22 21/21/21 25/25/25
f 26/26/26 22/22/22 25/25/25
f 26/26/26 25/25/25 27/27/27
f 21/21/21 23/23/23 28/28/28
f 25/25/25 21/21/21 28/28/28
f 25/25/25 29/29/29 27/27/27
f 25/25/25 28/28/28 29/29/29
f 28/28/28 23/23/23 30/30/30
f 23/23/23 24/24/24 30/30/30
f 24/24/24 19/19/19 31/31/31
f 19/19/19 32/32/32 31/31/31
f 31/31/31 32/32/32 33/33/33
f 24/24/24 31/31/31 34/34/34
f 30/30/30 24/24/24 34/34/34
f 28/28/28 30/30/30 35/35/35
f 28/28/28 35/35/35 29/29/29
f 27/27/27 29/29/29 36/36/36
f 37/37/37 27/27/27 36/36/36
f 38/38/38 31/31/31 33/33/33
f 34/34/34 31/31/31 38/38/38
f 30/30/30 34/34/34 39/39/39
f 30/30/30 39/39/39 35/35/35
f 34/34/34 40/40/40 39/39/39
f 35/35/35 39/39/39 41/41/41
f 29/29/29 35/35/35 42/42/42
f 42/42/42 35/35/35 41/41/41
f 36/36/36 29/29/29 42/42/42
f 42/42/42 41/41/41 43/43/43
f 34/34/34 44/44/44 40/40/40
f 44/44/44 34/34/34 38/38/38
f 44/44/44 45/45/45 40/40/40
f 46/46/46 42/42/42 43/43/43
f 36/36/36 42/42/42 46/46/46
f 46/46/46 43/43/43 47/47/47
f 48/48/48 46/46/46 47/47/47
f 44/44/44 49/49/49 45/45/45
f 44/44/44 38/38/38 49/49/49
f 49/49/49 50/50/50 45/45/45
f 51/51/51 36/36/36 46/46/46
f 51/51/51 46/46/46 48/48/48
f 37/37/37 36/36/36 51/51/51
f 52/52/52 37/37/37 51/51/51
f 52/52/52 51/51/51 53/53/53
f 53/53/53 51/51/51 48/48/48
f 54/54/54 52/52/52 53/53/53
f 54/54/54 53/53/53 55/55/55
f 53/53/53 56/56/56 55/55/55
f 53/53/53 48/48/48 56/56/56
f 48/48/48 57/57/57 56/56/56
f 57/57/57 48/48/48 50/50/50
f 57/57/57 50/50/50 58/58/58
f 50/50/50 49/49/49 58/58/58
f 59/59/59 57/57/57 58/58/58
f 49/49/49 60/60/60 58/58/58
f 38/38/38 60/60/60 49/49/49
f 38/38/38 33/33/33 60/60/60
f 33/33/33 61/61/61 60/60/60
f 60/60/60 62/62/62 58/58/58
f 58/58/58 62/62/62 59/59/59
f 62/62/62 60/60/60 15/15/15
f 62/62/62 15/15/15 17/17/17
f 62/62/62 63/63/63 59/59/59
f 63/63/63 62/62/62 17/17/17
f 59/59/59 63/63/63 64/64/64
f 59/59/59 64/64/64 65/65/65
f 64/64/64 66/66/66 65/65/65
f 63/63/63 17/17/17 67/67/67
f 63/63/63 67/67/67 64/64/64
f 17/17/17 68/68/68 67/67/67
f 64/64/64 69/69/69 66/66/66
f 64/64/64 67/67/67 69/69/69
f 69/69/69 70/70/70 66/66/66
f 67/67/67 68/68/68 71/71/71
f 67/67/67 71/71/71 69/69/69
f 68/68/68 72/72/72 71/71/71
f 69/69/69 73/73/73 70/70/70
f 69/69/69 71/71/71 73/73/73
f 73/73/73 74/74/74 70/70/70
f 71/71/71 72/72/72 75/75/75
f 71/71/71 75/75/75 73/73/73
f 72/72/72 76/76/76 75/75/75
f 75/75/75 76/76/76 77/77/77
f 73/73/73 78/78/78 74/74/74
f 78/78/78 79/79/79 74/74/74
f 73/73/73 75/75/75 80/80/80
f 80/80/80 75/75/75 77/77/77
f 78/78/78 73/73/73 80/80/80
f 78/78/78 81/81/81 79/79/79
f 78/78/78 80/80/80 81/81/81
f 81/81/81 82/82/82 79/79/79
f 80/80/80 77/77/77 83/83/83
f 80/80/80 83/83/83 81/81/81
f 77/77/77 84/84/84 83/83/83
f 81/81/81 85/85/85 82/82/82
f 81/81/81 83/83/83 85/85/85
f 85/85/85 86/86/86 82/82/82
f 83/83/83 87/87/87 85/85/85
f 83/83/83 84/84/84 87/87/87
f 84/84/84 88/88/88 87/87/87
