g areaRamp01
v 1.140105 1.466092 -7.971086
v 2.213239 0.9052289 -6.980065
v 2.328879 1.543939 -7.098112
v 1.076677 0.8333319 -7.807096
v 2.047639 -4.973943 -7.083317
v -1.303562 1.469625 -7.931462
v 1.047287 -4.973943 -7.902907
v -1.303562 0.8300598 -7.807394
v -2.748039 1.514483 -7.237502
v -1.177561 -4.973943 -7.892487
v -2.628376 0.8488128 -7.167892
v -2.246383 -4.973943 -7.520529
v 2.368439 0.8299695 -5.425505
v 2.328879 1.543939 -7.098112
v 2.213239 0.9052289 -6.980065
v 2.605039 1.329758 -5.226218
v 2.852065 0.3362372 -1.679503
v 2.717229 -0.1010022 -1.824206
v 2.592121 -1.081991 1.572093
v 2.521745 -1.628105 1.393753
v 2.844738 -2.907331 3.940653
v 2.785207 -2.305069 4.129695
v 2.108376 -3.54604 6.077225
v 2.185026 -2.859117 6.144871
v 0.7271309 -3.558677 6.625223
v 0.7271309 -2.861374 6.748465
v -1.141331 -3.544491 6.495135
v -1.233543 -2.861374 6.748465
v -2.183278 -3.521953 6.119734
v -2.394723 -2.859268 6.18573
v -2.988883 -2.949997 4.099613
v -2.909723 -2.375145 4.290897
v -3.104567 -1.200461 1.683846
v -3.120104 -1.666618 1.521649
v -2.844157 0.2024628 -1.602804
v -2.796076 -0.2582501 -1.780807
v -2.964709 0.8039203 -5.390817
v -3.140031 1.301223 -5.160583
v -2.628376 0.8488128 -7.167892
v -2.748039 1.514483 -7.237502
v -2.964709 0.8039203 -5.390817
v -2.246383 -4.973943 -7.520529
v -2.628376 0.8488128 -7.167892
v -2.76735 -4.973943 -5.479303
v -2.473302 -4.973943 -1.964489
v -2.796076 -0.2582501 -1.780807
v -2.696149 -4.973943 1.207474
v -3.120104 -1.666618 1.521649
v -2.988883 -2.949997 4.099613
v -2.579694 -4.973943 3.75054
v -2.183278 -3.521953 6.119734
v -2.138195 -4.973945 5.237342
v -1.141331 -3.544491 6.495135
v -1.138728 -4.973945 5.610457
v 0.7271309 -3.558677 6.625223
v 0.6537618 -4.973945 5.632635
v 2.108376 -3.54604 6.077225
v 2.060173 -4.973945 5.314002
v 2.844738 -2.907331 3.940653
v 2.455178 -4.973943 3.644969
v 2.169724 -4.973943 1.167391
v 2.521745 -1.628105 1.393753
v 2.402741 -4.973943 -1.981256
v 2.717229 -0.1010022 -1.824206
v 2.368439 0.8299695 -5.425505
v 2.129025 -4.973943 -5.443927
v 2.213239 0.9052289 -6.980065
v 2.047639 -4.973943 -7.083317
v -2.20547 -2.4885 5.970516
v -2.593297 -2.042747 4.299076
v -1.142635 -1.851618 4.210047
v -1.142635 -2.478673 6.343113
v -1.342059 -0.7315399 1.682786
v -2.710192 -0.888236 1.743748
v 0.6567892 -1.851618 4.210047
v 0.6567892 -2.470193 6.343153
v 1.909133 -2.541374 5.834959
v 2.468781 -1.972042 4.157699
v 2.183874 -0.8192175 1.627147
v 0.5514522 -0.7315399 1.682786
v 2.417443 0.6463153 -1.546281
v 0.9645919 0.7012482 -1.487365
v 2.144826 1.564844 -4.98778
v -1.023011 0.7012482 -1.487365
v -2.487785 0.5789831 -1.45446
v 1.05111 1.564844 -4.922287
v 2.059231 1.812536 -6.799675
v -1.124661 1.564844 -4.922287
v -2.782712 1.564844 -4.945499
v -2.434845 1.812536 -6.986042
v 1.05111 1.812536 -6.795592
v 1.05111 1.812536 -7.598444
v -1.165324 1.812536 -6.785968
v -1.182752 1.812536 -7.584689
v 2.474567 -0.9134125 1.624242
v 2.852065 0.3362372 -1.679503
v 2.592121 -1.081991 1.572093
v 2.785207 -2.305069 4.129695
v 2.729941 0.4972937 -1.610055
v 2.605039 1.329758 -5.226218
v 2.672219 -2.128973 4.164549
v 2.185026 -2.859117 6.144871
v 2.183874 -0.8192175 1.627147
v 2.417443 0.6463153 -1.546281
v 2.468781 -1.972042 4.157699
v 2.086511 -2.683312 6.034451
v 0.7271309 -2.861374 6.748465
v 1.909133 -2.541374 5.834959
v 2.473774 1.475773 -5.122169
v 2.144826 1.564844 -4.98778
v 2.059231 1.812536 -6.799675
v 0.7020138 -2.685443 6.603885
v -1.233543 -2.861374 6.748465
v 0.6567892 -2.470193 6.343153
v 2.232595 1.729278 -6.994367
v 2.328879 1.543939 -7.098112
v 1.05111 1.812536 -7.598444
v -1.201082 -2.685443 6.603885
v -2.394723 -2.859268 6.18573
v -1.142635 -2.478673 6.343113
v 1.108327 1.653692 -7.841984
v 1.140105 1.466092 -7.971086
v -1.182752 1.812536 -7.584689
v -2.30338 -2.683468 6.077166
v -2.20547 -2.4885 5.970516
v -2.909723 -2.375145 4.290897
v -1.260428 1.656362 -7.812057
v -1.303562 1.469625 -7.931462
v -2.434845 1.812536 -6.986042
v -2.796735 -2.196499 4.319881
v -2.593297 -2.042747 4.299076
v -2.710192 -0.888236 1.743748
v -2.636208 1.698261 -7.151266
v -2.748039 1.514483 -7.237502
v -2.782712 1.564844 -4.945499
v -2.920202 -1.029712 1.730999
v -3.104567 -1.200461 1.683846
v -2.487785 0.5789831 -1.45446
v -3.012443 1.448279 -5.058922
v -3.140031 1.301223 -5.160583
v -2.704367 0.4497833 -1.500763
v -2.844157 0.2024628 -1.602804
vt 0.5416667 0.5
vt 0.625 0.6458333
vt 0.625 0.5
vt 0.5416667 0.6458333
vt 0.625 0.7499999
vt 0.4583333 0.5
vt 0.5416667 0.7499999
vt 0.4583333 0.6458333
vt 0.375 0.5
vt 0.4583333 0.7499999
vt 0.375 0.6458333
vt 0.375 0.7499999
vt 0.7916667 0.1041667
vt 0.875 0.25
vt 0.875 0.1041667
vt 0.7916667 0.25
vt 0.75 0.25
vt 0.75 0.1041667
vt 0.7291667 0.25
vt 0.7291667 0.1041667
vt 0.7083334 0.1041667
vt 0.7083334 0.25
vt 0.625 0.1041667
vt 0.625 0.25
vt 0.5416667 0.1041667
vt 0.5416667 0.25
vt 0.4583333 0.1041667
vt 0.4583333 0.25
vt 0.375 0.1041667
vt 0.375 0.25
vt 0.2916667 0.1041667
vt 0.2916667 0.25
vt 0.2708333 0.25
vt 0.2708333 0.1041667
vt 0.25 0.25
vt 0.25 0.1041667
vt 0.2083333 0.1041667
vt 0.2083333 0.25
vt 0.125 0.1041667
vt 0.125 0.25
vt 0.375 0.8333333
vt 0.375 0.7499999
vt 0.375 0.6458333
vt 0.375 0.8333333
vt 0.375 0.8749999
vt 0.375 0.8749999
vt 0.375 0.8958333
vt 0.375 0.8958333
vt 0.375 0.9166666
vt 0.375 0.9166666
vt 0.375 0.9999999
vt 0.375 0.9999999
vt 0.4583333 0.9999999
vt 0.4583333 0.9999999
vt 0.5416667 0.9999999
vt 0.5416667 0.9999999
vt 0.625 0.9999999
vt 0.625 0.9999999
vt 0.625 0.9166666
vt 0.625 0.9166666
vt 0.625 0.8958333
vt 0.625 0.8958333
vt 0.625 0.8749999
vt 0.625 0.8749999
vt 0.625 0.8333333
vt 0.625 0.8333333
vt 0.625 0.6458333
vt 0.625 0.7499999
vt 0.375 0.25
vt 0.375 0.3333333
vt 0.4583333 0.3333333
vt 0.4583333 0.25
vt 0.4583333 0.3541667
vt 0.375 0.3541667
vt 0.5416667 0.3333333
vt 0.5416667 0.25
vt 0.625 0.25
vt 0.625 0.3333333
vt 0.625 0.3541667
vt 0.5416667 0.3541667
vt 0.625 0.375
vt 0.5416667 0.375
vt 0.625 0.4166667
vt 0.4583333 0.375
vt 0.375 0.375
vt 0.5416667 0.4166667
vt 0.625 0.5
vt 0.4583333 0.4166667
vt 0.375 0.4166667
vt 0.375 0.5
vt 0.5416667 0.475
vt 0.5416667 0.5
vt 0.4583333 0.475
vt 0.4583333 0.5
vt 0.625 0.3541667
vt 0.625 0.375
vt 0.625 0.3541667
vt 0.625 0.3333333
vt 0.625 0.375
vt 0.625 0.4166667
vt 0.625 0.3333333
vt 0.625 0.25
vt 0.625 0.3541667
vt 0.625 0.375
vt 0.625 0.3333333
vt 0.625 0.25
vt 0.5416667 0.25
vt 0.625 0.25
vt 0.625 0.4166667
vt 0.625 0.4166667
vt 0.625 0.5
vt 0.5416667 0.25
vt 0.4583333 0.25
vt 0.5416667 0.25
vt 0.625 0.5
vt 0.625 0.5
vt 0.5416667 0.5
vt 0.4583333 0.25
vt 0.375 0.25
vt 0.4583333 0.25
vt 0.5416667 0.5
vt 0.5416667 0.5
vt 0.4583333 0.5
vt 0.375 0.25
vt 0.375 0.25
vt 0.375 0.3333333
vt 0.4583333 0.5
vt 0.4583333 0.5
vt 0.375 0.5
vt 0.375 0.3333333
vt 0.375 0.3333333
vt 0.375 0.3541667
vt 0.375 0.5
vt 0.375 0.5
vt 0.375 0.4166667
vt 0.375 0.3541667
vt 0.375 0.3541667
vt 0.375 0.375
vt 0.375 0.4166667
vt 0.375 0.4166667
vt 0.375 0.375
vt 0.375 0.375
vn 0.2305514 -0.04721418 -0.9719141
vn 0.8972425 -0.05072052 -0.4386153
vn 0.8587832 -0.0435637 -0.5104837
vn 0.2414874 -0.01649564 -0.9702637
vn 0.8943469 -0.01809208 -0.4470082
vn -0.1788933 -0.02032657 -0.9836585
vn 0.2348271 0.0116342 -0.9719675
vn -0.1521627 -0.008069735 -0.9883226
vn -0.8197061 0.01310573 -0.5726343
vn -0.1417249 0.01660809 -0.9897668
vn -0.8373082 -0.04256559 -0.5450717
vn -0.8151225 -0.01770164 -0.5790179
vn 0.992987 -0.07126129 -0.09433275
vn 0.8587832 -0.0435637 -0.5104837
vn 0.8972425 -0.05072052 -0.4386153
vn 0.9923625 -0.05687689 -0.1094603
vn 0.9998226 -0.01627325 -0.009489645
vn 0.9949965 -0.08324219 -0.05524977
vn 0.9970378 0.0710138 0.02954274
vn 0.9957708 -0.09141959 -0.009113064
vn 0.9927732 -0.119349 -0.01253359
vn 0.9872146 0.09744366 0.1261429
vn 0.7402408 -0.3078805 0.5977067
vn 0.7931015 0.02411186 0.6086119
vn 0.1098368 -0.4425841 0.8899748
vn 0.1514372 -0.0200314 0.9882638
vn -0.1396671 -0.4588448 0.8774706
vn -0.1777343 -0.06532276 0.981908
vn -0.7489828 -0.3335267 0.5725247
vn -0.8331134 -0.06721733 0.5490026
vn -0.9830566 -0.1509254 0.1040246
vn -0.9693264 0.1046779 0.2223713
vn -0.975237 0.2084226 0.07397865
vn -0.9942762 -0.08576173 -0.0637155
vn -0.9924762 0.1138794 0.04497202
vn -0.9976289 -0.06881994 0.0006547773
vn -0.9957501 -0.0663894 -0.0638291
vn -0.9998415 0.006550297 -0.01655423
vn -0.8373082 -0.04256559 -0.5450717
vn -0.8197061 0.01310573 -0.5726343
vn -0.9957501 -0.0663894 -0.0638291
vn -0.8151225 -0.01770164 -0.5790179
vn -0.8373082 -0.04256559 -0.5450717
vn -0.9976844 -0.04730324 -0.0488703
vn -0.9978495 -0.06517305 -0.006990139
vn -0.9976289 -0.06881994 0.0006547773
vn -0.9918563 -0.1085083 -0.06668586
vn -0.9942762 -0.08576173 -0.0637155
vn -0.9830566 -0.1509254 0.1040246
vn -0.9797126 -0.1775646 0.09292006
vn -0.7489828 -0.3335267 0.5725247
vn -0.8259109 -0.3215763 0.463098
vn -0.1396671 -0.4588448 0.8774706
vn -0.1429638 -0.5356143 0.8322732
vn 0.1098368 -0.4425841 0.8899748
vn 0.09398452 -0.5405952 0.8360167
vn 0.7402408 -0.3078805 0.5977067
vn 0.8080916 -0.3340503 0.4851785
vn 0.9927732 -0.119349 -0.01253359
vn 0.9889805 -0.145473 -0.02748124
vn 0.9952715 -0.09554274 -0.01750037
vn 0.9957708 -0.09141959 -0.009113064
vn 0.9972812 -0.06340424 -0.03755128
vn 0.9949965 -0.08324219 -0.05524977
vn 0.992987 -0.07126129 -0.09433275
vn 0.9951441 -0.04464392 -0.08772232
vn 0.8972425 -0.05072052 -0.4386153
vn 0.8943469 -0.01809208 -0.4470082
vn -0.2594819 0.8939083 0.3655095
vn -0.1935154 0.9022545 0.3853422
vn -0.03451887 0.930886 0.3636755
vn -0.0352448 0.9369585 0.3476588
vn -0.03740703 0.9115444 0.4094967
vn -0.1591622 0.9005916 0.4044776
vn 0.03165821 0.930529 0.3648475
vn 0.0459366 0.9393641 0.3398308
vn 0.2053266 0.9088398 0.3631133
vn 0.1403096 0.9100282 0.3900793
vn 0.1118929 0.9045163 0.4114976
vn 0.02724766 0.9113613 0.4107045
vn 0.118666 0.9335147 0.3383321
vn 0.02017343 0.9426494 0.3331744
vn 0.1223571 0.9674907 0.221338
vn -0.02228353 0.9448009 0.3268865
vn -0.1229995 0.9351916 0.3320961
vn 0.00961822 0.9771022 0.2125532
vn 0.1719936 0.984683 0.02859375
vn -0.0119023 0.976701 0.2142747
vn -0.1282866 0.9652783 0.227553
vn -0.1695961 0.9854494 -0.01124297
vn 0.000233235 0.9957628 0.09195806
vn 0.03546709 0.9818832 -0.1861385
vn -0.003447641 0.9956461 0.09315015
vn -0.02807683 0.9808246 -0.19286
vn 0.5939768 0.7301199 0.3378112
vn 0.9998226 -0.01627325 -0.009489645
vn 0.9970378 0.0710138 0.02954274
vn 0.9872146 0.09744366 0.1261429
vn 0.5765506 0.7707244 0.2712438
vn 0.9923625 -0.05687689 -0.1094603
vn 0.6423904 0.693783 0.3255758
vn 0.7931015 0.02411186 0.6086119
vn 0.1118929 0.9045163 0.4114976
vn 0.118666 0.9335147 0.3383321
vn 0.1403096 0.9100282 0.3900793
vn 0.4885717 0.7010757 0.5194138
vn 0.1514372 -0.0200314 0.9882638
vn 0.2053266 0.9088398 0.3631133
vn 0.5841554 0.8007505 0.1325181
vn 0.1223571 0.9674907 0.221338
vn 0.1719936 0.984683 0.02859375
vn 0.1144324 0.7303531 0.6734164
vn -0.1777343 -0.06532276 0.981908
vn 0.0459366 0.9393641 0.3398308
vn 0.553222 0.7949132 -0.2491153
vn 0.8587832 -0.0435637 -0.5104837
vn 0.03546709 0.9818832 -0.1861385
vn -0.115522 0.7044212 0.700318
vn -0.8331134 -0.06721733 0.5490026
vn -0.0352448 0.9369585 0.3476588
vn 0.1365714 0.7293398 -0.6703818
vn 0.2305514 -0.04721418 -0.9719141
vn -0.02807683 0.9808246 -0.19286
vn -0.5713627 0.640878 0.5126598
vn -0.2594819 0.8939083 0.3655095
vn -0.9693264 0.1046779 0.2223713
vn -0.1159675 0.7194129 -0.6848334
vn -0.1788933 -0.02032657 -0.9836585
vn -0.1695961 0.9854494 -0.01124297
vn -0.6845019 0.6429378 0.3436395
vn -0.1935154 0.9022545 0.3853422
vn -0.1591622 0.9005916 0.4044776
vn -0.5399197 0.7805528 -0.3149985
vn -0.8197061 0.01310573 -0.5726343
vn -0.1282866 0.9652783 0.227553
vn -0.6809224 0.6726726 0.2895792
vn -0.975237 0.2084226 0.07397865
vn -0.1229995 0.9351916 0.3320961
vn -0.7091466 0.6884612 0.152093
vn -0.9998415 0.006550297 -0.01655423
vn -0.693186 0.6742385 0.254746
vn -0.9924762 0.1138794 0.04497202
g areaRamp01_0
f 3/3/3 2/2/2 1/1/1
f 2/2/2 4/4/4 1/1/1
f 2/2/2 5/5/5 4/4/4
f 1/1/1 4/4/4 6/6/6
f 5/5/5 7/7/7 4/4/4
f 4/4/4 8/8/8 6/6/6
f 4/4/4 7/7/7 8/8/8
f 6/6/6 8/8/8 9/9/9
f 7/7/7 10/10/10 8/8/8
f 8/8/8 11/11/11 9/9/9
f 8/8/8 10/10/10 11/11/11
f 10/10/10 12/12/12 11/11/11
f 15/15/15 14/14/14 13/13/13
f 14/14/14 16/16/16 13/13/13
f 13/13/13 16/16/16 17/17/17
f 18/18/18 13/13/13 17/17/17
f 18/18/18 17/17/17 19/19/19
f 20/20/20 18/18/18 19/19/19
f 20/20/20 19/19/19 21/21/21
f 19/19/19 22/22/22 21/21/21
f 21/21/21 22/22/22 23/23/23
f 22/22/22 24/24/24 23/23/23
f 23/23/23 24/24/24 25/25/25
f 24/24/24 26/26/26 25/25/25
f 25/25/25 26/26/26 27/27/27
f 26/26/26 28/28/28 27/27/27
f 27/27/27 28/28/28 29/29/29
f 28/28/28 30/30/30 29/29/29
f 29/29/29 30/30/30 31/31/31
f 30/30/30 32/32/32 31/31/31
f 31/31/31 32/32/32 33/33/33
f 34/34/34 31/31/31 33/33/33
f 34/34/34 33/33/33 35/35/35
f 36/36/36 34/34/34 35/35/35
f 36/36/36 35/35/35 37/37/37
f 35/35/35 38/38/38 37/37/37
f 37/37/37 38/38/38 39/39/39
f 38/38/38 40/40/40 39/39/39
f 43/43/43 42/42/42 41/41/41
f 42/42/42 44/44/44 41/41/41
f 41/41/41 44/44/44 45/45/45
f 46/46/46 41/41/41 45/45/45
f 46/46/46 45/45/45 47/47/47
f 48/48/48 46/46/46 47/47/47
f 48/48/48 47/47/47 49/49/49
f 47/47/47 50/50/50 49/49/49
f 49/49/49 50/50/50 51/51/51
f 50/50/50 52/52/52 51/51/51
f 51/51/51 52/52/52 53/53/53
f 52/52/52 54/54/54 53/53/53
f 53/53/53 54/54/54 55/55/55
f 54/54/54 56/56/56 55/55/55
f 55/55/55 56/56/56 57/57/57
f 56/56/56 58/58/58 57/57/57
f 57/57/57 58/58/58 59/59/59
f 58/58/58 60/60/60 59/59/59
f 59/59/59 60/60/60 61/61/61
f 62/62/62 59/59/59 61/61/61
f 62/62/62 61/61/61 63/63/63
f 64/64/64 62/62/62 63/63/63
f 64/64/64 63/63/63 65/65/65
f 63/63/63 66/66/66 65/65/65
f 65/65/65 66/66/66 67/67/67
f 66/66/66 68/68/68 67/67/67
f 71/71/71 70/70/70 69/69/69
f 72/72/72 71/71/71 69/69/69
f 71/71/71 73/73/73 70/70/70
f 73/73/73 74/74/74 70/70/70
f 75/75/75 71/71/71 72/72/72
f 76/76/76 75/75/75 72/72/72
f 77/77/77 75/75/75 76/76/76
f 77/77/77 78/78/78 75/75/75
f 78/78/78 79/79/79 75/75/75
f 75/75/75 80/80/80 71/71/71
f 79/79/79 80/80/80 75/75/75
f 80/80/80 73/73/73 71/71/71
f 79/79/79 81/81/81 80/80/80
f 81/81/81 82/82/82 80/80/80
f 80/80/80 82/82/82 73/73/73
f 81/81/81 83/83/83 82/82/82
f 73/73/73 84/84/84 74/74/74
f 82/82/82 84/84/84 73/73/73
f 84/84/84 85/85/85 74/74/74
f 83/83/83 86/86/86 82/82/82
f 82/82/82 86/86/86 84/84/84
f 83/83/83 87/87/87 86/86/86
f 84/84/84 88/88/88 85/85/85
f 86/86/86 88/88/88 84/84/84
f 88/88/88 89/89/89 85/85/85
f 88/88/88 90/90/90 89/89/89
f 87/87/87 91/91/91 86/86/86
f 86/86/86 91/91/91 88/88/88
f 87/87/87 92/92/92 91/91/91
f 88/88/88 93/93/93 90/90/90
f 91/91/91 93/93/93 88/88/88
f 91/91/91 92/92/92 93/93/93
f 93/93/93 94/94/94 90/90/90
f 92/92/92 94/94/94 93/93/93
f 97/97/97 96/96/96 95/95/95
f 97/97/97 95/95/95 98/98/98
f 96/96/96 99/99/99 95/95/95
f 96/96/96 100/100/100 99/99/99
f 95/95/95 101/101/101 98/98/98
f 98/98/98 101/101/101 102/102/102
f 95/95/95 99/99/99 103/103/103
f 95/95/95 103/103/103 101/101/101
f 99/99/99 104/104/104 103/103/103
f 103/103/103 105/105/105 101/101/101
f 101/101/101 106/106/106 102/102/102
f 101/101/101 105/105/105 106/106/106
f 102/102/102 106/106/106 107/107/107
f 105/105/105 108/108/108 106/106/106
f 99/99/99 109/109/109 104/104/104
f 100/100/100 109/109/109 99/99/99
f 109/109/109 110/110/110 104/104/104
f 111/111/111 110/110/110 109/109/109
f 106/106/106 112/112/112 107/107/107
f 106/106/106 108/108/108 112/112/112
f 107/107/107 112/112/112 113/113/113
f 108/108/108 114/114/114 112/112/112
f 115/115/115 109/109/109 100/100/100
f 115/115/115 111/111/111 109/109/109
f 116/116/116 115/115/115 100/100/100
f 117/117/117 111/111/111 115/115/115
f 112/112/112 118/118/118 113/113/113
f 112/112/112 114/114/114 118/118/118
f 113/113/113 118/118/118 119/119/119
f 114/114/114 120/120/120 118/118/118
f 121/121/121 115/115/115 116/116/116
f 121/121/121 117/117/117 115/115/115
f 122/122/122 121/121/121 116/116/116
f 123/123/123 117/117/117 121/121/121
f 118/118/118 124/124/124 119/119/119
f 118/118/118 120/120/120 124/124/124
f 120/120/120 125/125/125 124/124/124
f 119/119/119 124/124/124 126/126/126
f 127/127/127 121/121/121 122/122/122
f 127/127/127 123/123/123 121/121/121
f 128/128/128 127/127/127 122/122/122
f 129/129/129 123/123/123 127/127/127
f 124/124/124 125/125/125 130/130/130
f 124/124/124 130/130/130 126/126/126
f 125/125/125 131/131/131 130/130/130
f 130/130/130 131/131/131 132/132/132
f 133/133/133 127/127/127 128/128/128
f 133/133/133 129/129/129 127/127/127
f 134/134/134 133/133/133 128/128/128
f 135/135/135 129/129/129 133/133/133
f 126/126/126 130/130/130 136/136/136
f 136/136/136 130/130/130 132/132/132
f 137/137/137 126/126/126 136/136/136
f 136/136/136 132/132/132 138/138/138
f 139/139/139 133/133/133 134/134/134
f 139/139/139 135/135/135 133/133/133
f 138/138/138 135/135/135 139/139/139
f 140/140/140 139/139/139 134/134/134
f 137/137/137 136/136/136 141/141/141
f 141/141/141 136/136/136 138/138/138
f 141/141/141 138/138/138 139/139/139
f 141/141/141 139/139/139 140/140/140
f 142/142/142 137/137/137 141/141/141
f 142/142/142 141/141/141 140/140/140
