g areaSlab02
v 1.057362 -0.3478235 -5.084916
v 2.907572 -2.427587 -4.318944
v 3.141068 -0.3478235 -4.499457
v 1.057362 -2.427587 -5.084916
v 3.12642 -4.541735 -4.556283
v -0.9995763 -0.3478235 -4.817782
v 1.019467 -4.426504 -5.264687
v -0.9995763 -2.427587 -5.001556
v -3.033292 -0.3478235 -4.058598
v -0.9995763 -4.427587 -5.001556
v -2.873741 -2.427587 -4.044994
v -2.873741 -4.427587 -4.044994
v 3.115306 -4.442661 -1.252992
v 2.907572 -2.427587 -4.318944
v 3.12642 -4.541735 -4.556283
v 2.919037 -2.427587 -1.230722
v 3.141068 -0.3478235 -4.499457
v 3.771078 -4.427587 1.38608
v 3.178265 -0.3478235 -1.230722
v 3.771078 -2.427587 1.38608
v 3.170892 -4.427587 3.720606
v 3.691703 -0.3478235 1.297096
v 3.170892 -2.427587 3.720606
v 0.8850526 -4.427587 4.074381
v 3.091522 -0.3478235 3.631622
v 0.8850526 -2.427587 4.074381
v -0.5729064 -4.427587 3.90086
v 0.8850526 -0.3478235 4.235225
v -0.5729064 -2.427587 3.90086
v -2.289132 -4.427587 3.587813
v -0.6958507 -0.3478235 4.235225
v -2.289132 -2.427587 3.587813
v -2.900607 -4.427587 1.544537
v -2.571061 -0.3478235 3.672486
v -3.068351 -2.427587 1.544537
v -3.224635 -4.427587 -1.176332
v -2.906891 -0.3478235 1.472867
v -3.372589 -2.427587 -1.176332
v -2.873741 -4.427587 -4.044994
v -3.557032 -0.3478235 -1.15915
v -2.873741 -2.427587 -4.044994
v -3.033292 -0.3478235 -4.058598
v -0.5729064 -4.427587 3.90086
v -0.5729064 -18.42759 3.90086
v -2.289132 -18.42759 3.587813
v -2.289132 -4.427587 3.587813
v 0.8850526 -4.427587 4.074381
v 0.8850526 -18.42759 4.074381
v -0.5729064 -18.42759 3.90086
v -0.5729064 -4.427587 3.90086
v 3.170892 -4.427587 3.720606
v 3.170892 -18.42759 3.720606
v 0.8850526 -18.42759 4.074381
v 0.8850526 -4.427587 4.074381
v -2.873741 -4.427587 -4.044994
v -2.873741 -18.42759 -4.044994
v -0.9995763 -18.42759 -5.001556
v -0.9995763 -4.427587 -5.001556
v -0.9995763 -4.427587 -5.001556
v -0.9995763 -18.42759 -5.001556
v 1.019467 -18.42759 -5.264687
v 1.019467 -4.426504 -5.264687
v 1.019467 -4.426504 -5.264687
v 1.019467 -18.42759 -5.264687
v 3.12642 -18.42759 -4.556283
v 3.12642 -4.541735 -4.556283
v 3.12642 -4.541735 -4.556283
v 3.12642 -18.42759 -4.556283
v 3.115306 -18.42759 -1.252992
v 3.115306 -4.442661 -1.252992
v 3.115306 -4.442661 -1.252992
v 3.115306 -18.42759 -1.252992
v 3.771078 -18.42759 1.38608
v 3.771078 -4.427587 1.38608
v 3.771078 -4.427587 1.38608
v 3.771078 -18.42759 1.38608
v 3.170892 -18.42759 3.720606
v 3.170892 -4.427587 3.720606
v -3.224635 -4.427587 -1.176332
v -3.224635 -18.42759 -1.176332
v -2.873741 -18.42759 -4.044994
v -2.873741 -4.427587 -4.044994
v -2.900607 -4.427587 1.544537
v -2.900607 -18.42759 1.544537
v -3.224635 -18.42759 -1.176332
v -3.224635 -4.427587 -1.176332
v -2.289132 -4.427587 3.587813
v -2.289132 -18.42759 3.587813
v -2.900607 -18.42759 1.544537
v -2.900607 -4.427587 1.544537
v -2.31525 6.103515E-07 3.366612
v -2.59047 6.103515E-07 1.347843
v -0.6049474 0 1.190001
v -0.6049474 6.103515E-07 3.828448
v -0.827633 6.103515E-07 -1.06225
v -3.199713 6.103515E-07 -1.06225
v -2.720099 0 -3.772338
v -0.8787658 6.103515E-07 -4.438256
v 0.968368 6.103515E-07 -4.678144
v 0.968368 6.103515E-07 -1.06225
v 2.87142 6.103515E-07 -4.163974
v 2.810663 0 -1.126523
v 0.8147058 0 1.190001
v 0.8147058 1.220703E-06 3.828448
v 3.375272 6.103515E-07 1.190001
v 2.815629 6.103515E-07 3.320528
v -2.906891 -0.3478235 1.472867
v -2.793907 -0.1551233 1.428223
v -2.479718 -0.1551233 3.563267
v -2.571061 -0.3478235 3.672486
v -3.557032 -0.3478235 -1.15915
v -0.6633898 -0.1551233 4.089976
v -0.6958507 -0.3478235 4.235225
v -3.42944 -0.1551233 -1.12455
v -3.033292 -0.3478235 -4.058598
v 0.8599353 -0.1551233 4.089976
v 0.8850526 -0.3478235 4.235225
v -2.921456 -0.1551233 -3.956381
v -0.9995763 -0.3478235 -4.817782
v 2.993006 -0.1551233 3.520538
v 3.091522 -0.3478235 3.631622
v -0.9564416 -0.1551233 -4.682265
v 1.057362 -0.3478235 -5.084916
v 3.578715 -0.1551233 1.258853
v 3.691703 -0.3478235 1.297096
v 1.025585 -0.1551233 -4.939667
v 3.141068 -0.3478235 -4.499457
v 3.047006 -0.1551233 -1.193515
v 3.178265 -0.3478235 -1.230722
v 3.044784 -0.1551233 -4.379662
v 2.815629 6.103515E-07 3.320528
v 0.8147058 1.220703E-06 3.828448
v 3.375272 6.103515E-07 1.190001
v 2.810663 0 -1.126523
v -0.6049474 6.103515E-07 3.828448
v 2.87142 6.103515E-07 -4.163974
v 0.968368 6.103515E-07 -4.678144
v -2.31525 6.103515E-07 3.366612
v -0.8787658 6.103515E-07 -4.438256
v -2.59047 6.103515E-07 1.347843
v -2.720099 0 -3.772338
v -3.199713 6.103515E-07 -1.06225
vt 0.5416667 0.5
vt 0.625 0.5833333
vt 0.625 0.5
vt 0.5416667 0.5833333
vt 0.625 0.6666666
vt 0.4583333 0.5
vt 0.5416667 0.6666666
vt 0.4583333 0.5833333
vt 0.375 0.5
vt 0.4583333 0.6666666
vt 0.375 0.5833333
vt 0.375 0.6666666
vt 0.7916667 0.08333334
vt 0.875 0.1666667
vt 0.875 0.08333334
vt 0.7916667 0.1666667
vt 0.875 0.25
vt 0.7083334 0.08333334
vt 0.7916667 0.25
vt 0.7083334 0.1666667
vt 0.625 0.08333334
vt 0.7083334 0.25
vt 0.625 0.1666667
vt 0.5416667 0.08333334
vt 0.625 0.25
vt 0.5416667 0.1666667
vt 0.4583333 0.08333334
vt 0.5416667 0.25
vt 0.4583333 0.1666667
vt 0.375 0.08333334
vt 0.4583333 0.25
vt 0.375 0.1666667
vt 0.2916667 0.08333334
vt 0.375 0.25
vt 0.2916667 0.1666667
vt 0.2083333 0.08333334
vt 0.2916667 0.25
vt 0.2083333 0.1666667
vt 0.125 0.08333334
vt 0.2083333 0.25
vt 0.125 0.1666667
vt 0.125 0.25
vt 0 0
vt 0 1
vt 1 1
vt 1 0
vt 0 0
vt 0 1
vt 1 1
vt 1 0
vt 0 0
vt 0 1
vt 1 1
vt 1 0
vt 0 0
vt 0 1
vt 1 1
vt 1 0
vt 0 0
vt 0 1
vt 1 1
vt 1 0
vt 0 0
vt 0 1
vt 1 1
vt 1 0
vt 0 0
vt 0 1
vt 1 1
vt 1 0
vt 0 0
vt 0 1
vt 1 1
vt 1 0
vt 0 0
vt 0 1
vt 1 1
vt 1 0
vt 0 0
vt 0 1
vt 1 1
vt 1 0
vt 0 0
vt 0 1
vt 1 1
vt 1 0
vt 0 0
vt 0 1
vt 1 1
vt 1 0
vt 0.375 0.25
vt 0.375 0.3333333
vt 0.4583333 0.3333333
vt 0.4583333 0.25
vt 0.4583333 0.4166667
vt 0.375 0.4166667
vt 0.375 0.5
vt 0.4583333 0.5
vt 0.5416667 0.5
vt 0.5416667 0.4166667
vt 0.625 0.5
vt 0.625 0.4166667
vt 0.5416667 0.3333333
vt 0.5416667 0.25
vt 0.625 0.3333333
vt 0.625 0.25
vt 0.375 0.3333333
vt 0.375 0.3333333
vt 0.375 0.25
vt 0.375 0.25
vt 0.375 0.4166667
vt 0.4583333 0.25
vt 0.4583333 0.25
vt 0.375 0.4166667
vt 0.375 0.5
vt 0.5416667 0.25
vt 0.5416667 0.25
vt 0.375 0.5
vt 0.4583333 0.5
vt 0.625 0.25
vt 0.625 0.25
vt 0.4583333 0.5
vt 0.5416667 0.5
vt 0.625 0.3333333
vt 0.625 0.3333333
vt 0.5416667 0.5
vt 0.625 0.5
vt 0.625 0.4166667
vt 0.625 0.4166667
vt 0.625 0.5
vt 0.625 0.25
vt 0.5416667 0.25
vt 0.625 0.3333333
vt 0.625 0.4166667
vt 0.4583333 0.25
vt 0.625 0.5
vt 0.5416667 0.5
vt 0.375 0.25
vt 0.4583333 0.5
vt 0.375 0.3333333
vt 0.375 0.5
vt 0.375 0.4166667
vn 0.1192125 0.0537794 -0.9914112
vn 0.8945384 0.005728735 -0.4469545
vn 0.8837009 -0.04878669 -0.4655024
vn 0.1359822 0.03723776 -0.9900112
vn 0.8723922 0.05439971 -0.4857701
vn -0.249895 0.09016749 -0.9640656
vn 0.1126355 0.009462608 -0.9935913
vn -0.2621762 0.02885277 -0.9645885
vn -0.8397137 0.01627947 -0.5427852
vn -0.2815708 -0.01187674 -0.9594669
vn -0.8424124 -0.03346398 -0.5377932
vn -0.8553281 0.01821907 -0.5177662
vn 0.9926727 0.04384897 -0.1125969
vn 0.8945384 0.005728735 -0.4469545
vn 0.8723922 0.05439971 -0.4857701
vn 0.9922953 -0.005094202 -0.1237906
vn 0.8837009 -0.04878669 -0.4655024
vn 0.9999945 -0.0005300149 -0.003290841
vn 0.9925028 -0.02697668 -0.1192078
vn 0.9997014 0.01307745 -0.0206383
vn 0.6924298 -0.009783793 0.7214189
vn 0.9987385 0.04697629 -0.01774176
vn 0.6922185 0.01101645 0.7216039
vn 0.07971675 0.02604506 0.9964772
vn 0.7026957 0.07587219 0.7074335
vn 0.07609776 -0.02949551 0.996664
vn -0.1559092 0.05613521 0.9861751
vn 0.108639 0.008957288 0.9940409
vn -0.1526278 -0.06434261 0.986187
vn -0.7286899 0.0387621 0.683746
vn -0.1585626 -0.04857821 0.9861531
vn -0.707926 -0.05772677 0.7039235
vn -0.9796411 0.006181625 0.2006613
vn -0.7503603 -0.01729592 0.6608027
vn -0.9772725 -0.03854378 0.2084534
vn -0.9998124 0.01858997 -0.005435743
vn -0.9772535 0.03775392 0.208687
vn -0.9985659 -0.0518197 -0.01345899
vn -0.8553281 0.01821907 -0.5177662
vn -0.9999129 0.0124228 -0.004461399
vn -0.8424124 -0.03346398 -0.5377932
vn -0.8397137 0.01627947 -0.5427852
vn -0.1559092 0.05613521 0.9861751
vn -0.1515182 0 0.9884545
vn -0.7114152 0 0.7027719
vn -0.7286899 0.0387621 0.683746
vn 0.07971675 0.02604506 0.9964772
vn 0.04809248 0 0.9988428
vn -0.1515182 0 0.9884545
vn -0.1559092 0.05613521 0.9861751
vn 0.6924298 -0.009783793 0.7214189
vn 0.681596 0 0.7317286
vn 0.04809248 0 0.9988428
vn 0.07971675 0.02604506 0.9964772
vn -0.8553281 0.01821907 -0.5177662
vn -0.8644001 0 -0.5028047
vn -0.2989564 0 -0.9542668
vn -0.2815708 -0.01187674 -0.9594669
vn -0.2815708 -0.01187674 -0.9594669
vn -0.2989564 0 -0.9542668
vn 0.106829 0 -0.9942774
vn 0.1126355 0.009462608 -0.9935913
vn 0.1126355 0.009462608 -0.9935913
vn 0.106829 0 -0.9942774
vn 0.8862414 0 -0.4632238
vn 0.8723922 0.05439971 -0.4857701
vn 0.8723922 0.05439971 -0.4857701
vn 0.8862414 0 -0.4632238
vn 0.9941398 0 -0.1081021
vn 0.9926727 0.04384897 -0.1125969
vn 0.9926727 0.04384897 -0.1125969
vn 0.9941398 0 -0.1081021
vn 0.9999384 0 -0.01110772
vn 0.9999945 -0.0005300149 -0.003290841
vn 0.9999945 -0.0005300149 -0.003290841
vn 0.9999384 0 -0.01110772
vn 0.681596 0 0.7317286
vn 0.6924298 -0.009783793 0.7214189
vn -0.9998124 0.01858997 -0.005435743
vn -0.9999884 0 -0.004806298
vn -0.8644001 0 -0.5028047
vn -0.8553281 0.01821907 -0.5177662
vn -0.9796411 0.006181625 0.2006613
vn -0.981261 0 0.1926835
vn -0.9999884 0 -0.004806298
vn -0.9998124 0.01858997 -0.005435743
vn -0.7286899 0.0387621 0.683746
vn -0.7114152 0 0.7027719
vn -0.981261 0 0.1926835
vn -0.9796411 0.006181625 0.2006613
vn -0.2328615 0.9575225 0.1700775
vn -0.1674561 0.9856994 0.01884711
vn -0.03596583 0.9993483 -0.003045192
vn -0.04334614 0.9846793 0.1689018
vn -0.02685158 0.9993399 0.02446851
vn -0.203368 0.9789804 0.0154565
vn -0.2704147 0.9504946 -0.1530875
vn -0.06003596 0.9914055 -0.1162358
vn 0.02864346 0.9889497 -0.1454586
vn 0.02060311 0.999541 0.02220832
vn 0.3288417 0.93259 -0.1487917
vn 0.1880986 0.9821444 -0.003360096
vn 0.02667255 0.9996387 -0.003317951
vn 0.03853101 0.9842851 0.1723315
vn 0.1946021 0.9808547 -0.007347893
vn 0.2008119 0.9629369 0.180075
vn -0.9772535 0.03775392 0.208687
vn -0.7981613 0.5802935 0.1618577
vn -0.5981964 0.6214523 0.505923
vn -0.7503603 -0.01729592 0.6608027
vn -0.9999129 0.0124228 -0.004461399
vn -0.1250912 0.5995012 0.7905381
vn -0.1585626 -0.04857821 0.9861531
vn -0.8236411 0.5670445 0.008709241
vn -0.8397137 0.01627947 -0.5427852
vn 0.1237503 0.5954859 0.7937772
vn 0.108639 0.008957288 0.9940409
vn -0.6498997 0.5682028 -0.5047534
vn -0.249895 0.09016749 -0.9640656
vn 0.5530509 0.6222785 0.5539894
vn 0.7026957 0.07587219 0.7074335
vn -0.2146129 0.4646323 -0.8591031
vn 0.1192125 0.0537794 -0.9914112
vn 0.8187295 0.5741031 0.009360302
vn 0.9987385 0.04697629 -0.01774176
vn 0.06562331 0.470186 -0.8801242
vn 0.8837009 -0.04878669 -0.4655024
vn 0.8592824 0.5076341 -0.06278092
vn 0.9925028 -0.02697668 -0.1192078
vn 0.7074763 0.5503301 -0.443412
vn 0.2008119 0.9629369 0.180075
vn 0.03853101 0.9842851 0.1723315
vn 0.1946021 0.9808547 -0.007347893
vn 0.1880986 0.9821444 -0.003360096
vn -0.04334614 0.9846793 0.1689018
vn 0.3288417 0.93259 -0.1487917
vn 0.02864346 0.9889497 -0.1454586
vn -0.2328615 0.9575225 0.1700775
vn -0.06003596 0.9914055 -0.1162358
vn -0.1674561 0.9856994 0.01884711
vn -0.2704147 0.9504946 -0.1530875
vn -0.203368 0.9789804 0.0154565
g areaSlab02_0
f 3/3/3 2/2/2 1/1/1
f 2/2/2 4/4/4 1/1/1
f 2/2/2 5/5/5 4/4/4
f 1/1/1 4/4/4 6/6/6
f 5/5/5 7/7/7 4/4/4
f 4/4/4 8/8/8 6/6/6
f 4/4/4 7/7/7 8/8/8
f 6/6/6 8/8/8 9/9/9
f 7/7/7 10/10/10 8/8/8
f 8/8/8 11/11/11 9/9/9
f 8/8/8 10/10/10 11/11/11
f 10/10/10 12/12/12 11/11/11
f 15/15/15 14/14/14 13/13/13
f 14/14/14 16/16/16 13/13/13
f 14/14/14 17/17/17 16/16/16
f 13/13/13 16/16/16 18/18/18
f 17/17/17 19/19/19 16/16/16
f 16/16/16 20/20/20 18/18/18
f 16/16/16 19/19/19 20/20/20
f 18/18/18 20/20/20 21/21/21
f 19/19/19 22/22/22 20/20/20
f 20/20/20 23/23/23 21/21/21
f 20/20/20 22/22/22 23/23/23
f 21/21/21 23/23/23 24/24/24
f 22/22/22 25/25/25 23/23/23
f 23/23/23 26/26/26 24/24/24
f 23/23/23 25/25/25 26/26/26
f 24/24/24 26/26/26 27/27/27
f 25/25/25 28/28/28 26/26/26
f 26/26/26 29/29/29 27/27/27
f 26/26/26 28/28/28 29/29/29
f 27/27/27 29/29/29 30/30/30
f 28/28/28 31/31/31 29/29/29
f 29/29/29 32/32/32 30/30/30
f 29/29/29 31/31/31 32/32/32
f 30/30/30 32/32/32 33/33/33
f 31/31/31 34/34/34 32/32/32
f 32/32/32 35/35/35 33/33/33
f 32/32/32 34/34/34 35/35/35
f 33/33/33 35/35/35 36/36/36
f 34/34/34 37/37/37 35/35/35
f 35/35/35 38/38/38 36/36/36
f 35/35/35 37/37/37 38/38/38
f 36/36/36 38/38/38 39/39/39
f 37/37/37 40/40/40 38/38/38
f 38/38/38 41/41/41 39/39/39
f 38/38/38 40/40/40 41/41/41
f 40/40/40 42/42/42 41/41/41
f 45/45/45 44/44/44 43/43/43
f 46/46/46 45/45/45 43/43/43
f 49/49/49 48/48/48 47/47/47
f 50/50/50 49/49/49 47/47/47
f 53/53/53 52/52/52 51/51/51
f 54/54/54 53/53/53 51/51/51
f 57/57/57 56/56/56 55/55/55
f 58/58/58 57/57/57 55/55/55
f 61/61/61 60/60/60 59/59/59
f 62/62/62 61/61/61 59/59/59
f 65/65/65 64/64/64 63/63/63
f 66/66/66 65/65/65 63/63/63
f 69/69/69 68/68/68 67/67/67
f 70/70/70 69/69/69 67/67/67
f 73/73/73 72/72/72 71/71/71
f 74/74/74 73/73/73 71/71/71
f 77/77/77 76/76/76 75/75/75
f 78/78/78 77/77/77 75/75/75
f 81/81/81 80/80/80 79/79/79
f 82/82/82 81/81/81 79/79/79
f 85/85/85 84/84/84 83/83/83
f 86/86/86 85/85/85 83/83/83
f 89/89/89 88/88/88 87/87/87
f 90/90/90 89/89/89 87/87/87
f 93/93/93 92/92/92 91/91/91
f 94/94/94 93/93/93 91/91/91
f 93/93/93 95/95/95 92/92/92
f 95/95/95 96/96/96 92/92/92
f 95/95/95 97/97/97 96/96/96
f 95/95/95 98/98/98 97/97/97
f 99/99/99 98/98/98 95/95/95
f 100/100/100 99/99/99 95/95/95
f 100/100/100 95/95/95 93/93/93
f 101/101/101 99/99/99 100/100/100
f 102/102/102 101/101/101 100/100/100
f 103/103/103 93/93/93 94/94/94
f 103/103/103 100/100/100 93/93/93
f 102/102/102 100/100/100 103/103/103
f 104/104/104 103/103/103 94/94/94
f 105/105/105 102/102/102 103/103/103
f 106/106/106 103/103/103 104/104/104
f 106/106/106 105/105/105 103/103/103
f 109/109/109 108/108/108 107/107/107
f 110/110/110 109/109/109 107/107/107
f 107/107/107 108/108/108 111/111/111
f 112/112/112 109/109/109 110/110/110
f 113/113/113 112/112/112 110/110/110
f 108/108/108 114/114/114 111/111/111
f 111/111/111 114/114/114 115/115/115
f 116/116/116 112/112/112 113/113/113
f 117/117/117 116/116/116 113/113/113
f 114/114/114 118/118/118 115/115/115
f 115/115/115 118/118/118 119/119/119
f 120/120/120 116/116/116 117/117/117
f 121/121/121 120/120/120 117/117/117
f 118/118/118 122/122/122 119/119/119
f 119/119/119 122/122/122 123/123/123
f 124/124/124 120/120/120 121/121/121
f 125/125/125 124/124/124 121/121/121
f 122/122/122 126/126/126 123/123/123
f 123/123/123 126/126/126 127/127/127
f 128/128/128 124/124/124 125/125/125
f 129/129/129 128/128/128 125/125/125
f 127/127/127 130/130/130 129/129/129
f 126/126/126 130/130/130 127/127/127
f 130/130/130 128/128/128 129/129/129
f 120/120/120 131/131/131 116/116/116
f 131/131/131 132/132/132 116/116/116
f 133/133/133 131/131/131 120/120/120
f 124/124/124 133/133/133 120/120/120
f 116/116/116 132/132/132 112/112/112
f 134/134/134 133/133/133 124/124/124
f 128/128/128 134/134/134 124/124/124
f 132/132/132 135/135/135 112/112/112
f 136/136/136 134/134/134 128/128/128
f 130/130/130 136/136/136 128/128/128
f 112/112/112 135/135/135 109/109/109
f 137/137/137 136/136/136 130/130/130
f 126/126/126 137/137/137 130/130/130
f 135/135/135 138/138/138 109/109/109
f 139/139/139 137/137/137 126/126/126
f 109/109/109 138/138/138 108/108/108
f 122/122/122 139/139/139 126/126/126
f 138/138/138 140/140/140 108/108/108
f 141/141/141 139/139/139 122/122/122
f 108/108/108 140/140/140 114/114/114
f 118/118/118 141/141/141 122/122/122
f 140/140/140 142/142/142 114/114/114
f 142/142/142 141/141/141 118/118/118
f 114/114/114 142/142/142 118/118/118
