g areaSlab15
v -0.3208154 -0.2104712 -2.483159
v 1.495415 -3.446509 -1.741343
v 1.672422 -0.2104712 -1.878184
v -0.3208154 -3.446509 -2.552822
v -1.845068 -0.2104712 -1.768208
v 1.661318 -6.769655 -1.921265
v -1.724116 -3.446509 -1.757895
v -0.3351758 -6.682712 -2.620957
v 1.737432 -29.5422 -1.931631
v -1.724116 -6.683123 -1.757895
v -0.3437353 -29.5422 -2.49999
v -1.82833 -29.5422 -1.775679
v 2.584277 -29.5422 0.02508789
v 1.661318 -6.769655 -1.921265
v 1.737432 -29.5422 -1.931631
v 2.543784 -6.688836 0.002021484
v 1.918154 -29.5422 1.8696
v 1.495415 -3.446509 -1.741343
v 1.953403 -6.683123 1.91832
v 0.04643555 -29.5422 2.328447
v 2.46939 -3.446509 0.01046875
v 1.672422 -0.2104712 -1.878184
v 2.537563 -0.2104712 -0.02326172
v 1.953403 -3.446509 1.91832
v 1.893232 -0.2104712 1.850859
v 0.05188965 -6.683123 2.148447
v -1.729878 -29.5422 1.834453
v 0.05188965 -3.446509 2.148447
v 0.005292969 -0.2104712 2.336152
v -1.54916 -6.683123 1.778223
v -2.489106 -29.5422 0.06260253
v -1.54916 -3.446509 1.778223
v -1.762886 -0.2104712 1.842412
v -2.538267 -6.683123 0.09114257
v -1.82833 -29.5422 -1.775679
v -1.724116 -6.683123 -1.757895
v -2.427671 -3.446509 0.09114257
v -2.516509 -0.2104712 0.07049316
v -1.724116 -3.446509 -1.757895
v -1.845068 -0.2104712 -1.768208
v -1.568965 0 1.610537
v -2.261133 0 0.0598291
v 0 0 -9.094947E-15
v 0.01308105 0 2.027783
v -1.607646 0 -1.551201
v 1.684082 0 1.615029
v -0.3087549 0 -2.185122
v 2.278286 0 -0.02436035
v 1.468008 0 -1.623862
v -2.516509 -0.2104712 0.07049316
v -2.425322 -0.09228393 0.06667969
v -1.693638 -0.09228393 1.759619
v -1.762886 -0.2104712 1.842412
v -1.845068 -0.2104712 -1.768208
v 0.008071288 -0.09228393 2.226045
v 0.005292969 -0.2104712 2.336152
v -1.760293 -0.09228393 -1.690718
v -0.3208154 -0.2104712 -2.483159
v 1.81855 -0.09228393 1.76665
v 1.893232 -0.2104712 1.850859
v -0.3165039 -0.09228393 -2.376743
v 1.672422 -0.2104712 -1.878184
v 2.44498 -0.09228393 -0.02365234
v 2.537563 -0.2104712 -0.02326172
v 1.599429 -0.09228393 -1.787373
v -1.568965 0 1.610537
v -2.261133 0 0.0598291
v 0.01308105 0 2.027783
v -1.607646 0 -1.551201
v 1.684082 0 1.615029
v -0.3087549 0 -2.185122
v 2.278286 0 -0.02436035
v 1.468008 0 -1.623862
vt 0.5 0.5
vt 0.625 0.5833333
vt 0.625 0.5
vt 0.5 0.5833333
vt 0.375 0.5
vt 0.625 0.6666666
vt 0.375 0.5833333
vt 0.5 0.6666666
vt 0.625 0.7499999
vt 0.375 0.6666666
vt 0.5 0.7499999
vt 0.375 0.7499999
vt 0.75 0
vt 0.875 0.08333334
vt 0.875 0
vt 0.75 0.08333334
vt 0.625 0
vt 0.875 0.1666667
vt 0.625 0.08333334
vt 0.5 0
vt 0.75 0.1666667
vt 0.875 0.25
vt 0.75 0.25
vt 0.625 0.1666667
vt 0.625 0.25
vt 0.5 0.08333334
vt 0.375 0
vt 0.5 0.1666667
vt 0.5 0.25
vt 0.375 0.08333334
vt 0.25 0
vt 0.375 0.1666667
vt 0.375 0.25
vt 0.25 0.08333334
vt 0.125 0
vt 0.125 0.08333334
vt 0.25 0.1666667
vt 0.25 0.25
vt 0.125 0.1666667
vt 0.125 0.25
vt 0.375 0.25
vt 0.375 0.375
vt 0.5 0.375
vt 0.5 0.25
vt 0.375 0.5
vt 0.625 0.25
vt 0.5 0.5
vt 0.625 0.375
vt 0.625 0.5
vt 0.375 0.375
vt 0.375 0.375
vt 0.375 0.25
vt 0.375 0.25
vt 0.375 0.5
vt 0.5 0.25
vt 0.5 0.25
vt 0.375 0.5
vt 0.5 0.5
vt 0.625 0.25
vt 0.625 0.25
vt 0.5 0.5
vt 0.625 0.5
vt 0.625 0.375
vt 0.625 0.375
vt 0.625 0.5
vt 0.375 0.25
vt 0.375 0.375
vt 0.5 0.25
vt 0.375 0.5
vt 0.625 0.25
vt 0.5 0.5
vt 0.625 0.375
vt 0.625 0.5
vn -0.01456813 0.01711145 -0.9997475
vn 0.6688929 0.007146131 -0.7433245
vn 0.6661931 -0.007445886 -0.7457421
vn -0.01559954 0.01022613 -0.999826
vn -0.7731402 0.007423902 -0.6341918
vn 0.6641185 0.005754986 -0.7476051
vn -0.7731774 -0.002227275 -0.6341859
vn -0.04687499 0.002633699 -0.9988973
vn 0.6637688 0.0001870504 -0.7479379
vn -0.772236 0.002173278 -0.635332
vn -0.04652916 -0.001519114 -0.9989158
vn -0.7719255 0.0004940024 -0.6357127
vn 0.9981263 0.001195 -0.06117591
vn 0.6641185 0.005754986 -0.7476051
vn 0.6637688 0.0001870504 -0.7479379
vn 0.9980019 0.004905834 -0.06299412
vn 0.6626484 0.001481197 0.7489291
vn 0.6688929 0.007146131 -0.7433245
vn 0.6616566 0.002093815 0.7498041
vn -0.02451631 0.004360922 0.9996899
vn 0.9953538 0.004150807 -0.09619567
vn 0.6661931 -0.007445886 -0.7457421
vn 0.9957169 0.002902588 -0.09240992
vn 0.6652491 -0.0001648034 0.7466215
vn 0.6725571 0.01989184 0.7397779
vn -0.0264062 0.003829995 0.9996439
vn -0.6455799 0.004765186 0.7636778
vn -0.02943296 -0.01583269 0.9994413
vn -0.02205352 -0.001949818 0.9997548
vn -0.6420947 0.005265384 0.7666072
vn -0.9992782 0.002369286 0.03791456
vn -0.6379728 -0.02159663 0.769756
vn -0.6612685 -0.02306721 0.7497944
vn -0.9991998 0.004162259 0.03978133
vn -0.7719255 0.0004940024 -0.6357127
vn -0.772236 0.002173278 -0.635332
vn -0.9989578 -0.01249084 0.04390191
vn -0.9993148 -0.0149468 0.03386156
vn -0.7731774 -0.002227275 -0.6341859
vn -0.7731402 0.007423902 -0.6341918
vn -0.07482221 0.9935635 0.08504815
vn -0.109242 0.9940144 0.001247014
vn 0 1 0
vn 5.678334E-05 0.9948729 0.1011334
vn -0.07982175 0.9943891 -0.06941698
vn 0.07742321 0.9934244 0.084342
vn -0.003492259 0.9941602 -0.1078582
vn 0.1091673 0.9939885 -0.00832975
vn 0.07141007 0.9939295 -0.08369405
vn -0.9993148 -0.0149468 0.03386156
vn -0.6332105 0.7738807 0.01237053
vn -0.4087965 0.787933 0.4604855
vn -0.6612685 -0.02306721 0.7497944
vn -0.7731402 0.007423902 -0.6341918
vn -0.001184554 0.7976487 0.6031211
vn -0.02205352 -0.001949818 0.9997548
vn -0.4656571 0.7884573 -0.4018687
vn -0.01456813 0.01711145 -0.9997475
vn 0.4112156 0.7954187 0.4452089
vn 0.6725571 0.01989184 0.7397779
vn -0.01711275 0.802866 -0.5959138
vn 0.6661931 -0.007445886 -0.7457421
vn 0.6301925 0.7754844 -0.03848851
vn 0.9957169 0.002902588 -0.09240992
vn 0.394934 0.7933886 -0.4632081
vn -0.07482221 0.9935635 0.08504815
vn -0.109242 0.9940144 0.001247014
vn 5.678334E-05 0.9948729 0.1011334
vn -0.07982175 0.9943891 -0.06941698
vn 0.07742321 0.9934244 0.084342
vn -0.003492259 0.9941602 -0.1078582
vn 0.1091673 0.9939885 -0.00832975
vn 0.07141007 0.9939295 -0.08369405
g areaSlab15_0
f 3/3/3 2/2/2 1/1/1
f 2/2/2 4/4/4 1/1/1
f 1/1/1 4/4/4 5/5/5
f 2/2/2 6/6/6 4/4/4
f 4/4/4 7/7/7 5/5/5
f 6/6/6 8/8/8 4/4/4
f 4/4/4 8/8/8 7/7/7
f 6/6/6 9/9/9 8/8/8
f 8/8/8 10/10/10 7/7/7
f 9/9/9 11/11/11 8/8/8
f 8/8/8 11/11/11 10/10/10
f 11/11/11 12/12/12 10/10/10
f 15/15/15 14/14/14 13/13/13
f 14/14/14 16/16/16 13/13/13
f 13/13/13 16/16/16 17/17/17
f 14/14/14 18/18/18 16/16/16
f 16/16/16 19/19/19 17/17/17
f 17/17/17 19/19/19 20/20/20
f 18/18/18 21/21/21 16/16/16
f 16/16/16 21/21/21 19/19/19
f 18/18/18 22/22/22 21/21/21
f 22/22/22 23/23/23 21/21/21
f 21/21/21 23/23/23 24/24/24
f 21/21/21 24/24/24 19/19/19
f 23/23/23 25/25/25 24/24/24
f 19/19/19 26/26/26 20/20/20
f 19/19/19 24/24/24 26/26/26
f 20/20/20 26/26/26 27/27/27
f 24/24/24 25/25/25 28/28/28
f 24/24/24 28/28/28 26/26/26
f 25/25/25 29/29/29 28/28/28
f 26/26/26 30/30/30 27/27/27
f 26/26/26 28/28/28 30/30/30
f 27/27/27 30/30/30 31/31/31
f 28/28/28 29/29/29 32/32/32
f 28/28/28 32/32/32 30/30/30
f 29/29/29 33/33/33 32/32/32
f 30/30/30 34/34/34 31/31/31
f 30/30/30 32/32/32 34/34/34
f 31/31/31 34/34/34 35/35/35
f 34/34/34 36/36/36 35/35/35
f 32/32/32 33/33/33 37/37/37
f 32/32/32 37/37/37 34/34/34
f 34/34/34 37/37/37 36/36/36
f 33/33/33 38/38/38 37/37/37
f 37/37/37 39/39/39 36/36/36
f 37/37/37 38/38/38 39/39/39
f 38/38/38 40/40/40 39/39/39
f 43/43/43 42/42/42 41/41/41
f 44/44/44 43/43/43 41/41/41
f 43/43/43 45/45/45 42/42/42
f 46/46/46 43/43/43 44/44/44
f 43/43/43 47/47/47 45/45/45
f 46/46/46 48/48/48 43/43/43
f 49/49/49 47/47/47 43/43/43
f 48/48/48 49/49/49 43/43/43
f 52/52/52 51/51/51 50/50/50
f 53/53/53 52/52/52 50/50/50
f 50/50/50 51/51/51 54/54/54
f 55/55/55 52/52/52 53/53/53
f 56/56/56 55/55/55 53/53/53
f 51/51/51 57/57/57 54/54/54
f 54/54/54 57/57/57 58/58/58
f 59/59/59 55/55/55 56/56/56
f 60/60/60 59/59/59 56/56/56
f 57/57/57 61/61/61 58/58/58
f 58/58/58 61/61/61 62/62/62
f 63/63/63 59/59/59 60/60/60
f 64/64/64 63/63/63 60/60/60
f 62/62/62 65/65/65 64/64/64
f 61/61/61 65/65/65 62/62/62
f 65/65/65 63/63/63 64/64/64
f 52/52/52 66/66/66 51/51/51
f 66/66/66 67/67/67 51/51/51
f 51/51/51 67/67/67 57/57/57
f 68/68/68 66/66/66 52/52/52
f 55/55/55 68/68/68 52/52/52
f 67/67/67 69/69/69 57/57/57
f 57/57/57 69/69/69 61/61/61
f 70/70/70 68/68/68 55/55/55
f 59/59/59 70/70/70 55/55/55
f 69/69/69 71/71/71 61/61/61
f 61/61/61 71/71/71 65/65/65
f 72/72/72 70/70/70 59/59/59
f 63/63/63 72/72/72 59/59/59
f 71/71/71 73/73/73 65/65/65
f 73/73/73 72/72/72 63/63/63
f 65/65/65 73/73/73 63/63/63
