g areaRamp02
v 1.140104 1.466092 -7.971086
v 2.213239 0.9052289 -6.980065
v 2.328879 1.543939 -7.098112
v 1.076677 0.8333319 -7.807096
v 2.047639 -4.973943 -7.083317
v -1.303562 1.469625 -7.931462
v 1.047287 -4.973943 -7.902907
v -1.303562 0.8300598 -7.807394
v -2.748039 1.514483 -7.237502
v -1.177562 -4.973943 -7.892487
v -2.628376 0.8488128 -7.167892
v -2.246383 -4.973943 -7.520529
v 2.368439 0.8299695 -5.425505
v 2.328879 1.543939 -7.098112
v 2.213239 0.9052289 -6.980065
v 2.605038 1.329758 -5.226218
v 3.36227 0.3362372 -1.679503
v 3.227433 -0.1010022 -1.824206
v 4.647383 -1.081991 1.572093
v 4.577007 -1.628105 1.393753
v 6.115586 -2.907331 4.096917
v 6.056055 -2.305069 4.28596
v 6.024122 -3.54604 6.233494
v 6.100772 -2.859117 6.301131
v 4.677144 -3.558677 7.520838
v 4.677144 -2.861374 7.64408
v -0.2306499 -3.544491 7.39076
v -0.3228619 -2.861374 7.64408
v -2.183278 -3.521953 6.119734
v -2.394723 -2.859268 6.18573
v -2.988883 -2.949997 4.099613
v -2.909724 -2.375145 4.290897
v -3.104567 -1.200461 1.683846
v -3.120104 -1.666618 1.521649
v -2.844157 0.2024628 -1.602804
v -2.796076 -0.2582501 -1.780807
v -2.964709 0.8039203 -5.390817
v -3.140031 1.301223 -5.160583
v -2.628376 0.8488128 -7.167892
v -2.748039 1.514483 -7.237502
v -2.964709 0.8039203 -5.390817
v -2.246383 -4.973943 -7.520529
v -2.628376 0.8488128 -7.167892
v -2.76735 -4.973943 -5.479303
v -2.473302 -4.973943 -1.964489
v -2.796076 -0.2582501 -1.780807
v -2.696149 -4.973943 1.207474
v -3.120104 -1.666618 1.521649
v -2.988883 -2.949997 4.099613
v -2.579694 -4.973943 3.75054
v -2.183278 -3.521953 6.119734
v -2.138195 -4.973945 5.237342
v -0.2306499 -3.544491 7.39076
v -0.2280474 -4.973945 6.506072
v 4.677144 -3.558677 7.520838
v 4.603775 -4.973945 6.52825
v 6.024122 -3.54604 6.233494
v 5.975918 -4.973945 5.470267
v 6.115586 -2.907331 4.096917
v 5.726026 -4.973943 3.801234
v 3.901049 -4.973943 1.167391
v 4.577007 -1.628105 1.393753
v 3.013847 -4.973943 -1.981256
v 3.227433 -0.1010022 -1.824206
v 2.368439 0.8299695 -5.425505
v 2.402138 -4.973943 -5.443927
v 2.213239 0.9052289 -6.980065
v 2.047639 -4.973943 -7.083317
v -2.20547 -2.4885 5.970516
v -2.593298 -2.042747 4.299076
v 0.02047311 -1.851618 4.210047
v -0.2319536 -2.478673 7.238738
v -0.08150198 -0.7315399 1.682786
v -2.710192 -0.888236 1.743748
v 4.282866 -1.851618 4.210047
v 4.606802 -2.470193 7.238768
v 5.824878 -2.541374 5.991229
v 5.739629 -1.972042 4.313963
v 4.239135 -0.8192175 1.627147
v 2.606713 -0.7315399 1.682786
v 2.927648 0.6463153 -1.546281
v 1.474797 0.7012482 -1.487365
v 2.144826 1.564844 -4.98778
v -0.6868755 0.7012482 -1.487365
v -2.487785 0.5789831 -1.45446
v 1.05111 1.564844 -4.922287
v 2.059231 1.812536 -6.799675
v -1.124661 1.564844 -4.922287
v -2.782712 1.564844 -4.945499
v -2.434845 1.812536 -6.986042
v 1.05111 1.812536 -6.795592
v 1.05111 1.812536 -7.598444
v -1.165324 1.812536 -6.785968
v -1.182752 1.812536 -7.584689
v 4.52983 -0.9134125 1.624242
v 3.36227 0.3362372 -1.679503
v 4.647383 -1.081991 1.572093
v 6.056055 -2.305069 4.28596
v 3.240146 0.4972937 -1.610055
v 2.605038 1.329758 -5.226218
v 5.943067 -2.128973 4.320814
v 6.100772 -2.859117 6.301131
v 4.239135 -0.8192175 1.627147
v 2.927648 0.6463153 -1.546281
v 5.739629 -1.972042 4.313963
v 6.002256 -2.683312 6.190711
v 4.677144 -2.861374 7.64408
v 5.824878 -2.541374 5.991229
v 2.473774 1.475773 -5.122169
v 2.144826 1.564844 -4.98778
v 2.059231 1.812536 -6.799675
v 4.652027 -2.685443 7.4995
v -0.3228619 -2.861374 7.64408
v 4.606802 -2.470193 7.238768
v 2.232595 1.729278 -6.994367
v 2.328879 1.543939 -7.098112
v 1.05111 1.812536 -7.598444
v -0.2904009 -2.685443 7.4995
v -2.394723 -2.859268 6.18573
v -0.2319536 -2.478673 7.238738
v 1.108327 1.653692 -7.841984
v 1.140104 1.466092 -7.971086
v -1.182752 1.812536 -7.584689
v -2.30338 -2.683468 6.077166
v -2.20547 -2.4885 5.970516
v -2.909724 -2.375145 4.290897
v -1.260428 1.656362 -7.812057
v -1.303562 1.469625 -7.931462
v -2.434845 1.812536 -6.986042
v -2.796735 -2.196499 4.319881
v -2.593298 -2.042747 4.299076
v -2.710192 -0.888236 1.743748
v -2.636208 1.698261 -7.151266
v -2.748039 1.514483 -7.237502
v -2.782712 1.564844 -4.945499
v -2.920202 -1.029712 1.730999
v -3.104567 -1.200461 1.683846
v -2.487785 0.5789831 -1.45446
v -3.012443 1.448279 -5.058922
v -3.140031 1.301223 -5.160583
v -2.704367 0.4497833 -1.500763
v -2.844157 0.2024628 -1.602804
vt 0.5416667 0.5
vt 0.625 0.6458333
vt 0.625 0.5
vt 0.5416667 0.6458333
vt 0.625 0.7499999
vt 0.4583333 0.5
vt 0.5416667 0.7499999
vt 0.4583333 0.6458333
vt 0.375 0.5
vt 0.4583333 0.7499999
vt 0.375 0.6458333
vt 0.375 0.7499999
vt 0.7916667 0.1041667
vt 0.875 0.25
vt 0.875 0.1041667
vt 0.7916667 0.25
vt 0.75 0.25
vt 0.75 0.1041667
vt 0.7291667 0.25
vt 0.7291667 0.1041667
vt 0.7083334 0.1041667
vt 0.7083334 0.25
vt 0.625 0.1041667
vt 0.625 0.25
vt 0.5416667 0.1041667
vt 0.5416667 0.25
vt 0.4583333 0.1041667
vt 0.4583333 0.25
vt 0.375 0.1041667
vt 0.375 0.25
vt 0.2916667 0.1041667
vt 0.2916667 0.25
vt 0.2708333 0.25
vt 0.2708333 0.1041667
vt 0.25 0.25
vt 0.25 0.1041667
vt 0.2083333 0.1041667
vt 0.2083333 0.25
vt 0.125 0.1041667
vt 0.125 0.25
vt 0.375 0.8333333
vt 0.375 0.7499999
vt 0.375 0.6458333
vt 0.375 0.8333333
vt 0.375 0.8749999
vt 0.375 0.8749999
vt 0.375 0.8958333
vt 0.375 0.8958333
vt 0.375 0.9166666
vt 0.375 0.9166666
vt 0.375 0.9999999
vt 0.375 0.9999999
vt 0.4583333 0.9999999
vt 0.4583333 0.9999999
vt 0.5416667 0.9999999
vt 0.5416667 0.9999999
vt 0.625 0.9999999
vt 0.625 0.9999999
vt 0.625 0.9166666
vt 0.625 0.9166666
vt 0.625 0.8958333
vt 0.625 0.8958333
vt 0.625 0.8749999
vt 0.625 0.8749999
vt 0.625 0.8333333
vt 0.625 0.8333333
vt 0.625 0.6458333
vt 0.625 0.7499999
vt 0.375 0.25
vt 0.375 0.3333333
vt 0.4583333 0.3333333
vt 0.4583333 0.25
vt 0.4583333 0.3541667
vt 0.375 0.3541667
vt 0.5416667 0.3333333
vt 0.5416667 0.25
vt 0.625 0.25
vt 0.625 0.3333333
vt 0.625 0.3541667
vt 0.5416667 0.3541667
vt 0.625 0.375
vt 0.5416667 0.375
vt 0.625 0.4166667
vt 0.4583333 0.375
vt 0.375 0.375
vt 0.5416667 0.4166667
vt 0.625 0.5
vt 0.4583333 0.4166667
vt 0.375 0.4166667
vt 0.375 0.5
vt 0.5416667 0.475
vt 0.5416667 0.5
vt 0.4583333 0.475
vt 0.4583333 0.5
vt 0.625 0.3541667
vt 0.625 0.375
vt 0.625 0.3541667
vt 0.625 0.3333333
vt 0.625 0.375
vt 0.625 0.4166667
vt 0.625 0.3333333
vt 0.625 0.25
vt 0.625 0.3541667
vt 0.625 0.375
vt 0.625 0.3333333
vt 0.625 0.25
vt 0.5416667 0.25
vt 0.625 0.25
vt 0.625 0.4166667
vt 0.625 0.4166667
vt 0.625 0.5
vt 0.5416667 0.25
vt 0.4583333 0.25
vt 0.5416667 0.25
vt 0.625 0.5
vt 0.625 0.5
vt 0.5416667 0.5
vt 0.4583333 0.25
vt 0.375 0.25
vt 0.4583333 0.25
vt 0.5416667 0.5
vt 0.5416667 0.5
vt 0.4583333 0.5
vt 0.375 0.25
vt 0.375 0.25
vt 0.375 0.3333333
vt 0.4583333 0.5
vt 0.4583333 0.5
vt 0.375 0.5
vt 0.375 0.3333333
vt 0.375 0.3333333
vt 0.375 0.3541667
vt 0.375 0.5
vt 0.375 0.5
vt 0.375 0.4166667
vt 0.375 0.3541667
vt 0.375 0.3541667
vt 0.375 0.375
vt 0.375 0.4166667
vt 0.375 0.4166667
vt 0.375 0.375
vt 0.375 0.375
vn 0.2305515 -0.04721385 -0.9719141
vn 0.8795316 -0.03702535 -0.4743979
vn 0.8587832 -0.04356358 -0.5104837
vn 0.2414875 -0.01649565 -0.9702637
vn 0.8740082 -0.003834886 -0.485896
vn -0.1788933 -0.02032663 -0.9836585
vn 0.2348271 0.01163417 -0.9719675
vn -0.1521627 -0.008069753 -0.9883226
vn -0.8197063 0.0131059 -0.5726342
vn -0.1417249 0.01660809 -0.9897668
vn -0.8373082 -0.04256552 -0.5450717
vn -0.8151225 -0.0177015 -0.5790179
vn 0.9806398 -0.03872282 -0.1919537
vn 0.8587832 -0.04356358 -0.5104837
vn 0.8795316 -0.03702535 -0.4743979
vn 0.9808809 -0.01803047 -0.1937722
vn 0.9596872 0.08351459 -0.2683759
vn 0.9631962 -0.05164545 -0.2637911
vn 0.9183028 0.1858155 -0.3495606
vn 0.9070193 -0.07481807 -0.414389
vn 0.911154 -0.07751478 -0.4047095
vn 0.9596595 0.1741512 -0.2207376
vn 0.8890204 -0.2514914 0.3826159
vn 0.9175483 0.0528522 0.394096
vn 0.146368 -0.4536181 0.8790945
vn 0.1805769 -0.04387452 0.9825819
vn -0.1605028 -0.4611764 0.8726713
vn -0.1985292 -0.07282572 0.9773856
vn -0.7120033 -0.3532492 0.6068495
vn -0.7952653 -0.07019161 0.6021848
vn -0.9830566 -0.1509254 0.1040246
vn -0.9693263 0.1046784 0.2223713
vn -0.9752368 0.2084234 0.07397865
vn -0.9942762 -0.08576175 -0.0637155
vn -0.9924762 0.1138798 0.04497202
vn -0.9976289 -0.06882006 0.0006547773
vn -0.9957501 -0.06638944 -0.0638291
vn -0.9998415 0.006550405 -0.01655427
vn -0.8373082 -0.04256552 -0.5450717
vn -0.8197063 0.0131059 -0.5726342
vn -0.9957501 -0.06638944 -0.0638291
vn -0.8151225 -0.0177015 -0.5790179
vn -0.8373082 -0.04256552 -0.5450717
vn -0.9976844 -0.04730319 -0.04887029
vn -0.9978495 -0.06517312 -0.006990139
vn -0.9976289 -0.06882006 0.0006547773
vn -0.9918563 -0.1085085 -0.06668587
vn -0.9942762 -0.08576175 -0.0637155
vn -0.9830566 -0.1509254 0.1040246
vn -0.9797126 -0.1775647 0.09292007
vn -0.7120033 -0.3532492 0.6068495
vn -0.7955059 -0.3397824 0.5017154
vn -0.1605028 -0.4611764 0.8726713
vn -0.1853691 -0.5344414 0.8246276
vn 0.146368 -0.4536181 0.8790945
vn 0.1653325 -0.5422779 0.8237718
vn 0.8890204 -0.2514914 0.3826159
vn 0.9465047 -0.2442625 0.2108663
vn 0.911154 -0.07751478 -0.4047095
vn 0.8891115 -0.1120482 -0.4437633
vn 0.9028317 -0.09407295 -0.4195776
vn 0.9070193 -0.07481807 -0.414389
vn 0.9633058 -0.0426779 -0.2649912
vn 0.9631962 -0.05164545 -0.2637911
vn 0.9806398 -0.03872282 -0.1919537
vn 0.9817452 -0.01192701 -0.1898265
vn 0.8795316 -0.03702535 -0.4743979
vn 0.8740082 -0.003834886 -0.485896
vn -0.2044931 0.9338245 0.2935205
vn -0.1144679 0.9162491 0.3839071
vn -0.0186702 0.9514506 0.3072347
vn -0.03461314 0.9636941 0.2647556
vn -0.02112181 0.9115717 0.4105983
vn -0.09969091 0.9064273 0.4104279
vn 0.01930877 0.9584383 0.2846456
vn 0.03469771 0.9656564 0.2574952
vn 0.2862594 0.9280568 0.2382564
vn 0.1620182 0.9360356 0.31239
vn 0.1152644 0.92655 0.3580774
vn 0.01829027 0.9156634 0.4015298
vn 0.1100145 0.9419746 0.3171444
vn 0.01556034 0.9420121 0.3352182
vn 0.1127704 0.9710448 0.2106054
vn -0.02011058 0.9406446 0.3387971
vn -0.09537293 0.9323512 0.3487481
vn 0.008509384 0.9771516 0.2123732
vn 0.1719935 0.984683 0.02859363
vn -0.01203066 0.9761333 0.2168383
vn -0.1200797 0.9656007 0.2306427
vn -0.1695958 0.9854496 -0.01124285
vn 0.000233235 0.9957628 0.09195807
vn 0.03546714 0.9818832 -0.1861386
vn -0.003447641 0.9956461 0.09315015
vn -0.02807679 0.9808246 -0.19286
vn 0.6111734 0.7885216 0.06856114
vn 0.9596872 0.08351459 -0.2683759
vn 0.9183028 0.1858155 -0.3495606
vn 0.9596595 0.1741512 -0.2207376
vn 0.5520039 0.824173 0.1266114
vn 0.9808809 -0.01803047 -0.1937722
vn 0.6959451 0.7166137 0.04609898
vn 0.9175483 0.0528522 0.394096
vn 0.1152644 0.92655 0.3580774
vn 0.1100145 0.9419746 0.3171444
vn 0.1620182 0.9360356 0.31239
vn 0.6270551 0.6937168 0.3543429
vn 0.1805769 -0.04387452 0.9825819
vn 0.2862594 0.9280568 0.2382564
vn 0.5621278 0.8227074 0.08464561
vn 0.1127704 0.9710448 0.2106054
vn 0.1719935 0.984683 0.02859363
vn 0.1297625 0.7325167 0.6682671
vn -0.1985292 -0.07282572 0.9773856
vn 0.03469771 0.9656564 0.2574952
vn 0.5532221 0.7949132 -0.2491154
vn 0.8587832 -0.04356358 -0.5104837
vn 0.03546714 0.9818832 -0.1861386
vn -0.1351299 0.7124191 0.6886211
vn -0.7952653 -0.07019161 0.6021848
vn -0.03461314 0.9636941 0.2647556
vn 0.1365715 0.7293397 -0.6703818
vn 0.2305515 -0.04721385 -0.9719141
vn -0.02807679 0.9808246 -0.19286
vn -0.5595027 0.6433179 0.5225886
vn -0.2044931 0.9338245 0.2935205
vn -0.9693263 0.1046784 0.2223713
vn -0.1159673 0.7194131 -0.6848331
vn -0.1788933 -0.02032663 -0.9836585
vn -0.1695958 0.9854496 -0.01124285
vn -0.6845018 0.6429381 0.3436394
vn -0.1144679 0.9162491 0.3839071
vn -0.09969091 0.9064273 0.4104279
vn -0.539919 0.7805535 -0.3149978
vn -0.8197063 0.0131059 -0.5726342
vn -0.1200797 0.9656007 0.2306427
vn -0.6809223 0.6726729 0.289579
vn -0.9752368 0.2084234 0.07397865
vn -0.09537293 0.9323512 0.3487481
vn -0.7091459 0.688462 0.1520928
vn -0.9998415 0.006550405 -0.01655427
vn -0.693186 0.6742386 0.2547459
vn -0.9924762 0.1138798 0.04497202
g areaRamp02_0
f 3/3/3 2/2/2 1/1/1
f 2/2/2 4/4/4 1/1/1
f 2/2/2 5/5/5 4/4/4
f 1/1/1 4/4/4 6/6/6
f 5/5/5 7/7/7 4/4/4
f 4/4/4 8/8/8 6/6/6
f 4/4/4 7/7/7 8/8/8
f 6/6/6 8/8/8 9/9/9
f 7/7/7 10/10/10 8/8/8
f 8/8/8 11/11/11 9/9/9
f 8/8/8 10/10/10 11/11/11
f 10/10/10 12/12/12 11/11/11
f 15/15/15 14/14/14 13/13/13
f 14/14/14 16/16/16 13/13/13
f 13/13/13 16/16/16 17/17/17
f 18/18/18 13/13/13 17/17/17
f 18/18/18 17/17/17 19/19/19
f 20/20/20 18/18/18 19/19/19
f 20/20/20 19/19/19 21/21/21
f 19/19/19 22/22/22 21/21/21
f 21/21/21 22/22/22 23/23/23
f 22/22/22 24/24/24 23/23/23
f 23/23/23 24/24/24 25/25/25
f 24/24/24 26/26/26 25/25/25
f 25/25/25 26/26/26 27/27/27
f 26/26/26 28/28/28 27/27/27
f 27/27/27 28/28/28 29/29/29
f 28/28/28 30/30/30 29/29/29
f 29/29/29 30/30/30 31/31/31
f 30/30/30 32/32/32 31/31/31
f 31/31/31 32/32/32 33/33/33
f 34/34/34 31/31/31 33/33/33
f 34/34/34 33/33/33 35/35/35
f 36/36/36 34/34/34 35/35/35
f 36/36/36 35/35/35 37/37/37
f 35/35/35 38/38/38 37/37/37
f 37/37/37 38/38/38 39/39/39
f 38/38/38 40/40/40 39/39/39
f 43/43/43 42/42/42 41/41/41
f 42/42/42 44/44/44 41/41/41
f 41/41/41 44/44/44 45/45/45
f 46/46/46 41/41/41 45/45/45
f 46/46/46 45/45/45 47/47/47
f 48/48/48 46/46/46 47/47/47
f 48/48/48 47/47/47 49/49/49
f 47/47/47 50/50/50 49/49/49
f 49/49/49 50/50/50 51/51/51
f 50/50/50 52/52/52 51/51/51
f 51/51/51 52/52/52 53/53/53
f 52/52/52 54/54/54 53/53/53
f 53/53/53 54/54/54 55/55/55
f 54/54/54 56/56/56 55/55/55
f 55/55/55 56/56/56 57/57/57
f 56/56/56 58/58/58 57/57/57
f 57/57/57 58/58/58 59/59/59
f 58/58/58 60/60/60 59/59/59
f 59/59/59 60/60/60 61/61/61
f 62/62/62 59/59/59 61/61/61
f 62/62/62 61/61/61 63/63/63
f 64/64/64 62/62/62 63/63/63
f 64/64/64 63/63/63 65/65/65
f 63/63/63 66/66/66 65/65/65
f 65/65/65 66/66/66 67/67/67
f 66/66/66 68/68/68 67/67/67
f 71/71/71 70/70/70 69/69/69
f 72/72/72 71/71/71 69/69/69
f 71/71/71 73/73/73 70/70/70
f 73/73/73 74/74/74 70/70/70
f 75/75/75 71/71/71 72/72/72
f 76/76/76 75/75/75 72/72/72
f 77/77/77 75/75/75 76/76/76
f 77/77/77 78/78/78 75/75/75
f 78/78/78 79/79/79 75/75/75
f 75/75/75 80/80/80 71/71/71
f 79/79/79 80/80/80 75/75/75
f 80/80/80 73/73/73 71/71/71
f 79/79/79 81/81/81 80/80/80
f 81/81/81 82/82/82 80/80/80
f 80/80/80 82/82/82 73/73/73
f 81/81/81 83/83/83 82/82/82
f 73/73/73 84/84/84 74/74/74
f 82/82/82 84/84/84 73/73/73
f 84/84/84 85/85/85 74/74/74
f 83/83/83 86/86/86 82/82/82
f 82/82/82 86/86/86 84/84/84
f 83/83/83 87/87/87 86/86/86
f 84/84/84 88/88/88 85/85/85
f 86/86/86 88/88/88 84/84/84
f 88/88/88 89/89/89 85/85/85
f 88/88/88 90/90/90 89/89/89
f 87/87/87 91/91/91 86/86/86
f 86/86/86 91/91/91 88/88/88
f 87/87/87 92/92/92 91/91/91
f 88/88/88 93/93/93 90/90/90
f 91/91/91 93/93/93 88/88/88
f 91/91/91 92/92/92 93/93/93
f 93/93/93 94/94/94 90/90/90
f 92/92/92 94/94/94 93/93/93
f 97/97/97 96/96/96 95/95/95
f 97/97/97 95/95/95 98/98/98
f 96/96/96 99/99/99 95/95/95
f 96/96/96 100/100/100 99/99/99
f 95/95/95 101/101/101 98/98/98
f 98/98/98 101/101/101 102/102/102
f 95/95/95 99/99/99 103/103/103
f 95/95/95 103/103/103 101/101/101
f 99/99/99 104/104/104 103/103/103
f 103/103/103 105/105/105 101/101/101
f 101/101/101 106/106/106 102/102/102
f 101/101/101 105/105/105 106/106/106
f 102/102/102 106/106/106 107/107/107
f 105/105/105 108/108/108 106/106/106
f 99/99/99 109/109/109 104/104/104
f 100/100/100 109/109/109 99/99/99
f 109/109/109 110/110/110 104/104/104
f 111/111/111 110/110/110 109/109/109
f 106/106/106 112/112/112 107/107/107
f 106/106/106 108/108/108 112/112/112
f 107/107/107 112/112/112 113/113/113
f 108/108/108 114/114/114 112/112/112
f 115/115/115 109/109/109 100/100/100
f 115/115/115 111/111/111 109/109/109
f 116/116/116 115/115/115 100/100/100
f 117/117/117 111/111/111 115/115/115
f 112/112/112 118/118/118 113/113/113
f 112/112/112 114/114/114 118/118/118
f 113/113/113 118/118/118 119/119/119
f 114/114/114 120/120/120 118/118/118
f 121/121/121 115/115/115 116/116/116
f 121/121/121 117/117/117 115/115/115
f 122/122/122 121/121/121 116/116/116
f 123/123/123 117/117/117 121/121/121
f 118/118/118 124/124/124 119/119/119
f 118/118/118 120/120/120 124/124/124
f 120/120/120 125/125/125 124/124/124
f 119/119/119 124/124/124 126/126/126
f 127/127/127 121/121/121 122/122/122
f 127/127/127 123/123/123 121/121/121
f 128/128/128 127/127/127 122/122/122
f 129/129/129 123/123/123 127/127/127
f 124/124/124 125/125/125 130/130/130
f 124/124/124 130/130/130 126/126/126
f 125/125/125 131/131/131 130/130/130
f 130/130/130 131/131/131 132/132/132
f 133/133/133 127/127/127 128/128/128
f 133/133/133 129/129/129 127/127/127
f 134/134/134 133/133/133 128/128/128
f 135/135/135 129/129/129 133/133/133
f 126/126/126 130/130/130 136/136/136
f 136/136/136 130/130/130 132/132/132
f 137/137/137 126/126/126 136/136/136
f 136/136/136 132/132/132 138/138/138
f 139/139/139 133/133/133 134/134/134
f 139/139/139 135/135/135 133/133/133
f 138/138/138 135/135/135 139/139/139
f 140/140/140 139/139/139 134/134/134
f 137/137/137 136/136/136 141/141/141
f 141/141/141 136/136/136 138/138/138
f 141/141/141 138/138/138 139/139/139
f 141/141/141 139/139/139 140/140/140
f 142/142/142 137/137/137 141/141/141
f 142/142/142 141/141/141 140/140/140
