g Cliff_H
v -0.3499988 4.118353 -1.634912
v -0.5962781 2.268404 -1.696306
v -0.5655627 2.234409 -1.690449
v 0.9953381 4.016179 -1.604568
v 0.9253039 4.093033 -1.604829
v 0.9263611 4.023673 -1.683564
v -0.5655627 2.234409 -1.690449
v -0.6711243 2.30812 -1.628154
v -0.6772131 2.23273 -1.472312
v -0.5962781 2.268404 -1.696306
v -0.4209485 4.124882 -1.556658
v -0.3499988 4.118353 -1.634912
v -0.6772131 2.23273 -1.472312
v -0.5705969 2.983227 -0.9359521
v -0.7558069 1.432085 0.8640015
v -0.4392151 4.120349 -1.139617
v -0.3394177 4.186731 -1.556575
v -0.3499988 4.118353 -1.634912
v -0.3588318 4.185679 -1.131321
v -0.5665173 3.988275 -0.1203345
v -0.4657288 3.987673 0.38172
v -0.4391736 4.144714 -0.1948547
v -0.3547449 4.091656 0.3044018
v -0.4860705 4.00809 1.116894
v -0.4133777 4.082156 1.121001
v -0.9774231 -1.229052E-06 -0.04218994
v -1.004176 -1.229052E-06 -1.702622
v -0.9440076 -1.229052E-06 0.9664795
v -0.6894641 2.217192 -1.628855
v -0.9532031 -1.229052E-06 -1.793608
v -0.6106409 2.225594 -1.698018
v -0.6772131 2.23273 -1.472312
v -0.5655627 2.234409 -1.690449
v -0.8244519 -8.349114E-09 2.004296
v -0.6031165 1.798143 1.872585
v -0.5729749 3.802752 1.846328
v -0.5236682 1.794502 1.939275
v -0.7473254 -1.229052E-06 2.055391
v -0.5027453 3.795524 1.922827
v -0.5303454 4.002005 1.842322
v -0.4133777 4.082156 1.121001
v -0.449491 4.069672 1.842197
v -0.4606164 3.996848 1.918042
v 0.211239 3.52545 1.930178
v 0.5461658 1.353262 -1.843257
v 0.1658923 3.338098 -1.737346
v -0.02237427 1.487276 -1.855994
v 0.9263611 4.023673 -1.683564
v 0.3366833 4.075832 -1.701497
v 0.9253039 4.093033 -1.604829
v 0.3410583 4.144864 -1.624019
v 0.7452112 1.634264 -1.77499
v 0.6408557 -1.229052E-06 -2.056926
v 0.7086975 -1.229052E-06 -2.004275
v 0.8309607 1.797568 -1.685123
v 0.8728454 2.221046 -0.3546143
v 0.7519885 -1.229052E-06 -0.8462793
v 0.9953381 4.016179 -1.604568
v 0.9140515 -1.229052E-06 0.7399536
v 0.9072595 4.035991 -0.08176514
v 0.8344421 4.109702 -0.08980957
v 0.9253039 4.093033 -1.604829
v 0.873966 2.2189 1.790631
v 0.8545203 -1.229052E-06 1.360525
v 0.8505163 1.417821 1.828448
v 0.8108532 -1.229052E-06 1.815713
v 0.7444275 -8.349114E-09 1.887142
v 0.7430627 1.445847 1.885204
v 0.06689331 0.6540419 1.899932
v -0.2653723 -1.229052E-06 1.947668
v 0.7541223 2.25474 1.883724
v -0.05475952 1.855441 1.911238
v -0.5236682 1.794502 1.939275
v -0.7473254 -1.229052E-06 2.055391
v 0.211239 3.52545 1.930178
v -0.5027453 3.795524 1.922827
v 0.9236169 3.233445 1.777976
v 0.8073791 3.268158 1.891351
v 0.9405212 4.107402 1.815894
v 0.8678186 4.103852 1.89584
v 0.8852527 4.081914 0.3802881
v 0.8632898 4.176796 1.818645
v 0.8070568 4.150412 0.375769
v 0.8344421 4.109702 -0.08980957
v 0.8632898 4.176796 1.818645
v 0.4273254 4.132764 1.838313
v 0.4351697 4.060082 1.912122
v -0.4606164 3.996848 1.918042
v -0.449491 4.069672 1.842197
v 0.5461658 1.353262 -1.843257
v 0.2465515 -1.229052E-06 -1.962649
v 0.6408557 -1.229052E-06 -2.056926
v -0.02237427 1.487276 -1.855994
v -0.4362976 -1.229052E-06 -1.795959
v -0.9532031 -1.229052E-06 -1.793608
v -0.6106409 2.225594 -1.698018
v -0.5655627 2.234409 -1.690449
v 0.1658923 3.338098 -1.737346
v -0.1336926 4.077027 -1.665369
v -0.3499988 4.118353 -1.634912
v 0.3366833 4.075832 -1.701497
v 0.3410583 4.144864 -1.624019
v -0.1187048 4.15024 -1.59261
v -0.1187048 4.15024 -1.59261
v -0.3499988 4.118353 -1.634912
v -0.1336926 4.077027 -1.665369
v -0.3394177 4.186731 -1.556575
v -0.3588318 4.185679 -1.131321
v 0.4056946 4.119199 -1.356882
v 0.3410583 4.144864 -1.624019
v -0.5665173 3.988275 -0.1203345
v -0.4392151 4.120349 -1.139617
v -0.4391736 4.144714 -0.1948547
v 0.4056946 4.119199 -1.356882
v 0.9253039 4.093033 -1.604829
v 0.4056946 4.119199 -1.356882
v -0.4391736 4.144714 -0.1948547
v -0.3547449 4.091656 0.3044018
v -0.3547449 4.091656 0.3044018
v 0.8344421 4.109702 -0.08980957
v -0.4133777 4.082156 1.121001
v -0.4133777 4.082156 1.121001
v 0.8344421 4.109702 -0.08980957
v 0.8070568 4.150412 0.375769
v -0.449491 4.069672 1.842197
v 0.4273254 4.132764 1.838313
v 0.8632898 4.176796 1.818645
vt 0.8576547 0.9069474
vt 0.8710852 0.5077639
vt 0.8698039 0.5004285
vt 0.8510168 0.8849028
vt 0.8683426 0.8855629
vt 0.8682983 0.8865197
vt 0.8698039 0.5004285
vt 0.8561764 0.5163342
vt 0.8220841 0.5000662
vt 0.8710852 0.5077639
vt 0.8405331 0.9083523
vt 0.8576547 0.9069474
vt 0.8220841 0.5000662
vt 0.7047498 0.6620101
vt 0.3109907 0.3273016
vt 0.7493037 0.9073806
vt 0.8412149 0.9234164
vt 0.8461552 0.9101245
vt 0.7487942 0.9230773
vt 0.523751 0.9002907
vt 0.4235458 0.8869699
vt 0.5189427 0.9164844
vt 0.4227196 0.9012167
vt 0.2556672 0.8831571
vt 0.2554333 0.8983725
vt 0.5092297 0.01828309
vt 0.8724673 0.01828311
vt 0.2885722 0.01828309
vt 0.8563296 0.4967133
vt 0.8926935 0.02644046
vt 0.8714598 0.4985264
vt 0.8220841 0.5000662
vt 0.8698039 0.5004285
vt 0.06153867 0.02912095
vt 0.09038557 0.4062005
vt 0.09602831 0.8388453
vt 0.07576275 0.4055044
vt 0.05036125 0.0182831
vt 0.07936087 0.837289
vt 0.09697222 0.8818441
vt 0.2434802 0.8981693
vt 0.09637985 0.895668
vt 0.08040766 0.8807313
vt 0.07775258 0.7790122
vt 0.9032323 0.3102928
vt 0.8800634 0.7385849
vt 0.9060187 0.3392106
vt 0.8682983 0.8865197
vt 0.8722206 0.8977748
vt 0.8676416 0.9021518
vt 0.8715274 0.9133234
vt 0.8882983 0.3709281
vt 0.9497364 0.03955286
vt 0.9311754 0.03709068
vt 0.8686391 0.406166
vt 0.5775759 0.4975451
vt 0.6851326 0.01828309
vt 0.8510168 0.8849028
vt 0.3381271 0.01828309
vt 0.5178869 0.8891778
vt 0.5199278 0.9038271
vt 0.8500642 0.900228
vt 0.1035452 0.5068069
vt 0.2023704 0.01828309
vt 0.09752942 0.334716
vt 0.1027934 0.01828309
vt 0.08716726 0.02476491
vt 0.08734178 0.3403257
vt 0.08436938 0.1594136
vt 0.0739266 0.01828309
vt 0.08718646 0.5074534
vt 0.08189593 0.418654
vt 0.07576275 0.4055044
vt 0.05036125 0.0182831
vt 0.07775258 0.7790122
vt 0.07936087 0.837289
vt 0.1015119 0.7212203
vt 0.08492543 0.721738
vt 0.1027541 0.9045868
vt 0.0850328 0.903821
vt 0.4168078 0.8990871
vt 0.1028052 0.9197048
vt 0.4184532 0.9140123
vt 0.5187044 0.9046367
vt 0.08525692 0.9198405
vt 0.08180002 0.910118
vt 0.08155924 0.8943788
vt 0.08040766 0.8807313
vt 0.08085769 0.8965188
vt 0.9032323 0.3102928
vt 0.9293509 0.01828309
vt 0.9499748 0.01828309
vt 0.9060187 0.3392106
vt 0.8928856 0.01828309
vt 0.8926935 0.02644046
vt 0.8714598 0.4985264
vt 0.8698039 0.5004285
vt 0.8800634 0.7385849
vt 0.8645411 0.8980448
vt 0.8576547 0.9069474
vt 0.8722206 0.8977748
vt 0.8714679 0.913697
vt 0.8639123 0.9133497
vt 0.9096912 0.9841562
vt 0.9181501 0.9841562
vt 0.9246414 0.9841562
vt 0.9019696 0.9841562
vt 0.8108416 0.9841562
vt 0.8591769 0.9841562
vt 0.9164483 0.9841562
vt 0.5917469 0.9841562
vt 0.8120233 0.9841562
vt 0.5917298 0.9841563
vt 0.8591769 0.9841562
vt 0.9123083 0.9841562
vt 0.8591769 0.9841562
vt 0.5917298 0.9841563
vt 0.4942992 0.9841562
vt 0.4942992 0.9841562
vt 0.5876558 0.9841562
vt 0.3281908 0.9841563
vt 0.3281908 0.9841563
vt 0.5876558 0.9841562
vt 0.487887 0.9841562
vt 0.1736458 0.9841562
vt 0.1744777 0.9841562
vt 0.1786925 0.9841562
vn -0.2488328 0.0847831 -0.9648286
vn -0.2087343 0.04169935 -0.977083
vn -0.1612821 0.06891654 -0.9844992
vn 0.9994592 -0.0160779 -0.02868369
vn 0.1641599 0.9860102 -0.02890461
vn 0.2711082 0.07741992 -0.9594303
vn -0.66577 -0.661161 -0.3458561
vn -0.980167 0.1260351 -0.1529309
vn -0.6657699 -0.661161 -0.3458561
vn -0.2087343 0.04169935 -0.977083
vn -0.9498661 0.1870325 -0.250546
vn -0.2488328 0.0847831 -0.9648286
vn -0.9900856 0.1392982 0.01807456
vn -0.9934048 0.1143722 -0.008111305
vn -0.9899496 0.132737 0.04879163
vn -0.9683275 0.2383361 -0.07441657
vn -0.1732228 0.9722472 -0.1572557
vn -0.2488328 0.0847831 -0.9648286
vn -0.1136674 0.993118 0.02821559
vn -0.9890196 0.1423105 0.03984743
vn -0.9868882 0.1411258 0.07832678
vn -0.06717575 0.995893 0.0607002
vn -0.04936042 0.9987345 0.009635103
vn -0.9950569 0.07201061 -0.06838387
vn -0.1140579 0.9932545 -0.02088743
vn -0.9901187 0.1390297 0.01831784
vn -0.9883306 0.1453894 -0.04543728
vn -0.9898236 0.1380571 0.03448616
vn -0.9872791 0.1519324 -0.04686791
vn -0.3413872 0.06041906 -0.9379789
vn -0.2854749 0.1033625 -0.952796
vn -0.1777219 0.9805388 -0.08341804
vn -0.1777219 0.9805388 -0.08341803
vn -0.9607279 0.1390865 0.2401185
vn -0.9794363 0.1128189 0.1672608
vn -0.9992873 0.03547351 0.01290936
vn -0.01884677 0.019494 0.9996324
vn 0.02652116 0.03846306 0.998908
vn -0.1344124 0.006734306 0.9909026
vn -0.8808534 0.4690417 0.06400922
vn -0.1140579 0.9932545 -0.02088743
vn -0.1349659 0.9879095 0.07628234
vn -0.08154697 0.2868876 0.9544871
vn 0.03068469 -0.003271051 0.9995238
vn -0.01657042 0.06609172 -0.997676
vn -0.008733397 0.0494094 -0.9987405
vn -0.1083979 0.06181996 -0.9921835
vn 0.2711082 0.07741992 -0.9594303
vn -4.387744E-05 0.2110651 -0.977472
vn 0.1641599 0.9860102 -0.02890461
vn 0.05814476 0.9820719 -0.1793154
vn 0.175989 0.05499678 -0.9828546
vn 0.5853529 0.1020263 -0.8043336
vn 0.9899325 -0.03343584 -0.1375343
vn 0.9941978 -0.05342537 -0.09336148
vn 0.999479 -0.01619333 -0.02792118
vn 0.9991577 -0.02080133 -0.03537144
vn 0.9994592 -0.0160779 -0.02868369
vn 0.9996303 -0.01381747 -0.0234174
vn 0.9998755 0.006863339 0.01420705
vn 0.0358522 0.9993425 -0.005408405
vn 0.1641599 0.9860102 -0.02890461
vn 0.9998823 -0.01313255 -0.007929954
vn 0.9952591 -0.02710838 0.09340478
vn 0.978756 -0.02465772 0.2035408
vn 0.9355426 -0.02483306 0.35234
vn 0.1946331 0.01009011 0.9808242
vn 0.11451 -0.002383142 0.9934192
vn 0.0970853 0.01594066 0.9951484
vn 0.1276902 0.02335443 0.9915391
vn 0.1230184 -0.0129065 0.9923205
vn 0.05900167 0.001939954 0.998256
vn -0.01884677 0.019494 0.9996324
vn 0.02652116 0.03846306 0.998908
vn 0.03068469 -0.003271051 0.9995238
vn -0.1344124 0.006734306 0.9909026
vn 0.9998243 -0.01554113 0.01048426
vn 0.1545953 -0.01762231 0.9878207
vn 0.9957569 0.08408068 0.037398
vn 0.2250073 0.06422918 0.9722378
vn 0.9983329 0.05089667 -0.02722151
vn 0.1427 0.9886218 0.04757996
vn 0.0184425 0.9994747 -0.02664897
vn 0.0358522 0.9993425 -0.005408405
vn 0.1427 0.9886218 0.04757996
vn -0.07765815 0.9937339 0.08038764
vn 0.02699774 0.1367188 0.9902419
vn -0.08154697 0.2868876 0.9544871
vn -0.1349659 0.9879095 0.07628234
vn -0.01657042 0.06609172 -0.997676
vn -0.1386025 0.06655537 -0.9881092
vn 0 1 0
vn -0.1083979 0.06181996 -0.9921835
vn -0.07509055 0.01688994 -0.9970337
vn -0.3413872 0.06041906 -0.9379789
vn -0.2854749 0.1033625 -0.952796
vn -0.1612821 0.06891654 -0.9844992
vn -0.008733397 0.0494094 -0.9987405
vn -0.1063802 0.08746305 -0.9904714
vn -0.2488328 0.0847831 -0.9648286
vn -4.387744E-05 0.2110651 -0.977472
vn 0.05814476 0.9820719 -0.1793154
vn 0.05302672 0.9890365 -0.1378219
vn 0.05302672 0.9890365 -0.1378219
vn -0.2488328 0.0847831 -0.9648286
vn -0.1063802 0.08746305 -0.9904714
vn -0.1732228 0.9722472 -0.1572557
vn -0.1136674 0.993118 0.02821559
vn 0.09586173 0.9939441 0.05371805
vn 0.05814476 0.9820719 -0.1793154
vn -0.9890196 0.1423105 0.03984743
vn -0.9683275 0.2383361 -0.07441657
vn -0.06717575 0.995893 0.0607002
vn 0.09586173 0.9939441 0.05371805
vn 0.1641599 0.9860102 -0.02890461
vn 0.09586173 0.9939441 0.05371805
vn -0.06717575 0.995893 0.0607002
vn -0.04936042 0.9987345 0.009635103
vn -0.04936042 0.9987345 0.009635103
vn 0.0358522 0.9993425 -0.005408405
vn -0.1140579 0.9932545 -0.02088743
vn -0.1140579 0.9932545 -0.02088743
vn 0.0358522 0.9993425 -0.005408405
vn 0.0184425 0.9994747 -0.02664897
vn -0.1349659 0.9879095 0.07628234
vn -0.07765815 0.9937339 0.08038764
vn 0.1427 0.9886218 0.04757996
g Cliff_H_0
f 3/3/3 2/2/2 1/1/1
f 6/6/6 5/5/5 4/4/4
f 9/9/9 8/8/8 7/7/7
f 8/8/8 10/10/10 7/7/7
f 10/10/10 8/8/8 11/11/11
f 12/12/12 10/10/10 11/11/11
f 8/8/8 13/13/13 11/11/11
f 13/13/13 14/14/14 11/11/11
f 15/15/15 14/14/14 13/13/13
f 16/16/16 11/11/11 14/14/14
f 11/11/11 16/16/16 17/17/17
f 17/17/17 18/18/18 11/11/11
f 16/16/16 19/19/19 17/17/17
f 20/20/20 16/16/16 14/14/14
f 20/20/20 14/14/14 15/15/15
f 21/21/21 20/20/20 15/15/15
f 20/20/20 21/21/21 22/22/22
f 21/21/21 23/23/23 22/22/22
f 21/21/21 24/24/24 23/23/23
f 24/24/24 25/25/25 23/23/23
f 15/15/15 13/13/13 26/26/26
f 27/27/27 26/26/26 13/13/13
f 26/26/26 28/28/28 15/15/15
f 29/29/29 27/27/27 13/13/13
f 27/27/27 29/29/29 30/30/30
f 29/29/29 31/31/31 30/30/30
f 29/29/29 32/32/32 31/31/31
f 32/32/32 33/33/33 31/31/31
f 34/34/34 15/15/15 28/28/28
f 35/35/35 21/21/21 15/15/15
f 15/15/15 34/34/34 35/35/35
f 24/24/24 21/21/21 36/36/36
f 21/21/21 35/35/35 36/36/36
f 35/35/35 34/34/34 37/37/37
f 34/34/34 38/38/38 37/37/37
f 35/35/35 37/37/37 39/39/39
f 36/36/36 35/35/35 39/39/39
f 24/24/24 36/36/36 40/40/40
f 41/41/41 24/24/24 40/40/40
f 42/42/42 41/41/41 40/40/40
f 43/43/43 42/42/42 40/40/40
f 40/40/40 36/36/36 43/43/43
f 36/36/36 39/39/39 43/43/43
f 39/39/39 44/44/44 43/43/43
f 47/47/47 46/46/46 45/45/45
f 45/45/45 46/46/46 48/48/48
f 46/46/46 49/49/49 48/48/48
f 48/48/48 49/49/49 50/50/50
f 49/49/49 51/51/51 50/50/50
f 52/52/52 45/45/45 48/48/48
f 53/53/53 45/45/45 52/52/52
f 54/54/54 53/53/53 52/52/52
f 52/52/52 48/48/48 55/55/55
f 55/55/55 54/54/54 52/52/52
f 55/55/55 56/56/56 54/54/54
f 54/54/54 56/56/56 57/57/57
f 48/48/48 58/58/58 55/55/55
f 59/59/59 57/57/57 56/56/56
f 60/60/60 55/55/55 58/58/58
f 55/55/55 60/60/60 56/56/56
f 61/61/61 60/60/60 58/58/58
f 62/62/62 61/61/61 58/58/58
f 56/56/56 63/63/63 59/59/59
f 64/64/64 59/59/59 63/63/63
f 65/65/65 64/64/64 63/63/63
f 65/65/65 66/66/66 64/64/64
f 67/67/67 66/66/66 65/65/65
f 68/68/68 67/67/67 65/65/65
f 65/65/65 63/63/63 68/68/68
f 67/67/67 68/68/68 69/69/69
f 67/67/67 69/69/69 70/70/70
f 63/63/63 71/71/71 68/68/68
f 69/69/69 68/68/68 71/71/71
f 70/70/70 69/69/69 72/72/72
f 72/72/72 69/69/69 71/71/71
f 72/72/72 73/73/73 70/70/70
f 73/73/73 74/74/74 70/70/70
f 72/72/72 75/75/75 73/73/73
f 72/72/72 71/71/71 75/75/75
f 75/75/75 76/76/76 73/73/73
f 71/71/71 63/63/63 77/77/77
f 56/56/56 77/77/77 63/63/63
f 78/78/78 71/71/71 77/77/77
f 71/71/71 78/78/78 75/75/75
f 77/77/77 56/56/56 79/79/79
f 78/78/78 77/77/77 79/79/79
f 78/78/78 80/80/80 75/75/75
f 80/80/80 78/78/78 79/79/79
f 81/81/81 79/79/79 56/56/56
f 60/60/60 81/81/81 56/56/56
f 79/79/79 81/81/81 82/82/82
f 81/81/81 83/83/83 82/82/82
f 81/81/81 60/60/60 83/83/83
f 60/60/60 84/84/84 83/83/83
f 80/80/80 79/79/79 85/85/85
f 85/85/85 86/86/86 80/80/80
f 80/80/80 87/87/87 75/75/75
f 86/86/86 87/87/87 80/80/80
f 87/87/87 88/88/88 75/75/75
f 87/87/87 86/86/86 89/89/89
f 88/88/88 87/87/87 89/89/89
f 92/92/92 91/91/91 90/90/90
f 93/93/93 90/90/90 91/91/91
f 94/94/94 93/93/93 91/91/91
f 94/94/94 95/95/95 93/93/93
f 95/95/95 96/96/96 93/93/93
f 96/96/96 97/97/97 93/93/93
f 98/98/98 93/93/93 97/97/97
f 99/99/99 98/98/98 97/97/97
f 97/97/97 100/100/100 99/99/99
f 98/98/98 99/99/99 101/101/101
f 102/102/102 101/101/101 99/99/99
f 103/103/103 102/102/102 99/99/99
f 106/106/106 105/105/105 104/104/104
f 105/105/105 107/107/107 104/104/104
f 104/104/104 107/107/107 108/108/108
f 104/104/104 108/108/108 109/109/109
f 110/110/110 104/104/104 109/109/109
f 108/108/108 112/112/112 111/111/111
f 113/113/113 108/108/108 111/111/111
f 108/108/108 113/113/113 114/114/114
f 110/110/110 116/116/116 115/115/115
f 116/116/116 117/117/117 115/115/115
f 117/117/117 118/118/118 115/115/115
f 120/120/120 115/115/115 119/119/119
f 121/121/121 120/120/120 119/119/119
f 124/124/124 123/123/123 122/122/122
f 125/125/125 124/124/124 122/122/122
f 126/126/126 124/124/124 125/125/125
f 126/126/126 127/127/127 124/124/124
