g Cliff_E
v -0.9071948 -1.229052E-06 -0.6201929
v -0.7836963 -1.229052E-06 -0.744909
v -0.7802966 0.5416642 -0.7358063
v -0.7836963 -1.229052E-06 -0.744909
v -0.7352685 0.8195022 -1.205757
v -0.7411841 -1.229052E-06 -1.252514
v -0.6288025 -1.229052E-06 -1.354243
v -0.8046362 2.698502 -0.4326032
v -0.620686 0.8197625 -1.304974
v -0.2751001 -1.229052E-06 -1.34814
v -0.650531 2.462666 -1.196596
v -0.3918091 1.046873 -1.277989
v 0.2623657 -1.229052E-06 -1.277418
v -0.5569116 2.465403 -1.266391
v -0.6427221 4.37897 -1.090899
v -0.5274365 4.388138 -1.190164
v -0.540935 4.498933 -1.087635
v -0.7057898 4.416051 -0.6391864
v -0.6069311 4.530871 -0.6367401
v -0.7978638 4.491824 0.4076153
v -0.7444946 3.022063 0.3026703
v -0.6069311 4.530871 -0.6367401
v -0.701864 4.609063 0.3953986
v -0.03770996 3.641271 -1.213242
v -0.5274365 4.388138 -1.190164
v 0.000859375 2.484884 -1.230529
v 0.1407642 0.8810837 -1.251757
v 0.5887939 2.578211 -1.250449
v 0.6061645 0.6000549 -1.294156
v 0.7496753 -1.229052E-06 -1.305569
v 0.8536255 -1.229052E-06 -1.192712
v 0.7182251 0.611178 -1.191879
v 0.6206347 1.973969 -1.2835
v 0.7354956 1.97401 -1.184687
v 0.8185986 2.507465 -0.05349548
v 0.7029517 -1.229052E-06 -0.3585052
v 0.7648413 3.567801 -0.163307
v 0.8305542 3.577177 0.6772394
v 0.7202002 4.605951 0.5521497
v 0.706084 2.582572 -1.154615
v 0.6215576 4.665596 -0.2262592
v 0.5496069 4.74025 0.5547677
v 0.4989258 4.75468 -0.219859
v 0.4647436 4.55717 -1.233548
v 0.573872 4.579901 -1.12939
v 0.4989258 4.75468 -0.219859
v 0.4557617 4.670929 -1.130276
v -0.008925781 4.48395 -1.206921
v 0.4557617 4.670929 -1.130276
v -0.02351806 4.59394 -1.103714
v -0.540935 4.498933 -1.087635
v 0.8177758 -1.229052E-06 0.805108
v 0.7927099 2.242883 0.8149704
v 0.7182251 0.611178 -1.191879
v 0.8536255 -1.229052E-06 -1.192712
v 0.7029517 -1.229052E-06 -0.3585052
v 0.7927099 2.242883 0.8149704
v 0.8185986 2.507465 -0.05349548
v 0.8174145 2.767646 0.7569598
v 0.8305542 3.577177 0.6772394
v 0.7084985 2.247566 0.900455
v 0.7142749 2.802728 0.8644909
v 0.7546167 -1.229052E-06 0.9284064
v 0.8177758 -1.229052E-06 0.805108
v 0.03447754 1.296443 1.011457
v -0.2358423 -1.229052E-06 1.174864
v 0.737268 3.583089 0.7967609
v 0.7202002 4.605951 0.5521497
v 0.2042847 1.971685 0.9469592
v -0.5570398 1.412219 1.120977
v -0.6575037 -1.229052E-06 1.315533
v -0.7809522 -1.229052E-06 1.227625
v -0.6799279 1.408726 1.029492
v -0.5472497 2.293349 1.025845
v -0.6799279 1.408726 1.029492
v -0.6263818 2.285102 0.9679065
v 0.6188549 4.564199 0.7156021
v 0.5496069 4.74025 0.5547677
v 0.4390552 3.620446 0.8526556
v 0.3252417 4.596368 0.7827118
v -0.5348437 4.470647 0.8829181
v -0.17552 3.195029 0.942467
v -0.5507373 3.048036 0.9692517
v -0.5673267 4.578467 0.7814215
v 0.3252417 4.596368 0.7827118
v -0.5348437 4.470647 0.8829181
v 0.2909375 4.706043 0.6837347
v 0.1212451 4.719259 0.445755
v -0.06090576 4.682103 -0.08421936
v -0.701864 4.609063 0.3953986
v -0.6069311 4.530871 -0.6367401
v 0.5496069 4.74025 0.5547677
v 0.6188549 4.564199 0.7156021
v 0.3252417 4.596368 0.7827118
v 0.4989258 4.75468 -0.219859
v -0.3384277 4.567059 -0.8071429
v -0.02351806 4.59394 -1.103714
v -0.540935 4.498933 -1.087635
v 0.4557617 4.670929 -1.130276
v -0.5348437 4.470647 0.8829181
v -0.5507373 3.048036 0.9692517
v -0.6305542 3.04751 0.9094195
v -0.6660754 4.464828 0.8012579
v -0.5673267 4.578467 0.7814215
v -0.701864 4.609063 0.3953986
v -0.7978638 4.491824 0.4076153
v -0.7444946 3.022063 0.3026703
v -0.6263818 2.285102 0.9679065
v -0.5507373 3.048036 0.9692517
v -0.5472497 2.293349 1.025845
v -0.6799279 1.408726 1.029492
v -0.7881726 0.9821625 0.3577557
v -0.8046362 2.698502 -0.4326032
v -0.7802966 0.5416642 -0.7358063
v -0.9071948 -1.229052E-06 -0.6201929
v -0.7924206 -1.229052E-06 0.5100738
v -0.7809522 -1.229052E-06 1.227625
vt 0.06073445 0.02613212
vt 0.1067149 0.02613212
vt 0.1084209 0.1255408
vt 0.1067149 0.02613212
vt 0.1310172 0.1765309
vt 0.1280493 0.02613212
vt 0.1844456 0.02613212
vt 0.09620681 0.5213737
vt 0.1885187 0.1765788
vt 0.3619449 0.02613212
vt 0.1653408 0.4792597
vt 0.3033764 0.2182592
vt 0.6316645 0.02613212
vt 0.2516412 0.4918106
vt 0.1761344 0.8298019
vt 0.184215 0.8271806
vt 0.1781658 0.8483048
vt 0.1455774 0.8365899
vt 0.1481474 0.8542282
vt 0.10012 0.8505093
vt 0.1263878 0.5807552
vt 0.1474976 0.8544167
vt 0.09650588 0.8692092
vt 0.481076 0.6943949
vt 0.2353146 0.8314635
vt 0.6661341 0.5635875
vt 0.5706408 0.1878327
vt 0.81845 0.5105852
vt 0.8041934 0.136257
vt 0.8762128 0.02613212
vt 0.928378 0.02613212
vt 0.8604283 0.1382984
vt 0.8289785 0.3970137
vt 0.8690975 0.3884115
vt 0.9108011 0.4863137
vt 0.8527641 0.02613212
vt 0.8838236 0.7242041
vt 0.9167994 0.6826323
vt 0.8657154 0.885855
vt 0.8543372 0.5000975
vt 0.811918 0.8823837
vt 0.8568293 0.9043175
vt 0.8027229 0.9015015
vt 0.7332236 0.8624851
vt 0.7879875 0.8666567
vt 0.8029098 0.899766
vt 0.7848727 0.8846089
vt 0.4955202 0.8490473
vt 0.7231361 0.8814931
vt 0.4868226 0.8674461
vt 0.2299289 0.8500661
vt 0.9103867 0.02613212
vt 0.9033675 0.4376433
vt 0.8604283 0.1382984
vt 0.928378 0.02613212
vt 0.8527641 0.02613212
vt 0.9033675 0.4376433
vt 0.9108011 0.4863137
vt 0.9102062 0.5340632
vt 0.9167994 0.6826323
vt 0.8499904 0.4387289
vt 0.8584474 0.5405016
vt 0.8854669 0.03682654
vt 0.9103867 0.02613212
vt 0.517302 0.2640614
vt 0.3816469 0.02613212
vt 0.8700519 0.6837288
vt 0.8657154 0.885855
vt 0.6025175 0.3879849
vt 0.2204588 0.285309
vt 0.1700427 0.02613212
vt 0.1080919 0.02613212
vt 0.1586262 0.2846692
vt 0.2349274 0.445799
vt 0.1586262 0.2846692
vt 0.1736993 0.4445316
vt 0.8185817 0.8816711
vt 0.8651336 0.8899217
vt 0.7203334 0.6905731
vt 0.6632437 0.8696848
vt 0.2316293 0.8466149
vt 0.4119181 0.6124985
vt 0.2284756 0.5875284
vt 0.2834347 0.9841562
vt 0.6756817 0.9841563
vt 0.3095113 0.9841562
vt 0.6702147 0.9841562
vt 0.5937415 0.9841562
vt 0.5116539 0.9841562
vt 0.222805 0.9841562
vt 0.2655867 0.9841562
vt 0.8145787 0.9841562
vt 0.8030984 0.9841562
vt 0.6773895 0.9841562
vt 0.7639376 0.9841562
vt 0.3865888 0.9841562
vt 0.5285033 0.9841562
vt 0.2952759 0.9841562
vt 0.7444925 0.9841562
vt 0.2316293 0.8466149
vt 0.2284756 0.5875284
vt 0.168359 0.5861817
vt 0.1703639 0.84566
vt 0.169044 0.8633406
vt 0.09940625 0.8691946
vt 0.10012 0.8505093
vt 0.1263878 0.5807552
vt 0.1736993 0.4445316
vt 0.2284756 0.5875284
vt 0.2349274 0.445799
vt 0.1586262 0.2846692
vt 0.1044685 0.2063831
vt 0.09620681 0.5213737
vt 0.1084209 0.1255408
vt 0.06073445 0.02613212
vt 0.1023366 0.02613212
vt 0.1080919 0.02613212
vn -0.9960176 0.08912483 0.002364932
vn -0.710473 0.01628497 -0.703536
vn -0.9988002 0.03449566 -0.0347615
vn -0.9962181 0.01035847 -0.08626758
vn -0.9668428 0.02998389 -0.2536058
vn -0.9572666 0.02262424 -0.2883206
vn -0.1921097 0.06451263 -0.9792508
vn -0.9983937 0.01347973 -0.0550292
vn -0.2534282 0.05543135 -0.9657647
vn 0.07742406 0.06297049 -0.9950076
vn -0.9582054 0.03050908 -0.28445
vn 0.06926523 0.02822133 -0.9971991
vn 0.02946197 0.04106567 -0.9987219
vn -0.07574622 0.02362595 -0.9968471
vn -0.9537951 0.05977787 -0.2944512
vn -0.2799698 0.1191856 -0.9525816
vn -0.3435431 0.882007 -0.322555
vn -0.9926087 0.0704683 -0.09880318
vn -0.341716 0.9339813 -0.1044465
vn -0.9958917 0.05943052 0.06832108
vn -0.9982291 0.006205338 0.05916338
vn -0.341716 0.9339813 -0.1044465
vn -0.3191537 0.9476935 -0.004255423
vn -0.009744626 0.01932594 -0.9997658
vn -0.2799698 0.1191856 -0.9525816
vn 0.02395222 0.01705737 -0.9995676
vn 0.01252734 0.0269689 -0.9995578
vn 0.1497484 0.02835979 -0.9883173
vn 0.1016964 0.02189908 -0.9945745
vn 0.3080986 0.08555607 -0.9474995
vn 0.9744863 0.2192516 -0.04801276
vn 0.9920549 0.001209522 -0.1258002
vn 0.07651598 0.01965256 -0.9968747
vn 0.9868609 0.02173861 -0.160103
vn 0.9992225 -0.009204604 -0.03833746
vn 0.9993067 -0.007164139 -0.03653631
vn 0.9912106 0.07300182 -0.1103279
vn 0.9966822 0.07080953 0.04013007
vn 0.9754307 0.218788 0.02582487
vn 0.9610876 0.08924409 -0.2614309
vn 0.9672802 0.2353475 -0.09476563
vn 0.1830481 0.9788768 0.09106957
vn 0.01538029 0.997678 -0.06634857
vn 0.2897996 0.1107276 -0.9506606
vn 0.9629513 0.1497748 -0.2242592
vn 0.01538029 0.997678 -0.06634857
vn -0.03801721 0.9867945 -0.1574526
vn -0.077984 0.199458 -0.9767983
vn -0.03801721 0.9867945 -0.1574526
vn -0.1630239 0.9714897 -0.1721361
vn -0.3435431 0.882007 -0.322555
vn 0.9996562 0.01267716 0.02294979
vn 0.9966556 -0.03173474 0.07530304
vn 0.9920549 0.001209522 -0.1258002
vn 0.9744863 0.2192516 -0.04801276
vn 0.9993067 -0.007164139 -0.03653631
vn 0.9966556 -0.03173474 0.07530304
vn 0.9992225 -0.009204604 -0.03833746
vn 0.9958256 -0.0316629 0.08560812
vn 0.9966822 0.07080953 0.04013007
vn 0.3376535 0.03249016 0.9407095
vn 0.2507623 0.05412815 0.9665341
vn 0.3917156 0.04569626 0.9189509
vn 0.9996562 0.01267716 0.02294979
vn 0.1747359 0.05738558 0.9829417
vn 0.2455457 0.08460502 0.9656858
vn 0.3623365 0.08619916 0.9280527
vn 0.9754307 0.218788 0.02582487
vn 0.1304155 0.0445694 0.9904571
vn 0.05063529 0.1027648 0.9934161
vn 0.05096552 0.1156623 0.9919802
vn -0.9667302 0.08049476 0.2428029
vn -0.9675593 0.05956865 0.2455211
vn 0.02170361 0.06695049 0.9975201
vn -0.9675593 0.05956865 0.2455211
vn -0.9678266 0.0433545 0.2478549
vn 0.4548098 0.1958249 0.8687926
vn 0.1830481 0.9788768 0.09106957
vn 0.1220361 0.0722855 0.9898899
vn 0.1201411 0.1751938 0.9771762
vn -0.0179419 0.150824 0.9883978
vn 0.09725074 0.05839229 0.9935455
vn -0.06282806 0.05521262 0.996496
vn -0.1882154 0.9470162 0.2602603
vn 0.1201411 0.1751938 0.9771762
vn -0.0179419 0.150824 0.9883978
vn -0.00027919 0.8497565 0.5271754
vn -0.1148795 0.9927175 0.03625927
vn -0.1506596 0.9871556 -0.05315756
vn -0.3191537 0.9476935 -0.004255423
vn -0.341716 0.9339813 -0.1044465
vn 0.1830481 0.9788768 0.09106957
vn 0.4548098 0.1958249 0.8687926
vn 0.1201411 0.1751938 0.9771762
vn 0.01538029 0.997678 -0.06634857
vn -0.1695006 0.9813462 -0.09071467
vn -0.1630239 0.9714897 -0.1721361
vn -0.3435431 0.882007 -0.322555
vn -0.03801721 0.9867945 -0.1574526
vn -0.0179419 0.150824 0.9883978
vn -0.06282806 0.05521262 0.996496
vn -0.9297294 -0.004458427 0.3682163
vn -0.9314716 0.02966208 0.3626029
vn -0.1882154 0.9470162 0.2602603
vn -0.3191537 0.9476935 -0.004255423
vn -0.9958917 0.05943052 0.06832108
vn -0.9982291 0.006205338 0.05916338
vn -0.9678266 0.0433545 0.2478549
vn -0.06282806 0.05521262 0.996496
vn 0.02170361 0.06695049 0.9975201
vn -0.9675593 0.05956865 0.2455211
vn -0.9977862 0.03350739 0.05744661
vn -0.9983937 0.01347973 -0.0550292
vn -0.9988002 0.03449566 -0.0347615
vn -0.9960176 0.08912483 0.002364932
vn -0.9961672 0.07078858 0.0513792
vn -0.9667302 0.08049476 0.2428029
g Cliff_E_0
f 3/3/3 2/2/2 1/1/1
f 3/3/3 5/5/5 4/4/4
f 5/5/5 6/6/6 4/4/4
f 7/7/7 6/6/6 5/5/5
f 5/5/5 3/3/3 8/8/8
f 9/9/9 7/7/7 5/5/5
f 10/10/10 7/7/7 9/9/9
f 11/11/11 5/5/5 8/8/8
f 9/9/9 5/5/5 11/11/11
f 12/12/12 10/10/10 9/9/9
f 13/13/13 10/10/10 12/12/12
f 14/14/14 9/9/9 11/11/11
f 12/12/12 9/9/9 14/14/14
f 15/15/15 11/11/11 8/8/8
f 14/14/14 11/11/11 15/15/15
f 16/16/16 14/14/14 15/15/15
f 15/15/15 17/17/17 16/16/16
f 15/15/15 18/18/18 17/17/17
f 18/18/18 15/15/15 8/8/8
f 18/18/18 19/19/19 17/17/17
f 20/20/20 18/18/18 8/8/8
f 21/21/21 20/20/20 8/8/8
f 22/22/22 18/18/18 20/20/20
f 23/23/23 22/22/22 20/20/20
f 12/12/12 14/14/14 24/24/24
f 14/14/14 25/25/25 24/24/24
f 12/12/12 24/24/24 26/26/26
f 26/26/26 27/27/27 12/12/12
f 27/27/27 13/13/13 12/12/12
f 26/26/26 24/24/24 28/28/28
f 26/26/26 28/28/28 27/27/27
f 29/29/29 13/13/13 27/27/27
f 29/29/29 30/30/30 13/13/13
f 31/31/31 30/30/30 29/29/29
f 32/32/32 31/31/31 29/29/29
f 33/33/33 29/29/29 27/27/27
f 28/28/28 33/33/33 27/27/27
f 32/32/32 29/29/29 33/33/33
f 34/34/34 32/32/32 33/33/33
f 33/33/33 28/28/28 34/34/34
f 32/32/32 34/34/34 35/35/35
f 35/35/35 36/36/36 32/32/32
f 34/34/34 37/37/37 35/35/35
f 35/35/35 37/37/37 38/38/38
f 37/37/37 39/39/39 38/38/38
f 28/28/28 40/40/40 34/34/34
f 34/34/34 40/40/40 37/37/37
f 39/39/39 37/37/37 41/41/41
f 40/40/40 41/41/41 37/37/37
f 42/42/42 39/39/39 41/41/41
f 43/43/43 42/42/42 41/41/41
f 28/28/28 44/44/44 40/40/40
f 24/24/24 44/44/44 28/28/28
f 41/41/41 40/40/40 45/45/45
f 44/44/44 45/45/45 40/40/40
f 41/41/41 45/45/45 46/46/46
f 45/45/45 47/47/47 46/46/46
f 45/45/45 44/44/44 47/47/47
f 44/44/44 24/24/24 48/48/48
f 44/44/44 48/48/48 49/49/49
f 25/25/25 48/48/48 24/24/24
f 48/48/48 50/50/50 49/49/49
f 50/50/50 48/48/48 25/25/25
f 51/51/51 50/50/50 25/25/25
f 53/53/53 52/52/52 36/36/36
f 56/56/56 55/55/55 54/54/54
f 56/56/56 58/58/58 57/57/57
f 58/58/58 59/59/59 57/57/57
f 58/58/58 60/60/60 59/59/59
f 57/57/57 59/59/59 61/61/61
f 62/62/62 59/59/59 60/60/60
f 59/59/59 62/62/62 61/61/61
f 61/61/61 63/63/63 57/57/57
f 63/63/63 64/64/64 57/57/57
f 63/63/63 61/61/61 65/65/65
f 63/63/63 65/65/65 66/66/66
f 67/67/67 62/62/62 60/60/60
f 67/67/67 60/60/60 68/68/68
f 69/69/69 61/61/61 62/62/62
f 61/61/61 69/69/69 65/65/65
f 65/65/65 70/70/70 66/66/66
f 70/70/70 71/71/71 66/66/66
f 72/72/72 71/71/71 70/70/70
f 73/73/73 72/72/72 70/70/70
f 74/74/74 70/70/70 65/65/65
f 69/69/69 74/74/74 65/65/65
f 75/75/75 70/70/70 74/74/74
f 76/76/76 75/75/75 74/74/74
f 77/77/77 67/67/67 68/68/68
f 78/78/78 77/77/77 68/68/68
f 62/62/62 67/67/67 79/79/79
f 67/67/67 77/77/77 79/79/79
f 69/69/69 62/62/62 79/79/79
f 77/77/77 80/80/80 79/79/79
f 80/80/80 81/81/81 79/79/79
f 69/69/69 82/82/82 74/74/74
f 79/79/79 82/82/82 69/69/69
f 81/81/81 82/82/82 79/79/79
f 82/82/82 83/83/83 74/74/74
f 83/83/83 82/82/82 81/81/81
f 86/86/86 85/85/85 84/84/84
f 85/85/85 87/87/87 84/84/84
f 84/84/84 87/87/87 88/88/88
f 88/88/88 89/89/89 84/84/84
f 89/89/89 90/90/90 84/84/84
f 91/91/91 90/90/90 89/89/89
f 88/88/88 87/87/87 92/92/92
f 89/89/89 88/88/88 92/92/92
f 92/92/92 87/87/87 93/93/93
f 87/87/87 94/94/94 93/93/93
f 95/95/95 89/89/89 92/92/92
f 96/96/96 91/91/91 89/89/89
f 96/96/96 89/89/89 95/95/95
f 96/96/96 97/97/97 91/91/91
f 97/97/97 96/96/96 95/95/95
f 97/97/97 98/98/98 91/91/91
f 95/95/95 99/99/99 97/97/97
f 102/102/102 101/101/101 100/100/100
f 103/103/103 102/102/102 100/100/100
f 103/103/103 100/100/100 104/104/104
f 104/104/104 105/105/105 103/103/103
f 105/105/105 106/106/106 103/103/103
f 103/103/103 106/106/106 107/107/107
f 102/102/102 103/103/103 107/107/107
f 102/102/102 107/107/107 108/108/108
f 102/102/102 108/108/108 109/109/109
f 108/108/108 110/110/110 109/109/109
f 108/108/108 107/107/107 111/111/111
f 107/107/107 112/112/112 111/111/111
f 107/107/107 113/113/113 112/112/112
f 113/113/113 114/114/114 112/112/112
f 112/112/112 114/114/114 115/115/115
f 116/116/116 112/112/112 115/115/115
f 112/112/112 116/116/116 111/111/111
f 116/116/116 117/117/117 111/111/111
