g Cliff_A
v 1.011584 0.8659857 0.3305127
v 1.03632 -1.229052E-06 0.6687451
v 1.079513 -1.229052E-06 -0.1997961
v 1.158898 -1.229052E-06 -0.2434167
v 1.011584 0.8659857 0.3305127
v 1.079513 -1.229052E-06 -0.1997961
v 1.090011 0.8710222 0.2945288
v 1.085734 0.85922 0.381925
v 1.085734 0.85922 0.381925
v 1.107338 -1.229052E-06 0.7215735
v 1.03632 -1.229052E-06 0.6687451
v 1.011584 0.8659857 0.3305127
v 1.090011 0.8710222 0.2945288
v 1.419371 0.4719646 0.371886
v 1.085734 0.85922 0.381925
v 1.424191 0.4815834 0.2863452
v 1.515666 -1.229052E-06 0.1003125
v 1.158898 -1.229052E-06 -0.2434167
v 1.615896 0.3694635 0.2713574
v 1.621874 -1.229052E-06 0.08949707
v 1.689156 -1.229052E-06 0.1482336
v 1.67788 0.261255 0.2922046
v 1.720173 -1.229052E-06 0.3692151
v 1.680359 -1.229052E-06 0.446366
v 1.622203 0.3603836 0.345105
v 1.615896 0.3694635 0.2713574
v 1.424191 0.4815834 0.2863452
v 1.419371 0.4719646 0.371886
v 1.493777 -1.229052E-06 0.5375928
v 1.085734 0.85922 0.381925
v 1.107338 -1.229052E-06 0.7215735
v -0.7579635 2.693706 -0.3464331
v -0.7697018 2.697083 -0.2435474
v -0.8378558 2.644649 -0.2460693
v -0.8265142 2.641556 -0.3465643
v -0.7753418 2.613849 -1.341216
v -1.03292 1.972369 -0.27651
v -1.040458 1.909194 -1.287276
v -0.8423043 2.558809 -1.329575
v -1.003492 1.861149 -1.354333
v -0.7872974 2.55425 -1.39916
v -1.005098 2.016066 0.0209375
v -0.7930301 2.606731 0.6446167
v -0.7697018 2.697083 -0.2435474
v -0.7243143 2.659467 0.6167663
v -1.179509 0.9393787 0.4645801
v -1.025652 1.284285 0.9481799
v -1.228456 0.5742093 0.7211377
v -1.136695 0.4937998 1.370891
v -1.313385 -1.229052E-06 1.039968
v -1.114223 -1.229052E-06 1.626989
v -1.060409 0.5095794 1.407877
v -1.03526 -1.229052E-06 1.667572
v -1.456865 -1.229052E-06 0.221604
v -1.324371 0.5572542 0.08189453
v -1.71765 -1.229052E-06 -1.314273
v -1.235437 0.9754168 -0.04126465
v -1.413141 0.9930491 -1.274505
v -1.665946 -1.229052E-06 -1.384053
v -1.376446 1.092487 -1.228763
v -1.362077 0.9936016 -1.34481
v -1.342339 -1.229052E-06 -1.438015
v -0.9745483 0.9131462 -1.429912
v -0.360105 -1.229052E-06 -1.604565
v -1.329824 1.091124 -1.302882
v -1.16893 1.839943 -1.273413
v -1.102898 1.898764 -1.277819
v -1.040458 1.909194 -1.287276
v -1.114345 1.829835 -1.336323
v -0.3361548 0.7211218 -1.581016
v -0.2221167 1.40247 -1.582893
v 0.02578552 1.06799 -1.618214
v 0.1088306 -1.229052E-06 -1.652375
v 0.2358935 -1.229052E-06 -1.675228
v 0.1998437 1.306658 -1.612984
v 0.01815979 1.466496 -1.602902
v 0.1752997 1.566394 -1.612911
v 0.2464184 2.660702 -1.688333
v 0.2420776 2.662014 -1.688478
v -0.2454614 2.226912 -1.58094
v 0.2453113 2.722986 -1.627575
v -0.7753418 2.613849 -1.341216
v 0.687713 2.622086 -0.163606
v 0.5320697 2.692363 -0.6937616
v 0.587904 2.630301 -0.7142907
v 0.7502948 2.51978 -0.1690332
v -1.136695 0.4937998 1.370891
v -1.025652 1.284285 0.9481799
v -0.892063 1.279839 1.03699
v -1.060409 0.5095794 1.407877
v -0.7226227 2.603249 0.6875916
v -1.025652 1.284285 0.9481799
v -0.7930301 2.606731 0.6446167
v 0.3182416 2.662645 -1.637316
v 0.587904 2.630301 -0.7142907
v 0.5320697 2.692363 -0.6937616
v 0.2575934 2.723632 -1.629722
v 0.2464184 2.660702 -1.688333
v 0.2575934 2.723632 -1.629722
v 0.2420776 2.662014 -1.688478
v 0.2453113 2.722986 -1.627575
v -0.1726782 2.681733 -1.203435
v -0.7753418 2.613849 -1.341216
v 0.5320697 2.692363 -0.6937616
v -0.7579635 2.693706 -0.3464331
v 0.02965576 2.721427 -0.2638794
v 0.687713 2.622086 -0.163606
v -0.7697018 2.697083 -0.2435474
v 0.5335504 2.659693 0.05364868
v -0.7243143 2.659467 0.6167663
v 0.586095 2.566648 0.1427625
v -0.7226227 2.603249 0.6875916
v -0.7930301 2.606731 0.6446167
v 0.1998437 1.306658 -1.612984
v 0.2358935 -1.229052E-06 -1.675228
v 0.3078217 0.09924445 -1.627699
v 0.2722314 1.312259 -1.566662
v 0.1752997 1.566394 -1.612911
v 0.2542291 1.569937 -1.578467
v 0.2464184 2.660702 -1.688333
v 0.3182416 2.662645 -1.637316
v 0.4730005 1.583181 -1.070999
v 0.587904 2.630301 -0.7142907
v 0.4236597 0.7746634 -1.237036
v 0.806217 2.124393 0.00951538
v 0.7502948 2.51978 -0.1690332
v 0.4693237 0.6394533 -0.981792
v 0.6148559 1.338533 -0.5566406
v 0.8236218 1.473252 0.2031628
v 0.421272 -1.229052E-06 -1.028369
v 0.299184 -1.229052E-06 -1.642904
v 0.2358935 -1.229052E-06 -1.675228
v 0.8312939 -1.229052E-06 -0.6608642
v 0.8980316 1.339588 0.2383838
v 0.9510266 -1.229052E-06 -0.5412604
v 0.9778198 -1.229052E-06 -0.4472558
v 0.916488 1.285846 0.3031335
v 0.8098486 -1.229052E-06 0.4563257
v 0.8628814 -1.229052E-06 0.797157
v 0.8783691 1.364738 0.317323
v 0.8046325 1.489255 0.2855872
v 0.8476532 1.247469 0.4301721
v 0.821214 -1.229052E-06 0.8753235
v 0.7720312 1.30454 0.4578516
v 0.7892218 2.127706 0.13271
v 0.7353247 1.507471 0.3521387
v -1.060409 0.5095794 1.407877
v -1.03526 -1.229052E-06 1.667572
v -0.892063 1.279839 1.03699
v 0.6854627 2.183433 0.2061877
v -0.7226227 2.603249 0.6875916
v 0.586095 2.566648 0.1427625
v 0.7322021 2.486146 -0.003255615
v 0.687713 2.622086 -0.163606
v 0.5335504 2.659693 0.05364868
vt 0.4064531 0.3177186
vt 0.3152489 0.02830036
vt 0.5494509 0.02830039
vt 0.5612132 0.0283004
vt 0.4064531 0.3177186
vt 0.5494509 0.02830039
vt 0.4161561 0.3194018
vt 0.3925897 0.3154575
vt 0.3925897 0.3154575
vt 0.3010038 0.02830036
vt 0.3152489 0.02830036
vt 0.4064531 0.3177186
vt 0.4161561 0.3194018
vt 0.3952969 0.186034
vt 0.3925897 0.3154575
vt 0.4183629 0.1892486
vt 0.4685264 0.02830036
vt 0.5612132 0.0283004
vt 0.4210807 0.1510243
vt 0.4714433 0.02830036
vt 0.4556051 0.02830036
vt 0.4167827 0.1156137
vt 0.3960171 0.02830036
vt 0.3752133 0.02830039
vt 0.3997223 0.1501569
vt 0.4210807 0.1510243
vt 0.4183629 0.1892486
vt 0.3952969 0.186034
vt 0.3506142 0.02830036
vt 0.3925897 0.3154575
vt 0.3010038 0.02830036
vt 0.5896697 0.9279689
vt 0.5628815 0.929139
vt 0.5619285 0.9121596
vt 0.589027 0.9111258
vt 0.8573292 0.9003383
vt 0.570137 0.687479
vt 0.8426898 0.6663656
vt 0.8540962 0.8834711
vt 0.8600735 0.6502437
vt 0.8732228 0.88196
vt 0.4899304 0.7020831
vt 0.3214728 0.8986262
vt 0.5588091 0.9290302
vt 0.3323659 0.916729
vt 0.3703018 0.3422469
vt 0.2176821 0.4399948
vt 0.301121 0.2202049
vt 0.1259152 0.1933316
vt 0.2151483 0.02830036
vt 0.05685794 0.02830036
vt 0.1159419 0.1986052
vt 0.04591452 0.02830043
vt 0.4358203 0.02830036
vt 0.473493 0.2145383
vt 0.8499697 0.02830037
vt 0.5067027 0.3542911
vt 0.8392461 0.360184
vt 0.868786 0.02830036
vt 0.8269007 0.3934459
vt 0.8582039 0.3603686
vt 0.8833371 0.02830036
vt 0.8811516 0.3334799
vt 0.9282474 0.02830036
vt 0.8468984 0.392961
vt 0.8389521 0.6432214
vt 0.8401404 0.6628797
vt 0.8426898 0.6663656
vt 0.8559159 0.6398433
vt 0.9218969 0.269304
vt 0.9224031 0.4970151
vt 0.9322906 0.3893253
vt 0.941139 0.02830036
vt 0.9473011 0.02830036
vt 0.9305171 0.464994
vt 0.9274355 0.5459273
vt 0.9304976 0.5517997
vt 0.9508356 0.9175246
vt 0.9508747 0.9179631
vt 0.9218767 0.772549
vt 0.9509162 0.938911
vt 0.8729421 0.9007995
vt 0.4001695 0.9841561
vt 0.5536394 0.9841561
vt 0.5575686 0.9841562
vt 0.4055138 0.9841561
vt 0.1259152 0.1933316
vt 0.2176821 0.4399948
vt 0.20538 0.4420386
vt 0.1159419 0.1986052
vt 0.3099475 0.89838
vt 0.2176821 0.4399948
vt 0.3214728 0.8986262
vt 0.7784989 0.9841562
vt 0.5591616 0.9841562
vt 0.5536394 0.9841561
vt 0.7775947 0.9841562
vt 0.7907059 0.9841562
vt 0.7775947 0.9841562
vt 0.7908124 0.9841563
vt 0.7770813 0.9841562
vt 0.6755933 0.9841562
vt 0.708567 0.9841562
vt 0.5536394 0.9841561
vt 0.4705307 0.9841562
vt 0.4507774 0.9841562
vt 0.4001695 0.9841561
vt 0.4459124 0.9841562
vt 0.3783358 0.9841562
vt 0.2400576 0.9841562
vt 0.3665678 0.9841562
vt 0.2278513 0.9841562
vt 0.2393133 0.9841562
vt 0.9305171 0.464994
vt 0.9473011 0.02830036
vt 0.9344851 0.06146886
vt 0.9180263 0.4668661
vt 0.9304976 0.5517997
vt 0.9212098 0.5529837
vt 0.9508356 0.9175246
vt 0.9371362 0.9181712
vt 0.7843708 0.5574098
vt 0.6882206 0.9073636
vt 0.8291429 0.287198
vt 0.4811803 0.7442089
vt 0.5166964 0.9016361
vt 0.7603164 0.2420098
vt 0.6456745 0.4756469
vt 0.4407901 0.5206716
vt 0.7728761 0.02830036
vt 0.9385852 0.02830036
vt 0.9497425 0.02830036
vt 0.6737785 0.02830036
vt 0.431102 0.475854
vt 0.6415255 0.02830306
vt 0.6161788 0.02830036
vt 0.4138363 0.458039
vt 0.3725277 0.02830036
vt 0.2806224 0.02830036
vt 0.4097977 0.4846351
vt 0.4185234 0.5260739
vt 0.3810821 0.4452339
vt 0.2595447 0.02830037
vt 0.371716 0.4645795
vt 0.4595828 0.7509955
vt 0.4006217 0.5321072
vt 0.1159419 0.1986052
vt 0.04591452 0.02830043
vt 0.20538 0.4420386
vt 0.4445646 0.7564574
vt 0.3099475 0.89838
vt 0.4708838 0.8986432
vt 0.4927096 0.9020542
vt 0.4990733 0.9217492
vt 0.4748969 0.9171466
vn -0.9862556 0.1519916 -0.06479584
vn -0.9849473 0.03843465 0.1685276
vn -0.9432858 0.1169397 -0.3107041
vn 0.4011752 0.4829643 -0.778334
vn -0.9862556 0.1519916 -0.06479584
vn -0.9432858 0.1169397 -0.3107041
vn 0.3399975 0.5835651 -0.7374642
vn 0.1718374 0.4754801 0.8627807
vn 0.1718374 0.4754801 0.8627807
vn 0.2277881 0.3669871 0.9019051
vn -0.9849473 0.03843465 0.1685276
vn -0.9862556 0.1519916 -0.06479584
vn 0.3399975 0.5835651 -0.7374642
vn 0.4556766 0.4024316 0.7939821
vn 0.1718374 0.4754801 0.8627807
vn 0.58715 0.4862247 -0.6471788
vn 0.4998698 0.4408453 -0.7455102
vn 0.4011752 0.4829643 -0.778334
vn 0.2687398 0.5342982 -0.8014389
vn 0.2597649 0.4066222 -0.8758885
vn 0.8286163 0.2804643 -0.4844944
vn 0.9325634 0.3305091 -0.1452217
vn 0.9572464 0.2110477 0.1978333
vn 0.4929499 0.3333057 0.8036838
vn 0.4658427 0.4232689 0.7770675
vn 0.2687398 0.5342982 -0.8014389
vn 0.58715 0.4862247 -0.6471788
vn 0.4556766 0.4024316 0.7939821
vn 0.4012114 0.3460758 0.8480926
vn 0.1718374 0.4754801 0.8627807
vn 0.2277881 0.3669871 0.9019051
vn -0.1580826 0.9861021 -0.05111416
vn -0.1408039 0.9892102 0.04046439
vn -0.923181 0.3823161 0.03963987
vn -0.9371727 0.3486212 -0.01306359
vn -0.2343328 0.9525384 -0.1943166
vn -0.9639482 0.2565045 0.07077642
vn -0.9550412 0.2884847 -0.06835835
vn -0.9354295 0.3476382 -0.06418224
vn -0.2897152 0.04927671 -0.9558435
vn -0.3379109 0.1532342 -0.9286202
vn -0.9684225 0.2215704 0.1143002
vn -0.9202458 0.2912824 0.2613473
vn -0.1408039 0.9892102 0.04046439
vn -0.007150697 0.9597793 0.2806645
vn -0.9665849 0.217125 0.1362738
vn -0.9352159 0.24395 0.2566315
vn -0.959672 0.2281157 0.164295
vn -0.912782 0.2522415 0.3212528
vn -0.956579 0.209723 0.2024176
vn -0.9008471 0.2355003 0.364711
vn 0.2962268 0.3597172 0.88479
vn 0.3248185 0.3446064 0.8807607
vn -0.9509327 0.2673648 0.1557021
vn -0.9520239 0.2655708 0.1520613
vn -0.9534728 0.2812262 0.108634
vn -0.9641511 0.2364598 0.1204143
vn -0.9553993 0.2779878 0.09967445
vn -0.3487434 0.1386805 -0.9269011
vn -0.9635072 0.2496227 0.09665581
vn -0.3005218 0.1455754 -0.9425998
vn -0.1832872 0.07472441 -0.9802153
vn -0.2147383 0.05828622 -0.9749308
vn -0.160244 0.05124104 -0.9857465
vn -0.4126415 0.1244458 -0.9023527
vn -0.961145 0.2660682 0.07353975
vn -0.470158 0.8755175 -0.1114479
vn -0.2080174 0.9510004 -0.2287509
vn -0.3811003 0.09651315 -0.9194823
vn -0.1622058 0.04598851 -0.9856848
vn -0.2200732 0.02175623 -0.9752407
vn -0.09984286 0.0295616 -0.9945639
vn -0.1040463 0.03103651 -0.9940881
vn 0.04613899 0.04226919 -0.9980404
vn 0.2037533 0.03992806 -0.9782078
vn -0.1255171 -0.0138978 -0.9919941
vn 0.1946361 -0.05489114 -0.9793383
vn 0.2473255 -0.06872778 -0.9664919
vn -0.2102714 0.1304586 -0.9688996
vn -0.2454437 0.02559896 -0.9690728
vn -0.09508542 0.9920244 -0.08274306
vn -0.2343328 0.9525384 -0.1943166
vn 0.2980331 0.953624 0.04216152
vn 0.199155 0.9794592 -0.03157422
vn 0.9582149 0.06767689 -0.277928
vn 0.9661186 0.1843785 -0.1806084
vn -0.912782 0.2522415 0.3212528
vn -0.9352159 0.24395 0.2566315
vn 0.2593191 0.3091518 0.9149747
vn 0.2962268 0.3597172 0.88479
vn 0.2906168 0.2598509 0.9208797
vn -0.9352159 0.24395 0.2566315
vn -0.9202458 0.2912824 0.2613473
vn 0.9117081 0.08084302 -0.402806
vn 0.9582149 0.06767689 -0.277928
vn 0.199155 0.9794592 -0.03157422
vn 0.11764 0.9930359 -0.006361059
vn 0.2473255 -0.06872778 -0.9664919
vn 0.11764 0.9930359 -0.006361059
vn -0.2102714 0.1304586 -0.9688996
vn -0.09508542 0.9920244 -0.08274306
vn -0.06044142 0.9979364 -0.02167532
vn -0.2343328 0.9525384 -0.1943166
vn 0.199155 0.9794592 -0.03157422
vn -0.1580826 0.9861021 -0.05111416
vn 0.02944641 0.9990423 0.03236272
vn 0.2980331 0.953624 0.04216152
vn -0.1408039 0.9892102 0.04046439
vn 0.1902713 0.95399 0.2317323
vn -0.007150697 0.9597793 0.2806645
vn 0.4258773 0.4402942 0.7904236
vn 0.2906168 0.2598509 0.9208797
vn -0.9202458 0.2912824 0.2613473
vn 0.2037533 0.03992806 -0.9782078
vn 0.04613899 0.04226919 -0.9980404
vn 0.9321142 -0.02623812 -0.3612126
vn 0.8722146 0.0001498233 -0.4891234
vn 0.1946361 -0.05489114 -0.9793383
vn 0.8779047 -0.0551565 -0.475648
vn 0.2473255 -0.06872778 -0.9664919
vn 0.9117081 0.08084302 -0.402806
vn 0.9512873 -0.02136351 -0.3075648
vn 0.9582149 0.06767689 -0.277928
vn 0.9620094 -0.01358819 -0.2726782
vn 0.9721717 -0.001494824 -0.2342648
vn 0.9661186 0.1843785 -0.1806084
vn 0.9697254 -0.04708404 -0.2396158
vn 0.9632547 -0.03322487 -0.2665266
vn 0.943005 0.08243383 -0.3224071
vn 0.9180474 0.09229076 -0.3855794
vn 0.9768386 -0.05454837 -0.2069072
vn 0.04613899 0.04226919 -0.9980404
vn 0.6390468 0.3935056 -0.6608877
vn 0.8085397 0.325657 -0.4901134
vn 0.7968215 0.3213567 -0.5116693
vn 0.9979613 0.009481504 0.06311418
vn 0.998741 0.01517285 0.04781603
vn 0.9906046 -0.04884967 0.1277348
vn 0.9605616 0.06266277 0.2709151
vn 0.7345825 0.4769271 0.4826274
vn 0.8398598 0.231818 0.4908114
vn 0.970567 0.05560158 0.2343246
vn 0.357999 0.3372563 0.8706865
vn 0.3367098 0.3605358 0.8698508
vn 0.8626468 0.194783 0.4667976
vn 0.3566297 0.2634172 0.8963407
vn 0.2962268 0.3597172 0.88479
vn 0.3248185 0.3446064 0.8807607
vn 0.2593191 0.3091518 0.9149747
vn 0.3873502 0.2126376 0.8970758
vn 0.2906168 0.2598509 0.9208797
vn 0.4258773 0.4402942 0.7904236
vn 0.8414673 0.3753985 0.3885985
vn 0.2980331 0.953624 0.04216152
vn 0.1902713 0.95399 0.2317323
g Cliff_A_0
f 3/3/3 2/2/2 1/1/1
f 6/6/6 5/5/5 4/4/4
f 5/5/5 7/7/7 4/4/4
f 7/7/7 5/5/5 8/8/8
f 11/11/11 10/10/10 9/9/9
f 12/12/12 11/11/11 9/9/9
f 15/15/15 14/14/14 13/13/13
f 14/14/14 16/16/16 13/13/13
f 13/13/13 16/16/16 17/17/17
f 18/18/18 13/13/13 17/17/17
f 17/17/17 16/16/16 19/19/19
f 20/20/20 17/17/17 19/19/19
f 21/21/21 20/20/20 19/19/19
f 22/22/22 21/21/21 19/19/19
f 23/23/23 21/21/21 22/22/22
f 24/24/24 23/23/23 22/22/22
f 25/25/25 24/24/24 22/22/22
f 25/25/25 22/22/22 26/26/26
f 25/25/25 26/26/26 27/27/27
f 28/28/28 25/25/25 27/27/27
f 29/29/29 24/24/24 25/25/25
f 28/28/28 29/29/29 25/25/25
f 29/29/29 28/28/28 30/30/30
f 31/31/31 29/29/29 30/30/30
f 34/34/34 33/33/33 32/32/32
f 35/35/35 34/34/34 32/32/32
f 32/32/32 36/36/36 35/35/35
f 34/34/34 35/35/35 37/37/37
f 38/38/38 37/37/37 35/35/35
f 36/36/36 39/39/39 35/35/35
f 39/39/39 38/38/38 35/35/35
f 38/38/38 39/39/39 40/40/40
f 39/39/39 36/36/36 41/41/41
f 39/39/39 41/41/41 40/40/40
f 42/42/42 34/34/34 37/37/37
f 42/42/42 43/43/43 34/34/34
f 34/34/34 43/43/43 44/44/44
f 43/43/43 45/45/45 44/44/44
f 43/43/43 42/42/42 46/46/46
f 46/46/46 42/42/42 37/37/37
f 47/47/47 43/43/43 46/46/46
f 46/46/46 48/48/48 47/47/47
f 48/48/48 49/49/49 47/47/47
f 48/48/48 50/50/50 49/49/49
f 50/50/50 51/51/51 49/49/49
f 49/49/49 51/51/51 52/52/52
f 51/51/51 53/53/53 52/52/52
f 50/50/50 48/48/48 54/54/54
f 48/48/48 55/55/55 54/54/54
f 55/55/55 48/48/48 46/46/46
f 56/56/56 54/54/54 55/55/55
f 57/57/57 46/46/46 37/37/37
f 57/57/57 55/55/55 46/46/46
f 58/58/58 56/56/56 55/55/55
f 59/59/59 56/56/56 58/58/58
f 57/57/57 60/60/60 55/55/55
f 60/60/60 58/58/58 55/55/55
f 60/60/60 57/57/57 37/37/37
f 61/61/61 59/59/59 58/58/58
f 61/61/61 58/58/58 60/60/60
f 62/62/62 59/59/59 61/61/61
f 63/63/63 62/62/62 61/61/61
f 64/64/64 62/62/62 63/63/63
f 65/65/65 61/61/61 60/60/60
f 61/61/61 65/65/65 63/63/63
f 66/66/66 60/60/60 37/37/37
f 60/60/60 66/66/66 65/65/65
f 66/66/66 37/37/37 67/67/67
f 67/67/67 37/37/37 68/68/68
f 66/66/66 69/69/69 65/65/65
f 69/69/69 66/66/66 67/67/67
f 67/67/67 68/68/68 69/69/69
f 65/65/65 69/69/69 63/63/63
f 68/68/68 40/40/40 69/69/69
f 69/69/69 40/40/40 63/63/63
f 70/70/70 64/64/64 63/63/63
f 63/63/63 71/71/71 70/70/70
f 71/71/71 63/63/63 40/40/40
f 70/70/70 72/72/72 64/64/64
f 70/70/70 71/71/71 72/72/72
f 72/72/72 73/73/73 64/64/64
f 74/74/74 73/73/73 72/72/72
f 75/75/75 74/74/74 72/72/72
f 72/72/72 76/76/76 75/75/75
f 71/71/71 76/76/76 72/72/72
f 76/76/76 77/77/77 75/75/75
f 77/77/77 76/76/76 78/78/78
f 76/76/76 79/79/79 78/78/78
f 71/71/71 80/80/80 76/76/76
f 80/80/80 71/71/71 40/40/40
f 80/80/80 79/79/79 76/76/76
f 80/80/80 40/40/40 79/79/79
f 40/40/40 41/41/41 79/79/79
f 79/79/79 41/41/41 81/81/81
f 41/41/41 82/82/82 81/81/81
f 85/85/85 84/84/84 83/83/83
f 86/86/86 85/85/85 83/83/83
f 89/89/89 88/88/88 87/87/87
f 90/90/90 89/89/89 87/87/87
f 92/92/92 89/89/89 91/91/91
f 93/93/93 92/92/92 91/91/91
f 96/96/96 95/95/95 94/94/94
f 97/97/97 96/96/96 94/94/94
f 99/99/99 94/94/94 98/98/98
f 98/98/98 100/100/100 99/99/99
f 100/100/100 101/101/101 99/99/99
f 99/99/99 101/101/101 102/102/102
f 101/101/101 103/103/103 102/102/102
f 104/104/104 99/99/99 102/102/102
f 105/105/105 102/102/102 103/103/103
f 106/106/106 104/104/104 102/102/102
f 105/105/105 106/106/106 102/102/102
f 107/107/107 104/104/104 106/106/106
f 105/105/105 108/108/108 106/106/106
f 109/109/109 107/107/107 106/106/106
f 108/108/108 110/110/110 106/106/106
f 106/106/106 110/110/110 109/109/109
f 109/109/109 110/110/110 111/111/111
f 110/110/110 112/112/112 111/111/111
f 112/112/112 110/110/110 113/113/113
f 116/116/116 115/115/115 114/114/114
f 117/117/117 116/116/116 114/114/114
f 117/117/117 114/114/114 118/118/118
f 119/119/119 117/117/117 118/118/118
f 119/119/119 118/118/118 120/120/120
f 121/121/121 119/119/119 120/120/120
f 119/119/119 121/121/121 117/117/117
f 121/121/121 122/122/122 117/117/117
f 121/121/121 123/123/123 122/122/122
f 124/124/124 116/116/116 117/117/117
f 122/122/122 124/124/124 117/117/117
f 123/123/123 125/125/125 122/122/122
f 123/123/123 126/126/126 125/125/125
f 124/124/124 122/122/122 127/127/127
f 116/116/116 124/124/124 127/127/127
f 125/125/125 128/128/128 122/122/122
f 122/122/122 128/128/128 127/127/127
f 127/127/127 128/128/128 129/129/129
f 128/128/128 125/125/125 129/129/129
f 116/116/116 127/127/127 130/130/130
f 130/130/130 127/127/127 129/129/129
f 130/130/130 131/131/131 116/116/116
f 116/116/116 131/131/131 132/132/132
f 130/130/130 129/129/129 133/133/133
f 133/133/133 129/129/129 134/134/134
f 135/135/135 133/133/133 134/134/134
f 136/136/136 135/135/135 134/134/134
f 137/137/137 136/136/136 134/134/134
f 137/137/137 138/138/138 136/136/136
f 139/139/139 138/138/138 137/137/137
f 134/134/134 129/129/129 140/140/140
f 140/140/140 137/137/137 134/134/134
f 141/141/141 129/129/129 125/125/125
f 129/129/129 141/141/141 140/140/140
f 142/142/142 139/139/139 137/137/137
f 143/143/143 139/139/139 142/142/142
f 144/144/144 142/142/142 137/137/137
f 140/140/140 144/144/144 137/137/137
f 144/144/144 143/143/143 142/142/142
f 145/145/145 141/141/141 125/125/125
f 145/145/145 125/125/125 126/126/126
f 141/141/141 146/146/146 140/140/140
f 146/146/146 144/144/144 140/140/140
f 141/141/141 145/145/145 146/146/146
f 143/143/143 144/144/144 147/147/147
f 148/148/148 143/143/143 147/147/147
f 149/149/149 147/147/147 144/144/144
f 146/146/146 149/149/149 144/144/144
f 146/146/146 150/150/150 149/149/149
f 145/145/145 150/150/150 146/146/146
f 150/150/150 151/151/151 149/149/149
f 152/152/152 151/151/151 150/150/150
f 152/152/152 150/150/150 145/145/145
f 153/153/153 145/145/145 126/126/126
f 153/153/153 152/152/152 145/145/145
f 153/153/153 126/126/126 154/154/154
f 155/155/155 152/152/152 153/153/153
f 154/154/154 155/155/155 153/153/153
