g Cliff_T
v 0.1502954 5.918816 3.227266
v -0.9259301 6.701952 3.130625
v -0.6278881 9.032944 2.835625
v 0.1816919 2.859363 3.604609
v -1.665007 3.383394 3.54
v 0.3781958 3.65172 3.506875
v 1.679685 4.313568 3.122969
v 0.9176196 7.259861 3.129922
v 1.550549 9.121823 2.832187
v 1.509421 1.81732 3.46625
v 1.532551 -1.229052E-06 3.593906
v -0.2031567 -1.229052E-06 3.875977
v -1.665007 3.383394 3.54
v -1.778245 -1.229052E-06 3.940781
v 2.291609 -1.229052E-06 3.560395
v 2.24259 1.119719 3.406094
v 2.447705 1.098294 3.193183
v 2.50501 -1.229052E-06 3.353682
v 2.638601 6.385346 2.864033
v 2.706633 6.247267 1.206348
v 2.42991 6.414666 3.072666
v 2.81762 10.59313 2.650708
v 2.771658 2.45344 0.1235156
v 2.770569 -1.229052E-06 0.2266016
v 2.47033 -1.229052E-06 -3.579697
v 3.015957 10.56246 2.432334
v 2.825459 10.80255 2.417939
v 2.575625 3.680102 -3.381394
v 2.353101 3.701026 -3.576144
v 2.248489 -1.229052E-06 -3.777009
v 2.439643 5.107519 -3.492424
v 2.660163 5.086347 -3.295442
v 2.419368 10.6371 -3.01376
v 2.636904 10.60887 -2.814072
v 2.826767 9.749941 0.8449414
v 2.817561 10.62701 0.397124
v 2.683591 6.588842 -1.750859
v 2.671145 10.17761 -1.496641
v 2.419368 10.6371 -3.01376
v 2.636904 10.60887 -2.814072
v 2.435864 10.84864 -2.801792
v -0.2660034 2.82858 -3.379492
v -2.636069 -1.229052E-06 -3.928185
v 0.1188501 -1.229052E-06 -3.693437
v -2.537561 0.2767292 -3.885869
v -2.773567 -1.229052E-06 -3.702379
v -2.361592 4.62504 -3.711898
v -0.6825415 4.393286 -3.312187
v 0.26198 6.021183 -3.197461
v -2.257485 6.833641 -3.555351
v 0.5435767 8.558376 -3.064453
v -0.9088745 8.43829 -3.154023
v -2.295305 10.74891 -2.945206
v 2.419368 10.6371 -3.01376
v 0.01044434 10.99508 -3.029714
v 2.435864 10.84864 -2.801792
v 0.01764404 11.19817 -2.812876
v -2.625823 8.022579 2.932324
v -2.67187 3.703023 3.393081
v -2.870669 3.689341 3.173569
v -2.832019 8.000721 2.720503
v -2.820622 7.608881 1.414141
v -2.753542 8.73345 0.07644531
v -2.743657 10.63554 2.350444
v -2.648606 9.916753 -0.539375
v -2.619778 10.74598 0.05331543
v -2.515334 10.73781 -2.76082
v -2.599553 9.912527 -1.89332
v -2.630876 8.135946 -1.406797
v -2.750774 6.535728 -0.5740625
v -2.838459 5.447933 1.69707
v -2.928249 -1.229052E-06 1.505469
v -2.920688 -1.229052E-06 3.368613
v -2.814524 3.492936 -0.01859375
v -3.052922 -1.229052E-06 0.06285156
v -2.689001 -1.229052E-06 -1.75
v -2.687444 7.01765 -1.852891
v -2.69613 4.266558 -1.933203
v -2.599868 4.626616 -3.53558
v -2.773567 -1.229052E-06 -3.702379
v -2.537561 0.2767292 -3.885869
v -2.361592 4.62504 -3.711898
v -2.500879 6.818222 -3.386296
v -2.257485 6.833641 -3.555351
v -2.295305 10.74891 -2.945206
v -2.313264 10.95407 -2.73777
v 0.01764404 11.19817 -2.812876
v 0.01044434 10.99508 -3.029714
v 0.5435767 8.558376 -3.064453
v -0.9088745 8.43829 -3.154023
v -2.743657 10.63554 2.350444
v -2.619778 10.74598 0.05331543
v -2.413703 10.95871 0.06726074
v -2.541284 10.85971 2.333037
v -1.580002 11.02198 0.910664
v 0.709436 11.20759 1.981328
v 0.7145825 11.16356 2.392583
v 1.560525 10.94588 0.7621093
v 2.825459 10.80255 2.417939
v -1.026804 11.09882 -0.1995312
v -1.555046 11.04541 -2.446875
v 0.8135474 11.05423 -0.2866406
v -2.313264 10.95407 -2.73777
v -2.619778 10.74598 0.05331543
v -2.515334 10.73781 -2.76082
v 0.2899194 11.20759 -2.505078
v 0.01764404 11.19817 -2.812876
v 1.991726 10.90981 -2.545078
v 2.435864 10.84864 -2.801792
v 2.621821 10.849 0.4151953
v 2.817561 10.62701 0.397124
v 3.015957 10.56246 2.432334
v 2.636904 10.60887 -2.814072
v 2.817561 10.62701 0.397124
v 2.435864 10.84864 -2.801792
v -2.541284 10.85971 2.333037
v 0.7145825 11.16356 2.392583
v 0.7026513 10.95605 2.605674
v -2.542095 10.65864 2.556565
v -0.6278881 9.032944 2.835625
v 2.81762 10.59313 2.650708
v 0.7145825 11.16356 2.392583
v 2.825459 10.80255 2.417939
v 1.550549 9.121823 2.832187
v 0.9176196 7.259861 3.129922
v 0.1502954 5.918816 3.227266
v -0.9259301 6.701952 3.130625
v -1.665007 3.383394 3.54
v -2.625823 8.022579 2.932324
v -2.832019 8.000721 2.720503
v -2.743657 10.63554 2.350444
v -2.541284 10.85971 2.333037
v -2.67187 3.703023 3.393081
v -1.778245 -1.229052E-06 3.940781
v -2.747793 -1.229052E-06 3.609555
v -2.920688 -1.229052E-06 3.368613
v -2.870669 3.689341 3.173569
v 2.42991 6.414666 3.072666
v 1.679685 4.313568 3.122969
v 1.509421 1.81732 3.46625
v 2.24259 1.119719 3.406094
v 2.353101 3.701026 -3.576144
v 0.1188501 -1.229052E-06 -3.693437
v 2.248489 -1.229052E-06 -3.777009
v -0.2660034 2.82858 -3.379492
v 0.26198 6.021183 -3.197461
v 2.439643 5.107519 -3.492424
v 2.419368 10.6371 -3.01376
v 0.5435767 8.558376 -3.064453
vt 0.1157086 0.5138604
vt 0.127035 0.5784064
vt 0.1616094 0.7705268
vt 0.0714835 0.2617004
vt 0.0790557 0.304891
vt 0.08293799 0.3270064
vt 0.1279324 0.3815559
vt 0.1271174 0.6243892
vt 0.1620123 0.7778522
vt 0.08769933 0.1758153
vt 0.07273785 0.02603184
vt 0.03967882 0.02603184
vt 0.0790557 0.304891
vt 0.03208373 0.02603184
vt 0.07666521 0.02603184
vt 0.09474967 0.1183191
vt 0.119703 0.1165532
vt 0.1008925 0.02603184
vt 0.1582799 0.5523118
vt 0.3525627 0.5409313
vt 0.1338277 0.5547283
vt 0.1832819 0.8991171
vt 0.4794719 0.2282443
vt 0.4673901 0.02603184
vt 0.9134931 0.02603184
vt 0.2088959 0.8965768
vt 0.1864424 0.9171375
vt 0.8902519 0.3293457
vt 0.9130768 0.3310703
vt 0.9366181 0.02603184
vt 0.9027733 0.4469709
vt 0.8801734 0.4452579
vt 0.8471645 0.9027415
vt 0.8237605 0.9004142
vt 0.39492 0.8296217
vt 0.4474047 0.9019096
vt 0.6991511 0.569084
vt 0.6693563 0.8648704
vt 0.8471645 0.9027415
vt 0.8237605 0.9004142
vt 0.8472117 0.9002381
vt 0.8900289 0.2591633
vt 0.9543363 0.02603184
vt 0.9268236 0.02603184
vt 0.9493768 0.04883984
vt 0.9551025 0.02837929
vt 0.9289872 0.4072274
vt 0.8821406 0.3881263
vt 0.8686946 0.5222975
vt 0.9106397 0.5892603
vt 0.8531058 0.7314128
vt 0.8636037 0.7215154
vt 0.83913 0.911957
vt 0.8471645 0.9027415
vt 0.8490344 0.9322457
vt 0.8467249 0.9202634
vt 0.8483333 0.9492803
vt 0.150276 0.6872525
vt 0.09627468 0.3312348
vt 0.1220019 0.3301072
vt 0.1751024 0.6854516
vt 0.3282091 0.6531555
vt 0.4849887 0.7458424
vt 0.2184938 0.9026307
vt 0.5571636 0.8433702
vt 0.4877069 0.9117219
vt 0.8175198 0.9110419
vt 0.7158477 0.8430219
vt 0.6588265 0.6965961
vt 0.5612291 0.5647063
vt 0.2950494 0.4750503
vt 0.3175054 0.02603184
vt 0.09914248 0.02603184
vt 0.4961273 0.3139195
vt 0.4865819 0.02603184
vt 0.6990503 0.02603184
vt 0.7111092 0.6044263
vt 0.7205219 0.3776813
vt 0.9083225 0.4073573
vt 0.9278716 0.02603184
vt 0.9493768 0.04883984
vt 0.9289872 0.4072274
vt 0.8908634 0.5880017
vt 0.9106397 0.5892603
vt 0.83913 0.911957
vt 0.8375462 0.9286311
vt 0.8482878 0.9496853
vt 0.8490344 0.9322457
vt 0.8531058 0.7314128
vt 0.8636037 0.7215154
vt 0.2332102 0.9841562
vt 0.4959719 0.9841562
vt 0.4982082 0.9841562
vt 0.2320857 0.9841562
vt 0.3991478 0.9841562
vt 0.273395 0.9841562
vt 0.2250744 0.9841562
vt 0.416596 0.9841562
vt 0.2221352 0.9841562
vt 0.5295438 0.9841562
vt 0.7935014 0.9841562
vt 0.539775 0.9841562
vt 0.827668 0.9841562
vt 0.4993179 0.9841562
vt 0.8293236 0.9841562
vt 0.8003376 0.9841562
vt 0.8364894 0.9841562
vt 0.8050357 0.9841562
vt 0.8351875 0.9841562
vt 0.4573422 0.9841562
vt 0.4586777 0.9841561
vt 0.2205548 0.9841562
vt 0.8358329 0.9841563
vt 0.4592554 0.9841562
vt 0.8351875 0.9841562
vt 0.1973391 0.920471
vt 0.1913331 0.944527
vt 0.1885599 0.9290294
vt 0.1942599 0.9042399
vt 0.1616094 0.7705268
vt 0.1832819 0.8991171
vt 0.1912805 0.9447375
vt 0.1864424 0.9171375
vt 0.1620123 0.7778522
vt 0.1271174 0.6243892
vt 0.1157086 0.5138604
vt 0.127035 0.5784064
vt 0.0790557 0.304891
vt 0.150276 0.6872525
vt 0.1751024 0.6854516
vt 0.2184938 0.9026307
vt 0.1946803 0.9059615
vt 0.09627468 0.3312348
vt 0.03208373 0.02603184
vt 0.07090374 0.02603184
vt 0.09914248 0.02603184
vt 0.1220019 0.3301072
vt 0.1338277 0.5547283
vt 0.1279324 0.3815559
vt 0.08769933 0.1758153
vt 0.09474967 0.1183191
vt 0.9130768 0.3310703
vt 0.9268236 0.02603184
vt 0.9366181 0.02603184
vt 0.8900289 0.2591633
vt 0.8686946 0.5222975
vt 0.9027733 0.4469709
vt 0.8471645 0.9027415
vt 0.8531058 0.7314128
vn 0.03852435 0.1132778 0.9928162
vn -0.02914392 0.1266192 0.9915231
vn -0.02000081 0.1332286 0.9908835
vn 0.06662332 0.1063889 0.9920901
vn -0.05930428 0.1109155 0.9920589
vn 0.07034501 0.112747 0.9911305
vn 0.07638257 0.08568648 0.99339
vn 0.02665225 0.1030084 0.9943234
vn 0.02372941 0.1004304 0.994661
vn 0.1046544 0.08312701 0.9910285
vn 0.1477488 0.07761022 0.9859751
vn 0.06858838 0.0935789 0.9932464
vn -0.05930428 0.1109155 0.9920589
vn -0.08002577 0.1002603 0.9917378
vn 0.2552564 0.1100904 0.9605854
vn 0.3225673 0.07701522 0.9434081
vn 0.9869645 0.005346776 0.1608495
vn 0.9895949 0.03071151 0.1405661
vn 0.9895746 -0.03123019 0.1405943
vn 0.9997491 -0.02070248 0.008548389
vn 0.1895197 0.06717554 0.9795763
vn 0.1791913 0.1497156 0.9723557
vn 0.9999626 -0.008655974 3.438954E-05
vn 0.9999104 -0.002938265 -0.01306172
vn 0.9903359 -0.01294334 -0.1380834
vn 0.9940401 0.00638241 0.1088281
vn 0.3280499 0.93095 0.1603599
vn 0.9962869 -0.004176446 -0.08599489
vn -0.006800728 0.06768556 -0.9976835
vn 0.01370274 0.07128792 -0.9973616
vn 0.01670668 0.07245199 -0.997232
vn 0.9962183 0.006212164 -0.08666384
vn 0.118167 0.1288659 -0.9845964
vn 0.9777176 0.09954541 -0.1848215
vn 0.9987386 -0.03785809 -0.03298536
vn 0.9721372 0.2242593 -0.06824139
vn 0.9996164 -0.00196814 -0.02762574
vn 0.9992788 -0.01375183 -0.03539529
vn 0.118167 0.1288659 -0.9845964
vn 0.9777176 0.09954541 -0.1848215
vn 0.3203712 0.9300807 -0.1797561
vn 0.027107 0.06912587 -0.9972396
vn 0.07379856 0.1250257 -0.989405
vn -0.02431952 0.08969726 -0.9956721
vn -0.009019918 0.09825033 -0.9951208
vn -0.9973705 0.02311227 -0.0686877
vn 0.04431175 0.05637318 -0.9974259
vn 0.06231899 0.06228444 -0.996111
vn -0.04241167 0.06513505 -0.9969748
vn 0.06394875 0.1026539 -0.9926594
vn -0.03973602 0.06279895 -0.9972349
vn 0.09473854 0.07362133 -0.9927762
vn -0.07266366 0.1497505 -0.9860501
vn 0.118167 0.1288659 -0.9845964
vn 0.00159582 0.16158 -0.9868582
vn 0.3203712 0.9300807 -0.1797561
vn 0.05051403 0.9674037 -0.2481499
vn -0.1566288 0.1293297 0.9791533
vn -0.2441874 0.1058284 0.9639362
vn -0.9946837 0.02264677 0.1004563
vn -0.995513 0.04418601 0.08367489
vn -0.9992767 0.0233933 -0.02998275
vn -0.9985399 0.03231783 -0.04328432
vn -0.9946712 0.09844891 0.03061061
vn -0.9980997 0.0415 -0.04554836
vn -0.9910955 0.1292821 -0.03187247
vn -0.9619043 0.154406 -0.2256076
vn -0.9968032 0.02963657 -0.07419632
vn -0.9968928 0.02140067 -0.07580722
vn -0.9989277 0.01377917 -0.04419886
vn -0.9997497 0.01355253 -0.01779847
vn -0.999657 0.02572859 0.004874882
vn -0.9961415 0.02014657 0.08541761
vn -0.9984487 0.02637018 -0.04903818
vn -0.9978928 0.03104401 -0.05697601
vn -0.9978747 0.02203138 -0.06132501
vn -0.997453 0.01973942 -0.0685401
vn -0.998398 0.02053159 -0.05272315
vn -0.9873604 0.02916916 -0.1557835
vn -0.9973705 0.02311227 -0.0686877
vn -0.009019918 0.09825033 -0.9951208
vn 0.04431175 0.05637318 -0.9974259
vn -0.972913 0.04089615 -0.2275255
vn 0.06394875 0.1026539 -0.9926594
vn -0.07266366 0.1497505 -0.9860501
vn -0.2444008 0.9619001 -0.1225412
vn 0.05051403 0.9674037 -0.2481499
vn 0.00159582 0.16158 -0.9868582
vn -0.03973602 0.06279895 -0.9972349
vn 0.09473854 0.07362133 -0.9927762
vn -0.9946712 0.09844891 0.03061061
vn -0.9910955 0.1292821 -0.03187247
vn -0.2464043 0.9691671 0.0004522424
vn -0.238397 0.9442587 0.2270298
vn -0.05464558 0.9984788 0.00734408
vn 0.02964436 0.9995528 -0.003922286
vn 0.01776507 0.981091 0.1927297
vn 0.08514891 0.9961854 -0.01909292
vn 0.3280499 0.93095 0.1603599
vn -0.03543905 0.9993662 -0.003347002
vn -0.07575125 0.9970498 0.01238785
vn 0.06395385 0.9979416 -0.004734257
vn -0.2444008 0.9619001 -0.1225412
vn -0.9910955 0.1292821 -0.03187247
vn -0.9619043 0.154406 -0.2256076
vn 0.07089116 0.9973795 0.01443975
vn 0.05051403 0.9674037 -0.2481499
vn 0.1321697 0.9912254 0.001840581
vn 0.3203712 0.9300807 -0.1797561
vn 0.3129596 0.9496629 -0.01402553
vn 0.9721372 0.2242593 -0.06824139
vn 0.9940401 0.00638241 0.1088281
vn 0.9777176 0.09954541 -0.1848215
vn 0.9721372 0.2242593 -0.06824139
vn 0.3203712 0.9300807 -0.1797561
vn -0.238397 0.9442587 0.2270298
vn 0.01776507 0.981091 0.1927297
vn -0.007319759 0.2609729 0.9653184
vn -0.1332124 0.2447954 0.9603799
vn -0.02000081 0.1332286 0.9908835
vn 0.1791913 0.1497156 0.9723557
vn 0.01776507 0.981091 0.1927297
vn 0.3280499 0.93095 0.1603599
vn 0.02372941 0.1004304 0.994661
vn 0.02665225 0.1030084 0.9943234
vn 0.03852435 0.1132778 0.9928162
vn -0.02914392 0.1266192 0.9915231
vn -0.05930428 0.1109155 0.9920589
vn -0.1566288 0.1293297 0.9791533
vn -0.995513 0.04418601 0.08367489
vn -0.9946712 0.09844891 0.03061061
vn -0.238397 0.9442587 0.2270298
vn -0.2441874 0.1058284 0.9639362
vn -0.08002577 0.1002603 0.9917378
vn -0.3616594 0.08406837 0.9285123
vn -0.9961415 0.02014657 0.08541761
vn -0.9946837 0.02264677 0.1004563
vn 0.1895197 0.06717554 0.9795763
vn 0.07638257 0.08568648 0.99339
vn 0.1046544 0.08312701 0.9910285
vn 0.3225673 0.07701522 0.9434081
vn -0.006800728 0.06768556 -0.9976835
vn -0.02431952 0.08969726 -0.9956721
vn 0.01370274 0.07128792 -0.9973616
vn 0.027107 0.06912587 -0.9972396
vn -0.04241167 0.06513505 -0.9969748
vn 0.01670668 0.07245199 -0.997232
vn 0.118167 0.1288659 -0.9845964
vn -0.03973602 0.06279895 -0.9972349
g Cliff_T_0
f 3/3/3 2/2/2 1/1/1
f 1/1/1 5/5/5 4/4/4
f 4/4/4 6/6/6 1/1/1
f 1/1/1 6/6/6 7/7/7
f 8/8/8 1/1/1 7/7/7
f 9/9/9 8/8/8 7/7/7
f 7/7/7 6/6/6 10/10/10
f 6/6/6 4/4/4 10/10/10
f 11/11/11 10/10/10 4/4/4
f 12/12/12 11/11/11 4/4/4
f 12/12/12 4/4/4 13/13/13
f 14/14/14 12/12/12 13/13/13
f 11/11/11 15/15/15 10/10/10
f 15/15/15 16/16/16 10/10/10
f 17/17/17 16/16/16 15/15/15
f 18/18/18 17/17/17 15/15/15
f 17/17/17 19/19/19 16/16/16
f 19/19/19 17/17/17 20/20/20
f 19/19/19 21/21/21 16/16/16
f 21/21/21 22/22/22 9/9/9
f 17/17/17 18/18/18 23/23/23
f 17/17/17 23/23/23 20/20/20
f 18/18/18 24/24/24 23/23/23
f 23/23/23 24/24/24 25/25/25
f 21/21/21 19/19/19 26/26/26
f 22/22/22 21/21/21 26/26/26
f 26/26/26 19/19/19 20/20/20
f 27/27/27 22/22/22 26/26/26
f 28/28/28 23/23/23 25/25/25
f 20/20/20 23/23/23 28/28/28
f 28/28/28 25/25/25 29/29/29
f 25/25/25 30/30/30 29/29/29
f 29/29/29 31/31/31 28/28/28
f 31/31/31 32/32/32 28/28/28
f 28/28/28 32/32/32 20/20/20
f 31/31/31 33/33/33 32/32/32
f 33/33/33 34/34/34 32/32/32
f 35/35/35 26/26/26 20/20/20
f 35/35/35 36/36/36 26/26/26
f 34/34/34 36/36/36 35/35/35
f 32/32/32 37/37/37 20/20/20
f 20/20/20 37/37/37 35/35/35
f 32/32/32 34/34/34 38/38/38
f 38/38/38 34/34/34 35/35/35
f 37/37/37 38/38/38 35/35/35
f 37/37/37 32/32/32 38/38/38
f 41/41/41 40/40/40 39/39/39
f 44/44/44 43/43/43 42/42/42
f 43/43/43 45/45/45 42/42/42
f 45/45/45 43/43/43 46/46/46
f 42/42/42 45/45/45 47/47/47
f 48/48/48 42/42/42 47/47/47
f 42/42/42 48/48/48 49/49/49
f 48/48/48 47/47/47 50/50/50
f 49/49/49 48/48/48 51/51/51
f 48/48/48 50/50/50 52/52/52
f 48/48/48 52/52/52 51/51/51
f 50/50/50 53/53/53 52/52/52
f 55/55/55 54/54/54 51/51/51
f 54/54/54 55/55/55 56/56/56
f 55/55/55 57/57/57 56/56/56
f 60/60/60 59/59/59 58/58/58
f 61/61/61 60/60/60 58/58/58
f 60/60/60 61/61/61 62/62/62
f 63/63/63 62/62/62 61/61/61
f 61/61/61 64/64/64 63/63/63
f 64/64/64 65/65/65 63/63/63
f 64/64/64 66/66/66 65/65/65
f 65/65/65 66/66/66 67/67/67
f 63/63/63 65/65/65 68/68/68
f 68/68/68 65/65/65 67/67/67
f 63/63/63 68/68/68 69/69/69
f 69/69/69 68/68/68 67/67/67
f 62/62/62 63/63/63 70/70/70
f 69/69/69 70/70/70 63/63/63
f 71/71/71 60/60/60 62/62/62
f 71/71/71 62/62/62 70/70/70
f 71/71/71 72/72/72 60/60/60
f 72/72/72 73/73/73 60/60/60
f 71/71/71 74/74/74 72/72/72
f 70/70/70 74/74/74 71/71/71
f 74/74/74 75/75/75 72/72/72
f 76/76/76 75/75/75 74/74/74
f 70/70/70 69/69/69 77/77/77
f 77/77/77 69/69/69 67/67/67
f 78/78/78 74/74/74 70/70/70
f 78/78/78 76/76/76 74/74/74
f 70/70/70 77/77/77 78/78/78
f 78/78/78 79/79/79 76/76/76
f 78/78/78 77/77/77 79/79/79
f 79/79/79 80/80/80 76/76/76
f 81/81/81 80/80/80 79/79/79
f 82/82/82 81/81/81 79/79/79
f 77/77/77 83/83/83 79/79/79
f 82/82/82 79/79/79 83/83/83
f 67/67/67 83/83/83 77/77/77
f 84/84/84 82/82/82 83/83/83
f 84/84/84 83/83/83 67/67/67
f 85/85/85 84/84/84 67/67/67
f 85/85/85 67/67/67 86/86/86
f 86/86/86 87/87/87 85/85/85
f 87/87/87 88/88/88 85/85/85
f 88/88/88 89/89/89 85/85/85
f 89/89/89 90/90/90 85/85/85
f 93/93/93 92/92/92 91/91/91
f 94/94/94 93/93/93 91/91/91
f 95/95/95 93/93/93 94/94/94
f 96/96/96 95/95/95 94/94/94
f 97/97/97 96/96/96 94/94/94
f 98/98/98 96/96/96 97/97/97
f 95/95/95 96/96/96 98/98/98
f 99/99/99 98/98/98 97/97/97
f 93/93/93 95/95/95 100/100/100
f 100/100/100 95/95/95 98/98/98
f 93/93/93 100/100/100 101/101/101
f 98/98/98 102/102/102 100/100/100
f 100/100/100 102/102/102 101/101/101
f 101/101/101 103/103/103 93/93/93
f 104/104/104 93/93/93 103/103/103
f 105/105/105 104/104/104 103/103/103
f 102/102/102 106/106/106 101/101/101
f 101/101/101 106/106/106 103/103/103
f 106/106/106 102/102/102 98/98/98
f 106/106/106 107/107/107 103/103/103
f 108/108/108 107/107/107 106/106/106
f 106/106/106 98/98/98 108/108/108
f 107/107/107 108/108/108 109/109/109
f 109/109/109 108/108/108 98/98/98
f 110/110/110 109/109/109 98/98/98
f 99/99/99 110/110/110 98/98/98
f 111/111/111 110/110/110 99/99/99
f 112/112/112 111/111/111 99/99/99
f 110/110/110 114/114/114 113/113/113
f 115/115/115 110/110/110 113/113/113
f 118/118/118 117/117/117 116/116/116
f 119/119/119 118/118/118 116/116/116
f 118/118/118 119/119/119 120/120/120
f 118/118/118 120/120/120 121/121/121
f 118/118/118 121/121/121 122/122/122
f 121/121/121 123/123/123 122/122/122
f 120/120/120 124/124/124 121/121/121
f 125/125/125 124/124/124 120/120/120
f 120/120/120 126/126/126 125/125/125
f 120/120/120 119/119/119 127/127/127
f 126/126/126 127/127/127 128/128/128
f 128/128/128 127/127/127 129/129/129
f 119/119/119 129/129/129 127/127/127
f 129/129/129 119/119/119 130/130/130
f 119/119/119 131/131/131 130/130/130
f 119/119/119 132/132/132 131/131/131
f 133/133/133 128/128/128 129/129/129
f 134/134/134 128/128/128 133/133/133
f 135/135/135 134/134/134 133/133/133
f 136/136/136 135/135/135 133/133/133
f 137/137/137 136/136/136 133/133/133
f 124/124/124 139/139/139 138/138/138
f 139/139/139 140/140/140 138/138/138
f 140/140/140 141/141/141 138/138/138
f 144/144/144 143/143/143 142/142/142
f 143/143/143 145/145/145 142/142/142
f 142/142/142 145/145/145 146/146/146
f 146/146/146 147/147/147 142/142/142
f 148/148/148 147/147/147 146/146/146
f 149/149/149 148/148/148 146/146/146
