g Cliff_G
v -1.094346 1.098036 -1.215416
v -1.120378 0.9799342 -1.381256
v -0.9530578 1.207053 -1.312482
v -1.201602 0.9571342 -1.305941
v -1.120378 0.9799342 -1.381256
v -1.182889 1.034167 -1.044982
v -1.088811 1.168079 -1.189185
v -0.9530578 1.207053 -1.312482
v -1.173224 1.343233 -1.133485
v -1.118903 1.352638 -1.23329
v 1.145548 1.509231 1.336857
v 1.166979 -1.229052E-06 -0.4874035
v 1.210114 -1.229052E-06 1.5463
v -0.5292029 5.89335 -0.5712219
v -0.5288269 5.971174 -0.4787146
v -0.613634 5.890562 -0.4936121
v 1.145548 1.509231 1.336857
v 1.210114 -1.229052E-06 1.5463
v 1.12641 -1.229052E-06 1.628109
v 1.056288 1.518474 1.411671
v -0.8692957 2.054814 1.065768
v -0.8994727 -1.229052E-06 1.520656
v -0.9818542 -1.229052E-06 1.436075
v -0.9481738 2.054413 0.9778357
v -1.039593 -1.229052E-06 0.2525378
v -0.7911316 2.789742 1.139415
v -1.182889 1.034167 -1.044982
v -1.266914 -1.229052E-06 -1.528292
v -1.201602 0.9571342 -1.305941
v -1.173224 1.343233 -1.133485
v -0.7248328 4.566061 -0.8339514
v -0.8677478 2.805342 1.052623
v -0.6981409 4.970656 0.02567749
v 1.167028 2.652993 1.41551
v -0.5149353 5.49811 1.331105
v -0.602196 5.472258 1.247416
v -0.5372083 6.101647 1.294906
v -0.613634 5.890562 -0.4936121
v -0.5288269 5.971174 -0.4787146
v -0.4537512 6.187333 1.291844
v -0.4538122 6.110967 1.377723
v 1.096151 4.493908 1.296454
v 1.293446 2.64134 1.298379
v 1.207064 4.505235 1.159396
v 1.220719 1.743026 0.111283
v 0.8275305 6.229717 1.250387
v 0.7473059 6.230371 1.336051
v 0.7337121 6.304913 1.250055
v -0.4537512 6.187333 1.291844
v 0.7337121 6.304913 1.250055
v 1.187941 -1.229052E-06 -1.224796
v 1.166979 -1.229052E-06 -0.4874035
v 1.22548 1.171442 -1.178241
v 1.19441 -1.229052E-06 -1.407181
v 0.7420129 6.020932 -0.3493689
v -0.5288269 5.971174 -0.4787146
v -0.5292029 5.89335 -0.5712219
v 0.7569153 5.939344 -0.4355066
v -0.6353601 4.568781 -0.9095032
v -0.9530578 1.207053 -1.312482
v -1.118903 1.352638 -1.23329
v -0.7248328 4.566061 -0.8339514
v -1.173224 1.343233 -1.133485
v 1.059623 2.822531 -0.9015149
v 1.14149 2.813933 -0.8184802
v -0.6785754 -1.229052E-06 -1.616061
v -1.120378 0.9799342 -1.381256
v -1.19031 -1.229052E-06 -1.617718
v -1.201602 0.9571342 -1.305941
v -1.266914 -1.229052E-06 -1.528292
v 1.144969 1.187417 -1.261371
v 1.11589 -1.229052E-06 -1.495695
v 1.19441 -1.229052E-06 -1.407181
v 1.22548 1.171442 -1.178241
v 1.220719 1.743026 0.111283
v 1.293446 2.64134 1.298379
v 1.207064 4.505235 1.159396
v 0.8275305 6.229717 1.250387
v 0.8304016 5.948377 -0.3428259
v 0.7337121 6.304913 1.250055
v 0.7420129 6.020932 -0.3493689
v -0.6353601 4.568781 -0.9095032
v -0.5292029 5.89335 -0.5712219
v -0.613634 5.890562 -0.4936121
v -0.7248328 4.566061 -0.8339514
v -0.6981409 4.970656 0.02567749
v -0.4537512 6.187333 1.291844
v -0.5288269 5.971174 -0.4787146
v 0.2148718 6.129752 0.5122766
v 0.7337121 6.304913 1.250055
v 0.7420129 6.020932 -0.3493689
vt 0.08669306 0.1756381
vt 0.0934342 0.1610545
vt 0.1537036 0.1941218
vt 0.06418113 0.1577456
vt 0.0934342 0.1610545
vt 0.0709213 0.168958
vt 0.08981103 0.1931664
vt 0.1537036 0.1941218
vt 0.07409705 0.2139515
vt 0.0956498 0.2135695
vt 0.9096636 0.2381028
vt 0.9173143 0.01843397
vt 0.9328517 0.01843397
vt 0.3063709 0.8762171
vt 0.275197 0.8733308
vt 0.2760631 0.8758068
vt 0.9096636 0.2381028
vt 0.9328517 0.01843397
vt 0.9027028 0.01843397
vt 0.8774457 0.2394494
vt 0.1838738 0.3175143
vt 0.1730044 0.01843398
vt 0.1433315 0.01843397
vt 0.1554626 0.3174559
vt 0.1225345 0.01843397
vt 0.2120459 0.4244888
vt 0.0709213 0.168958
vt 0.0406565 0.01843397
vt 0.06418113 0.1577456
vt 0.07409705 0.2139515
vt 0.2359078 0.6830291
vt 0.1844314 0.4267545
vt 0.2455216 0.7419182
vt 0.9246969 0.4043057
vt 0.3115098 0.8186897
vt 0.2800795 0.8149269
vt 0.3032752 0.9065437
vt 0.2760631 0.8758068
vt 0.2793531 0.8871506
vt 0.3061948 0.9181511
vt 0.3335258 0.9078916
vt 0.8985096 0.6728039
vt 0.9555017 0.4031582
vt 0.9250454 0.6738988
vt 0.9366721 0.2721332
vt 0.7950497 0.9251758
vt 0.7661537 0.9252709
vt 0.7887251 0.9370289
vt 0.3347683 0.9186108
vt 0.762478 0.9357247
vt 0.9248646 0.01843397
vt 0.9173143 0.01843397
vt 0.9383866 0.1889387
vt 0.9271945 0.01843398
vt 0.7567841 0.8932731
vt 0.3074098 0.8860092
vt 0.3063709 0.8762171
vt 0.7696148 0.8829119
vt 0.2681345 0.6834248
vt 0.1537036 0.1941218
vt 0.0956498 0.2135695
vt 0.2359078 0.6830291
vt 0.07409705 0.2139515
vt 0.8786467 0.4292564
vt 0.9081342 0.4280049
vt 0.252569 0.01843401
vt 0.0934342 0.1610545
vt 0.06824825 0.01843403
vt 0.06418113 0.1577456
vt 0.0406565 0.01843397
vt 0.9093875 0.1912637
vt 0.8989128 0.01843404
vt 0.9271945 0.01843398
vt 0.9383866 0.1889387
vt 0.9366721 0.2721332
vt 0.9555017 0.4031582
vt 0.9250454 0.6738988
vt 0.7950497 0.9251758
vt 0.7990799 0.8843675
vt 0.7887251 0.9370289
vt 0.793255 0.8957015
vt 0.2681345 0.6834248
vt 0.3063709 0.8762171
vt 0.2760631 0.8758068
vt 0.2359078 0.6830291
vt 0.2455216 0.7419182
vt 0.328351 0.9841562
vt 0.2963504 0.9841563
vt 0.5893378 0.9841562
vt 0.79374 0.9841562
vt 0.7970064 0.9841562
vn -0.7562339 0.5706686 -0.3200746
vn -0.6518382 0.6623325 -0.3693545
vn -0.7505801 0.2120029 -0.6258469
vn -0.6744772 0.6870515 -0.2702604
vn -0.6518382 0.6623325 -0.3693545
vn -0.8546521 0.3008605 -0.4231463
vn -0.7488613 -0.1032903 -0.6546282
vn -0.7505801 0.2120029 -0.6258469
vn -0.7954869 -0.2016543 -0.5714335
vn -0.7286873 -0.2692931 -0.6296793
vn 0.9939474 -0.02440564 0.1071118
vn 0.999104 -0.02899841 0.03082522
vn 0.996191 0.05257801 0.06956219
vn -0.01242479 0.3145753 -0.9491512
vn -0.2094256 0.9521602 -0.2225576
vn -0.9778668 0.1989555 -0.06475426
vn 0.9939474 -0.02440564 0.1071118
vn 0.996191 0.05257801 0.06956219
vn -0.05277601 0.1832533 0.9816481
vn -0.06823418 0.1236183 0.9899811
vn -0.1630668 0.1017153 0.9813579
vn -0.1262938 0.1842289 0.9747356
vn -0.9813635 0.056786 0.1835785
vn -0.9921458 0.08560263 0.09120706
vn -0.9944125 0.07177163 0.0774122
vn -0.2009276 -0.03779753 0.9788767
vn -0.9933332 0.0777206 0.08513939
vn -0.9984869 0.04934305 0.02427252
vn -0.9975016 0.04087134 0.05762082
vn -0.9943915 0.09043323 0.05483976
vn -0.9943316 0.1013529 -0.03212799
vn -0.9932841 0.08394924 0.07961885
vn -0.9953069 0.09451974 0.02073723
vn -0.03605039 -0.02326179 0.9990792
vn -0.06127147 0.008766332 0.9980826
vn -0.9870977 0.0937523 0.1298028
vn -0.9763362 0.2070942 0.0622877
vn -0.9778668 0.1989555 -0.06475426
vn -0.2094256 0.9521602 -0.2225576
vn -0.2330632 0.9723395 0.01541331
vn 0.006636678 0.06712247 0.9977227
vn 0.1518182 0.03794632 0.9876797
vn 0.9997504 0.01814427 0.0130348
vn 0.9911126 0.125041 -0.04539354
vn 0.9998558 -0.003032523 -0.01671102
vn 0.9809219 0.1878592 -0.05001133
vn 0.1506811 0.08407667 0.9850007
vn 0.09047937 0.9958819 -0.005724561
vn -0.2330632 0.9723395 0.01541331
vn 0.09047937 0.9958819 -0.005724561
vn 0.9987631 -0.03880637 0.03108465
vn 0.999104 -0.02899841 0.03082522
vn 0.994157 0.02229676 -0.1056164
vn 0.9947003 -0.008130592 -0.1024951
vn 0.1260455 0.9599907 -0.2500606
vn -0.2094256 0.9521602 -0.2225576
vn -0.01242479 0.3145753 -0.9491512
vn 0.1752055 0.1742776 -0.9689841
vn 0.07447665 0.1424149 -0.9870012
vn 0.07299755 0.1805973 -0.9808445
vn 0.07658035 0.1371884 -0.9875802
vn -0.9943316 0.1013529 -0.03212799
vn -0.9943915 0.09043323 0.05483976
vn 0.1353687 0.1549165 -0.9786093
vn 0.987551 0.08633827 -0.1314869
vn 0.03018806 0.2269136 -0.973447
vn 0.008635918 0.2326473 -0.9725229
vn -0.2279159 0.2425189 -0.9429947
vn -0.9975016 0.04087134 0.05762082
vn -0.9984869 0.04934305 0.02427252
vn 0.07783805 0.2254919 -0.9711306
vn 0.1370987 0.188406 -0.9724748
vn 0.9947003 -0.008130592 -0.1024951
vn 0.994157 0.02229676 -0.1056164
vn 0.9998558 -0.003032523 -0.01671102
vn 0.9997504 0.01814427 0.0130348
vn 0.9911126 0.125041 -0.04539354
vn 0.9809219 0.1878592 -0.05001133
vn 0.9743457 0.1768828 -0.1391507
vn 0.09047937 0.9958819 -0.005724561
vn 0.1260455 0.9599907 -0.2500606
vn 0.07447665 0.1424149 -0.9870012
vn -0.01242479 0.3145753 -0.9491512
vn -0.9778668 0.1989555 -0.06475426
vn -0.9943316 0.1013529 -0.03212799
vn -0.9953069 0.09451974 0.02073723
vn -0.2330632 0.9723395 0.01541331
vn -0.2094256 0.9521602 -0.2225576
vn -0.06395744 0.9872732 -0.1456058
vn 0.09047937 0.9958819 -0.005724561
vn 0.1260455 0.9599907 -0.2500606
g Cliff_G_0
f 3/3/3 2/2/2 1/1/1
f 1/1/1 5/5/5 4/4/4
f 1/1/1 4/4/4 6/6/6
f 6/6/6 7/7/7 1/1/1
f 7/7/7 8/8/8 1/1/1
f 6/6/6 9/9/9 7/7/7
f 7/7/7 10/10/10 8/8/8
f 7/7/7 9/9/9 10/10/10
f 13/13/13 12/12/12 11/11/11
f 16/16/16 15/15/15 14/14/14
f 19/19/19 18/18/18 17/17/17
f 20/20/20 19/19/19 17/17/17
f 20/20/20 21/21/21 19/19/19
f 21/21/21 22/22/22 19/19/19
f 23/23/23 22/22/22 21/21/21
f 24/24/24 23/23/23 21/21/21
f 25/25/25 23/23/23 24/24/24
f 21/21/21 20/20/20 26/26/26
f 24/24/24 21/21/21 26/26/26
f 27/27/27 25/25/25 24/24/24
f 28/28/28 25/25/25 27/27/27
f 29/29/29 28/28/28 27/27/27
f 24/24/24 30/30/30 27/27/27
f 24/24/24 31/31/31 30/30/30
f 24/24/24 32/32/32 31/31/31
f 32/32/32 24/24/24 26/26/26
f 32/32/32 33/33/33 31/31/31
f 20/20/20 34/34/34 26/26/26
f 32/32/32 26/26/26 35/35/35
f 35/35/35 26/26/26 34/34/34
f 33/33/33 32/32/32 36/36/36
f 36/36/36 32/32/32 35/35/35
f 33/33/33 36/36/36 37/37/37
f 38/38/38 33/33/33 37/37/37
f 38/38/38 37/37/37 39/39/39
f 37/37/37 40/40/40 39/39/39
f 41/41/41 40/40/40 37/37/37
f 37/37/37 36/36/36 41/41/41
f 36/36/36 35/35/35 41/41/41
f 42/42/42 41/41/41 35/35/35
f 34/34/34 42/42/42 35/35/35
f 34/34/34 20/20/20 43/43/43
f 20/20/20 17/17/17 43/43/43
f 34/34/34 43/43/43 44/44/44
f 42/42/42 34/34/34 44/44/44
f 45/45/45 43/43/43 17/17/17
f 44/44/44 46/46/46 42/42/42
f 42/42/42 47/47/47 41/41/41
f 46/46/46 47/47/47 42/42/42
f 46/46/46 48/48/48 47/47/47
f 49/49/49 41/41/41 47/47/47
f 50/50/50 49/49/49 47/47/47
f 51/51/51 45/45/45 17/17/17
f 52/52/52 51/51/51 17/17/17
f 53/53/53 45/45/45 51/51/51
f 54/54/54 53/53/53 51/51/51
f 57/57/57 56/56/56 55/55/55
f 58/58/58 57/57/57 55/55/55
f 58/58/58 59/59/59 57/57/57
f 60/60/60 59/59/59 58/58/58
f 60/60/60 61/61/61 59/59/59
f 59/59/59 61/61/61 62/62/62
f 61/61/61 63/63/63 62/62/62
f 58/58/58 64/64/64 60/60/60
f 64/64/64 58/58/58 65/65/65
f 66/66/66 60/60/60 64/64/64
f 66/66/66 67/67/67 60/60/60
f 66/66/66 68/68/68 67/67/67
f 69/69/69 67/67/67 68/68/68
f 70/70/70 69/69/69 68/68/68
f 64/64/64 71/71/71 66/66/66
f 72/72/72 66/66/66 71/71/71
f 73/73/73 72/72/72 71/71/71
f 74/74/74 73/73/73 71/71/71
f 74/74/74 71/71/71 64/64/64
f 65/65/65 74/74/74 64/64/64
f 75/75/75 74/74/74 65/65/65
f 75/75/75 65/65/65 76/76/76
f 65/65/65 77/77/77 76/76/76
f 78/78/78 77/77/77 65/65/65
f 79/79/79 78/78/78 65/65/65
f 58/58/58 79/79/79 65/65/65
f 80/80/80 78/78/78 79/79/79
f 58/58/58 81/81/81 79/79/79
f 81/81/81 80/80/80 79/79/79
f 84/84/84 83/83/83 82/82/82
f 85/85/85 84/84/84 82/82/82
f 86/86/86 84/84/84 85/85/85
f 89/89/89 88/88/88 87/87/87
f 89/89/89 87/87/87 90/90/90
f 91/91/91 88/88/88 89/89/89
f 91/91/91 89/89/89 90/90/90
