g cliffBase04_COL
v -7.190273 -9.732841 -5.816323
v -7.7371 -0.0007111359 -5.50977
v -7.733438 -9.732792 -5.521284
v -7.190244 -0.0007111359 -5.816313
v -6.274785 -0.0007111359 -6.610073
v -5.927129 -0.0007111359 -1.767642
v 5.899814 -0.0007111359 -3.92768
v 7.187959 -0.0007111359 -3.943071
v 8.975195 -0.0007111359 -3.148237
v -2.139688 -0.0007111359 -7.221392
v -1.039199 -0.0007111359 -5.963676
v -2.080752 -0.0007111359 -1.841694
v -1.406035 -0.0007111359 4.369165
v -1.885869 -0.0007111359 3.970493
v -2.131475 -0.0007111359 3.260679
v -3.122305 -0.0007111359 2.280288
v -5.927129 -0.0007111359 -1.767642
v -5.482549 -0.0007111359 2.622837
v -3.122305 -0.0007111359 2.280288
v -7.7371 -0.0007111359 -5.50977
v -7.190244 -0.0007111359 -5.816313
v -5.927129 -0.0007111359 -1.767642
v -6.101807 -0.0007111359 2.527016
v -6.850605 -0.0007111359 1.955063
v -8.680137 -0.0007111359 2.438999
v -9.534228 -0.0007111359 2.149009
v -10.16171 -0.0007111359 1.489712
v -9.874346 -0.0007111359 0.2377392
v -9.993964 -0.0007111359 -0.6263526
v -1.039199 -0.0007111359 -5.963676
v 1.292168 -0.0007111359 -5.887339
v 1.751387 -0.0007111359 -5.570679
v 2.203379 -0.0007111359 -5.393813
v 2.439199 -0.0007111359 -5.020425
v 2.711211 -0.0007111359 0.4639794
v 4.10292 -0.0007111359 -4.763257
v 4.424062 -0.0007111359 -3.64479
v 1.690957 -0.0007111359 5.953472
v 0.9983592 -0.0007111359 4.572749
v -5.205371 -0.0007111359 -6.749751
v -5.927129 -0.0007111359 -1.767642
v -4.178984 -0.0007111359 -7.365278
v -2.080752 -0.0007111359 -1.841694
v -2.139688 -0.0007111359 -7.221392
v -2.080752 -0.0007111359 -1.841694
v 9.978691 -0.0007111359 3.447378
v 10.00103 -0.0007111359 4.245737
v 9.53459 -0.0007111359 4.856265
v 8.65792 -0.0007111359 5.128247
v 7.420517 -0.0007111359 5.50645
v -9.062187 -0.0007111359 -5.906968
v -8.467539 -0.0007111359 -6.013969
v -7.7371 -0.0007111359 -5.50977
v -9.062187 -0.0007111359 -5.906968
v -7.7371 -0.0007111359 -5.50977
v -5.927129 -0.0007111359 -1.767642
v -9.568154 -0.0007111359 -5.334829
v -5.927129 -0.0007111359 -1.767642
v -10.23832 -0.0007111359 -4.401802
v -6.274785 -0.0007111359 -6.610073
v -5.205371 -0.0007111359 -6.749751
v -10.04039 -0.0007111359 -3.57481
v -10.23832 -0.0007111359 -4.401802
v -5.927129 -0.0007111359 -1.767642
v -9.964726 -0.0007111359 -2.67354
v -10.04039 -0.0007111359 -3.57481
v -9.897754 -0.0007111359 -1.727144
v 2.711211 -0.0007111359 0.4639794
v -1.406035 -0.0007111359 4.369165
v -2.080752 -0.0007111359 -1.841694
v 0.9983592 -0.0007111359 4.572749
v -0.7926271 -0.0007111359 4.305376
v -1.406035 -0.0007111359 4.369165
v -7.190273 -9.732841 -5.816323
v -7.190244 -0.0007111359 -5.816313
v -7.7371 -0.0007111359 -5.50977
v -6.535996 -9.732841 -6.473608
v -6.274785 -0.0007111359 -6.610073
v -5.205371 -9.732841 -6.749751
v -5.205371 -0.0007111359 -6.749751
v -4.256318 -9.732841 -7.412563
v -4.178984 -0.0007111359 -7.365278
v -2.139688 -9.732841 -7.221392
v -4.178984 -0.0007111359 -7.365278
v -2.139688 -0.0007111359 -7.221392
v -1.196406 -9.732841 -6.140581
v -1.039199 -0.0007111359 -5.963676
v 0.7823631 -9.732841 -5.820034
v 1.292168 -0.0007111359 -5.887339
v 1.748965 -9.732841 -5.61729
v 1.751387 -0.0007111359 -5.570679
v 2.203379 -0.0007111359 -5.393813
v 2.439199 -9.732841 -5.020425
v 2.439199 -0.0007111359 -5.020425
v 4.023652 -9.732841 -4.827485
v 4.10292 -0.0007111359 -4.763257
v 4.630371 -9.732841 -3.536685
v 4.424062 -0.0007111359 -3.64479
v 5.883027 -9.732841 -3.970737
v 5.899814 -0.0007111359 -3.92768
v 7.187959 -0.0007111359 -3.943071
v 7.129941 -9.732841 -3.929028
v 8.845293 -9.732841 -3.192925
v 8.975195 -0.0007111359 -3.148237
v 10.06422 -9.732841 -2.406694
v 10.06422 -0.0007111359 -2.406694
v 10.2601 -0.0007111359 -1.192651
v 10.28729 -9.732841 -1.738052
v 10.19761 -9.732841 0.5707275
v 10.23787 -0.0007111359 0.4782372
v 9.868056 -0.0007111359 1.069536
v 9.731015 -9.732841 1.196684
v 10.04794 -9.732841 1.831636
v 10.07403 -0.0007111359 2.16728
v 9.978691 -9.732841 3.447378
v 9.978691 -0.0007111359 3.447378
v 10.00103 -0.0007111359 4.245737
v 10.05554 -9.732841 4.137729
v 9.53459 -0.0007111359 4.856265
v 9.629375 -9.732841 4.727876
v 8.65792 -0.0007111359 5.128247
v 8.589462 -9.732841 5.053208
v 7.692832 -9.732841 5.256733
v 7.420517 -0.0007111359 5.50645
v 6.386543 -9.732841 6.351958
v 6.297363 -0.0007111359 6.499917
v 4.763555 -9.732841 7.452876
v 5.126787 -0.0007111359 7.265972
v 3.329795 -9.732841 7.560747
v 4.270381 -0.0007111359 7.534253
v 3.44458 -0.0007111359 7.595093
v 2.781055 -0.0007111359 7.254565
v 1.729844 -9.732841 5.93437
v 1.690957 -0.0007111359 5.953472
v 1.033379 -9.732841 4.593432
v 0.9983592 -0.0007111359 4.572749
v 0.9983592 -0.0007111359 4.572749
v -0.6897658 -9.732841 4.073901
v -0.7926271 -0.0007111359 4.305376
v -1.406035 -0.0007111359 4.369165
v -1.347275 -9.732841 4.165894
v -1.406035 -0.0007111359 4.369165
v -1.885869 -0.0007111359 3.970493
v -1.406035 -0.0007111359 4.369165
v -1.792637 -9.732841 3.89646
v -2.131475 -0.0007111359 3.260679
v -2.171279 -9.732841 3.20936
v -3.279531 -9.732841 2.211489
v -3.122305 -0.0007111359 2.280288
v -5.479931 -9.732841 2.572915
v -5.482549 -0.0007111359 2.622837
v -6.101807 -0.0007111359 2.527016
v -5.972871 -9.732841 2.522866
v -6.486797 -9.732841 2.041645
v -6.850605 -0.0007111359 1.955063
v -8.467841 -9.732841 2.42062
v -8.680137 -0.0007111359 2.438999
v -9.534228 -9.732841 2.149009
v -9.534228 -0.0007111359 2.149009
v -10.16171 -0.0007111359 1.489712
v -10.12407 -9.732841 1.566421
v -9.909912 -9.732841 -0.3595655
v -9.874346 -0.0007111359 0.2377392
v -9.993964 -0.0007111359 -0.6263526
v -9.897754 -0.0007111359 -1.727144
v -9.773417 -9.732841 -1.693589
v -9.964726 -9.732841 -2.67353
v -9.964726 -0.0007111359 -2.67354
v -9.828047 -9.732841 -3.293599
v -10.04039 -0.0007111359 -3.57481
v -10.33545 -9.732841 -4.305747
v -10.23832 -0.0007111359 -4.401802
v -9.568144 -9.732841 -5.334858
v -9.568154 -0.0007111359 -5.334829
v -9.062226 -9.732841 -5.906919
v -9.062187 -0.0007111359 -5.906968
v -8.465703 -9.732816 -6.01979
v -8.467539 -0.0007111359 -6.013969
v -7.7371 -0.0007111359 -5.50977
v -7.733438 -9.732792 -5.521284
v 1.690957 -0.0007111359 5.953472
v 2.711211 -0.0007111359 0.4639794
v 6.041728 -0.0007111359 2.590874
v 5.899814 -0.0007111359 -3.92768
v 4.424062 -0.0007111359 -3.64479
v 5.899814 -0.0007111359 -3.92768
v 8.975195 -0.0007111359 -3.148237
v 6.041728 -0.0007111359 2.590874
v 10.06422 -0.0007111359 -2.406694
v 10.2601 -0.0007111359 -1.192651
v 10.23787 -0.0007111359 0.4782372
v 9.868056 -0.0007111359 1.069536
v 6.041728 -0.0007111359 2.590874
v 10.07403 -0.0007111359 2.16728
v 9.978691 -0.0007111359 3.447378
v 9.53459 -0.0007111359 4.856265
v 7.420517 -0.0007111359 5.50645
v 6.297363 -0.0007111359 6.499917
v 2.781055 -0.0007111359 7.254565
v 1.690957 -0.0007111359 5.953472
v 3.44458 -0.0007111359 7.595093
v 6.041728 -0.0007111359 2.590874
v 4.270381 -0.0007111359 7.534253
v 5.126787 -0.0007111359 7.265972
v 6.297363 -0.0007111359 6.499917
vt 0.4138015 0.02642812
vt 0.4186665 0.09387042
vt 0.0178518 0.0246314
vt 0.414515 0.09386535
vt 0.4066109 0.09385891
vt 0.1489028 0.09324277
vt 0.3135507 0.09391125
vt 0.303645 0.09384438
vt 0.2892066 0.0937469
vt 0.3772933 0.09382649
vt 0.3665996 0.09386028
vt 0.2456622 0.09363392
vt 0.138438 0.1476898
vt 0.1343241 0.1314051
vt 0.1299258 0.1139948
vt 0.1247249 0.09340756
vt 0.1489028 0.09324277
vt 0.1056559 0.09329565
vt 0.1247249 0.09340756
vt 0.01407868 0.09181744
vt 0.414515 0.09386535
vt 0.1489028 0.09324277
vt 0.1024509 0.09328043
vt 0.09826666 0.09326056
vt 0.08840209 0.09320908
vt 0.08028741 0.09316041
vt 0.07255036 0.09311397
vt 0.06472389 0.09303014
vt 0.05892882 0.09296267
vt 0.3665996 0.09386028
vt 0.3507303 0.09393157
vt 0.3471654 0.09393628
vt 0.3440634 0.09394218
vt 0.3412401 0.09394224
vt 0.2414387 0.09380968
vt 0.3340057 0.09395474
vt 0.3238647 0.09396203
vt 0.1689726 0.09369044
vt 0.1590128 0.09365733
vt 0.3990991 0.09384049
vt 0.1489028 0.09324277
vt 0.3939102 0.09384179
vt 0.2456622 0.09363392
vt 0.3772933 0.09382649
vt 0.2456622 0.09363392
vt 0.2418596 0.09371312
vt 0.2363267 0.09374499
vt 0.2315851 0.09377231
vt 0.2248661 0.09380135
vt 0.2161297 0.0938391
vt 0.02074268 0.09204464
vt 0.01736158 0.09192936
vt 0.01407868 0.09181744
vt 0.02074268 0.09204464
vt 0.01407868 0.09181744
vt 0.1489028 0.09324277
vt 0.02565854 0.09219436
vt 0.1489028 0.09324277
vt 0.03226594 0.09238478
vt 0.4066109 0.09385891
vt 0.3990991 0.09384049
vt 0.03919073 0.09255859
vt 0.03226594 0.09238478
vt 0.1489028 0.09324277
vt 0.04548052 0.09270523
vt 0.03919073 0.09255859
vt 0.05214345 0.09285162
vt 0.2414387 0.09380968
vt 0.138438 0.1476898
vt 0.2456622 0.09363392
vt 0.1590128 0.09365733
vt 0.142553 0.1368833
vt 0.138438 0.1476898
vt 0.4138015 0.02642812
vt 0.414515 0.09386535
vt 0.4186665 0.09387042
vt 0.4077913 0.02640088
vt 0.4066109 0.09385891
vt 0.3984521 0.02635844
vt 0.3990991 0.09384049
vt 0.3905728 0.02632274
vt 0.3939102 0.09384179
vt 0.3765426 0.02625908
vt 0.3876929 0.09384508
vt 0.3772933 0.09382649
vt 0.3670561 0.02621605
vt 0.3665996 0.09386028
vt 0.3528556 0.02615155
vt 0.3507303 0.09393157
vt 0.3462847 0.02612175
vt 0.3471654 0.09393628
vt 0.3440634 0.09394218
vt 0.3402038 0.02609415
vt 0.3412401 0.09394224
vt 0.33342 0.0260634
vt 0.3340057 0.09395474
vt 0.3210978 0.02600749
vt 0.3238647 0.09396203
vt 0.3125777 0.0259688
vt 0.3135507 0.09391125
vt 0.303645 0.09384438
vt 0.3029976 0.02592534
vt 0.2890337 0.02586199
vt 0.2892066 0.0937469
vt 0.2802587 0.02582212
vt 0.2822199 0.09371032
vt 0.2742377 0.09369146
vt 0.275703 0.02580149
vt 0.2586847 0.02572425
vt 0.263093 0.09368379
vt 0.2585684 0.09368189
vt 0.25442 0.02570494
vt 0.2441466 0.02565826
vt 0.2474682 0.09369428
vt 0.2382543 0.0256315
vt 0.2418596 0.09371312
vt 0.2363267 0.09374499
vt 0.2352126 0.02561773
vt 0.2315851 0.09377231
vt 0.2326059 0.02560593
vt 0.2248661 0.09380135
vt 0.2254884 0.02557363
vt 0.2162338 0.02553163
vt 0.2161297 0.0938391
vt 0.2030308 0.0254717
vt 0.2055917 0.0938694
vt 0.1949734 0.02543516
vt 0.1953756 0.09380598
vt 0.1814962 0.02537395
vt 0.1894861 0.09377296
vt 0.1855681 0.09376122
vt 0.1803801 0.0937454
vt 0.165726 0.02530243
vt 0.1689726 0.09369044
vt 0.157317 0.02526422
vt 0.1590128 0.09365733
vt 0.1590128 0.09365733
vt 0.1436979 0.02520246
vt 0.142553 0.1368833
vt 0.138438 0.1476898
vt 0.1421846 0.0251956
vt 0.138438 0.1476898
vt 0.1343241 0.1314051
vt 0.138438 0.1476898
vt 0.1357877 0.02516656
vt 0.1299258 0.1139948
vt 0.1278556 0.02513056
vt 0.1208616 0.02509882
vt 0.1247249 0.09340756
vt 0.1029207 0.0250174
vt 0.1056559 0.09329565
vt 0.1024509 0.09328043
vt 0.1008441 0.02500799
vt 0.09813285 0.0249957
vt 0.09826666 0.09326056
vt 0.08927625 0.02495553
vt 0.08840209 0.09320908
vt 0.07806455 0.02490462
vt 0.08028741 0.09316041
vt 0.07255036 0.09311397
vt 0.07277677 0.02488063
vt 0.05940049 0.02481994
vt 0.06472389 0.09303014
vt 0.05892882 0.09296267
vt 0.05214345 0.09285162
vt 0.05139975 0.02478369
vt 0.04508818 0.02475502
vt 0.04548052 0.09270523
vt 0.04115567 0.02473713
vt 0.03919073 0.09255859
vt 0.03317899 0.02470089
vt 0.03226594 0.09238478
vt 0.02593559 0.02466811
vt 0.02565854 0.09219436
vt 0.02121022 0.02464665
vt 0.02074268 0.09204464
vt 0.01950626 0.02463891
vt 0.01736158 0.09192936
vt 0.01407868 0.09181744
vt 0.0178518 0.0246314
vt 0.1689726 0.09369044
vt 0.2414387 0.09380968
vt 0.2365119 0.09379099
vt 0.3135507 0.09391125
vt 0.3238647 0.09396203
vt 0.3135507 0.09391125
vt 0.2892066 0.0937469
vt 0.2365119 0.09379099
vt 0.2822199 0.09371032
vt 0.2742377 0.09369146
vt 0.263093 0.09368379
vt 0.2585684 0.09368189
vt 0.2365119 0.09379099
vt 0.2474682 0.09369428
vt 0.2418596 0.09371312
vt 0.2315851 0.09377231
vt 0.2161297 0.0938391
vt 0.2055917 0.0938694
vt 0.1803801 0.0937454
vt 0.1689726 0.09369044
vt 0.1855681 0.09376122
vt 0.2365119 0.09379099
vt 0.1894861 0.09377296
vt 0.1953756 0.09380598
vt 0.2055917 0.0938694
vn -0.6109534 0.0026793 -0.791662
vn 0.1553343 0.0008199558 -0.9878616
vn 0.155123 0.0008198792 -0.9878948
vn 0 1 0
vn 0 1 0
vn 0 1 0
vn 0 1 0
vn 0 1 0
vn 0 1 0
vn 0 1 0
vn 0 1 0
vn 0 1 0
vn 0 1 0
vn 0 1 0
vn 0 1 0
vn 0 1 0
vn 0 1 0
vn 0 1 0
vn 0 1 0
vn 0 1 0
vn 0 1 0
vn 0 1 0
vn 0 1 0
vn 0 1 0
vn 0 1 0
vn 0 1 0
vn 0 1 0
vn 0 1 0
vn 0 1 0
vn 0 1 0
vn 0 1 0
vn 0 1 0
vn 0 1 0
vn 0 1 0
vn 0 1 0
vn 0 1 0
vn 0 1 0
vn 0 1 0
vn 0 1 0
vn 0 1 0
vn 0 1 0
vn 0 1 0
vn 0 1 0
vn 0 1 0
vn 0 1 0
vn 0 1 0
vn 0 1 0
vn 0 1 0
vn 0 1 0
vn 0 1 0
vn 0 1 0
vn 0 1 0
vn 0 1 0
vn 0 1 0
vn 0 1 0
vn 0 1 0
vn 0 1 0
vn 0 1 0
vn 0 1 0
vn 0 1 0
vn 0 1 0
vn 0 1 0
vn 0 1 0
vn 0 1 0
vn 0 1 0
vn 0 1 0
vn 0 1 0
vn 0 1 0
vn 0 1 0
vn 0 1 0
vn 0 1 0
vn 0 1 0
vn 0 1 0
vn -0.6109534 0.0026793 -0.791662
vn -0.6109514 0.002679262 -0.7916636
vn 0.1553343 0.0008199558 -0.9878616
vn -0.430474 -0.0005509058 -0.9026028
vn -0.4206571 -0.0007150296 -0.9072194
vn -0.3610734 -0.0002917245 -0.9325374
vn -0.3610734 -0.0002917245 -0.9325374
vn -0.15324 0.003009466 -0.9881845
vn -0.1508302 0.003000792 -0.9885551
vn 0.3959906 0.0012519 -0.9182538
vn -0.1508302 0.003000792 -0.9885551
vn 0.3959906 0.0012519 -0.9182538
vn 0.4003081 0.001479111 -0.9163793
vn 0.3907686 0.001514056 -0.9204877
vn 0.1546642 -0.0006255089 -0.987967
vn 0.1606396 -0.0009202369 -0.9870127
vn 0.4495715 -0.008725613 -0.8932018
vn 0.449903 -0.008721351 -0.8930348
vn 0.636753 -0.005587358 -0.7710477
vn 0.2677599 -0.0001632669 -0.9634857
vn 0.2300218 0.002482031 -0.9731823
vn 0.562175 0.004439644 -0.8270064
vn 0.5676399 0.004458516 -0.823265
vn 0.4108918 -0.000694562 -0.9116839
vn 0.4291208 -0.0005294631 -0.9032469
vn -0.1301815 -0.002342053 -0.9914874
vn -0.1299874 -0.0023368 -0.9915128
vn 0.2503997 -0.0009028673 -0.9681422
vn 0.2490986 -0.0008898561 -0.9684777
vn 0.4651504 -0.002159651 -0.885229
vn 0.4664675 -0.00215404 -0.8845357
vn 0.7810301 0.002169888 -0.6244895
vn 0.7810301 0.002169888 -0.6244895
vn 0.9988216 0.001414019 -0.04851146
vn 0.9984235 0.001685536 -0.05610456
vn 0.9834948 -0.001310077 0.1809314
vn 0.984012 -0.00131064 0.1780974
vn 0.9939263 -0.003544844 0.1099905
vn 0.9947757 -0.003578818 0.1020226
vn 0.9967312 -0.003396658 -0.08071897
vn 0.9972847 -0.003341768 -0.0735668
vn 0.9998887 -0.000456641 0.01491666
vn 0.9998887 -0.000456641 0.01491666
vn 0.9583588 0.001084041 0.2855652
vn 0.9598796 0.001117108 0.2804101
vn 0.5365421 -0.006292623 0.8438501
vn 0.5415899 -0.006212171 0.8406199
vn 0.2795134 -0.01154623 0.9600723
vn 0.279412 -0.01155727 0.9601018
vn 0.5007681 -0.007745638 0.8655467
vn 0.5093274 -0.00751808 0.86054
vn 0.6042432 -0.004799458 0.7967855
vn 0.603232 -0.004828566 0.7975511
vn 0.3987652 -0.00366363 0.9170457
vn 0.4087036 -0.003819321 0.9126592
vn -0.4570747 -0.00868571 0.8893859
vn 0.1408936 -0.001083283 0.9900241
vn -0.1825024 -0.001317747 0.9832045
vn -0.7004641 -0.0101889 0.7136149
vn -0.8106669 -0.008458116 0.5854465
vn -0.8107319 -0.008454476 0.5853565
vn -0.5828199 -0.008919921 0.8125525
vn -0.5810114 -0.008942102 0.8138462
vn -0.5810114 -0.008942102 0.8138462
vn -0.1314625 -0.0146318 0.9912131
vn -0.1299132 -0.0146753 0.9914168
vn -0.2270833 -0.02016906 0.9736665
vn -0.2267599 -0.0201712 0.9737419
vn -0.2270833 -0.02016906 0.9736665
vn -0.7997568 -0.01017127 0.6002379
vn -0.2270833 -0.02016906 0.9736665
vn -0.7997235 -0.01017247 0.6002823
vn -0.7787185 -0.0001952367 0.6273734
vn -0.777777 -0.0001661676 0.6285403
vn -0.1834354 -0.003933122 0.9830239
vn -0.1924256 -0.003835453 0.981304
vn 0.09792472 -0.00657623 0.9951721
vn 0.09788716 -0.006575768 0.9951758
vn -0.4525151 -0.009576755 0.8917053
vn -0.4488855 -0.009510706 0.8935387
vn -0.04618181 0.003238277 0.9989278
vn -0.02888032 0.003683053 0.999576
vn 0.05559721 0.005478352 0.9984383
vn 0.04943639 0.005309366 0.9987632
vn -0.4983156 -0.001531347 0.8669943
vn -0.4983156 -0.001531347 0.8669943
vn -0.9874762 0.003461211 0.1577306
vn -0.9867715 0.003450175 0.1620802
vn -0.9918949 -0.003035413 -0.1270248
vn -0.9952092 0.002301256 -0.0977421
vn -0.999305 -0.01030158 -0.03582327
vn -0.9999361 -0.009513191 0.006104253
vn -0.9999391 -0.009527055 0.005576916
vn -0.9983311 -0.008495046 0.05712159
vn -0.9983311 -0.008495049 0.05712148
vn -0.9828158 -0.004417067 0.1845363
vn -0.9813229 -0.004162746 0.192323
vn -0.9825389 0.001417498 -0.1860516
vn -0.9812641 0.001414804 -0.1926621
vn -0.7852525 0.0006819557 -0.6191754
vn -0.7852526 0.0006819577 -0.6191753
vn -0.5264358 0.0001283803 -0.8502149
vn -0.5264299 0.0001283833 -0.8502185
vn 0.2829215 0.000693606 -0.9591427
vn 0.2829028 0.0006935911 -0.9591483
vn 0.1553343 0.0008199558 -0.9878616
vn 0.155123 0.0008198792 -0.9878948
vn 0 1 0
vn 0 1 0
vn 0 1 0
vn 0 1 0
vn 0 1 0
vn 0 1 0
vn 0 1 0
vn 0 1 0
vn 0 1 0
vn 0 1 0
vn 0 1 0
vn 0 1 0
vn 0 1 0
vn 0 1 0
vn 0 1 0
vn 0 1 0
vn 0 1 0
vn 0 1 0
vn 0 1 0
vn 0 1 0
vn 0 1 0
vn 0 1 0
vn 0 1 0
vn 0 1 0
vn 0 1 0
g cliffBase04_COL_0
f 3/3/3 2/2/2 1/1/1
f 6/6/6 5/5/5 4/4/4
f 9/9/9 8/8/8 7/7/7
f 12/12/12 11/11/11 10/10/10
f 12/12/12 14/14/14 13/13/13
f 12/12/12 15/15/15 14/14/14
f 12/12/12 16/16/16 15/15/15
f 18/18/18 16/16/16 17/17/17
f 19/19/19 12/12/12 17/17/17
f 17/17/17 21/21/21 20/20/20
f 23/23/23 18/18/18 22/22/22
f 24/24/24 23/23/23 22/22/22
f 25/25/25 24/24/24 17/17/17
f 25/25/25 17/17/17 26/26/26
f 17/17/17 27/27/27 26/26/26
f 22/22/22 28/28/28 27/27/27
f 22/22/22 29/29/29 28/28/28
f 12/12/12 31/31/31 30/30/30
f 12/12/12 32/32/32 31/31/31
f 12/12/12 33/33/33 32/32/32
f 12/12/12 34/34/34 33/33/33
f 12/12/12 35/35/35 34/34/34
f 35/35/35 36/36/36 34/34/34
f 35/35/35 37/37/37 36/36/36
f 35/35/35 39/39/39 38/38/38
f 41/41/41 12/12/12 40/40/40
f 43/43/43 42/42/42 40/40/40
f 45/45/45 44/44/44 42/42/42
f 48/48/48 47/47/47 46/46/46
f 50/50/50 49/49/49 48/48/48
f 53/53/53 52/52/52 51/51/51
f 56/56/56 55/55/55 54/54/54
f 58/58/58 54/54/54 57/57/57
f 58/58/58 57/57/57 59/59/59
f 58/58/58 61/61/61 60/60/60
f 64/64/64 63/63/63 62/62/62
f 64/64/64 66/66/66 65/65/65
f 64/64/64 65/65/65 67/67/67
f 64/64/64 67/67/67 29/29/29
f 70/70/70 69/69/69 68/68/68
f 72/72/72 71/71/71 68/68/68
f 73/73/73 72/72/72 68/68/68
f 76/76/76 75/75/75 74/74/74
f 74/74/74 75/75/75 77/77/77
f 75/75/75 78/78/78 77/77/77
f 79/79/79 77/77/77 78/78/78
f 80/80/80 79/79/79 78/78/78
f 79/79/79 80/80/80 81/81/81
f 80/80/80 82/82/82 81/81/81
f 81/81/81 84/84/84 83/83/83
f 84/84/84 85/85/85 83/83/83
f 83/83/83 85/85/85 86/86/86
f 85/85/85 87/87/87 86/86/86
f 86/86/86 87/87/87 88/88/88
f 87/87/87 89/89/89 88/88/88
f 88/88/88 89/89/89 90/90/90
f 89/89/89 91/91/91 90/90/90
f 91/91/91 92/92/92 90/90/90
f 92/92/92 93/93/93 90/90/90
f 93/93/93 92/92/92 94/94/94
f 93/93/93 94/94/94 95/95/95
f 94/94/94 96/96/96 95/95/95
f 95/95/95 96/96/96 97/97/97
f 96/96/96 98/98/98 97/97/97
f 97/97/97 98/98/98 99/99/99
f 98/98/98 100/100/100 99/99/99
f 99/99/99 100/100/100 101/101/101
f 102/102/102 99/99/99 101/101/101
f 102/102/102 101/101/101 103/103/103
f 101/101/101 104/104/104 103/103/103
f 103/103/103 104/104/104 105/105/105
f 104/104/104 106/106/106 105/105/105
f 106/106/106 107/107/107 105/105/105
f 107/107/107 108/108/108 105/105/105
f 108/108/108 107/107/107 109/109/109
f 107/107/107 110/110/110 109/109/109
f 110/110/110 111/111/111 109/109/109
f 111/111/111 112/112/112 109/109/109
f 112/112/112 111/111/111 113/113/113
f 111/111/111 114/114/114 113/113/113
f 113/113/113 114/114/114 115/115/115
f 114/114/114 116/116/116 115/115/115
f 116/116/116 117/117/117 115/115/115
f 117/117/117 118/118/118 115/115/115
f 117/117/117 119/119/119 118/118/118
f 119/119/119 120/120/120 118/118/118
f 120/120/120 119/119/119 121/121/121
f 122/122/122 120/120/120 121/121/121
f 122/122/122 121/121/121 123/123/123
f 121/121/121 124/124/124 123/123/123
f 123/123/123 124/124/124 125/125/125
f 124/124/124 126/126/126 125/125/125
f 125/125/125 126/126/126 127/127/127
f 126/126/126 128/128/128 127/127/127
f 127/127/127 128/128/128 129/129/129
f 128/128/128 130/130/130 129/129/129
f 129/129/129 130/130/130 131/131/131
f 132/132/132 129/129/129 131/131/131
f 129/129/129 132/132/132 133/133/133
f 132/132/132 134/134/134 133/133/133
f 133/133/133 134/134/134 135/135/135
f 134/134/134 136/136/136 135/135/135
f 138/138/138 135/135/135 137/137/137
f 139/139/139 138/138/138 137/137/137
f 139/139/139 140/140/140 138/138/138
f 142/142/142 141/141/141 138/138/138
f 141/141/141 144/144/144 143/143/143
f 145/145/145 141/141/141 143/143/143
f 145/145/145 143/143/143 146/146/146
f 147/147/147 145/145/145 146/146/146
f 147/147/147 146/146/146 148/148/148
f 146/146/146 149/149/149 148/148/148
f 148/148/148 149/149/149 150/150/150
f 149/149/149 151/151/151 150/150/150
f 150/150/150 151/151/151 152/152/152
f 153/153/153 150/150/150 152/152/152
f 153/153/153 152/152/152 154/154/154
f 152/152/152 155/155/155 154/154/154
f 154/154/154 155/155/155 156/156/156
f 155/155/155 157/157/157 156/156/156
f 156/156/156 157/157/157 158/158/158
f 157/157/157 159/159/159 158/158/158
f 159/159/159 160/160/160 158/158/158
f 160/160/160 161/161/161 158/158/158
f 161/161/161 160/160/160 162/162/162
f 160/160/160 163/163/163 162/162/162
f 164/164/164 162/162/162 163/163/163
f 164/164/164 165/165/165 162/162/162
f 165/165/165 166/166/166 162/162/162
f 166/166/166 165/165/165 167/167/167
f 165/165/165 168/168/168 167/167/167
f 169/169/169 167/167/167 168/168/168
f 170/170/170 169/169/169 168/168/168
f 169/169/169 170/170/170 171/171/171
f 170/170/170 172/172/172 171/171/171
f 171/171/171 172/172/172 173/173/173
f 172/172/172 174/174/174 173/173/173
f 173/173/173 174/174/174 175/175/175
f 174/174/174 176/176/176 175/175/175
f 177/177/177 175/175/175 176/176/176
f 178/178/178 177/177/177 176/176/176
f 178/178/178 179/179/179 177/177/177
f 179/179/179 180/180/180 177/177/177
f 183/183/183 182/182/182 181/181/181
f 182/182/182 183/183/183 184/184/184
f 182/182/182 186/186/186 185/185/185
f 188/188/188 187/187/187 186/186/186
f 188/188/188 189/189/189 187/187/187
f 188/188/188 190/190/190 189/189/189
f 188/188/188 191/191/191 190/190/190
f 193/193/193 192/192/192 191/191/191
f 188/188/188 194/194/194 192/192/192
f 188/188/188 195/195/195 194/194/194
f 188/188/188 196/196/196 195/195/195
f 188/188/188 197/197/197 196/196/196
f 188/188/188 198/198/198 197/197/197
f 193/193/193 200/200/200 199/199/199
f 202/202/202 199/199/199 201/201/201
f 202/202/202 201/201/201 203/203/203
f 202/202/202 203/203/203 204/204/204
f 202/202/202 204/204/204 205/205/205
