g Cliff_D
v -0.8390509 1.004697 0.8335612
v -1.054202 -1.229052E-06 0.9041539
v -1.019367 -1.229052E-06 0.6519243
v -0.0246637 2.297633 -0.2035554
v 0.9456952 2.448577 0.7188725
v 0.2308783 2.34274 0.7784416
v -0.0246637 2.297633 -0.2035554
v 0.7743695 2.337024 -0.4849715
v 0.9456952 2.448577 0.7188725
v -0.3934405 1.743751 0.8622197
v -0.5063238 1.675626 0.8605778
v -0.4673895 1.892897 0.8485075
v -1.127438 -1.229052E-06 0.2665269
v -1.127437 -1.229052E-06 -0.2711519
v -0.9217547 1.586915 -0.2285426
v -0.7559198 2.142412 -0.1006947
v -0.8273297 2.113014 -0.5886122
v -1.019367 -1.229052E-06 0.6519243
v -0.8390509 1.004697 0.8335612
v -0.691502 2.191701 0.2733195
v -0.6624884 2.229218 -0.1232613
v -0.5963983 2.276889 0.2513646
v -0.6308099 2.209476 0.7519493
v -0.5963983 2.276889 0.2513646
v -0.5354046 2.300061 0.7353642
v -0.5293841 2.214318 0.8308513
v -0.7422992 0.9917506 0.9185881
v -0.7422992 0.9917506 0.9185881
v -1.054202 -1.229052E-06 0.9041539
v -0.9646564 -1.229052E-06 0.9985002
v 0.9670843 0.3411904 -1.071426
v 0.2290912 -1.229052E-06 -0.9305958
v 0.9787347 -1.229052E-06 -1.083813
v 0.4077679 0.96254 -0.9054481
v -0.3706769 1.146214 -0.7826484
v -0.2065924 -1.229052E-06 -0.8736946
v -1.011282 -1.229052E-06 -0.8440449
v -0.9711114 0.2904578 -0.8305128
v -1.102982 -1.229052E-06 -0.7526039
v -1.074886 0.3108576 -0.7548097
v 0.7671991 1.883906 -0.8656953
v 0.3089593 1.983771 -0.7966487
v -0.7427545 2.108275 -0.6789186
v 1.073825 0.3225089 -0.9973598
v 0.9787347 -1.229052E-06 -1.083813
v 1.081743 -1.229052E-06 -1.005416
v 0.8691303 1.901287 -0.7866371
v 1.046999 2.369569 0.7195811
v 0.87195 2.253318 -0.5039992
v 0.9456952 2.448577 0.7188725
v 0.7743695 2.337024 -0.4849715
v 0.7732123 2.215341 -0.7633119
v 0.6579022 2.195105 -0.8206129
v 0.5348334 2.192068 -0.8034279
v -0.1318658 2.133336 -0.7438014
v 0.5421039 2.285208 -0.7135555
v -0.129444 2.228335 -0.6558858
v -0.7283013 2.202054 -0.5964784
v -0.8273297 2.113014 -0.5886122
v -1.074886 0.3108576 -0.7548097
v -0.9217547 1.586915 -0.2285426
v -1.127437 -1.229052E-06 -0.2711519
v -1.102982 -1.229052E-06 -0.7526039
v -1.011282 -1.229052E-06 -0.8440449
v -0.5354046 2.300061 0.7353642
v -0.4301434 2.221402 0.8256627
v -0.5293841 2.214318 0.8308513
v -0.435495 2.307409 0.7287456
v -0.5963983 2.276889 0.2513646
v -0.0246637 2.297633 -0.2035554
v 0.2308783 2.34274 0.7784416
v -0.6624884 2.229218 -0.1232613
v -0.7283013 2.202054 -0.5964784
v -0.7559198 2.142412 -0.1006947
v -0.8273297 2.113014 -0.5886122
v -0.129444 2.228335 -0.6558858
v 0.5421039 2.285208 -0.7135555
v 0.7743695 2.337024 -0.4849715
v 0.7732123 2.215341 -0.7633119
v 0.87195 2.253318 -0.5039992
v 0.6636419 2.289781 -0.7351692
v 0.6579022 2.195105 -0.8206129
v 0.5348334 2.192068 -0.8034279
v 0.5421039 2.285208 -0.7135555
v -0.0246637 2.297633 -0.2035554
v 0.951242 2.359949 0.8142424
v 0.2308783 2.34274 0.7784416
v 0.9456952 2.448577 0.7188725
v 0.2399237 2.255553 0.874362
v 0.9119427 1.63814 0.8686467
v 0.2885443 1.72357 0.9182878
v -0.4673895 1.892897 0.8485075
v -0.3934405 1.743751 0.8622197
v -0.5063238 1.675626 0.8605778
v -0.4301434 2.221402 0.8256627
v -0.435495 2.307409 0.7287456
v 0.2308783 2.34274 0.7784416
v -0.5293841 2.214318 0.8308513
v -0.7422992 0.9917506 0.9185881
v -0.8120611 -1.229052E-06 0.9895927
v -0.9646564 -1.229052E-06 0.9985002
v -0.7427545 2.108275 -0.6789186
v -0.1318658 2.133336 -0.7438014
v -0.129444 2.228335 -0.6558858
v -0.7283013 2.202054 -0.5964784
v 1.000576 1.547838 0.7854979
v 0.9051239 1.62474 1.058804
v 0.9119427 1.63814 0.8686467
v 0.9900922 1.527003 1.05897
v 1.002978 -1.229052E-06 1.00676
v 1.108945 -1.229052E-06 -0.5840389
v 1.007578 -1.229052E-06 1.187406
v 0.9165057 -1.229052E-06 1.279624
v 0.9900922 1.527003 1.05897
v 1.007578 -1.229052E-06 1.187406
v 0.9035858 1.533808 1.151163
v 0.9051239 1.62474 1.058804
v 0.2998529 1.713186 1.104931
v 0.21591 -1.229052E-06 1.267687
v 0.290766 1.622061 1.196432
v -0.6002179 -1.229052E-06 1.262107
v -0.3290411 1.646804 1.142798
v -0.710777 -1.229052E-06 1.193647
v -0.4316046 1.65418 1.061385
v -0.3302716 1.736353 1.049972
v 0.2998529 1.713186 1.104931
v -0.4316046 1.65418 1.061385
v -0.5063238 1.675626 0.8605778
v -0.3934405 1.743751 0.8622197
v -0.3302716 1.736353 1.049972
v 0.2885443 1.72357 0.9182878
v 0.2998529 1.713186 1.104931
v 0.9119427 1.63814 0.8686467
v 0.9051239 1.62474 1.058804
v 1.108945 -1.229052E-06 -0.5840389
v 1.000576 1.547838 0.7854979
v 1.073825 0.3225089 -0.9973598
v 1.081743 -1.229052E-06 -1.005416
v 0.9787347 -1.229052E-06 -1.083813
v 0.9670843 0.3411904 -1.071426
v 1.000576 1.547838 0.7854979
v 1.046999 2.369569 0.7195811
v 1.073825 0.3225089 -0.9973598
v 0.9119427 1.63814 0.8686467
v 0.951242 2.359949 0.8142424
v 0.9456952 2.448577 0.7188725
v -0.4316046 1.65418 1.061385
v -0.710777 -1.229052E-06 1.193647
v -0.8120611 -1.229052E-06 0.9895927
v -0.5063238 1.675626 0.8605778
vt 0.1562507 0.3486058
vt 0.08515197 0.01831013
vt 0.09868458 0.01831012
vt 0.5087849 0.9841562
vt 0.8394012 0.9841561
vt 0.5958515 0.9841562
vt 0.5087849 0.9841562
vt 0.781028 0.9841562
vt 0.8394012 0.9841561
vt 0.3641119 0.9841562
vt 0.330626 0.9841562
vt 0.341689 0.9841562
vt 0.05870912 0.01831012
vt 0.05823589 0.01831012
vt 0.1366039 0.5804262
vt 0.2008753 0.777225
vt 0.1732853 0.7667803
vt 0.09868458 0.01831012
vt 0.1562507 0.3486058
vt 0.2251697 0.7928485
vt 0.2077136 0.8057324
vt 0.2316185 0.8230433
vt 0.2486688 0.7989857
vt 0.2319322 0.8231468
vt 0.2553855 0.8308854
vt 0.2851043 0.8026645
vt 0.1873411 0.3527544
vt 0.1873411 0.3527544
vt 0.08515197 0.01831013
vt 0.1100023 0.01831012
vt 0.870358 0.0736278
vt 0.5836717 0.1028972
vt 0.8748837 0.02797206
vt 0.6530823 0.3592604
vt 0.3506803 0.4243211
vt 0.4144214 0.1016353
vt 0.1018252 0.02657616
vt 0.1174305 0.09001642
vt 0.06866596 0.02723258
vt 0.07711744 0.09724195
vt 0.7927092 0.685626
vt 0.6146978 0.7210002
vt 0.2061398 0.765102
vt 0.9118232 0.06701058
vt 0.9120344 0.02288944
vt 0.9148986 0.01831012
vt 0.8323064 0.6917829
vt 0.9014027 0.857658
vt 0.8334016 0.8164788
vt 0.8955781 0.8876768
vt 0.8296306 0.8481314
vt 0.7950453 0.8030267
vt 0.7502512 0.7958586
vt 0.7024429 0.7947829
vt 0.4434508 0.7739789
vt 0.6971505 0.8233833
vt 0.452465 0.8042477
vt 0.2104374 0.7949799
vt 0.1732853 0.7667803
vt 0.07711744 0.09724195
vt 0.1366039 0.5804262
vt 0.05823589 0.01831012
vt 0.06620276 0.01831009
vt 0.0678697 0.02212641
vt 0.3347673 0.9841562
vt 0.3676898 0.9841562
vt 0.3342549 0.9841561
vt 0.3688081 0.9841562
vt 0.3139858 0.9841562
vt 0.5087849 0.9841562
vt 0.5958515 0.9841562
vt 0.2914678 0.9841562
vt 0.2690443 0.9841562
vt 0.2646011 0.9841562
vt 0.2430471 0.9841562
vt 0.4730845 0.9841563
vt 0.7018917 0.9841562
vt 0.781028 0.9841562
vt 0.7663831 0.9841562
vt 0.8058579 0.9841561
vt 0.7433016 0.9841562
vt 0.7449272 0.9841562
vt 0.706426 0.9841562
vt 0.7018917 0.9841562
vt 0.5087849 0.9841562
vt 0.8642039 0.8542497
vt 0.588417 0.8489288
vt 0.8646166 0.8862199
vt 0.5878789 0.8172705
vt 0.8489372 0.5985709
vt 0.6067672 0.628832
vt 0.2949079 0.6888107
vt 0.3201458 0.6359804
vt 0.2737889 0.6106495
vt 0.3236446 0.8051738
vt 0.3254023 0.8369359
vt 0.5789851 0.8481574
vt 0.2851043 0.8026645
vt 0.1873411 0.3527544
vt 0.1546194 0.01831012
vt 0.1100023 0.01831012
vt 0.2701932 0.9841562
vt 0.4706656 0.9841562
vt 0.4730845 0.9841563
vt 0.2690443 0.9841562
vt 0.8827826 0.5665159
vt 0.8787122 0.5891673
vt 0.8807196 0.5938815
vt 0.8789937 0.5592012
vt 0.8843023 0.01831012
vt 0.925467 0.01831012
vt 0.8860886 0.01831012
vt 0.8500472 0.01831012
vt 0.8789937 0.5592012
vt 0.8860886 0.01831012
vt 0.8451082 0.5615534
vt 0.847174 0.5914269
vt 0.6115727 0.6233144
vt 0.5729186 0.01831012
vt 0.604803 0.5928699
vt 0.2014315 0.01831013
vt 0.3178512 0.6015769
vt 0.1634995 0.01831012
vt 0.2801604 0.6043864
vt 0.3143089 0.6327997
vt 0.6050681 0.6238416
vt 0.3345771 0.9841562
vt 0.330626 0.9841562
vt 0.3641119 0.9841562
vt 0.3679518 0.9841562
vt 0.6155 0.9841562
vt 0.6179419 0.9841561
vt 0.8278645 0.9841562
vt 0.8255336 0.9841562
vt 0.925467 0.01831012
vt 0.8827826 0.5665159
vt 0.9118232 0.06701058
vt 0.9148986 0.01831012
vt 0.9121982 0.02265488
vt 0.910004 0.06262317
vt 0.8827826 0.5665159
vt 0.9014027 0.857658
vt 0.9118232 0.06701058
vt 0.8489372 0.5985709
vt 0.8642039 0.8542497
vt 0.9017987 0.862681
vt 0.2801604 0.6043864
vt 0.1634995 0.01831012
vt 0.1546194 0.01831012
vt 0.2737889 0.6106495
vn -0.949228 0.1735877 0.2623613
vn -0.9179757 0.2235567 0.3276326
vn -0.9626239 0.1988915 0.1838409
vn -0.08725714 0.9935659 -0.07220189
vn 0.09060702 0.9955117 0.02733149
vn -0.105776 0.9836685 0.1456288
vn -0.08725714 0.9935659 -0.07220189
vn 0.1140356 0.9855399 -0.1253278
vn 0.09060702 0.9955117 0.02733149
vn -0.07455145 0.07012209 0.9947487
vn 0.05612055 0.05874997 0.996694
vn -0.03112483 0.06757046 0.9972289
vn -0.9632099 0.1869212 0.1930988
vn -0.9919734 0.1255226 -0.01526359
vn -0.9702463 0.1869605 0.1538434
vn -0.943043 0.2879555 0.1665882
vn -0.9012481 0.2633944 -0.344057
vn -0.9626239 0.1988915 0.1838409
vn -0.949228 0.1735877 0.2623613
vn -0.9478139 0.2961465 0.1180938
vn -0.2913631 0.9558352 -0.03855987
vn -0.2515192 0.967257 -0.03394205
vn -0.8988162 0.2641944 0.3497584
vn -0.2515192 0.967257 -0.03394205
vn -0.4791132 0.8659174 0.1436579
vn -0.4934903 0.2055087 0.8451234
vn -0.4005395 0.1456491 0.9046295
vn -0.4005395 0.1456491 0.9046295
vn -0.9179757 0.2235567 0.3276326
vn -0.4742927 0.1707102 0.8636576
vn 0.001968445 0.09164044 -0.9957902
vn -0.1649017 0.05539712 -0.9847531
vn -0.08710776 0.05571358 -0.9946398
vn -0.1568138 0.07751387 -0.9845816
vn -0.08960584 0.07441224 -0.9931937
vn -0.09424992 0.06143696 -0.9936511
vn -0.1205719 0.0744772 -0.9899068
vn -0.1739203 0.08937712 -0.9806954
vn -0.9833143 0.1228388 -0.1341775
vn -0.9618748 0.1361216 -0.2372083
vn 0.1679541 0.1488497 -0.9744923
vn -0.1152158 0.07810661 -0.990265
vn -0.2538079 0.1533343 -0.9550236
vn 0.9959461 0.04165477 -0.07972554
vn -0.08710776 0.05571358 -0.9946398
vn 0.9997969 0.009023534 -0.01801849
vn 0.9540147 0.1593283 -0.2539105
vn 0.9889297 0.1482451 -0.00643997
vn 0.9012941 0.3885477 -0.1915714
vn 0.09060702 0.9955117 0.02733149
vn 0.1140356 0.9855399 -0.1253278
vn 0.6757017 0.460567 -0.5755913
vn 0.1964195 0.3355531 -0.9213162
vn -0.1286653 0.4300534 -0.8935879
vn -0.1078597 0.1569347 -0.9817015
vn -0.1083526 0.9345863 -0.3388338
vn -0.09412733 0.9251432 -0.3677635
vn -0.256497 0.9308474 -0.2602546
vn -0.9012481 0.2633944 -0.344057
vn -0.9618748 0.1361216 -0.2372083
vn -0.9702463 0.1869605 0.1538434
vn -0.9919734 0.1255226 -0.01526359
vn -0.9833143 0.1228388 -0.1341775
vn -0.1205719 0.0744772 -0.9899068
vn -0.4791132 0.8659174 0.1436579
vn -0.07493846 0.3906178 0.9174977
vn -0.4934903 0.2055087 0.8451234
vn -0.06389903 0.9906101 0.1208656
vn -0.2515192 0.967257 -0.03394205
vn -0.08725714 0.9935659 -0.07220189
vn -0.105776 0.9836685 0.1456288
vn -0.2913631 0.9558352 -0.03855987
vn -0.256497 0.9308474 -0.2602546
vn -0.943043 0.2879555 0.1665882
vn -0.9012481 0.2633944 -0.344057
vn -0.09412733 0.9251432 -0.3677635
vn -0.1083526 0.9345863 -0.3388338
vn 0.1140356 0.9855399 -0.1253278
vn 0.6757017 0.460567 -0.5755913
vn 0.9012941 0.3885477 -0.1915714
vn 0.2322369 0.8695973 -0.435737
vn 0.1964195 0.3355531 -0.9213162
vn -0.1286653 0.4300534 -0.8935879
vn -0.1083526 0.9345863 -0.3388338
vn -0.08725714 0.9935659 -0.07220189
vn 0.2327611 0.2392121 0.9426558
vn -0.105776 0.9836685 0.1456288
vn 0.09060702 0.9955117 0.02733149
vn -0.01822167 0.2746083 0.9613835
vn 0.3445598 0.05635556 0.9370713
vn -0.0004258426 0.07968666 0.9968199
vn -0.03112483 0.06757046 0.9972289
vn -0.07455145 0.07012209 0.9947487
vn 0.05612055 0.05874997 0.996694
vn -0.07493846 0.3906178 0.9174977
vn -0.06389903 0.9906101 0.1208656
vn -0.105776 0.9836685 0.1456288
vn -0.4934903 0.2055087 0.8451234
vn -0.4005395 0.1456491 0.9046295
vn 0.05736399 0.06727822 0.9960839
vn -0.4742927 0.1707102 0.8636576
vn -0.2538079 0.1533343 -0.9550236
vn -0.1078597 0.1569347 -0.9817015
vn -0.09412733 0.9251432 -0.3677635
vn -0.256497 0.9308474 -0.2602546
vn 0.9985139 0.01215136 0.05312562
vn 0.2544896 0.9147079 0.3139178
vn 0.3237224 0.9436907 0.06820378
vn 0.964348 0.06647479 0.2561522
vn 0.9985378 0.01027801 0.05307211
vn 0.9991425 0.007774612 0.04066504
vn 0.9561008 0.03191529 0.2912949
vn 0.1421108 0.0654517 0.9876845
vn 0.964348 0.06647479 0.2561522
vn 0.9561008 0.03191529 0.2912949
vn 0.1412185 0.1046429 0.9844323
vn 0.2544896 0.9147079 0.3139178
vn 0.08208924 0.9348465 0.3454323
vn -0.008447147 0.06249382 0.9980096
vn -0.003871652 0.1084927 0.9940897
vn -0.1378006 0.08115254 0.9871297
vn -0.1163355 0.1164404 0.9863608
vn -0.8058573 0.1832301 0.5630458
vn -0.800884 0.2170315 0.5581058
vn -0.0562737 0.9564586 0.2863915
vn 0.08208924 0.9348465 0.3454323
vn -0.800884 0.2170315 0.5581058
vn -0.8889458 0.2285201 0.3969306
vn -0.1242523 0.9871723 0.1002614
vn -0.0562737 0.9564586 0.2863915
vn 0.08394549 0.995182 0.0506549
vn 0.08208924 0.9348465 0.3454323
vn 0.3237224 0.9436907 0.06820378
vn 0.2544896 0.9147079 0.3139178
vn 0.9991425 0.007774612 0.04066504
vn 0.9985139 0.01215136 0.05312562
vn 0.9959461 0.04165477 -0.07972554
vn 0.9997969 0.009023534 -0.01801849
vn -0.08710776 0.05571358 -0.9946398
vn 0.001968445 0.09164044 -0.9957902
vn 0.9985139 0.01215136 0.05312562
vn 0.9889297 0.1482451 -0.00643997
vn 0.9959461 0.04165477 -0.07972554
vn 0.3445598 0.05635556 0.9370713
vn 0.2327611 0.2392121 0.9426558
vn 0.09060702 0.9955117 0.02733149
vn -0.800884 0.2170315 0.5581058
vn -0.8058573 0.1832301 0.5630458
vn -0.8968759 0.1889229 0.3999022
vn -0.8889458 0.2285201 0.3969306
g Cliff_D_0
f 3/3/3 2/2/2 1/1/1
f 6/6/6 5/5/5 4/4/4
f 9/9/9 8/8/8 7/7/7
f 12/12/12 11/11/11 10/10/10
f 15/15/15 14/14/14 13/13/13
f 16/16/16 15/15/15 13/13/13
f 17/17/17 15/15/15 16/16/16
f 18/18/18 16/16/16 13/13/13
f 18/18/18 19/19/19 16/16/16
f 16/16/16 19/19/19 20/20/20
f 21/21/21 16/16/16 20/20/20
f 22/22/22 21/21/21 20/20/20
f 19/19/19 23/23/23 20/20/20
f 24/24/24 20/20/20 23/23/23
f 25/25/25 24/24/24 23/23/23
f 23/23/23 26/26/26 25/25/25
f 23/23/23 19/19/19 26/26/26
f 19/19/19 27/27/27 26/26/26
f 19/19/19 29/29/29 28/28/28
f 29/29/29 30/30/30 28/28/28
f 33/33/33 32/32/32 31/31/31
f 32/32/32 34/34/34 31/31/31
f 34/34/34 32/32/32 35/35/35
f 32/32/32 36/36/36 35/35/35
f 35/35/35 36/36/36 37/37/37
f 38/38/38 35/35/35 37/37/37
f 37/37/37 39/39/39 38/38/38
f 39/39/39 40/40/40 38/38/38
f 41/41/41 31/31/31 34/34/34
f 34/34/34 35/35/35 42/42/42
f 34/34/34 42/42/42 41/41/41
f 38/38/38 43/43/43 35/35/35
f 42/42/42 35/35/35 43/43/43
f 44/44/44 31/31/31 41/41/41
f 45/45/45 31/31/31 44/44/44
f 46/46/46 45/45/45 44/44/44
f 47/47/47 44/44/44 41/41/41
f 48/48/48 44/44/44 47/47/47
f 49/49/49 48/48/48 47/47/47
f 50/50/50 48/48/48 49/49/49
f 51/51/51 50/50/50 49/49/49
f 49/49/49 47/47/47 52/52/52
f 52/52/52 47/47/47 53/53/53
f 47/47/47 41/41/41 53/53/53
f 54/54/54 53/53/53 41/41/41
f 54/54/54 41/41/41 42/42/42
f 55/55/55 54/54/54 42/42/42
f 56/56/56 54/54/54 55/55/55
f 57/57/57 56/56/56 55/55/55
f 55/55/55 42/42/42 43/43/43
f 43/43/43 59/59/59 58/58/58
f 43/43/43 38/38/38 59/59/59
f 38/38/38 60/60/60 59/59/59
f 60/60/60 61/61/61 59/59/59
f 62/62/62 61/61/61 60/60/60
f 63/63/63 62/62/62 60/60/60
f 60/60/60 38/38/38 63/63/63
f 38/38/38 64/64/64 63/63/63
f 67/67/67 66/66/66 65/65/65
f 66/66/66 68/68/68 65/65/65
f 69/69/69 65/65/65 68/68/68
f 70/70/70 69/69/69 68/68/68
f 68/68/68 71/71/71 70/70/70
f 72/72/72 69/69/69 70/70/70
f 73/73/73 72/72/72 70/70/70
f 72/72/72 73/73/73 74/74/74
f 73/73/73 75/75/75 74/74/74
f 70/70/70 76/76/76 73/73/73
f 70/70/70 77/77/77 76/76/76
f 80/80/80 79/79/79 78/78/78
f 79/79/79 81/81/81 78/78/78
f 81/81/81 79/79/79 82/82/82
f 82/82/82 83/83/83 81/81/81
f 83/83/83 84/84/84 81/81/81
f 84/84/84 78/78/78 81/81/81
f 85/85/85 78/78/78 84/84/84
f 88/88/88 87/87/87 86/86/86
f 87/87/87 89/89/89 86/86/86
f 86/86/86 89/89/89 90/90/90
f 89/89/89 91/91/91 90/90/90
f 89/89/89 92/92/92 91/91/91
f 92/92/92 93/93/93 91/91/91
f 94/94/94 93/93/93 92/92/92
f 89/89/89 95/95/95 92/92/92
f 95/95/95 89/89/89 96/96/96
f 89/89/89 97/97/97 96/96/96
f 92/92/92 95/95/95 98/98/98
f 94/94/94 92/92/92 98/98/98
f 99/99/99 94/94/94 98/98/98
f 94/94/94 99/99/99 100/100/100
f 99/99/99 101/101/101 100/100/100
f 104/104/104 103/103/103 102/102/102
f 105/105/105 104/104/104 102/102/102
f 108/108/108 107/107/107 106/106/106
f 107/107/107 109/109/109 106/106/106
f 106/106/106 109/109/109 110/110/110
f 111/111/111 106/106/106 110/110/110
f 109/109/109 112/112/112 110/110/110
f 115/115/115 114/114/114 113/113/113
f 114/114/114 116/116/116 113/113/113
f 116/116/116 114/114/114 117/117/117
f 117/117/117 118/118/118 116/116/116
f 113/113/113 116/116/116 119/119/119
f 118/118/118 120/120/120 116/116/116
f 116/116/116 120/120/120 119/119/119
f 121/121/121 119/119/119 120/120/120
f 122/122/122 121/121/121 120/120/120
f 123/123/123 121/121/121 122/122/122
f 124/124/124 123/123/123 122/122/122
f 122/122/122 125/125/125 124/124/124
f 125/125/125 122/122/122 120/120/120
f 126/126/126 125/125/125 120/120/120
f 129/129/129 128/128/128 127/127/127
f 130/130/130 129/129/129 127/127/127
f 129/129/129 130/130/130 131/131/131
f 130/130/130 132/132/132 131/131/131
f 131/131/131 132/132/132 133/133/133
f 132/132/132 134/134/134 133/133/133
f 137/137/137 136/136/136 135/135/135
f 135/135/135 138/138/138 137/137/137
f 137/137/137 138/138/138 139/139/139
f 140/140/140 137/137/137 139/139/139
f 143/143/143 142/142/142 141/141/141
f 144/144/144 141/141/141 142/142/142
f 145/145/145 144/144/144 142/142/142
f 142/142/142 146/146/146 145/145/145
f 149/149/149 148/148/148 147/147/147
f 150/150/150 149/149/149 147/147/147
