g col_caveDoor1
v -3.550652 -0.4040359 3.569482
v -3.044165 -0.3246062 3.358877
v -3.044163 -0.5485031 3.459418
v -3.044165 -0.3246062 3.358877
v -3.044163 0.01865364 3.177845
v -4.702046 -0.1021815 3.909486
v -4.097231 -0.5069879 3.648274
v -4.793013 -0.3923043 3.71707
v -4.883979 -0.682427 3.524656
v -3.910503 -0.6937756 3.494918
v -3.044163 -0.5485031 3.459418
v -3.044163 -0.7010666 3.400021
v -4.579878 -0.9058211 3.188762
v -3.955139 -0.8493324 3.296067
v -3.044163 -0.7010666 3.400021
v -4.275776 -1.129215 2.852869
v -3.044163 -0.8469195 3.190749
v -3.384853 -0.9342131 3.098705
v -3.044163 -1.138941 2.356572
v -3.044163 -0.9724361 2.94186
v -3.044163 -0.9724361 2.94186
v -3.044163 -0.8469195 3.190749
v -3.044163 -1.237451 0.7466137
v -3.044163 -1.138941 2.356572
v -3.153567 -1.241178 0.6507373
v -3.044163 -1.245844 0.4993018
v -3.348906 -1.286182 -0.3701941
v -3.044163 -1.303067 -1.056577
v -3.790117 -1.264467 -0.01347534
v -3.044163 -1.354415 -2.185905
v -3.044163 -1.303067 -1.056577
v -3.30446 -1.398289 -2.881792
v -3.04416 -1.334862 -2.769266
v -3.044163 -1.354415 -2.185905
v -3.04416 -1.334862 -2.769266
v -3.044165 -0.8611912 -3.13771
v -3.553921 -0.8402327 -3.41355
v -3.044165 -0.8611912 -3.13771
v -3.044163 -0.4467069 -3.40404
v -3.803384 -0.285942 -3.94531
v -3.044163 -0.1511429 -3.295946
v -3.044163 -0.4467069 -3.40404
v -3.044163 0.7241561 -2.140824
v -3.044163 -0.1511429 -3.295946
v -3.044163 0.7241561 -2.140824
v -4.020261 1.469935 -2.558285
v -3.044163 0.7712014 -2.091904
v -3.478977 1.410374 -1.859149
v -3.32553 1.94993 -0.9880493
v -4.237139 3.216161 -1.17126
v -3.04416 1.745419 -0.9287793
v -3.044163 0.7712014 -2.091904
v -3.504438 2.303813 -0.395133
v -4.016025 3.198426 -0.3812024
v -3.1896 1.978742 -0.4655395
v -3.04416 1.745419 -0.9287793
v -3.044163 1.879573 -0.4104065
v -3.04416 1.775717 0.1883069
v -3.044163 1.879573 -0.4104065
v -3.655766 2.607065 -0.1766602
v -3.04416 1.775717 0.1883069
v -3.044165 1.809168 0.3364062
v -3.794912 3.219668 0.4088537
v -3.53166 2.494242 0.2751782
v -3.740708 2.701006 0.6360962
v -3.044165 1.809168 0.3364062
v -3.044163 1.742844 0.4337073
v -4.143435 3.343776 0.8379321
v -3.820779 2.437037 0.918855
v -4.491958 3.47541 1.267012
v -4.1152 2.147431 1.539888
v -4.705173 2.476623 2.193619
v -3.04416 1.614121 0.5718493
v -3.044163 1.742844 0.4337073
v -3.703787 1.549006 1.686549
v -4.918388 1.471033 3.120227
v -3.044163 0.7748647 2.588668
v -3.044163 1.150272 1.81728
v -3.044163 1.150272 1.81728
v -3.04416 1.614121 0.5718493
v -3.044163 0.7748647 2.588668
v -4.810217 0.6852392 3.514856
v -3.044163 0.7033141 2.648336
v -3.435239 0.464509 3.079534
v -3.044163 0.1588679 3.097771
v -3.044163 0.01865364 3.177845
v -3.044163 0.1588679 3.097771
v -3.044163 0.7033141 2.648336
v -3.181282 5.809505 0.5172949
v -3.044165 6.045915 0.5862427
v -3.044163 5.891405 0.5081799
v -3.044165 6.045915 0.5862427
v -4.300596 7.070778 1.391172
v -3.044165 8.182017 1.547964
v -3.671448 4.948531 1.193997
v -3.794912 3.219668 0.4088537
v -5.532382 3.903085 1.25838
v -4.143435 3.343776 0.8379321
v -4.491958 3.47541 1.267012
v -4.016025 3.198426 -0.3812024
v -4.705173 2.476623 2.193619
v -4.918388 1.471033 3.120227
v -4.237139 3.216161 -1.17126
v -8.362744 -0.4518816 1.258118
v -4.810217 0.6852392 3.514856
v -4.702046 -0.1021815 3.909486
v -4.793013 -0.3923043 3.71707
v -4.883979 -0.682427 3.524656
v -7.829577 -1.573133 1.056414
v -4.579878 -0.9058211 3.188762
v -7.340893 -1.806486 -1.128503
v -8.733344 -0.9057649 -0.2988098
v -5.604424 -1.812059 -2.000831
v -3.790117 -1.264467 -0.01347534
v -3.30446 -1.398289 -2.881792
v -7.288513 -0.9032912 -2.245789
v -5.145888 -0.5370236 -3.777916
v -3.553921 -0.8402327 -3.41355
v -3.803384 -0.285942 -3.94531
v -5.178205 1.504144 -2.999397
v -4.020261 1.469935 -2.558285
v -8.125361 0.8093187 0.6296899
v -8.385371 -0.04301686 -1.124153
v -6.41012 3.188044 -1.133325
v -5.410562 3.821937 -1.238719
v -6.710825 2.788187 1.111453
v -6.670327 3.757072 0.001221924
v -5.285493 8.572557 -0.5540442
v -5.183777 8.516994 0.7084558
v -3.32758 10.32896 1.759934
v -3.044163 8.969069 1.944405
v -3.04416 10.31938 1.899338
v -3.616577 4.962226 -1.14529
v -4.367285 6.930675 -1.270516
v -3.438945 5.659983 -0.592948
v -3.044163 5.94103 -0.5702869
v -3.044165 5.908517 0.4800708
v -3.04416 7.3068 -1.011698
v -3.044163 5.94103 -0.5702869
v -3.044163 9.185531 -1.946797
v -3.04416 9.988934 -1.884874
v -3.044163 10.33621 -1.860112
v -3.463857 10.26552 -1.597041
v -3.044163 10.54812 1.299297
v -3.044163 10.57731 -1.190507
v -3.044163 5.891405 0.5081799
v -3.044165 5.908517 0.4800708
v -3.044163 10.57731 -1.190507
v -3.044163 10.33621 -1.860112
v -3.044163 9.185531 -1.946797
v -3.04416 8.103507 -1.466086
v -3.04416 8.103507 -1.466086
v -3.04416 7.3068 -1.011698
v -3.044163 10.47305 1.72053
v -3.044163 10.54812 1.299297
v -3.04416 10.31938 1.899338
v -3.044163 10.47305 1.72053
v -3.044165 8.182017 1.547964
v -3.044163 8.969069 1.944405
v -3.044163 -0.4467069 -3.40404
v -3.044165 -0.8611912 -3.13771
v -3.044163 -0.1511429 -3.295946
v -3.044163 0.7241561 -2.140824
v -3.04416 -1.334862 -2.769266
v -3.044163 -1.354415 -2.185905
v -3.044163 -1.303067 -1.056577
v -3.044163 0.7712014 -2.091904
v -3.04416 1.745419 -0.9287793
v -3.044163 -1.245844 0.4993018
v -3.044163 1.879573 -0.4104065
v -3.04416 1.775717 0.1883069
v -3.044163 -1.237451 0.7466137
v -3.044165 1.809168 0.3364062
v -3.044163 1.742844 0.4337073
v -3.04416 1.614121 0.5718493
v -3.044163 1.150272 1.81728
v -3.044163 -1.138941 2.356572
v -3.044163 0.7748647 2.588668
v -3.044163 0.7033141 2.648336
v -3.044163 0.1588679 3.097771
v -3.044163 -0.9724361 2.94186
v -3.044163 0.01865364 3.177845
v -3.044165 -0.3246062 3.358877
v -3.044163 -0.8469195 3.190749
v -3.044163 -0.7010666 3.400021
v -3.044163 -0.5485031 3.459418
v -3.044163 5.891405 0.5081799
v -3.044165 6.045915 0.5862427
v -3.044165 5.908517 0.4800708
v -3.04416 7.3068 -1.011698
v -3.044163 5.94103 -0.5702869
v -3.044165 8.182017 1.547964
v -3.04416 8.103507 -1.466086
v -3.044163 9.185531 -1.946797
v -3.044163 8.969069 1.944405
v -3.04416 10.31938 1.899338
v -3.044163 10.47305 1.72053
v -3.044163 10.54812 1.299297
v -3.04416 9.988934 -1.884874
v -3.044163 10.33621 -1.860112
v -3.044163 10.57731 -1.190507
vt 0 0
vt 0 0
vt 0 0
vt 0 0
vt 0 0
vt 0 0
vt 0 0
vt 0 0
vt 0 0
vt 0 0
vt 0 0
vt 0 0
vt 0 0
vt 0 0
vt 0 0
vt 0 0
vt 0 0
vt 0 0
vt 0 0
vt 0 0
vt 0 0
vt 0 0
vt 0 0
vt 0 0
vt 0 0
vt 0 0
vt 0 0
vt 0 0
vt 0 0
vt 0 0
vt 0 0
vt 0 0
vt 0 0
vt 0 0
vt 0 0
vt 0 0
vt 0 0
vt 0 0
vt 0 0
vt 0 0
vt 0 0
vt 0 0
vt 0 0
vt 0 0
vt 0 0
vt 0 0
vt 0 0
vt 0 0
vt 0 0
vt 0 0
vt 0 0
vt 0 0
vt 0 0
vt 0 0
vt 0 0
vt 0 0
vt 0 0
vt 0 0
vt 0 0
vt 0 0
vt 0 0
vt 0 0
vt 0 0
vt 0 0
vt 0 0
vt 0 0
vt 0 0
vt 0 0
vt 0 0
vt 0 0
vt 0 0
vt 0 0
vt 0 0
vt 0 0
vt 0 0
vt 0 0
vt 0 0
vt 0 0
vt 0 0
vt 0 0
vt 0 0
vt 0 0
vt 0 0
vt 0 0
vt 0 0
vt 0 0
vt 0 0
vt 0 0
vt 0 0
vt 0 0
vt 0 0
vt 0 0
vt 0 0
vt 0 0
vt 0 0
vt 0 0
vt 0 0
vt 0 0
vt 0 0
vt 0 0
vt 0 0
vt 0 0
vt 0 0
vt 0 0
vt 0 0
vt 0 0
vt 0 0
vt 0 0
vt 0 0
vt 0 0
vt 0 0
vt 0 0
vt 0 0
vt 0 0
vt 0 0
vt 0 0
vt 0 0
vt 0 0
vt 0 0
vt 0 0
vt 0 0
vt 0 0
vt 0 0
vt 0 0
vt 0 0
vt 0 0
vt 0 0
vt 0 0
vt 0 0
vt 0 0
vt 0 0
vt 0 0
vt 0 0
vt 0 0
vt 0 0
vt 0 0
vt 0 0
vt 0 0
vt 0 0
vt 0 0
vt 0 0
vt 0 0
vt 0 0
vt 0 0
vt 0 0
vt 0 0
vt 0 0
vt 0 0
vt 0 0
vt 0 0
vt 0 0
vt 0 0
vt 0 0
vt 0 0
vt 0 0
vt 0 0
vt 0 0
vt 0 0
vt 0 0
vt 0 0
vt 0 0
vt 0 0
vt 0 0
vt 0 0
vt 0 0
vt 0 0
vt 0 0
vt 0 0
vt 0 0
vt 0 0
vt 0 0
vt 0 0
vt 0 0
vt 0 0
vt 0 0
vt 0 0
vt 0 0
vt 0 0
vt 0 0
vt 0 0
vt 0 0
vt 0 0
vt 0 0
vt 0 0
vt 0 0
vt 0 0
vt 0 0
vt 0 0
vt 0 0
vt 0 0
vt 0 0
vt 0 0
vt 0 0
vt 0 0
vt 0 0
vt 0 0
vt 0 0
vt 0 0
vt 0 0
vt 0 0
vt 0 0
vn 0.2778814 0.1429417 0.9499209
vn 0.3005191 0.3907104 0.8700768
vn 0.3005191 0.3907104 0.8700768
vn 0.2826311 0.4474687 0.8484641
vn 0.333233 0.394245 0.8564618
vn 0.3104974 0.3212651 0.8946396
vn 0.0721055 -0.4799818 0.8743103
vn 0.05459318 -0.5073307 0.8600205
vn -5.018783E-05 -0.6934157 0.7205378
vn 0.06759267 -0.6593826 0.7487629
vn 0.09853965 -0.3610339 0.9273319
vn 0.09853984 -0.3610347 0.9273316
vn 0.004824694 -0.8313971 0.5556577
vn 0.02700725 -0.8313856 0.5550393
vn 0.06678432 -0.8144515 0.5763754
vn 0.05028182 -0.9750717 0.2161178
vn 0.06772283 -0.8209416 0.566982
vn 0.07352518 -0.9121423 0.4032249
vn 0.1070371 -0.9447689 0.3097657
vn 0.01805631 -0.9616793 0.2735818
vn 0.1065153 -0.8878039 0.447726
vn 0.1065154 -0.8878039 0.4477261
vn 0.004322257 -0.9994154 0.03391456
vn 0.01672609 -0.9979936 0.06106535
vn -0.00151576 -0.9989955 0.0447862
vn 0.004322256 -0.9994154 0.03391456
vn 0.0109044 -0.9991001 0.04099027
vn 0.02740108 -0.9989491 0.0367401
vn -0.0045742 -0.9989592 0.0453846
vn 0.02837153 -0.9983041 0.05083268
vn 0.04689953 -0.9978687 0.04537049
vn 0.2861724 -0.8688506 -0.403985
vn 0.2498285 -0.9677467 -0.0324348
vn 0.2498285 -0.9677467 -0.0324348
vn 0.4406106 -0.5511613 -0.7085785
vn 0.390306 -0.5433169 -0.7432818
vn 0.4181525 -0.5145301 -0.7486035
vn 0.3973614 -0.4960716 -0.7720213
vn 0.4108577 -0.5140136 -0.7529846
vn 0.5743958 0.4272855 -0.6982095
vn 0.5960278 0.2757964 -0.7541136
vn 0.5960278 0.2757964 -0.7541136
vn 0.3511628 0.7462646 -0.5654855
vn 0.3511629 0.7462646 -0.5654855
vn 0.6405162 0.5241639 -0.5612409
vn 0.6778306 0.5229223 -0.5168154
vn 0.6511601 0.5961292 -0.4697027
vn 0.6672124 0.5444235 -0.5083608
vn 0.701148 0.5852307 -0.407304
vn 0.7719411 0.5090613 -0.3807405
vn 0.5957962 0.6255351 -0.5037189
vn 0.6165949 0.6035408 -0.5055189
vn 0.7950388 0.5973016 -0.1055651
vn 0.8630062 0.4622282 -0.2038764
vn 0.6680743 0.7420931 -0.05453961
vn 0.6031867 0.7722276 -0.1995757
vn 0.6026019 0.7725893 -0.1999414
vn 0.6983045 0.7127527 0.06598839
vn 0.518919 0.8422459 0.1460989
vn 0.8568442 0.4815808 -0.1841143
vn 0.8257803 0.5467408 -0.1384244
vn 0.8210414 0.5608408 -0.1065302
vn 0.9190908 0.3758976 0.1182081
vn 0.8614919 0.4996354 0.09053178
vn 0.8009543 0.3804491 0.4623102
vn 0.8000587 0.5311215 0.278955
vn 0.7626622 0.4579438 0.4567647
vn 0.7929732 0.3191876 0.5189536
vn 0.7528676 0.432815 0.4958443
vn 0.780575 0.3295787 0.5311126
vn 0.732894 0.4278817 0.5289457
vn 0.7308245 0.4111007 0.5448778
vn 0.7090226 0.5127897 0.4840802
vn 0.7337082 0.4971074 0.4632024
vn 0.5374115 0.7187741 0.4410813
vn 0.4984462 0.6121925 0.6138174
vn 0.4163255 0.8177888 0.3973596
vn 0.4155084 0.8178771 0.3980325
vn 0.4452786 0.8390855 0.3125097
vn 0.4452786 0.8390855 0.3125098
vn 0.3857313 0.4883479 0.7827692
vn 0.3566733 0.4971015 0.7909958
vn 0.3333349 0.6395611 0.6927117
vn 0.3471557 0.5162244 0.7829401
vn 0.3331 0.4698416 0.8174921
vn 0.3313312 0.4618769 0.8227329
vn 0.4190815 0.5780072 0.7001989
vn 0.4190815 0.5780072 0.7001988
vn 0.5784029 -0.5199295 0.6285884
vn 0.3122407 -0.4283948 0.8479291
vn 0.3122407 -0.4283947 0.8479291
vn 0.2418987 -0.3983406 0.8847653
vn -0.08316472 -0.1454441 0.9858649
vn 0.2418982 -0.3983412 0.8847651
vn 0.4573298 -0.104843 0.8830953
vn 0.9651027 -0.2598289 -0.03264431
vn -0.3236188 0.2693838 0.9070299
vn 0.6762667 -0.3434955 0.6516703
vn 0.3289055 0.256936 0.9087381
vn 0.9415427 -0.2104889 -0.263043
vn 0.2500207 0.6281047 0.7368678
vn -0.5693214 0.3712785 0.7335021
vn 0.6017378 0.2404975 -0.7616249
vn -0.7262201 0.08956748 0.6816026
vn -0.5781202 0.3009823 0.7584106
vn -0.5885261 0.1738863 0.7895572
vn -0.5278078 -0.3482847 0.774672
vn -0.3664551 -0.6388296 0.6764668
vn -0.2614664 -0.8997069 0.3495181
vn -0.1268343 -0.8750408 0.4671366
vn -0.1454928 -0.9878532 -0.05457196
vn -0.9236658 -0.3658759 -0.1139134
vn 0.05322194 -0.9940752 -0.09477228
vn 0.2059991 -0.975223 0.08064944
vn 0.1346603 -0.9795541 -0.1494671
vn -0.6091931 -0.05071016 -0.7913989
vn -0.3814552 -0.2180223 -0.8983085
vn 0.03736808 -0.6817746 -0.7306074
vn 0.05315468 0.05235654 -0.9972128
vn -0.2796666 0.4875554 -0.827089
vn 0.2964319 0.6152994 -0.7304347
vn -0.8968115 0.4194319 0.1407334
vn -0.7915478 0.2985184 -0.5332344
vn -0.673149 0.3723967 -0.6388983
vn -0.1121408 0.257807 -0.9596666
vn -0.6877378 0.3320466 0.6455708
vn -0.9443738 0.3228614 -0.06259932
vn -0.8218036 0.4089724 -0.396712
vn -0.8090611 0.3306469 0.4858936
vn -0.62938 0.6112842 0.4798045
vn -0.4403568 0.02994773 0.8973232
vn -0.44035 0.02994934 0.8973266
vn 0.5945725 -0.1536901 -0.7892166
vn -0.1154922 -0.1233729 -0.9856169
vn 0.563044 -0.4278481 -0.7070554
vn 0.580727 -0.8137087 -0.0251878
vn 0.5807338 -0.8137038 -0.02518596
vn 0.2638598 -0.2966346 -0.9178158
vn 0.263859 -0.2966345 -0.9178161
vn -0.5393969 0.06471002 -0.8395616
vn -0.5373822 0.05997694 -0.8412034
vn -0.5373815 0.05997752 -0.8412038
vn -0.6566562 0.7125968 -0.246999
vn -0.6021423 0.798334 0.009357582
vn -0.6021441 0.7983326 0.009357031
vn 0.4295066 -0.7713627 -0.4695996
vn 0.4295066 -0.7713627 -0.4695996
vn -0.347691 0.8821695 -0.3176285
vn -0.347691 0.8821695 -0.3176285
vn 0.2193347 -0.3961181 -0.891618
vn 0.2193346 -0.3961181 -0.891618
vn 0.2967542 -0.4731049 -0.8295231
vn 0.2967542 -0.4731049 -0.8295232
vn -0.4299037 0.8888705 0.1584041
vn -0.4299037 0.8888706 0.1584041
vn -0.2829194 0.7274134 0.6251612
vn -0.2829194 0.7274133 0.6251611
vn 0.2753501 -0.432469 0.858576
vn 0.2753502 -0.432469 0.8585761
vn 1 -1.581205E-06 5.841844E-06
vn 1 1.69073E-06 -5.375397E-06
vn 1 -3.003683E-06 2.356967E-06
vn 1 -6.21437E-07 0
vn 1 1.367164E-06 -7.233728E-07
vn 1 0 1.46019E-06
vn 1 -6.150514E-07 -2.053247E-07
vn 1 -8.201577E-07 -1.435919E-06
vn 1 -2.248439E-07 8.439399E-07
vn 1 -7.947025E-07 0
vn 1 0 7.756169E-07
vn 1 -1.484702E-07 2.382468E-06
vn 1 -2.145708E-07 4.441368E-07
vn 1 3.260163E-06 1.730015E-05
vn 1 -2.15423E-06 -2.477323E-05
vn 1 -1.072203E-06 -2.171557E-06
vn 1 -4.309751E-07 9.696549E-07
vn 1 1.546479E-07 0
vn 1 0 0
vn 1 0 0
vn 1 -1.985308E-07 0
vn 1 0 4.61634E-07
vn 1 -1.589936E-06 3.816432E-06
vn 1 -1.550242E-06 7.628076E-06
vn 1 6.389901E-06 -3.059898E-06
vn 1 6.78055E-06 -4.839588E-06
vn 1 5.11509E-06 -1.300626E-05
vn 1 4.29906E-05 -5.906799E-05
vn 1 -1.165277E-06 2.215049E-06
vn 1 -5.426256E-07 1.832905E-06
vn 1 -1.180573E-07 1.963784E-06
vn 1 -1.1002E-06 2.291956E-06
vn 1 -1.484545E-06 9.345201E-07
vn 1 2.391534E-06 1.558662E-06
vn 1 -8.65986E-07 9.267361E-07
vn 1 -2.251021E-06 -1.222098E-07
vn 1 -6.923156E-07 -4.972275E-07
vn 1 8.880577E-06 -3.160772E-06
vn 1 8.106436E-07 2.433476E-07
vn 1 -7.689762E-07 8.890412E-07
vn 1 7.64479E-06 -4.336694E-07
vn 1 -2.520879E-06 0
g col_caveDoor1_0
f 3/3/3 2/2/2 1/1/1
f 5/5/5 1/1/1 4/4/4
f 5/5/5 6/6/6 1/1/1
f 6/6/6 7/7/7 1/1/1
f 6/6/6 8/8/8 7/7/7
f 9/9/9 7/7/7 8/8/8
f 1/1/1 7/7/7 10/10/10
f 9/9/9 10/10/10 7/7/7
f 1/1/1 10/10/10 11/11/11
f 11/11/11 10/10/10 12/12/12
f 13/13/13 10/10/10 9/9/9
f 13/13/13 14/14/14 10/10/10
f 14/14/14 15/15/15 10/10/10
f 16/16/16 14/14/14 13/13/13
f 14/14/14 17/17/17 15/15/15
f 16/16/16 18/18/18 14/14/14
f 17/17/17 14/14/14 18/18/18
f 19/19/19 18/18/18 16/16/16
f 19/19/19 20/20/20 18/18/18
f 22/22/22 18/18/18 21/21/21
f 24/24/24 16/16/16 23/23/23
f 23/23/23 16/16/16 25/25/25
f 26/26/26 23/23/23 25/25/25
f 26/26/26 25/25/25 27/27/27
f 26/26/26 27/27/27 28/28/28
f 29/29/29 27/27/27 25/25/25
f 29/29/29 25/25/25 16/16/16
f 30/30/30 27/27/27 29/29/29
f 31/31/31 27/27/27 30/30/30
f 30/30/30 29/29/29 32/32/32
f 34/34/34 32/32/32 33/33/33
f 32/32/32 36/36/36 35/35/35
f 32/32/32 37/37/37 36/36/36
f 39/39/39 38/38/38 37/37/37
f 39/39/39 37/37/37 40/40/40
f 42/42/42 40/40/40 41/41/41
f 44/44/44 40/40/40 43/43/43
f 40/40/40 46/46/46 45/45/45
f 45/45/45 46/46/46 47/47/47
f 47/47/47 46/46/46 48/48/48
f 49/49/49 48/48/48 46/46/46
f 49/49/49 46/46/46 50/50/50
f 51/51/51 48/48/48 49/49/49
f 51/51/51 52/52/52 48/48/48
f 53/53/53 49/49/49 50/50/50
f 54/54/54 53/53/53 50/50/50
f 53/53/53 55/55/55 49/49/49
f 56/56/56 49/49/49 55/55/55
f 56/56/56 55/55/55 57/57/57
f 58/58/58 55/55/55 53/53/53
f 55/55/55 58/58/58 59/59/59
f 54/54/54 60/60/60 53/53/53
f 60/60/60 61/61/61 53/53/53
f 60/60/60 62/62/62 61/61/61
f 63/63/63 60/60/60 54/54/54
f 62/62/62 60/60/60 64/64/64
f 63/63/63 64/64/64 60/60/60
f 63/63/63 65/65/65 64/64/64
f 64/64/64 65/65/65 66/66/66
f 66/66/66 65/65/65 67/67/67
f 63/63/63 68/68/68 65/65/65
f 67/67/67 65/65/65 69/69/69
f 69/69/69 65/65/65 68/68/68
f 69/69/69 68/68/68 70/70/70
f 70/70/70 71/71/71 69/69/69
f 70/70/70 72/72/72 71/71/71
f 69/69/69 71/71/71 73/73/73
f 69/69/69 73/73/73 74/74/74
f 73/73/73 71/71/71 75/75/75
f 75/75/75 71/71/71 72/72/72
f 75/75/75 72/72/72 76/76/76
f 77/77/77 75/75/75 76/76/76
f 77/77/77 78/78/78 75/75/75
f 80/80/80 75/75/75 79/79/79
f 82/82/82 81/81/81 76/76/76
f 82/82/82 83/83/83 81/81/81
f 82/82/82 84/84/84 83/83/83
f 85/85/85 84/84/84 82/82/82
f 85/85/85 82/82/82 86/86/86
f 86/86/86 82/82/82 6/6/6
f 88/88/88 84/84/84 87/87/87
f 91/91/91 90/90/90 89/89/89
f 93/93/93 89/89/89 92/92/92
f 93/93/93 92/92/92 94/94/94
f 95/95/95 89/89/89 93/93/93
f 95/95/95 96/96/96 89/89/89
f 97/97/97 95/95/95 93/93/93
f 95/95/95 98/98/98 96/96/96
f 99/99/99 98/98/98 95/95/95
f 97/97/97 99/99/99 95/95/95
f 96/96/96 100/100/100 89/89/89
f 97/97/97 101/101/101 99/99/99
f 97/97/97 102/102/102 101/101/101
f 89/89/89 100/100/100 103/103/103
f 104/104/104 102/102/102 97/97/97
f 102/102/102 104/104/104 105/105/105
f 105/105/105 104/104/104 106/106/106
f 104/104/104 107/107/107 106/106/106
f 108/108/108 107/107/107 104/104/104
f 108/108/108 104/104/104 109/109/109
f 108/108/108 109/109/109 110/110/110
f 110/110/110 109/109/109 16/16/16
f 111/111/111 16/16/16 109/109/109
f 104/104/104 112/112/112 109/109/109
f 109/109/109 112/112/112 111/111/111
f 113/113/113 16/16/16 111/111/111
f 114/114/114 16/16/16 113/113/113
f 114/114/114 113/113/113 115/115/115
f 116/116/116 113/113/113 111/111/111
f 116/116/116 111/111/111 112/112/112
f 117/117/117 115/115/115 113/113/113
f 117/117/117 113/113/113 116/116/116
f 117/117/117 118/118/118 115/115/115
f 118/118/118 117/117/117 119/119/119
f 117/117/117 120/120/120 119/119/119
f 120/120/120 117/117/117 116/116/116
f 121/121/121 119/119/119 120/120/120
f 121/121/121 120/120/120 103/103/103
f 104/104/104 122/122/122 112/112/112
f 112/112/112 123/123/123 116/116/116
f 122/122/122 123/123/123 112/112/112
f 120/120/120 116/116/116 124/124/124
f 116/116/116 123/123/123 124/124/124
f 125/125/125 103/103/103 120/120/120
f 124/124/124 125/125/125 120/120/120
f 126/126/126 122/122/122 104/104/104
f 126/126/126 104/104/104 97/97/97
f 122/122/122 127/127/127 123/123/123
f 127/127/127 124/124/124 123/123/123
f 122/122/122 126/126/126 127/127/127
f 124/124/124 127/127/127 128/128/128
f 124/124/124 128/128/128 125/125/125
f 127/127/127 129/129/129 128/128/128
f 129/129/129 127/127/127 126/126/126
f 97/97/97 129/129/129 126/126/126
f 130/130/130 128/128/128 129/129/129
f 97/97/97 93/93/93 129/129/129
f 93/93/93 130/130/130 129/129/129
f 130/130/130 93/93/93 131/131/131
f 130/130/130 131/131/131 132/132/132
f 133/133/133 103/103/103 125/125/125
f 103/103/103 133/133/133 89/89/89
f 125/125/125 134/134/134 133/133/133
f 125/125/125 128/128/128 134/134/134
f 89/89/89 133/133/133 135/135/135
f 133/133/133 134/134/134 135/135/135
f 89/89/89 135/135/135 136/136/136
f 89/89/89 136/136/136 137/137/137
f 138/138/138 135/135/135 134/134/134
f 138/138/138 139/139/139 135/135/135
f 140/140/140 134/134/134 128/128/128
f 140/140/140 128/128/128 141/141/141
f 128/128/128 142/142/142 141/141/141
f 143/143/143 142/142/142 128/128/128
f 130/130/130 143/143/143 128/128/128
f 143/143/143 130/130/130 144/144/144
f 143/143/143 144/144/144 145/145/145
f 147/147/147 146/146/146 89/89/89
f 149/149/149 143/143/143 148/148/148
f 151/151/151 134/134/134 150/150/150
f 153/153/153 134/134/134 152/152/152
f 155/155/155 130/130/130 154/154/154
f 157/157/157 130/130/130 156/156/156
f 159/159/159 93/93/93 158/158/158
f 162/162/162 161/161/161 160/160/160
f 163/163/163 161/161/161 162/162/162
f 163/163/163 164/164/164 161/161/161
f 163/163/163 165/165/165 164/164/164
f 163/163/163 166/166/166 165/165/165
f 167/167/167 166/166/166 163/163/163
f 168/168/168 166/166/166 167/167/167
f 168/168/168 169/169/169 166/166/166
f 170/170/170 169/169/169 168/168/168
f 171/171/171 169/169/169 170/170/170
f 171/171/171 172/172/172 169/169/169
f 173/173/173 172/172/172 171/171/171
f 174/174/174 172/172/172 173/173/173
f 175/175/175 172/172/172 174/174/174
f 176/176/176 172/172/172 175/175/175
f 176/176/176 177/177/177 172/172/172
f 178/178/178 177/177/177 176/176/176
f 179/179/179 177/177/177 178/178/178
f 180/180/180 177/177/177 179/179/179
f 180/180/180 181/181/181 177/177/177
f 182/182/182 181/181/181 180/180/180
f 183/183/183 181/181/181 182/182/182
f 183/183/183 184/184/184 181/181/181
f 183/183/183 185/185/185 184/184/184
f 186/186/186 185/185/185 183/183/183
f 189/189/189 188/188/188 187/187/187
f 190/190/190 188/188/188 189/189/189
f 190/190/190 189/189/189 191/191/191
f 190/190/190 192/192/192 188/188/188
f 193/193/193 192/192/192 190/190/190
f 194/194/194 192/192/192 193/193/193
f 194/194/194 195/195/195 192/192/192
f 194/194/194 196/196/196 195/195/195
f 194/194/194 197/197/197 196/196/196
f 194/194/194 198/198/198 197/197/197
f 199/199/199 198/198/198 194/194/194
f 200/200/200 198/198/198 199/199/199
f 201/201/201 198/198/198 200/200/200
