g col_mountaintop_top
v -246.2565 1158.59 6.284055
v -210.1231 1126.163 -75.40868
v -148.8536 1235.245 -78.5507
v 133.5362 94.14859 -609.5535
v 482.3013 186.9674 -285.9246
v 230.9391 282.9595 -502.7245
v 96.02824 1038.203 -197.9478
v 269.0362 1282.349 -21.9942
v 111.542 1415.23 -150.8174
v -24.20344 874.7787 -254.5043
v 214.4434 662.5647 -298.4927
v -148.8536 1235.245 -78.5507
v 24.84166 1511.123 -75.40868
v -45.95216 1563.247 6.284055
v -246.2565 1158.59 6.284055
v -210.1231 1126.163 -75.40868
v -285.9246 689.141 -194.8057
v -380.9709 598.7021 -94.26084
v -283.1753 1023.725 56.55651
v -246.2565 1158.59 6.284055
v -483.8723 198.4706 -188.5217
v -380.1854 240.9134 -263.9304
v -552.9969 -94.06735 -153.9594
v -340.1245 82.24874 -534.1448
v -434.2527 -731.1147 -228.8948
v -559.8596 -731.1154 -146.5525
v -369.3558 -731.1151 -520.5819
v -240.9576 -731.1152 -593.1548
v -252.5405 153.6478 -579.7042
v 12.76449 177.4475 -479.1593
v -30.74056 -731.1164 -524.7687
v 80.41628 342.4588 -521.5767
v -72.6594 429.7243 -477.5883
v 133.5362 94.14859 -609.5535
v 45.26484 -438.9646 -639.4027
v 229.3704 -731.1147 -557.5662
v 540.5963 -731.1147 -302.8633
v -285.9246 689.141 -194.8057
v -340.1245 82.24874 -534.1448
v -252.5405 153.6478 -579.7042
v -72.6594 429.7243 -477.5883
v -24.20344 874.7787 -254.5043
v 214.4434 662.5647 -298.4927
v 80.41628 342.4588 -521.5767
v 230.9391 282.9595 -502.7245
v 133.5362 94.14859 -609.5535
v 482.3013 186.9674 -285.9246
v 310.2753 583.2324 -223.084
v 96.02824 1038.203 -197.9478
v 269.0362 1282.349 -21.9942
v 386.4695 489.0252 -163.3855
v 352.6927 683.3894 122.5391
v 283.1753 1197.265 125.6811
v 141.3913 1434.468 -106.829
v 111.542 1415.23 -150.8174
v 50.07607 1532.642 -56.55651
v 24.84166 1511.123 -75.40868
v -45.95216 1563.247 6.284055
v 41.63187 1278.58 153.9594
v -4.265058 1598.066 -1.123677E-06
v 168.4913 1199.248 194.8057
v -115.8623 1143.517 150.8174
v -86.01302 707.3875 339.339
v 282.3898 1014.8 223.084
v -233.6883 1130.824 97.40287
v -246.2565 1158.59 6.284055
v -283.1753 1023.725 56.55651
v -274.1419 575.2991 260.7883
v -380.9709 598.7021 -94.26084
v -461.8781 274.233 260.7883
v -483.8723 198.4706 -188.5217
v -392.7535 288.5128 399.0376
v -505.8665 2.123092 370.7593
v -99.36664 -272.3668 520.0057
v 62.44781 225.8402 565.5651
v -531.7883 -364.3922 388.0405
v -509.6168 -731.1152 374.7161
v -105.9302 -731.1159 528.2356
v -29.95551 -731.1156 471.7125
v -91.70795 450.3507 509.0085
v -21.45416 -292.9932 466.5912
v 48.37433 -731.115 555.4504
v 77.86338 528.0964 496.4404
v 367.6173 525.7164 292.2086
v 276.8912 43.3759 515.2926
v 41.92644 -281.0933 568.7071
v 274.3795 -731.1151 552.6591
v 304.0367 -731.1149 487.0645
v 633.1187 59.63903 138.2492
v 331.4839 -279.5067 463.4491
v 788.649 -320.1645 98.97388
v 714.3525 -731.1183 133.0973
v 731.1 -731.1164 32.0884
v 541.9919 -731.1156 -256.8074
v 697.5302 -40.51803 50.27245
v 577.528 -253.2903 -207.9435
v 540.5963 -731.1147 -302.8633
v 133.5362 94.14859 -609.5535
v -461.8781 274.233 260.7883
v -388.0405 -180.9362 84.83475
v -483.8723 198.4706 -188.5217
v -531.7883 -364.3922 388.0405
v -505.8665 2.123092 370.7593
v -397.9662 -731.1149 88.6115
v -509.6168 -731.1152 374.7161
v -552.9969 -94.06735 -153.9594
v -397.9662 -731.1149 88.6115
v -559.8596 -731.1154 -146.5525
v -388.0405 -180.9362 84.83475
v -483.8723 198.4706 -188.5217
vt 0.2116989 0.9633373
vt 0.2315387 0.9749582
vt 0.246602 0.9825357
vt 0.421234 0.9677154
vt 0.4918784 0.8914016
vt 0.433886 0.9584142
vt 0.3384483 0.9748944
vt 0.3653265 0.9525819
vt 0.3258619 1
vt 0.3132257 0.9775891
vt 0.3964407 0.9534824
vt 0.246602 0.9825357
vt 0.2892694 0.998414
vt 0.2583345 0.9905477
vt 0.2116989 0.9633373
vt 0.2315387 0.9749582
vt 0.2349686 0.9622266
vt 0.1997257 0.9383959
vt 0.2002917 0.9423857
vt 0.2116989 0.9633373
vt 0.1913372 0.9254926
vt 0.2283768 0.9391981
vt 0.1770685 0.8946334
vt 0.2718218 0.9771347
vt 0.2204102 0.8634123
vt 0.1717227 0.8444297
vt 0.2756533 0.9218347
vt 0.32737 0.9296101
vt 0.3001625 0.9883665
vt 0.3695141 0.9555944
vt 0.395741 0.8881702
vt 0.3883968 0.9761065
vt 0.3351476 0.983745
vt 0.421234 0.9677154
vt 0.4155225 0.9283441
vt 0.4809681 0.8977114
vt 0.5585321 0.8207575
vt 0.2349686 0.9622266
vt 0.2718218 0.9771347
vt 0.3001625 0.9883665
vt 0.3351476 0.983745
vt 0.3132257 0.9775891
vt 0.3964407 0.9534824
vt 0.3883968 0.9761065
vt 0.433886 0.9584142
vt 0.421234 0.9677154
vt 0.4918784 0.8914016
vt 0.4206897 0.9253802
vt 0.3384483 0.9748944
vt 0.3653265 0.9525819
vt 0.4410442 0.9001527
vt 0.3967727 0.8620365
vt 0.3582205 0.9136724
vt 0.3299574 0.9912126
vt 0.3258619 1
vt 0.2943214 0.9952191
vt 0.2892694 0.998414
vt 0.2583345 0.9905477
vt 0.2800617 0.9287933
vt 0.2703115 0.9928324
vt 0.3169788 0.9060404
vt 0.2375214 0.9253112
vt 0.2430449 0.8441006
vt 0.354751 0.8766441
vt 0.2076371 0.9414519
vt 0.2116989 0.9633373
vt 0.2002917 0.9423857
vt 0.1984514 0.8579508
vt 0.1997257 0.9383959
vt 0.152105 0.8398242
vt 0.1913372 0.9254926
vt 0.1591043 0.8092006
vt 0.1374456 0.7941412
vt 0.2546551 0.7155764
vt 0.2821624 0.744428
vt 0.1403385 0.7574635
vt 0.1313978 0.7239407
vt 0.2543629 0.6558343
vt 0.2847337 0.6683185
vt 0.2336488 0.7855721
vt 0.2839453 0.7202586
vt 0.299805 0.6509348
vt 0.2832703 0.7861897
vt 0.3902314 0.8117524
vt 0.3576958 0.725733
vt 0.2927781 0.6970923
vt 0.3769917 0.6367573
vt 0.3935919 0.6515571
vt 0.5006859 0.7846525
vt 0.3900091 0.7028598
vt 0.5640844 0.7483244
vt 0.5845447 0.6696045
vt 0.5934403 0.7133921
vt 0.5577276 0.7996991
vt 0.5319254 0.7896184
vt 0.5278682 0.8287628
vt 0.5585321 0.8207575
vt 0.421234 0.9677154
vt 0.152105 0.8398242
vt 0.2066303 0.8287247
vt 0.1913372 0.9254926
vt 0.1403385 0.7574635
vt 0.1374456 0.7941412
vt 0.1989847 0.786284
vt 0.1313978 0.7239407
vt 0.1770685 0.8946334
vt 0.1989847 0.786284
vt 0.1717227 0.8444297
vt 0.2066303 0.8287247
vt 0.1913372 0.9254926
vn -0.9175067 0.389019 -0.08273809
vn -0.656873 0.3012465 -0.6912079
vn -0.5333195 0.3072348 -0.7881478
vn 0.4238207 0.09257014 -0.9010032
vn 0.8212595 0.2339727 -0.5203746
vn 0.5881694 0.3099397 -0.74699
vn 0.4275961 0.2234336 -0.8759217
vn 0.8586454 0.2764095 -0.4316548
vn 0.00305859 0.2733317 -0.9619149
vn -0.2232599 0.358633 -0.906387
vn 0.4481178 0.4237679 -0.7871539
vn -0.5333195 0.3072348 -0.7881478
vn -0.3970764 0.4183467 -0.8168944
vn -0.7334108 0.6461483 0.2111893
vn -0.9175067 0.389019 -0.08273809
vn -0.656873 0.3012465 -0.6912079
vn -0.617135 0.3764581 -0.6909585
vn -0.9585475 0.2847927 -0.008925869
vn -0.9389623 0.2303672 0.2555006
vn -0.9175067 0.389019 -0.08273809
vn -0.991931 0.08535846 -0.09373839
vn -0.9031191 0.142952 -0.4048956
vn -0.954878 0.07804833 -0.2865598
vn -0.9020367 0.09525864 -0.4210171
vn -0.8981839 0.02474958 -0.4389229
vn -0.9928755 0.01207406 0.1185437
vn -0.8866881 0.02416695 -0.461736
vn 0.0352159 0.02212749 -0.9991347
vn -0.02037235 0.1720757 -0.9848731
vn 0.05019834 -0.01106234 -0.9986779
vn 0.07999469 -0.0469709 -0.995688
vn 0.1040281 0.3764928 -0.9205604
vn -0.2014242 0.496654 -0.8442529
vn 0.4238207 0.09257014 -0.9010032
vn -0.3503959 -0.0008809222 -0.9366013
vn 0.5422301 -0.02316717 -0.8399105
vn 0.6817767 0.03354764 -0.7307907
vn -0.617135 0.3764581 -0.6909585
vn -0.9020367 0.09525864 -0.4210171
vn -0.02037235 0.1720757 -0.9848731
vn -0.2014242 0.496654 -0.8442529
vn -0.2232599 0.358633 -0.906387
vn 0.4481178 0.4237679 -0.7871539
vn 0.1040281 0.3764928 -0.9205604
vn 0.5881694 0.3099397 -0.74699
vn 0.4238207 0.09257014 -0.9010032
vn 0.8212595 0.2339727 -0.5203746
vn 0.7217454 0.3086024 -0.6195549
vn 0.4275961 0.2234336 -0.8759217
vn 0.8586454 0.2764095 -0.4316548
vn 0.9139571 0.3542402 -0.1979807
vn 0.9643841 0.2641324 -0.01405537
vn 0.8528224 0.4176666 0.3134465
vn 0.6554545 0.695143 0.2952212
vn 0.00305859 0.2733317 -0.9619149
vn 0.7818924 0.5721874 0.2474789
vn -0.3970764 0.4183467 -0.8168944
vn -0.7334108 0.6461483 0.2111893
vn 0.02829306 0.5307353 0.8470653
vn 0.570143 0.6748511 0.4685221
vn -0.01855205 0.3560503 0.9342827
vn -0.2011446 0.3291279 0.9226136
vn -0.3055036 0.4261192 0.8515221
vn 0.2699703 0.3394803 0.9010379
vn -0.6488076 0.3236454 0.6886961
vn -0.9175067 0.389019 -0.08273809
vn -0.9389623 0.2303672 0.2555006
vn -0.7677931 0.3969135 0.5029447
vn -0.9585475 0.2847927 -0.008925869
vn -0.9838769 0.1656428 0.06744466
vn -0.991931 0.08535846 -0.09373839
vn -0.4969595 0.1927705 0.8460915
vn -0.5383949 0.06982974 0.8397945
vn -0.1900865 -0.006657579 0.9817447
vn 0.0108188 0.1105448 0.9938122
vn -0.9017596 0.003342905 0.4322249
vn -0.7797712 -0.03337745 0.6251742
vn -0.2007802 0.02044347 0.979423
vn -0.1505842 0.01887617 0.988417
vn -0.3660432 0.2978803 0.8816347
vn -0.2813102 -0.07388613 0.9567682
vn -0.155723 0.03500356 0.9871804
vn 0.2861355 0.3335428 0.8982626
vn 0.7243603 0.2634718 0.6370909
vn 0.546573 0.1138918 0.8296304
vn -0.1561487 -0.01240228 0.9876557
vn 0.2517568 0.04582372 0.966705
vn 0.6964679 -0.0111408 0.7175015
vn 0.8754917 0.3147144 0.3667004
vn 0.6559992 0.03528974 0.7539362
vn 0.9559385 0.1007193 0.2757485
vn 0.7163417 -0.07187867 0.6940376
vn 0.9021208 -0.05671357 -0.4277403
vn 0.8750485 0.002235443 -0.48403
vn 0.8996929 0.2375658 -0.3662174
vn 0.8634334 0.03632091 -0.5031537
vn 0.6817767 0.03354764 -0.7307907
vn 0.4238207 0.09257014 -0.9010032
vn -0.9838769 0.1656428 0.06744466
vn -0.9999273 -0.009072307 0.007954002
vn -0.991931 0.08535846 -0.09373839
vn -0.9017596 0.003342905 0.4322249
vn -0.5383949 0.06982974 0.8397945
vn -0.9890414 0.005066896 0.1475515
vn -0.7797712 -0.03337745 0.6251742
vn -0.954878 0.07804833 -0.2865598
vn -0.9890414 0.005066896 0.1475515
vn -0.9928755 0.01207406 0.1185437
vn -0.9999273 -0.009072307 0.007954002
vn -0.991931 0.08535846 -0.09373839
g col_mountaintop_top_0
f 3/3/3 2/2/2 1/1/1
f 6/6/6 5/5/5 4/4/4
f 9/9/9 8/8/8 7/7/7
f 9/9/9 7/7/7 10/10/10
f 11/11/11 10/10/10 7/7/7
f 9/9/9 10/10/10 12/12/12
f 12/12/12 13/13/13 9/9/9
f 12/12/12 14/14/14 13/13/13
f 12/12/12 15/15/15 14/14/14
f 12/12/12 10/10/10 16/16/16
f 16/16/16 10/10/10 17/17/17
f 16/16/16 17/17/17 18/18/18
f 16/16/16 18/18/18 19/19/19
f 16/16/16 19/19/19 20/20/20
f 21/21/21 18/18/18 17/17/17
f 17/17/17 22/22/22 21/21/21
f 23/23/23 21/21/21 22/22/22
f 17/17/17 24/24/24 22/22/22
f 25/25/25 23/23/23 22/22/22
f 25/25/25 22/22/22 24/24/24
f 23/23/23 25/25/25 26/26/26
f 24/24/24 27/27/27 25/25/25
f 24/24/24 28/28/28 27/27/27
f 29/29/29 28/28/28 24/24/24
f 28/28/28 29/29/29 30/30/30
f 28/28/28 30/30/30 31/31/31
f 32/32/32 30/30/30 29/29/29
f 32/32/32 29/29/29 33/33/33
f 34/34/34 30/30/30 32/32/32
f 31/31/31 30/30/30 35/35/35
f 35/35/35 30/30/30 34/34/34
f 31/31/31 35/35/35 36/36/36
f 34/34/34 36/36/36 35/35/35
f 34/34/34 37/37/37 36/36/36
f 40/40/40 39/39/39 38/38/38
f 41/41/41 40/40/40 38/38/38
f 42/42/42 41/41/41 38/38/38
f 43/43/43 41/41/41 42/42/42
f 43/43/43 44/44/44 41/41/41
f 43/43/43 45/45/45 44/44/44
f 44/44/44 45/45/45 46/46/46
f 43/43/43 47/47/47 45/45/45
f 43/43/43 48/48/48 47/47/47
f 48/48/48 43/43/43 49/49/49
f 50/50/50 48/48/48 49/49/49
f 48/48/48 51/51/51 47/47/47
f 50/50/50 51/51/51 48/48/48
f 51/51/51 52/52/52 47/47/47
f 51/51/51 50/50/50 52/52/52
f 52/52/52 50/50/50 53/53/53
f 53/53/53 50/50/50 54/54/54
f 55/55/55 54/54/54 50/50/50
f 54/54/54 55/55/55 56/56/56
f 55/55/55 57/57/57 56/56/56
f 57/57/57 58/58/58 56/56/56
f 54/54/54 56/56/56 59/59/59
f 53/53/53 54/54/54 59/59/59
f 58/58/58 60/60/60 56/56/56
f 60/60/60 59/59/59 56/56/56
f 58/58/58 59/59/59 60/60/60
f 53/53/53 59/59/59 61/61/61
f 62/62/62 59/59/59 58/58/58
f 59/59/59 62/62/62 61/61/61
f 61/61/61 62/62/62 63/63/63
f 53/53/53 61/61/61 64/64/64
f 52/52/52 53/53/53 64/64/64
f 64/64/64 61/61/61 63/63/63
f 65/65/65 62/62/62 58/58/58
f 65/65/65 63/63/63 62/62/62
f 66/66/66 65/65/65 58/58/58
f 66/66/66 67/67/67 65/65/65
f 65/65/65 67/67/67 63/63/63
f 67/67/67 68/68/68 63/63/63
f 67/67/67 69/69/69 68/68/68
f 69/69/69 70/70/70 68/68/68
f 69/69/69 71/71/71 70/70/70
f 70/70/70 72/72/72 68/68/68
f 73/73/73 72/72/72 70/70/70
f 72/72/72 73/73/73 74/74/74
f 72/72/72 74/74/74 75/75/75
f 74/74/74 73/73/73 76/76/76
f 74/74/74 76/76/76 77/77/77
f 78/78/78 74/74/74 77/77/77
f 79/79/79 74/74/74 78/78/78
f 72/72/72 80/80/80 68/68/68
f 80/80/80 63/63/63 68/68/68
f 72/72/72 75/75/75 80/80/80
f 81/81/81 74/74/74 79/79/79
f 74/74/74 81/81/81 75/75/75
f 79/79/79 82/82/82 81/81/81
f 80/80/80 83/83/83 63/63/63
f 80/80/80 75/75/75 83/83/83
f 64/64/64 63/63/63 83/83/83
f 84/84/84 64/64/64 83/83/83
f 84/84/84 83/83/83 75/75/75
f 84/84/84 75/75/75 85/85/85
f 52/52/52 64/64/64 84/84/84
f 81/81/81 86/86/86 75/75/75
f 82/82/82 86/86/86 81/81/81
f 86/86/86 85/85/85 75/75/75
f 82/82/82 85/85/85 86/86/86
f 87/87/87 85/85/85 82/82/82
f 85/85/85 87/87/87 88/88/88
f 52/52/52 84/84/84 89/89/89
f 84/84/84 85/85/85 89/89/89
f 52/52/52 89/89/89 47/47/47
f 85/85/85 88/88/88 90/90/90
f 85/85/85 90/90/90 89/89/89
f 91/91/91 90/90/90 88/88/88
f 89/89/89 90/90/90 91/91/91
f 91/91/91 88/88/88 92/92/92
f 93/93/93 91/91/91 92/92/92
f 94/94/94 91/91/91 93/93/93
f 95/95/95 89/89/89 91/91/91
f 95/95/95 91/91/91 94/94/94
f 89/89/89 95/95/95 47/47/47
f 95/95/95 94/94/94 96/96/96
f 95/95/95 96/96/96 47/47/47
f 96/96/96 94/94/94 97/97/97
f 96/96/96 97/97/97 47/47/47
f 47/47/47 97/97/97 98/98/98
f 101/101/101 100/100/100 99/99/99
f 100/100/100 102/102/102 99/99/99
f 102/102/102 103/103/103 99/99/99
f 104/104/104 102/102/102 100/100/100
f 102/102/102 104/104/104 105/105/105
f 108/108/108 107/107/107 106/106/106
f 106/106/106 107/107/107 109/109/109
f 106/106/106 109/109/109 110/110/110
