g COL_rock_square
v -0.6877774 -0.4737021 0.2560559
v -0.5233986 -0.4787644 0.4692461
v -0.1884253 -0.6253223 0.4912978
v -0.2136819 -0.6857815 0.2578692
v -0.6686623 -0.4764143 -0.1304985
v 0.1672141 -0.5618589 0.5462314
v -0.1996001 -0.7467971 -0.2214325
v -0.564987 -0.3459933 -0.5743648
v 0.2559494 -0.6941597 0.2158427
v 0.4736377 -0.4780056 0.4640924
v 0.5605053 -0.6012999 0.1632916
v 0.260668 -0.7023004 -0.247733
v 0.5010992 -0.5980114 -0.2086805
v -0.1477786 -0.581648 -0.6168807
v -0.6597943 -0.2015915 -0.6256587
v 0.1535535 -0.6721716 -0.5422815
v 0.4447418 -0.4541061 -0.5389138
v -0.3246635 -0.2851702 -0.7392027
v -0.6369267 0.2472892 -0.5677627
v 0.2626776 -0.2550186 -0.6643801
v 0.5818155 -0.2776521 -0.4852037
v -0.3077266 0.274353 -0.8232942
v -0.594852 0.4846417 -0.5415478
v 0.2667129 0.2769333 -0.7703022
v 0.567987 0.2789736 -0.512959
v -0.3195666 0.6072809 -0.608731
v -0.6942578 0.5474503 -0.2859911
v 0.2270581 0.5678351 -0.5576384
v 0.5023367 0.5355703 -0.4796204
v -0.281351 0.6474598 -0.3102022
v -0.6591641 0.5068361 0.1734898
v 0.3245447 0.6742118 -0.2626195
v 0.6131219 0.6048554 -0.1724864
v -0.2816551 0.5788638 0.2645576
v -0.5427594 0.3606226 0.5598631
v 0.3206903 0.6870365 0.2375922
v 0.5707648 0.5171164 0.09877393
v -0.1631241 0.5078679 0.6434015
v 0.1227115 0.6168764 0.4961536
v 0.3782876 0.4868209 0.336116
v -0.5936792 0.2153855 0.5830019
v -0.2977264 0.2695403 0.6733786
v 0.2036105 0.2271123 0.6308758
v -0.7990213 0.308523 0.2680137
v -0.6591641 0.5068361 0.1734898
v 0.6154208 0.1074759 0.3290611
v 0.5707648 0.5171164 0.09877393
v -0.8169308 0.2786468 -0.2673664
v -0.6942578 0.5474503 -0.2859911
v -0.6369267 0.2472892 -0.5677627
v -0.594852 0.4846417 -0.5415478
v -0.6597943 -0.2015915 -0.6256587
v -0.7929819 -0.2813602 -0.2928409
v -0.564987 -0.3459933 -0.5743648
v -0.6686623 -0.4764143 -0.1304985
v -0.7332181 -0.2951636 0.2826838
v -0.6877774 -0.4737021 0.2560559
v -0.546228 -0.2242154 0.5709041
v -0.5233986 -0.4787644 0.4692461
v -0.2717604 -0.2234199 0.7366762
v -0.1884253 -0.6253223 0.4912978
v 0.2568588 -0.3160732 0.7594983
v 0.1672141 -0.5618589 0.5462314
v 0.5676636 -0.2487615 0.4876772
v 0.4736377 -0.4780056 0.4640924
v 0.660134 0.2527432 0.188656
v 0.6131219 0.6048554 -0.1724864
v 0.7313437 -0.1963623 0.1814214
v 0.5605053 -0.6012999 0.1632916
v 0.7111664 0.233126 -0.2271711
v 0.5023367 0.5355703 -0.4796204
v 0.567987 0.2789736 -0.512959
v 0.760033 -0.188836 -0.2100023
v 0.5010992 -0.5980114 -0.2086805
v 0.5818155 -0.2776521 -0.4852037
v 0.4447418 -0.4541061 -0.5389138
vt 0.375 0.9166666
vt 0.375 0.9999999
vt 0.4583333 0.9999999
vt 0.4583333 0.9166666
vt 0.375 0.8333333
vt 0.5416667 0.9999999
vt 0.4583333 0.8333333
vt 0.375 0.7499999
vt 0.5416667 0.9166666
vt 0.625 0.9999999
vt 0.625 0.9166666
vt 0.5416667 0.8333333
vt 0.625 0.8333333
vt 0.4583333 0.7499999
vt 0.375 0.6666666
vt 0.5416667 0.7499999
vt 0.625 0.7499999
vt 0.4583333 0.6666666
vt 0.375 0.5833333
vt 0.5416667 0.6666666
vt 0.625 0.6666666
vt 0.4583333 0.5833333
vt 0.375 0.5
vt 0.5416667 0.5833333
vt 0.625 0.5833333
vt 0.4583333 0.5
vt 0.375 0.4166667
vt 0.5416667 0.5
vt 0.625 0.5
vt 0.4583333 0.4166667
vt 0.375 0.3333333
vt 0.5416667 0.4166667
vt 0.625 0.4166667
vt 0.4583333 0.3333333
vt 0.375 0.25
vt 0.5416667 0.3333333
vt 0.625 0.3333333
vt 0.4583333 0.25
vt 0.5416667 0.25
vt 0.625 0.25
vt 0.375 0.1666667
vt 0.4583333 0.1666667
vt 0.5416667 0.1666667
vt 0.2916667 0.1666667
vt 0.2916667 0.25
vt 0.625 0.1666667
vt 0.7083334 0.25
vt 0.2083333 0.1666667
vt 0.2083333 0.25
vt 0.125 0.1666667
vt 0.125 0.25
vt 0.125 0.08333334
vt 0.2083333 0.08333334
vt 0.125 0
vt 0.2083333 0
vt 0.2916667 0.08333334
vt 0.2916667 0
vt 0.375 0.08333334
vt 0.375 0
vt 0.4583333 0.08333334
vt 0.4583333 0
vt 0.5416667 0.08333334
vt 0.5416667 0
vt 0.625 0.08333334
vt 0.625 0
vt 0.7083334 0.1666667
vt 0.7916667 0.25
vt 0.7083334 0.08333334
vt 0.7083334 0
vt 0.7916667 0.1666667
vt 0.875 0.25
vt 0.875 0.1666667
vt 0.7916667 0.08333334
vt 0.7916667 0
vt 0.875 0.08333334
vt 0.875 0
vn -0.6498276 -0.7410296 0.1691127
vn -0.4924476 -0.6372097 0.5928398
vn -0.1636616 -0.7802016 0.6037387
vn -0.2062489 -0.9672055 0.148239
vn -0.6124643 -0.7808253 -0.1232858
vn 0.1146996 -0.7465938 0.655318
vn -0.2744827 -0.9530385 -0.1279722
vn -0.5147833 -0.7059945 -0.4863845
vn 0.1735571 -0.967099 0.1860039
vn 0.5949721 -0.6098862 0.523495
vn 0.7037543 -0.6954709 0.1450864
vn 0.2010709 -0.972708 -0.1157992
vn 0.6805969 -0.7144275 -0.1624228
vn -0.1765562 -0.7018632 -0.6900841
vn -0.7043932 -0.1365626 -0.6965492
vn 0.1755895 -0.7461051 -0.6422581
vn 0.5747719 -0.5122898 -0.6381194
vn -0.1133142 -0.221943 -0.968453
vn -0.7172316 0.1176674 -0.6868284
vn 0.2830952 -0.1879526 -0.9404951
vn 0.7357611 -0.2159607 -0.6418852
vn -0.09768554 0.1297045 -0.9867291
vn -0.5865515 0.5907099 -0.5540931
vn 0.2759123 0.1061879 -0.9552991
vn 0.7275206 0.1092554 -0.6773308
vn -0.1131887 0.784331 -0.6099287
vn -0.5665931 0.8218659 -0.05923473
vn 0.163176 0.7779539 -0.6067629
vn 0.5937217 0.583552 -0.5540411
vn -0.131413 0.9905773 -0.03856368
vn -0.5089878 0.8393355 0.1909117
vn 0.05244992 0.99641 -0.06645487
vn 0.7414976 0.6674868 -0.06813733
vn -0.2058838 0.965373 0.1602082
vn -0.4516529 0.6961419 0.5580288
vn 0.08404376 0.9785054 0.1883185
vn 0.7499847 0.5938805 0.2912537
vn -0.07842155 0.6987865 0.7110186
vn 0.1638332 0.7794805 0.604623
vn 0.6337849 0.4084554 0.6568721
vn -0.6771507 0.07299298 0.732215
vn -0.0985818 0.1712937 0.9802756
vn 0.3563193 0.2606123 0.8972836
vn -0.9634136 0.1033822 0.2472776
vn -0.5089878 0.8393355 0.1909117
vn 0.7223436 0.2487344 0.6452526
vn 0.7499847 0.5938805 0.2912537
vn -0.9889401 0.09850482 -0.1108796
vn -0.5665931 0.8218659 -0.05923473
vn -0.7172316 0.1176674 -0.6868284
vn -0.5865515 0.5907099 -0.5540931
vn -0.7043932 -0.1365626 -0.6965492
vn -0.9706532 -0.1906577 -0.1465674
vn -0.5147833 -0.7059945 -0.4863845
vn -0.6124643 -0.7808253 -0.1232858
vn -0.9529355 -0.1575357 0.25903
vn -0.6498276 -0.7410296 0.1691127
vn -0.6305695 -0.1812034 0.7546837
vn -0.4924476 -0.6372097 0.5928398
vn -0.1491745 -0.1179504 0.9817508
vn -0.1636616 -0.7802016 0.6037387
vn 0.2729879 -0.09531166 0.9572843
vn 0.1146996 -0.7465938 0.655318
vn 0.7378218 -0.02438649 0.6745549
vn 0.5949721 -0.6098862 0.523495
vn 0.911514 0.2613658 0.3175375
vn 0.7414976 0.6674868 -0.06813733
vn 0.9710557 -0.1597945 0.1775285
vn 0.7037543 -0.6954709 0.1450864
vn 0.9699622 0.163211 -0.1803757
vn 0.5937217 0.583552 -0.5540411
vn 0.7275206 0.1092554 -0.6773308
vn 0.9705746 -0.1533905 -0.1856244
vn 0.6805969 -0.7144275 -0.1624228
vn 0.7357611 -0.2159607 -0.6418852
vn 0.5747719 -0.5122898 -0.6381194
g COL_rock_square_0
f 3/3/3 2/2/2 1/1/1
f 4/4/4 3/3/3 1/1/1
f 4/4/4 1/1/1 5/5/5
f 6/6/6 3/3/3 4/4/4
f 7/7/7 4/4/4 5/5/5
f 7/7/7 5/5/5 8/8/8
f 9/9/9 6/6/6 4/4/4
f 9/9/9 4/4/4 7/7/7
f 10/10/10 6/6/6 9/9/9
f 11/11/11 10/10/10 9/9/9
f 11/11/11 9/9/9 12/12/12
f 12/12/12 9/9/9 7/7/7
f 13/13/13 11/11/11 12/12/12
f 14/14/14 7/7/7 8/8/8
f 12/12/12 7/7/7 14/14/14
f 14/14/14 8/8/8 15/15/15
f 13/13/13 12/12/12 16/16/16
f 16/16/16 12/12/12 14/14/14
f 17/17/17 13/13/13 16/16/16
f 18/18/18 14/14/14 15/15/15
f 16/16/16 14/14/14 18/18/18
f 18/18/18 15/15/15 19/19/19
f 17/17/17 16/16/16 20/20/20
f 20/20/20 16/16/16 18/18/18
f 21/21/21 17/17/17 20/20/20
f 22/22/22 18/18/18 19/19/19
f 20/20/20 18/18/18 22/22/22
f 22/22/22 19/19/19 23/23/23
f 21/21/21 20/20/20 24/24/24
f 24/24/24 20/20/20 22/22/22
f 25/25/25 21/21/21 24/24/24
f 26/26/26 22/22/22 23/23/23
f 24/24/24 22/22/22 26/26/26
f 26/26/26 23/23/23 27/27/27
f 25/25/25 24/24/24 28/28/28
f 28/28/28 24/24/24 26/26/26
f 29/29/29 25/25/25 28/28/28
f 30/30/30 26/26/26 27/27/27
f 28/28/28 26/26/26 30/30/30
f 30/30/30 27/27/27 31/31/31
f 29/29/29 28/28/28 32/32/32
f 32/32/32 28/28/28 30/30/30
f 33/33/33 29/29/29 32/32/32
f 34/34/34 30/30/30 31/31/31
f 32/32/32 30/30/30 34/34/34
f 34/34/34 31/31/31 35/35/35
f 33/33/33 32/32/32 36/36/36
f 36/36/36 32/32/32 34/34/34
f 37/37/37 33/33/33 36/36/36
f 36/36/36 34/34/34 38/38/38
f 38/38/38 34/34/34 35/35/35
f 37/37/37 36/36/36 39/39/39
f 39/39/39 36/36/36 38/38/38
f 40/40/40 37/37/37 39/39/39
f 38/38/38 35/35/35 41/41/41
f 39/39/39 38/38/38 42/42/42
f 42/42/42 38/38/38 41/41/41
f 40/40/40 39/39/39 43/43/43
f 43/43/43 39/39/39 42/42/42
f 41/41/41 35/35/35 44/44/44
f 35/35/35 45/45/45 44/44/44
f 46/46/46 40/40/40 43/43/43
f 47/47/47 40/40/40 46/46/46
f 44/44/44 45/45/45 48/48/48
f 45/45/45 49/49/49 48/48/48
f 48/48/48 49/49/49 50/50/50
f 49/49/49 51/51/51 50/50/50
f 48/48/48 50/50/50 52/52/52
f 53/53/53 48/48/48 52/52/52
f 44/44/44 48/48/48 53/53/53
f 53/53/53 52/52/52 54/54/54
f 55/55/55 53/53/53 54/54/54
f 56/56/56 44/44/44 53/53/53
f 56/56/56 53/53/53 55/55/55
f 41/41/41 44/44/44 56/56/56
f 57/57/57 56/56/56 55/55/55
f 58/58/58 41/41/41 56/56/56
f 58/58/58 56/56/56 57/57/57
f 42/42/42 41/41/41 58/58/58
f 59/59/59 58/58/58 57/57/57
f 60/60/60 42/42/42 58/58/58
f 60/60/60 58/58/58 59/59/59
f 43/43/43 42/42/42 60/60/60
f 61/61/61 60/60/60 59/59/59
f 62/62/62 43/43/43 60/60/60
f 62/62/62 60/60/60 61/61/61
f 63/63/63 62/62/62 61/61/61
f 46/46/46 43/43/43 62/62/62
f 64/64/64 62/62/62 63/63/63
f 64/64/64 46/46/46 62/62/62
f 65/65/65 64/64/64 63/63/63
f 66/66/66 46/46/46 64/64/64
f 66/66/66 47/47/47 46/46/46
f 67/67/67 47/47/47 66/66/66
f 68/68/68 64/64/64 65/65/65
f 68/68/68 66/66/66 64/64/64
f 69/69/69 68/68/68 65/65/65
f 70/70/70 67/67/67 66/66/66
f 70/70/70 66/66/66 68/68/68
f 71/71/71 67/67/67 70/70/70
f 72/72/72 71/71/71 70/70/70
f 73/73/73 68/68/68 69/69/69
f 73/73/73 70/70/70 68/68/68
f 72/72/72 70/70/70 73/73/73
f 74/74/74 73/73/73 69/69/69
f 75/75/75 72/72/72 73/73/73
f 75/75/75 73/73/73 74/74/74
f 76/76/76 75/75/75 74/74/74
