g col_caveRoof3
v -2.177332 -0.137883 6.501013
v -4.29972 -1.325973 4.393331
v -6.907136 -0.8583896 5.886755
v -5.680237 1.474236 6.301161
v -2.177332 -0.137883 6.501013
v -6.907136 -0.8583896 5.886755
v -5.680237 1.474236 6.301161
v -0.4587411 0.6572918 6.364788
v -2.177332 -0.137883 6.501013
v -0.7717465 1.168254 -6.412242
v 4.143493 -1.222104 -6.283585
v 6.713496 1.351138 -6.417023
v 5.671766 -0.6336292 6.195563
v -0.4587411 0.6572918 6.364788
v 7.089951 -0.5817218 6.103084
v 2.751083 0.1614059 2.978585
v 2.007073 0.7465079 -1.456099
v -0.4587411 0.6572918 6.364788
v -5.815728 1.497377 -5.682216
v -6.994827 0.2081928 -1.475291
v -6.129772 -0.1093915 -6.462826
v 5.671766 -0.6336292 6.195563
v 2.751083 0.1614059 2.978585
v -0.4587411 0.6572918 6.364788
v 2.825439 2.12837 5.443931
v -0.4587411 0.6572918 6.364788
v -5.680237 1.474236 6.301161
v 4.143493 -1.222104 -6.283585
v 6.700808 -0.07765636 -6.414588
v 6.713496 1.351138 -6.417023
v 1.949836 -0.6272758 -5.539883
v -0.7717465 1.168254 -6.412242
v -0.2569222 0.2530006 -5.582903
v 4.143493 -1.222104 -6.283585
v -0.7717465 1.168254 -6.412242
v 1.949836 -0.6272758 -5.539883
v -6.960979 -0.5845664 -3.560631
v -6.129772 -0.1093915 -6.462826
v -6.994827 0.2081928 -1.475291
v -0.7717465 1.168254 -6.412242
v -1.381968 2.16134 -5.990387
v -6.129772 -0.1093915 -6.462826
v -3.845011 -1.145779 -5.669418
v -0.7717465 1.168254 -6.412242
v -6.129772 -0.1093915 -6.462826
v 6.700808 -0.07765636 -6.414588
v 4.143493 -1.222104 -6.283585
v 7.044632 -0.6120195 -3.579505
v -1.381968 2.16134 -5.990387
v -5.815728 1.497377 -5.682216
v -6.129772 -0.1093915 -6.462826
v 2.825439 2.12837 5.443931
v 5.413702 1.482007 6.394319
v -0.4587411 0.6572918 6.364788
v -0.4587411 0.6572918 6.364788
v 5.413702 1.482007 6.394319
v 7.089951 -0.5817218 6.103084
v -3.845011 -1.145779 -5.669418
v -6.129772 -0.1093915 -6.462826
v -6.960979 -0.5845664 -3.560631
v 6.713496 1.351138 -6.417023
v -1.381968 2.16134 -5.990387
v -0.7717465 1.168254 -6.412242
v 5.93384 1.734404 -1.187929
v 2.825439 2.12837 5.443931
v 2.909768 2.713884 -0.8919604
v 7.310514 1.059474 2.961832
v 5.413702 1.482007 6.394319
v 6.713496 1.351138 -6.417023
v 3.530222 2.059426 -3.689059
v -1.381968 2.16134 -5.990387
v 2.909768 2.713884 -0.8919604
v -2.486587 2.430981 0.2681689
v 3.530222 2.059426 -3.689059
v 5.413702 1.482007 6.394319
v 2.825439 2.12837 5.443931
v 5.93384 1.734404 -1.187929
v 6.713496 1.351138 -6.417023
v 5.93384 1.734404 -1.187929
v 3.530222 2.059426 -3.689059
v 5.93384 1.734404 -1.187929
v 2.909768 2.713884 -0.8919604
v 3.530222 2.059426 -3.689059
v -1.381968 2.16134 -5.990387
v 3.530222 2.059426 -3.689059
v -2.486587 2.430981 0.2681689
v -6.960979 -0.5845664 -3.560631
v -6.907136 -0.8583896 5.886755
v -4.269129 -0.4264021 1.164424
v -3.845011 -1.145779 -5.669418
v -0.2569222 0.2530006 -5.582903
v -0.7717465 1.168254 -6.412242
v -3.845011 -1.145779 -5.669418
v -6.960979 -0.5845664 -3.560631
v -4.269129 -0.4264021 1.164424
v -6.907136 -0.8583896 5.886755
v -6.960979 -0.5845664 -3.560631
v -6.994827 0.2081928 -1.475291
v 5.671766 -0.6336292 6.195563
v 5.216739 -0.6130398 0.02290813
v 4.844674 0.03710451 2.742571
v 6.713496 1.351138 -6.417023
v 7.044632 -0.6120195 -3.579505
v 5.93384 1.734404 -1.187929
v 5.93384 1.734404 -1.187929
v 7.044632 -0.6120195 -3.579505
v 7.310514 1.059474 2.961832
v 7.310514 1.059474 2.961832
v 7.044632 -0.6120195 -3.579505
v 7.54739 -0.2602822 2.445573
v 7.089951 -0.5817218 6.103084
v 5.413702 1.482007 6.394319
v 7.310514 1.059474 2.961832
v 6.700808 -0.07765636 -6.414588
v 7.044632 -0.6120195 -3.579505
v 6.713496 1.351138 -6.417023
v 7.54739 -0.2602822 2.445573
v 7.089951 -0.5817218 6.103084
v 7.310514 1.059474 2.961832
v -5.680237 1.474236 6.301161
v -6.907136 -0.8583896 5.886755
v -6.994827 0.2081928 -1.475291
v -6.994827 0.2081928 -1.475291
v -5.815728 1.497377 -5.682216
v -5.680237 1.474236 6.301161
v -5.680237 1.474236 6.301161
v -5.815728 1.497377 -5.682216
v -2.486587 2.430981 0.2681689
v -2.486587 2.430981 0.2681689
v -5.815728 1.497377 -5.682216
v -1.381968 2.16134 -5.990387
v 7.089951 -0.5817218 6.103084
v 7.54739 -0.2602822 2.445573
v 7.044632 -0.6120195 -3.579505
v 4.143493 -1.222104 -6.283585
v 1.949836 -0.6272758 -5.539883
v 4.530423 -0.9260634 -3.259663
v -0.2569222 0.2530006 -5.582903
v -2.343891 0.811668 -1.891268
v 2.007073 0.7465079 -1.456099
v -4.269129 -0.4264021 1.164424
v -2.343891 0.811668 -1.891268
v -3.845011 -1.145779 -5.669418
v -3.845011 -1.145779 -5.669418
v -2.343891 0.811668 -1.891268
v -0.2569222 0.2530006 -5.582903
v -4.29972 -1.325973 4.393331
v -4.269129 -0.4264021 1.164424
v -6.907136 -0.8583896 5.886755
v 5.671766 -0.6336292 6.195563
v 4.844674 0.03710451 2.742571
v 2.751083 0.1614059 2.978585
v 2.007073 0.7465079 -1.456099
v 2.751083 0.1614059 2.978585
v 4.844674 0.03710451 2.742571
v -4.29972 -1.325973 4.393331
v -2.177332 -0.137883 6.501013
v -4.269129 -0.4264021 1.164424
v -2.343891 0.811668 -1.891268
v -0.4587411 0.6572918 6.364788
v 2.007073 0.7465079 -1.456099
v -2.177332 -0.137883 6.501013
v -0.4587411 0.6572918 6.364788
v -4.269129 -0.4264021 1.164424
v -2.343891 0.811668 -1.891268
v 2.825439 2.12837 5.443931
v -5.680237 1.474236 6.301161
v -2.486587 2.430981 0.2681689
v 2.909768 2.713884 -0.8919604
v 4.844674 0.03710451 2.742571
v 5.216739 -0.6130398 0.02290813
v 2.007073 0.7465079 -1.456099
v 4.530423 -0.9260634 -3.259663
v 4.530423 -0.9260634 -3.259663
v 1.949836 -0.6272758 -5.539883
v 2.007073 0.7465079 -1.456099
v -0.2569222 0.2530006 -5.582903
v 4.530423 -0.9260634 -3.259663
v 7.044632 -0.6120195 -3.579505
v 4.143493 -1.222104 -6.283585
v 5.216739 -0.6130398 0.02290813
v 7.089951 -0.5817218 6.103084
v 5.216739 -0.6130398 0.02290813
v 5.671766 -0.6336292 6.195563
v 7.044632 -0.6120195 -3.579505
vt 0 0
vt 0 0
vt 0 0
vt 0 0
vt 0 0
vt 0 0
vt 0 0
vt 0 0
vt 0 0
vt 0 0
vt 0 0
vt 0 0
vt 0 0
vt 0 0
vt 0 0
vt 0 0
vt 0 0
vt 0 0
vt 0 0
vt 0 0
vt 0 0
vt 0 0
vt 0 0
vt 0 0
vt 0 0
vt 0 0
vt 0 0
vt 0 0
vt 0 0
vt 0 0
vt 0 0
vt 0 0
vt 0 0
vt 0 0
vt 0 0
vt 0 0
vt 0 0
vt 0 0
vt 0 0
vt 0 0
vt 0 0
vt 0 0
vt 0 0
vt 0 0
vt 0 0
vt 0 0
vt 0 0
vt 0 0
vt 0 0
vt 0 0
vt 0 0
vt 0 0
vt 0 0
vt 0 0
vt 0 0
vt 0 0
vt 0 0
vt 0 0
vt 0 0
vt 0 0
vt 0 0
vt 0 0
vt 0 0
vt 0 0
vt 0 0
vt 0 0
vt 0 0
vt 0 0
vt 0 0
vt 0 0
vt 0 0
vt 0 0
vt 0 0
vt 0 0
vt 0 0
vt 0 0
vt 0 0
vt 0 0
vt 0 0
vt 0 0
vt 0 0
vt 0 0
vt 0 0
vt 0 0
vt 0 0
vt 0 0
vt 0 0
vt 0 0
vt 0 0
vt 0 0
vt 0 0
vt 0 0
vt 0 0
vt 0 0
vt 0 0
vt 0 0
vt 0 0
vt 0 0
vt 0 0
vt 0 0
vt 0 0
vt 0 0
vt 0 0
vt 0 0
vt 0 0
vt 0 0
vt 0 0
vt 0 0
vt 0 0
vt 0 0
vt 0 0
vt 0 0
vt 0 0
vt 0 0
vt 0 0
vt 0 0
vt 0 0
vt 0 0
vt 0 0
vt 0 0
vt 0 0
vt 0 0
vt 0 0
vt 0 0
vt 0 0
vt 0 0
vt 0 0
vt 0 0
vt 0 0
vt 0 0
vt 0 0
vt 0 0
vt 0 0
vt 0 0
vt 0 0
vt 0 0
vt 0 0
vt 0 0
vt 0 0
vt 0 0
vt 0 0
vt 0 0
vt 0 0
vt 0 0
vt 0 0
vt 0 0
vt 0 0
vt 0 0
vt 0 0
vt 0 0
vt 0 0
vt 0 0
vt 0 0
vt 0 0
vt 0 0
vt 0 0
vt 0 0
vt 0 0
vt 0 0
vt 0 0
vt 0 0
vt 0 0
vt 0 0
vt 0 0
vt 0 0
vt 0 0
vt 0 0
vt 0 0
vt 0 0
vt 0 0
vt 0 0
vt 0 0
vt 0 0
vt 0 0
vt 0 0
vt 0 0
vt 0 0
vt 0 0
vt 0 0
vt 0 0
vt 0 0
vt 0 0
vt 0 0
vt 0 0
vt 0 0
vn 0.0820433 -0.9012675 0.4254242
vn 0.0820433 -0.9012675 0.4254242
vn 0.0820433 -0.9012675 0.4254242
vn -0.1103028 -0.1173212 0.9869493
vn -0.1103028 -0.1173212 0.9869493
vn -0.1103028 -0.1173212 0.9869493
vn 0.01080624 0.1461107 0.9892092
vn 0.01080624 0.1461107 0.9892092
vn 0.01080624 0.1461107 0.9892092
vn 0.0006430454 -0.05242739 -0.9986246
vn 0.0006430454 -0.05242739 -0.9986246
vn 0.0006430454 -0.05242739 -0.9986246
vn 0.05886017 0.1501591 0.9869082
vn 0.05886017 0.1501591 0.9869082
vn 0.05886017 0.1501591 0.9869082
vn -0.2411743 -0.9665685 -0.08706483
vn -0.2411743 -0.9665685 -0.08706483
vn -0.2411743 -0.9665685 -0.08706483
vn -0.9448645 0.2727284 -0.1812468
vn -0.9448645 0.2727284 -0.1812468
vn -0.9448645 0.2727284 -0.1812468
vn -0.2071705 -0.9768504 -0.05332664
vn -0.2071705 -0.9768504 -0.05332664
vn -0.2071705 -0.9768504 -0.05332664
vn 0.0571105 0.4350088 0.8986133
vn 0.0571105 0.4350088 0.8986133
vn 0.0571105 0.4350088 0.8986133
vn -0.05060111 -0.001251761 -0.9987181
vn -0.05060111 -0.001251761 -0.9987181
vn -0.05060111 -0.001251761 -0.9987181
vn -0.2773808 -0.7261117 -0.6291436
vn -0.2773808 -0.7261117 -0.6291436
vn -0.2773808 -0.7261117 -0.6291436
vn -0.3759535 -0.798382 -0.4703671
vn -0.3759535 -0.798382 -0.4703671
vn -0.3759535 -0.798382 -0.4703671
vn -0.8808558 0.4375637 -0.1806409
vn -0.8808558 0.4375637 -0.1806409
vn -0.8808558 0.4375637 -0.1806409
vn -0.07478922 0.350601 -0.9335338
vn -0.07478922 0.350601 -0.9335338
vn -0.07478922 0.350601 -0.9335338
vn 0.112369 -0.4358847 -0.8929602
vn 0.112369 -0.4358847 -0.8929602
vn 0.112369 -0.4358847 -0.8929602
vn 0.3895984 -0.8952981 -0.2159964
vn 0.3895984 -0.8952981 -0.2159964
vn 0.3895984 -0.8952981 -0.2159964
vn -0.1292211 0.4536417 -0.881766
vn -0.1292211 0.4536417 -0.881766
vn -0.1292211 0.4536417 -0.881766
vn -0.09874297 0.6769903 0.729338
vn -0.09874297 0.6769903 0.729338
vn -0.09874297 0.6769903 0.729338
vn 0.01316308 -0.1292343 0.9915267
vn 0.01316308 -0.1292343 0.9915267
vn 0.01316308 -0.1292343 0.9915267
vn -0.3292066 -0.9122804 -0.2436542
vn -0.3292066 -0.9122804 -0.2436542
vn -0.3292066 -0.9122804 -0.2436542
vn -0.01001393 0.3857405 -0.9225529
vn -0.01001393 0.3857405 -0.9225529
vn -0.01001393 0.3857405 -0.9225529
vn 0.3149351 0.9446931 0.09149285
vn 0.3149351 0.9446931 0.09149285
vn 0.3149351 0.9446931 0.09149285
vn 0.3070298 0.9502401 0.05269358
vn 0.3070298 0.9502401 0.05269358
vn 0.0906363 0.9845436 -0.1498628
vn 0.0906363 0.9845436 -0.1498628
vn 0.0906363 0.9845436 -0.1498628
vn -0.1038871 0.9630753 -0.248382
vn -0.1038871 0.9630753 -0.248382
vn -0.1038871 0.9630753 -0.248382
vn 0.2254339 0.9730823 0.04785645
vn 0.2254339 0.9730823 0.04785645
vn 0.2254339 0.9730823 0.04785645
vn 0.1799076 0.9826446 -0.0451987
vn 0.1799076 0.9826446 -0.0451987
vn 0.1799076 0.9826446 -0.0451987
vn 0.2904488 0.9440141 -0.1564502
vn 0.2904488 0.9440141 -0.1564502
vn 0.2904488 0.9440141 -0.1564502
vn 0.03775359 0.9986253 -0.0363608
vn 0.03775359 0.9986253 -0.0363608
vn 0.03775359 0.9986253 -0.0363608
vn 0.1100202 -0.9934937 -0.02942248
vn 0.1100202 -0.9934937 -0.02942248
vn 0.1100202 -0.9934937 -0.02942248
vn 0.242288 -0.5730872 -0.7828586
vn 0.242288 -0.5730872 -0.7828586
vn 0.242288 -0.5730872 -0.7828586
vn -0.1123796 -0.9889073 0.09712461
vn -0.1123796 -0.9889073 0.09712461
vn -0.1123796 -0.9889073 0.09712461
vn -0.998558 -0.05352427 0.004139624
vn -0.998558 -0.05352427 0.004139624
vn -0.998558 -0.05352427 0.004139624
vn -0.7539151 -0.6547986 0.05339173
vn -0.7539151 -0.6547986 0.05339173
vn -0.7539151 -0.6547986 0.05339173
vn 0.93825 0.3259297 0.1160038
vn 0.93825 0.3259297 0.1160038
vn 0.93825 0.3259297 0.1160038
vn 0.8078316 0.5623558 -0.176533
vn 0.8078316 0.5623558 -0.176533
vn 0.8078316 0.5623558 -0.176533
vn 0.9729561 0.2112133 -0.09351819
vn 0.9729561 0.2112133 -0.09351819
vn 0.9729561 0.2112133 -0.09351819
vn 0.7515317 0.5615739 0.3461716
vn 0.7515317 0.5615739 0.3461716
vn 0.7515317 0.5615739 0.3461716
vn 0.9924812 -0.009022088 -0.1220641
vn 0.9924812 -0.009022088 -0.1220641
vn 0.9924812 -0.009022088 -0.1220641
vn 0.9831972 0.1241009 0.1338738
vn 0.9831972 0.1241009 0.1338738
vn 0.9831972 0.1241009 0.1338738
vn -0.8879839 0.4535042 0.07627892
vn -0.8879839 0.4535042 0.07627892
vn -0.8879839 0.4535042 0.07627892
vn -0.7222422 0.6915751 0.009501561
vn -0.7222422 0.6915751 0.009501561
vn -0.7222422 0.6915751 0.009501561
vn -0.2782913 0.9604837 0.005001241
vn -0.2782913 0.9604837 0.005001241
vn -0.2782913 0.9604837 0.005001241
vn -0.1524587 0.9858714 -0.06938328
vn -0.1524587 0.9858714 -0.06938328
vn -0.1524587 0.9858714 -0.06938328
vn 0.5742652 -0.8186694 -0.000126099
vn 0.5742652 -0.8186694 -0.000126099
vn 0.5742652 -0.8186694 -0.000126099
vn -0.2206767 -0.9675652 0.1229613
vn -0.2206767 -0.9675652 0.1229613
vn -0.2206767 -0.9675652 0.1229613
vn -0.02823213 -0.9905861 0.1339484
vn -0.02823213 -0.9905861 0.1339484
vn -0.02823213 -0.9905861 0.1339484
vn 0.663675 -0.7385063 0.1189288
vn 0.663675 -0.7385063 0.1189288
vn 0.663675 -0.7385063 0.1189288
vn 0.3368045 -0.8840067 0.3241833
vn 0.3368045 -0.8840067 0.3241833
vn 0.3368045 -0.8840067 0.3241833
vn -0.3116391 -0.9145737 -0.257752
vn -0.3116391 -0.9145737 -0.257752
vn -0.3116391 -0.9145737 -0.257752
vn -0.07770919 -0.982003 -0.1721377
vn -0.07770919 -0.982003 -0.1721377
vn -0.07770919 -0.982003 -0.1721377
vn -0.07216254 -0.9903219 -0.1185541
vn -0.07216254 -0.9903219 -0.1185541
vn -0.07216254 -0.9903219 -0.1185541
vn 0.62463 -0.7537815 -0.2040852
vn 0.62463 -0.7537815 -0.2040852
vn 0.62463 -0.7537815 -0.2040852
vn -0.0134093 -0.9997879 -0.01563275
vn -0.0134093 -0.9997879 -0.01563275
vn -0.0134093 -0.9997879 -0.01563275
vn 0.4099785 -0.9052222 -0.1117601
vn 0.4099785 -0.9052222 -0.1117601
vn 0.4099785 -0.9052222 -0.1117601
vn 0.4080417 -0.9062981 -0.1101169
vn -0.06373322 0.9903193 0.123312
vn -0.06373322 0.9903193 0.123312
vn -0.06373322 0.9903193 0.123312
vn -0.03249675 0.9952708 0.09154261
vn -0.4435903 -0.8834998 0.1505179
vn -0.4435903 -0.8834998 0.1505179
vn -0.4435903 -0.8834998 0.1505179
vn -0.4521807 -0.8740075 0.1778861
vn -0.3679196 -0.8797558 0.3011062
vn -0.3679196 -0.8797558 0.3011062
vn -0.3679196 -0.8797558 0.3011062
vn -0.3582649 -0.8833634 0.3021844
vn 0.1335184 -0.9878424 0.07962483
vn 0.1335184 -0.9878424 0.07962483
vn 0.1335184 -0.9878424 0.07962483
vn 0.1320198 -0.9889999 0.06670779
vn 0.03618525 -0.9993271 -0.006000787
vn 0.03618525 -0.9993271 -0.006000787
vn 0.03618525 -0.9993271 -0.006000787
vn 0.006663308 -0.9999731 0.003097816
g col_caveRoof3_0
f 3/3/3 2/2/2 1/1/1
f 6/6/6 5/5/5 4/4/4
f 9/9/9 8/8/8 7/7/7
f 12/12/12 11/11/11 10/10/10
f 15/15/15 14/14/14 13/13/13
f 18/18/18 17/17/17 16/16/16
f 21/21/21 20/20/20 19/19/19
f 24/24/24 23/23/23 22/22/22
f 27/27/27 26/26/26 25/25/25
f 30/30/30 29/29/29 28/28/28
f 33/33/33 32/32/32 31/31/31
f 36/36/36 35/35/35 34/34/34
f 39/39/39 38/38/38 37/37/37
f 42/42/42 41/41/41 40/40/40
f 45/45/45 44/44/44 43/43/43
f 48/48/48 47/47/47 46/46/46
f 51/51/51 50/50/50 49/49/49
f 54/54/54 53/53/53 52/52/52
f 57/57/57 56/56/56 55/55/55
f 60/60/60 59/59/59 58/58/58
f 63/63/63 62/62/62 61/61/61
f 66/66/66 65/65/65 64/64/64
f 64/64/64 68/68/68 67/67/67
f 71/71/71 70/70/70 69/69/69
f 74/74/74 73/73/73 72/72/72
f 77/77/77 76/76/76 75/75/75
f 80/80/80 79/79/79 78/78/78
f 83/83/83 82/82/82 81/81/81
f 86/86/86 85/85/85 84/84/84
f 89/89/89 88/88/88 87/87/87
f 92/92/92 91/91/91 90/90/90
f 95/95/95 94/94/94 93/93/93
f 98/98/98 97/97/97 96/96/96
f 101/101/101 100/100/100 99/99/99
f 104/104/104 103/103/103 102/102/102
f 107/107/107 106/106/106 105/105/105
f 110/110/110 109/109/109 108/108/108
f 113/113/113 112/112/112 111/111/111
f 116/116/116 115/115/115 114/114/114
f 119/119/119 118/118/118 117/117/117
f 122/122/122 121/121/121 120/120/120
f 125/125/125 124/124/124 123/123/123
f 128/128/128 127/127/127 126/126/126
f 131/131/131 130/130/130 129/129/129
f 134/134/134 133/133/133 132/132/132
f 137/137/137 136/136/136 135/135/135
f 140/140/140 139/139/139 138/138/138
f 143/143/143 142/142/142 141/141/141
f 146/146/146 145/145/145 144/144/144
f 149/149/149 148/148/148 147/147/147
f 152/152/152 151/151/151 150/150/150
f 155/155/155 154/154/154 153/153/153
f 158/158/158 157/157/157 156/156/156
f 161/161/161 160/160/160 159/159/159
f 164/164/164 163/163/163 162/162/162
f 164/164/164 165/165/165 163/163/163
f 168/168/168 167/167/167 166/166/166
f 169/169/169 168/168/168 166/166/166
f 172/172/172 171/171/171 170/170/170
f 171/171/171 172/172/172 173/173/173
f 176/176/176 175/175/175 174/174/174
f 177/177/177 175/175/175 176/176/176
f 180/180/180 179/179/179 178/178/178
f 179/179/179 181/181/181 178/178/178
f 184/184/184 183/183/183 182/182/182
f 183/183/183 185/185/185 182/182/182
