g col_caveDoor3
v 1.33626 8.507769 0.2169873
v 2.750351 7.965439 0.4636475
v 2.750351 8.363227 -0.60245
v -3.044163 5.891405 0.5081799
v 0.1496436 8.214705 -0.3869531
v -3.044165 5.908517 0.4800708
v 0.5830371 9.253592 -1.047153
v 1.943818 8.784818 -0.7308874
v 2.750351 8.363227 -0.60245
v 2.750351 8.454506 -0.7628052
v -0.3115454 10.52573 -1.869993
v -3.04416 8.103507 -1.466086
v -3.04416 7.3068 -1.011698
v 0.9891992 9.814346 -1.300532
v 1.200115 10.38763 -2.165666
v 1.775176 11.56532 -1.628563
v 2.750351 10.40655 -1.794946
v 2.750351 10.9216 -1.619146
v 2.713076 9.545485 -1.542994
v 2.750351 9.585872 -1.546184
v 2.750351 10.40655 -1.794946
v 2.750351 9.410267 -1.457306
v 2.750351 8.454506 -0.7628052
v 2.750349 9.503166 -1.525518
v -0.009162597 11.91656 -0.6813525
v -2.2949 10.46242 -2.329763
v -3.04416 8.103507 -1.466086
v -3.044163 9.185531 -1.946797
v 2.357866 11.44357 1.739026
v -0.6110522 11.71012 1.382249
v 2.750351 11.78364 -0.2554224
v 2.750351 11.69427 0.6471411
v -2.084306 11.29038 -0.2607483
v -3.044163 10.57731 -1.190507
v -3.044163 10.33621 -1.860112
v -3.044163 10.54812 1.299297
v -3.044163 10.47305 1.72053
v -0.500205 10.43199 1.865432
v -2.169973 10.28984 2.329329
v -3.04416 10.31938 1.899338
v -3.044163 10.47305 1.72053
v -3.044165 8.182017 1.547964
v -3.044163 8.969069 1.944405
v 0.5043994 10.51523 2.389177
v -3.044165 6.045915 0.5862427
v -3.044163 5.891405 0.5081799
v 2.750351 9.187518 1.733695
v 2.750351 8.398603 0.729447
v 2.341203 10.37943 2.374064
v 2.750351 9.187518 1.733695
v 2.750351 9.937619 2.145016
v 2.750351 11.09257 1.689995
v 2.750351 10.22487 2.198983
v -3.044163 8.969069 1.944405
v -3.04416 10.31938 1.899338
v -3.044165 6.045915 0.5862427
v -3.044165 8.182017 1.547964
v 2.750351 7.965439 0.4636475
v 2.750351 8.398603 0.729447
v 2.750351 10.22487 2.198983
v 2.750351 9.937619 2.145016
v 2.750351 11.25121 1.57627
v 2.750351 11.69427 0.6471411
v 2.750351 11.09257 1.689995
v 2.750351 11.25121 1.57627
v -3.044163 5.94103 -0.5702869
v -3.044165 5.908517 0.4800708
v -3.044163 5.94103 -0.5702869
v -3.04416 7.3068 -1.011698
v -3.044163 10.54812 1.299297
v -3.044163 10.57731 -1.190507
v 2.750351 9.585872 -1.546184
v 2.750349 9.503166 -1.525518
v 2.750351 11.35122 -1.391556
v 2.724929 11.36108 -1.402716
v 2.750354 11.33073 -1.409429
v 2.750351 11.41078 -1.249587
v 2.750351 11.35122 -1.391556
v 2.750354 11.33073 -1.409429
v 2.750351 10.9216 -1.619146
v 2.750351 11.41078 -1.249587
v 2.750351 11.78364 -0.2554224
v -3.04416 9.988934 -1.884874
v -3.044163 9.185531 -1.946797
v -3.044163 10.33621 -1.860112
v -3.044163 5.891405 0.5081799
v -3.044165 5.908517 0.4800708
v -3.044165 6.045915 0.5862427
v -3.04416 7.3068 -1.011698
v -3.044163 5.94103 -0.5702869
v -3.044165 8.182017 1.547964
v -3.04416 8.103507 -1.466086
v -3.044163 9.185531 -1.946797
v -3.044163 8.969069 1.944405
v -3.04416 10.31938 1.899338
v -3.044163 10.47305 1.72053
v -3.044163 10.54812 1.299297
v -3.04416 9.988934 -1.884874
v -3.044163 10.57731 -1.190507
v -3.044163 10.33621 -1.860112
v 2.750351 7.965439 0.4636475
v 2.750351 8.398603 0.729447
v 2.750351 8.363227 -0.60245
v 2.750351 11.09257 1.689995
v 2.750351 9.187518 1.733695
v 2.750351 8.454506 -0.7628052
v 2.750351 9.937619 2.145016
v 2.750351 10.22487 2.198983
v 2.750351 9.410267 -1.457306
v 2.750351 11.25121 1.57627
v 2.750351 11.69427 0.6471411
v 2.750351 11.78364 -0.2554224
v 2.750351 11.41078 -1.249587
v 2.750349 9.503166 -1.525518
v 2.750351 9.585872 -1.546184
v 2.750351 11.35122 -1.391556
v 2.750354 11.33073 -1.409429
v 2.750351 10.9216 -1.619146
v 2.750351 10.40655 -1.794946
vt 0 0
vt 0 0
vt 0 0
vt 0 0
vt 0 0
vt 0 0
vt 0 0
vt 0 0
vt 0 0
vt 0 0
vt 0 0
vt 0 0
vt 0 0
vt 0 0
vt 0 0
vt 0 0
vt 0 0
vt 0 0
vt 0 0
vt 0 0
vt 0 0
vt 0 0
vt 0 0
vt 0 0
vt 0 0
vt 0 0
vt 0 0
vt 0 0
vt 0 0
vt 0 0
vt 0 0
vt 0 0
vt 0 0
vt 0 0
vt 0 0
vt 0 0
vt 0 0
vt 0 0
vt 0 0
vt 0 0
vt 0 0
vt 0 0
vt 0 0
vt 0 0
vt 0 0
vt 0 0
vt 0 0
vt 0 0
vt 0 0
vt 0 0
vt 0 0
vt 0 0
vt 0 0
vt 0 0
vt 0 0
vt 0 0
vt 0 0
vt 0 0
vt 0 0
vt 0 0
vt 0 0
vt 0 0
vt 0 0
vt 0 0
vt 0 0
vt 0 0
vt 0 0
vt 0 0
vt 0 0
vt 0 0
vt 0 0
vt 0 0
vt 0 0
vt 0 0
vt 0 0
vt 0 0
vt 0 0
vt 0 0
vt 0 0
vt 0 0
vt 0 0
vt 0 0
vt 0 0
vt 0 0
vt 0 0
vt 0 0
vt 0 0
vt 0 0
vt 0 0
vt 0 0
vt 0 0
vt 0 0
vt 0 0
vt 0 0
vt 0 0
vt 0 0
vt 0 0
vt 0 0
vt 0 0
vt 0 0
vt 0 0
vt 0 0
vt 0 0
vt 0 0
vt 0 0
vt 0 0
vt 0 0
vt 0 0
vt 0 0
vt 0 0
vt 0 0
vt 0 0
vt 0 0
vt 0 0
vt 0 0
vt 0 0
vt 0 0
vt 0 0
vt 0 0
vn 0.06742888 -0.7491819 0.6589232
vn -0.2858901 -0.8978011 -0.3349926
vn -0.2858901 -0.8978011 -0.3349927
vn 0.429509 -0.7713668 -0.4695906
vn 0.3555964 -0.5794966 -0.7333041
vn 0.4295017 -0.771365 -0.4696
vn 0.02828102 -0.6286982 -0.7771349
vn -0.2492275 -0.7326387 -0.6333451
vn -0.3515322 -0.8135978 -0.4631239
vn -0.3515313 -0.8135959 -0.463128
vn 0.1711603 -0.1302095 -0.976601
vn 0.2967542 -0.4731041 -0.8295236
vn 0.2967543 -0.4731047 -0.8295233
vn 0.01455998 -0.7174681 -0.6964393
vn -0.0465092 -0.0999754 -0.9939023
vn 0.08818414 0.8792846 -0.468062
vn 0.217073 0.3153268 -0.9238226
vn 0.2170719 0.3153256 -0.9238234
vn 0.03712263 -0.4219612 -0.9058536
vn 0.2263629 -0.2825551 -0.9321601
vn 0.226363 -0.282556 -0.9321598
vn -0.2820947 -0.5678152 -0.77331
vn -0.263148 -0.5671221 -0.7804649
vn -0.2820947 -0.5678152 -0.7733101
vn -0.04421782 0.9795598 -0.1962334
vn -0.05453898 0.08521608 -0.9948688
vn 0.2193354 -0.3961186 -0.8916177
vn 0.2193353 -0.3961186 -0.8916177
vn 0.2376822 0.857684 0.4559444
vn -0.13595 0.9035948 0.4062437
vn -0.3399971 0.93585 0.09266368
vn -0.3399937 0.9358513 0.09266441
vn -0.4410661 0.8955531 -0.05869772
vn -0.3476903 0.8821696 -0.3176292
vn -0.347692 0.8821678 -0.3176323
vn -0.4299031 0.8888704 0.1584073
vn -0.4299031 0.8888704 0.1584069
vn 0.188665 -0.2905578 0.9380734
vn 0.02155602 -0.04133404 0.9989128
vn -0.2829202 0.7274124 0.6251619
vn -0.2829148 0.7274033 0.6251749
vn 0.2753477 -0.4324682 0.8585772
vn 0.275351 -0.4324692 0.8585757
vn -0.3148206 -0.416742 0.8527685
vn 0.3122428 -0.4283984 0.8479265
vn 0.3122415 -0.4283952 0.8479286
vn -0.2737109 -0.7563404 0.5941646
vn -0.2737103 -0.7563401 0.5941651
vn 0.1647907 -0.05283139 0.9849126
vn -0.02832272 -0.4806173 0.8764729
vn -0.02832274 -0.4806176 0.8764728
vn 0.4887609 0.4414147 0.7525064
vn 0.4887609 0.4414138 0.7525069
vn -0.4403585 0.02994921 0.8973224
vn -0.4403585 0.02994921 0.8973224
vn 0.241896 -0.3983415 0.8847658
vn 0.241896 -0.3983415 0.8847658
vn -0.3297232 -0.49376 0.8046637
vn -0.3297232 -0.4937599 0.8046637
vn 0.3310265 -0.1742354 0.9273961
vn 0.3310266 -0.1742354 0.9273961
vn 0.5274714 0.7668477 0.3656753
vn 0.5274713 0.7668478 0.3656754
vn 0.5285104 0.4946037 0.6899593
vn 0.5285103 0.4946037 0.6899593
vn 0.5807266 -0.813709 -0.02518554
vn 0.5807265 -0.813709 -0.02518554
vn 0.2638599 -0.2966344 -0.9178158
vn 0.2638599 -0.2966345 -0.9178159
vn -0.6021425 0.7983338 0.009357097
vn -0.6021425 0.7983338 0.009357097
vn 0.1768162 -0.2386123 -0.9548823
vn 0.1768162 -0.2386123 -0.9548823
vn 0.5055641 0.567192 -0.6501525
vn 0.3915763 0.7585503 -0.5208353
vn 0.5055641 0.567192 -0.6501524
vn 0.4667253 0.815528 -0.3421718
vn 0.4667253 0.815528 -0.3421718
vn 0.2958446 0.4357333 -0.8500661
vn 0.2958443 0.4357381 -0.8500639
vn 0.2739556 0.9004923 -0.3377305
vn 0.2739556 0.9004924 -0.3377304
vn -0.5393999 0.06471112 -0.8395596
vn -0.5393998 0.06471112 -0.8395596
vn -0.5373842 0.059977 -0.8412022
vn -1 -4.299058E-05 5.906797E-05
vn -1 4.963007E-07 -1.832905E-06
vn -1 1.231122E-06 -2.215049E-06
vn -1 1.223905E-07 -1.963784E-06
vn -1 1.1002E-06 -2.291956E-06
vn -1 1.601133E-06 -9.345201E-07
vn -1 -2.414673E-06 -1.558662E-06
vn -1 8.877599E-07 -9.267361E-07
vn -1 2.370684E-06 1.222098E-07
vn -1 8.601466E-07 4.972275E-07
vn -1 -8.241406E-06 3.160772E-06
vn -1 -1.055718E-06 -2.575388E-07
vn -1 2.155597E-06 -1.011744E-06
vn -1 -4.305125E-06 0
vn -1 -8.620447E-06 2.597947E-06
vn 1 8.603666E-07 0
vn 1 0 0
vn 1 -2.711662E-07 0
vn 1 -1.133004E-07 0
vn 1 0 0
vn 1 -1.580737E-07 0
vn 1 2.260075E-07 0
vn 1 0 0
vn 1 0 -4.327942E-07
vn 1 0 0
vn 1 0 0
vn 1 0 0
vn 1 1.708429E-07 0
vn 1 2.853428E-06 -2.501485E-05
vn 1 -6.446038E-06 4.00074E-05
vn 1 -7.942803E-07 5.280733E-06
vn 1 -4.659121E-06 4.904807E-05
vn 1 -5.478807E-07 -9.318658E-06
vn 1 0 0
g col_caveDoor3_0
f 3/3/3 2/2/2 1/1/1
f 5/5/5 1/1/1 4/4/4
f 5/5/5 4/4/4 6/6/6
f 5/5/5 7/7/7 1/1/1
f 8/8/8 1/1/1 7/7/7
f 8/8/8 9/9/9 1/1/1
f 8/8/8 10/10/10 9/9/9
f 7/7/7 5/5/5 11/11/11
f 5/5/5 12/12/12 11/11/11
f 5/5/5 13/13/13 12/12/12
f 8/8/8 7/7/7 14/14/14
f 7/7/7 15/15/15 14/14/14
f 15/15/15 7/7/7 11/11/11
f 16/16/16 15/15/15 11/11/11
f 16/16/16 17/17/17 15/15/15
f 16/16/16 18/18/18 17/17/17
f 8/8/8 14/14/14 19/19/19
f 19/19/19 14/14/14 15/15/15
f 15/15/15 20/20/20 19/19/19
f 21/21/21 20/20/20 15/15/15
f 8/8/8 19/19/19 22/22/22
f 8/8/8 22/22/22 23/23/23
f 22/22/22 19/19/19 24/24/24
f 16/16/16 11/11/11 25/25/25
f 26/26/26 25/25/25 11/11/11
f 27/27/27 26/26/26 11/11/11
f 27/27/27 28/28/28 26/26/26
f 29/29/29 16/16/16 25/25/25
f 29/29/29 25/25/25 30/30/30
f 29/29/29 31/31/31 16/16/16
f 29/29/29 32/32/32 31/31/31
f 25/25/25 26/26/26 33/33/33
f 30/30/30 25/25/25 33/33/33
f 34/34/34 33/33/33 26/26/26
f 34/34/34 26/26/26 35/35/35
f 36/36/36 30/30/30 33/33/33
f 30/30/30 36/36/36 37/37/37
f 30/30/30 38/38/38 29/29/29
f 30/30/30 39/39/39 38/38/38
f 40/40/40 39/39/39 30/30/30
f 40/40/40 30/30/30 41/41/41
f 39/39/39 42/42/42 38/38/38
f 39/39/39 43/43/43 42/42/42
f 38/38/38 44/44/44 29/29/29
f 38/38/38 1/1/1 44/44/44
f 1/1/1 38/38/38 45/45/45
f 1/1/1 45/45/45 46/46/46
f 47/47/47 44/44/44 1/1/1
f 47/47/47 1/1/1 48/48/48
f 29/29/29 44/44/44 49/49/49
f 49/49/49 44/44/44 50/50/50
f 49/49/49 50/50/50 51/51/51
f 52/52/52 29/29/29 49/49/49
f 52/52/52 49/49/49 53/53/53
f 55/55/55 54/54/54 39/39/39
f 57/57/57 56/56/56 38/38/38
f 59/59/59 1/1/1 58/58/58
f 61/61/61 60/60/60 49/49/49
f 63/63/63 29/29/29 62/62/62
f 65/65/65 29/29/29 64/64/64
f 67/67/67 66/66/66 5/5/5
f 69/69/69 5/5/5 68/68/68
f 71/71/71 70/70/70 33/33/33
f 73/73/73 19/19/19 72/72/72
f 76/76/76 75/75/75 74/74/74
f 78/78/78 75/75/75 77/77/77
f 80/80/80 75/75/75 79/79/79
f 75/75/75 80/80/80 16/16/16
f 81/81/81 75/75/75 16/16/16
f 81/81/81 16/16/16 82/82/82
f 84/84/84 83/83/83 26/26/26
f 85/85/85 26/26/26 83/83/83
f 88/88/88 87/87/87 86/86/86
f 88/88/88 89/89/89 87/87/87
f 87/87/87 89/89/89 90/90/90
f 91/91/91 89/89/89 88/88/88
f 91/91/91 92/92/92 89/89/89
f 91/91/91 93/93/93 92/92/92
f 94/94/94 93/93/93 91/91/91
f 95/95/95 93/93/93 94/94/94
f 96/96/96 93/93/93 95/95/95
f 97/97/97 93/93/93 96/96/96
f 97/97/97 98/98/98 93/93/93
f 99/99/99 98/98/98 97/97/97
f 98/98/98 99/99/99 100/100/100
f 103/103/103 102/102/102 101/101/101
f 103/103/103 104/104/104 102/102/102
f 102/102/102 104/104/104 105/105/105
f 106/106/106 104/104/104 103/103/103
f 105/105/105 104/104/104 107/107/107
f 107/107/107 104/104/104 108/108/108
f 109/109/109 104/104/104 106/106/106
f 109/109/109 110/110/110 104/104/104
f 109/109/109 111/111/111 110/110/110
f 109/109/109 112/112/112 111/111/111
f 109/109/109 113/113/113 112/112/112
f 114/114/114 113/113/113 109/109/109
f 115/115/115 113/113/113 114/114/114
f 115/115/115 116/116/116 113/113/113
f 115/115/115 117/117/117 116/116/116
f 115/115/115 118/118/118 117/117/117
f 119/119/119 118/118/118 115/115/115
