g ore_07
v -0.4133902 0.1503806 0.7987917
v 0.2362381 0.2183146 0.455331
v 0.3872137 -0.1678872 0.2857557
v 0.346736 0.09973097 -0.2570026
v -0.1399218 -0.6139588 -0.35533
v 0.4047247 -0.181334 0.22265
v 0.01986859 -0.07344007 -0.581594
v -0.1399218 -0.6139588 -0.35533
v 0.346736 0.09973097 -0.2570026
v -0.8105808 0.3624244 -0.3018877
v -0.9014416 0.1575704 -0.1875449
v -0.7589544 0.1947265 -0.4167848
v -0.05960658 0.4024282 -0.5696271
v -0.03631604 0.5058866 -0.4909754
v -0.7109542 0.2397542 -0.4341942
v -0.7122455 -0.194344 -0.3896021
v -0.6701788 -0.162396 -0.4359981
v -0.7323142 -0.1300321 -0.3995157
v -0.80008 -0.04175138 0.3350871
v -0.793915 -0.02522326 0.3449726
v -0.7667987 0.00510931 0.4050941
v -0.7303396 -0.4673829 -0.08213443
v -0.7363256 -0.4680448 -0.01986998
v -0.6893273 -0.5075908 -0.0382634
v -0.1399218 -0.6139588 -0.35533
v -0.2126574 -0.6458554 -0.3658953
v -0.20626 -0.664618 -0.3180279
v -0.9014416 0.1575704 -0.1875449
v -0.8105808 0.3624244 -0.3018877
v -0.8286577 0.4474549 -0.1201306
v -0.9113998 0.1121726 -0.1246903
v -0.8306575 0.4248977 -0.05506242
v -0.8856946 -0.1937919 -0.1871705
v -0.7323142 -0.1300321 -0.3995157
v -0.9014416 0.1575704 -0.1875449
v -0.7122455 -0.194344 -0.3896021
v -0.862573 -0.2577319 -0.1785723
v -0.7303396 -0.4673829 -0.08213443
v -0.7363256 -0.4680448 -0.01986998
v -0.7879502 -0.08090734 0.3442589
v -0.7714943 -0.08474398 0.3777183
v -0.5339341 -0.4541621 0.4680307
v -0.6893273 -0.5075908 -0.0382634
v -0.4905499 -0.5016494 0.4254394
v -0.20626 -0.664618 -0.3180279
v -0.5294592 -0.3298125 0.5477723
v -0.467929 -0.4770827 0.4669676
v -0.4835475 0.1297441 0.7883883
v -0.4133902 0.1503806 0.7987917
v 0.3872137 -0.1678872 0.2857557
v -0.6672931 0.0885005 0.6991931
v -0.7056251 0.05049086 0.6402436
v -0.5339341 -0.4541621 0.4680307
v -0.7714943 -0.08474398 0.3777183
v -0.7033482 0.1353784 0.6579803
v -0.7667987 0.00510931 0.4050941
v -0.6577556 0.1603227 0.7083732
v -0.4980322 0.1961741 0.7859073
v -0.4351681 0.2172236 0.7943535
v -0.4133902 0.1503806 0.7987917
v -0.793915 -0.02522326 0.3449726
v -0.6057533 0.3852983 0.6324244
v -0.7667987 0.00510931 0.4050941
v -0.8306575 0.4248977 -0.05506242
v -0.5909402 0.4317517 0.5942068
v -0.7926056 0.4769521 -0.06146511
v -0.8286577 0.4474549 -0.1201306
v -0.5714626 0.6300387 -0.1625139
v -0.6427333 0.5764518 -0.2062626
v -0.8286577 0.4474549 -0.1201306
v -0.8105808 0.3624244 -0.3018877
v -0.5810447 0.6138644 -0.2229224
v -0.758449 0.3749299 -0.3416676
v -0.7109542 0.2397542 -0.4341942
v -0.7589544 0.1947265 -0.4167848
v -0.8105808 0.3624244 -0.3018877
v -0.5201378 0.639977 -0.1911027
v -0.5714626 0.6300387 -0.1625139
v -0.1998194 0.7014918 0.2999775
v -0.2499147 0.6906867 0.3349127
v -0.5909402 0.4317517 0.5942068
v -0.5629162 0.4007325 0.6631197
v -0.1993893 0.6764045 0.3723662
v -0.3022384 0.281858 0.7469207
v -0.1993893 0.6764045 0.3723662
v 0.24132 0.6119113 0.0577541
v 0.2838915 0.5774045 0.1121411
v 0.2052453 0.2855229 0.45885
v -0.01184009 0.5356002 -0.4437205
v -0.03631604 0.5058866 -0.4909754
v -0.5810447 0.6138644 -0.2229224
v -0.7109542 0.2397542 -0.4341942
v 0.03209724 0.493257 -0.476642
v 0.2966848 0.5719237 0.04642967
v 0.2838915 0.5774045 0.1121411
v 0.03209724 0.493257 -0.476642
v 0.3336652 0.1572289 -0.2866375
v -0.2126574 -0.6458554 -0.3658953
v -0.6701788 -0.162396 -0.4359981
v -0.4124359 -0.5672956 -0.3382706
v -0.4825997 -0.551331 -0.302494
v -0.7122455 -0.194344 -0.3896021
v -0.7303396 -0.4673829 -0.08213443
v 0.3336652 0.1572289 -0.2866375
v 0.002965618 0.363852 -0.5750189
v 0.02706487 -0.003222942 -0.5935661
v 0.346736 0.09973097 -0.2570026
v 0.01986859 -0.07344007 -0.581594
v -0.7667987 0.00510931 0.4050941
v -0.6057533 0.3852983 0.6324244
v -0.7033482 0.1353784 0.6579803
v -0.6577556 0.1603227 0.7083732
v -0.5870738 0.3423047 0.6816586
v -0.5909402 0.4317517 0.5942068
v -0.4980322 0.1961741 0.7859073
v -0.5629162 0.4007325 0.6631197
v -0.4351681 0.2172236 0.7943535
v -0.3022384 0.281858 0.7469207
v -0.4133902 0.1503806 0.7987917
v -0.2871612 0.2169356 0.7533608
v 0.2362381 0.2183146 0.455331
v 0.2052453 0.2855229 0.45885
v -0.3022384 0.281858 0.7469207
v -0.1993893 0.6764045 0.3723662
v -0.7879502 -0.08090734 0.3442589
v -0.8962667 -0.2259173 -0.1243441
v -0.7990285 -0.06568861 0.3350238
v -0.7363256 -0.4680448 -0.01986998
v -0.862573 -0.2577319 -0.1785723
v -0.7303396 -0.4673829 -0.08213443
v -0.8306575 0.4248977 -0.05506242
v -0.80008 -0.04175138 0.3350871
v -0.9113998 0.1121726 -0.1246903
v -0.6772205 0.1822438 -0.4635369
v -0.6701788 -0.162396 -0.4359981
v -0.03610107 -0.04991102 -0.6125529
v -0.7323142 -0.1300321 -0.3995157
v -0.7589544 0.1947265 -0.4167848
v -0.9014416 0.1575704 -0.1875449
v -0.2126574 -0.6458554 -0.3658953
v -0.03610107 -0.04991102 -0.6125529
v -0.6701788 -0.162396 -0.4359981
v 0.01986859 -0.07344007 -0.581594
v -0.1399218 -0.6139588 -0.35533
v -0.7667987 0.00510931 0.4050941
v -0.7714943 -0.08474398 0.3777183
v -0.7879502 -0.08090734 0.3442589
v -0.7990285 -0.06568861 0.3350238
v -0.80008 -0.04175138 0.3350871
v -0.9113998 0.1121726 -0.1246903
v -0.8962667 -0.2259173 -0.1243441
v -0.9014416 0.1575704 -0.1875449
v -0.8856946 -0.1937919 -0.1871705
v -0.862573 -0.2577319 -0.1785723
v -0.03610107 -0.04991102 -0.6125529
v 0.01986859 -0.07344007 -0.581594
v 0.02706487 -0.003222942 -0.5935661
v 0.002965618 0.363852 -0.5750189
v -0.0617608 0.3376536 -0.5939019
v -0.05960658 0.4024282 -0.5696271
v -0.6772205 0.1822438 -0.4635369
v -0.7109542 0.2397542 -0.4341942
v -0.7589544 0.1947265 -0.4167848
v 0.03209724 0.493257 -0.476642
v -0.03631604 0.5058866 -0.4909754
v -0.05960658 0.4024282 -0.5696271
v 0.002965618 0.363852 -0.5750189
v 0.3336652 0.1572289 -0.2866375
v -0.20626 -0.664618 -0.3180279
v -0.2126574 -0.6458554 -0.3658953
v -0.4124359 -0.5672956 -0.3382706
v -0.4214616 -0.5980334 -0.2819408
v -0.6893273 -0.5075908 -0.0382634
v -0.4825997 -0.551331 -0.302494
v -0.7303396 -0.4673829 -0.08213443
v 0.346736 0.09973097 -0.2570026
v 0.4047247 -0.181334 0.22265
v 0.4879387 0.1645513 0.1471902
v 0.3336652 0.1572289 -0.2866375
v 0.472235 0.174336 0.2131008
v 0.3872137 -0.1678872 0.2857557
v 0.2362381 0.2183146 0.455331
v 0.4794625 0.2285104 0.1324039
v 0.2966848 0.5719237 0.04642967
v 0.2838915 0.5774045 0.1121411
v 0.463846 0.2401223 0.1976595
v 0.2052453 0.2855229 0.45885
v 0.07162303 -0.6171765 0.2167262
v -0.467929 -0.4770827 0.4669676
v 0.3872137 -0.1678872 0.2857557
v -0.4905499 -0.5016494 0.4254394
v 0.09634129 -0.6227269 0.1535715
v 0.4047247 -0.181334 0.22265
v -0.1399218 -0.6139588 -0.35533
v 0.03360274 -0.6531901 0.1728948
v -0.20626 -0.664618 -0.3180279
vt 0.3891105 0.133237
vt 0.5768719 0.1657428
vt 0.6178128 0.1133256
vt 0.7268398 0.1683801
vt 0.7114742 0.4453915
vt 0.6321648 0.1125052
vt 0.8523926 0.1514922
vt 0.7114742 0.4453915
vt 0.7215634 0.1822847
vt 0.3533277 0.525646
vt 0.1679112 0.1977309
vt 0.3703528 0.5527143
vt 0.741294 0.371241
vt 0.7991604 0.3120387
vt 0.4272919 0.5821806
vt 0.4052328 0.6765394
vt 0.4332395 0.6109489
vt 0.3785103 0.6085809
vt 0.2956316 0.09879854
vt 0.2984592 0.1015474
vt 0.3134679 0.08394672
vt 0.3835921 0.7676011
vt 0.3762275 0.7321051
vt 0.3999196 0.7458737
vt 0.7105255 0.4347435
vt 0.6920073 0.4805407
vt 0.6966621 0.4432331
vt 0.1691188 0.1995787
vt 0.3438528 0.5109899
vt 0.1800474 0.2432998
vt 0.1429682 0.1304305
vt 0.1583845 0.1837226
vt 0.2679359 0.3989334
vt 0.3785105 0.6085812
vt 0.1358698 0.1412553
vt 0.4052328 0.6765394
vt 0.2961082 0.471019
vt 0.3835921 0.767601
vt 0.3762275 0.732105
vt 0.3118138 0.1384729
vt 0.3125461 0.125697
vt 0.3751209 0.4717896
vt 0.3999196 0.7458737
vt 0.4013715 0.5033525
vt 0.6889729 0.4760702
vt 0.3790913 0.4111959
vt 0.3925253 0.4870995
vt 0.3781934 0.1552429
vt 0.3890766 0.1398226
vt 0.6176245 0.09429292
vt 0.3688238 0.1521374
vt 0.360236 0.1537846
vt 0.375121 0.4717899
vt 0.3125462 0.125697
vt 0.3602899 0.1327886
vt 0.3143511 0.1057327
vt 0.3680469 0.1368574
vt 0.3761915 0.139557
vt 0.3795588 0.1424079
vt 0.4043596 0.134972
vt 0.2984592 0.1015474
vt 0.3604589 0.1663637
vt 0.3143511 0.1057327
vt 0.1583844 0.1837226
vt 0.361602 0.1888986
vt 0.1778602 0.2156954
vt 0.1800474 0.2432998
vt 0.3260899 0.421145
vt 0.304594 0.4163666
vt 0.1800472 0.2432995
vt 0.349997 0.5261125
vt 0.3288668 0.4458516
vt 0.3785998 0.5645696
vt 0.3931247 0.5878212
vt 0.3703528 0.5527143
vt 0.3533277 0.525646
vt 0.3415555 0.4242848
vt 0.3260899 0.4211449
vt 0.3993417 0.2663985
vt 0.3843192 0.2612809
vt 0.361602 0.1888986
vt 0.3666516 0.1692085
vt 0.390397 0.2495701
vt 0.3873499 0.1551478
vt 0.3924077 0.2492044
vt 0.6083423 0.2623868
vt 0.6206366 0.2442046
vt 0.5683347 0.1768555
vt 0.7820999 0.3004156
vt 0.7991602 0.3120388
vt 0.3288667 0.4458514
vt 0.4048802 0.5875559
vt 0.8155898 0.2846732
vt 0.6343144 0.2447582
vt 0.6206366 0.2442046
vt 0.8155898 0.2846732
vt 0.7362492 0.1729162
vt 0.6920073 0.4805407
vt 0.4332395 0.6109489
vt 0.5675907 0.6884507
vt 0.5245465 0.7457284
vt 0.4052328 0.6765393
vt 0.3835921 0.7676011
vt 0.7271811 0.183226
vt 0.7432113 0.3587227
vt 0.8501291 0.1543769
vt 0.7215634 0.1822847
vt 0.8523926 0.1514922
vt 0.3143511 0.1057327
vt 0.3604589 0.1663638
vt 0.3602899 0.1327886
vt 0.3680469 0.1368574
vt 0.366774 0.1610147
vt 0.361602 0.1888986
vt 0.3761915 0.139557
vt 0.3666516 0.1692085
vt 0.3795588 0.1424079
vt 0.3870263 0.1538168
vt 0.4043596 0.134972
vt 0.4115102 0.1461572
vt 0.6002104 0.1683859
vt 0.5657641 0.1774259
vt 0.3833471 0.1560629
vt 0.3946345 0.248663
vt 0.3118138 0.1384726
vt 0.2700455 0.378375
vt 0.3046105 0.1163805
vt 0.3762275 0.7321051
vt 0.2961082 0.471019
vt 0.3835921 0.767601
vt 0.1583845 0.1837226
vt 0.2956316 0.09879854
vt 0.1429682 0.1304305
vt 0.4396233 0.5664301
vt 0.4332652 0.6375021
vt 0.8471919 0.1574708
vt 0.3785103 0.6085809
vt 0.3703528 0.5527143
vt 0.1566389 0.1743222
vt 0.6920073 0.4805407
vt 0.84721 0.1569111
vt 0.4332907 0.6380225
vt 0.8523926 0.1514922
vt 0.7114742 0.4453915
vt 0.3134679 0.08394672
vt 0.3125462 0.125697
vt 0.3118138 0.1384726
vt 0.3046105 0.1163805
vt 0.2956316 0.09879854
vt 0.1429682 0.1304305
vt 0.2700456 0.378375
vt 0.1358698 0.1412553
vt 0.2679359 0.3989334
vt 0.2961082 0.471019
vt 0.8495085 0.1512207
vt 0.8523926 0.1514922
vt 0.8501291 0.1543769
vt 0.7432113 0.3587227
vt 0.736626 0.3669602
vt 0.741294 0.371241
vt 0.4396233 0.5664301
vt 0.4272919 0.5821806
vt 0.3703528 0.5527143
vt 0.8155898 0.2846732
vt 0.7991604 0.3120387
vt 0.741294 0.371241
vt 0.7432113 0.3587227
vt 0.738946 0.17067
vt 0.6966621 0.4432331
vt 0.6920073 0.4805407
vt 0.5675907 0.6884507
vt 0.562133 0.6818829
vt 0.4087127 0.7083223
vt 0.5245465 0.7457284
vt 0.3835921 0.7676011
vt 0.7286119 0.1592618
vt 0.6321649 0.1125052
vt 0.6368401 0.1666161
vt 0.7322557 0.1700598
vt 0.6228236 0.1669263
vt 0.6184423 0.1133636
vt 0.5751883 0.165786
vt 0.6370077 0.177812
vt 0.6343143 0.2447582
vt 0.6206366 0.2442046
vt 0.6230488 0.1784392
vt 0.5714113 0.177097
vt 0.6059985 0.3545247
vt 0.3925253 0.4870995
vt 0.6078537 0.1023698
vt 0.4013715 0.5033525
vt 0.6296961 0.3490712
vt 0.6312158 0.1018508
vt 0.7105255 0.4347435
vt 0.6131837 0.3796932
vt 0.690567 0.4728917
vn 0.1651105 -0.1837454 0.9690078
vn 0.6086271 0.05505098 0.7915443
vn 0.7166904 -0.3367583 0.6106952
vn 0.8647283 -0.2242726 -0.449385
vn 0.5301299 -0.6399859 -0.5562196
vn 0.9038243 -0.4275809 0.01661518
vn 0.5663012 -0.3493584 -0.7464929
vn 0.5301299 -0.6399859 -0.5562196
vn 0.8647283 -0.2242726 -0.449385
vn -0.7694668 0.4057285 -0.49326
vn -0.9552009 0.1004347 -0.2783958
vn -0.6879157 0.06869036 -0.7225327
vn -0.04904832 0.5055268 -0.8614157
vn 0.01527052 0.7025917 -0.7114294
vn -0.4119721 0.354152 -0.8395566
vn -0.6054668 -0.4328847 -0.667848
vn -0.4083486 -0.2641605 -0.873768
vn -0.6774753 -0.1707509 -0.7154518
vn -0.9380559 0.003223562 0.3464688
vn -0.9229246 0.07545236 0.3775142
vn -0.9504058 0.09507379 0.2961243
vn -0.6795069 -0.67585 -0.285477
vn -0.7572158 -0.6363326 0.1473261
vn -0.4897665 -0.8717426 0.01391287
vn 0.5301299 -0.6399859 -0.5562196
vn -0.006601705 -0.7189494 -0.695031
vn 0.03521736 -0.9764019 -0.2130701
vn -0.9552009 0.1004347 -0.2783958
vn -0.7694668 0.4057285 -0.49326
vn -0.8253281 0.5552 -0.1028907
vn -0.9957252 0.06858221 0.06187018
vn -0.9017745 0.3794143 0.2069967
vn -0.881856 -0.1827403 -0.4346678
vn -0.6774753 -0.1707509 -0.7154518
vn -0.9552009 0.1004347 -0.2783958
vn -0.6054668 -0.4328847 -0.667848
vn -0.7518338 -0.5099685 -0.4179451
vn -0.6795069 -0.67585 -0.285477
vn -0.7572158 -0.6363326 0.1473261
vn -0.8643812 -0.3094929 0.396307
vn -0.8696469 -0.290614 0.3990711
vn -0.5249081 -0.6199812 0.5831764
vn -0.4897665 -0.8717426 0.01391287
vn -0.2753648 -0.8623614 0.4248612
vn 0.03521736 -0.9764019 -0.2130701
vn -0.2912148 -0.4801691 0.8274246
vn 0.04717847 -0.6196954 0.7834232
vn -0.2017284 -0.2468568 0.9478225
vn 0.1651105 -0.1837454 0.9690078
vn 0.7166904 -0.3367583 0.6106952
vn -0.5780302 -0.2226873 0.7850424
vn -0.8264994 -0.2412831 0.508607
vn -0.5249081 -0.6199812 0.5831764
vn -0.8696469 -0.290614 0.3990711
vn -0.9047958 0.1737985 0.3887654
vn -0.9504058 0.09507379 0.2961243
vn -0.6308383 0.1550432 0.7602661
vn -0.3262368 0.1727407 0.9293708
vn -0.02180072 0.2967019 0.9547213
vn 0.1651105 -0.1837454 0.9690078
vn -0.9229246 0.07545236 0.3775142
vn -0.7694652 0.4560311 0.4471676
vn -0.9504058 0.09507379 0.2961243
vn -0.9017745 0.3794143 0.2069967
vn -0.5489213 0.7339946 0.3999214
vn -0.6590909 0.7368706 0.1504022
vn -0.8253281 0.5552 -0.1028907
vn -0.4218553 0.906661 -0.001994011
vn -0.5750581 0.7633017 -0.2944123
vn -0.8253281 0.5552 -0.1028907
vn -0.7694668 0.4057285 -0.49326
vn -0.355482 0.7984705 -0.4858781
vn -0.4333736 0.5194613 -0.7364424
vn -0.4119721 0.354152 -0.8395566
vn -0.6879157 0.06869036 -0.7225327
vn -0.7694668 0.4057285 -0.49326
vn -0.1303452 0.9587238 -0.2527029
vn -0.4218553 0.906661 -0.001994011
vn 0.0937342 0.9901125 0.1043607
vn -0.2402581 0.9300681 0.2779376
vn -0.5489213 0.7339946 0.3999214
vn -0.2941848 0.6454805 0.7048476
vn 0.1714566 0.8170536 0.550478
vn 0.2679917 0.4351991 0.8595244
vn 0.1714566 0.8170536 0.550478
vn 0.3796275 0.9230624 -0.06195868
vn 0.6326835 0.6986825 0.3339976
vn 0.5517673 0.4039033 0.7296677
vn 0.2047663 0.8811252 -0.4262501
vn 0.01527052 0.7025917 -0.7114294
vn -0.355482 0.7984705 -0.4858781
vn -0.4119721 0.354152 -0.8395566
vn 0.5344852 0.5881646 -0.6069496
vn 0.7506548 0.6345446 -0.1840399
vn 0.6326835 0.6986825 0.3339976
vn 0.5344852 0.5881646 -0.6069496
vn 0.8311006 0.1299033 -0.5407372
vn -0.006601705 -0.7189494 -0.695031
vn -0.4083486 -0.2641605 -0.873768
vn -0.3716781 -0.6190733 -0.6918119
vn -0.5307567 -0.666671 -0.523304
vn -0.6054668 -0.4328847 -0.667848
vn -0.6795069 -0.67585 -0.285477
vn 0.8311006 0.1299033 -0.5407372
vn 0.4524769 0.2861999 -0.8446031
vn 0.531601 -0.0462957 -0.8457288
vn 0.8647283 -0.2242726 -0.449385
vn 0.5663012 -0.3493584 -0.7464929
vn -0.9504058 0.09507379 0.2961243
vn -0.7694652 0.4560311 0.4471676
vn -0.9047958 0.1737985 0.3887654
vn -0.6308383 0.1550432 0.7602661
vn -0.5409209 0.4130328 0.7326722
vn -0.5489213 0.7339946 0.3999214
vn -0.3262368 0.1727407 0.9293708
vn -0.2941848 0.6454805 0.7048476
vn -0.02180072 0.2967019 0.9547213
vn 0.2679917 0.4351991 0.8595244
vn 0.1651105 -0.1837454 0.9690078
vn 0.4281228 -0.04444018 0.9026273
vn 0.6086271 0.05505098 0.7915443
vn 0.5517673 0.4039033 0.7296677
vn 0.2679917 0.4351991 0.8595244
vn 0.1714566 0.8170536 0.550478
vn -0.8643812 -0.3094929 0.396307
vn -0.9501287 -0.3117449 0.008414251
vn -0.9163564 -0.1785549 0.3583421
vn -0.7572158 -0.6363326 0.1473261
vn -0.7518338 -0.5099685 -0.4179451
vn -0.6795069 -0.67585 -0.285477
vn -0.9017745 0.3794143 0.2069967
vn -0.9380559 0.003223562 0.3464688
vn -0.9957252 0.06858221 0.06187018
vn -0.3643537 0.08838013 -0.9270573
vn -0.4083486 -0.2641605 -0.873768
vn 0.08192333 -0.1849658 -0.9793243
vn -0.6774753 -0.1707509 -0.7154518
vn -0.6879157 0.06869036 -0.7225327
vn -0.9552009 0.1004347 -0.2783958
vn -0.006601705 -0.7189494 -0.695031
vn 0.08192333 -0.1849658 -0.9793243
vn -0.4083486 -0.2641605 -0.873768
vn 0.5663012 -0.3493584 -0.7464929
vn 0.5301299 -0.6399859 -0.5562196
vn -0.9504058 0.09507379 0.2961243
vn -0.8696469 -0.290614 0.3990711
vn -0.8643812 -0.3094929 0.396307
vn -0.9163564 -0.1785549 0.3583421
vn -0.9380559 0.003223562 0.3464688
vn -0.9957252 0.06858221 0.06187018
vn -0.9501287 -0.3117449 0.008414251
vn -0.9552009 0.1004347 -0.2783958
vn -0.881856 -0.1827403 -0.4346678
vn -0.7518338 -0.5099685 -0.4179451
vn 0.08192333 -0.1849658 -0.9793243
vn 0.5663012 -0.3493584 -0.7464929
vn 0.531601 -0.0462957 -0.8457288
vn 0.4524769 0.2861999 -0.8446031
vn -0.02752722 0.1889531 -0.9816002
vn -0.04904832 0.5055268 -0.8614157
vn -0.3643537 0.08838013 -0.9270573
vn -0.4119721 0.354152 -0.8395566
vn -0.6879157 0.06869036 -0.7225327
vn 0.5344852 0.5881646 -0.6069496
vn 0.01527052 0.7025917 -0.7114294
vn -0.04904832 0.5055268 -0.8614157
vn 0.4524769 0.2861999 -0.8446031
vn 0.8311006 0.1299033 -0.5407372
vn 0.03521736 -0.9764019 -0.2130701
vn -0.006601705 -0.7189494 -0.695031
vn -0.3716781 -0.6190733 -0.6918119
vn -0.3794925 -0.8981748 -0.2219625
vn -0.4897665 -0.8717426 0.01391287
vn -0.5307567 -0.666671 -0.523304
vn -0.6795069 -0.67585 -0.285477
vn 0.8647283 -0.2242726 -0.449385
vn 0.9038243 -0.4275809 0.01661518
vn 0.9976721 -0.05945283 -0.03340201
vn 0.8311006 0.1299033 -0.5407372
vn 0.8811982 0.05866072 0.4690934
vn 0.7166904 -0.3367583 0.6106952
vn 0.6086271 0.05505098 0.7915443
vn 0.9571106 0.2738831 -0.09448472
vn 0.7506548 0.6345446 -0.1840399
vn 0.6326835 0.6986825 0.3339976
vn 0.8429837 0.3662095 0.394042
vn 0.5517673 0.4039033 0.7296677
vn 0.4286298 -0.6776186 0.5975865
vn 0.04717847 -0.6196954 0.7834232
vn 0.7166904 -0.3367583 0.6106952
vn -0.2753648 -0.8623614 0.4248612
vn 0.6959426 -0.7169494 -0.04058753
vn 0.9038243 -0.4275809 0.01661518
vn 0.5301299 -0.6399859 -0.5562196
vn 0.1825037 -0.9646536 0.1900946
vn 0.03521736 -0.9764019 -0.2130701
g ore_07_0
f 3/3/3 2/2/2 1/1/1
f 6/6/6 5/5/5 4/4/4
f 9/9/9 8/8/8 7/7/7
f 12/12/12 11/11/11 10/10/10
f 15/15/15 14/14/14 13/13/13
f 18/18/18 17/17/17 16/16/16
f 21/21/21 20/20/20 19/19/19
f 24/24/24 23/23/23 22/22/22
f 27/27/27 26/26/26 25/25/25
f 30/30/30 29/29/29 28/28/28
f 28/28/28 31/31/31 30/30/30
f 31/31/31 32/32/32 30/30/30
f 35/35/35 34/34/34 33/33/33
f 34/34/34 36/36/36 33/33/33
f 36/36/36 37/37/37 33/33/33
f 36/36/36 38/38/38 37/37/37
f 41/41/41 40/40/40 39/39/39
f 42/42/42 41/41/41 39/39/39
f 42/42/42 39/39/39 43/43/43
f 44/44/44 42/42/42 43/43/43
f 43/43/43 45/45/45 44/44/44
f 42/42/42 44/44/44 46/46/46
f 44/44/44 47/47/47 46/46/46
f 48/48/48 46/46/46 47/47/47
f 49/49/49 48/48/48 47/47/47
f 50/50/50 49/49/49 47/47/47
f 46/46/46 48/48/48 51/51/51
f 46/46/46 51/51/51 52/52/52
f 53/53/53 46/46/46 52/52/52
f 53/53/53 52/52/52 54/54/54
f 52/52/52 55/55/55 54/54/54
f 55/55/55 56/56/56 54/54/54
f 57/57/57 55/55/55 52/52/52
f 51/51/51 57/57/57 52/52/52
f 58/58/58 57/57/57 51/51/51
f 48/48/48 58/58/58 51/51/51
f 58/58/58 48/48/48 59/59/59
f 48/48/48 60/60/60 59/59/59
f 63/63/63 62/62/62 61/61/61
f 62/62/62 64/64/64 61/61/61
f 62/62/62 65/65/65 64/64/64
f 65/65/65 66/66/66 64/64/64
f 67/67/67 64/64/64 66/66/66
f 65/65/65 68/68/68 66/66/66
f 68/68/68 69/69/69 66/66/66
f 69/69/69 70/70/70 66/66/66
f 70/70/70 69/69/69 71/71/71
f 71/71/71 69/69/69 72/72/72
f 73/73/73 71/71/71 72/72/72
f 74/74/74 73/73/73 72/72/72
f 74/74/74 75/75/75 73/73/73
f 75/75/75 76/76/76 73/73/73
f 77/77/77 72/72/72 69/69/69
f 78/78/78 77/77/77 69/69/69
f 77/77/77 78/78/78 79/79/79
f 78/78/78 80/80/80 79/79/79
f 80/80/80 78/78/78 81/81/81
f 80/80/80 81/81/81 82/82/82
f 83/83/83 80/80/80 82/82/82
f 83/83/83 82/82/82 84/84/84
f 80/80/80 85/85/85 79/79/79
f 79/79/79 85/85/85 86/86/86
f 79/79/79 86/86/86 77/77/77
f 85/85/85 87/87/87 86/86/86
f 85/85/85 88/88/88 87/87/87
f 86/86/86 89/89/89 77/77/77
f 77/77/77 89/89/89 90/90/90
f 91/91/91 77/77/77 90/90/90
f 90/90/90 92/92/92 91/91/91
f 93/93/93 90/90/90 89/89/89
f 89/89/89 86/86/86 94/94/94
f 94/94/94 86/86/86 95/95/95
f 96/96/96 89/89/89 94/94/94
f 94/94/94 97/97/97 96/96/96
f 100/100/100 99/99/99 98/98/98
f 99/99/99 100/100/100 101/101/101
f 102/102/102 99/99/99 101/101/101
f 103/103/103 102/102/102 101/101/101
f 106/106/106 105/105/105 104/104/104
f 104/104/104 107/107/107 106/106/106
f 107/107/107 108/108/108 106/106/106
f 111/111/111 110/110/110 109/109/109
f 111/111/111 112/112/112 110/110/110
f 112/112/112 113/113/113 110/110/110
f 114/114/114 110/110/110 113/113/113
f 115/115/115 113/113/113 112/112/112
f 116/116/116 114/114/114 113/113/113
f 113/113/113 115/115/115 117/117/117
f 116/116/116 113/113/113 117/117/117
f 117/117/117 118/118/118 116/116/116
f 117/117/117 119/119/119 118/118/118
f 119/119/119 120/120/120 118/118/118
f 120/120/120 119/119/119 121/121/121
f 120/120/120 121/121/121 122/122/122
f 123/123/123 120/120/120 122/122/122
f 123/123/123 122/122/122 124/124/124
f 127/127/127 126/126/126 125/125/125
f 126/126/126 128/128/128 125/125/125
f 128/128/128 126/126/126 129/129/129
f 130/130/130 128/128/128 129/129/129
f 133/133/133 132/132/132 131/131/131
f 132/132/132 61/61/61 131/131/131
f 136/136/136 135/135/135 134/134/134
f 135/135/135 137/137/137 134/134/134
f 137/137/137 138/138/138 134/134/134
f 139/139/139 138/138/138 137/137/137
f 142/142/142 141/141/141 140/140/140
f 141/141/141 143/143/143 140/140/140
f 143/143/143 144/144/144 140/140/140
f 147/147/147 146/146/146 145/145/145
f 145/145/145 148/148/148 147/147/147
f 145/145/145 149/149/149 148/148/148
f 148/148/148 149/149/149 150/150/150
f 151/151/151 148/148/148 150/150/150
f 151/151/151 150/150/150 152/152/152
f 153/153/153 151/151/151 152/152/152
f 151/151/151 153/153/153 154/154/154
f 157/157/157 156/156/156 155/155/155
f 157/157/157 155/155/155 158/158/158
f 155/155/155 159/159/159 158/158/158
f 160/160/160 158/158/158 159/159/159
f 155/155/155 161/161/161 159/159/159
f 160/160/160 159/159/159 162/162/162
f 159/159/159 161/161/161 162/162/162
f 161/161/161 163/163/163 162/162/162
f 166/166/166 165/165/165 164/164/164
f 167/167/167 166/166/166 164/164/164
f 167/167/167 164/164/164 168/168/168
f 171/171/171 170/170/170 169/169/169
f 172/172/172 171/171/171 169/169/169
f 169/169/169 173/173/173 172/172/172
f 172/172/172 174/174/174 171/171/171
f 172/172/172 173/173/173 175/175/175
f 174/174/174 172/172/172 175/175/175
f 178/178/178 177/177/177 176/176/176
f 178/178/178 176/176/176 179/179/179
f 177/177/177 178/178/178 180/180/180
f 181/181/181 177/177/177 180/180/180
f 180/180/180 182/182/182 181/181/181
f 183/183/183 178/178/178 179/179/179
f 180/180/180 178/178/178 183/183/183
f 179/179/179 184/184/184 183/183/183
f 183/183/183 184/184/184 185/185/185
f 182/182/182 180/180/180 186/186/186
f 186/186/186 180/180/180 183/183/183
f 186/186/186 183/183/183 185/185/185
f 187/187/187 182/182/182 186/186/186
f 186/186/186 185/185/185 187/187/187
f 190/190/190 189/189/189 188/188/188
f 188/188/188 189/189/189 191/191/191
f 188/188/188 192/192/192 190/190/190
f 192/192/192 193/193/193 190/190/190
f 192/192/192 194/194/194 193/193/193
f 195/195/195 188/188/188 191/191/191
f 192/192/192 188/188/188 195/195/195
f 194/194/194 192/192/192 195/195/195
f 196/196/196 195/195/195 191/191/191
f 196/196/196 194/194/194 195/195/195
