g ore_06_COL
v 0.7278733 0.6923909 -0.5544678
v 0.5099682 1.251397 -0.3726105
v -0.3192534 1.35503 -0.5076572
v -0.5133684 0.6922898 -0.7542041
v 0.5099682 1.251397 -0.3726105
v 0.4158553 1.251609 0.4602309
v -0.3823162 1.352772 0.4099423
v -0.3192534 1.35503 -0.5076572
v 0.4158553 1.251609 0.4602309
v 0.5873379 0.6924663 0.6880242
v -0.6040059 0.6912708 0.6079016
v -0.3823162 1.352772 0.4099423
v 0.4175324 -1.108248 0.4589789
v 0.5112312 -1.108014 -0.3711349
v -0.3160075 -1.234074 -0.5080947
v -0.3799441 -1.23123 0.4112475
v -0.5133684 0.6922898 -0.7542041
v -0.3192534 1.35503 -0.5076572
v -0.3823162 1.352772 0.4099423
v -0.6040059 0.6912708 0.6079016
v 0.5873379 0.6924663 0.6880242
v 0.4158553 1.251609 0.4602309
v 0.5099682 1.251397 -0.3726105
v 0.7278733 0.6923909 -0.5544678
v 0.5112312 -1.108014 -0.3711349
v 0.7278733 0.6923909 -0.5544678
v -0.5133684 0.6922898 -0.7542041
v -0.3160075 -1.234074 -0.5080947
v -0.3160075 -1.234074 -0.5080947
v -0.5133684 0.6922898 -0.7542041
v -0.6040059 0.6912708 0.6079016
v -0.3799441 -1.23123 0.4112475
v 0.5873379 0.6924663 0.6880242
v 0.4175324 -1.108248 0.4589789
v -0.3799441 -1.23123 0.4112475
v -0.6040059 0.6912708 0.6079016
v 0.4175324 -1.108248 0.4589789
v 0.5873379 0.6924663 0.6880242
v 0.7278733 0.6923909 -0.5544678
v 0.5112312 -1.108014 -0.3711349
vt 0.375 0.135377
vt 0.375 0.25
vt 0.625 0.25
vt 0.625 0.135377
vt 0.375 0.25
vt 0.375 0.5
vt 0.625 0.5
vt 0.625 0.25
vt 0.375 0.5
vt 0.375 0.614623
vt 0.625 0.614623
vt 0.625 0.5
vt 0.375 0.75
vt 0.375 1
vt 0.625 1
vt 0.625 0.75
vt 0.625 0.135377
vt 0.625 0.25
vt 0.875 0.25
vt 0.875 0.135377
vt 0.125 0.135377
vt 0.125 0.25
vt 0.375 0.25
vt 0.375 0.135377
vt 0.375 0
vt 0.375 0.135377
vt 0.625 0.135377
vt 0.625 0
vt 0.625 0
vt 0.625 0.135377
vt 0.875 0.135377
vt 0.875 0
vt 0.375 0.614623
vt 0.375 0.75
vt 0.625 0.75
vt 0.625 0.614623
vt 0.125 0
vt 0.125 0.135377
vt 0.375 0.135377
vt 0.375 0
vn 0.1667442 0.3291535 -0.9294376
vn 0.1667442 0.3291535 -0.9294376
vn 0.1667442 0.3291535 -0.9294376
vn 0.1667442 0.3291535 -0.9294376
vn 0.1234757 0.992272 0.01224622
vn 0.1234757 0.992272 0.01224622
vn 0.1234757 0.992272 0.01224622
vn 0.1234757 0.992272 0.01224622
vn -0.04517678 0.3306551 0.9426697
vn -0.04517677 0.330655 0.9426697
vn -0.04517678 0.3306551 0.9426697
vn -0.04517678 0.3306551 0.9426697
vn 0.1498331 -0.9885979 0.01497562
vn 0.1498331 -0.9885979 0.01497562
vn 0.1498331 -0.9885979 0.01497562
vn 0.1498331 -0.9885979 0.01497562
vn -0.9514639 0.3010925 -0.06371606
vn -0.9514639 0.3010925 -0.06371606
vn -0.9514639 0.3010926 -0.06371606
vn -0.9514639 0.3010926 -0.06371606
vn 0.9376963 0.3309003 0.105975
vn 0.9376963 0.3309003 0.1059751
vn 0.9376963 0.3309003 0.105975
vn 0.9376963 0.3309002 0.105975
vn 0.1663715 -0.1137283 -0.9794827
vn 0.1663715 -0.1137283 -0.9794827
vn 0.1663715 -0.1137283 -0.9794827
vn 0.1663715 -0.1137283 -0.9794827
vn -0.9917247 -0.109449 -0.06710439
vn -0.9917247 -0.109449 -0.06710439
vn -0.9917247 -0.1094489 -0.06710439
vn -0.9917247 -0.109449 -0.06710438
vn -0.05662953 -0.1142287 0.9918391
vn -0.05662953 -0.1142287 0.9918391
vn -0.05662953 -0.1142287 0.9918391
vn -0.05662953 -0.1142287 0.9918391
vn 0.9879241 -0.1074345 0.1116414
vn 0.9879241 -0.1074345 0.1116414
vn 0.9879241 -0.1074345 0.1116414
vn 0.9879241 -0.1074345 0.1116414
g ore_06_COL_0
f 3/3/3 2/2/2 1/1/1
f 4/4/4 3/3/3 1/1/1
f 7/7/7 6/6/6 5/5/5
f 8/8/8 7/7/7 5/5/5
f 11/11/11 10/10/10 9/9/9
f 12/12/12 11/11/11 9/9/9
f 15/15/15 14/14/14 13/13/13
f 16/16/16 15/15/15 13/13/13
f 19/19/19 18/18/18 17/17/17
f 20/20/20 19/19/19 17/17/17
f 23/23/23 22/22/22 21/21/21
f 24/24/24 23/23/23 21/21/21
f 27/27/27 26/26/26 25/25/25
f 28/28/28 27/27/27 25/25/25
f 31/31/31 30/30/30 29/29/29
f 32/32/32 31/31/31 29/29/29
f 35/35/35 34/34/34 33/33/33
f 36/36/36 35/35/35 33/33/33
f 39/39/39 38/38/38 37/37/37
f 40/40/40 39/39/39 37/37/37
