g ore_02_COL
v -1.372331 2.478699 0.3704989
v -1.027897 3.001363 0.2435896
v -0.03377222 3.087403 0.6793469
v 0.1327955 2.478737 1.027492
v -1.027897 3.001363 0.2435896
v -0.6563591 3.000312 -0.6355486
v 0.321085 3.086351 -0.3008162
v -0.03377222 3.087403 0.6793469
v -0.6563591 3.000312 -0.6355486
v -0.8099025 2.4786 -0.95713
v 0.6660032 2.478644 -0.4491407
v 0.321085 3.086351 -0.3008162
v -0.6485636 1.87852 -0.6189861
v -1.010121 1.877426 0.2369646
v -0.0444921 1.774291 0.6609071
v 0.3015262 1.775414 -0.2942727
v 0.1327955 2.478737 1.027492
v -0.03377222 3.087403 0.6793469
v 0.321085 3.086351 -0.3008162
v 0.6660032 2.478644 -0.4491407
v -0.8099025 2.4786 -0.95713
v -0.6563591 3.000312 -0.6355486
v -1.027897 3.001363 0.2435896
v -1.372331 2.478699 0.3704989
v -1.010121 1.877426 0.2369646
v -1.372331 2.478699 0.3704989
v 0.1327955 2.478737 1.027492
v -0.0444921 1.774291 0.6609071
v -0.0444921 1.774291 0.6609071
v 0.1327955 2.478737 1.027492
v 0.6660032 2.478644 -0.4491407
v 0.3015262 1.775414 -0.2942727
v -0.8099025 2.4786 -0.95713
v -0.6485636 1.87852 -0.6189861
v 0.3015262 1.775414 -0.2942727
v 0.6660032 2.478644 -0.4491407
v -0.6485636 1.87852 -0.6189861
v -0.8099025 2.4786 -0.95713
v -1.372331 2.478699 0.3704989
v -1.010121 1.877426 0.2369646
v -0.8863462 1.042553 0.7986218
v -0.509579 1.636334 0.3052339
v 0.2771275 1.713671 0.3052476
v 0.7624393 1.201616 0.8003147
v -0.509579 1.636334 0.3052339
v -0.501228 1.551588 -0.480635
v 0.285437 1.628921 -0.4806448
v 0.2771275 1.713671 0.3052476
v -0.501228 1.551588 -0.480635
v -0.8669763 0.8718956 -0.8444675
v 0.7764469 1.030322 -0.8458498
v 0.285437 1.628921 -0.4806448
v -0.5645655 -0.1056334 -0.5653671
v -0.5658135 -0.1023483 0.5692343
v 0.5715831 -0.0966825 0.5716122
v 0.5709358 -0.1003276 -0.5671004
v 0.7624393 1.201616 0.8003147
v 0.2771275 1.713671 0.3052476
v 0.285437 1.628921 -0.4806448
v 0.7764469 1.030322 -0.8458498
v -0.8669763 0.8718956 -0.8444675
v -0.501228 1.551588 -0.480635
v -0.509579 1.636334 0.3052339
v -0.8863462 1.042553 0.7986218
v -0.5658135 -0.1023483 0.5692343
v -0.8863462 1.042553 0.7986218
v 0.7624393 1.201616 0.8003147
v 0.5715831 -0.0966825 0.5716122
v 0.5715831 -0.0966825 0.5716122
v 0.7624393 1.201616 0.8003147
v 0.7764469 1.030322 -0.8458498
v 0.5709358 -0.1003276 -0.5671004
v -0.8669763 0.8718956 -0.8444675
v -0.5645655 -0.1056334 -0.5653671
v 0.5709358 -0.1003276 -0.5671004
v 0.7764469 1.030322 -0.8458498
v -0.5645655 -0.1056334 -0.5653671
v -0.8669763 0.8718956 -0.8444675
v -0.8863462 1.042553 0.7986218
v -0.5658135 -0.1023483 0.5692343
v -0.523778 6.578721 0.6723891
v -0.3512132 7.055962 0.411837
v 0.3372315 7.011798 0.1216166
v 0.481992 6.379525 0.2449813
v -0.3512132 7.055962 0.411837
v -0.6166226 7.051733 -0.1886254
v 0.01472861 7.01355 -0.5215784
v 0.3372315 7.011798 0.1216166
v -0.6166226 7.051733 -0.1886254
v -0.9186014 6.573886 -0.2249509
v 0.003054757 6.384269 -0.7075725
v 0.01472861 7.01355 -0.5215784
v -0.7867583 5.958695 -0.09935592
v -0.5281937 5.960423 0.4864446
v 0.1110347 5.724031 0.2198971
v -0.2039861 5.728368 -0.4098189
v 0.481992 6.379525 0.2449813
v 0.3372315 7.011798 0.1216166
v 0.01472861 7.01355 -0.5215784
v 0.003054757 6.384269 -0.7075725
v -0.9186014 6.573886 -0.2249509
v -0.6166226 7.051733 -0.1886254
v -0.3512132 7.055962 0.411837
v -0.523778 6.578721 0.6723891
v -0.5281937 5.960423 0.4864446
v -0.523778 6.578721 0.6723891
v 0.481992 6.379525 0.2449813
v 0.1110347 5.724031 0.2198971
v 0.1110347 5.724031 0.2198971
v 0.481992 6.379525 0.2449813
v 0.003054757 6.384269 -0.7075725
v -0.2039861 5.728368 -0.4098189
v -0.9186014 6.573886 -0.2249509
v -0.7867583 5.958695 -0.09935592
v -0.2039861 5.728368 -0.4098189
v 0.003054757 6.384269 -0.7075725
v -0.7867583 5.958695 -0.09935592
v -0.9186014 6.573886 -0.2249509
v -0.523778 6.578721 0.6723891
v -0.5281937 5.960423 0.4864446
v 0.7278733 5.152172 -0.5544678
v 0.5099682 5.711178 -0.3726105
v -0.3192534 5.814811 -0.5076572
v -0.5133684 5.152071 -0.7542041
v 0.5099682 5.711178 -0.3726105
v 0.4158553 5.71139 0.4602309
v -0.3823162 5.812553 0.4099423
v -0.3192534 5.814811 -0.5076572
v 0.4158553 5.71139 0.4602309
v 0.5873379 5.152247 0.6880242
v -0.6040059 5.151052 0.6079016
v -0.3823162 5.812553 0.4099423
v 0.4175324 3.351533 0.4589789
v 0.5112312 3.351768 -0.3711349
v -0.3160075 3.225707 -0.5080947
v -0.3799441 3.228552 0.4112475
v -0.5133684 5.152071 -0.7542041
v -0.3192534 5.814811 -0.5076572
v -0.3823162 5.812553 0.4099423
v -0.6040059 5.151052 0.6079016
v 0.5873379 5.152247 0.6880242
v 0.4158553 5.71139 0.4602309
v 0.5099682 5.711178 -0.3726105
v 0.7278733 5.152172 -0.5544678
v 0.5112312 3.351768 -0.3711349
v 0.7278733 5.152172 -0.5544678
v -0.5133684 5.152071 -0.7542041
v -0.3160075 3.225707 -0.5080947
v -0.3160075 3.225707 -0.5080947
v -0.5133684 5.152071 -0.7542041
v -0.6040059 5.151052 0.6079016
v -0.3799441 3.228552 0.4112475
v 0.5873379 5.152247 0.6880242
v 0.4175324 3.351533 0.4589789
v -0.3799441 3.228552 0.4112475
v -0.6040059 5.151052 0.6079016
v 0.4175324 3.351533 0.4589789
v 0.5873379 5.152247 0.6880242
v 0.7278733 5.152172 -0.5544678
v 0.5112312 3.351768 -0.3711349
vt 0.375 0.135377
vt 0.375 0.25
vt 0.625 0.25
vt 0.625 0.135377
vt 0.375 0.25
vt 0.375 0.5
vt 0.625 0.5
vt 0.625 0.25
vt 0.375 0.5
vt 0.375 0.614623
vt 0.625 0.614623
vt 0.625 0.5
vt 0.375 0.75
vt 0.375 1
vt 0.625 1
vt 0.625 0.75
vt 0.625 0.135377
vt 0.625 0.25
vt 0.875 0.25
vt 0.875 0.135377
vt 0.125 0.135377
vt 0.125 0.25
vt 0.375 0.25
vt 0.375 0.135377
vt 0.375 0
vt 0.375 0.135377
vt 0.625 0.135377
vt 0.625 0
vt 0.625 0
vt 0.625 0.135377
vt 0.875 0.135377
vt 0.875 0
vt 0.375 0.614623
vt 0.375 0.75
vt 0.625 0.75
vt 0.625 0.614623
vt 0.125 0
vt 0.125 0.135377
vt 0.375 0.135377
vt 0.375 0
vt 0.375 0.1493897
vt 0.375 0.25
vt 0.625 0.25
vt 0.625 0.1493897
vt 0.375 0.25
vt 0.375 0.5
vt 0.625 0.5
vt 0.625 0.25
vt 0.375 0.5
vt 0.375 0.6006103
vt 0.625 0.6006103
vt 0.625 0.5
vt 0.375 0.75
vt 0.375 1
vt 0.625 1
vt 0.625 0.75
vt 0.625 0.1493897
vt 0.625 0.25
vt 0.875 0.25
vt 0.875 0.1493897
vt 0.125 0.1493897
vt 0.125 0.25
vt 0.375 0.25
vt 0.375 0.1493897
vt 0.375 0
vt 0.375 0.1493897
vt 0.625 0.1493897
vt 0.625 0
vt 0.625 0
vt 0.625 0.1493897
vt 0.875 0.1493897
vt 0.875 0
vt 0.375 0.6006103
vt 0.375 0.75
vt 0.625 0.75
vt 0.625 0.6006103
vt 0.125 0
vt 0.125 0.1493897
vt 0.375 0.1493897
vt 0.375 0
vt 0.375 0.135377
vt 0.375 0.25
vt 0.625 0.25
vt 0.625 0.135377
vt 0.375 0.25
vt 0.375 0.5
vt 0.625 0.5
vt 0.625 0.25
vt 0.375 0.5
vt 0.375 0.614623
vt 0.625 0.614623
vt 0.625 0.5
vt 0.375 0.75
vt 0.375 1
vt 0.625 1
vt 0.625 0.75
vt 0.625 0.135377
vt 0.625 0.25
vt 0.875 0.25
vt 0.875 0.135377
vt 0.125 0.135377
vt 0.125 0.25
vt 0.375 0.25
vt 0.375 0.135377
vt 0.375 0
vt 0.375 0.135377
vt 0.625 0.135377
vt 0.625 0
vt 0.625 0
vt 0.625 0.135377
vt 0.875 0.135377
vt 0.875 0
vt 0.375 0.614623
vt 0.375 0.75
vt 0.625 0.75
vt 0.625 0.614623
vt 0.125 0
vt 0.125 0.135377
vt 0.375 0.135377
vt 0.375 0
vt 0.375 0.135377
vt 0.375 0.25
vt 0.625 0.25
vt 0.625 0.135377
vt 0.375 0.25
vt 0.375 0.5
vt 0.625 0.5
vt 0.625 0.25
vt 0.375 0.5
vt 0.375 0.614623
vt 0.625 0.614623
vt 0.625 0.5
vt 0.375 0.75
vt 0.375 1
vt 0.625 1
vt 0.625 0.75
vt 0.625 0.135377
vt 0.625 0.25
vt 0.875 0.25
vt 0.875 0.135377
vt 0.125 0.135377
vt 0.125 0.25
vt 0.375 0.25
vt 0.375 0.135377
vt 0.375 0
vt 0.375 0.135377
vt 0.625 0.135377
vt 0.625 0
vt 0.625 0
vt 0.625 0.135377
vt 0.875 0.135377
vt 0.875 0
vt 0.375 0.614623
vt 0.375 0.75
vt 0.625 0.75
vt 0.625 0.614623
vt 0.125 0
vt 0.125 0.135377
vt 0.375 0.135377
vt 0.375 0
vn -0.3774608 0.4083423 0.8311317
vn -0.3774608 0.4083423 0.8311318
vn -0.3774608 0.4083423 0.8311318
vn -0.3774608 0.4083423 0.8311318
vn -0.07508817 0.9967115 -0.03046289
vn -0.07508817 0.9967115 -0.03046289
vn -0.07508817 0.9967115 -0.03046289
vn -0.07508817 0.9967115 -0.03046289
vn 0.2835944 0.4089354 -0.8673788
vn 0.2835944 0.4089354 -0.8673789
vn 0.2835944 0.4089354 -0.8673788
vn 0.2835944 0.4089354 -0.8673788
vn -0.09251862 -0.9950098 -0.03736294
vn -0.09251862 -0.9950098 -0.03736294
vn -0.09251862 -0.9950098 -0.03736294
vn -0.09251861 -0.9950098 -0.03736294
vn 0.8572557 0.4113504 0.3096831
vn 0.8572557 0.4113503 0.309683
vn 0.8572557 0.4113503 0.309683
vn 0.8572557 0.4113503 0.309683
vn -0.8197168 0.4555667 -0.3471647
vn -0.8197169 0.4555667 -0.3471647
vn -0.8197168 0.4555667 -0.3471647
vn -0.8197168 0.4555667 -0.3471647
vn -0.3843741 -0.3771758 0.842612
vn -0.3843741 -0.3771758 0.842612
vn -0.3843741 -0.3771758 0.842612
vn -0.3843741 -0.3771758 0.842612
vn 0.8692384 -0.3817821 0.3141129
vn 0.8692384 -0.3817822 0.314113
vn 0.8692384 -0.3817822 0.314113
vn 0.8692384 -0.3817822 0.314113
vn 0.2862057 -0.3777115 -0.8805795
vn 0.2862057 -0.3777116 -0.8805796
vn 0.2862057 -0.3777116 -0.8805796
vn 0.2862057 -0.3777116 -0.8805796
vn -0.8341377 -0.4236655 -0.3531596
vn -0.8341377 -0.4236655 -0.3531597
vn -0.8341377 -0.4236656 -0.3531597
vn -0.8341377 -0.4236655 -0.3531596
vn -0.06473089 0.6614918 0.7471536
vn -0.06473088 0.6614918 0.7471536
vn -0.06473088 0.6614919 0.7471536
vn -0.06473088 0.6614918 0.7471536
vn -0.09726416 0.9894112 -0.1077275
vn -0.09726416 0.9894112 -0.1077275
vn -0.09726414 0.9894112 -0.1077275
vn -0.09726416 0.9894112 -0.1077275
vn -0.04816004 0.491274 -0.8696726
vn -0.04816004 0.491274 -0.8696726
vn -0.04816003 0.491274 -0.8696726
vn -0.04816004 0.491274 -0.8696726
vn 0.00482623 -0.9999838 0.003049731
vn 0.00482623 -0.9999838 0.003049731
vn 0.00482623 -0.9999838 0.003049731
vn 0.00482623 -0.9999838 0.003049731
vn 0.7532061 0.6548532 -0.06203064
vn 0.7532061 0.6548533 -0.06203064
vn 0.7532061 0.6548532 -0.06203064
vn 0.7532062 0.6548532 -0.06203065
vn -0.8649478 0.4979881 -0.0622346
vn -0.8649478 0.4979881 -0.06223459
vn -0.8649478 0.4979881 -0.06223459
vn -0.8649478 0.4979882 -0.0622346
vn 0.009430294 -0.183793 0.9829198
vn 0.009430294 -0.1837929 0.9829198
vn 0.009430294 -0.1837929 0.9829198
vn 0.009430294 -0.1837929 0.9829198
vn 0.9868855 -0.1607389 0.01483178
vn 0.9868855 -0.160739 0.01483178
vn 0.9868855 -0.1607389 0.01483179
vn 0.9868855 -0.160739 0.01483179
vn 0.01395124 -0.2551837 -0.9667919
vn 0.01395124 -0.2551838 -0.9667919
vn 0.01395124 -0.2551837 -0.9667919
vn 0.01395124 -0.2551837 -0.9667919
vn -0.9595382 -0.281383 0.01049827
vn -0.959538 -0.281383 0.01049827
vn -0.9595382 -0.281383 0.01049827
vn -0.9595382 -0.281383 0.01049828
vn 0.4082867 0.2893484 0.8657826
vn 0.4082868 0.2893484 0.8657826
vn 0.4082867 0.2893484 0.8657826
vn 0.4082868 0.2893484 0.8657826
vn 0.05016015 0.9984105 -0.0257011
vn 0.05016014 0.9984105 -0.0257011
vn 0.05016015 0.9984105 -0.0257011
vn 0.05016014 0.9984105 -0.02570111
vn -0.4112664 0.2900389 -0.8641397
vn -0.4112665 0.2900389 -0.8641397
vn -0.4112664 0.2900389 -0.8641397
vn -0.4112665 0.2900389 -0.8641397
vn -0.296008 -0.9452149 0.1376524
vn -0.296008 -0.9452147 0.1376524
vn -0.296008 -0.9452147 0.1376524
vn -0.296008 -0.9452149 0.1376524
vn 0.8878071 0.1157711 -0.4454163
vn 0.8878071 0.1157711 -0.4454163
vn 0.8878071 0.1157711 -0.4454163
vn 0.8878071 0.1157711 -0.4454162
vn -0.8030861 0.4814455 0.3510881
vn -0.8030861 0.4814455 0.3510881
vn -0.8030861 0.4814455 0.3510881
vn -0.8030861 0.4814455 0.3510881
vn 0.320708 -0.2460414 0.9146639
vn 0.320708 -0.2460414 0.9146639
vn 0.320708 -0.2460414 0.9146639
vn 0.320708 -0.2460414 0.9146639
vn 0.8025035 -0.4379539 -0.4051967
vn 0.8025035 -0.4379539 -0.4051967
vn 0.8025036 -0.4379539 -0.4051967
vn 0.8025035 -0.4379539 -0.4051967
vn -0.5048279 -0.2457416 -0.8275022
vn -0.5048278 -0.2457416 -0.8275023
vn -0.5048279 -0.2457416 -0.8275023
vn -0.5048279 -0.2457416 -0.8275023
vn -0.9090298 -0.1135266 0.4009695
vn -0.9090298 -0.1135266 0.4009695
vn -0.9090298 -0.1135266 0.4009694
vn -0.9090298 -0.1135266 0.4009694
vn 0.1667441 0.3291534 -0.9294376
vn 0.1667441 0.3291534 -0.9294376
vn 0.1667441 0.3291534 -0.9294376
vn 0.1667441 0.3291534 -0.9294376
vn 0.1234757 0.992272 0.01224599
vn 0.1234757 0.992272 0.01224599
vn 0.1234757 0.992272 0.01224599
vn 0.1234757 0.992272 0.01224598
vn -0.04517673 0.3306547 0.9426699
vn -0.04517673 0.3306547 0.9426699
vn -0.04517673 0.3306547 0.9426699
vn -0.04517673 0.3306547 0.9426699
vn 0.1498331 -0.9885979 0.01497516
vn 0.1498331 -0.9885979 0.01497516
vn 0.1498331 -0.9885979 0.01497516
vn 0.1498331 -0.9885979 0.01497516
vn -0.9514639 0.3010925 -0.06371612
vn -0.9514639 0.3010925 -0.06371612
vn -0.9514639 0.3010926 -0.06371612
vn -0.9514639 0.3010926 -0.06371612
vn 0.9376963 0.3309003 0.1059751
vn 0.9376963 0.3309003 0.1059751
vn 0.9376962 0.3309002 0.1059751
vn 0.9376963 0.3309002 0.1059751
vn 0.1663715 -0.1137284 -0.9794827
vn 0.1663715 -0.1137284 -0.9794827
vn 0.1663715 -0.1137283 -0.9794827
vn 0.1663715 -0.1137284 -0.9794827
vn -0.9917247 -0.109449 -0.06710441
vn -0.9917247 -0.109449 -0.06710441
vn -0.9917247 -0.1094489 -0.06710441
vn -0.9917247 -0.109449 -0.06710441
vn -0.05662955 -0.1142287 0.9918391
vn -0.05662955 -0.1142287 0.9918391
vn -0.05662956 -0.1142287 0.9918391
vn -0.05662955 -0.1142287 0.9918391
vn 0.9879241 -0.1074345 0.1116413
vn 0.9879241 -0.1074345 0.1116413
vn 0.9879241 -0.1074345 0.1116413
vn 0.9879241 -0.1074345 0.1116413
g ore_02_COL_0
f 3/3/3 2/2/2 1/1/1
f 4/4/4 3/3/3 1/1/1
f 7/7/7 6/6/6 5/5/5
f 8/8/8 7/7/7 5/5/5
f 11/11/11 10/10/10 9/9/9
f 12/12/12 11/11/11 9/9/9
f 15/15/15 14/14/14 13/13/13
f 16/16/16 15/15/15 13/13/13
f 19/19/19 18/18/18 17/17/17
f 20/20/20 19/19/19 17/17/17
f 23/23/23 22/22/22 21/21/21
f 24/24/24 23/23/23 21/21/21
f 27/27/27 26/26/26 25/25/25
f 28/28/28 27/27/27 25/25/25
f 31/31/31 30/30/30 29/29/29
f 32/32/32 31/31/31 29/29/29
f 35/35/35 34/34/34 33/33/33
f 36/36/36 35/35/35 33/33/33
f 39/39/39 38/38/38 37/37/37
f 40/40/40 39/39/39 37/37/37
f 43/43/43 42/42/42 41/41/41
f 44/44/44 43/43/43 41/41/41
f 47/47/47 46/46/46 45/45/45
f 48/48/48 47/47/47 45/45/45
f 51/51/51 50/50/50 49/49/49
f 52/52/52 51/51/51 49/49/49
f 55/55/55 54/54/54 53/53/53
f 56/56/56 55/55/55 53/53/53
f 59/59/59 58/58/58 57/57/57
f 60/60/60 59/59/59 57/57/57
f 63/63/63 62/62/62 61/61/61
f 64/64/64 63/63/63 61/61/61
f 67/67/67 66/66/66 65/65/65
f 68/68/68 67/67/67 65/65/65
f 71/71/71 70/70/70 69/69/69
f 72/72/72 71/71/71 69/69/69
f 75/75/75 74/74/74 73/73/73
f 76/76/76 75/75/75 73/73/73
f 79/79/79 78/78/78 77/77/77
f 80/80/80 79/79/79 77/77/77
f 83/83/83 82/82/82 81/81/81
f 84/84/84 83/83/83 81/81/81
f 87/87/87 86/86/86 85/85/85
f 88/88/88 87/87/87 85/85/85
f 91/91/91 90/90/90 89/89/89
f 92/92/92 91/91/91 89/89/89
f 95/95/95 94/94/94 93/93/93
f 96/96/96 95/95/95 93/93/93
f 99/99/99 98/98/98 97/97/97
f 100/100/100 99/99/99 97/97/97
f 103/103/103 102/102/102 101/101/101
f 104/104/104 103/103/103 101/101/101
f 107/107/107 106/106/106 105/105/105
f 108/108/108 107/107/107 105/105/105
f 111/111/111 110/110/110 109/109/109
f 112/112/112 111/111/111 109/109/109
f 115/115/115 114/114/114 113/113/113
f 116/116/116 115/115/115 113/113/113
f 119/119/119 118/118/118 117/117/117
f 120/120/120 119/119/119 117/117/117
f 123/123/123 122/122/122 121/121/121
f 124/124/124 123/123/123 121/121/121
f 127/127/127 126/126/126 125/125/125
f 128/128/128 127/127/127 125/125/125
f 131/131/131 130/130/130 129/129/129
f 132/132/132 131/131/131 129/129/129
f 135/135/135 134/134/134 133/133/133
f 136/136/136 135/135/135 133/133/133
f 139/139/139 138/138/138 137/137/137
f 140/140/140 139/139/139 137/137/137
f 143/143/143 142/142/142 141/141/141
f 144/144/144 143/143/143 141/141/141
f 147/147/147 146/146/146 145/145/145
f 148/148/148 147/147/147 145/145/145
f 151/151/151 150/150/150 149/149/149
f 152/152/152 151/151/151 149/149/149
f 155/155/155 154/154/154 153/153/153
f 156/156/156 155/155/155 153/153/153
f 159/159/159 158/158/158 157/157/157
f 160/160/160 159/159/159 157/157/157
