g model_mintmango
v -0.4518048 1.670209 0.04296543
v -0.5863605 1.690151 0.140035
v -0.5519751 1.796005 -0.00249649
v -0.5863605 1.690151 0.140035
v -0.665509 1.656216 -0.018983
v -0.5519751 1.796005 -0.00249649
v -0.527409 1.577121 0.03198685
v -0.4518048 1.670209 0.04296543
v -0.3696027 1.361636 -0.001461601
v -0.297085 1.406099 0.00343256
v -0.2177136 1.077516 0.03053827
v -0.2728686 1.053997 -0.03482832
v -0.2177136 1.077516 0.03053827
v -0.3023614 0.8936047 0.01016844
v -0.2412115 0.9044195 0.09230433
v -0.1222382 0.9769726 0.1004891
v -0.2177136 1.077516 0.03053827
v -0.1568402 1.08936 -0.0737147
v -0.0565564 1.002844 0.01026699
v -0.297085 1.406099 0.00343256
v -0.1568402 1.08936 -0.0737147
v -0.1225482 0.9664661 -0.07489204
v -0.3371033 1.388796 -0.07526594
v -0.5045111 1.647611 -0.06292743
v -0.4518048 1.670209 0.04296543
v -0.5519751 1.796005 -0.00249649
v -0.5519751 1.796005 -0.00249649
v -0.665509 1.656216 -0.018983
v -0.5045111 1.647611 -0.06292743
v -0.527409 1.577121 0.03198685
v -0.3371033 1.388796 -0.07526594
v -0.3696027 1.361636 -0.001461601
v -0.2728686 1.053997 -0.03482832
v -0.1568402 1.08936 -0.0737147
v -0.2467566 0.9258538 -0.06827369
v -0.3023614 0.8936047 0.01016844
v -0.6693988 -0.693999 -0.3769722
v -0.941242 -0.3306158 -0.03429741
v -0.7034577 -0.7106653 -0.01215767
v -0.3687933 -1.030647 -0.003632011
v -0.8585681 -0.3070135 -0.4279371
v -1.036181 0.07048035 -0.05473076
v -0.9115015 0.09415954 -0.4455011
v -0.9457739 0.4730481 -0.04770607
v -0.6546252 -0.3053845 -0.7206023
v -0.8522797 0.4702344 -0.4240274
v -0.7473138 0.7526538 -0.02369377
v -0.6743152 0.09637695 -0.7543764
v -0.3588293 -0.98276 -0.3555634
v 0.04491394 -1.16218 -0.300971
v 0.05384521 -1.195585 0.02034802
v 0.4006482 -1.090885 0.006995735
v -0.3523102 -0.757735 -0.6427877
v -0.3677136 -0.3398053 -0.8573385
v -0.02035461 -0.8074646 -0.6234887
v -0.699599 0.7381238 -0.3889821
v -0.6700598 0.4719146 -0.7076495
v -0.363222 0.1413208 -0.9337541
v -0.004346313 -0.3702063 -0.8710673
v 0.2985761 -0.7329559 -0.5837063
v 0.3833435 -0.9817346 -0.3282823
v 0.5604669 -0.6599597 -0.3318799
v 0.5882672 -0.6709484 -0.02200588
v 0.6903137 -0.2635254 -0.3471904
v 0.7452185 -0.2741778 -0.022183
v 0.5708618 -0.3151483 -0.6495474
v 0.5716052 -0.1346661 -0.6170074
v 0.3502801 0.2130731 -0.8462677
v 0.308172 -0.3155768 -0.8032771
v -0.006980591 0.2102991 -0.9882249
v -0.3888684 0.5372656 -0.8461288
v -0.03492615 0.6042621 -0.8962344
v -0.6308575 0.7220514 -0.6249997
v -0.4498383 0.8326483 -0.672033
v -0.07304443 0.9051904 -0.6948444
v 0.3448553 0.7400836 -0.84785
v -0.5191388 0.9457916 -0.3856099
v 0.7061957 0.2152838 -0.7444856
v 0.5716052 -0.1346661 -0.6170074
v 0.6903137 -0.2635254 -0.3471904
v 0.9135944 0.2162488 -0.4387804
v 0.7452185 -0.2741778 -0.022183
v 0.7327331 0.7781091 -0.7049921
v 0.9799139 0.1969965 -0.03719192
v 0.6903229 -0.2499005 0.2979943
v -0.3314886 0.9965405 -0.3908321
v -0.5317425 0.9452215 -0.1301966
v -0.5201209 0.9074463 -0.003641701
v -0.184118 0.9558282 0.003813171
v -0.2053912 0.977359 -0.3935407
v 0.9533111 0.8093573 -0.4081396
v 0.9135944 0.1846771 0.3633434
v 0.5777521 -0.1223889 0.545558
v 1.012433 0.7831622 -0.02105781
v 0.7060815 0.1512738 0.6599563
v 0.3503918 0.1195764 0.7508899
v 0.9533111 0.7408691 0.3645973
v 0.7355902 0.6585999 0.6526732
v 0.7020422 1.218721 0.05490768
v 0.6678552 1.209664 -0.3572125
v 0.6678552 1.143893 0.3848699
v 0.5941235 1.070345 -0.6173301
v 0.2526672 1.065575 -0.6727549
v 0.2037793 1.29911 -0.3665152
v 0.7020422 1.218721 0.05490768
v -0.08565063 1.116459 -0.384384
v -0.2053912 0.977359 -0.3935407
v -0.184118 0.9558282 0.003813171
v 0.2084216 1.325573 -0.1555948
v 0.2121374 1.24374 -0.0260157
v 0.5941235 0.9609967 0.6164294
v 0.2037793 1.230308 0.4097593
v 0.7020422 1.218721 0.05490768
v 0.3448547 0.5858068 0.792751
v 0.2080377 1.299313 0.1122172
v 0.2121374 1.24374 -0.0260157
v -0.184118 0.9558282 0.003813171
v 0.2526672 0.9455737 0.6726617
v -0.1406238 1.011428 0.3923701
v -0.2232684 0.9077575 0.387777
v -0.1217859 0.7759351 0.6705077
v -0.03492615 0.4200452 0.8151529
v -0.006856689 0.05479919 0.8689995
v -0.3888684 0.3947137 0.7803897
v -0.3615875 0.006339111 0.8325755
v -0.4498383 0.6945715 0.6337792
v -0.2232684 0.9077575 0.387777
v -0.004346313 -0.3875867 0.7819589
v -0.3678595 -0.3933264 0.7957917
v 0.3082049 -0.3124054 0.7144403
v 0.5777521 -0.1223889 0.545558
v 0.5708765 -0.3041907 0.5801931
v 0.6903229 -0.2499005 0.2979943
v 0.5604669 -0.6256042 0.2825232
v 0.5882672 -0.6709484 -0.02200588
v 0.4006482 -1.090885 0.006995735
v 0.2985761 -0.6703473 0.5410455
v -0.02044434 -0.7458417 0.5904936
v 0.04491394 -1.104502 0.3228139
v 0.36203 -0.9529107 0.3306445
v 0.05384521 -1.195585 0.02034802
v -0.3687933 -1.030647 -0.003632011
v -0.3524237 -0.7265979 0.6110864
v -0.3588293 -0.9456396 0.3418761
v -0.670871 -0.6976886 0.3502446
v -0.7034577 -0.7106653 -0.01215767
v -0.6587896 -0.360766 0.6778643
v -0.8559039 -0.3527643 0.3786912
v -0.941242 -0.3306158 -0.03429741
v -0.6752819 -0.02783813 0.6670044
v -0.9101397 0.01856445 0.3596625
v -1.036181 0.07048035 -0.05473076
v -0.6688355 0.3351959 0.6250768
v -0.8533838 0.3883124 0.3454432
v -0.9457739 0.4730481 -0.04770607
v -0.6278515 0.5869714 0.5654892
v -0.6985406 0.6545465 0.3332098
v -0.7473138 0.7526538 -0.02369377
v -0.5158917 0.8670764 0.4000852
v -0.5304291 0.9629089 0.1609843
v -0.5201209 0.9074463 -0.003641701
v -0.184118 0.9558282 0.003813171
v -1.709919 -0.3252148 0.2360551
v -1.458278 0.2225177 -0.07194473
v -1.284557 0.1483844 0.1128247
v -1.291728 0.1413257 0.3056599
v -1.045494 0.7254925 0.353688
v -1.148777 1.001704 0.1369616
v -0.8430102 1.140643 0.3386754
v -0.5164002 1.594476 0.01114712
v -1.148777 1.001704 0.1369616
v -1.076873 1.235285 -0.181081
v -1.280174 0.8322442 -0.211429
vt 0.8782192 0.907384
vt 0.9105057 0.9406373
vt 0.864717 0.9812466
vt 0.9105057 0.9406373
vt 0.9567533 0.975535
vt 0.864717 0.9812466
vt 0.9305768 0.8916584
vt 0.8782192 0.907384
vt 0.9083835 0.7765801
vt 0.8729385 0.7805519
vt 0.901338 0.6367072
vt 0.9373686 0.6487236
vt 0.901338 0.6367072
vt 0.9885155 0.6048622
vt 0.9583189 0.5745471
vt 0.9059537 0.5668377
vt 0.901338 0.6367072
vt 0.8471887 0.6315068
vt 0.8636339 0.5677997
vt 0.8729385 0.7805519
vt 0.8471887 0.6315068
vt 0.8235924 0.5800039
vt 0.834522 0.7807336
vt 0.8294016 0.9130114
vt 0.8782192 0.907384
vt 0.864717 0.9812466
vt 0.864717 0.9812466
vt 0.7847365 0.9681193
vt 0.8294016 0.9130114
vt 0.7821707 0.8942239
vt 0.834522 0.7807336
vt 0.7982904 0.7789438
vt 0.7933155 0.6444983
vt 0.8471887 0.6315068
vt 0.7727807 0.593058
vt 0.7326174 0.6089151
vt 0.883087 0.1647918
vt 0.9793274 0.2325973
vt 0.937604 0.1306413
vt 0.8591838 0.04801393
vt 0.9108847 0.2405229
vt 0.9823527 0.3132706
vt 0.9112423 0.3123074
vt 0.9508071 0.4125015
vt 0.8507206 0.2408203
vt 0.8903294 0.3950579
vt 0.8992437 0.5025273
vt 0.8468607 0.3104546
vt 0.8243067 0.1028917
vt 0.7502653 0.05928695
vt 0.7552438 0.006148815
vt 0.6657446 0.01585621
vt 0.8076824 0.1602781
vt 0.7970178 0.2349696
vt 0.7485123 0.1403078
vt 0.8552698 0.4571297
vt 0.8379143 0.3835953
vt 0.7880285 0.3100814
vt 0.7364966 0.2263389
vt 0.6869427 0.1393253
vt 0.6781756 0.07927036
vt 0.6155872 0.1223207
vt 0.576836 0.08502448
vt 0.5668132 0.2102996
vt 0.4988781 0.2001097
vt 0.6283783 0.2164051
vt 0.6188773 0.2299534
vt 0.6696146 0.3077126
vt 0.6805503 0.2244446
vt 0.7299575 0.3102668
vt 0.785578 0.3838558
vt 0.7278003 0.3847616
vt 0.8260376 0.4293342
vt 0.7909236 0.4425724
vt 0.7240831 0.4506047
vt 0.6662297 0.3903747
vt 0.8098474 0.4914706
vt 0.6143734 0.306731
vt 0.6188773 0.2299534
vt 0.5668132 0.2102996
vt 0.5609466 0.3054407
vt 0.4988781 0.2001097
vt 0.6063037 0.3891358
vt 0.5023405 0.3037889
vt 0.4343835 0.2138023
vt 0.7740397 0.5010873
vt 0.8311756 0.5277792
vt 0.8411622 0.5481781
vt 0.7562779 0.5817739
vt 0.7492164 0.5048003
vt 0.5537541 0.3925166
vt 0.443644 0.3045856
vt 0.3855999 0.2370118
vt 0.5010102 0.3929881
vt 0.3892314 0.3054599
vt 0.3343461 0.3058994
vt 0.4492151 0.3865913
vt 0.3991632 0.3800057
vt 0.4900196 0.5134124
vt 0.5667652 0.4812093
vt 0.4341723 0.4785162
vt 0.6080596 0.4480973
vt 0.6638169 0.4604903
vt 0.6441373 0.5223249
vt 0.4900196 0.5134124
vt 0.7139418 0.5148733
vt 0.7492164 0.5048003
vt 0.7562779 0.5817739
vt 0.6296023 0.5552851
vt 0.6257492 0.577198
vt 0.3945951 0.4360815
vt 0.3512903 0.5078602
vt 0.4900196 0.5134124
vt 0.3362914 0.3789693
vt 0.3678626 0.5589882
vt 0.3690416 0.5835108
vt 0.2449064 0.5653818
vt 0.3392115 0.4442542
vt 0.2738466 0.4992866
vt 0.2489051 0.4912038
vt 0.2678541 0.4344193
vt 0.2751199 0.3694249
vt 0.2731602 0.3065014
vt 0.2173252 0.372705
vt 0.2146555 0.306994
vt 0.2118788 0.4260809
vt 0.2489051 0.4912038
vt 0.267011 0.2268012
vt 0.2062931 0.2332732
vt 0.3232497 0.2264942
vt 0.3855999 0.2370118
vt 0.3752628 0.2200814
vt 0.4343835 0.2138023
vt 0.386512 0.1326722
vt 0.4254517 0.09091717
vt 0.3344647 0.02939475
vt 0.3170431 0.1529115
vt 0.2548556 0.1548986
vt 0.2523296 0.07743293
vt 0.3190497 0.0924758
vt 0.2465376 0.02454293
vt 0.1438779 0.06157082
vt 0.1959519 0.1718038
vt 0.177772 0.117207
vt 0.1214213 0.1728812
vt 0.06789899 0.1442196
vt 0.1550245 0.2393839
vt 0.09715456 0.2402235
vt 0.02407336 0.238286
vt 0.1555871 0.3076675
vt 0.09195662 0.3107865
vt 0.01764721 0.3143184
vt 0.1631913 0.3732982
vt 0.1104943 0.3879217
vt 0.04866588 0.4122126
vt 0.1756488 0.4134583
vt 0.1443614 0.442909
vt 0.1008047 0.4948359
vt 0.1933483 0.4718861
vt 0.1765444 0.5132543
vt 0.1600814 0.5366061
vt 0.2449064 0.5653818
vt 0.03281856 0.5295299
vt 0.1736311 0.7373091
vt 0.2252614 0.658545
vt 0.2574398 0.5970004
vt 0.4654505 0.6976795
vt 0.4785818 0.8281942
vt 0.6129362 0.7888075
vt 0.7548085 0.9755165
vt 0.4785818 0.8281942
vt 0.5036681 0.9693677
vt 0.3491672 0.8993095
vn 0.8476548 0.414048 0.3317311
vn -0.3627068 0.1869115 0.9129665
vn -0.1044403 0.9819691 -0.1575724
vn -0.3627068 0.1869115 0.9129665
vn -0.9571803 -0.06797047 -0.2814001
vn -0.1044403 0.9819691 -0.1575724
vn -0.5520845 -0.7133175 0.4317187
vn 0.8476548 0.414048 0.3317311
vn -0.7614572 -0.4289966 0.4859473
vn 0.7998489 0.4321128 0.4165578
vn 0.03328355 0.4787895 0.8772986
vn -0.8883598 -0.01275196 -0.4589707
vn 0.03328355 0.4787895 0.8772986
vn -0.887888 0.2697493 0.3726797
vn -0.6624814 0.3286685 0.6731236
vn 0.1928521 0.7176581 0.6691598
vn 0.03328355 0.4787895 0.8772986
vn 0.5143072 0.5229769 -0.6796936
vn 0.5438637 0.7927514 0.2752408
vn 0.7998489 0.4321128 0.4165578
vn 0.5143072 0.5229769 -0.6796936
vn 0.05078599 0.1317072 -0.9899868
vn 0.07393789 0.1410342 -0.9872399
vn 0.1951843 0.137885 -0.9710256
vn 0.8476548 0.414048 0.3317311
vn -0.1044403 0.9819691 -0.1575724
vn -0.1044403 0.9819691 -0.1575724
vn -0.9571803 -0.06797047 -0.2814001
vn 0.1951843 0.137885 -0.9710256
vn -0.5520845 -0.7133175 0.4317187
vn 0.07393789 0.1410342 -0.9872399
vn -0.7614572 -0.4289966 0.4859473
vn -0.8883598 -0.01275196 -0.4589707
vn 0.5143072 0.5229769 -0.6796936
vn -0.418815 0.05712809 -0.9062727
vn -0.887888 0.2697493 0.3726797
vn -0.7625653 -0.5679747 -0.3096756
vn -0.9394761 -0.3423266 -0.01403824
vn -0.8147484 -0.5796949 -0.01178228
vn -0.5252725 -0.850076 0.03820297
vn -0.8833807 -0.2931974 -0.3656142
vn -0.9999808 0.004775831 -0.003960619
vn -0.9064623 0.002071738 -0.4222815
vn -0.9342768 0.3553421 0.02930661
vn -0.6402712 -0.2320734 -0.7322531
vn -0.8844089 0.2976856 -0.3594498
vn -0.8050575 0.5892351 0.06844267
vn -0.657124 -0.003991318 -0.753772
vn -0.4741416 -0.8045446 -0.3576281
vn 0.002475239 -0.9026867 -0.4302913
vn -0.07126688 -0.9930509 0.09365273
vn 0.6636499 -0.7462168 0.05224204
vn -0.2654237 -0.5658864 -0.7805913
vn -0.2192259 -0.283664 -0.9335281
vn 0.08648186 -0.5484706 -0.8316856
vn -0.7789497 0.5816325 -0.234395
vn -0.6723683 0.2187448 -0.7071574
vn -0.2780216 -0.01412808 -0.9604709
vn 0.1054711 -0.3205229 -0.9413505
vn 0.3805983 -0.515147 -0.7679639
vn 0.592671 -0.6463827 -0.4805522
vn 0.8661785 -0.407066 -0.2898828
vn 0.9295324 -0.3685425 0.01208384
vn 0.9298295 -0.3117876 -0.1954625
vn 0.9379345 -0.3465587 0.01326373
vn 0.6947481 -0.2313701 -0.6810235
vn 0.6519448 -0.03395357 -0.7575059
vn 0.3123796 -0.03661273 -0.9492515
vn 0.3737143 -0.2532751 -0.8922944
vn 0.08390272 -0.01162735 -0.9964061
vn -0.3076245 0.3009361 -0.9026653
vn -0.02587063 0.3021957 -0.9528947
vn -0.6667365 0.4899395 -0.5616242
vn -0.3399354 0.6529781 -0.6768039
vn -0.222208 0.6205562 -0.7520198
vn 0.1794696 0.2467279 -0.9523213
vn -0.4393238 0.8787248 -0.1866478
vn 0.6082039 -0.1494473 -0.7795855
vn 0.6698872 -0.4560767 -0.5858713
vn 0.8407857 -0.4532792 -0.2960022
vn 0.9068421 -0.2134342 -0.3634325
vn 0.8912023 -0.4535331 -0.008139663
vn 0.5889063 0.1959791 -0.78408
vn 0.9712011 -0.2380434 -0.01017396
vn 0.8370908 -0.4709529 0.2783566
vn -0.1464256 0.9716019 -0.1858746
vn -0.451427 0.8915309 0.03723385
vn -0.3335959 0.8944989 0.297633
vn -0.1107823 0.9881502 0.1062376
vn 0.1488499 0.9870257 -0.06019868
vn 0.9142018 0.2445578 -0.3231508
vn 0.9091206 -0.2325468 0.3455744
vn 0.6488389 -0.4933514 0.5793208
vn 0.9697426 0.2437121 0.01427184
vn 0.5983049 -0.1941055 0.7774022
vn 0.2888068 -0.07141078 0.9547204
vn 0.9123017 0.1999581 0.3573824
vn 0.5846927 0.1230536 0.8018681
vn 0.6080583 0.7898349 0.08016159
vn 0.5389702 0.7967212 -0.273398
vn 0.518725 0.7463768 0.4169486
vn 0.3686203 0.6355664 -0.6783616
vn -0.05321808 0.6720114 -0.7386261
vn -0.1707264 0.9456211 -0.2768629
vn 0.6080583 0.7898349 0.08016159
vn -0.560092 0.7901447 -0.2489342
vn -0.7421601 0.6497038 -0.1645697
vn -0.6309864 0.7684817 0.106264
vn -0.1733282 0.9826275 0.06633743
vn -0.280609 0.8078844 0.5182484
vn 0.3683977 0.5092317 0.7777957
vn -0.2070419 0.8859519 0.4149976
vn 0.6080583 0.7898349 0.08016159
vn 0.1479513 0.1452728 0.978267
vn -0.2318377 0.9698802 0.07472521
vn -0.2729655 0.8897643 -0.3657994
vn -0.6194817 0.7844315 0.03015916
vn -0.06254634 0.5343952 0.8429173
vn -0.5489603 0.7526711 0.3634949
vn -0.7622362 0.596507 0.2513471
vn -0.2204849 0.4861468 0.8456049
vn -0.0253504 0.1902754 0.9814035
vn 0.0961124 -0.03962245 0.9945815
vn -0.2880814 0.2213388 0.9316749
vn -0.2422452 0.001219922 0.9702143
vn -0.3625167 0.4953324 0.7894475
vn -0.08131298 0.9229692 0.376186
vn 0.1431691 -0.3074078 0.9407461
vn -0.1600513 -0.264917 0.9508957
vn 0.3607804 -0.242077 0.9006866
vn 0.623255 -0.03399565 0.7812794
vn 0.6752321 -0.237213 0.6984208
vn 0.9220808 -0.3201307 0.2174474
vn 0.8613446 -0.4008892 0.3120472
vn 0.9295324 -0.3685425 0.01208384
vn 0.6636499 -0.7462168 0.05224204
vn 0.3950533 -0.4748187 0.7864351
vn 0.1368304 -0.5101173 0.8491511
vn 0.001445722 -0.8424532 0.5387676
vn 0.5730577 -0.5944836 0.5640871
vn -0.07126688 -0.9930509 0.09365273
vn -0.5252725 -0.850076 0.03820297
vn -0.209486 -0.5816274 0.7860185
vn -0.4335791 -0.8042411 0.4064549
vn -0.7508743 -0.5929716 0.2908136
vn -0.8147484 -0.5796949 -0.01178228
vn -0.6322149 -0.2074901 0.7464932
vn -0.8980193 -0.2904608 0.3304452
vn -0.9394761 -0.3423266 -0.01403824
vn -0.6556765 0.02425948 0.754652
vn -0.9148284 0.008343661 0.4037564
vn -0.9999808 0.004775831 -0.003960619
vn -0.6682351 0.1805729 0.7217031
vn -0.8742898 0.2785542 0.3975234
vn -0.9342768 0.3553421 0.02930661
vn -0.6727836 0.402998 0.6204472
vn -0.7830287 0.5137661 0.3505861
vn -0.8050575 0.5892351 0.06844267
vn -0.5647998 0.7057491 0.4276907
vn -0.5169013 0.8368806 0.1801222
vn -0.3199139 0.89162 -0.3204197
vn 0.04504139 0.9975079 0.05430587
vn -0.5969049 0.6562194 0.4616066
vn -0.8023259 0.3051935 0.5129619
vn -0.8367478 0.3385413 0.4303984
vn -0.8944603 0.3473802 0.2815455
vn -0.8719605 0.2417934 0.4257003
vn -0.7674488 0.4058021 0.4963335
vn -0.6036676 0.641721 0.4730538
vn -0.5840154 0.707501 0.3979551
vn -0.8274961 0.4081448 0.3855752
vn -0.6738294 0.6599308 0.332333
vn -0.8756412 0.2554621 0.4098678
g model_mintmango_0
f 3/3/3 2/2/2 1/1/1
f 6/6/6 5/5/5 4/4/4
f 4/4/4 5/5/5 7/7/7
f 8/8/8 4/4/4 7/7/7
f 8/8/8 7/7/7 9/9/9
f 10/10/10 8/8/8 9/9/9
f 10/10/10 9/9/9 11/11/11
f 13/13/13 9/9/9 12/12/12
f 13/13/13 12/12/12 14/14/14
f 15/15/15 11/11/11 14/14/14
f 16/16/16 11/11/11 15/15/15
f 18/18/18 17/17/17 16/16/16
f 19/19/19 18/18/18 16/16/16
f 18/18/18 20/20/20 17/17/17
f 22/22/22 21/21/21 19/19/19
f 23/23/23 20/20/20 21/21/21
f 23/23/23 24/24/24 20/20/20
f 24/24/24 25/25/25 20/20/20
f 24/24/24 26/26/26 25/25/25
f 28/28/28 27/27/27 24/24/24
f 30/30/30 28/28/28 29/29/29
f 30/30/30 29/29/29 31/31/31
f 32/32/32 30/30/30 31/31/31
f 32/32/32 31/31/31 33/33/33
f 33/33/33 23/23/23 34/34/34
f 33/33/33 34/34/34 22/22/22
f 35/35/35 33/33/33 22/22/22
f 36/36/36 33/33/33 35/35/35
f 39/39/39 38/38/38 37/37/37
f 40/40/40 39/39/39 37/37/37
f 38/38/38 41/41/41 37/37/37
f 38/38/38 42/42/42 41/41/41
f 42/42/42 43/43/43 41/41/41
f 42/42/42 44/44/44 43/43/43
f 37/37/37 41/41/41 45/45/45
f 41/41/41 43/43/43 45/45/45
f 44/44/44 46/46/46 43/43/43
f 44/44/44 47/47/47 46/46/46
f 43/43/43 48/48/48 45/45/45
f 43/43/43 46/46/46 48/48/48
f 40/40/40 37/37/37 49/49/49
f 40/40/40 49/49/49 50/50/50
f 51/51/51 40/40/40 50/50/50
f 52/52/52 51/51/51 50/50/50
f 49/49/49 37/37/37 53/53/53
f 53/53/53 37/37/37 45/45/45
f 50/50/50 49/49/49 53/53/53
f 45/45/45 54/54/54 53/53/53
f 45/45/45 48/48/48 54/54/54
f 50/50/50 53/53/53 55/55/55
f 53/53/53 54/54/54 55/55/55
f 47/47/47 56/56/56 46/46/46
f 46/46/46 57/57/57 48/48/48
f 46/46/46 56/56/56 57/57/57
f 48/48/48 58/58/58 54/54/54
f 48/48/48 57/57/57 58/58/58
f 54/54/54 59/59/59 55/55/55
f 54/54/54 58/58/58 59/59/59
f 50/50/50 55/55/55 60/60/60
f 55/55/55 59/59/59 60/60/60
f 52/52/52 50/50/50 61/61/61
f 61/61/61 50/50/50 60/60/60
f 52/52/52 61/61/61 62/62/62
f 62/62/62 61/61/61 60/60/60
f 63/63/63 52/52/52 62/62/62
f 63/63/63 62/62/62 64/64/64
f 65/65/65 63/63/63 64/64/64
f 64/64/64 62/62/62 66/66/66
f 66/66/66 62/62/62 60/60/60
f 64/64/64 66/66/66 67/67/67
f 68/68/68 67/67/67 66/66/66
f 60/60/60 69/69/69 66/66/66
f 59/59/59 69/69/69 60/60/60
f 69/69/69 68/68/68 66/66/66
f 59/59/59 70/70/70 69/69/69
f 70/70/70 68/68/68 69/69/69
f 58/58/58 70/70/70 59/59/59
f 58/58/58 71/71/71 70/70/70
f 57/57/57 71/71/71 58/58/58
f 70/70/70 72/72/72 68/68/68
f 71/71/71 72/72/72 70/70/70
f 57/57/57 73/73/73 71/71/71
f 56/56/56 73/73/73 57/57/57
f 73/73/73 74/74/74 71/71/71
f 71/71/71 74/74/74 72/72/72
f 74/74/74 75/75/75 72/72/72
f 72/72/72 76/76/76 68/68/68
f 72/72/72 75/75/75 76/76/76
f 56/56/56 77/77/77 73/73/73
f 77/77/77 74/74/74 73/73/73
f 68/68/68 76/76/76 78/78/78
f 68/68/68 78/78/78 79/79/79
f 80/80/80 79/79/79 78/78/78
f 81/81/81 80/80/80 78/78/78
f 82/82/82 80/80/80 81/81/81
f 76/76/76 83/83/83 78/78/78
f 81/81/81 78/78/78 83/83/83
f 84/84/84 82/82/82 81/81/81
f 85/85/85 82/82/82 84/84/84
f 86/86/86 75/75/75 74/74/74
f 77/77/77 86/86/86 74/74/74
f 87/87/87 77/77/77 56/56/56
f 47/47/47 87/87/87 56/56/56
f 47/47/47 88/88/88 87/87/87
f 87/87/87 88/88/88 89/89/89
f 87/87/87 89/89/89 77/77/77
f 89/89/89 86/86/86 77/77/77
f 89/89/89 90/90/90 86/86/86
f 86/86/86 90/90/90 75/75/75
f 91/91/91 81/81/81 83/83/83
f 84/84/84 81/81/81 91/91/91
f 92/92/92 85/85/85 84/84/84
f 93/93/93 85/85/85 92/92/92
f 94/94/94 84/84/84 91/91/91
f 92/92/92 84/84/84 94/94/94
f 95/95/95 93/93/93 92/92/92
f 93/93/93 95/95/95 96/96/96
f 95/95/95 92/92/92 97/97/97
f 97/97/97 92/92/92 94/94/94
f 95/95/95 98/98/98 96/96/96
f 98/98/98 95/95/95 97/97/97
f 97/97/97 94/94/94 99/99/99
f 99/99/99 94/94/94 100/100/100
f 94/94/94 91/91/91 100/100/100
f 101/101/101 97/97/97 99/99/99
f 98/98/98 97/97/97 101/101/101
f 91/91/91 83/83/83 102/102/102
f 100/100/100 91/91/91 102/102/102
f 103/103/103 102/102/102 83/83/83
f 100/100/100 102/102/102 103/103/103
f 76/76/76 103/103/103 83/83/83
f 75/75/75 103/103/103 76/76/76
f 104/104/104 100/100/100 103/103/103
f 104/104/104 103/103/103 75/75/75
f 105/105/105 100/100/100 104/104/104
f 106/106/106 104/104/104 75/75/75
f 107/107/107 106/106/106 75/75/75
f 108/108/108 106/106/106 107/107/107
f 109/109/109 105/105/105 104/104/104
f 109/109/109 104/104/104 106/106/106
f 108/108/108 109/109/109 106/106/106
f 109/109/109 110/110/110 105/105/105
f 108/108/108 110/110/110 109/109/109
f 111/111/111 98/98/98 101/101/101
f 111/111/111 101/101/101 112/112/112
f 112/112/112 101/101/101 113/113/113
f 98/98/98 111/111/111 114/114/114
f 98/98/98 114/114/114 96/96/96
f 115/115/115 112/112/112 113/113/113
f 115/115/115 113/113/113 116/116/116
f 115/115/115 116/116/116 117/117/117
f 112/112/112 115/115/115 117/117/117
f 118/118/118 111/111/111 112/112/112
f 111/111/111 118/118/118 114/114/114
f 119/119/119 112/112/112 117/117/117
f 118/118/118 112/112/112 119/119/119
f 120/120/120 119/119/119 117/117/117
f 121/121/121 119/119/119 120/120/120
f 121/121/121 118/118/118 119/119/119
f 114/114/114 118/118/118 122/122/122
f 118/118/118 121/121/121 122/122/122
f 96/96/96 114/114/114 123/123/123
f 114/114/114 122/122/122 123/123/123
f 122/122/122 121/121/121 124/124/124
f 123/123/123 122/122/122 125/125/125
f 122/122/122 124/124/124 125/125/125
f 121/121/121 126/126/126 124/124/124
f 126/126/126 121/121/121 127/127/127
f 96/96/96 123/123/123 128/128/128
f 123/123/123 125/125/125 129/129/129
f 128/128/128 123/123/123 129/129/129
f 130/130/130 96/96/96 128/128/128
f 131/131/131 96/96/96 130/130/130
f 132/132/132 131/131/131 130/130/130
f 131/131/131 132/132/132 133/133/133
f 132/132/132 134/134/134 133/133/133
f 133/133/133 134/134/134 65/65/65
f 134/134/134 135/135/135 65/65/65
f 134/134/134 136/136/136 135/135/135
f 132/132/132 130/130/130 137/137/137
f 134/134/134 132/132/132 137/137/137
f 130/130/130 128/128/128 138/138/138
f 137/137/137 130/130/130 138/138/138
f 137/137/137 138/138/138 139/139/139
f 137/137/137 140/140/140 134/134/134
f 134/134/134 140/140/140 136/136/136
f 137/137/137 139/139/139 140/140/140
f 140/140/140 139/139/139 136/136/136
f 139/139/139 141/141/141 136/136/136
f 139/139/139 142/142/142 141/141/141
f 138/138/138 128/128/128 143/143/143
f 138/138/138 143/143/143 139/139/139
f 128/128/128 129/129/129 143/143/143
f 139/139/139 144/144/144 142/142/142
f 143/143/143 144/144/144 139/139/139
f 144/144/144 145/145/145 142/142/142
f 143/143/143 145/145/145 144/144/144
f 145/145/145 146/146/146 142/142/142
f 143/143/143 129/129/129 147/147/147
f 143/143/143 147/147/147 145/145/145
f 129/129/129 125/125/125 147/147/147
f 145/145/145 148/148/148 146/146/146
f 147/147/147 148/148/148 145/145/145
f 148/148/148 149/149/149 146/146/146
f 125/125/125 150/150/150 147/147/147
f 147/147/147 150/150/150 148/148/148
f 125/125/125 124/124/124 150/150/150
f 148/148/148 151/151/151 149/149/149
f 150/150/150 151/151/151 148/148/148
f 151/151/151 152/152/152 149/149/149
f 124/124/124 153/153/153 150/150/150
f 150/150/150 153/153/153 151/151/151
f 124/124/124 126/126/126 153/153/153
f 151/151/151 154/154/154 152/152/152
f 153/153/153 154/154/154 151/151/151
f 154/154/154 155/155/155 152/152/152
f 153/153/153 156/156/156 154/154/154
f 126/126/126 156/156/156 153/153/153
f 154/154/154 157/157/157 155/155/155
f 156/156/156 157/157/157 154/154/154
f 156/156/156 126/126/126 157/157/157
f 157/157/157 158/158/158 155/155/155
f 126/126/126 159/159/159 157/157/157
f 157/157/157 159/159/159 158/158/158
f 159/159/159 126/126/126 127/127/127
f 159/159/159 160/160/160 158/158/158
f 160/160/160 159/159/159 127/127/127
f 160/160/160 161/161/161 158/158/158
f 162/162/162 160/160/160 127/127/127
f 160/160/160 162/162/162 161/161/161
f 165/165/165 164/164/164 163/163/163
f 166/166/166 165/165/165 163/163/163
f 166/166/166 167/167/167 165/165/165
f 167/167/167 168/168/168 165/165/165
f 167/167/167 169/169/169 168/168/168
f 169/169/169 170/170/170 168/168/168
f 165/165/165 171/171/171 164/164/164
f 171/171/171 170/170/170 172/172/172
f 171/171/171 173/173/173 164/164/164
f 171/171/171 172/172/172 173/173/173
