g tree_mango
v -1.077024 4.353943 -1.225759
v -1.167313 4.690538 -1.527423
v -1.026526 4.276479 -1.313765
v -1.160061 4.239959 -1.25894
v -0.7826372 4.026104 -1.082933
v -0.8529962 4.066692 -1.037025
v -0.7656334 4.247315 -1.19591
v -0.7550169 4.208896 -1.022485
v -0.4428638 4.379077 -1.189089
v -0.6688846 4.125751 -1.013172
v -0.3518949 3.767013 -0.2638129
v -0.5043331 3.74408 -0.5285888
v -0.6747308 3.945626 -0.4362777
v -0.7852604 3.741492 -0.4846435
v -0.3156995 3.245632 -0.09267151
v -0.0597398 3.172951 -0.03536995
v -0.4864877 3.943202 -0.2562653
v -0.8330923 3.987573 -0.4204231
v -1.279841 3.638643 -0.8256019
v -0.8053633 3.528329 -0.2671486
v -0.06204388 3.796019 -0.1501115
v -0.527648 3.236409 0.07084861
v -0.2327863 2.748773 0.1042433
v -0.787314 3.518979 0.02049339
v -1.159441 3.699718 -0.3965683
v -1.369805 3.568576 -0.6459556
v -1.881508 3.739109 -0.8862138
v -0.5328146 3.035713 0.3040957
v -0.8824092 3.79898 0.04395698
v -0.7827774 3.475836 0.2659415
v -0.07069118 4.069163 -0.01914082
v -0.3456675 4.198595 0.01576462
v -0.8206659 4.049358 -0.07879791
v -1.13279 3.867754 -0.6275535
v -1.686558 3.856394 -0.9465478
v -1.872675 3.765439 -1.002709
v -1.728909 3.796531 -0.7849572
v -1.878928 4.085351 -0.961916
v -1.919156 3.947629 -0.828948
v -0.3424734 4.239934 0.2397617
v -0.008734321 4.131645 0.125935
v 0.3553557 4.314054 -0.1353217
v 0.1471325 4.06392 -0.2756306
v 0.2301587 3.9347 -0.2722307
v -0.8464705 3.979378 0.2607951
v 0.1129781 3.498625 0.06969395
v 0.1060198 3.358784 0.2735412
v 0.3231205 3.781122 0.1006321
v 0.3864826 4.045039 -0.1166349
v 0.5829901 4.240499 -0.2151142
v 0.3764867 3.991875 0.1482104
v 0.3148965 4.066157 0.3370225
v -1.03333 4.04303 0.5971931
v -0.6654599 4.07417 0.439133
v -1.050547 3.791929 0.6449703
v 0.8571059 4.287982 -0.1515745
v 0.3104662 4.206648 0.1741089
v -0.02714596 4.104797 0.347958
v 0.6522112 4.413514 -0.1568142
v -0.4457031 4.051161 0.4902977
v 0.02212133 3.919287 0.4116029
v -0.2518309 3.852537 0.5596657
v -0.5582402 3.93959 0.7903054
v 0.6853041 4.406622 -0.2980222
v -0.04546408 3.43805 0.5436096
v -0.9520291 4.125235 0.8414916
v 0.7915146 4.392901 -0.2887586
v 0.8717679 4.585447 -0.1771559
v 0.8045419 4.596421 -0.4422661
v 0.8010119 4.223234 -0.306305
v 0.6723977 4.32938 -0.4120871
v 0.8660505 4.546801 -0.5387405
v -0.5436388 3.495352 0.5792369
v -0.7696586 3.651958 0.7350715
v -0.3256964 3.27612 0.6025822
v -0.6306887 3.371476 0.4711701
v 0.2228178 2.520802 0.7387442
v 0.3092074 2.69278 0.5643253
v 0.3630733 1.736406 0.9564134
v 0.6109885 2.195413 0.5417377
v 0.2939676 2.658039 0.2186202
v -0.02828321 2.396854 0.820227
v -0.3092577 2.795587 0.5750096
v 0.1176454 2.499634 0.069048
v -0.2670786 2.428995 0.4593452
v -0.07874633 1.767478 0.7621287
v -1.040571 4.051107 0.9672393
v -0.09941013 2.23121 0.1024193
v 0.2116417 1.488885 0.9914842
v -1.210332 4.136196 0.876756
v -1.14717 4.272014 0.8695296
v -1.052959 4.478249 1.060372
v -1.543978 4.367424 0.8605802
v -1.231383 4.276547 0.9952379
v -1.494462 4.487526 0.9233562
v -0.05646667 1.084955 0.8998171
v 0.3510752 1.398651 1.0003
v 0.246922 0.9314122 1.085824
v -0.3901788 0.6563768 0.5951743
v -0.2941503 0.413054 0.8978733
v -0.2692729 1.433392 0.5057801
v -0.2268318 1.340943 0.294623
v -0.3954469 0.7746983 0.2478494
v -0.04930458 1.3774 0.04809513
v -0.5299031 0.5785761 -0.4655453
v 0.2328686 1.501339 -0.07568417
v 0.4514865 1.849514 -0.03471409
v 0.3717121 0.996933 -0.2800728
v -0.09781609 0.4463367 -0.5363651
v -0.5029525 0.2676937 -0.9013839
v 0.5688442 2.064264 0.1750291
v 0.7235258 1.448431 0.1424149
v 0.7400955 1.502939 0.4344118
v 0.7302704 0.9796238 -0.1474043
v 0.9064275 0.5685711 0.3490893
v 0.3128518 0.5462027 -0.4769588
v -0.1817054 0.04491353 -0.4875591
v 0.6094846 0.322052 -0.5903564
v -0.9521872 0.2836008 -0.7823067
v -0.6264458 0.2627348 -0.2373769
v -1.26116 -0.0007160902 -0.8244544
v -0.4919145 0.1978593 0.3839089
v -0.7132767 0.02601266 0.9896908
v -0.3745475 0.0485183 0.3310006
v -0.6428552 -0.07090998 -0.3490843
v -0.6839917 -0.185456 0.5312253
v -0.3360061 -0.01895148 1.006352
v -0.5945067 -0.2167769 0.9187827
v 0.01369587 0.2963405 0.9158052
v -0.1264351 -0.1543572 0.5537415
v 0.02168144 -0.007055581 0.722561
v 0.1995063 -0.03498605 0.5976599
v -0.01366255 -0.03714883 0.2682016
v 0.10154 -0.1115229 -0.3110124
v -0.367751 -0.1934665 -0.1138974
v 0.323598 0.04530762 0.841225
v 0.5407177 0.6048589 0.9213032
v 0.4233578 -0.360685 1.035059
v 0.6791009 1.058721 0.8547066
v -0.5384442 -0.0841163 -0.7339404
v -0.9925517 -0.1393171 -0.721944
v -1.282677 -0.1999816 -1.014676
v -0.8434765 -0.1147021 -0.8377656
v 0.1312305 0.1188546 -0.5213817
v 0.1595757 -0.3272003 -0.7771632
v 0.3434211 -0.3566566 -0.9926817
v 0.3704225 -0.4034243 -0.5873979
v 0.3100618 -0.554246 -0.9120899
v 0.5514095 -0.4135195 -0.916034
v 0.5227699 -0.07577879 0.01233715
v 0.7104357 0.3261493 -0.2637298
v 0.6869537 0.04374087 -0.06356288
v 0.8058407 0.2396827 0.01939098
v 0.4327242 -0.2710636 0.5977436
v 0.6697091 -0.3250816 0.1582279
v 1.150471 -0.09298706 0.2734685
v 1.099058 -0.4187944 0.2795849
v 0.680797 -0.2484037 0.6778503
v 1.168233 -0.3070543 0.4975841
v 1.137472 -0.00437355 0.4830087
v 0.6741173 -0.1905037 1.071281
v 0.7615087 0.8564186 0.549733
v 0.8181106 0.3432808 0.6333347
v 0.7769653 0.5028381 0.8783273
v 0.7454331 1.359947 0.658562
v 0.7400759 1.60947 0.575776
v 0.6523906 1.509204 0.8636685
v 0.4959766 1.938233 0.7952122
v -1.714562 4.303757 -1.007092
v -1.820508 4.147805 -1.08595
v -1.988485 4.495707 -1.098318
v -2.181922 4.031928 -0.8803316
v -2.225748 3.874636 -0.8333501
v -2.193304 4.032084 -0.7088125
v -2.273949 3.936111 -0.6957098
v -2.37739 4.426351 -0.8278669
v -2.447773 4.271092 -0.6722423
v -2.426356 4.290531 -0.8165269
vt 0 0
vt 0 0
vt 0 0
vt 0 0
vt 0 0
vt 0 0
vt 0 0
vt 0 0
vt 0 0
vt 0 0
vt 0 0
vt 0 0
vt 0 0
vt 0 0
vt 0 0
vt 0 0
vt 0 0
vt 0 0
vt 0 0
vt 0 0
vt 0 0
vt 0 0
vt 0 0
vt 0 0
vt 0 0
vt 0 0
vt 0 0
vt 0 0
vt 0 0
vt 0 0
vt 0 0
vt 0 0
vt 0 0
vt 0 0
vt 0 0
vt 0 0
vt 0 0
vt 0 0
vt 0 0
vt 0 0
vt 0 0
vt 0 0
vt 0 0
vt 0 0
vt 0 0
vt 0 0
vt 0 0
vt 0 0
vt 0 0
vt 0 0
vt 0 0
vt 0 0
vt 0 0
vt 0 0
vt 0 0
vt 0 0
vt 0 0
vt 0 0
vt 0 0
vt 0 0
vt 0 0
vt 0 0
vt 0 0
vt 0 0
vt 0 0
vt 0 0
vt 0 0
vt 0 0
vt 0 0
vt 0 0
vt 0 0
vt 0 0
vt 0 0
vt 0 0
vt 0 0
vt 0 0
vt 0 0
vt 0 0
vt 0 0
vt 0 0
vt 0 0
vt 0 0
vt 0 0
vt 0 0
vt 0 0
vt 0 0
vt 0 0
vt 0 0
vt 0 0
vt 0 0
vt 0 0
vt 0 0
vt 0 0
vt 0 0
vt 0 0
vt 0 0
vt 0 0
vt 0 0
vt 0 0
vt 0 0
vt 0 0
vt 0 0
vt 0 0
vt 0 0
vt 0 0
vt 0 0
vt 0 0
vt 0 0
vt 0 0
vt 0 0
vt 0 0
vt 0 0
vt 0 0
vt 0 0
vt 0 0
vt 0 0
vt 0 0
vt 0 0
vt 0 0
vt 0 0
vt 0 0
vt 0 0
vt 0 0
vt 0 0
vt 0 0
vt 0 0
vt 0 0
vt 0 0
vt 0 0
vt 0 0
vt 0 0
vt 0 0
vt 0 0
vt 0 0
vt 0 0
vt 0 0
vt 0 0
vt 0 0
vt 0 0
vt 0 0
vt 0 0
vt 0 0
vt 0 0
vt 0 0
vt 0 0
vt 0 0
vt 0 0
vt 0 0
vt 0 0
vt 0 0
vt 0 0
vt 0 0
vt 0 0
vt 0 0
vt 0 0
vt 0 0
vt 0 0
vt 0 0
vt 0 0
vt 0 0
vt 0 0
vt 0 0
vt 0 0
vt 0 0
vt 0 0
vt 0 0
vt 0 0
vt 0 0
vt 0 0
vt 0 0
vt 0 0
vt 0 0
vt 0 0
vt 0 0
vt 0 0
vt 0 0
vt 0 0
vt 0 0
vn -0.1607547 0.656078 0.7373735
vn -0.4384952 0.3059642 -0.845049
vn 0.2581506 -0.3140874 -0.9136232
vn -0.8714473 -0.4816718 -0.09258412
vn 0.199437 -0.775385 -0.5991687
vn -0.9148876 -0.1986235 0.3514674
vn 0.3151042 0.2932762 -0.9026065
vn -0.2079089 0.7992756 0.5638549
vn 0.5309397 0.2473498 -0.8105066
vn 0.9879935 0.002935913 -0.1544679
vn 0.6885785 0.07297233 -0.7214808
vn 0.415079 -0.6019897 -0.6821421
vn -0.06014757 0.9648138 0.2559623
vn 0.07929302 -0.5621514 -0.8232245
vn -0.07690149 -0.5045571 -0.8599467
vn 0.5003533 -0.08474038 -0.8616644
vn 0.213536 0.7198469 -0.6604717
vn -0.1810508 0.8936565 -0.4106076
vn 0.3753097 -0.4007614 -0.8357829
vn -0.203732 -0.8877597 -0.4127661
vn 0.1992526 -0.1231551 -0.9721786
vn -0.564573 -0.6373985 -0.5243856
vn -0.5710056 -0.3397954 -0.747323
vn -0.8212464 -0.5619901 0.09859698
vn -0.7422258 0.1207016 0.6591905
vn -0.2924903 -0.9343632 0.2035066
vn -0.3004716 -0.9186114 0.2566511
vn -0.8715594 -0.4861585 -0.06351325
vn -0.9857524 -0.06510595 0.1550916
vn -0.8487777 -0.5287498 -0.0004064
vn -0.1436373 0.7075154 -0.6919466
vn 0.009312915 0.8796761 -0.4754822
vn -0.5177896 0.8545678 -0.04009738
vn -0.1471521 0.98908 0.008191638
vn 0.5364004 0.6228228 -0.5695317
vn -0.1259509 -0.4882494 -0.8635675
vn -0.2107564 0.653093 0.7273592
vn -0.6588047 0.5931816 0.4627225
vn 0.2404874 0.3410137 0.9087769
vn -0.08090743 0.9745797 0.2089222
vn -0.1098249 0.9939103 -0.008979295
vn -0.3808075 0.8784289 -0.2887012
vn -0.4059862 0.4527119 -0.7938685
vn 0.4105093 -0.4345634 -0.8016462
vn -0.5362464 0.8347358 -0.1251242
vn 0.7142005 -0.4042196 -0.5714229
vn 0.9851366 0.1448503 0.09232696
vn 0.9047976 -0.4256989 0.01103474
vn 0.7282321 -0.4518371 -0.5152875
vn -0.02147998 -0.7464844 -0.665056
vn 0.8524104 -0.2598355 0.4537422
vn 0.5780782 0.09662088 0.8102407
vn -0.7123072 0.5377166 -0.4510868
vn -0.09350752 0.9924124 0.0798369
vn -0.852661 -0.5158173 0.08307603
vn 0.7406297 -0.297545 0.6024405
vn 0.1709771 0.7339659 0.6573134
vn 0.1608735 0.7600318 0.6296598
vn 0.03461273 0.8153321 0.5779581
vn 0.1845369 0.7767681 0.6021441
vn 0.4130733 0.05274399 0.9091691
vn 0.384047 0.1656783 0.9083274
vn 0.4292287 0.2298282 0.8734653
vn -0.4514773 0.8872781 -0.09437159
vn 0.5101951 0.2182967 0.8318939
vn 0.6466011 0.6703888 0.3639862
vn 0.8944538 0.4349675 -0.1037096
vn 0.3179642 0.724131 0.611991
vn -0.2884777 0.9449872 -0.1542073
vn 0.4233837 -0.8545402 -0.3008442
vn -0.6083561 -0.2528565 -0.7523075
vn 0.4223103 0.08901046 -0.9020705
vn 0.09821189 -0.2853364 0.9533821
vn -0.2100916 -0.6323904 0.7456164
vn -0.1051031 0.09549765 0.9898655
vn -0.7025096 -0.4606464 0.5424806
vn 0.3793142 0.3087294 0.8722425
vn 0.8458095 0.3942833 0.3593699
vn 0.2597373 0.2438257 0.9343904
vn 0.8584942 0.3814958 0.3427078
vn 0.8299111 0.318332 -0.4581621
vn -0.288464 0.1471246 0.94612
vn -0.7761245 -0.1500208 0.6124741
vn 0.1465001 0.1152847 -0.9824699
vn -0.9849774 -0.1576015 -0.07057837
vn -0.7407522 0.03771099 0.6707191
vn 0.0653814 -0.4563501 0.887395
vn -0.6888816 0.01871284 -0.7246324
vn -0.3837736 0.1271282 0.9146345
vn -0.838805 -0.4592301 -0.2924279
vn 0.06274381 0.6158744 -0.7853419
vn 0.4048827 0.5379772 0.7393582
vn -0.8310751 0.01952451 -0.5558173
vn -0.299245 -0.01962527 0.9539745
vn -0.3606616 0.912641 -0.1923793
vn -0.6353756 0.1437695 0.7587016
vn 0.3829287 0.1087283 0.9173569
vn 0.0008457301 -0.021153 0.9997759
vn -0.9243863 0.2835086 0.2552113
vn -0.3986473 0.3069409 0.8642151
vn -0.9710039 0.1188243 0.2074418
vn -0.9041299 0.2721149 -0.3293971
vn -0.96512 0.2386836 0.1075802
vn -0.529462 0.3746467 -0.7611241
vn -0.5022818 0.7394245 -0.4482905
vn -0.3377768 0.1698216 -0.9257793
vn 0.3393296 0.2428689 -0.908774
vn 0.04463156 0.4397474 -0.8970118
vn 0.1484533 0.3788077 -0.9134913
vn 0.2772419 0.3649337 -0.888797
vn 0.8422891 0.3260201 -0.4292552
vn 0.9272183 0.2353794 -0.2913122
vn 0.9855636 0.1672112 -0.0265455
vn 0.773665 0.243936 -0.5847543
vn 0.9604762 0.22135 -0.1687889
vn -0.04853093 0.3793901 -0.9239632
vn 0.4097961 -0.6041645 -0.6834123
vn 0.5876186 0.341771 -0.7334146
vn -0.5829915 0.7892613 -0.1928403
vn -0.9037783 0.1852105 0.385852
vn -0.8303865 0.5451535 -0.1151777
vn -0.983546 0.1574855 -0.08851896
vn -0.8813764 0.2784609 0.3816217
vn -0.5045592 -0.8481057 -0.1616682
vn -0.6360558 -0.6121127 0.4698416
vn -0.7197601 -0.541949 -0.4338625
vn 0.2582058 -0.2864324 0.9226517
vn -0.1729899 -0.9188373 0.3547005
vn 0.07777159 -0.2298825 0.9701059
vn 0.1979385 -0.9732421 -0.1167057
vn 0.295316 -0.7283287 0.6183249
vn -0.3748864 -0.9270361 0.008016716
vn -0.02016112 -0.9957265 0.09012409
vn -0.2576627 -0.9628226 0.08113342
vn -0.1224009 -0.9851056 0.1207675
vn -0.5364845 -0.07529305 0.8405446
vn 0.1781956 -0.05854117 0.9822521
vn -0.4178605 -0.492976 0.7631298
vn 0.748695 0.154239 0.6447217
vn 0.3840401 -0.7922532 -0.4741815
vn -0.231734 -0.8945838 0.3821247
vn -0.4080089 0.2176563 -0.8866535
vn 0.3584424 -0.6771058 -0.6426872
vn -0.5893381 0.1135822 -0.7998623
vn -0.9196113 -0.04819567 -0.3898619
vn -0.2090365 0.3106582 -0.9272514
vn 0.04484947 -0.9091577 0.41403
vn -0.1775291 -0.9806092 -0.08299938
vn 0.8588923 -0.2688701 -0.4359048
vn -0.009769659 -0.9986662 0.0506999
vn 0.9701983 -0.0365083 -0.2395465
vn 0.8588885 -0.4023931 -0.3168441
vn 0.8572255 0.09492214 -0.5061167
vn -0.4796934 -0.8627502 -0.1598636
vn -0.2673732 -0.8474157 -0.4586917
vn 0.8130587 0.1051057 -0.5726154
vn 0.3526377 -0.8472301 -0.3973009
vn 0.5901036 -0.6622179 0.4617846
vn 0.5576682 -0.4662224 0.6867625
vn 0.7476271 0.1719246 0.6414792
vn 0.5044878 -0.1893324 0.8424045
vn 0.9614219 0.1115272 0.2514549
vn 0.8157707 0.03397026 0.5773769
vn 0.794494 0.1151685 0.5962513
vn 0.9069124 -0.002158933 0.4213136
vn 0.9461772 0.2382077 0.2191022
vn 0.7178829 0.01367338 0.6960295
vn 0.6748289 0.3536857 0.6476978
vn 0.5977682 0.5744296 0.5591993
vn 0.06412865 -0.1520275 -0.9862937
vn -0.2225212 0.7252652 0.6515172
vn -0.02261614 0.4528423 -0.8913038
vn -0.6515817 -0.6230007 -0.4327947
vn 0.6121979 0.3191089 0.7234523
vn -0.5188048 -0.5652084 0.6413899
vn 0.6433633 0.7502614 0.1522876
vn -0.1192034 0.3044385 0.9450439
vn -0.6969986 -0.1601095 -0.6989693
g tree_mango_0
f 3/3/3 2/2/2 1/1/1
f 1/1/1 2/2/2 4/4/4
f 2/2/2 3/3/3 4/4/4
f 5/5/5 4/4/4 3/3/3
f 1/1/1 4/4/4 6/6/6
f 5/5/5 6/6/6 4/4/4
f 7/7/7 3/3/3 1/1/1
f 3/3/3 7/7/7 5/5/5
f 8/8/8 7/7/7 1/1/1
f 6/6/6 8/8/8 1/1/1
f 5/5/5 7/7/7 9/9/9
f 9/9/9 7/7/7 8/8/8
f 10/10/10 5/5/5 9/9/9
f 10/10/10 9/9/9 8/8/8
f 8/8/8 11/11/11 10/10/10
f 5/5/5 10/10/10 12/12/12
f 5/5/5 12/12/12 6/6/6
f 10/10/10 11/11/11 12/12/12
f 8/8/8 6/6/6 13/13/13
f 11/11/11 8/8/8 13/13/13
f 14/14/14 6/6/6 12/12/12
f 13/13/13 6/6/6 14/14/14
f 15/15/15 12/12/12 11/11/11
f 14/14/14 12/12/12 15/15/15
f 16/16/16 15/15/15 11/11/11
f 11/11/11 13/13/13 17/17/17
f 13/13/13 14/14/14 18/18/18
f 18/18/18 17/17/17 13/13/13
f 19/19/19 18/18/18 14/14/14
f 14/14/14 15/15/15 20/20/20
f 20/20/20 19/19/19 14/14/14
f 21/21/21 16/16/16 11/11/11
f 17/17/17 21/21/21 11/11/11
f 22/22/22 20/20/20 15/15/15
f 23/23/23 15/15/15 16/16/16
f 22/22/22 15/15/15 23/23/23
f 20/20/20 22/22/22 24/24/24
f 24/24/24 25/25/25 20/20/20
f 20/20/20 25/25/25 26/26/26
f 19/19/19 20/20/20 26/26/26
f 25/25/25 27/27/27 26/26/26
f 26/26/26 27/27/27 19/19/19
f 23/23/23 28/28/28 22/22/22
f 28/28/28 24/24/24 22/22/22
f 29/29/29 25/25/25 24/24/24
f 24/24/24 28/28/28 30/30/30
f 24/24/24 30/30/30 29/29/29
f 17/17/17 31/31/31 21/21/21
f 17/17/17 32/32/32 31/31/31
f 33/33/33 32/32/32 17/17/17
f 25/25/25 29/29/29 33/33/33
f 18/18/18 33/33/33 17/17/17
f 33/33/33 18/18/18 25/25/25
f 19/19/19 34/34/34 18/18/18
f 25/25/25 18/18/18 34/34/34
f 34/34/34 19/19/19 35/35/35
f 35/35/35 25/25/25 34/34/34
f 19/19/19 36/36/36 35/35/35
f 19/19/19 27/27/27 36/36/36
f 25/25/25 37/37/37 27/27/27
f 37/37/37 25/25/25 35/35/35
f 38/38/38 37/37/37 35/35/35
f 37/37/37 39/39/39 27/27/27
f 39/39/39 37/37/37 38/38/38
f 40/40/40 32/32/32 33/33/33
f 31/31/31 32/32/32 41/41/41
f 41/41/41 32/32/32 40/40/40
f 31/31/31 41/41/41 42/42/42
f 42/42/42 43/43/43 31/31/31
f 31/31/31 43/43/43 21/21/21
f 44/44/44 21/21/21 43/43/43
f 42/42/42 44/44/44 43/43/43
f 33/33/33 45/45/45 40/40/40
f 29/29/29 45/45/45 33/33/33
f 46/46/46 21/21/21 44/44/44
f 16/16/16 21/21/21 46/46/46
f 16/16/16 46/46/46 47/47/47
f 44/44/44 48/48/48 46/46/46
f 47/47/47 46/46/46 48/48/48
f 42/42/42 49/49/49 44/44/44
f 44/44/44 49/49/49 48/48/48
f 49/49/49 42/42/42 50/50/50
f 49/49/49 51/51/51 48/48/48
f 50/50/50 51/51/51 49/49/49
f 47/47/47 48/48/48 52/52/52
f 52/52/52 48/48/48 51/51/51
f 53/53/53 45/45/45 29/29/29
f 40/40/40 45/45/45 54/54/54
f 53/53/53 54/54/54 45/45/45
f 29/29/29 55/55/55 53/53/53
f 29/29/29 30/30/30 55/55/55
f 56/56/56 51/51/51 50/50/50
f 52/52/52 51/51/51 57/57/57
f 51/51/51 56/56/56 57/57/57
f 42/42/42 41/41/41 57/57/57
f 40/40/40 58/58/58 41/41/41
f 41/41/41 58/58/58 57/57/57
f 57/57/57 58/58/58 52/52/52
f 42/42/42 57/57/57 59/59/59
f 56/56/56 59/59/59 57/57/57
f 60/60/60 40/40/40 54/54/54
f 60/60/60 58/58/58 40/40/40
f 61/61/61 52/52/52 58/58/58
f 47/47/47 52/52/52 61/61/61
f 62/62/62 58/58/58 60/60/60
f 58/58/58 62/62/62 61/61/61
f 60/60/60 54/54/54 63/63/63
f 63/63/63 62/62/62 60/60/60
f 50/50/50 42/42/42 64/64/64
f 59/59/59 64/64/64 42/42/42
f 65/65/65 47/47/47 61/61/61
f 62/62/62 65/65/65 61/61/61
f 63/63/63 54/54/54 66/66/66
f 53/53/53 66/66/66 54/54/54
f 67/67/67 64/64/64 59/59/59
f 67/67/67 59/59/59 68/68/68
f 68/68/68 59/59/59 56/56/56
f 68/68/68 56/56/56 67/67/67
f 50/50/50 64/64/64 69/69/69
f 64/64/64 67/67/67 69/69/69
f 56/56/56 70/70/70 67/67/67
f 70/70/70 56/56/56 50/50/50
f 71/71/71 50/50/50 69/69/69
f 70/70/70 50/50/50 71/71/71
f 72/72/72 67/67/67 70/70/70
f 67/67/67 72/72/72 69/69/69
f 69/69/69 72/72/72 71/71/71
f 70/70/70 71/71/71 72/72/72
f 62/62/62 63/63/63 73/73/73
f 63/63/63 66/66/66 74/74/74
f 63/63/63 74/74/74 73/73/73
f 62/62/62 73/73/73 75/75/75
f 65/65/65 62/62/62 75/75/75
f 76/76/76 73/73/73 74/74/74
f 75/75/75 73/73/73 76/76/76
f 77/77/77 65/65/65 75/75/75
f 77/77/77 78/78/78 65/65/65
f 78/78/78 77/77/77 79/79/79
f 78/78/78 79/79/79 80/80/80
f 78/78/78 47/47/47 65/65/65
f 78/78/78 81/81/81 47/47/47
f 81/81/81 78/78/78 80/80/80
f 16/16/16 47/47/47 81/81/81
f 82/82/82 77/77/77 75/75/75
f 79/79/79 77/77/77 82/82/82
f 83/83/83 75/75/75 76/76/76
f 75/75/75 83/83/83 82/82/82
f 16/16/16 81/81/81 84/84/84
f 84/84/84 23/23/23 16/16/16
f 76/76/76 74/74/74 30/30/30
f 28/28/28 76/76/76 30/30/30
f 83/83/83 76/76/76 28/28/28
f 55/55/55 30/30/30 74/74/74
f 23/23/23 85/85/85 28/28/28
f 85/85/85 83/83/83 28/28/28
f 82/82/82 83/83/83 86/86/86
f 85/85/85 86/86/86 83/83/83
f 74/74/74 87/87/87 55/55/55
f 66/66/66 87/87/87 74/74/74
f 84/84/84 88/88/88 23/23/23
f 23/23/23 88/88/88 85/85/85
f 82/82/82 86/86/86 89/89/89
f 82/82/82 89/89/89 79/79/79
f 55/55/55 87/87/87 90/90/90
f 90/90/90 53/53/53 55/55/55
f 91/91/91 66/66/66 53/53/53
f 53/53/53 90/90/90 91/91/91
f 87/87/87 66/66/66 92/92/92
f 92/92/92 66/66/66 91/91/91
f 90/90/90 87/87/87 93/93/93
f 91/91/91 90/90/90 93/93/93
f 92/92/92 94/94/94 87/87/87
f 87/87/87 94/94/94 93/93/93
f 91/91/91 94/94/94 92/92/92
f 95/95/95 93/93/93 94/94/94
f 95/95/95 94/94/94 91/91/91
f 93/93/93 95/95/95 91/91/91
f 86/86/86 96/96/96 89/89/89
f 89/89/89 97/97/97 79/79/79
f 98/98/98 89/89/89 96/96/96
f 89/89/89 98/98/98 97/97/97
f 86/86/86 99/99/99 96/96/96
f 98/98/98 96/96/96 100/100/100
f 96/96/96 99/99/99 100/100/100
f 86/86/86 101/101/101 99/99/99
f 85/85/85 101/101/101 86/86/86
f 101/101/101 85/85/85 102/102/102
f 102/102/102 85/85/85 88/88/88
f 103/103/103 99/99/99 101/101/101
f 102/102/102 103/103/103 101/101/101
f 88/88/88 104/104/104 102/102/102
f 103/103/103 102/102/102 105/105/105
f 105/105/105 102/102/102 104/104/104
f 88/88/88 106/106/106 104/104/104
f 106/106/106 88/88/88 84/84/84
f 107/107/107 106/106/106 84/84/84
f 81/81/81 107/107/107 84/84/84
f 108/108/108 104/104/104 106/106/106
f 107/107/107 108/108/108 106/106/106
f 109/109/109 105/105/105 104/104/104
f 109/109/109 104/104/104 108/108/108
f 105/105/105 109/109/109 110/110/110
f 111/111/111 107/107/107 81/81/81
f 80/80/80 111/111/111 81/81/81
f 111/111/111 112/112/112 107/107/107
f 80/80/80 112/112/112 111/111/111
f 80/80/80 113/113/113 112/112/112
f 114/114/114 107/107/107 112/112/112
f 114/114/114 108/108/108 107/107/107
f 112/112/112 113/113/113 115/115/115
f 114/114/114 112/112/112 115/115/115
f 108/108/108 116/116/116 109/109/109
f 109/109/109 117/117/117 110/110/110
f 117/117/117 109/109/109 116/116/116
f 118/118/118 108/108/108 114/114/114
f 118/118/118 116/116/116 108/108/108
f 119/119/119 105/105/105 110/110/110
f 119/119/119 120/120/120 105/105/105
f 103/103/103 105/105/105 120/120/120
f 119/119/119 110/110/110 121/121/121
f 121/121/121 120/120/120 119/119/119
f 103/103/103 120/120/120 122/122/122
f 122/122/122 99/99/99 103/103/103
f 122/122/122 123/123/123 99/99/99
f 123/123/123 100/100/100 99/99/99
f 124/124/124 122/122/122 120/120/120
f 125/125/125 120/120/120 121/121/121
f 120/120/120 125/125/125 124/124/124
f 122/122/122 126/126/126 123/123/123
f 124/124/124 126/126/126 122/122/122
f 100/100/100 123/123/123 127/127/127
f 126/126/126 128/128/128 123/123/123
f 128/128/128 127/127/127 123/123/123
f 100/100/100 127/127/127 129/129/129
f 98/98/98 100/100/100 129/129/129
f 128/128/128 126/126/126 130/130/130
f 130/130/130 126/126/126 124/124/124
f 131/131/131 127/127/127 128/128/128
f 129/129/129 127/127/127 131/131/131
f 130/130/130 131/131/131 128/128/128
f 132/132/132 131/131/131 130/130/130
f 124/124/124 133/133/133 130/130/130
f 133/133/133 132/132/132 130/130/130
f 133/133/133 134/134/134 132/132/132
f 135/135/135 133/133/133 124/124/124
f 133/133/133 135/135/135 134/134/134
f 124/124/124 125/125/125 135/135/135
f 131/131/131 136/136/136 129/129/129
f 132/132/132 136/136/136 131/131/131
f 98/98/98 129/129/129 137/137/137
f 136/136/136 137/137/137 129/129/129
f 132/132/132 138/138/138 136/136/136
f 137/137/137 136/136/136 138/138/138
f 98/98/98 137/137/137 139/139/139
f 98/98/98 139/139/139 97/97/97
f 140/140/140 135/135/135 125/125/125
f 117/117/117 134/134/134 135/135/135
f 135/135/135 140/140/140 117/117/117
f 140/140/140 125/125/125 141/141/141
f 121/121/121 141/141/141 125/125/125
f 142/142/142 141/141/141 121/121/121
f 121/121/121 110/110/110 142/142/142
f 117/117/117 140/140/140 110/110/110
f 142/142/142 143/143/143 141/141/141
f 143/143/143 142/142/142 110/110/110
f 140/140/140 143/143/143 110/110/110
f 140/140/140 141/141/141 143/143/143
f 144/144/144 134/134/134 117/117/117
f 116/116/116 144/144/144 117/117/117
f 145/145/145 144/144/144 116/116/116
f 145/145/145 134/134/134 144/144/144
f 145/145/145 116/116/116 146/146/146
f 146/146/146 116/116/116 118/118/118
f 145/145/145 147/147/147 134/134/134
f 148/148/148 145/145/145 146/146/146
f 145/145/145 148/148/148 147/147/147
f 148/148/148 146/146/146 149/149/149
f 149/149/149 146/146/146 118/118/118
f 147/147/147 148/148/148 149/149/149
f 134/134/134 147/147/147 150/150/150
f 150/150/150 147/147/147 149/149/149
f 134/134/134 150/150/150 132/132/132
f 118/118/118 151/151/151 149/149/149
f 118/118/118 114/114/114 151/151/151
f 151/151/151 152/152/152 149/149/149
f 149/149/149 152/152/152 150/150/150
f 151/151/151 114/114/114 153/153/153
f 151/151/151 153/153/153 152/152/152
f 115/115/115 153/153/153 114/114/114
f 150/150/150 154/154/154 132/132/132
f 138/138/138 132/132/132 154/154/154
f 155/155/155 150/150/150 152/152/152
f 150/150/150 155/155/155 154/154/154
f 152/152/152 153/153/153 156/156/156
f 156/156/156 153/153/153 115/115/115
f 157/157/157 155/155/155 152/152/152
f 155/155/155 157/157/157 154/154/154
f 152/152/152 156/156/156 157/157/157
f 138/138/138 154/154/154 158/158/158
f 157/157/157 158/158/158 154/154/154
f 156/156/156 159/159/159 157/157/157
f 157/157/157 159/159/159 158/158/158
f 156/156/156 160/160/160 159/159/159
f 160/160/160 156/156/156 115/115/115
f 159/159/159 160/160/160 158/158/158
f 161/161/161 138/138/138 158/158/158
f 137/137/137 138/138/138 161/161/161
f 160/160/160 115/115/115 162/162/162
f 113/113/113 162/162/162 115/115/115
f 163/163/163 158/158/158 160/160/160
f 161/161/161 158/158/158 163/163/163
f 163/163/163 160/160/160 162/162/162
f 161/161/161 164/164/164 137/137/137
f 164/164/164 161/161/161 163/163/163
f 162/162/162 164/164/164 163/163/163
f 164/164/164 162/162/162 113/113/113
f 164/164/164 139/139/139 137/137/137
f 139/139/139 164/164/164 113/113/113
f 139/139/139 113/113/113 165/165/165
f 97/97/97 139/139/139 165/165/165
f 113/113/113 166/166/166 165/165/165
f 80/80/80 166/166/166 113/113/113
f 167/167/167 97/97/97 165/165/165
f 166/166/166 167/167/167 165/165/165
f 167/167/167 79/79/79 97/97/97
f 80/80/80 79/79/79 168/168/168
f 80/80/80 168/168/168 166/166/166
f 168/168/168 79/79/79 167/167/167
f 167/167/167 166/166/166 168/168/168
f 35/35/35 170/170/170 169/169/169
f 169/169/169 38/38/38 35/35/35
f 170/170/170 35/35/35 36/36/36
f 36/36/36 38/38/38 170/170/170
f 171/171/171 169/169/169 170/170/170
f 170/170/170 38/38/38 171/171/171
f 38/38/38 169/169/169 171/171/171
f 38/38/38 36/36/36 172/172/172
f 38/38/38 172/172/172 39/39/39
f 172/172/172 36/36/36 173/173/173
f 36/36/36 27/27/27 173/173/173
f 174/174/174 39/39/39 172/172/172
f 174/174/174 27/27/27 39/39/39
f 175/175/175 173/173/173 27/27/27
f 175/175/175 27/27/27 174/174/174
f 176/176/176 174/174/174 172/172/172
f 176/176/176 172/172/172 173/173/173
f 175/175/175 174/174/174 177/177/177
f 177/177/177 174/174/174 176/176/176
f 173/173/173 178/178/178 176/176/176
f 173/173/173 175/175/175 178/178/178
f 176/176/176 178/178/178 177/177/177
f 175/175/175 177/177/177 178/178/178
