g slime_default_LOD3
v -3.764802E-08 0.8726008 -0.2318892
v 0.2679728 0.6885312 0.2383284
v -3.879457E-08 0.7989562 0.2725859
v -0.2648562 0.6202417 -0.2930256
v -3.952712E-08 0.6853862 -0.3814662
v -3.764802E-08 0.8726008 -0.2318892
v -6.21992E-08 0.2942624 -0.4945996
v -0.342206 0.2942625 -0.3512588
v -8.421272E-08 0.06563417 -0.4128719
v -0.3151811 0.7057508 -0.1657321
v -3.764802E-08 0.8726008 -0.2318892
v -0.2964496 0.08789984 -0.3039508
v -0.3891914 0.06708463 -0.1282173
v -9.548882E-08 0.01844977 -0.1306638
v -0.4685378 0.2942625 -0.1421707
v -0.2679727 0.6885309 0.2383283
v -3.879457E-08 0.7989562 0.2725859
v -3.764802E-08 0.8726008 -0.2318892
v -0.3422058 0.2942625 0.340739
v -3.879457E-08 0.7989562 0.2725859
v -0.2964494 0.08790003 0.2955424
v -9.548882E-08 0.01844977 -0.1306638
v -6.21992E-08 0.2942625 0.4840801
v 0.2679728 0.6885312 0.2383284
v -8.421263E-08 0.06563416 0.4051191
v -9.548882E-08 0.01844977 -0.1306638
v 0.3422059 0.2942625 0.3407393
v 0.3151811 0.7057508 -0.1657321
v -3.764802E-08 0.8726008 -0.2318892
v 0.2964494 0.08789979 0.2955425
v 0.3891914 0.06708459 -0.1282173
v -9.548882E-08 0.01844977 -0.1306638
v 0.468538 0.2942624 -0.1421707
v 0.2648562 0.6202418 -0.2930257
v 0.342206 0.2942624 -0.351259
v -3.952712E-08 0.6853862 -0.3814662
v -3.764802E-08 0.8726008 -0.2318892
v -6.21992E-08 0.2942624 -0.4945996
v 0.2964495 0.0878997 -0.3039508
v -9.548882E-08 0.01844977 -0.1306638
v -8.421272E-08 0.06563417 -0.4128719
v -9.548882E-08 0.01844977 -0.1306638
vt -0.4999996 0.8826321
vt 0.779475 0.6427547
vt 0.4992033 0.7146531
vt -0.2210677 0.6466913
vt -0.5000033 0.7211872
vt -0.4999996 0.8826321
vt -0.5000008 0.3636284
vt -0.2217602 0.3633466
vt -0.4999981 0.1969793
vt -0.06945337 0.7054749
vt -0.4999996 0.8826321
vt -0.2213763 0.2108073
vt -0.05332628 0.2004904
vt 1.499998 0.0590567
vt -0.04545833 0.3643219
vt 0.2189422 0.6427224
vt 0.4992033 0.7146531
vt -0.4999996 0.8826321
vt 0.2182474 0.3643264
vt 0.4992033 0.7146531
vt 0.2186318 0.2127789
vt 1.499998 0.0590567
vt 0.4992031 0.3650057
vt 0.779475 0.6427547
vt 0.4992031 0.2006574
vt 1.499998 0.0590567
vt 0.7801733 0.3643554
vt 1.070492 0.7054023
vt -0.4999996 0.8826321
vt 0.7797929 0.2128303
vt 1.054469 0.2003999
vt 1.499998 0.0590567
vt 1.046655 0.3643427
vt 1.221102 0.6468874
vt 1.221796 0.3634101
vt 1.500002 0.7212515
vt -0.4999996 0.8826321
vt 1.500002 0.3636655
vt 1.221419 0.2109049
vt 1.499998 0.0590567
vt 1.500002 0.1968504
vt 1.499998 0.0590567
vn 0 0.9886534 -0.150215
vn 0.6784348 0.5606766 0.4747293
vn 0 0.8048715 0.5934492
vn -0.5471023 0.3631748 -0.7541771
vn 0 0.4237735 -0.9057682
vn 0 0.9886534 -0.150215
vn 0 0.04190405 -0.9991216
vn -0.5981089 0.0424513 -0.8002898
vn 0 -0.7162209 -0.6978736
vn -0.7829232 0.6210213 -0.03693162
vn 0 0.9886534 -0.150215
vn -0.4185396 -0.7135983 -0.5617847
vn -0.5713432 -0.8206255 0.01185979
vn 0 -1 -0.0001004357
vn -0.996174 0.0870465 0.007762574
vn -0.678435 0.5606763 0.4747293
vn 0 0.8048715 0.5934492
vn 0 0.9886534 -0.150215
vn -0.7834663 0.1225031 0.6092402
vn 0 0.8048715 0.5934492
vn -0.4822197 -0.8014576 0.3537369
vn 0 -1 -0.0001004357
vn 0 0.1354799 0.9907801
vn 0.6784348 0.5606766 0.4747293
vn 0 -0.8780877 0.4784997
vn 0 -1 -0.0001004357
vn 0.783466 0.122503 0.6092404
vn 0.782923 0.6210214 -0.03693171
vn 0 0.9886534 -0.150215
vn 0.4822193 -0.8014579 0.3537368
vn 0.5713431 -0.8206257 0.01185961
vn 0 -1 -0.0001004357
vn 0.996174 0.08704633 0.007762434
vn 0.5471021 0.3631749 -0.7541772
vn 0.5981086 0.04245113 -0.8002899
vn 0 0.4237735 -0.9057682
vn 0 0.9886534 -0.150215
vn 0 0.04190405 -0.9991216
vn 0.4185393 -0.7135985 -0.5617846
vn 0 -1 -0.0001004357
vn 0 -0.7162209 -0.6978736
vn 0 -1 -0.0001004357
g slime_default_LOD3_0
f 3/3/3 2/2/2 1/1/1
f 6/6/6 5/5/5 4/4/4
f 4/4/4 5/5/5 7/7/7
f 8/8/8 4/4/4 7/7/7
f 8/8/8 7/7/7 9/9/9
f 10/10/10 4/4/4 8/8/8
f 10/10/10 11/11/11 4/4/4
f 12/12/12 8/8/8 9/9/9
f 13/13/13 12/12/12 9/9/9
f 14/14/14 13/13/13 9/9/9
f 15/15/15 8/8/8 12/12/12
f 15/15/15 10/10/10 8/8/8
f 13/13/13 15/15/15 12/12/12
f 16/16/16 10/10/10 15/15/15
f 16/16/16 17/17/17 10/10/10
f 17/17/17 18/18/18 10/10/10
f 19/19/19 16/16/16 15/15/15
f 19/19/19 15/15/15 13/13/13
f 20/20/20 16/16/16 19/19/19
f 21/21/21 19/19/19 13/13/13
f 21/21/21 13/13/13 22/22/22
f 23/23/23 20/20/20 19/19/19
f 23/23/23 19/19/19 21/21/21
f 24/24/24 20/20/20 23/23/23
f 25/25/25 23/23/23 21/21/21
f 25/25/25 21/21/21 26/26/26
f 27/27/27 24/24/24 23/23/23
f 27/27/27 23/23/23 25/25/25
f 24/24/24 27/27/27 28/28/28
f 24/24/24 28/28/28 29/29/29
f 30/30/30 27/27/27 25/25/25
f 30/30/30 25/25/25 31/31/31
f 25/25/25 32/32/32 31/31/31
f 27/27/27 30/30/30 33/33/33
f 27/27/27 33/33/33 28/28/28
f 30/30/30 31/31/31 33/33/33
f 28/28/28 33/33/33 34/34/34
f 33/33/33 31/31/31 35/35/35
f 33/33/33 35/35/35 34/34/34
f 28/28/28 34/34/34 36/36/36
f 36/36/36 34/34/34 35/35/35
f 37/37/37 28/28/28 36/36/36
f 38/38/38 36/36/36 35/35/35
f 31/31/31 39/39/39 35/35/35
f 38/38/38 35/35/35 39/39/39
f 31/31/31 40/40/40 39/39/39
f 41/41/41 38/38/38 39/39/39
f 42/42/42 41/41/41 39/39/39
