g branch02
v 2.560828 19.5009 1.316407
v 2.391312 19.48927 1.660345
v 2.347751 17.32173 1.185152
v 3.012942 19.10606 1.593256
v 2.501221 16.8375 1.775867
v 2.105125 16.16013 1.627366
v 2.71444 16.79034 1.339391
v 3.186562 15.30785 1.632342
v 3.41011 14.37603 1.060176
v 2.36176 15.26557 1.195429
v 2.921326 13.71227 1.288206
v 3.322639 13.33684 1.717423
v 3.98278 13.50764 1.458138
v 3.831188 13.16206 0.8177912
v 5.681961 13.67303 1.6495
v 5.898934 13.56064 1.22104
v 2.836457 11.96293 1.315846
v 3.048944 11.63564 1.718985
v 4.344658 12.32773 1.566268
v 3.057745 11.82337 0.8644235
v 4.552717 12.69866 0.964752
v 3.339466 11.15612 0.9336708
v 2.583322 9.896214 1.474343
v 2.899658 10.26663 1.19023
v 2.278346 9.992681 0.6025906
v 1.181557 9.855211 0.7347148
v 1.817207 9.878623 1.746297
v 1.461243 9.275165 -0.02523859
v 0.9094402 9.78013 1.387091
v 2.095315 8.336776 0.5278579
v 1.909142 7.170513 0.8783671
v 1.95029 8.227322 1.96356
v 1.185049 8.962572 2.187217
v 1.0618 7.646817 2.013116
v 0.1899433 9.682502 0.1855901
v -0.2006607 10.41454 1.024782
v 1.773389 8.460875 -0.1725
v 0.9086151 8.110765 -0.6140301
v 1.637962 6.399611 -0.2395684
v -0.3168082 9.251292 1.50715
v 0.2817771 8.493554 1.978964
v 0.4274746 6.917682 1.406307
v -1.222478 10.43755 1.504223
v 1.075273 5.451063 1.165541
v -1.122691 11.30703 0.9054959
v -1.297798 11.54965 1.301337
v -1.368839 9.784378 0.8323543
v -0.1155825 8.033884 0.7061111
v -1.991158 10.84935 1.581759
v 1.332994 4.670989 0.813241
v 1.238615 2.993145 0.1881957
v -1.728045 10.96179 0.2755453
v -0.09296483 8.784669 0.1212548
v 0.170434 6.575144 -0.4412605
v 0.1562254 3.208816 -0.8842202
v -2.480931 10.83281 0.8631188
v 0.8831484 3.22207 -0.570897
v -0.2087431 5.96729 0.5985011
v 0.320936 5.638787 1.164228
v -0.0477351 1.575983 1.511659
v -0.8869057 3.773163 0.9245614
v -1.078148 3.752026 0.05680135
v -0.687335 2.970577 -0.7743907
v 0.6420727 0.3109515 -1.360448
v 1.500617 0.1808049 -0.4473456
v 0.7540308 1.807763 1.210113
v 1.169535 2.260123 0.6094107
v 1.579713 0.3128986 0.5301436
v 1.261835 -0.7870174 -0.4671524
v -0.05483338 -0.4663418 -1.484677
v 1.011147 0.4884641 1.280268
v 0.7998862 -0.6629345 1.188399
v -1.002073 0.2767044 -1.123731
v 0.6203721 -1.252039 -0.473665
v 0.1512653 -1.465407 0.4026688
v -0.6965503 -1.063443 -0.841068
v -0.6844103 -0.2163353 1.59929
v -1.939248 0.1956096 0.353613
v -1.391847 -0.8956553 0.08622532
v -1.385243 -0.7581795 0.9284379
v -0.6350362 1.709006 1.354743
v -1.269732 1.984892 0.8005202
v -1.330394 0.5595741 1.439171
v -1.956917 13.05455 1.069226
v -1.538934 13.18408 1.353946
v -1.436652 13.27372 0.9323682
v -1.688281 11.90207 0.5793452
v -2.319541 11.53702 0.6360336
vt 0 0
vt 0 0
vt 0 0
vt 0 0
vt 0 0
vt 0 0
vt 0 0
vt 0 0
vt 0 0
vt 0 0
vt 0 0
vt 0 0
vt 0 0
vt 0 0
vt 0 0
vt 0 0
vt 0 0
vt 0 0
vt 0 0
vt 0 0
vt 0 0
vt 0 0
vt 0 0
vt 0 0
vt 0 0
vt 0 0
vt 0 0
vt 0 0
vt 0 0
vt 0 0
vt 0 0
vt 0 0
vt 0 0
vt 0 0
vt 0 0
vt 0 0
vt 0 0
vt 0 0
vt 0 0
vt 0 0
vt 0 0
vt 0 0
vt 0 0
vt 0 0
vt 0 0
vt 0 0
vt 0 0
vt 0 0
vt 0 0
vt 0 0
vt 0 0
vt 0 0
vt 0 0
vt 0 0
vt 0 0
vt 0 0
vt 0 0
vt 0 0
vt 0 0
vt 0 0
vt 0 0
vt 0 0
vt 0 0
vt 0 0
vt 0 0
vt 0 0
vt 0 0
vt 0 0
vt 0 0
vt 0 0
vt 0 0
vt 0 0
vt 0 0
vt 0 0
vt 0 0
vt 0 0
vt 0 0
vt 0 0
vt 0 0
vt 0 0
vt 0 0
vt 0 0
vt 0 0
vt 0 0
vt 0 0
vt 0 0
vt 0 0
vt 0 0
vn -0.1706538 0.268819 -0.9479523
vn -0.6462212 0.2802385 0.709834
vn -0.5268977 0.09224074 -0.8449086
vn 0.887882 0.1040062 0.4481611
vn 0.1901973 -0.0005407747 0.9817457
vn -0.8402262 -0.08523807 0.5354946
vn 0.9607873 0.1806389 -0.210374
vn 0.547856 0.1920905 0.8142204
vn 0.3308584 0.1877566 -0.9248136
vn -0.5074598 -0.1288662 -0.8519849
vn -0.9394786 -0.1648741 -0.3003274
vn -0.1227274 0.007341052 0.9924132
vn 0.354585 0.9296414 0.1001823
vn -0.03371773 0.2586085 -0.9653936
vn 0.3498007 0.1822728 0.9189212
vn 0.8600948 0.1864728 -0.4748313
vn -0.8998989 0.4229013 0.1064734
vn -0.06842268 -0.003788017 0.9976493
vn 0.6318682 -0.6073704 0.4815014
vn -0.3442721 0.2358644 -0.90876
vn 0.4250904 -0.381236 -0.820949
vn 0.5825704 -0.311778 -0.7506039
vn 0.6659493 -0.271607 0.6947957
vn 0.842941 -0.4616066 -0.2763509
vn 0.07632785 0.1677283 -0.982874
vn -0.2569857 0.8054596 -0.5340348
vn -0.06988116 0.2736137 0.9592978
vn 0.3383756 0.3909473 -0.8559569
vn -0.284725 0.7093135 0.6448303
vn 0.9105715 -0.09900695 -0.4013194
vn 0.9348652 -0.2593302 0.2424356
vn 0.7367508 -0.2944813 0.60867
vn -0.006664734 0.2607909 0.9653724
vn 0.1739464 -0.3839174 0.9068353
vn 0.07826782 0.4529807 -0.888078
vn 0.533047 0.8315213 0.156311
vn 0.6979519 0.1174323 -0.706451
vn 0.01071749 0.1357035 -0.9906915
vn 0.7543402 -0.07661193 -0.6519981
vn -0.4797204 -0.1547317 0.8636703
vn -0.5490985 -0.1194334 0.8271798
vn -0.6505594 -0.2082259 0.7303523
vn -0.005655221 -0.0973324 0.9952359
vn 0.3302687 -0.087302 0.939841
vn 0.6472713 0.5386622 -0.5393356
vn 0.5821568 0.1525323 0.7986409
vn -0.777078 -0.6199712 -0.1085605
vn -0.9702817 -0.2331843 0.06464213
vn -0.5432767 -0.1445806 0.8270108
vn 0.8143427 -0.1386537 0.5635788
vn 0.9718328 -0.008043638 -0.2355341
vn -0.1180188 0.0712141 -0.9904545
vn -0.6115444 -0.08466098 -0.7866677
vn -0.7149038 0.1616123 -0.6802897
vn 0.08462559 0.1185687 -0.9893332
vn -0.9526284 -0.2794952 0.1199236
vn 0.6924875 0.04025417 -0.7203059
vn -0.9493051 0.255982 0.1824637
vn -0.3021395 0.08804052 0.9491895
vn 0.0593924 0.0525104 0.9968527
vn -0.6276588 0.1867731 0.7557515
vn -0.9129726 0.2535424 -0.3196833
vn -0.531447 0.1809662 -0.8275357
vn 0.3948754 0.07941335 -0.9152961
vn 0.8936903 0.03308065 -0.4474633
vn 0.544916 0.03078868 0.8379252
vn 0.8720434 0.02751579 0.4886545
vn 0.9739491 -0.08569649 0.2099505
vn 0.7918803 -0.5616126 -0.2398268
vn -0.02711985 -0.2003257 -0.9793539
vn 0.5103557 -0.01625237 0.8598098
vn 0.4516163 -0.5068554 0.7342617
vn -0.6798772 0.05448361 -0.7312993
vn 0.2780755 -0.863732 -0.4202867
vn 0.1052011 -0.9455745 0.3079311
vn -0.4728045 -0.7071112 -0.5257847
vn -0.0108652 -0.3100647 0.9506534
vn -0.9651102 0.04743942 -0.2575108
vn -0.6671776 -0.7244676 -0.1732645
vn -0.5325791 -0.6581983 0.5321037
vn -0.3711239 0.19081 0.9087676
vn -0.8312331 0.2242387 0.5086931
vn -0.6486266 0.09585379 0.7550468
vn -0.8895863 0.4138961 0.1931993
vn 0.195213 0.3376272 0.9208147
vn 0.6628249 0.4732119 -0.5802875
vn 0.2177827 0.2410709 -0.9457566
vn -0.7562438 0.237138 -0.609804
g branch02_0
f 3/3/3 2/2/2 1/1/1
f 2/2/2 4/4/4 1/1/1
f 1/1/1 4/4/4 3/3/3
f 5/5/5 4/4/4 2/2/2
f 2/2/2 3/3/3 6/6/6
f 6/6/6 5/5/5 2/2/2
f 4/4/4 5/5/5 7/7/7
f 7/7/7 3/3/3 4/4/4
f 8/8/8 7/7/7 5/5/5
f 5/5/5 6/6/6 8/8/8
f 3/3/3 7/7/7 9/9/9
f 8/8/8 9/9/9 7/7/7
f 6/6/6 3/3/3 10/10/10
f 3/3/3 9/9/9 10/10/10
f 11/11/11 6/6/6 10/10/10
f 9/9/9 11/11/11 10/10/10
f 8/8/8 6/6/6 12/12/12
f 12/12/12 6/6/6 11/11/11
f 13/13/13 9/9/9 8/8/8
f 12/12/12 13/13/13 8/8/8
f 9/9/9 14/14/14 11/11/11
f 13/13/13 14/14/14 9/9/9
f 13/13/13 12/12/12 15/15/15
f 16/16/16 14/14/14 13/13/13
f 13/13/13 15/15/15 16/16/16
f 17/17/17 12/12/12 11/11/11
f 12/12/12 18/18/18 15/15/15
f 12/12/12 17/17/17 18/18/18
f 16/16/16 15/15/15 19/19/19
f 19/19/19 15/15/15 18/18/18
f 14/14/14 20/20/20 11/11/11
f 20/20/20 17/17/17 11/11/11
f 21/21/21 14/14/14 16/16/16
f 19/19/19 21/21/21 16/16/16
f 14/14/14 21/21/21 22/22/22
f 22/22/22 20/20/20 14/14/14
f 21/21/21 19/19/19 22/22/22
f 19/19/19 18/18/18 23/23/23
f 22/22/22 19/19/19 24/24/24
f 19/19/19 23/23/23 24/24/24
f 25/25/25 20/20/20 22/22/22
f 22/22/22 24/24/24 25/25/25
f 25/25/25 26/26/26 20/20/20
f 20/20/20 26/26/26 17/17/17
f 17/17/17 27/27/27 18/18/18
f 27/27/27 23/23/23 18/18/18
f 25/25/25 24/24/24 28/28/28
f 26/26/26 25/25/25 28/28/28
f 29/29/29 27/27/27 17/17/17
f 26/26/26 29/29/29 17/17/17
f 24/24/24 23/23/23 30/30/30
f 30/30/30 28/28/28 24/24/24
f 31/31/31 30/30/30 23/23/23
f 23/23/23 27/27/27 32/32/32
f 32/32/32 31/31/31 23/23/23
f 32/32/32 27/27/27 33/33/33
f 33/33/33 27/27/27 29/29/29
f 32/32/32 34/34/34 31/31/31
f 34/34/34 32/32/32 33/33/33
f 26/26/26 28/28/28 35/35/35
f 26/26/26 36/36/36 29/29/29
f 36/36/36 26/26/26 35/35/35
f 30/30/30 37/37/37 28/28/28
f 38/38/38 28/28/28 37/37/37
f 35/35/35 28/28/28 38/38/38
f 39/39/39 37/37/37 30/30/30
f 31/31/31 39/39/39 30/30/30
f 37/37/37 39/39/39 38/38/38
f 33/33/33 29/29/29 40/40/40
f 41/41/41 34/34/34 33/33/33
f 40/40/40 41/41/41 33/33/33
f 34/34/34 41/41/41 42/42/42
f 41/41/41 40/40/40 42/42/42
f 29/29/29 36/36/36 43/43/43
f 43/43/43 40/40/40 29/29/29
f 31/31/31 34/34/34 44/44/44
f 42/42/42 44/44/44 34/34/34
f 45/45/45 36/36/36 35/35/35
f 46/46/46 43/43/43 36/36/36
f 36/36/36 45/45/45 46/46/46
f 43/43/43 47/47/47 40/40/40
f 40/40/40 48/48/48 42/42/42
f 47/47/47 48/48/48 40/40/40
f 46/46/46 49/49/49 43/43/43
f 47/47/47 43/43/43 49/49/49
f 44/44/44 50/50/50 31/31/31
f 31/31/31 50/50/50 51/51/51
f 51/51/51 39/39/39 31/31/31
f 52/52/52 45/45/45 35/35/35
f 35/35/35 53/53/53 52/52/52
f 48/48/48 47/47/47 53/53/53
f 53/53/53 47/47/47 52/52/52
f 38/38/38 53/53/53 35/35/35
f 54/54/54 48/48/48 53/53/53
f 53/53/53 38/38/38 54/54/54
f 38/38/38 39/39/39 55/55/55
f 55/55/55 54/54/54 38/38/38
f 56/56/56 47/47/47 49/49/49
f 52/52/52 47/47/47 56/56/56
f 57/57/57 39/39/39 51/51/51
f 39/39/39 57/57/57 55/55/55
f 48/48/48 54/54/54 58/58/58
f 42/42/42 48/48/48 58/58/58
f 42/42/42 58/58/58 59/59/59
f 44/44/44 42/42/42 59/59/59
f 44/44/44 59/59/59 60/60/60
f 59/59/59 58/58/58 61/61/61
f 60/60/60 59/59/59 61/61/61
f 62/62/62 58/58/58 54/54/54
f 62/62/62 61/61/61 58/58/58
f 54/54/54 55/55/55 63/63/63
f 54/54/54 63/63/63 62/62/62
f 57/57/57 64/64/64 55/55/55
f 64/64/64 63/63/63 55/55/55
f 57/57/57 51/51/51 65/65/65
f 57/57/57 65/65/65 64/64/64
f 44/44/44 60/60/60 66/66/66
f 50/50/50 44/44/44 66/66/66
f 67/67/67 51/51/51 50/50/50
f 50/50/50 66/66/66 67/67/67
f 68/68/68 51/51/51 67/67/67
f 65/65/65 51/51/51 68/68/68
f 67/67/67 66/66/66 68/68/68
f 65/65/65 69/69/69 64/64/64
f 65/65/65 68/68/68 69/69/69
f 70/70/70 63/63/63 64/64/64
f 70/70/70 64/64/64 69/69/69
f 66/66/66 71/71/71 68/68/68
f 66/66/66 60/60/60 71/71/71
f 72/72/72 68/68/68 71/71/71
f 72/72/72 69/69/69 68/68/68
f 72/72/72 71/71/71 60/60/60
f 70/70/70 73/73/73 63/63/63
f 73/73/73 62/62/62 63/63/63
f 69/69/69 74/74/74 70/70/70
f 75/75/75 69/69/69 72/72/72
f 74/74/74 69/69/69 75/75/75
f 76/76/76 70/70/70 74/74/74
f 70/70/70 76/76/76 73/73/73
f 76/76/76 74/74/74 75/75/75
f 60/60/60 77/77/77 72/72/72
f 75/75/75 72/72/72 77/77/77
f 62/62/62 73/73/73 78/78/78
f 76/76/76 78/78/78 73/73/73
f 76/76/76 75/75/75 79/79/79
f 79/79/79 78/78/78 76/76/76
f 75/75/75 80/80/80 79/79/79
f 77/77/77 80/80/80 75/75/75
f 80/80/80 78/78/78 79/79/79
f 77/77/77 60/60/60 81/81/81
f 81/81/81 60/60/60 61/61/61
f 62/62/62 82/82/82 61/61/61
f 62/62/62 78/78/78 82/82/82
f 82/82/82 81/81/81 61/61/61
f 80/80/80 77/77/77 83/83/83
f 83/83/83 78/78/78 80/80/80
f 81/81/81 83/83/83 77/77/77
f 83/83/83 81/81/81 82/82/82
f 83/83/83 82/82/82 78/78/78
f 84/84/84 56/56/56 49/49/49
f 85/85/85 84/84/84 49/49/49
f 46/46/46 85/85/85 49/49/49
f 46/46/46 86/86/86 85/85/85
f 86/86/86 84/84/84 85/85/85
f 86/86/86 46/46/46 45/45/45
f 86/86/86 45/45/45 87/87/87
f 87/87/87 84/84/84 86/86/86
f 45/45/45 52/52/52 87/87/87
f 52/52/52 56/56/56 88/88/88
f 84/84/84 88/88/88 56/56/56
f 52/52/52 88/88/88 87/87/87
f 84/84/84 87/87/87 88/88/88
