g branch03
v 3.327187 11.04106 0.4888376
v 2.93299 11.51532 0.8563023
v 2.549243 10.9438 0.2905208
v 1.687658 10.57207 0.1563961
v 1.311503 10.26613 1.0945
v 3.23981 11.00726 1.289308
v 3.038323 9.956532 0.5938185
v 2.115207 9.668341 -0.3268791
v 2.544475 10.13636 1.392037
v 2.587312 8.247542 0.5100788
v 2.147 7.361298 -1.05047
v 0.3726425 11.98569 -1.064548
v 0.07028961 12.69265 -0.6016008
v -1.230103 14.46405 -1.7592
v 0.6565117 9.042561 1.451504
v 1.50396 7.598847 1.599878
v 0.3982422 5.046879 1.350538
v 2.123388 6.330373 1.156438
v 2.649924 6.676126 0.1773176
v 1.478938 4.625328 1.304283
v 2.256779 4.088048 0.2184827
v 2.399893 5.270745 -0.4945794
v 1.980933 3.706769 -1.044662
v 0.452784 10.05705 -1.502171
v -0.7512173 12.2532 -1.924316
v -0.09922242 9.226939 -1.193565
v 1.259121 6.848692 -1.464931
v 1.927118 1.812767 1.165194
v 2.357623 1.905902 -0.1847036
v 1.130746 3.265271 -1.679962
v 0.5201594 4.973768 -1.47287
v -0.3398867 3.159976 -1.683621
v 2.169249 1.395561 -1.290539
v -0.1870744 5.700565 -0.8950098
v 0.8693519 1.596244 -2.294947
v 2.915547 0.2226761 -0.7634797
v 1.644905 -0.051178 -2.372388
v 3.003424 0.1613961 0.7199523
v -0.01666555 -0.0921576 -2.907024
v 2.418704 -0.9968543 -1.536579
v 3.058833 -0.7885108 -0.1329279
v 0.8238627 -1.651834 -2.238039
v 1.95746 -1.760438 -0.8497449
v 2.478261 -1.343807 1.013119
v 2.209243 0.06927783 1.907486
v 0.8386495 2.569302 1.752659
v 0.3177423 3.337366 1.609022
v -0.4776192 2.06662 1.845766
v -1.15452 2.87146 0.8479037
v -0.02921927 -0.05711134 2.420465
v 1.520548 -0.9523992 2.046931
v -1.567502 0.004602278 1.977078
v -0.7308104 -0.9881737 2.143133
v 0.1456432 -1.504167 1.465522
v -1.876982 -1.043857 1.31518
v 0.9579384 -1.940312 0.1192106
v -1.24005 -1.695095 -0.06460448
v -0.1871098 -2.031378 -1.410292
v -2.438192 0.1283084 0.7932508
v -2.381574 -0.8917751 0.02002695
v -0.8199949 -1.12986 -2.500477
v -1.81937 -1.253726 -1.356761
v -1.614516 -0.07149214 -2.23985
v -2.417054 0.2334171 -0.9959631
v -1.865364 1.973282 -0.08577951
v -0.9095735 3.800331 -0.5069309
v -0.3577595 5.722155 0.1776983
v -0.04538727 5.440036 0.9885432
v -0.3735318 7.935171 0.0371967
v 0.1168293 8.060211 1.017849
v -0.9245253 10.42324 0.4703647
v -0.8389034 9.350819 -0.5001098
v -1.421167 10.52721 -0.8421867
v -0.685112 11.50158 0.6755214
v -1.651497 11.85608 -1.717229
v -2.114262 11.66422 -0.5948029
v -2.270909 13.84472 -2.348448
v -0.1321335 12.44888 0.2659072
v -3.341992 13.47549 -1.633742
v -2.405594 12.85039 0.134511
v -1.361009 12.7929 0.5306925
v -0.9325504 13.6742 0.2768904
v -1.373213 15.42362 -0.03441633
v -1.983614 14.14409 0.7481973
v -3.590212 13.50008 -0.7733685
v -4.159191 14.22874 -0.7124686
v -3.058906 15.05219 -0.2955391
v -5.27234 13.83229 -1.905535
v -3.519585 14.47195 -1.963739
v -2.485768 15.50247 -1.46416
v -1.967035 15.29463 0.6230925
v -2.53131 18.9351 2.174137
v -5.783328 14.19347 -1.910042
v -5.180294 14.66628 -1.79738
v -3.104512 15.13707 -1.181548
v -2.877597 17.23249 0.25908
v -2.206058 16.70039 -0.3879345
v -1.627013 16.6547 0.07174602
v -1.407597 18.48561 1.314917
v -2.826082 18.90716 1.619015
v -2.392525 18.36797 0.5810937
v -1.937483 19.94588 1.080501
v -2.897711 20.0857 1.422729
v -1.925164 18.05894 1.806207
v -1.628804 19.6578 2.428137
v -3.454053 20.99582 2.441249
v -2.821828 21.08311 2.637087
v -2.801067 21.85168 2.663965
v -4.905264 23.24759 2.864095
v -2.198261 21.23705 1.77781
v -3.407518 23.98771 1.911135
v -3.523693 23.0119 2.789277
v -5.159017 25.05696 2.611635
v -2.818314 20.88047 1.149219
v -3.810024 21.40138 1.844039
v -3.379432 23.14579 1.476064
v -3.906813 24.10414 1.401703
v -3.893237 22.36009 1.24957
v -4.673779 22.60541 2.300386
v -4.746448 22.95761 1.700371
v -6.205044 23.6053 2.294836
v -3.384104 25.02435 2.186184
v -7.085243 24.02932 3.0576
v -8.271996 24.52798 2.96855
v -6.925632 24.66978 3.399519
v -7.409017 24.61847 2.448473
v -9.080176 26.21888 3.00938
v -2.134297 26.4095 1.639405
v -2.415688 26.17439 1.012112
v -3.245911 26.53277 1.850359
v -3.131092 24.81442 1.116188
v -3.842344 25.47548 1.034196
v -5.257153 24.78348 1.781932
v -5.491259 25.1819 2.296582
v -7.642113 25.36571 2.645066
v -3.53952 26.39779 1.360954
v -7.596748 25.48205 3.253599
v -2.772839 27.46927 1.208062
v -9.096537 26.32064 3.769696
v -2.416636 27.92213 1.683353
v -1.658765 27.30624 1.150785
v -2.339245 28.2844 0.7994165
v -1.856618 28.49232 1.045676
v -2.58733 29.41951 0.7029517
v -2.867962 28.84712 1.237029
v -2.729151 29.75512 0.91269
v -10.07377 26.40839 4.127405
v -10.68835 27.79338 3.595481
v -10.65279 27.65178 3.148317
v -9.581683 25.6988 2.969014
v -11.01436 27.37715 3.010924
v -11.40643 29.43605 3.103831
v -11.4438 28.20463 3.521816
v -10.94734 26.72843 3.513434
v -10.11365 25.85062 3.75541
vt 0 0
vt 0 0
vt 0 0
vt 0 0
vt 0 0
vt 0 0
vt 0 0
vt 0 0
vt 0 0
vt 0 0
vt 0 0
vt 0 0
vt 0 0
vt 0 0
vt 0 0
vt 0 0
vt 0 0
vt 0 0
vt 0 0
vt 0 0
vt 0 0
vt 0 0
vt 0 0
vt 0 0
vt 0 0
vt 0 0
vt 0 0
vt 0 0
vt 0 0
vt 0 0
vt 0 0
vt 0 0
vt 0 0
vt 0 0
vt 0 0
vt 0 0
vt 0 0
vt 0 0
vt 0 0
vt 0 0
vt 0 0
vt 0 0
vt 0 0
vt 0 0
vt 0 0
vt 0 0
vt 0 0
vt 0 0
vt 0 0
vt 0 0
vt 0 0
vt 0 0
vt 0 0
vt 0 0
vt 0 0
vt 0 0
vt 0 0
vt 0 0
vt 0 0
vt 0 0
vt 0 0
vt 0 0
vt 0 0
vt 0 0
vt 0 0
vt 0 0
vt 0 0
vt 0 0
vt 0 0
vt 0 0
vt 0 0
vt 0 0
vt 0 0
vt 0 0
vt 0 0
vt 0 0
vt 0 0
vt 0 0
vt 0 0
vt 0 0
vt 0 0
vt 0 0
vt 0 0
vt 0 0
vt 0 0
vt 0 0
vt 0 0
vt 0 0
vt 0 0
vt 0 0
vt 0 0
vt 0 0
vt 0 0
vt 0 0
vt 0 0
vt 0 0
vt 0 0
vt 0 0
vt 0 0
vt 0 0
vt 0 0
vt 0 0
vt 0 0
vt 0 0
vt 0 0
vt 0 0
vt 0 0
vt 0 0
vt 0 0
vt 0 0
vt 0 0
vt 0 0
vt 0 0
vt 0 0
vt 0 0
vt 0 0
vt 0 0
vt 0 0
vt 0 0
vt 0 0
vt 0 0
vt 0 0
vt 0 0
vt 0 0
vt 0 0
vt 0 0
vt 0 0
vt 0 0
vt 0 0
vt 0 0
vt 0 0
vt 0 0
vt 0 0
vt 0 0
vt 0 0
vt 0 0
vt 0 0
vt 0 0
vt 0 0
vt 0 0
vt 0 0
vt 0 0
vt 0 0
vt 0 0
vt 0 0
vt 0 0
vt 0 0
vt 0 0
vt 0 0
vt 0 0
vt 0 0
vt 0 0
vt 0 0
vt 0 0
vt 0 0
vn 0.7576569 0.2210949 -0.6140629
vn -0.2310916 0.8880898 0.3973576
vn -0.04546236 0.5498466 -0.8340276
vn 0.4928595 0.858172 -0.1436325
vn 0.01280145 0.5176534 0.8554947
vn 0.3566662 0.2712675 0.8939816
vn 0.9373252 -0.3098126 -0.1594915
vn 0.6837626 0.2161034 -0.6969708
vn 0.3397628 -0.0329208 0.9399348
vn 0.984752 -0.07276066 0.1580171
vn 0.6796558 0.09125525 -0.7278327
vn 0.7231668 0.3326586 -0.6052834
vn 0.8440127 0.535768 0.02439434
vn 0.6751211 0.4475462 -0.5864418
vn -0.2588571 0.08547433 0.9621264
vn 0.1867252 -0.02845531 0.9819999
vn -0.2651097 0.07082244 0.9616138
vn 0.7259077 -0.09121176 0.6817173
vn 0.9987975 -0.03022606 0.03859833
vn 0.4917551 -0.03193318 0.8701478
vn 0.9606302 -0.03000293 0.2762054
vn 0.9399778 -0.08837263 -0.329594
vn 0.7838147 0.03752569 -0.61986
vn 0.2935675 0.0512305 -0.9545646
vn 0.3257805 -0.01403315 -0.9453413
vn -0.5329164 -0.1969939 -0.8229178
vn 0.1645471 0.03323631 -0.9858091
vn 0.7839992 0.2566891 0.5652043
vn 0.978094 0.2060916 0.02929654
vn 0.3345436 0.1609289 -0.9285378
vn -0.2789524 0.1131421 -0.9536166
vn -0.5092281 0.3420787 -0.7897272
vn 0.7720763 0.2411938 -0.5879828
vn -0.8392699 0.08379617 -0.5372192
vn 0.2704594 0.3030893 -0.9137771
vn 0.9151591 0.1865234 -0.3573414
vn 0.525602 0.02193578 -0.8504477
vn 0.93239 0.1733715 0.3171608
vn -0.09190824 0.1008148 -0.9906509
vn 0.7244155 -0.3504311 -0.59365
vn 0.9173285 -0.3949766 -0.05001805
vn 0.235776 -0.6741749 -0.6999271
vn 0.4236319 -0.8945225 -0.1427079
vn 0.57073 -0.7227951 0.3896592
vn 0.5104715 0.1122045 0.8525426
vn 0.2735782 0.1736459 0.9460455
vn 0.04615267 0.1708675 0.9842125
vn -0.3916432 0.3045513 0.8682535
vn -0.7921619 0.3699601 0.4853957
vn 0.01732919 0.06674685 0.9976195
vn 0.275545 -0.5030927 0.8191293
vn -0.5960807 0.1564808 0.7875288
vn -0.2169587 -0.5643818 0.7964936
vn -0.044575 -0.9117939 0.4082216
vn -0.5761235 -0.6803811 0.4529495
vn 0.07445814 -0.9801471 0.1837597
vn -0.320235 -0.9375006 0.1361703
vn -0.1423511 -0.9727644 -0.182936
vn -0.9160441 0.1911123 0.3526177
vn -0.8765031 -0.4813551 0.00629964
vn -0.3363385 -0.52094 -0.7845367
vn -0.688489 -0.6355804 -0.3493144
vn -0.6240407 0.1935829 -0.7570329
vn -0.9005322 0.2121942 -0.3794935
vn -0.9126259 0.4081763 0.02249785
vn -0.8925973 0.3351991 -0.3015155
vn -0.9787945 0.1688094 0.1160378
vn -0.7665661 0.1668038 0.6201233
vn -0.9931704 -0.08480985 0.08012427
vn -0.7587365 -0.04853557 0.649587
vn -0.7415473 -0.166218 0.6499839
vn -0.8994926 -0.4043899 -0.1654744
vn -0.8144333 -0.5260342 -0.2449211
vn -0.2837985 0.11352 0.9521406
vn -0.4133547 -0.4540791 -0.7892719
vn -0.7964497 -0.5793819 0.1731602
vn -0.0230079 0.02900544 -0.9993144
vn 0.5239222 0.5025796 0.6876913
vn -0.4482479 -0.6411841 -0.6228617
vn -0.5791366 -0.3660238 0.7284418
vn -0.05049455 -0.01984954 0.9985271
vn 0.6359383 0.2621222 0.7258611
vn 0.9501305 0.1986778 0.2403732
vn -0.2140424 0.0168274 0.9766794
vn -0.6448994 -0.7266111 0.2369412
vn -0.6132376 0.01116779 0.7898195
vn -0.7504563 0.1093661 0.6518086
vn -0.4487539 -0.7644055 -0.4629299
vn -0.07650824 0.2948194 -0.9524851
vn -0.02711646 0.5988008 -0.8004388
vn -0.1401393 -0.3445789 0.9282383
vn -0.5125811 -0.3365127 0.7899493
vn -0.8296218 -0.04416502 0.5565762
vn -0.5135393 0.8216234 -0.2474109
vn -0.5766599 0.7676407 -0.2796267
vn -0.8721156 0.2921627 -0.3924991
vn 0.2498072 0.6262944 -0.7384793
vn 0.7422554 0.3771728 -0.5538931
vn 0.9986725 0.04184844 -0.03003132
vn -0.9816534 -0.08338621 0.1714742
vn -0.3080815 0.371866 -0.875672
vn 0.6321815 0.381127 -0.6746026
vn -0.8210066 -0.2193774 -0.5270879
vn 0.4361535 -0.3716132 0.819557
vn 0.7449749 0.04574034 0.6655226
vn -0.5562932 -0.4389076 0.7056189
vn -0.1002956 -0.1401964 0.9850309
vn 0.5963506 0.1817632 0.7818747
vn -0.02970547 -0.1663955 0.9856116
vn 0.8934128 0.4161636 -0.1691791
vn 0.9999491 -0.004633004 -0.008961625
vn 0.3660994 0.1942525 0.9100754
vn 0.2148593 0.3750739 0.9017511
vn 0.06744069 0.09845998 -0.9928531
vn -0.7854368 -0.5340547 -0.3128491
vn 0.5348472 0.2582322 -0.8045214
vn -0.1757291 -0.153792 -0.9723514
vn -0.2964535 -0.1039568 -0.9493726
vn -0.7475531 -0.6566439 0.09991641
vn -0.5276508 -0.2157478 -0.8216068
vn -0.4353892 -0.5639777 -0.7016875
vn 0.3634537 0.1189436 0.923988
vn -0.2756281 -0.7507952 0.6002797
vn -0.4772107 -0.8350753 0.2737137
vn 0.1361613 -0.07498907 0.9878445
vn -0.3375224 -0.1006986 -0.9359158
vn 0.3394832 0.5574011 -0.7576643
vn 0.7243643 -0.2232099 0.6522834
vn 0.4853085 -0.2889718 -0.8252096
vn -0.0967897 0.4140633 0.9050874
vn 0.4641688 -0.4154712 -0.7822601
vn -0.3835399 0.1453851 -0.9120091
vn -0.3941786 0.1548133 -0.9059007
vn -0.2527735 0.9097981 -0.3292005
vn 0.03779974 0.6766405 -0.7353426
vn -0.5709777 0.5964968 -0.564071
vn 0.4317037 0.8294479 0.3544687
vn -0.8436919 0.1630626 -0.5114632
vn 0.5460399 0.6244895 0.5584383
vn 0.08720451 0.2394883 0.966975
vn 0.9520283 -0.06361914 -0.2993235
vn -0.02305312 -0.09826361 -0.9948934
vn 0.8607556 0.4206382 0.2866412
vn -0.1385442 0.2643543 -0.9544225
vn -0.6093714 0.3854808 0.6928716
vn 0.1924893 0.5569722 0.8079169
vn -0.03144783 -0.0527654 0.9981117
vn 0.5649398 0.5925155 0.5742546
vn 0.590009 0.4756908 -0.6523861
vn -0.3828033 -0.4060675 -0.8298017
vn -0.4756325 -0.1612555 -0.8647372
vn -0.5989677 0.7830531 -0.1675283
vn -0.8803024 0.06610069 0.4697855
vn -0.8529065 -0.5026156 0.1411665
vn -0.4999762 -0.778142 0.3801562
g branch03_0
f 3/3/3 2/2/2 1/1/1
f 4/4/4 3/3/3 1/1/1
f 4/4/4 2/2/2 3/3/3
f 5/5/5 2/2/2 4/4/4
f 6/6/6 1/1/1 2/2/2
f 6/6/6 2/2/2 5/5/5
f 7/7/7 1/1/1 6/6/6
f 4/4/4 1/1/1 8/8/8
f 7/7/7 8/8/8 1/1/1
f 9/9/9 7/7/7 6/6/6
f 6/6/6 5/5/5 9/9/9
f 10/10/10 8/8/8 7/7/7
f 7/7/7 9/9/9 10/10/10
f 8/8/8 10/10/10 11/11/11
f 8/8/8 12/12/12 4/4/4
f 8/8/8 11/11/11 12/12/12
f 13/13/13 5/5/5 4/4/4
f 12/12/12 13/13/13 4/4/4
f 12/12/12 14/14/14 13/13/13
f 9/9/9 5/5/5 15/15/15
f 9/9/9 16/16/16 10/10/10
f 16/16/16 9/9/9 15/15/15
f 15/15/15 17/17/17 16/16/16
f 18/18/18 10/10/10 16/16/16
f 19/19/19 11/11/11 10/10/10
f 10/10/10 18/18/18 19/19/19
f 18/18/18 16/16/16 20/20/20
f 20/20/20 16/16/16 17/17/17
f 19/19/19 18/18/18 21/21/21
f 21/21/21 18/18/18 20/20/20
f 11/11/11 19/19/19 22/22/22
f 22/22/22 19/19/19 21/21/21
f 23/23/23 11/11/11 22/22/22
f 22/22/22 21/21/21 23/23/23
f 12/12/12 11/11/11 24/24/24
f 14/14/14 12/12/12 25/25/25
f 12/12/12 24/24/24 25/25/25
f 24/24/24 26/26/26 25/25/25
f 27/27/27 26/26/26 24/24/24
f 11/11/11 27/27/27 24/24/24
f 23/23/23 27/27/27 11/11/11
f 21/21/21 20/20/20 28/28/28
f 23/23/23 21/21/21 29/29/29
f 28/28/28 29/29/29 21/21/21
f 27/27/27 23/23/23 30/30/30
f 26/26/26 27/27/27 31/31/31
f 27/27/27 30/30/30 31/31/31
f 30/30/30 32/32/32 31/31/31
f 30/30/30 23/23/23 33/33/33
f 29/29/29 33/33/33 23/23/23
f 31/31/31 34/34/34 26/26/26
f 32/32/32 34/34/34 31/31/31
f 30/30/30 33/33/33 35/35/35
f 30/30/30 35/35/35 32/32/32
f 36/36/36 33/33/33 29/29/29
f 35/35/35 33/33/33 37/37/37
f 37/37/37 33/33/33 36/36/36
f 29/29/29 28/28/28 38/38/38
f 29/29/29 38/38/38 36/36/36
f 32/32/32 35/35/35 39/39/39
f 39/39/39 35/35/35 37/37/37
f 40/40/40 37/37/37 36/36/36
f 36/36/36 38/38/38 41/41/41
f 36/36/36 41/41/41 40/40/40
f 40/40/40 42/42/42 37/37/37
f 37/37/37 42/42/42 39/39/39
f 41/41/41 43/43/43 40/40/40
f 42/42/42 40/40/40 43/43/43
f 41/41/41 38/38/38 44/44/44
f 41/41/41 44/44/44 43/43/43
f 38/38/38 28/28/28 45/45/45
f 44/44/44 38/38/38 45/45/45
f 28/28/28 46/46/46 45/45/45
f 28/28/28 20/20/20 46/46/46
f 20/20/20 47/47/47 46/46/46
f 17/17/17 47/47/47 20/20/20
f 46/46/46 47/47/47 48/48/48
f 48/48/48 47/47/47 17/17/17
f 49/49/49 48/48/48 17/17/17
f 50/50/50 45/45/45 46/46/46
f 46/46/46 48/48/48 50/50/50
f 45/45/45 51/51/51 44/44/44
f 50/50/50 51/51/51 45/45/45
f 52/52/52 50/50/50 48/48/48
f 52/52/52 48/48/48 49/49/49
f 50/50/50 53/53/53 51/51/51
f 50/50/50 52/52/52 53/53/53
f 44/44/44 51/51/51 54/54/54
f 53/53/53 54/54/54 51/51/51
f 52/52/52 55/55/55 53/53/53
f 53/53/53 55/55/55 54/54/54
f 44/44/44 54/54/54 56/56/56
f 56/56/56 43/43/43 44/44/44
f 54/54/54 57/57/57 56/56/56
f 54/54/54 55/55/55 57/57/57
f 43/43/43 56/56/56 58/58/58
f 57/57/57 58/58/58 56/56/56
f 58/58/58 42/42/42 43/43/43
f 59/59/59 55/55/55 52/52/52
f 59/59/59 52/52/52 49/49/49
f 60/60/60 57/57/57 55/55/55
f 59/59/59 60/60/60 55/55/55
f 61/61/61 42/42/42 58/58/58
f 42/42/42 61/61/61 39/39/39
f 62/62/62 58/58/58 57/57/57
f 60/60/60 62/62/62 57/57/57
f 58/58/58 62/62/62 61/61/61
f 63/63/63 39/39/39 61/61/61
f 63/63/63 61/61/61 62/62/62
f 63/63/63 32/32/32 39/39/39
f 62/62/62 60/60/60 64/64/64
f 62/62/62 64/64/64 63/63/63
f 60/60/60 59/59/59 64/64/64
f 64/64/64 32/32/32 63/63/63
f 59/59/59 65/65/65 64/64/64
f 65/65/65 59/59/59 49/49/49
f 32/32/32 64/64/64 66/66/66
f 65/65/65 66/66/66 64/64/64
f 65/65/65 49/49/49 66/66/66
f 32/32/32 66/66/66 34/34/34
f 66/66/66 49/49/49 67/67/67
f 67/67/67 34/34/34 66/66/66
f 49/49/49 68/68/68 67/67/67
f 68/68/68 49/49/49 17/17/17
f 69/69/69 34/34/34 67/67/67
f 68/68/68 69/69/69 67/67/67
f 69/69/69 26/26/26 34/34/34
f 68/68/68 17/17/17 70/70/70
f 68/68/68 70/70/70 69/69/69
f 70/70/70 17/17/17 15/15/15
f 69/69/69 70/70/70 71/71/71
f 70/70/70 15/15/15 71/71/71
f 72/72/72 26/26/26 69/69/69
f 71/71/71 72/72/72 69/69/69
f 72/72/72 73/73/73 26/26/26
f 72/72/72 71/71/71 73/73/73
f 71/71/71 15/15/15 74/74/74
f 74/74/74 15/15/15 5/5/5
f 26/26/26 73/73/73 75/75/75
f 26/26/26 75/75/75 25/25/25
f 73/73/73 71/71/71 76/76/76
f 76/76/76 71/71/71 74/74/74
f 75/75/75 73/73/73 76/76/76
f 77/77/77 25/25/25 75/75/75
f 77/77/77 14/14/14 25/25/25
f 78/78/78 74/74/74 5/5/5
f 5/5/5 13/13/13 78/78/78
f 79/79/79 75/75/75 76/76/76
f 77/77/77 75/75/75 79/79/79
f 74/74/74 80/80/80 76/76/76
f 74/74/74 78/78/78 81/81/81
f 74/74/74 81/81/81 80/80/80
f 78/78/78 13/13/13 82/82/82
f 78/78/78 82/82/82 81/81/81
f 13/13/13 83/83/83 82/82/82
f 14/14/14 83/83/83 13/13/13
f 84/84/84 81/81/81 82/82/82
f 84/84/84 80/80/80 81/81/81
f 84/84/84 82/82/82 83/83/83
f 76/76/76 80/80/80 85/85/85
f 79/79/79 76/76/76 85/85/85
f 80/80/80 86/86/86 85/85/85
f 86/86/86 80/80/80 84/84/84
f 84/84/84 87/87/87 86/86/86
f 79/79/79 85/85/85 88/88/88
f 86/86/86 88/88/88 85/85/85
f 79/79/79 89/89/89 77/77/77
f 79/79/79 88/88/88 89/89/89
f 14/14/14 77/77/77 90/90/90
f 77/77/77 89/89/89 90/90/90
f 84/84/84 83/83/83 91/91/91
f 91/91/91 87/87/87 84/84/84
f 87/87/87 91/91/91 92/92/92
f 88/88/88 86/86/86 93/93/93
f 88/88/88 93/93/93 94/94/94
f 86/86/86 94/94/94 93/93/93
f 89/89/89 88/88/88 94/94/94
f 94/94/94 86/86/86 87/87/87
f 89/89/89 94/94/94 95/95/95
f 95/95/95 90/90/90 89/89/89
f 94/94/94 87/87/87 95/95/95
f 90/90/90 95/95/95 96/96/96
f 87/87/87 96/96/96 95/95/95
f 90/90/90 97/97/97 14/14/14
f 90/90/90 96/96/96 97/97/97
f 98/98/98 83/83/83 14/14/14
f 97/97/97 98/98/98 14/14/14
f 99/99/99 91/91/91 83/83/83
f 83/83/83 98/98/98 99/99/99
f 96/96/96 87/87/87 100/100/100
f 92/92/92 100/100/100 87/87/87
f 101/101/101 97/97/97 96/96/96
f 101/101/101 98/98/98 97/97/97
f 101/101/101 96/96/96 100/100/100
f 98/98/98 101/101/101 102/102/102
f 102/102/102 99/99/99 98/98/98
f 103/103/103 101/101/101 100/100/100
f 103/103/103 100/100/100 92/92/92
f 103/103/103 102/102/102 101/101/101
f 99/99/99 104/104/104 91/91/91
f 104/104/104 92/92/92 91/91/91
f 99/99/99 105/105/105 104/104/104
f 99/99/99 102/102/102 105/105/105
f 104/104/104 105/105/105 92/92/92
f 92/92/92 106/106/106 103/103/103
f 92/92/92 105/105/105 107/107/107
f 106/106/106 92/92/92 107/107/107
f 108/108/108 107/107/107 105/105/105
f 107/107/107 108/108/108 106/106/106
f 108/108/108 109/109/109 106/106/106
f 102/102/102 110/110/110 105/105/105
f 110/110/110 108/108/108 105/105/105
f 108/108/108 110/110/110 111/111/111
f 111/111/111 112/112/112 108/108/108
f 109/109/109 108/108/108 112/112/112
f 112/112/112 113/113/113 109/109/109
f 102/102/102 103/103/103 114/114/114
f 114/114/114 110/110/110 102/102/102
f 103/103/103 106/106/106 115/115/115
f 115/115/115 114/114/114 103/103/103
f 116/116/116 110/110/110 114/114/114
f 111/111/111 110/110/110 116/116/116
f 116/116/116 117/117/117 111/111/111
f 117/117/117 116/116/116 118/118/118
f 114/114/114 118/118/118 116/116/116
f 114/114/114 115/115/115 118/118/118
f 106/106/106 119/119/119 115/115/115
f 119/119/119 106/106/106 109/109/109
f 118/118/118 115/115/115 120/120/120
f 120/120/120 115/115/115 119/119/119
f 118/118/118 120/120/120 117/117/117
f 121/121/121 120/120/120 119/119/119
f 121/121/121 119/119/119 109/109/109
f 121/121/121 117/117/117 120/120/120
f 122/122/122 113/113/113 112/112/112
f 112/112/112 111/111/111 122/122/122
f 109/109/109 123/123/123 121/121/121
f 123/123/123 124/124/124 121/121/121
f 123/123/123 109/109/109 125/125/125
f 125/125/125 109/109/109 113/113/113
f 124/124/124 123/123/123 125/125/125
f 117/117/117 121/121/121 126/126/126
f 126/126/126 121/121/121 124/124/124
f 127/127/127 126/126/126 124/124/124
f 111/111/111 128/128/128 122/122/122
f 129/129/129 128/128/128 111/111/111
f 113/113/113 122/122/122 130/130/130
f 130/130/130 122/122/122 128/128/128
f 117/117/117 131/131/131 111/111/111
f 111/111/111 131/131/131 129/129/129
f 131/131/131 117/117/117 132/132/132
f 131/131/131 132/132/132 129/129/129
f 126/126/126 133/133/133 117/117/117
f 132/132/132 117/117/117 133/133/133
f 133/133/133 126/126/126 134/134/134
f 132/132/132 133/133/133 134/134/134
f 135/135/135 126/126/126 127/127/127
f 126/126/126 135/135/135 134/134/134
f 132/132/132 136/136/136 129/129/129
f 132/132/132 134/134/134 136/136/136
f 113/113/113 136/136/136 134/134/134
f 136/136/136 113/113/113 130/130/130
f 137/137/137 134/134/134 135/135/135
f 134/134/134 137/137/137 113/113/113
f 135/135/135 127/127/127 137/137/137
f 113/113/113 137/137/137 125/125/125
f 130/130/130 138/138/138 136/136/136
f 129/129/129 136/136/136 138/138/138
f 137/137/137 139/139/139 125/125/125
f 137/137/137 127/127/127 139/139/139
f 138/138/138 130/130/130 140/140/140
f 130/130/130 128/128/128 140/140/140
f 128/128/128 129/129/129 141/141/141
f 128/128/128 141/141/141 140/140/140
f 129/129/129 142/142/142 141/141/141
f 138/138/138 142/142/142 129/129/129
f 140/140/140 141/141/141 143/143/143
f 142/142/142 143/143/143 141/141/141
f 138/138/138 144/144/144 142/142/142
f 143/143/143 142/142/142 144/144/144
f 138/138/138 140/140/140 145/145/145
f 145/145/145 144/144/144 138/138/138
f 143/143/143 145/145/145 140/140/140
f 146/146/146 143/143/143 144/144/144
f 145/145/145 143/143/143 146/146/146
f 146/146/146 144/144/144 145/145/145
f 139/139/139 147/147/147 125/125/125
f 124/124/124 125/125/125 147/147/147
f 139/139/139 148/148/148 147/147/147
f 149/149/149 148/148/148 139/139/139
f 127/127/127 149/149/149 139/139/139
f 124/124/124 150/150/150 127/127/127
f 149/149/149 127/127/127 151/151/151
f 150/150/150 151/151/151 127/127/127
f 152/152/152 148/148/148 149/149/149
f 149/149/149 151/151/151 152/152/152
f 148/148/148 152/152/152 153/153/153
f 151/151/151 153/153/153 152/152/152
f 148/148/148 153/153/153 147/147/147
f 153/153/153 151/151/151 154/154/154
f 154/154/154 151/151/151 150/150/150
f 147/147/147 153/153/153 154/154/154
f 150/150/150 124/124/124 155/155/155
f 155/155/155 154/154/154 150/150/150
f 154/154/154 155/155/155 147/147/147
f 155/155/155 124/124/124 147/147/147
