g COL_branchSmall03
v -3.070096 13.34951 1.142665
v -2.262794 13.59658 0.9254834
v -1.976925 13.35441 1.712617
v -2.784227 13.10734 1.929799
v -1.211241 -0.7940581 -1.329669
v -1.211241 -0.7940581 1.329669
v 1.448097 -0.7940581 1.329669
v 1.448097 -0.7940581 -1.329669
v -1.211241 -0.7940581 -1.329669
v 1.448097 -0.7940581 -1.329669
v 1.385448 4.677923 -0.9674876
v -0.4322758 3.859803 -0.9674876
v -1.211241 -0.7940581 1.329669
v 1.385448 4.677923 1.025861
v 1.448097 -0.7940581 1.329669
v -0.4322758 3.859803 1.025861
v -0.5167716 8.263723 -0.9367463
v -2.15549 7.56665 -0.9512455
v -0.2897615 7.695269 0.7356312
v -1.92848 6.998196 0.721132
v -2.262794 13.59658 0.9254834
v -3.070096 13.34951 1.142665
v -1.976925 13.35441 1.712617
v -2.784227 13.10734 1.929799
vt 0.375 0.75
vt 0.625 0.75
vt 0.625 1
vt 0.375 1
vt 0.375 0.75
vt 0.375 1
vt 0.625 1
vt 0.625 0.75
vt 0.375 0.75
vt 0.625 0.75
vt 0.625 0.75
vt 0.375 0.75
vt 0.375 1
vt 0.625 1
vt 0.625 1
vt 0.375 1
vt 0.625 0.75
vt 0.375 0.75
vt 0.625 1
vt 0.375 1
vt 0.625 0.75
vt 0.375 0.75
vt 0.625 1
vt 0.375 1
vn -0.8338295 0.1327003 -0.5358348
vn 0.4705234 0.4872765 -0.7356421
vn 0.7679701 0.1872309 0.6125083
vn -0.604591 -0.1765679 0.7767197
vn -0.6872565 -0.3045834 -0.6594751
vn -0.688059 -0.3098335 0.6561845
vn 0.6901689 -0.3551845 0.6304847
vn 0.6886681 -0.350284 -0.6348522
vn -0.6872565 -0.3045834 -0.6594751
vn 0.6886681 -0.350284 -0.6348522
vn 0.7672072 0.1622698 -0.6205334
vn -0.6084725 0.004853914 -0.7935602
vn -0.688059 -0.3098335 0.6561845
vn 0.7742437 0.1761054 0.6078928
vn 0.6901689 -0.3551845 0.6304847
vn -0.6255196 0.01991516 0.7799541
vn 0.5042651 0.3582434 -0.7857342
vn -0.739152 -0.09440447 -0.66689
vn 0.6884982 0.2553119 0.6788123
vn -0.6971389 -0.2709576 0.6637615
vn 0.4705234 0.4872765 -0.7356421
vn -0.8338295 0.1327003 -0.5358348
vn 0.7679701 0.1872309 0.6125083
vn -0.604591 -0.1765679 0.7767197
g COL_branchSmall03_0
f 3/3/3 2/2/2 1/1/1
f 4/4/4 3/3/3 1/1/1
f 7/7/7 6/6/6 5/5/5
f 8/8/8 7/7/7 5/5/5
f 11/11/11 10/10/10 9/9/9
f 12/12/12 11/11/11 9/9/9
f 12/12/12 9/9/9 13/13/13
f 11/11/11 14/14/14 10/10/10
f 14/14/14 15/15/15 10/10/10
f 16/16/16 13/13/13 15/15/15
f 16/16/16 12/12/12 13/13/13
f 14/14/14 16/16/16 15/15/15
f 17/17/17 11/11/11 12/12/12
f 18/18/18 12/12/12 16/16/16
f 18/18/18 17/17/17 12/12/12
f 19/19/19 14/14/14 11/11/11
f 17/17/17 19/19/19 11/11/11
f 20/20/20 16/16/16 14/14/14
f 20/20/20 18/18/18 16/16/16
f 19/19/19 20/20/20 14/14/14
f 21/21/21 17/17/17 18/18/18
f 22/22/22 21/21/21 18/18/18
f 22/22/22 18/18/18 20/20/20
f 21/21/21 23/23/23 17/17/17
f 23/23/23 19/19/19 17/17/17
f 24/24/24 22/22/22 20/20/20
f 24/24/24 20/20/20 19/19/19
f 23/23/23 24/24/24 19/19/19
