g COL_root02
v 6.788361 -6.507215 -2.424948
v 6.770747 -6.508067 -2.409118
v 6.793145 -6.509323 -2.406478
v 7.164423 -6.486011 3.447286
v 4.961976 -13.05019 4.278874
v 6.565006 -6.621112 4.679382
v 5.855616 -5.9912 2.962037
v 4.961976 -13.05019 4.278874
v 4.606293 -9.613791 5.281786
v 6.565006 -6.621112 4.679382
v 4.961976 -13.05019 4.278874
v 4.606293 -9.613791 5.281786
v 5.142858 0.4764425 0.129686
v 5.912963 -2.063414 -1.922078
v 3.656758 -1.704533 0.1167502
v -0.7367694 -1.197518 -1.184638
v 5.912963 -2.063414 -1.922078
v 6.67803 -0.2741561 -2.979802
v -0.8974738 -1.197518 1.413333
v 3.656758 -1.704533 0.1167502
v 5.469755 -1.963927 0.5246233
v 4.615927 -1.963927 2.860421
v 7.083024 -0.4975666 0.9677742
v 5.142858 0.4764425 0.129686
v 1.767341 1.628065 1.837115
v 2.221195 1.628065 -1.233612
v 6.097225 -0.3150199 3.029629
v -0.8974738 -1.197518 1.413333
v 4.615927 -1.963927 2.860421
v -0.7026871 11.05107 0.2379649
v -0.7367694 -1.197518 -1.184638
v -0.7026871 11.05107 0.2379649
v -0.7026871 11.05107 0.2379649
v 2.221195 1.628065 -1.233612
v -0.7026871 11.05107 0.2379649
v 3.656758 -1.704533 0.1167502
v 5.912963 -2.063414 -1.922078
v -0.7367694 -1.197518 -1.184638
v 6.67803 -0.2741561 -2.979802
v 2.221195 1.628065 -1.233612
v 7.395743 -0.6610952 -1.381727
v 5.142858 0.4764425 0.129686
v 6.793145 -6.509323 -2.406478
v 6.788361 -6.507215 -2.424948
v 6.770747 -6.508067 -2.409118
v 5.3839 -5.2978 4.032382
v 4.606293 -9.613791 5.281786
v 5.855616 -5.9912 2.962037
v 6.565006 -6.621112 4.679382
v 4.615927 -1.963927 2.860421
v 6.097225 -0.3150199 3.029629
v 5.469755 -1.963927 0.5246233
v 7.083024 -0.4975666 0.9677742
v 7.164423 -6.486011 3.447286
vt 0.375 0.5
vt 0.4576932 0.75
vt 0.5104448 0.5
vt 0.875 0.25
vt 0.75 0.125
vt 0.625 0.25
vt 0.875 0
vt 0.75 0.125
vt 0.625 0
vt 0.625 0.25
vt 0.75 0.125
vt 0.625 0
vt 0.5104448 0.5
vt 0.4576932 0.75
vt 0.5403865 0.75
vt 0.375 0.75
vt 0.4576932 0.75
vt 0.375 0.5
vt 0.375 1
vt 0.5403865 0.75
vt 0.625 0.75
vt 0.625 1
vt 0.625 0.5
vt 0.5104448 0.5
vt 0.375 0.25
vt 0.375 0.5
vt 0.625 0.25
vt 0.375 0
vt 0.625 0
vt 0.25 0.125
vt 0.125 0
vt 0.25 0.125
vt 0.25 0.125
vt 0.125 0.25
vt 0.25 0.125
vt 0.5403865 0.75
vt 0.4576932 0.75
vt 0.375 0.75
vt 0.375 0.5
vt 0.375 0.5
vt 0.5104448 0.5
vt 0.5104448 0.5
vt 0.5104448 0.5
vt 0.375 0.5
vt 0.4576932 0.75
vt 0.625 0
vt 0.625 0
vt 0.875 0
vt 0.625 0.25
vt 0.625 0
vt 0.625 0.25
vt 0.875 0
vt 0.875 0.25
vt 0.875 0.25
vn 0.4445392 -0.07188074 -0.8928707
vn -0.900672 -0.2161649 0.3769121
vn 0.911612 -0.1593802 0.3788951
vn 0.9875267 -0.08748624 -0.1309085
vn -0.7299126 -0.5543501 -0.3999043
vn 0.6589664 0.1177449 0.7428993
vn -0.2392618 -0.372431 -0.8966879
vn -0.7299126 -0.5543501 -0.3999043
vn -0.8979179 -0.1264064 0.4216219
vn 0.6589664 0.1177449 0.7428993
vn -0.7299126 -0.5543501 -0.3999043
vn -0.8979179 -0.1264064 0.4216219
vn 0.5802433 0.8099669 0.0852717
vn -0.4365782 -0.5602128 -0.703961
vn 0.002299033 -0.9998616 0.01647693
vn -0.6868809 -0.2077643 -0.6964399
vn -0.4365782 -0.5602128 -0.703961
vn 0.1850815 0.410684 -0.8927954
vn -0.7765387 -0.231968 0.5858144
vn 0.002299033 -0.9998616 0.01647693
vn 0.01765633 -0.6487816 -0.7607697
vn -0.5397895 -0.2663641 0.798547
vn 0.89457 0.4098694 -0.1781902
vn 0.5802433 0.8099669 0.0852717
vn 0.1411813 0.3235725 0.9356114
vn 0.1930511 0.304462 -0.9327562
vn 0.4014723 0.4886745 0.7746077
vn -0.7765387 -0.231968 0.5858144
vn -0.5397895 -0.2663641 0.798547
vn -0.274731 0.9381544 -0.2106877
vn -0.6868809 -0.2077643 -0.6964399
vn -0.274731 0.9381544 -0.2106877
vn -0.274731 0.9381544 -0.2106877
vn 0.1930511 0.304462 -0.9327562
vn -0.274731 0.9381544 -0.2106877
vn 0.002299033 -0.9998616 0.01647693
vn -0.4365782 -0.5602128 -0.703961
vn -0.6868809 -0.2077643 -0.6964399
vn 0.1850815 0.410684 -0.8927954
vn 0.1930511 0.304462 -0.9327562
vn 0.8652337 0.3908487 0.3140192
vn 0.5802433 0.8099669 0.0852717
vn 0.911612 -0.1593802 0.3788951
vn 0.4445392 -0.07188074 -0.8928707
vn -0.900672 -0.2161649 0.3769121
vn -0.8508298 0.04811308 0.5232339
vn -0.8979179 -0.1264064 0.4216219
vn -0.2392618 -0.372431 -0.8966879
vn 0.6589664 0.1177449 0.7428993
vn -0.5397895 -0.2663641 0.798547
vn 0.4014723 0.4886745 0.7746077
vn 0.01765633 -0.6487816 -0.7607697
vn 0.89457 0.4098694 -0.1781902
vn 0.9875267 -0.08748624 -0.1309085
g COL_root02_0
f 3/3/3 2/2/2 1/1/1
f 6/6/6 5/5/5 4/4/4
f 4/4/4 8/8/8 7/7/7
f 7/7/7 8/8/8 9/9/9
f 12/12/12 11/11/11 10/10/10
f 15/15/15 14/14/14 13/13/13
f 18/18/18 17/17/17 16/16/16
f 20/20/20 19/19/19 16/16/16
f 20/20/20 21/21/21 19/19/19
f 21/21/21 22/22/22 19/19/19
f 23/23/23 21/21/21 20/20/20
f 24/24/24 23/23/23 20/20/20
f 23/23/23 24/24/24 25/25/25
f 24/24/24 26/26/26 25/25/25
f 27/27/27 23/23/23 25/25/25
f 27/27/27 25/25/25 28/28/28
f 29/29/29 27/27/27 28/28/28
f 25/25/25 30/30/30 28/28/28
f 28/28/28 32/32/32 31/31/31
f 34/34/34 33/33/33 25/25/25
f 31/31/31 35/35/35 34/34/34
f 38/38/38 37/37/37 36/36/36
f 40/40/40 39/39/39 38/38/38
f 41/41/41 39/39/39 40/40/40
f 42/42/42 41/41/41 40/40/40
f 37/37/37 41/41/41 42/42/42
f 41/41/41 43/43/43 39/39/39
f 43/43/43 44/44/44 39/39/39
f 39/39/39 44/44/44 37/37/37
f 45/45/45 43/43/43 41/41/41
f 37/37/37 45/45/45 41/41/41
f 44/44/44 45/45/45 37/37/37
f 48/48/48 47/47/47 46/46/46
f 46/46/46 47/47/47 49/49/49
f 48/48/48 46/46/46 50/50/50
f 50/50/50 46/46/46 51/51/51
f 46/46/46 49/49/49 51/51/51
f 52/52/52 48/48/48 50/50/50
f 51/51/51 49/49/49 53/53/53
f 54/54/54 48/48/48 52/52/52
f 53/53/53 54/54/54 52/52/52
f 49/49/49 54/54/54 53/53/53
