g treeBranch01
v 0.399009 -0.4108007 -0.3738994
v 0.02513259 -0.6350745 -0.6587846
v 0.02310515 -0.7945105 -0.3762394
v 0.28438 -0.3431798 -0.672581
v 0.02517902 -0.4840662 -1.148238
v 0.2427773 -0.2922781 -1.158075
v -0.0003009247 -0.2900656 -2.022912
v 0.1520191 -0.2111899 -2.020868
v -0.05491943 -0.224271 -2.888259
v 0.06703105 -0.163468 -2.881021
v -0.04714066 -0.09688324 -3.40045
v 0.06007876 -0.04582047 -3.38038
v 0.465551 0.1050013 -0.3722539
v 0.01740741 -0.08803341 -0.2168889
v 0.02310515 -0.7945105 -0.3762394
v -0.3400815 -0.3640064 -0.3738994
v 0.3253483 0.04334908 -0.7021257
v 0.2772517 0.01640477 -1.17923
v 0.1791701 -0.03873674 -2.016403
v 0.3971965 0.2511238 -0.3722539
v 0.2777035 0.1565434 -0.7111796
v 0.08810663 -0.0297317 -2.8651
v 0.2391406 0.1007594 -1.185739
v 0.009160829 0.4945975 -0.3722539
v 0.01587116 0.3220604 -0.7244572
v 0.01587116 0.3220604 -0.7244572
v 0.02410634 0.2244479 -1.195307
v 0.1524567 0.01506476 -2.015011
v -0.0006912902 0.09469959 -2.012947
v 0.06620606 0.01225556 -2.860103
v -0.05848506 0.07471262 -2.852666
v -0.1386173 0.4536088 -0.3722539
v 0.01587116 0.3220604 -0.7244572
v -0.08364885 0.3032359 -0.7228874
v -0.4391187 0.1177818 -0.3722539
v -0.4564974 -0.04731305 -0.3722539
v -0.2891719 0.05250075 -0.7021257
v -0.3025885 -0.07453932 -0.692017
v -0.2364491 -0.3263306 -0.6725822
v 0.02310515 -0.7945105 -0.3762394
v 0.02513259 -0.6350745 -0.6587846
v -0.1805577 -0.290405 -1.158075
v 0.02517902 -0.4840662 -1.148238
v -0.2325523 -0.08192212 -1.171979
v -0.2188104 0.01874233 -1.17923
v -0.05584486 0.2103129 -1.194174
v -0.1531307 -0.2111898 -2.020868
v -0.0003009247 -0.2900656 -2.022912
v -0.1896894 -0.09826367 -2.017946
v -0.180653 -0.03873673 -2.016403
v -0.1785305 -0.1634679 -2.881021
v -0.05927439 0.08504534 -2.013193
v -0.05491943 -0.224271 -2.888259
v 0.02410634 0.2244479 -1.195307
v 0.01587116 0.3220604 -0.7244572
v -0.0006912902 0.09469959 -2.012947
v -0.05848506 0.07471262 -2.852666
v -0.1059216 0.06727356 -2.853551
v -0.1565633 -0.04582044 -3.38038
v -0.04714066 -0.09688324 -3.40045
v -0.1854025 0.02848584 -3.351175
v -0.2092794 -0.07604243 -2.870614
v -0.1805269 0.06827483 -3.335536
v -0.2027324 -0.02973169 -2.8651
v -0.1510848 0.3266682 -3.780779
v -0.1487511 0.3509718 -3.762957
v -0.1294367 0.2824494 -3.813206
v -0.04714066 -0.09688324 -3.40045
v -0.1273601 0.6440744 -4.049939
v -0.05469942 0.2529123 -3.834867
v -0.1109728 0.6167093 -4.084964
v -0.1153645 1.062131 -4.184126
v -0.1007012 1.052286 -4.217287
v -0.04222657 3.342703 -4.34456
v -0.05757068 0.5993836 -4.108099
v -0.03222217 3.340199 -4.367496
v 3.938201E-12 3.602977 -4.356063
v -0.05244138 1.045918 -4.238738
v -7.05676E-11 3.338606 -4.382088
v 3.938201E-12 3.602977 -4.356063
v 0.01743722 0.2824494 -3.813206
v -0.006009005 0.6167093 -4.084964
v -0.004635502 1.052286 -4.217287
v -0.04714066 -0.09688324 -3.40045
v 0.0788213 0.06827482 -3.335536
v 0.03175145 0.3509718 -3.762957
v 0.005301448 0.6599759 -4.030526
v 0.007535181 1.067706 -4.165346
v 0.03222219 3.340199 -4.367496
v 3.938201E-12 3.602977 -4.356063
v 0.04147247 3.344144 -4.331357
v 3.938201E-12 3.602977 -4.356063
v -0.04222657 3.342703 -4.34456
v -0.04147247 3.344144 -4.331357
v -0.1153645 1.062131 -4.184126
v -0.01445698 3.347461 -4.300968
v -0.1141144 1.067706 -4.165346
v -0.1273601 0.6440744 -4.049939
v -0.1261693 0.6599761 -4.030526
v -0.1510848 0.3266682 -3.780779
v -0.1487511 0.3509718 -3.762957
v -0.07473154 1.080291 -4.122955
v -0.08425613 0.6953774 -3.98725
v -2.15673E-09 3.347735 -4.298468
v 3.938201E-12 3.602977 -4.356063
v -0.05386031 1.081311 -4.119519
v 0.0363504 3.345527 -4.318684
v -0.09063885 0.4039819 -3.724082
v -0.06194077 0.6982215 -3.983777
v -0.0005073568 1.072996 -4.147527
v 0.04147247 3.344144 -4.331357
v 0.007535181 1.067706 -4.165346
v -0.003961735 0.6749353 -4.012244
v 0.005301448 0.6599759 -4.030526
v -0.06046957 0.4081695 -3.721011
v 0.01860663 0.3735587 -3.746392
v 0.03175145 0.3509718 -3.762957
v -0.1805269 0.06827483 -3.335536
v -0.1854025 0.02848584 -3.351175
v -0.09566505 0.1525901 -3.302398
v -0.2027324 -0.02973169 -2.8651
v -0.05315633 0.1591106 -3.299834
v 0.05919667 0.1046074 -3.321255
v 0.0788213 0.06827482 -3.335536
v 0.06620606 0.01225556 -2.860103
v 0.08810663 -0.0297317 -2.8651
v -0.05848506 0.07471262 -2.852666
v -0.05315633 0.1591106 -3.299834
v -0.1059216 0.06727356 -2.853551
v -0.05315633 0.1591106 -3.299834
v -0.05848506 0.07471262 -2.852666
v -0.180653 -0.03873673 -2.016403
v -0.05927439 0.08504534 -2.013193
v -0.1896894 -0.09826367 -2.017946
v -0.2092794 -0.07604243 -2.870614
v -0.1531307 -0.2111898 -2.020868
v -0.1785305 -0.1634679 -2.881021
vt 0.622427 0.1041435
vt 0.508293 0.05587232
vt 0.5076742 0.02155644
vt 0.5874341 0.1186978
vt 0.5083072 0.08837432
vt 0.5747339 0.1296535
vt 0.5005289 0.1301297
vt 0.5470279 0.1471063
vt 0.4838554 0.1442909
vt 0.5210835 0.1573777
vt 0.4862301 0.1717089
vt 0.5189611 0.1826993
vt 0.6427405 0.2151611
vt 0.5059348 0.1736137
vt 0.5076742 0.02155644
vt 0.3968034 0.1142152
vt 0.5999405 0.2018915
vt 0.585258 0.1960922
vt 0.5553164 0.1842239
vt 0.6218737 0.2466115
vt 0.5853958 0.2262547
vt 0.5275173 0.1861621
vt 0.5736237 0.2142481
vt 0.5034173 0.2990151
vt 0.5054658 0.2618794
vt 0.5054658 0.2618794
vt 0.5079798 0.24087
vt 0.5471615 0.1958038
vt 0.5004097 0.2129439
vt 0.5208316 0.1951992
vt 0.4827669 0.208642
vt 0.4583048 0.290193
vt 0.5054658 0.2618794
vt 0.4750851 0.2578278
vt 0.3665702 0.2179119
vt 0.3612649 0.1823781
vt 0.4123447 0.2038613
vt 0.408249 0.1765181
vt 0.4284395 0.1223243
vt 0.5076742 0.02155644
vt 0.508293 0.05587232
vt 0.4455016 0.1300566
vt 0.5083072 0.08837432
vt 0.4296291 0.174929
vt 0.4338241 0.1965954
vt 0.4835729 0.2378277
vt 0.4538743 0.1471063
vt 0.5005289 0.1301297
vt 0.4427139 0.1714118
vt 0.4454725 0.1842239
vt 0.4461204 0.1573777
vt 0.4825259 0.210866
vt 0.4838554 0.1442909
vt 0.5079798 0.24087
vt 0.5054658 0.2618794
vt 0.5004097 0.2129439
vt 0.4827669 0.208642
vt 0.4682859 0.2070409
vt 0.4528264 0.1826993
vt 0.4862301 0.1717089
vt 0.4440226 0.1986925
vt 0.4367337 0.1761945
vt 0.445511 0.2072564
vt 0.4387323 0.1861622
vt 0.4544988 0.2628712
vt 0.4552113 0.2681021
vt 0.4611074 0.2533538
vt 0.4862301 0.1717089
vt 0.4617413 0.3311875
vt 0.4839226 0.2469965
vt 0.4667439 0.3252976
vt 0.4654033 0.4211671
vt 0.4698795 0.4190482
vt 0.4877302 0.9120215
vt 0.4830461 0.3215685
vt 0.4907842 0.9114826
vt 0.5006208 0.9680413
vt 0.4846119 0.4176776
vt 0.5006208 0.9111397
vt 0.5006208 0.9680413
vt 0.5059439 0.2533538
vt 0.4987864 0.3252976
vt 0.4992057 0.4190482
vt 0.4862301 0.1717089
vt 0.5246827 0.2072564
vt 0.5103136 0.2681021
vt 0.5022392 0.33461
vt 0.502921 0.4223671
vt 0.5104573 0.9114826
vt 0.5006208 0.9680413
vt 0.5132812 0.9123317
vt 0.5006208 0.9680413
vt 0.4877302 0.9120215
vt 0.4879604 0.9123318
vt 0.4654033 0.4211671
vt 0.4962075 0.9130458
vt 0.4657848 0.4223672
vt 0.4617413 0.3311875
vt 0.4621049 0.33461
vt 0.4544988 0.2628712
vt 0.4552113 0.2681021
vt 0.4778073 0.4250758
vt 0.4748998 0.3422296
vt 0.5006208 0.9131047
vt 0.5006208 0.9680413
vt 0.4841787 0.4252953
vt 0.5117176 0.9126294
vt 0.4729513 0.2795116
vt 0.481712 0.3428417
vt 0.5004659 0.4235057
vt 0.5132812 0.9123317
vt 0.502921 0.4223671
vt 0.4994114 0.3378298
vt 0.5022392 0.33461
vt 0.4821611 0.280413
vt 0.5063009 0.2729636
vt 0.5103136 0.2681021
vt 0.445511 0.2072564
vt 0.4440226 0.1986925
vt 0.471417 0.2254038
vt 0.4387323 0.1861622
vt 0.4843937 0.2268072
vt 0.5186918 0.2150764
vt 0.5246827 0.2072564
vt 0.5208316 0.1951992
vt 0.5275173 0.1861621
vt 0.4827669 0.208642
vt 0.4843937 0.2268072
vt 0.4682859 0.2070409
vt 0.4843937 0.2268072
vt 0.4827669 0.208642
vt 0.4454725 0.1842239
vt 0.4825259 0.210866
vt 0.4427139 0.1714118
vt 0.4367337 0.1761945
vt 0.4538743 0.1471063
vt 0.4461204 0.1573777
vn 0.8545377 -0.424064 0.2998917
vn -0.03310313 -0.9190411 -0.3927693
vn -0.03468679 -0.9640557 0.2634265
vn 0.8682562 -0.4144571 -0.272684
vn -0.005414183 -0.9773754 -0.2114429
vn 0.8721524 -0.4669418 -0.145998
vn -0.0005866514 -0.9905309 -0.1372885
vn 0.8386757 -0.5272878 -0.1363477
vn -0.01387281 -0.9914908 -0.1294354
vn 0.7881032 -0.6026865 -0.1251488
vn 0.004101473 -0.9063431 -0.4225225
vn 0.7819335 -0.5553657 -0.2831058
vn 0.9793143 0.01980523 0.2013736
vn 0.02040385 -0.02299936 0.9995272
vn -0.03468679 -0.9640557 0.2634265
vn -0.8000867 -0.4990624 0.3328635
vn 0.9681134 -0.002158632 -0.2505029
vn 0.9936786 0.001106722 -0.1122572
vn 0.9933989 -0.003277224 -0.1146643
vn 0.6370728 0.7231606 0.2667903
vn 0.6307291 0.7207101 -0.2876766
vn 0.9968477 -0.006283747 -0.07909001
vn 0.634847 0.7582174 -0.1485787
vn 0.3324486 0.9118004 0.2410352
vn 0.3526584 0.8832939 -0.3089077
vn 0.3526584 0.8832939 -0.3089077
vn 0.3497665 0.9227808 -0.161676
vn 0.608221 0.7855679 -0.1137993
vn 0.326378 0.9392443 -0.1062894
vn 0.5930926 0.8051302 0.002572375
vn 0.3065124 0.9514516 0.02810568
vn -0.6215627 0.7503114 0.2251502
vn 0.3526584 0.8832939 -0.3089077
vn -0.6276339 0.7133977 -0.3116719
vn -0.831939 0.5048816 0.2301562
vn -0.958677 -0.1638567 0.2325711
vn -0.8214497 0.4825496 -0.3039183
vn -0.9501797 -0.1593618 -0.2678851
vn -0.8188975 -0.5126967 -0.2579711
vn -0.03468679 -0.9640557 0.2634265
vn -0.03310313 -0.9190411 -0.3927693
vn -0.8108059 -0.5709862 -0.1287185
vn -0.005414183 -0.9773754 -0.2114429
vn -0.9859059 -0.1399948 -0.09160292
vn -0.8465471 0.5187401 -0.1194432
vn -0.6353843 0.7592475 -0.140819
vn -0.7593275 -0.6472073 -0.06741221
vn -0.0005866514 -0.9905309 -0.1372885
vn -0.9878625 -0.1533183 -0.02492613
vn -0.832486 0.5528751 -0.03600347
vn -0.6940244 -0.715676 -0.07834551
vn -0.6152631 0.7862654 -0.05690217
vn -0.01387281 -0.9914908 -0.1294354
vn 0.3497665 0.9227808 -0.161676
vn 0.3526584 0.8832939 -0.3089077
vn 0.326378 0.9392443 -0.1062894
vn 0.3065124 0.9514516 0.02810568
vn -0.6053647 0.7941403 0.05361664
vn -0.667039 -0.6675479 -0.3308152
vn 0.004101473 -0.9063431 -0.4225225
vn -0.9740735 -0.1800046 -0.1370367
vn -0.9832193 -0.1815803 -0.01755894
vn -0.8460825 0.5108534 0.1522275
vn -0.8256541 0.5625261 0.04312346
vn -0.9705986 -0.1376126 -0.197487
vn -0.8557883 0.4323075 0.2841421
vn -0.6743041 -0.5273334 -0.5169464
vn 0.004101473 -0.9063431 -0.4225225
vn -0.966345 -0.08728154 -0.24199
vn -0.001952375 -0.7281497 -0.6854153
vn -0.6707829 -0.3397989 -0.6592321
vn -0.9626791 -0.0008206582 -0.2706439
vn -0.6483647 -0.06649746 -0.7584203
vn -0.9683741 0.01931443 -0.2487538
vn -0.002973456 -0.4806822 -0.8768898
vn -0.6630356 -0.0232743 -0.7482259
vn 0.2660671 0.9621599 -0.05879304
vn -0.004495088 -0.1094008 -0.9939876
vn 0.005693688 -0.05587965 -0.9984213
vn 0.2660671 0.9621599 -0.05879304
vn 0.7900725 -0.4175083 -0.4488567
vn 0.7844812 -0.2783596 -0.5541707
vn 0.7579114 -0.08109422 -0.6472976
vn 0.004101473 -0.9063431 -0.4225225
vn 0.998289 -0.003675126 -0.05835573
vn 0.9960876 0.02488279 -0.08479648
vn 0.9973775 0.0004089479 -0.07237306
vn 0.9961047 -0.02074378 -0.08570451
vn 0.7852913 -0.04587131 -0.6174248
vn 0.2660671 0.9621599 -0.05879304
vn 0.9980045 -0.01167355 -0.06205399
vn 0.2660671 0.9621599 -0.05879304
vn -0.9683741 0.01931443 -0.2487538
vn -0.8390037 0.07106376 0.5394651
vn -0.9626791 -0.0008206582 -0.2706439
vn -0.6141031 0.08351388 0.7847946
vn -0.8616794 0.0887364 0.4996344
vn -0.966345 -0.08728154 -0.24199
vn -0.8794724 0.279622 0.3851489
vn -0.9705986 -0.1376126 -0.197487
vn -0.8557883 0.4323075 0.2841421
vn -0.637225 0.1109798 0.7626453
vn -0.6675445 0.3980474 0.6292396
vn 0.3270116 0.07300055 0.9421966
vn 0.2660671 0.9621599 -0.05879304
vn 0.3308629 0.1101027 0.9372338
vn 0.6116015 0.05586482 0.7891912
vn -0.6396019 0.6204217 0.4538571
vn 0.3530315 0.4862621 0.7993234
vn 0.6330933 0.08578199 0.7693076
vn 0.9980045 -0.01167355 -0.06205399
vn 0.9961047 -0.02074378 -0.08570451
vn 0.6562966 0.4079131 0.6347296
vn 0.9973775 0.0004089479 -0.07237306
vn 0.3337463 0.7571333 0.5615715
vn 0.6241359 0.6414954 0.4460249
vn 0.9960876 0.02488279 -0.08479648
vn -0.8460825 0.5108534 0.1522275
vn -0.9740735 -0.1800046 -0.1370367
vn -0.6196887 0.7419623 0.2558863
vn -0.8256541 0.5625261 0.04312346
vn 0.3236004 0.8902639 0.3204888
vn 0.6159783 0.7455698 0.254355
vn 0.998289 -0.003675126 -0.05835573
vn 0.5930926 0.8051302 0.002572375
vn 0.9968477 -0.006283747 -0.07909001
vn 0.3065124 0.9514516 0.02810568
vn 0.3236004 0.8902639 0.3204888
vn -0.6053647 0.7941403 0.05361664
vn 0.3236004 0.8902639 0.3204888
vn 0.3065124 0.9514516 0.02810568
vn -0.832486 0.5528751 -0.03600347
vn -0.6152631 0.7862654 -0.05690217
vn -0.9878625 -0.1533183 -0.02492613
vn -0.9832193 -0.1815803 -0.01755894
vn -0.7593275 -0.6472073 -0.06741221
vn -0.6940244 -0.715676 -0.07834551
g treeBranch01_0
f 3/3/3 2/2/2 1/1/1
f 2/2/2 4/4/4 1/1/1
f 2/2/2 5/5/5 4/4/4
f 5/5/5 6/6/6 4/4/4
f 5/5/5 7/7/7 6/6/6
f 7/7/7 8/8/8 6/6/6
f 7/7/7 9/9/9 8/8/8
f 9/9/9 10/10/10 8/8/8
f 9/9/9 11/11/11 10/10/10
f 11/11/11 12/12/12 10/10/10
f 1/1/1 4/4/4 13/13/13
f 13/13/13 14/14/14 1/1/1
f 1/1/1 14/14/14 15/15/15
f 15/15/15 14/14/14 16/16/16
f 4/4/4 6/6/6 17/17/17
f 4/4/4 17/17/17 13/13/13
f 6/6/6 8/8/8 18/18/18
f 6/6/6 18/18/18 17/17/17
f 8/8/8 10/10/10 19/19/19
f 8/8/8 19/19/19 18/18/18
f 13/13/13 17/17/17 20/20/20
f 20/20/20 14/14/14 13/13/13
f 17/17/17 18/18/18 21/21/21
f 17/17/17 21/21/21 20/20/20
f 10/10/10 12/12/12 22/22/22
f 10/10/10 22/22/22 19/19/19
f 18/18/18 19/19/19 23/23/23
f 18/18/18 23/23/23 21/21/21
f 20/20/20 21/21/21 24/24/24
f 24/24/24 14/14/14 20/20/20
f 21/21/21 25/25/25 24/24/24
f 21/21/21 23/23/23 26/26/26
f 23/23/23 27/27/27 26/26/26
f 19/19/19 28/28/28 23/23/23
f 23/23/23 28/28/28 27/27/27
f 19/19/19 22/22/22 28/28/28
f 28/28/28 29/29/29 27/27/27
f 22/22/22 30/30/30 28/28/28
f 28/28/28 30/30/30 29/29/29
f 30/30/30 31/31/31 29/29/29
f 32/32/32 14/14/14 24/24/24
f 24/24/24 33/33/33 32/32/32
f 33/33/33 34/34/34 32/32/32
f 35/35/35 14/14/14 32/32/32
f 32/32/32 34/34/34 35/35/35
f 36/36/36 14/14/14 35/35/35
f 16/16/16 14/14/14 36/36/36
f 35/35/35 37/37/37 36/36/36
f 34/34/34 37/37/37 35/35/35
f 36/36/36 38/38/38 16/16/16
f 37/37/37 38/38/38 36/36/36
f 38/38/38 39/39/39 16/16/16
f 16/16/16 39/39/39 40/40/40
f 39/39/39 41/41/41 40/40/40
f 39/39/39 42/42/42 41/41/41
f 42/42/42 43/43/43 41/41/41
f 38/38/38 44/44/44 39/39/39
f 44/44/44 42/42/42 39/39/39
f 37/37/37 45/45/45 38/38/38
f 45/45/45 44/44/44 38/38/38
f 34/34/34 46/46/46 37/37/37
f 46/46/46 45/45/45 37/37/37
f 42/42/42 47/47/47 43/43/43
f 47/47/47 48/48/48 43/43/43
f 49/49/49 47/47/47 42/42/42
f 44/44/44 49/49/49 42/42/42
f 50/50/50 49/49/49 44/44/44
f 45/45/45 50/50/50 44/44/44
f 47/47/47 51/51/51 48/48/48
f 52/52/52 50/50/50 45/45/45
f 46/46/46 52/52/52 45/45/45
f 51/51/51 53/53/53 48/48/48
f 54/54/54 46/46/46 34/34/34
f 55/55/55 54/54/54 34/34/34
f 54/54/54 56/56/56 46/46/46
f 56/56/56 52/52/52 46/46/46
f 56/56/56 57/57/57 52/52/52
f 57/57/57 58/58/58 52/52/52
f 51/51/51 59/59/59 53/53/53
f 59/59/59 60/60/60 53/53/53
f 61/61/61 59/59/59 51/51/51
f 62/62/62 61/61/61 51/51/51
f 63/63/63 61/61/61 62/62/62
f 64/64/64 63/63/63 62/62/62
f 61/61/61 65/65/65 59/59/59
f 66/66/66 65/65/65 61/61/61
f 65/65/65 67/67/67 59/59/59
f 59/59/59 67/67/67 68/68/68
f 65/65/65 69/69/69 67/67/67
f 67/67/67 70/70/70 68/68/68
f 69/69/69 71/71/71 67/67/67
f 67/67/67 71/71/71 70/70/70
f 69/69/69 72/72/72 71/71/71
f 72/72/72 73/73/73 71/71/71
f 72/72/72 74/74/74 73/73/73
f 71/71/71 75/75/75 70/70/70
f 71/71/71 73/73/73 75/75/75
f 74/74/74 76/76/76 73/73/73
f 74/74/74 77/77/77 76/76/76
f 73/73/73 76/76/76 78/78/78
f 73/73/73 78/78/78 75/75/75
f 76/76/76 79/79/79 78/78/78
f 76/76/76 80/80/80 79/79/79
f 70/70/70 75/75/75 81/81/81
f 75/75/75 78/78/78 82/82/82
f 75/75/75 82/82/82 81/81/81
f 78/78/78 79/79/79 83/83/83
f 78/78/78 83/83/83 82/82/82
f 70/70/70 81/81/81 12/12/12
f 84/84/84 70/70/70 12/12/12
f 12/12/12 81/81/81 85/85/85
f 12/12/12 85/85/85 22/22/22
f 81/81/81 86/86/86 85/85/85
f 81/81/81 82/82/82 86/86/86
f 82/82/82 87/87/87 86/86/86
f 82/82/82 83/83/83 87/87/87
f 83/83/83 88/88/88 87/87/87
f 79/79/79 89/89/89 83/83/83
f 83/83/83 89/89/89 88/88/88
f 79/79/79 90/90/90 89/89/89
f 89/89/89 91/91/91 88/88/88
f 89/89/89 92/92/92 91/91/91
f 94/94/94 92/92/92 93/93/93
f 94/94/94 93/93/93 95/95/95
f 96/96/96 90/90/90 94/94/94
f 97/97/97 94/94/94 95/95/95
f 96/96/96 94/94/94 97/97/97
f 97/97/97 95/95/95 98/98/98
f 99/99/99 97/97/97 98/98/98
f 99/99/99 98/98/98 100/100/100
f 101/101/101 99/99/99 100/100/100
f 102/102/102 96/96/96 97/97/97
f 102/102/102 97/97/97 99/99/99
f 103/103/103 99/99/99 101/101/101
f 103/103/103 102/102/102 99/99/99
f 104/104/104 96/96/96 102/102/102
f 104/104/104 105/105/105 96/96/96
f 106/106/106 104/104/104 102/102/102
f 106/106/106 102/102/102 103/103/103
f 107/107/107 104/104/104 106/106/106
f 107/107/107 80/80/80 104/104/104
f 108/108/108 103/103/103 101/101/101
f 109/109/109 106/106/106 103/103/103
f 109/109/109 103/103/103 108/108/108
f 110/110/110 107/107/107 106/106/106
f 110/110/110 106/106/106 109/109/109
f 111/111/111 107/107/107 110/110/110
f 111/111/111 77/77/77 107/107/107
f 112/112/112 111/111/111 110/110/110
f 112/112/112 110/110/110 113/113/113
f 113/113/113 110/110/110 109/109/109
f 114/114/114 112/112/112 113/113/113
f 113/113/113 109/109/109 115/115/115
f 115/115/115 109/109/109 108/108/108
f 114/114/114 113/113/113 116/116/116
f 116/116/116 113/113/113 115/115/115
f 117/117/117 114/114/114 116/116/116
f 108/108/108 101/101/101 118/118/118
f 118/118/118 101/101/101 119/119/119
f 120/120/120 108/108/108 118/118/118
f 115/115/115 108/108/108 120/120/120
f 120/120/120 118/118/118 121/121/121
f 116/116/116 115/115/115 122/122/122
f 122/122/122 115/115/115 120/120/120
f 123/123/123 116/116/116 122/122/122
f 117/117/117 116/116/116 123/123/123
f 124/124/124 117/117/117 123/123/123
f 124/124/124 123/123/123 125/125/125
f 126/126/126 124/124/124 125/125/125
f 125/125/125 123/123/123 127/127/127
f 123/123/123 128/128/128 127/127/127
f 129/129/129 120/120/120 121/121/121
f 130/130/130 120/120/120 129/129/129
f 131/131/131 130/130/130 129/129/129
f 129/129/129 121/121/121 132/132/132
f 133/133/133 129/129/129 132/132/132
f 132/132/132 121/121/121 134/134/134
f 121/121/121 135/135/135 134/134/134
f 134/134/134 135/135/135 136/136/136
f 135/135/135 137/137/137 136/136/136
