g areaBridge03
v 0.859773 -0.7841937 -8.217746
v 1.932908 -1.430862 -7.280461
v 2.048547 -0.7841937 -7.34131
v 0.7963453 -1.429018 -8.110607
v -0.7446606 -0.7841937 -8.177965
v 1.767307 -1.684457 -6.991403
v -0.7446606 -1.43225 -8.111197
v -2.189137 -0.7841937 -7.672931
v -2.069474 -1.453415 -7.662726
v 0.7669556 -1.895176 -7.793483
v -0.6186596 -1.895176 -7.782121
v -1.687483 -1.844584 -7.398532
v 0.7669556 -1.784064 -5.258898
v 1.848694 -1.449503 -5.305949
v 2.12241 -1.134072 -1.667355
v -0.5608178 -1.697695 -5.258898
v -2.208448 -1.646456 -5.258898
v 0.6808326 -1.529933 -1.64383
v 1.889392 -1.260142 1.820745
v -0.459685 -1.442837 -1.64383
v -1.914402 -1.326802 -1.565295
v 0.267898 -1.512044 1.832513
v 2.174846 -1.612317 4.675408
v -0.7789916 -1.535483 1.832513
v -2.137247 -1.457651 1.950316
v 0.3734302 -1.70682 4.675408
v 1.779841 -1.878578 6.956326
v 0.3734302 -1.872155 7.300974
v -0.5798266 -1.726811 4.675408
v -1.841628 -1.708849 4.832479
v -0.5798266 -1.927783 7.300974
v -1.579294 -1.831873 6.852439
v 2.088108 -1.152346 -5.415051
v 2.048547 -0.7841937 -7.34131
v 1.932908 -1.430862 -7.280461
v 2.324707 -0.6145428 -5.43154
v 2.571733 -0.3612213 -1.674308
v 2.436897 -0.8198993 -1.632697
v 2.31179 -0.3655255 1.873119
v 2.241414 -0.9374622 1.927288
v 2.564407 -1.281129 4.853836
v 2.504875 -0.6534332 4.787098
v 1.828044 -1.471367 7.056561
v 1.904695 -0.7841937 7.121629
v 0.4467993 -1.481954 7.604598
v 0.4467993 -0.7841937 7.725233
v -0.5824292 -1.468251 7.474461
v -0.674641 -0.7841937 7.725233
v -1.624377 -1.447121 7.098982
v -1.835823 -0.7841937 7.162488
v -2.250817 -1.256884 5.016629
v -2.171656 -0.6534332 4.96287
v -2.545665 -0.4296204 2.022835
v -2.561202 -0.9217926 2.059935
v -2.285255 -0.4533264 -1.550636
v -2.237174 -0.9468066 -1.530202
v -2.405807 -1.162405 -5.372853
v -2.581129 -0.6145428 -5.359968
v -2.069474 -1.453415 -7.662726
v -2.189137 -0.7841937 -7.672931
v -2.405807 -1.162405 -5.372853
v -1.687483 -1.844584 -7.398532
v -2.069474 -1.453415 -7.662726
v -2.208448 -1.646456 -5.258898
v -1.914402 -1.326802 -1.565295
v -2.237174 -0.9468066 -1.530202
v -2.137247 -1.457651 1.950316
v -2.561202 -0.9217926 2.059935
v -2.250817 -1.256884 5.016629
v -1.841628 -1.708849 4.832479
v -1.624377 -1.447121 7.098982
v -1.579294 -1.831873 6.852439
v -0.5824292 -1.468251 7.474461
v -0.5798266 -1.927783 7.300974
v 0.4467993 -1.481954 7.604598
v 0.3734302 -1.872155 7.300974
v 1.828044 -1.471367 7.056561
v 1.779841 -1.878578 6.956326
v 2.564407 -1.281129 4.853836
v 2.174846 -1.612317 4.675408
v 1.889392 -1.260142 1.820745
v 2.241414 -0.9374622 1.927288
v 2.12241 -1.134072 -1.667355
v 2.436897 -0.8198993 -1.632697
v 2.088108 -1.152346 -5.415051
v 1.848694 -1.449503 -5.305949
v 1.932908 -1.430862 -7.280461
v 1.767307 -1.684457 -6.991403
v -1.64657 -0.4142328 6.945887
v -1.855232 -0.3453326 4.83785
v -0.5837328 -0.2055426 4.680008
v -0.5837328 -0.4030115 7.318455
v -0.7831566 0 1.834915
v -2.15129 -0.1194 1.953294
v 0.3764575 -0.2055426 4.680008
v 0.3764575 -0.3945313 7.318455
v 1.628801 -0.4676129 6.810535
v 2.18845 -0.336853 4.680008
v 1.903542 -0.1025891 1.818846
v 0.2711207 0 1.834915
v 2.137112 -0.0237384 -1.675753
v 0.6842603 0.05012939 -1.64362
v 1.864495 -0.256159 -5.327341
v -0.4641088 0.05012939 -1.64362
v -1.928884 -0.04888061 -1.564699
v 0.7707789 -0.2397339 -5.263068
v 1.778899 -0.3820489 -7.005827
v 0.7707789 -0.4180194 -7.810973
v -0.5657592 -0.2397339 -5.263068
v -2.22381 -0.2979626 -5.263068
v -0.62385 -0.4323157 -7.798439
v -1.875945 -0.4050848 -7.386672
v 2.194236 -0.1901337 1.853734
v 2.571733 -0.3612213 -1.674308
v 2.31179 -0.3655255 1.873119
v 2.504875 -0.6534332 4.787098
v 2.449609 -0.1858295 -1.674826
v 2.324707 -0.6145428 -5.43154
v 2.391887 -0.478042 4.748856
v 1.904695 -0.7841937 7.121629
v 1.903542 -0.1025891 1.818846
v 2.137112 -0.0237384 -1.675753
v 2.18845 -0.336853 4.680008
v 1.806179 -0.6088018 7.010545
v 0.4467993 -0.7841937 7.725233
v 1.628801 -0.4676129 6.810535
v 2.193442 -0.4391516 -5.394333
v 1.864495 -0.256159 -5.327341
v 1.778899 -0.3820489 -7.005827
v 0.4216821 -0.6088018 7.579988
v -0.674641 -0.7841937 7.725233
v 0.3764575 -0.3945313 7.318455
v 1.952263 -0.6088018 -7.221515
v 2.048547 -0.7841937 -7.34131
v 0.7707789 -0.4180194 -7.810973
v -0.6421801 -0.6088018 7.579988
v -1.835823 -0.7841937 7.162488
v -0.5837328 -0.4030115 7.318455
v 0.8279957 -0.6088018 -8.072496
v 0.859773 -0.7841937 -8.217746
v -0.62385 -0.4323157 -7.798439
v -1.74448 -0.6088018 7.053269
v -1.64657 -0.4142328 6.945887
v -2.171656 -0.6534332 4.96287
v -0.7015258 -0.6088018 -8.042448
v -0.7446606 -0.7841937 -8.177965
v -1.875945 -0.4050848 -7.386672
v -2.058668 -0.478042 4.918231
v -1.855232 -0.3453326 4.83785
v -2.15129 -0.1194 1.953294
v -2.077306 -0.6088018 -7.570714
v -2.189137 -0.7841937 -7.672931
v -2.22381 -0.2979626 -5.263068
v -2.3613 -0.2542291 1.998006
v -2.545665 -0.4296204 2.022835
v -1.928884 -0.04888061 -1.564699
v -2.453541 -0.4391516 -5.325368
v -2.581129 -0.6145428 -5.359968
v -2.145465 -0.1858295 -1.555656
v -2.285255 -0.4533264 -1.550636
vt 0.5416667 0.5
vt 0.625 0.6458333
vt 0.625 0.5
vt 0.5416667 0.6458333
vt 0.4583333 0.5
vt 0.625 0.7499999
vt 0.4583333 0.6458333
vt 0.375 0.5
vt 0.375 0.6458333
vt 0.5416667 0.7499999
vt 0.4583333 0.7499999
vt 0.375 0.7499999
vt 0.5416667 0.8333333
vt 0.625 0.8333333
vt 0.625 0.8749999
vt 0.4583333 0.8333333
vt 0.375 0.8333333
vt 0.5416667 0.8749999
vt 0.625 0.8958333
vt 0.4583333 0.8749999
vt 0.375 0.8749999
vt 0.5416667 0.8958333
vt 0.625 0.9166666
vt 0.4583333 0.8958333
vt 0.375 0.8958333
vt 0.5416667 0.9166666
vt 0.625 0.9999999
vt 0.5416667 0.9999999
vt 0.4583333 0.9166666
vt 0.375 0.9166666
vt 0.4583333 0.9999999
vt 0.375 0.9999999
vt 0.7916667 0.1041667
vt 0.875 0.25
vt 0.875 0.1041667
vt 0.7916667 0.25
vt 0.75 0.25
vt 0.75 0.1041667
vt 0.7291667 0.25
vt 0.7291667 0.1041667
vt 0.7083334 0.1041667
vt 0.7083334 0.25
vt 0.625 0.1041667
vt 0.625 0.25
vt 0.5416667 0.1041667
vt 0.5416667 0.25
vt 0.4583333 0.1041667
vt 0.4583333 0.25
vt 0.375 0.1041667
vt 0.375 0.25
vt 0.2916667 0.1041667
vt 0.2916667 0.25
vt 0.2708333 0.25
vt 0.2708333 0.1041667
vt 0.25 0.25
vt 0.25 0.1041667
vt 0.2083333 0.1041667
vt 0.2083333 0.25
vt 0.125 0.1041667
vt 0.125 0.25
vt 0.375 0.8333333
vt 0.375 0.7499999
vt 0.375 0.6458333
vt 0.375 0.8333333
vt 0.375 0.8749999
vt 0.375 0.8749999
vt 0.375 0.8958333
vt 0.375 0.8958333
vt 0.375 0.9166666
vt 0.375 0.9166666
vt 0.375 0.9999999
vt 0.375 0.9999999
vt 0.4583333 0.9999999
vt 0.4583333 0.9999999
vt 0.5416667 0.9999999
vt 0.5416667 0.9999999
vt 0.625 0.9999999
vt 0.625 0.9999999
vt 0.625 0.9166666
vt 0.625 0.9166666
vt 0.625 0.8958333
vt 0.625 0.8958333
vt 0.625 0.8749999
vt 0.625 0.8749999
vt 0.625 0.8333333
vt 0.625 0.8333333
vt 0.625 0.6458333
vt 0.625 0.7499999
vt 0.375 0.25
vt 0.375 0.3333333
vt 0.4583333 0.3333333
vt 0.4583333 0.25
vt 0.4583333 0.3541667
vt 0.375 0.3541667
vt 0.5416667 0.3333333
vt 0.5416667 0.25
vt 0.625 0.25
vt 0.625 0.3333333
vt 0.625 0.3541667
vt 0.5416667 0.3541667
vt 0.625 0.375
vt 0.5416667 0.375
vt 0.625 0.4166667
vt 0.4583333 0.375
vt 0.375 0.375
vt 0.5416667 0.4166667
vt 0.625 0.5
vt 0.5416667 0.5
vt 0.4583333 0.4166667
vt 0.375 0.4166667
vt 0.4583333 0.5
vt 0.375 0.5
vt 0.625 0.3541667
vt 0.625 0.375
vt 0.625 0.3541667
vt 0.625 0.3333333
vt 0.625 0.375
vt 0.625 0.4166667
vt 0.625 0.3333333
vt 0.625 0.25
vt 0.625 0.3541667
vt 0.625 0.375
vt 0.625 0.3333333
vt 0.625 0.25
vt 0.5416667 0.25
vt 0.625 0.25
vt 0.625 0.4166667
vt 0.625 0.4166667
vt 0.625 0.5
vt 0.5416667 0.25
vt 0.4583333 0.25
vt 0.5416667 0.25
vt 0.625 0.5
vt 0.625 0.5
vt 0.5416667 0.5
vt 0.4583333 0.25
vt 0.375 0.25
vt 0.4583333 0.25
vt 0.5416667 0.5
vt 0.5416667 0.5
vt 0.4583333 0.5
vt 0.375 0.25
vt 0.375 0.25
vt 0.375 0.3333333
vt 0.4583333 0.5
vt 0.4583333 0.5
vt 0.375 0.5
vt 0.375 0.3333333
vt 0.375 0.3333333
vt 0.375 0.3541667
vt 0.375 0.5
vt 0.375 0.5
vt 0.375 0.4166667
vt 0.375 0.3541667
vt 0.375 0.3541667
vt 0.375 0.375
vt 0.375 0.4166667
vt 0.375 0.4166667
vt 0.375 0.375
vt 0.375 0.375
vn 0.2954664 0.03274165 -0.9547919
vn 0.8052464 -0.4042905 -0.4337367
vn 0.8866796 -0.06670152 -0.4575481
vn 0.2587861 -0.3545804 -0.8985002
vn -0.167759 0.07459618 -0.9830016
vn 0.4705941 -0.8788562 -0.07844092
vn -0.1585818 -0.3325745 -0.9296483
vn -0.8551861 -0.01923112 -0.5179642
vn -0.7781556 -0.3973962 -0.4863641
vn 0.07329798 -0.9826865 -0.1701604
vn -0.05518411 -0.9830785 -0.1746753
vn -0.3779924 -0.9108555 -0.1657227
vn 0.08922046 -0.9935901 0.06941503
vn 0.431887 -0.9000667 0.05791008
vn 0.3749072 -0.9266481 0.0277128
vn -0.04983254 -0.9960384 0.07364886
vn -0.3384144 -0.9384449 0.06925924
vn 0.1144724 -0.992866 0.03336443
vn 0.2822664 -0.9580415 -0.04982082
vn -0.05597241 -0.9979754 0.03020176
vn -0.2852531 -0.9581863 0.02257209
vn 0.08739652 -0.9952178 -0.04362802
vn 0.2961966 -0.9505992 -0.09289192
vn -0.03868471 -0.9981827 -0.04620609
vn -0.3259781 -0.9440571 -0.0499456
vn 0.05839354 -0.9945479 -0.08639793
vn 0.3132916 -0.9372151 0.1532194
vn 0.04706387 -0.9859207 0.1604535
vn -0.004670207 -0.9975311 -0.07007139
vn -0.3552329 -0.9344469 -0.02487205
vn -0.04415086 -0.9872752 0.152769
vn -0.4617204 -0.8733139 0.155361
vn 0.8878706 -0.4589462 -0.03247153
vn 0.8866796 -0.06670152 -0.4575481
vn 0.8052464 -0.4042905 -0.4337367
vn 0.9922598 -0.09467839 -0.08035298
vn 0.9995688 -0.02897448 -0.004777302
vn 0.8830392 -0.469246 0.007067967
vn 0.9966472 0.081668 0.004959865
vn 0.910589 -0.4104164 -0.04884673
vn 0.9554823 -0.287556 0.06606869
vn 0.9889355 0.1231322 0.08273463
vn 0.7684144 -0.2722945 0.579133
vn 0.7978117 0.08331553 0.5971223
vn 0.1820375 -0.3024336 0.9356261
vn 0.2015539 -0.00181757 0.9794758
vn -0.2173101 -0.3508254 0.9108775
vn -0.2416032 -0.06594665 0.9681317
vn -0.7791788 -0.3323961 0.5314068
vn -0.8639459 -0.009313497 0.5034984
vn -0.9401186 -0.3178135 0.1231737
vn -0.970618 0.1765534 0.1634917
vn -0.9738539 0.2264701 0.0178869
vn -0.9415056 -0.336994 -0.001479615
vn -0.9935727 0.1131853 -0.001552991
vn -0.9291269 -0.369761 1.228637E-05
vn -0.9283792 -0.3715737 -0.00671114
vn -0.9998121 0.0004427713 -0.01938112
vn -0.7781556 -0.3973962 -0.4863641
vn -0.8551861 -0.01923112 -0.5179642
vn -0.9283792 -0.3715737 -0.00671114
vn -0.3779924 -0.9108555 -0.1657227
vn -0.7781556 -0.3973962 -0.4863641
vn -0.3384144 -0.9384449 0.06925924
vn -0.2852531 -0.9581863 0.02257209
vn -0.9291269 -0.369761 1.228637E-05
vn -0.3259781 -0.9440571 -0.0499456
vn -0.9415056 -0.336994 -0.001479615
vn -0.9401186 -0.3178135 0.1231737
vn -0.3552329 -0.9344469 -0.02487205
vn -0.7791788 -0.3323961 0.5314068
vn -0.4617204 -0.8733139 0.155361
vn -0.2173101 -0.3508254 0.9108775
vn -0.04415086 -0.9872752 0.152769
vn 0.1820375 -0.3024336 0.9356261
vn 0.04706387 -0.9859207 0.1604535
vn 0.7684144 -0.2722945 0.579133
vn 0.3132916 -0.9372151 0.1532194
vn 0.9554823 -0.287556 0.06606869
vn 0.2961966 -0.9505992 -0.09289192
vn 0.2822664 -0.9580415 -0.04982082
vn 0.910589 -0.4104164 -0.04884673
vn 0.3749072 -0.9266481 0.0277128
vn 0.8830392 -0.469246 0.007067967
vn 0.8878706 -0.4589462 -0.03247153
vn 0.431887 -0.9000667 0.05791008
vn 0.8052464 -0.4042905 -0.4337367
vn 0.4705941 -0.8788562 -0.07844092
vn -0.2435231 0.95494 0.1696647
vn -0.1914985 0.9779859 0.08289762
vn -0.04365972 0.9963076 0.07392522
vn -0.0351228 0.9843471 0.1727058
vn -0.04834099 0.9980313 0.03995719
vn -0.1603908 0.9860922 0.04355519
vn 0.03870677 0.996574 0.07308909
vn 0.04629688 0.9849783 0.1663564
vn 0.1952412 0.9669392 0.1640415
vn 0.1439363 0.9863899 0.07948121
vn 0.1110259 0.992728 0.04652402
vn 0.03641024 0.9983755 0.04382342
vn 0.1279742 0.9914868 -0.02401288
vn 0.02619034 0.999288 -0.02715797
vn 0.1546935 0.9845728 -0.08176988
vn -0.0340015 0.9987983 -0.03529943
vn -0.1293669 0.9911466 -0.02987538
vn 0.01121317 0.9971258 -0.07492877
vn 0.2375868 0.9587924 -0.1557874
vn 0.0389627 0.9842626 -0.1723631
vn -0.02358893 0.9970657 -0.07282593
vn -0.1502932 0.9863722 -0.06694805
vn -0.02004061 0.9862974 -0.1637557
vn -0.1793314 0.9684541 -0.1730227
vn 0.5883097 0.807588 0.04115026
vn 0.9995688 -0.02897448 -0.004777302
vn 0.9966472 0.081668 0.004959865
vn 0.9889355 0.1231322 0.08273463
vn 0.5983994 0.800709 -0.02798556
vn 0.9922598 -0.09467839 -0.08035298
vn 0.6584272 0.7447917 0.1084391
vn 0.7978117 0.08331553 0.5971223
vn 0.1110259 0.992728 0.04652402
vn 0.1279742 0.9914868 -0.02401288
vn 0.1439363 0.9863899 0.07948121
vn 0.5336375 0.7380871 0.4128661
vn 0.2015539 -0.00181757 0.9794758
vn 0.1952412 0.9669392 0.1640415
vn 0.638025 0.7623005 -0.1087293
vn 0.1546935 0.9845728 -0.08176988
vn 0.2375868 0.9587924 -0.1557874
vn 0.1537307 0.7347823 0.6606526
vn -0.2416032 -0.06594665 0.9681317
vn 0.04629688 0.9849783 0.1663564
vn 0.595878 0.7226364 -0.3503228
vn 0.8866796 -0.06670152 -0.4575481
vn 0.0389627 0.9842626 -0.1723631
vn -0.1606006 0.6997464 0.6961051
vn -0.8639459 -0.009313497 0.5034984
vn -0.0351228 0.9843471 0.1727058
vn 0.2021148 0.7363237 -0.6457375
vn 0.2954664 0.03274165 -0.9547919
vn -0.02004061 0.9862974 -0.1637557
vn -0.6332819 0.6756428 0.3774396
vn -0.2435231 0.95494 0.1696647
vn -0.970618 0.1765534 0.1634917
vn -0.1169929 0.7258174 -0.6778657
vn -0.167759 0.07459618 -0.9830016
vn -0.1793314 0.9684541 -0.1730227
vn -0.6936682 0.7080151 0.1324345
vn -0.1914985 0.9779859 0.08289762
vn -0.1603908 0.9860922 0.04355519
vn -0.5413421 0.7415237 -0.3963475
vn -0.8551861 -0.01923112 -0.5179642
vn -0.1502932 0.9863722 -0.06694805
vn -0.6744519 0.7374398 0.03601499
vn -0.9738539 0.2264701 0.0178869
vn -0.1293669 0.9911466 -0.02987538
vn -0.7157691 0.6966037 -0.04917246
vn -0.9998121 0.0004427713 -0.01938112
vn -0.6949691 0.7189571 -0.01089075
vn -0.9935727 0.1131853 -0.001552991
g areaBridge03_0
f 3/3/3 2/2/2 1/1/1
f 2/2/2 4/4/4 1/1/1
f 1/1/1 4/4/4 5/5/5
f 2/2/2 6/6/6 4/4/4
f 4/4/4 7/7/7 5/5/5
f 5/5/5 7/7/7 8/8/8
f 7/7/7 9/9/9 8/8/8
f 6/6/6 10/10/10 4/4/4
f 4/4/4 10/10/10 7/7/7
f 7/7/7 11/11/11 9/9/9
f 10/10/10 11/11/11 7/7/7
f 11/11/11 12/12/12 9/9/9
f 6/6/6 13/13/13 10/10/10
f 10/10/10 13/13/13 11/11/11
f 6/6/6 14/14/14 13/13/13
f 14/14/14 15/15/15 13/13/13
f 11/11/11 16/16/16 12/12/12
f 13/13/13 16/16/16 11/11/11
f 16/16/16 17/17/17 12/12/12
f 15/15/15 18/18/18 13/13/13
f 13/13/13 18/18/18 16/16/16
f 15/15/15 19/19/19 18/18/18
f 16/16/16 20/20/20 17/17/17
f 18/18/18 20/20/20 16/16/16
f 20/20/20 21/21/21 17/17/17
f 19/19/19 22/22/22 18/18/18
f 18/18/18 22/22/22 20/20/20
f 19/19/19 23/23/23 22/22/22
f 20/20/20 24/24/24 21/21/21
f 22/22/22 24/24/24 20/20/20
f 24/24/24 25/25/25 21/21/21
f 23/23/23 26/26/26 22/22/22
f 22/22/22 26/26/26 24/24/24
f 23/23/23 27/27/27 26/26/26
f 27/27/27 28/28/28 26/26/26
f 24/24/24 29/29/29 25/25/25
f 26/26/26 29/29/29 24/24/24
f 26/26/26 28/28/28 29/29/29
f 29/29/29 30/30/30 25/25/25
f 28/28/28 31/31/31 29/29/29
f 29/29/29 32/32/32 30/30/30
f 29/29/29 31/31/31 32/32/32
f 35/35/35 34/34/34 33/33/33
f 34/34/34 36/36/36 33/33/33
f 33/33/33 36/36/36 37/37/37
f 38/38/38 33/33/33 37/37/37
f 38/38/38 37/37/37 39/39/39
f 40/40/40 38/38/38 39/39/39
f 40/40/40 39/39/39 41/41/41
f 39/39/39 42/42/42 41/41/41
f 41/41/41 42/42/42 43/43/43
f 42/42/42 44/44/44 43/43/43
f 43/43/43 44/44/44 45/45/45
f 44/44/44 46/46/46 45/45/45
f 45/45/45 46/46/46 47/47/47
f 46/46/46 48/48/48 47/47/47
f 47/47/47 48/48/48 49/49/49
f 48/48/48 50/50/50 49/49/49
f 49/49/49 50/50/50 51/51/51
f 50/50/50 52/52/52 51/51/51
f 51/51/51 52/52/52 53/53/53
f 54/54/54 51/51/51 53/53/53
f 54/54/54 53/53/53 55/55/55
f 56/56/56 54/54/54 55/55/55
f 56/56/56 55/55/55 57/57/57
f 55/55/55 58/58/58 57/57/57
f 57/57/57 58/58/58 59/59/59
f 58/58/58 60/60/60 59/59/59
f 63/63/63 62/62/62 61/61/61
f 62/62/62 64/64/64 61/61/61
f 61/61/61 64/64/64 65/65/65
f 66/66/66 61/61/61 65/65/65
f 66/66/66 65/65/65 67/67/67
f 68/68/68 66/66/66 67/67/67
f 68/68/68 67/67/67 69/69/69
f 67/67/67 70/70/70 69/69/69
f 69/69/69 70/70/70 71/71/71
f 70/70/70 72/72/72 71/71/71
f 71/71/71 72/72/72 73/73/73
f 72/72/72 74/74/74 73/73/73
f 73/73/73 74/74/74 75/75/75
f 74/74/74 76/76/76 75/75/75
f 75/75/75 76/76/76 77/77/77
f 76/76/76 78/78/78 77/77/77
f 77/77/77 78/78/78 79/79/79
f 78/78/78 80/80/80 79/79/79
f 79/79/79 80/80/80 81/81/81
f 82/82/82 79/79/79 81/81/81
f 82/82/82 81/81/81 83/83/83
f 84/84/84 82/82/82 83/83/83
f 84/84/84 83/83/83 85/85/85
f 83/83/83 86/86/86 85/85/85
f 85/85/85 86/86/86 87/87/87
f 86/86/86 88/88/88 87/87/87
f 91/91/91 90/90/90 89/89/89
f 92/92/92 91/91/91 89/89/89
f 91/91/91 93/93/93 90/90/90
f 93/93/93 94/94/94 90/90/90
f 95/95/95 91/91/91 92/92/92
f 96/96/96 95/95/95 92/92/92
f 97/97/97 95/95/95 96/96/96
f 97/97/97 98/98/98 95/95/95
f 98/98/98 99/99/99 95/95/95
f 95/95/95 100/100/100 91/91/91
f 99/99/99 100/100/100 95/95/95
f 100/100/100 93/93/93 91/91/91
f 99/99/99 101/101/101 100/100/100
f 101/101/101 102/102/102 100/100/100
f 100/100/100 102/102/102 93/93/93
f 101/101/101 103/103/103 102/102/102
f 93/93/93 104/104/104 94/94/94
f 102/102/102 104/104/104 93/93/93
f 104/104/104 105/105/105 94/94/94
f 103/103/103 106/106/106 102/102/102
f 102/102/102 106/106/106 104/104/104
f 103/103/103 107/107/107 106/106/106
f 107/107/107 108/108/108 106/106/106
f 104/104/104 109/109/109 105/105/105
f 106/106/106 109/109/109 104/104/104
f 106/106/106 108/108/108 109/109/109
f 109/109/109 110/110/110 105/105/105
f 108/108/108 111/111/111 109/109/109
f 109/109/109 112/112/112 110/110/110
f 109/109/109 111/111/111 112/112/112
f 115/115/115 114/114/114 113/113/113
f 115/115/115 113/113/113 116/116/116
f 114/114/114 117/117/117 113/113/113
f 114/114/114 118/118/118 117/117/117
f 113/113/113 119/119/119 116/116/116
f 116/116/116 119/119/119 120/120/120
f 113/113/113 117/117/117 121/121/121
f 113/113/113 121/121/121 119/119/119
f 117/117/117 122/122/122 121/121/121
f 121/121/121 123/123/123 119/119/119
f 119/119/119 124/124/124 120/120/120
f 119/119/119 123/123/123 124/124/124
f 120/120/120 124/124/124 125/125/125
f 123/123/123 126/126/126 124/124/124
f 117/117/117 127/127/127 122/122/122
f 118/118/118 127/127/127 117/117/117
f 127/127/127 128/128/128 122/122/122
f 129/129/129 128/128/128 127/127/127
f 124/124/124 130/130/130 125/125/125
f 124/124/124 126/126/126 130/130/130
f 125/125/125 130/130/130 131/131/131
f 126/126/126 132/132/132 130/130/130
f 133/133/133 127/127/127 118/118/118
f 133/133/133 129/129/129 127/127/127
f 134/134/134 133/133/133 118/118/118
f 135/135/135 129/129/129 133/133/133
f 130/130/130 136/136/136 131/131/131
f 130/130/130 132/132/132 136/136/136
f 131/131/131 136/136/136 137/137/137
f 132/132/132 138/138/138 136/136/136
f 139/139/139 133/133/133 134/134/134
f 139/139/139 135/135/135 133/133/133
f 140/140/140 139/139/139 134/134/134
f 141/141/141 135/135/135 139/139/139
f 136/136/136 142/142/142 137/137/137
f 136/136/136 138/138/138 142/142/142
f 138/138/138 143/143/143 142/142/142
f 137/137/137 142/142/142 144/144/144
f 145/145/145 139/139/139 140/140/140
f 145/145/145 141/141/141 139/139/139
f 146/146/146 145/145/145 140/140/140
f 147/147/147 141/141/141 145/145/145
f 142/142/142 143/143/143 148/148/148
f 142/142/142 148/148/148 144/144/144
f 143/143/143 149/149/149 148/148/148
f 148/148/148 149/149/149 150/150/150
f 151/151/151 145/145/145 146/146/146
f 151/151/151 147/147/147 145/145/145
f 152/152/152 151/151/151 146/146/146
f 153/153/153 147/147/147 151/151/151
f 144/144/144 148/148/148 154/154/154
f 154/154/154 148/148/148 150/150/150
f 155/155/155 144/144/144 154/154/154
f 154/154/154 150/150/150 156/156/156
f 157/157/157 151/151/151 152/152/152
f 157/157/157 153/153/153 151/151/151
f 156/156/156 153/153/153 157/157/157
f 158/158/158 157/157/157 152/152/152
f 155/155/155 154/154/154 159/159/159
f 159/159/159 154/154/154 156/156/156
f 159/159/159 156/156/156 157/157/157
f 159/159/159 157/157/157 158/158/158
f 160/160/160 155/155/155 159/159/159
f 160/160/160 159/159/159 158/158/158
