g areaSlab08
v 0.7493122 -0.3183264 -5.053237
v 1.704591 -2.418955 -3.996289
v 1.938085 -0.3183264 -4.176802
v 0.7493122 -2.418955 -5.053237
v 1.923436 -4.533103 -4.233628
v -0.8551238 -0.3183264 -5.013457
v 0.7114155 -4.417872 -5.233008
v -0.8551238 -2.418955 -5.197231
v -2.299598 -0.3183264 -4.508423
v -0.8551238 -4.418955 -5.197231
v -2.140046 -2.418955 -4.494819
v -2.140046 -4.418955 -4.494819
v 2.058683 -4.434029 -1.221314
v 1.704591 -2.418955 -3.996289
v 1.923436 -4.533103 -4.233628
v 1.862414 -2.418955 -1.199043
v 1.938085 -0.3183264 -4.176802
v 2.714452 -4.418955 1.417759
v 2.12164 -0.3183264 -1.199043
v 2.714452 -2.418955 1.417759
v 2.114271 -4.418955 3.752285
v 2.635078 -0.3183264 1.328774
v 2.114271 -2.418955 3.752285
v 0.5770038 -4.418955 4.10606
v 2.034898 -0.3183264 3.663301
v 0.5770038 -2.418955 4.10606
v -0.4214922 -4.418955 3.932539
v 0.5770038 -0.3183264 4.266904
v -0.4214922 -2.418955 3.932539
v -1.423692 -4.418955 3.619492
v -0.5444366 -0.3183264 4.266904
v -1.423692 -2.418955 3.619492
v -2.03517 -4.418955 1.576216
v -1.705619 -0.3183264 3.704165
v -2.202913 -2.418955 1.576216
v -2.359194 -4.418955 -1.144653
v -2.041453 -0.3183264 1.504546
v -2.507146 -2.418955 -1.144653
v -2.140046 -4.418955 -4.494819
v -2.691591 -0.3183264 -1.127471
v -2.140046 -2.418955 -4.494819
v -2.299598 -0.3183264 -4.508423
v -0.4214922 -4.418955 3.932539
v -0.4214922 -18.41895 3.932539
v -1.423692 -18.41895 3.619492
v -1.423692 -4.418955 3.619492
v 0.5770038 -4.418955 4.10606
v 0.5770038 -18.41895 4.10606
v -0.4214922 -18.41895 3.932539
v -0.4214922 -4.418955 3.932539
v 2.114271 -4.418955 3.752285
v 2.114271 -18.41895 3.752285
v 0.5770038 -18.41895 4.10606
v 0.5770038 -4.418955 4.10606
v -2.140046 -4.418955 -4.494819
v -2.140046 -18.41895 -4.494819
v -0.8551238 -18.41895 -5.197231
v -0.8551238 -4.418955 -5.197231
v -0.8551238 -4.418955 -5.197231
v -0.8551238 -18.41895 -5.197231
v 0.7114155 -18.41895 -5.233008
v 0.7114155 -4.417872 -5.233008
v 0.7114155 -4.417872 -5.233008
v 0.7114155 -18.41895 -5.233008
v 1.923436 -18.41895 -4.233628
v 1.923436 -4.533103 -4.233628
v 1.923436 -4.533103 -4.233628
v 1.923436 -18.41895 -4.233628
v 2.058683 -18.41895 -1.221314
v 2.058683 -4.434029 -1.221314
v 2.058683 -4.434029 -1.221314
v 2.058683 -18.41895 -1.221314
v 2.714452 -18.41895 1.417759
v 2.714452 -4.418955 1.417759
v 2.714452 -4.418955 1.417759
v 2.714452 -18.41895 1.417759
v 2.114271 -18.41895 3.752285
v 2.114271 -4.418955 3.752285
v -2.359194 -4.418955 -1.144653
v -2.359194 -18.41895 -1.144653
v -2.140046 -18.41895 -4.494819
v -2.140046 -4.418955 -4.494819
v -2.03517 -4.418955 1.576216
v -2.03517 -18.41895 1.576216
v -2.359194 -18.41895 -1.144653
v -2.359194 -4.418955 -1.144653
v -1.423692 -4.418955 3.619492
v -1.423692 -18.41895 3.619492
v -2.03517 -18.41895 1.576216
v -2.03517 -4.418955 1.576216
v -1.516369 2.273737E-15 3.487559
v -1.725027 2.273737E-15 1.379521
v -0.453532 2.273737E-15 1.221679
v -0.453532 2.273737E-15 3.860127
v -0.67622 2.273737E-15 -1.030571
v -2.334272 2.273737E-15 -1.030571
v -1.986408 2.273737E-15 -4.222163
v -0.7343132 2.273737E-15 -4.633931
v 0.6603193 2.273737E-15 -4.646465
v 0.6603193 2.273737E-15 -1.030571
v 1.668438 2.273737E-15 -3.841318
v 1.754033 2.273737E-15 -1.094844
v 0.506659 2.273737E-15 1.221679
v 0.506659 2.273737E-15 3.860127
v 2.318652 2.273737E-15 1.221679
v 1.759004 2.273737E-15 3.352207
v -2.041453 -0.3183264 1.504546
v -1.928465 -0.1419678 1.459902
v -1.614277 -0.1419678 3.594946
v -1.705619 -0.3183264 3.704165
v -2.691591 -0.3183264 -1.127471
v -0.5119768 -0.1419678 4.121655
v -0.5444366 -0.3183264 4.266904
v -2.564001 -0.1419678 -1.092871
v -2.299598 -0.3183264 -4.508423
v 0.5518854 -0.1419678 4.121655
v 0.5770038 -0.3183264 4.266904
v -2.187765 -0.1419678 -4.406206
v -0.8551238 -0.3183264 -5.013457
v 1.936383 -0.1419678 3.552217
v 2.034898 -0.3183264 3.663301
v -0.8119854 -0.1419678 -4.877939
v 0.7493122 -0.3183264 -5.053237
v 2.52209 -0.1419678 1.290532
v 2.635078 -0.3183264 1.328774
v 0.7175351 -0.1419678 -4.907988
v 1.938085 -0.3183264 -4.176802
v 1.990377 -0.1419678 -1.161836
v 2.12164 -0.3183264 -1.199043
v 1.841801 -0.1419678 -4.057007
v 1.759004 2.273737E-15 3.352207
v 0.506659 2.273737E-15 3.860127
v 2.318652 2.273737E-15 1.221679
v 1.754033 2.273737E-15 -1.094844
v -0.453532 2.273737E-15 3.860127
v 1.668438 2.273737E-15 -3.841318
v 0.6603193 2.273737E-15 -4.646465
v -1.516369 2.273737E-15 3.487559
v -0.7343132 2.273737E-15 -4.633931
v -1.725027 2.273737E-15 1.379521
v -1.986408 2.273737E-15 -4.222163
v -2.334272 2.273737E-15 -1.030571
vt 0.5416667 0.5
vt 0.625 0.5833333
vt 0.625 0.5
vt 0.5416667 0.5833333
vt 0.625 0.6666666
vt 0.4583333 0.5
vt 0.5416667 0.6666666
vt 0.4583333 0.5833333
vt 0.375 0.5
vt 0.4583333 0.6666666
vt 0.375 0.5833333
vt 0.375 0.6666666
vt 0.7916667 0.08333334
vt 0.875 0.1666667
vt 0.875 0.08333334
vt 0.7916667 0.1666667
vt 0.875 0.25
vt 0.7083334 0.08333334
vt 0.7916667 0.25
vt 0.7083334 0.1666667
vt 0.625 0.08333334
vt 0.7083334 0.25
vt 0.625 0.1666667
vt 0.5416667 0.08333334
vt 0.625 0.25
vt 0.5416667 0.1666667
vt 0.4583333 0.08333334
vt 0.5416667 0.25
vt 0.4583333 0.1666667
vt 0.375 0.08333334
vt 0.4583333 0.25
vt 0.375 0.1666667
vt 0.2916667 0.08333334
vt 0.375 0.25
vt 0.2916667 0.1666667
vt 0.2083333 0.08333334
vt 0.2916667 0.25
vt 0.2083333 0.1666667
vt 0.125 0.08333334
vt 0.2083333 0.25
vt 0.125 0.1666667
vt 0.125 0.25
vt 0 0
vt 0 1
vt 1 1
vt 1 0
vt 0 0
vt 0 1
vt 1 1
vt 1 0
vt 0 0
vt 0 1
vt 1 1
vt 1 0
vt 0 0
vt 0 1
vt 1 1
vt 1 0
vt 0 0
vt 0 1
vt 1 1
vt 1 0
vt 0 0
vt 0 1
vt 1 1
vt 1 0
vt 0 0
vt 0 1
vt 1 1
vt 1 0
vt 0 0
vt 0 1
vt 1 1
vt 1 0
vt 0 0
vt 0 1
vt 1 1
vt 1 0
vt 0 0
vt 0 1
vt 1 1
vt 1 0
vt 0 0
vt 0 1
vt 1 1
vt 1 0
vt 0 0
vt 0 1
vt 1 1
vt 1 0
vt 0.375 0.25
vt 0.375 0.3333333
vt 0.4583333 0.3333333
vt 0.4583333 0.25
vt 0.4583333 0.4166667
vt 0.375 0.4166667
vt 0.375 0.5
vt 0.4583333 0.5
vt 0.5416667 0.5
vt 0.5416667 0.4166667
vt 0.625 0.5
vt 0.625 0.4166667
vt 0.5416667 0.3333333
vt 0.5416667 0.25
vt 0.625 0.3333333
vt 0.625 0.25
vt 0.375 0.3333333
vt 0.375 0.3333333
vt 0.375 0.25
vt 0.375 0.25
vt 0.375 0.4166667
vt 0.4583333 0.25
vt 0.4583333 0.25
vt 0.375 0.4166667
vt 0.375 0.5
vt 0.5416667 0.25
vt 0.5416667 0.25
vt 0.375 0.5
vt 0.4583333 0.5
vt 0.625 0.25
vt 0.625 0.25
vt 0.4583333 0.5
vt 0.5416667 0.5
vt 0.625 0.3333333
vt 0.625 0.3333333
vt 0.5416667 0.5
vt 0.625 0.5
vt 0.625 0.4166667
vt 0.625 0.4166667
vt 0.625 0.5
vt 0.625 0.25
vt 0.5416667 0.25
vt 0.625 0.3333333
vt 0.625 0.4166667
vt 0.4583333 0.25
vt 0.625 0.5
vt 0.5416667 0.5
vt 0.375 0.25
vt 0.4583333 0.5
vt 0.375 0.3333333
vt 0.375 0.5
vt 0.375 0.4166667
vn 0.3501407 0.04795416 -0.9354688
vn 0.9561434 0.0003130606 -0.2928989
vn 0.947046 -0.05227887 -0.3168132
vn 0.3748159 0.03446815 -0.9264584
vn 0.9469897 0.01268352 -0.3210134
vn -0.1838694 0.08884948 -0.9789268
vn 0.3266402 0.01005402 -0.9450953
vn -0.1996305 0.02920242 -0.979436
vn -0.9185743 -0.003034449 -0.3952366
vn -0.2468106 0.003000878 -0.9690591
vn -0.9209484 -0.04215664 -0.3873975
vn -0.9368086 -0.003580598 -0.3498238
vn 0.9897516 0.009997209 -0.1424491
vn 0.9561434 0.0003130606 -0.2928989
vn 0.9469897 0.01268352 -0.3210134
vn 0.9877053 -0.004496077 -0.1562626
vn 0.947046 -0.05227887 -0.3168132
vn 0.9999053 0.003363403 -0.01334312
vn 0.9879446 -0.02512432 -0.1527555
vn 0.9997079 0.01272407 -0.0205445
vn 0.7827389 0 0.6223502
vn 0.9987866 0.04545917 -0.0189438
vn 0.7922305 0.01416376 0.6100575
vn 0.07090454 0 0.9974832
vn 0.8005269 0.0769494 0.5943362
vn 0.1129023 -0.02887788 0.9931864
vn -0.2363099 0 0.9716777
vn 0.1551759 0.007676838 0.987857
vn -0.2357005 -0.06665871 0.9695369
vn -0.823352 -0.003742575 0.5675188
vn -0.2393808 -0.05399945 0.969423
vn -0.8216093 -0.05194728 0.5676791
vn -0.9808413 -0.00772753 0.194655
vn -0.8488448 -0.01281283 0.5284868
vn -0.9772964 -0.0375895 0.2085157
vn -0.9998546 -0.007000522 0.01555489
vn -0.9771703 0.03747582 0.2091263
vn -0.9986385 -0.05127532 0.009598794
vn -0.9368086 -0.003580598 -0.3498238
vn -0.9998228 0.008697316 0.01669742
vn -0.9209484 -0.04215664 -0.3873975
vn -0.9185743 -0.003034449 -0.3952366
vn -0.2363099 0 0.9716777
vn -0.2363097 0 0.9716778
vn -0.8250692 0 0.5650316
vn -0.823352 -0.003742575 0.5675188
vn 0.07090454 0 0.9974832
vn 0.07090422 0 0.9974832
vn -0.2363097 0 0.9716778
vn -0.2363099 0 0.9716777
vn 0.7827389 0 0.6223502
vn 0.7827389 0 0.6223502
vn 0.07090422 0 0.9974832
vn 0.07090454 0 0.9974832
vn -0.9368086 -0.003580598 -0.3498238
vn -0.9375139 0 -0.347948
vn -0.2506141 0 -0.9680871
vn -0.2468106 0.003000878 -0.9690591
vn -0.2468106 0.003000878 -0.9690591
vn -0.2506141 0 -0.9680871
vn 0.3269377 0 -0.9450459
vn 0.3266402 0.01005402 -0.9450953
vn 0.3266402 0.01005402 -0.9450953
vn 0.3269377 0 -0.9450459
vn 0.9479332 0 -0.3184691
vn 0.9469897 0.01268352 -0.3210134
vn 0.9469897 0.01268352 -0.3210134
vn 0.9479332 0 -0.3184691
vn 0.9903178 0 -0.1388183
vn 0.9897516 0.009997209 -0.1424491
vn 0.9897516 0.009997209 -0.1424491
vn 0.9903178 0 -0.1388183
vn 0.9999384 0 -0.0111082
vn 0.9999053 0.003363403 -0.01334312
vn 0.9999053 0.003363403 -0.01334312
vn 0.9999384 0 -0.0111082
vn 0.7827389 0 0.6223502
vn 0.7827389 0 0.6223502
vn -0.9998546 -0.007000522 0.01555489
vn -0.9998509 0 0.01727217
vn -0.9375139 0 -0.347948
vn -0.9368086 -0.003580598 -0.3498238
vn -0.9808413 -0.00772753 0.194655
vn -0.981261 0 0.1926832
vn -0.9998509 0 0.01727217
vn -0.9998546 -0.007000522 0.01555489
vn -0.823352 -0.003742575 0.5675188
vn -0.8250692 0 0.5650316
vn -0.981261 0 0.1926832
vn -0.9808413 -0.00772753 0.194655
vn -0.1844042 0.9787256 0.08995155
vn -0.1054171 0.9942065 0.02098719
vn 0 1 0
vn -0.01621865 0.9968587 0.07752212
vn 0 1 0
vn -0.1282705 0.9916919 0.009677181
vn -0.1559543 0.9853867 -0.0684925
vn -0.008843397 0.9983315 -0.0570612
vn 0.02117118 0.9978386 -0.06220973
vn 0 1 0
vn 0.1832726 0.9820029 -0.04562474
vn 0.109384 0.993889 -0.01482737
vn 0 1 0
vn 0.01905805 0.996476 0.08168422
vn 0.1310172 0.9913721 -0.003986449
vn 0.139825 0.9859267 0.09163722
vn -0.9771703 0.03747582 0.2091263
vn -0.7113984 0.688616 0.1404293
vn -0.6311629 0.7010564 0.3318935
vn -0.8488448 -0.01281283 0.5284868
vn -0.9998228 0.008697316 0.01669742
vn -0.1500865 0.7511629 0.6428283
vn -0.2393808 -0.05399945 0.969423
vn -0.6837849 0.7290971 0.02925142
vn -0.9185743 -0.003034449 -0.3952366
vn 0.1437177 0.7727434 0.6182336
vn 0.1551759 0.007676838 0.987857
vn -0.593354 0.7562826 -0.2756222
vn -0.1838694 0.08884948 -0.9789268
vn 0.5420337 0.7504565 0.3781725
vn 0.8005269 0.0769494 0.5943362
vn -0.1096976 0.7638512 -0.6360014
vn 0.3501407 0.04795416 -0.9354688
vn 0.6957 0.718264 0.00991884
vn 0.9987866 0.04545917 -0.0189438
vn 0.1867402 0.7743728 -0.6045452
vn 0.947046 -0.05227887 -0.3168132
vn 0.6835747 0.7247411 -0.08646367
vn 0.9879446 -0.02512432 -0.1527555
vn 0.6433183 0.7329266 -0.2212696
vn 0.139825 0.9859267 0.09163722
vn 0.01905805 0.996476 0.08168422
vn 0.1310172 0.9913721 -0.003986449
vn 0.109384 0.993889 -0.01482737
vn -0.01621865 0.9968587 0.07752212
vn 0.1832726 0.9820029 -0.04562474
vn 0.02117118 0.9978386 -0.06220973
vn -0.1844042 0.9787256 0.08995155
vn -0.008843397 0.9983315 -0.0570612
vn -0.1054171 0.9942065 0.02098719
vn -0.1559543 0.9853867 -0.0684925
vn -0.1282705 0.9916919 0.009677181
g areaSlab08_0
f 3/3/3 2/2/2 1/1/1
f 2/2/2 4/4/4 1/1/1
f 2/2/2 5/5/5 4/4/4
f 1/1/1 4/4/4 6/6/6
f 5/5/5 7/7/7 4/4/4
f 4/4/4 8/8/8 6/6/6
f 4/4/4 7/7/7 8/8/8
f 6/6/6 8/8/8 9/9/9
f 7/7/7 10/10/10 8/8/8
f 8/8/8 11/11/11 9/9/9
f 8/8/8 10/10/10 11/11/11
f 10/10/10 12/12/12 11/11/11
f 15/15/15 14/14/14 13/13/13
f 14/14/14 16/16/16 13/13/13
f 14/14/14 17/17/17 16/16/16
f 13/13/13 16/16/16 18/18/18
f 17/17/17 19/19/19 16/16/16
f 16/16/16 20/20/20 18/18/18
f 16/16/16 19/19/19 20/20/20
f 18/18/18 20/20/20 21/21/21
f 19/19/19 22/22/22 20/20/20
f 20/20/20 23/23/23 21/21/21
f 20/20/20 22/22/22 23/23/23
f 21/21/21 23/23/23 24/24/24
f 22/22/22 25/25/25 23/23/23
f 23/23/23 26/26/26 24/24/24
f 23/23/23 25/25/25 26/26/26
f 24/24/24 26/26/26 27/27/27
f 25/25/25 28/28/28 26/26/26
f 26/26/26 29/29/29 27/27/27
f 26/26/26 28/28/28 29/29/29
f 27/27/27 29/29/29 30/30/30
f 28/28/28 31/31/31 29/29/29
f 29/29/29 32/32/32 30/30/30
f 29/29/29 31/31/31 32/32/32
f 30/30/30 32/32/32 33/33/33
f 31/31/31 34/34/34 32/32/32
f 32/32/32 35/35/35 33/33/33
f 32/32/32 34/34/34 35/35/35
f 33/33/33 35/35/35 36/36/36
f 34/34/34 37/37/37 35/35/35
f 35/35/35 38/38/38 36/36/36
f 35/35/35 37/37/37 38/38/38
f 36/36/36 38/38/38 39/39/39
f 37/37/37 40/40/40 38/38/38
f 38/38/38 41/41/41 39/39/39
f 38/38/38 40/40/40 41/41/41
f 40/40/40 42/42/42 41/41/41
f 45/45/45 44/44/44 43/43/43
f 46/46/46 45/45/45 43/43/43
f 49/49/49 48/48/48 47/47/47
f 50/50/50 49/49/49 47/47/47
f 53/53/53 52/52/52 51/51/51
f 54/54/54 53/53/53 51/51/51
f 57/57/57 56/56/56 55/55/55
f 58/58/58 57/57/57 55/55/55
f 61/61/61 60/60/60 59/59/59
f 62/62/62 61/61/61 59/59/59
f 65/65/65 64/64/64 63/63/63
f 66/66/66 65/65/65 63/63/63
f 69/69/69 68/68/68 67/67/67
f 70/70/70 69/69/69 67/67/67
f 73/73/73 72/72/72 71/71/71
f 74/74/74 73/73/73 71/71/71
f 77/77/77 76/76/76 75/75/75
f 78/78/78 77/77/77 75/75/75
f 81/81/81 80/80/80 79/79/79
f 82/82/82 81/81/81 79/79/79
f 85/85/85 84/84/84 83/83/83
f 86/86/86 85/85/85 83/83/83
f 89/89/89 88/88/88 87/87/87
f 90/90/90 89/89/89 87/87/87
f 93/93/93 92/92/92 91/91/91
f 94/94/94 93/93/93 91/91/91
f 93/93/93 95/95/95 92/92/92
f 95/95/95 96/96/96 92/92/92
f 95/95/95 97/97/97 96/96/96
f 95/95/95 98/98/98 97/97/97
f 99/99/99 98/98/98 95/95/95
f 100/100/100 99/99/99 95/95/95
f 100/100/100 95/95/95 93/93/93
f 101/101/101 99/99/99 100/100/100
f 102/102/102 101/101/101 100/100/100
f 103/103/103 93/93/93 94/94/94
f 103/103/103 100/100/100 93/93/93
f 102/102/102 100/100/100 103/103/103
f 104/104/104 103/103/103 94/94/94
f 105/105/105 102/102/102 103/103/103
f 106/106/106 103/103/103 104/104/104
f 106/106/106 105/105/105 103/103/103
f 109/109/109 108/108/108 107/107/107
f 110/110/110 109/109/109 107/107/107
f 107/107/107 108/108/108 111/111/111
f 112/112/112 109/109/109 110/110/110
f 113/113/113 112/112/112 110/110/110
f 108/108/108 114/114/114 111/111/111
f 111/111/111 114/114/114 115/115/115
f 116/116/116 112/112/112 113/113/113
f 117/117/117 116/116/116 113/113/113
f 114/114/114 118/118/118 115/115/115
f 115/115/115 118/118/118 119/119/119
f 120/120/120 116/116/116 117/117/117
f 121/121/121 120/120/120 117/117/117
f 118/118/118 122/122/122 119/119/119
f 119/119/119 122/122/122 123/123/123
f 124/124/124 120/120/120 121/121/121
f 125/125/125 124/124/124 121/121/121
f 122/122/122 126/126/126 123/123/123
f 123/123/123 126/126/126 127/127/127
f 128/128/128 124/124/124 125/125/125
f 129/129/129 128/128/128 125/125/125
f 127/127/127 130/130/130 129/129/129
f 126/126/126 130/130/130 127/127/127
f 130/130/130 128/128/128 129/129/129
f 120/120/120 131/131/131 116/116/116
f 131/131/131 132/132/132 116/116/116
f 133/133/133 131/131/131 120/120/120
f 124/124/124 133/133/133 120/120/120
f 116/116/116 132/132/132 112/112/112
f 134/134/134 133/133/133 124/124/124
f 128/128/128 134/134/134 124/124/124
f 132/132/132 135/135/135 112/112/112
f 136/136/136 134/134/134 128/128/128
f 130/130/130 136/136/136 128/128/128
f 112/112/112 135/135/135 109/109/109
f 137/137/137 136/136/136 130/130/130
f 126/126/126 137/137/137 130/130/130
f 135/135/135 138/138/138 109/109/109
f 139/139/139 137/137/137 126/126/126
f 109/109/109 138/138/138 108/108/108
f 122/122/122 139/139/139 126/126/126
f 138/138/138 140/140/140 108/108/108
f 141/141/141 139/139/139 122/122/122
f 108/108/108 140/140/140 114/114/114
f 118/118/118 141/141/141 122/122/122
f 140/140/140 142/142/142 114/114/114
f 142/142/142 141/141/141 118/118/118
f 114/114/114 142/142/142 118/118/118
