g areaSlab11
v 0.345083 -0.2104712 -3.681387
v 1.960923 -3.446509 -2.781518
v 2.13793 -0.2104712 -2.918359
v 0.345083 -3.446509 -3.75105
v -2.365898 -0.2104712 -2.161484
v 2.126826 -6.769655 -2.96144
v -2.244946 -3.446509 -2.151172
v 0.3307227 -6.682712 -3.819185
v 2.20294 -29.5422 -2.971807
v -2.244946 -6.683123 -2.151172
v 0.3221631 -29.5422 -3.698218
v -2.34916 -29.5422 -2.168955
v 2.773267 -0.2104712 -1.572104
v 2.13793 -0.2104712 -2.918359
v 1.960923 -3.446509 -2.781518
v 2.650674 -3.446509 -1.486821
v 2.126826 -6.769655 -2.96144
v 2.46939 -3.446509 0.01046875
v 2.537563 -0.2104712 -0.02326172
v 2.770825 -6.729246 -1.581001
v 2.20294 -29.5422 -2.971807
v 2.829126 -29.5422 -1.574653
v 2.584277 -29.5422 0.02508789
v 2.543784 -6.688836 0.002021484
v 2.302114 -29.5422 2.266924
v 2.337363 -3.446509 2.315639
v 2.277192 -0.2104712 2.248183
v 1.213042 -0.2104712 2.851743
v 2.337363 -6.683123 2.315639
v 1.266426 -3.446509 2.791616
v 1.266426 -6.683123 2.791616
v 1.246074 -29.5422 2.857261
v 0.04645996 -29.5422 2.698057
v 0.05191406 -6.683123 2.518057
v -1.523765 -29.5422 1.729028
v 0.05191406 -3.446509 2.518057
v 0.005317383 -0.2104712 2.705762
v -1.343047 -6.683123 1.672803
v -2.489106 -29.5422 0.06260253
v -1.343047 -3.446509 1.672803
v -1.556772 -0.2104712 1.736992
v -2.538267 -6.683123 0.09114257
v -2.34916 -29.5422 -2.168955
v -2.244946 -6.683123 -2.151172
v -2.427671 -3.446509 0.09114257
v -2.516509 -0.2104712 0.07049316
v -2.244946 -3.446509 -2.151172
v -2.365898 -0.2104712 -2.161484
v -1.362852 0 1.505117
v -2.261133 0 0.0598291
v 0 0 0
v 0.01310547 0 2.397393
v -2.128477 0 -1.944477
v 1.112358 0 2.579643
v 0.3571436 0 -3.383349
v 2.068042 0 2.012349
v 1.933516 0 -2.664038
v 2.278286 0 -0.02436035
v 2.541421 0 -1.445493
v 2.690474 -0.09228393 -1.526894
v 2.13793 -0.2104712 -2.918359
v 2.773267 -0.2104712 -1.572104
v 2.537563 -0.2104712 -0.02326172
v 2.44498 -0.09228393 -0.02365234
v 2.277192 -0.2104712 2.248183
v 2.064936 -0.09228393 -2.827549
v 2.541421 0 -1.445493
v 1.933516 0 -2.664038
v 2.278286 0 -0.02436035
v 0.3571436 0 -3.383349
v 0.3493945 -0.09228393 -3.574971
v 0.345083 -0.2104712 -3.681387
v -2.128477 0 -1.944477
v 2.20251 -0.09228393 2.16397
v 2.068042 0 2.012349
v 1.112358 0 2.579643
v -2.281123 -0.09228393 -2.083994
v -2.365898 -0.2104712 -2.161484
v -2.261133 0 0.0598291
v 1.17709 -0.09228393 2.754585
v 1.213042 -0.2104712 2.851743
v 0.005317383 -0.2104712 2.705762
v -2.425322 -0.09228393 0.06667969
v -2.516509 -0.2104712 0.07049316
v -1.362852 0 1.505117
v 0.008095703 -0.09228393 2.595654
v 0.01310547 0 2.397393
v -1.556772 -0.2104712 1.736992
v -1.487524 -0.09228393 1.654194
vt 0.5 0.5
vt 0.625 0.5833333
vt 0.625 0.5
vt 0.5 0.5833333
vt 0.375 0.5
vt 0.625 0.6666666
vt 0.375 0.5833333
vt 0.5 0.6666666
vt 0.625 0.7499999
vt 0.375 0.6666666
vt 0.5 0.7499999
vt 0.375 0.7499999
vt 0.8125 0.25
vt 0.875 0.25
vt 0.875 0.1666667
vt 0.8125 0.1666667
vt 0.875 0.08333334
vt 0.75 0.1666667
vt 0.75 0.25
vt 0.8125 0.08333334
vt 0.875 0
vt 0.8125 0
vt 0.75 0
vt 0.75 0.08333334
vt 0.625 0
vt 0.625 0.1666667
vt 0.625 0.25
vt 0.5625 0.25
vt 0.625 0.08333334
vt 0.5625 0.1666667
vt 0.5625 0.08333334
vt 0.5625 0
vt 0.5 0
vt 0.5 0.08333334
vt 0.375 0
vt 0.5 0.1666667
vt 0.5 0.25
vt 0.375 0.08333334
vt 0.25 0
vt 0.375 0.1666667
vt 0.375 0.25
vt 0.25 0.08333334
vt 0.125 0
vt 0.125 0.08333334
vt 0.25 0.1666667
vt 0.25 0.25
vt 0.125 0.1666667
vt 0.125 0.25
vt 0.375 0.25
vt 0.375 0.375
vt 0.5 0.375
vt 0.5 0.25
vt 0.375 0.5
vt 0.5625 0.25
vt 0.5 0.5
vt 0.625 0.25
vt 0.625 0.5
vt 0.625 0.375
vt 0.625 0.4375
vt 0.625 0.4375
vt 0.625 0.5
vt 0.625 0.4375
vt 0.625 0.375
vt 0.625 0.375
vt 0.625 0.25
vt 0.625 0.5
vt 0.625 0.4375
vt 0.625 0.5
vt 0.625 0.375
vt 0.5 0.5
vt 0.5 0.5
vt 0.5 0.5
vt 0.375 0.5
vt 0.625 0.25
vt 0.625 0.25
vt 0.5625 0.25
vt 0.375 0.5
vt 0.375 0.5
vt 0.375 0.375
vt 0.5625 0.25
vt 0.5625 0.25
vt 0.5 0.25
vt 0.375 0.375
vt 0.375 0.375
vt 0.375 0.25
vt 0.5 0.25
vt 0.5 0.25
vt 0.375 0.25
vt 0.375 0.25
vn -0.1577853 0.01777791 -0.9873134
vn 0.6838402 0.007511748 -0.7295932
vn 0.6789705 -0.01023685 -0.7340943
vn -0.1588593 0.008279289 -0.9872665
vn -0.8049058 0.01013808 -0.5933161
vn 0.6630144 0.00642385 -0.7485791
vn -0.8044279 -0.0009527765 -0.5940495
vn -0.1812842 0.002297254 -0.9834281
vn 0.6615279 0.0002648251 -0.7499205
vn -0.8040038 0.001963774 -0.5946209
vn -0.1785739 -0.001159466 -0.9839258
vn -0.8039429 0.0001970242 -0.5947065
vn 0.9866254 -0.01642309 -0.1621744
vn 0.6789705 -0.01023685 -0.7340943
vn 0.6838402 0.007511748 -0.7295932
vn 0.9877971 0.0009235666 -0.1557437
vn 0.6630144 0.00642385 -0.7485791
vn 0.9948921 0.003732536 0.1008751
vn 0.9941847 0.01489505 0.1066541
vn 0.991087 0.007680353 -0.1329948
vn 0.6615279 0.0002648251 -0.7499205
vn 0.9911916 0.002575816 -0.132411
vn 0.9923882 0.0009530309 0.1231449
vn 0.9928018 0.003069315 0.1197297
vn 0.9067637 -4.180405E-05 0.4216392
vn 0.9129382 0.006077869 0.4080525
vn 0.9126164 0.02774138 0.4078748
vn 0.141827 0.01152135 0.9898244
vn 0.9073313 0.001021698 0.4204151
vn 0.1177163 -0.008343725 0.9930122
vn 0.1322042 0.002425957 0.9912196
vn 0.1378984 0.002773748 0.9904425
vn -0.3851812 0.006161322 0.9228204
vn -0.3867338 0.005416815 0.9221755
vn -0.70305 0.004626584 0.7111254
vn -0.3890156 -0.02506837 0.92089
vn -0.3816969 -0.02008687 0.9240692
vn -0.7009819 0.005007559 0.7131615
vn -0.9759156 0.002082514 0.2181391
vn -0.6996904 -0.02135069 0.7141271
vn -0.7143684 -0.02112753 0.6994508
vn -0.9755929 0.003866385 0.2195534
vn -0.8039429 0.0001970242 -0.5947065
vn -0.8040038 0.001963774 -0.5946209
vn -0.9742585 -0.01151149 0.2251396
vn -0.9769901 -0.01310744 0.2128816
vn -0.8044279 -0.0009527765 -0.5940495
vn -0.8049058 0.01013808 -0.5933161
vn -0.07245071 0.9950191 0.06846891
vn -0.0961289 0.9950821 0.02389116
vn 0 1 0
vn -0.0404819 0.9953769 0.08709646
vn -0.07587337 0.9957195 -0.05278272
vn 0.01388961 0.9962834 0.08500973
vn -0.015147 0.9961619 -0.08620939
vn 0.1001653 0.9942043 0.03904621
vn 0.04913552 0.9973288 -0.05404646
vn 0.07222486 0.9973429 0.009531599
vn 0.08513779 0.9963468 -0.006680222
vn 0.636421 0.7662748 -0.08826797
vn 0.6789705 -0.01023685 -0.7340943
vn 0.9866254 -0.01642309 -0.1621744
vn 0.9941847 0.01489505 0.1066541
vn 0.6573415 0.7485153 0.08733276
vn 0.9126164 0.02774138 0.4078748
vn 0.3956592 0.7994718 -0.4519942
vn 0.08513779 0.9963468 -0.006680222
vn 0.04913552 0.9973288 -0.05404646
vn 0.07222486 0.9973429 0.009531599
vn -0.015147 0.9961619 -0.08620939
vn -0.09969417 0.8059683 -0.5835034
vn -0.1577853 0.01777791 -0.9873134
vn -0.07587337 0.9957195 -0.05278272
vn 0.5742252 0.7754019 0.2627115
vn 0.1001653 0.9942043 0.03904621
vn 0.01388961 0.9962834 0.08500973
vn -0.4819062 0.7954327 -0.367496
vn -0.8049058 0.01013808 -0.5933161
vn -0.0961289 0.9950821 0.02389116
vn 0.1158101 0.8024137 0.5854231
vn 0.141827 0.01152135 0.9898244
vn -0.3816969 -0.02008687 0.9240692
vn -0.6329495 0.7625807 0.1335876
vn -0.9769901 -0.01310744 0.2128816
vn -0.07245071 0.9950191 0.06846891
vn -0.2356876 0.7872387 0.5698302
vn -0.0404819 0.9953769 0.08709646
vn -0.7143684 -0.02112753 0.6994508
vn -0.4538465 0.7768593 0.4364778
g areaSlab11_0
f 3/3/3 2/2/2 1/1/1
f 2/2/2 4/4/4 1/1/1
f 1/1/1 4/4/4 5/5/5
f 2/2/2 6/6/6 4/4/4
f 4/4/4 7/7/7 5/5/5
f 6/6/6 8/8/8 4/4/4
f 4/4/4 8/8/8 7/7/7
f 6/6/6 9/9/9 8/8/8
f 8/8/8 10/10/10 7/7/7
f 9/9/9 11/11/11 8/8/8
f 8/8/8 11/11/11 10/10/10
f 11/11/11 12/12/12 10/10/10
f 15/15/15 14/14/14 13/13/13
f 16/16/16 15/15/15 13/13/13
f 17/17/17 15/15/15 16/16/16
f 16/16/16 13/13/13 18/18/18
f 13/13/13 19/19/19 18/18/18
f 20/20/20 17/17/17 16/16/16
f 21/21/21 17/17/17 20/20/20
f 22/22/22 21/21/21 20/20/20
f 22/22/22 20/20/20 23/23/23
f 20/20/20 16/16/16 24/24/24
f 20/20/20 24/24/24 23/23/23
f 16/16/16 18/18/18 24/24/24
f 23/23/23 24/24/24 25/25/25
f 18/18/18 19/19/19 26/26/26
f 19/19/19 27/27/27 26/26/26
f 26/26/26 27/27/27 28/28/28
f 24/24/24 18/18/18 29/29/29
f 24/24/24 29/29/29 25/25/25
f 18/18/18 26/26/26 29/29/29
f 30/30/30 26/26/26 28/28/28
f 29/29/29 26/26/26 30/30/30
f 25/25/25 29/29/29 31/31/31
f 31/31/31 29/29/29 30/30/30
f 32/32/32 25/25/25 31/31/31
f 32/32/32 31/31/31 33/33/33
f 31/31/31 34/34/34 33/33/33
f 31/31/31 30/30/30 34/34/34
f 33/33/33 34/34/34 35/35/35
f 30/30/30 28/28/28 36/36/36
f 30/30/30 36/36/36 34/34/34
f 28/28/28 37/37/37 36/36/36
f 34/34/34 38/38/38 35/35/35
f 34/34/34 36/36/36 38/38/38
f 35/35/35 38/38/38 39/39/39
f 36/36/36 37/37/37 40/40/40
f 36/36/36 40/40/40 38/38/38
f 37/37/37 41/41/41 40/40/40
f 38/38/38 42/42/42 39/39/39
f 38/38/38 40/40/40 42/42/42
f 39/39/39 42/42/42 43/43/43
f 42/42/42 44/44/44 43/43/43
f 40/40/40 41/41/41 45/45/45
f 40/40/40 45/45/45 42/42/42
f 42/42/42 45/45/45 44/44/44
f 41/41/41 46/46/46 45/45/45
f 45/45/45 47/47/47 44/44/44
f 45/45/45 46/46/46 47/47/47
f 46/46/46 48/48/48 47/47/47
f 51/51/51 50/50/50 49/49/49
f 52/52/52 51/51/51 49/49/49
f 51/51/51 53/53/53 50/50/50
f 54/54/54 51/51/51 52/52/52
f 51/51/51 55/55/55 53/53/53
f 54/54/54 56/56/56 51/51/51
f 57/57/57 55/55/55 51/51/51
f 56/56/56 58/58/58 51/51/51
f 59/59/59 57/57/57 51/51/51
f 58/58/58 59/59/59 51/51/51
f 62/62/62 61/61/61 60/60/60
f 62/62/62 60/60/60 63/63/63
f 60/60/60 64/64/64 63/63/63
f 63/63/63 64/64/64 65/65/65
f 61/61/61 66/66/66 60/60/60
f 60/60/60 67/67/67 64/64/64
f 60/60/60 66/66/66 67/67/67
f 66/66/66 68/68/68 67/67/67
f 67/67/67 69/69/69 64/64/64
f 70/70/70 68/68/68 66/66/66
f 71/71/71 66/66/66 61/61/61
f 71/71/71 70/70/70 66/66/66
f 72/72/72 71/71/71 61/61/61
f 73/73/73 70/70/70 71/71/71
f 64/64/64 69/69/69 74/74/74
f 64/64/64 74/74/74 65/65/65
f 69/69/69 75/75/75 74/74/74
f 74/74/74 75/75/75 76/76/76
f 77/77/77 71/71/71 72/72/72
f 77/77/77 73/73/73 71/71/71
f 78/78/78 77/77/77 72/72/72
f 79/79/79 73/73/73 77/77/77
f 65/65/65 74/74/74 80/80/80
f 80/80/80 74/74/74 76/76/76
f 81/81/81 65/65/65 80/80/80
f 81/81/81 80/80/80 82/82/82
f 83/83/83 77/77/77 78/78/78
f 83/83/83 79/79/79 77/77/77
f 84/84/84 83/83/83 78/78/78
f 85/85/85 79/79/79 83/83/83
f 80/80/80 76/76/76 86/86/86
f 80/80/80 86/86/86 82/82/82
f 76/76/76 87/87/87 86/86/86
f 82/82/82 86/86/86 88/88/88
f 89/89/89 83/83/83 84/84/84
f 89/89/89 85/85/85 83/83/83
f 87/87/87 85/85/85 89/89/89
f 88/88/88 89/89/89 84/84/84
f 86/86/86 89/89/89 88/88/88
f 86/86/86 87/87/87 89/89/89
