g decoRockCave01
v 0.7204325 0.000930736 -0.4187472
v 0.6543876 0.001166198 -0.1974618
v 0.7215662 0.1138375 -0.392181
v 0.5518427 0.0009362379 -0.1618026
v 0.5283714 0.1122262 -0.1929293
v 0.4326268 0.0009511515 -0.2166402
v 0.393199 0.001100404 -0.3017061
v 0.6539536 0.1754458 -0.2901217
v 0.7215662 0.1138375 -0.392181
v 0.4566374 0.1668322 -0.3167293
v 0.5631071 0.1735422 -0.4360177
v 0.6427961 0.096098 -0.4802462
v 0.453364 0.150491 -0.4129427
v 0.4296128 0.0009618645 -0.437994
v 0.5148497 0.06803355 -0.5067428
v 0.5148497 0.06803355 -0.5067428
v 0.5135023 0.0009355543 -0.4813692
v 0.7204325 0.000930736 -0.4187472
v 0.7215662 0.1138375 -0.392181
v 0.5135023 0.0009355543 -0.4813692
v 0.5148497 0.06803355 -0.5067428
v 0.3996318 0.003592934 0.4568461
v 0.4755665 0.1785079 0.6972257
v 0.5284849 0.0003652206 0.6895341
v -0.4788735 0.000930736 -0.8296065
v -0.2570675 0.001166198 -0.8938777
v -0.4571514 0.1138375 -0.8449422
v -0.1715691 0.0009362379 -0.8269662
v -0.1850329 0.1122262 -0.7903805
v -0.1531337 0.0009511515 -0.6970443
v -0.2033089 0.001100404 -0.6178414
v -0.334738 0.1754458 -0.843348
v -0.4571514 0.1138375 -0.8449422
v -0.2502849 0.1668322 -0.6630453
v -0.4082201 0.1735422 -0.6879805
v -0.4885491 0.096098 -0.731036
v -0.3294063 0.150491 -0.6082039
v -0.33761 0.0009618645 -0.5746725
v -0.4415578 0.06803355 -0.609117
v -0.4415578 0.06803355 -0.609117
v -0.4194948 0.0009355543 -0.621722
v -0.4788735 0.000930736 -0.8296065
v -0.4571514 0.1138375 -0.8449422
v -0.4194948 0.0009355543 -0.621722
v -0.4415578 0.06803355 -0.609117
v -0.1842827 0.1477831 0.8705753
v -0.1587474 0.002075703 0.8910856
v -0.4138793 0.001419122 0.8358427
v -0.438033 0.07818604 0.8252531
v -0.4835433 0.002141862 0.704943
v -0.4948491 0.1349956 0.6663187
v -0.3223528 0.1805841 0.7877286
v -0.1842827 0.1477831 0.8705753
v -0.2142949 0.1762226 0.7621268
v -0.459413 0.1903309 0.6259794
v -0.4948491 0.1349956 0.6663187
v -0.4894869 0.1000412 0.5505936
v -0.1814199 0.1488625 0.5532987
v -0.2859337 0.1461832 0.4682938
v -0.0848354 0.08591926 0.6924821
v -0.07459004 0.07771149 0.8176554
v -0.1842827 0.1477831 0.8705753
v -0.1587474 0.002075703 0.8910856
v -0.07445271 0.001589512 0.7607401
v -0.1216964 0.002114875 0.6906791
v -0.06065175 0.001632033 0.6094474
v -0.1913222 0.06125241 0.4722245
v -0.182622 0.002116169 0.4646915
v -0.3374633 0.05183554 0.4333951
v -0.3648104 0.002115363 0.4691532
v -0.3648104 0.002115363 0.4691532
v -0.4835433 0.002141862 0.704943
v -0.3648104 0.002115363 0.4691532
v -0.4948491 0.1349956 0.6663187
v -0.4599623 -5.975584E-05 0.0392167
v -0.5495318 -0.0001302221 0.2046672
v -0.5000319 0.06119875 0.1327128
v -0.6151436 0.04912922 0.2531791
v -0.5504574 0.1073828 0.1222355
v -0.4599623 -5.975584E-05 0.0392167
v -0.4826772 0.05881703 -0.001503508
v -0.8501949 0.05288896 0.1587272
v -0.8146117 0.003999482 0.2186173
v -0.6696749 -0.0002940279 0.2485258
v -0.6151436 0.04912922 0.2531791
v -0.9035233 -0.0004017077 0.09720621
v -0.9128835 0.04151226 0.04495035
v -0.8853793 0.004211825 -0.06484946
v -0.8140301 0.1247864 -0.03070151
v -0.8112453 -0.0003894276 -0.108691
v -0.7477825 0.1067349 -0.09636191
v -0.5983272 0.0009008405 -0.140859
v -0.5871724 0.08343443 -0.1170711
v -0.5983272 0.0009008405 -0.140859
v -0.4599623 -5.975584E-05 0.0392167
v -0.3188012 0.1280988 -0.2224776
v -0.1767943 0.01492733 -0.2065267
v -0.3502907 0.002064787 -0.2025277
v -0.1697506 0.1558152 -0.2879061
v -0.09914388 0.002128596 -0.272585
v -0.0910204 0.1248903 -0.4012069
v -0.09255727 0.001285612 -0.4712826
v -0.1754131 0.08178629 -0.5615938
v -0.2533303 0.001214427 -0.5510641
v -0.2460994 0.1332788 -0.5664779
v -0.2460994 0.1332788 -0.5664779
v -0.2460994 0.1332788 -0.5664779
v -0.3235878 0.151344 -0.3835042
v -0.383611 0.09145553 -0.2904281
v -0.3502907 0.002064787 -0.2025277
v -0.4109011 0.002438738 -0.4554134
v -0.3645638 0.06184563 -0.5096761
v -0.2533303 0.001214427 -0.5510641
v -0.4109011 0.002438738 -0.4554134
v 0.1702278 -0.001657109 -0.6987618
v 0.1501261 -0.001647059 -0.5418795
v 0.1747337 0.0964126 -0.5559224
v 0.1203596 0.08807262 -0.65868
v 0.01183604 0.1182638 -0.5351449
v 0.1747337 0.0964126 -0.5559224
v 0.1119166 0.0003294803 -0.7222775
v 0.08680461 0.07062571 -0.4886593
v -0.03842854 0.09205132 -0.6754134
v -0.02151906 -0.001451596 -0.7142465
v -0.09618703 0.001509894 -0.6441011
v -0.07199513 0.06160801 -0.5477999
v -0.09662557 -0.00168576 -0.595649
v -0.01743215 0.001724945 -0.4960457
v 0.05407634 -0.001685757 -0.5009127
v 0.1501261 -0.001647059 -0.5418795
v 0.1747337 0.0964126 -0.5559224
v 0.7001319 0.2232487 0.4145744
v 0.7635294 0.0001700083 0.4005424
v 0.7701536 0.2109499 0.5754105
v 0.7768217 0.0004922712 0.6361722
v 0.6631217 0.1598344 0.7038248
v 0.6653739 9.47793E-05 0.7048978
v 0.4755665 0.1785079 0.6972257
v 0.5284849 0.0003652206 0.6895341
v 0.6366307 0.2958118 0.501879
v 0.7001319 0.2232487 0.4145744
v 0.5104566 0.2494101 0.6241227
v 0.4755665 0.1785079 0.6972257
v 0.3996318 0.003592934 0.4568461
v 0.4680763 0.1682108 0.4387003
v 0.5491319 0.1192651 0.33236
v 0.3996318 0.003592934 0.4568461
v 0.5226246 9.038048E-05 0.3640555
v 0.7635294 0.0001700083 0.4005424
v 0.7001319 0.2232487 0.4145744
v 0.2673716 -0.001846862 0.07039224
v 0.4426753 -0.001835664 0.08887857
v 0.4264155 0.1074528 0.0618107
v 0.3132749 0.09815782 0.1249577
v 0.4536277 0.1318061 0.2427983
v 0.4264155 0.1074528 0.0618107
v 0.2426234 0.0003672087 0.1359513
v 0.5035539 0.07871304 0.1581071
v 0.2985893 0.1025921 0.3023026
v 0.2548991 -0.00161782 0.2844303
v 0.3349186 0.001682792 0.3658768
v 0.4416172 0.06866271 0.3365214
v 0.3889158 -0.001878796 0.3651578
v 0.4979222 0.001922468 0.274434
v 0.490717 -0.001878793 0.1948783
v 0.4426753 -0.001835664 0.08887857
v 0.4264155 0.1074528 0.0618107
vt 0.5931455 0.8272063
vt 0.6100413 0.8626598
vt 0.6095194 0.8191556
vt 0.6282777 0.8714898
vt 0.6332877 0.8569298
vt 0.6532834 0.8667325
vt 0.665369 0.8543275
vt 0.6202397 0.8365427
vt 0.6095194 0.8191556
vt 0.6455249 0.8419049
vt 0.6367254 0.8224902
vt 0.6285798 0.8103195
vt 0.6508794 0.8293898
vt 0.6688438 0.8272482
vt 0.6526183 0.8094514
vt 0.6526183 0.8094514
vt 0.6496465 0.798663
vt 0.612509 0.7992052
vt 0.6095194 0.8191556
vt 0.6639798 0.8121818
vt 0.6526183 0.8094514
vt 0.6092649 0.8758523
vt 0.6446171 0.9152457
vt 0.6505911 0.8865326
vt 0.5931455 0.8272063
vt 0.6100413 0.8626598
vt 0.6095194 0.8191556
vt 0.6282777 0.8714898
vt 0.6332877 0.8569298
vt 0.6532834 0.8667325
vt 0.665369 0.8543275
vt 0.6202397 0.8365427
vt 0.6095194 0.8191556
vt 0.6455249 0.8419049
vt 0.6367254 0.8224902
vt 0.6285798 0.8103195
vt 0.6508794 0.8293898
vt 0.6688438 0.8272482
vt 0.6526183 0.8094514
vt 0.6526183 0.8094514
vt 0.6496465 0.798663
vt 0.612509 0.7992052
vt 0.6095194 0.8191556
vt 0.6639798 0.8121818
vt 0.6526183 0.8094514
vt 0.05108536 0.9081204
vt 0.03495707 0.8919321
vt 0.008603606 0.9246593
vt 0.01674399 0.9332561
vt 0.002519175 0.949003
vt 0.02149874 0.9611756
vt 0.0396942 0.93038
vt 0.05108536 0.9081204
vt 0.05505402 0.9255946
vt 0.03214924 0.9589205
vt 0.02149874 0.9611756
vt 0.03642733 0.9737086
vt 0.07183685 0.9495867
vt 0.0637365 0.9650285
vt 0.08181135 0.9264623
vt 0.07305984 0.9101302
vt 0.05108536 0.9081204
vt 0.06935747 0.8915706
vt 0.08732415 0.9105264
vt 0.09439158 0.9221681
vt 0.09675713 0.9384827
vt 0.08136523 0.9652814
vt 0.08793682 0.9708667
vt 0.06319042 0.9803014
vt 0.06029083 0.9898413
vt 0.06029083 0.9898413
vt 0.01485553 0.9842055
vt 0.06029083 0.9898413
vt 0.02149874 0.9611756
vt 0.441237 0.9144321
vt 0.4121763 0.9311869
vt 0.4289747 0.9287271
vt 0.4131308 0.9457377
vt 0.4326782 0.9378776
vt 0.441237 0.9144321
vt 0.4481924 0.9245402
vt 0.424831 0.9801348
vt 0.4122109 0.9768285
vt 0.4062883 0.9533605
vt 0.4131308 0.9457377
vt 0.4319315 0.9941209
vt 0.4409342 0.9888958
vt 0.4602701 0.9921039
vt 0.4527442 0.9727864
vt 0.47157 0.9825926
vt 0.4635631 0.9649103
vt 0.4817438 0.9458064
vt 0.4693256 0.9393963
vt 0.4765523 0.928058
vt 0.441237 0.9144321
vt 0.5090491 0.9665562
vt 0.506251 0.9357009
vt 0.491275 0.9579062
vt 0.5236683 0.9483994
vt 0.5191578 0.9244441
vt 0.5399585 0.93932
vt 0.5545325 0.9260912
vt 0.5632922 0.9479415
vt 0.5783205 0.9441777
vt 0.5646672 0.9616435
vt 0.5646672 0.9616435
vt 0.5646672 0.9616435
vt 0.5348867 0.9690493
vt 0.5197412 0.9780675
vt 0.5037082 0.9872215
vt 0.5453463 0.9942239
vt 0.5528336 0.9817573
vt 0.5721909 0.9814402
vt 0.5453463 0.9942239
vt 0.7030349 0.9169018
vt 0.6669061 0.9203818
vt 0.6692113 0.9421583
vt 0.6952067 0.9374974
vt 0.6895894 0.9680384
vt 0.6692113 0.9421583
vt 0.7152749 0.9251119
vt 0.6723534 0.9676326
vt 0.7154649 0.9613869
vt 0.7326282 0.9550009
vt 0.7254654 0.9813714
vt 0.7009599 0.9829226
vt 0.7167689 0.9889338
vt 0.6829839 0.9937458
vt 0.6687475 0.9838398
vt 0.6536624 0.9620153
vt 0.6692113 0.9421583
vt 0.588308 0.933566
vt 0.5912434 0.9805381
vt 0.6085088 0.9490415
vt 0.6301866 0.9731371
vt 0.6335796 0.9434596
vt 0.6482548 0.9599316
vt 0.6446171 0.9152457
vt 0.6598113 0.9413038
vt 0.6057168 0.9289866
vt 0.588308 0.933566
vt 0.629411 0.9184503
vt 0.6446171 0.9152457
vt 0.6092649 0.8758523
vt 0.6065917 0.9010026
vt 0.5877396 0.9019784
vt 0.6092649 0.8758523
vt 0.5834941 0.8850461
vt 0.5549007 0.9178758
vt 0.588308 0.933566
vt 0.7030349 0.9169018
vt 0.6669061 0.9203818
vt 0.6692113 0.9421583
vt 0.6952067 0.9374974
vt 0.6895894 0.9680384
vt 0.6692113 0.9421583
vt 0.7152749 0.9251119
vt 0.6723534 0.9676326
vt 0.7154649 0.9613869
vt 0.7326282 0.9550009
vt 0.7254654 0.9813714
vt 0.7009599 0.9829226
vt 0.7167689 0.9889338
vt 0.6829839 0.9937458
vt 0.6687475 0.9838398
vt 0.6536624 0.9620153
vt 0.6692113 0.9421583
vn 0.9443908 -0.1449088 -0.2951736
vn 0.6771965 0.2856966 0.6780725
vn 0.9154833 0.4017808 -0.02150627
vn -0.03123248 0.2631066 0.9642611
vn -0.279778 0.5952541 0.7532575
vn -0.719086 0.388655 0.5760751
vn -0.8714263 0.3853576 0.3035058
vn 0.4902307 0.7835481 0.3817413
vn 0.9154833 0.4017808 -0.02150627
vn -0.590102 0.746253 0.3080359
vn 0.05030956 0.9148787 -0.4005821
vn 0.3918416 0.1755765 -0.903124
vn -0.72854 0.5587667 -0.3962438
vn -0.87408 0.1741328 -0.4534996
vn -0.2728886 0.2134179 -0.938075
vn -0.2728886 0.2134179 -0.938075
vn 0.04153936 -0.3594032 -0.9322574
vn 0.9443908 -0.1449088 -0.2951736
vn 0.9154833 0.4017808 -0.02150627
vn 0.04153936 -0.3594032 -0.9322574
vn -0.2728886 0.2134179 -0.938075
vn -0.992888 0.1058642 -0.05446316
vn -0.7512509 0.210056 0.6256986
vn -0.6258134 -0.218229 0.7488214
vn -0.7594555 -0.1449071 -0.6342155
vn 0.2034803 0.2856966 -0.9364685
vn -0.5137123 0.401782 -0.7580705
vn 0.8276328 0.263109 -0.4957798
vn 0.7847874 0.595254 -0.1725732
vn 0.8736521 0.3886558 0.2927093
vn 0.7269576 0.3853579 0.568359
vn 0.05555351 0.7835479 -0.6188428
vn -0.5137123 0.401782 -0.7580705
vn 0.5784617 0.7462534 0.3293749
vn -0.3640364 0.9148784 0.1745712
vn -0.9714602 0.1755786 0.159491
vn 0.0612724 0.5587657 0.827059
vn 0.09192396 0.174129 0.9804229
vn -0.6409696 0.2134167 0.7373
vn -0.6409696 0.2134167 0.7373
vn -0.8063073 -0.3594032 0.469785
vn -0.7594555 -0.1449071 -0.6342155
vn -0.5137123 0.401782 -0.7580705
vn -0.8063073 -0.3594032 0.469785
vn -0.6409696 0.2134167 0.7373
vn 0.09242877 0.5111316 0.8545183
vn 0.06803848 0.0830388 0.994221
vn -0.3835388 0.01809369 0.9233476
vn -0.5846647 0.3648599 0.7245995
vn -0.9627548 -0.2650793 0.05325475
vn -0.9378295 0.2756162 0.2109775
vn -0.247874 0.8614206 0.4432978
vn 0.09242877 0.5111316 0.8545183
vn 0.2768354 0.960824 -0.01339384
vn -0.268985 0.9554773 -0.1212859
vn -0.9378295 0.2756162 0.2109775
vn -0.8185881 -0.006196393 -0.5743474
vn 0.4046392 0.8780517 -0.2555237
vn 0.01154032 0.8105678 -0.5855312
vn 0.7763398 0.6244518 -0.08576938
vn 0.8285177 0.4042503 0.3874791
vn 0.09242877 0.5111316 0.8545183
vn 0.06803848 0.0830388 0.994221
vn 0.9736974 -0.2193648 0.06158306
vn 0.9112511 -0.4026697 0.08647809
vn 0.8751069 0.382793 -0.2960698
vn 0.5776989 0.3467995 -0.7389142
vn 0.5385166 0.09038494 -0.8377531
vn -0.2738463 0.115701 -0.9547887
vn -0.5803205 -0.4940913 -0.6473807
vn -0.5803205 -0.4940913 -0.6473807
vn -0.9627548 -0.2650793 0.05325475
vn -0.5803205 -0.4940913 -0.6473807
vn -0.9378295 0.2756162 0.2109775
vn 0.9758169 0.2121739 -0.05257082
vn 0.7183259 0.05788739 0.6932943
vn 0.8435248 0.3605753 0.3980594
vn -0.00253788 0.8053622 0.5927775
vn 0.1134099 0.9703232 0.2135673
vn 0.9758169 0.2121739 -0.05257082
vn 0.7456988 0.5979788 -0.2938615
vn -0.2978889 0.8592537 0.4158669
vn -0.3495018 0.5901294 0.7277333
vn -0.07760775 -0.008237034 0.99695
vn -0.00253788 0.8053622 0.5927775
vn -0.9216495 0.1477609 0.358788
vn -0.8276163 0.5611821 0.01121734
vn -0.6710792 0.4859641 -0.5599031
vn -0.2331034 0.9721034 0.02603442
vn -0.3174751 0.3317241 -0.8883517
vn -0.04032193 0.8398842 -0.5412658
vn 0.236327 0.1888492 -0.9531451
vn 0.289317 0.836256 -0.4658021
vn 0.236327 0.1888492 -0.9531451
vn 0.9758169 0.2121739 -0.05257082
vn -0.167297 0.6855735 0.7085201
vn 0.3486328 0.3663395 0.8626996
vn -0.5516158 0.1022705 0.8278047
vn 0.3284067 0.8806666 0.3414313
vn 0.8693205 0.2659684 0.4165847
vn 0.7440516 0.6647117 -0.06742059
vn 0.9222005 0.03074397 -0.385488
vn 0.5681028 0.1652431 -0.8061972
vn -0.1019429 -0.2752419 -0.9559547
vn -0.1046383 0.822219 -0.55947
vn -0.1046383 0.822219 -0.55947
vn -0.1046383 0.822219 -0.55947
vn -0.347834 0.9329461 -0.09286026
vn -0.9325966 0.3139181 0.1780984
vn -0.5516158 0.1022705 0.8278047
vn -0.9384803 0.2798374 -0.2023504
vn -0.7244192 0.3579918 -0.5891169
vn -0.1019429 -0.2752419 -0.9559547
vn -0.9384803 0.2798374 -0.2023504
vn 0.8468533 0.3386452 -0.410072
vn 0.856026 -0.2057216 0.4742342
vn 0.7547646 0.6317618 0.1766563
vn 0.2677847 0.8415322 -0.4691639
vn -0.1734844 0.948306 0.265742
vn 0.7547646 0.6317618 0.1766563
vn 0.1223178 0.5272959 -0.8408313
vn 0.1935941 0.3819273 0.9036884
vn -0.3256148 0.8017545 -0.5011634
vn -0.2690824 0.3274931 -0.9057278
vn -0.8517968 0.4079174 -0.328703
vn -0.7611644 0.5133512 0.3963575
vn -0.9356561 0.1107993 0.3350688
vn -0.4104665 0.2056736 0.8883781
vn 0.2147008 -0.2568468 0.9423021
vn 0.856026 -0.2057216 0.4742342
vn 0.7547646 0.6317618 0.1766563
vn 0.4884592 0.5147058 -0.7046172
vn 0.8063474 0.0969478 -0.5834424
vn 0.8630755 0.4684584 0.1888052
vn 0.9457774 0.07492131 0.3160572
vn 0.3178681 0.4122937 0.8537996
vn 0.2002918 -0.01148875 0.9796689
vn -0.7512509 0.210056 0.6256986
vn -0.6258134 -0.218229 0.7488214
vn -0.01280812 0.9936135 -0.1121079
vn 0.4884592 0.5147058 -0.7046172
vn -0.4827985 0.8429253 0.2374501
vn -0.7512509 0.210056 0.6256986
vn -0.992888 0.1058642 -0.05446316
vn -0.7303334 0.5809646 -0.3592953
vn -0.0929258 0.2696913 -0.9584526
vn -0.992888 0.1058642 -0.05446316
vn -0.2090184 -0.2076538 -0.9556104
vn 0.8063474 0.0969478 -0.5834424
vn 0.4884592 0.5147058 -0.7046172
vn -0.4289147 0.3386436 -0.837468
vn 0.4549657 -0.2057213 -0.8664208
vn 0.1597275 0.6317624 -0.7585271
vn -0.4750373 0.8415322 -0.257222
vn 0.2695564 0.948306 0.1674963
vn 0.1597275 0.6317624 -0.7585271
vn -0.8433575 0.527296 -0.1034751
vn 0.8991305 0.3819295 -0.213762
vn -0.4937534 0.8017552 0.3367433
vn -0.8994789 0.3274981 0.2892796
vn -0.309559 0.4079178 0.858939
vn 0.4132886 0.5133483 0.7521078
vn 0.3559199 0.1107942 0.9279254
vn 0.8973389 0.2056709 0.3904897
vn 0.9372633 -0.2568461 -0.2357276
vn 0.4549657 -0.2057213 -0.8664208
vn 0.1597275 0.6317624 -0.7585271
g decoRockCave01_0
f 3/3/3 2/2/2 1/1/1
f 5/5/5 4/4/4 2/2/2
f 5/5/5 6/6/6 4/4/4
f 7/7/7 6/6/6 5/5/5
f 2/2/2 8/8/8 5/5/5
f 8/8/8 2/2/2 9/9/9
f 10/10/10 7/7/7 5/5/5
f 5/5/5 8/8/8 10/10/10
f 11/11/11 8/8/8 9/9/9
f 10/10/10 8/8/8 11/11/11
f 11/11/11 9/9/9 12/12/12
f 13/13/13 7/7/7 10/10/10
f 13/13/13 10/10/10 11/11/11
f 13/13/13 14/14/14 7/7/7
f 13/13/13 11/11/11 15/15/15
f 14/14/14 13/13/13 15/15/15
f 12/12/12 16/16/16 11/11/11
f 12/12/12 17/17/17 16/16/16
f 12/12/12 18/18/18 17/17/17
f 19/19/19 18/18/18 12/12/12
f 21/21/21 20/20/20 14/14/14
f 24/24/24 23/23/23 22/22/22
f 27/27/27 26/26/26 25/25/25
f 29/29/29 28/28/28 26/26/26
f 29/29/29 30/30/30 28/28/28
f 31/31/31 30/30/30 29/29/29
f 26/26/26 32/32/32 29/29/29
f 32/32/32 26/26/26 33/33/33
f 34/34/34 31/31/31 29/29/29
f 29/29/29 32/32/32 34/34/34
f 35/35/35 32/32/32 33/33/33
f 34/34/34 32/32/32 35/35/35
f 35/35/35 33/33/33 36/36/36
f 37/37/37 31/31/31 34/34/34
f 37/37/37 34/34/34 35/35/35
f 37/37/37 38/38/38 31/31/31
f 37/37/37 35/35/35 39/39/39
f 38/38/38 37/37/37 39/39/39
f 36/36/36 40/40/40 35/35/35
f 36/36/36 41/41/41 40/40/40
f 36/36/36 42/42/42 41/41/41
f 43/43/43 42/42/42 36/36/36
f 45/45/45 44/44/44 38/38/38
f 48/48/48 47/47/47 46/46/46
f 48/48/48 46/46/46 49/49/49
f 49/49/49 50/50/50 48/48/48
f 51/51/51 50/50/50 49/49/49
f 49/49/49 53/53/53 52/52/52
f 52/52/52 53/53/53 54/54/54
f 49/49/49 52/52/52 55/55/55
f 55/55/55 52/52/52 54/54/54
f 55/55/55 56/56/56 49/49/49
f 55/55/55 57/57/57 56/56/56
f 55/55/55 54/54/54 58/58/58
f 57/57/57 55/55/55 59/59/59
f 59/59/59 55/55/55 58/58/58
f 60/60/60 58/58/58 54/54/54
f 60/60/60 54/54/54 61/61/61
f 54/54/54 62/62/62 61/61/61
f 63/63/63 61/61/61 62/62/62
f 61/61/61 63/63/63 64/64/64
f 60/60/60 61/61/61 64/64/64
f 64/64/64 65/65/65 60/60/60
f 65/65/65 66/66/66 60/60/60
f 58/58/58 60/60/60 66/66/66
f 67/67/67 58/58/58 66/66/66
f 58/58/58 67/67/67 59/59/59
f 66/66/66 68/68/68 67/67/67
f 59/59/59 67/67/67 69/69/69
f 67/67/67 68/68/68 69/69/69
f 59/59/59 69/69/69 57/57/57
f 68/68/68 70/70/70 69/69/69
f 69/69/69 71/71/71 57/57/57
f 73/73/73 72/72/72 57/57/57
f 72/72/72 74/74/74 57/57/57
f 77/77/77 76/76/76 75/75/75
f 78/78/78 76/76/76 77/77/77
f 77/77/77 79/79/79 78/78/78
f 79/79/79 77/77/77 80/80/80
f 81/81/81 79/79/79 80/80/80
f 79/79/79 82/82/82 78/78/78
f 78/78/78 82/82/82 83/83/83
f 78/78/78 83/83/83 84/84/84
f 76/76/76 85/85/85 84/84/84
f 86/86/86 83/83/83 82/82/82
f 87/87/87 86/86/86 82/82/82
f 87/87/87 88/88/88 86/86/86
f 82/82/82 89/89/89 87/87/87
f 87/87/87 89/89/89 88/88/88
f 89/89/89 82/82/82 79/79/79
f 90/90/90 88/88/88 89/89/89
f 91/91/91 90/90/90 89/89/89
f 79/79/79 91/91/91 89/89/89
f 92/92/92 90/90/90 91/91/91
f 93/93/93 92/92/92 91/91/91
f 93/93/93 91/91/91 79/79/79
f 93/93/93 79/79/79 81/81/81
f 81/81/81 94/94/94 93/93/93
f 81/81/81 95/95/95 94/94/94
f 98/98/98 97/97/97 96/96/96
f 99/99/99 96/96/96 97/97/97
f 99/99/99 97/97/97 100/100/100
f 100/100/100 101/101/101 99/99/99
f 101/101/101 100/100/100 102/102/102
f 101/101/101 102/102/102 103/103/103
f 102/102/102 104/104/104 103/103/103
f 104/104/104 105/105/105 103/103/103
f 103/103/103 106/106/106 101/101/101
f 101/101/101 107/107/107 99/99/99
f 108/108/108 96/96/96 99/99/99
f 107/107/107 108/108/108 99/99/99
f 96/96/96 108/108/108 109/109/109
f 96/96/96 109/109/109 110/110/110
f 111/111/111 110/110/110 109/109/109
f 108/108/108 111/111/111 109/109/109
f 112/112/112 108/108/108 107/107/107
f 107/107/107 113/113/113 112/112/112
f 114/114/114 108/108/108 112/112/112
f 113/113/113 114/114/114 112/112/112
f 117/117/117 116/116/116 115/115/115
f 119/119/119 117/117/117 118/118/118
f 120/120/120 115/115/115 118/118/118
f 118/118/118 115/115/115 121/121/121
f 120/120/120 119/119/119 122/122/122
f 121/121/121 123/123/123 118/118/118
f 123/123/123 119/119/119 118/118/118
f 121/121/121 124/124/124 123/123/123
f 124/124/124 125/125/125 123/123/123
f 123/123/123 125/125/125 126/126/126
f 126/126/126 119/119/119 123/123/123
f 126/126/126 125/125/125 127/127/127
f 127/127/127 128/128/128 126/126/126
f 119/119/119 126/126/126 128/128/128
f 128/128/128 122/122/122 119/119/119
f 129/129/129 122/122/122 128/128/128
f 129/129/129 130/130/130 122/122/122
f 122/122/122 130/130/130 131/131/131
f 134/134/134 133/133/133 132/132/132
f 135/135/135 133/133/133 134/134/134
f 135/135/135 134/134/134 136/136/136
f 137/137/137 135/135/135 136/136/136
f 138/138/138 137/137/137 136/136/136
f 139/139/139 137/137/137 138/138/138
f 134/134/134 140/140/140 136/136/136
f 141/141/141 140/140/140 134/134/134
f 140/140/140 142/142/142 136/136/136
f 142/142/142 143/143/143 136/136/136
f 142/142/142 144/144/144 143/143/143
f 145/145/145 140/140/140 141/141/141
f 140/140/140 145/145/145 142/142/142
f 142/142/142 145/145/145 144/144/144
f 141/141/141 146/146/146 145/145/145
f 145/145/145 146/146/146 144/144/144
f 146/146/146 148/148/148 147/147/147
f 149/149/149 148/148/148 146/146/146
f 149/149/149 146/146/146 150/150/150
f 153/153/153 152/152/152 151/151/151
f 155/155/155 153/153/153 154/154/154
f 156/156/156 151/151/151 154/154/154
f 154/154/154 151/151/151 157/157/157
f 156/156/156 155/155/155 158/158/158
f 157/157/157 159/159/159 154/154/154
f 159/159/159 155/155/155 154/154/154
f 157/157/157 160/160/160 159/159/159
f 160/160/160 161/161/161 159/159/159
f 159/159/159 161/161/161 162/162/162
f 162/162/162 155/155/155 159/159/159
f 162/162/162 161/161/161 163/163/163
f 163/163/163 164/164/164 162/162/162
f 155/155/155 162/162/162 164/164/164
f 164/164/164 158/158/158 155/155/155
f 165/165/165 158/158/158 164/164/164
f 165/165/165 166/166/166 158/158/158
f 158/158/158 166/166/166 167/167/167
