g decoRockCave03
v 0.06950593 0.004499383 -0.09142049
v 0.3705911 0.2235427 0.003470857
v 0.4007376 0.0004573661 -0.05632406
v 0.04392488 0.0009352561 -0.6928292
v 0.1879275 0.001171863 -0.5108651
v 0.06643891 0.1143901 -0.6784407
v 0.1581326 0.0009407831 -0.4059176
v 0.1189829 0.1127711 -0.404554
v 0.04425446 0.0009557701 -0.3394417
v -0.04848357 0.001105746 -0.3560555
v 0.1114291 0.1762976 -0.5639449
v 0.06643891 0.1143901 -0.6784407
v -0.02425994 0.1676422 -0.4169222
v -0.06101836 0.1743847 -0.5733284
v -0.05145598 0.09656456 -0.66441
v -0.1053201 0.1512217 -0.4697152
v -0.1396316 0.0009665375 -0.4646175
v -0.1470474 0.06836385 -0.5744051
v -0.1470474 0.06836385 -0.5744051
v -0.1269443 0.0009400978 -0.5586641
v 0.04392488 0.0009352561 -0.6928292
v 0.06643891 0.1143901 -0.6784407
v -0.1269443 0.0009400978 -0.5586641
v -0.1470474 0.06836385 -0.5744051
v 0.521669 0.1850665 0.5025028
v 0.561055 0.002599371 0.4910563
v 0.3210361 0.001777144 0.7129923
v 0.2928171 0.09791119 0.7301505
v 0.1367294 0.00268222 0.6903532
v 0.08899384 0.1690529 0.6741874
v 0.3374771 0.2261427 0.5845512
v 0.521669 0.1850665 0.5025028
v 0.3888846 0.2206809 0.4553361
v 0.07309358 0.2383485 0.6088541
v 0.08899384 0.1690529 0.6741874
v -0.02582976 0.1252801 0.5855155
v 0.1983572 0.1864183 0.2715348
v 0.03606843 0.183063 0.3176212
v 0.4105069 0.1075954 0.2725199
v 0.5462375 0.0973169 0.3519767
v 0.521669 0.1850665 0.5025028
v 0.561055 0.002599371 0.4910563
v 0.487969 0.001990522 0.3109306
v 0.3821658 0.002648425 0.309025
v 0.3427353 0.002043771 0.1880412
v 0.1080972 0.07670546 0.2234196
v 0.1066263 0.002650046 0.2090849
v -0.03675506 0.06491285 0.3453825
v -0.01974029 0.002649037 0.3991264
v -0.01974029 0.002649037 0.3991264
v 0.1367294 0.00268222 0.6903532
v -0.01974029 0.002649037 0.3991264
v 0.08899384 0.1690529 0.6741874
v -0.2132663 -7.483133E-05 -0.4960897
v -0.1079709 -0.0001630752 -0.2853231
v -0.146185 0.07663827 -0.3878011
v -0.1053787 0.06152376 -0.1831722
v -0.1931711 0.1344739 -0.343619
v -0.2132663 -7.483133E-05 -0.4960897
v -0.2713516 0.07365566 -0.5020602
v -0.3711734 0.06623204 -0.01000815
v -0.2841824 0.005008491 -0.003455413
v -0.1493423 -0.0003682066 -0.1305941
v -0.1053787 0.06152376 -0.1831722
v -0.4725918 -0.0005030524 0.000464265
v -0.5329086 0.05198517 -0.02749472
v -0.6257364 0.005274404 -0.1346224
v -0.5394424 0.1562681 -0.1832418
v -0.6174197 -0.0004876742 -0.2421492
v -0.5591647 0.1336625 -0.2983699
v -0.4973807 0.001128109 -0.4836178
v -0.4649692 0.1044843 -0.477961
v -0.4973807 0.001128109 -0.4836178
v -0.2132663 -7.483133E-05 -0.4960897
v 0.2421292 0.2795709 -0.4299679
v 0.2733041 0.0002129086 -0.5050679
v 0.4573941 0.2641693 -0.38618
v 0.524498 0.0006164619 -0.349349
v 0.5121579 0.2001582 -0.1841256
v 0.5148764 0.0001186996 -0.1856637
v 0.3705911 0.2235427 0.003470857
v 0.4007376 0.0004573661 -0.05632406
v 0.2860257 0.3704407 -0.3021065
v 0.2421292 0.2795709 -0.4299679
v 0.320701 0.3123324 -0.08484945
v 0.3705911 0.2235427 0.003470857
v 0.06950593 0.004499383 -0.09142049
v 0.1000888 0.2106478 -0.1746541
v 0.04929231 0.1493539 -0.3342049
v 0.06950593 0.004499383 -0.09142049
v 0.06274445 0.000113187 -0.2842415
v 0.2733041 0.0002129086 -0.5050679
v 0.2421292 0.2795709 -0.4299679
vt 0.6092649 0.8758523
vt 0.6446171 0.9152457
vt 0.6505911 0.8865326
vt 0.5931455 0.8272063
vt 0.6100413 0.8626598
vt 0.6095194 0.8191556
vt 0.6282777 0.8714898
vt 0.6332877 0.8569298
vt 0.6532834 0.8667325
vt 0.665369 0.8543275
vt 0.6202397 0.8365427
vt 0.6095194 0.8191556
vt 0.6455249 0.8419049
vt 0.6367254 0.8224902
vt 0.6285798 0.8103195
vt 0.6508794 0.8293898
vt 0.6688438 0.8272482
vt 0.6526183 0.8094514
vt 0.6526183 0.8094514
vt 0.6496465 0.798663
vt 0.612509 0.7992052
vt 0.6095194 0.8191556
vt 0.6639798 0.8121818
vt 0.6526183 0.8094514
vt 0.05108536 0.9081204
vt 0.03495707 0.8919321
vt 0.008603606 0.9246593
vt 0.01674399 0.9332561
vt 0.002519175 0.949003
vt 0.02149874 0.9611756
vt 0.0396942 0.93038
vt 0.05108536 0.9081204
vt 0.05505402 0.9255946
vt 0.03214924 0.9589205
vt 0.02149874 0.9611756
vt 0.03642733 0.9737086
vt 0.07183685 0.9495867
vt 0.0637365 0.9650285
vt 0.08181135 0.9264623
vt 0.07305984 0.9101302
vt 0.05108536 0.9081204
vt 0.06935747 0.8915706
vt 0.08732415 0.9105264
vt 0.09439158 0.9221681
vt 0.09675713 0.9384827
vt 0.08136523 0.9652814
vt 0.08793682 0.9708667
vt 0.06319042 0.9803014
vt 0.06029083 0.9898413
vt 0.06029083 0.9898413
vt 0.01485553 0.9842055
vt 0.06029083 0.9898413
vt 0.02149874 0.9611756
vt 0.441237 0.9144321
vt 0.4121763 0.9311869
vt 0.4289747 0.9287271
vt 0.4131308 0.9457377
vt 0.4326782 0.9378776
vt 0.441237 0.9144321
vt 0.4481924 0.9245402
vt 0.424831 0.9801348
vt 0.4122109 0.9768285
vt 0.4062883 0.9533605
vt 0.4131308 0.9457377
vt 0.4319315 0.9941209
vt 0.4409342 0.9888958
vt 0.4602701 0.9921039
vt 0.4527442 0.9727864
vt 0.47157 0.9825926
vt 0.4635631 0.9649103
vt 0.4817438 0.9458064
vt 0.4693256 0.9393963
vt 0.4765523 0.928058
vt 0.441237 0.9144321
vt 0.588308 0.933566
vt 0.5912434 0.9805381
vt 0.6085088 0.9490415
vt 0.6301866 0.9731371
vt 0.6335796 0.9434596
vt 0.6482548 0.9599316
vt 0.6446171 0.9152457
vt 0.6598113 0.9413038
vt 0.6057168 0.9289866
vt 0.588308 0.933566
vt 0.629411 0.9184503
vt 0.6446171 0.9152457
vt 0.6092649 0.8758523
vt 0.6065917 0.9010026
vt 0.5877396 0.9019784
vt 0.6092649 0.8758523
vt 0.5834941 0.8850461
vt 0.5549007 0.9178758
vt 0.588308 0.933566
vn -0.6144417 0.1058657 0.7818272
vn 0.08122794 0.2100577 0.9743088
vn 0.2540475 -0.2182287 0.9422505
vn 0.3002883 -0.1449066 -0.9427773
vn 0.9439384 0.2856973 -0.1654007
vn 0.507804 0.401782 -0.7620409
vn 0.7717178 0.2631066 0.5789875
vn 0.4562779 0.5952541 0.6614251
vn 0.05905269 0.3886552 0.919489
vn -0.2515889 0.3853577 0.8878077
vn 0.5939664 0.7835478 -0.1823647
vn 0.507804 0.401782 -0.7620409
vn -0.08641974 0.7462533 0.6600286
vn -0.2991666 0.9148787 -0.2711021
vn -0.5146901 0.1755778 -0.839206
vn -0.7426141 0.5587657 0.3691954
vn -0.8730305 0.1741303 0.4555178
vn -0.9248159 0.2134171 -0.3149107
vn -0.9248159 0.2134171 -0.3149107
vn -0.7395924 -0.3594044 -0.5690621
vn 0.3002883 -0.1449066 -0.9427773
vn 0.507804 0.401782 -0.7620409
vn -0.7395924 -0.3594044 -0.5690621
vn -0.9248159 0.2134171 -0.3149107
vn 0.7528197 0.5111306 0.4147384
vn 0.8532262 0.08303865 0.5148879
vn 0.5360159 0.01809372 0.8440139
vn 0.2578274 0.3648604 0.8946518
vn -0.5089363 -0.2650801 0.8189728
vn -0.3654693 0.2756171 0.8890824
vn 0.2207593 0.861421 0.457405
vn 0.7528197 0.5111306 0.4147384
vn 0.1479143 0.9608238 -0.2343903
vn -0.2536986 0.9554774 0.1506654
vn -0.3654693 0.2756171 0.8890824
vn -0.9401445 -0.006196795 0.3407197
vn 0.02298093 0.8780514 -0.4780143
vn -0.4728738 0.8105678 -0.3455001
vn 0.3753222 0.6244506 -0.6849778
vn 0.7928154 0.4042506 -0.4560978
vn 0.7528197 0.5111306 0.4147384
vn 0.8532262 0.08303865 0.5148879
vn 0.6092569 -0.2193658 -0.7620267
vn 0.5938053 -0.4026708 -0.6965999
vn 0.2597901 0.382791 -0.8865553
vn -0.2735489 0.3467988 -0.8971632
vn -0.3769768 0.09038297 -0.9218023
vn -0.9390518 0.1157009 -0.3237207
vn -0.8632052 -0.4940916 0.1036834
vn -0.8632052 -0.4940916 0.1036834
vn -0.5089363 -0.2650801 0.8189728
vn -0.8632052 -0.4940916 0.1036834
vn -0.3654693 0.2756171 0.8890824
vn 0.516993 0.2121762 -0.8292764
vn 0.9800094 0.05788632 -0.1903439
vn 0.8100937 0.3605749 -0.4623137
vn 0.4839754 0.8053616 0.3422872
vn 0.2399815 0.9703231 0.02969925
vn 0.516993 0.2121762 -0.8292764
vn 0.1873291 0.5979778 -0.779314
vn 0.1695923 0.8592533 0.4826199
vn 0.3953613 0.5901293 0.7038729
vn 0.7718705 -0.008227344 0.6357266
vn 0.4839754 0.8053616 0.3422872
vn -0.2351521 0.1477464 0.9606635
vn -0.465821 0.5611685 0.6841789
vn -0.8436717 0.4859371 0.2282177
vn -0.1124632 0.9721029 0.2058346
vn -0.9096895 0.3317181 -0.2498561
vn -0.4663899 0.839884 -0.2776242
vn -0.6449053 0.188848 -0.7405631
vn -0.2154037 0.8362564 -0.5042584
vn -0.6449053 0.188848 -0.7405631
vn 0.516993 0.2121762 -0.8292764
vn -0.2966857 0.5147018 -0.8044001
vn -0.01500597 0.09694829 -0.9951763
vn 0.6499554 0.4684501 -0.598425
vn 0.8016258 0.07492231 -0.5931129
vn 0.8816168 0.4122917 0.229711
vn 0.9172117 -0.01148858 0.3982345
vn 0.08122794 0.2100577 0.9743088
vn 0.2540475 -0.2182287 0.9422505
vn -0.09914726 0.9936143 -0.05385736
vn -0.2966857 0.5147018 -0.8044001
vn -0.08264183 0.8429294 0.5316391
vn 0.08122794 0.2100577 0.9743088
vn -0.6144417 0.1058657 0.7818272
vn -0.7133814 0.5809702 0.3918681
vn -0.8382179 0.2696914 -0.4739802
vn -0.6144417 0.1058657 0.7818272
vn -0.902518 -0.2076547 -0.3772806
vn -0.01500597 0.09694829 -0.9951763
vn -0.2966857 0.5147018 -0.8044001
g decoRockCave03_0
f 3/3/3 2/2/2 1/1/1
f 6/6/6 5/5/5 4/4/4
f 8/8/8 7/7/7 5/5/5
f 8/8/8 9/9/9 7/7/7
f 10/10/10 9/9/9 8/8/8
f 5/5/5 11/11/11 8/8/8
f 11/11/11 5/5/5 12/12/12
f 13/13/13 10/10/10 8/8/8
f 8/8/8 11/11/11 13/13/13
f 14/14/14 11/11/11 12/12/12
f 13/13/13 11/11/11 14/14/14
f 14/14/14 12/12/12 15/15/15
f 16/16/16 10/10/10 13/13/13
f 16/16/16 13/13/13 14/14/14
f 16/16/16 17/17/17 10/10/10
f 16/16/16 14/14/14 18/18/18
f 17/17/17 16/16/16 18/18/18
f 15/15/15 19/19/19 14/14/14
f 15/15/15 20/20/20 19/19/19
f 15/15/15 21/21/21 20/20/20
f 22/22/22 21/21/21 15/15/15
f 24/24/24 23/23/23 17/17/17
f 27/27/27 26/26/26 25/25/25
f 27/27/27 25/25/25 28/28/28
f 28/28/28 29/29/29 27/27/27
f 30/30/30 29/29/29 28/28/28
f 28/28/28 32/32/32 31/31/31
f 31/31/31 32/32/32 33/33/33
f 28/28/28 31/31/31 34/34/34
f 34/34/34 31/31/31 33/33/33
f 34/34/34 35/35/35 28/28/28
f 34/34/34 36/36/36 35/35/35
f 34/34/34 33/33/33 37/37/37
f 36/36/36 34/34/34 38/38/38
f 38/38/38 34/34/34 37/37/37
f 39/39/39 37/37/37 33/33/33
f 39/39/39 33/33/33 40/40/40
f 33/33/33 41/41/41 40/40/40
f 42/42/42 40/40/40 41/41/41
f 40/40/40 42/42/42 43/43/43
f 39/39/39 40/40/40 43/43/43
f 43/43/43 44/44/44 39/39/39
f 44/44/44 45/45/45 39/39/39
f 37/37/37 39/39/39 45/45/45
f 46/46/46 37/37/37 45/45/45
f 37/37/37 46/46/46 38/38/38
f 45/45/45 47/47/47 46/46/46
f 38/38/38 46/46/46 48/48/48
f 46/46/46 47/47/47 48/48/48
f 38/38/38 48/48/48 36/36/36
f 47/47/47 49/49/49 48/48/48
f 48/48/48 50/50/50 36/36/36
f 52/52/52 51/51/51 36/36/36
f 51/51/51 53/53/53 36/36/36
f 56/56/56 55/55/55 54/54/54
f 57/57/57 55/55/55 56/56/56
f 56/56/56 58/58/58 57/57/57
f 58/58/58 56/56/56 59/59/59
f 60/60/60 58/58/58 59/59/59
f 58/58/58 61/61/61 57/57/57
f 57/57/57 61/61/61 62/62/62
f 57/57/57 62/62/62 63/63/63
f 55/55/55 64/64/64 63/63/63
f 65/65/65 62/62/62 61/61/61
f 66/66/66 65/65/65 61/61/61
f 66/66/66 67/67/67 65/65/65
f 61/61/61 68/68/68 66/66/66
f 66/66/66 68/68/68 67/67/67
f 68/68/68 61/61/61 58/58/58
f 69/69/69 67/67/67 68/68/68
f 70/70/70 69/69/69 68/68/68
f 58/58/58 70/70/70 68/68/68
f 71/71/71 69/69/69 70/70/70
f 72/72/72 71/71/71 70/70/70
f 72/72/72 70/70/70 58/58/58
f 72/72/72 58/58/58 60/60/60
f 60/60/60 73/73/73 72/72/72
f 60/60/60 74/74/74 73/73/73
f 77/77/77 76/76/76 75/75/75
f 78/78/78 76/76/76 77/77/77
f 78/78/78 77/77/77 79/79/79
f 80/80/80 78/78/78 79/79/79
f 81/81/81 80/80/80 79/79/79
f 82/82/82 80/80/80 81/81/81
f 77/77/77 83/83/83 79/79/79
f 84/84/84 83/83/83 77/77/77
f 83/83/83 85/85/85 79/79/79
f 85/85/85 86/86/86 79/79/79
f 85/85/85 87/87/87 86/86/86
f 88/88/88 83/83/83 84/84/84
f 83/83/83 88/88/88 85/85/85
f 85/85/85 88/88/88 87/87/87
f 84/84/84 89/89/89 88/88/88
f 88/88/88 89/89/89 87/87/87
f 89/89/89 91/91/91 90/90/90
f 92/92/92 91/91/91 89/89/89
f 92/92/92 89/89/89 93/93/93
