g mtnBase01_COL
v -3.968501 0 -3.118801
v -3.968501 -23 -3.118801
v -2.798354 -23 -3.310275
v -2.798354 0 -3.310275
v -2.798354 0 -3.310275
v -2.798354 -23 -3.310275
v -2.117534 -23 -3.682599
v -2.117534 0 -3.682599
v -2.117534 0 -3.682599
v -2.117534 -23 -3.682599
v -0.9468993 -23 -3.458371
v -1.000571 0 -3.182619
v -1.000571 0 -3.182619
v -0.9468993 -23 -3.458371
v 0.8504053 -23 -3.597492
v 0.8504053 0 -3.597492
v 0.8504053 0 -3.597492
v 0.8504053 -23 -3.597492
v 1.371636 -23 -3.437932
v 1.371636 0 -3.437932
v 1.371636 0 -3.437932
v 1.371636 -23 -3.437932
v 1.839702 -23 -3.497345
v 1.839702 0 -3.214533
v 2.637378 -23 -3.600666
v 3.935347 -23 -3.88341
v 3.935347 0 -4.36341
v 2.750649 0 -4.151105
v 1.839702 0 -3.214533
v 1.839702 -23 -3.497345
v 3.935347 0 -4.36341
v 3.935347 -23 -3.88341
v 4.648061 -23 -3.878068
v 4.648061 0 -4.097473
v 4.648061 0 -4.097473
v 4.648061 -23 -3.878068
v 4.977847 -23 -3.523029
v 4.977847 0 -3.523029
v 4.977847 0 -3.523029
v 4.977847 -23 -3.523029
v 5.424624 -23 -3.448566
v 5.424624 0 -3.448566
v 5.424624 0 -3.448566
v 5.424624 -23 -3.448566
v 6.669233 -23 -3.799611
v 6.669233 0 -3.799611
v 6.669233 0 -3.799611
v 6.669233 -23 -3.799611
v 7.105386 -23 -3.459201
v 7.105386 0 -3.459201
v 7.105386 0 -3.459201
v 7.105386 -23 -3.459201
v 7.413882 -23 -3.406017
v 7.413882 0 -3.406017
v 7.413882 0 -3.406017
v 7.413882 -23 -3.406017
v 7.690464 -23 -2.810304
v 7.690464 0 -2.810304
v 7.690464 0 -2.810304
v 7.690464 -23 -2.810304
v 7.881948 -23 -2.735842
v 7.881948 0 -2.735842
v 7.881948 0 -2.735842
v 7.881948 -23 -2.735842
v 7.967046 -23 -2.363518
v 7.967046 0 -2.363518
v 7.967046 0 -2.363518
v 7.967046 -23 -2.363518
v 7.860659 -23 -1.91673
v 7.860659 0 -1.91673
v 7.860659 0 -1.91673
v 7.860659 -23 -1.91673
v 8.009584 -23 -1.204006
v 8.009584 0 -1.204006
v 8.009584 0 -1.204006
v 8.009584 -23 -1.204006
v 7.669194 -23 -0.395539
v 7.669194 0 -0.395539
v 7.669194 0 -0.395539
v 7.669194 -23 -0.395539
v 7.488335 -23 -0.118957
v 7.488335 6.103515E-07 -0.118957
v 7.488335 6.103515E-07 -0.118957
v 7.488335 -23 -0.118957
v 7.807476 -23 0.540584
v 7.807476 0 0.540584
v 7.807476 0 0.540584
v 7.807476 -23 0.540584
v 7.63728 -23 1.412879
v 7.63728 0 1.412879
v 7.63728 0 1.412879
v 7.63728 -23 1.412879
v 7.467065 -23 2.061785
v 7.467065 0 2.061785
v 7.467065 0 2.061785
v 7.467065 -23 2.061785
v 7.594721 -23 3.317039
v 7.594721 0 3.317039
v 7.594721 0 3.317039
v 7.594721 -23 3.317039
v 7.435151 -23 4.051043
v 7.435151 0 4.051043
v 7.435151 0 4.051043
v 7.435151 -23 4.051043
v 6.520308 -23 4.5191
v 6.520308 0 4.5191
v 6.520308 0 4.5191
v 6.520308 -23 4.5191
v 5.37144 -23 4.082957
v 5.37144 0 4.082957
v 5.37144 0 4.082957
v 5.37144 -23 4.082957
v 4.190639 -23 4.774402
v 4.190639 0 4.774402
v 4.190639 0 4.774402
v 4.190639 -23 4.774402
v 3.275796 -23 4.806316
v 3.275796 0 4.806316
v 3.275796 0 4.806316
v 3.275796 -23 4.806316
v 2.499253 -23 4.380809
v 2.499253 3.051758E-07 4.380809
v 2.499253 3.051758E-07 4.380809
v 2.499253 -23 4.380809
v 1.818433 -23 4.742488
v 1.818433 3.051758E-07 4.742488
v 1.818433 3.051758E-07 4.742488
v 1.818433 -23 4.742488
v 0.8078467 -23 4.476551
v 0.8078467 0 4.476551
v 0.8078467 0 4.476551
v 0.8078467 -23 4.476551
v -0.01125484 -23 4.402088
v -0.01125484 0 4.402088
v -0.01125484 0 4.402088
v -0.01125484 -23 4.402088
v -1.266509 -23 3.630193
v -1.266509 0 3.402137
v -1.266509 0 3.402137
v -1.266509 -23 3.630193
v -2.106899 -23 3.683377
v -2.107446 0 3.473269
v -2.107446 0 3.473269
v -2.106899 -23 3.683377
v -3.383433 -23 4.434002
v -3.383433 0 4.434002
v -3.383433 0 4.434002
v -3.383433 -23 4.434002
v -4.468482 -23 4.561648
v -4.468482 0 4.561648
v -4.468482 0 4.561648
v -4.468482 -23 4.561648
v -4.713149 -23 4.263797
v -4.713149 0 4.263797
v -4.713149 0 4.263797
v -4.713149 -23 4.263797
v -5.904575 -23 4.657391
v -5.904575 0 4.657391
v -5.904575 0 4.657391
v -5.904575 -23 4.657391
v -7.097641 -23 4.243797
v -7.191743 0 4.391443
v -7.191743 0 4.391443
v -7.097641 -23 4.243797
v -7.828559 -23 3.696522
v -7.883501 -5.810973 4.082957
v -7.702348 0 4.082957
v -7.883501 -5.810973 4.082957
v -7.828559 -23 3.696522
v -7.786001 -23 3.153992
v -8.217896 -6.556748 3.622371
v -7.702348 0 4.082957
v -7.65979 0 3.540428
v -8.217896 -6.556748 3.622371
v -7.786001 -23 3.153992
v -8.137055 -23 2.441267
v -8.191997 -6.6102 2.827703
v -7.65979 0 3.540428
v -8.010844 0 2.827703
v -8.191997 -6.6102 2.827703
v -8.137055 -23 2.441267
v -7.96685 -23 1.67535
v -8.253755 -7.065485 1.968865
v -8.010844 0 2.827703
v -7.84064 0 2.061785
v -8.253755 -7.065485 1.968865
v -7.96685 -23 1.67535
v -8.117222 -23 1.051199
v -8.117222 0 1.051199
v -7.84064 0 2.061785
v -8.117222 0 1.051199
v -8.117222 -23 1.051199
v -8.334888 -23 0.601043
v -7.81936 0 0.6363262
v -7.81936 0 0.6363262
v -8.334888 -23 0.601043
v -8.33393 -23 -0.09275586
v -7.649165 0 -0.001935549
v -7.649165 0 -0.001935549
v -8.33393 -23 -0.09275586
v -8.094985 -23 -0.4404316
v -7.925747 0 -0.3848945
v -7.925747 0 -0.3848945
v -8.094985 -23 -0.4404316
v -7.595972 -23 -1.533772
v -7.595972 0 -1.533772
v -7.595972 0 -1.533772
v -7.595972 -23 -1.533772
v -7.957661 -23 -2.182678
v -7.957661 0 -2.182678
v -7.957661 0 -2.182678
v -7.957661 -23 -2.182678
v -7.957661 -23 -3.033693
v -7.957661 0 -3.033693
v -7.957661 0 -3.033693
v -7.957661 -23 -3.033693
v -7.457681 -23 -3.459201
v -7.457681 0 -3.459201
v -7.457681 0 -3.459201
v -7.457681 -23 -3.459201
v -6.542837 -23 -3.437932
v -6.542837 0 -3.437932
v -6.542837 0 -3.437932
v -6.542837 -23 -3.437932
v -5.234399 -23 -3.810246
v -5.234399 0 -3.810246
v -5.234399 0 -3.810246
v -5.234399 -23 -3.810246
v -4.798247 -23 -3.48048
v -4.798247 0 -3.48048
v -4.798247 0 -3.48048
v -4.798247 -23 -3.48048
v -4.585493 -23 -3.16135
v -4.585493 0 -3.16135
v -4.585493 0 -3.16135
v -4.585493 -23 -3.16135
v -3.968501 -23 -3.118801
v -3.968501 0 -3.118801
v -4.713149 0 4.263797
v -3.383433 0 4.434002
v -4.468482 0 4.561648
v -4.181909 2.766632E-07 -0.001056643
v -5.904575 0 4.657391
v -7.191743 0 4.391443
v -7.702348 0 4.082957
v -7.65979 0 3.540428
v -8.010844 0 2.827703
v -7.84064 0 2.061785
v -8.117222 0 1.051199
v -7.81936 0 0.6363262
v -7.649165 0 -0.001935549
v -7.925747 0 -0.3848945
v -7.595972 0 -1.533772
v -7.957661 0 -2.182678
v -7.957661 0 -3.033693
v -7.457681 0 -3.459201
v -6.542837 0 -3.437932
v -5.234399 0 -3.810246
v -4.798247 0 -3.48048
v -4.585493 0 -3.16135
v -3.968501 0 -3.118801
v -2.798354 0 -3.310275
v -4.837886E-06 9.155273E-07 -1.955495E-06
v -2.117534 0 -3.682599
v -1.000571 0 -3.182619
v 0.8504053 0 -3.597492
v 1.371636 0 -3.437932
v 1.839702 0 -3.214533
v 3.955933 3.010956E-07 0.2739043
v 2.750649 0 -4.151105
v 3.935347 0 -4.36341
v 4.648061 0 -4.097473
v 4.977847 0 -3.523029
v 5.424624 0 -3.448566
v 6.669233 0 -3.799611
v 7.105386 0 -3.459201
v 7.413882 0 -3.406017
v 7.690464 0 -2.810304
v 7.881948 0 -2.735842
v 7.967046 0 -2.363518
v 7.860659 0 -1.91673
v 8.009584 0 -1.204006
v 7.488335 6.103515E-07 -0.118957
v 7.669194 0 -0.395539
v 7.807476 0 0.540584
v 7.467065 0 2.061785
v 7.594721 0 3.317039
v 7.63728 0 1.412879
v 7.435151 0 4.051043
v 6.520308 0 4.5191
v 5.37144 0 4.082957
v 4.190639 0 4.774402
v 3.275796 0 4.806316
v 2.499253 3.051758E-07 4.380809
v 1.818433 3.051758E-07 4.742488
v 0.8078467 0 4.476551
v -0.01125484 0 4.402088
v -1.266509 0 3.402137
v -2.107446 0 3.473269
vt 0 0
vt 0 1
vt 1 1
vt 1 0
vt 0 0
vt 0 1
vt 1 1
vt 1 0
vt 0 0
vt 0 1
vt 1 1
vt 1 0
vt 0 0
vt 0 1
vt 1 1
vt 1 0
vt 0 0
vt 0 1
vt 1 1
vt 1 0
vt 0 0
vt 0 1
vt 1 1
vt 1 0
vt 0.482738 1
vt 1 1
vt 1 0
vt 0.503992 0
vt 0 0
vt 0 1
vt 0 0
vt 0 1
vt 1 1
vt 1 0
vt 0 0
vt 0 1
vt 1 1
vt 1 0
vt 0 0
vt 0 1
vt 1 1
vt 1 0
vt 0 0
vt 0 1
vt 1 1
vt 1 0
vt 0 0
vt 0 1
vt 1 1
vt 1 0
vt 0 0
vt 0 1
vt 1 1
vt 1 0
vt 0 0
vt 0 1
vt 1 1
vt 1 0
vt 0 0
vt 0 1
vt 1 1
vt 1 0
vt 0 0
vt 0 1
vt 1 1
vt 1 0
vt 0 0
vt 0 1
vt 1 1
vt 1 0
vt 0 0
vt 0 1
vt 1 1
vt 1 0
vt 0 0
vt 0 1
vt 1 1
vt 1 0
vt 0 0
vt 0 1
vt 1 1
vt 1 0
vt 0 0
vt 0 1
vt 1 1
vt 1 0
vt 0 0
vt 0 1
vt 1 1
vt 1 0
vt 0 0
vt 0 1
vt 1 1
vt 1 0
vt 0 0
vt 0 1
vt 1 1
vt 1 0
vt 0 0
vt 0 1
vt 1 1
vt 1 0
vt 0 0
vt 0 1
vt 1 1
vt 1 0
vt 0 0
vt 0 1
vt 1 1
vt 1 0
vt 0 0
vt 0 1
vt 1 1
vt 1 0
vt 0 0
vt 0 1
vt 1 1
vt 1 0
vt 0 0
vt 0 1
vt 1 1
vt 1 0
vt 0 0
vt 0 1
vt 1 1
vt 1 0
vt 0 0
vt 0 1
vt 1 1
vt 1 0
vt 0 0
vt 0 1
vt 1 1
vt 1 0
vt 0 0
vt 0 1
vt 1 1
vt 1 0
vt 0 0
vt 0 1
vt 1 1
vt 1 0
vt 0 0
vt 0 1
vt 1 1
vt 1 0
vt 0 0
vt 0 1
vt 1 1
vt 1 0
vt 0 0
vt 0 1
vt 1 1
vt 1 0
vt 0 0
vt 0 1
vt 1 1
vt 1 0
vt 0 0
vt 0 1
vt 1 1
vt 1 0
vt 0 0
vt 0 1
vt 1 1
vt 1 0.252651
vt 1 0
vt 0 0.252651
vt 0 1
vt 1 1
vt 1 0.285076
vt 0 0
vt 1 0
vt 0 0.285076
vt 0 1
vt 1 1
vt 1 0.2874
vt 0 0
vt 1 0
vt 0 0.2874
vt 0 1
vt 1 1
vt 1 0.307195
vt 0 0
vt 1 0
vt 0 0.307195
vt 0 1
vt 1 1
vt 1 0
vt 0 0
vt 0 0
vt 0 1
vt 1 1
vt 1 0
vt 0 0
vt 0 1
vt 1 1
vt 1 0
vt 0 0
vt 0 1
vt 1 1
vt 1 0
vt 0 0
vt 0 1
vt 1 1
vt 1 0
vt 0 0
vt 0 1
vt 1 1
vt 1 0
vt 0 0
vt 0 1
vt 1 1
vt 1 0
vt 0 0
vt 0 1
vt 1 1
vt 1 0
vt 0 0
vt 0 1
vt 1 1
vt 1 0
vt 0 0
vt 0 1
vt 1 1
vt 1 0
vt 0 0
vt 0 1
vt 1 1
vt 1 0
vt 0 0
vt 0 1
vt 1 1
vt 1 0
vt 0 0
vt 0 1
vt 1 1
vt 1 0
vt 0.1820073 0.4856439
vt 0.2593733 0.5086895
vt 0.1936508 0.5057239
vt 0.2242299 0.2343577
vt 0.1073769 0.4974484
vt 0.03347053 0.4691269
vt 0.006126376 0.4458288
vt 0.01393096 0.414002
vt 0 0.3682329
vt 0.0175629 0.3243718
vt 0.01095383 0.2616261
vt 0.03268896 0.2398679
vt 0.04901047 0.203593
vt 0.03629808 0.1781453
vt 0.06706754 0.1130778
vt 0.0518839 0.07099831
vt 0.06015959 0.02042469
vt 0.09400948 0
vt 0.148169 0.01016061
vt 0.2295465 0.000758638
vt 0.2522586 0.02459721
vt 0.2617989 0.04563117
vt 0.2980508 0.05415957
vt 0.3694515 0.05415957
vt 0.4355651 0.2714636
vt 0.4135309 0.03865428
vt 0.4750467 0.07922818
vt 0.5890786 0.0725731
vt 0.618503 0.08712441
vt 0.6441464 0.1049517
vt 0.7024422 0.3295688
vt 0.7125429 0.08081277
vt 0.7798559 0.05705622
vt 0.8196249 0.07979123
vt 0.8336364 0.1171353
vt 0.8594629 0.1259053
vt 0.9368407 0.1171467
vt 0.9594491 0.1416175
vt 0.9772648 0.1477783
vt 0.9879083 0.1858694
vt 0.9985635 0.1921565
vt 1 0.2151102
vt 0.9893336 0.2406267
vt 0.991253 0.2844303
vt 0.9497252 0.3438427
vt 0.9631621 0.3291649
vt 0.9622771 0.3861407
vt 0.9272547 0.4732306
vt 0.9226337 0.5490679
vt 0.9436797 0.4363234
vt 0.9060137 0.5911359
vt 0.8470957 0.6100551
vt 0.7830626 0.572964
vt 0.7061677 0.6025723
vt 0.6514909 0.5955725
vt 0.6094805 0.5627343
vt 0.5655043 0.5776073
vt 0.5080343 0.5519757
vt 0.4600813 0.5395853
vt 0.3952095 0.4679548
vt 0.3477506 0.4446104
vn -0.1614884 0 -0.9868746
vn -0.1614884 0 -0.9868746
vn -0.1614884 0 -0.9868746
vn -0.1614884 0 -0.9868746
vn -0.4798105 0 -0.8773721
vn -0.4798105 0 -0.8773721
vn -0.4798105 0 -0.8773721
vn -0.4798105 0 -0.8773721
vn 0.3018114 0.006067001 -0.9533483
vn 0.3018114 0.006067001 -0.9533483
vn 0.3018114 0.006067001 -0.9533483
vn 0.3018114 0.006067001 -0.9533483
vn -0.1501288 0.005751407 -0.9886497
vn -0.1501288 0.005751406 -0.9886497
vn -0.1501288 0.005751407 -0.9886497
vn -0.1501288 0.005751407 -0.9886497
vn 0.2927224 0 -0.9561975
vn 0.2927224 0 -0.9561975
vn 0.2927224 0 -0.9561975
vn 0.2927224 0 -0.9561975
vn 0.1725399 0.006055776 -0.984984
vn 0.1725399 0.006055776 -0.984984
vn 0.1725399 0.006055777 -0.984984
vn 0.1725399 0.006055776 -0.984984
vn -0.3447844 -0.01378837 -0.9385806
vn -0.1955051 -0.02148178 -0.9804673
vn -0.1955051 -0.02148178 -0.9804673
vn -0.342304 -0.01392259 -0.9394861
vn -0.5198939 -0.003690106 -0.8542229
vn -0.5198939 -0.003690106 -0.8542229
vn 0.1869311 -0.01493468 -0.9822595
vn 0.1869311 -0.01493468 -0.9822595
vn 0.1869311 -0.01493468 -0.9822595
vn 0.1869311 -0.01493468 -0.9822595
vn 0.8155286 -0.002760249 -0.5787102
vn 0.8155286 -0.002760248 -0.5787102
vn 0.8155287 -0.002760248 -0.5787101
vn 0.8155287 -0.002760248 -0.5787101
vn 0.1644133 0 -0.9863915
vn 0.1644133 0 -0.9863915
vn 0.1644133 0 -0.9863915
vn 0.1644133 0 -0.9863915
vn -0.2714663 0 -0.962448
vn -0.2714663 0 -0.962448
vn -0.2714663 0 -0.962448
vn -0.2714663 0 -0.962448
vn 0.6152775 0 -0.7883107
vn 0.6152775 0 -0.7883107
vn 0.6152775 0 -0.7883107
vn 0.6152775 0 -0.7883107
vn 0.1698871 0 -0.9854636
vn 0.1698871 0 -0.9854636
vn 0.1698871 0 -0.9854636
vn 0.1698871 0 -0.9854636
vn 0.9070084 0 -0.4211125
vn 0.9070084 0 -0.4211125
vn 0.9070084 0 -0.4211125
vn 0.9070084 0 -0.4211125
vn 0.362424 0 -0.9320133
vn 0.362424 0 -0.9320133
vn 0.362424 0 -0.9320133
vn 0.362424 0 -0.9320133
vn 0.974861 0 -0.2228137
vn 0.974861 0 -0.2228137
vn 0.974861 0 -0.2228137
vn 0.974861 0 -0.2228137
vn 0.9728023 0 0.2316367
vn 0.9728023 0 0.2316367
vn 0.9728023 0 0.2316367
vn 0.9728023 0 0.2316367
vn 0.9788589 0 -0.2045361
vn 0.9788589 0 -0.2045361
vn 0.9788589 0 -0.2045361
vn 0.9788589 0 -0.2045361
vn 0.9216425 0 0.38804
vn 0.9216425 0 0.38804
vn 0.9216425 0 0.38804
vn 0.9216425 0 0.38804
vn 0.8369462 0 0.5472852
vn 0.8369462 0 0.5472852
vn 0.8369462 0 0.5472852
vn 0.8369462 0 0.5472852
vn 0.9001546 0 -0.4355707
vn 0.9001545 0 -0.4355707
vn 0.9001545 0 -0.4355707
vn 0.9001546 0 -0.4355707
vn 0.9814925 0 0.1915009
vn 0.9814925 0 0.1915009
vn 0.9814925 0 0.1915009
vn 0.9814925 0 0.1915009
vn 0.9672759 0 0.2537272
vn 0.9672759 0 0.2537272
vn 0.9672759 0 0.2537272
vn 0.9672759 0 0.2537272
vn 0.9948685 0 -0.1011758
vn 0.9948685 0 -0.1011758
vn 0.9948685 0 -0.1011758
vn 0.9948685 0 -0.1011758
vn 0.9771755 0 0.2124337
vn 0.9771755 0 0.2124337
vn 0.9771755 0 0.2124337
vn 0.9771755 0 0.2124337
vn 0.4554701 0 0.8902511
vn 0.4554701 0 0.8902511
vn 0.4554701 0 0.8902511
vn 0.4554701 0 0.8902511
vn -0.3549117 0 0.9348998
vn -0.3549117 0 0.9348998
vn -0.3549117 0 0.9348998
vn -0.3549117 0 0.9348998
vn 0.5053115 0 0.862937
vn 0.5053115 0 0.862937
vn 0.5053115 0 0.862937
vn 0.5053115 0 0.862937
vn 0.03486239 0 0.9993922
vn 0.03486239 0 0.9993922
vn 0.03486239 0 0.9993922
vn 0.03486239 0 0.9993922
vn -0.4805358 0 0.8769751
vn -0.4805358 0 0.8769751
vn -0.4805358 0 0.8769751
vn -0.4805359 0 0.8769751
vn 0.4691475 0 0.8831198
vn 0.4691475 0 0.8831198
vn 0.4691475 0 0.8831198
vn 0.4691475 0 0.8831198
vn -0.2544892 0 0.9670756
vn -0.2544892 0 0.9670756
vn -0.2544892 0 0.9670756
vn -0.2544892 0 0.9670756
vn -0.09053224 0 0.9958935
vn -0.09053224 0 0.9958935
vn -0.09053224 0 0.9958935
vn -0.09053224 0 0.9958935
vn -0.5766177 0.004050589 0.8170041
vn -0.5766177 0.004050589 0.8170041
vn -0.5766178 0.004050589 0.8170041
vn -0.5766178 0.00405059 0.8170041
vn 0.07372255 0.00949971 0.9972336
vn 0.07372255 0.00949971 0.9972336
vn 0.07372256 0.009499711 0.9972336
vn 0.07372255 0.00949971 0.9972336
vn 0.5568782 0.003800308 0.8305855
vn 0.5568781 0.003800307 0.8305856
vn 0.5568782 0.003800308 0.8305855
vn 0.5568782 0.003800308 0.8305855
vn 0.1168328 0 0.9931515
vn 0.1168328 0 0.9931515
vn 0.1168328 0 0.9931515
vn 0.1168328 0 0.9931515
vn -0.7727216 0 0.6347451
vn -0.7727216 0 0.6347451
vn -0.7727216 0 0.6347451
vn -0.7727216 0 0.6347451
vn 0.3136861 0 0.9495267
vn 0.3136861 0 0.9495267
vn 0.3136861 0 0.9495267
vn 0.3136861 0 0.9495267
vn -0.2642511 -0.003636094 0.964447
vn -0.2642511 -0.003636094 0.964447
vn -0.2642511 -0.003636094 0.964447
vn -0.2642511 -0.003636094 0.964447
vn -0.4975222 0.002414575 0.8674479
vn -0.4744541 -0.01345668 0.8801774
vn -0.4744541 -0.01345668 0.8801774
vn -0.4746078 -0.01335203 0.880096
vn -0.5170628 0.01611765 0.8557956
vn -0.9650077 0.02675854 0.2608531
vn -0.9556144 -0.02130068 0.2938494
vn -0.9556144 -0.02130068 0.2938493
vn -0.9571421 -0.01452178 0.2892541
vn -0.9694891 0.05952384 0.237798
vn -0.9694891 0.05952384 0.237798
vn -0.9775353 0.003342769 0.210745
vn -0.9771743 -0.01999615 0.2114957
vn -0.9771743 -0.01999615 0.2114957
vn -0.9775186 0.000309809 0.2108491
vn -0.9763848 0.05611777 0.2086232
vn -0.9763848 0.05611777 0.2086232
vn -0.9973871 0.0147797 -0.07071382
vn -0.9979057 -0.009205925 -0.06402664
vn -0.9979057 -0.009205923 -0.06402662
vn -0.9977737 0.0003245804 -0.06668867
vn -0.995931 0.04381213 -0.07875278
vn -0.995931 0.04381213 -0.07875279
vn -0.9997663 -0.006490823 -0.02062139
vn -0.9996872 -0.007186344 -0.02395805
vn -0.9996872 -0.007186344 -0.02395806
vn -0.9817637 0.03673799 0.1865217
vn -0.9631802 0.05285181 0.2636108
vn -0.9956672 0.01122969 -0.09230687
vn -0.9956672 0.01122969 -0.09230687
vn -0.9956672 0.01122969 -0.09230687
vn -0.9956672 0.0112297 -0.09230687
vn -0.9915054 0.02622121 -0.1273946
vn -0.9915054 0.02622121 -0.1273946
vn -0.9915054 0.02622121 -0.1273946
vn -0.9915054 0.02622121 -0.1273946
vn -0.9985072 0.01837396 0.05143602
vn -0.9985072 0.01837396 0.05143603
vn -0.9985072 0.01837396 0.05143602
vn -0.9985072 0.01837396 0.05143602
vn -0.9379684 0.003868964 -0.3466991
vn -0.9379684 0.003868964 -0.3466991
vn -0.9379684 0.003868964 -0.3466991
vn -0.9379684 0.003868964 -0.3466991
vn -0.8734781 0 0.4868635
vn -0.8734781 0 0.4868635
vn -0.8734781 0 0.4868635
vn -0.8734781 0 0.4868635
vn -1 0 0
vn -1 0 0
vn -1 0 0
vn -1 0 0
vn -0.648109 0 -0.7615476
vn -0.648109 0 -0.7615476
vn -0.648109 0 -0.7615476
vn -0.648109 0 -0.7615476
vn 0.02324311 0 -0.9997298
vn 0.02324311 0 -0.9997298
vn 0.02324311 0 -0.9997298
vn 0.02324311 0 -0.9997298
vn -0.2736897 0 -0.9618181
vn -0.2736897 0 -0.9618181
vn -0.2736897 0 -0.9618181
vn -0.2736897 0 -0.9618181
vn 0.6030983 0 -0.7976668
vn 0.6030983 0 -0.7976668
vn 0.6030983 0 -0.7976668
vn 0.6030983 0 -0.7976668
vn 0.832057 0 -0.5546902
vn 0.832057 0 -0.5546902
vn 0.832057 0 -0.5546902
vn 0.832057 0 -0.5546902
vn 0.06879668 0 -0.9976307
vn 0.06879668 0 -0.9976307
vn 0.06879668 0 -0.9976307
vn 0.06879668 0 -0.9976307
vn 0 1 0
vn 0 1 0
vn 0 1 0
vn 0 1 0
vn 0 1 0
vn 0 1 0
vn 0 1 0
vn 0 1 0
vn 0 1 0
vn 0 1 0
vn 0 1 0
vn 0 1 0
vn 0 1 0
vn 0 1 0
vn -1.080818E-07 1 0
vn -1.080817E-07 1 0
vn 0 1 0
vn 0 1 0
vn 0 1 0
vn 0 1 0
vn 1.624012E-07 1 -1.082703E-07
vn 0 1 0
vn 0 1 0
vn -1.432515E-07 1 -1.554749E-07
vn 0 1 2.079271E-07
vn 1.498556E-07 1 -3.34775E-07
vn 1.498556E-07 1 -3.34775E-07
vn 0 1 -2.687292E-07
vn 1.067694E-07 1 -2.237041E-07
vn 1.067694E-07 1 -2.237041E-07
vn 3.29499E-07 1 1.158768E-07
vn 0 1 -1.248434E-07
vn 0 1 0
vn 0 1 0
vn 0 1 0
vn 0 1 0
vn 0 1 0
vn 0 1 0
vn 0 1 0
vn 0 1 0
vn 0 1 0
vn 0 1 0
vn 0 1 0
vn 0 1 0
vn 0 1 9.183615E-07
vn 0 1 -5.732004E-07
vn 0 1 9.183615E-07
vn 0 1 0
vn 0 1 0
vn 0 1 0
vn 0 1 0
vn 0 1 0
vn 0 1 0
vn 0 1 0
vn 3.29499E-07 1 1.158768E-07
vn 0 1 1.069188E-07
vn 0 1 1.069187E-07
vn 0 1 2.079271E-07
vn 0 1 2.079271E-07
vn -1.653379E-07 1 2.075546E-07
vn 0 1 2.778524E-07
g mtnBase01_COL_0
f 3/3/3 2/2/2 1/1/1
f 4/4/4 3/3/3 1/1/1
f 7/7/7 6/6/6 5/5/5
f 8/8/8 7/7/7 5/5/5
f 11/11/11 10/10/10 9/9/9
f 12/12/12 11/11/11 9/9/9
f 15/15/15 14/14/14 13/13/13
f 16/16/16 15/15/15 13/13/13
f 19/19/19 18/18/18 17/17/17
f 20/20/20 19/19/19 17/17/17
f 23/23/23 22/22/22 21/21/21
f 24/24/24 23/23/23 21/21/21
f 27/27/27 26/26/26 25/25/25
f 28/28/28 27/27/27 25/25/25
f 28/28/28 25/25/25 29/29/29
f 25/25/25 30/30/30 29/29/29
f 33/33/33 32/32/32 31/31/31
f 34/34/34 33/33/33 31/31/31
f 37/37/37 36/36/36 35/35/35
f 38/38/38 37/37/37 35/35/35
f 41/41/41 40/40/40 39/39/39
f 42/42/42 41/41/41 39/39/39
f 45/45/45 44/44/44 43/43/43
f 46/46/46 45/45/45 43/43/43
f 49/49/49 48/48/48 47/47/47
f 50/50/50 49/49/49 47/47/47
f 53/53/53 52/52/52 51/51/51
f 54/54/54 53/53/53 51/51/51
f 57/57/57 56/56/56 55/55/55
f 58/58/58 57/57/57 55/55/55
f 61/61/61 60/60/60 59/59/59
f 62/62/62 61/61/61 59/59/59
f 65/65/65 64/64/64 63/63/63
f 66/66/66 65/65/65 63/63/63
f 69/69/69 68/68/68 67/67/67
f 70/70/70 69/69/69 67/67/67
f 73/73/73 72/72/72 71/71/71
f 74/74/74 73/73/73 71/71/71
f 77/77/77 76/76/76 75/75/75
f 78/78/78 77/77/77 75/75/75
f 81/81/81 80/80/80 79/79/79
f 82/82/82 81/81/81 79/79/79
f 85/85/85 84/84/84 83/83/83
f 86/86/86 85/85/85 83/83/83
f 89/89/89 88/88/88 87/87/87
f 90/90/90 89/89/89 87/87/87
f 93/93/93 92/92/92 91/91/91
f 94/94/94 93/93/93 91/91/91
f 97/97/97 96/96/96 95/95/95
f 98/98/98 97/97/97 95/95/95
f 101/101/101 100/100/100 99/99/99
f 102/102/102 101/101/101 99/99/99
f 105/105/105 104/104/104 103/103/103
f 106/106/106 105/105/105 103/103/103
f 109/109/109 108/108/108 107/107/107
f 110/110/110 109/109/109 107/107/107
f 113/113/113 112/112/112 111/111/111
f 114/114/114 113/113/113 111/111/111
f 117/117/117 116/116/116 115/115/115
f 118/118/118 117/117/117 115/115/115
f 121/121/121 120/120/120 119/119/119
f 122/122/122 121/121/121 119/119/119
f 125/125/125 124/124/124 123/123/123
f 126/126/126 125/125/125 123/123/123
f 129/129/129 128/128/128 127/127/127
f 130/130/130 129/129/129 127/127/127
f 133/133/133 132/132/132 131/131/131
f 134/134/134 133/133/133 131/131/131
f 137/137/137 136/136/136 135/135/135
f 138/138/138 137/137/137 135/135/135
f 141/141/141 140/140/140 139/139/139
f 142/142/142 141/141/141 139/139/139
f 145/145/145 144/144/144 143/143/143
f 146/146/146 145/145/145 143/143/143
f 149/149/149 148/148/148 147/147/147
f 150/150/150 149/149/149 147/147/147
f 153/153/153 152/152/152 151/151/151
f 154/154/154 153/153/153 151/151/151
f 157/157/157 156/156/156 155/155/155
f 158/158/158 157/157/157 155/155/155
f 161/161/161 160/160/160 159/159/159
f 162/162/162 161/161/161 159/159/159
f 165/165/165 164/164/164 163/163/163
f 166/166/166 165/165/165 163/163/163
f 167/167/167 166/166/166 163/163/163
f 170/170/170 169/169/169 168/168/168
f 171/171/171 170/170/170 168/168/168
f 171/171/171 168/168/168 172/172/172
f 173/173/173 171/171/171 172/172/172
f 176/176/176 175/175/175 174/174/174
f 177/177/177 176/176/176 174/174/174
f 177/177/177 174/174/174 178/178/178
f 179/179/179 177/177/177 178/178/178
f 182/182/182 181/181/181 180/180/180
f 183/183/183 182/182/182 180/180/180
f 183/183/183 180/180/180 184/184/184
f 185/185/185 183/183/183 184/184/184
f 188/188/188 187/187/187 186/186/186
f 189/189/189 188/188/188 186/186/186
f 189/189/189 186/186/186 190/190/190
f 193/193/193 192/192/192 191/191/191
f 194/194/194 193/193/193 191/191/191
f 197/197/197 196/196/196 195/195/195
f 198/198/198 197/197/197 195/195/195
f 201/201/201 200/200/200 199/199/199
f 202/202/202 201/201/201 199/199/199
f 205/205/205 204/204/204 203/203/203
f 206/206/206 205/205/205 203/203/203
f 209/209/209 208/208/208 207/207/207
f 210/210/210 209/209/209 207/207/207
f 213/213/213 212/212/212 211/211/211
f 214/214/214 213/213/213 211/211/211
f 217/217/217 216/216/216 215/215/215
f 218/218/218 217/217/217 215/215/215
f 221/221/221 220/220/220 219/219/219
f 222/222/222 221/221/221 219/219/219
f 225/225/225 224/224/224 223/223/223
f 226/226/226 225/225/225 223/223/223
f 229/229/229 228/228/228 227/227/227
f 230/230/230 229/229/229 227/227/227
f 233/233/233 232/232/232 231/231/231
f 234/234/234 233/233/233 231/231/231
f 237/237/237 236/236/236 235/235/235
f 238/238/238 237/237/237 235/235/235
f 241/241/241 240/240/240 239/239/239
f 240/240/240 242/242/242 239/239/239
f 243/243/243 239/239/239 242/242/242
f 244/244/244 243/243/243 242/242/242
f 245/245/245 244/244/244 242/242/242
f 246/246/246 245/245/245 242/242/242
f 247/247/247 246/246/246 242/242/242
f 248/248/248 247/247/247 242/242/242
f 249/249/249 248/248/248 242/242/242
f 250/250/250 249/249/249 242/242/242
f 250/250/250 242/242/242 251/251/251
f 252/252/252 251/251/251 242/242/242
f 253/253/253 252/252/252 242/242/242
f 254/254/254 253/253/253 242/242/242
f 255/255/255 254/254/254 242/242/242
f 256/256/256 255/255/255 242/242/242
f 257/257/257 256/256/256 242/242/242
f 258/258/258 257/257/257 242/242/242
f 259/259/259 258/258/258 242/242/242
f 260/260/260 259/259/259 242/242/242
f 260/260/260 242/242/242 261/261/261
f 242/242/242 262/262/262 261/261/261
f 242/242/242 263/263/263 262/262/262
f 263/263/263 264/264/264 262/262/262
f 263/263/263 265/265/265 264/264/264
f 265/265/265 263/263/263 266/266/266
f 266/266/266 263/263/263 267/267/267
f 267/267/267 263/263/263 268/268/268
f 268/268/268 263/263/263 269/269/269
f 270/270/270 268/268/268 269/269/269
f 270/270/270 269/269/269 271/271/271
f 271/271/271 269/269/269 272/272/272
f 273/273/273 272/272/272 269/269/269
f 274/274/274 273/273/273 269/269/269
f 275/275/275 274/274/274 269/269/269
f 276/276/276 275/275/275 269/269/269
f 276/276/276 269/269/269 277/277/277
f 277/277/277 269/269/269 278/278/278
f 278/278/278 269/269/269 279/279/279
f 279/279/279 269/269/269 280/280/280
f 280/280/280 269/269/269 281/281/281
f 281/281/281 269/269/269 282/282/282
f 282/282/282 269/269/269 283/283/283
f 284/284/284 282/282/282 283/283/283
f 269/269/269 285/285/285 283/283/283
f 285/285/285 269/269/269 286/286/286
f 286/286/286 269/269/269 287/287/287
f 288/288/288 285/285/285 286/286/286
f 287/287/287 269/269/269 289/289/289
f 289/289/289 269/269/269 290/290/290
f 290/290/290 269/269/269 291/291/291
f 291/291/291 269/269/269 292/292/292
f 292/292/292 269/269/269 293/293/293
f 293/293/293 269/269/269 294/294/294
f 294/294/294 269/269/269 263/263/263
f 294/294/294 263/263/263 295/295/295
f 295/295/295 263/263/263 296/296/296
f 296/296/296 263/263/263 297/297/297
f 297/297/297 263/263/263 298/298/298
f 299/299/299 298/298/298 263/263/263
f 299/299/299 263/263/263 242/242/242
f 240/240/240 299/299/299 242/242/242
