g ore_05_COL
v -0.8863462 0.2501177 0.7986218
v -0.509579 0.8438979 0.3052339
v 0.2771275 0.9212356 0.3052476
v 0.7624393 0.4091799 0.8003147
v -0.509579 0.8438979 0.3052339
v -0.501228 0.7591519 -0.480635
v 0.285437 0.8364851 -0.4806448
v 0.2771275 0.9212356 0.3052476
v -0.501228 0.7591519 -0.480635
v -0.8669763 0.07945997 -0.8444675
v 0.7764469 0.237886 -0.8458498
v 0.285437 0.8364851 -0.4806448
v -0.5645655 -0.8980691 -0.5653671
v -0.5658135 -0.8947839 0.5692343
v 0.5715831 -0.8891181 0.5716122
v 0.5709358 -0.8927632 -0.5671004
v 0.7624393 0.4091799 0.8003147
v 0.2771275 0.9212356 0.3052476
v 0.285437 0.8364851 -0.4806448
v 0.7764469 0.237886 -0.8458498
v -0.8669763 0.07945997 -0.8444675
v -0.501228 0.7591519 -0.480635
v -0.509579 0.8438979 0.3052339
v -0.8863462 0.2501177 0.7986218
v -0.5658135 -0.8947839 0.5692343
v -0.8863462 0.2501177 0.7986218
v 0.7624393 0.4091799 0.8003147
v 0.5715831 -0.8891181 0.5716122
v 0.5715831 -0.8891181 0.5716122
v 0.7624393 0.4091799 0.8003147
v 0.7764469 0.237886 -0.8458498
v 0.5709358 -0.8927632 -0.5671004
v -0.8669763 0.07945997 -0.8444675
v -0.5645655 -0.8980691 -0.5653671
v 0.5709358 -0.8927632 -0.5671004
v 0.7764469 0.237886 -0.8458498
v -0.5645655 -0.8980691 -0.5653671
v -0.8669763 0.07945997 -0.8444675
v -0.8863462 0.2501177 0.7986218
v -0.5658135 -0.8947839 0.5692343
vt 0.375 0.1493897
vt 0.375 0.25
vt 0.625 0.25
vt 0.625 0.1493897
vt 0.375 0.25
vt 0.375 0.5
vt 0.625 0.5
vt 0.625 0.25
vt 0.375 0.5
vt 0.375 0.6006103
vt 0.625 0.6006103
vt 0.625 0.5
vt 0.375 0.75
vt 0.375 1
vt 0.625 1
vt 0.625 0.75
vt 0.625 0.1493897
vt 0.625 0.25
vt 0.875 0.25
vt 0.875 0.1493897
vt 0.125 0.1493897
vt 0.125 0.25
vt 0.375 0.25
vt 0.375 0.1493897
vt 0.375 0
vt 0.375 0.1493897
vt 0.625 0.1493897
vt 0.625 0
vt 0.625 0
vt 0.625 0.1493897
vt 0.875 0.1493897
vt 0.875 0
vt 0.375 0.6006103
vt 0.375 0.75
vt 0.625 0.75
vt 0.625 0.6006103
vt 0.125 0
vt 0.125 0.1493897
vt 0.375 0.1493897
vt 0.375 0
vn -0.06473089 0.6614919 0.7471536
vn -0.06473089 0.6614919 0.7471535
vn -0.06473089 0.6614919 0.7471535
vn -0.06473089 0.6614919 0.7471536
vn -0.09726416 0.9894112 -0.1077276
vn -0.09726416 0.9894112 -0.1077276
vn -0.09726414 0.9894112 -0.1077276
vn -0.09726416 0.9894112 -0.1077276
vn -0.04816005 0.4912741 -0.8696726
vn -0.04816004 0.4912741 -0.8696726
vn -0.04816005 0.4912741 -0.8696726
vn -0.04816004 0.491274 -0.8696726
vn 0.004826227 -0.9999838 0.003049713
vn 0.004826227 -0.9999838 0.003049712
vn 0.004826227 -0.9999838 0.003049712
vn 0.004826226 -0.9999838 0.003049712
vn 0.7532061 0.6548532 -0.06203068
vn 0.7532061 0.6548533 -0.06203068
vn 0.7532061 0.6548532 -0.06203068
vn 0.7532062 0.6548532 -0.06203067
vn -0.8649478 0.4979881 -0.0622346
vn -0.8649478 0.4979881 -0.06223459
vn -0.8649478 0.4979881 -0.06223459
vn -0.8649478 0.4979882 -0.0622346
vn 0.009430258 -0.1837929 0.9829198
vn 0.009430259 -0.1837929 0.9829198
vn 0.009430259 -0.1837929 0.9829198
vn 0.009430259 -0.1837929 0.9829198
vn 0.9868855 -0.1607389 0.01483179
vn 0.9868855 -0.160739 0.01483179
vn 0.9868855 -0.160739 0.01483179
vn 0.9868855 -0.1607389 0.01483179
vn 0.01395128 -0.2551837 -0.9667919
vn 0.01395128 -0.2551837 -0.9667919
vn 0.01395128 -0.2551837 -0.9667919
vn 0.01395128 -0.2551837 -0.9667919
vn -0.959538 -0.281383 0.01049828
vn -0.959538 -0.281383 0.01049828
vn -0.9595382 -0.281383 0.01049828
vn -0.9595382 -0.281383 0.01049828
g ore_05_COL_0
f 3/3/3 2/2/2 1/1/1
f 4/4/4 3/3/3 1/1/1
f 7/7/7 6/6/6 5/5/5
f 8/8/8 7/7/7 5/5/5
f 11/11/11 10/10/10 9/9/9
f 12/12/12 11/11/11 9/9/9
f 15/15/15 14/14/14 13/13/13
f 16/16/16 15/15/15 13/13/13
f 19/19/19 18/18/18 17/17/17
f 20/20/20 19/19/19 17/17/17
f 23/23/23 22/22/22 21/21/21
f 24/24/24 23/23/23 21/21/21
f 27/27/27 26/26/26 25/25/25
f 28/28/28 27/27/27 25/25/25
f 31/31/31 30/30/30 29/29/29
f 32/32/32 31/31/31 29/29/29
f 35/35/35 34/34/34 33/33/33
f 36/36/36 35/35/35 33/33/33
f 39/39/39 38/38/38 37/37/37
f 40/40/40 39/39/39 37/37/37
