g rockBoulder01_COL
v 0.1474475 -0.5403223 1.246634
v -0.785686 -1.032266 0.6182753
v -0.5981494 -0.5267828 1.176808
v -0.8337781 0.05964045 1.125111
v 0.1474475 -0.5403223 1.246634
v -0.5981494 -0.5267828 1.176808
v -0.785686 -1.032266 0.6182753
v -0.05634888 -0.9677089 0.8596703
v 0.2303992 -1.170354 0.06471492
v 0.8823218 -0.8683383 0.2326101
v -0.02974243 0.7602238 1.053655
v -1.17974 -0.02932265 0.09232828
v -1.066121 0.3100984 0.4583977
v -0.5661963 1.004573 0.04760663
v 0.9318396 0.002076368 1.028462
v 1.17974 -0.437987 0.5761622
v 0.5648108 1.100819 0.450072
v 1.148301 0.5414267 0.05746423
v 1.057079 -0.5334588 -0.2927221
v 0.5296948 -0.9616029 -0.5909888
v 0.2996289 1.170354 -0.3124636
v -0.46453 -1.069784 -0.7128922
v -0.9794092 -0.7514319 -0.2158177
v -0.78677 0.167693 -0.699029
v -0.02380127 -1.066829 -0.8600342
v 0.657843 -0.3448525 -1.08142
v 0.09230224 -0.3213718 -1.246634
v -0.1668408 0.8479726 -0.9470008
v 0.6058813 0.6843355 -0.8905085
v 0.9893274 0.3805282 -0.6438006
vt 0 0
vt 0 0
vt 0 0
vt 0 0
vt 0 0
vt 0 0
vt 0 0
vt 0 0
vt 0 0
vt 0 0
vt 0 0
vt 0 0
vt 0 0
vt 0 0
vt 0 0
vt 0 0
vt 0 0
vt 0 0
vt 0 0
vt 0 0
vt 0 0
vt 0 0
vt 0 0
vt 0 0
vt 0 0
vt 0 0
vt 0 0
vt 0 0
vt 0 0
vt 0 0
vn -0.07716361 -0.7262022 0.683137
vn -0.07716361 -0.7262022 0.683137
vn -0.07716361 -0.7262022 0.6831369
vn -0.6322992 0.1929998 0.7502991
vn 0.1812036 -0.3672072 0.912318
vn -0.3883909 -0.3594915 0.84848
vn -0.5707144 -0.7467187 0.3416086
vn 0.08790372 -0.8182347 0.5681241
vn 0.1834923 -0.980359 0.07229697
vn 0.6071007 -0.7794008 0.1548002
vn -0.08179908 0.6305928 0.7717912
vn -0.9939309 0.0741023 -0.08130253
vn -0.8756279 0.4236135 0.2320074
vn -0.5685111 0.8225161 0.01620032
vn 0.6378157 0.09410231 0.7644187
vn 0.8716018 -0.3514007 0.3418007
vn 0.3829915 0.8642807 0.3260927
vn 0.9078948 0.4191976 0.0005999966
vn 0.88485 -0.3695209 -0.283716
vn 0.50731 -0.7751152 -0.3766074
vn 0.1884998 0.957799 -0.2169998
vn -0.4597128 -0.7211201 -0.5183145
vn -0.8592259 -0.430113 -0.2770084
vn -0.7622865 0.1864967 -0.6197889
vn 0.03969948 -0.7914896 -0.609892
vn 0.5665084 -0.2124031 -0.7962117
vn -0.09459818 -0.1172977 -0.988581
vn -0.2867016 0.6191034 -0.7311041
vn 0.4670141 0.5375162 -0.7021211
vn 0.8445701 0.2617907 -0.4670835
g rockBoulder01_COL_0
f 3/3/3 2/2/2 1/1/1
f 6/6/6 5/5/5 4/4/4
f 7/7/7 6/6/6 4/4/4
f 8/8/8 5/5/5 7/7/7
f 7/7/7 9/9/9 8/8/8
f 5/5/5 8/8/8 10/10/10
f 10/10/10 8/8/8 9/9/9
f 5/5/5 11/11/11 4/4/4
f 7/7/7 4/4/4 12/12/12
f 11/11/11 13/13/13 4/4/4
f 13/13/13 12/12/12 4/4/4
f 13/13/13 11/11/11 14/14/14
f 12/12/12 13/13/13 14/14/14
f 5/5/5 15/15/15 11/11/11
f 10/10/10 16/16/16 5/5/5
f 5/5/5 16/16/16 15/15/15
f 15/15/15 17/17/17 11/11/11
f 17/17/17 14/14/14 11/11/11
f 16/16/16 18/18/18 15/15/15
f 18/18/18 17/17/17 15/15/15
f 19/19/19 16/16/16 10/10/10
f 19/19/19 18/18/18 16/16/16
f 9/9/9 20/20/20 10/10/10
f 20/20/20 19/19/19 10/10/10
f 17/17/17 21/21/21 14/14/14
f 17/17/17 18/18/18 21/21/21
f 9/9/9 7/7/7 22/22/22
f 12/12/12 23/23/23 7/7/7
f 23/23/23 22/22/22 7/7/7
f 24/24/24 23/23/23 12/12/12
f 12/12/12 14/14/14 24/24/24
f 23/23/23 24/24/24 22/22/22
f 25/25/25 20/20/20 9/9/9
f 22/22/22 25/25/25 9/9/9
f 26/26/26 19/19/19 20/20/20
f 20/20/20 25/25/25 26/26/26
f 25/25/25 22/22/22 27/27/27
f 24/24/24 27/27/27 22/22/22
f 27/27/27 26/26/26 25/25/25
f 14/14/14 28/28/28 24/24/24
f 28/28/28 14/14/14 21/21/21
f 28/28/28 27/27/27 24/24/24
f 29/29/29 28/28/28 21/21/21
f 28/28/28 29/29/29 27/27/27
f 27/27/27 29/29/29 26/26/26
f 21/21/21 18/18/18 29/29/29
f 30/30/30 19/19/19 26/26/26
f 30/30/30 26/26/26 29/29/29
f 18/18/18 30/30/30 29/29/29
f 18/18/18 19/19/19 30/30/30
