g rock_square
v -0.3040977 0.2680971 -0.8054472
v -0.181428 -0.06463586 -0.7427003
v -0.2255187 0.2411141 -0.7936963
v -0.4970536 -0.1397619 -0.7572044
v -0.4563675 -0.3168479 -0.7255793
v -0.04618168 -0.4057929 -0.6836793
v -0.1485553 -0.5228909 -0.6603082
v -0.08034039 -0.7001697 -0.4726219
v -0.7682919 -0.3250279 -0.3091167
v -0.6170372 -0.2039749 -0.6425812
v -0.8089623 0.1030841 -0.3938993
v -0.5853801 0.3102791 -0.5795242
v -0.4836054 0.4728251 -0.6378742
v -0.3494654 0.5825511 -0.6080152
v -0.7252468 0.4710671 -0.3838091
v -0.6794376 0.532887 -0.3524811
v -0.3654642 -0.646871 -0.1260688
v -0.1083102 -0.7831749 -0.2291104
v -0.7949944 -0.1587299 -0.4559787
v -0.7815594 -0.21225 -0.07302746
v -0.7883854 0.439123 -0.1373532
v -0.1671 0.6518971 -0.4483511
v -0.08314753 0.6505239 -0.5260773
v -0.4291816 0.5949891 -0.1233961
v -0.2814078 0.5937689 -0.1734261
v -0.6975464 0.524204 -0.066843
v -0.7747921 0.3599659 0.3218136
v -0.5289316 0.5835048 0.1466537
v -0.7971325 0.05683902 -0.1271883
v -0.8008584 0.203975 0.1128387
v -0.4553971 0.541544 0.2711087
v -0.7662754 0.1120619 0.3251266
v -0.6943755 0.1632279 0.4448108
v -0.6197605 0.3451469 0.4282357
v -0.1806355 0.5603979 0.3762097
v 0.03463936 0.6011378 0.1861749
v -0.7225895 -0.119828 0.2625047
v -0.3835587 0.4569548 0.4333279
v -0.7235245 -0.29792 0.03209366
v -0.7136654 -0.305341 0.2803756
v -0.7141466 -0.460039 -0.03510942
v -0.6718626 -0.461429 0.2579885
v -0.5637665 -0.4104041 0.4654275
v -0.4555073 -0.529466 0.4506343
v -0.5777292 0.3198769 0.5402908
v -0.09407043 -0.6912801 0.4491041
v 0.02425337 -0.793957 0.05655985
v -0.5030308 -0.4289951 0.5037566
v -0.4346952 -0.1404591 0.7109727
v -0.2092252 -0.4090912 0.6223741
v -0.1343803 -0.2252401 0.7572686
v -0.5289984 0.1235439 0.6598098
v 0.007198811 -0.6447361 0.4993892
v -0.4066863 0.2979829 0.6384509
v -0.3958044 0.4332769 0.5736697
v -0.1584544 0.4958238 0.6281328
v 0.3877635 -0.704031 0.02096659
v -0.1083102 -0.7831749 -0.2291104
v -0.00197506 -0.3911321 0.6823726
v -0.05088043 0.5931199 0.5195649
v 0.1830363 0.6276119 0.3438919
v 0.03463936 0.6011378 0.1861749
v 0.1389008 -0.4444771 0.6553625
v 0.09990358 -0.2584151 0.8054472
v 0.1248674 -0.05096211 0.7341146
v 0.4253206 -0.1241311 0.6192266
v -0.02856159 0.5120889 0.6298938
v 0.1232743 0.6065868 0.478108
v 0.2100406 0.3457359 0.5680377
v 0.2629819 0.3572689 0.4549007
v 0.4190426 -0.5677711 0.3954521
v 0.2484417 -0.3097021 0.7425111
v 0.5028014 -0.3722841 0.5066177
v 0.5458035 -0.58821 0.1597546
v 0.5018854 -0.495291 0.3744725
v 0.5950875 -0.2335171 0.4359716
v 0.4440165 0.03729793 0.4355718
v 0.4423814 -0.6330619 -0.2622696
v 0.6483445 -0.218492 0.2636153
v 0.5767407 -0.05932805 0.3532156
v 0.6285276 -0.431932 -0.02395667
v 0.4623885 0.3795539 0.2996747
v 0.6303496 0.06047795 0.3138177
v 0.6938404 -0.169211 0.2358047
v 0.7756705 -0.262303 -0.01729141
v 0.4037957 -0.4978489 -0.4950358
v 0.4635663 -0.3851328 -0.5630713
v 0.3499055 -0.6172699 -0.4614028
v 0.8089623 -0.102701 -0.1690703
v 0.6818943 0.442808 -0.02671217
v 0.04318142 -0.6781399 -0.5669793
v -0.08034039 -0.7001697 -0.4726219
v -0.1485553 -0.5228909 -0.6603082
v -0.04618168 -0.4057929 -0.6836793
v 0.3317714 -0.4730828 -0.5740032
v 0.07186556 -0.2898879 -0.6707554
v -0.181428 -0.06463586 -0.7427003
v 0.1242766 -0.08604486 -0.7189862
v 0.2599649 0.2729971 -0.7518911
v -0.2255187 0.2411141 -0.7936963
v -0.1505113 0.3710991 -0.7439292
v -0.3040977 0.2680971 -0.8054472
v -0.3494654 0.5825511 -0.6080152
v 0.04204988 0.5495191 -0.5997852
v -0.08314753 0.6505239 -0.5260773
v 0.3014708 0.6376911 -0.4003059
v -0.1671 0.6518971 -0.4483511
v 0.4574804 0.560667 -0.4715352
v 0.2267513 0.6772369 -0.04202814
v -0.2814078 0.5937689 -0.1734261
v 0.03463936 0.6011378 0.1861749
v 0.4420795 0.6853129 -0.050703
v 0.3151984 0.669381 0.2299684
v 0.2425566 0.584796 0.3722188
v 0.6392717 0.422118 0.1034467
v 0.5986256 0.5912289 -0.1704421
v 0.5623446 0.44694 -0.4622021
v 0.5540137 0.277631 -0.4987133
v 0.7515945 -0.07383192 -0.3132272
vt 0.9640901 0.7185538
vt 0.963353 0.8269807
vt 0.9759355 0.7348929
vt 0.9146184 0.8074785
vt 0.8974131 0.8495846
vt 0.9145894 0.9245772
vt 0.8763039 0.9282624
vt 0.8162363 0.9712893
vt 0.8309689 0.8135501
vt 0.8878016 0.8104444
vt 0.8578337 0.7282562
vt 0.9006475 0.6892089
vt 0.90986 0.6477282
vt 0.9103316 0.6022633
vt 0.8569716 0.6534883
vt 0.8514707 0.6361973
vt 0.7623581 0.9114299
vt 0.7377352 0.9686006
vt 0.8561442 0.7842875
vt 0.8069364 0.7811669
vt 0.8201946 0.6545059
vt 0.8742536 0.5434501
vt 0.8901392 0.5278493
vt 0.7980796 0.5719101
vt 0.7965428 0.5419872
vt 0.8052812 0.6295348
vt 0.7607154 0.6649966
vt 0.7597389 0.6054416
vt 0.8202273 0.7306131
vt 0.7904267 0.6965612
vt 0.7314308 0.6041715
vt 0.7628094 0.7084372
vt 0.7455879 0.6960995
vt 0.7355942 0.6583531
vt 0.6676095 0.5831575
vt 0.6175773 0.5460082
vt 0.765178 0.7534063
vt 0.7050085 0.616807
vt 0.7892236 0.7951381
vt 0.7599993 0.7864814
vt 0.7884122 0.8285695
vt 0.7570363 0.8168112
vt 0.7298338 0.8035011
vt 0.7143461 0.8287752
vt 0.7232561 0.6659751
vt 0.6636018 0.874801
vt 0.6557136 0.941175
vt 0.7203828 0.8065874
vt 0.7035397 0.749648
vt 0.6823558 0.8073034
vt 0.6723006 0.7648116
vt 0.7136322 0.7017186
vt 0.6531451 0.862294
vt 0.6986781 0.6685376
vt 0.698773 0.6416814
vt 0.6663103 0.6328179
vt 0.5884131 0.8993045
vt 0.5729097 0.9896042
vt 0.6599139 0.8015079
vt 0.6492375 0.6060876
vt 0.6047599 0.5910364
vt 0.6175773 0.5460082
vt 0.6442094 0.8114291
vt 0.6485868 0.7700755
vt 0.6413238 0.7327138
vt 0.6079932 0.7510175
vt 0.6497364 0.6308074
vt 0.622502 0.6084491
vt 0.6198606 0.6602678
vt 0.6046827 0.6544225
vt 0.6040872 0.8381865
vt 0.6334003 0.780457
vt 0.5993118 0.7976384
vt 0.5772365 0.8592842
vt 0.5935596 0.8268391
vt 0.5835737 0.7767715
vt 0.5903928 0.7203065
vt 0.5284215 0.8907526
vt 0.565794 0.7834285
vt 0.5754195 0.7464123
vt 0.543345 0.8376969
vt 0.573668 0.6607772
vt 0.566309 0.7276888
vt 0.5602598 0.7742067
vt 0.5340946 0.7998264
vt 0.4780914 0.8773004
vt 0.461529 0.8532888
vt 0.4920589 0.9004912
vt 0.5111576 0.775497
vt 0.5222811 0.6737487
vt 0.4724754 0.9458267
vt 0.4942178 0.9738933
vt 0.4168683 0.9451607
vt 0.4000564 0.9004192
vt 0.4578155 0.8793782
vt 0.402978 0.8586738
vt 0.3376635 0.7947813
vt 0.3915855 0.8023583
vt 0.4019089 0.7153034
vt 0.3291684 0.7022144
vt 0.3517469 0.6698366
vt 0.316669 0.6870673
vt 0.3438049 0.5940073
vt 0.4047071 0.626107
vt 0.4075662 0.5848119
vt 0.4624999 0.6211016
vt 0.4218465 0.5548024
vt 0.4580747 0.6539964
vt 0.5390525 0.5768365
vt 0.484068 0.5004677
vt 0.6175773 0.5460082
vt 0.5271571 0.613469
vt 0.5756077 0.5983352
vt 0.5989879 0.6069176
vt 0.5397432 0.6705107
vt 0.5060365 0.6494054
vt 0.4621984 0.6808846
vt 0.4556433 0.7130613
vt 0.4927386 0.7749751
vn -0.3317457 0.1811555 -0.9258118
vn 0.07777137 -0.1557945 -0.9847231
vn 0.0928814 -0.0252236 -0.9953576
vn -0.4217926 0.009827155 -0.9066392
vn -0.4116076 -0.6440913 -0.6447679
vn 0.1493389 -0.2111817 -0.9659711
vn -0.1657548 -0.5703334 -0.8045155
vn -0.4477331 -0.8068144 -0.3854682
vn -0.6674414 -0.6812304 -0.3007442
vn -0.7214026 -0.2431304 -0.6484334
vn -0.9190314 0.09253137 -0.38317
vn -0.6744421 0.1642402 -0.7198284
vn -0.5191199 0.4435159 -0.7306218
vn -0.2038256 0.8283227 -0.5218588
vn -0.8363794 0.3128841 -0.4500811
vn -0.3722705 0.9191876 -0.1284872
vn -0.4996617 -0.8473729 -0.1797147
vn -0.182349 -0.978784 -0.09343768
vn -0.9219532 -0.1457963 -0.3588115
vn -0.9777241 -0.1827914 0.1031643
vn -0.952059 0.304756 -0.02659799
vn -0.1428303 0.989619 -0.01593618
vn 0.06861875 0.8855878 -0.4593753
vn -0.1822411 0.9832328 0.006440164
vn -0.1128697 0.9844114 0.1348871
vn -0.5057163 0.8586916 0.0830641
vn -0.7988427 0.4764836 0.36717
vn -0.2719218 0.9357525 0.2245571
vn -0.9996102 -0.0173386 0.02188025
vn -0.998179 -0.003950943 0.0601919
vn -0.1755007 0.9389004 0.2960838
vn -0.9459378 -0.141216 0.2919931
vn -0.800815 -0.05615126 0.5962738
vn -0.4765014 0.6538764 0.5877007
vn -0.1853793 0.9768673 0.1066052
vn -0.1757786 0.9796871 0.09651494
vn -0.9644252 -0.158725 0.2114014
vn -0.3680874 0.8453851 0.3870863
vn -0.9743516 -0.1832504 0.1306068
vn -0.9039601 -0.1661235 0.3940294
vn -0.668882 -0.7398652 -0.07208538
vn -0.5682552 -0.8039864 0.1751912
vn -0.7697532 -0.2645395 0.5809467
vn -0.4058639 -0.8664562 0.2907372
vn -0.6303032 0.4972275 0.5962237
vn -0.2983053 -0.8999354 0.3180098
vn 0.0650607 -0.9885338 0.1362645
vn -0.3688062 -0.5048702 0.7804409
vn -0.5439121 -0.1800836 0.8195912
vn -0.2466689 -0.5441789 0.8018877
vn -0.1337142 -0.04011292 0.9902079
vn -0.4437824 0.0931245 0.8912829
vn 0.1795452 -0.8259563 0.5343778
vn -0.1561521 0.2268772 0.9613237
vn -0.4140198 0.7544381 0.5093238
vn -0.1659233 0.3915252 0.9050843
vn 0.3363098 -0.9397937 0.06069212
vn -0.182349 -0.978784 -0.09343768
vn -0.1606667 -0.5774174 0.8004845
vn -0.2175052 0.9511113 0.2192684
vn 0.0592145 0.9733319 0.2216275
vn -0.1757786 0.9796871 0.09651494
vn 0.2308195 -0.6677316 0.7077124
vn 0.08315647 -0.03065619 0.9960648
vn 0.1839855 0.2393639 0.9533384
vn 0.6273091 0.2166225 0.7480361
vn 0.2147234 0.3613034 0.9073884
vn 0.516592 0.6515124 0.5555755
vn 0.551522 0.3421682 0.7607525
vn 0.6977004 0.3665602 0.6155061
vn 0.340588 -0.8170663 0.4651908
vn 0.4632389 -0.3454761 0.8161226
vn 0.6133507 -0.4095959 0.6753014
vn 0.7642773 -0.6289225 0.1426073
vn 0.7916745 -0.4694787 0.3909492
vn 0.8827587 -0.03827407 0.468265
vn 0.6923198 0.3655627 0.6221393
vn 0.5469252 -0.7988451 -0.2504382
vn 0.892987 -0.3127832 0.3236372
vn 0.7141362 0.1657038 0.6801115
vn 0.8308972 -0.5513408 -0.07505493
vn 0.6003941 0.3732937 0.7072332
vn 0.8068544 0.2087432 0.5526412
vn 0.9328632 0.07138386 0.3530872
vn 0.8875648 -0.4601171 -0.02282763
vn 0.7573409 -0.5331501 -0.3770751
vn 0.629847 -0.2516031 -0.7348393
vn 0.3679965 -0.8563455 -0.3622856
vn 0.998215 -0.005801841 -0.05944135
vn 0.9593186 0.2815464 -0.02096537
vn 0.1945281 -0.7850341 -0.5881159
vn -0.4477331 -0.8068144 -0.3854682
vn -0.1657548 -0.5703334 -0.8045155
vn 0.1493389 -0.2111817 -0.9659711
vn 0.2781959 -0.3487675 -0.8949682
vn 0.1748168 -0.194767 -0.965145
vn 0.07777137 -0.1557945 -0.9847231
vn 0.1730156 -0.1828331 -0.9678004
vn 0.3760145 0.1315584 -0.917227
vn 0.0928814 -0.0252236 -0.9953576
vn 0.06212588 0.4980032 -0.8649469
vn -0.3317457 0.1811555 -0.9258118
vn -0.2038256 0.8283227 -0.5218588
vn 0.1611316 0.6266891 -0.7624286
vn 0.06861875 0.8855878 -0.4593753
vn 0.1294159 0.9575098 -0.2577336
vn -0.1428303 0.989619 -0.01593618
vn 0.3898694 0.6948201 -0.6043401
vn -0.1031616 0.9942769 0.02776669
vn -0.1128697 0.9844114 0.1348871
vn -0.1757786 0.9796871 0.09651494
vn 0.3973092 0.9123212 0.09907252
vn 0.3467268 0.8566702 0.3819643
vn 0.4601379 0.4609003 0.7588439
vn 0.7397873 0.4652562 0.486057
vn 0.7218598 0.6827533 -0.1129879
vn 0.8277736 0.3257113 -0.4568402
vn 0.676857 0.02466963 -0.735701
vn 0.8011824 -0.03856795 -0.597176
g rock_square_0
f 3/3/3 2/2/2 1/1/1
f 4/4/4 1/1/1 2/2/2
f 4/4/4 2/2/2 5/5/5
f 2/2/2 6/6/6 5/5/5
f 7/7/7 5/5/5 6/6/6
f 7/7/7 8/8/8 5/5/5
f 8/8/8 9/9/9 5/5/5
f 5/5/5 10/10/10 4/4/4
f 9/9/9 10/10/10 5/5/5
f 4/4/4 10/10/10 11/11/11
f 1/1/1 4/4/4 12/12/12
f 4/4/4 11/11/11 12/12/12
f 12/12/12 13/13/13 1/1/1
f 1/1/1 13/13/13 14/14/14
f 15/15/15 13/13/13 12/12/12
f 11/11/11 15/15/15 12/12/12
f 16/16/16 14/14/14 13/13/13
f 16/16/16 13/13/13 15/15/15
f 17/17/17 9/9/9 8/8/8
f 8/8/8 18/18/18 17/17/17
f 19/19/19 11/11/11 10/10/10
f 9/9/9 19/19/19 10/10/10
f 19/19/19 20/20/20 11/11/11
f 20/20/20 19/19/19 9/9/9
f 15/15/15 11/11/11 21/21/21
f 21/21/21 16/16/16 15/15/15
f 22/22/22 14/14/14 16/16/16
f 23/23/23 14/14/14 22/22/22
f 16/16/16 24/24/24 22/22/22
f 24/24/24 25/25/25 22/22/22
f 16/16/16 26/26/26 24/24/24
f 26/26/26 16/16/16 21/21/21
f 27/27/27 26/26/26 21/21/21
f 24/24/24 26/26/26 28/28/28
f 28/28/28 25/25/25 24/24/24
f 27/27/27 28/28/28 26/26/26
f 21/21/21 11/11/11 29/29/29
f 11/11/11 20/20/20 29/29/29
f 29/29/29 30/30/30 21/21/21
f 30/30/30 27/27/27 21/21/21
f 20/20/20 30/30/30 29/29/29
f 28/28/28 31/31/31 25/25/25
f 31/31/31 28/28/28 27/27/27
f 30/30/30 32/32/32 27/27/27
f 32/32/32 30/30/30 20/20/20
f 32/32/32 33/33/33 27/27/27
f 33/33/33 34/34/34 27/27/27
f 34/34/34 31/31/31 27/27/27
f 31/31/31 35/35/35 25/25/25
f 36/36/36 25/25/25 35/35/35
f 37/37/37 32/32/32 20/20/20
f 33/33/33 32/32/32 37/37/37
f 34/34/34 38/38/38 31/31/31
f 35/35/35 31/31/31 38/38/38
f 37/37/37 20/20/20 39/39/39
f 9/9/9 39/39/39 20/20/20
f 37/37/37 39/39/39 40/40/40
f 37/37/37 40/40/40 33/33/33
f 9/9/9 41/41/41 39/39/39
f 39/39/39 41/41/41 40/40/40
f 41/41/41 9/9/9 17/17/17
f 17/17/17 42/42/42 41/41/41
f 40/40/40 41/41/41 42/42/42
f 18/18/18 42/42/42 17/17/17
f 40/40/40 42/42/42 43/43/43
f 40/40/40 43/43/43 33/33/33
f 42/42/42 18/18/18 44/44/44
f 43/43/43 42/42/42 44/44/44
f 45/45/45 34/34/34 33/33/33
f 34/34/34 45/45/45 38/38/38
f 44/44/44 18/18/18 46/46/46
f 18/18/18 47/47/47 46/46/46
f 44/44/44 48/48/48 43/43/43
f 43/43/43 49/49/49 33/33/33
f 49/49/49 43/43/43 48/48/48
f 48/48/48 44/44/44 50/50/50
f 50/50/50 44/44/44 46/46/46
f 48/48/48 50/50/50 49/49/49
f 50/50/50 51/51/51 49/49/49
f 49/49/49 52/52/52 33/33/33
f 52/52/52 45/45/45 33/33/33
f 51/51/51 52/52/52 49/49/49
f 46/46/46 47/47/47 53/53/53
f 53/53/53 50/50/50 46/46/46
f 45/45/45 52/52/52 54/54/54
f 54/54/54 52/52/52 51/51/51
f 55/55/55 45/45/45 54/54/54
f 45/45/45 55/55/55 38/38/38
f 54/54/54 56/56/56 55/55/55
f 55/55/55 56/56/56 38/38/38
f 51/51/51 56/56/56 54/54/54
f 53/53/53 47/47/47 57/57/57
f 58/58/58 57/57/57 47/47/47
f 59/59/59 50/50/50 53/53/53
f 51/51/51 50/50/50 59/59/59
f 60/60/60 38/38/38 56/56/56
f 38/38/38 60/60/60 35/35/35
f 61/61/61 35/35/35 60/60/60
f 35/35/35 61/61/61 62/62/62
f 53/53/53 63/63/63 59/59/59
f 59/59/59 64/64/64 51/51/51
f 64/64/64 59/59/59 63/63/63
f 51/51/51 65/65/65 56/56/56
f 65/65/65 51/51/51 64/64/64
f 64/64/64 66/66/66 65/65/65
f 56/56/56 67/67/67 60/60/60
f 67/67/67 56/56/56 65/65/65
f 68/68/68 60/60/60 67/67/67
f 61/61/61 60/60/60 68/68/68
f 69/69/69 67/67/67 65/65/65
f 68/68/68 67/67/67 69/69/69
f 65/65/65 66/66/66 69/69/69
f 70/70/70 68/68/68 69/69/69
f 68/68/68 70/70/70 61/61/61
f 69/69/69 66/66/66 70/70/70
f 71/71/71 63/63/63 53/53/53
f 53/53/53 57/57/57 71/71/71
f 64/64/64 63/63/63 72/72/72
f 64/64/64 72/72/72 66/66/66
f 63/63/63 73/73/73 72/72/72
f 73/73/73 63/63/63 71/71/71
f 66/66/66 72/72/72 73/73/73
f 57/57/57 74/74/74 71/71/71
f 73/73/73 71/71/71 75/75/75
f 71/71/71 74/74/74 75/75/75
f 73/73/73 75/75/75 76/76/76
f 76/76/76 66/66/66 73/73/73
f 75/75/75 74/74/74 76/76/76
f 70/70/70 66/66/66 77/77/77
f 66/66/66 76/76/76 77/77/77
f 78/78/78 74/74/74 57/57/57
f 57/57/57 58/58/58 78/78/78
f 74/74/74 79/79/79 76/76/76
f 80/80/80 77/77/77 76/76/76
f 76/76/76 79/79/79 80/80/80
f 78/78/78 81/81/81 74/74/74
f 81/81/81 79/79/79 74/74/74
f 70/70/70 77/77/77 82/82/82
f 83/83/83 77/77/77 80/80/80
f 83/83/83 82/82/82 77/77/77
f 80/80/80 79/79/79 84/84/84
f 83/83/83 80/80/80 84/84/84
f 85/85/85 79/79/79 81/81/81
f 84/84/84 79/79/79 85/85/85
f 81/81/81 78/78/78 86/86/86
f 86/86/86 85/85/85 81/81/81
f 86/86/86 87/87/87 85/85/85
f 88/88/88 78/78/78 58/58/58
f 78/78/78 88/88/88 86/86/86
f 85/85/85 89/89/89 84/84/84
f 85/85/85 87/87/87 89/89/89
f 90/90/90 83/83/83 84/84/84
f 84/84/84 89/89/89 90/90/90
f 91/91/91 88/88/88 58/58/58
f 58/58/58 92/92/92 91/91/91
f 92/92/92 93/93/93 91/91/91
f 91/91/91 93/93/93 94/94/94
f 95/95/95 86/86/86 88/88/88
f 91/91/91 95/95/95 88/88/88
f 95/95/95 91/91/91 94/94/94
f 86/86/86 95/95/95 87/87/87
f 96/96/96 95/95/95 94/94/94
f 96/96/96 94/94/94 97/97/97
f 98/98/98 95/95/95 96/96/96
f 97/97/97 98/98/98 96/96/96
f 87/87/87 95/95/95 98/98/98
f 99/99/99 87/87/87 98/98/98
f 97/97/97 100/100/100 98/98/98
f 98/98/98 100/100/100 99/99/99
f 100/100/100 101/101/101 99/99/99
f 102/102/102 101/101/101 100/100/100
f 101/101/101 102/102/102 103/103/103
f 104/104/104 101/101/101 103/103/103
f 101/101/101 104/104/104 99/99/99
f 105/105/105 104/104/104 103/103/103
f 106/106/106 104/104/104 105/105/105
f 106/106/106 105/105/105 107/107/107
f 104/104/104 108/108/108 99/99/99
f 104/104/104 106/106/106 108/108/108
f 107/107/107 109/109/109 106/106/106
f 109/109/109 107/107/107 110/110/110
f 111/111/111 109/109/109 110/110/110
f 109/109/109 112/112/112 106/106/106
f 112/112/112 108/108/108 106/106/106
f 111/111/111 113/113/113 109/109/109
f 109/109/109 113/113/113 112/112/112
f 113/113/113 111/111/111 61/61/61
f 61/61/61 114/114/114 113/113/113
f 70/70/70 114/114/114 61/61/61
f 70/70/70 82/82/82 114/114/114
f 114/114/114 82/82/82 113/113/113
f 82/82/82 115/115/115 113/113/113
f 115/115/115 112/112/112 113/113/113
f 83/83/83 115/115/115 82/82/82
f 115/115/115 83/83/83 90/90/90
f 112/112/112 115/115/115 116/116/116
f 112/112/112 116/116/116 108/108/108
f 115/115/115 90/90/90 116/116/116
f 117/117/117 108/108/108 116/116/116
f 117/117/117 116/116/116 90/90/90
f 117/117/117 99/99/99 108/108/108
f 89/89/89 117/117/117 90/90/90
f 118/118/118 99/99/99 117/117/117
f 87/87/87 99/99/99 118/118/118
f 87/87/87 119/119/119 89/89/89
f 89/89/89 119/119/119 117/117/117
f 117/117/117 119/119/119 118/118/118
f 119/119/119 87/87/87 118/118/118
