g rocks_sml
v 0.3986746 0.2122016 -0.8620845
v 0.8849574 0.28138 -0.673488
v 0.5782983 0.2683075 -0.7244702
v 0.5397871 0.2796828 -0.3866343
v 0.2353342 0.180761 -0.5401054
v 0.7221238 0.2874881 -0.3061844
v 0.4050524 0.2412392 -0.3836564
v 0.2414131 0.1066144 -0.7449152
v 0.1838024 0.1329656 -0.5610256
v 0.3772824 -0.04192036 -0.7091826
v 0.3612256 0.0007928848 -0.998095
v 0.273547 0.03029706 -0.4812902
v 0.5789909 0.1239377 -0.3063099
v 0.6839897 0.07664473 -0.3302989
v 0.8831548 0.1581174 -0.2893847
v 0.9254997 0.2317397 -0.3786346
v 0.7195035 -0.02084236 -0.5593895
v 1.037639 0.01293866 -0.70233
v 0.7947863 0.1875426 -0.9312576
v 1.035481 0.2045826 -0.6369278
v 1.066505 0.1337208 -0.7417763
v 0.988319 0.1121407 -0.9037558
v 0.7166961 0.01094638 -1.04208
v 0.9568313 0.02816336 -0.960273
v 0.4285777 -0.07650173 -0.9937506
v 0.7726893 -0.07272121 -0.9599886
v 0.9878442 -0.05299459 -0.8198662
v 2.325377 0.1024709 0.2378447
v 2.66345 0.1223554 0.1396397
v 2.488427 0.1170078 0.2521054
v 2.638127 0.01359545 0.4891107
v 2.400506 -0.04157139 0.5149936
v 2.766913 -1.792163E-05 0.4542655
v 2.568733 -0.02937338 0.5470878
v 2.291129 -0.04544306 0.3639314
v 2.358025 -0.08309073 0.515346
v 2.35153 -0.1989937 0.2864255
v 2.20791 -0.06061038 0.1196559
v 2.424893 -0.2078264 0.4989342
v 2.672787 -0.1650314 0.4850748
v 2.704359 -0.2001159 0.4079992
v 2.83305 -0.1276114 0.3569977
v 2.820747 -0.02405385 0.2967607
v 2.593636 -0.21783 0.2217617
v 2.681772 -0.126715 -0.01524923
v 2.478535 0.1139047 -0.003369007
v 2.742308 0.03941445 0.07235312
v 2.694739 0.006005168 -0.02614904
v 2.573883 0.03672317 -0.09688253
v 2.359213 -0.02472761 -0.07771051
v 2.517983 -0.02774288 -0.137399
v 2.2307 -0.1358382 0.07184123
v 2.413874 -0.132659 -0.07187864
v 2.589727 -0.1535639 -0.08167639
v 1.884556 0.08432692 -0.7130943
v 1.772746 0.1189655 -0.08935282
v 1.715596 0.1096501 -0.45908
v 1.142487 -0.07049346 -0.3959533
v 1.30161 -0.1665937 -0.8015906
v 1.095105 -0.09420785 -0.1602929
v 1.094841 -0.1453448 -0.5527146
v 1.679086 -0.1733381 -0.8645039
v 1.338038 -0.23892 -0.8708612
v 1.771039 -0.4408221 -0.7075174
v 2.207729 -0.1997595 -0.8141213
v 1.310299 -0.4562087 -0.7497783
v 1.119764 -0.38166 -0.3365891
v 1.23608 -0.442777 -0.2267561
v 1.218941 -0.3164747 0.0210218
v 1.342127 -0.1360783 0.04679577
v 1.680394 -0.4736349 -0.2651365
v 2.045886 -0.3149132 0.05806602
v 2.201131 0.1042446 -0.2810826
v 1.82951 -0.02551695 0.08985104
v 2.054913 -0.08371566 0.08740738
v 2.292458 -0.03020513 -0.05517067
v 2.444072 -0.1372519 -0.4184296
v 2.416891 -0.1425045 -0.1151936
v 2.27709 -0.3308058 -0.7407805
v 2.385468 -0.3252676 -0.3340716
v 2.250241 -0.3616838 -0.04098602
v -1.299437 0.236957 0.4159375
v -0.9034547 0.2781742 0.2683707
v -1.105333 0.2551978 0.4155471
v -0.9119235 0.1698392 0.6651428
v -1.191359 0.1150907 0.7172876
v -0.7603368 0.1702041 0.6107275
v -0.9900914 0.1304544 0.7366228
v -1.329234 0.1189176 0.5559554
v -1.240638 0.08306907 0.7200204
v -1.257181 0.0191909 0.4525547
v -1.440641 0.1239546 0.2845509
v -1.158484 -0.0008577156 0.6873796
v -0.8658516 0.04462404 0.6472278
v -0.8314153 0.02780427 0.5537646
v -0.683256 0.09097835 0.4854907
v -0.7040237 0.1692521 0.4234366
v -0.9723594 0.02462749 0.3515846
v -0.8827818 0.1144294 0.07581364
v -1.130539 0.2738594 0.1241102
v -0.8109417 0.2290081 0.1784708
v -0.8717383 0.2107822 0.06906822
v -1.019984 0.2319196 0.002739868
v -1.272321 0.1745249 0.04440685
v -1.086721 0.1862034 -0.04108349
v -1.413945 0.07554372 0.2233593
v -1.203974 0.1000469 0.03942915
v -0.9949194 0.09572337 0.008235588
v -2.501738 0.03690344 -0.003318996
v -2.04793 0.0625728 -0.1240733
v -2.278181 0.05566953 0.03035892
v -2.055889 -0.07782809 0.3952599
v -2.37814 -0.1490443 0.4157846
v -1.88282 -0.09540191 0.3530857
v -2.146163 -0.1332976 0.4764562
v -2.538873 -0.1540423 0.1821419
v -2.436076 -0.2026427 0.4130775
v -2.462358 -0.3522646 0.07113259
v -2.671009 -0.1736222 -0.1885443
v -2.346087 -0.3636671 0.3936866
v -2.008905 -0.3084219 0.3918774
v -1.971691 -0.3537134 0.2793163
v -1.799982 -0.2601155 0.2130366
v -1.821352 -0.1264305 0.1222528
v -2.136938 -0.376581 -0.006895123
v -2.034717 -0.2589583 -0.3537067
v -2.311118 0.05166367 -0.3514515
v -1.945453 -0.04449769 -0.2184353
v -2.017854 -0.08762656 -0.3689778
v -2.188137 -0.04797193 -0.483678
v -2.479583 -0.1273003 -0.4714167
v -2.267493 -0.1311928 -0.5483648
v -2.643551 -0.2707357 -0.258129
v -2.404557 -0.2666316 -0.4585587
v -2.165362 -0.2936182 -0.4597914
v -0.2723092 0.1514933 0.2939912
v 0.2289156 0.1913412 0.8233185
v -0.1524461 0.1806249 0.6238426
v -0.4852261 -0.02660995 1.197605
v -0.7521998 -0.1371623 0.7733571
v -0.2993618 -0.05389066 1.402351
v -0.6629048 -0.112718 1.13471
v -0.552771 -0.144921 0.3808868
v -0.7914737 -0.2203657 0.6923397
v -0.3446379 -0.4526311 0.4029095
v -0.1452412 -0.1753158 -0.07421616
v -0.698293 -0.4703316 0.8006814
v -0.4457699 -0.3845718 1.25917
v -0.2646669 -0.4548801 1.226445
v -0.04693723 -0.3095835 1.41146
v 0.06102074 -0.1020578 1.314991
v 0.003104975 -0.4903786 0.7888333
v 0.5518765 -0.3077871 0.6710405
v 0.3438206 0.1744064 0.2957719
v 0.4335989 0.02513043 0.8930915
v 0.5852078 -0.0418206 0.6827113
v 0.6153474 0.0197372 0.3654267
v 0.382488 -0.103408 -0.02293884
v 0.6447132 -0.1094505 0.2092338
v -0.02998228 -0.3260698 -0.08837463
v 0.4205926 -0.3196988 0.08891319
v 0.5996622 -0.3615914 0.4142006
vt 0 0
vt 0 0
vt 0 0
vt 0 0
vt 0 0
vt 0 0
vt 0 0
vt 0 0
vt 0 0
vt 0 0
vt 0 0
vt 0 0
vt 0 0
vt 0 0
vt 0 0
vt 0 0
vt 0 0
vt 0 0
vt 0 0
vt 0 0
vt 0 0
vt 0 0
vt 0 0
vt 0 0
vt 0 0
vt 0 0
vt 0 0
vt 0 0
vt 0 0
vt 0 0
vt 0 0
vt 0 0
vt 0 0
vt 0 0
vt 0 0
vt 0 0
vt 0 0
vt 0 0
vt 0 0
vt 0 0
vt 0 0
vt 0 0
vt 0 0
vt 0 0
vt 0 0
vt 0 0
vt 0 0
vt 0 0
vt 0 0
vt 0 0
vt 0 0
vt 0 0
vt 0 0
vt 0 0
vt 0 0
vt 0 0
vt 0 0
vt 0 0
vt 0 0
vt 0 0
vt 0 0
vt 0 0
vt 0 0
vt 0 0
vt 0 0
vt 0 0
vt 0 0
vt 0 0
vt 0 0
vt 0 0
vt 0 0
vt 0 0
vt 0 0
vt 0 0
vt 0 0
vt 0 0
vt 0 0
vt 0 0
vt 0 0
vt 0 0
vt 0 0
vt 0 0
vt 0 0
vt 0 0
vt 0 0
vt 0 0
vt 0 0
vt 0 0
vt 0 0
vt 0 0
vt 0 0
vt 0 0
vt 0 0
vt 0 0
vt 0 0
vt 0 0
vt 0 0
vt 0 0
vt 0 0
vt 0 0
vt 0 0
vt 0 0
vt 0 0
vt 0 0
vt 0 0
vt 0 0
vt 0 0
vt 0 0
vt 0 0
vt 0 0
vt 0 0
vt 0 0
vt 0 0
vt 0 0
vt 0 0
vt 0 0
vt 0 0
vt 0 0
vt 0 0
vt 0 0
vt 0 0
vt 0 0
vt 0 0
vt 0 0
vt 0 0
vt 0 0
vt 0 0
vt 0 0
vt 0 0
vt 0 0
vt 0 0
vt 0 0
vt 0 0
vt 0 0
vt 0 0
vt 0 0
vt 0 0
vt 0 0
vt 0 0
vt 0 0
vt 0 0
vt 0 0
vt 0 0
vt 0 0
vt 0 0
vt 0 0
vt 0 0
vt 0 0
vt 0 0
vt 0 0
vt 0 0
vt 0 0
vt 0 0
vt 0 0
vt 0 0
vt 0 0
vt 0 0
vt 0 0
vt 0 0
vt 0 0
vt 0 0
vt 0 0
vn -0.2938641 0.8027135 -0.5189363
vn 0.172516 0.9711255 -0.1647837
vn -0.1314455 0.9835048 -0.1242595
vn -0.1596838 0.9871674 0.001247778
vn -0.4061608 0.9129871 -0.03857446
vn 0.01923467 0.8594166 0.5109141
vn -0.5115132 0.3145382 0.7996374
vn -0.947598 -0.01093729 -0.3192779
vn -0.9391558 -0.271625 0.210253
vn -0.204547 -0.9677716 0.146896
vn -0.5388193 0.1928999 -0.8200387
vn -0.3802978 -0.7864297 0.4867257
vn -0.2595109 -0.2009582 0.9446004
vn 0.04560071 -0.8648265 0.4999956
vn 0.4639524 -0.544148 0.699036
vn 0.7132753 0.6099311 0.345286
vn 0.07421188 -0.9515913 0.2982727
vn 0.6050907 -0.7300363 0.317667
vn 0.08433348 0.7910249 -0.6059436
vn 0.875863 0.4362448 0.206288
vn 0.8848081 0.3775415 -0.2730879
vn 0.5167099 0.6222187 -0.5880942
vn 0.02892418 0.1605066 -0.9866109
vn 0.5799419 -0.2631555 -0.7709841
vn -0.1674623 -0.9600617 -0.2241383
vn 0.07509878 -0.9914216 -0.1069737
vn 0.3151225 -0.9480787 0.0429491
vn -0.5196261 0.8499591 0.08693714
vn 0.2845492 0.9585286 0.01595893
vn -0.01621088 0.9471869 0.3202723
vn 0.0419724 0.8988951 0.436149
vn -0.2691091 0.7868223 0.5554196
vn 0.5734726 0.5846341 0.5738747
vn 0.1208439 0.04191304 0.9917863
vn -0.916494 0.05314998 0.396502
vn -0.673838 -0.2457816 0.6968026
vn -0.355591 -0.9345845 0.01033375
vn -0.9404288 0.3251372 -0.09939489
vn -0.217516 -0.8746054 0.4333037
vn 0.3561846 -0.4423227 0.8230937
vn 0.2459192 -0.9651372 0.08963217
vn 0.8210187 -0.5708013 0.01068812
vn 0.9257507 0.3564319 -0.1262614
vn 0.1206088 -0.9856707 -0.1179264
vn 0.6645755 -0.6185722 -0.4191752
vn -0.2159642 0.9196936 -0.3279072
vn 0.8994032 0.2757433 -0.3391747
vn 0.6717459 0.341392 -0.6574261
vn 0.2124137 0.6963027 -0.6855968
vn -0.6206651 0.411651 -0.6673217
vn 0.03111775 0.02340508 -0.9992417
vn -0.5438793 -0.7907061 -0.2810323
vn -0.2384132 -0.8554726 -0.4597018
vn 0.1317343 -0.8581412 -0.4962255
vn 0.1171251 0.8562967 -0.5030286
vn -0.1171405 0.9632418 0.2417503
vn -0.2458753 0.9579139 -0.1481429
vn -0.3582457 0.9224028 -0.144337
vn -0.3415245 0.8161141 -0.4661745
vn -0.7209704 0.6292762 0.290195
vn -0.9364188 0.03769005 -0.3488542
vn 0.02265226 0.05196654 -0.9983918
vn -0.3017403 -0.2497784 -0.9200888
vn 0.1206054 -0.9374131 -0.3266667
vn 0.4458461 0.3610219 -0.8190754
vn -0.2582739 -0.891808 -0.3714474
vn -0.8687599 -0.4944218 -0.02834036
vn -0.1571089 -0.9710484 0.1799495
vn -0.326493 -0.5815329 0.7451321
vn -0.2416684 0.3775573 0.8938942
vn 0.04371287 -0.9855584 0.1635963
vn 0.08707979 -0.6347492 0.7677959
vn 0.3482568 0.9355455 -0.05892142
vn -0.06205742 0.2649183 0.9622719
vn 0.2734049 0.3689385 0.8883322
vn 0.4831136 0.724682 0.4913627
vn 0.8373058 0.4554518 -0.3024611
vn 0.8735235 0.02737087 0.4860118
vn 0.4314945 -0.8246726 -0.3656876
vn 0.4654243 -0.8848397 -0.02094715
vn 0.3458185 -0.8816063 0.3212164
vn -0.3968819 0.9049419 0.1535082
vn 0.1458408 0.9865813 0.07340095
vn -0.0315343 0.95964 0.2794574
vn 0.01961275 0.9331285 0.3590078
vn -0.1734343 0.8635081 0.4735761
vn 0.4764569 0.7079011 0.5214065
vn 0.1865363 -0.05629181 0.9808341
vn -0.8864109 -0.004075692 0.4628812
vn -0.6162213 -0.4494567 0.6467301
vn -0.1883077 -0.9806982 -0.0526429
vn -0.8768306 0.4803929 -0.01976574
vn -0.08232363 -0.9629202 0.256919
vn 0.4027392 -0.6308289 0.6632164
vn 0.2000175 -0.979592 -0.01980679
vn 0.6846626 -0.7236175 -0.0872633
vn 0.8047833 0.5798529 -0.1268641
vn 0.105095 -0.9827856 -0.1519455
vn 0.500702 -0.757989 -0.4180313
vn -0.193761 0.9708834 -0.1408625
vn 0.8311607 0.4255567 -0.3578736
vn 0.5220954 0.6066288 -0.5995146
vn 0.09921699 0.8800182 -0.464461
vn -0.6226394 0.5728678 -0.5330504
vn -0.1177166 0.0901455 -0.9889472
vn -0.3739902 -0.8867086 -0.2718075
vn -0.1466002 -0.9166226 -0.3719026
vn 0.1103428 -0.8973401 -0.4273234
vn -0.5052797 0.8562967 0.106997
vn 0.2686101 0.9632418 0.00370007
vn -0.03003569 0.9579139 0.2854801
vn 0.02101418 0.9224026 0.3856575
vn -0.2776023 0.8161141 0.5068478
vn 0.5682887 0.6292757 0.5301509
vn 0.08068057 0.03769033 0.9960271
vn -0.9139787 0.05196636 0.4024206
vn -0.7056293 -0.2497776 0.6630975
vn -0.3469984 -0.9374131 0.02913363
vn -0.9308209 0.361021 -0.05688764
vn -0.2270614 -0.8918081 0.3913075
vn 0.342353 -0.4944217 0.7989628
vn 0.22956 -0.9710484 0.06608515
vn 0.8132794 -0.5815328 -0.01990326
vn 0.9121006 0.3775571 -0.1597594
vn 0.1296742 -0.9855585 -0.1088996
vn 0.6586107 -0.6347497 -0.4041345
vn -0.2009023 0.9355455 -0.2905045
vn 0.8979529 0.2649174 -0.3514245
vn 0.6888665 0.368938 -0.6239772
vn 0.2404387 0.7246822 -0.6457748
vn -0.6286816 0.4554517 -0.6303358
vn 0.07020586 0.02737089 -0.997157
vn -0.5140449 -0.8246724 -0.2359521
vn -0.2161383 -0.8848397 -0.4127261
vn 0.1444746 -0.8816062 -0.4493301
vn -0.3353855 0.8562967 -0.3927754
vn 0.1250729 0.9632418 0.2377433
vn -0.2651449 0.9579139 0.1099962
vn -0.328763 0.9224028 0.2027017
vn -0.5778883 0.8161141 -0.001738254
vn -0.1942514 0.6292762 0.7525144
vn -0.8364722 0.03769053 0.5467117
vn -0.7901652 0.05196698 -0.6106868
vn -0.9196361 -0.2497788 -0.303117
vn -0.1913663 -0.937413 -0.2909222
vn -0.3947063 0.3610217 -0.8449084
vn -0.4522405 -0.891808 -0.01253492
vn -0.5383406 -0.4944218 0.6824489
vn 0.05161183 -0.9710484 0.2332406
vn 0.4060143 -0.5815331 0.7049622
vn 0.5760889 0.3775572 0.7249635
vn 0.1576184 -0.9855585 0.06189477
vn 0.669674 -0.6347493 0.3855258
vn 0.1592326 0.9355455 -0.315277
vn 0.7377087 0.2649183 0.6209704
vn 0.8772609 0.3689383 0.3070796
vn 0.682182 0.7246823 -0.09728015
vn 0.2534128 0.4554515 -0.8534319
vn 0.9095479 0.02737128 -0.414697
vn -0.03829017 -0.8246725 -0.5643129
vn 0.2593263 -0.8848398 -0.3870509
vn 0.4637595 -0.8816061 -0.08773736
g rocks_sml_0
f 3/3/3 2/2/2 1/1/1
f 2/2/2 3/3/3 4/4/4
f 3/3/3 1/1/1 5/5/5
f 5/5/5 4/4/4 3/3/3
f 2/2/2 4/4/4 6/6/6
f 7/7/7 4/4/4 5/5/5
f 7/7/7 6/6/6 4/4/4
f 1/1/1 8/8/8 5/5/5
f 5/5/5 9/9/9 7/7/7
f 9/9/9 5/5/5 8/8/8
f 9/9/9 8/8/8 10/10/10
f 8/8/8 1/1/1 11/11/11
f 11/11/11 10/10/10 8/8/8
f 9/9/9 12/12/12 7/7/7
f 12/12/12 9/9/9 10/10/10
f 13/13/13 7/7/7 12/12/12
f 13/13/13 6/6/6 7/7/7
f 13/13/13 12/12/12 14/14/14
f 14/14/14 12/12/12 10/10/10
f 13/13/13 15/15/15 6/6/6
f 15/15/15 13/13/13 14/14/14
f 16/16/16 2/2/2 6/6/6
f 6/6/6 15/15/15 16/16/16
f 17/17/17 15/15/15 14/14/14
f 14/14/14 10/10/10 17/17/17
f 15/15/15 18/18/18 16/16/16
f 18/18/18 15/15/15 17/17/17
f 2/2/2 19/19/19 1/1/1
f 1/1/1 19/19/19 11/11/11
f 18/18/18 20/20/20 16/16/16
f 20/20/20 2/2/2 16/16/16
f 20/20/20 21/21/21 2/2/2
f 21/21/21 20/20/20 18/18/18
f 2/2/2 22/22/22 19/19/19
f 21/21/21 22/22/22 2/2/2
f 11/11/11 19/19/19 23/23/23
f 22/22/22 23/23/23 19/19/19
f 24/24/24 22/22/22 21/21/21
f 18/18/18 24/24/24 21/21/21
f 22/22/22 24/24/24 23/23/23
f 25/25/25 10/10/10 11/11/11
f 25/25/25 11/11/11 23/23/23
f 26/26/26 10/10/10 25/25/25
f 23/23/23 26/26/26 25/25/25
f 26/26/26 17/17/17 10/10/10
f 26/26/26 23/23/23 24/24/24
f 27/27/27 18/18/18 17/17/17
f 27/27/27 24/24/24 18/18/18
f 27/27/27 17/17/17 26/26/26
f 27/27/27 26/26/26 24/24/24
f 30/30/30 29/29/29 28/28/28
f 29/29/29 30/30/30 31/31/31
f 30/30/30 28/28/28 32/32/32
f 32/32/32 31/31/31 30/30/30
f 29/29/29 31/31/31 33/33/33
f 34/34/34 31/31/31 32/32/32
f 34/34/34 33/33/33 31/31/31
f 28/28/28 35/35/35 32/32/32
f 32/32/32 36/36/36 34/34/34
f 36/36/36 32/32/32 35/35/35
f 36/36/36 35/35/35 37/37/37
f 35/35/35 28/28/28 38/38/38
f 38/38/38 37/37/37 35/35/35
f 36/36/36 39/39/39 34/34/34
f 39/39/39 36/36/36 37/37/37
f 40/40/40 34/34/34 39/39/39
f 40/40/40 33/33/33 34/34/34
f 40/40/40 39/39/39 41/41/41
f 41/41/41 39/39/39 37/37/37
f 40/40/40 42/42/42 33/33/33
f 42/42/42 40/40/40 41/41/41
f 43/43/43 29/29/29 33/33/33
f 33/33/33 42/42/42 43/43/43
f 44/44/44 42/42/42 41/41/41
f 41/41/41 37/37/37 44/44/44
f 42/42/42 45/45/45 43/43/43
f 45/45/45 42/42/42 44/44/44
f 29/29/29 46/46/46 28/28/28
f 28/28/28 46/46/46 38/38/38
f 45/45/45 47/47/47 43/43/43
f 47/47/47 29/29/29 43/43/43
f 47/47/47 48/48/48 29/29/29
f 48/48/48 47/47/47 45/45/45
f 29/29/29 49/49/49 46/46/46
f 48/48/48 49/49/49 29/29/29
f 38/38/38 46/46/46 50/50/50
f 49/49/49 50/50/50 46/46/46
f 51/51/51 49/49/49 48/48/48
f 45/45/45 51/51/51 48/48/48
f 49/49/49 51/51/51 50/50/50
f 52/52/52 37/37/37 38/38/38
f 52/52/52 38/38/38 50/50/50
f 53/53/53 37/37/37 52/52/52
f 50/50/50 53/53/53 52/52/52
f 53/53/53 44/44/44 37/37/37
f 53/53/53 50/50/50 51/51/51
f 54/54/54 45/45/45 44/44/44
f 54/54/54 51/51/51 45/45/45
f 54/54/54 44/44/44 53/53/53
f 54/54/54 53/53/53 51/51/51
f 57/57/57 56/56/56 55/55/55
f 56/56/56 57/57/57 58/58/58
f 57/57/57 55/55/55 59/59/59
f 59/59/59 58/58/58 57/57/57
f 56/56/56 58/58/58 60/60/60
f 61/61/61 58/58/58 59/59/59
f 61/61/61 60/60/60 58/58/58
f 55/55/55 62/62/62 59/59/59
f 59/59/59 63/63/63 61/61/61
f 63/63/63 59/59/59 62/62/62
f 63/63/63 62/62/62 64/64/64
f 62/62/62 55/55/55 65/65/65
f 65/65/65 64/64/64 62/62/62
f 63/63/63 66/66/66 61/61/61
f 66/66/66 63/63/63 64/64/64
f 67/67/67 61/61/61 66/66/66
f 67/67/67 60/60/60 61/61/61
f 67/67/67 66/66/66 68/68/68
f 68/68/68 66/66/66 64/64/64
f 67/67/67 69/69/69 60/60/60
f 69/69/69 67/67/67 68/68/68
f 70/70/70 56/56/56 60/60/60
f 60/60/60 69/69/69 70/70/70
f 71/71/71 69/69/69 68/68/68
f 68/68/68 64/64/64 71/71/71
f 69/69/69 72/72/72 70/70/70
f 72/72/72 69/69/69 71/71/71
f 56/56/56 73/73/73 55/55/55
f 55/55/55 73/73/73 65/65/65
f 72/72/72 74/74/74 70/70/70
f 74/74/74 56/56/56 70/70/70
f 74/74/74 75/75/75 56/56/56
f 75/75/75 74/74/74 72/72/72
f 56/56/56 76/76/76 73/73/73
f 75/75/75 76/76/76 56/56/56
f 65/65/65 73/73/73 77/77/77
f 76/76/76 77/77/77 73/73/73
f 78/78/78 76/76/76 75/75/75
f 72/72/72 78/78/78 75/75/75
f 76/76/76 78/78/78 77/77/77
f 79/79/79 64/64/64 65/65/65
f 79/79/79 65/65/65 77/77/77
f 80/80/80 64/64/64 79/79/79
f 77/77/77 80/80/80 79/79/79
f 80/80/80 71/71/71 64/64/64
f 80/80/80 77/77/77 78/78/78
f 81/81/81 72/72/72 71/71/71
f 81/81/81 78/78/78 72/72/72
f 81/81/81 71/71/71 80/80/80
f 81/81/81 80/80/80 78/78/78
f 84/84/84 83/83/83 82/82/82
f 83/83/83 84/84/84 85/85/85
f 84/84/84 82/82/82 86/86/86
f 86/86/86 85/85/85 84/84/84
f 83/83/83 85/85/85 87/87/87
f 88/88/88 85/85/85 86/86/86
f 88/88/88 87/87/87 85/85/85
f 82/82/82 89/89/89 86/86/86
f 86/86/86 90/90/90 88/88/88
f 90/90/90 86/86/86 89/89/89
f 90/90/90 89/89/89 91/91/91
f 89/89/89 82/82/82 92/92/92
f 92/92/92 91/91/91 89/89/89
f 90/90/90 93/93/93 88/88/88
f 93/93/93 90/90/90 91/91/91
f 94/94/94 88/88/88 93/93/93
f 94/94/94 87/87/87 88/88/88
f 94/94/94 93/93/93 95/95/95
f 95/95/95 93/93/93 91/91/91
f 94/94/94 96/96/96 87/87/87
f 96/96/96 94/94/94 95/95/95
f 97/97/97 83/83/83 87/87/87
f 87/87/87 96/96/96 97/97/97
f 98/98/98 96/96/96 95/95/95
f 95/95/95 91/91/91 98/98/98
f 96/96/96 99/99/99 97/97/97
f 99/99/99 96/96/96 98/98/98
f 83/83/83 100/100/100 82/82/82
f 82/82/82 100/100/100 92/92/92
f 99/99/99 101/101/101 97/97/97
f 101/101/101 83/83/83 97/97/97
f 101/101/101 102/102/102 83/83/83
f 102/102/102 101/101/101 99/99/99
f 83/83/83 103/103/103 100/100/100
f 102/102/102 103/103/103 83/83/83
f 92/92/92 100/100/100 104/104/104
f 103/103/103 104/104/104 100/100/100
f 105/105/105 103/103/103 102/102/102
f 99/99/99 105/105/105 102/102/102
f 103/103/103 105/105/105 104/104/104
f 106/106/106 91/91/91 92/92/92
f 106/106/106 92/92/92 104/104/104
f 107/107/107 91/91/91 106/106/106
f 104/104/104 107/107/107 106/106/106
f 107/107/107 98/98/98 91/91/91
f 107/107/107 104/104/104 105/105/105
f 108/108/108 99/99/99 98/98/98
f 108/108/108 105/105/105 99/99/99
f 108/108/108 98/98/98 107/107/107
f 108/108/108 107/107/107 105/105/105
f 111/111/111 110/110/110 109/109/109
f 110/110/110 111/111/111 112/112/112
f 111/111/111 109/109/109 113/113/113
f 113/113/113 112/112/112 111/111/111
f 110/110/110 112/112/112 114/114/114
f 115/115/115 112/112/112 113/113/113
f 115/115/115 114/114/114 112/112/112
f 109/109/109 116/116/116 113/113/113
f 113/113/113 117/117/117 115/115/115
f 117/117/117 113/113/113 116/116/116
f 117/117/117 116/116/116 118/118/118
f 116/116/116 109/109/109 119/119/119
f 119/119/119 118/118/118 116/116/116
f 117/117/117 120/120/120 115/115/115
f 120/120/120 117/117/117 118/118/118
f 121/121/121 115/115/115 120/120/120
f 121/121/121 114/114/114 115/115/115
f 121/121/121 120/120/120 122/122/122
f 122/122/122 120/120/120 118/118/118
f 121/121/121 123/123/123 114/114/114
f 123/123/123 121/121/121 122/122/122
f 124/124/124 110/110/110 114/114/114
f 114/114/114 123/123/123 124/124/124
f 125/125/125 123/123/123 122/122/122
f 122/122/122 118/118/118 125/125/125
f 123/123/123 126/126/126 124/124/124
f 126/126/126 123/123/123 125/125/125
f 110/110/110 127/127/127 109/109/109
f 109/109/109 127/127/127 119/119/119
f 126/126/126 128/128/128 124/124/124
f 128/128/128 110/110/110 124/124/124
f 128/128/128 129/129/129 110/110/110
f 129/129/129 128/128/128 126/126/126
f 110/110/110 130/130/130 127/127/127
f 129/129/129 130/130/130 110/110/110
f 119/119/119 127/127/127 131/131/131
f 130/130/130 131/131/131 127/127/127
f 132/132/132 130/130/130 129/129/129
f 126/126/126 132/132/132 129/129/129
f 130/130/130 132/132/132 131/131/131
f 133/133/133 118/118/118 119/119/119
f 133/133/133 119/119/119 131/131/131
f 134/134/134 118/118/118 133/133/133
f 131/131/131 134/134/134 133/133/133
f 134/134/134 125/125/125 118/118/118
f 134/134/134 131/131/131 132/132/132
f 135/135/135 126/126/126 125/125/125
f 135/135/135 132/132/132 126/126/126
f 135/135/135 125/125/125 134/134/134
f 135/135/135 134/134/134 132/132/132
f 138/138/138 137/137/137 136/136/136
f 137/137/137 138/138/138 139/139/139
f 138/138/138 136/136/136 140/140/140
f 140/140/140 139/139/139 138/138/138
f 137/137/137 139/139/139 141/141/141
f 142/142/142 139/139/139 140/140/140
f 142/142/142 141/141/141 139/139/139
f 136/136/136 143/143/143 140/140/140
f 140/140/140 144/144/144 142/142/142
f 144/144/144 140/140/140 143/143/143
f 144/144/144 143/143/143 145/145/145
f 143/143/143 136/136/136 146/146/146
f 146/146/146 145/145/145 143/143/143
f 144/144/144 147/147/147 142/142/142
f 147/147/147 144/144/144 145/145/145
f 148/148/148 142/142/142 147/147/147
f 148/148/148 141/141/141 142/142/142
f 148/148/148 147/147/147 149/149/149
f 149/149/149 147/147/147 145/145/145
f 148/148/148 150/150/150 141/141/141
f 150/150/150 148/148/148 149/149/149
f 151/151/151 137/137/137 141/141/141
f 141/141/141 150/150/150 151/151/151
f 152/152/152 150/150/150 149/149/149
f 149/149/149 145/145/145 152/152/152
f 150/150/150 153/153/153 151/151/151
f 153/153/153 150/150/150 152/152/152
f 137/137/137 154/154/154 136/136/136
f 136/136/136 154/154/154 146/146/146
f 153/153/153 155/155/155 151/151/151
f 155/155/155 137/137/137 151/151/151
f 155/155/155 156/156/156 137/137/137
f 156/156/156 155/155/155 153/153/153
f 137/137/137 157/157/157 154/154/154
f 156/156/156 157/157/157 137/137/137
f 146/146/146 154/154/154 158/158/158
f 157/157/157 158/158/158 154/154/154
f 159/159/159 157/157/157 156/156/156
f 153/153/153 159/159/159 156/156/156
f 157/157/157 159/159/159 158/158/158
f 160/160/160 145/145/145 146/146/146
f 160/160/160 146/146/146 158/158/158
f 161/161/161 145/145/145 160/160/160
f 158/158/158 161/161/161 160/160/160
f 161/161/161 152/152/152 145/145/145
f 161/161/161 158/158/158 159/159/159
f 162/162/162 153/153/153 152/152/152
f 162/162/162 159/159/159 153/153/153
f 162/162/162 152/152/152 161/161/161
f 162/162/162 161/161/161 159/159/159
