g valley_rockLip01_COL
v -3.373345 0.5624214 4.017025
v -5.093695 0.5206369 0.5816727
v -3.833538 1.45546 1.610703
v 1.129047 2.815865 2.18132
v -3.225217 1.825446 -0.4464798
v -4.403749 0.4332903 -1.66701
v 0.4741716 2.727555 -1.748383
v -4.66571 -0.4188877 2.949266
v -5.221271 -0.7710314 -0.3792209
v 3.716407 2.626956 -0.8554276
v 0.3859177 1.8604 3.956379
v 3.971693 2.635412 0.7418823
v 1.308505 0.8808882 -4.289612
v 1.841205 2.309879 -2.726318
v 3.823812 1.002002 -3.457695
v 2.850424 -0.6542971 -4.288709
v -0.495858 0.6433588 -4.325311
v -0.7113796 -0.4732867 -4.460379
v -4.491663 -0.6357266 -2.083
v -0.8153459 -1.053499 -3.646247
v -3.596877 -2.564467 -0.9334573
v -3.664451 -2.72994 0.2693578
v -1.780426 -3.025947 -1.855176
v 2.110506 -2.264128 -3.13821
v 5.011369 1.173021 -1.85891
v 5.410003 -0.3945144 -2.434652
v 5.60794 0.9939896 0.317421
v 4.523377 -2.279518 -2.224058
v 0.9323699 -3.454456 -2.093112
v 4.797357 0.9831333 2.661835
v 5.992425 -0.6616492 1.117218
v 1.051948 -4.024661 -0.2730898
v 5.646497 -2.265548 -0.409139
v 3.465947 -3.376608 -1.57791
v 2.260937 -3.380244 2.05636
v 0.4242125 -3.551214 2.04248
v -2.518832 -1.724591 3.281769
v 0.57671 -1.138291 4.1213
v -1.673135 -0.6116213 4.906097
v 3.900283 -1.150723 2.942123
v -0.9634406 0.009246106 5.229121
v 1.745645 -0.4776549 4.834507
v 4.471669 -0.4809389 3.258072
v 1.863543 0.8822669 4.484451
vn -0.4497914 0.6602864 0.601423
vn -0.8794464 0.4734023 0.04963981
vn -0.4124745 0.8759733 0.2500711
vn -0.06900666 0.9734465 0.2182657
vn -0.3622291 0.9185942 -0.1580341
vn -0.5453197 0.621408 -0.562564
vn -0.2227919 0.9233723 -0.3126459
vn -0.816539 -0.2889585 0.4997669
vn -0.9334431 -0.3560477 -0.04374925
vn 0.2915226 0.9399835 -0.1773288
vn -0.03155075 0.8118049 0.5830758
vn 0.3986772 0.8733802 0.2797563
vn -0.1305661 0.6142931 -0.7782008
vn 0.1220368 0.8431929 -0.5235767
vn 0.4669544 0.5042065 -0.7264498
vn 0.2774839 -0.2738195 -0.920883
vn -0.2594125 0.6807832 -0.6850105
vn -0.3002023 -0.2408226 -0.9229751
vn -0.6071249 -0.2881679 -0.7405124
vn -0.2134572 -0.6622539 -0.7182311
vn -0.514363 -0.6806816 -0.5216352
vn -0.5030807 -0.8407623 0.2000718
vn -0.3189838 -0.8117542 -0.4891874
vn 0.05588432 -0.6528211 -0.7554479
vn 0.7353995 0.5832224 -0.3450204
vn 0.8389888 -0.05666856 -0.5411898
vn 0.8880498 0.4593368 0.0194218
vn 0.5403059 -0.5679126 -0.6209226
vn -0.0541447 -0.8282905 -0.5576766
vn 0.5635319 0.5888604 0.579375
vn 0.9081312 -0.2642552 0.3247565
vn 0.01511091 -0.9998759 0.004444956
vn 0.757935 -0.6395783 0.1283513
vn 0.3341113 -0.9187526 -0.2103888
vn 0.3460732 -0.8168308 0.4615417
vn -0.155708 -0.879559 0.4495899
vn -0.3368125 -0.7604753 0.5551888
vn 0.06731914 -0.699027 0.7119195
vn -0.2392585 -0.5872394 0.7732433
vn 0.4545223 -0.6340183 0.6256439
vn -0.1295165 0.3645454 0.9221345
vn 0.3013031 -0.3440193 0.8893071
vn 0.6325547 -0.1306245 0.7634211
vn 0.3215229 0.5177594 0.7928103
g valley_rockLip01_COL_0
f 3/3/3 2/2/2 1/1/1
f 1/1/1 4/4/4 3/3/3
f 2/2/2 3/3/3 5/5/5
f 4/4/4 5/5/5 3/3/3
f 5/5/5 6/6/6 2/2/2
f 7/7/7 5/5/5 4/4/4
f 6/6/6 5/5/5 7/7/7
f 8/8/8 1/1/1 2/2/2
f 9/9/9 2/2/2 6/6/6
f 9/9/9 8/8/8 2/2/2
f 4/4/4 10/10/10 7/7/7
f 11/11/11 4/4/4 1/1/1
f 10/10/10 4/4/4 12/12/12
f 4/4/4 11/11/11 12/12/12
f 6/6/6 7/7/7 13/13/13
f 10/10/10 14/14/14 7/7/7
f 7/7/7 14/14/14 13/13/13
f 10/10/10 15/15/15 14/14/14
f 13/13/13 14/14/14 15/15/15
f 15/15/15 16/16/16 13/13/13
f 13/13/13 17/17/17 6/6/6
f 13/13/13 16/16/16 17/17/17
f 17/17/17 18/18/18 6/6/6
f 17/17/17 16/16/16 18/18/18
f 19/19/19 6/6/6 18/18/18
f 19/19/19 9/9/9 6/6/6
f 18/18/18 20/20/20 19/19/19
f 16/16/16 20/20/20 18/18/18
f 21/21/21 9/9/9 19/19/19
f 21/21/21 19/19/19 20/20/20
f 21/21/21 22/22/22 9/9/9
f 22/22/22 8/8/8 9/9/9
f 20/20/20 23/23/23 21/21/21
f 21/21/21 23/23/23 22/22/22
f 16/16/16 24/24/24 20/20/20
f 24/24/24 23/23/23 20/20/20
f 15/15/15 10/10/10 25/25/25
f 16/16/16 15/15/15 26/26/26
f 26/26/26 15/15/15 25/25/25
f 25/25/25 10/10/10 27/27/27
f 25/25/25 27/27/27 26/26/26
f 12/12/12 27/27/27 10/10/10
f 16/16/16 28/28/28 24/24/24
f 28/28/28 16/16/16 26/26/26
f 23/23/23 24/24/24 29/29/29
f 28/28/28 29/29/29 24/24/24
f 30/30/30 27/27/27 12/12/12
f 30/30/30 12/12/12 11/11/11
f 27/27/27 31/31/31 26/26/26
f 30/30/30 31/31/31 27/27/27
f 29/29/29 32/32/32 23/23/23
f 32/32/32 22/22/22 23/23/23
f 33/33/33 28/28/28 26/26/26
f 31/31/31 33/33/33 26/26/26
f 28/28/28 34/34/34 29/29/29
f 34/34/34 32/32/32 29/29/29
f 28/28/28 33/33/33 34/34/34
f 32/32/32 34/34/34 33/33/33
f 32/32/32 33/33/33 35/35/35
f 33/33/33 31/31/31 35/35/35
f 36/36/36 22/22/22 32/32/32
f 36/36/36 32/32/32 35/35/35
f 22/22/22 36/36/36 37/37/37
f 8/8/8 22/22/22 37/37/37
f 35/35/35 38/38/38 36/36/36
f 36/36/36 38/38/38 37/37/37
f 39/39/39 8/8/8 37/37/37
f 37/37/37 38/38/38 39/39/39
f 1/1/1 8/8/8 39/39/39
f 31/31/31 40/40/40 35/35/35
f 38/38/38 35/35/35 40/40/40
f 1/1/1 39/39/39 41/41/41
f 1/1/1 41/41/41 11/11/11
f 39/39/39 38/38/38 42/42/42
f 40/40/40 42/42/42 38/38/38
f 42/42/42 41/41/41 39/39/39
f 31/31/31 43/43/43 40/40/40
f 43/43/43 42/42/42 40/40/40
f 30/30/30 43/43/43 31/31/31
f 30/30/30 11/11/11 44/44/44
f 41/41/41 44/44/44 11/11/11
f 41/41/41 42/42/42 44/44/44
f 44/44/44 42/42/42 43/43/43
f 43/43/43 30/30/30 44/44/44
