g market_curve_COL
v 1.038339 2.077833 -0.5015742
v 1.038339 2.077833 0.5015742
v 0.3966095 3.362005 0.5015742
v 0.3966095 3.362005 -0.5015742
v -0.3966101 3.362004 0.5015742
v -0.3966101 3.362005 -0.5015742
v -1.038339 2.077833 0.5015742
v -1.038339 2.077833 -0.5015742
v -1.283457 -2.288818E-07 0.5015742
v -1.283457 -2.288818E-07 -0.5015742
v 1.283457 0 -0.5015742
v 1.283457 0 0.5015742
v 1.038339 2.077833 0.5015742
v 1.038339 2.077833 -0.5015742
v -1.283457 -2.288818E-07 -0.5015742
v 9.094947E-15 0 -0.5015742
v -1.038339 2.077833 -0.5015742
v -0.3966101 3.362005 -0.5015742
v 0.3966095 3.362005 -0.5015742
v 1.038339 2.077833 -0.5015742
v 1.283457 0 -0.5015742
v -1.038339 2.077833 0.5015742
v 9.094947E-15 0 0.5015742
v -1.283457 -2.288818E-07 0.5015742
v -0.3966101 3.362004 0.5015742
v 0.3966095 3.362005 0.5015742
v 1.038339 2.077833 0.5015742
v 1.283457 0 0.5015742
vt 0.375 0.3125
vt 0.375 0.6884398
vt 0.4 0.6884398
vt 0.4 0.3125
vt 0.425 0.6884398
vt 0.425 0.3125
vt 0.45 0.6884398
vt 0.45 0.3125
vt 0.475 0.6884398
vt 0.475 0.3125
vt 0.5999999 0.3125
vt 0.5999999 0.6884398
vt 0.6249999 0.6884398
vt 0.6249999 0.3125
vt 0.34375 0.15625
vt 0.5 0.15
vt 0.3735911 0.06440856
vt 0.4517161 0.00764741
vt 0.5482839 0.007647395
vt 0.6264089 0.06440853
vt 0.65625 0.15625
vt 0.3735911 0.9355915
vt 0.5 0.8375
vt 0.34375 0.84375
vt 0.4517161 0.9923526
vt 0.5482839 0.9923526
vt 0.6264089 0.9355915
vt 0.65625 0.84375
vn 0.7994382 0.2108799 -0.5625195
vn 0.7994382 0.2108799 0.5625195
vn 0.4971847 0.5555602 0.6664534
vn 0.4971846 0.5555604 -0.6664534
vn -0.4971849 0.5555601 0.6664534
vn -0.4971848 0.5555601 -0.6664535
vn -0.7994382 0.2108799 0.5625195
vn -0.7994382 0.2108799 -0.5625194
vn -0.8561553 0.1009991 0.5067518
vn -0.8561553 0.1009991 -0.5067517
vn 0.8561553 0.100999 -0.5067518
vn 0.8561553 0.100999 0.5067518
vn 0.7994382 0.2108799 0.5625195
vn 0.7994382 0.2108799 -0.5625195
vn -0.8561553 0.1009991 -0.5067517
vn 0 0 -1
vn -0.7994382 0.2108799 -0.5625194
vn -0.4971848 0.5555601 -0.6664535
vn 0.4971846 0.5555604 -0.6664534
vn 0.7994382 0.2108799 -0.5625195
vn 0.8561553 0.100999 -0.5067518
vn -0.7994382 0.2108799 0.5625195
vn 0 0 1
vn -0.8561553 0.1009991 0.5067518
vn -0.4971849 0.5555601 0.6664534
vn 0.4971847 0.5555602 0.6664534
vn 0.7994382 0.2108799 0.5625195
vn 0.8561553 0.100999 0.5067518
g market_curve_COL_0
f 3/3/3 2/2/2 1/1/1
f 4/4/4 3/3/3 1/1/1
f 5/5/5 3/3/3 4/4/4
f 6/6/6 5/5/5 4/4/4
f 7/7/7 5/5/5 6/6/6
f 8/8/8 7/7/7 6/6/6
f 9/9/9 7/7/7 8/8/8
f 10/10/10 9/9/9 8/8/8
f 13/13/13 12/12/12 11/11/11
f 14/14/14 13/13/13 11/11/11
f 17/17/17 16/16/16 15/15/15
f 18/18/18 16/16/16 17/17/17
f 19/19/19 16/16/16 18/18/18
f 20/20/20 16/16/16 19/19/19
f 21/21/21 16/16/16 20/20/20
f 24/24/24 23/23/23 22/22/22
f 22/22/22 23/23/23 25/25/25
f 25/25/25 23/23/23 26/26/26
f 26/26/26 23/23/23 27/27/27
f 27/27/27 23/23/23 28/28/28
