g market_screen_COL
v -6.066667 -1.110223E-16 1.632876
v -6.066667 3.819182 1.632876
v -4.55 3.819182 0.946615
v -4.55 -1.110223E-16 0.946615
v -6.4 1.110223E-16 1.021758
v -6.4 3.819182 1.021758
v -4.8 1.110223E-16 0.2897457
v -4.8 3.819182 0.2897457
v -3.2 1.110223E-16 -0.1982626
v -3.2 3.819182 -0.1982626
v -1.6 1.110223E-16 -0.5003631
v -3.033333 3.819182 0.4891069
v -3.033333 -1.110223E-16 0.4891069
v -1.6 3.819182 -0.5003631
v 0 1.110223E-16 -0.6165556
v -1.516667 3.819182 0.2058878
v -1.516667 -1.110223E-16 0.2058878
v 0 3.819182 -0.6165556
v 1.6 1.110223E-16 -0.5003631
v 0 3.819182 0.09695728
v 0 -1.110223E-16 0.09695728
v 1.6 3.819182 -0.5003631
v 3.2 1.110223E-16 -0.1982626
v 1.516667 3.819182 0.2058878
v 1.516667 -1.110223E-16 0.2058878
v 3.2 3.819182 -0.1982626
v 4.8 1.110223E-16 0.2897457
v 3.033333 3.819182 0.4891069
v 3.033333 -1.110223E-16 0.4891069
v 4.8 3.819182 0.2897457
v 6.4 1.110223E-16 1.021758
v 4.55 3.819182 0.946615
v 4.55 -1.110223E-16 0.946615
v 6.4 3.819182 1.021758
v 6.066667 -1.110223E-16 1.632876
v 6.066667 3.819182 1.632876
vt 0 0
vt 0 0
vt 0.125 0
vt 0.125 0
vt 0 1
vt 0 1
vt 0.125 1
vt 0.125 1
vt 0.25 1
vt 0.25 1
vt 0.375 1
vt 0.25 0
vt 0.25 0
vt 0.375 1
vt 0.5 1
vt 0.375 0
vt 0.375 0
vt 0.5 1
vt 0.625 1
vt 0.5 0
vt 0.5 0
vt 0.625 1
vt 0.75 1
vt 0.625 0
vt 0.625 0
vt 0.75 1
vt 0.875 1
vt 0.75 0
vt 0.75 0
vt 0.875 1
vt 1 1
vt 0.875 0
vt 0.875 0
vt 1 1
vt 1 0
vt 1 0
vn 0.04058461 0 0.9991761
vn 0.03996363 0.1742631 0.9838879
vn 0.3461663 0.1932676 0.9180503
vn 0.3528183 0 0.9356918
vn -0.7275119 0 -0.6860951
vn -0.7181637 0.1597931 -0.6772791
vn -0.3562435 0 -0.9343932
vn -0.3511242 0.1689197 -0.9209657
vn -0.2397102 0 -0.9708445
vn -0.2361654 0.1713392 -0.9564878
vn -0.1296139 0 -0.9915645
vn 0.2327617 0.1930712 0.9531765
vn 0.2372251 0 0.9714546
vn -0.1276821 0.1720091 -0.9767857
vn 0 0 -1
vn 0.1257697 0.194296 0.9728468
vn 0.1282131 0 0.9917465
vn 0 0.1708598 -0.9852954
vn 0.1296139 0 -0.9915645
vn 0 0.1966281 0.9804781
vn 0 0 1
vn 0.1276821 0.1720091 -0.9767857
vn 0.2397102 0 -0.9708445
vn -0.1257697 0.194296 0.9728468
vn -0.1282131 0 0.9917465
vn 0.2361654 0.1713392 -0.9564878
vn 0.3562435 0 -0.9343932
vn -0.2327617 0.1930712 0.9531765
vn -0.2372251 0 0.9714546
vn 0.3511242 0.1689197 -0.9209657
vn 0.7275119 0 -0.6860951
vn -0.3461663 0.1932676 0.9180503
vn -0.3528183 0 0.9356918
vn 0.7181637 0.159793 -0.6772791
vn -0.04058461 0 0.9991761
vn -0.03996363 0.1742631 0.9838879
g market_screen_COL_0
f 3/3/3 2/2/2 1/1/1
f 4/4/4 3/3/3 1/1/1
f 1/1/1 2/2/2 5/5/5
f 2/2/2 6/6/6 5/5/5
f 5/5/5 6/6/6 7/7/7
f 8/8/8 6/6/6 2/2/2
f 6/6/6 8/8/8 7/7/7
f 3/3/3 8/8/8 2/2/2
f 7/7/7 8/8/8 9/9/9
f 8/8/8 10/10/10 9/9/9
f 10/10/10 8/8/8 3/3/3
f 9/9/9 10/10/10 11/11/11
f 12/12/12 3/3/3 4/4/4
f 12/12/12 10/10/10 3/3/3
f 13/13/13 12/12/12 4/4/4
f 10/10/10 14/14/14 11/11/11
f 14/14/14 10/10/10 12/12/12
f 11/11/11 14/14/14 15/15/15
f 16/16/16 12/12/12 13/13/13
f 16/16/16 14/14/14 12/12/12
f 17/17/17 16/16/16 13/13/13
f 14/14/14 18/18/18 15/15/15
f 18/18/18 14/14/14 16/16/16
f 15/15/15 18/18/18 19/19/19
f 20/20/20 16/16/16 17/17/17
f 20/20/20 18/18/18 16/16/16
f 21/21/21 20/20/20 17/17/17
f 18/18/18 22/22/22 19/19/19
f 22/22/22 18/18/18 20/20/20
f 19/19/19 22/22/22 23/23/23
f 24/24/24 20/20/20 21/21/21
f 24/24/24 22/22/22 20/20/20
f 25/25/25 24/24/24 21/21/21
f 22/22/22 26/26/26 23/23/23
f 26/26/26 22/22/22 24/24/24
f 23/23/23 26/26/26 27/27/27
f 28/28/28 24/24/24 25/25/25
f 28/28/28 26/26/26 24/24/24
f 29/29/29 28/28/28 25/25/25
f 26/26/26 30/30/30 27/27/27
f 30/30/30 26/26/26 28/28/28
f 27/27/27 30/30/30 31/31/31
f 32/32/32 28/28/28 29/29/29
f 32/32/32 30/30/30 28/28/28
f 33/33/33 32/32/32 29/29/29
f 30/30/30 34/34/34 31/31/31
f 34/34/34 30/30/30 32/32/32
f 31/31/31 34/34/34 35/35/35
f 36/36/36 32/32/32 33/33/33
f 35/35/35 36/36/36 33/33/33
f 36/36/36 34/34/34 32/32/32
f 34/34/34 36/36/36 35/35/35
