g bridge_ramp_covering_x3_COL
v -1.216511 0.2542232 4.569441
v -1.605394 0.2542232 4.569441
v -1.16101 3.731876 4.569441
v -0.7721264 3.731876 4.569441
v -0.7721264 3.731876 4.569441
v -1.16101 3.731876 4.569441
v -1.16101 3.731876 4.180559
v -0.7721264 3.731876 4.180559
v -0.7721264 3.731876 4.180559
v -1.16101 3.731876 4.180559
v -1.605394 0.2542232 4.180559
v -1.216511 0.2542232 4.180559
v -1.216511 0.2542232 4.180559
v -1.605394 0.2542232 4.180559
v -1.605394 0.2542232 4.569441
v -1.216511 0.2542232 4.569441
v -1.605394 0.2542232 4.569441
v -1.605394 0.2542232 4.180559
v -1.16101 3.731876 4.180559
v -1.16101 3.731876 4.569441
v -1.216511 0.2542232 4.180559
v -1.216511 0.2542232 4.569441
v -0.7721264 3.731876 4.569441
v -0.7721264 3.731876 4.180559
v 1.216511 0.2542232 4.569441
v 0.7721264 3.731876 4.569441
v 1.16101 3.731876 4.569441
v 1.605394 0.2542232 4.569441
v 0.7721264 3.731876 4.569441
v 0.7721264 3.731876 4.180559
v 1.16101 3.731876 4.180559
v 1.16101 3.731876 4.569441
v 0.7721264 3.731876 4.180559
v 1.216511 0.2542232 4.180559
v 1.605394 0.2542232 4.180559
v 1.16101 3.731876 4.180559
v 1.216511 0.2542232 4.180559
v 1.216511 0.2542232 4.569441
v 1.605394 0.2542232 4.569441
v 1.605394 0.2542232 4.180559
v 1.605394 0.2542232 4.569441
v 1.16101 3.731876 4.569441
v 1.16101 3.731876 4.180559
v 1.605394 0.2542232 4.180559
v 1.216511 0.2542232 4.180559
v 0.7721264 3.731876 4.180559
v 0.7721264 3.731876 4.569441
v 1.216511 0.2542232 4.569441
v -1.216511 0.2542232 2.757063
v -1.605394 0.2542232 2.757063
v -1.16101 3.731876 2.829548
v -0.7721264 3.731876 2.829548
v -0.7721264 3.731876 2.829548
v -1.16101 3.731876 2.829548
v -1.16101 3.731876 2.440666
v -0.7721264 3.731876 2.440666
v -0.7721264 3.731876 2.440666
v -1.16101 3.731876 2.440666
v -1.605394 0.2542232 2.368181
v -1.216511 0.2542232 2.368181
v -1.216511 0.2542232 2.368181
v -1.605394 0.2542232 2.368181
v -1.605394 0.2542232 2.757063
v -1.216511 0.2542232 2.757063
v -1.605394 0.2542232 2.757063
v -1.605394 0.2542232 2.368181
v -1.16101 3.731876 2.440666
v -1.16101 3.731876 2.829548
v -1.216511 0.2542232 2.368181
v -1.216511 0.2542232 2.757063
v -0.7721264 3.731876 2.829548
v -0.7721264 3.731876 2.440666
v -1.216511 -0.180781 0.7664405
v -1.605394 -0.180781 0.7664405
v -1.226922 3.574988 1.074257
v -0.8380381 3.574988 1.074257
v -0.8380381 3.574988 1.074257
v -1.226922 3.574988 1.074257
v -1.226922 3.574988 0.6853746
v -0.8380381 3.574988 0.6853746
v -0.8380381 3.574988 0.6853746
v -1.226922 3.574988 0.6853746
v -1.605394 -0.180781 0.3775575
v -1.216511 -0.180781 0.3775575
v -1.216511 -0.180781 0.3775575
v -1.605394 -0.180781 0.3775575
v -1.605394 -0.180781 0.7664405
v -1.216511 -0.180781 0.7664405
v -1.605394 -0.180781 0.7664405
v -1.605394 -0.180781 0.3775575
v -1.226922 3.574988 0.6853746
v -1.226922 3.574988 1.074257
v -1.216511 -0.180781 0.3775575
v -1.216511 -0.180781 0.7664405
v -0.8380381 3.574988 1.074257
v -0.8380381 3.574988 0.6853746
v 0 3.710826 5.25
v 0.5380957 4.740924 5.25
v 1.883135 3.5 5.25
v 0 4.61331 5.25
v -1.883135 3.5 5.25
v 0.7491931 5.47838 5.25
v -0.5380957 4.740924 5.25
v 0 5.106433 5.25
v -0.7491931 5.47838 5.25
v -0.7491931 5.47838 5.25
v 0 5.106433 2.575352
v 0 5.106433 5.25
v -0.7491931 5.47838 2.575352
v 0 4.852903 -0.09242288
v -0.7491931 5.221318 -0.1435605
v 0 5.106433 5.25
v 0.7491931 5.47838 2.575352
v 0.7491931 5.47838 5.25
v 0 5.106433 2.575352
v 0.7491931 5.221318 -0.1435605
v 0 4.852903 -0.09242288
v 0 4.852903 -0.09242288
v 0.5380957 4.524984 -0.06624226
v 0.7491931 5.221318 -0.1435605
v 0 4.397369 -0.06624226
v -0.7491931 5.221318 -0.1435605
v 1.883135 3.270079 0
v -0.5380957 4.524984 -0.06624226
v 0 3.480904 0
v -1.883135 3.351058 0
v 0 3.480904 0
v 1.883135 3.470211 2.674648
v 1.883135 3.270079 0
v 0 3.681037 2.674648
v -1.883135 3.351058 0
v 1.883135 3.5 5.25
v -1.883135 3.470211 2.674648
v 0 3.710826 5.25
v -1.883135 3.5 5.25
v 1.883135 3.470211 2.674648
v 0.5380957 4.524984 -0.06624226
v 1.883135 3.270079 0
v 0.5380957 4.740924 2.61507
v 1.883135 3.5 5.25
v 0.5380957 4.740924 5.25
v 0.5380957 4.740924 2.61507
v 0.7491931 5.221318 -0.1435605
v 0.5380957 4.524984 -0.06624226
v 0.7491931 5.47838 2.575352
v 0.5380957 4.740924 5.25
v 0.7491931 5.47838 5.25
v -1.883135 3.351058 0
v -0.5380957 4.524984 -0.06624226
v -0.5380957 4.740924 2.61507
v -1.883135 3.470211 2.674648
v -0.5380957 4.740924 5.25
v -1.883135 3.5 5.25
v -0.5380957 4.524984 -0.06624226
v -0.7491931 5.221318 -0.1435605
v -0.7491931 5.47838 2.575352
v -0.5380957 4.740924 2.61507
v -0.7491931 5.47838 5.25
v -0.5380957 4.740924 5.25
v 1.216511 -0.180781 0.7664405
v 0.8380381 3.574988 1.074257
v 1.226922 3.574988 1.074257
v 1.605394 -0.180781 0.7664405
v 0.8380381 3.574988 1.074257
v 0.8380381 3.574988 0.6853746
v 1.226922 3.574988 0.6853746
v 1.226922 3.574988 1.074257
v 0.8380381 3.574988 0.6853746
v 1.216511 -0.180781 0.3775575
v 1.605394 -0.180781 0.3775575
v 1.226922 3.574988 0.6853746
v 1.216511 -0.180781 0.3775575
v 1.216511 -0.180781 0.7664405
v 1.605394 -0.180781 0.7664405
v 1.605394 -0.180781 0.3775575
v 1.605394 -0.180781 0.7664405
v 1.226922 3.574988 1.074257
v 1.226922 3.574988 0.6853746
v 1.605394 -0.180781 0.3775575
v 1.216511 -0.180781 0.3775575
v 0.8380381 3.574988 0.6853746
v 0.8380381 3.574988 1.074257
v 1.216511 -0.180781 0.7664405
v 1.216511 0.2542232 2.757063
v 0.7721264 3.731876 2.829548
v 1.16101 3.731876 2.829548
v 1.605394 0.2542232 2.757063
v 0.7721264 3.731876 2.829548
v 0.7721264 3.731876 2.440666
v 1.16101 3.731876 2.440666
v 1.16101 3.731876 2.829548
v 0.7721264 3.731876 2.440666
v 1.216511 0.2542232 2.368181
v 1.605394 0.2542232 2.368181
v 1.16101 3.731876 2.440666
v 1.216511 0.2542232 2.368181
v 1.216511 0.2542232 2.757063
v 1.605394 0.2542232 2.757063
v 1.605394 0.2542232 2.368181
v 1.605394 0.2542232 2.757063
v 1.16101 3.731876 2.829548
v 1.16101 3.731876 2.440666
v 1.605394 0.2542232 2.368181
v 1.216511 0.2542232 2.368181
v 0.7721264 3.731876 2.440666
v 0.7721264 3.731876 2.829548
v 1.216511 0.2542232 2.757063
vt 0.375 0
vt 0.625 0
vt 0.625 0.25
vt 0.375 0.25
vt 0.375 0.25
vt 0.625 0.25
vt 0.625 0.5
vt 0.375 0.5
vt 0.375 0.5
vt 0.625 0.5
vt 0.625 0.75
vt 0.375 0.75
vt 0.375 0.75
vt 0.625 0.75
vt 0.625 1
vt 0.375 1
vt 0.625 0
vt 0.875 0
vt 0.875 0.25
vt 0.625 0.25
vt 0.125 0
vt 0.375 0
vt 0.375 0.25
vt 0.125 0.25
vt 0.375 0
vt 0.375 0.25
vt 0.625 0.25
vt 0.625 0
vt 0.375 0.25
vt 0.375 0.5
vt 0.625 0.5
vt 0.625 0.25
vt 0.375 0.5
vt 0.375 0.75
vt 0.625 0.75
vt 0.625 0.5
vt 0.375 0.75
vt 0.375 1
vt 0.625 1
vt 0.625 0.75
vt 0.625 0
vt 0.625 0.25
vt 0.875 0.25
vt 0.875 0
vt 0.125 0
vt 0.125 0.25
vt 0.375 0.25
vt 0.375 0
vt 0.375 0
vt 0.625 0
vt 0.625 0.25
vt 0.375 0.25
vt 0.375 0.25
vt 0.625 0.25
vt 0.625 0.5
vt 0.375 0.5
vt 0.375 0.5
vt 0.625 0.5
vt 0.625 0.75
vt 0.375 0.75
vt 0.375 0.75
vt 0.625 0.75
vt 0.625 1
vt 0.375 1
vt 0.625 0
vt 0.875 0
vt 0.875 0.25
vt 0.625 0.25
vt 0.125 0
vt 0.375 0
vt 0.375 0.25
vt 0.125 0.25
vt 0.375 0
vt 0.625 0
vt 0.625 0.25
vt 0.375 0.25
vt 0.375 0.25
vt 0.625 0.25
vt 0.625 0.5
vt 0.375 0.5
vt 0.375 0.5
vt 0.625 0.5
vt 0.625 0.75
vt 0.375 0.75
vt 0.375 0.75
vt 0.625 0.75
vt 0.625 1
vt 0.375 1
vt 0.625 0
vt 0.875 0
vt 0.875 0.25
vt 0.625 0.25
vt 0.125 0
vt 0.375 0
vt 0.375 0.25
vt 0.125 0.25
vt 0.5 0
vt 0.625 0.125
vt 0.625 0
vt 0.5 0.125
vt 0.375 0
vt 0.625 0.25
vt 0.375 0.125
vt 0.5 0.25
vt 0.375 0.25
vt 0.375 0.25
vt 0.5 0.375
vt 0.5 0.25
vt 0.375 0.375
vt 0.5 0.5
vt 0.375 0.5
vt 0.5 0.25
vt 0.625 0.375
vt 0.625 0.25
vt 0.5 0.375
vt 0.625 0.5
vt 0.5 0.5
vt 0.5 0.5
vt 0.625 0.625
vt 0.625 0.5
vt 0.5 0.625
vt 0.375 0.5
vt 0.625 0.75
vt 0.375 0.625
vt 0.5 0.75
vt 0.375 0.75
vt 0.5 0.75
vt 0.625 0.875
vt 0.625 0.75
vt 0.5 0.875
vt 0.375 0.75
vt 0.625 1
vt 0.375 0.875
vt 0.5 1
vt 0.375 1
vt 0.75 0
vt 0.875 0.125
vt 0.875 0
vt 0.75 0.125
vt 0.625 0
vt 0.625 0.125
vt 0.75 0.125
vt 0.875 0.25
vt 0.875 0.125
vt 0.75 0.25
vt 0.625 0.125
vt 0.625 0.25
vt 0.125 0
vt 0.125 0.125
vt 0.25 0.125
vt 0.25 0
vt 0.375 0.125
vt 0.375 0
vt 0.125 0.125
vt 0.125 0.25
vt 0.25 0.25
vt 0.25 0.125
vt 0.375 0.25
vt 0.375 0.125
vt 0.375 0
vt 0.375 0.25
vt 0.625 0.25
vt 0.625 0
vt 0.375 0.25
vt 0.375 0.5
vt 0.625 0.5
vt 0.625 0.25
vt 0.375 0.5
vt 0.375 0.75
vt 0.625 0.75
vt 0.625 0.5
vt 0.375 0.75
vt 0.375 1
vt 0.625 1
vt 0.625 0.75
vt 0.625 0
vt 0.625 0.25
vt 0.875 0.25
vt 0.875 0
vt 0.125 0
vt 0.125 0.25
vt 0.375 0.25
vt 0.375 0
vt 0.375 0
vt 0.375 0.25
vt 0.625 0.25
vt 0.625 0
vt 0.375 0.25
vt 0.375 0.5
vt 0.625 0.5
vt 0.625 0.25
vt 0.375 0.5
vt 0.375 0.75
vt 0.625 0.75
vt 0.625 0.5
vt 0.375 0.75
vt 0.375 1
vt 0.625 1
vt 0.625 0.75
vt 0.625 0
vt 0.625 0.25
vt 0.875 0.25
vt 0.875 0
vt 0.125 0
vt 0.125 0.25
vt 0.375 0.25
vt 0.375 0
vn 0 0 1
vn 0 0 1
vn 0 0 1
vn 0 0 1
vn 0 1 0
vn 0 1 0
vn 0 1 0
vn 0 1 0
vn 0 0 -1
vn 0 0 -1
vn 0 0 -1
vn 0 0 -1
vn 0 -1 0
vn 0 -1 0
vn 0 -1 0
vn 0 -1 0
vn -0.9919344 0.1267521 0
vn -0.9919344 0.1267521 0
vn -0.9919344 0.1267521 0
vn -0.9919344 0.1267521 0
vn 0.9919344 -0.1267524 0
vn 0.9919344 -0.1267524 0
vn 0.9919344 -0.1267524 0
vn 0.9919344 -0.1267524 0
vn 0 0 1
vn 0 0 1
vn 0 0 1
vn 0 0 1
vn 0 1 0
vn 0 1 0
vn 0 1 0
vn 0 1 0
vn 0 0 -1
vn 0 0 -1
vn 0 0 -1
vn 0 0 -1
vn 0 -1 0
vn 0 -1 0
vn 0 -1 0
vn 0 -1 0
vn 0.9919344 0.1267521 0
vn 0.9919344 0.1267521 0
vn 0.9919344 0.1267521 0
vn 0.9919344 0.1267521 0
vn -0.9919344 -0.1267524 0
vn -0.9919344 -0.1267524 0
vn -0.9919344 -0.1267524 0
vn -0.9919344 -0.1267524 0
vn 0 -0.0208387 0.9997829
vn 0 -0.0208387 0.9997829
vn 0 -0.0208387 0.9997829
vn 0 -0.0208387 0.9997829
vn 0 1 0
vn 0 1 0
vn 0 1 0
vn 0 1 0
vn 0 0.02083862 -0.9997829
vn 0 0.02083862 -0.9997829
vn 0 0.02083862 -0.9997829
vn 0 0.02083863 -0.9997829
vn 0 -1 0
vn 0 -1 0
vn 0 -1 0
vn 0 -1 0
vn -0.9919344 0.1267521 0
vn -0.9919344 0.1267522 0
vn -0.9919344 0.1267521 0
vn -0.9919344 0.1267521 0
vn 0.9919344 -0.1267523 0
vn 0.9919344 -0.1267523 0
vn 0.9919344 -0.1267523 0
vn 0.9919344 -0.1267523 0
vn 0 -0.08168431 0.9966582
vn 0 -0.08168431 0.9966583
vn 0 -0.08168431 0.9966582
vn 0 -0.08168431 0.9966582
vn 0 1 0
vn 0 1 0
vn 0 1 0
vn 0 1 0
vn 0 0.08168458 -0.9966582
vn 0 0.08168459 -0.9966582
vn 0 0.08168459 -0.9966582
vn 0 0.08168458 -0.9966582
vn 0 -1 0
vn 0 -1 0
vn 0 -1 0
vn 0 -1 0
vn -0.994961 0.1002631 0
vn -0.994961 0.1002631 0
vn -0.994961 0.1002631 0
vn -0.994961 0.1002631 0
vn 0.9949609 -0.1002634 0
vn 0.9949609 -0.1002634 0
vn 0.9949609 -0.1002634 0
vn 0.9949609 -0.1002633 0
vn 0 0 1
vn 1.771169E-07 0 1
vn 0 0 1
vn 0 0 1
vn 0 0 1
vn 8.090399E-07 0 1
vn 0 0 1
vn 4.0452E-07 0 1
vn 0 0 1
vn 0.4446778 0.8956907 0
vn 0.4445845 0.8946989 -0.04311132
vn 0.4446778 0.8956907 0
vn 0.4445976 0.8947462 -0.04198032
vn 0.4437129 0.89217 -0.08456666
vn 0.4437129 0.89217 -0.08456667
vn -0.4446778 0.8956907 0
vn -0.4445976 0.8947462 -0.04198032
vn -0.4446778 0.8956907 0
vn -0.4445845 0.8946989 -0.04311132
vn -0.4437129 0.89217 -0.08456667
vn -0.4437129 0.89217 -0.08456666
vn 0 -0.08849829 -0.9960763
vn -0.002826752 -0.06765561 -0.9977048
vn -0.005468132 -0.08849697 -0.9960614
vn -0.0008738479 -0.06706029 -0.9977486
vn 0.005468126 -0.08849699 -0.9960614
vn -0.002138339 -0.06222048 -0.9980602
vn 0.001178166 -0.06850997 -0.9976497
vn -0.001063406 -0.06274308 -0.9980292
vn 5.834435E-05 -0.06328835 -0.9979953
vn -0.01082707 -0.997687 0.06710868
vn -0.1111538 -0.9928474 0.04357684
vn -0.1109531 -0.9910551 0.07415643
vn -0.00545607 -0.9991919 0.03982101
vn 0.08992694 -0.994179 0.05934015
vn -0.1112522 -0.9937257 0.0114942
vn 0.1004036 -0.994298 0.03592394
vn 0 -0.9999331 0.011566
vn 0.1112522 -0.9937257 0.0114942
vn 0.6838894 0.7289388 -0.03071679
vn 0.684781 0.7265599 -0.05644219
vn 0.684781 0.7265599 -0.05644219
vn 0.6838946 0.7289289 -0.03083635
vn 0.6824923 0.7308809 -0.004178695
vn 0.6824921 0.730881 -0.004178695
vn 0.960543 -0.2778651 0.01217297
vn 0.9595284 -0.2805376 0.02457213
vn 0.9595285 -0.2805376 0.02457213
vn 0.9605315 -0.2778981 0.01232467
vn 0.9613875 -0.2751981 0
vn 0.9613875 -0.2751981 0
vn -0.6730038 0.7381957 -0.04618504
vn -0.6730038 0.7381957 -0.04618503
vn -0.6778538 0.7347566 -0.02543528
vn -0.6779067 0.7347159 -0.02520134
vn -0.6824921 0.730881 -0.004178695
vn -0.6824923 0.7308809 -0.004178695
vn -0.9595284 -0.2805376 0.02457213
vn -0.9595284 -0.2805376 0.02457213
vn -0.9605315 -0.2778981 0.01232466
vn -0.960543 -0.2778651 0.01217297
vn -0.9613875 -0.2751981 0
vn -0.9613875 -0.2751981 0
vn 0 -0.08168431 0.9966582
vn 0 -0.08168431 0.9966582
vn 0 -0.08168431 0.9966582
vn 0 -0.08168431 0.9966583
vn 0 1 0
vn 0 1 0
vn 0 1 0
vn 0 1 0
vn 0 0.08168458 -0.9966582
vn 0 0.08168458 -0.9966582
vn 0 0.08168459 -0.9966582
vn 0 0.08168459 -0.9966582
vn 0 -1 0
vn 0 -1 0
vn 0 -1 0
vn 0 -1 0
vn 0.994961 0.1002631 0
vn 0.994961 0.1002631 0
vn 0.994961 0.1002631 0
vn 0.994961 0.1002631 0
vn -0.9949609 -0.1002634 0
vn -0.9949609 -0.1002633 0
vn -0.9949609 -0.1002634 0
vn -0.9949609 -0.1002634 0
vn 0 -0.0208387 0.9997829
vn 0 -0.0208387 0.9997829
vn 0 -0.0208387 0.9997829
vn 0 -0.0208387 0.9997829
vn 0 1 0
vn 0 1 0
vn 0 1 0
vn 0 1 0
vn 0 0.02083862 -0.9997829
vn 0 0.02083863 -0.9997829
vn 0 0.02083862 -0.9997829
vn 0 0.02083862 -0.9997829
vn 0 -1 0
vn 0 -1 0
vn 0 -1 0
vn 0 -1 0
vn 0.9919344 0.1267521 0
vn 0.9919344 0.1267521 0
vn 0.9919344 0.1267521 0
vn 0.9919344 0.1267522 0
vn -0.9919344 -0.1267523 0
vn -0.9919344 -0.1267523 0
vn -0.9919344 -0.1267524 0
vn -0.9919344 -0.1267523 0
g bridge_ramp_covering_x3_COL_0
f 3/3/3 2/2/2 1/1/1
f 4/4/4 3/3/3 1/1/1
f 7/7/7 6/6/6 5/5/5
f 8/8/8 7/7/7 5/5/5
f 11/11/11 10/10/10 9/9/9
f 12/12/12 11/11/11 9/9/9
f 15/15/15 14/14/14 13/13/13
f 16/16/16 15/15/15 13/13/13
f 19/19/19 18/18/18 17/17/17
f 20/20/20 19/19/19 17/17/17
f 23/23/23 22/22/22 21/21/21
f 24/24/24 23/23/23 21/21/21
f 27/27/27 26/26/26 25/25/25
f 28/28/28 27/27/27 25/25/25
f 31/31/31 30/30/30 29/29/29
f 32/32/32 31/31/31 29/29/29
f 35/35/35 34/34/34 33/33/33
f 36/36/36 35/35/35 33/33/33
f 39/39/39 38/38/38 37/37/37
f 40/40/40 39/39/39 37/37/37
f 43/43/43 42/42/42 41/41/41
f 44/44/44 43/43/43 41/41/41
f 47/47/47 46/46/46 45/45/45
f 48/48/48 47/47/47 45/45/45
f 51/51/51 50/50/50 49/49/49
f 52/52/52 51/51/51 49/49/49
f 55/55/55 54/54/54 53/53/53
f 56/56/56 55/55/55 53/53/53
f 59/59/59 58/58/58 57/57/57
f 60/60/60 59/59/59 57/57/57
f 63/63/63 62/62/62 61/61/61
f 64/64/64 63/63/63 61/61/61
f 67/67/67 66/66/66 65/65/65
f 68/68/68 67/67/67 65/65/65
f 71/71/71 70/70/70 69/69/69
f 72/72/72 71/71/71 69/69/69
f 75/75/75 74/74/74 73/73/73
f 76/76/76 75/75/75 73/73/73
f 79/79/79 78/78/78 77/77/77
f 80/80/80 79/79/79 77/77/77
f 83/83/83 82/82/82 81/81/81
f 84/84/84 83/83/83 81/81/81
f 87/87/87 86/86/86 85/85/85
f 88/88/88 87/87/87 85/85/85
f 91/91/91 90/90/90 89/89/89
f 92/92/92 91/91/91 89/89/89
f 95/95/95 94/94/94 93/93/93
f 96/96/96 95/95/95 93/93/93
f 99/99/99 98/98/98 97/97/97
f 98/98/98 100/100/100 97/97/97
f 97/97/97 100/100/100 101/101/101
f 98/98/98 102/102/102 100/100/100
f 100/100/100 103/103/103 101/101/101
f 102/102/102 104/104/104 100/100/100
f 100/100/100 104/104/104 103/103/103
f 104/104/104 105/105/105 103/103/103
f 108/108/108 107/107/107 106/106/106
f 107/107/107 109/109/109 106/106/106
f 107/107/107 110/110/110 109/109/109
f 110/110/110 111/111/111 109/109/109
f 114/114/114 113/113/113 112/112/112
f 113/113/113 115/115/115 112/112/112
f 113/113/113 116/116/116 115/115/115
f 116/116/116 117/117/117 115/115/115
f 120/120/120 119/119/119 118/118/118
f 119/119/119 121/121/121 118/118/118
f 118/118/118 121/121/121 122/122/122
f 119/119/119 123/123/123 121/121/121
f 121/121/121 124/124/124 122/122/122
f 123/123/123 125/125/125 121/121/121
f 121/121/121 125/125/125 124/124/124
f 125/125/125 126/126/126 124/124/124
f 129/129/129 128/128/128 127/127/127
f 128/128/128 130/130/130 127/127/127
f 127/127/127 130/130/130 131/131/131
f 128/128/128 132/132/132 130/130/130
f 130/130/130 133/133/133 131/131/131
f 132/132/132 134/134/134 130/130/130
f 130/130/130 134/134/134 133/133/133
f 134/134/134 135/135/135 133/133/133
f 138/138/138 137/137/137 136/136/136
f 137/137/137 139/139/139 136/136/136
f 136/136/136 139/139/139 140/140/140
f 139/139/139 141/141/141 140/140/140
f 144/144/144 143/143/143 142/142/142
f 143/143/143 145/145/145 142/142/142
f 142/142/142 145/145/145 146/146/146
f 145/145/145 147/147/147 146/146/146
f 150/150/150 149/149/149 148/148/148
f 151/151/151 150/150/150 148/148/148
f 152/152/152 150/150/150 151/151/151
f 153/153/153 152/152/152 151/151/151
f 156/156/156 155/155/155 154/154/154
f 157/157/157 156/156/156 154/154/154
f 158/158/158 156/156/156 157/157/157
f 159/159/159 158/158/158 157/157/157
f 162/162/162 161/161/161 160/160/160
f 163/163/163 162/162/162 160/160/160
f 166/166/166 165/165/165 164/164/164
f 167/167/167 166/166/166 164/164/164
f 170/170/170 169/169/169 168/168/168
f 171/171/171 170/170/170 168/168/168
f 174/174/174 173/173/173 172/172/172
f 175/175/175 174/174/174 172/172/172
f 178/178/178 177/177/177 176/176/176
f 179/179/179 178/178/178 176/176/176
f 182/182/182 181/181/181 180/180/180
f 183/183/183 182/182/182 180/180/180
f 186/186/186 185/185/185 184/184/184
f 187/187/187 186/186/186 184/184/184
f 190/190/190 189/189/189 188/188/188
f 191/191/191 190/190/190 188/188/188
f 194/194/194 193/193/193 192/192/192
f 195/195/195 194/194/194 192/192/192
f 198/198/198 197/197/197 196/196/196
f 199/199/199 198/198/198 196/196/196
f 202/202/202 201/201/201 200/200/200
f 203/203/203 202/202/202 200/200/200
f 206/206/206 205/205/205 204/204/204
f 207/207/207 206/206/206 204/204/204
