g canvaskit_wall_corner_x2_COL
v -0.4819902 0 3.433466
v -0.4819902 3.5 3.433466
v -0.1482368 3.5 3.433466
v -0.1482368 0 3.433466
v -0.4819902 3.5 3.433466
v -0.4819902 3.5 3.119823
v -0.1482368 3.5 3.119823
v -0.1482368 3.5 3.433466
v -0.4819902 3.5 3.119823
v -0.4819902 0 3.119823
v -0.1482368 0 3.119823
v -0.1482368 3.5 3.119823
v -0.4819902 0 3.119823
v -0.4819902 0 3.433466
v -0.1482368 0 3.433466
v -0.1482368 0 3.119823
v -0.1482368 0 3.433466
v -0.1482368 3.5 3.433466
v -0.1482368 3.5 3.119823
v -0.1482368 0 3.119823
v -0.4819902 0 3.119823
v -0.4819902 3.5 3.119823
v -0.4819902 3.5 3.433466
v -0.4819902 0 3.433466
v -3.447693 0 0.4161817
v -3.447693 3.5 0.4161817
v -3.119818 3.5 0.4161817
v -3.119818 0 0.4161817
v -3.447693 3.5 0.4161817
v -3.447693 3.5 0.1025388
v -3.119818 3.5 0.1025388
v -3.119818 3.5 0.4161817
v -3.447693 3.5 0.1025388
v -3.447693 0 0.1025388
v -3.119818 0 0.1025388
v -3.119818 3.5 0.1025388
v -3.447693 0 0.1025388
v -3.447693 0 0.4161817
v -3.119818 0 0.4161817
v -3.119818 0 0.1025388
v -3.119818 0 0.4161817
v -3.119818 3.5 0.4161817
v -3.119818 3.5 0.1025388
v -3.119818 0 0.1025388
v -3.447693 0 0.1025388
v -3.447693 3.5 0.1025388
v -3.447693 3.5 0.4161817
v -3.447693 0 0.4161817
v -2.476693 1.457244 2.46941
v -1.55917 1.430474 3.147847
v -1.55917 1.049765 3.147847
v -2.476693 1.076535 2.46941
v -2.369578 1.457244 2.366389
v -1.485158 1.430474 3.01897
v -1.55917 1.430474 3.147847
v -2.476693 1.457244 2.46941
v -2.369578 1.076535 2.366389
v -1.485158 1.049765 3.01897
v -1.485158 1.430474 3.01897
v -2.369578 1.457244 2.366389
v -2.476693 1.076535 2.46941
v -1.55917 1.049765 3.147847
v -1.485158 1.049765 3.01897
v -2.369578 1.076535 2.366389
v -1.55917 1.430474 3.147847
v -0.1471286 1.461818 3.503484
v -0.1471286 1.08111 3.503484
v -1.55917 1.049765 3.147847
v -1.485158 1.430474 3.01897
v -0.1237614 1.461818 3.356715
v -0.1471286 1.461818 3.503484
v -1.55917 1.430474 3.147847
v -1.485158 1.049765 3.01897
v -0.1237614 1.08111 3.356715
v -0.1237614 1.461818 3.356715
v -1.485158 1.430474 3.01897
v -1.55917 1.049765 3.147847
v -0.1471286 1.08111 3.503484
v -0.1237614 1.08111 3.356715
v -1.485158 1.049765 3.01897
v -2.301083 3.26527 2.281356
v -1.29186 3.26527 3.001595
v -1.29186 2.900479 3.001595
v -2.301083 2.900479 2.281356
v -2.191519 3.26527 2.17598
v -1.23545 3.26527 2.860435
v -1.29186 3.26527 3.001595
v -2.301083 3.26527 2.281356
v -2.191519 2.900479 2.17598
v -1.23545 2.900479 2.860435
v -1.23545 3.26527 2.860435
v -2.191519 3.26527 2.17598
v -2.301083 2.900479 2.281356
v -1.29186 2.900479 3.001595
v -1.23545 2.900479 2.860435
v -2.191519 2.900479 2.17598
v -1.29186 3.26527 3.001595
v -0.2643286 3.26527 3.247705
v -0.2643286 2.900479 3.247705
v -1.29186 2.900479 3.001595
v -1.23545 3.26527 2.860435
v -0.255302 3.26527 3.095959
v -0.2643286 3.26527 3.247705
v -1.29186 3.26527 3.001595
v -1.23545 2.900479 2.860435
v -0.255302 2.900479 3.095959
v -0.255302 3.26527 3.095959
v -1.23545 3.26527 2.860435
v -1.29186 2.900479 3.001595
v -0.2643286 2.900479 3.247705
v -0.255302 2.900479 3.095959
v -1.23545 2.900479 2.860435
v -2.301083 2.900479 2.281356
v -2.905917 2.900479 1.469212
v -2.905917 3.26527 1.469212
v -2.301083 3.26527 2.281356
v -2.301083 3.26527 2.281356
v -2.905917 3.26527 1.469212
v -2.769544 3.26527 1.402052
v -2.191519 3.26527 2.17598
v -2.191519 3.26527 2.17598
v -2.769544 3.26527 1.402052
v -2.769544 2.900479 1.402052
v -2.191519 2.900479 2.17598
v -2.191519 2.900479 2.17598
v -2.769544 2.900479 1.402052
v -2.905917 2.900479 1.469212
v -2.301083 2.900479 2.281356
v -2.476693 1.076535 2.46941
v -3.150688 1.136035 1.566856
v -3.150688 1.516744 1.566856
v -2.476693 1.457244 2.46941
v -2.476693 1.457244 2.46941
v -3.150688 1.516744 1.566856
v -3.017363 1.516744 1.501195
v -2.369578 1.457244 2.366389
v -2.369578 1.457244 2.366389
v -3.017363 1.516744 1.501195
v -3.017363 1.136035 1.501195
v -2.369578 1.076535 2.366389
v -2.369578 1.076535 2.366389
v -3.017363 1.136035 1.501195
v -3.150688 1.136035 1.566856
v -2.476693 1.076535 2.46941
v -2.905917 2.900479 1.469212
v -3.279932 2.900479 0.2306969
v -3.279932 3.26527 0.2306969
v -2.905917 3.26527 1.469212
v -2.905917 3.26527 1.469212
v -3.279932 3.26527 0.2306969
v -3.128715 3.26527 0.2151603
v -2.769544 3.26527 1.402052
v -2.769544 3.26527 1.402052
v -3.128715 3.26527 0.2151603
v -3.128715 2.900479 0.2151603
v -2.769544 2.900479 1.402052
v -2.769544 2.900479 1.402052
v -3.128715 2.900479 0.2151603
v -3.279932 2.900479 0.2306969
v -2.905917 2.900479 1.469212
v -3.150688 1.136035 1.566856
v -3.564744 1.136035 0.2092168
v -3.564744 1.516744 0.2092168
v -3.150688 1.516744 1.566856
v -3.150688 1.516744 1.566856
v -3.564744 1.516744 0.2092168
v -3.416905 1.516744 0.1940253
v -3.017363 1.516744 1.501195
v -3.017363 1.516744 1.501195
v -3.416905 1.516744 0.1940253
v -3.416905 1.136035 0.1940253
v -3.017363 1.136035 1.501195
v -3.017363 1.136035 1.501195
v -3.416905 1.136035 0.1940253
v -3.564744 1.136035 0.2092168
v -3.150688 1.136035 1.566856
vt 0.375 0
vt 0.375 0.25
vt 0.625 0.25
vt 0.625 0
vt 0.375 0.25
vt 0.375 0.5
vt 0.625 0.5
vt 0.625 0.25
vt 0.375 0.5
vt 0.375 0.75
vt 0.625 0.75
vt 0.625 0.5
vt 0.375 0.75
vt 0.375 1
vt 0.625 1
vt 0.625 0.75
vt 0.625 0
vt 0.625 0.25
vt 0.875 0.25
vt 0.875 0
vt 0.125 0
vt 0.125 0.25
vt 0.375 0.25
vt 0.375 0
vt 0.375 0
vt 0.375 0.25
vt 0.625 0.25
vt 0.625 0
vt 0.375 0.25
vt 0.375 0.5
vt 0.625 0.5
vt 0.625 0.25
vt 0.375 0.5
vt 0.375 0.75
vt 0.625 0.75
vt 0.625 0.5
vt 0.375 0.75
vt 0.375 1
vt 0.625 1
vt 0.625 0.75
vt 0.625 0
vt 0.625 0.25
vt 0.875 0.25
vt 0.875 0
vt 0.125 0
vt 0.125 0.25
vt 0.375 0.25
vt 0.375 0
vt 0 0
vt 0 1
vt 1 1
vt 1 0
vt 0 0
vt 0 1
vt 1 1
vt 1 0
vt 0 0
vt 0 1
vt 1 1
vt 1 0
vt 0 0
vt 0 1
vt 1 1
vt 1 0
vt 0 0
vt 0 1
vt 1 1
vt 1 0
vt 0 0
vt 0 1
vt 1 1
vt 1 0
vt 0 0
vt 0 1
vt 1 1
vt 1 0
vt 0 0
vt 0 1
vt 1 1
vt 1 0
vt 0 0
vt 0 1
vt 1 1
vt 1 0
vt 0 0
vt 0 1
vt 1 1
vt 1 0
vt 0 0
vt 0 1
vt 1 1
vt 1 0
vt 0 0
vt 0 1
vt 1 1
vt 1 0
vt 0 0
vt 0 1
vt 1 1
vt 1 0
vt 0 0
vt 0 1
vt 1 1
vt 1 0
vt 0 0
vt 0 1
vt 1 1
vt 1 0
vt 0 0
vt 0 1
vt 1 1
vt 1 0
vt 0 0
vt 0 1
vt 1 1
vt 1 0
vt 0 0
vt 0 1
vt 1 1
vt 1 0
vt 0 0
vt 0 1
vt 1 1
vt 1 0
vt 0 0
vt 0 1
vt 1 1
vt 1 0
vt 0 0
vt 0 1
vt 1 1
vt 1 0
vt 0 0
vt 0 1
vt 1 1
vt 1 0
vt 0 0
vt 0 1
vt 1 1
vt 1 0
vt 0 0
vt 0 1
vt 1 1
vt 1 0
vt 0 0
vt 0 1
vt 1 1
vt 1 0
vt 0 0
vt 0 1
vt 1 1
vt 1 0
vt 0 0
vt 0 1
vt 1 1
vt 1 0
vt 0 0
vt 0 1
vt 1 1
vt 1 0
vt 0 0
vt 0 1
vt 1 1
vt 1 0
vt 0 0
vt 0 1
vt 1 1
vt 1 0
vt 0 0
vt 0 1
vt 1 1
vt 1 0
vt 0 0
vt 0 1
vt 1 1
vt 1 0
vn 0 0 1
vn 0 0 1
vn 0 0 1
vn 0 0 1
vn 0 1 0
vn 0 1 0
vn 0 1 0
vn 0 1 0
vn 0 0 -1
vn 0 0 -1
vn 0 0 -1
vn 0 0 -1
vn 0 -1 0
vn 0 -1 0
vn 0 -1 0
vn 0 -1 0
vn 1 0 0
vn 1 0 0
vn 1 0 0
vn 1 0 0
vn -1 0 0
vn -1 0 0
vn -1 0 0
vn -1 0 0
vn 0 0 1
vn 0 0 1
vn 0 0 1
vn 0 0 1
vn 0 1 0
vn 0 1 0
vn 0 1 0
vn 0 1 0
vn 0 0 -1
vn 0 0 -1
vn 0 0 -1
vn 0 0 -1
vn 0 -1 0
vn 0 -1 0
vn 0 -1 0
vn 0 -1 0
vn 1 0 0
vn 1 0 0
vn 1 0 0
vn 1 0 0
vn -1 0 0
vn -1 0 0
vn -1 0 0
vn -1 0 0
vn -0.5945426 0 0.8040641
vn -0.5945426 0 0.8040641
vn -0.5945427 0 0.804064
vn -0.5945426 0 0.8040641
vn 0.01883585 0.9997143 0.01471172
vn 0.01883585 0.9997143 0.01471172
vn 0.01883585 0.9997143 0.01471172
vn 0.01883585 0.9997143 0.01471172
vn 0.5937314 0 -0.8046634
vn 0.5937314 0 -0.8046632
vn 0.5937314 0 -0.8046634
vn 0.5937314 0 -0.8046632
vn -0.01883581 -0.9997143 -0.01471172
vn -0.01883581 -0.9997143 -0.01471172
vn -0.01883581 -0.9997143 -0.01471172
vn -0.01883581 -0.9997143 -0.01471172
vn -0.2442327 0 0.9697167
vn -0.2442327 0 0.9697167
vn -0.2442327 0 0.9697167
vn -0.2442327 0 0.9697167
vn -0.02076377 0.9997575 -0.007335504
vn -0.02076377 0.9997575 -0.007335505
vn -0.02076377 0.9997575 -0.007335505
vn -0.02076377 0.9997575 -0.007335504
vn 0.2407876 0 -0.9705778
vn 0.2407876 0 -0.9705778
vn 0.2407876 0 -0.9705778
vn 0.2407876 0 -0.9705778
vn 0.02076377 -0.9997575 0.007335505
vn 0.02076377 -0.9997575 0.007335505
vn 0.02076377 -0.9997575 0.007335504
vn 0.02076377 -0.9997575 0.007335505
vn -0.5808995 0 0.8139754
vn -0.5808995 0 0.8139754
vn -0.5808995 0 0.8139754
vn -0.5808995 0 0.8139754
vn 0 1 1.666939E-06
vn 0 1 1.666939E-06
vn 0 1 1.666939E-06
vn 0 1 1.666939E-06
vn 0.5821096 0 -0.8131104
vn 0.5821096 0 -0.8131104
vn 0.5821096 0 -0.8131104
vn 0.5821096 0 -0.8131104
vn 0 -1 1.666939E-06
vn 0 -1 1.666939E-06
vn 0 -1 1.666939E-06
vn 0 -1 1.666939E-06
vn -0.2329268 0 0.9724942
vn -0.2329268 0 0.9724942
vn -0.2329268 0 0.9724942
vn -0.2329268 0 0.9724942
vn 0 1 0
vn 0 1 0
vn 0 1 0
vn 0 1 0
vn 0.233643 0 -0.9723225
vn 0.233643 0 -0.9723225
vn 0.233643 0 -0.9723225
vn 0.233643 0 -0.9723225
vn 0 -1 0
vn 0 -1 0
vn 0 -1 0
vn 0 -1 0
vn -0.8020213 0 0.5972955
vn -0.8020213 0 0.5972955
vn -0.8020213 0 0.5972955
vn -0.8020213 0 0.5972955
vn 0 1 0
vn 0 1 0
vn 0 1 0
vn 0 1 0
vn 0.8012018 0 -0.5983942
vn 0.8012018 0 -0.5983942
vn 0.8012018 0 -0.5983942
vn 0.8012018 0 -0.5983942
vn 0 -1 1.006696E-06
vn 0 -1 1.006697E-06
vn 0 -1 1.006697E-06
vn 0 -1 1.006697E-06
vn -0.8012432 0 0.5983388
vn -0.8012432 0 0.5983388
vn -0.8012432 0 0.5983387
vn -0.8012432 0 0.5983388
vn 0.03093261 0.9985484 0.04409131
vn 0.03093261 0.9985484 0.04409131
vn 0.03093261 0.9985484 0.04409132
vn 0.03093261 0.9985484 0.04409132
vn 0.8004933 0 -0.5993417
vn 0.8004933 0 -0.5993417
vn 0.8004932 0 -0.5993418
vn 0.8004933 0 -0.5993417
vn -0.03093256 -0.9985484 -0.04409115
vn -0.03093256 -0.9985484 -0.04409115
vn -0.03093256 -0.9985484 -0.04409116
vn -0.03093256 -0.9985484 -0.04409115
vn -0.9573014 0 0.2890916
vn -0.9573014 0 0.2890916
vn -0.9573014 0 0.2890916
vn -0.9573014 0 0.2890916
vn 0 1 0
vn 0 1 0
vn 0 1 0
vn 0 1 0
vn 0.9571347 0 -0.2896432
vn 0.9571347 0 -0.2896432
vn 0.9571347 0 -0.2896432
vn 0.9571347 0 -0.2896432
vn 0 -1 3.944735E-07
vn 0 -1 3.944736E-07
vn 0 -1 3.944735E-07
vn 0 -1 3.944736E-07
vn -0.9565046 0 0.2917171
vn -0.9565046 0 0.2917171
vn -0.9565046 0 0.2917171
vn -0.9565046 0 0.2917171
vn 0 1 0
vn 0 1 0
vn 0 1 0
vn 0 1 0
vn 0.9563251 0 -0.2923052
vn 0.9563251 0 -0.2923052
vn 0.9563251 0 -0.2923052
vn 0.9563251 0 -0.2923052
vn 0 -1 0
vn 0 -1 0
vn 0 -1 0
vn 0 -1 0
g canvaskit_wall_corner_x2_COL_0
f 3/3/3 2/2/2 1/1/1
f 4/4/4 3/3/3 1/1/1
f 7/7/7 6/6/6 5/5/5
f 8/8/8 7/7/7 5/5/5
f 11/11/11 10/10/10 9/9/9
f 12/12/12 11/11/11 9/9/9
f 15/15/15 14/14/14 13/13/13
f 16/16/16 15/15/15 13/13/13
f 19/19/19 18/18/18 17/17/17
f 20/20/20 19/19/19 17/17/17
f 23/23/23 22/22/22 21/21/21
f 24/24/24 23/23/23 21/21/21
f 27/27/27 26/26/26 25/25/25
f 28/28/28 27/27/27 25/25/25
f 31/31/31 30/30/30 29/29/29
f 32/32/32 31/31/31 29/29/29
f 35/35/35 34/34/34 33/33/33
f 36/36/36 35/35/35 33/33/33
f 39/39/39 38/38/38 37/37/37
f 40/40/40 39/39/39 37/37/37
f 43/43/43 42/42/42 41/41/41
f 44/44/44 43/43/43 41/41/41
f 47/47/47 46/46/46 45/45/45
f 48/48/48 47/47/47 45/45/45
f 51/51/51 50/50/50 49/49/49
f 52/52/52 51/51/51 49/49/49
f 55/55/55 54/54/54 53/53/53
f 56/56/56 55/55/55 53/53/53
f 59/59/59 58/58/58 57/57/57
f 60/60/60 59/59/59 57/57/57
f 63/63/63 62/62/62 61/61/61
f 64/64/64 63/63/63 61/61/61
f 67/67/67 66/66/66 65/65/65
f 68/68/68 67/67/67 65/65/65
f 71/71/71 70/70/70 69/69/69
f 72/72/72 71/71/71 69/69/69
f 75/75/75 74/74/74 73/73/73
f 76/76/76 75/75/75 73/73/73
f 79/79/79 78/78/78 77/77/77
f 80/80/80 79/79/79 77/77/77
f 83/83/83 82/82/82 81/81/81
f 84/84/84 83/83/83 81/81/81
f 87/87/87 86/86/86 85/85/85
f 88/88/88 87/87/87 85/85/85
f 91/91/91 90/90/90 89/89/89
f 92/92/92 91/91/91 89/89/89
f 95/95/95 94/94/94 93/93/93
f 96/96/96 95/95/95 93/93/93
f 99/99/99 98/98/98 97/97/97
f 100/100/100 99/99/99 97/97/97
f 103/103/103 102/102/102 101/101/101
f 104/104/104 103/103/103 101/101/101
f 107/107/107 106/106/106 105/105/105
f 108/108/108 107/107/107 105/105/105
f 111/111/111 110/110/110 109/109/109
f 112/112/112 111/111/111 109/109/109
f 115/115/115 114/114/114 113/113/113
f 116/116/116 115/115/115 113/113/113
f 119/119/119 118/118/118 117/117/117
f 120/120/120 119/119/119 117/117/117
f 123/123/123 122/122/122 121/121/121
f 124/124/124 123/123/123 121/121/121
f 127/127/127 126/126/126 125/125/125
f 128/128/128 127/127/127 125/125/125
f 131/131/131 130/130/130 129/129/129
f 132/132/132 131/131/131 129/129/129
f 135/135/135 134/134/134 133/133/133
f 136/136/136 135/135/135 133/133/133
f 139/139/139 138/138/138 137/137/137
f 140/140/140 139/139/139 137/137/137
f 143/143/143 142/142/142 141/141/141
f 144/144/144 143/143/143 141/141/141
f 147/147/147 146/146/146 145/145/145
f 148/148/148 147/147/147 145/145/145
f 151/151/151 150/150/150 149/149/149
f 152/152/152 151/151/151 149/149/149
f 155/155/155 154/154/154 153/153/153
f 156/156/156 155/155/155 153/153/153
f 159/159/159 158/158/158 157/157/157
f 160/160/160 159/159/159 157/157/157
f 163/163/163 162/162/162 161/161/161
f 164/164/164 163/163/163 161/161/161
f 167/167/167 166/166/166 165/165/165
f 168/168/168 167/167/167 165/165/165
f 171/171/171 170/170/170 169/169/169
f 172/172/172 171/171/171 169/169/169
f 175/175/175 174/174/174 173/173/173
f 176/176/176 175/175/175 173/173/173
