g canvaskit_canvas_x3_COL
v 0.004731518 0.183687 -0.009948292
v 2.611193 0.2999481 -0.01434185
v 2.615423 0.6383802 -2.625093
v 0.004731518 0.4911909 -2.625093
v -2.603456 0.2984023 -0.01434185
v 2.611189 1.687222 -5.23581
v -2.610057 0.6372266 -2.625093
v 0.004731518 1.333713 -5.240157
v -2.603456 1.684907 -5.23581
v 0.004731518 0.2126425 -0.009948292
v 2.615423 0.6673357 -2.625093
v 2.611193 0.3289036 -0.01434185
v 0.004731518 0.5201465 -2.625093
v -2.603456 0.3273578 -0.01434185
v 2.611189 1.716178 -5.23581
v -2.610057 0.6661822 -2.625093
v 0.004731518 1.362668 -5.240157
v -2.603456 1.713863 -5.23581
vt 0.5010991 0.09259366
vt 0.9065069 0.09333619
vt 0.9072787 0.4998084
vt 0.5010991 0.4998083
vt 0.09431055 0.09333619
vt 0.9065069 0.9063516
vt 0.09396678 0.4998084
vt 0.5010991 0.9072089
vt 0.09431055 0.9063516
vt 0.5010991 0.09259366
vt 0.9072787 0.4998084
vt 0.9065069 0.09333619
vt 0.5010991 0.4998083
vt 0.09431055 0.09333619
vt 0.9065069 0.9063516
vt 0.09396678 0.4998084
vt 0.5010991 0.9072089
vt 0.09431055 0.9063516
vn 0.0002554846 -0.9924493 -0.1226555
vn 0.04995012 -0.9912137 -0.1224764
vn 0.07126372 -0.9690609 -0.2363098
vn 0.000284964 -0.9719781 -0.2350716
vn -0.04938317 -0.9912351 -0.1225317
vn 0.09015563 -0.9364554 -0.3390035
vn -0.07061441 -0.9691218 -0.2362551
vn 0.0003205948 -0.9403115 -0.3403149
vn -0.08944403 -0.9365695 -0.3388765
vn -0.000255462 0.9924493 0.1226555
vn -0.07126376 0.9690609 0.23631
vn -0.0499501 0.9912137 0.1224766
vn -0.0002849725 0.9719781 0.2350717
vn 0.0493832 0.9912353 0.1225316
vn -0.09015571 0.9364554 0.3390035
vn 0.07061444 0.9691218 0.2362551
vn -0.0003206299 0.9403114 0.340315
vn 0.08944404 0.9365695 0.3388767
g canvaskit_canvas_x3_COL_0
f 3/3/3 2/2/2 1/1/1
f 4/4/4 3/3/3 1/1/1
f 1/1/1 5/5/5 4/4/4
f 3/3/3 4/4/4 6/6/6
f 5/5/5 7/7/7 4/4/4
f 4/4/4 8/8/8 6/6/6
f 4/4/4 7/7/7 8/8/8
f 7/7/7 9/9/9 8/8/8
f 12/12/12 11/11/11 10/10/10
f 11/11/11 13/13/13 10/10/10
f 14/14/14 10/10/10 13/13/13
f 13/13/13 11/11/11 15/15/15
f 16/16/16 14/14/14 13/13/13
f 17/17/17 13/13/13 15/15/15
f 16/16/16 13/13/13 17/17/17
f 18/18/18 16/16/16 17/17/17
