g COL_mushroomCap01
v 3.888776 -0.09326965 -4.589925
v 2.898967 1.272687 -3.464801
v -2.465711E-07 1.272687 -4.829753
v -3.300703E-07 -0.09326965 -6.420914
v -2.898967 1.272687 -3.464801
v -3.888776 -0.09326965 -4.589925
v -4.099762 1.272687 -0.1695264
v -5.499565 -0.09326965 -0.1695264
v -2.898967 1.272687 3.125747
v -3.888776 -0.09326965 4.250873
v -2.465711E-07 1.272687 4.490701
v -3.300703E-07 -0.09326965 6.081865
v 2.898967 1.272687 3.125748
v 3.888776 -0.09326965 4.250873
v 4.099762 1.272687 -0.1695264
v 5.499565 -0.09326965 -0.1695264
v 2.898967 1.272687 -3.464801
v 3.888776 -0.09326965 -4.589925
v -3.300703E-07 -0.09326965 -6.420914
v -3.19066E-07 -1.598044 -0.1695264
v 3.888776 -0.09326965 -4.589925
v -3.888776 -0.09326965 -4.589925
v 5.499565 -0.09326965 -0.1695264
v -5.499565 -0.09326965 -0.1695264
v 3.888776 -0.09326965 4.250873
v -3.888776 -0.09326965 4.250873
v -3.300703E-07 -0.09326965 6.081865
v 2.898967 1.272687 -3.464801
v -3.19066E-07 2.653151 -0.1695264
v -2.465711E-07 1.272687 -4.829753
v 4.099762 1.272687 -0.1695264
v -2.898967 1.272687 -3.464801
v 2.898967 1.272687 3.125748
v -4.099762 1.272687 -0.1695264
v -2.465711E-07 1.272687 4.490701
v -2.898967 1.272687 3.125747
vt 0.375 0.3125
vt 0.375 0.6884398
vt 0.40625 0.6884398
vt 0.40625 0.3125
vt 0.4375 0.6884398
vt 0.4375 0.3125
vt 0.46875 0.6884398
vt 0.46875 0.3125
vt 0.5 0.6884398
vt 0.5 0.3125
vt 0.53125 0.6884398
vt 0.53125 0.3125
vt 0.5625 0.6884398
vt 0.5625 0.3125
vt 0.59375 0.6884398
vt 0.59375 0.3125
vt 0.625 0.6884398
vt 0.625 0.3125
vt 0.5 1.490116E-08
vt 0.5 0.15
vt 0.6104854 0.04576458
vt 0.3895146 0.04576458
vt 0.65625 0.15625
vt 0.34375 0.15625
vt 0.6104854 0.2667354
vt 0.3895146 0.2667354
vt 0.5 0.3125
vt 0.6104854 0.9542354
vt 0.5 0.8375
vt 0.5 1
vt 0.65625 0.84375
vt 0.3895146 0.9542354
vt 0.6104854 0.7332646
vt 0.34375 0.84375
vt 0.5 0.6875
vt 0.3895146 0.7332646
vn 0.5852927 -0.5994789 -0.5459464
vn 0.4114153 0.8382894 -0.3577826
vn 0 0.851351 -0.5245966
vn 0 -0.6202372 -0.7844142
vn -0.4114152 0.8382894 -0.3577825
vn -0.5852928 -0.5994787 -0.5459465
vn -0.5631996 0.8263209 0
vn -0.815684 -0.5784977 0
vn -0.4114152 0.8382894 0.3577823
vn -0.5852929 -0.5994787 0.5459464
vn 0 0.8513511 0.5245963
vn 0 -0.6202372 0.7844143
vn 0.4114152 0.8382895 0.3577825
vn 0.5852929 -0.5994787 0.5459464
vn 0.5631997 0.8263209 0
vn 0.8156839 -0.5784979 0
vn 0.4114153 0.8382894 -0.3577826
vn 0.5852927 -0.5994789 -0.5459464
vn 0 -0.6202372 -0.7844142
vn 0 -1 0
vn 0.5852927 -0.5994789 -0.5459464
vn -0.5852928 -0.5994787 -0.5459465
vn 0.8156839 -0.5784979 0
vn -0.815684 -0.5784977 0
vn 0.5852929 -0.5994787 0.5459464
vn -0.5852929 -0.5994787 0.5459464
vn 0 -0.6202372 0.7844143
vn 0.4114153 0.8382894 -0.3577826
vn 0 1 0
vn 0 0.851351 -0.5245966
vn 0.5631997 0.8263209 0
vn -0.4114152 0.8382894 -0.3577825
vn 0.4114152 0.8382895 0.3577825
vn -0.5631996 0.8263209 0
vn 0 0.8513511 0.5245963
vn -0.4114152 0.8382894 0.3577823
g COL_mushroomCap01_0
f 3/3/3 2/2/2 1/1/1
f 4/4/4 3/3/3 1/1/1
f 5/5/5 3/3/3 4/4/4
f 6/6/6 5/5/5 4/4/4
f 7/7/7 5/5/5 6/6/6
f 8/8/8 7/7/7 6/6/6
f 9/9/9 7/7/7 8/8/8
f 10/10/10 9/9/9 8/8/8
f 11/11/11 9/9/9 10/10/10
f 12/12/12 11/11/11 10/10/10
f 13/13/13 11/11/11 12/12/12
f 14/14/14 13/13/13 12/12/12
f 15/15/15 13/13/13 14/14/14
f 16/16/16 15/15/15 14/14/14
f 17/17/17 15/15/15 16/16/16
f 18/18/18 17/17/17 16/16/16
f 21/21/21 20/20/20 19/19/19
f 19/19/19 20/20/20 22/22/22
f 23/23/23 20/20/20 21/21/21
f 22/22/22 20/20/20 24/24/24
f 25/25/25 20/20/20 23/23/23
f 24/24/24 20/20/20 26/26/26
f 27/27/27 20/20/20 25/25/25
f 26/26/26 20/20/20 27/27/27
f 30/30/30 29/29/29 28/28/28
f 28/28/28 29/29/29 31/31/31
f 32/32/32 29/29/29 30/30/30
f 31/31/31 29/29/29 33/33/33
f 34/34/34 29/29/29 32/32/32
f 33/33/33 29/29/29 35/35/35
f 36/36/36 29/29/29 34/34/34
f 35/35/35 29/29/29 36/36/36
