g COL_mushroomCap02
v 3.027642 -0.2530963 -3.611068
v 2.257017 0.7909729 -2.735092
v -1.919702E-07 0.7909729 -3.797788
v -2.569792E-07 -0.2530963 -5.036601
v -2.257017 0.7909729 -2.735092
v -3.027642 -0.2530963 -3.611068
v -3.191907 0.7909729 -0.169526
v -4.281737 -0.2530963 -0.169526
v -2.257017 0.7909729 2.396039
v -3.027642 -0.2530963 3.272017
v -1.919702E-07 0.7909729 3.458736
v -2.569792E-07 -0.2530963 4.697552
v 2.257017 0.7909729 2.396039
v 3.027642 -0.2530963 3.272017
v 3.191907 0.7909729 -0.169526
v 4.281737 -0.2530963 -0.169526
v 2.257017 0.7909729 -2.735092
v 3.027642 -0.2530963 -3.611068
v -2.569792E-07 -0.2530963 -5.036601
v -2.484118E-07 -1.75787 -0.169526
v 3.027642 -0.2530963 -3.611068
v -3.027642 -0.2530963 -3.611068
v 4.281737 -0.2530963 -0.169526
v -4.281737 -0.2530963 -0.169526
v 3.027642 -0.2530963 3.272017
v -3.027642 -0.2530963 3.272017
v -2.569792E-07 -0.2530963 4.697552
v 2.257017 0.7909729 -2.735092
v -2.484118E-07 1.963284 -0.169526
v -1.919702E-07 0.7909729 -3.797788
v 3.191907 0.7909729 -0.169526
v -2.257017 0.7909729 -2.735092
v 2.257017 0.7909729 2.396039
v -3.191907 0.7909729 -0.169526
v -1.919702E-07 0.7909729 3.458736
v -2.257017 0.7909729 2.396039
vt 0.375 0.3125
vt 0.375 0.6884398
vt 0.40625 0.6884398
vt 0.40625 0.3125
vt 0.4375 0.6884398
vt 0.4375 0.3125
vt 0.46875 0.6884398
vt 0.46875 0.3125
vt 0.5 0.6884398
vt 0.5 0.3125
vt 0.53125 0.6884398
vt 0.53125 0.3125
vt 0.5625 0.6884398
vt 0.5625 0.3125
vt 0.59375 0.6884398
vt 0.59375 0.3125
vt 0.625 0.6884398
vt 0.625 0.3125
vt 0.5 1.490116E-08
vt 0.5 0.15
vt 0.6104854 0.04576458
vt 0.3895146 0.04576458
vt 0.65625 0.15625
vt 0.34375 0.15625
vt 0.6104854 0.2667354
vt 0.3895146 0.2667354
vt 0.5 0.3125
vt 0.6104854 0.9542354
vt 0.5 0.8375
vt 0.5 1
vt 0.65625 0.84375
vt 0.3895146 0.9542354
vt 0.6104854 0.7332646
vt 0.34375 0.84375
vt 0.5 0.6875
vt 0.3895146 0.7332646
vn 0.6006383 -0.5698754 -0.5607812
vn 0.4126115 0.8370138 -0.359388
vn 0 0.850411 -0.5261189
vn 0 -0.591279 -0.8064671
vn -0.4126115 0.8370138 -0.3593879
vn -0.6006383 -0.5698754 -0.5607813
vn -0.5655938 0.8246839 0
vn -0.8361905 -0.5484391 0
vn -0.4126115 0.8370139 0.3593877
vn -0.6006383 -0.5698753 0.5607813
vn 0 0.8504112 0.5261186
vn 0 -0.5912791 0.8064669
vn 0.4126115 0.8370139 0.3593877
vn 0.6006383 -0.5698755 0.5607811
vn 0.5655937 0.8246841 0
vn 0.8361903 -0.5484393 0
vn 0.4126115 0.8370138 -0.359388
vn 0.6006383 -0.5698754 -0.5607812
vn 0 -0.591279 -0.8064671
vn 0 -1 0
vn 0.6006383 -0.5698754 -0.5607812
vn -0.6006383 -0.5698754 -0.5607813
vn 0.8361903 -0.5484393 0
vn -0.8361905 -0.5484391 0
vn 0.6006383 -0.5698755 0.5607811
vn -0.6006383 -0.5698753 0.5607813
vn 0 -0.5912791 0.8064669
vn 0.4126115 0.8370138 -0.359388
vn 0 1 0
vn 0 0.850411 -0.5261189
vn 0.5655937 0.8246841 0
vn -0.4126115 0.8370138 -0.3593879
vn 0.4126115 0.8370139 0.3593877
vn -0.5655938 0.8246839 0
vn 0 0.8504112 0.5261186
vn -0.4126115 0.8370139 0.3593877
g COL_mushroomCap02_0
f 3/3/3 2/2/2 1/1/1
f 4/4/4 3/3/3 1/1/1
f 5/5/5 3/3/3 4/4/4
f 6/6/6 5/5/5 4/4/4
f 7/7/7 5/5/5 6/6/6
f 8/8/8 7/7/7 6/6/6
f 9/9/9 7/7/7 8/8/8
f 10/10/10 9/9/9 8/8/8
f 11/11/11 9/9/9 10/10/10
f 12/12/12 11/11/11 10/10/10
f 13/13/13 11/11/11 12/12/12
f 14/14/14 13/13/13 12/12/12
f 15/15/15 13/13/13 14/14/14
f 16/16/16 15/15/15 14/14/14
f 17/17/17 15/15/15 16/16/16
f 18/18/18 17/17/17 16/16/16
f 21/21/21 20/20/20 19/19/19
f 19/19/19 20/20/20 22/22/22
f 23/23/23 20/20/20 21/21/21
f 22/22/22 20/20/20 24/24/24
f 25/25/25 20/20/20 23/23/23
f 24/24/24 20/20/20 26/26/26
f 27/27/27 20/20/20 25/25/25
f 26/26/26 20/20/20 27/27/27
f 30/30/30 29/29/29 28/28/28
f 28/28/28 29/29/29 31/31/31
f 32/32/32 29/29/29 30/30/30
f 31/31/31 29/29/29 33/33/33
f 34/34/34 29/29/29 32/32/32
f 33/33/33 29/29/29 35/35/35
f 36/36/36 29/29/29 34/34/34
f 35/35/35 29/29/29 36/36/36
