g exterior_arch3
v -15.29111 3.676171 -0.471936
v -15.54991 2.002539 -0.471936
v -15.28213 1.964822 -0.471936
v -15.0257 3.626177 -0.471936
v -14.84014 5.461078 -0.5203735
v -14.58437 5.3747 -0.5129028
v -14.67417 5.881753 -0.5631885
v -14.42076 5.789414 -0.5551123
v -14.46243 5.892179 -0.5629395
v -15.59831 0.12713 -0.7029638
v -15.59831 1.526618E-07 -0.7029638
v -15.26084 -3.053235E-07 -0.7029638
v -15.26084 0.1271298 -0.7029638
v -15.29111 3.676171 -0.2168164
v -15.28213 1.964822 -0.2168164
v -15.54991 2.002539 -0.2168164
v -15.0257 3.626177 -0.2168164
v -14.83898 5.486458 -0.266521
v -14.58321 5.400079 -0.2590527
v -14.41961 5.814795 -0.3012622
v -14.67301 5.907133 -0.3093384
v -14.45913 5.964482 -0.3183032
v -14.67301 5.907133 -0.3093384
v -14.84014 5.461078 -0.5203735
v -14.67417 5.881753 -0.5631885
v -14.83898 5.486458 -0.266521
v -15.29111 3.676171 -0.471936
v -15.29111 3.676171 -0.2168164
v -15.54991 2.002539 -0.471936
v -15.54991 2.002539 -0.2168164
v -14.58321 5.400079 -0.2590527
v -14.41961 5.814795 -0.3012622
v -14.42076 5.789414 -0.5551123
v -14.58437 5.3747 -0.5129028
v -15.0257 3.626177 -0.2168164
v -15.0257 3.626177 -0.471936
v -15.28213 1.964822 -0.2168164
v -15.28213 1.964822 -0.471936
v -15.26084 -3.053235E-07 -0.2168164
v -15.26084 0.1271298 -0.7029638
v -15.26084 -3.053235E-07 -0.7029638
v -15.26084 0.1271298 -0.2168164
v -15.26084 0.620027 -0.5615063
v -15.26084 0.620027 -0.2168164
v -15.26084 0.1271298 0
v -15.26084 -3.053235E-07 0
v -15.26084 0.620027 0
v -15.26084 -3.053235E-07 0.2168164
v -15.26084 0.1271298 0.2168164
v -15.26084 0.620027 0.2168164
v -15.26084 0.1271298 0.7029638
v -15.26084 -3.053235E-07 0.7029638
v -15.26084 0.620027 0.5615063
v -15.29797 3.676171 0.471936
v -15.28899 1.964822 0.471936
v -15.55689 2.002539 0.471936
v -15.03245 3.626177 0.471936
v -14.87234 5.463297 0.471936
v -14.61279 5.388288 0.471936
v -14.30975 6.276504 0.471936
v -14.56493 6.364275 0.471936
v -14.47296 6.425471 0.4701977
v -15.26084 0.1271298 0.7029638
v -15.26084 -3.053235E-07 0.7029638
v -15.59831 1.526618E-07 0.7029638
v -15.59831 0.12713 0.7029638
v -15.29797 3.676171 0.2168164
v -15.55689 2.002539 0.2168164
v -15.28899 1.964822 0.2168164
v -15.03245 3.626177 0.2168164
v -14.87234 5.463297 0.2168164
v -14.61279 5.388288 0.2168164
v -14.56493 6.364275 0.2168164
v -14.30975 6.276504 0.2168164
v -14.50165 6.394854 0.2185522
v -14.61279 5.388288 0.2168164
v -14.30975 6.276504 0.471936
v -14.30975 6.276504 0.2168164
v -14.61279 5.388288 0.471936
v -15.03245 3.626177 0.2168164
v -15.03245 3.626177 0.471936
v -15.28899 1.964822 0.2168164
v -15.28899 1.964822 0.471936
v -15.29797 3.676171 0.2168164
v -15.55689 2.002539 0.471936
v -15.55689 2.002539 0.2168164
v -15.29797 3.676171 0.471936
v -14.87234 5.463297 0.2168164
v -14.87234 5.463297 0.471936
v -14.56493 6.364275 0.471936
v -14.56493 6.364275 0.2168164
v -14.47296 6.425471 0.4701977
v -14.50165 6.394854 0.2185522
v -15.59831 0.12713 0.7029638
v -15.59831 1.526618E-07 0.7029638
v -15.59831 1.526618E-07 0.2168164
v -15.59831 0.1271299 0.2168164
v -15.59831 0.620027 0.5615063
v -15.59831 0.620027 0.2168164
v -15.59831 0.12713 0
v -15.59831 1.526618E-07 0
v -15.59831 0.620027 0
v -15.59831 1.526618E-07 -0.2168213
v -15.59831 0.1271299 -0.2168164
v -15.59831 1.526618E-07 -0.7029638
v -15.59831 0.620027 -0.2168188
v -15.59831 0.12713 -0.7029638
v -15.59831 0.620027 -0.5615063
v -15.28213 1.964822 -0.2168164
v -15.28556 1.808328 0
v -15.5534 1.846045 0
v -15.54991 2.002539 -0.2168164
v -15.55689 2.002539 0.2168164
v -15.5534 1.846045 0
v -15.28556 1.808328 0
v -15.28899 1.964822 0.2168164
v -15.56344 1.635594 -0.2168164
v -15.59831 1.604376 -0.4990893
v -15.56344 1.635594 -0.471936
v -15.59831 1.604376 -0.2168164
v -15.56693 1.632323 0
v -15.59831 1.604375 0
v -15.57043 1.635594 0.2168164
v -15.59831 1.604376 0.2168164
v -15.57043 1.635594 0.471936
v -15.59831 1.604376 0.4990893
v -15.56344 1.635594 -0.471936
v -15.59831 1.604376 -0.4990893
v -15.26084 1.604375 -0.4990893
v -15.29566 1.634806 -0.471936
v -15.26084 1.604375 -0.2168164
v -15.29566 1.634806 -0.471936
v -15.26084 1.604375 -0.4990893
v -15.29566 1.634806 -0.2168164
v -15.26084 1.604375 0
v -15.29909 1.631535 0
v -15.26084 1.604375 0.2168164
v -15.30252 1.634806 0.2168164
v -15.26084 1.604375 0.4990893
v -15.30252 1.634806 0.471936
v -15.30252 1.634806 0.471936
v -15.26084 1.604375 0.4990893
v -15.59831 1.604376 0.4990893
v -15.57043 1.635594 0.471936
v -15.59831 1.604376 -0.2168164
v -15.59831 0.620027 -0.5615063
v -15.59831 1.604376 -0.4990893
v -15.59831 0.620027 -0.2168188
v -15.59831 1.604375 0
v -15.59831 0.620027 0
v -15.59831 1.604376 0.2168164
v -15.59831 0.620027 0.2168164
v -15.59831 1.604376 0.4990893
v -15.59831 0.620027 0.5615063
v -15.59831 1.604376 -0.4990893
v -15.59831 0.620027 -0.5615063
v -15.26084 0.620027 -0.5615063
v -15.26084 1.604375 -0.4990893
v -15.26084 0.620027 -0.2168164
v -15.26084 1.604375 -0.4990893
v -15.26084 0.620027 -0.5615063
v -15.26084 1.604375 -0.2168164
v -15.26084 0.620027 0
v -15.26084 1.604375 0
v -15.26084 0.620027 0.2168164
v -15.26084 1.604375 0.2168164
v -15.26084 0.620027 0.5615063
v -15.26084 1.604375 0.4990893
v -15.26084 1.604375 0.4990893
v -15.26084 0.620027 0.5615063
v -15.59831 0.620027 0.5615063
v -15.59831 1.604376 0.4990893
v -15.54991 2.002539 -0.2168164
v -15.56344 1.635594 -0.471936
v -15.54991 2.002539 -0.471936
v -15.56344 1.635594 -0.2168164
v -15.56693 1.632323 0
v -15.5534 1.846045 0
v -15.28213 1.964822 -0.471936
v -15.54991 2.002539 -0.471936
v -15.56344 1.635594 -0.471936
v -15.29566 1.634806 -0.471936
v -15.29566 1.634806 -0.2168164
v -15.28213 1.964822 -0.471936
v -15.29566 1.634806 -0.471936
v -15.28213 1.964822 -0.2168164
v -15.29909 1.631535 0
v -15.28556 1.808328 0
v -15.28899 1.964822 0.2168164
v -15.28556 1.808328 0
v -15.29909 1.631535 0
v -15.30252 1.634806 0.2168164
v -15.30252 1.634806 0.471936
v -15.28899 1.964822 0.471936
v -15.28899 1.964822 0.471936
v -15.30252 1.634806 0.471936
v -15.57043 1.635594 0.471936
v -15.55689 2.002539 0.471936
v -15.55689 2.002539 0.2168164
v -15.55689 2.002539 0.471936
v -15.57043 1.635594 0.471936
v -15.57043 1.635594 0.2168164
v -15.56693 1.632323 0
v -15.5534 1.846045 0
v -15.59831 0.620027 -0.5615063
v -15.59831 0.12713 -0.7029638
v -15.26084 0.1271298 -0.7029638
v -15.26084 0.620027 -0.5615063
v -15.26084 0.620027 0.5615063
v -15.26084 0.1271298 0.7029638
v -15.59831 0.12713 0.7029638
v -15.59831 0.620027 0.5615063
v -14.45913 5.964482 -0.3183032
v -14.67301 5.907133 -0.3093384
v -14.67417 5.881753 -0.5631885
v -14.46243 5.892179 -0.5629395
v -14.41961 5.814795 -0.3012622
v -14.45913 5.964482 -0.3183032
v -14.46243 5.892179 -0.5629395
v -14.42076 5.789414 -0.5551123
v -14.30975 6.276504 0.471936
v -14.47296 6.425471 0.4701977
v -14.50165 6.394854 0.2185522
v -14.30975 6.276504 0.2168164
vt 1.090483 0.4682045
vt 1.032636 0.4681992
vt 1.032999 0.4512664
vt 1.090644 0.4512654
vt 1.156465 0.4682096
vt 1.15649 0.4512643
vt 1.173521 0.4682107
vt 1.173807 0.4512641
vt 1.177581 0.4597375
vt 0.1227707 0.373274
vt 0.1227708 0.3770462
vt 0.1126617 0.3770462
vt 0.1126615 0.373274
vt 0.3834728 0.407511
vt 0.3834728 0.4075139
vt 0.3834727 0.4075138
vt 0.3834729 0.4075111
vt 0.3834729 0.407508
vt 0.383473 0.4075081
vt 0.3834731 0.4075074
vt 0.383473 0.4075072
vt 0.383473 0.4075071
vt 0.5364522 0.4507223
vt 0.5666519 0.4688289
vt 0.5364522 0.4688289
vt 0.5666519 0.4507223
vt 0.6924478 0.4688289
vt 0.6924478 0.4507223
vt 0.8106754 0.4688291
vt 0.8106753 0.4507222
vt 0.2877007 0.4507023
vt 0.2573843 0.4507023
vt 0.2573842 0.4687614
vt 0.2877007 0.4687614
vt 0.4134751 0.4507021
vt 0.413475 0.4687613
vt 0.5316316 0.4507023
vt 0.5316315 0.4687614
vt 0.09801954 0.3770481
vt 0.1145868 0.3732859
vt 0.1145868 0.3770481
vt 0.09801954 0.3732859
vt 0.1103493 0.3648301
vt 0.09801954 0.3648301
vt 0.09361497 0.3732859
vt 0.09361497 0.3770481
vt 0.09361497 0.3648301
vt 0.08921039 0.3770481
vt 0.08921039 0.3732859
vt 0.08921039 0.3648301
vt 0.07247142 0.3732859
vt 0.07247142 0.3770481
vt 0.0767089 0.3648301
vt 1.090469 0.4682044
vt 1.032959 0.4512664
vt 1.032595 0.4681992
vt 1.090631 0.4512653
vt 1.156463 0.4682096
vt 1.156488 0.4512643
vt 1.192736 0.4512639
vt 1.192161 0.4682118
vt 1.19559 0.459738
vt 0.1098316 0.3732742
vt 0.1098316 0.3770461
vt 0.0978151 0.3770462
vt 0.0978151 0.3732741
vt 0.3834721 0.4075054
vt 0.383472 0.4075026
vt 0.3834721 0.4075025
vt 0.3834722 0.4075053
vt 0.3834723 0.4075084
vt 0.3834723 0.4075083
vt 0.3834723 0.40751
vt 0.3834724 0.4075098
vt 0.3834724 0.40751
vt 0.2877007 0.4507223
vt 0.2241693 0.4688291
vt 0.2241693 0.4507223
vt 0.2877007 0.4688291
vt 0.4134751 0.4507223
vt 0.413475 0.468829
vt 0.5316316 0.4507222
vt 0.5316316 0.4688291
vt 0.4133062 0.4507022
vt 0.5315337 0.4687613
vt 0.5315337 0.4507022
vt 0.4133062 0.4687611
vt 0.2875103 0.4507023
vt 0.2875103 0.4687613
vt 0.2242235 0.4687613
vt 0.2242235 0.4507023
vt 0.2186972 0.4687613
vt 0.2186972 0.4507023
vt 0.1145868 0.3732742
vt 0.1145868 0.3770462
vt 0.09801954 0.3770462
vt 0.09801954 0.3732742
vt 0.1103493 0.3648184
vt 0.09801954 0.3648184
vt 0.09361497 0.3732742
vt 0.09361497 0.3770462
vt 0.09361497 0.3648184
vt 0.08921033 0.3770462
vt 0.08921039 0.3732742
vt 0.07247142 0.3770462
vt 0.08921036 0.3648184
vt 0.07247142 0.3732742
vt 0.0767089 0.3648184
vt 0.3834728 0.4075139
vt 0.3834728 0.4075142
vt 0.3834727 0.4075141
vt 0.3834727 0.4075138
vt 0.383472 0.4075026
vt 0.383472 0.4075023
vt 0.3834721 0.4075022
vt 0.3834721 0.4075025
vt 0.08921039 0.3770471
vt 0.07857864 0.37328
vt 0.079392 0.3770471
vt 0.08921039 0.37328
vt 0.09361497 0.3770308
vt 0.09361497 0.37328
vt 0.09801954 0.3770471
vt 0.09801954 0.37328
vt 0.1076662 0.3770471
vt 0.1084796 0.37328
vt 0.1217262 0.3770472
vt 0.1227708 0.3732799
vt 0.1126617 0.3732799
vt 0.1137046 0.3770432
vt 0.09801954 0.3732918
vt 0.1076662 0.3770452
vt 0.1084796 0.3732918
vt 0.09801954 0.3770452
vt 0.09361497 0.3732918
vt 0.09361497 0.3770289
vt 0.08921039 0.3732918
vt 0.08921039 0.3770452
vt 0.07857858 0.3732918
vt 0.07939194 0.3770452
vt 0.108583 0.3770432
vt 0.1098316 0.3732799
vt 0.09781516 0.3732799
vt 0.09838158 0.3770472
vt 0.08921039 0.37328
vt 0.0767089 0.3648184
vt 0.07857864 0.37328
vt 0.08921036 0.3648184
vt 0.09361497 0.37328
vt 0.09361497 0.3648184
vt 0.09801954 0.37328
vt 0.09801954 0.3648184
vt 0.1084796 0.37328
vt 0.1103493 0.3648184
vt 0.1227708 0.3732799
vt 0.1227705 0.3648184
vt 0.1126617 0.3648184
vt 0.1126617 0.3732799
vt 0.09801954 0.3648301
vt 0.1084796 0.3732918
vt 0.1103493 0.3648301
vt 0.09801954 0.3732918
vt 0.09361497 0.3648301
vt 0.09361497 0.3732918
vt 0.08921039 0.3648301
vt 0.08921039 0.3732918
vt 0.0767089 0.3648301
vt 0.07857858 0.3732918
vt 0.1098316 0.3732799
vt 0.1098316 0.3648184
vt 0.09781516 0.3648184
vt 0.09781516 0.3732799
vt 0.8106753 0.4507222
vt 0.835638 0.4688289
vt 0.8106754 0.4688291
vt 0.8356381 0.4507223
vt 0.8356422 0.4353489
vt 0.8220436 0.4353488
vt 1.032999 0.4512664
vt 1.032636 0.4681992
vt 1.021686 0.4681978
vt 1.022221 0.4512666
vt 0.5562972 0.4507023
vt 0.5316315 0.4687614
vt 0.5562971 0.4687614
vt 0.5316316 0.4507023
vt 0.5563014 0.4353397
vt 0.542448 0.4353396
vt 0.5316316 0.4507222
vt 0.542448 0.4353489
vt 0.5563013 0.4353489
vt 0.5562972 0.4507224
vt 0.5562972 0.4688291
vt 0.5316316 0.4688291
vt 1.032959 0.4512664
vt 1.022192 0.4512666
vt 1.021657 0.4681978
vt 1.032595 0.4681992
vt 0.5315337 0.4507022
vt 0.5315337 0.4687613
vt 0.5564964 0.4687613
vt 0.5564964 0.4507023
vt 0.5565006 0.4353396
vt 0.542902 0.4353397
vt 0.1227705 0.3648184
vt 0.1227707 0.373274
vt 0.1126615 0.373274
vt 0.1126617 0.3648184
vt 0.1098316 0.3648184
vt 0.1098316 0.3732742
vt 0.0978151 0.3732741
vt 0.09781516 0.3648184
vt 0.5295702 0.4507223
vt 0.5364522 0.4507223
vt 0.5364522 0.4688289
vt 0.5295702 0.4688289
vt 0.2573843 0.4507023
vt 0.2504757 0.4507023
vt 0.2504757 0.4687614
vt 0.2573842 0.4687614
vt 0.2241693 0.4688291
vt 0.2186217 0.4688291
vt 0.2186217 0.4507223
vt 0.2241693 0.4507223
vn 0.003717276 -0.01393751 -0.9998959
vn 0 0 -1
vn 0 0 -1
vn 0.003782299 -0.01418131 -0.9998924
vn 0.004858161 -0.04175129 -0.9991162
vn 0.004934014 -0.04128416 -0.9991353
vn -0.004326524 -0.09891228 -0.9950867
vn -0.004095806 -0.09828448 -0.99515
vn 0.004817003 -0.07400067 -0.9972465
vn 0 0 -1
vn 0 0 -1
vn 0 0 -1
vn 0 0 -1
vn -0.003700976 0.01420035 0.9998924
vn 0 0 1
vn 0 0 1
vn -0.003758932 0.01442272 0.9998889
vn -0.004811207 0.04186043 0.9991118
vn -0.004892449 0.0413588 0.9991325
vn 0.005030037 0.1008139 0.9948926
vn 0.004853786 0.1003343 0.9949419
vn 0.01056377 0.1158598 0.9932094
vn -0.930855 0.3639723 -0.03214379
vn -0.9636957 0.2666264 -0.01416854
vn -0.930855 0.3639722 -0.03214379
vn -0.9632037 0.2683819 -0.01448936
vn -0.9796396 0.200696 -0.005231482
vn -0.9797958 0.1999341 -0.005147912
vn -0.9912115 0.1322871 0
vn -0.9919612 0.1265421 7.218339E-05
vn 0.9632043 -0.268378 0.01451505
vn 0.9308588 -0.3639623 0.03214608
vn 0.9308588 -0.3639623 0.03214609
vn 0.963724 -0.2665241 0.01417666
vn 0.9798979 -0.1994343 0.005116195
vn 0.9797629 -0.2000945 0.005188495
vn 0.9915869 -0.1294425 -0.0002329757
vn 0.9909361 -0.1343341 0
vn 1 -8.741958E-06 -8.682545E-07
vn 1 -6.040121E-07 0
vn 1 -1.264078E-05 0
vn 1 0 -1.935038E-07
vn 1 1.712654E-06 0
vn 1 9.371723E-07 0
vn 1 0 -2.885993E-07
vn 1 0 -1.407531E-06
vn 1 0 0
vn 1 0 0
vn 1 1.94828E-06 0
vn 1 9.371723E-07 0
vn 1 2.790787E-06 0
vn 1 0 0
vn 1 1.712654E-06 0
vn 0 0 1
vn 0 0 1
vn 0 0 1
vn 0 0 1
vn 0 0 1
vn 0 0 1
vn 7.674622E-05 0.0002231237 1
vn 0.0001705092 0.00049572 0.9999999
vn 0.006439503 0.01872152 0.9998041
vn 0 0 1
vn 0 0 1
vn 0 0 1
vn 0 0 1
vn 0 0 -1
vn 0 0 -1
vn 0 0 -1
vn 0 0 -1
vn 0 0 -1
vn 0 0 -1
vn 0.0001468906 0.0004272014 -0.9999999
vn 4.183979E-05 0.000121782 -1
vn 0.01139919 0.03314155 -0.9993857
vn 0.9647743 -0.2630791 0
vn 0.9464305 -0.3229076 0
vn 0.9464305 -0.3229076 0
vn 0.9647743 -0.2630791 0
vn 0.9810462 -0.1937743 0
vn 0.9810462 -0.1937743 0
vn 0.9915783 -0.1294906 0.002154522
vn 0.9909282 -0.1343917 0
vn -0.980993 0.1940434 0
vn -0.9912039 0.1323434 0
vn -0.9919528 0.1265881 -0.002242989
vn -0.980993 0.1940434 0
vn -0.9647708 0.2630919 0
vn -0.9647708 0.2630919 0
vn -0.9266738 0.3758613 -0.002014732
vn -0.9267879 0.37558 -0.002003922
vn -0.5087208 0.8606191 -0.02319268
vn -0.5087207 0.8606191 -0.02319268
vn -1 2.093092E-06 0
vn -1 0 0
vn -1 0 0
vn -1 1.461211E-06 7.502358E-07
vn -1 1.110073E-06 1.073053E-06
vn -1 5.857327E-07 1.802295E-06
vn -1 0 0
vn -1 0 0
vn -1 0 0
vn -1 -4.463231E-06 0
vn -1 1.45096E-06 -7.502402E-07
vn -1 -6.453718E-06 0
vn -1 9.371754E-07 -1.802293E-06
vn -1 1.770011E-06 0
vn -1 1.79366E-06 -1.073056E-06
vn 0.1133373 0.8047654 0.5826725
vn 0.1394367 0.9901965 0.008263453
vn 0.1394404 0.9902244 -0.003464709
vn 0.1133373 0.8047655 0.5826725
vn 0.1135512 0.8064637 -0.580278
vn 0.1394404 0.9902244 -0.003464709
vn 0.1394367 0.9901965 0.008263453
vn 0.1135512 0.8064636 -0.580278
vn -0.666627 0.7453915 0.0001120558
vn -0.4224218 0.8173887 -0.3917083
vn -0.3725409 0.812184 -0.4489658
vn -0.6666237 0.7453944 0.0001129717
vn -0.6858262 0.727747 -0.005177178
vn -0.6859798 0.7276018 -0.005220114
vn -0.7285562 0.6849684 -0.004927216
vn -0.7285529 0.6849717 -0.004928124
vn -0.4151998 0.7815708 0.465571
vn -0.4207574 0.7817863 0.4601883
vn -0.3725409 0.812184 -0.4489658
vn -0.4224218 0.8173887 -0.3917083
vn 0.4149998 0.8205386 -0.3930543
vn 0.3650491 0.8144172 -0.4510696
vn 0.6407877 0.7677029 0.004852553
vn 0.3650491 0.8144172 -0.4510696
vn 0.4149998 0.8205386 -0.3930543
vn 0.6407754 0.7677131 0.004855951
vn 0.6014421 0.7989037 0.004490717
vn 0.6013014 0.7990099 0.004440417
vn 0.5874484 0.8092613 -0.0006504736
vn 0.5874658 0.8092487 -0.0006453724
vn 0.4080946 0.850601 0.3315671
vn 0.3315264 0.8370016 0.4353373
vn 0.3315264 0.8370016 0.4353373
vn 0.4080946 0.850601 0.3315671
vn -0.4207574 0.7817863 0.4601883
vn -0.4151998 0.7815708 0.465571
vn -1 -3.820533E-07 -2.30192E-06
vn -1 1.79366E-06 -1.073056E-06
vn -1 -6.462997E-07 -1.947018E-06
vn -1 9.371754E-07 -1.802293E-06
vn -1 0 0
vn -1 0 0
vn -1 -1.870818E-07 2.30192E-06
vn -1 5.857327E-07 1.802295E-06
vn -1 -3.164749E-07 1.94701E-06
vn -1 1.110073E-06 1.073053E-06
vn 0 0.06328239 -0.9979956
vn 0 0.1367145 -0.9906104
vn 0 0.1367145 -0.9906104
vn 0 0.06328239 -0.9979956
vn 1 9.371723E-07 0
vn 1 0 0
vn 1 1.712654E-06 0
vn 1 0 0
vn 1 0 0
vn 1 0 0
vn 1 9.371723E-07 0
vn 1 0 0
vn 1 1.712654E-06 0
vn 1 0 0
vn 0 0.06328239 0.9979956
vn 0 0.1367145 0.9906104
vn 0 0.1367145 0.9906104
vn 0 0.06328239 0.9979956
vn -0.9919612 0.1265421 7.218339E-05
vn -0.9993206 0.03685315 0
vn -0.9912115 0.1322871 0
vn -0.9991679 0.04078238 0.0004334146
vn -0.9987857 0.04656162 -0.01609918
vn -0.998786 0.04656163 -0.01608
vn 0 0 -1
vn 0 0 -1
vn 0 0 -1
vn 0 0 -1
vn 0.9989458 -0.04588103 -0.001525409
vn 0.9909361 -0.1343341 0
vn 0.9991603 -0.04097039 0
vn 0.9915869 -0.1294425 -0.0002329757
vn 0.9984521 -0.05332207 0.01581975
vn 0.9984524 -0.05332208 0.0157937
vn 0.9915783 -0.1294906 0.002154522
vn 0.9984524 -0.05332208 0.0157937
vn 0.9984521 -0.05332207 0.01581975
vn 0.9988476 -0.04588251 0.01408041
vn 0.9991599 -0.04097965 0
vn 0.9909282 -0.1343917 0
vn 0 0 1
vn 0 0 1
vn 0 0 1
vn 0 0 1
vn -0.9919528 0.1265881 -0.002242989
vn -0.9912039 0.1323434 0
vn -0.9993203 0.03686564 0
vn -0.9990774 0.04078689 -0.01344486
vn -0.9987857 0.04656162 -0.01609918
vn -0.998786 0.04656163 -0.01608
vn 0 0.1367145 -0.9906104
vn 0 0.2758569 -0.9611987
vn 0 0.2758569 -0.9611987
vn 0 0.1367145 -0.9906104
vn 0 0.1367145 0.9906104
vn 0 0.2758569 0.9611987
vn 0 0.2758569 0.9611987
vn 0 0.1367145 0.9906104
vn -0.1582036 0.9692434 -0.188517
vn -0.1582037 0.9692434 -0.188517
vn -0.1582036 0.9692434 -0.188517
vn -0.1582037 0.9692434 -0.188517
vn 0.9517345 0.2994781 -0.06718928
vn 0.9517345 0.2994781 -0.06718928
vn 0.9517345 0.2994781 -0.06718928
vn 0.9517345 0.2994781 -0.06718928
vn 0.5993873 0.7962435 -0.08204334
vn 0.5993873 0.7962435 -0.08204335
vn 0.5993873 0.7962435 -0.08204335
vn 0.5993873 0.7962435 -0.08204335
g exterior_arch3_0
f 3/3/3 2/2/2 1/1/1
f 4/4/4 3/3/3 1/1/1
f 4/4/4 1/1/1 5/5/5
f 6/6/6 4/4/4 5/5/5
f 6/6/6 5/5/5 7/7/7
f 8/8/8 6/6/6 7/7/7
f 8/8/8 7/7/7 9/9/9
f 12/12/12 11/11/11 10/10/10
f 13/13/13 12/12/12 10/10/10
f 16/16/16 15/15/15 14/14/14
f 15/15/15 17/17/17 14/14/14
f 14/14/14 17/17/17 18/18/18
f 17/17/17 19/19/19 18/18/18
f 18/18/18 19/19/19 20/20/20
f 21/21/21 18/18/18 20/20/20
f 21/21/21 20/20/20 22/22/22
f 25/25/25 24/24/24 23/23/23
f 24/24/24 26/26/26 23/23/23
f 24/24/24 27/27/27 26/26/26
f 27/27/27 28/28/28 26/26/26
f 27/27/27 29/29/29 28/28/28
f 29/29/29 30/30/30 28/28/28
f 33/33/33 32/32/32 31/31/31
f 34/34/34 33/33/33 31/31/31
f 34/34/34 31/31/31 35/35/35
f 36/36/36 34/34/34 35/35/35
f 36/36/36 35/35/35 37/37/37
f 38/38/38 36/36/36 37/37/37
f 41/41/41 40/40/40 39/39/39
f 40/40/40 42/42/42 39/39/39
f 40/40/40 43/43/43 42/42/42
f 43/43/43 44/44/44 42/42/42
f 42/42/42 45/45/45 39/39/39
f 42/42/42 44/44/44 45/45/45
f 45/45/45 46/46/46 39/39/39
f 44/44/44 47/47/47 45/45/45
f 48/48/48 46/46/46 45/45/45
f 49/49/49 45/45/45 47/47/47
f 49/49/49 48/48/48 45/45/45
f 50/50/50 49/49/49 47/47/47
f 49/49/49 51/51/51 48/48/48
f 49/49/49 50/50/50 51/51/51
f 51/51/51 52/52/52 48/48/48
f 50/50/50 53/53/53 51/51/51
f 56/56/56 55/55/55 54/54/54
f 55/55/55 57/57/57 54/54/54
f 54/54/54 57/57/57 58/58/58
f 57/57/57 59/59/59 58/58/58
f 58/58/58 59/59/59 60/60/60
f 61/61/61 58/58/58 60/60/60
f 61/61/61 60/60/60 62/62/62
f 65/65/65 64/64/64 63/63/63
f 66/66/66 65/65/65 63/63/63
f 69/69/69 68/68/68 67/67/67
f 70/70/70 69/69/69 67/67/67
f 70/70/70 67/67/67 71/71/71
f 72/72/72 70/70/70 71/71/71
f 72/72/72 71/71/71 73/73/73
f 74/74/74 72/72/72 73/73/73
f 74/74/74 73/73/73 75/75/75
f 78/78/78 77/77/77 76/76/76
f 77/77/77 79/79/79 76/76/76
f 76/76/76 79/79/79 80/80/80
f 79/79/79 81/81/81 80/80/80
f 80/80/80 81/81/81 82/82/82
f 81/81/81 83/83/83 82/82/82
f 86/86/86 85/85/85 84/84/84
f 85/85/85 87/87/87 84/84/84
f 84/84/84 87/87/87 88/88/88
f 87/87/87 89/89/89 88/88/88
f 88/88/88 89/89/89 90/90/90
f 91/91/91 88/88/88 90/90/90
f 91/91/91 90/90/90 92/92/92
f 93/93/93 91/91/91 92/92/92
f 96/96/96 95/95/95 94/94/94
f 97/97/97 96/96/96 94/94/94
f 97/97/97 94/94/94 98/98/98
f 99/99/99 97/97/97 98/98/98
f 97/97/97 100/100/100 96/96/96
f 97/97/97 99/99/99 100/100/100
f 100/100/100 101/101/101 96/96/96
f 99/99/99 102/102/102 100/100/100
f 103/103/103 101/101/101 100/100/100
f 104/104/104 100/100/100 102/102/102
f 104/104/104 103/103/103 100/100/100
f 105/105/105 103/103/103 104/104/104
f 106/106/106 104/104/104 102/102/102
f 107/107/107 105/105/105 104/104/104
f 107/107/107 104/104/104 106/106/106
f 108/108/108 107/107/107 106/106/106
f 111/111/111 110/110/110 109/109/109
f 112/112/112 111/111/111 109/109/109
f 115/115/115 114/114/114 113/113/113
f 116/116/116 115/115/115 113/113/113
f 119/119/119 118/118/118 117/117/117
f 118/118/118 120/120/120 117/117/117
f 117/117/117 120/120/120 121/121/121
f 120/120/120 122/122/122 121/121/121
f 123/123/123 121/121/121 122/122/122
f 124/124/124 123/123/123 122/122/122
f 123/123/123 124/124/124 125/125/125
f 124/124/124 126/126/126 125/125/125
f 129/129/129 128/128/128 127/127/127
f 130/130/130 129/129/129 127/127/127
f 133/133/133 132/132/132 131/131/131
f 132/132/132 134/134/134 131/131/131
f 131/131/131 134/134/134 135/135/135
f 134/134/134 136/136/136 135/135/135
f 137/137/137 135/135/135 136/136/136
f 138/138/138 137/137/137 136/136/136
f 137/137/137 138/138/138 139/139/139
f 138/138/138 140/140/140 139/139/139
f 143/143/143 142/142/142 141/141/141
f 144/144/144 143/143/143 141/141/141
f 147/147/147 146/146/146 145/145/145
f 146/146/146 148/148/148 145/145/145
f 145/145/145 148/148/148 149/149/149
f 148/148/148 150/150/150 149/149/149
f 151/151/151 149/149/149 150/150/150
f 152/152/152 151/151/151 150/150/150
f 151/151/151 152/152/152 153/153/153
f 152/152/152 154/154/154 153/153/153
f 157/157/157 156/156/156 155/155/155
f 158/158/158 157/157/157 155/155/155
f 161/161/161 160/160/160 159/159/159
f 160/160/160 162/162/162 159/159/159
f 159/159/159 162/162/162 163/163/163
f 162/162/162 164/164/164 163/163/163
f 165/165/165 163/163/163 164/164/164
f 166/166/166 165/165/165 164/164/164
f 165/165/165 166/166/166 167/167/167
f 166/166/166 168/168/168 167/167/167
f 171/171/171 170/170/170 169/169/169
f 172/172/172 171/171/171 169/169/169
f 175/175/175 174/174/174 173/173/173
f 174/174/174 176/176/176 173/173/173
f 176/176/176 177/177/177 173/173/173
f 177/177/177 178/178/178 173/173/173
f 181/181/181 180/180/180 179/179/179
f 182/182/182 181/181/181 179/179/179
f 185/185/185 184/184/184 183/183/183
f 184/184/184 186/186/186 183/183/183
f 183/183/183 186/186/186 187/187/187
f 186/186/186 188/188/188 187/187/187
f 191/191/191 190/190/190 189/189/189
f 192/192/192 191/191/191 189/189/189
f 192/192/192 189/189/189 193/193/193
f 189/189/189 194/194/194 193/193/193
f 197/197/197 196/196/196 195/195/195
f 198/198/198 197/197/197 195/195/195
f 201/201/201 200/200/200 199/199/199
f 202/202/202 201/201/201 199/199/199
f 202/202/202 199/199/199 203/203/203
f 199/199/199 204/204/204 203/203/203
f 207/207/207 206/206/206 205/205/205
f 208/208/208 207/207/207 205/205/205
f 211/211/211 210/210/210 209/209/209
f 212/212/212 211/211/211 209/209/209
f 215/215/215 214/214/214 213/213/213
f 216/216/216 215/215/215 213/213/213
f 219/219/219 218/218/218 217/217/217
f 220/220/220 219/219/219 217/217/217
f 223/223/223 222/222/222 221/221/221
f 224/224/224 223/223/223 221/221/221
