g exterior_arch2_COL
v -9.03145 14.07398 -0.4748398
v -8.031369 14.54777 0.5675856
v -7.884754 14.86957 -0.4748398
v -9.03145 13.98094 0.5233912
v -10.86485 12.30111 -0.4748398
v -10.86485 12.30111 0.4748398
v -12.43073 10.22534 -0.4748398
v -12.43073 10.22534 0.4748398
v -13.69051 7.897795 -0.4748398
v -13.69051 7.897795 0.4748398
v -14.61319 5.375779 -0.4748398
v -14.61319 5.375779 0.4748398
v -15.17605 2.721393 -0.4748398
v -15.17605 2.721393 0.4748398
v -15.26934 -2.364038E-06 -0.7169906
v -15.26934 -2.364038E-06 0.7169906
v -9.03145 13.98094 0.5233912
v -8.171811 14.81262 0.5675851
v -8.031369 14.54777 0.5675856
v -9.192317 14.23162 0.5233912
v -10.86485 12.30111 0.4748398
v -11.05837 12.52021 0.4748398
v -12.43073 10.22534 0.4748398
v -12.65214 10.40747 0.4748398
v -13.69051 7.897795 0.4748398
v -13.93436 8.038466 0.4748398
v -14.61319 5.375779 0.4748398
v -14.87348 5.471528 0.4748398
v -15.17605 2.721393 0.4748398
v -15.44636 2.769863 0.4748398
v -15.26934 -2.364038E-06 0.7169906
v -15.59223 -5.572376E-06 0.7169906
v -9.192317 14.23162 0.5233912
v -8.025196 15.13441 -0.4748398
v -8.171811 14.81262 0.5675851
v -9.192317 14.32466 -0.4748398
v -11.05837 12.52021 0.4748398
v -11.05837 12.52021 -0.4748398
v -12.65214 10.40747 0.4748398
v -12.65214 10.40747 -0.4748398
v -13.93436 8.038466 0.4748398
v -13.93436 8.038466 -0.4748398
v -14.87348 5.471528 0.4748398
v -14.87348 5.471528 -0.4748398
v -15.44636 2.769863 0.4748398
v -15.44636 2.769863 -0.4748398
v -15.59223 -5.572376E-06 0.7169906
v -15.59223 -5.572376E-06 -0.7169906
v -9.192317 14.32466 -0.4748398
v -7.884754 14.86957 -0.4748398
v -8.025196 15.13441 -0.4748398
v -9.03145 14.07398 -0.4748398
v -11.05837 12.52021 -0.4748398
v -10.86485 12.30111 -0.4748398
v -12.65214 10.40747 -0.4748398
v -12.43073 10.22534 -0.4748398
v -13.93436 8.038466 -0.4748398
v -13.69051 7.897795 -0.4748398
v -14.87348 5.471528 -0.4748398
v -14.61319 5.375779 -0.4748398
v -15.44636 2.769863 -0.4748398
v -15.17605 2.721393 -0.4748398
v -15.59223 -5.572376E-06 -0.7169906
v -15.26934 -2.364038E-06 -0.7169906
v -8.025196 15.13441 -0.4748398
v -7.884754 14.86957 -0.4748398
v -8.031369 14.54777 0.5675856
v -8.171811 14.81262 0.5675851
vt 0.3500001 1
vt 0.3360553 0.75
vt 0.3360553 1
vt 0.3500001 0.75
vt 0.3750001 1
vt 0.3750001 0.75
vt 0.4000001 1
vt 0.4000001 0.75
vt 0.4250001 1
vt 0.4250001 0.75
vt 0.4500001 1
vt 0.4500001 0.75
vt 0.4750001 1
vt 0.4750001 0.75
vt 0.5000001 1
vt 0.5000001 0.75
vt 0.3500001 0.75
vt 0.3360553 0.5
vt 0.3360553 0.75
vt 0.3500001 0.5
vt 0.3750001 0.75
vt 0.3750001 0.5
vt 0.4000001 0.75
vt 0.4000001 0.5
vt 0.4250001 0.75
vt 0.4250001 0.5
vt 0.4500001 0.75
vt 0.4500001 0.5
vt 0.4750001 0.75
vt 0.4750001 0.5
vt 0.5000001 0.75
vt 0.5000001 0.5
vt 0.3500001 0.5
vt 0.3360553 0.25
vt 0.3360553 0.5
vt 0.3500001 0.25
vt 0.3750001 0.5
vt 0.3750001 0.25
vt 0.4000001 0.5
vt 0.4000001 0.25
vt 0.4250001 0.5
vt 0.4250001 0.25
vt 0.4500001 0.5
vt 0.4500001 0.25
vt 0.4750001 0.5
vt 0.4750001 0.25
vt 0.5000001 0.5
vt 0.5000001 0.25
vt 0.3500001 0.25
vt 0.3360553 0
vt 0.3360553 0.25
vt 0.3500001 0
vt 0.3750001 0.25
vt 0.3750001 0
vt 0.4000001 0.25
vt 0.4000001 0
vt 0.4250001 0.25
vt 0.4250001 0
vt 0.4500001 0.25
vt 0.4500001 0
vt 0.4750001 0.25
vt 0.4750001 0
vt 0.5000001 0.25
vt 0.5000001 0
vt 0.3360553 0.25
vt 0.325 0.25
vt 0.325 0.5
vt 0.3360553 0.5
vn 0.6329589 -0.7709675 -0.0705139
vn 0.5331078 -0.8357509 -0.1315922
vn 0.5331079 -0.8357509 -0.1315922
vn 0.6365988 -0.7681805 -0.06812258
vn 0.7447726 -0.6670918 -0.01738508
vn 0.7444226 -0.6674797 -0.01749277
vn 0.8416163 -0.540076 0
vn 0.8416163 -0.540076 0
vn 0.91191 -0.4103904 0
vn 0.91191 -0.4103904 0
vn 0.9612014 -0.2758478 0
vn 0.9612014 -0.2758478 0
vn 0.9940446 -0.1089744 0
vn 0.9940446 -0.1089744 0
vn 0.9994129 -0.0342601 0
vn 0.9994129 -0.0342601 0
vn -0.02080804 -0.0139909 0.9996856
vn -0.03281694 -0.01917926 0.9992774
vn -0.03281694 -0.01917925 0.9992774
vn -0.02137662 -0.01423657 0.9996701
vn -0.007161146 -0.00540209 0.9999598
vn -0.008248769 -0.006222559 0.9999466
vn 0 0 1
vn 0 0 1
vn 0 0 1
vn 0 0 1
vn 0 0 1
vn 0 0 1
vn 0.003856233 0.0471993 0.9988781
vn 0.003625549 0.04437586 0.9990084
vn 0.007152384 0.08754249 0.9961351
vn 0.007152384 0.0875425 0.9961351
vn -0.6368907 0.7679418 0.06808586
vn -0.5337345 0.8353702 0.1314692
vn -0.5337344 0.8353703 0.1314692
vn -0.6332316 0.7707453 0.07049391
vn -0.7444997 0.6673937 0.0174887
vn -0.744843 0.6670133 0.01738296
vn -0.8416163 0.5400758 0
vn -0.8416163 0.5400758 0
vn -0.91191 0.4103904 0
vn -0.91191 0.4103904 0
vn -0.9612013 0.2758479 0
vn -0.9612013 0.2758479 0
vn -0.9928467 0.1193961 0
vn -0.9928467 0.1193961 0
vn -0.9986162 0.05259005 0
vn -0.9986162 0.05259005 0
vn 0 0 -1
vn 0 0 -1
vn 0 0 -1
vn 0 0 -1
vn 0 0 -1
vn 0 0 -1
vn 0 0 -1
vn 0 0 -1
vn 0 0 -1
vn 0 0 -1
vn 0 0 -1
vn 0 0 -1
vn 0.00362561 0.04437586 -0.9990084
vn 0.003856298 0.0471993 -0.9988781
vn 0.007152504 0.08754251 -0.9961351
vn 0.007152503 0.08754249 -0.9961351
vn 0.8531717 0.4524121 0.2596561
vn 0.8531717 0.4524121 0.2596561
vn 0.8531717 0.4524121 0.2596561
vn 0.8531717 0.4524121 0.2596561
g exterior_arch2_COL_0
f 3/3/3 2/2/2 1/1/1
f 2/2/2 4/4/4 1/1/1
f 1/1/1 4/4/4 5/5/5
f 4/4/4 6/6/6 5/5/5
f 5/5/5 6/6/6 7/7/7
f 6/6/6 8/8/8 7/7/7
f 7/7/7 8/8/8 9/9/9
f 8/8/8 10/10/10 9/9/9
f 9/9/9 10/10/10 11/11/11
f 10/10/10 12/12/12 11/11/11
f 11/11/11 12/12/12 13/13/13
f 12/12/12 14/14/14 13/13/13
f 13/13/13 14/14/14 15/15/15
f 14/14/14 16/16/16 15/15/15
f 19/19/19 18/18/18 17/17/17
f 18/18/18 20/20/20 17/17/17
f 17/17/17 20/20/20 21/21/21
f 20/20/20 22/22/22 21/21/21
f 21/21/21 22/22/22 23/23/23
f 22/22/22 24/24/24 23/23/23
f 23/23/23 24/24/24 25/25/25
f 24/24/24 26/26/26 25/25/25
f 25/25/25 26/26/26 27/27/27
f 26/26/26 28/28/28 27/27/27
f 27/27/27 28/28/28 29/29/29
f 28/28/28 30/30/30 29/29/29
f 29/29/29 30/30/30 31/31/31
f 30/30/30 32/32/32 31/31/31
f 35/35/35 34/34/34 33/33/33
f 34/34/34 36/36/36 33/33/33
f 33/33/33 36/36/36 37/37/37
f 36/36/36 38/38/38 37/37/37
f 37/37/37 38/38/38 39/39/39
f 38/38/38 40/40/40 39/39/39
f 39/39/39 40/40/40 41/41/41
f 40/40/40 42/42/42 41/41/41
f 41/41/41 42/42/42 43/43/43
f 42/42/42 44/44/44 43/43/43
f 43/43/43 44/44/44 45/45/45
f 44/44/44 46/46/46 45/45/45
f 45/45/45 46/46/46 47/47/47
f 46/46/46 48/48/48 47/47/47
f 51/51/51 50/50/50 49/49/49
f 50/50/50 52/52/52 49/49/49
f 49/49/49 52/52/52 53/53/53
f 52/52/52 54/54/54 53/53/53
f 53/53/53 54/54/54 55/55/55
f 54/54/54 56/56/56 55/55/55
f 55/55/55 56/56/56 57/57/57
f 56/56/56 58/58/58 57/57/57
f 57/57/57 58/58/58 59/59/59
f 58/58/58 60/60/60 59/59/59
f 59/59/59 60/60/60 61/61/61
f 60/60/60 62/62/62 61/61/61
f 61/61/61 62/62/62 63/63/63
f 62/62/62 64/64/64 63/63/63
f 67/67/67 66/66/66 65/65/65
f 68/68/68 67/67/67 65/65/65
