g exterior_arch3_COL
v -14.61319 5.375779 -0.5387915
v -14.23786 6.342572 0.47484
v -14.42534 5.75336 -0.575937
v -14.61319 5.375779 0.4748398
v -15.17605 2.721393 -0.4748398
v -15.17605 2.721393 0.4748398
v -15.26934 -2.364038E-06 -0.7169906
v -15.26934 -2.364038E-06 0.7169906
v -14.61319 5.375779 0.4748398
v -14.55014 6.48232 0.4748398
v -14.23786 6.342572 0.47484
v -14.87348 5.471528 0.4748398
v -15.17605 2.721393 0.4748398
v -15.44636 2.769863 0.4748398
v -15.26934 -2.364038E-06 0.7169906
v -15.59223 -5.572376E-06 0.7169906
v -14.87348 5.471528 0.4748398
v -14.67911 5.866922 -0.5759369
v -14.55014 6.48232 0.4748398
v -14.87348 5.471528 -0.5387915
v -15.44636 2.769863 0.4748398
v -15.44636 2.769863 -0.4748398
v -15.59223 -5.572376E-06 0.7169906
v -15.59223 -5.572376E-06 -0.7169906
v -14.87348 5.471528 -0.5387915
v -14.42534 5.75336 -0.575937
v -14.67911 5.866922 -0.5759369
v -14.61319 5.375779 -0.5387915
v -15.44636 2.769863 -0.4748398
v -15.17605 2.721393 -0.4748398
v -15.59223 -5.572376E-06 -0.7169906
v -15.26934 -2.364038E-06 -0.7169906
v -14.67911 5.866922 -0.5759369
v -14.42534 5.75336 -0.575937
v -14.23786 6.342572 0.47484
v -14.55014 6.48232 0.4748398
vt 0.4500001 1
vt 0.4400871 0.75
vt 0.4400871 1
vt 0.4500001 0.75
vt 0.4750001 1
vt 0.4750001 0.75
vt 0.5000001 1
vt 0.5000001 0.75
vt 0.4500001 0.75
vt 0.4400871 0.5
vt 0.4400871 0.75
vt 0.4500001 0.5
vt 0.4750001 0.75
vt 0.4750001 0.5
vt 0.5000001 0.75
vt 0.5000001 0.5
vt 0.4500001 0.5
vt 0.4400871 0.25
vt 0.4400871 0.5
vt 0.4500001 0.25
vt 0.4750001 0.5
vt 0.4750001 0.25
vt 0.5000001 0.5
vt 0.5000001 0.25
vt 0.4500001 0.25
vt 0.4400871 0
vt 0.4400871 0.25
vt 0.4500001 0
vt 0.4750001 0.25
vt 0.4750001 0
vt 0.5000001 0.25
vt 0.5000001 0
vt 0.4400871 0.25
vt 0.4378471 0.25
vt 0.4378471 0.5
vt 0.4400871 0.5
vn 0.9682527 -0.2498973 0.00617013
vn 0.9222774 -0.3856326 0.02630505
vn 0.9222774 -0.3856326 0.02630505
vn 0.9688237 -0.2476822 0.005846807
vn 0.9938173 -0.1110276 0
vn 0.9938884 -0.1103894 0
vn 0.9994129 -0.0342601 0
vn 0.9994129 -0.0342601 0
vn -1.333046E-07 0 1
vn -2.635603E-07 0 1
vn -2.635604E-07 0 1
vn -1.410094E-07 0 1
vn 0.003856233 0.0471993 0.9988781
vn 0.003625549 0.04437586 0.9990084
vn 0.007152384 0.08754249 0.9961351
vn 0.007152384 0.0875425 0.9961351
vn -0.9711087 0.238434 -0.009847082
vn -0.9378908 0.3441299 -0.04399269
vn -0.9378908 0.3441299 -0.04399269
vn -0.9706994 0.240073 -0.01036975
vn -0.9926938 0.1206606 0
vn -0.9926255 0.121221 0
vn -0.9986162 0.05259005 0
vn -0.9986162 0.05259005 0
vn -0.009841518 -0.03062007 -0.9994826
vn -0.03245486 -0.07970611 -0.99629
vn -0.03245486 -0.0797061 -0.99629
vn -0.009691906 -0.03029522 -0.999494
vn 0.0005938452 0.03323505 -0.9994474
vn 0.001022727 0.03678889 -0.9993225
vn 0.007152504 0.08754251 -0.9961351
vn 0.007152503 0.08754249 -0.9961351
vn 0.3526131 0.7879625 -0.5047565
vn 0.3526131 0.7879624 -0.5047566
vn 0.3526132 0.7879625 -0.5047565
vn 0.3526131 0.7879624 -0.5047565
g exterior_arch3_COL_0
f 3/3/3 2/2/2 1/1/1
f 2/2/2 4/4/4 1/1/1
f 1/1/1 4/4/4 5/5/5
f 4/4/4 6/6/6 5/5/5
f 5/5/5 6/6/6 7/7/7
f 6/6/6 8/8/8 7/7/7
f 11/11/11 10/10/10 9/9/9
f 10/10/10 12/12/12 9/9/9
f 9/9/9 12/12/12 13/13/13
f 12/12/12 14/14/14 13/13/13
f 13/13/13 14/14/14 15/15/15
f 14/14/14 16/16/16 15/15/15
f 19/19/19 18/18/18 17/17/17
f 18/18/18 20/20/20 17/17/17
f 17/17/17 20/20/20 21/21/21
f 20/20/20 22/22/22 21/21/21
f 21/21/21 22/22/22 23/23/23
f 22/22/22 24/24/24 23/23/23
f 27/27/27 26/26/26 25/25/25
f 26/26/26 28/28/28 25/25/25
f 25/25/25 28/28/28 29/29/29
f 28/28/28 30/30/30 29/29/29
f 29/29/29 30/30/30 31/31/31
f 30/30/30 32/32/32 31/31/31
f 35/35/35 34/34/34 33/33/33
f 36/36/36 35/35/35 33/33/33
