g exterior_plate2
v -14.73693 5.88714 -2.355328
v -14.88626 5.449485 -2.018426
v -14.88626 5.449486 -0.7973181
v -14.28608 7.20844 -0.7973181
v -14.31233 7.131529 -2.355328
v -14.8227 5.609595 1.077536
v -14.37923 6.935462 1.021848
v -14.28608 7.208441 0.6520691
v -15.21691 5.562308 -0.7973181
v -15.21691 5.562307 -2.018426
v -15.09382 5.923052 -2.481937
v -14.61673 7.321262 -0.7973181
v -14.61673 7.321262 -2.481937
v -14.70988 7.048283 1.231937
v -15.21691 5.562308 1.231937
v -14.61673 7.321262 0.6520691
v -14.61673 7.321262 -2.481937
v -15.09382 5.923052 -2.481937
v -14.73693 5.88714 -2.355328
v -14.31233 7.131529 -2.355328
v -15.09382 5.923052 -2.481937
v -15.21691 5.562307 -2.018426
v -14.88626 5.449485 -2.018426
v -14.73693 5.88714 -2.355328
v -15.21691 5.562307 -2.018426
v -14.88626 5.449486 -0.7973181
v -14.88626 5.449485 -2.018426
v -15.21691 5.562308 -0.7973181
v -14.8227 5.609595 1.077536
v -15.21691 5.562308 1.231937
v -14.61673 7.321262 -0.7973181
v -14.61673 7.321262 -2.481937
v -14.31233 7.131529 -2.355328
v -14.28608 7.20844 -0.7973181
v -14.61673 7.321262 0.6520691
v -14.28608 7.208441 0.6520691
v -14.70988 7.048283 1.231937
v -14.37923 6.935462 1.021848
v -15.21691 5.562308 1.231937
v -14.70988 7.048283 1.231937
v -14.37923 6.935462 1.021848
v -14.8227 5.609595 1.077536
vt 0.3440549 0.4208144
vt 0.328764 0.4089137
vt 0.2884806 0.4089137
vt 0.2884807 0.4669403
vt 0.3440548 0.4669403
vt 0.2215371 0.4089138
vt 0.2215371 0.457935
vt 0.2406665 0.4669403
vt 0.4910568 0.1239158
vt 0.4296232 0.1239157
vt 0.4063042 0.1436174
vt 0.4910568 0.2199796
vt 0.4063041 0.2199796
vt 0.5931478 0.2050711
vt 0.5931477 0.1239157
vt 0.563975 0.2199796
vt -0.1859743 0.4997169
vt -0.04640971 0.4994401
vt -0.04685545 0.4355286
vt -0.1864202 0.4357083
vt -0.3861294 0.4996487
vt -0.3423382 0.4996037
vt -0.3423381 0.4358031
vt -0.3861294 0.4358324
vt -0.3423382 0.4996037
vt -0.2269711 0.4358032
vt -0.3423381 0.4358031
vt -0.2269711 0.4996037
vt -0.03525245 0.4358032
vt -0.0352525 0.4996036
vt -0.1944108 0.4996588
vt -0.0352525 0.4996589
vt -0.03525251 0.4358391
vt -0.1944108 0.4358391
vt -0.331345 0.4996589
vt -0.331345 0.4358391
vt -0.3861294 0.4996365
vt -0.3861294 0.4358246
vt -0.1902441 0.4995212
vt -0.04190715 0.4996224
vt -0.04175358 0.4356469
vt -0.1900907 0.4355811
vn 0.9464226 -0.3229309 2.836365E-07
vn 0.9464226 -0.3229309 2.836365E-07
vn 0.9468255 -0.3217458 -0.001080502
vn 0.9468434 -0.3216931 -0.001128636
vn 0.9464226 -0.3229309 2.836365E-07
vn 0.9471897 -0.3206669 -0.002063767
vn 0.9471897 -0.3206669 -0.002063767
vn 0.9471897 -0.3206669 -0.002063767
vn -0.9464228 0.3229303 0
vn -0.9464228 0.3229304 -1.283862E-07
vn -0.9464228 0.3229303 -1.283862E-07
vn -0.9464228 0.3229303 0
vn -0.9464228 0.3229304 -1.283862E-07
vn -0.9464228 0.3229302 0
vn -0.9464228 0.3229302 0
vn -0.9464228 0.3229302 0
vn 0.3224578 -0.110026 -0.9401676
vn 0.3224579 -0.110026 -0.9401676
vn 0.3224579 -0.110026 -0.9401676
vn 0.3224579 -0.110026 -0.9401676
vn -0.02162919 -0.7041407 -0.7097309
vn -0.02162919 -0.7041407 -0.7097309
vn -0.02162919 -0.7041407 -0.7097309
vn -0.02162919 -0.7041408 -0.7097308
vn -0.3229325 -0.9464219 9.156381E-07
vn -0.1727176 -0.9846122 0.02659986
vn -0.3229325 -0.9464219 9.156381E-07
vn -0.1728813 -0.9845842 0.02657163
vn -0.08105163 -0.9958178 0.04215869
vn -0.08105163 -0.9958178 0.04215869
vn 0.3825061 0.9238586 -0.0132045
vn 0.4340079 0.9005657 -0.02487275
vn 0.434008 0.9005657 -0.02487275
vn 0.3825061 0.9238586 -0.0132045
vn 0.3611868 0.9206588 0.1480927
vn 0.3611868 0.9206588 0.1480927
vn 0.4186636 0.7493965 0.5129578
vn 0.4186636 0.7493965 0.5129577
vn 0.4360567 -0.1297667 0.8905139
vn 0.4360568 -0.1297667 0.890514
vn 0.4360568 -0.1297667 0.890514
vn 0.4360567 -0.1297667 0.8905139
g exterior_plate2_0
f 3/3/3 2/2/2 1/1/1
f 1/1/1 4/4/4 3/3/3
f 1/1/1 5/5/5 4/4/4
f 6/6/6 3/3/3 4/4/4
f 4/4/4 7/7/7 6/6/6
f 4/4/4 8/8/8 7/7/7
f 11/11/11 10/10/10 9/9/9
f 9/9/9 12/12/12 11/11/11
f 12/12/12 13/13/13 11/11/11
f 14/14/14 12/12/12 9/9/9
f 9/9/9 15/15/15 14/14/14
f 14/14/14 16/16/16 12/12/12
f 19/19/19 18/18/18 17/17/17
f 20/20/20 19/19/19 17/17/17
f 23/23/23 22/22/22 21/21/21
f 24/24/24 23/23/23 21/21/21
f 27/27/27 26/26/26 25/25/25
f 26/26/26 28/28/28 25/25/25
f 26/26/26 29/29/29 28/28/28
f 29/29/29 30/30/30 28/28/28
f 33/33/33 32/32/32 31/31/31
f 34/34/34 33/33/33 31/31/31
f 34/34/34 31/31/31 35/35/35
f 36/36/36 34/34/34 35/35/35
f 36/36/36 35/35/35 37/37/37
f 38/38/38 36/36/36 37/37/37
f 41/41/41 40/40/40 39/39/39
f 42/42/42 41/41/41 39/39/39
