g exterior_plate4
v -14.80368 5.728793 -2.547187
v -15.322 3.661937 0.3066357
v -14.89258 5.468264 0.489917
v -15.32221 3.661312 -2.30415
v -14.88865 5.481888 -3.0404
v -15.32242 3.808594 -2.721631
v -14.50023 6.616001 1.68147
v -14.50023 6.616 1.300889
v -14.86921 5.534621 1.255962
v -14.86921 5.534621 1.636538
v -14.29632 7.213605 0.4817432
v -14.50023 6.616 1.300889
v -14.29632 7.213604 1.191943
v -14.47251 6.69723 0.4891992
v -14.29632 7.213605 -2.660356
v -14.56162 6.436075 -2.542822
v -14.29632 7.213604 -3.03167
v -14.47251 6.697229 -3.03167
v -14.67068 5.611746 1.261286
v -14.39028 6.433521 1.295428
v -14.35546 6.535763 0.4892285
v -14.70117 5.524316 0.4898193
v -14.64946 5.676054 -2.547187
v -14.4074 6.383337 -2.542822
v -14.62379 5.751046 -3.542787
v -14.43306 6.308346 -3.539348
v -14.8034 6.810133 1.810557
v -15.22781 5.566293 1.765625
v -15.22781 5.566293 1.327871
v -14.8034 6.810133 1.372803
v -14.8034 6.810133 0.4891992
v -15.22781 5.566293 0.3655664
v -14.62721 7.326508 0.4817432
v -14.62721 7.326508 1.191943
v -14.62721 7.326508 -2.660356
v -15.1387 5.827447 -2.660356
v -15.66158 3.745092 0.1815674
v -15.66158 3.745092 -2.300503
v -15.22781 5.566293 -3.03167
v -15.66158 3.745092 -2.835088
v -14.89251 6.548979 -2.660356
v -14.62721 7.326508 -2.926621
v -14.8034 6.810133 -2.926621
v -15.66158 3.745092 -2.300503
v -15.66158 3.745092 0.1815674
v -15.322 3.661937 0.3066357
v -15.32221 3.661312 -2.30415
v -15.66158 3.745092 -2.835088
v -15.32242 3.808594 -2.721631
v -15.66158 3.745092 0.1815674
v -15.22781 5.566293 0.3655664
v -14.89258 5.468264 0.489917
v -15.322 3.661937 0.3066357
v -14.89251 6.548979 -2.660356
v -15.1387 5.827447 -2.660356
v -14.80368 5.728793 -2.547187
v -14.56162 6.436075 -2.542822
v -14.8034 6.810133 1.810557
v -14.8034 6.810133 1.372803
v -14.50023 6.616 1.300889
v -14.50023 6.616001 1.68147
v -15.22781 5.566293 1.327871
v -15.22781 5.566293 1.765625
v -14.86921 5.534621 1.636538
v -14.86921 5.534621 1.255962
v -15.22781 5.566293 0.3655664
v -14.89258 5.468264 0.489917
v -15.22781 5.566293 1.765625
v -14.8034 6.810133 1.810557
v -14.50023 6.616001 1.68147
v -14.86921 5.534621 1.636538
v -14.8034 6.810133 1.372803
v -14.62721 7.326508 1.191943
v -14.29632 7.213604 1.191943
v -14.50023 6.616 1.300889
v -14.62721 7.326508 1.191943
v -14.29632 7.213605 0.4817432
v -14.29632 7.213604 1.191943
v -14.62721 7.326508 0.4817432
v -14.29632 7.213605 -2.660356
v -14.62721 7.326508 -2.660356
v -14.29632 7.213604 -3.03167
v -14.62721 7.326508 -2.926621
v -14.62721 7.326508 -2.926621
v -14.8034 6.810133 -2.926621
v -14.47251 6.697229 -3.03167
v -14.29632 7.213604 -3.03167
v -14.8034 6.810133 -2.926621
v -14.89251 6.548979 -2.660356
v -14.56162 6.436075 -2.542822
v -14.47251 6.697229 -3.03167
v -15.22781 5.566293 -3.03167
v -15.66158 3.745092 -2.835088
v -15.32242 3.808594 -2.721631
v -14.88865 5.481888 -3.0404
v -15.1387 5.827447 -2.660356
v -15.22781 5.566293 -3.03167
v -14.88865 5.481888 -3.0404
v -14.80368 5.728793 -2.547187
v -14.77952 5.79938 -3.542814
v -14.62379 5.751046 -3.542787
v -14.43306 6.308346 -3.539348
v -14.58578 6.365488 -3.539321
v -14.56162 6.436075 -2.542822
v -14.4074 6.383337 -2.542822
v -14.35546 6.535763 0.4892285
v -14.47251 6.69723 0.4891992
v -14.39028 6.433521 1.295428
v -14.50023 6.616 1.300889
v -14.86921 5.534621 1.255962
v -14.67068 5.611746 1.261286
v -14.70117 5.524316 0.4898193
v -14.89258 5.468264 0.489917
v -14.64946 5.676054 -2.547187
v -14.80368 5.728793 -2.547187
v -14.77952 5.79938 -3.542814
v -14.62379 5.751046 -3.542787
v -14.50023 6.616 1.300889
v -14.39028 6.433521 1.295428
v -14.67068 5.611746 1.261286
v -14.86921 5.534621 1.255962
v -14.80368 5.728793 -2.547187
v -14.77952 5.79938 -3.542814
v -14.58578 6.365488 -3.539321
v -14.56162 6.436075 -2.542822
v -14.56162 6.436075 -2.542822
v -14.58578 6.365488 -3.539321
v -14.43306 6.308346 -3.539348
v -14.4074 6.383337 -2.542822
vt 0.3310987 0.4315341
vt 0.2601976 0.3822156
vt 0.2558241 0.4253175
vt 0.3224949 0.3822007
vt 0.340063 0.4256425
vt 0.3353723 0.3821858
vt 0.2243116 0.4546425
vt 0.2347571 0.4546425
vt 0.2347572 0.4249626
vt 0.2243116 0.4249625
vt 0.2560191 0.466964
vt 0.2347571 0.4546425
vt 0.2390727 0.4669639
vt 0.2558412 0.4546424
vt 0.3309946 0.466964
vt 0.3309946 0.4484109
vt 0.3398547 0.4669639
vt 0.3398548 0.4546425
vt 0.2347572 0.4249626
vt 0.2347571 0.4546425
vt 0.2558412 0.4546424
vt 0.2558241 0.4253175
vt 0.3310987 0.4315341
vt 0.3309946 0.4484109
vt 0.3310987 0.4315341
vt 0.3309946 0.4484109
vt 0.1852258 0.205412
vt 0.1852258 0.1725243
vt 0.1736513 0.1725244
vt 0.1736514 0.205412
vt 0.1502886 0.205412
vt 0.1502886 0.1725243
vt 0.1500915 0.2190651
vt 0.1688695 0.2190651
vt 0.06701308 0.2190651
vt 0.06701308 0.1794294
vt 0.1454236 0.124371
vt 0.07652777 0.1243711
vt 0.05719548 0.1725243
vt 0.06239313 0.1243711
vt 0.06701314 0.1985069
vt 0.05719543 0.2190651
vt 0.05719548 0.2054119
vt -0.8404103 0.4977345
vt -0.8404103 0.4977345
vt -0.8386732 0.436509
vt -0.8387455 0.4365093
vt -0.8404103 0.4977345
vt -0.8388177 0.4365095
vt -0.8404103 0.4977345
vt -0.6336135 0.4985026
vt -0.6335819 0.4367726
vt -0.8386732 0.436509
vt -0.5199702 0.497314
vt -0.6034123 0.4981868
vt -0.6034527 0.4366653
vt -0.5216439 0.4363703
vt -0.489769 0.4969982
vt -0.489769 0.4969982
vt -0.4914425 0.4362628
vt -0.4914425 0.4362628
vt -0.6336135 0.4985026
vt -0.6336135 0.4985026
vt -0.6352869 0.4367749
vt -0.6352869 0.4367749
vt -0.6336135 0.4985026
vt -0.6335819 0.4367726
vt -0.6336135 0.4985026
vt -0.489769 0.4969982
vt -0.4914425 0.4362628
vt -0.6352869 0.4367749
vt -0.489769 0.4969982
vt -0.4300525 0.4963737
vt -0.431726 0.4360501
vt -0.4914425 0.4362628
vt -0.4300525 0.4963737
vt -0.431726 0.4360501
vt -0.431726 0.4360501
vt -0.4300525 0.4963737
vt -0.431726 0.4360501
vt -0.4300525 0.4963737
vt -0.431726 0.4360501
vt -0.4300525 0.4963737
vt -0.4300525 0.4963737
vt -0.489769 0.4969982
vt -0.4914426 0.4362628
vt -0.431726 0.4360501
vt -0.489769 0.4969982
vt -0.5199702 0.497314
vt -0.5216439 0.4363703
vt -0.4914426 0.4362628
vt -0.6336135 0.4985026
vt -0.8404103 0.4977345
vt -0.8388177 0.4365095
vt -0.6320211 0.436771
vt -0.6034123 0.4981868
vt -0.6336135 0.4985026
vt -0.6320211 0.436771
vt -0.6034527 0.4366653
vt 0.3310987 0.4315341
vt 0.3310987 0.4315341
vt 0.3309946 0.4484109
vt 0.3309946 0.4484109
vt 0.3309946 0.4484109
vt 0.3309946 0.4484109
vt 0.2558412 0.4546424
vt 0.2558412 0.4546424
vt 0.2347571 0.4546425
vt 0.2347571 0.4546425
vt 0.2347572 0.4249626
vt 0.2347572 0.4249626
vt 0.2558241 0.4253175
vt 0.2558241 0.4253175
vt 0.3310987 0.4315341
vt 0.3310987 0.4315341
vt 0.3310987 0.4315341
vt 0.3310987 0.4315341
vt 0.2347571 0.4546425
vt 0.2347571 0.4546425
vt 0.2347572 0.4249626
vt 0.2347572 0.4249626
vt 0.3310987 0.4315341
vt 0.3310987 0.4315341
vt 0.3309946 0.4484109
vt 0.3309946 0.4484109
vt 0.3309946 0.4484109
vt 0.3309946 0.4484109
vt 0.3309946 0.4484109
vt 0.3309946 0.4484109
vn 0.9708089 -0.2398232 -0.0038637
vn 0.9713463 -0.2376291 0.004317686
vn 0.9713463 -0.2376291 0.004317686
vn 0.9709292 -0.2393577 -0.002122316
vn 0.9649259 -0.2550086 -0.06235751
vn 0.9649259 -0.2550086 -0.06235752
vn 0.946422 -0.3229323 4.49151E-07
vn 0.946422 -0.3229323 4.491509E-07
vn 0.946422 -0.3229323 4.491509E-07
vn 0.946422 -0.3229323 4.49151E-07
vn 0.9464227 -0.3229305 0
vn 0.9464234 -0.3229287 -2.192876E-07
vn 0.9464234 -0.3229286 -2.192876E-07
vn 0.9464227 -0.3229305 0
vn 0.9464226 -0.3229308 0
vn 0.9464226 -0.3229308 0
vn 0.9464226 -0.3229307 3.415926E-07
vn 0.9464226 -0.3229307 3.415926E-07
vn 0.9463304 -0.3232003 -0.000438832
vn 0.9463305 -0.3232003 -0.0004388319
vn 0.9462267 -0.3235044 -9.071474E-05
vn 0.9462269 -0.3235037 -9.149763E-05
vn 0.9461859 -0.3236237 5.41919E-07
vn 0.946186 -0.3236231 5.432117E-07
vn 0.9461255 -0.3238003 0
vn 0.9461255 -0.3238003 0
vn -0.9464227 0.3229305 0
vn -0.9464227 0.3229305 0
vn -0.9464226 0.3229308 4.6626E-07
vn -0.9464226 0.3229307 3.793689E-07
vn -0.9464225 0.3229312 1.786624E-07
vn -0.9612374 0.275711 -0.00247832
vn -0.946423 0.3229294 0
vn -0.9464228 0.3229303 0
vn -0.9464231 0.3229292 0
vn -0.9623998 0.2716367 -0.0003853029
vn -0.9712954 0.2378351 -0.004436841
vn -0.9711953 0.238284 -0.0007451068
vn -0.9700779 0.2414167 0.02582283
vn -0.9700779 0.2414166 0.02582284
vn -0.9464223 0.3229315 0
vn -0.9464232 0.3229291 0
vn -0.9464231 0.322929 0
vn -0.2039378 -0.9787027 -0.02345725
vn -0.2387832 -0.9710729 0.0001291194
vn -0.2387832 -0.9710729 0.0001291194
vn -0.2047035 -0.9785551 -0.0229421
vn -0.004792355 -0.9882334 -0.1528784
vn -0.004792355 -0.9882334 -0.1528784
vn -0.3494284 -0.01171002 0.9368899
vn -0.3494284 -0.01171002 0.9368899
vn -0.3494284 -0.01171002 0.9368898
vn -0.3494284 -0.01171002 0.9368899
vn 0.2975908 -0.09879158 -0.9495683
vn 0.2975908 -0.09879158 -0.9495683
vn 0.2975908 -0.09879158 -0.9495683
vn 0.2975908 -0.09879158 -0.9495683
vn 0.5392565 0.8421415 0
vn 0.5392566 0.8421414 0
vn 0.5392566 0.8421415 0
vn 0.5392565 0.8421415 0
vn -0.1489679 -0.9885302 0.02483332
vn -0.08797762 -0.9961224 0
vn -0.08797763 -0.9961224 0
vn -0.03356899 -0.9984485 0.04442523
vn -0.186536 -0.981625 0.0402091
vn -0.01504029 -0.9998659 -0.006485792
vn 0.3165434 -0.144242 0.937547
vn 0.3165434 -0.144242 0.937547
vn 0.3165434 -0.144242 0.9375471
vn 0.3165434 -0.144242 0.937547
vn 0.1978466 0.1830186 0.9629958
vn 0.1978466 0.1830186 0.9629959
vn 0.1978466 0.1830186 0.9629958
vn 0.1978466 0.1830185 0.9629959
vn 0.3229313 0.9464223 0
vn 0.3229304 0.9464227 0
vn 0.3229313 0.9464223 0
vn 0.3229304 0.9464227 0
vn 0.3229303 0.9464228 0
vn 0.3229303 0.9464228 0
vn 0.3229313 0.9464225 0
vn 0.3229312 0.9464225 0
vn -0.2723413 0.09292596 -0.9577031
vn -0.2723413 0.09292596 -0.9577031
vn -0.2723413 0.09292596 -0.9577031
vn -0.2723413 0.09292596 -0.9577031
vn -0.2507374 -0.7674608 -0.5900294
vn -0.2507374 -0.7674608 -0.5900294
vn -0.2507374 -0.7674608 -0.5900294
vn -0.2507374 -0.7674608 -0.5900294
vn 0.1447044 -0.1794284 -0.9730705
vn 0.1447044 -0.1794284 -0.9730705
vn 0.1447044 -0.1794284 -0.9730705
vn 0.1447044 -0.1794284 -0.9730705
vn 0.2977576 0.7956444 -0.5275324
vn 0.2977576 0.7956444 -0.5275323
vn 0.2977576 0.7956444 -0.5275323
vn 0.2977576 0.7956443 -0.5275324
vn 0.001890352 0.005524662 -0.999983
vn 0.001890352 0.005524662 -0.999983
vn 0.001890352 0.005524662 -0.999983
vn 0.001890352 0.005524662 -0.999983
vn 0.5567245 0.8276895 -0.07062573
vn 0.5567221 0.8276911 -0.07062584
vn 0.6791018 0.733507 -0.02807669
vn 0.677593 0.7348608 -0.02910785
vn 0.8315785 0.5473577 0.09421612
vn 0.8315785 0.5473577 0.09421612
vn -0.03356899 -0.9984485 0.04442523
vn 0.3210875 -0.9433956 0.08311199
vn 0.08402884 -0.9959397 -0.0322982
vn -0.01504029 -0.9998659 -0.006485792
vn -0.06637563 -0.9953071 -0.07041291
vn -0.06637846 -0.9953069 -0.070413
vn -0.3090954 -0.9479059 -0.07703566
vn -0.3090954 -0.9479059 -0.07703565
vn -0.01230153 -0.03731624 0.9992278
vn -0.01230153 -0.03731624 0.9992278
vn -0.01230153 -0.03731624 0.9992278
vn -0.01230153 -0.03731624 0.9992278
vn -0.9461247 0.3238028 0
vn -0.9461247 0.3238028 0
vn -0.9461247 0.3238028 0
vn -0.9461247 0.3238028 0
vn 0.5567245 0.8276895 -0.07062573
vn 0.3360377 0.9386985 -0.07696706
vn 0.3360376 0.9386985 -0.07696706
vn 0.5567221 0.8276911 -0.07062584
g exterior_plate4_0
f 3/3/3 2/2/2 1/1/1
f 2/2/2 4/4/4 1/1/1
f 1/1/1 4/4/4 5/5/5
f 4/4/4 6/6/6 5/5/5
f 9/9/9 8/8/8 7/7/7
f 10/10/10 9/9/9 7/7/7
f 13/13/13 12/12/12 11/11/11
f 12/12/12 14/14/14 11/11/11
f 11/11/11 14/14/14 15/15/15
f 14/14/14 16/16/16 15/15/15
f 15/15/15 16/16/16 17/17/17
f 16/16/16 18/18/18 17/17/17
f 21/21/21 20/20/20 19/19/19
f 22/22/22 21/21/21 19/19/19
f 22/22/22 23/23/23 21/21/21
f 23/23/23 24/24/24 21/21/21
f 23/23/23 25/25/25 24/24/24
f 25/25/25 26/26/26 24/24/24
f 29/29/29 28/28/28 27/27/27
f 30/30/30 29/29/29 27/27/27
f 30/30/30 31/31/31 29/29/29
f 31/31/31 32/32/32 29/29/29
f 31/31/31 30/30/30 33/33/33
f 30/30/30 34/34/34 33/33/33
f 31/31/31 33/33/33 35/35/35
f 36/36/36 32/32/32 31/31/31
f 37/37/37 32/32/32 36/36/36
f 38/38/38 37/37/37 36/36/36
f 38/38/38 36/36/36 39/39/39
f 40/40/40 38/38/38 39/39/39
f 41/41/41 36/36/36 31/31/31
f 41/41/41 31/31/31 35/35/35
f 41/41/41 35/35/35 42/42/42
f 43/43/43 41/41/41 42/42/42
f 46/46/46 45/45/45 44/44/44
f 47/47/47 46/46/46 44/44/44
f 47/47/47 44/44/44 48/48/48
f 49/49/49 47/47/47 48/48/48
f 52/52/52 51/51/51 50/50/50
f 53/53/53 52/52/52 50/50/50
f 56/56/56 55/55/55 54/54/54
f 57/57/57 56/56/56 54/54/54
f 60/60/60 59/59/59 58/58/58
f 61/61/61 60/60/60 58/58/58
f 64/64/64 63/63/63 62/62/62
f 65/65/65 64/64/64 62/62/62
f 65/65/65 62/62/62 66/66/66
f 67/67/67 65/65/65 66/66/66
f 70/70/70 69/69/69 68/68/68
f 71/71/71 70/70/70 68/68/68
f 74/74/74 73/73/73 72/72/72
f 75/75/75 74/74/74 72/72/72
f 78/78/78 77/77/77 76/76/76
f 77/77/77 79/79/79 76/76/76
f 77/77/77 80/80/80 79/79/79
f 80/80/80 81/81/81 79/79/79
f 80/80/80 82/82/82 81/81/81
f 82/82/82 83/83/83 81/81/81
f 86/86/86 85/85/85 84/84/84
f 87/87/87 86/86/86 84/84/84
f 90/90/90 89/89/89 88/88/88
f 91/91/91 90/90/90 88/88/88
f 94/94/94 93/93/93 92/92/92
f 95/95/95 94/94/94 92/92/92
f 98/98/98 97/97/97 96/96/96
f 99/99/99 98/98/98 96/96/96
f 102/102/102 101/101/101 100/100/100
f 103/103/103 102/102/102 100/100/100
f 106/106/106 105/105/105 104/104/104
f 107/107/107 106/106/106 104/104/104
f 108/108/108 106/106/106 107/107/107
f 109/109/109 108/108/108 107/107/107
f 112/112/112 111/111/111 110/110/110
f 113/113/113 112/112/112 110/110/110
f 114/114/114 112/112/112 113/113/113
f 115/115/115 114/114/114 113/113/113
f 115/115/115 116/116/116 114/114/114
f 116/116/116 117/117/117 114/114/114
f 120/120/120 119/119/119 118/118/118
f 121/121/121 120/120/120 118/118/118
f 124/124/124 123/123/123 122/122/122
f 125/125/125 124/124/124 122/122/122
f 128/128/128 127/127/127 126/126/126
f 129/129/129 128/128/128 126/126/126
