g exterior_shell_cap_COL1
v -9.51932 15.26005 -3.388412E-15
v -9.51932 15.26005 11.48503
v -11.45176 13.33777 11.48503
v -11.45176 13.33777 -2.96158E-15
v -13.10222 11.08708 11.48503
v -13.10222 11.08708 -2.461825E-15
v -14.43006 8.563376 11.48503
v -14.43006 8.563376 -1.901452E-15
v -15.40259 5.828821 11.48503
v -15.40259 5.828821 -1.294258E-15
v -15.99585 2.950741 11.48503
v -15.99585 2.950741 -6.55196E-16
v -16.19524 3.091795E-06 11.48503
v -16.19524 3.091795E-06 -6.865165E-22
v -9.51932 15.26005 11.48503
v -8.952588 14.35155 11.48503
v -10.76998 12.54371 11.48503
v -11.45176 13.33777 11.48503
v -12.32219 10.42701 11.48503
v -13.10222 11.08708 11.48503
v -13.57097 8.053558 11.48503
v -14.43006 8.563376 11.48503
v -14.4856 5.481803 11.48503
v -15.40259 5.828821 11.48503
v -15.04353 2.775067 11.48503
v -15.99585 2.950741 11.48503
v -15.23106 1.323053E-06 11.48503
v -16.19524 3.091795E-06 11.48503
v -8.952588 14.35155 11.48503
v -8.952588 14.35155 9.872786
v -10.76998 12.54371 9.872786
v -10.76998 12.54371 11.48503
v -10.76998 12.54371 11.48503
v -10.76998 12.54371 9.872786
v -12.32219 10.42701 9.872786
v -12.32219 10.42701 11.48503
v -12.32219 10.42701 11.48503
v -12.32219 10.42701 9.872786
v -13.57097 8.053558 9.872786
v -13.57097 8.053558 11.48503
v -13.57097 8.053558 11.48503
v -13.57097 8.053558 9.872786
v -14.4856 5.481803 9.872786
v -14.4856 5.481803 11.48503
v -14.4856 5.481803 11.48503
v -14.4856 5.481803 9.872786
v -15.04353 2.775067 9.872786
v -15.04353 2.775067 11.48503
v -15.04353 2.775067 11.48503
v -15.04353 2.775067 9.872786
v -15.23106 1.323053E-06 9.872786
v -15.23106 1.323053E-06 11.48503
vt 0.4562499 0.3125
vt 0.4562499 0.6884398
vt 0.4624999 0.6884398
vt 0.4624999 0.3125
vt 0.4687499 0.6884398
vt 0.4687499 0.3125
vt 0.4749999 0.6884398
vt 0.4749999 0.3125
vt 0.4812499 0.6884398
vt 0.4812499 0.3125
vt 0.4874999 0.6884398
vt 0.4874999 0.3125
vt 0.4937499 0.6884398
vt 0.4937499 0.3125
vt 0.4081585 0.9701589
vt 0.4540793 0.9069545
vt 0.4447573 0.8989927
vt 0.3895145 0.9542354
vt 0.4367955 0.8896707
vt 0.373591 0.9355915
vt 0.4303901 0.879218
vt 0.3607802 0.914686
vt 0.4256987 0.867892
vt 0.3513974 0.8920339
vt 0.4228368 0.8559715
vt 0.3456736 0.8681929
vt 0.421875 0.84375
vt 0.3437499 0.84375
vt 0 0
vt 0 1
vt 1 1
vt 1 0
vt 0 0
vt 0 1
vt 1 1
vt 1 0
vt 0 0
vt 0 1
vt 1 1
vt 1 0
vt 0 0
vt 0 1
vt 1 1
vt 1 0
vt 0 0
vt 0 1
vt 1 1
vt 1 0
vt 0 0
vt 0 1
vt 1 1
vt 1 0
vn -0.6458365 0.7634758 0
vn -0.6451557 0.764051 0
vn -0.7587113 0.651427 0
vn -0.7587113 0.651427 0
vn -0.848453 0.5292705 0
vn -0.848453 0.5292705 0
vn -0.9161652 0.4008011 0
vn -0.9161652 0.4008011 0
vn -0.9632199 0.2687145 0
vn -0.9632199 0.2687145 0
vn -0.9908799 0.1347481 0
vn -0.9908799 0.1347481 0
vn -0.9977247 0.06741919 0
vn -0.9977247 0.06741919 0
vn -0.03864543 0.004581227 0.9992425
vn -0.03219422 0.003816467 0.9994743
vn 1.54471E-07 0 1
vn 1.272066E-07 0 1
vn -3.324892E-07 0 1
vn -2.286579E-07 0 1
vn 0 0 1
vn -1.343741E-07 0 1
vn 1.853027E-07 0 1
vn 2.417204E-07 0 1
vn -1.010563E-07 0 1
vn -1.116711E-07 0 1
vn 0 0 1
vn 0 0 1
vn 0.7052408 -0.7089678 0
vn 0.7052408 -0.7089678 0
vn 0.7052408 -0.7089678 0
vn 0.7052408 -0.7089678 0
vn 0.8064128 -0.5913529 0
vn 0.8064128 -0.5913529 0
vn 0.8064128 -0.5913529 0
vn 0.8064128 -0.5913529 0
vn 0.8849797 -0.4656295 0
vn 0.8849797 -0.4656295 0
vn 0.8849797 -0.4656295 0
vn 0.8849797 -0.4656295 0
vn 0.9421887 -0.3350829 0
vn 0.9421887 -0.3350829 0
vn 0.9421887 -0.3350829 0
vn 0.9421887 -0.3350829 0
vn 0.9794095 -0.201884 0
vn 0.9794095 -0.201884 0
vn 0.9794095 -0.201884 0
vn 0.9794095 -0.201884 0
vn 0.9977246 -0.06742162 0
vn 0.9977246 -0.06742162 0
vn 0.9977246 -0.06742162 0
vn 0.9977246 -0.06742162 0
g exterior_shell_cap_COL1_0
f 3/3/3 2/2/2 1/1/1
f 4/4/4 3/3/3 1/1/1
f 5/5/5 3/3/3 4/4/4
f 6/6/6 5/5/5 4/4/4
f 7/7/7 5/5/5 6/6/6
f 8/8/8 7/7/7 6/6/6
f 9/9/9 7/7/7 8/8/8
f 10/10/10 9/9/9 8/8/8
f 11/11/11 9/9/9 10/10/10
f 12/12/12 11/11/11 10/10/10
f 13/13/13 11/11/11 12/12/12
f 14/14/14 13/13/13 12/12/12
f 17/17/17 16/16/16 15/15/15
f 18/18/18 17/17/17 15/15/15
f 19/19/19 17/17/17 18/18/18
f 20/20/20 19/19/19 18/18/18
f 21/21/21 19/19/19 20/20/20
f 22/22/22 21/21/21 20/20/20
f 23/23/23 21/21/21 22/22/22
f 24/24/24 23/23/23 22/22/22
f 25/25/25 23/23/23 24/24/24
f 26/26/26 25/25/25 24/24/24
f 27/27/27 25/25/25 26/26/26
f 28/28/28 27/27/27 26/26/26
f 31/31/31 30/30/30 29/29/29
f 32/32/32 31/31/31 29/29/29
f 35/35/35 34/34/34 33/33/33
f 36/36/36 35/35/35 33/33/33
f 39/39/39 38/38/38 37/37/37
f 40/40/40 39/39/39 37/37/37
f 43/43/43 42/42/42 41/41/41
f 44/44/44 43/43/43 41/41/41
f 47/47/47 46/46/46 45/45/45
f 48/48/48 47/47/47 45/45/45
f 51/51/51 50/50/50 49/49/49
f 52/52/52 51/51/51 49/49/49
