g exterior_plate3
v -15.31051 3.661463 -0.2559338
v -15.12097 4.457244 -2.039108
v -15.31051 3.773019 -2.014742
v -15.12097 4.457244 -0.2559338
v -15.31051 3.661462 0.4729647
v -15.19693 4.138336 0.4073788
v -15.12097 4.457243 0.3635189
v -15.24029 3.956264 0.7965048
v -15.29991 3.705956 0.7965048
v -15.65037 3.742411 -0.2559338
v -15.65037 3.742411 -2.285189
v -15.46083 4.538191 -2.285189
v -15.46083 4.538191 -0.2559338
v -15.65037 3.742411 0.7116492
v -15.53679 4.219284 0.6460632
v -15.46083 4.538191 0.6022034
v -15.56956 4.081706 1.035189
v -15.65037 3.742411 1.035189
v -15.46083 4.538191 -0.2559338
v -15.46083 4.538191 -2.285189
v -15.12097 4.457244 -2.039108
v -15.12097 4.457244 -0.2559338
v -15.46083 4.538191 0.6022034
v -15.12097 4.457243 0.3635189
v -15.46083 4.538191 -2.285189
v -15.65037 3.742411 -2.285189
v -15.31051 3.773019 -2.014742
v -15.12097 4.457244 -2.039108
v -15.65037 3.742411 -2.285189
v -15.31051 3.661463 -0.2559338
v -15.31051 3.773019 -2.014742
v -15.65037 3.742411 -0.2559338
v -15.31051 3.661462 0.4729647
v -15.65037 3.742411 0.7116492
v -15.29991 3.705956 0.7965048
v -15.65037 3.742411 1.035189
v -15.53679 4.219284 0.6460632
v -15.46083 4.538191 0.6022034
v -15.12097 4.457243 0.3635189
v -15.19693 4.138336 0.4073788
v -15.56956 4.081706 1.035189
v -15.53679 4.219284 0.6460632
v -15.19693 4.138336 0.4073788
v -15.24029 3.956264 0.7965048
v -15.65037 3.742411 1.035189
v -15.56956 4.081706 1.035189
v -15.24029 3.956264 0.7965048
v -15.29991 3.705956 0.7965048
vt 0.2510845 0.4540542
vt 0.2817723 0.4660885
vt 0.2817723 0.4540542
vt 0.2510845 0.4660885
vt 0.2364521 0.4540542
vt 0.2374439 0.4612658
vt 0.2381071 0.4660885
vt 0.2315592 0.4591852
vt 0.2315592 0.4540542
vt 0.6270569 0.2192173
vt 0.8697297 0.2192174
vt 0.8697298 0.1240521
vt 0.627057 0.1240522
vt 0.5113465 0.2192174
vt 0.5191897 0.1621895
vt 0.5244349 0.1240523
vt 0.4726553 0.1786421
vt 0.4726552 0.2192173
vt -0.7800001 0.4993958
vt -0.4871364 0.4993958
vt -0.4871364 0.4370708
vt -0.7800001 0.4370708
vt -0.9038472 0.4993958
vt -0.9038472 0.4370708
vt -0.9038472 0.4995081
vt -0.7889994 0.4994695
vt -0.7773171 0.4365491
vt -0.8921648 0.4362749
vt -0.9038472 0.4993221
vt -0.6109834 0.4375926
vt -0.9038472 0.4375926
vt -0.6109834 0.4993221
vt -0.471341 0.4375925
vt -0.471341 0.4993222
vt -0.4246475 0.4375926
vt -0.4246475 0.4993222
vt -0.6650025 0.4995869
vt -0.6189775 0.4996023
vt -0.63066 0.4356082
vt -0.676685 0.4357181
vt -0.4852326 0.4994083
vt -0.4290736 0.499415
vt -0.4290736 0.4369351
vt -0.4852327 0.4369826
vt -0.6043686 0.4995859
vt -0.5554012 0.4996023
vt -0.5670837 0.4356083
vt -0.6160513 0.4357251
vn 0.9697609 -0.2439882 -0.005807477
vn 0.9686685 -0.2482341 -0.007818269
vn 0.9686685 -0.2482341 -0.007818269
vn 0.9695397 -0.2448553 -0.00621789
vn 0.9727882 -0.2316966 -6.299398E-07
vn 0.9727879 -0.2316973 -8.99479E-07
vn 0.9727864 -0.2317036 -1.923553E-06
vn 0.9727884 -0.2316954 4.663996E-07
vn 0.9727884 -0.2316954 4.663997E-07
vn -0.972788 0.2316972 1.723768E-07
vn -0.9727882 0.2316961 0
vn -0.9727882 0.2316961 0
vn -0.972788 0.231697 1.603417E-07
vn -0.9727874 0.2316997 3.522188E-07
vn -0.9727874 0.2316997 5.815158E-07
vn -0.9727882 0.2316965 1.372841E-06
vn -0.9727879 0.2316977 -6.635935E-07
vn -0.9727879 0.2316977 -6.635935E-07
vn 0.2316973 0.9727879 0
vn 0.2316971 0.972788 0
vn 0.2316972 0.972788 0
vn 0.2316972 0.9727879 0
vn 0.2316977 0.9727878 1.031403E-07
vn 0.2316977 0.9727878 1.031403E-07
vn 0.5891298 -0.1639214 -0.7912369
vn 0.5891299 -0.1639214 -0.7912369
vn 0.5891299 -0.1639214 -0.7912369
vn 0.5891299 -0.1639214 -0.7912369
vn -0.0621939 -0.9976315 -0.02937976
vn -0.1162671 -0.9930138 -0.02013945
vn -0.06219391 -0.9976315 -0.02937977
vn -0.1159211 -0.993053 -0.02019897
vn -0.2154242 -0.9764655 0.01036717
vn -0.1804485 -0.9830488 0.03245813
vn -0.1199741 -0.9903019 0.07005962
vn -0.1199741 -0.9903019 0.0700596
vn 0.5708814 -0.02309923 0.8207076
vn 0.5708814 -0.02309923 0.8207076
vn 0.5708814 -0.02309923 0.8207076
vn 0.5708814 -0.02309923 0.8207076
vn 0.5044878 0.780214 0.3698085
vn 0.5044877 0.780214 0.3698085
vn 0.5044878 0.780214 0.3698085
vn 0.5044878 0.780214 0.3698085
vn 0.5487586 -0.130703 0.8257001
vn 0.5487586 -0.130703 0.8257001
vn 0.5487586 -0.1307031 0.8257001
vn 0.5487586 -0.130703 0.8257001
g exterior_plate3_0
f 3/3/3 2/2/2 1/1/1
f 2/2/2 4/4/4 1/1/1
f 1/1/1 4/4/4 5/5/5
f 4/4/4 6/6/6 5/5/5
f 7/7/7 6/6/6 4/4/4
f 5/5/5 6/6/6 8/8/8
f 9/9/9 5/5/5 8/8/8
f 12/12/12 11/11/11 10/10/10
f 13/13/13 12/12/12 10/10/10
f 13/13/13 10/10/10 14/14/14
f 15/15/15 13/13/13 14/14/14
f 15/15/15 16/16/16 13/13/13
f 15/15/15 14/14/14 17/17/17
f 14/14/14 18/18/18 17/17/17
f 21/21/21 20/20/20 19/19/19
f 22/22/22 21/21/21 19/19/19
f 22/22/22 19/19/19 23/23/23
f 24/24/24 22/22/22 23/23/23
f 27/27/27 26/26/26 25/25/25
f 28/28/28 27/27/27 25/25/25
f 31/31/31 30/30/30 29/29/29
f 30/30/30 32/32/32 29/29/29
f 30/30/30 33/33/33 32/32/32
f 33/33/33 34/34/34 32/32/32
f 33/33/33 35/35/35 34/34/34
f 35/35/35 36/36/36 34/34/34
f 39/39/39 38/38/38 37/37/37
f 40/40/40 39/39/39 37/37/37
f 43/43/43 42/42/42 41/41/41
f 44/44/44 43/43/43 41/41/41
f 47/47/47 46/46/46 45/45/45
f 48/48/48 47/47/47 45/45/45
