g fountainPlatform_COL
v 5.437212 -0.6045259 -1.766657
v 4.267846 0.5207253 -1.386707
v 3.630447 0.5207253 -2.637674
v 4.62517 -0.6045259 -3.360382
v 2.637674 0.5207253 -3.630446
v 3.360382 -0.6045259 -4.625169
v 1.386707 0.5207253 -4.267846
v 1.766657 -0.6045259 -5.437212
v -7.592753E-08 0.5207253 -4.487477
v 6.478259E-08 -0.6045259 -5.717022
v -1.386707 0.5207253 -4.267846
v -1.766657 -0.6045259 -5.437211
v -2.637674 0.5207253 -3.630445
v -3.360381 -0.6045259 -4.625168
v -3.630445 0.5207253 -2.637673
v -4.625167 -0.6045259 -3.36038
v -4.267844 0.5207253 -1.386706
v -5.437209 -0.6045259 -1.766657
v -4.487477 0.5207253 -1.012367E-07
v -5.717021 -0.6045259 8.637679E-08
v -4.267844 0.5207253 1.386706
v -5.437209 -0.6045259 1.766657
v -3.630445 0.5207253 2.637673
v -4.625167 -0.6045259 3.36038
v -2.637673 0.5207253 3.630445
v -3.36038 -0.6045259 4.625167
v -1.386706 0.5207253 4.267844
v -1.766657 -0.6045259 5.437209
v -2.096647E-07 0.5207253 4.487476
v -1.055979E-07 -0.6045259 5.717021
v 1.386706 0.5207253 4.267844
v 1.766656 -0.6045259 5.437209
v 2.637673 0.5207253 3.630444
v 3.36038 -0.6045259 4.625166
v 3.630444 0.5207253 2.637673
v 4.625166 -0.6045259 3.36038
v 4.267844 0.5207253 1.386706
v 5.437208 -0.6045259 1.766656
v 4.487475 0.5207253 -1.012367E-07
v 5.71702 -0.6045259 8.637679E-08
v 4.267846 0.5207253 -1.386707
v 5.437212 -0.6045259 -1.766657
v 4.267846 0.5207253 -1.386707
v -7.592753E-08 0.2351691 -1.012367E-07
v 3.630447 0.5207253 -2.637674
v 4.487475 0.5207253 -1.012367E-07
v 2.637674 0.5207253 -3.630446
v 4.267844 0.5207253 1.386706
v 1.386707 0.5207253 -4.267846
v 3.630444 0.5207253 2.637673
v -7.592753E-08 0.5207253 -4.487477
v 2.637673 0.5207253 3.630444
v -1.386707 0.5207253 -4.267846
v 1.386706 0.5207253 4.267844
v -2.637674 0.5207253 -3.630445
v -2.096647E-07 0.5207253 4.487476
v -3.630445 0.5207253 -2.637673
v -1.386706 0.5207253 4.267844
v -4.267844 0.5207253 -1.386706
v -2.637673 0.5207253 3.630445
v -4.487477 0.5207253 -1.012367E-07
v -3.630445 0.5207253 2.637673
v -4.267844 0.5207253 1.386706
vt 0.375 0.3125
vt 0.375 0.6884398
vt 0.3875 0.6884398
vt 0.3875 0.3125
vt 0.4 0.6884398
vt 0.4 0.3125
vt 0.4125 0.6884398
vt 0.4125 0.3125
vt 0.425 0.6884398
vt 0.425 0.3125
vt 0.4374999 0.6884398
vt 0.4374999 0.3125
vt 0.4499999 0.6884398
vt 0.4499999 0.3125
vt 0.4624999 0.6884398
vt 0.4624999 0.3125
vt 0.4749999 0.6884398
vt 0.4749999 0.3125
vt 0.4874999 0.6884398
vt 0.4874999 0.3125
vt 0.4999999 0.6884398
vt 0.4999999 0.3125
vt 0.5124999 0.6884398
vt 0.5124999 0.3125
vt 0.5249999 0.6884398
vt 0.5249999 0.3125
vt 0.5374998 0.6884398
vt 0.5374998 0.3125
vt 0.5499998 0.6884398
vt 0.5499998 0.3125
vt 0.5624998 0.6884398
vt 0.5624998 0.3125
vt 0.5749998 0.6884398
vt 0.5749998 0.3125
vt 0.5874998 0.6884398
vt 0.5874998 0.3125
vt 0.5999998 0.6884398
vt 0.5999998 0.3125
vt 0.6124998 0.6884398
vt 0.6124998 0.3125
vt 0.6249998 0.6884398
vt 0.6249998 0.3125
vt 0.6486026 0.8920339
vt 0.5 0.8375
vt 0.6264089 0.9355915
vt 0.65625 0.84375
vt 0.5918415 0.9701589
vt 0.6486027 0.7954661
vt 0.5482839 0.9923526
vt 0.626409 0.7519085
vt 0.5 1
vt 0.5918415 0.717341
vt 0.4517161 0.9923526
vt 0.5482839 0.6951473
vt 0.4081585 0.9701589
vt 0.5 0.6874999
vt 0.3735911 0.9355915
vt 0.4517161 0.6951473
vt 0.3513974 0.8920339
vt 0.4081585 0.7173411
vt 0.34375 0.84375
vt 0.3735911 0.7519085
vt 0.3513974 0.7954661
vn 0.6420845 0.7377012 -0.2086251
vn 0.3033856 0.9477552 -0.09857557
vn 0.2580751 0.9477553 -0.1875025
vn 0.5461895 0.7377012 -0.3968298
vn 0.1875024 0.9477553 -0.258075
vn 0.3968298 0.7377012 -0.5461896
vn 0.09857582 0.9477553 -0.3033854
vn 0.2086257 0.7377011 -0.6420845
vn 0 0.9477553 -0.3189981
vn 0 0.7377011 -0.6751274
vn -0.09857592 0.9477553 -0.3033854
vn -0.2086259 0.7377011 -0.6420844
vn -0.1875026 0.9477552 -0.2580751
vn -0.3968302 0.737701 -0.5461895
vn -0.2580752 0.9477552 -0.1875024
vn -0.5461898 0.737701 -0.3968298
vn -0.3033853 0.9477553 -0.09857585
vn -0.6420845 0.7377011 -0.2086258
vn -0.3189983 0.9477553 0
vn -0.6751273 0.7377013 0
vn -0.3033853 0.9477553 0.09857586
vn -0.6420842 0.7377012 0.2086258
vn -0.2580751 0.9477552 0.1875025
vn -0.5461897 0.7377011 0.3968299
vn -0.1875025 0.9477552 0.2580751
vn -0.39683 0.7377011 0.5461897
vn -0.09857588 0.9477552 0.3033855
vn -0.2086258 0.7377011 0.6420845
vn 0 0.9477553 0.3189983
vn 1.119186E-07 0.7377011 0.6751274
vn 0.09857598 0.9477552 0.3033855
vn 0.208626 0.7377011 0.6420845
vn 0.1875025 0.9477552 0.2580751
vn 0.3968301 0.7377009 0.5461898
vn 0.2580751 0.9477552 0.1875025
vn 0.5461897 0.7377009 0.39683
vn 0.3033855 0.9477552 0.0985759
vn 0.6420845 0.737701 0.2086258
vn 0.3189982 0.9477553 3.582533E-07
vn 0.6751275 0.7377011 7.041545E-07
vn 0.3033856 0.9477552 -0.09857557
vn 0.6420845 0.7377012 -0.2086251
vn 0.3033856 0.9477552 -0.09857557
vn 0 1 0
vn 0.2580751 0.9477553 -0.1875025
vn 0.3189982 0.9477553 3.582533E-07
vn 0.1875024 0.9477553 -0.258075
vn 0.3033855 0.9477552 0.0985759
vn 0.09857582 0.9477553 -0.3033854
vn 0.2580751 0.9477552 0.1875025
vn 0 0.9477553 -0.3189981
vn 0.1875025 0.9477552 0.2580751
vn -0.09857592 0.9477553 -0.3033854
vn 0.09857598 0.9477552 0.3033855
vn -0.1875026 0.9477552 -0.2580751
vn 0 0.9477553 0.3189983
vn -0.2580752 0.9477552 -0.1875024
vn -0.09857588 0.9477552 0.3033855
vn -0.3033853 0.9477553 -0.09857585
vn -0.1875025 0.9477552 0.2580751
vn -0.3189983 0.9477553 0
vn -0.2580751 0.9477552 0.1875025
vn -0.3033853 0.9477553 0.09857586
g fountainPlatform_COL_0
f 3/3/3 2/2/2 1/1/1
f 4/4/4 3/3/3 1/1/1
f 5/5/5 3/3/3 4/4/4
f 6/6/6 5/5/5 4/4/4
f 7/7/7 5/5/5 6/6/6
f 8/8/8 7/7/7 6/6/6
f 9/9/9 7/7/7 8/8/8
f 10/10/10 9/9/9 8/8/8
f 11/11/11 9/9/9 10/10/10
f 12/12/12 11/11/11 10/10/10
f 13/13/13 11/11/11 12/12/12
f 14/14/14 13/13/13 12/12/12
f 15/15/15 13/13/13 14/14/14
f 16/16/16 15/15/15 14/14/14
f 17/17/17 15/15/15 16/16/16
f 18/18/18 17/17/17 16/16/16
f 19/19/19 17/17/17 18/18/18
f 20/20/20 19/19/19 18/18/18
f 21/21/21 19/19/19 20/20/20
f 22/22/22 21/21/21 20/20/20
f 23/23/23 21/21/21 22/22/22
f 24/24/24 23/23/23 22/22/22
f 25/25/25 23/23/23 24/24/24
f 26/26/26 25/25/25 24/24/24
f 27/27/27 25/25/25 26/26/26
f 28/28/28 27/27/27 26/26/26
f 29/29/29 27/27/27 28/28/28
f 30/30/30 29/29/29 28/28/28
f 31/31/31 29/29/29 30/30/30
f 32/32/32 31/31/31 30/30/30
f 33/33/33 31/31/31 32/32/32
f 34/34/34 33/33/33 32/32/32
f 35/35/35 33/33/33 34/34/34
f 36/36/36 35/35/35 34/34/34
f 37/37/37 35/35/35 36/36/36
f 38/38/38 37/37/37 36/36/36
f 39/39/39 37/37/37 38/38/38
f 40/40/40 39/39/39 38/38/38
f 41/41/41 39/39/39 40/40/40
f 42/42/42 41/41/41 40/40/40
f 45/45/45 44/44/44 43/43/43
f 43/43/43 44/44/44 46/46/46
f 47/47/47 44/44/44 45/45/45
f 46/46/46 44/44/44 48/48/48
f 49/49/49 44/44/44 47/47/47
f 48/48/48 44/44/44 50/50/50
f 51/51/51 44/44/44 49/49/49
f 50/50/50 44/44/44 52/52/52
f 53/53/53 44/44/44 51/51/51
f 52/52/52 44/44/44 54/54/54
f 55/55/55 44/44/44 53/53/53
f 54/54/54 44/44/44 56/56/56
f 57/57/57 44/44/44 55/55/55
f 56/56/56 44/44/44 58/58/58
f 59/59/59 44/44/44 57/57/57
f 58/58/58 44/44/44 60/60/60
f 61/61/61 44/44/44 59/59/59
f 60/60/60 44/44/44 62/62/62
f 63/63/63 44/44/44 61/61/61
f 62/62/62 44/44/44 63/63/63
