g fountain_COL
v 0 -2.160668E-06 7.984087
v 0 -2.801418E-06 7.845723
v 0 0.7753322 7.845723
v 0 -2.801418E-06 -7.845732
v 0 -2.160668E-06 -7.984096
v 0 0.7753322 -7.845732
v 2.467232 -2.160668E-06 -7.593334
v 0 -2.160668E-06 -7.984096
v 0 -2.801418E-06 -7.845732
v 0 -2.801418E-06 -7.845732
v 0 4.053116E-06 -5.859295
v 2.467232 -2.160668E-06 -7.593334
v 0 -8.34465E-06 -5.01327
v 0 -8.34465E-06 -4.051024E-06
v 6.459286 -2.160668E-06 -4.692958
v 0 4.053116E-06 5.859286
v 0 -2.801418E-06 7.845723
v 4.692951 -2.160668E-06 6.459285
v 0 0.217217 -4.051024E-06
v 1.549183 0.217217 4.767889
v 0 0.217217 5.013263
v 2.946732 0.217217 4.05582
v 4.05582 0.217217 2.946731
v 4.767891 0.217217 1.549182
v 5.013264 0.217217 -2.980566E-06
v 4.767891 0.217217 -1.549189
v 4.05582 0.217217 -2.946739
v 2.946732 0.217217 -4.055829
v 1.549187 0.217217 -4.767898
v 0 0.217217 -5.01327
v 5.859289 1.454531 -2.715225E-06
v 4.767891 0.217217 -1.549189
v 5.572514 1.454531 -1.810625
v 5.013264 0.217217 -2.980566E-06
v 4.767891 0.217217 1.549182
v 5.572514 1.454531 1.810621
v 4.767891 0.217217 -1.549189
v 4.740282 1.454531 -3.444028
v 5.572514 1.454531 -1.810625
v 4.05582 0.217217 -2.946739
v 3.444021 1.454531 -4.740288
v 2.946732 0.217217 -4.055829
v 1.810627 1.454531 -5.57252
v 1.549187 0.217217 -4.767898
v 0 1.454531 -5.859295
v 0 0.217217 -5.01327
v 0 0.217217 5.013263
v 1.810623 1.454531 5.572512
v 0 1.454531 5.859286
v 1.549183 0.217217 4.767889
v 3.444019 1.454531 4.74028
v 2.946732 0.217217 4.05582
v 4.740282 1.454531 3.444019
v 4.05582 0.217217 2.946731
v 5.572514 1.454531 1.810621
v 4.767891 0.217217 1.549182
v 0 0.7753322 -7.845732
v 0 -2.160668E-06 -7.984096
v 2.467232 -2.160668E-06 -7.593334
v 2.424475 0.7753322 -7.461715
v 4.692951 -2.160668E-06 -6.459293
v 4.611599 0.7753321 -6.347312
v 6.459286 -2.160668E-06 -4.692958
v 6.347305 0.7753321 -4.611607
v 7.593328 -2.160668E-06 -2.467221
v 7.461708 0.7753322 -2.424464
v 7.984089 -2.160668E-06 -2.360093E-06
v 7.845724 0.7753322 -2.315528E-06
v 7.593328 -2.160668E-06 2.467219
v 7.461708 0.7753322 2.424457
v 6.459286 -2.160668E-06 4.692949
v 6.347305 0.7753321 4.611599
v 4.692951 -2.160668E-06 6.459285
v 4.611599 0.7753321 6.347304
v 2.467222 -2.160668E-06 7.593327
v 2.424458 0.7753322 7.461706
v 0 -2.160668E-06 7.984087
v 0 0.7753322 7.845723
v 2.424458 0.7753322 7.461706
v 0 0.7753322 7.845723
v 0 1.454531 5.859286
v 1.810623 1.454531 5.572512
v 4.611599 0.7753321 6.347304
v 3.444019 1.454531 4.74028
v 6.347305 0.7753321 4.611599
v 4.740282 1.454531 3.444019
v 7.461708 0.7753322 2.424457
v 5.572514 1.454531 1.810621
v 7.845724 0.7753322 -2.315528E-06
v 5.859289 1.454531 -2.715225E-06
v 7.461708 0.7753322 -2.424464
v 5.572514 1.454531 -1.810625
v 6.347305 0.7753321 -4.611607
v 4.740282 1.454531 -3.444028
v 4.611599 0.7753321 -6.347312
v 3.444021 1.454531 -4.740288
v 2.424475 0.7753322 -7.461715
v 1.810627 1.454531 -5.57252
v 0 0.7753322 -7.845732
v 0 1.454531 -5.859295
v 0 0.217217 -4.051024E-06
v 0 -8.34465E-06 -4.051024E-06
v 0 -8.34465E-06 -5.01327
v 0 0.217217 -5.01327
v 0 0.217217 5.013263
v 0 -8.34465E-06 5.013263
v 0 -8.34465E-06 -4.051024E-06
v 0 0.217217 -4.051024E-06
v 0 1.454531 -5.859295
v 0 4.053116E-06 -5.859295
v 0 -2.801418E-06 -7.845732
v 0 0.7753322 -7.845732
v 0 0.7753322 7.845723
v 0 -2.801418E-06 7.845723
v 0 4.053116E-06 5.859286
v 0 1.454531 5.859286
v 0 4.053116E-06 5.859286
v 0 -8.34465E-06 5.013263
v 0 0.217217 5.013263
v 0 1.454531 5.859286
v 0 1.454531 -5.859295
v 0 0.217217 -5.01327
v 0 -8.34465E-06 -5.01327
v 0 4.053116E-06 -5.859295
v 0 4.053116E-06 -5.859295
v 4.692951 -2.160668E-06 -6.459293
v 2.467232 -2.160668E-06 -7.593334
v 6.459286 -2.160668E-06 -4.692958
v 0 -8.34465E-06 -5.01327
v 0 -8.34465E-06 -4.051024E-06
v 7.593328 -2.160668E-06 -2.467221
v 6.459286 -2.160668E-06 -4.692958
v 7.984089 -2.160668E-06 -2.360093E-06
v 0 -8.34465E-06 5.013263
v 7.593328 -2.160668E-06 2.467219
v 6.459286 -2.160668E-06 4.692949
v 4.692951 -2.160668E-06 6.459285
v 0 4.053116E-06 5.859286
v 0 -2.801418E-06 7.845723
v 2.467222 -2.160668E-06 7.593327
v 4.692951 -2.160668E-06 6.459285
v 0 -2.160668E-06 7.984087
vt 0 0
vt 0.03086338 0.1729498
vt 0.9999999 1.127726E-15
vt 0 0
vt 8.264169E-07 0.1784568
vt 0.9999999 0
vt 0.6254883 1.38318
vt 0.5004883 1.38318
vt 0 0
vt 0 0
vt 0 1
vt 0.6254883 1.38318
vt 1 0.5816443
vt 0 1
vt 0.8745118 1.383181
vt 8.523501E-06 0
vt 0 1
vt 1.498535 1.38318
vt 1.364092 0.4531832
vt 1.296159 0.4310938
vt 1.292657 0.4531676
vt 1.306309 0.4111821
vt 1.322116 0.3953819
vt 1.342032 0.3852399
vt 1.364108 0.3817483
vt 1.386182 0.3852495
vt 1.406093 0.3954002
vt 1.421893 0.4112073
vt 1.432035 0.4311233
vt 1.435527 0.4531987
vt -0.4500238 1.353929
vt 0.7793143 1.521192
vt -0.5161474 1.353929
vt 0.8755326 1.521192
vt 0.9721867 1.521192
vt -0.3839003 1.353929
vt -0.5161473 1.421129
vt -0.5822709 1.353929
vt -0.5161474 1.353929
vt -0.5822707 1.421129
vt -0.6501346 1.353929
vt -0.6501344 1.421129
vt -0.716258 1.353929
vt -0.716258 1.421129
vt -0.7849917 1.353929
vt -0.7849916 1.421129
vt -0.1176661 1.421129
vt -0.1837896 1.353929
vt -0.1176661 1.353929
vt -0.1837897 1.421129
vt -0.2499131 1.353929
vt -0.2499131 1.421129
vt -0.3160367 1.353929
vt -0.3160367 1.421129
vt -0.3839003 1.353929
vt -0.3839002 1.421129
vt 0.5019532 1.254967
vt 0.5004883 1.38318
vt 0.6254883 1.38318
vt 0.65625 1.254967
vt 0.7495115 1.38318
vt 0.8046876 1.254967
vt 0.8745118 1.383181
vt 0.9570313 1.254966
vt 0.9995116 1.38318
vt 1.105469 1.254967
vt 1.123535 1.38318
vt 1.253906 1.254967
vt 1.248535 1.38318
vt 1.402344 1.254967
vt 1.373535 1.383181
vt 1.554688 1.254967
vt 1.498535 1.38318
vt 1.703125 1.254967
vt 1.622559 1.383181
vt 1.851563 1.254967
vt 1.747558 1.38318
vt 2 1.254967
vt 1.851563 1.254967
vt 2 1.254967
vt 1.999967 1.349841
vt 1.851591 1.349828
vt 1.703125 1.254967
vt 1.703154 1.349828
vt 1.554688 1.254967
vt 1.554716 1.349828
vt 1.402344 1.254967
vt 1.402374 1.349828
vt 1.253906 1.254967
vt 1.253874 1.34984
vt 1.105469 1.254967
vt 1.105497 1.349828
vt 0.9570313 1.254966
vt 0.9570599 1.349828
vt 0.8046876 1.254967
vt 0.8047174 1.349828
vt 0.65625 1.254967
vt 0.6562785 1.349828
vt 0.5019532 1.254967
vt 0.5019841 1.349828
vt 0 0
vt 0 1
vt 1 1
vt 1 0
vt 0 0
vt 0 1
vt 1 1
vt 1 0
vt 0 0
vt 0 1
vt 1 1
vt 1 0
vt 0 0
vt 0 1
vt 1 1
vt 1 0
vt 8.523501E-06 0
vt 0 0.5816436
vt 0.149343 0.5816436
vt 1 0
vt 0 0
vt 0.850657 0.5816443
vt 1 0.5816443
vt 0.9999915 0
vt 0 1
vt 0.7495115 1.38318
vt 0.6254883 1.38318
vt 0.8745118 1.383181
vt 1 0.5816443
vt 0 1
vt 0.9995116 1.38318
vt 0.8745118 1.383181
vt 1.123535 1.38318
vt 0 1
vt 1.248535 1.38318
vt 1.373535 1.383181
vt 1.498535 1.38318
vt 8.523501E-06 0
vt 0 1
vt 1.622559 1.383181
vt 1.498535 1.38318
vt 0 0
vn -1 0 0
vn -1 0 0
vn -1 0 0
vn -1 0 0
vn -1 0 0
vn -1 0 0
vn 0 -1 0
vn 0 -1 0
vn 0 -1 0
vn 0 -1 0
vn 0 -1 0
vn 0 -1 0
vn 0 -1 0
vn 0 -1 0
vn 0 -1 0
vn 0 -1 0
vn 0 -1 0
vn 0 -1 0
vn 0 1 0
vn -0.1243202 0.9155015 -0.3826247
vn -0.06359284 0.913647 -0.4015037
vn -0.2364737 0.9155006 -0.3254824
vn -0.3254825 0.9155006 -0.2364739
vn -0.3826251 0.9155012 -0.1243204
vn -0.4023177 0.9155002 0
vn -0.382625 0.9155012 0.1243204
vn -0.3254823 0.9155006 0.2364735
vn -0.2364739 0.9155006 0.3254822
vn -0.1243203 0.9155014 0.3826248
vn -0.06359239 0.9136473 0.401503
vn -0.06500737 0.9978848 0
vn -0.382625 0.9155012 0.1243204
vn -0.06182837 0.9978846 0.02008806
vn -0.4023177 0.9155002 0
vn -0.3826251 0.9155012 -0.1243204
vn -0.06182819 0.9978846 -0.02008804
vn -0.382625 0.9155012 0.1243204
vn -0.05259141 0.9978848 0.03820891
vn -0.06182837 0.9978846 0.02008806
vn -0.3254823 0.9155006 0.2364735
vn -0.03820931 0.9978848 0.05259209
vn -0.2364739 0.9155006 0.3254822
vn -0.020088 0.9978847 0.06182766
vn -0.1243203 0.9155014 0.3826248
vn -0.01029496 0.997832 0.06500314
vn -0.06359239 0.9136473 0.401503
vn -0.06359284 0.913647 -0.4015037
vn -0.02008794 0.9978846 -0.06182789
vn -0.01029507 0.9978319 -0.06500394
vn -0.1243202 0.9155015 -0.3826247
vn -0.03820917 0.9978848 -0.05259155
vn -0.2364737 0.9155006 -0.3254824
vn -0.05259141 0.9978848 -0.03820897
vn -0.3254825 0.9155006 -0.2364739
vn -0.06182819 0.9978846 -0.02008804
vn -0.3826251 0.9155012 -0.1243204
vn 0.09681552 0.7854861 -0.6112598
vn 0.1540606 0.1736008 -0.9726911
vn 0.3042074 0.175713 -0.93626
vn 0.1897807 0.7891946 -0.5840849
vn 0.5786364 0.1757333 -0.7964281
vn 0.3609835 0.7891949 -0.4968524
vn 0.7964292 0.1757332 -0.5786349
vn 0.4968534 0.7891946 -0.360983
vn 0.9362601 0.1757131 -0.3042071
vn 0.5840851 0.7891945 -0.1897804
vn 0.9844438 0.1756998 0
vn 0.6141446 0.7891935 0
vn 0.9362596 0.1757142 0.3042077
vn 0.584085 0.7891946 0.1897803
vn 0.796429 0.1757339 0.578635
vn 0.496853 0.7891948 0.3609831
vn 0.5786351 0.1757342 0.7964289
vn 0.3609829 0.7891947 0.4968531
vn 0.3042081 0.1757146 0.9362595
vn 0.1897802 0.7891947 0.5840849
vn 0.1540616 0.173603 0.9726906
vn 0.09681612 0.7854862 0.6112593
vn 0.1897802 0.7891947 0.5840849
vn 0.09681612 0.7854862 0.6112593
vn -0.01029507 0.9978319 -0.06500394
vn -0.02008794 0.9978846 -0.06182789
vn 0.3609829 0.7891947 0.4968531
vn -0.03820917 0.9978848 -0.05259155
vn 0.496853 0.7891948 0.3609831
vn -0.05259141 0.9978848 -0.03820897
vn 0.584085 0.7891946 0.1897803
vn -0.06182819 0.9978846 -0.02008804
vn 0.6141446 0.7891935 0
vn -0.06500737 0.9978848 0
vn 0.5840851 0.7891945 -0.1897804
vn -0.06182837 0.9978846 0.02008806
vn 0.4968534 0.7891946 -0.360983
vn -0.05259141 0.9978848 0.03820891
vn 0.3609835 0.7891949 -0.4968524
vn -0.03820931 0.9978848 0.05259209
vn 0.1897807 0.7891946 -0.5840849
vn -0.020088 0.9978847 0.06182766
vn 0.09681552 0.7854861 -0.6112598
vn -0.01029496 0.997832 0.06500314
vn -1 0 0
vn -1 0 0
vn -1 0 0
vn -1 0 0
vn -1 0 0
vn -1 0 0
vn -1 0 0
vn -1 0 0
vn -1 0 0
vn -1 0 0
vn -1 0 0
vn -1 0 0
vn -1 0 0
vn -1 0 0
vn -1 0 0
vn -1 0 0
vn -1 0 0
vn -1 0 0
vn -1 0 0
vn -1 0 0
vn -1 0 0
vn -1 0 0
vn -1 0 0
vn -1 0 0
vn 0 -1 0
vn 0 -1 0
vn 0 -1 0
vn 0 -1 0
vn 0 -1 0
vn 0 -1 0
vn 0 -1 0
vn 0 -1 0
vn 0 -1 0
vn 0 -1 0
vn 0 -1 0
vn 0 -1 0
vn 0 -1 0
vn 0 -1 0
vn 0 -1 0
vn 0 -1 0
vn 0 -1 0
vn 0 -1 0
g fountain_COL_0
f 3/3/3 2/2/2 1/1/1
f 6/6/6 5/5/5 4/4/4
f 9/9/9 8/8/8 7/7/7
f 12/12/12 11/11/11 10/10/10
f 15/15/15 14/14/14 13/13/13
f 18/18/18 17/17/17 16/16/16
f 21/21/21 20/20/20 19/19/19
f 20/20/20 22/22/22 19/19/19
f 22/22/22 23/23/23 19/19/19
f 23/23/23 24/24/24 19/19/19
f 24/24/24 25/25/25 19/19/19
f 25/25/25 26/26/26 19/19/19
f 26/26/26 27/27/27 19/19/19
f 27/27/27 28/28/28 19/19/19
f 28/28/28 29/29/29 19/19/19
f 29/29/29 30/30/30 19/19/19
f 33/33/33 32/32/32 31/31/31
f 32/32/32 34/34/34 31/31/31
f 31/31/31 34/34/34 35/35/35
f 36/36/36 31/31/31 35/35/35
f 39/39/39 38/38/38 37/37/37
f 38/38/38 40/40/40 37/37/37
f 38/38/38 41/41/41 40/40/40
f 41/41/41 42/42/42 40/40/40
f 41/41/41 43/43/43 42/42/42
f 43/43/43 44/44/44 42/42/42
f 43/43/43 45/45/45 44/44/44
f 45/45/45 46/46/46 44/44/44
f 49/49/49 48/48/48 47/47/47
f 48/48/48 50/50/50 47/47/47
f 48/48/48 51/51/51 50/50/50
f 51/51/51 52/52/52 50/50/50
f 51/51/51 53/53/53 52/52/52
f 53/53/53 54/54/54 52/52/52
f 53/53/53 55/55/55 54/54/54
f 55/55/55 56/56/56 54/54/54
f 59/59/59 58/58/58 57/57/57
f 60/60/60 59/59/59 57/57/57
f 61/61/61 59/59/59 60/60/60
f 62/62/62 61/61/61 60/60/60
f 63/63/63 61/61/61 62/62/62
f 64/64/64 63/63/63 62/62/62
f 65/65/65 63/63/63 64/64/64
f 66/66/66 65/65/65 64/64/64
f 65/65/65 66/66/66 67/67/67
f 66/66/66 68/68/68 67/67/67
f 69/69/69 67/67/67 68/68/68
f 70/70/70 69/69/69 68/68/68
f 71/71/71 69/69/69 70/70/70
f 72/72/72 71/71/71 70/70/70
f 73/73/73 71/71/71 72/72/72
f 74/74/74 73/73/73 72/72/72
f 75/75/75 73/73/73 74/74/74
f 76/76/76 75/75/75 74/74/74
f 77/77/77 75/75/75 76/76/76
f 78/78/78 77/77/77 76/76/76
f 81/81/81 80/80/80 79/79/79
f 82/82/82 81/81/81 79/79/79
f 82/82/82 79/79/79 83/83/83
f 84/84/84 82/82/82 83/83/83
f 84/84/84 83/83/83 85/85/85
f 86/86/86 84/84/84 85/85/85
f 86/86/86 85/85/85 87/87/87
f 88/88/88 86/86/86 87/87/87
f 88/88/88 87/87/87 89/89/89
f 90/90/90 88/88/88 89/89/89
f 89/89/89 91/91/91 90/90/90
f 91/91/91 92/92/92 90/90/90
f 92/92/92 91/91/91 93/93/93
f 94/94/94 92/92/92 93/93/93
f 94/94/94 93/93/93 95/95/95
f 96/96/96 94/94/94 95/95/95
f 96/96/96 95/95/95 97/97/97
f 98/98/98 96/96/96 97/97/97
f 98/98/98 97/97/97 99/99/99
f 100/100/100 98/98/98 99/99/99
f 103/103/103 102/102/102 101/101/101
f 104/104/104 103/103/103 101/101/101
f 107/107/107 106/106/106 105/105/105
f 108/108/108 107/107/107 105/105/105
f 111/111/111 110/110/110 109/109/109
f 112/112/112 111/111/111 109/109/109
f 115/115/115 114/114/114 113/113/113
f 116/116/116 115/115/115 113/113/113
f 119/119/119 118/118/118 117/117/117
f 120/120/120 119/119/119 117/117/117
f 123/123/123 122/122/122 121/121/121
f 124/124/124 123/123/123 121/121/121
f 127/127/127 126/126/126 125/125/125
f 126/126/126 128/128/128 125/125/125
f 128/128/128 129/129/129 125/125/125
f 132/132/132 131/131/131 130/130/130
f 131/131/131 133/133/133 130/130/130
f 133/133/133 134/134/134 130/130/130
f 133/133/133 135/135/135 134/134/134
f 135/135/135 136/136/136 134/134/134
f 136/136/136 137/137/137 134/134/134
f 137/137/137 138/138/138 134/134/134
f 141/141/141 140/140/140 139/139/139
f 140/140/140 142/142/142 139/139/139
