g fountain_water_top
v 0.4509652 0.07439423 -0.6207005
v -3.738803E-20 -0.04891815 -2.425902E-20
v 0.2370864 0.07439423 -0.729677
v 0.6207004 0.07439423 -0.4509652
v -3.738803E-20 -0.04891815 -2.425902E-20
v 0.7296771 0.07439423 -0.2370865
v -3.738803E-20 -0.04891815 -2.425902E-20
v 0.7672274 0.07439423 -2.536568E-08
v -3.738803E-20 -0.04891815 -2.425902E-20
v 0.7296765 0.07439423 0.2370863
v -3.738803E-20 -0.04891815 -2.425902E-20
v 0.6207001 0.07439423 0.4509649
v -3.738803E-20 -0.04891815 -2.425902E-20
v 0.4509649 0.07439423 0.6207001
v -3.738803E-20 -0.04891815 -2.425902E-20
v 0.2370863 0.07439423 0.7296767
v -3.738803E-20 -0.04891815 -2.425902E-20
v -3.977561E-08 0.07439423 0.7672275
v -3.738803E-20 -0.04891815 -2.425902E-20
v -0.2370864 0.07439423 0.7296767
v -3.738803E-20 -0.04891815 -2.425902E-20
v -0.4509651 0.07439423 0.6207001
v -3.738803E-20 -0.04891815 -2.425902E-20
v -0.6207002 0.07439423 0.4509651
v -3.738803E-20 -0.04891815 -2.425902E-20
v -0.7296768 0.07439423 0.2370863
v -3.738803E-20 -0.04891815 -2.425902E-20
v -0.7672276 0.07439423 -2.536568E-08
v -3.738803E-20 -0.04891815 -2.425902E-20
v -0.7296768 0.07439423 -0.2370864
v -3.738803E-20 -0.04891815 -2.425902E-20
v -0.6207004 0.07439423 -0.4509651
v -3.738803E-20 -0.04891815 -2.425902E-20
v -0.4509651 0.07439423 -0.6207004
v -3.738803E-20 -0.04891815 -2.425902E-20
v -0.2370864 0.07439423 -0.729677
v -3.738803E-20 -0.04891815 -2.425902E-20
v -1.691045E-08 0.07439423 -0.7672277
v -3.738803E-20 -0.04891815 -2.425902E-20
v 0.2370864 0.07439423 -0.729677
v -3.738803E-20 -0.04891815 -2.425902E-20
v -1.691045E-08 0.07439423 -0.7672277
v 0.290547 -2.046071 -0.8942119
v 1.53096E-09 -0.1247226 -0.9219257
v 3.713017E-09 -2.046071 -0.94023
v 0.2848907 -0.1247226 -0.8768035
v 0.5526533 -2.046071 -0.7606621
v -4.102124E-09 0.006429443 -0.8746718
v 0.5418943 -0.1247226 -0.7458535
v 0.7606622 -2.046071 -0.5526533
v 0.2702885 0.006429443 -0.8318624
v -1.691045E-08 0.07439423 -0.7672277
v 0.2370864 0.07439423 -0.729677
v 0.5141193 0.006429443 -0.7076246
v 0.4509652 0.07439423 -0.6207005
v 0.7458537 -0.1247226 -0.5418943
v 0.8942122 -2.046071 -0.2905471
v 0.7076246 0.006429443 -0.5141193
v 0.6207004 0.07439423 -0.4509652
v 0.8768035 -0.1247226 -0.2848907
v 0.9402297 -2.046071 1.324745E-09
v 0.8318624 0.006429443 -0.2702885
v 0.7296771 0.07439423 -0.2370865
v 0.9219252 -0.1247226 2.29644E-09
v 0.8942116 -2.046071 0.2905469
v 0.8746714 0.006429443 -6.153189E-09
v 0.7672274 0.07439423 -2.536568E-08
v 0.876803 -0.1247226 0.2848906
v 0.7606618 -2.046071 0.5526531
v 0.8318619 0.006429443 0.2702883
v 0.7296765 0.07439423 0.2370863
v 0.7458532 -0.1247226 0.5418941
v 0.5526531 -2.046071 0.7606618
v 0.707624 0.006429443 0.514119
v 0.6207001 0.07439423 0.4509649
v 0.541894 -0.1247226 0.7458532
v 0.2905469 -2.046071 0.8942115
v 0.514119 0.006429443 0.707624
v 0.4509649 0.07439423 0.6207001
v 0.2848905 -0.1247226 0.876803
v -2.430802E-08 -2.046071 0.9402297
v 0.2702883 0.006429443 0.8318619
v 0.2370863 0.07439423 0.7296767
v -2.594455E-08 -0.1247226 0.9219252
v -0.290547 -2.046071 0.8942116
v -3.016936E-08 0.006429443 0.8746716
v -3.977561E-08 0.07439423 0.7672275
v -0.2848906 -0.1247226 0.8768031
v -0.5526532 -2.046071 0.7606618
v -0.2702884 0.006429443 0.8318621
v -0.2370864 0.07439423 0.7296767
v -0.5418941 -0.1247226 0.7458534
v -0.760662 -2.046071 0.5526531
v -0.5141191 0.006429443 0.7076242
v -0.4509651 0.07439423 0.6207001
v -0.7458534 -0.1247226 0.5418941
v -0.8942119 -2.046071 0.290547
v -0.7076242 0.006429443 0.514119
v -0.6207002 0.07439423 0.4509651
v -0.8768031 -0.1247226 0.2848907
v -0.9402298 -2.046071 1.324745E-09
v -0.8318622 0.006429443 0.2702884
v -0.7296768 0.07439423 0.2370863
v -0.9219255 -0.1247226 2.29644E-09
v -0.8942119 -2.046071 -0.290547
v -0.8746716 0.006429443 -6.153189E-09
v -0.7672276 0.07439423 -2.536568E-08
v -0.8768031 -0.1247226 -0.2848906
v -0.760662 -2.046071 -0.5526532
v -0.8318622 0.006429443 -0.2702884
v -0.7296768 0.07439423 -0.2370864
v -0.7458534 -0.1247226 -0.5418942
v -0.5526533 -2.046071 -0.7606621
v -0.7076243 0.006429443 -0.5141191
v -0.6207004 0.07439423 -0.4509651
v -0.5418942 -0.1247226 -0.7458534
v -0.2905471 -2.046071 -0.8942119
v -0.5141193 0.006429443 -0.7076244
v -0.4509651 0.07439423 -0.6207004
v -0.2848907 -0.1247226 -0.8768033
v 3.713017E-09 -2.046071 -0.94023
v 1.53096E-09 -0.1247226 -0.9219257
v -0.2702885 0.006429443 -0.8318623
v -0.2370864 0.07439423 -0.729677
v -4.102124E-09 0.006429443 -0.8746718
v -1.691045E-08 0.07439423 -0.7672277
vt 1.300032 1
vt 0.6476154 0.9418463
vt 1.400032 1
vt 1.200032 1
vt 0.6476154 0.9418463
vt 1.100032 1
vt 0.6476154 0.9418463
vt 1.000032 1
vt 0.6476154 0.9418463
vt 0.9000318 1
vt 0.6476154 0.9418463
vt 0.8000318 1
vt 0.6476154 0.9418463
vt 0.7000318 1
vt 0.6476154 0.9418463
vt 0.6000318 1
vt 0.6476154 0.9418463
vt 0.5000318 1
vt 0.6476154 0.9418463
vt 0.4000319 1
vt 0.6476154 0.9418463
vt 0.3000319 1
vt 0.6476154 0.9418463
vt 0.2000319 1
vt 0.6476154 0.9418463
vt 0.1000319 1
vt 0.6476154 0.9418463
vt 3.188848E-05 1
vt 0.6476154 0.9418463
vt -0.09996814 1
vt 0.6476154 0.9418463
vt -0.1999681 1
vt 0.6476154 0.9418463
vt -0.2999682 1
vt 0.6476154 0.9418463
vt -0.3999682 1
vt 0.6476154 0.9418463
vt -0.4999682 1
vt 0.6476154 0.9418463
vt 1.400032 1
vt 2.647615 0.9418463
vt 1.500032 1
vt 1.400032 2.980232E-08
vt 1.500032 0.9060974
vt 1.500032 2.980232E-08
vt 1.400032 0.9060974
vt 1.300032 2.980232E-08
vt 1.500032 0.9679481
vt 1.300032 0.9060974
vt 1.200032 2.980232E-08
vt 1.400032 0.9679481
vt 1.500032 1
vt 1.400032 1
vt 1.300032 0.9679481
vt 1.300032 1
vt 1.200032 0.9060974
vt 1.100032 2.980232E-08
vt 1.200032 0.9679481
vt 1.200032 1
vt 1.100032 0.9060974
vt 1.000032 2.980232E-08
vt 1.100032 0.9679481
vt 1.100032 1
vt 1.000032 0.9060974
vt 0.9000318 2.980232E-08
vt 1.000032 0.9679481
vt 1.000032 1
vt 0.9000318 0.9060974
vt 0.8000318 2.980232E-08
vt 0.9000318 0.9679481
vt 0.9000318 1
vt 0.8000318 0.9060974
vt 0.7000318 2.980232E-08
vt 0.8000318 0.9679481
vt 0.8000318 1
vt 0.7000318 0.9060974
vt 0.6000319 2.980232E-08
vt 0.7000318 0.9679481
vt 0.7000318 1
vt 0.6000318 0.9060974
vt 0.5000318 2.980232E-08
vt 0.6000318 0.9679481
vt 0.6000318 1
vt 0.5000318 0.9060974
vt 0.4000319 2.980232E-08
vt 0.5000318 0.9679481
vt 0.5000318 1
vt 0.4000319 0.9060974
vt 0.3000319 2.980232E-08
vt 0.4000319 0.9679481
vt 0.4000319 1
vt 0.3000319 0.9060974
vt 0.2000318 2.980232E-08
vt 0.3000319 0.9679481
vt 0.3000319 1
vt 0.2000319 0.9060974
vt 0.1000319 2.980232E-08
vt 0.2000319 0.9679481
vt 0.2000319 1
vt 0.1000319 0.9060974
vt 3.188848E-05 2.980232E-08
vt 0.1000319 0.9679481
vt 0.1000319 1
vt 3.188848E-05 0.9060974
vt -0.09996814 2.980232E-08
vt 3.188848E-05 0.9679481
vt 3.188848E-05 1
vt -0.09996814 0.9060974
vt -0.1999681 2.980232E-08
vt -0.09996814 0.9679481
vt -0.09996814 1
vt -0.1999682 0.9060974
vt -0.2999682 2.980232E-08
vt -0.1999682 0.9679481
vt -0.1999681 1
vt -0.2999682 0.9060974
vt -0.3999681 2.980232E-08
vt -0.2999681 0.9679481
vt -0.2999682 1
vt -0.3999681 0.9060974
vt -0.4999682 2.980232E-08
vt -0.4999682 0.9060974
vt -0.3999681 0.9679481
vt -0.3999682 1
vt -0.4999682 0.9679481
vt -0.4999682 1
vn 0.02906934 0.9987763 -0.04001099
vn 0 1 0
vn 0.01528261 0.9987763 -0.04703541
vn 0.04001039 0.9987763 -0.02906947
vn 0 1 0
vn 0.04703528 0.9987763 -0.01528273
vn 0 1 0
vn 0.04945536 0.9987764 0
vn 0 1 0
vn 0.04703502 0.9987763 0.01528322
vn 0 1 0
vn 0.04001041 0.9987763 0.0290699
vn 0 1 0
vn 0.02906919 0.9987763 0.04001109
vn 0 1 0
vn 0.01528271 0.9987763 0.0470353
vn 0 1 0
vn 0 0.9987764 0.04945497
vn 0 1 0
vn -0.01528263 0.9987763 0.04703567
vn 0 1 0
vn -0.02906922 0.9987763 0.0400105
vn 0 1 0
vn -0.04001046 0.9987763 0.02906917
vn 0 1 0
vn -0.04703502 0.9987763 0.01528298
vn 0 1 0
vn -0.04945565 0.9987763 -1.228767E-07
vn 0 1 0
vn -0.04703498 0.9987763 -0.0152824
vn 0 1 0
vn -0.04001047 0.9987763 -0.02906982
vn 0 1 0
vn -0.02906927 0.9987763 -0.040011
vn 0 1 0
vn -0.01528263 0.9987763 -0.04703522
vn 0 1 0
vn 0 0.9987763 -0.04945584
vn 0 1 0
vn 0.01528261 0.9987763 -0.04703541
vn 0 1 0
vn 0 0.9987763 -0.04945584
vn 0.3090029 0.009526379 -0.9510134
vn -1.847834E-07 0.03047923 -0.9995354
vn -1.758807E-07 0.009526392 -0.9999547
vn 0.3088733 0.0304792 -0.9506147
vn 0.5877586 0.00952639 -0.8089803
vn -2.913053E-07 0.5848289 -0.8111566
vn 0.5875122 0.03047921 -0.8086411
vn 0.8089802 0.009526425 -0.5877587
vn 0.250661 0.5848291 -0.7714557
vn 0 0.9987763 -0.04945584
vn 0.01528261 0.9987763 -0.04703541
vn 0.476786 0.5848287 -0.6562397
vn 0.02906934 0.9987763 -0.04001099
vn 0.808641 0.03047925 -0.5875123
vn 0.9510136 0.009526471 -0.3090021
vn 0.6562394 0.5848287 -0.4767865
vn 0.04001039 0.9987763 -0.02906947
vn 0.9506149 0.03047929 -0.3088725
vn 0.9999547 0.009526483 9.216154E-07
vn 0.7714561 0.5848286 -0.250661
vn 0.04703528 0.9987763 -0.01528273
vn 0.9995354 0.03047931 9.371159E-07
vn 0.9510133 0.009526457 0.309003
vn 0.8111569 0.5848286 4.941132E-07
vn 0.04945536 0.9987764 0
vn 0.9506147 0.0304793 0.3088734
vn 0.8089802 0.00952641 0.5877587
vn 0.771456 0.5848287 0.2506612
vn 0.04703502 0.9987763 0.01528322
vn 0.8086411 0.03047925 0.5875123
vn 0.5877587 0.009526409 0.8089803
vn 0.6562397 0.5848289 0.4767858
vn 0.04001041 0.9987763 0.0290699
vn 0.5875123 0.03047924 0.8086411
vn 0.309003 0.009526429 0.9510133
vn 0.476786 0.5848286 0.6562397
vn 0.02906919 0.9987763 0.04001109
vn 0.3088735 0.03047927 0.9506147
vn 0 0.009526434 0.9999547
vn 0.2506616 0.5848286 0.7714558
vn 0.01528271 0.9987763 0.0470353
vn 0 0.03047924 0.9995354
vn -0.3090028 0.009526419 0.9510134
vn 1.640899E-07 0.5848287 0.8111567
vn 0 0.9987764 0.04945497
vn -0.3088733 0.03047923 0.9506147
vn -0.5877585 0.009526388 0.8089803
vn -0.2506612 0.584829 0.7714558
vn -0.01528263 0.9987763 0.04703567
vn -0.5875122 0.03047923 0.8086411
vn -0.8089802 0.009526424 0.5877587
vn -0.4767862 0.5848289 0.6562394
vn -0.02906922 0.9987763 0.0400105
vn -0.808641 0.03047927 0.5875123
vn -0.9510134 0.009526455 0.309003
vn -0.6562396 0.5848288 0.476786
vn -0.04001046 0.9987763 0.02906917
vn -0.9506147 0.03047929 0.3088734
vn -0.9999547 0.009526458 0
vn -0.771456 0.5848287 0.2506611
vn -0.04703502 0.9987763 0.01528298
vn -0.9995354 0.03047928 0
vn -0.9510134 0.009526489 -0.3090029
vn -0.8111569 0.5848287 -1.751521E-07
vn -0.04945565 0.9987763 -1.228767E-07
vn -0.9506147 0.03047931 -0.3088734
vn -0.8089803 0.009526477 -0.5877585
vn -0.7714561 0.5848285 -0.2506614
vn -0.04703498 0.9987763 -0.0152824
vn -0.8086411 0.03047927 -0.587512
vn -0.5877587 0.009526465 -0.8089802
vn -0.6562399 0.5848285 -0.476786
vn -0.04001047 0.9987763 -0.02906982
vn -0.5875124 0.03047926 -0.808641
vn -0.3090032 0.009526446 -0.9510133
vn -0.4767864 0.5848287 -0.6562394
vn -0.02906927 0.9987763 -0.040011
vn -0.3088736 0.03047927 -0.9506146
vn -1.758807E-07 0.009526392 -0.9999547
vn -1.847834E-07 0.03047923 -0.9995354
vn -0.2506613 0.5848288 -0.7714558
vn -0.01528263 0.9987763 -0.04703522
vn -2.913053E-07 0.5848289 -0.8111566
vn 0 0.9987763 -0.04945584
g fountain_water_top_0
f 3/3/3 2/2/2 1/1/1
f 1/1/1 5/5/5 4/4/4
f 4/4/4 7/7/7 6/6/6
f 6/6/6 9/9/9 8/8/8
f 8/8/8 11/11/11 10/10/10
f 10/10/10 13/13/13 12/12/12
f 12/12/12 15/15/15 14/14/14
f 14/14/14 17/17/17 16/16/16
f 16/16/16 19/19/19 18/18/18
f 18/18/18 21/21/21 20/20/20
f 20/20/20 23/23/23 22/22/22
f 22/22/22 25/25/25 24/24/24
f 24/24/24 27/27/27 26/26/26
f 26/26/26 29/29/29 28/28/28
f 28/28/28 31/31/31 30/30/30
f 30/30/30 33/33/33 32/32/32
f 32/32/32 35/35/35 34/34/34
f 34/34/34 37/37/37 36/36/36
f 36/36/36 39/39/39 38/38/38
f 42/42/42 41/41/41 40/40/40
f 45/45/45 44/44/44 43/43/43
f 44/44/44 46/46/46 43/43/43
f 43/43/43 46/46/46 47/47/47
f 44/44/44 48/48/48 46/46/46
f 46/46/46 49/49/49 47/47/47
f 47/47/47 49/49/49 50/50/50
f 48/48/48 51/51/51 46/46/46
f 46/46/46 51/51/51 49/49/49
f 48/48/48 52/52/52 51/51/51
f 52/52/52 53/53/53 51/51/51
f 51/51/51 53/53/53 54/54/54
f 51/51/51 54/54/54 49/49/49
f 53/53/53 55/55/55 54/54/54
f 49/49/49 56/56/56 50/50/50
f 49/49/49 54/54/54 56/56/56
f 50/50/50 56/56/56 57/57/57
f 54/54/54 55/55/55 58/58/58
f 54/54/54 58/58/58 56/56/56
f 55/55/55 59/59/59 58/58/58
f 56/56/56 60/60/60 57/57/57
f 56/56/56 58/58/58 60/60/60
f 57/57/57 60/60/60 61/61/61
f 58/58/58 59/59/59 62/62/62
f 58/58/58 62/62/62 60/60/60
f 59/59/59 63/63/63 62/62/62
f 60/60/60 64/64/64 61/61/61
f 60/60/60 62/62/62 64/64/64
f 61/61/61 64/64/64 65/65/65
f 62/62/62 63/63/63 66/66/66
f 62/62/62 66/66/66 64/64/64
f 63/63/63 67/67/67 66/66/66
f 64/64/64 68/68/68 65/65/65
f 64/64/64 66/66/66 68/68/68
f 65/65/65 68/68/68 69/69/69
f 66/66/66 67/67/67 70/70/70
f 66/66/66 70/70/70 68/68/68
f 67/67/67 71/71/71 70/70/70
f 68/68/68 72/72/72 69/69/69
f 68/68/68 70/70/70 72/72/72
f 69/69/69 72/72/72 73/73/73
f 70/70/70 71/71/71 74/74/74
f 70/70/70 74/74/74 72/72/72
f 71/71/71 75/75/75 74/74/74
f 72/72/72 76/76/76 73/73/73
f 72/72/72 74/74/74 76/76/76
f 73/73/73 76/76/76 77/77/77
f 74/74/74 75/75/75 78/78/78
f 74/74/74 78/78/78 76/76/76
f 75/75/75 79/79/79 78/78/78
f 76/76/76 80/80/80 77/77/77
f 76/76/76 78/78/78 80/80/80
f 77/77/77 80/80/80 81/81/81
f 78/78/78 79/79/79 82/82/82
f 78/78/78 82/82/82 80/80/80
f 79/79/79 83/83/83 82/82/82
f 80/80/80 84/84/84 81/81/81
f 80/80/80 82/82/82 84/84/84
f 81/81/81 84/84/84 85/85/85
f 82/82/82 83/83/83 86/86/86
f 82/82/82 86/86/86 84/84/84
f 83/83/83 87/87/87 86/86/86
f 84/84/84 88/88/88 85/85/85
f 84/84/84 86/86/86 88/88/88
f 85/85/85 88/88/88 89/89/89
f 86/86/86 87/87/87 90/90/90
f 86/86/86 90/90/90 88/88/88
f 87/87/87 91/91/91 90/90/90
f 88/88/88 92/92/92 89/89/89
f 88/88/88 90/90/90 92/92/92
f 89/89/89 92/92/92 93/93/93
f 90/90/90 91/91/91 94/94/94
f 90/90/90 94/94/94 92/92/92
f 91/91/91 95/95/95 94/94/94
f 92/92/92 96/96/96 93/93/93
f 92/92/92 94/94/94 96/96/96
f 93/93/93 96/96/96 97/97/97
f 94/94/94 95/95/95 98/98/98
f 94/94/94 98/98/98 96/96/96
f 95/95/95 99/99/99 98/98/98
f 96/96/96 100/100/100 97/97/97
f 96/96/96 98/98/98 100/100/100
f 97/97/97 100/100/100 101/101/101
f 98/98/98 99/99/99 102/102/102
f 98/98/98 102/102/102 100/100/100
f 99/99/99 103/103/103 102/102/102
f 100/100/100 104/104/104 101/101/101
f 100/100/100 102/102/102 104/104/104
f 101/101/101 104/104/104 105/105/105
f 102/102/102 103/103/103 106/106/106
f 102/102/102 106/106/106 104/104/104
f 103/103/103 107/107/107 106/106/106
f 104/104/104 108/108/108 105/105/105
f 104/104/104 106/106/106 108/108/108
f 105/105/105 108/108/108 109/109/109
f 106/106/106 107/107/107 110/110/110
f 106/106/106 110/110/110 108/108/108
f 107/107/107 111/111/111 110/110/110
f 108/108/108 112/112/112 109/109/109
f 108/108/108 110/110/110 112/112/112
f 109/109/109 112/112/112 113/113/113
f 110/110/110 111/111/111 114/114/114
f 110/110/110 114/114/114 112/112/112
f 111/111/111 115/115/115 114/114/114
f 112/112/112 116/116/116 113/113/113
f 112/112/112 114/114/114 116/116/116
f 113/113/113 116/116/116 117/117/117
f 114/114/114 115/115/115 118/118/118
f 114/114/114 118/118/118 116/116/116
f 115/115/115 119/119/119 118/118/118
f 116/116/116 120/120/120 117/117/117
f 116/116/116 118/118/118 120/120/120
f 117/117/117 120/120/120 121/121/121
f 120/120/120 122/122/122 121/121/121
f 118/118/118 119/119/119 123/123/123
f 118/118/118 123/123/123 120/120/120
f 120/120/120 123/123/123 122/122/122
f 119/119/119 124/124/124 123/123/123
f 123/123/123 125/125/125 122/122/122
f 123/123/123 124/124/124 125/125/125
f 124/124/124 126/126/126 125/125/125
